<?xml version="1.0" encoding="UTF-8" standalone="no"?>
<!DOCTYPE svg PUBLIC "-//W3C//DTD SVG 1.1//EN"
 "http://www.w3.org/Graphics/SVG/1.1/DTD/svg11.dtd">
<!-- Generated by graphviz version 2.40.1 (20161225.0304)
 -->
<!-- Title: gko::AbstractFactory&lt; AbstractProductType, ComponentsType &gt; Pages: 1 -->
<svg width="1411pt" height="137pt"
 viewBox="0.00 0.00 1411.00 137.00" xmlns="http://www.w3.org/2000/svg" xmlns:xlink="http://www.w3.org/1999/xlink">
<g id="graph0" class="graph" transform="scale(1 1) rotate(0) translate(4 133)">
<title>gko::AbstractFactory&lt; AbstractProductType, ComponentsType &gt;</title>
<polygon fill="#ffffff" stroke="transparent" points="-4,4 -4,-133 1407,-133 1407,4 -4,4"/>
<!-- Node1 -->
<g id="node1" class="node">
<title>Node1</title>
<g id="a_node1"><a xlink:title="The AbstractFactory is a generic interface template that enables easy implementation of the abstract ...">
<polygon fill="#bfbfbf" stroke="#000000" points="1272,-18.5 1272,-59.5 1403,-59.5 1403,-18.5 1272,-18.5"/>
<text text-anchor="start" x="1280" y="-47.5" font-family="Helvetica,sans-Serif" font-size="10.00" fill="#000000">gko::AbstractFactory</text>
<text text-anchor="start" x="1280" y="-36.5" font-family="Helvetica,sans-Serif" font-size="10.00" fill="#000000">&lt; AbstractProductType,</text>
<text text-anchor="middle" x="1337.5" y="-25.5" font-family="Helvetica,sans-Serif" font-size="10.00" fill="#000000"> ComponentsType &gt;</text>
</a>
</g>
</g>
<!-- Node2 -->
<g id="node2" class="node">
<title>Node2</title>
<g id="a_node2"><a xlink:href="classgko_1_1EnableAbstractPolymorphicObject.html" target="_top" xlink:title=" ">
<polygon fill="#ffffff" stroke="#000000" points="1003,-18.5 1003,-59.5 1235,-59.5 1235,-18.5 1003,-18.5"/>
<text text-anchor="start" x="1011" y="-47.5" font-family="Helvetica,sans-Serif" font-size="10.00" fill="#000000">gko::EnableAbstractPolymorphic</text>
<text text-anchor="start" x="1011" y="-36.5" font-family="Helvetica,sans-Serif" font-size="10.00" fill="#000000">Object&lt; AbstractFactory&lt;</text>
<text text-anchor="middle" x="1119" y="-25.5" font-family="Helvetica,sans-Serif" font-size="10.00" fill="#000000"> AbstractProductType, ComponentsType &gt; &gt;</text>
</a>
</g>
</g>
<!-- Node2&#45;&gt;Node1 -->
<g id="edge1" class="edge">
<title>Node2&#45;&gt;Node1</title>
<path fill="none" stroke="#191970" d="M1245.529,-39C1254.5516,-39 1263.413,-39 1271.8583,-39"/>
<polygon fill="#191970" stroke="#191970" points="1245.2872,-35.5001 1235.2872,-39 1245.2871,-42.5001 1245.2872,-35.5001"/>
</g>
<!-- Node3 -->
<g id="node3" class="node">
<title>Node3</title>
<g id="a_node3"><a xlink:href="classgko_1_1PolymorphicObject.html" target="_top" xlink:title="A PolymorphicObject is the abstract base for all &quot;heavy&quot; objects in Ginkgo that behave polymorphicall...">
<polygon fill="#ffffff" stroke="#000000" points="833,-55.5 833,-74.5 966,-74.5 966,-55.5 833,-55.5"/>
<text text-anchor="middle" x="899.5" y="-62.5" font-family="Helvetica,sans-Serif" font-size="10.00" fill="#000000">gko::PolymorphicObject</text>
</a>
</g>
</g>
<!-- Node3&#45;&gt;Node2 -->
<g id="edge2" class="edge">
<title>Node3&#45;&gt;Node2</title>
<path fill="none" stroke="#191970" d="M976.2084,-55.9138C984.8198,-54.8938 993.7305,-53.8383 1002.6997,-52.7759"/>
<polygon fill="#191970" stroke="#191970" points="975.7701,-52.4412 966.2513,-57.0932 976.5936,-59.3926 975.7701,-52.4412"/>
</g>
<!-- Node4 -->
<g id="node4" class="node">
<title>Node4</title>
<g id="a_node4"><a xlink:href="classgko_1_1log_1_1EnableLogging.html" target="_top" xlink:title=" ">
<polygon fill="#ffffff" stroke="#000000" points="554,-55 554,-85 687,-85 687,-55 554,-55"/>
<text text-anchor="start" x="562" y="-73" font-family="Helvetica,sans-Serif" font-size="10.00" fill="#000000">gko::log::EnableLogging</text>
<text text-anchor="middle" x="620.5" y="-62" font-family="Helvetica,sans-Serif" font-size="10.00" fill="#000000">&lt; PolymorphicObject &gt;</text>
</a>
</g>
</g>
<!-- Node4&#45;&gt;Node3 -->
<g id="edge3" class="edge">
<title>Node4&#45;&gt;Node3</title>
<path fill="none" stroke="#191970" d="M697.3369,-68.623C739.7842,-67.8623 792.0026,-66.9265 832.7349,-66.1965"/>
<polygon fill="#191970" stroke="#191970" points="697.2631,-65.1237 687.3275,-68.8024 697.3886,-72.1225 697.2631,-65.1237"/>
</g>
<!-- Node5 -->
<g id="node5" class="node">
<title>Node5</title>
<g id="a_node5"><a xlink:href="classgko_1_1log_1_1Loggable.html" target="_top" xlink:title="Loggable class is an interface which should be implemented by classes wanting to support logging.">
<polygon fill="#ffffff" stroke="#000000" points="176,-109.5 176,-128.5 282,-128.5 282,-109.5 176,-109.5"/>
<text text-anchor="middle" x="229" y="-116.5" font-family="Helvetica,sans-Serif" font-size="10.00" fill="#000000">gko::log::Loggable</text>
</a>
</g>
</g>
<!-- Node5&#45;&gt;Node4 -->
<g id="edge4" class="edge">
<title>Node5&#45;&gt;Node4</title>
<path fill="none" stroke="#191970" d="M292.1473,-113.2241C354.3208,-107.2506 451.9097,-97.1069 536,-85 541.7515,-84.1719 547.7117,-83.248 553.6836,-82.2767"/>
<polygon fill="#191970" stroke="#191970" points="291.7237,-109.7485 282.1014,-114.1825 292.3887,-116.7168 291.7237,-109.7485"/>
</g>
<!-- Node6 -->
<g id="node6" class="node">
<title>Node6</title>
<g id="a_node6"><a xlink:href="classgko_1_1log_1_1EnableLogging.html" target="_top" xlink:title="EnableLogging is a mixin which should be inherited by any class which wants to enable logging.">
<polygon fill="#ffffff" stroke="#000000" points="138,-49.5 138,-90.5 320,-90.5 320,-49.5 138,-49.5"/>
<text text-anchor="start" x="146" y="-78.5" font-family="Helvetica,sans-Serif" font-size="10.00" fill="#000000">gko::log::EnableLogging</text>
<text text-anchor="start" x="146" y="-67.5" font-family="Helvetica,sans-Serif" font-size="10.00" fill="#000000">&lt; ConcreteLoggable, Polymorphic</text>
<text text-anchor="middle" x="229" y="-56.5" font-family="Helvetica,sans-Serif" font-size="10.00" fill="#000000">Base &gt;</text>
</a>
</g>
</g>
<!-- Node6&#45;&gt;Node4 -->
<g id="edge5" class="edge">
<title>Node6&#45;&gt;Node4</title>
<path fill="none" stroke="#ffa500" stroke-dasharray="5,2" d="M330.5189,-70C400.9042,-70 492.6363,-70 553.8964,-70"/>
<polygon fill="#ffa500" stroke="#ffa500" points="330.2953,-66.5001 320.2953,-70 330.2952,-73.5001 330.2953,-66.5001"/>
<text text-anchor="middle" x="437" y="-73" font-family="Helvetica,sans-Serif" font-size="10.00" fill="#000000"> &lt; PolymorphicObject &gt;</text>
</g>
<!-- Node7 -->
<g id="node7" class="node">
<title>Node7</title>
<g id="a_node7"><a xlink:title=" ">
<polygon fill="#ffffff" stroke="#bfbfbf" points="0,-23.5 0,-42.5 101,-42.5 101,-23.5 0,-23.5"/>
<text text-anchor="middle" x="50.5" y="-30.5" font-family="Helvetica,sans-Serif" font-size="10.00" fill="#000000">PolymorphicBase</text>
</a>
</g>
</g>
<!-- Node7&#45;&gt;Node6 -->
<g id="edge6" class="edge">
<title>Node7&#45;&gt;Node6</title>
<path fill="none" stroke="#191970" d="M106.2638,-44.5589C116.3029,-46.6398 127.0031,-48.8578 137.7421,-51.0838"/>
<polygon fill="#191970" stroke="#191970" points="106.9705,-41.131 96.4682,-42.5284 105.5496,-47.9853 106.9705,-41.131"/>
</g>
<!-- Node8 -->
<g id="node8" class="node">
<title>Node8</title>
<g id="a_node8"><a xlink:href="classgko_1_1EnableAbstractPolymorphicObject.html" target="_top" xlink:title="This mixin inherits from (a subclass of) PolymorphicObject and provides a base implementation of a ne...">
<polygon fill="#ffffff" stroke="#000000" points="338,-.5 338,-41.5 536,-41.5 536,-.5 338,-.5"/>
<text text-anchor="start" x="346" y="-29.5" font-family="Helvetica,sans-Serif" font-size="10.00" fill="#000000">gko::EnableAbstractPolymorphic</text>
<text text-anchor="start" x="346" y="-18.5" font-family="Helvetica,sans-Serif" font-size="10.00" fill="#000000">Object&lt; AbstractObject, Polymorphic</text>
<text text-anchor="middle" x="437" y="-7.5" font-family="Helvetica,sans-Serif" font-size="10.00" fill="#000000">Base &gt;</text>
</a>
</g>
</g>
<!-- Node7&#45;&gt;Node8 -->
<g id="edge8" class="edge">
<title>Node7&#45;&gt;Node8</title>
<path fill="none" stroke="#191970" d="M111.2068,-31.1152C171.8632,-29.2319 266.1374,-26.3049 337.6981,-24.0831"/>
<polygon fill="#191970" stroke="#191970" points="110.9147,-27.6225 101.0281,-31.4312 111.132,-34.6191 110.9147,-27.6225"/>
</g>
<!-- Node8&#45;&gt;Node2 -->
<g id="edge7" class="edge">
<title>Node8&#45;&gt;Node2</title>
<path fill="none" stroke="#ffa500" stroke-dasharray="5,2" d="M546.0962,-22.9706C621.605,-24.4175 724.4163,-26.5517 815,-29 877.0248,-30.6764 946.1554,-32.9206 1002.8024,-34.8582"/>
<polygon fill="#ffa500" stroke="#ffa500" points="546.1592,-19.4713 536.0943,-22.7799 546.0257,-26.47 546.1592,-19.4713"/>
<text text-anchor="start" x="705" y="-54" font-family="Helvetica,sans-Serif" font-size="10.00" fill="#000000"> &lt; AbstractFactory&lt;</text>
<text text-anchor="start" x="705" y="-43" font-family="Helvetica,sans-Serif" font-size="10.00" fill="#000000"> AbstractProductType,</text>
<text text-anchor="middle" x="760" y="-32" font-family="Helvetica,sans-Serif" font-size="10.00" fill="#000000"> ComponentsType &gt; &gt;</text>
</g>
</g>
</svg>
