<?xml version="1.0" encoding="UTF-8" standalone="no"?>
<!DOCTYPE svg PUBLIC "-//W3C//DTD SVG 1.1//EN"
 "http://www.w3.org/Graphics/SVG/1.1/DTD/svg11.dtd">
<!-- Generated by graphviz version 2.40.1 (20161225.0304)
 -->
<!-- Title: gko::log::ProfilerHook::TableSummaryWriter Pages: 1 -->
<svg width="282pt" height="106pt"
 viewBox="0.00 0.00 282.00 106.00" xmlns="http://www.w3.org/2000/svg" xmlns:xlink="http://www.w3.org/1999/xlink">
<g id="graph0" class="graph" transform="scale(1 1) rotate(0) translate(4 102)">
<title>gko::log::ProfilerHook::TableSummaryWriter</title>
<polygon fill="#ffffff" stroke="transparent" points="-4,4 -4,-102 278,-102 278,4 -4,4"/>
<!-- Node1 -->
<g id="node1" class="node">
<title>Node1</title>
<g id="a_node1"><a xlink:title="Writes the results from ProfilerHook::create_summary() and ProfilerHook::create_nested_summary() to a...">
<polygon fill="#bfbfbf" stroke="#000000" points="71.5,-.5 71.5,-30.5 196.5,-30.5 196.5,-.5 71.5,-.5"/>
<text text-anchor="start" x="79.5" y="-18.5" font-family="Helvetica,sans-Serif" font-size="10.00" fill="#000000">gko::log::ProfilerHook</text>
<text text-anchor="middle" x="134" y="-7.5" font-family="Helvetica,sans-Serif" font-size="10.00" fill="#000000">::TableSummaryWriter</text>
</a>
</g>
</g>
<!-- Node2 -->
<g id="node2" class="node">
<title>Node2</title>
<g id="a_node2"><a xlink:href="classgko_1_1log_1_1ProfilerHook_1_1SummaryWriter.html" target="_top" xlink:title="Recieves the results from ProfilerHook::create_summary().">
<polygon fill="#ffffff" stroke="#000000" points="0,-67.5 0,-97.5 122,-97.5 122,-67.5 0,-67.5"/>
<text text-anchor="start" x="8" y="-85.5" font-family="Helvetica,sans-Serif" font-size="10.00" fill="#000000">gko::log::ProfilerHook</text>
<text text-anchor="middle" x="61" y="-74.5" font-family="Helvetica,sans-Serif" font-size="10.00" fill="#000000">::SummaryWriter</text>
</a>
</g>
</g>
<!-- Node2&#45;&gt;Node1 -->
<g id="edge1" class="edge">
<title>Node2&#45;&gt;Node1</title>
<path fill="none" stroke="#191970" d="M84.974,-60.4965C95.6267,-50.7193 107.8993,-39.4554 117.5007,-30.6432"/>
<polygon fill="#191970" stroke="#191970" points="82.5656,-57.9562 77.5648,-67.2967 87.2989,-63.1134 82.5656,-57.9562"/>
</g>
<!-- Node3 -->
<g id="node3" class="node">
<title>Node3</title>
<g id="a_node3"><a xlink:href="classgko_1_1log_1_1ProfilerHook_1_1NestedSummaryWriter.html" target="_top" xlink:title="Recieves the results from ProfilerHook::create_nested_summary().">
<polygon fill="#ffffff" stroke="#000000" points="140,-67.5 140,-97.5 274,-97.5 274,-67.5 140,-67.5"/>
<text text-anchor="start" x="148" y="-85.5" font-family="Helvetica,sans-Serif" font-size="10.00" fill="#000000">gko::log::ProfilerHook</text>
<text text-anchor="middle" x="207" y="-74.5" font-family="Helvetica,sans-Serif" font-size="10.00" fill="#000000">::NestedSummaryWriter</text>
</a>
</g>
</g>
<!-- Node3&#45;&gt;Node1 -->
<g id="edge2" class="edge">
<title>Node3&#45;&gt;Node1</title>
<path fill="none" stroke="#191970" d="M183.026,-60.4965C172.3733,-50.7193 160.1007,-39.4554 150.4993,-30.6432"/>
<polygon fill="#191970" stroke="#191970" points="180.7011,-63.1134 190.4352,-67.2967 185.4344,-57.9562 180.7011,-63.1134"/>
</g>
</g>
</svg>
