<?xml version="1.0" encoding="UTF-8" standalone="no"?>
<!DOCTYPE svg PUBLIC "-//W3C//DTD SVG 1.1//EN"
 "http://www.w3.org/Graphics/SVG/1.1/DTD/svg11.dtd">
<!-- Generated by graphviz version 2.40.1 (20161225.0304)
 -->
<!-- Title: gko::Executor Pages: 1 -->
<svg width="1364pt" height="372pt"
 viewBox="0.00 0.00 1364.00 372.00" xmlns="http://www.w3.org/2000/svg" xmlns:xlink="http://www.w3.org/1999/xlink">
<g id="graph0" class="graph" transform="scale(1 1) rotate(0) translate(4 368)">
<title>gko::Executor</title>
<polygon fill="#ffffff" stroke="transparent" points="-4,4 -4,-368 1360,-368 1360,4 -4,4"/>
<!-- Node1 -->
<g id="node1" class="node">
<title>Node1</title>
<g id="a_node1"><a xlink:title="The first step in using the Ginkgo library consists of creating an executor.">
<polygon fill="#bfbfbf" stroke="#000000" points="595,-172 595,-191 678,-191 678,-172 595,-172"/>
<text text-anchor="middle" x="636.5" y="-179" font-family="Helvetica,sans-Serif" font-size="10.00" fill="#000000">gko::Executor</text>
</a>
</g>
</g>
<!-- Node6 -->
<g id="node6" class="node">
<title>Node6</title>
<g id="a_node6"><a xlink:title=" ">
<polygon fill="#ffffff" stroke="#bfbfbf" points="1019,-333.5 1019,-363.5 1160,-363.5 1160,-333.5 1019,-333.5"/>
<text text-anchor="start" x="1027" y="-351.5" font-family="Helvetica,sans-Serif" font-size="10.00" fill="#000000">gko::detail::ExecutorBase</text>
<text text-anchor="middle" x="1089.5" y="-340.5" font-family="Helvetica,sans-Serif" font-size="10.00" fill="#000000">&lt; CudaExecutor &gt;</text>
</a>
</g>
</g>
<!-- Node1&#45;&gt;Node6 -->
<g id="edge5" class="edge">
<title>Node1&#45;&gt;Node6</title>
<path fill="none" stroke="#191970" d="M646.7208,-199.8962C659.7309,-221.5703 684.254,-257.0806 715,-276.5 808.3425,-335.4557 938.9771,-348.1559 1018.7188,-349.8455"/>
<polygon fill="#191970" stroke="#191970" points="649.617,-197.9135 641.5723,-191.019 643.5617,-201.4254 649.617,-197.9135"/>
</g>
<!-- Node7 -->
<g id="node7" class="node">
<title>Node7</title>
<g id="a_node7"><a xlink:title=" ">
<polygon fill="#ffffff" stroke="#bfbfbf" points="1019,-.5 1019,-30.5 1160,-30.5 1160,-.5 1019,-.5"/>
<text text-anchor="start" x="1027" y="-18.5" font-family="Helvetica,sans-Serif" font-size="10.00" fill="#000000">gko::detail::ExecutorBase</text>
<text text-anchor="middle" x="1089.5" y="-7.5" font-family="Helvetica,sans-Serif" font-size="10.00" fill="#000000">&lt; DpcppExecutor &gt;</text>
</a>
</g>
</g>
<!-- Node1&#45;&gt;Node7 -->
<g id="edge6" class="edge">
<title>Node1&#45;&gt;Node7</title>
<path fill="none" stroke="#191970" d="M643.6672,-162.4239C654.6571,-136.0557 678.3308,-89.1638 715,-66.5 808.2142,-8.888 939.1824,-4.7385 1018.9798,-8.8165"/>
<polygon fill="#191970" stroke="#191970" points="640.4074,-161.1495 639.9605,-171.7349 646.911,-163.7386 640.4074,-161.1495"/>
</g>
<!-- Node8 -->
<g id="node8" class="node">
<title>Node8</title>
<g id="a_node8"><a xlink:title=" ">
<polygon fill="#ffffff" stroke="#bfbfbf" points="1019,-280.5 1019,-310.5 1160,-310.5 1160,-280.5 1019,-280.5"/>
<text text-anchor="start" x="1027" y="-298.5" font-family="Helvetica,sans-Serif" font-size="10.00" fill="#000000">gko::detail::ExecutorBase</text>
<text text-anchor="middle" x="1089.5" y="-287.5" font-family="Helvetica,sans-Serif" font-size="10.00" fill="#000000">&lt; HipExecutor &gt;</text>
</a>
</g>
</g>
<!-- Node1&#45;&gt;Node8 -->
<g id="edge7" class="edge">
<title>Node1&#45;&gt;Node8</title>
<path fill="none" stroke="#191970" d="M658.6395,-196.7904C699.1434,-223.7279 788.8618,-278.6671 874,-298.5 921.3735,-309.5356 976.205,-308.5896 1018.7036,-304.9849"/>
<polygon fill="#191970" stroke="#191970" points="660.3448,-193.7191 650.0956,-191.035 656.434,-199.5248 660.3448,-193.7191"/>
</g>
<!-- Node9 -->
<g id="node9" class="node">
<title>Node9</title>
<g id="a_node9"><a xlink:title=" ">
<polygon fill="#ffffff" stroke="#bfbfbf" points="1019,-52.5 1019,-82.5 1160,-82.5 1160,-52.5 1019,-52.5"/>
<text text-anchor="start" x="1027" y="-70.5" font-family="Helvetica,sans-Serif" font-size="10.00" fill="#000000">gko::detail::ExecutorBase</text>
<text text-anchor="middle" x="1089.5" y="-59.5" font-family="Helvetica,sans-Serif" font-size="10.00" fill="#000000">&lt; OmpExecutor &gt;</text>
</a>
</g>
</g>
<!-- Node1&#45;&gt;Node9 -->
<g id="edge8" class="edge">
<title>Node1&#45;&gt;Node9</title>
<path fill="none" stroke="#191970" d="M658.7021,-166.3116C699.2598,-139.5921 788.9988,-85.149 874,-65.5 921.3896,-54.5454 976.2209,-55.2323 1018.7154,-58.5622"/>
<polygon fill="#191970" stroke="#191970" points="656.7442,-163.4104 650.3672,-171.8712 660.6286,-169.2338 656.7442,-163.4104"/>
</g>
<!-- Node10 -->
<g id="node10" class="node">
<title>Node10</title>
<g id="a_node10"><a xlink:title=" ">
<polygon fill="#ffffff" stroke="#bfbfbf" points="715,-166.5 715,-196.5 856,-196.5 856,-166.5 715,-166.5"/>
<text text-anchor="start" x="723" y="-184.5" font-family="Helvetica,sans-Serif" font-size="10.00" fill="#000000">gko::detail::ExecutorBase</text>
<text text-anchor="middle" x="785.5" y="-173.5" font-family="Helvetica,sans-Serif" font-size="10.00" fill="#000000">&lt; ConcreteExecutor &gt;</text>
</a>
</g>
</g>
<!-- Node1&#45;&gt;Node10 -->
<g id="edge9" class="edge">
<title>Node1&#45;&gt;Node10</title>
<path fill="none" stroke="#191970" d="M688.228,-181.5C696.8197,-181.5 705.8585,-181.5 714.8232,-181.5"/>
<polygon fill="#191970" stroke="#191970" points="688.0048,-178.0001 678.0048,-181.5 688.0048,-185.0001 688.0048,-178.0001"/>
</g>
<!-- Node2 -->
<g id="node2" class="node">
<title>Node2</title>
<g id="a_node2"><a xlink:href="classgko_1_1log_1_1EnableLogging.html" target="_top" xlink:title=" ">
<polygon fill="#ffffff" stroke="#000000" points="425,-166.5 425,-196.5 558,-196.5 558,-166.5 425,-166.5"/>
<text text-anchor="start" x="433" y="-184.5" font-family="Helvetica,sans-Serif" font-size="10.00" fill="#000000">gko::log::EnableLogging</text>
<text text-anchor="middle" x="491.5" y="-173.5" font-family="Helvetica,sans-Serif" font-size="10.00" fill="#000000">&lt; Executor &gt;</text>
</a>
</g>
</g>
<!-- Node2&#45;&gt;Node1 -->
<g id="edge1" class="edge">
<title>Node2&#45;&gt;Node1</title>
<path fill="none" stroke="#191970" d="M568.3413,-181.5C577.4415,-181.5 586.4501,-181.5 594.791,-181.5"/>
<polygon fill="#191970" stroke="#191970" points="568.0587,-178.0001 558.0587,-181.5 568.0586,-185.0001 568.0587,-178.0001"/>
</g>
<!-- Node3 -->
<g id="node3" class="node">
<title>Node3</title>
<g id="a_node3"><a xlink:href="classgko_1_1log_1_1Loggable.html" target="_top" xlink:title="Loggable class is an interface which should be implemented by classes wanting to support logging.">
<polygon fill="#ffffff" stroke="#000000" points="176,-196 176,-215 282,-215 282,-196 176,-196"/>
<text text-anchor="middle" x="229" y="-203" font-family="Helvetica,sans-Serif" font-size="10.00" fill="#000000">gko::log::Loggable</text>
</a>
</g>
</g>
<!-- Node3&#45;&gt;Node2 -->
<g id="edge2" class="edge">
<title>Node3&#45;&gt;Node2</title>
<path fill="none" stroke="#191970" d="M292.3136,-199.7113C332.4192,-196.0445 384.2087,-191.3095 424.9261,-187.5868"/>
<polygon fill="#191970" stroke="#191970" points="291.7606,-196.2472 282.1208,-200.6432 292.398,-203.2181 291.7606,-196.2472"/>
</g>
<!-- Node4 -->
<g id="node4" class="node">
<title>Node4</title>
<g id="a_node4"><a xlink:href="classgko_1_1log_1_1EnableLogging.html" target="_top" xlink:title="EnableLogging is a mixin which should be inherited by any class which wants to enable logging.">
<polygon fill="#ffffff" stroke="#000000" points="138,-136 138,-177 320,-177 320,-136 138,-136"/>
<text text-anchor="start" x="146" y="-165" font-family="Helvetica,sans-Serif" font-size="10.00" fill="#000000">gko::log::EnableLogging</text>
<text text-anchor="start" x="146" y="-154" font-family="Helvetica,sans-Serif" font-size="10.00" fill="#000000">&lt; ConcreteLoggable, Polymorphic</text>
<text text-anchor="middle" x="229" y="-143" font-family="Helvetica,sans-Serif" font-size="10.00" fill="#000000">Base &gt;</text>
</a>
</g>
</g>
<!-- Node4&#45;&gt;Node2 -->
<g id="edge3" class="edge">
<title>Node4&#45;&gt;Node2</title>
<path fill="none" stroke="#ffa500" stroke-dasharray="5,2" d="M330.2441,-166.1423C361.8673,-169.154 395.946,-172.3996 424.5916,-175.1278"/>
<polygon fill="#ffa500" stroke="#ffa500" points="330.3599,-162.6376 320.0731,-165.1736 329.6962,-169.606 330.3599,-162.6376"/>
<text text-anchor="middle" x="372.5" y="-176.5" font-family="Helvetica,sans-Serif" font-size="10.00" fill="#000000"> &lt; Executor &gt;</text>
</g>
<!-- Node5 -->
<g id="node5" class="node">
<title>Node5</title>
<g id="a_node5"><a xlink:title=" ">
<polygon fill="#ffffff" stroke="#bfbfbf" points="0,-147 0,-166 101,-166 101,-147 0,-147"/>
<text text-anchor="middle" x="50.5" y="-154" font-family="Helvetica,sans-Serif" font-size="10.00" fill="#000000">PolymorphicBase</text>
</a>
</g>
</g>
<!-- Node5&#45;&gt;Node4 -->
<g id="edge4" class="edge">
<title>Node5&#45;&gt;Node4</title>
<path fill="none" stroke="#191970" d="M111.4269,-156.5C120.0117,-156.5 128.9864,-156.5 137.9851,-156.5"/>
<polygon fill="#191970" stroke="#191970" points="111.1735,-153.0001 101.1735,-156.5 111.1734,-160.0001 111.1735,-153.0001"/>
</g>
<!-- Node10&#45;&gt;Node6 -->
<g id="edge16" class="edge">
<title>Node10&#45;&gt;Node6</title>
<path fill="none" stroke="#ffa500" stroke-dasharray="5,2" d="M806.2082,-204.5066C823.1837,-222.4327 848.4902,-247.1143 874,-264.5 922.2792,-297.4037 985.292,-320.0398 1030.6947,-333.4508"/>
<polygon fill="#ffa500" stroke="#ffa500" points="808.4017,-201.7266 799.024,-196.7961 803.2802,-206.4984 808.4017,-201.7266"/>
<text text-anchor="middle" x="924" y="-315.5" font-family="Helvetica,sans-Serif" font-size="10.00" fill="#000000"> &lt; CudaExecutor &gt;</text>
</g>
<!-- Node10&#45;&gt;Node7 -->
<g id="edge17" class="edge">
<title>Node10&#45;&gt;Node7</title>
<path fill="none" stroke="#ffa500" stroke-dasharray="5,2" d="M801.1981,-158.2189C817.1657,-136.1614 843.8046,-103.5148 874,-83.5 917.6549,-54.5637 974.3834,-37.3147 1018.6785,-27.4327"/>
<polygon fill="#ffa500" stroke="#ffa500" points="798.3367,-156.2033 795.42,-166.3887 804.0519,-160.2452 798.3367,-156.2033"/>
<text text-anchor="middle" x="924" y="-86.5" font-family="Helvetica,sans-Serif" font-size="10.00" fill="#000000"> &lt; DpcppExecutor &gt;</text>
</g>
<!-- Node10&#45;&gt;Node8 -->
<g id="edge15" class="edge">
<title>Node10&#45;&gt;Node8</title>
<path fill="none" stroke="#ffa500" stroke-dasharray="5,2" d="M821.3278,-201.2364C837.1627,-209.4524 856.1947,-218.6513 874,-225.5 917.0771,-242.0692 933.1447,-232.0287 974,-253.5 983.2182,-258.3446 982.7749,-263.6686 992,-268.5 1000.9467,-273.1856 1010.7931,-277.1284 1020.6838,-280.4258"/>
<polygon fill="#ffa500" stroke="#ffa500" points="822.8861,-198.1014 812.4073,-196.5377 819.6239,-204.2948 822.8861,-198.1014"/>
<text text-anchor="middle" x="924" y="-256.5" font-family="Helvetica,sans-Serif" font-size="10.00" fill="#000000"> &lt; HipExecutor &gt;</text>
</g>
<!-- Node10&#45;&gt;Node9 -->
<g id="edge18" class="edge">
<title>Node10&#45;&gt;Node9</title>
<path fill="none" stroke="#ffa500" stroke-dasharray="5,2" d="M811.9345,-159.942C828.8028,-147.1376 851.6318,-131.4993 874,-121.5 915.8236,-102.8036 929.5612,-107.6337 974,-96.5 992.0492,-91.9779 1011.6829,-87.0512 1029.5562,-82.5631"/>
<polygon fill="#ffa500" stroke="#ffa500" points="809.4484,-157.4408 803.6908,-166.3346 813.738,-162.9725 809.4484,-157.4408"/>
<text text-anchor="middle" x="924" y="-124.5" font-family="Helvetica,sans-Serif" font-size="10.00" fill="#000000"> &lt; OmpExecutor &gt;</text>
</g>
<!-- Node11 -->
<g id="node11" class="node">
<title>Node11</title>
<g id="a_node11"><a xlink:href="classgko_1_1CudaExecutor.html" target="_top" xlink:title="This is the Executor subclass which represents the CUDA device.">
<polygon fill="#ffffff" stroke="#000000" points="1031.5,-228.5 1031.5,-258.5 1147.5,-258.5 1147.5,-228.5 1031.5,-228.5"/>
<text text-anchor="start" x="1039.5" y="-246.5" font-family="Helvetica,sans-Serif" font-size="10.00" fill="#000000">gko::CudaExecutor&lt;</text>
<text text-anchor="middle" x="1089.5" y="-235.5" font-family="Helvetica,sans-Serif" font-size="10.00" fill="#000000"> CudaExecutor &gt;</text>
</a>
</g>
</g>
<!-- Node10&#45;&gt;Node11 -->
<g id="edge10" class="edge">
<title>Node10&#45;&gt;Node11</title>
<path fill="none" stroke="#191970" d="M861.2634,-198.7775C865.5696,-199.7109 869.8381,-200.6244 874,-201.5 927.1532,-212.6831 987.9044,-224.4299 1031.3254,-232.6478"/>
<polygon fill="#191970" stroke="#191970" points="861.6963,-195.2895 851.1793,-196.5713 860.2002,-202.1277 861.6963,-195.2895"/>
</g>
<!-- Node12 -->
<g id="node12" class="node">
<title>Node12</title>
<g id="a_node12"><a xlink:href="classgko_1_1DpcppExecutor.html" target="_top" xlink:title="This is the Executor subclass which represents a DPC++ enhanced device.">
<polygon fill="#ffffff" stroke="#000000" points="1032.5,-179.5 1032.5,-209.5 1146.5,-209.5 1146.5,-179.5 1032.5,-179.5"/>
<text text-anchor="start" x="1040.5" y="-197.5" font-family="Helvetica,sans-Serif" font-size="10.00" fill="#000000">gko::DpcppExecutor</text>
<text text-anchor="middle" x="1089.5" y="-186.5" font-family="Helvetica,sans-Serif" font-size="10.00" fill="#000000">&lt; DpcppExecutor &gt;</text>
</a>
</g>
</g>
<!-- Node10&#45;&gt;Node12 -->
<g id="edge11" class="edge">
<title>Node10&#45;&gt;Node12</title>
<path fill="none" stroke="#191970" d="M866.2524,-184.9532C918.4935,-187.1872 985.246,-190.0418 1032.0966,-192.0453"/>
<polygon fill="#191970" stroke="#191970" points="866.1482,-181.4457 856.0078,-184.5151 865.8491,-188.4393 866.1482,-181.4457"/>
</g>
<!-- Node13 -->
<g id="node13" class="node">
<title>Node13</title>
<g id="a_node13"><a xlink:href="classgko_1_1HipExecutor.html" target="_top" xlink:title="This is the Executor subclass which represents the HIP enhanced device.">
<polygon fill="#ffffff" stroke="#000000" points="998.5,-141 998.5,-160 1180.5,-160 1180.5,-141 998.5,-141"/>
<text text-anchor="middle" x="1089.5" y="-148" font-family="Helvetica,sans-Serif" font-size="10.00" fill="#000000">gko::HipExecutor&lt; HipExecutor &gt;</text>
</a>
</g>
</g>
<!-- Node10&#45;&gt;Node13 -->
<g id="edge12" class="edge">
<title>Node10&#45;&gt;Node13</title>
<path fill="none" stroke="#191970" d="M866.1453,-173.2763C906.8052,-169.1301 956.2765,-164.0853 998.3157,-159.7984"/>
<polygon fill="#191970" stroke="#191970" points="865.6011,-169.8136 856.0078,-174.3101 866.3113,-176.7774 865.6011,-169.8136"/>
</g>
<!-- Node14 -->
<g id="node14" class="node">
<title>Node14</title>
<g id="a_node14"><a xlink:href="classgko_1_1OmpExecutor.html" target="_top" xlink:title="This is the Executor subclass which represents the OpenMP device (typically CPU).">
<polygon fill="#ffffff" stroke="#000000" points="992,-103 992,-122 1187,-122 1187,-103 992,-103"/>
<text text-anchor="middle" x="1089.5" y="-110" font-family="Helvetica,sans-Serif" font-size="10.00" fill="#000000">gko::OmpExecutor&lt; OmpExecutor &gt;</text>
</a>
</g>
</g>
<!-- Node10&#45;&gt;Node14 -->
<g id="edge13" class="edge">
<title>Node10&#45;&gt;Node14</title>
<path fill="none" stroke="#191970" d="M852.4343,-163.8831C859.7052,-162.0355 867.0025,-160.2094 874,-158.5 926.2629,-145.7325 939.3676,-142.6467 992,-131.5 1007.2685,-128.2664 1023.9266,-124.9445 1039.0836,-122.001"/>
<polygon fill="#191970" stroke="#191970" points="851.3872,-160.5381 842.5663,-166.4069 853.1218,-167.3198 851.3872,-160.5381"/>
</g>
<!-- Node15 -->
<g id="node15" class="node">
<title>Node15</title>
<g id="a_node15"><a xlink:href="classgko_1_1ReferenceExecutor.html" target="_top" xlink:title="This is a specialization of the OmpExecutor, which runs the reference implementations of the kernels ...">
<polygon fill="#ffffff" stroke="#000000" points="1224,-103 1224,-122 1356,-122 1356,-103 1224,-103"/>
<text text-anchor="middle" x="1290" y="-110" font-family="Helvetica,sans-Serif" font-size="10.00" fill="#000000">gko::ReferenceExecutor</text>
</a>
</g>
</g>
<!-- Node14&#45;&gt;Node15 -->
<g id="edge14" class="edge">
<title>Node14&#45;&gt;Node15</title>
<path fill="none" stroke="#191970" d="M1197.3154,-112.5C1206.3401,-112.5 1215.2825,-112.5 1223.848,-112.5"/>
<polygon fill="#191970" stroke="#191970" points="1197.107,-109.0001 1187.107,-112.5 1197.1069,-116.0001 1197.107,-109.0001"/>
</g>
</g>
</svg>
