<?xml version="1.0" encoding="UTF-8" standalone="no"?>
<!DOCTYPE svg PUBLIC "-//W3C//DTD SVG 1.1//EN"
 "http://www.w3.org/Graphics/SVG/1.1/DTD/svg11.dtd">
<!-- Generated by graphviz version 2.40.1 (20161225.0304)
 -->
<!-- Title: gko::solver::Bicgstab&lt; ValueType &gt; Pages: 1 -->
<!--zoomable 544 -->
<svg id="main" version="1.1" xmlns="http://www.w3.org/2000/svg" xmlns:xlink="http://www.w3.org/1999/xlink" xml:space="preserve" onload="init(evt)">
<style type="text/css"><![CDATA[
.edge:hover path { stroke: red; }
.edge:hover polygon { stroke: red; fill: red; }
]]></style>
<script type="text/javascript"><![CDATA[
var edges = document.getElementsByTagName('g');
if (edges && edges.length) {
  for (var i=0;i<edges.length;i++) {
    if (edges[i].id.substr(0,4)=='edge') {
      edges[i].setAttribute('class','edge');
    }
  }
}
]]></script>
        <defs>
                <circle id="rim" cx="0" cy="0" r="7"/>
                <circle id="rim2" cx="0" cy="0" r="3.5"/>
                <g id="zoomPlus">
                        <use xlink:href="#rim" fill="#404040">
                                <set attributeName="fill" to="#808080" begin="zoomplus.mouseover" end="zoomplus.mouseout"/>
                        </use>
                        <path d="M-4,0h8M0,-4v8" fill="none" stroke="white" stroke-width="1.5" pointer-events="none"/>
                </g>
                <g id="zoomMin">
                        <use xlink:href="#rim" fill="#404040">
                                <set attributeName="fill" to="#808080" begin="zoomminus.mouseover" end="zoomminus.mouseout"/>
                        </use>
                        <path d="M-4,0h8" fill="none" stroke="white" stroke-width="1.5" pointer-events="none"/>
                </g>
                <g id="dirArrow">
                        <path fill="none" stroke="white" stroke-width="1.5" d="M0,-3.0v7 M-2.5,-0.5L0,-3.0L2.5,-0.5"/>
                </g>
               <g id="resetDef">
                       <use xlink:href="#rim2" fill="#404040">
                               <set attributeName="fill" to="#808080" begin="reset.mouseover" end="reset.mouseout"/>
                       </use>
               </g>
        </defs>

<script type="text/javascript">
var viewWidth = 2390;
var viewHeight = 544;
var sectionId = 'dynsection-0';
</script>
<script xlink:href="svgpan.js"/>
<svg id="graph" class="graph">
<g id="viewport">
<title>gko::solver::Bicgstab&lt; ValueType &gt;</title>
<polygon fill="#ffffff" stroke="transparent" points="-4,4 -4,-540 2386,-540 2386,4 -4,4"/>
<!-- Node1 -->
<g id="node1" class="node">
<title>Node1</title>
<g id="a_node1"><a xlink:title="BiCGSTAB or the Bi&#45;Conjugate Gradient&#45;Stabilized is a Krylov subspace solver.">
<polygon fill="#bfbfbf" stroke="#000000" points="2263,-125 2263,-155 2382,-155 2382,-125 2263,-125"/>
<text text-anchor="start" x="2271" y="-143" font-family="Helvetica,sans-Serif" font-size="10.00" fill="#000000">gko::solver::Bicgstab</text>
<text text-anchor="middle" x="2322.5" y="-132" font-family="Helvetica,sans-Serif" font-size="10.00" fill="#000000">&lt; ValueType &gt;</text>
</a>
</g>
</g>
<!-- Node2 -->
<g id="node2" class="node">
<title>Node2</title>
<g id="a_node2"><a xlink:href="classgko_1_1EnableLinOp.html" target="_top" xlink:title=" ">
<polygon fill="#ffffff" stroke="#000000" points="2057.5,-299 2057.5,-329 2212.5,-329 2212.5,-299 2057.5,-299"/>
<text text-anchor="start" x="2065.5" y="-317" font-family="Helvetica,sans-Serif" font-size="10.00" fill="#000000">gko::EnableLinOp&lt; Bicgstab</text>
<text text-anchor="middle" x="2135" y="-306" font-family="Helvetica,sans-Serif" font-size="10.00" fill="#000000">&lt; ValueType &gt; &gt;</text>
</a>
</g>
</g>
<!-- Node2&#45;&gt;Node1 -->
<g id="edge1" class="edge">
<title>Node2&#45;&gt;Node1</title>
<path fill="none" stroke="#191970" d="M2158.9867,-291.7404C2197.6854,-255.8279 2272.906,-186.0232 2306.0928,-155.2259"/>
<polygon fill="#191970" stroke="#191970" points="2156.2606,-289.4952 2151.3114,-298.863 2161.0222,-294.6263 2156.2606,-289.4952"/>
</g>
<!-- Node3 -->
<g id="node3" class="node">
<title>Node3</title>
<g id="a_node3"><a xlink:href="classgko_1_1EnablePolymorphicObject.html" target="_top" xlink:title=" ">
<polygon fill="#ffffff" stroke="#000000" points="1689.5,-324.5 1689.5,-365.5 1855.5,-365.5 1855.5,-324.5 1689.5,-324.5"/>
<text text-anchor="start" x="1697.5" y="-353.5" font-family="Helvetica,sans-Serif" font-size="10.00" fill="#000000">gko::EnablePolymorphicObject</text>
<text text-anchor="start" x="1697.5" y="-342.5" font-family="Helvetica,sans-Serif" font-size="10.00" fill="#000000">&lt; Bicgstab&lt; ValueType &gt;,</text>
<text text-anchor="middle" x="1772.5" y="-331.5" font-family="Helvetica,sans-Serif" font-size="10.00" fill="#000000"> LinOp &gt;</text>
</a>
</g>
</g>
<!-- Node3&#45;&gt;Node2 -->
<g id="edge2" class="edge">
<title>Node3&#45;&gt;Node2</title>
<path fill="none" stroke="#191970" d="M1865.8086,-337.0205C1925.261,-331.9363 2001.3749,-325.4272 2057.4892,-320.6285"/>
<polygon fill="#191970" stroke="#191970" points="1865.3302,-333.5485 1855.6648,-337.888 1865.9267,-340.5231 1865.3302,-333.5485"/>
</g>
<!-- Node4 -->
<g id="node4" class="node">
<title>Node4</title>
<g id="a_node4"><a xlink:href="classgko_1_1EnableAbstractPolymorphicObject.html" target="_top" xlink:title=" ">
<polygon fill="#ffffff" stroke="#000000" points="1313,-471.5 1313,-512.5 1488,-512.5 1488,-471.5 1313,-471.5"/>
<text text-anchor="start" x="1321" y="-500.5" font-family="Helvetica,sans-Serif" font-size="10.00" fill="#000000">gko::EnableAbstractPolymorphic</text>
<text text-anchor="start" x="1321" y="-489.5" font-family="Helvetica,sans-Serif" font-size="10.00" fill="#000000">Object&lt; Bicgstab&lt; ValueType</text>
<text text-anchor="middle" x="1400.5" y="-478.5" font-family="Helvetica,sans-Serif" font-size="10.00" fill="#000000"> &gt;, LinOp &gt;</text>
</a>
</g>
</g>
<!-- Node4&#45;&gt;Node3 -->
<g id="edge3" class="edge">
<title>Node4&#45;&gt;Node3</title>
<path fill="none" stroke="#191970" d="M1475.1166,-468.2401C1483.8778,-465.2317 1492.6614,-462.1139 1501,-459 1581.2184,-429.0434 1672.6938,-389.484 1726.3536,-365.7124"/>
<polygon fill="#191970" stroke="#191970" points="1473.9851,-464.928 1465.6406,-471.4564 1476.235,-471.5566 1473.9851,-464.928"/>
</g>
<!-- Node5 -->
<g id="node5" class="node">
<title>Node5</title>
<g id="a_node5"><a xlink:href="classgko_1_1LinOp.html" target="_top" xlink:title=" ">
<polygon fill="#ffffff" stroke="#000000" points="974.5,-482.5 974.5,-501.5 1042.5,-501.5 1042.5,-482.5 974.5,-482.5"/>
<text text-anchor="middle" x="1008.5" y="-489.5" font-family="Helvetica,sans-Serif" font-size="10.00" fill="#000000">gko::LinOp</text>
</a>
</g>
</g>
<!-- Node5&#45;&gt;Node4 -->
<g id="edge4" class="edge">
<title>Node5&#45;&gt;Node4</title>
<path fill="none" stroke="#191970" d="M1052.9667,-492C1115.8762,-492 1232.1665,-492 1312.805,-492"/>
<polygon fill="#191970" stroke="#191970" points="1052.6017,-488.5001 1042.6017,-492 1052.6017,-495.5001 1052.6017,-488.5001"/>
</g>
<!-- Node6 -->
<g id="node6" class="node">
<title>Node6</title>
<g id="a_node6"><a xlink:href="classgko_1_1EnableAbstractPolymorphicObject.html" target="_top" xlink:title=" ">
<polygon fill="#ffffff" stroke="#ff0000" points="542,-457 542,-487 717,-487 717,-457 542,-457"/>
<text text-anchor="start" x="550" y="-475" font-family="Helvetica,sans-Serif" font-size="10.00" fill="#000000">gko::EnableAbstractPolymorphic</text>
<text text-anchor="middle" x="629.5" y="-464" font-family="Helvetica,sans-Serif" font-size="10.00" fill="#000000">Object&lt; LinOp &gt;</text>
</a>
</g>
</g>
<!-- Node6&#45;&gt;Node5 -->
<g id="edge5" class="edge">
<title>Node6&#45;&gt;Node5</title>
<path fill="none" stroke="#191970" d="M727.6403,-477.1789C808.7344,-481.4583 919.1713,-487.2861 974.2817,-490.1943"/>
<polygon fill="#191970" stroke="#191970" points="727.5734,-473.6706 717.4028,-476.6387 727.2045,-480.6609 727.5734,-473.6706"/>
</g>
<!-- Node12 -->
<g id="node7" class="node">
<title>Node12</title>
<g id="a_node7"><a xlink:href="classgko_1_1EnableAbstractPolymorphicObject.html" target="_top" xlink:title="This mixin inherits from (a subclass of) PolymorphicObject and provides a base implementation of a ne...">
<polygon fill="#ffffff" stroke="#000000" points="138,-382.5 138,-423.5 336,-423.5 336,-382.5 138,-382.5"/>
<text text-anchor="start" x="146" y="-411.5" font-family="Helvetica,sans-Serif" font-size="10.00" fill="#000000">gko::EnableAbstractPolymorphic</text>
<text text-anchor="start" x="146" y="-400.5" font-family="Helvetica,sans-Serif" font-size="10.00" fill="#000000">Object&lt; AbstractObject, Polymorphic</text>
<text text-anchor="middle" x="237" y="-389.5" font-family="Helvetica,sans-Serif" font-size="10.00" fill="#000000">Base &gt;</text>
</a>
</g>
</g>
<!-- Node12&#45;&gt;Node4 -->
<g id="edge8" class="edge">
<title>Node12&#45;&gt;Node4</title>
<path fill="none" stroke="#ffa500" stroke-dasharray="5,2" d="M274.2858,-429.0763C296.4662,-443.3531 325.718,-460.1046 354,-470 428.2825,-495.9903 450.6575,-489.5272 529,-497 786.5724,-521.5688 852.2861,-514.7816 1111,-511 1187.0244,-509.8888 1206.1723,-511.5769 1282,-506 1292.0202,-505.263 1302.4969,-504.3028 1312.8976,-503.2304"/>
<polygon fill="#ffa500" stroke="#ffa500" points="276.1276,-426.0987 265.8455,-423.5434 272.2899,-431.9529 276.1276,-426.0987"/>
<text text-anchor="start" x="759" y="-528" font-family="Helvetica,sans-Serif" font-size="10.00" fill="#000000"> &lt; Bicgstab&lt; ValueType</text>
<text text-anchor="middle" x="818" y="-517" font-family="Helvetica,sans-Serif" font-size="10.00" fill="#000000"> &gt;, LinOp &gt;</text>
</g>
<!-- Node12&#45;&gt;Node6 -->
<g id="edge6" class="edge">
<title>Node12&#45;&gt;Node6</title>
<path fill="none" stroke="#ffa500" stroke-dasharray="5,2" d="M336.5681,-425.5779C342.4585,-426.7731 348.3022,-427.9234 354,-429 416.5509,-440.8191 487.5337,-451.8418 541.7812,-459.7678"/>
<polygon fill="#ffa500" stroke="#ffa500" points="337.1293,-422.12 326.6286,-423.5291 335.7161,-428.9759 337.1293,-422.12"/>
<text text-anchor="middle" x="432.5" y="-458" font-family="Helvetica,sans-Serif" font-size="10.00" fill="#000000"> &lt; LinOp &gt;</text>
</g>
<!-- Node14 -->
<g id="node10" class="node">
<title>Node14</title>
<g id="a_node10"><a xlink:href="classgko_1_1EnableAbstractPolymorphicObject.html" target="_top" xlink:title=" ">
<polygon fill="#ffffff" stroke="#000000" points="529,-310.5 529,-351.5 730,-351.5 730,-310.5 529,-310.5"/>
<text text-anchor="start" x="537" y="-339.5" font-family="Helvetica,sans-Serif" font-size="10.00" fill="#000000">gko::EnableAbstractPolymorphic</text>
<text text-anchor="start" x="537" y="-328.5" font-family="Helvetica,sans-Serif" font-size="10.00" fill="#000000">Object&lt; ConcreteObject, Polymorphic</text>
<text text-anchor="middle" x="629.5" y="-317.5" font-family="Helvetica,sans-Serif" font-size="10.00" fill="#000000">Base &gt;</text>
</a>
</g>
</g>
<!-- Node12&#45;&gt;Node14 -->
<g id="edge12" class="edge">
<title>Node12&#45;&gt;Node14</title>
<path fill="none" stroke="#ffa500" stroke-dasharray="5,2" d="M346.178,-402.1925C396.8987,-399.7999 457.6519,-394.0381 511,-381 518.5376,-379.1578 552.8254,-364.5754 582.5922,-351.6309"/>
<polygon fill="#ffa500" stroke="#ffa500" points="346.0114,-398.6964 336.1728,-402.6273 346.3153,-405.6898 346.0114,-398.6964"/>
<text text-anchor="start" x="354" y="-415" font-family="Helvetica,sans-Serif" font-size="10.00" fill="#000000"> &lt; ConcreteObject, Polymorphic</text>
<text text-anchor="middle" x="432.5" y="-404" font-family="Helvetica,sans-Serif" font-size="10.00" fill="#000000">Base &gt;</text>
</g>
<!-- Node21 -->
<g id="node17" class="node">
<title>Node21</title>
<g id="a_node17"><a xlink:href="classgko_1_1EnableAbstractPolymorphicObject.html" target="_top" xlink:title=" ">
<polygon fill="#ffffff" stroke="#000000" points="531,-250.5 531,-291.5 728,-291.5 728,-250.5 531,-250.5"/>
<text text-anchor="start" x="539" y="-279.5" font-family="Helvetica,sans-Serif" font-size="10.00" fill="#000000">gko::EnableAbstractPolymorphic</text>
<text text-anchor="start" x="539" y="-268.5" font-family="Helvetica,sans-Serif" font-size="10.00" fill="#000000">Object&lt; ConcreteLinOp, Polymorphic</text>
<text text-anchor="middle" x="629.5" y="-257.5" font-family="Helvetica,sans-Serif" font-size="10.00" fill="#000000">Base &gt;</text>
</a>
</g>
</g>
<!-- Node12&#45;&gt;Node21 -->
<g id="edge22" class="edge">
<title>Node12&#45;&gt;Node21</title>
<path fill="none" stroke="#ffa500" stroke-dasharray="5,2" d="M293.8417,-378.4787C312.8303,-370.6099 334.1986,-362.1007 354,-355 430.6192,-327.5249 451.1125,-324.6414 529,-301 539.1058,-297.9326 549.7911,-294.7152 560.2746,-291.5732"/>
<polygon fill="#ffa500" stroke="#ffa500" points="292.3207,-375.3208 284.4402,-382.4022 295.0168,-381.7808 292.3207,-375.3208"/>
<text text-anchor="start" x="356" y="-369" font-family="Helvetica,sans-Serif" font-size="10.00" fill="#000000"> &lt; ConcreteLinOp, Polymorphic</text>
<text text-anchor="middle" x="432.5" y="-358" font-family="Helvetica,sans-Serif" font-size="10.00" fill="#000000">Base &gt;</text>
</g>
<!-- Node11 -->
<g id="node8" class="node">
<title>Node11</title>
<g id="a_node8"><a xlink:title=" ">
<polygon fill="#ffffff" stroke="#bfbfbf" points="0,-315.5 0,-334.5 101,-334.5 101,-315.5 0,-315.5"/>
<text text-anchor="middle" x="50.5" y="-322.5" font-family="Helvetica,sans-Serif" font-size="10.00" fill="#000000">PolymorphicBase</text>
</a>
</g>
</g>
<!-- Node11&#45;&gt;Node12 -->
<g id="edge7" class="edge">
<title>Node11&#45;&gt;Node12</title>
<path fill="none" stroke="#191970" d="M82.5985,-338.4246C111.5007,-350.5123 154.4214,-368.4631 187.6791,-382.3725"/>
<polygon fill="#191970" stroke="#191970" points="83.9447,-335.1939 73.3686,-334.5643 81.2437,-341.6518 83.9447,-335.1939"/>
</g>
<!-- Node11&#45;&gt;Node14 -->
<g id="edge11" class="edge">
<title>Node11&#45;&gt;Node14</title>
<path fill="none" stroke="#191970" d="M111.2841,-325.6299C210.5662,-326.6587 408.5048,-328.7099 528.9546,-329.9581"/>
<polygon fill="#191970" stroke="#191970" points="111.1578,-322.1285 101.122,-325.5246 111.0852,-329.1281 111.1578,-322.1285"/>
</g>
<!-- Node11&#45;&gt;Node21 -->
<g id="edge21" class="edge">
<title>Node11&#45;&gt;Node21</title>
<path fill="none" stroke="#191970" d="M111.3374,-319.326C211.1572,-310.0164 410.602,-291.4154 530.8406,-280.2014"/>
<polygon fill="#191970" stroke="#191970" points="110.7537,-315.8652 101.122,-320.2788 111.4038,-322.835 110.7537,-315.8652"/>
</g>
<!-- Node13 -->
<g id="node9" class="node">
<title>Node13</title>
<g id="a_node9"><a xlink:href="classgko_1_1EnablePolymorphicObject.html" target="_top" xlink:title="This mixin inherits from (a subclass of) PolymorphicObject and provides a base implementation of a ne...">
<polygon fill="#ffffff" stroke="#000000" points="906,-286 906,-316 1111,-316 1111,-286 906,-286"/>
<text text-anchor="start" x="914" y="-304" font-family="Helvetica,sans-Serif" font-size="10.00" fill="#000000">gko::EnablePolymorphicObject</text>
<text text-anchor="middle" x="1008.5" y="-293" font-family="Helvetica,sans-Serif" font-size="10.00" fill="#000000">&lt; ConcreteObject, PolymorphicBase &gt;</text>
</a>
</g>
</g>
<!-- Node13&#45;&gt;Node3 -->
<g id="edge9" class="edge">
<title>Node13&#45;&gt;Node3</title>
<path fill="none" stroke="#ffa500" stroke-dasharray="5,2" d="M1121.2049,-314.3383C1123.8272,-314.5698 1126.4285,-314.7909 1129,-315 1329.7894,-331.3249 1566.6012,-339.5291 1689.3386,-342.9583"/>
<polygon fill="#ffa500" stroke="#ffa500" points="1121.2834,-310.8307 1111.0041,-313.397 1120.6402,-317.8011 1121.2834,-310.8307"/>
<text text-anchor="start" x="1341.5" y="-350" font-family="Helvetica,sans-Serif" font-size="10.00" fill="#000000"> &lt; Bicgstab&lt; ValueType</text>
<text text-anchor="middle" x="1400.5" y="-339" font-family="Helvetica,sans-Serif" font-size="10.00" fill="#000000"> &gt;, LinOp &gt;</text>
</g>
<!-- Node20 -->
<g id="node16" class="node">
<title>Node20</title>
<g id="a_node16"><a xlink:href="classgko_1_1EnablePolymorphicObject.html" target="_top" xlink:title=" ">
<polygon fill="#ffffff" stroke="#000000" points="1300,-262 1300,-292 1501,-292 1501,-262 1300,-262"/>
<text text-anchor="start" x="1308" y="-280" font-family="Helvetica,sans-Serif" font-size="10.00" fill="#000000">gko::EnablePolymorphicObject</text>
<text text-anchor="middle" x="1400.5" y="-269" font-family="Helvetica,sans-Serif" font-size="10.00" fill="#000000">&lt; ConcreteLinOp, PolymorphicBase &gt;</text>
</a>
</g>
</g>
<!-- Node13&#45;&gt;Node20 -->
<g id="edge23" class="edge">
<title>Node13&#45;&gt;Node20</title>
<path fill="none" stroke="#ffa500" stroke-dasharray="5,2" d="M1121.227,-293.49C1123.8427,-293.3242 1126.4367,-293.1606 1129,-293 1185.5497,-289.4566 1248.7398,-285.7195 1299.9195,-282.7489"/>
<polygon fill="#ffa500" stroke="#ffa500" points="1120.805,-290.0098 1111.0483,-294.1398 1121.251,-296.9955 1120.805,-290.0098"/>
<text text-anchor="start" x="1129" y="-307" font-family="Helvetica,sans-Serif" font-size="10.00" fill="#000000"> &lt; ConcreteLinOp, Polymorphic</text>
<text text-anchor="middle" x="1205.5" y="-296" font-family="Helvetica,sans-Serif" font-size="10.00" fill="#000000">Base &gt;</text>
</g>
<!-- Node14&#45;&gt;Node13 -->
<g id="edge10" class="edge">
<title>Node14&#45;&gt;Node13</title>
<path fill="none" stroke="#191970" d="M740.0617,-322.2484C792.3981,-318.1057 854.5161,-313.1887 905.8093,-309.1286"/>
<polygon fill="#191970" stroke="#191970" points="739.7626,-318.761 730.07,-323.0393 740.315,-325.7392 739.7626,-318.761"/>
</g>
<!-- Node15 -->
<g id="node11" class="node">
<title>Node15</title>
<g id="a_node11"><a xlink:href="classgko_1_1EnablePolymorphicAssignment.html" target="_top" xlink:title=" ">
<polygon fill="#ffffff" stroke="#000000" points="1304.5,-419 1304.5,-449 1496.5,-449 1496.5,-419 1304.5,-419"/>
<text text-anchor="start" x="1312.5" y="-437" font-family="Helvetica,sans-Serif" font-size="10.00" fill="#000000">gko::EnablePolymorphicAssignment</text>
<text text-anchor="middle" x="1400.5" y="-426" font-family="Helvetica,sans-Serif" font-size="10.00" fill="#000000">&lt; Bicgstab&lt; ValueType &gt; &gt;</text>
</a>
</g>
</g>
<!-- Node15&#45;&gt;Node2 -->
<g id="edge13" class="edge">
<title>Node15&#45;&gt;Node2</title>
<path fill="none" stroke="#191970" d="M1506.7914,-422.863C1601.7586,-412.3713 1744.5463,-395.263 1868,-375 1938.7019,-363.3954 1956.2376,-359.3292 2026,-343 2044.0179,-338.7826 2063.5864,-333.7271 2081.1055,-329.027"/>
<polygon fill="#191970" stroke="#191970" points="1506.1615,-419.4111 1496.6041,-423.9834 1506.9268,-426.3692 1506.1615,-419.4111"/>
</g>
<!-- Node16 -->
<g id="node12" class="node">
<title>Node16</title>
<g id="a_node12"><a xlink:href="classgko_1_1ConvertibleTo.html" target="_top" xlink:title=" ">
<polygon fill="#ffffff" stroke="#000000" points="932,-433 932,-463 1085,-463 1085,-433 932,-433"/>
<text text-anchor="start" x="940" y="-451" font-family="Helvetica,sans-Serif" font-size="10.00" fill="#000000">gko::ConvertibleTo</text>
<text text-anchor="middle" x="1008.5" y="-440" font-family="Helvetica,sans-Serif" font-size="10.00" fill="#000000">&lt; Bicgstab&lt; ValueType &gt; &gt;</text>
</a>
</g>
</g>
<!-- Node16&#45;&gt;Node15 -->
<g id="edge14" class="edge">
<title>Node16&#45;&gt;Node15</title>
<path fill="none" stroke="#191970" d="M1095.148,-444.9054C1157.0727,-442.6938 1240.4142,-439.7173 1304.3835,-437.4327"/>
<polygon fill="#191970" stroke="#191970" points="1094.8808,-441.4126 1085.0121,-445.2674 1095.1307,-448.4082 1094.8808,-441.4126"/>
</g>
<!-- Node17 -->
<g id="node13" class="node">
<title>Node17</title>
<g id="a_node13"><a xlink:href="classgko_1_1ConvertibleTo.html" target="_top" xlink:title="ConvertibleTo interface is used to mark that the implementer can be converted to the object of Result...">
<polygon fill="#ffffff" stroke="#000000" points="576,-384 576,-414 683,-414 683,-384 576,-384"/>
<text text-anchor="start" x="584" y="-402" font-family="Helvetica,sans-Serif" font-size="10.00" fill="#000000">gko::ConvertibleTo</text>
<text text-anchor="middle" x="629.5" y="-391" font-family="Helvetica,sans-Serif" font-size="10.00" fill="#000000">&lt; ResultType &gt;</text>
</a>
</g>
</g>
<!-- Node17&#45;&gt;Node16 -->
<g id="edge15" class="edge">
<title>Node17&#45;&gt;Node16</title>
<path fill="none" stroke="#ffa500" stroke-dasharray="5,2" d="M693.6346,-407.2918C759.4331,-415.7987 861.8046,-429.0341 931.8376,-438.0885"/>
<polygon fill="#ffa500" stroke="#ffa500" points="693.7652,-403.7796 683.399,-405.9685 692.8676,-410.7219 693.7652,-403.7796"/>
<text text-anchor="middle" x="818" y="-435" font-family="Helvetica,sans-Serif" font-size="10.00" fill="#000000"> &lt; Bicgstab&lt; ValueType &gt; &gt;</text>
</g>
<!-- Node18 -->
<g id="node14" class="node">
<title>Node18</title>
<g id="a_node14"><a xlink:href="classgko_1_1EnablePolymorphicAssignment.html" target="_top" xlink:title="This mixin is used to enable a default PolymorphicObject::copy_from() implementation for objects that...">
<polygon fill="#ffffff" stroke="#000000" points="912.5,-384 912.5,-414 1104.5,-414 1104.5,-384 912.5,-384"/>
<text text-anchor="start" x="920.5" y="-402" font-family="Helvetica,sans-Serif" font-size="10.00" fill="#000000">gko::EnablePolymorphicAssignment</text>
<text text-anchor="middle" x="1008.5" y="-391" font-family="Helvetica,sans-Serif" font-size="10.00" fill="#000000">&lt; ConcreteType, ResultType &gt;</text>
</a>
</g>
</g>
<!-- Node17&#45;&gt;Node18 -->
<g id="edge17" class="edge">
<title>Node17&#45;&gt;Node18</title>
<path fill="none" stroke="#191970" d="M693.4814,-399C753.3937,-399 843.725,-399 912.3178,-399"/>
<polygon fill="#191970" stroke="#191970" points="693.399,-395.5001 683.399,-399 693.3989,-402.5001 693.399,-395.5001"/>
</g>
<!-- Node23 -->
<g id="node19" class="node">
<title>Node23</title>
<g id="a_node19"><a xlink:href="classgko_1_1ConvertibleTo.html" target="_top" xlink:title=" ">
<polygon fill="#ffffff" stroke="#000000" points="953.5,-335 953.5,-365 1063.5,-365 1063.5,-335 953.5,-335"/>
<text text-anchor="start" x="961.5" y="-353" font-family="Helvetica,sans-Serif" font-size="10.00" fill="#000000">gko::ConvertibleTo</text>
<text text-anchor="middle" x="1008.5" y="-342" font-family="Helvetica,sans-Serif" font-size="10.00" fill="#000000">&lt; ConcreteLinOp &gt;</text>
</a>
</g>
</g>
<!-- Node17&#45;&gt;Node23 -->
<g id="edge26" class="edge">
<title>Node17&#45;&gt;Node23</title>
<path fill="none" stroke="#ffa500" stroke-dasharray="5,2" d="M693.3711,-390.7423C766.2334,-381.3221 884.1899,-366.0718 953.248,-357.1434"/>
<polygon fill="#ffa500" stroke="#ffa500" points="692.8676,-387.2781 683.399,-392.0315 693.7652,-394.2204 692.8676,-387.2781"/>
<text text-anchor="middle" x="818" y="-386" font-family="Helvetica,sans-Serif" font-size="10.00" fill="#000000"> &lt; ConcreteLinOp &gt;</text>
</g>
<!-- Node18&#45;&gt;Node15 -->
<g id="edge16" class="edge">
<title>Node18&#45;&gt;Node15</title>
<path fill="none" stroke="#ffa500" stroke-dasharray="5,2" d="M1114.6896,-408.1931C1165.3499,-412.6109 1226.8138,-418.0173 1282,-423 1289.3051,-423.6596 1296.8629,-424.3477 1304.4628,-425.0439"/>
<polygon fill="#ffa500" stroke="#ffa500" points="1114.9728,-404.7046 1104.7067,-407.3231 1114.365,-411.6782 1114.9728,-404.7046"/>
<text text-anchor="middle" x="1205.5" y="-426" font-family="Helvetica,sans-Serif" font-size="10.00" fill="#000000"> &lt; Bicgstab&lt; ValueType &gt; &gt;</text>
</g>
<!-- Node22 -->
<g id="node18" class="node">
<title>Node22</title>
<g id="a_node18"><a xlink:href="classgko_1_1EnablePolymorphicAssignment.html" target="_top" xlink:title=" ">
<polygon fill="#ffffff" stroke="#000000" points="1304.5,-370 1304.5,-400 1496.5,-400 1496.5,-370 1304.5,-370"/>
<text text-anchor="start" x="1312.5" y="-388" font-family="Helvetica,sans-Serif" font-size="10.00" fill="#000000">gko::EnablePolymorphicAssignment</text>
<text text-anchor="middle" x="1400.5" y="-377" font-family="Helvetica,sans-Serif" font-size="10.00" fill="#000000">&lt; ConcreteLinOp &gt;</text>
</a>
</g>
</g>
<!-- Node18&#45;&gt;Node22 -->
<g id="edge27" class="edge">
<title>Node18&#45;&gt;Node22</title>
<path fill="none" stroke="#ffa500" stroke-dasharray="5,2" d="M1115.1289,-389.7606C1119.8145,-389.4778 1124.4544,-389.2218 1129,-389 1187.1493,-386.1621 1252.3801,-385.1314 1304.3266,-384.8247"/>
<polygon fill="#ffa500" stroke="#ffa500" points="1114.5734,-386.2888 1104.817,-390.4195 1115.0198,-393.2746 1114.5734,-386.2888"/>
<text text-anchor="middle" x="1205.5" y="-392" font-family="Helvetica,sans-Serif" font-size="10.00" fill="#000000"> &lt; ConcreteLinOp &gt;</text>
</g>
<!-- Node19 -->
<g id="node15" class="node">
<title>Node19</title>
<g id="a_node15"><a xlink:href="classgko_1_1EnableLinOp.html" target="_top" xlink:title="The EnableLinOp mixin can be used to provide sensible default implementations of the majority of the ...">
<polygon fill="#ffffff" stroke="#000000" points="1694.5,-275 1694.5,-305 1850.5,-305 1850.5,-275 1694.5,-275"/>
<text text-anchor="start" x="1702.5" y="-293" font-family="Helvetica,sans-Serif" font-size="10.00" fill="#000000">gko::EnableLinOp&lt; Concrete</text>
<text text-anchor="middle" x="1772.5" y="-282" font-family="Helvetica,sans-Serif" font-size="10.00" fill="#000000">LinOp, PolymorphicBase &gt;</text>
</a>
</g>
</g>
<!-- Node19&#45;&gt;Node2 -->
<g id="edge18" class="edge">
<title>Node19&#45;&gt;Node2</title>
<path fill="none" stroke="#ffa500" stroke-dasharray="5,2" d="M1860.9311,-295.3589C1909.6381,-298.3666 1971.1661,-302.2574 2026,-306 2036.1278,-306.6913 2046.783,-307.443 2057.3029,-308.1997"/>
<polygon fill="#ffa500" stroke="#ffa500" points="1860.9356,-291.8527 1850.7392,-294.7309 1860.505,-298.8394 1860.9356,-291.8527"/>
<text text-anchor="middle" x="1956" y="-309" font-family="Helvetica,sans-Serif" font-size="10.00" fill="#000000"> &lt; Bicgstab&lt; ValueType &gt; &gt;</text>
</g>
<!-- Node20&#45;&gt;Node19 -->
<g id="edge19" class="edge">
<title>Node20&#45;&gt;Node19</title>
<path fill="none" stroke="#191970" d="M1511.2748,-280.8712C1570.2417,-282.9318 1641.3396,-285.4164 1694.4644,-287.2729"/>
<polygon fill="#191970" stroke="#191970" points="1511.2847,-277.3695 1501.1686,-280.518 1511.0402,-284.3652 1511.2847,-277.3695"/>
</g>
<!-- Node21&#45;&gt;Node20 -->
<g id="edge20" class="edge">
<title>Node21&#45;&gt;Node20</title>
<path fill="none" stroke="#191970" d="M738.4399,-271.8478C887.9393,-273.0112 1154.6215,-275.0865 1299.7149,-276.2157"/>
<polygon fill="#191970" stroke="#191970" points="738.3503,-268.3471 728.3233,-271.7691 738.2957,-275.3469 738.3503,-268.3471"/>
</g>
<!-- Node22&#45;&gt;Node19 -->
<g id="edge24" class="edge">
<title>Node22&#45;&gt;Node19</title>
<path fill="none" stroke="#191970" d="M1469.5154,-367.3751C1539.6758,-349.4578 1647.2179,-321.9941 1713.5242,-305.061"/>
<polygon fill="#191970" stroke="#191970" points="1468.2675,-364.0814 1459.4445,-369.947 1469.9996,-370.8637 1468.2675,-364.0814"/>
</g>
<!-- Node23&#45;&gt;Node22 -->
<g id="edge25" class="edge">
<title>Node23&#45;&gt;Node22</title>
<path fill="none" stroke="#191970" d="M1074.0239,-355.8504C1136.9342,-361.4673 1232.7021,-370.018 1304.2698,-376.408"/>
<polygon fill="#191970" stroke="#191970" points="1074.1043,-352.3437 1063.8326,-354.9404 1073.4817,-359.316 1074.1043,-352.3437"/>
</g>
<!-- Node24 -->
<g id="node20" class="node">
<title>Node24</title>
<g id="a_node20"><a xlink:href="classgko_1_1solver_1_1EnablePreconditionedIterativeSolver.html" target="_top" xlink:title=" ">
<polygon fill="#ffffff" stroke="#000000" points="2044,-119.5 2044,-160.5 2226,-160.5 2226,-119.5 2044,-119.5"/>
<text text-anchor="start" x="2052" y="-148.5" font-family="Helvetica,sans-Serif" font-size="10.00" fill="#000000">gko::solver::EnablePreconditioned</text>
<text text-anchor="start" x="2052" y="-137.5" font-family="Helvetica,sans-Serif" font-size="10.00" fill="#000000">IterativeSolver&lt; ValueType,</text>
<text text-anchor="middle" x="2135" y="-126.5" font-family="Helvetica,sans-Serif" font-size="10.00" fill="#000000"> Bicgstab&lt; ValueType &gt; &gt;</text>
</a>
</g>
</g>
<!-- Node24&#45;&gt;Node1 -->
<g id="edge28" class="edge">
<title>Node24&#45;&gt;Node1</title>
<path fill="none" stroke="#191970" d="M2236.2565,-140C2245.3181,-140 2254.2857,-140 2262.8175,-140"/>
<polygon fill="#191970" stroke="#191970" points="2236.0038,-136.5001 2226.0038,-140 2236.0037,-143.5001 2236.0038,-136.5001"/>
</g>
<!-- Node25 -->
<g id="node21" class="node">
<title>Node25</title>
<g id="a_node21"><a xlink:href="classgko_1_1solver_1_1EnableSolverBase.html" target="_top" xlink:title=" ">
<polygon fill="#ffffff" stroke="#000000" points="1312,-76 1312,-106 1489,-106 1489,-76 1312,-76"/>
<text text-anchor="start" x="1320" y="-94" font-family="Helvetica,sans-Serif" font-size="10.00" fill="#000000">gko::solver::EnableSolver</text>
<text text-anchor="middle" x="1400.5" y="-83" font-family="Helvetica,sans-Serif" font-size="10.00" fill="#000000">Base&lt; Bicgstab&lt; ValueType &gt; &gt;</text>
</a>
</g>
</g>
<!-- Node25&#45;&gt;Node24 -->
<g id="edge29" class="edge">
<title>Node25&#45;&gt;Node24</title>
<path fill="none" stroke="#191970" d="M1499.505,-92.9775C1594.2145,-95.353 1741.0116,-100.2977 1868,-110 1926.603,-114.4774 1992.199,-121.8149 2043.7078,-128.1123"/>
<polygon fill="#191970" stroke="#191970" points="1499.4462,-89.4751 1489.3631,-92.728 1499.274,-96.473 1499.4462,-89.4751"/>
</g>
<!-- Node26 -->
<g id="node22" class="node">
<title>Node26</title>
<g id="a_node22"><a xlink:href="classgko_1_1solver_1_1SolverBase.html" target="_top" xlink:title=" ">
<polygon fill="#ffffff" stroke="#000000" points="943,-58 943,-88 1074,-88 1074,-58 943,-58"/>
<text text-anchor="start" x="951" y="-76" font-family="Helvetica,sans-Serif" font-size="10.00" fill="#000000">gko::solver::SolverBase</text>
<text text-anchor="middle" x="1008.5" y="-65" font-family="Helvetica,sans-Serif" font-size="10.00" fill="#000000">&lt; LinOp &gt;</text>
</a>
</g>
</g>
<!-- Node26&#45;&gt;Node25 -->
<g id="edge30" class="edge">
<title>Node26&#45;&gt;Node25</title>
<path fill="none" stroke="#191970" d="M1084.1263,-68.7661C1139.115,-66.5834 1215.2931,-65.4103 1282,-71 1295.2023,-72.1063 1309.146,-73.8943 1322.651,-75.9578"/>
<polygon fill="#191970" stroke="#191970" points="1083.9577,-65.27 1074.1124,-69.184 1084.2496,-72.2639 1083.9577,-65.27"/>
</g>
<!-- Node37 -->
<g id="node33" class="node">
<title>Node37</title>
<g id="a_node33"><a xlink:href="classgko_1_1solver_1_1EnableSolverBase.html" target="_top" xlink:title=" ">
<polygon fill="#ffffff" stroke="#000000" points="1330.5,-125 1330.5,-155 1470.5,-155 1470.5,-125 1330.5,-125"/>
<text text-anchor="start" x="1338.5" y="-143" font-family="Helvetica,sans-Serif" font-size="10.00" fill="#000000">gko::solver::EnableSolver</text>
<text text-anchor="middle" x="1400.5" y="-132" font-family="Helvetica,sans-Serif" font-size="10.00" fill="#000000">Base&lt; DerivedType &gt;</text>
</a>
</g>
</g>
<!-- Node26&#45;&gt;Node37 -->
<g id="edge46" class="edge">
<title>Node26&#45;&gt;Node37</title>
<path fill="none" stroke="#191970" d="M1084.4401,-74.2004C1152.9885,-76.3159 1248.1206,-82.1215 1282,-98 1292.2444,-102.8013 1290.1255,-110.4778 1300,-116 1309.3939,-121.2534 1319.9051,-125.3627 1330.4938,-128.5755"/>
<polygon fill="#191970" stroke="#191970" points="1084.202,-70.6922 1074.1054,-73.9029 1084.0006,-77.6893 1084.202,-70.6922"/>
</g>
<!-- Node27 -->
<g id="node23" class="node">
<title>Node27</title>
<g id="a_node23"><a xlink:title="A LinOp implementing this interface stores a system matrix.">
<polygon fill="#ffffff" stroke="#bfbfbf" points="184.5,-71 184.5,-101 289.5,-101 289.5,-71 184.5,-71"/>
<text text-anchor="start" x="192.5" y="-89" font-family="Helvetica,sans-Serif" font-size="10.00" fill="#000000">gko::solver::detail</text>
<text text-anchor="middle" x="237" y="-78" font-family="Helvetica,sans-Serif" font-size="10.00" fill="#000000">::SolverBaseLinOp</text>
</a>
</g>
</g>
<!-- Node27&#45;&gt;Node26 -->
<g id="edge31" class="edge">
<title>Node27&#45;&gt;Node26</title>
<path fill="none" stroke="#191970" d="M300.1518,-84.9359C444.334,-82.5064 796.5503,-76.5714 942.9803,-74.104"/>
<polygon fill="#191970" stroke="#191970" points="299.6643,-81.4435 289.7247,-85.1116 299.7823,-88.4425 299.6643,-81.4435"/>
</g>
<!-- Node28 -->
<g id="node24" class="node">
<title>Node28</title>
<g id="a_node24"><a xlink:href="classgko_1_1solver_1_1SolverBase.html" target="_top" xlink:title=" ">
<polygon fill="#ffffff" stroke="#000000" points="564,-97 564,-127 695,-127 695,-97 564,-97"/>
<text text-anchor="start" x="572" y="-115" font-family="Helvetica,sans-Serif" font-size="10.00" fill="#000000">gko::solver::SolverBase</text>
<text text-anchor="middle" x="629.5" y="-104" font-family="Helvetica,sans-Serif" font-size="10.00" fill="#000000">&lt; MatrixType &gt;</text>
</a>
</g>
</g>
<!-- Node27&#45;&gt;Node28 -->
<g id="edge33" class="edge">
<title>Node27&#45;&gt;Node28</title>
<path fill="none" stroke="#191970" d="M299.8546,-90.1636C372.1828,-94.9548 490.4079,-102.7863 563.8816,-107.6533"/>
<polygon fill="#191970" stroke="#191970" points="299.7365,-86.6482 289.527,-89.4795 299.2738,-93.6329 299.7365,-86.6482"/>
</g>
<!-- Node28&#45;&gt;Node26 -->
<g id="edge32" class="edge">
<title>Node28&#45;&gt;Node26</title>
<path fill="none" stroke="#ffa500" stroke-dasharray="5,2" d="M705.0935,-104.2213C774.5883,-97.0701 876.5798,-86.5749 942.7669,-79.7641"/>
<polygon fill="#ffa500" stroke="#ffa500" points="704.6733,-100.7459 695.0841,-105.2512 705.3899,-107.7091 704.6733,-100.7459"/>
<text text-anchor="middle" x="818" y="-102" font-family="Helvetica,sans-Serif" font-size="10.00" fill="#000000"> &lt; LinOp &gt;</text>
</g>
<!-- Node29 -->
<g id="node25" class="node">
<title>Node29</title>
<g id="a_node25"><a xlink:href="classgko_1_1solver_1_1EnableSolverBase.html" target="_top" xlink:title="A LinOp deriving from this CRTP class stores a system matrix.">
<polygon fill="#ffffff" stroke="#000000" points="917,-112 917,-142 1100,-142 1100,-112 917,-112"/>
<text text-anchor="start" x="925" y="-130" font-family="Helvetica,sans-Serif" font-size="10.00" fill="#000000">gko::solver::EnableSolver</text>
<text text-anchor="middle" x="1008.5" y="-119" font-family="Helvetica,sans-Serif" font-size="10.00" fill="#000000">Base&lt; DerivedType, MatrixType &gt;</text>
</a>
</g>
</g>
<!-- Node28&#45;&gt;Node29 -->
<g id="edge35" class="edge">
<title>Node28&#45;&gt;Node29</title>
<path fill="none" stroke="#191970" d="M705.3963,-115.0038C766.3013,-117.4143 852.0226,-120.807 916.7707,-123.3696"/>
<polygon fill="#191970" stroke="#191970" points="705.2147,-111.494 695.0841,-114.5957 704.9378,-118.4885 705.2147,-111.494"/>
</g>
<!-- Node29&#45;&gt;Node25 -->
<g id="edge34" class="edge">
<title>Node29&#45;&gt;Node25</title>
<path fill="none" stroke="#ffa500" stroke-dasharray="5,2" d="M1110.6692,-117.6171C1173.0802,-111.8855 1252.1041,-104.6282 1311.8667,-99.1398"/>
<polygon fill="#ffa500" stroke="#ffa500" points="1110.0446,-114.1597 1100.4066,-118.5596 1110.6848,-121.1303 1110.0446,-114.1597"/>
<text text-anchor="middle" x="1205.5" y="-118" font-family="Helvetica,sans-Serif" font-size="10.00" fill="#000000"> &lt; Bicgstab&lt; ValueType &gt; &gt;</text>
</g>
<!-- Node29&#45;&gt;Node37 -->
<g id="edge47" class="edge">
<title>Node29&#45;&gt;Node37</title>
<path fill="none" stroke="#ffa500" stroke-dasharray="5,2" d="M1110.4475,-130.3809C1179.5474,-132.6725 1269.0898,-135.642 1330.2937,-137.6717"/>
<polygon fill="#ffa500" stroke="#ffa500" points="1110.5171,-126.8814 1100.4066,-130.0479 1110.285,-133.8775 1110.5171,-126.8814"/>
<text text-anchor="middle" x="1205.5" y="-138" font-family="Helvetica,sans-Serif" font-size="10.00" fill="#000000"> &lt; DerivedType &gt;</text>
</g>
<!-- Node30 -->
<g id="node26" class="node">
<title>Node30</title>
<g id="a_node26"><a xlink:href="classgko_1_1solver_1_1EnableIterativeBase.html" target="_top" xlink:title=" ">
<polygon fill="#ffffff" stroke="#000000" points="1684,-25 1684,-55 1861,-55 1861,-25 1684,-25"/>
<text text-anchor="start" x="1692" y="-43" font-family="Helvetica,sans-Serif" font-size="10.00" fill="#000000">gko::solver::EnableIterative</text>
<text text-anchor="middle" x="1772.5" y="-32" font-family="Helvetica,sans-Serif" font-size="10.00" fill="#000000">Base&lt; Bicgstab&lt; ValueType &gt; &gt;</text>
</a>
</g>
</g>
<!-- Node30&#45;&gt;Node24 -->
<g id="edge36" class="edge">
<title>Node30&#45;&gt;Node24</title>
<path fill="none" stroke="#191970" d="M1871.4426,-34.3116C1921.7212,-36.125 1981.436,-45.9732 2026,-77 2039.7108,-86.5459 2031.1679,-99.302 2044,-110 2048.2164,-113.5152 2052.858,-116.6227 2057.7449,-119.3691"/>
<polygon fill="#191970" stroke="#191970" points="1871.2804,-30.8064 1861.1934,-34.0469 1871.0996,-37.804 1871.2804,-30.8064"/>
</g>
<!-- Node31 -->
<g id="node27" class="node">
<title>Node31</title>
<g id="a_node27"><a xlink:href="classgko_1_1solver_1_1IterativeBase.html" target="_top" xlink:title="A LinOp implementing this interface stores a stopping criterion factory.">
<polygon fill="#ffffff" stroke="#000000" points="937.5,-.5 937.5,-19.5 1079.5,-19.5 1079.5,-.5 937.5,-.5"/>
<text text-anchor="middle" x="1008.5" y="-7.5" font-family="Helvetica,sans-Serif" font-size="10.00" fill="#000000">gko::solver::IterativeBase</text>
</a>
</g>
</g>
<!-- Node31&#45;&gt;Node30 -->
<g id="edge37" class="edge">
<title>Node31&#45;&gt;Node30</title>
<path fill="none" stroke="#191970" d="M1089.6014,-9.4079C1187.2601,-9.0982 1356.2323,-9.8481 1501,-17 1562.1844,-20.0227 1630.9425,-25.8728 1683.9552,-30.9163"/>
<polygon fill="#191970" stroke="#191970" points="1089.4926,-5.9082 1079.5054,-9.4446 1089.518,-12.9081 1089.4926,-5.9082"/>
</g>
<!-- Node32 -->
<g id="node28" class="node">
<title>Node32</title>
<g id="a_node28"><a xlink:href="classgko_1_1solver_1_1EnableIterativeBase.html" target="_top" xlink:title="A LinOp deriving from this CRTP class stores a stopping criterion factory and allows applying with a ...">
<polygon fill="#ffffff" stroke="#000000" points="1325,-27 1325,-57 1476,-57 1476,-27 1325,-27"/>
<text text-anchor="start" x="1333" y="-45" font-family="Helvetica,sans-Serif" font-size="10.00" fill="#000000">gko::solver::EnableIterative</text>
<text text-anchor="middle" x="1400.5" y="-34" font-family="Helvetica,sans-Serif" font-size="10.00" fill="#000000">Base&lt; DerivedType &gt;</text>
</a>
</g>
</g>
<!-- Node31&#45;&gt;Node32 -->
<g id="edge39" class="edge">
<title>Node31&#45;&gt;Node32</title>
<path fill="none" stroke="#191970" d="M1089.9211,-16.6466C1159.0397,-22.289 1257.4556,-30.3229 1324.8695,-35.8261"/>
<polygon fill="#191970" stroke="#191970" points="1090.1947,-13.1574 1079.943,-15.8321 1089.6251,-20.1342 1090.1947,-13.1574"/>
</g>
<!-- Node32&#45;&gt;Node30 -->
<g id="edge38" class="edge">
<title>Node32&#45;&gt;Node30</title>
<path fill="none" stroke="#ffa500" stroke-dasharray="5,2" d="M1486.1438,-41.2316C1497.1991,-41.1458 1508.3678,-41.0658 1519,-41 1573.7923,-40.6607 1635.2471,-40.4149 1683.9249,-40.252"/>
<polygon fill="#ffa500" stroke="#ffa500" points="1486.0134,-37.7324 1476.0415,-41.3118 1486.069,-44.7322 1486.0134,-37.7324"/>
<text text-anchor="middle" x="1589" y="-44" font-family="Helvetica,sans-Serif" font-size="10.00" fill="#000000"> &lt; Bicgstab&lt; ValueType &gt; &gt;</text>
</g>
<!-- Node36 -->
<g id="node32" class="node">
<title>Node36</title>
<g id="a_node32"><a xlink:href="classgko_1_1solver_1_1EnablePreconditionedIterativeSolver.html" target="_top" xlink:title="A LinOp implementing this interface stores a system matrix and stopping criterion factory.">
<polygon fill="#ffffff" stroke="#000000" points="1681.5,-119.5 1681.5,-160.5 1863.5,-160.5 1863.5,-119.5 1681.5,-119.5"/>
<text text-anchor="start" x="1689.5" y="-148.5" font-family="Helvetica,sans-Serif" font-size="10.00" fill="#000000">gko::solver::EnablePreconditioned</text>
<text text-anchor="start" x="1689.5" y="-137.5" font-family="Helvetica,sans-Serif" font-size="10.00" fill="#000000">IterativeSolver&lt; ValueType,</text>
<text text-anchor="middle" x="1772.5" y="-126.5" font-family="Helvetica,sans-Serif" font-size="10.00" fill="#000000"> DerivedType &gt;</text>
</a>
</g>
</g>
<!-- Node32&#45;&gt;Node36 -->
<g id="edge48" class="edge">
<title>Node32&#45;&gt;Node36</title>
<path fill="none" stroke="#191970" d="M1474.8339,-59.4716C1483.6628,-61.6294 1492.5396,-63.8374 1501,-66 1568.4495,-83.2411 1644.9327,-104.2168 1699.4934,-119.4273"/>
<polygon fill="#191970" stroke="#191970" points="1475.4544,-56.0206 1464.9109,-57.0616 1473.8023,-62.8229 1475.4544,-56.0206"/>
</g>
<!-- Node33 -->
<g id="node29" class="node">
<title>Node33</title>
<g id="a_node29"><a xlink:href="classgko_1_1solver_1_1EnablePreconditionable.html" target="_top" xlink:title=" ">
<polygon fill="#ffffff" stroke="#000000" points="1677,-180 1677,-210 1868,-210 1868,-180 1677,-180"/>
<text text-anchor="start" x="1685" y="-198" font-family="Helvetica,sans-Serif" font-size="10.00" fill="#000000">gko::solver::EnablePreconditionable</text>
<text text-anchor="middle" x="1772.5" y="-187" font-family="Helvetica,sans-Serif" font-size="10.00" fill="#000000">&lt; Bicgstab&lt; ValueType &gt; &gt;</text>
</a>
</g>
</g>
<!-- Node33&#45;&gt;Node24 -->
<g id="edge40" class="edge">
<title>Node33&#45;&gt;Node24</title>
<path fill="none" stroke="#191970" d="M1878.4855,-185.7458C1924.0661,-181.0256 1977.8341,-174.468 2026,-166 2035.0055,-164.4168 2044.3783,-162.5385 2053.6801,-160.5269"/>
<polygon fill="#191970" stroke="#191970" points="1877.8836,-182.2889 1868.2902,-186.7853 1878.5936,-189.2528 1877.8836,-182.2889"/>
</g>
<!-- Node34 -->
<g id="node30" class="node">
<title>Node34</title>
<g id="a_node30"><a xlink:href="classgko_1_1Preconditionable.html" target="_top" xlink:title="A LinOp implementing this interface can be preconditioned.">
<polygon fill="#ffffff" stroke="#000000" points="947.5,-191.5 947.5,-210.5 1069.5,-210.5 1069.5,-191.5 947.5,-191.5"/>
<text text-anchor="middle" x="1008.5" y="-198.5" font-family="Helvetica,sans-Serif" font-size="10.00" fill="#000000">gko::Preconditionable</text>
</a>
</g>
</g>
<!-- Node34&#45;&gt;Node33 -->
<g id="edge41" class="edge">
<title>Node34&#45;&gt;Node33</title>
<path fill="none" stroke="#191970" d="M1079.7766,-200.4402C1217.8149,-199.3562 1521.6723,-196.9699 1676.9977,-195.75"/>
<polygon fill="#191970" stroke="#191970" points="1079.702,-196.9406 1069.7299,-200.5191 1079.7571,-203.9404 1079.702,-196.9406"/>
</g>
<!-- Node35 -->
<g id="node31" class="node">
<title>Node35</title>
<g id="a_node31"><a xlink:href="classgko_1_1solver_1_1EnablePreconditionable.html" target="_top" xlink:title="Mixin providing default operation for Preconditionable with correct value semantics.">
<polygon fill="#ffffff" stroke="#000000" points="1305,-213 1305,-243 1496,-243 1496,-213 1305,-213"/>
<text text-anchor="start" x="1313" y="-231" font-family="Helvetica,sans-Serif" font-size="10.00" fill="#000000">gko::solver::EnablePreconditionable</text>
<text text-anchor="middle" x="1400.5" y="-220" font-family="Helvetica,sans-Serif" font-size="10.00" fill="#000000">&lt; DerivedType &gt;</text>
</a>
</g>
</g>
<!-- Node34&#45;&gt;Node35 -->
<g id="edge43" class="edge">
<title>Node34&#45;&gt;Node35</title>
<path fill="none" stroke="#191970" d="M1080.0055,-205.9251C1143.1011,-210.271 1235.5661,-216.6398 1304.982,-221.421"/>
<polygon fill="#191970" stroke="#191970" points="1079.9669,-202.4143 1069.75,-205.2188 1079.4858,-209.3977 1079.9669,-202.4143"/>
</g>
<!-- Node35&#45;&gt;Node33 -->
<g id="edge42" class="edge">
<title>Node35&#45;&gt;Node33</title>
<path fill="none" stroke="#ffa500" stroke-dasharray="5,2" d="M1506.4522,-229.1522C1553.3514,-228.5224 1609.0841,-226.2149 1659,-220 1677.1205,-217.7439 1696.6137,-213.9586 1714.2444,-210.0072"/>
<polygon fill="#ffa500" stroke="#ffa500" points="1506.2377,-225.6542 1496.277,-229.2646 1506.3151,-232.6538 1506.2377,-225.6542"/>
<text text-anchor="middle" x="1589" y="-231" font-family="Helvetica,sans-Serif" font-size="10.00" fill="#000000"> &lt; Bicgstab&lt; ValueType &gt; &gt;</text>
</g>
<!-- Node35&#45;&gt;Node36 -->
<g id="edge49" class="edge">
<title>Node35&#45;&gt;Node36</title>
<path fill="none" stroke="#191970" d="M1473.934,-210.6285C1534.7391,-196.2445 1621.2694,-175.775 1685.5339,-160.5726"/>
<polygon fill="#191970" stroke="#191970" points="1472.9521,-207.2641 1464.0264,-212.9722 1474.5636,-214.0761 1472.9521,-207.2641"/>
</g>
<!-- Node36&#45;&gt;Node24 -->
<g id="edge44" class="edge">
<title>Node36&#45;&gt;Node24</title>
<path fill="none" stroke="#ffa500" stroke-dasharray="5,2" d="M1873.683,-140C1927.1012,-140 1992.1318,-140 2043.9564,-140"/>
<polygon fill="#ffa500" stroke="#ffa500" points="1873.5062,-136.5001 1863.5062,-140 1873.5061,-143.5001 1873.5062,-136.5001"/>
<text text-anchor="start" x="1900" y="-154" font-family="Helvetica,sans-Serif" font-size="10.00" fill="#000000"> &lt; ValueType, Bicgstab</text>
<text text-anchor="middle" x="1956" y="-143" font-family="Helvetica,sans-Serif" font-size="10.00" fill="#000000">&lt; ValueType &gt; &gt;</text>
</g>
<!-- Node37&#45;&gt;Node36 -->
<g id="edge45" class="edge">
<title>Node37&#45;&gt;Node36</title>
<path fill="none" stroke="#191970" d="M1480.9153,-140C1539.8458,-140 1619.9201,-140 1681.2465,-140"/>
<polygon fill="#191970" stroke="#191970" points="1480.9077,-136.5001 1470.9077,-140 1480.9077,-143.5001 1480.9077,-136.5001"/>
</g>
<!-- Node38 -->
<g id="node34" class="node">
<title>Node38</title>
<g id="a_node34"><a xlink:href="classgko_1_1Transposable.html" target="_top" xlink:title="Linear operators which support transposition should implement the Transposable interface.">
<polygon fill="#ffffff" stroke="#000000" points="2083,-81.5 2083,-100.5 2187,-100.5 2187,-81.5 2083,-81.5"/>
<text text-anchor="middle" x="2135" y="-88.5" font-family="Helvetica,sans-Serif" font-size="10.00" fill="#000000">gko::Transposable</text>
</a>
</g>
</g>
<!-- Node38&#45;&gt;Node1 -->
<g id="edge50" class="edge">
<title>Node38&#45;&gt;Node1</title>
<path fill="none" stroke="#191970" d="M2195.0761,-102.6943C2205.4292,-104.9516 2216.055,-107.4222 2226,-110 2242.8133,-114.3581 2261.0543,-119.832 2277.1043,-124.907"/>
<polygon fill="#191970" stroke="#191970" points="2195.7751,-99.2647 2185.2646,-100.5989 2194.3131,-106.1104 2195.7751,-99.2647"/>
</g>
</g>
</svg>
        <g id="navigator" transform="translate(0 0)" fill="#404254">
                <rect fill="#f2f5e9" fill-opacity="0.5" stroke="#606060" stroke-width=".5" x="0" y="0" width="60" height="60"/>
                <use id="zoomplus" xlink:href="#zoomPlus" x="17" y="9" onmousedown="handleZoom(evt,'in')"/>
                <use id="zoomminus" xlink:href="#zoomMin" x="42" y="9" onmousedown="handleZoom(evt,'out')"/>
                <use id="reset" xlink:href="#resetDef" x="30" y="36" onmousedown="handleReset()"/>
                <g id="arrowUp" xlink:href="#dirArrow" transform="translate(30 24)" onmousedown="handlePan(0,-1)">
                  <use xlink:href="#rim" fill="#404040">
                        <set attributeName="fill" to="#808080" begin="arrowUp.mouseover" end="arrowUp.mouseout"/>
                  </use>
                  <path fill="none" stroke="white" stroke-width="1.5" d="M0,-3.0v7 M-2.5,-0.5L0,-3.0L2.5,-0.5"/>
                </g>
                <g id="arrowRight" xlink:href="#dirArrow" transform="rotate(90) translate(36 -43)" onmousedown="handlePan(1,0)">
                  <use xlink:href="#rim" fill="#404040">
                        <set attributeName="fill" to="#808080" begin="arrowRight.mouseover" end="arrowRight.mouseout"/>
                  </use>
                  <path fill="none" stroke="white" stroke-width="1.5" d="M0,-3.0v7 M-2.5,-0.5L0,-3.0L2.5,-0.5"/>
                </g>
                <g id="arrowDown" xlink:href="#dirArrow" transform="rotate(180) translate(-30 -48)" onmousedown="handlePan(0,1)">
                  <use xlink:href="#rim" fill="#404040">
                        <set attributeName="fill" to="#808080" begin="arrowDown.mouseover" end="arrowDown.mouseout"/>
                  </use>
                  <path fill="none" stroke="white" stroke-width="1.5" d="M0,-3.0v7 M-2.5,-0.5L0,-3.0L2.5,-0.5"/>
                </g>
                <g id="arrowLeft" xlink:href="#dirArrow" transform="rotate(270) translate(-36 17)" onmousedown="handlePan(-1,0)">
                  <use xlink:href="#rim" fill="#404040">
                        <set attributeName="fill" to="#808080" begin="arrowLeft.mouseover" end="arrowLeft.mouseout"/>
                  </use>
                  <path fill="none" stroke="white" stroke-width="1.5" d="M0,-3.0v7 M-2.5,-0.5L0,-3.0L2.5,-0.5"/>
                </g>
        </g>
        <svg viewBox="0 0 15 15" width="100%" height="30px" preserveAspectRatio="xMaxYMin meet">
         <g id="arrow_out" transform="scale(0.3 0.3)">
          <a xlink:href="classgko_1_1solver_1_1Bicgstab__inherit__graph_org.svg" target="_base">
           <rect id="button" ry="5" rx="5" y="6" x="6" height="38" width="38"
                fill="#f2f5e9" fill-opacity="0.5" stroke="#606060" stroke-width="1.0"/>
           <path id="arrow"
             d="M 11.500037,31.436501 C 11.940474,20.09759 22.043105,11.32322 32.158766,21.979434 L 37.068811,17.246167 C 37.068811,17.246167 37.088388,32 37.088388,32 L 22.160133,31.978069 C 22.160133,31.978069 26.997745,27.140456 26.997745,27.140456 C 18.528582,18.264221 13.291696,25.230495 11.500037,31.436501 z"
             style="fill:#404040;"/>
          </a>
         </g>
        </svg>
</svg>
