<?xml version="1.0" encoding="UTF-8" standalone="no"?>
<!DOCTYPE svg PUBLIC "-//W3C//DTD SVG 1.1//EN"
 "http://www.w3.org/Graphics/SVG/1.1/DTD/svg11.dtd">
<!-- Generated by graphviz version 2.40.1 (20161225.0304)
 -->
<!-- Title: gko::log::Logger Pages: 1 -->
<svg width="308pt" height="230pt"
 viewBox="0.00 0.00 308.00 229.50" xmlns="http://www.w3.org/2000/svg" xmlns:xlink="http://www.w3.org/1999/xlink">
<g id="graph0" class="graph" transform="scale(1 1) rotate(0) translate(4 225.5)">
<title>gko::log::Logger</title>
<polygon fill="#ffffff" stroke="transparent" points="-4,4 -4,-225.5 304,-225.5 304,4 -4,4"/>
<!-- Node1 -->
<g id="node1" class="node">
<title>Node1</title>
<g id="a_node1"><a xlink:title=" ">
<polygon fill="#bfbfbf" stroke="#000000" points="0,-95.5 0,-114.5 95,-114.5 95,-95.5 0,-95.5"/>
<text text-anchor="middle" x="47.5" y="-102.5" font-family="Helvetica,sans-Serif" font-size="10.00" fill="#000000">gko::log::Logger</text>
</a>
</g>
</g>
<!-- Node2 -->
<g id="node2" class="node">
<title>Node2</title>
<g id="a_node2"><a xlink:href="classgko_1_1log_1_1Convergence.html" target="_top" xlink:title="Convergence is a Logger which logs data strictly from the criterion_check_completed event.">
<polygon fill="#ffffff" stroke="#000000" points="153,-191 153,-221 278,-221 278,-191 153,-191"/>
<text text-anchor="start" x="161" y="-209" font-family="Helvetica,sans-Serif" font-size="10.00" fill="#000000">gko::log::Convergence</text>
<text text-anchor="middle" x="215.5" y="-198" font-family="Helvetica,sans-Serif" font-size="10.00" fill="#000000">&lt; ValueType &gt;</text>
</a>
</g>
</g>
<!-- Node1&#45;&gt;Node2 -->
<g id="edge1" class="edge">
<title>Node1&#45;&gt;Node2</title>
<path fill="none" stroke="#191970" d="M62.1882,-122.3262C77.662,-139.5398 103.5542,-165.5386 131,-181 137.7979,-184.8296 145.2409,-188.1255 152.8022,-190.9484"/>
<polygon fill="#191970" stroke="#191970" points="64.6938,-119.875 55.4678,-114.6662 59.4318,-124.4915 64.6938,-119.875"/>
</g>
<!-- Node3 -->
<g id="node3" class="node">
<title>Node3</title>
<g id="a_node3"><a xlink:href="classgko_1_1log_1_1Papi.html" target="_top" xlink:title="Papi is a Logger which logs every event to the PAPI software.">
<polygon fill="#ffffff" stroke="#000000" points="138.5,-152.5 138.5,-171.5 292.5,-171.5 292.5,-152.5 138.5,-152.5"/>
<text text-anchor="middle" x="215.5" y="-159.5" font-family="Helvetica,sans-Serif" font-size="10.00" fill="#000000">gko::log::Papi&lt; ValueType &gt;</text>
</a>
</g>
</g>
<!-- Node1&#45;&gt;Node3 -->
<g id="edge2" class="edge">
<title>Node1&#45;&gt;Node3</title>
<path fill="none" stroke="#191970" d="M74.9326,-119.217C90.9527,-127.0768 111.7456,-136.531 131,-143 141.8326,-146.6395 153.6808,-149.7926 164.9867,-152.4273"/>
<polygon fill="#191970" stroke="#191970" points="76.141,-115.9083 65.631,-114.5702 73.0126,-122.1704 76.141,-115.9083"/>
</g>
<!-- Node4 -->
<g id="node4" class="node">
<title>Node4</title>
<g id="a_node4"><a xlink:href="classgko_1_1log_1_1PerformanceHint.html" target="_top" xlink:title="PerformanceHint is a Logger which analyzes the performance of the application and outputs hints for u...">
<polygon fill="#ffffff" stroke="#000000" points="143.5,-114.5 143.5,-133.5 287.5,-133.5 287.5,-114.5 143.5,-114.5"/>
<text text-anchor="middle" x="215.5" y="-121.5" font-family="Helvetica,sans-Serif" font-size="10.00" fill="#000000">gko::log::PerformanceHint</text>
</a>
</g>
</g>
<!-- Node1&#45;&gt;Node4 -->
<g id="edge3" class="edge">
<title>Node1&#45;&gt;Node4</title>
<path fill="none" stroke="#191970" d="M105.2428,-111.5304C117.4694,-112.9132 130.5211,-114.3893 143.2093,-115.8243"/>
<polygon fill="#191970" stroke="#191970" points="105.5227,-108.0399 95.1927,-110.3938 104.736,-114.9955 105.5227,-108.0399"/>
</g>
<!-- Node5 -->
<g id="node5" class="node">
<title>Node5</title>
<g id="a_node5"><a xlink:href="classgko_1_1log_1_1ProfilerHook.html" target="_top" xlink:title="This Logger can be used to annotate the execution of Ginkgo functionality with profiler&#45;specific rang...">
<polygon fill="#ffffff" stroke="#000000" points="154.5,-76.5 154.5,-95.5 276.5,-95.5 276.5,-76.5 154.5,-76.5"/>
<text text-anchor="middle" x="215.5" y="-83.5" font-family="Helvetica,sans-Serif" font-size="10.00" fill="#000000">gko::log::ProfilerHook</text>
</a>
</g>
</g>
<!-- Node1&#45;&gt;Node5 -->
<g id="edge4" class="edge">
<title>Node1&#45;&gt;Node5</title>
<path fill="none" stroke="#191970" d="M105.381,-98.4539C121.228,-96.6617 138.4522,-94.7137 154.4695,-92.9023"/>
<polygon fill="#191970" stroke="#191970" points="104.736,-95.0045 95.1927,-99.6062 105.5227,-101.9601 104.736,-95.0045"/>
</g>
<!-- Node6 -->
<g id="node6" class="node">
<title>Node6</title>
<g id="a_node6"><a xlink:href="classgko_1_1log_1_1Record.html" target="_top" xlink:title="Record is a Logger which logs every event to an object.">
<polygon fill="#ffffff" stroke="#000000" points="168,-38.5 168,-57.5 263,-57.5 263,-38.5 168,-38.5"/>
<text text-anchor="middle" x="215.5" y="-45.5" font-family="Helvetica,sans-Serif" font-size="10.00" fill="#000000">gko::log::Record</text>
</a>
</g>
</g>
<!-- Node1&#45;&gt;Node6 -->
<g id="edge5" class="edge">
<title>Node1&#45;&gt;Node6</title>
<path fill="none" stroke="#191970" d="M74.9326,-90.783C90.9527,-82.9232 111.7456,-73.469 131,-67 142.6878,-63.0732 155.5579,-59.7126 167.6536,-56.9584"/>
<polygon fill="#191970" stroke="#191970" points="73.0126,-87.8296 65.631,-95.4298 76.141,-94.0917 73.0126,-87.8296"/>
</g>
<!-- Node7 -->
<g id="node7" class="node">
<title>Node7</title>
<g id="a_node7"><a xlink:href="classgko_1_1log_1_1Stream.html" target="_top" xlink:title="Stream is a Logger which logs every event to a stream.">
<polygon fill="#ffffff" stroke="#000000" points="131,-.5 131,-19.5 300,-19.5 300,-.5 131,-.5"/>
<text text-anchor="middle" x="215.5" y="-7.5" font-family="Helvetica,sans-Serif" font-size="10.00" fill="#000000">gko::log::Stream&lt; ValueType &gt;</text>
</a>
</g>
</g>
<!-- Node1&#45;&gt;Node7 -->
<g id="edge6" class="edge">
<title>Node1&#45;&gt;Node7</title>
<path fill="none" stroke="#191970" d="M61.7362,-87.5714C77.0152,-70.0556 102.9061,-43.6186 131,-29 138.4697,-25.1132 146.7148,-22.0177 155.0387,-19.5533"/>
<polygon fill="#191970" stroke="#191970" points="58.9264,-85.4731 55.1249,-95.3625 64.2637,-90.0022 58.9264,-85.4731"/>
</g>
</g>
</svg>
