<?xml version="1.0" encoding="UTF-8" standalone="no"?>
<!DOCTYPE svg PUBLIC "-//W3C//DTD SVG 1.1//EN"
 "http://www.w3.org/Graphics/SVG/1.1/DTD/svg11.dtd">
<!-- Generated by graphviz version 2.40.1 (20161225.0304)
 -->
<!-- Title: gko::experimental::distributed::DistributedBase Pages: 1 -->
<svg width="358pt" height="122pt"
 viewBox="0.00 0.00 358.00 121.50" xmlns="http://www.w3.org/2000/svg" xmlns:xlink="http://www.w3.org/1999/xlink">
<g id="graph0" class="graph" transform="scale(1 1) rotate(0) translate(4 117.5)">
<title>gko::experimental::distributed::DistributedBase</title>
<polygon fill="#ffffff" stroke="transparent" points="-4,4 -4,-117.5 354,-117.5 354,4 -4,4"/>
<!-- Node1 -->
<g id="node1" class="node">
<title>Node1</title>
<g id="a_node1"><a xlink:title="A base class for distributed objects.">
<polygon fill="#bfbfbf" stroke="#000000" points="0,-39 0,-69 153,-69 153,-39 0,-39"/>
<text text-anchor="start" x="8" y="-57" font-family="Helvetica,sans-Serif" font-size="10.00" fill="#000000">gko::experimental::</text>
<text text-anchor="middle" x="76.5" y="-46" font-family="Helvetica,sans-Serif" font-size="10.00" fill="#000000">distributed::DistributedBase</text>
</a>
</g>
</g>
<!-- Node2 -->
<g id="node2" class="node">
<title>Node2</title>
<g id="a_node2"><a xlink:href="classgko_1_1experimental_1_1distributed_1_1Matrix.html" target="_top" xlink:title="The Matrix class defines a (MPI&#45;)distributed matrix.">
<polygon fill="#ffffff" stroke="#000000" points="189,-61 189,-113 350,-113 350,-61 189,-61"/>
<text text-anchor="start" x="197" y="-101" font-family="Helvetica,sans-Serif" font-size="10.00" fill="#000000">gko::experimental::</text>
<text text-anchor="start" x="197" y="-90" font-family="Helvetica,sans-Serif" font-size="10.00" fill="#000000">distributed::Matrix</text>
<text text-anchor="start" x="197" y="-79" font-family="Helvetica,sans-Serif" font-size="10.00" fill="#000000">&lt; ValueType, LocalIndexType,</text>
<text text-anchor="middle" x="269.5" y="-68" font-family="Helvetica,sans-Serif" font-size="10.00" fill="#000000"> GlobalIndexType &gt;</text>
</a>
</g>
</g>
<!-- Node1&#45;&gt;Node2 -->
<g id="edge1" class="edge">
<title>Node1&#45;&gt;Node2</title>
<path fill="none" stroke="#191970" d="M163.0833,-68.8044C171.6808,-70.2744 180.3844,-71.7626 188.9173,-73.2216"/>
<polygon fill="#191970" stroke="#191970" points="163.5028,-65.3254 153.0559,-67.0899 162.323,-72.2253 163.5028,-65.3254"/>
</g>
<!-- Node3 -->
<g id="node3" class="node">
<title>Node3</title>
<g id="a_node3"><a xlink:href="classgko_1_1experimental_1_1distributed_1_1Vector.html" target="_top" xlink:title="Vector is a format which explicitly stores (multiple) distributed column vectors in a dense storage f...">
<polygon fill="#ffffff" stroke="#000000" points="213.5,-.5 213.5,-41.5 325.5,-41.5 325.5,-.5 213.5,-.5"/>
<text text-anchor="start" x="221.5" y="-29.5" font-family="Helvetica,sans-Serif" font-size="10.00" fill="#000000">gko::experimental::</text>
<text text-anchor="start" x="221.5" y="-18.5" font-family="Helvetica,sans-Serif" font-size="10.00" fill="#000000">distributed::Vector</text>
<text text-anchor="middle" x="269.5" y="-7.5" font-family="Helvetica,sans-Serif" font-size="10.00" fill="#000000">&lt; ValueType &gt;</text>
</a>
</g>
</g>
<!-- Node1&#45;&gt;Node3 -->
<g id="edge2" class="edge">
<title>Node1&#45;&gt;Node3</title>
<path fill="none" stroke="#191970" d="M163.0307,-39.2046C180.0822,-36.2891 197.5533,-33.3018 213.2839,-30.6121"/>
<polygon fill="#191970" stroke="#191970" points="162.323,-35.7747 153.0559,-40.9101 163.5028,-42.6746 162.323,-35.7747"/>
</g>
</g>
</svg>
