<?xml version="1.0" encoding="UTF-8" standalone="no"?>
<!DOCTYPE svg PUBLIC "-//W3C//DTD SVG 1.1//EN"
 "http://www.w3.org/Graphics/SVG/1.1/DTD/svg11.dtd">
<!-- Generated by graphviz version 2.40.1 (20161225.0304)
 -->
<!-- Title: gko::LinOpFactory Pages: 1 -->
<svg width="2480pt" height="230pt"
 viewBox="0.00 0.00 2480.00 230.00" xmlns="http://www.w3.org/2000/svg" xmlns:xlink="http://www.w3.org/1999/xlink">
<g id="graph0" class="graph" transform="scale(1 1) rotate(0) translate(4 226)">
<title>gko::LinOpFactory</title>
<polygon fill="#ffffff" stroke="transparent" points="-4,4 -4,-226 2476,-226 2476,4 -4,4"/>
<!-- Node1 -->
<g id="node1" class="node">
<title>Node1</title>
<g id="a_node1"><a xlink:title="A LinOpFactory represents a higher order mapping which transforms one linear operator into another.">
<polygon fill="#bfbfbf" stroke="#000000" points="1708,-92.5 1708,-111.5 1812,-111.5 1812,-92.5 1708,-92.5"/>
<text text-anchor="middle" x="1760" y="-99.5" font-family="Helvetica,sans-Serif" font-size="10.00" fill="#000000">gko::LinOpFactory</text>
</a>
</g>
</g>
<!-- Node12 -->
<g id="node12" class="node">
<title>Node12</title>
<g id="a_node12"><a xlink:href="classgko_1_1EnableAbstractPolymorphicObject.html" target="_top" xlink:title=" ">
<polygon fill="#ffffff" stroke="#000000" points="1855,-180.5 1855,-221.5 2030,-221.5 2030,-180.5 1855,-180.5"/>
<text text-anchor="start" x="1863" y="-209.5" font-family="Helvetica,sans-Serif" font-size="10.00" fill="#000000">gko::EnableAbstractPolymorphic</text>
<text text-anchor="start" x="1863" y="-198.5" font-family="Helvetica,sans-Serif" font-size="10.00" fill="#000000">Object&lt; Amd&lt; IndexType &gt;,</text>
<text text-anchor="middle" x="1942.5" y="-187.5" font-family="Helvetica,sans-Serif" font-size="10.00" fill="#000000"> LinOpFactory &gt;</text>
</a>
</g>
</g>
<!-- Node1&#45;&gt;Node12 -->
<g id="edge14" class="edge">
<title>Node1&#45;&gt;Node12</title>
<path fill="none" stroke="#191970" d="M1777.3657,-118.4776C1794.4303,-133.9035 1821.7985,-156.6659 1849,-171 1855.4852,-174.4174 1862.4297,-177.5332 1869.4963,-180.3523"/>
<polygon fill="#191970" stroke="#191970" points="1779.5878,-115.7658 1769.8621,-111.5633 1774.8443,-120.9136 1779.5878,-115.7658"/>
</g>
<!-- Node15 -->
<g id="node15" class="node">
<title>Node15</title>
<g id="a_node15"><a xlink:href="classgko_1_1EnableAbstractPolymorphicObject.html" target="_top" xlink:title=" ">
<polygon fill="#ffffff" stroke="#000000" points="1855,-120.5 1855,-161.5 2030,-161.5 2030,-120.5 1855,-120.5"/>
<text text-anchor="start" x="1863" y="-149.5" font-family="Helvetica,sans-Serif" font-size="10.00" fill="#000000">gko::EnableAbstractPolymorphic</text>
<text text-anchor="start" x="1863" y="-138.5" font-family="Helvetica,sans-Serif" font-size="10.00" fill="#000000">Object&lt; Cholesky&lt; ValueType,</text>
<text text-anchor="middle" x="1942.5" y="-127.5" font-family="Helvetica,sans-Serif" font-size="10.00" fill="#000000"> IndexType &gt;, LinOpFactory &gt;</text>
</a>
</g>
</g>
<!-- Node1&#45;&gt;Node15 -->
<g id="edge17" class="edge">
<title>Node1&#45;&gt;Node15</title>
<path fill="none" stroke="#191970" d="M1814.5514,-113.6576C1827.2376,-116.3686 1841.0593,-119.3223 1854.7747,-122.2532"/>
<polygon fill="#191970" stroke="#191970" points="1815.1552,-110.2076 1804.6445,-111.5405 1813.6923,-117.0531 1815.1552,-110.2076"/>
</g>
<!-- Node18 -->
<g id="node18" class="node">
<title>Node18</title>
<g id="a_node18"><a xlink:href="classgko_1_1EnableAbstractPolymorphicObject.html" target="_top" xlink:title=" ">
<polygon fill="#ffffff" stroke="#000000" points="1855,-60.5 1855,-101.5 2030,-101.5 2030,-60.5 1855,-60.5"/>
<text text-anchor="start" x="1863" y="-89.5" font-family="Helvetica,sans-Serif" font-size="10.00" fill="#000000">gko::EnableAbstractPolymorphic</text>
<text text-anchor="start" x="1863" y="-78.5" font-family="Helvetica,sans-Serif" font-size="10.00" fill="#000000">Object&lt; IdentityFactory&lt;</text>
<text text-anchor="middle" x="1942.5" y="-67.5" font-family="Helvetica,sans-Serif" font-size="10.00" fill="#000000"> ValueType &gt;, LinOpFactory &gt;</text>
</a>
</g>
</g>
<!-- Node1&#45;&gt;Node18 -->
<g id="edge20" class="edge">
<title>Node1&#45;&gt;Node18</title>
<path fill="none" stroke="#191970" d="M1822.4815,-94.8103C1832.8737,-93.6145 1843.8204,-92.3549 1854.7016,-91.1028"/>
<polygon fill="#191970" stroke="#191970" points="1821.8315,-91.362 1812.2972,-95.9822 1822.6318,-98.3161 1821.8315,-91.362"/>
</g>
<!-- Node21 -->
<g id="node21" class="node">
<title>Node21</title>
<g id="a_node21"><a xlink:href="classgko_1_1EnableAbstractPolymorphicObject.html" target="_top" xlink:title=" ">
<polygon fill="#ffffff" stroke="#000000" points="1849,-.5 1849,-41.5 2036,-41.5 2036,-.5 1849,-.5"/>
<text text-anchor="start" x="1857" y="-29.5" font-family="Helvetica,sans-Serif" font-size="10.00" fill="#000000">gko::EnableAbstractPolymorphic</text>
<text text-anchor="start" x="1857" y="-18.5" font-family="Helvetica,sans-Serif" font-size="10.00" fill="#000000">Object&lt; Lu&lt; ValueType, IndexType</text>
<text text-anchor="middle" x="1942.5" y="-7.5" font-family="Helvetica,sans-Serif" font-size="10.00" fill="#000000"> &gt;, LinOpFactory &gt;</text>
</a>
</g>
</g>
<!-- Node1&#45;&gt;Node21 -->
<g id="edge23" class="edge">
<title>Node1&#45;&gt;Node21</title>
<path fill="none" stroke="#191970" d="M1783.0711,-86.9836C1800.638,-75.9993 1825.6896,-61.2819 1849,-51 1856.6429,-47.6288 1864.7855,-44.4491 1872.9565,-41.511"/>
<polygon fill="#191970" stroke="#191970" points="1781.1875,-84.0337 1774.6159,-92.3442 1784.9357,-89.9456 1781.1875,-84.0337"/>
</g>
<!-- Node2 -->
<g id="node2" class="node">
<title>Node2</title>
<g id="a_node2"><a xlink:title=" ">
<polygon fill="#ffffff" stroke="#bfbfbf" points="1545,-81.5 1545,-122.5 1671,-122.5 1671,-81.5 1545,-81.5"/>
<text text-anchor="start" x="1553" y="-110.5" font-family="Helvetica,sans-Serif" font-size="10.00" fill="#000000">gko::AbstractFactory</text>
<text text-anchor="start" x="1553" y="-99.5" font-family="Helvetica,sans-Serif" font-size="10.00" fill="#000000">&lt; LinOp, std::shared</text>
<text text-anchor="middle" x="1608" y="-88.5" font-family="Helvetica,sans-Serif" font-size="10.00" fill="#000000">_ptr&lt; const LinOp &gt; &gt;</text>
</a>
</g>
</g>
<!-- Node2&#45;&gt;Node1 -->
<g id="edge1" class="edge">
<title>Node2&#45;&gt;Node1</title>
<path fill="none" stroke="#191970" d="M1681.2534,-102C1690.2531,-102 1699.3043,-102 1707.9012,-102"/>
<polygon fill="#191970" stroke="#191970" points="1681.1412,-98.5001 1671.1412,-102 1681.1411,-105.5001 1681.1412,-98.5001"/>
</g>
<!-- Node3 -->
<g id="node3" class="node">
<title>Node3</title>
<g id="a_node3"><a xlink:title=" ">
<polygon fill="#ffffff" stroke="#bfbfbf" points="1027.5,-104 1027.5,-156 1202.5,-156 1202.5,-104 1027.5,-104"/>
<text text-anchor="start" x="1035.5" y="-144" font-family="Helvetica,sans-Serif" font-size="10.00" fill="#000000">gko::EnableAbstractPolymorphic</text>
<text text-anchor="start" x="1035.5" y="-133" font-family="Helvetica,sans-Serif" font-size="10.00" fill="#000000">Object&lt; AbstractFactory&lt;</text>
<text text-anchor="start" x="1035.5" y="-122" font-family="Helvetica,sans-Serif" font-size="10.00" fill="#000000"> LinOp, std::shared_ptr&lt; const</text>
<text text-anchor="middle" x="1115" y="-111" font-family="Helvetica,sans-Serif" font-size="10.00" fill="#000000"> LinOp &gt; &gt; &gt;</text>
</a>
</g>
</g>
<!-- Node3&#45;&gt;Node2 -->
<g id="edge2" class="edge">
<title>Node3&#45;&gt;Node2</title>
<path fill="none" stroke="#191970" d="M1213.0055,-128.5386C1296.5856,-126.6746 1419.8668,-122.4638 1527,-113 1532.796,-112.488 1538.8131,-111.8579 1544.8318,-111.1605"/>
<polygon fill="#191970" stroke="#191970" points="1212.6807,-125.0447 1202.7586,-128.7598 1212.8318,-132.0431 1212.6807,-125.0447"/>
</g>
<!-- Node4 -->
<g id="node4" class="node">
<title>Node4</title>
<g id="a_node4"><a xlink:href="classgko_1_1PolymorphicObject.html" target="_top" xlink:title="A PolymorphicObject is the abstract base for all &quot;heavy&quot; objects in Ginkgo that behave polymorphicall...">
<polygon fill="#ffffff" stroke="#000000" points="676.5,-133.5 676.5,-152.5 809.5,-152.5 809.5,-133.5 676.5,-133.5"/>
<text text-anchor="middle" x="743" y="-140.5" font-family="Helvetica,sans-Serif" font-size="10.00" fill="#000000">gko::PolymorphicObject</text>
</a>
</g>
</g>
<!-- Node4&#45;&gt;Node3 -->
<g id="edge3" class="edge">
<title>Node4&#45;&gt;Node3</title>
<path fill="none" stroke="#191970" d="M819.9234,-146.756C833.2821,-147.2743 847.0419,-147.7232 860,-148 913.7655,-149.1483 927.342,-151.5878 981,-148 995.9891,-146.9978 1011.8587,-145.3717 1027.2317,-143.4962"/>
<polygon fill="#191970" stroke="#191970" points="819.939,-143.2539 809.806,-146.3479 819.6568,-150.2482 819.939,-143.2539"/>
</g>
<!-- Node11 -->
<g id="node11" class="node">
<title>Node11</title>
<g id="a_node11"><a xlink:href="classgko_1_1EnableAbstractPolymorphicObject.html" target="_top" xlink:title=" ">
<polygon fill="#ffffff" stroke="#000000" points="999,-43.5 999,-84.5 1231,-84.5 1231,-43.5 999,-43.5"/>
<text text-anchor="start" x="1007" y="-72.5" font-family="Helvetica,sans-Serif" font-size="10.00" fill="#000000">gko::EnableAbstractPolymorphic</text>
<text text-anchor="start" x="1007" y="-61.5" font-family="Helvetica,sans-Serif" font-size="10.00" fill="#000000">Object&lt; AbstractFactory&lt;</text>
<text text-anchor="middle" x="1115" y="-50.5" font-family="Helvetica,sans-Serif" font-size="10.00" fill="#000000"> AbstractProductType, ComponentsType &gt; &gt;</text>
</a>
</g>
</g>
<!-- Node4&#45;&gt;Node11 -->
<g id="edge12" class="edge">
<title>Node4&#45;&gt;Node11</title>
<path fill="none" stroke="#191970" d="M819.8035,-143.7772C878.8472,-143.0555 954.6344,-138.8634 981,-123 993.6764,-115.3729 987.0486,-103.7194 999,-95 1004.3889,-91.0684 1010.243,-87.6354 1016.3619,-84.6377"/>
<polygon fill="#191970" stroke="#191970" points="819.7048,-140.2779 809.7372,-143.8692 819.7688,-147.2776 819.7048,-140.2779"/>
</g>
<!-- Node5 -->
<g id="node5" class="node">
<title>Node5</title>
<g id="a_node5"><a xlink:href="classgko_1_1log_1_1EnableLogging.html" target="_top" xlink:title=" ">
<polygon fill="#ffffff" stroke="#000000" points="474,-128 474,-158 607,-158 607,-128 474,-128"/>
<text text-anchor="start" x="482" y="-146" font-family="Helvetica,sans-Serif" font-size="10.00" fill="#000000">gko::log::EnableLogging</text>
<text text-anchor="middle" x="540.5" y="-135" font-family="Helvetica,sans-Serif" font-size="10.00" fill="#000000">&lt; PolymorphicObject &gt;</text>
</a>
</g>
</g>
<!-- Node5&#45;&gt;Node4 -->
<g id="edge4" class="edge">
<title>Node5&#45;&gt;Node4</title>
<path fill="none" stroke="#191970" d="M617.1452,-143C636.6376,-143 657.4252,-143 676.3734,-143"/>
<polygon fill="#191970" stroke="#191970" points="617.0866,-139.5001 607.0865,-143 617.0865,-146.5001 617.0866,-139.5001"/>
</g>
<!-- Node6 -->
<g id="node6" class="node">
<title>Node6</title>
<g id="a_node6"><a xlink:href="classgko_1_1log_1_1Loggable.html" target="_top" xlink:title="Loggable class is an interface which should be implemented by classes wanting to support logging.">
<polygon fill="#ffffff" stroke="#000000" points="176,-111.5 176,-130.5 282,-130.5 282,-111.5 176,-111.5"/>
<text text-anchor="middle" x="229" y="-118.5" font-family="Helvetica,sans-Serif" font-size="10.00" fill="#000000">gko::log::Loggable</text>
</a>
</g>
</g>
<!-- Node6&#45;&gt;Node5 -->
<g id="edge5" class="edge">
<title>Node6&#45;&gt;Node5</title>
<path fill="none" stroke="#191970" d="M292.4534,-125.4815C345.2884,-129.213 420.2902,-134.5101 473.9643,-138.3008"/>
<polygon fill="#191970" stroke="#191970" points="292.4166,-121.9702 282.1948,-124.7569 291.9234,-128.9528 292.4166,-121.9702"/>
</g>
<!-- Node7 -->
<g id="node7" class="node">
<title>Node7</title>
<g id="a_node7"><a xlink:href="classgko_1_1log_1_1EnableLogging.html" target="_top" xlink:title="EnableLogging is a mixin which should be inherited by any class which wants to enable logging.">
<polygon fill="#ffffff" stroke="#000000" points="138,-149.5 138,-190.5 320,-190.5 320,-149.5 138,-149.5"/>
<text text-anchor="start" x="146" y="-178.5" font-family="Helvetica,sans-Serif" font-size="10.00" fill="#000000">gko::log::EnableLogging</text>
<text text-anchor="start" x="146" y="-167.5" font-family="Helvetica,sans-Serif" font-size="10.00" fill="#000000">&lt; ConcreteLoggable, Polymorphic</text>
<text text-anchor="middle" x="229" y="-156.5" font-family="Helvetica,sans-Serif" font-size="10.00" fill="#000000">Base &gt;</text>
</a>
</g>
</g>
<!-- Node7&#45;&gt;Node5 -->
<g id="edge6" class="edge">
<title>Node7&#45;&gt;Node5</title>
<path fill="none" stroke="#ffa500" stroke-dasharray="5,2" d="M330.5808,-161.1952C377.6219,-157.1178 432.1938,-152.3877 473.9039,-148.7724"/>
<polygon fill="#ffa500" stroke="#ffa500" points="330.0159,-157.731 320.3555,-162.0815 330.6204,-164.7048 330.0159,-157.731"/>
<text text-anchor="middle" x="397" y="-163" font-family="Helvetica,sans-Serif" font-size="10.00" fill="#000000"> &lt; PolymorphicObject &gt;</text>
</g>
<!-- Node8 -->
<g id="node8" class="node">
<title>Node8</title>
<g id="a_node8"><a xlink:title=" ">
<polygon fill="#ffffff" stroke="#bfbfbf" points="0,-85.5 0,-104.5 101,-104.5 101,-85.5 0,-85.5"/>
<text text-anchor="middle" x="50.5" y="-92.5" font-family="Helvetica,sans-Serif" font-size="10.00" fill="#000000">PolymorphicBase</text>
</a>
</g>
</g>
<!-- Node8&#45;&gt;Node7 -->
<g id="edge7" class="edge">
<title>Node8&#45;&gt;Node7</title>
<path fill="none" stroke="#191970" d="M76.0886,-109.5084C93.2707,-118.9119 116.5973,-131.0334 138,-140 145.8249,-143.2782 154.1437,-146.4409 162.449,-149.404"/>
<polygon fill="#191970" stroke="#191970" points="77.6702,-106.3835 67.2263,-104.6012 74.2793,-112.5074 77.6702,-106.3835"/>
</g>
<!-- Node9 -->
<g id="node9" class="node">
<title>Node9</title>
<g id="a_node9"><a xlink:href="classgko_1_1EnableAbstractPolymorphicObject.html" target="_top" xlink:title="This mixin inherits from (a subclass of) PolymorphicObject and provides a base implementation of a ne...">
<polygon fill="#ffffff" stroke="#000000" points="644,-62.5 644,-103.5 842,-103.5 842,-62.5 644,-62.5"/>
<text text-anchor="start" x="652" y="-91.5" font-family="Helvetica,sans-Serif" font-size="10.00" fill="#000000">gko::EnableAbstractPolymorphic</text>
<text text-anchor="start" x="652" y="-80.5" font-family="Helvetica,sans-Serif" font-size="10.00" fill="#000000">Object&lt; AbstractObject, Polymorphic</text>
<text text-anchor="middle" x="743" y="-69.5" font-family="Helvetica,sans-Serif" font-size="10.00" fill="#000000">Base &gt;</text>
</a>
</g>
</g>
<!-- Node8&#45;&gt;Node9 -->
<g id="edge9" class="edge">
<title>Node8&#45;&gt;Node9</title>
<path fill="none" stroke="#191970" d="M111.219,-93.9478C230.8607,-91.8746 498.0786,-87.2441 643.7203,-84.7204"/>
<polygon fill="#191970" stroke="#191970" points="111.0784,-90.4496 101.1406,-94.1225 111.1998,-97.4486 111.0784,-90.4496"/>
</g>
<!-- Node9&#45;&gt;Node3 -->
<g id="edge8" class="edge">
<title>Node9&#45;&gt;Node3</title>
<path fill="none" stroke="#ffa500" stroke-dasharray="5,2" d="M852.2297,-95.2996C892.7053,-100.0024 938.9708,-105.5488 981,-111 996.0294,-112.9493 1011.9918,-115.1225 1027.4629,-117.283"/>
<polygon fill="#ffa500" stroke="#ffa500" points="852.4065,-91.7968 842.0701,-94.1228 851.6009,-98.7503 852.4065,-91.7968"/>
<text text-anchor="start" x="860" y="-136" font-family="Helvetica,sans-Serif" font-size="10.00" fill="#000000"> &lt; AbstractFactory&lt;</text>
<text text-anchor="start" x="860" y="-125" font-family="Helvetica,sans-Serif" font-size="10.00" fill="#000000"> LinOp, std::shared</text>
<text text-anchor="middle" x="920.5" y="-114" font-family="Helvetica,sans-Serif" font-size="10.00" fill="#000000">_ptr&lt; const LinOp &gt; &gt; &gt;</text>
</g>
<!-- Node9&#45;&gt;Node11 -->
<g id="edge13" class="edge">
<title>Node9&#45;&gt;Node11</title>
<path fill="none" stroke="#ffa500" stroke-dasharray="5,2" d="M790.5095,-58.0573C811.2488,-48.5139 836.2219,-38.7781 860,-34 921.0743,-21.7274 991.4592,-31.7941 1042.7889,-43.4675"/>
<polygon fill="#ffa500" stroke="#ffa500" points="788.8441,-54.9732 781.2981,-62.4101 791.8349,-61.3021 788.8441,-54.9732"/>
<text text-anchor="start" x="865.5" y="-59" font-family="Helvetica,sans-Serif" font-size="10.00" fill="#000000"> &lt; AbstractFactory&lt;</text>
<text text-anchor="start" x="865.5" y="-48" font-family="Helvetica,sans-Serif" font-size="10.00" fill="#000000"> AbstractProductType,</text>
<text text-anchor="middle" x="920.5" y="-37" font-family="Helvetica,sans-Serif" font-size="10.00" fill="#000000"> ComponentsType &gt; &gt;</text>
</g>
<!-- Node10 -->
<g id="node10" class="node">
<title>Node10</title>
<g id="a_node10"><a xlink:href="classgko_1_1AbstractFactory.html" target="_top" xlink:title="The AbstractFactory is a generic interface template that enables easy implementation of the abstract ...">
<polygon fill="#ffffff" stroke="#000000" points="1268,-55.5 1268,-96.5 1399,-96.5 1399,-55.5 1268,-55.5"/>
<text text-anchor="start" x="1276" y="-84.5" font-family="Helvetica,sans-Serif" font-size="10.00" fill="#000000">gko::AbstractFactory</text>
<text text-anchor="start" x="1276" y="-73.5" font-family="Helvetica,sans-Serif" font-size="10.00" fill="#000000">&lt; AbstractProductType,</text>
<text text-anchor="middle" x="1333.5" y="-62.5" font-family="Helvetica,sans-Serif" font-size="10.00" fill="#000000"> ComponentsType &gt;</text>
</a>
</g>
</g>
<!-- Node10&#45;&gt;Node2 -->
<g id="edge10" class="edge">
<title>Node10&#45;&gt;Node2</title>
<path fill="none" stroke="#ffa500" stroke-dasharray="5,2" d="M1409.7475,-80.8927C1445.4077,-83.4417 1488.4243,-86.8889 1527,-91 1532.7858,-91.6166 1538.796,-92.3178 1544.8103,-93.0608"/>
<polygon fill="#ffa500" stroke="#ffa500" points="1409.6349,-77.3761 1399.4135,-80.1643 1409.1427,-84.3588 1409.6349,-77.3761"/>
<text text-anchor="start" x="1417" y="-105" font-family="Helvetica,sans-Serif" font-size="10.00" fill="#000000"> &lt; LinOp, std::shared</text>
<text text-anchor="middle" x="1472" y="-94" font-family="Helvetica,sans-Serif" font-size="10.00" fill="#000000">_ptr&lt; const LinOp &gt; &gt;</text>
</g>
<!-- Node11&#45;&gt;Node10 -->
<g id="edge11" class="edge">
<title>Node11&#45;&gt;Node10</title>
<path fill="none" stroke="#191970" d="M1241.529,-70.949C1250.5516,-71.4445 1259.413,-71.9311 1267.8583,-72.395"/>
<polygon fill="#191970" stroke="#191970" points="1241.4641,-67.4402 1231.2872,-70.3865 1241.0802,-74.4297 1241.4641,-67.4402"/>
</g>
<!-- Node13 -->
<g id="node13" class="node">
<title>Node13</title>
<g id="a_node13"><a xlink:href="classgko_1_1EnablePolymorphicObject.html" target="_top" xlink:title=" ">
<polygon fill="#ffffff" stroke="#000000" points="2073,-186 2073,-216 2276,-216 2276,-186 2073,-186"/>
<text text-anchor="start" x="2081" y="-204" font-family="Helvetica,sans-Serif" font-size="10.00" fill="#000000">gko::EnablePolymorphicObject</text>
<text text-anchor="middle" x="2174.5" y="-193" font-family="Helvetica,sans-Serif" font-size="10.00" fill="#000000">&lt; Amd&lt; IndexType &gt;, LinOpFactory &gt;</text>
</a>
</g>
</g>
<!-- Node12&#45;&gt;Node13 -->
<g id="edge15" class="edge">
<title>Node12&#45;&gt;Node13</title>
<path fill="none" stroke="#191970" d="M2040.3669,-201C2051.0413,-201 2061.9257,-201 2072.6465,-201"/>
<polygon fill="#191970" stroke="#191970" points="2040.2093,-197.5001 2030.2093,-201 2040.2092,-204.5001 2040.2093,-197.5001"/>
</g>
<!-- Node14 -->
<g id="node14" class="node">
<title>Node14</title>
<g id="a_node14"><a xlink:href="classgko_1_1experimental_1_1reorder_1_1Amd.html" target="_top" xlink:title="Computes a Approximate Minimum Degree (AMD) reordering of an input matrix.">
<polygon fill="#ffffff" stroke="#000000" points="2316.5,-186 2316.5,-216 2468.5,-216 2468.5,-186 2316.5,-186"/>
<text text-anchor="start" x="2324.5" y="-204" font-family="Helvetica,sans-Serif" font-size="10.00" fill="#000000">gko::experimental::</text>
<text text-anchor="middle" x="2392.5" y="-193" font-family="Helvetica,sans-Serif" font-size="10.00" fill="#000000">reorder::Amd&lt; IndexType &gt;</text>
</a>
</g>
</g>
<!-- Node13&#45;&gt;Node14 -->
<g id="edge16" class="edge">
<title>Node13&#45;&gt;Node14</title>
<path fill="none" stroke="#191970" d="M2286.3323,-201C2296.5065,-201 2306.6478,-201 2316.4013,-201"/>
<polygon fill="#191970" stroke="#191970" points="2286.1602,-197.5001 2276.1602,-201 2286.1602,-204.5001 2286.1602,-197.5001"/>
</g>
<!-- Node16 -->
<g id="node16" class="node">
<title>Node16</title>
<g id="a_node16"><a xlink:href="classgko_1_1EnablePolymorphicObject.html" target="_top" xlink:title=" ">
<polygon fill="#ffffff" stroke="#000000" points="2080,-120.5 2080,-161.5 2269,-161.5 2269,-120.5 2080,-120.5"/>
<text text-anchor="start" x="2088" y="-149.5" font-family="Helvetica,sans-Serif" font-size="10.00" fill="#000000">gko::EnablePolymorphicObject</text>
<text text-anchor="start" x="2088" y="-138.5" font-family="Helvetica,sans-Serif" font-size="10.00" fill="#000000">&lt; Cholesky&lt; ValueType, IndexType</text>
<text text-anchor="middle" x="2174.5" y="-127.5" font-family="Helvetica,sans-Serif" font-size="10.00" fill="#000000"> &gt;, LinOpFactory &gt;</text>
</a>
</g>
</g>
<!-- Node15&#45;&gt;Node16 -->
<g id="edge18" class="edge">
<title>Node15&#45;&gt;Node16</title>
<path fill="none" stroke="#191970" d="M2040.532,-141C2053.5016,-141 2066.7783,-141 2079.6923,-141"/>
<polygon fill="#191970" stroke="#191970" points="2040.2093,-137.5001 2030.2093,-141 2040.2092,-144.5001 2040.2093,-137.5001"/>
</g>
<!-- Node17 -->
<g id="node17" class="node">
<title>Node17</title>
<g id="a_node17"><a xlink:href="classgko_1_1experimental_1_1factorization_1_1Cholesky.html" target="_top" xlink:title="Computes a Cholesky factorization of a symmetric, positive&#45;definite sparse matrix.">
<polygon fill="#ffffff" stroke="#000000" points="2320.5,-120.5 2320.5,-161.5 2464.5,-161.5 2464.5,-120.5 2320.5,-120.5"/>
<text text-anchor="start" x="2328.5" y="-149.5" font-family="Helvetica,sans-Serif" font-size="10.00" fill="#000000">gko::experimental::</text>
<text text-anchor="start" x="2328.5" y="-138.5" font-family="Helvetica,sans-Serif" font-size="10.00" fill="#000000">factorization::Cholesky</text>
<text text-anchor="middle" x="2392.5" y="-127.5" font-family="Helvetica,sans-Serif" font-size="10.00" fill="#000000">&lt; ValueType, IndexType &gt;</text>
</a>
</g>
</g>
<!-- Node16&#45;&gt;Node17 -->
<g id="edge19" class="edge">
<title>Node16&#45;&gt;Node17</title>
<path fill="none" stroke="#191970" d="M2279.2408,-141C2293.1157,-141 2307.0828,-141 2320.2409,-141"/>
<polygon fill="#191970" stroke="#191970" points="2279.1669,-137.5001 2269.1669,-141 2279.1668,-144.5001 2279.1669,-137.5001"/>
</g>
<!-- Node19 -->
<g id="node19" class="node">
<title>Node19</title>
<g id="a_node19"><a xlink:href="classgko_1_1EnablePolymorphicObject.html" target="_top" xlink:title=" ">
<polygon fill="#ffffff" stroke="#000000" points="2091.5,-60.5 2091.5,-101.5 2257.5,-101.5 2257.5,-60.5 2091.5,-60.5"/>
<text text-anchor="start" x="2099.5" y="-89.5" font-family="Helvetica,sans-Serif" font-size="10.00" fill="#000000">gko::EnablePolymorphicObject</text>
<text text-anchor="start" x="2099.5" y="-78.5" font-family="Helvetica,sans-Serif" font-size="10.00" fill="#000000">&lt; IdentityFactory&lt; ValueType</text>
<text text-anchor="middle" x="2174.5" y="-67.5" font-family="Helvetica,sans-Serif" font-size="10.00" fill="#000000"> &gt;, LinOpFactory &gt;</text>
</a>
</g>
</g>
<!-- Node18&#45;&gt;Node19 -->
<g id="edge21" class="edge">
<title>Node18&#45;&gt;Node19</title>
<path fill="none" stroke="#191970" d="M2040.6237,-81C2057.4781,-81 2074.8484,-81 2091.2649,-81"/>
<polygon fill="#191970" stroke="#191970" points="2040.2093,-77.5001 2030.2093,-81 2040.2092,-84.5001 2040.2093,-77.5001"/>
</g>
<!-- Node20 -->
<g id="node20" class="node">
<title>Node20</title>
<g id="a_node20"><a xlink:href="classgko_1_1matrix_1_1IdentityFactory.html" target="_top" xlink:title="This factory is a utility which can be used to generate Identity operators.">
<polygon fill="#ffffff" stroke="#000000" points="2316.5,-66 2316.5,-96 2468.5,-96 2468.5,-66 2316.5,-66"/>
<text text-anchor="start" x="2324.5" y="-84" font-family="Helvetica,sans-Serif" font-size="10.00" fill="#000000">gko::matrix::IdentityFactory</text>
<text text-anchor="middle" x="2392.5" y="-73" font-family="Helvetica,sans-Serif" font-size="10.00" fill="#000000">&lt; ValueType &gt;</text>
</a>
</g>
</g>
<!-- Node19&#45;&gt;Node20 -->
<g id="edge22" class="edge">
<title>Node19&#45;&gt;Node20</title>
<path fill="none" stroke="#191970" d="M2267.6168,-81C2283.9255,-81 2300.719,-81 2316.4945,-81"/>
<polygon fill="#191970" stroke="#191970" points="2267.5384,-77.5001 2257.5383,-81 2267.5383,-84.5001 2267.5384,-77.5001"/>
</g>
<!-- Node22 -->
<g id="node22" class="node">
<title>Node22</title>
<g id="a_node22"><a xlink:href="classgko_1_1EnablePolymorphicObject.html" target="_top" xlink:title=" ">
<polygon fill="#ffffff" stroke="#000000" points="2091.5,-.5 2091.5,-41.5 2257.5,-41.5 2257.5,-.5 2091.5,-.5"/>
<text text-anchor="start" x="2099.5" y="-29.5" font-family="Helvetica,sans-Serif" font-size="10.00" fill="#000000">gko::EnablePolymorphicObject</text>
<text text-anchor="start" x="2099.5" y="-18.5" font-family="Helvetica,sans-Serif" font-size="10.00" fill="#000000">&lt; Lu&lt; ValueType, IndexType</text>
<text text-anchor="middle" x="2174.5" y="-7.5" font-family="Helvetica,sans-Serif" font-size="10.00" fill="#000000"> &gt;, LinOpFactory &gt;</text>
</a>
</g>
</g>
<!-- Node21&#45;&gt;Node22 -->
<g id="edge24" class="edge">
<title>Node21&#45;&gt;Node22</title>
<path fill="none" stroke="#191970" d="M2046.5199,-21C2061.5145,-21 2076.7791,-21 2091.2969,-21"/>
<polygon fill="#191970" stroke="#191970" points="2046.1946,-17.5001 2036.1945,-21 2046.1945,-24.5001 2046.1946,-17.5001"/>
</g>
<!-- Node23 -->
<g id="node23" class="node">
<title>Node23</title>
<g id="a_node23"><a xlink:href="classgko_1_1experimental_1_1factorization_1_1Lu.html" target="_top" xlink:title="Computes an LU factorization of a sparse matrix.">
<polygon fill="#ffffff" stroke="#000000" points="2313,-.5 2313,-41.5 2472,-41.5 2472,-.5 2313,-.5"/>
<text text-anchor="start" x="2321" y="-29.5" font-family="Helvetica,sans-Serif" font-size="10.00" fill="#000000">gko::experimental::</text>
<text text-anchor="start" x="2321" y="-18.5" font-family="Helvetica,sans-Serif" font-size="10.00" fill="#000000">factorization::Lu&lt; ValueType,</text>
<text text-anchor="middle" x="2392.5" y="-7.5" font-family="Helvetica,sans-Serif" font-size="10.00" fill="#000000"> IndexType &gt;</text>
</a>
</g>
</g>
<!-- Node22&#45;&gt;Node23 -->
<g id="edge25" class="edge">
<title>Node22&#45;&gt;Node23</title>
<path fill="none" stroke="#191970" d="M2267.8519,-21C2282.8633,-21 2298.2791,-21 2312.9283,-21"/>
<polygon fill="#191970" stroke="#191970" points="2267.5384,-17.5001 2257.5383,-21 2267.5383,-24.5001 2267.5384,-17.5001"/>
</g>
</g>
</svg>
