<?xml version="1.0" encoding="UTF-8" standalone="no"?>
<!DOCTYPE svg PUBLIC "-//W3C//DTD SVG 1.1//EN"
 "http://www.w3.org/Graphics/SVG/1.1/DTD/svg11.dtd">
<!-- Generated by graphviz version 2.40.1 (20161225.0304)
 -->
<!-- Title: gko::log::ProfilerHook::summary_entry Pages: 1 -->
<svg width="130pt" height="252pt"
 viewBox="0.00 0.00 130.00 252.00" xmlns="http://www.w3.org/2000/svg" xmlns:xlink="http://www.w3.org/1999/xlink">
<g id="graph0" class="graph" transform="scale(1 1) rotate(0) translate(4 248)">
<title>gko::log::ProfilerHook::summary_entry</title>
<polygon fill="#ffffff" stroke="transparent" points="-4,4 -4,-248 126,-248 126,4 -4,4"/>
<!-- Node1 -->
<g id="node1" class="node">
<title>Node1</title>
<g id="a_node1"><a xlink:title=" ">
<polygon fill="#bfbfbf" stroke="#000000" points="0,-.5 0,-30.5 122,-30.5 122,-.5 0,-.5"/>
<text text-anchor="start" x="8" y="-18.5" font-family="Helvetica,sans-Serif" font-size="10.00" fill="#000000">gko::log::ProfilerHook</text>
<text text-anchor="middle" x="61" y="-7.5" font-family="Helvetica,sans-Serif" font-size="10.00" fill="#000000">::summary_entry</text>
</a>
</g>
</g>
<!-- Node2 -->
<g id="node2" class="node">
<title>Node2</title>
<g id="a_node2"><a xlink:title="STL class.">
<polygon fill="#ffffff" stroke="#bfbfbf" points="28.5,-78.5 28.5,-97.5 93.5,-97.5 93.5,-78.5 28.5,-78.5"/>
<text text-anchor="middle" x="61" y="-85.5" font-family="Helvetica,sans-Serif" font-size="10.00" fill="#000000">std::string</text>
</a>
</g>
</g>
<!-- Node2&#45;&gt;Node1 -->
<g id="edge1" class="edge">
<title>Node2&#45;&gt;Node1</title>
<path fill="none" stroke="#9a32cd" stroke-dasharray="5,2" d="M61,-68.0177C61,-56.2164 61,-41.513 61,-30.668"/>
<polygon fill="#9a32cd" stroke="#9a32cd" points="57.5001,-68.2223 61,-78.2223 64.5001,-68.2224 57.5001,-68.2223"/>
<text text-anchor="middle" x="76.5" y="-52" font-family="Helvetica,sans-Serif" font-size="10.00" fill="#000000"> name</text>
</g>
<!-- Node3 -->
<g id="node3" class="node">
<title>Node3</title>
<g id="a_node3"><a xlink:title=" ">
<polygon fill="#ffffff" stroke="#bfbfbf" points="9,-135.5 9,-165.5 113,-165.5 113,-135.5 9,-135.5"/>
<text text-anchor="start" x="17" y="-153.5" font-family="Helvetica,sans-Serif" font-size="10.00" fill="#000000">std::basic_string&lt;</text>
<text text-anchor="middle" x="61" y="-142.5" font-family="Helvetica,sans-Serif" font-size="10.00" fill="#000000"> char &gt;</text>
</a>
</g>
</g>
<!-- Node3&#45;&gt;Node2 -->
<g id="edge2" class="edge">
<title>Node3&#45;&gt;Node2</title>
<path fill="none" stroke="#191970" d="M61,-125.3498C61,-115.6481 61,-105.1303 61,-97.7356"/>
<polygon fill="#191970" stroke="#191970" points="57.5001,-125.3705 61,-135.3705 64.5001,-125.3705 57.5001,-125.3705"/>
</g>
<!-- Node4 -->
<g id="node4" class="node">
<title>Node4</title>
<g id="a_node4"><a xlink:title="STL class.">
<polygon fill="#ffffff" stroke="#bfbfbf" points="9,-213.5 9,-243.5 113,-243.5 113,-213.5 9,-213.5"/>
<text text-anchor="start" x="17" y="-231.5" font-family="Helvetica,sans-Serif" font-size="10.00" fill="#000000">std::basic_string&lt;</text>
<text text-anchor="middle" x="61" y="-220.5" font-family="Helvetica,sans-Serif" font-size="10.00" fill="#000000"> Char &gt;</text>
</a>
</g>
</g>
<!-- Node4&#45;&gt;Node3 -->
<g id="edge3" class="edge">
<title>Node4&#45;&gt;Node3</title>
<path fill="none" stroke="#ffa500" stroke-dasharray="5,2" d="M61,-203.2875C61,-190.9187 61,-176.4264 61,-165.7592"/>
<polygon fill="#ffa500" stroke="#ffa500" points="57.5001,-203.4608 61,-213.4608 64.5001,-203.4608 57.5001,-203.4608"/>
<text text-anchor="middle" x="84.5" y="-187" font-family="Helvetica,sans-Serif" font-size="10.00" fill="#000000"> &lt; char &gt;</text>
</g>
</g>
</svg>
