<?xml version="1.0" encoding="UTF-8" standalone="no"?>
<!DOCTYPE svg PUBLIC "-//W3C//DTD SVG 1.1//EN"
 "http://www.w3.org/Graphics/SVG/1.1/DTD/svg11.dtd">
<!-- Generated by graphviz version 2.40.1 (20161225.0304)
 -->
<!-- Title: gko::dim&lt; Dimensionality, DimensionType &gt; Pages: 1 -->
<svg width="202pt" height="106pt"
 viewBox="0.00 0.00 202.00 106.00" xmlns="http://www.w3.org/2000/svg" xmlns:xlink="http://www.w3.org/1999/xlink">
<g id="graph0" class="graph" transform="scale(1 1) rotate(0) translate(4 102)">
<title>gko::dim&lt; Dimensionality, DimensionType &gt;</title>
<polygon fill="#ffffff" stroke="transparent" points="-4,4 -4,-102 198,-102 198,4 -4,4"/>
<!-- Node1 -->
<g id="node1" class="node">
<title>Node1</title>
<g id="a_node1"><a xlink:title="A type representing the dimensions of a multidimensional object.">
<polygon fill="#bfbfbf" stroke="#000000" points="23,-67.5 23,-97.5 171,-97.5 171,-67.5 23,-67.5"/>
<text text-anchor="start" x="31" y="-85.5" font-family="Helvetica,sans-Serif" font-size="10.00" fill="#000000">gko::dim&lt; Dimensionality,</text>
<text text-anchor="middle" x="97" y="-74.5" font-family="Helvetica,sans-Serif" font-size="10.00" fill="#000000"> DimensionType &gt;</text>
</a>
</g>
</g>
<!-- Node2 -->
<g id="node2" class="node">
<title>Node2</title>
<g id="a_node2"><a xlink:href="structgko_1_1dim.html" target="_top" xlink:title=" ">
<polygon fill="#ffffff" stroke="#000000" points="0,-.5 0,-19.5 88,-19.5 88,-.5 0,-.5"/>
<text text-anchor="middle" x="44" y="-7.5" font-family="Helvetica,sans-Serif" font-size="10.00" fill="#000000">gko::dim&lt; 2 &gt;</text>
</a>
</g>
</g>
<!-- Node1&#45;&gt;Node2 -->
<g id="edge1" class="edge">
<title>Node1&#45;&gt;Node2</title>
<path fill="none" stroke="#ffa500" stroke-dasharray="5,2" d="M79.9821,-59.2208C70.2671,-45.9314 58.5937,-29.963 51.2341,-19.8957"/>
<polygon fill="#ffa500" stroke="#ffa500" points="77.2912,-61.4706 86.0184,-67.478 82.9423,-57.3395 77.2912,-61.4706"/>
<text text-anchor="middle" x="89" y="-41" font-family="Helvetica,sans-Serif" font-size="10.00" fill="#000000"> &lt; 2 &gt;</text>
</g>
<!-- Node3 -->
<g id="node3" class="node">
<title>Node3</title>
<g id="a_node3"><a xlink:href="structgko_1_1dim.html" target="_top" xlink:title=" ">
<polygon fill="#ffffff" stroke="#000000" points="106,-.5 106,-19.5 194,-19.5 194,-.5 106,-.5"/>
<text text-anchor="middle" x="150" y="-7.5" font-family="Helvetica,sans-Serif" font-size="10.00" fill="#000000">gko::dim&lt; 3 &gt;</text>
</a>
</g>
</g>
<!-- Node1&#45;&gt;Node3 -->
<g id="edge2" class="edge">
<title>Node1&#45;&gt;Node3</title>
<path fill="none" stroke="#ffa500" stroke-dasharray="5,2" d="M114.0179,-59.2208C123.7329,-45.9314 135.4063,-29.963 142.7659,-19.8957"/>
<polygon fill="#ffa500" stroke="#ffa500" points="111.0577,-57.3395 107.9816,-67.478 116.7088,-61.4706 111.0577,-57.3395"/>
<text text-anchor="middle" x="144" y="-41" font-family="Helvetica,sans-Serif" font-size="10.00" fill="#000000"> &lt; 3 &gt;</text>
</g>
</g>
</svg>
