<?xml version="1.0" encoding="UTF-8" standalone="no"?>
<!DOCTYPE svg PUBLIC "-//W3C//DTD SVG 1.1//EN"
 "http://www.w3.org/Graphics/SVG/1.1/DTD/svg11.dtd">
<!-- Generated by graphviz version 2.40.1 (20161225.0304)
 -->
<!-- Title: gko::solver::Fcg&lt; ValueType &gt; Pages: 1 -->
<!--zoomable 544 -->
<svg id="main" version="1.1" xmlns="http://www.w3.org/2000/svg" xmlns:xlink="http://www.w3.org/1999/xlink" xml:space="preserve" onload="init(evt)">
<style type="text/css"><![CDATA[
.edge:hover path { stroke: red; }
.edge:hover polygon { stroke: red; fill: red; }
]]></style>
<script type="text/javascript"><![CDATA[
var edges = document.getElementsByTagName('g');
if (edges && edges.length) {
  for (var i=0;i<edges.length;i++) {
    if (edges[i].id.substr(0,4)=='edge') {
      edges[i].setAttribute('class','edge');
    }
  }
}
]]></script>
        <defs>
                <circle id="rim" cx="0" cy="0" r="7"/>
                <circle id="rim2" cx="0" cy="0" r="3.5"/>
                <g id="zoomPlus">
                        <use xlink:href="#rim" fill="#404040">
                                <set attributeName="fill" to="#808080" begin="zoomplus.mouseover" end="zoomplus.mouseout"/>
                        </use>
                        <path d="M-4,0h8M0,-4v8" fill="none" stroke="white" stroke-width="1.5" pointer-events="none"/>
                </g>
                <g id="zoomMin">
                        <use xlink:href="#rim" fill="#404040">
                                <set attributeName="fill" to="#808080" begin="zoomminus.mouseover" end="zoomminus.mouseout"/>
                        </use>
                        <path d="M-4,0h8" fill="none" stroke="white" stroke-width="1.5" pointer-events="none"/>
                </g>
                <g id="dirArrow">
                        <path fill="none" stroke="white" stroke-width="1.5" d="M0,-3.0v7 M-2.5,-0.5L0,-3.0L2.5,-0.5"/>
                </g>
               <g id="resetDef">
                       <use xlink:href="#rim2" fill="#404040">
                               <set attributeName="fill" to="#808080" begin="reset.mouseover" end="reset.mouseout"/>
                       </use>
               </g>
        </defs>

<script type="text/javascript">
var viewWidth = 2416;
var viewHeight = 544;
var sectionId = 'dynsection-0';
</script>
<script xlink:href="svgpan.js"/>
<svg id="graph" class="graph">
<g id="viewport">
<title>gko::solver::Fcg&lt; ValueType &gt;</title>
<polygon fill="#ffffff" stroke="transparent" points="-4,4 -4,-540 2412,-540 2412,4 -4,4"/>
<!-- Node1 -->
<g id="node1" class="node">
<title>Node1</title>
<g id="a_node1"><a xlink:title="FCG or the flexible conjugate gradient method is an iterative type Krylov subspace method which is su...">
<polygon fill="#bfbfbf" stroke="#000000" points="2243,-130.5 2243,-149.5 2408,-149.5 2408,-130.5 2243,-130.5"/>
<text text-anchor="middle" x="2325.5" y="-137.5" font-family="Helvetica,sans-Serif" font-size="10.00" fill="#000000">gko::solver::Fcg&lt; ValueType &gt;</text>
</a>
</g>
</g>
<!-- Node2 -->
<g id="node2" class="node">
<title>Node2</title>
<g id="a_node2"><a xlink:href="classgko_1_1EnableLinOp.html" target="_top" xlink:title=" ">
<polygon fill="#ffffff" stroke="#000000" points="2050.5,-298 2050.5,-328 2179.5,-328 2179.5,-298 2050.5,-298"/>
<text text-anchor="start" x="2058.5" y="-316" font-family="Helvetica,sans-Serif" font-size="10.00" fill="#000000">gko::EnableLinOp&lt; Fcg</text>
<text text-anchor="middle" x="2115" y="-305" font-family="Helvetica,sans-Serif" font-size="10.00" fill="#000000">&lt; ValueType &gt; &gt;</text>
</a>
</g>
</g>
<!-- Node2&#45;&gt;Node1 -->
<g id="edge1" class="edge">
<title>Node2&#45;&gt;Node1</title>
<path fill="none" stroke="#191970" d="M2141.0678,-291.5761C2187.1359,-253.7149 2281.1688,-176.4337 2313.9328,-149.5065"/>
<polygon fill="#191970" stroke="#191970" points="2138.8156,-288.8966 2133.3123,-297.95 2143.2602,-294.3046 2138.8156,-288.8966"/>
</g>
<!-- Node3 -->
<g id="node3" class="node">
<title>Node3</title>
<g id="a_node3"><a xlink:href="classgko_1_1EnablePolymorphicObject.html" target="_top" xlink:title=" ">
<polygon fill="#ffffff" stroke="#000000" points="1639.5,-325 1639.5,-355 1805.5,-355 1805.5,-325 1639.5,-325"/>
<text text-anchor="start" x="1647.5" y="-343" font-family="Helvetica,sans-Serif" font-size="10.00" fill="#000000">gko::EnablePolymorphicObject</text>
<text text-anchor="middle" x="1722.5" y="-332" font-family="Helvetica,sans-Serif" font-size="10.00" fill="#000000">&lt; Fcg&lt; ValueType &gt;, LinOp &gt;</text>
</a>
</g>
</g>
<!-- Node3&#45;&gt;Node2 -->
<g id="edge2" class="edge">
<title>Node3&#45;&gt;Node2</title>
<path fill="none" stroke="#191970" d="M1815.7654,-333.5843C1888.0903,-328.6091 1986.453,-321.8427 2050.3309,-317.4486"/>
<polygon fill="#191970" stroke="#191970" points="1815.4753,-330.0959 1805.7392,-334.274 1815.9558,-337.0794 1815.4753,-330.0959"/>
</g>
<!-- Node4 -->
<g id="node4" class="node">
<title>Node4</title>
<g id="a_node4"><a xlink:href="classgko_1_1EnableAbstractPolymorphicObject.html" target="_top" xlink:title=" ">
<polygon fill="#ffffff" stroke="#000000" points="1288,-471.5 1288,-512.5 1463,-512.5 1463,-471.5 1288,-471.5"/>
<text text-anchor="start" x="1296" y="-500.5" font-family="Helvetica,sans-Serif" font-size="10.00" fill="#000000">gko::EnableAbstractPolymorphic</text>
<text text-anchor="start" x="1296" y="-489.5" font-family="Helvetica,sans-Serif" font-size="10.00" fill="#000000">Object&lt; Fcg&lt; ValueType &gt;,</text>
<text text-anchor="middle" x="1375.5" y="-478.5" font-family="Helvetica,sans-Serif" font-size="10.00" fill="#000000"> LinOp &gt;</text>
</a>
</g>
</g>
<!-- Node4&#45;&gt;Node3 -->
<g id="edge3" class="edge">
<title>Node4&#45;&gt;Node3</title>
<path fill="none" stroke="#191970" d="M1451.8109,-468.1257C1460.0316,-465.2031 1468.2272,-462.1363 1476,-459 1557.0868,-426.2821 1648.9536,-379.1206 1694.2146,-355.1803"/>
<polygon fill="#191970" stroke="#191970" points="1450.4633,-464.8888 1442.1728,-471.4857 1452.7677,-471.4987 1450.4633,-464.8888"/>
</g>
<!-- Node5 -->
<g id="node5" class="node">
<title>Node5</title>
<g id="a_node5"><a xlink:href="classgko_1_1LinOp.html" target="_top" xlink:title=" ">
<polygon fill="#ffffff" stroke="#000000" points="949.5,-482.5 949.5,-501.5 1017.5,-501.5 1017.5,-482.5 949.5,-482.5"/>
<text text-anchor="middle" x="983.5" y="-489.5" font-family="Helvetica,sans-Serif" font-size="10.00" fill="#000000">gko::LinOp</text>
</a>
</g>
</g>
<!-- Node5&#45;&gt;Node4 -->
<g id="edge4" class="edge">
<title>Node5&#45;&gt;Node4</title>
<path fill="none" stroke="#191970" d="M1027.9667,-492C1090.8762,-492 1207.1665,-492 1287.805,-492"/>
<polygon fill="#191970" stroke="#191970" points="1027.6017,-488.5001 1017.6017,-492 1027.6017,-495.5001 1027.6017,-488.5001"/>
</g>
<!-- Node6 -->
<g id="node6" class="node">
<title>Node6</title>
<g id="a_node6"><a xlink:href="classgko_1_1EnableAbstractPolymorphicObject.html" target="_top" xlink:title=" ">
<polygon fill="#ffffff" stroke="#ff0000" points="542,-457 542,-487 717,-487 717,-457 542,-457"/>
<text text-anchor="start" x="550" y="-475" font-family="Helvetica,sans-Serif" font-size="10.00" fill="#000000">gko::EnableAbstractPolymorphic</text>
<text text-anchor="middle" x="629.5" y="-464" font-family="Helvetica,sans-Serif" font-size="10.00" fill="#000000">Object&lt; LinOp &gt;</text>
</a>
</g>
</g>
<!-- Node6&#45;&gt;Node5 -->
<g id="edge5" class="edge">
<title>Node6&#45;&gt;Node5</title>
<path fill="none" stroke="#191970" d="M727.2731,-477.5239C801.1818,-481.6995 898.3122,-487.1871 949.1295,-490.0582"/>
<polygon fill="#191970" stroke="#191970" points="727.1872,-474.0136 717.0056,-476.9438 726.7923,-481.0024 727.1872,-474.0136"/>
</g>
<!-- Node12 -->
<g id="node7" class="node">
<title>Node12</title>
<g id="a_node7"><a xlink:href="classgko_1_1EnableAbstractPolymorphicObject.html" target="_top" xlink:title="This mixin inherits from (a subclass of) PolymorphicObject and provides a base implementation of a ne...">
<polygon fill="#ffffff" stroke="#000000" points="138,-382.5 138,-423.5 336,-423.5 336,-382.5 138,-382.5"/>
<text text-anchor="start" x="146" y="-411.5" font-family="Helvetica,sans-Serif" font-size="10.00" fill="#000000">gko::EnableAbstractPolymorphic</text>
<text text-anchor="start" x="146" y="-400.5" font-family="Helvetica,sans-Serif" font-size="10.00" fill="#000000">Object&lt; AbstractObject, Polymorphic</text>
<text text-anchor="middle" x="237" y="-389.5" font-family="Helvetica,sans-Serif" font-size="10.00" fill="#000000">Base &gt;</text>
</a>
</g>
</g>
<!-- Node12&#45;&gt;Node4 -->
<g id="edge8" class="edge">
<title>Node12&#45;&gt;Node4</title>
<path fill="none" stroke="#ffa500" stroke-dasharray="5,2" d="M274.2858,-429.0763C296.4662,-443.3531 325.718,-460.1046 354,-470 428.2825,-495.9903 450.6675,-489.4241 529,-497 775.4836,-520.8387 838.3927,-514.6192 1086,-511 1162.0244,-509.8888 1181.1723,-511.5769 1257,-506 1267.0202,-505.263 1277.4969,-504.3028 1287.8976,-503.2304"/>
<polygon fill="#ffa500" stroke="#ffa500" points="276.1276,-426.0987 265.8455,-423.5434 272.2899,-431.9529 276.1276,-426.0987"/>
<text text-anchor="start" x="752.5" y="-528" font-family="Helvetica,sans-Serif" font-size="10.00" fill="#000000"> &lt; Fcg&lt; ValueType &gt;,</text>
<text text-anchor="middle" x="805.5" y="-517" font-family="Helvetica,sans-Serif" font-size="10.00" fill="#000000"> LinOp &gt;</text>
</g>
<!-- Node12&#45;&gt;Node6 -->
<g id="edge6" class="edge">
<title>Node12&#45;&gt;Node6</title>
<path fill="none" stroke="#ffa500" stroke-dasharray="5,2" d="M336.5681,-425.5779C342.4585,-426.7731 348.3022,-427.9234 354,-429 416.5509,-440.8191 487.5337,-451.8418 541.7812,-459.7678"/>
<polygon fill="#ffa500" stroke="#ffa500" points="337.1293,-422.12 326.6286,-423.5291 335.7161,-428.9759 337.1293,-422.12"/>
<text text-anchor="middle" x="432.5" y="-458" font-family="Helvetica,sans-Serif" font-size="10.00" fill="#000000"> &lt; LinOp &gt;</text>
</g>
<!-- Node14 -->
<g id="node10" class="node">
<title>Node14</title>
<g id="a_node10"><a xlink:href="classgko_1_1EnableAbstractPolymorphicObject.html" target="_top" xlink:title=" ">
<polygon fill="#ffffff" stroke="#000000" points="529,-310.5 529,-351.5 730,-351.5 730,-310.5 529,-310.5"/>
<text text-anchor="start" x="537" y="-339.5" font-family="Helvetica,sans-Serif" font-size="10.00" fill="#000000">gko::EnableAbstractPolymorphic</text>
<text text-anchor="start" x="537" y="-328.5" font-family="Helvetica,sans-Serif" font-size="10.00" fill="#000000">Object&lt; ConcreteObject, Polymorphic</text>
<text text-anchor="middle" x="629.5" y="-317.5" font-family="Helvetica,sans-Serif" font-size="10.00" fill="#000000">Base &gt;</text>
</a>
</g>
</g>
<!-- Node12&#45;&gt;Node14 -->
<g id="edge12" class="edge">
<title>Node12&#45;&gt;Node14</title>
<path fill="none" stroke="#ffa500" stroke-dasharray="5,2" d="M346.178,-402.1925C396.8987,-399.7999 457.6519,-394.0381 511,-381 518.5376,-379.1578 552.8254,-364.5754 582.5922,-351.6309"/>
<polygon fill="#ffa500" stroke="#ffa500" points="346.0114,-398.6964 336.1728,-402.6273 346.3153,-405.6898 346.0114,-398.6964"/>
<text text-anchor="start" x="354" y="-415" font-family="Helvetica,sans-Serif" font-size="10.00" fill="#000000"> &lt; ConcreteObject, Polymorphic</text>
<text text-anchor="middle" x="432.5" y="-404" font-family="Helvetica,sans-Serif" font-size="10.00" fill="#000000">Base &gt;</text>
</g>
<!-- Node21 -->
<g id="node17" class="node">
<title>Node21</title>
<g id="a_node17"><a xlink:href="classgko_1_1EnableAbstractPolymorphicObject.html" target="_top" xlink:title=" ">
<polygon fill="#ffffff" stroke="#000000" points="531,-250.5 531,-291.5 728,-291.5 728,-250.5 531,-250.5"/>
<text text-anchor="start" x="539" y="-279.5" font-family="Helvetica,sans-Serif" font-size="10.00" fill="#000000">gko::EnableAbstractPolymorphic</text>
<text text-anchor="start" x="539" y="-268.5" font-family="Helvetica,sans-Serif" font-size="10.00" fill="#000000">Object&lt; ConcreteLinOp, Polymorphic</text>
<text text-anchor="middle" x="629.5" y="-257.5" font-family="Helvetica,sans-Serif" font-size="10.00" fill="#000000">Base &gt;</text>
</a>
</g>
</g>
<!-- Node12&#45;&gt;Node21 -->
<g id="edge22" class="edge">
<title>Node12&#45;&gt;Node21</title>
<path fill="none" stroke="#ffa500" stroke-dasharray="5,2" d="M293.8417,-378.4787C312.8303,-370.6099 334.1986,-362.1007 354,-355 430.6192,-327.5249 451.1125,-324.6414 529,-301 539.1058,-297.9326 549.7911,-294.7152 560.2746,-291.5732"/>
<polygon fill="#ffa500" stroke="#ffa500" points="292.3207,-375.3208 284.4402,-382.4022 295.0168,-381.7808 292.3207,-375.3208"/>
<text text-anchor="start" x="356" y="-369" font-family="Helvetica,sans-Serif" font-size="10.00" fill="#000000"> &lt; ConcreteLinOp, Polymorphic</text>
<text text-anchor="middle" x="432.5" y="-358" font-family="Helvetica,sans-Serif" font-size="10.00" fill="#000000">Base &gt;</text>
</g>
<!-- Node11 -->
<g id="node8" class="node">
<title>Node11</title>
<g id="a_node8"><a xlink:title=" ">
<polygon fill="#ffffff" stroke="#bfbfbf" points="0,-315.5 0,-334.5 101,-334.5 101,-315.5 0,-315.5"/>
<text text-anchor="middle" x="50.5" y="-322.5" font-family="Helvetica,sans-Serif" font-size="10.00" fill="#000000">PolymorphicBase</text>
</a>
</g>
</g>
<!-- Node11&#45;&gt;Node12 -->
<g id="edge7" class="edge">
<title>Node11&#45;&gt;Node12</title>
<path fill="none" stroke="#191970" d="M82.5985,-338.4246C111.5007,-350.5123 154.4214,-368.4631 187.6791,-382.3725"/>
<polygon fill="#191970" stroke="#191970" points="83.9447,-335.1939 73.3686,-334.5643 81.2437,-341.6518 83.9447,-335.1939"/>
</g>
<!-- Node11&#45;&gt;Node14 -->
<g id="edge11" class="edge">
<title>Node11&#45;&gt;Node14</title>
<path fill="none" stroke="#191970" d="M111.2841,-325.6299C210.5662,-326.6587 408.5048,-328.7099 528.9546,-329.9581"/>
<polygon fill="#191970" stroke="#191970" points="111.1578,-322.1285 101.122,-325.5246 111.0852,-329.1281 111.1578,-322.1285"/>
</g>
<!-- Node11&#45;&gt;Node21 -->
<g id="edge21" class="edge">
<title>Node11&#45;&gt;Node21</title>
<path fill="none" stroke="#191970" d="M111.3374,-319.326C211.1572,-310.0164 410.602,-291.4154 530.8406,-280.2014"/>
<polygon fill="#191970" stroke="#191970" points="110.7537,-315.8652 101.122,-320.2788 111.4038,-322.835 110.7537,-315.8652"/>
</g>
<!-- Node13 -->
<g id="node9" class="node">
<title>Node13</title>
<g id="a_node9"><a xlink:href="classgko_1_1EnablePolymorphicObject.html" target="_top" xlink:title="This mixin inherits from (a subclass of) PolymorphicObject and provides a base implementation of a ne...">
<polygon fill="#ffffff" stroke="#000000" points="881,-286 881,-316 1086,-316 1086,-286 881,-286"/>
<text text-anchor="start" x="889" y="-304" font-family="Helvetica,sans-Serif" font-size="10.00" fill="#000000">gko::EnablePolymorphicObject</text>
<text text-anchor="middle" x="983.5" y="-293" font-family="Helvetica,sans-Serif" font-size="10.00" fill="#000000">&lt; ConcreteObject, PolymorphicBase &gt;</text>
</a>
</g>
</g>
<!-- Node13&#45;&gt;Node3 -->
<g id="edge9" class="edge">
<title>Node13&#45;&gt;Node3</title>
<path fill="none" stroke="#ffa500" stroke-dasharray="5,2" d="M1096.2031,-314.3599C1098.826,-314.585 1101.4279,-314.7989 1104,-315 1295.2434,-329.9533 1520.4938,-336.2082 1639.3488,-338.625"/>
<polygon fill="#ffa500" stroke="#ffa500" points="1096.2745,-310.8522 1086.0006,-313.4403 1095.646,-317.824 1096.2745,-310.8522"/>
<text text-anchor="start" x="1322.5" y="-348" font-family="Helvetica,sans-Serif" font-size="10.00" fill="#000000"> &lt; Fcg&lt; ValueType &gt;,</text>
<text text-anchor="middle" x="1375.5" y="-337" font-family="Helvetica,sans-Serif" font-size="10.00" fill="#000000"> LinOp &gt;</text>
</g>
<!-- Node20 -->
<g id="node16" class="node">
<title>Node20</title>
<g id="a_node16"><a xlink:href="classgko_1_1EnablePolymorphicObject.html" target="_top" xlink:title=" ">
<polygon fill="#ffffff" stroke="#000000" points="1275,-262 1275,-292 1476,-292 1476,-262 1275,-262"/>
<text text-anchor="start" x="1283" y="-280" font-family="Helvetica,sans-Serif" font-size="10.00" fill="#000000">gko::EnablePolymorphicObject</text>
<text text-anchor="middle" x="1375.5" y="-269" font-family="Helvetica,sans-Serif" font-size="10.00" fill="#000000">&lt; ConcreteLinOp, PolymorphicBase &gt;</text>
</a>
</g>
</g>
<!-- Node13&#45;&gt;Node20 -->
<g id="edge23" class="edge">
<title>Node13&#45;&gt;Node20</title>
<path fill="none" stroke="#ffa500" stroke-dasharray="5,2" d="M1096.227,-293.49C1098.8427,-293.3242 1101.4367,-293.1606 1104,-293 1160.5497,-289.4566 1223.7398,-285.7195 1274.9195,-282.7489"/>
<polygon fill="#ffa500" stroke="#ffa500" points="1095.805,-290.0098 1086.0483,-294.1398 1096.251,-296.9955 1095.805,-290.0098"/>
<text text-anchor="start" x="1104" y="-307" font-family="Helvetica,sans-Serif" font-size="10.00" fill="#000000"> &lt; ConcreteLinOp, Polymorphic</text>
<text text-anchor="middle" x="1180.5" y="-296" font-family="Helvetica,sans-Serif" font-size="10.00" fill="#000000">Base &gt;</text>
</g>
<!-- Node14&#45;&gt;Node13 -->
<g id="edge10" class="edge">
<title>Node14&#45;&gt;Node13</title>
<path fill="none" stroke="#191970" d="M740.5302,-321.5907C785.4023,-317.7879 836.8757,-313.4258 880.8611,-309.6982"/>
<polygon fill="#191970" stroke="#191970" points="740.1371,-318.1113 730.4684,-322.4434 740.7283,-325.0863 740.1371,-318.1113"/>
</g>
<!-- Node15 -->
<g id="node11" class="node">
<title>Node15</title>
<g id="a_node11"><a xlink:href="classgko_1_1EnablePolymorphicAssignment.html" target="_top" xlink:title=" ">
<polygon fill="#ffffff" stroke="#000000" points="1279.5,-419 1279.5,-449 1471.5,-449 1471.5,-419 1279.5,-419"/>
<text text-anchor="start" x="1287.5" y="-437" font-family="Helvetica,sans-Serif" font-size="10.00" fill="#000000">gko::EnablePolymorphicAssignment</text>
<text text-anchor="middle" x="1375.5" y="-426" font-family="Helvetica,sans-Serif" font-size="10.00" fill="#000000">&lt; Fcg&lt; ValueType &gt; &gt;</text>
</a>
</g>
</g>
<!-- Node15&#45;&gt;Node2 -->
<g id="edge13" class="edge">
<title>Node15&#45;&gt;Node2</title>
<path fill="none" stroke="#191970" d="M1481.602,-421.3035C1607.3312,-405.5389 1822.8699,-376.2477 2006,-340 2023.2121,-336.5931 2041.7939,-332.2446 2058.655,-328.0377"/>
<polygon fill="#191970" stroke="#191970" points="1481.0764,-417.8419 1471.5873,-422.5544 1481.944,-424.7879 1481.0764,-417.8419"/>
</g>
<!-- Node16 -->
<g id="node12" class="node">
<title>Node16</title>
<g id="a_node12"><a xlink:href="classgko_1_1ConvertibleTo.html" target="_top" xlink:title=" ">
<polygon fill="#ffffff" stroke="#000000" points="919.5,-433 919.5,-463 1047.5,-463 1047.5,-433 919.5,-433"/>
<text text-anchor="start" x="927.5" y="-451" font-family="Helvetica,sans-Serif" font-size="10.00" fill="#000000">gko::ConvertibleTo</text>
<text text-anchor="middle" x="983.5" y="-440" font-family="Helvetica,sans-Serif" font-size="10.00" fill="#000000">&lt; Fcg&lt; ValueType &gt; &gt;</text>
</a>
</g>
</g>
<!-- Node16&#45;&gt;Node15 -->
<g id="edge14" class="edge">
<title>Node16&#45;&gt;Node15</title>
<path fill="none" stroke="#191970" d="M1058.0122,-445.3389C1120.7871,-443.0969 1211.0149,-439.8745 1279.2506,-437.4375"/>
<polygon fill="#191970" stroke="#191970" points="1057.6606,-441.8491 1047.7919,-445.7039 1057.9105,-448.8446 1057.6606,-441.8491"/>
</g>
<!-- Node17 -->
<g id="node13" class="node">
<title>Node17</title>
<g id="a_node13"><a xlink:href="classgko_1_1ConvertibleTo.html" target="_top" xlink:title="ConvertibleTo interface is used to mark that the implementer can be converted to the object of Result...">
<polygon fill="#ffffff" stroke="#000000" points="576,-384 576,-414 683,-414 683,-384 576,-384"/>
<text text-anchor="start" x="584" y="-402" font-family="Helvetica,sans-Serif" font-size="10.00" fill="#000000">gko::ConvertibleTo</text>
<text text-anchor="middle" x="629.5" y="-391" font-family="Helvetica,sans-Serif" font-size="10.00" fill="#000000">&lt; ResultType &gt;</text>
</a>
</g>
</g>
<!-- Node17&#45;&gt;Node16 -->
<g id="edge15" class="edge">
<title>Node17&#45;&gt;Node16</title>
<path fill="none" stroke="#ffa500" stroke-dasharray="5,2" d="M693.2282,-407.8211C757.1919,-416.6749 855.1894,-430.2395 919.3147,-439.1156"/>
<polygon fill="#ffa500" stroke="#ffa500" points="693.6505,-404.3463 683.265,-406.442 692.6906,-411.2802 693.6505,-404.3463"/>
<text text-anchor="middle" x="805.5" y="-433" font-family="Helvetica,sans-Serif" font-size="10.00" fill="#000000"> &lt; Fcg&lt; ValueType &gt; &gt;</text>
</g>
<!-- Node18 -->
<g id="node14" class="node">
<title>Node18</title>
<g id="a_node14"><a xlink:href="classgko_1_1EnablePolymorphicAssignment.html" target="_top" xlink:title="This mixin is used to enable a default PolymorphicObject::copy_from() implementation for objects that...">
<polygon fill="#ffffff" stroke="#000000" points="887.5,-384 887.5,-414 1079.5,-414 1079.5,-384 887.5,-384"/>
<text text-anchor="start" x="895.5" y="-402" font-family="Helvetica,sans-Serif" font-size="10.00" fill="#000000">gko::EnablePolymorphicAssignment</text>
<text text-anchor="middle" x="983.5" y="-391" font-family="Helvetica,sans-Serif" font-size="10.00" fill="#000000">&lt; ConcreteType, ResultType &gt;</text>
</a>
</g>
</g>
<!-- Node17&#45;&gt;Node18 -->
<g id="edge17" class="edge">
<title>Node17&#45;&gt;Node18</title>
<path fill="none" stroke="#191970" d="M693.4085,-399C747.4897,-399 825.8066,-399 887.4381,-399"/>
<polygon fill="#191970" stroke="#191970" points="693.265,-395.5001 683.265,-399 693.2649,-402.5001 693.265,-395.5001"/>
</g>
<!-- Node23 -->
<g id="node19" class="node">
<title>Node23</title>
<g id="a_node19"><a xlink:href="classgko_1_1ConvertibleTo.html" target="_top" xlink:title=" ">
<polygon fill="#ffffff" stroke="#000000" points="928.5,-335 928.5,-365 1038.5,-365 1038.5,-335 928.5,-335"/>
<text text-anchor="start" x="936.5" y="-353" font-family="Helvetica,sans-Serif" font-size="10.00" fill="#000000">gko::ConvertibleTo</text>
<text text-anchor="middle" x="983.5" y="-342" font-family="Helvetica,sans-Serif" font-size="10.00" fill="#000000">&lt; ConcreteLinOp &gt;</text>
</a>
</g>
</g>
<!-- Node17&#45;&gt;Node23 -->
<g id="edge26" class="edge">
<title>Node17&#45;&gt;Node23</title>
<path fill="none" stroke="#ffa500" stroke-dasharray="5,2" d="M693.2854,-390.1709C760.3377,-380.8897 864.7439,-366.438 928.353,-357.6333"/>
<polygon fill="#ffa500" stroke="#ffa500" points="692.6906,-386.7198 683.265,-391.558 693.6505,-393.6537 692.6906,-386.7198"/>
<text text-anchor="middle" x="805.5" y="-384" font-family="Helvetica,sans-Serif" font-size="10.00" fill="#000000"> &lt; ConcreteLinOp &gt;</text>
</g>
<!-- Node18&#45;&gt;Node15 -->
<g id="edge16" class="edge">
<title>Node18&#45;&gt;Node15</title>
<path fill="none" stroke="#ffa500" stroke-dasharray="5,2" d="M1089.6896,-408.1931C1140.3499,-412.6109 1201.8138,-418.0173 1257,-423 1264.3051,-423.6596 1271.8629,-424.3477 1279.4628,-425.0439"/>
<polygon fill="#ffa500" stroke="#ffa500" points="1089.9728,-404.7046 1079.7067,-407.3231 1089.365,-411.6782 1089.9728,-404.7046"/>
<text text-anchor="middle" x="1180.5" y="-426" font-family="Helvetica,sans-Serif" font-size="10.00" fill="#000000"> &lt; Fcg&lt; ValueType &gt; &gt;</text>
</g>
<!-- Node22 -->
<g id="node18" class="node">
<title>Node22</title>
<g id="a_node18"><a xlink:href="classgko_1_1EnablePolymorphicAssignment.html" target="_top" xlink:title=" ">
<polygon fill="#ffffff" stroke="#000000" points="1279.5,-370 1279.5,-400 1471.5,-400 1471.5,-370 1279.5,-370"/>
<text text-anchor="start" x="1287.5" y="-388" font-family="Helvetica,sans-Serif" font-size="10.00" fill="#000000">gko::EnablePolymorphicAssignment</text>
<text text-anchor="middle" x="1375.5" y="-377" font-family="Helvetica,sans-Serif" font-size="10.00" fill="#000000">&lt; ConcreteLinOp &gt;</text>
</a>
</g>
</g>
<!-- Node18&#45;&gt;Node22 -->
<g id="edge27" class="edge">
<title>Node18&#45;&gt;Node22</title>
<path fill="none" stroke="#ffa500" stroke-dasharray="5,2" d="M1090.1289,-389.7606C1094.8145,-389.4778 1099.4544,-389.2218 1104,-389 1162.1493,-386.1621 1227.3801,-385.1314 1279.3266,-384.8247"/>
<polygon fill="#ffa500" stroke="#ffa500" points="1089.5734,-386.2888 1079.817,-390.4195 1090.0198,-393.2746 1089.5734,-386.2888"/>
<text text-anchor="middle" x="1180.5" y="-392" font-family="Helvetica,sans-Serif" font-size="10.00" fill="#000000"> &lt; ConcreteLinOp &gt;</text>
</g>
<!-- Node19 -->
<g id="node15" class="node">
<title>Node19</title>
<g id="a_node15"><a xlink:href="classgko_1_1EnableLinOp.html" target="_top" xlink:title="The EnableLinOp mixin can be used to provide sensible default implementations of the majority of the ...">
<polygon fill="#ffffff" stroke="#000000" points="1644.5,-276 1644.5,-306 1800.5,-306 1800.5,-276 1644.5,-276"/>
<text text-anchor="start" x="1652.5" y="-294" font-family="Helvetica,sans-Serif" font-size="10.00" fill="#000000">gko::EnableLinOp&lt; Concrete</text>
<text text-anchor="middle" x="1722.5" y="-283" font-family="Helvetica,sans-Serif" font-size="10.00" fill="#000000">LinOp, PolymorphicBase &gt;</text>
</a>
</g>
</g>
<!-- Node19&#45;&gt;Node2 -->
<g id="edge18" class="edge">
<title>Node19&#45;&gt;Node2</title>
<path fill="none" stroke="#ffa500" stroke-dasharray="5,2" d="M1810.9898,-294.2254C1866.9302,-296.4705 1940.7336,-299.8105 2006,-304 2020.4012,-304.9244 2035.8584,-306.0932 2050.4754,-307.2797"/>
<polygon fill="#ffa500" stroke="#ffa500" points="1810.8895,-290.7188 1800.7585,-293.819 1810.6116,-297.7133 1810.8895,-290.7188"/>
<text text-anchor="middle" x="1921" y="-307" font-family="Helvetica,sans-Serif" font-size="10.00" fill="#000000"> &lt; Fcg&lt; ValueType &gt; &gt;</text>
</g>
<!-- Node20&#45;&gt;Node19 -->
<g id="edge19" class="edge">
<title>Node20&#45;&gt;Node19</title>
<path fill="none" stroke="#191970" d="M1486.4949,-281.4782C1537.9002,-283.5522 1597.7556,-285.9671 1644.3244,-287.8459"/>
<polygon fill="#191970" stroke="#191970" points="1486.4659,-277.9743 1476.3329,-281.0682 1486.1836,-284.9686 1486.4659,-277.9743"/>
</g>
<!-- Node21&#45;&gt;Node20 -->
<g id="edge20" class="edge">
<title>Node21&#45;&gt;Node20</title>
<path fill="none" stroke="#191970" d="M738.3667,-271.8756C882.5124,-273.035 1134.752,-275.0637 1274.7177,-276.1894"/>
<polygon fill="#191970" stroke="#191970" points="738.2059,-268.3743 728.178,-271.7937 738.1495,-275.3741 738.2059,-268.3743"/>
</g>
<!-- Node22&#45;&gt;Node19 -->
<g id="edge24" class="edge">
<title>Node22&#45;&gt;Node19</title>
<path fill="none" stroke="#191970" d="M1439.7619,-367.1462C1490.5454,-353.0912 1563.2459,-333.0897 1627,-316 1639.1673,-312.7385 1652.2201,-309.289 1664.647,-306.0283"/>
<polygon fill="#191970" stroke="#191970" points="1438.6098,-363.8335 1429.9066,-369.8754 1440.478,-370.5796 1438.6098,-363.8335"/>
</g>
<!-- Node23&#45;&gt;Node22 -->
<g id="edge25" class="edge">
<title>Node23&#45;&gt;Node22</title>
<path fill="none" stroke="#191970" d="M1049.0239,-355.8504C1111.9342,-361.4673 1207.7021,-370.018 1279.2698,-376.408"/>
<polygon fill="#191970" stroke="#191970" points="1049.1043,-352.3437 1038.8326,-354.9404 1048.4817,-359.316 1049.1043,-352.3437"/>
</g>
<!-- Node24 -->
<g id="node20" class="node">
<title>Node24</title>
<g id="a_node20"><a xlink:href="classgko_1_1solver_1_1EnablePreconditionedIterativeSolver.html" target="_top" xlink:title=" ">
<polygon fill="#ffffff" stroke="#000000" points="2024,-119.5 2024,-160.5 2206,-160.5 2206,-119.5 2024,-119.5"/>
<text text-anchor="start" x="2032" y="-148.5" font-family="Helvetica,sans-Serif" font-size="10.00" fill="#000000">gko::solver::EnablePreconditioned</text>
<text text-anchor="start" x="2032" y="-137.5" font-family="Helvetica,sans-Serif" font-size="10.00" fill="#000000">IterativeSolver&lt; ValueType,</text>
<text text-anchor="middle" x="2115" y="-126.5" font-family="Helvetica,sans-Serif" font-size="10.00" fill="#000000"> Fcg&lt; ValueType &gt; &gt;</text>
</a>
</g>
</g>
<!-- Node24&#45;&gt;Node1 -->
<g id="edge28" class="edge">
<title>Node24&#45;&gt;Node1</title>
<path fill="none" stroke="#191970" d="M2216.1747,-140C2225.1214,-140 2234.1074,-140 2242.8736,-140"/>
<polygon fill="#191970" stroke="#191970" points="2216.1041,-136.5001 2206.1041,-140 2216.104,-143.5001 2216.1041,-136.5001"/>
</g>
<!-- Node25 -->
<g id="node21" class="node">
<title>Node25</title>
<g id="a_node21"><a xlink:href="classgko_1_1solver_1_1EnableSolverBase.html" target="_top" xlink:title=" ">
<polygon fill="#ffffff" stroke="#000000" points="1299.5,-76 1299.5,-106 1451.5,-106 1451.5,-76 1299.5,-76"/>
<text text-anchor="start" x="1307.5" y="-94" font-family="Helvetica,sans-Serif" font-size="10.00" fill="#000000">gko::solver::EnableSolver</text>
<text text-anchor="middle" x="1375.5" y="-83" font-family="Helvetica,sans-Serif" font-size="10.00" fill="#000000">Base&lt; Fcg&lt; ValueType &gt; &gt;</text>
</a>
</g>
</g>
<!-- Node25&#45;&gt;Node24 -->
<g id="edge29" class="edge">
<title>Node25&#45;&gt;Node24</title>
<path fill="none" stroke="#191970" d="M1461.5985,-93.225C1550.8302,-95.8761 1694.3021,-101.1044 1818,-110 1887.1372,-114.9719 1965.1022,-122.9375 2023.7985,-129.4115"/>
<polygon fill="#191970" stroke="#191970" points="1461.6258,-89.7244 1451.5276,-92.9299 1461.4207,-96.7214 1461.6258,-89.7244"/>
</g>
<!-- Node26 -->
<g id="node22" class="node">
<title>Node26</title>
<g id="a_node22"><a xlink:href="classgko_1_1solver_1_1SolverBase.html" target="_top" xlink:title=" ">
<polygon fill="#ffffff" stroke="#000000" points="918,-58 918,-88 1049,-88 1049,-58 918,-58"/>
<text text-anchor="start" x="926" y="-76" font-family="Helvetica,sans-Serif" font-size="10.00" fill="#000000">gko::solver::SolverBase</text>
<text text-anchor="middle" x="983.5" y="-65" font-family="Helvetica,sans-Serif" font-size="10.00" fill="#000000">&lt; LinOp &gt;</text>
</a>
</g>
</g>
<!-- Node26&#45;&gt;Node25 -->
<g id="edge30" class="edge">
<title>Node26&#45;&gt;Node25</title>
<path fill="none" stroke="#191970" d="M1059.1263,-68.7661C1114.115,-66.5834 1190.2931,-65.4103 1257,-71 1270.7221,-72.1498 1285.2451,-74.0362 1299.2439,-76.2027"/>
<polygon fill="#191970" stroke="#191970" points="1058.9577,-65.27 1049.1124,-69.184 1059.2496,-72.2639 1058.9577,-65.27"/>
</g>
<!-- Node37 -->
<g id="node33" class="node">
<title>Node37</title>
<g id="a_node33"><a xlink:href="classgko_1_1solver_1_1EnableSolverBase.html" target="_top" xlink:title=" ">
<polygon fill="#ffffff" stroke="#000000" points="1305.5,-125 1305.5,-155 1445.5,-155 1445.5,-125 1305.5,-125"/>
<text text-anchor="start" x="1313.5" y="-143" font-family="Helvetica,sans-Serif" font-size="10.00" fill="#000000">gko::solver::EnableSolver</text>
<text text-anchor="middle" x="1375.5" y="-132" font-family="Helvetica,sans-Serif" font-size="10.00" fill="#000000">Base&lt; DerivedType &gt;</text>
</a>
</g>
</g>
<!-- Node26&#45;&gt;Node37 -->
<g id="edge46" class="edge">
<title>Node26&#45;&gt;Node37</title>
<path fill="none" stroke="#191970" d="M1059.4401,-74.2004C1127.9885,-76.3159 1223.1206,-82.1215 1257,-98 1267.2444,-102.8013 1265.1255,-110.4778 1275,-116 1284.3939,-121.2534 1294.9051,-125.3627 1305.4938,-128.5755"/>
<polygon fill="#191970" stroke="#191970" points="1059.202,-70.6922 1049.1054,-73.9029 1059.0006,-77.6893 1059.202,-70.6922"/>
</g>
<!-- Node27 -->
<g id="node23" class="node">
<title>Node27</title>
<g id="a_node23"><a xlink:title="A LinOp implementing this interface stores a system matrix.">
<polygon fill="#ffffff" stroke="#bfbfbf" points="184.5,-71 184.5,-101 289.5,-101 289.5,-71 184.5,-71"/>
<text text-anchor="start" x="192.5" y="-89" font-family="Helvetica,sans-Serif" font-size="10.00" fill="#000000">gko::solver::detail</text>
<text text-anchor="middle" x="237" y="-78" font-family="Helvetica,sans-Serif" font-size="10.00" fill="#000000">::SolverBaseLinOp</text>
</a>
</g>
</g>
<!-- Node27&#45;&gt;Node26 -->
<g id="edge31" class="edge">
<title>Node27&#45;&gt;Node26</title>
<path fill="none" stroke="#191970" d="M299.9166,-84.9043C439.7847,-82.4686 775.3818,-76.6243 917.8032,-74.1441"/>
<polygon fill="#191970" stroke="#191970" points="299.7274,-81.407 289.7899,-85.0807 299.8493,-88.4059 299.7274,-81.407"/>
</g>
<!-- Node28 -->
<g id="node24" class="node">
<title>Node28</title>
<g id="a_node24"><a xlink:href="classgko_1_1solver_1_1SolverBase.html" target="_top" xlink:title=" ">
<polygon fill="#ffffff" stroke="#000000" points="564,-97 564,-127 695,-127 695,-97 564,-97"/>
<text text-anchor="start" x="572" y="-115" font-family="Helvetica,sans-Serif" font-size="10.00" fill="#000000">gko::solver::SolverBase</text>
<text text-anchor="middle" x="629.5" y="-104" font-family="Helvetica,sans-Serif" font-size="10.00" fill="#000000">&lt; MatrixType &gt;</text>
</a>
</g>
</g>
<!-- Node27&#45;&gt;Node28 -->
<g id="edge33" class="edge">
<title>Node27&#45;&gt;Node28</title>
<path fill="none" stroke="#191970" d="M299.8546,-90.1636C372.1828,-94.9548 490.4079,-102.7863 563.8816,-107.6533"/>
<polygon fill="#191970" stroke="#191970" points="299.7365,-86.6482 289.527,-89.4795 299.2738,-93.6329 299.7365,-86.6482"/>
</g>
<!-- Node28&#45;&gt;Node26 -->
<g id="edge32" class="edge">
<title>Node28&#45;&gt;Node26</title>
<path fill="none" stroke="#ffa500" stroke-dasharray="5,2" d="M705.5569,-103.6209C768.7317,-96.6609 857.6781,-86.8617 917.7975,-80.2384"/>
<polygon fill="#ffa500" stroke="#ffa500" points="704.8116,-100.1817 695.2551,-104.7558 705.5782,-107.1396 704.8116,-100.1817"/>
<text text-anchor="middle" x="805.5" y="-101" font-family="Helvetica,sans-Serif" font-size="10.00" fill="#000000"> &lt; LinOp &gt;</text>
</g>
<!-- Node29 -->
<g id="node25" class="node">
<title>Node29</title>
<g id="a_node25"><a xlink:href="classgko_1_1solver_1_1EnableSolverBase.html" target="_top" xlink:title="A LinOp deriving from this CRTP class stores a system matrix.">
<polygon fill="#ffffff" stroke="#000000" points="892,-112 892,-142 1075,-142 1075,-112 892,-112"/>
<text text-anchor="start" x="900" y="-130" font-family="Helvetica,sans-Serif" font-size="10.00" fill="#000000">gko::solver::EnableSolver</text>
<text text-anchor="middle" x="983.5" y="-119" font-family="Helvetica,sans-Serif" font-size="10.00" fill="#000000">Base&lt; DerivedType, MatrixType &gt;</text>
</a>
</g>
</g>
<!-- Node28&#45;&gt;Node29 -->
<g id="edge35" class="edge">
<title>Node28&#45;&gt;Node29</title>
<path fill="none" stroke="#191970" d="M705.5556,-115.2227C760.1184,-117.5347 833.9058,-120.6613 891.7417,-123.1119"/>
<polygon fill="#191970" stroke="#191970" points="705.3943,-111.7128 695.2551,-114.7862 705.0979,-118.7065 705.3943,-111.7128"/>
</g>
<!-- Node29&#45;&gt;Node25 -->
<g id="edge34" class="edge">
<title>Node29&#45;&gt;Node25</title>
<path fill="none" stroke="#ffa500" stroke-dasharray="5,2" d="M1085.5474,-117.6283C1152.4149,-111.4874 1238.3925,-103.5915 1299.3137,-97.9967"/>
<polygon fill="#ffa500" stroke="#ffa500" points="1085.0446,-114.1597 1075.4066,-118.5596 1085.6848,-121.1303 1085.0446,-114.1597"/>
<text text-anchor="middle" x="1180.5" y="-118" font-family="Helvetica,sans-Serif" font-size="10.00" fill="#000000"> &lt; Fcg&lt; ValueType &gt; &gt;</text>
</g>
<!-- Node29&#45;&gt;Node37 -->
<g id="edge47" class="edge">
<title>Node29&#45;&gt;Node37</title>
<path fill="none" stroke="#ffa500" stroke-dasharray="5,2" d="M1085.4475,-130.3809C1154.5474,-132.6725 1244.0898,-135.642 1305.2937,-137.6717"/>
<polygon fill="#ffa500" stroke="#ffa500" points="1085.5171,-126.8814 1075.4066,-130.0479 1085.285,-133.8775 1085.5171,-126.8814"/>
<text text-anchor="middle" x="1180.5" y="-138" font-family="Helvetica,sans-Serif" font-size="10.00" fill="#000000"> &lt; DerivedType &gt;</text>
</g>
<!-- Node30 -->
<g id="node26" class="node">
<title>Node30</title>
<g id="a_node26"><a xlink:href="classgko_1_1solver_1_1EnableIterativeBase.html" target="_top" xlink:title=" ">
<polygon fill="#ffffff" stroke="#000000" points="1646.5,-25 1646.5,-55 1798.5,-55 1798.5,-25 1646.5,-25"/>
<text text-anchor="start" x="1654.5" y="-43" font-family="Helvetica,sans-Serif" font-size="10.00" fill="#000000">gko::solver::EnableIterative</text>
<text text-anchor="middle" x="1722.5" y="-32" font-family="Helvetica,sans-Serif" font-size="10.00" fill="#000000">Base&lt; Fcg&lt; ValueType &gt; &gt;</text>
</a>
</g>
</g>
<!-- Node30&#45;&gt;Node24 -->
<g id="edge36" class="edge">
<title>Node30&#45;&gt;Node24</title>
<path fill="none" stroke="#191970" d="M1808.8782,-31.7197C1869.0968,-30.3286 1948.6126,-37.6875 2006,-77 2019.7828,-86.4417 2011.1679,-99.302 2024,-110 2028.2164,-113.5152 2032.858,-116.6227 2037.7449,-119.3691"/>
<polygon fill="#191970" stroke="#191970" points="1808.5129,-28.2294 1798.6288,-32.0445 1808.7347,-35.2259 1808.5129,-28.2294"/>
</g>
<!-- Node31 -->
<g id="node27" class="node">
<title>Node31</title>
<g id="a_node27"><a xlink:href="classgko_1_1solver_1_1IterativeBase.html" target="_top" xlink:title="A LinOp implementing this interface stores a stopping criterion factory.">
<polygon fill="#ffffff" stroke="#000000" points="912.5,-.5 912.5,-19.5 1054.5,-19.5 1054.5,-.5 912.5,-.5"/>
<text text-anchor="middle" x="983.5" y="-7.5" font-family="Helvetica,sans-Serif" font-size="10.00" fill="#000000">gko::solver::IterativeBase</text>
</a>
</g>
</g>
<!-- Node31&#45;&gt;Node30 -->
<g id="edge37" class="edge">
<title>Node31&#45;&gt;Node30</title>
<path fill="none" stroke="#191970" d="M1064.6123,-9.1966C1162.2816,-8.6813 1331.2641,-9.2311 1476,-17 1533.1899,-20.0697 1597.6281,-26.1752 1646.2746,-31.3244"/>
<polygon fill="#191970" stroke="#191970" points="1064.4947,-5.6971 1054.5151,-9.2551 1064.5353,-12.697 1064.4947,-5.6971"/>
</g>
<!-- Node32 -->
<g id="node28" class="node">
<title>Node32</title>
<g id="a_node28"><a xlink:href="classgko_1_1solver_1_1EnableIterativeBase.html" target="_top" xlink:title="A LinOp deriving from this CRTP class stores a stopping criterion factory and allows applying with a ...">
<polygon fill="#ffffff" stroke="#000000" points="1300,-27 1300,-57 1451,-57 1451,-27 1300,-27"/>
<text text-anchor="start" x="1308" y="-45" font-family="Helvetica,sans-Serif" font-size="10.00" fill="#000000">gko::solver::EnableIterative</text>
<text text-anchor="middle" x="1375.5" y="-34" font-family="Helvetica,sans-Serif" font-size="10.00" fill="#000000">Base&lt; DerivedType &gt;</text>
</a>
</g>
</g>
<!-- Node31&#45;&gt;Node32 -->
<g id="edge39" class="edge">
<title>Node31&#45;&gt;Node32</title>
<path fill="none" stroke="#191970" d="M1064.9211,-16.6466C1134.0397,-22.289 1232.4556,-30.3229 1299.8695,-35.8261"/>
<polygon fill="#191970" stroke="#191970" points="1065.1947,-13.1574 1054.943,-15.8321 1064.6251,-20.1342 1065.1947,-13.1574"/>
</g>
<!-- Node32&#45;&gt;Node30 -->
<g id="edge38" class="edge">
<title>Node32&#45;&gt;Node30</title>
<path fill="none" stroke="#ffa500" stroke-dasharray="5,2" d="M1461.1438,-41.236C1472.1991,-41.1495 1483.3678,-41.0681 1494,-41 1544.7772,-40.6746 1601.9022,-40.4246 1646.3329,-40.256"/>
<polygon fill="#ffa500" stroke="#ffa500" points="1461.0132,-37.7368 1451.0415,-41.3166 1461.0692,-44.7366 1461.0132,-37.7368"/>
<text text-anchor="middle" x="1551.5" y="-44" font-family="Helvetica,sans-Serif" font-size="10.00" fill="#000000"> &lt; Fcg&lt; ValueType &gt; &gt;</text>
</g>
<!-- Node36 -->
<g id="node32" class="node">
<title>Node36</title>
<g id="a_node32"><a xlink:href="classgko_1_1solver_1_1EnablePreconditionedIterativeSolver.html" target="_top" xlink:title="A LinOp implementing this interface stores a system matrix and stopping criterion factory.">
<polygon fill="#ffffff" stroke="#000000" points="1631.5,-119.5 1631.5,-160.5 1813.5,-160.5 1813.5,-119.5 1631.5,-119.5"/>
<text text-anchor="start" x="1639.5" y="-148.5" font-family="Helvetica,sans-Serif" font-size="10.00" fill="#000000">gko::solver::EnablePreconditioned</text>
<text text-anchor="start" x="1639.5" y="-137.5" font-family="Helvetica,sans-Serif" font-size="10.00" fill="#000000">IterativeSolver&lt; ValueType,</text>
<text text-anchor="middle" x="1722.5" y="-126.5" font-family="Helvetica,sans-Serif" font-size="10.00" fill="#000000"> DerivedType &gt;</text>
</a>
</g>
</g>
<!-- Node32&#45;&gt;Node36 -->
<g id="edge48" class="edge">
<title>Node32&#45;&gt;Node36</title>
<path fill="none" stroke="#191970" d="M1450.7602,-59.4762C1459.2911,-61.6044 1467.8453,-63.8042 1476,-66 1538.0212,-82.7003 1608.1132,-103.9782 1657.6564,-119.4271"/>
<polygon fill="#191970" stroke="#191970" points="1451.3287,-56.0117 1440.7815,-57.0155 1449.6526,-62.8081 1451.3287,-56.0117"/>
</g>
<!-- Node33 -->
<g id="node29" class="node">
<title>Node33</title>
<g id="a_node29"><a xlink:href="classgko_1_1solver_1_1EnablePreconditionable.html" target="_top" xlink:title=" ">
<polygon fill="#ffffff" stroke="#000000" points="1627,-180 1627,-210 1818,-210 1818,-180 1627,-180"/>
<text text-anchor="start" x="1635" y="-198" font-family="Helvetica,sans-Serif" font-size="10.00" fill="#000000">gko::solver::EnablePreconditionable</text>
<text text-anchor="middle" x="1722.5" y="-187" font-family="Helvetica,sans-Serif" font-size="10.00" fill="#000000">&lt; Fcg&lt; ValueType &gt; &gt;</text>
</a>
</g>
</g>
<!-- Node33&#45;&gt;Node24 -->
<g id="edge40" class="edge">
<title>Node33&#45;&gt;Node24</title>
<path fill="none" stroke="#191970" d="M1828.0735,-180.2063C1889.1745,-171.6443 1965.3068,-160.9761 2023.7923,-152.7807"/>
<polygon fill="#191970" stroke="#191970" points="1827.4319,-176.7619 1818.0144,-181.6158 1828.4034,-183.6942 1827.4319,-176.7619"/>
</g>
<!-- Node34 -->
<g id="node30" class="node">
<title>Node34</title>
<g id="a_node30"><a xlink:href="classgko_1_1Preconditionable.html" target="_top" xlink:title="A LinOp implementing this interface can be preconditioned.">
<polygon fill="#ffffff" stroke="#000000" points="922.5,-191.5 922.5,-210.5 1044.5,-210.5 1044.5,-191.5 922.5,-191.5"/>
<text text-anchor="middle" x="983.5" y="-198.5" font-family="Helvetica,sans-Serif" font-size="10.00" fill="#000000">gko::Preconditionable</text>
</a>
</g>
</g>
<!-- Node34&#45;&gt;Node33 -->
<g id="edge41" class="edge">
<title>Node34&#45;&gt;Node33</title>
<path fill="none" stroke="#191970" d="M1054.7214,-200.4217C1188.2621,-199.3375 1476.3267,-196.9987 1626.7072,-195.7777"/>
<polygon fill="#191970" stroke="#191970" points="1054.5754,-196.9227 1044.6042,-200.5039 1054.6323,-203.9225 1054.5754,-196.9227"/>
</g>
<!-- Node35 -->
<g id="node31" class="node">
<title>Node35</title>
<g id="a_node31"><a xlink:href="classgko_1_1solver_1_1EnablePreconditionable.html" target="_top" xlink:title="Mixin providing default operation for Preconditionable with correct value semantics.">
<polygon fill="#ffffff" stroke="#000000" points="1280,-213 1280,-243 1471,-243 1471,-213 1280,-213"/>
<text text-anchor="start" x="1288" y="-231" font-family="Helvetica,sans-Serif" font-size="10.00" fill="#000000">gko::solver::EnablePreconditionable</text>
<text text-anchor="middle" x="1375.5" y="-220" font-family="Helvetica,sans-Serif" font-size="10.00" fill="#000000">&lt; DerivedType &gt;</text>
</a>
</g>
</g>
<!-- Node34&#45;&gt;Node35 -->
<g id="edge43" class="edge">
<title>Node34&#45;&gt;Node35</title>
<path fill="none" stroke="#191970" d="M1055.0055,-205.9251C1118.1011,-210.271 1210.5661,-216.6398 1279.982,-221.421"/>
<polygon fill="#191970" stroke="#191970" points="1054.9669,-202.4143 1044.75,-205.2188 1054.4858,-209.3977 1054.9669,-202.4143"/>
</g>
<!-- Node35&#45;&gt;Node33 -->
<g id="edge42" class="edge">
<title>Node35&#45;&gt;Node33</title>
<path fill="none" stroke="#ffa500" stroke-dasharray="5,2" d="M1481.3105,-228.4545C1521.4322,-227.5584 1567.4493,-225.2432 1609,-220 1627.0166,-217.7265 1646.3935,-213.9617 1663.9473,-210.0351"/>
<polygon fill="#ffa500" stroke="#ffa500" points="1481.1726,-224.9564 1471.2434,-228.6527 1481.3104,-231.9551 1481.1726,-224.9564"/>
<text text-anchor="middle" x="1551.5" y="-231" font-family="Helvetica,sans-Serif" font-size="10.00" fill="#000000"> &lt; Fcg&lt; ValueType &gt; &gt;</text>
</g>
<!-- Node35&#45;&gt;Node36 -->
<g id="edge49" class="edge">
<title>Node35&#45;&gt;Node36</title>
<path fill="none" stroke="#191970" d="M1444.7018,-210.4503C1501.383,-196.0758 1581.68,-175.7123 1641.3784,-160.5726"/>
<polygon fill="#191970" stroke="#191970" points="1443.5899,-207.1214 1434.7572,-212.9722 1445.3107,-213.9066 1443.5899,-207.1214"/>
</g>
<!-- Node36&#45;&gt;Node24 -->
<g id="edge44" class="edge">
<title>Node36&#45;&gt;Node24</title>
<path fill="none" stroke="#ffa500" stroke-dasharray="5,2" d="M1823.696,-140C1885.502,-140 1963.8915,-140 2023.7807,-140"/>
<polygon fill="#ffa500" stroke="#ffa500" points="1823.534,-136.5001 1813.5339,-140 1823.5339,-143.5001 1823.534,-136.5001"/>
<text text-anchor="middle" x="1921" y="-143" font-family="Helvetica,sans-Serif" font-size="10.00" fill="#000000"> &lt; ValueType, Fcg&lt; ValueType &gt; &gt;</text>
</g>
<!-- Node37&#45;&gt;Node36 -->
<g id="edge45" class="edge">
<title>Node37&#45;&gt;Node36</title>
<path fill="none" stroke="#191970" d="M1455.9784,-140C1508.3836,-140 1576.8644,-140 1631.2873,-140"/>
<polygon fill="#191970" stroke="#191970" points="1455.7207,-136.5001 1445.7206,-140 1455.7206,-143.5001 1455.7207,-136.5001"/>
</g>
<!-- Node38 -->
<g id="node34" class="node">
<title>Node38</title>
<g id="a_node34"><a xlink:href="classgko_1_1Transposable.html" target="_top" xlink:title="Linear operators which support transposition should implement the Transposable interface.">
<polygon fill="#ffffff" stroke="#000000" points="2063,-81.5 2063,-100.5 2167,-100.5 2167,-81.5 2063,-81.5"/>
<text text-anchor="middle" x="2115" y="-88.5" font-family="Helvetica,sans-Serif" font-size="10.00" fill="#000000">gko::Transposable</text>
</a>
</g>
</g>
<!-- Node38&#45;&gt;Node1 -->
<g id="edge50" class="edge">
<title>Node38&#45;&gt;Node1</title>
<path fill="none" stroke="#191970" d="M2172.4033,-102.6201C2183.5648,-104.9826 2195.1616,-107.5091 2206,-110 2234.039,-116.444 2265.6014,-124.3978 2289.2451,-130.4962"/>
<polygon fill="#191970" stroke="#191970" points="2172.8151,-99.1303 2162.3095,-100.5023 2171.3777,-105.9812 2172.8151,-99.1303"/>
</g>
</g>
</svg>
        <g id="navigator" transform="translate(0 0)" fill="#404254">
                <rect fill="#f2f5e9" fill-opacity="0.5" stroke="#606060" stroke-width=".5" x="0" y="0" width="60" height="60"/>
                <use id="zoomplus" xlink:href="#zoomPlus" x="17" y="9" onmousedown="handleZoom(evt,'in')"/>
                <use id="zoomminus" xlink:href="#zoomMin" x="42" y="9" onmousedown="handleZoom(evt,'out')"/>
                <use id="reset" xlink:href="#resetDef" x="30" y="36" onmousedown="handleReset()"/>
                <g id="arrowUp" xlink:href="#dirArrow" transform="translate(30 24)" onmousedown="handlePan(0,-1)">
                  <use xlink:href="#rim" fill="#404040">
                        <set attributeName="fill" to="#808080" begin="arrowUp.mouseover" end="arrowUp.mouseout"/>
                  </use>
                  <path fill="none" stroke="white" stroke-width="1.5" d="M0,-3.0v7 M-2.5,-0.5L0,-3.0L2.5,-0.5"/>
                </g>
                <g id="arrowRight" xlink:href="#dirArrow" transform="rotate(90) translate(36 -43)" onmousedown="handlePan(1,0)">
                  <use xlink:href="#rim" fill="#404040">
                        <set attributeName="fill" to="#808080" begin="arrowRight.mouseover" end="arrowRight.mouseout"/>
                  </use>
                  <path fill="none" stroke="white" stroke-width="1.5" d="M0,-3.0v7 M-2.5,-0.5L0,-3.0L2.5,-0.5"/>
                </g>
                <g id="arrowDown" xlink:href="#dirArrow" transform="rotate(180) translate(-30 -48)" onmousedown="handlePan(0,1)">
                  <use xlink:href="#rim" fill="#404040">
                        <set attributeName="fill" to="#808080" begin="arrowDown.mouseover" end="arrowDown.mouseout"/>
                  </use>
                  <path fill="none" stroke="white" stroke-width="1.5" d="M0,-3.0v7 M-2.5,-0.5L0,-3.0L2.5,-0.5"/>
                </g>
                <g id="arrowLeft" xlink:href="#dirArrow" transform="rotate(270) translate(-36 17)" onmousedown="handlePan(-1,0)">
                  <use xlink:href="#rim" fill="#404040">
                        <set attributeName="fill" to="#808080" begin="arrowLeft.mouseover" end="arrowLeft.mouseout"/>
                  </use>
                  <path fill="none" stroke="white" stroke-width="1.5" d="M0,-3.0v7 M-2.5,-0.5L0,-3.0L2.5,-0.5"/>
                </g>
        </g>
        <svg viewBox="0 0 15 15" width="100%" height="30px" preserveAspectRatio="xMaxYMin meet">
         <g id="arrow_out" transform="scale(0.3 0.3)">
          <a xlink:href="classgko_1_1solver_1_1Fcg__inherit__graph_org.svg" target="_base">
           <rect id="button" ry="5" rx="5" y="6" x="6" height="38" width="38"
                fill="#f2f5e9" fill-opacity="0.5" stroke="#606060" stroke-width="1.0"/>
           <path id="arrow"
             d="M 11.500037,31.436501 C 11.940474,20.09759 22.043105,11.32322 32.158766,21.979434 L 37.068811,17.246167 C 37.068811,17.246167 37.088388,32 37.088388,32 L 22.160133,31.978069 C 22.160133,31.978069 26.997745,27.140456 26.997745,27.140456 C 18.528582,18.264221 13.291696,25.230495 11.500037,31.436501 z"
             style="fill:#404040;"/>
          </a>
         </g>
        </svg>
</svg>
