<?xml version="1.0" encoding="UTF-8" standalone="no"?>
<!DOCTYPE svg PUBLIC "-//W3C//DTD SVG 1.1//EN"
 "http://www.w3.org/Graphics/SVG/1.1/DTD/svg11.dtd">
<!-- Generated by graphviz version 2.40.1 (20161225.0304)
 -->
<!-- Title: gko::batch::EnableBatchLinOp&lt; ConcreteBatchLinOp, PolymorphicBase &gt; Pages: 1 -->
<svg width="2845pt" height="247pt"
 viewBox="0.00 0.00 2845.00 247.00" xmlns="http://www.w3.org/2000/svg" xmlns:xlink="http://www.w3.org/1999/xlink">
<g id="graph0" class="graph" transform="scale(1 1) rotate(0) translate(4 243)">
<title>gko::batch::EnableBatchLinOp&lt; ConcreteBatchLinOp, PolymorphicBase &gt;</title>
<polygon fill="#ffffff" stroke="transparent" points="-4,4 -4,-243 2841,-243 2841,4 -4,4"/>
<!-- Node1 -->
<g id="node1" class="node">
<title>Node1</title>
<g id="a_node1"><a xlink:title="The EnableBatchLinOp mixin can be used to provide sensible default implementations of the majority of...">
<polygon fill="#bfbfbf" stroke="#000000" points="1488,-94 1488,-135 1637,-135 1637,-94 1488,-94"/>
<text text-anchor="start" x="1496" y="-123" font-family="Helvetica,sans-Serif" font-size="10.00" fill="#000000">gko::batch::EnableBatchLin</text>
<text text-anchor="start" x="1496" y="-112" font-family="Helvetica,sans-Serif" font-size="10.00" fill="#000000">Op&lt; ConcreteBatchLinOp,</text>
<text text-anchor="middle" x="1562.5" y="-101" font-family="Helvetica,sans-Serif" font-size="10.00" fill="#000000"> PolymorphicBase &gt;</text>
</a>
</g>
</g>
<!-- Node12 -->
<g id="node12" class="node">
<title>Node12</title>
<g id="a_node12"><a xlink:href="classgko_1_1batch_1_1EnableBatchLinOp.html" target="_top" xlink:title=" ">
<polygon fill="#ffffff" stroke="#000000" points="1857.5,-207.5 1857.5,-237.5 2012.5,-237.5 2012.5,-207.5 1857.5,-207.5"/>
<text text-anchor="start" x="1865.5" y="-225.5" font-family="Helvetica,sans-Serif" font-size="10.00" fill="#000000">gko::batch::EnableBatchLin</text>
<text text-anchor="middle" x="1935" y="-214.5" font-family="Helvetica,sans-Serif" font-size="10.00" fill="#000000">Op&lt; Dense&lt; ValueType &gt; &gt;</text>
</a>
</g>
</g>
<!-- Node1&#45;&gt;Node12 -->
<g id="edge15" class="edge">
<title>Node1&#45;&gt;Node12</title>
<path fill="none" stroke="#ffa500" stroke-dasharray="5,2" d="M1594.2431,-141.276C1611.2334,-154.2184 1633.124,-168.7971 1655,-177.5 1720.3047,-203.4801 1799.8417,-214.4785 1857.433,-219.1251"/>
<polygon fill="#ffa500" stroke="#ffa500" points="1596.3534,-138.4832 1586.3176,-135.0868 1592.045,-144.0002 1596.3534,-138.4832"/>
<text text-anchor="middle" x="1738" y="-217.5" font-family="Helvetica,sans-Serif" font-size="10.00" fill="#000000"> &lt; Dense&lt; ValueType &gt; &gt;</text>
</g>
<!-- Node14 -->
<g id="node14" class="node">
<title>Node14</title>
<g id="a_node14"><a xlink:href="classgko_1_1batch_1_1EnableBatchLinOp.html" target="_top" xlink:title=" ">
<polygon fill="#ffffff" stroke="#000000" points="1854,-156.5 1854,-186.5 2016,-186.5 2016,-156.5 1854,-156.5"/>
<text text-anchor="start" x="1862" y="-174.5" font-family="Helvetica,sans-Serif" font-size="10.00" fill="#000000">gko::batch::EnableBatchLin</text>
<text text-anchor="middle" x="1935" y="-163.5" font-family="Helvetica,sans-Serif" font-size="10.00" fill="#000000">Op&lt; Identity&lt; ValueType &gt; &gt;</text>
</a>
</g>
</g>
<!-- Node1&#45;&gt;Node14 -->
<g id="edge17" class="edge">
<title>Node1&#45;&gt;Node14</title>
<path fill="none" stroke="#ffa500" stroke-dasharray="5,2" d="M1640.6095,-137.4194C1645.4598,-138.5428 1650.2847,-139.5827 1655,-140.5 1721.3712,-153.4117 1797.7162,-161.4187 1853.9058,-166.0528"/>
<polygon fill="#ffa500" stroke="#ffa500" points="1641.1879,-133.9584 1630.6453,-135.009 1639.542,-140.7622 1641.1879,-133.9584"/>
<text text-anchor="middle" x="1738" y="-165.5" font-family="Helvetica,sans-Serif" font-size="10.00" fill="#000000"> &lt; Identity&lt; ValueType &gt; &gt;</text>
</g>
<!-- Node16 -->
<g id="node16" class="node">
<title>Node16</title>
<g id="a_node16"><a xlink:href="classgko_1_1batch_1_1EnableBatchLinOp.html" target="_top" xlink:title=" ">
<polygon fill="#ffffff" stroke="#000000" points="1844,-94 1844,-135 2026,-135 2026,-94 1844,-94"/>
<text text-anchor="start" x="1852" y="-123" font-family="Helvetica,sans-Serif" font-size="10.00" fill="#000000">gko::batch::EnableBatchLin</text>
<text text-anchor="start" x="1852" y="-112" font-family="Helvetica,sans-Serif" font-size="10.00" fill="#000000">Op&lt; ConcreteSolver, Polymorphic</text>
<text text-anchor="middle" x="1935" y="-101" font-family="Helvetica,sans-Serif" font-size="10.00" fill="#000000">Base &gt;</text>
</a>
</g>
</g>
<!-- Node1&#45;&gt;Node16 -->
<g id="edge19" class="edge">
<title>Node1&#45;&gt;Node16</title>
<path fill="none" stroke="#ffa500" stroke-dasharray="5,2" d="M1647.7633,-114.5C1706.3051,-114.5 1783.927,-114.5 1843.7198,-114.5"/>
<polygon fill="#ffa500" stroke="#ffa500" points="1647.4329,-111.0001 1637.4328,-114.5 1647.4328,-118.0001 1647.4329,-111.0001"/>
<text text-anchor="start" x="1660" y="-128.5" font-family="Helvetica,sans-Serif" font-size="10.00" fill="#000000"> &lt; ConcreteSolver, Polymorphic</text>
<text text-anchor="middle" x="1738" y="-117.5" font-family="Helvetica,sans-Serif" font-size="10.00" fill="#000000">Base &gt;</text>
</g>
<!-- Node20 -->
<g id="node20" class="node">
<title>Node20</title>
<g id="a_node20"><a xlink:href="classgko_1_1batch_1_1EnableBatchLinOp.html" target="_top" xlink:title=" ">
<polygon fill="#ffffff" stroke="#000000" points="2049,-41 2049,-82 2198,-82 2198,-41 2049,-41"/>
<text text-anchor="start" x="2057" y="-70" font-family="Helvetica,sans-Serif" font-size="10.00" fill="#000000">gko::batch::EnableBatchLin</text>
<text text-anchor="start" x="2057" y="-59" font-family="Helvetica,sans-Serif" font-size="10.00" fill="#000000">Op&lt; Bicgstab&lt; ValueType</text>
<text text-anchor="middle" x="2123.5" y="-48" font-family="Helvetica,sans-Serif" font-size="10.00" fill="#000000"> &gt;, BatchLinOp &gt;</text>
</a>
</g>
</g>
<!-- Node1&#45;&gt;Node20 -->
<g id="edge23" class="edge">
<title>Node1&#45;&gt;Node20</title>
<path fill="none" stroke="#ffa500" stroke-dasharray="5,2" d="M1638.8376,-91.6616C1644.278,-90.4604 1649.7043,-89.3861 1655,-88.5 1792.6074,-65.4749 1955.7592,-61.1727 2048.7021,-60.8476"/>
<polygon fill="#ffa500" stroke="#ffa500" points="1637.9963,-88.2638 1629.055,-93.9474 1639.5891,-95.0802 1637.9963,-88.2638"/>
<text text-anchor="start" x="1679" y="-102.5" font-family="Helvetica,sans-Serif" font-size="10.00" fill="#000000"> &lt; Bicgstab&lt; ValueType</text>
<text text-anchor="middle" x="1738" y="-91.5" font-family="Helvetica,sans-Serif" font-size="10.00" fill="#000000"> &gt;, BatchLinOp &gt;</text>
</g>
<!-- Node21 -->
<g id="node21" class="node">
<title>Node21</title>
<g id="a_node21"><a xlink:href="classgko_1_1batch_1_1EnableBatchLinOp.html" target="_top" xlink:title=" ">
<polygon fill="#ffffff" stroke="#000000" points="1839,-2.5 1839,-32.5 2031,-32.5 2031,-2.5 1839,-2.5"/>
<text text-anchor="start" x="1847" y="-20.5" font-family="Helvetica,sans-Serif" font-size="10.00" fill="#000000">gko::batch::EnableBatchLin</text>
<text text-anchor="middle" x="1935" y="-9.5" font-family="Helvetica,sans-Serif" font-size="10.00" fill="#000000">Op&lt; Ell&lt; ValueType, IndexType &gt; &gt;</text>
</a>
</g>
</g>
<!-- Node1&#45;&gt;Node21 -->
<g id="edge25" class="edge">
<title>Node1&#45;&gt;Node21</title>
<path fill="none" stroke="#ffa500" stroke-dasharray="5,2" d="M1584.8338,-86.16C1601.7997,-66.959 1626.9442,-43.0534 1655,-31.5 1712.8317,-7.6848 1783.1537,-4.2504 1838.8559,-6.7368"/>
<polygon fill="#ffa500" stroke="#ffa500" points="1582.15,-83.9131 1578.3008,-93.7839 1587.4655,-88.4679 1582.15,-83.9131"/>
<text text-anchor="middle" x="1738" y="-34.5" font-family="Helvetica,sans-Serif" font-size="10.00" fill="#000000"> &lt; Ell&lt; ValueType, IndexType &gt; &gt;</text>
</g>
<!-- Node2 -->
<g id="node2" class="node">
<title>Node2</title>
<g id="a_node2"><a xlink:href="classgko_1_1EnablePolymorphicObject.html" target="_top" xlink:title=" ">
<polygon fill="#ffffff" stroke="#000000" points="1257,-122 1257,-163 1451,-163 1451,-122 1257,-122"/>
<text text-anchor="start" x="1265" y="-151" font-family="Helvetica,sans-Serif" font-size="10.00" fill="#000000">gko::EnablePolymorphicObject</text>
<text text-anchor="start" x="1265" y="-140" font-family="Helvetica,sans-Serif" font-size="10.00" fill="#000000">&lt; ConcreteBatchLinOp, Polymorphic</text>
<text text-anchor="middle" x="1354" y="-129" font-family="Helvetica,sans-Serif" font-size="10.00" fill="#000000">Base &gt;</text>
</a>
</g>
</g>
<!-- Node2&#45;&gt;Node1 -->
<g id="edge1" class="edge">
<title>Node2&#45;&gt;Node1</title>
<path fill="none" stroke="#191970" d="M1461.3477,-128.084C1470.31,-126.8804 1479.2417,-125.681 1487.8777,-124.5212"/>
<polygon fill="#191970" stroke="#191970" points="1460.6752,-124.6428 1451.2301,-129.4427 1461.607,-131.5805 1460.6752,-124.6428"/>
</g>
<!-- Node3 -->
<g id="node3" class="node">
<title>Node3</title>
<g id="a_node3"><a xlink:href="classgko_1_1EnableAbstractPolymorphicObject.html" target="_top" xlink:title=" ">
<polygon fill="#ffffff" stroke="#000000" points="542,-171 542,-212 717,-212 717,-171 542,-171"/>
<text text-anchor="start" x="550" y="-200" font-family="Helvetica,sans-Serif" font-size="10.00" fill="#000000">gko::EnableAbstractPolymorphic</text>
<text text-anchor="start" x="550" y="-189" font-family="Helvetica,sans-Serif" font-size="10.00" fill="#000000">Object&lt; ConcreteBatchLinOp,</text>
<text text-anchor="middle" x="629.5" y="-178" font-family="Helvetica,sans-Serif" font-size="10.00" fill="#000000"> PolymorphicBase &gt;</text>
</a>
</g>
</g>
<!-- Node3&#45;&gt;Node2 -->
<g id="edge2" class="edge">
<title>Node3&#45;&gt;Node2</title>
<path fill="none" stroke="#191970" d="M727.5322,-192.8899C848.3263,-193.3965 1059.605,-190.3533 1239,-167.5 1248.2219,-166.3252 1257.7984,-164.7783 1267.3123,-163.0286"/>
<polygon fill="#191970" stroke="#191970" points="727.2217,-189.3883 717.2039,-192.8369 727.1858,-196.3882 727.2217,-189.3883"/>
</g>
<!-- Node4 -->
<g id="node4" class="node">
<title>Node4</title>
<g id="a_node4"><a xlink:title=" ">
<polygon fill="#ffffff" stroke="#bfbfbf" points="0,-153 0,-172 101,-172 101,-153 0,-153"/>
<text text-anchor="middle" x="50.5" y="-160" font-family="Helvetica,sans-Serif" font-size="10.00" fill="#000000">PolymorphicBase</text>
</a>
</g>
</g>
<!-- Node4&#45;&gt;Node3 -->
<g id="edge3" class="edge">
<title>Node4&#45;&gt;Node3</title>
<path fill="none" stroke="#191970" d="M82.6542,-175.8188C98.9518,-181.9756 119.2219,-188.7421 138,-192.5 300.6692,-225.0533 345.4341,-216.9372 511,-206.5 521.0376,-205.8672 531.5251,-204.9358 541.9318,-203.8417"/>
<polygon fill="#191970" stroke="#191970" points="83.6578,-172.4539 73.069,-172.0965 81.1237,-178.9791 83.6578,-172.4539"/>
</g>
<!-- Node5 -->
<g id="node5" class="node">
<title>Node5</title>
<g id="a_node5"><a xlink:href="classgko_1_1EnableAbstractPolymorphicObject.html" target="_top" xlink:title="This mixin inherits from (a subclass of) PolymorphicObject and provides a base implementation of a ne...">
<polygon fill="#ffffff" stroke="#000000" points="138,-142 138,-183 336,-183 336,-142 138,-142"/>
<text text-anchor="start" x="146" y="-171" font-family="Helvetica,sans-Serif" font-size="10.00" fill="#000000">gko::EnableAbstractPolymorphic</text>
<text text-anchor="start" x="146" y="-160" font-family="Helvetica,sans-Serif" font-size="10.00" fill="#000000">Object&lt; AbstractObject, Polymorphic</text>
<text text-anchor="middle" x="237" y="-149" font-family="Helvetica,sans-Serif" font-size="10.00" fill="#000000">Base &gt;</text>
</a>
</g>
</g>
<!-- Node4&#45;&gt;Node5 -->
<g id="edge5" class="edge">
<title>Node4&#45;&gt;Node5</title>
<path fill="none" stroke="#191970" d="M111.5248,-162.5C119.9555,-162.5 128.7869,-162.5 137.6923,-162.5"/>
<polygon fill="#191970" stroke="#191970" points="111.462,-159.0001 101.4619,-162.5 111.4619,-166.0001 111.462,-159.0001"/>
</g>
<!-- Node7 -->
<g id="node7" class="node">
<title>Node7</title>
<g id="a_node7"><a xlink:href="classgko_1_1EnableAbstractPolymorphicObject.html" target="_top" xlink:title=" ">
<polygon fill="#ffffff" stroke="#000000" points="529,-111 529,-152 730,-152 730,-111 529,-111"/>
<text text-anchor="start" x="537" y="-140" font-family="Helvetica,sans-Serif" font-size="10.00" fill="#000000">gko::EnableAbstractPolymorphic</text>
<text text-anchor="start" x="537" y="-129" font-family="Helvetica,sans-Serif" font-size="10.00" fill="#000000">Object&lt; ConcreteObject, Polymorphic</text>
<text text-anchor="middle" x="629.5" y="-118" font-family="Helvetica,sans-Serif" font-size="10.00" fill="#000000">Base &gt;</text>
</a>
</g>
</g>
<!-- Node4&#45;&gt;Node7 -->
<g id="edge8" class="edge">
<title>Node4&#45;&gt;Node7</title>
<path fill="none" stroke="#191970" d="M81.5592,-149.1253C98.0027,-142.7485 118.7317,-135.8031 138,-132.5 301.3966,-104.4892 345.2213,-129.8005 511,-130.5 516.8634,-130.5247 522.89,-130.5564 528.9708,-130.593"/>
<polygon fill="#191970" stroke="#191970" points="79.9071,-146.0167 71.9259,-152.9846 82.5103,-152.5146 79.9071,-146.0167"/>
</g>
<!-- Node5&#45;&gt;Node3 -->
<g id="edge4" class="edge">
<title>Node5&#45;&gt;Node3</title>
<path fill="none" stroke="#ffa500" stroke-dasharray="5,2" d="M346.2134,-170.5693C407.9382,-175.1298 484.0683,-180.7547 541.8581,-185.0245"/>
<polygon fill="#ffa500" stroke="#ffa500" points="346.2751,-167.0644 336.0443,-169.8179 345.7592,-174.0453 346.2751,-167.0644"/>
<text text-anchor="start" x="374" y="-195.5" font-family="Helvetica,sans-Serif" font-size="10.00" fill="#000000"> &lt; ConcreteBatchLinOp,</text>
<text text-anchor="middle" x="432.5" y="-184.5" font-family="Helvetica,sans-Serif" font-size="10.00" fill="#000000"> PolymorphicBase &gt;</text>
</g>
<!-- Node5&#45;&gt;Node7 -->
<g id="edge9" class="edge">
<title>Node5&#45;&gt;Node7</title>
<path fill="none" stroke="#ffa500" stroke-dasharray="5,2" d="M346.2792,-146.2937C348.8763,-146.0145 351.4529,-145.7492 354,-145.5 411.7926,-139.8455 476.6426,-136.4067 528.9003,-134.3532"/>
<polygon fill="#ffa500" stroke="#ffa500" points="345.7227,-142.8342 336.1789,-147.4348 346.5087,-149.7899 345.7227,-142.8342"/>
<text text-anchor="start" x="354" y="-159.5" font-family="Helvetica,sans-Serif" font-size="10.00" fill="#000000"> &lt; ConcreteObject, Polymorphic</text>
<text text-anchor="middle" x="432.5" y="-148.5" font-family="Helvetica,sans-Serif" font-size="10.00" fill="#000000">Base &gt;</text>
</g>
<!-- Node6 -->
<g id="node6" class="node">
<title>Node6</title>
<g id="a_node6"><a xlink:href="classgko_1_1EnablePolymorphicObject.html" target="_top" xlink:title="This mixin inherits from (a subclass of) PolymorphicObject and provides a base implementation of a ne...">
<polygon fill="#ffffff" stroke="#000000" points="891,-126.5 891,-156.5 1096,-156.5 1096,-126.5 891,-126.5"/>
<text text-anchor="start" x="899" y="-144.5" font-family="Helvetica,sans-Serif" font-size="10.00" fill="#000000">gko::EnablePolymorphicObject</text>
<text text-anchor="middle" x="993.5" y="-133.5" font-family="Helvetica,sans-Serif" font-size="10.00" fill="#000000">&lt; ConcreteObject, PolymorphicBase &gt;</text>
</a>
</g>
</g>
<!-- Node6&#45;&gt;Node2 -->
<g id="edge6" class="edge">
<title>Node6&#45;&gt;Node2</title>
<path fill="none" stroke="#ffa500" stroke-dasharray="5,2" d="M1106.5026,-141.8135C1154.7728,-141.9474 1210.554,-142.1021 1256.9272,-142.2307"/>
<polygon fill="#ffa500" stroke="#ffa500" points="1106.3321,-138.3131 1096.3224,-141.7852 1106.3126,-145.313 1106.3321,-138.3131"/>
<text text-anchor="start" x="1118" y="-155.5" font-family="Helvetica,sans-Serif" font-size="10.00" fill="#000000"> &lt; ConcreteBatchLinOp,</text>
<text text-anchor="middle" x="1176.5" y="-144.5" font-family="Helvetica,sans-Serif" font-size="10.00" fill="#000000"> PolymorphicBase &gt;</text>
</g>
<!-- Node7&#45;&gt;Node6 -->
<g id="edge7" class="edge">
<title>Node7&#45;&gt;Node6</title>
<path fill="none" stroke="#191970" d="M740.4955,-134.5493C788.3344,-135.8636 843.9354,-137.3911 890.8106,-138.6789"/>
<polygon fill="#191970" stroke="#191970" points="740.5033,-131.0483 730.4109,-134.2723 740.311,-138.0457 740.5033,-131.0483"/>
</g>
<!-- Node8 -->
<g id="node8" class="node">
<title>Node8</title>
<g id="a_node8"><a xlink:href="classgko_1_1EnablePolymorphicAssignment.html" target="_top" xlink:title=" ">
<polygon fill="#ffffff" stroke="#000000" points="1258,-72.5 1258,-102.5 1450,-102.5 1450,-72.5 1258,-72.5"/>
<text text-anchor="start" x="1266" y="-90.5" font-family="Helvetica,sans-Serif" font-size="10.00" fill="#000000">gko::EnablePolymorphicAssignment</text>
<text text-anchor="middle" x="1354" y="-79.5" font-family="Helvetica,sans-Serif" font-size="10.00" fill="#000000">&lt; ConcreteBatchLinOp &gt;</text>
</a>
</g>
</g>
<!-- Node8&#45;&gt;Node1 -->
<g id="edge10" class="edge">
<title>Node8&#45;&gt;Node1</title>
<path fill="none" stroke="#191970" d="M1460.1668,-101.2482C1469.5315,-102.4609 1478.8756,-103.6709 1487.8966,-104.8391"/>
<polygon fill="#191970" stroke="#191970" points="1460.378,-97.7464 1450.0113,-99.9331 1459.479,-104.6885 1460.378,-97.7464"/>
</g>
<!-- Node9 -->
<g id="node9" class="node">
<title>Node9</title>
<g id="a_node9"><a xlink:href="classgko_1_1ConvertibleTo.html" target="_top" xlink:title=" ">
<polygon fill="#ffffff" stroke="#000000" points="924.5,-76.5 924.5,-106.5 1062.5,-106.5 1062.5,-76.5 924.5,-76.5"/>
<text text-anchor="start" x="932.5" y="-94.5" font-family="Helvetica,sans-Serif" font-size="10.00" fill="#000000">gko::ConvertibleTo</text>
<text text-anchor="middle" x="993.5" y="-83.5" font-family="Helvetica,sans-Serif" font-size="10.00" fill="#000000">&lt; ConcreteBatchLinOp &gt;</text>
</a>
</g>
</g>
<!-- Node9&#45;&gt;Node8 -->
<g id="edge11" class="edge">
<title>Node9&#45;&gt;Node8</title>
<path fill="none" stroke="#191970" d="M1072.8893,-90.6191C1127.4182,-90.0141 1200.1081,-89.2075 1257.9096,-88.5662"/>
<polygon fill="#191970" stroke="#191970" points="1072.542,-87.1227 1062.5815,-90.7335 1072.6197,-94.1222 1072.542,-87.1227"/>
</g>
<!-- Node10 -->
<g id="node10" class="node">
<title>Node10</title>
<g id="a_node10"><a xlink:href="classgko_1_1ConvertibleTo.html" target="_top" xlink:title="ConvertibleTo interface is used to mark that the implementer can be converted to the object of Result...">
<polygon fill="#ffffff" stroke="#000000" points="576,-52.5 576,-82.5 683,-82.5 683,-52.5 576,-52.5"/>
<text text-anchor="start" x="584" y="-70.5" font-family="Helvetica,sans-Serif" font-size="10.00" fill="#000000">gko::ConvertibleTo</text>
<text text-anchor="middle" x="629.5" y="-59.5" font-family="Helvetica,sans-Serif" font-size="10.00" fill="#000000">&lt; ResultType &gt;</text>
</a>
</g>
</g>
<!-- Node10&#45;&gt;Node9 -->
<g id="edge12" class="edge">
<title>Node10&#45;&gt;Node9</title>
<path fill="none" stroke="#ffa500" stroke-dasharray="5,2" d="M693.2781,-71.7051C757.9571,-75.9697 857.75,-82.5495 924.3084,-86.9379"/>
<polygon fill="#ffa500" stroke="#ffa500" points="693.4181,-68.2069 683.2095,-71.0413 692.9575,-75.1917 693.4181,-68.2069"/>
<text text-anchor="middle" x="810.5" y="-86.5" font-family="Helvetica,sans-Serif" font-size="10.00" fill="#000000"> &lt; ConcreteBatchLinOp &gt;</text>
</g>
<!-- Node11 -->
<g id="node11" class="node">
<title>Node11</title>
<g id="a_node11"><a xlink:href="classgko_1_1EnablePolymorphicAssignment.html" target="_top" xlink:title="This mixin is used to enable a default PolymorphicObject::copy_from() implementation for objects that...">
<polygon fill="#ffffff" stroke="#000000" points="897.5,-27.5 897.5,-57.5 1089.5,-57.5 1089.5,-27.5 897.5,-27.5"/>
<text text-anchor="start" x="905.5" y="-45.5" font-family="Helvetica,sans-Serif" font-size="10.00" fill="#000000">gko::EnablePolymorphicAssignment</text>
<text text-anchor="middle" x="993.5" y="-34.5" font-family="Helvetica,sans-Serif" font-size="10.00" fill="#000000">&lt; ConcreteType, ResultType &gt;</text>
</a>
</g>
</g>
<!-- Node10&#45;&gt;Node11 -->
<g id="edge14" class="edge">
<title>Node10&#45;&gt;Node11</title>
<path fill="none" stroke="#191970" d="M693.4312,-63.1091C749.8928,-59.2313 833.0261,-53.5216 897.4802,-49.0948"/>
<polygon fill="#191970" stroke="#191970" points="692.9461,-59.6341 683.2095,-63.8112 693.4258,-66.6176 692.9461,-59.6341"/>
</g>
<!-- Node11&#45;&gt;Node8 -->
<g id="edge13" class="edge">
<title>Node11&#45;&gt;Node8</title>
<path fill="none" stroke="#ffa500" stroke-dasharray="5,2" d="M1099.8402,-55.7741C1149.8872,-62.0213 1209.1284,-69.4162 1257.8213,-75.4943"/>
<polygon fill="#ffa500" stroke="#ffa500" points="1099.9904,-52.2658 1089.6338,-54.5001 1099.1233,-59.2118 1099.9904,-52.2658"/>
<text text-anchor="middle" x="1176.5" y="-76.5" font-family="Helvetica,sans-Serif" font-size="10.00" fill="#000000"> &lt; ConcreteBatchLinOp &gt;</text>
</g>
<!-- Node13 -->
<g id="node13" class="node">
<title>Node13</title>
<g id="a_node13"><a xlink:href="classgko_1_1batch_1_1matrix_1_1Dense.html" target="_top" xlink:title="Dense is a batch matrix format which explicitly stores all values of the matrix in each of the batche...">
<polygon fill="#ffffff" stroke="#000000" points="2234.5,-208.5 2234.5,-238.5 2359.5,-238.5 2359.5,-208.5 2234.5,-208.5"/>
<text text-anchor="start" x="2242.5" y="-226.5" font-family="Helvetica,sans-Serif" font-size="10.00" fill="#000000">gko::batch::matrix</text>
<text text-anchor="middle" x="2297" y="-215.5" font-family="Helvetica,sans-Serif" font-size="10.00" fill="#000000">::Dense&lt; ValueType &gt;</text>
</a>
</g>
</g>
<!-- Node12&#45;&gt;Node13 -->
<g id="edge16" class="edge">
<title>Node12&#45;&gt;Node13</title>
<path fill="none" stroke="#191970" d="M2022.9449,-222.7429C2088.2772,-222.9234 2175.8275,-223.1653 2234.2117,-223.3266"/>
<polygon fill="#191970" stroke="#191970" points="2022.6677,-219.2423 2012.6581,-222.7145 2022.6483,-226.2422 2022.6677,-219.2423"/>
</g>
<!-- Node15 -->
<g id="node15" class="node">
<title>Node15</title>
<g id="a_node15"><a xlink:href="classgko_1_1batch_1_1matrix_1_1Identity.html" target="_top" xlink:title="The batch Identity matrix, which represents a batch of Identity matrices.">
<polygon fill="#ffffff" stroke="#000000" points="2231,-159.5 2231,-189.5 2363,-189.5 2363,-159.5 2231,-159.5"/>
<text text-anchor="start" x="2239" y="-177.5" font-family="Helvetica,sans-Serif" font-size="10.00" fill="#000000">gko::batch::matrix</text>
<text text-anchor="middle" x="2297" y="-166.5" font-family="Helvetica,sans-Serif" font-size="10.00" fill="#000000">::Identity&lt; ValueType &gt;</text>
</a>
</g>
</g>
<!-- Node14&#45;&gt;Node15 -->
<g id="edge18" class="edge">
<title>Node14&#45;&gt;Node15</title>
<path fill="none" stroke="#191970" d="M2026.2849,-172.2565C2089.9781,-172.7843 2173.5102,-173.4766 2230.8463,-173.9518"/>
<polygon fill="#191970" stroke="#191970" points="2026.2686,-168.7563 2016.2399,-172.1733 2026.2105,-175.7561 2026.2686,-168.7563"/>
</g>
<!-- Node17 -->
<g id="node17" class="node">
<title>Node17</title>
<g id="a_node17"><a xlink:href="classgko_1_1batch_1_1solver_1_1EnableBatchSolver.html" target="_top" xlink:title="This mixin provides apply and common iterative solver functionality to all the batched solvers.">
<polygon fill="#ffffff" stroke="#000000" points="2216.5,-88.5 2216.5,-140.5 2377.5,-140.5 2377.5,-88.5 2216.5,-88.5"/>
<text text-anchor="start" x="2224.5" y="-128.5" font-family="Helvetica,sans-Serif" font-size="10.00" fill="#000000">gko::batch::solver</text>
<text text-anchor="start" x="2224.5" y="-117.5" font-family="Helvetica,sans-Serif" font-size="10.00" fill="#000000">::EnableBatchSolver</text>
<text text-anchor="start" x="2224.5" y="-106.5" font-family="Helvetica,sans-Serif" font-size="10.00" fill="#000000">&lt; ConcreteSolver, ValueType,</text>
<text text-anchor="middle" x="2297" y="-95.5" font-family="Helvetica,sans-Serif" font-size="10.00" fill="#000000"> PolymorphicBase &gt;</text>
</a>
</g>
</g>
<!-- Node16&#45;&gt;Node17 -->
<g id="edge20" class="edge">
<title>Node16&#45;&gt;Node17</title>
<path fill="none" stroke="#191970" d="M2036.4501,-114.5C2093.3569,-114.5 2163.3603,-114.5 2216.4708,-114.5"/>
<polygon fill="#191970" stroke="#191970" points="2036.3479,-111.0001 2026.3479,-114.5 2036.3479,-118.0001 2036.3479,-111.0001"/>
</g>
<!-- Node18 -->
<g id="node18" class="node">
<title>Node18</title>
<g id="a_node18"><a xlink:href="classgko_1_1batch_1_1solver_1_1EnableBatchSolver.html" target="_top" xlink:title=" ">
<polygon fill="#ffffff" stroke="#000000" points="2532,-49.5 2532,-101.5 2663,-101.5 2663,-49.5 2532,-49.5"/>
<text text-anchor="start" x="2540" y="-89.5" font-family="Helvetica,sans-Serif" font-size="10.00" fill="#000000">gko::batch::solver</text>
<text text-anchor="start" x="2540" y="-78.5" font-family="Helvetica,sans-Serif" font-size="10.00" fill="#000000">::EnableBatchSolver</text>
<text text-anchor="start" x="2540" y="-67.5" font-family="Helvetica,sans-Serif" font-size="10.00" fill="#000000">&lt; Bicgstab&lt; ValueType</text>
<text text-anchor="middle" x="2597.5" y="-56.5" font-family="Helvetica,sans-Serif" font-size="10.00" fill="#000000"> &gt;, ValueType &gt;</text>
</a>
</g>
</g>
<!-- Node17&#45;&gt;Node18 -->
<g id="edge21" class="edge">
<title>Node17&#45;&gt;Node18</title>
<path fill="none" stroke="#ffa500" stroke-dasharray="5,2" d="M2387.6046,-102.741C2434.086,-96.7085 2489.6591,-89.496 2531.9427,-84.0083"/>
<polygon fill="#ffa500" stroke="#ffa500" points="2386.9948,-99.2907 2377.5285,-104.0487 2387.8958,-106.2325 2386.9948,-99.2907"/>
<text text-anchor="start" x="2396" y="-114.5" font-family="Helvetica,sans-Serif" font-size="10.00" fill="#000000"> &lt; Bicgstab&lt; ValueType</text>
<text text-anchor="middle" x="2455" y="-103.5" font-family="Helvetica,sans-Serif" font-size="10.00" fill="#000000"> &gt;, ValueType &gt;</text>
</g>
<!-- Node19 -->
<g id="node19" class="node">
<title>Node19</title>
<g id="a_node19"><a xlink:href="classgko_1_1batch_1_1solver_1_1Bicgstab.html" target="_top" xlink:title="BiCGSTAB or the Bi&#45;Conjugate Gradient&#45;Stabilized is a Krylov subspace solver.">
<polygon fill="#ffffff" stroke="#000000" points="2700,-60.5 2700,-90.5 2837,-90.5 2837,-60.5 2700,-60.5"/>
<text text-anchor="start" x="2708" y="-78.5" font-family="Helvetica,sans-Serif" font-size="10.00" fill="#000000">gko::batch::solver</text>
<text text-anchor="middle" x="2768.5" y="-67.5" font-family="Helvetica,sans-Serif" font-size="10.00" fill="#000000">::Bicgstab&lt; ValueType &gt;</text>
</a>
</g>
</g>
<!-- Node18&#45;&gt;Node19 -->
<g id="edge22" class="edge">
<title>Node18&#45;&gt;Node19</title>
<path fill="none" stroke="#191970" d="M2673.4055,-75.5C2682.2375,-75.5 2691.2078,-75.5 2699.9331,-75.5"/>
<polygon fill="#191970" stroke="#191970" points="2673.124,-72.0001 2663.124,-75.5 2673.124,-79.0001 2673.124,-72.0001"/>
</g>
<!-- Node20&#45;&gt;Node18 -->
<g id="edge24" class="edge">
<title>Node20&#45;&gt;Node18</title>
<path fill="none" stroke="#191970" d="M2208.2708,-64.0038C2300.9234,-66.7404 2447.3896,-71.0664 2531.748,-73.558"/>
<polygon fill="#191970" stroke="#191970" points="2208.1829,-60.4998 2198.0839,-63.7029 2207.9762,-67.4967 2208.1829,-60.4998"/>
</g>
<!-- Node22 -->
<g id="node22" class="node">
<title>Node22</title>
<g id="a_node22"><a xlink:href="classgko_1_1batch_1_1matrix_1_1Ell.html" target="_top" xlink:title="Ell is a sparse matrix format that stores the same number of nonzeros in each row,...">
<polygon fill="#ffffff" stroke="#000000" points="2216,-.5 2216,-30.5 2378,-30.5 2378,-.5 2216,-.5"/>
<text text-anchor="start" x="2224" y="-18.5" font-family="Helvetica,sans-Serif" font-size="10.00" fill="#000000">gko::batch::matrix</text>
<text text-anchor="middle" x="2297" y="-7.5" font-family="Helvetica,sans-Serif" font-size="10.00" fill="#000000">::Ell&lt; ValueType, IndexType &gt;</text>
</a>
</g>
</g>
<!-- Node21&#45;&gt;Node22 -->
<g id="edge26" class="edge">
<title>Node21&#45;&gt;Node22</title>
<path fill="none" stroke="#191970" d="M2041.3306,-16.9125C2097.0897,-16.6045 2164.3127,-16.2331 2215.8323,-15.9484"/>
<polygon fill="#191970" stroke="#191970" points="2041.0394,-13.414 2031.059,-16.9693 2041.0782,-20.4139 2041.0394,-13.414"/>
</g>
</g>
</svg>
