<?xml version="1.0" encoding="UTF-8" standalone="no"?>
<!DOCTYPE svg PUBLIC "-//W3C//DTD SVG 1.1//EN"
 "http://www.w3.org/Graphics/SVG/1.1/DTD/svg11.dtd">
<!-- Generated by graphviz version 2.40.1 (20161225.0304)
 -->
<!-- Title: gko::experimental::distributed::preconditioner::Schwarz&lt; ValueType, LocalIndexType, GlobalIndexType &gt; Pages: 1 -->
<!--zoomable 369 -->
<svg id="main" version="1.1" xmlns="http://www.w3.org/2000/svg" xmlns:xlink="http://www.w3.org/1999/xlink" xml:space="preserve" onload="init(evt)">
<style type="text/css"><![CDATA[
.edge:hover path { stroke: red; }
.edge:hover polygon { stroke: red; fill: red; }
]]></style>
<script type="text/javascript"><![CDATA[
var edges = document.getElementsByTagName('g');
if (edges && edges.length) {
  for (var i=0;i<edges.length;i++) {
    if (edges[i].id.substr(0,4)=='edge') {
      edges[i].setAttribute('class','edge');
    }
  }
}
]]></script>
        <defs>
                <circle id="rim" cx="0" cy="0" r="7"/>
                <circle id="rim2" cx="0" cy="0" r="3.5"/>
                <g id="zoomPlus">
                        <use xlink:href="#rim" fill="#404040">
                                <set attributeName="fill" to="#808080" begin="zoomplus.mouseover" end="zoomplus.mouseout"/>
                        </use>
                        <path d="M-4,0h8M0,-4v8" fill="none" stroke="white" stroke-width="1.5" pointer-events="none"/>
                </g>
                <g id="zoomMin">
                        <use xlink:href="#rim" fill="#404040">
                                <set attributeName="fill" to="#808080" begin="zoomminus.mouseover" end="zoomminus.mouseout"/>
                        </use>
                        <path d="M-4,0h8" fill="none" stroke="white" stroke-width="1.5" pointer-events="none"/>
                </g>
                <g id="dirArrow">
                        <path fill="none" stroke="white" stroke-width="1.5" d="M0,-3.0v7 M-2.5,-0.5L0,-3.0L2.5,-0.5"/>
                </g>
               <g id="resetDef">
                       <use xlink:href="#rim2" fill="#404040">
                               <set attributeName="fill" to="#808080" begin="reset.mouseover" end="reset.mouseout"/>
                       </use>
               </g>
        </defs>

<script type="text/javascript">
var viewWidth = 2308;
var viewHeight = 369;
var sectionId = 'dynsection-1';
</script>
<script xlink:href="svgpan.js"/>
<svg id="graph" class="graph">
<g id="viewport">
<title>gko::experimental::distributed::preconditioner::Schwarz&lt; ValueType, LocalIndexType, GlobalIndexType &gt;</title>
<polygon fill="#ffffff" stroke="transparent" points="-4,4 -4,-365 2304,-365 2304,4 -4,4"/>
<!-- Node1 -->
<g id="node1" class="node">
<title>Node1</title>
<g id="a_node1"><a xlink:title="A Schwarz preconditioner is a simple domain decomposition preconditioner that generalizes the Block J...">
<polygon fill="#bfbfbf" stroke="#000000" points="2118,-131.5 2118,-183.5 2300,-183.5 2300,-131.5 2118,-131.5"/>
<text text-anchor="start" x="2126" y="-171.5" font-family="Helvetica,sans-Serif" font-size="10.00" fill="#000000">gko::experimental::</text>
<text text-anchor="start" x="2126" y="-160.5" font-family="Helvetica,sans-Serif" font-size="10.00" fill="#000000">distributed::preconditioner</text>
<text text-anchor="start" x="2126" y="-149.5" font-family="Helvetica,sans-Serif" font-size="10.00" fill="#000000">::Schwarz&lt; ValueType, LocalIndex</text>
<text text-anchor="middle" x="2209" y="-138.5" font-family="Helvetica,sans-Serif" font-size="10.00" fill="#000000">Type, GlobalIndexType &gt;</text>
</a>
</g>
</g>
<!-- Node2 -->
<g id="node2" class="node">
<title>Node2</title>
<g id="a_node2"><a xlink:href="classgko_1_1EnableLinOp.html" target="_top" xlink:title=" ">
<polygon fill="#ffffff" stroke="#000000" points="1920,-137 1920,-178 2081,-178 2081,-137 1920,-137"/>
<text text-anchor="start" x="1928" y="-166" font-family="Helvetica,sans-Serif" font-size="10.00" fill="#000000">gko::EnableLinOp&lt; Schwarz</text>
<text text-anchor="start" x="1928" y="-155" font-family="Helvetica,sans-Serif" font-size="10.00" fill="#000000">&lt; ValueType, LocalIndexType,</text>
<text text-anchor="middle" x="2000.5" y="-144" font-family="Helvetica,sans-Serif" font-size="10.00" fill="#000000"> GlobalIndexType &gt; &gt;</text>
</a>
</g>
</g>
<!-- Node2&#45;&gt;Node1 -->
<g id="edge1" class="edge">
<title>Node2&#45;&gt;Node1</title>
<path fill="none" stroke="#191970" d="M2091.3537,-157.5C2100.1422,-157.5 2109.0597,-157.5 2117.851,-157.5"/>
<polygon fill="#191970" stroke="#191970" points="2091.1116,-154.0001 2081.1115,-157.5 2091.1115,-161.0001 2091.1116,-154.0001"/>
</g>
<!-- Node3 -->
<g id="node3" class="node">
<title>Node3</title>
<g id="a_node3"><a xlink:href="classgko_1_1EnablePolymorphicObject.html" target="_top" xlink:title=" ">
<polygon fill="#ffffff" stroke="#000000" points="1553,-229 1553,-270 1741,-270 1741,-229 1553,-229"/>
<text text-anchor="start" x="1561" y="-258" font-family="Helvetica,sans-Serif" font-size="10.00" fill="#000000">gko::EnablePolymorphicObject</text>
<text text-anchor="start" x="1561" y="-247" font-family="Helvetica,sans-Serif" font-size="10.00" fill="#000000">&lt; Schwarz&lt; ValueType, LocalIndex</text>
<text text-anchor="middle" x="1647" y="-236" font-family="Helvetica,sans-Serif" font-size="10.00" fill="#000000">Type, GlobalIndexType &gt;, LinOp &gt;</text>
</a>
</g>
</g>
<!-- Node3&#45;&gt;Node2 -->
<g id="edge2" class="edge">
<title>Node3&#45;&gt;Node2</title>
<path fill="none" stroke="#191970" d="M1751.1846,-230.63C1797.7291,-221.2796 1853.0186,-208.8971 1902,-194.5 1917.861,-189.838 1934.8176,-183.8481 1950.1131,-178.0519"/>
<polygon fill="#191970" stroke="#191970" points="1750.2111,-227.255 1741.0862,-232.6389 1751.5769,-234.1205 1750.2111,-227.255"/>
</g>
<!-- Node4 -->
<g id="node4" class="node">
<title>Node4</title>
<g id="a_node4"><a xlink:href="classgko_1_1EnableAbstractPolymorphicObject.html" target="_top" xlink:title=" ">
<polygon fill="#ffffff" stroke="#000000" points="1318.5,-301.5 1318.5,-353.5 1500.5,-353.5 1500.5,-301.5 1318.5,-301.5"/>
<text text-anchor="start" x="1326.5" y="-341.5" font-family="Helvetica,sans-Serif" font-size="10.00" fill="#000000">gko::EnableAbstractPolymorphic</text>
<text text-anchor="start" x="1326.5" y="-330.5" font-family="Helvetica,sans-Serif" font-size="10.00" fill="#000000">Object&lt; Schwarz&lt; ValueType,</text>
<text text-anchor="start" x="1326.5" y="-319.5" font-family="Helvetica,sans-Serif" font-size="10.00" fill="#000000"> LocalIndexType, GlobalIndexType</text>
<text text-anchor="middle" x="1409.5" y="-308.5" font-family="Helvetica,sans-Serif" font-size="10.00" fill="#000000"> &gt;, LinOp &gt;</text>
</a>
</g>
</g>
<!-- Node4&#45;&gt;Node3 -->
<g id="edge3" class="edge">
<title>Node4&#45;&gt;Node3</title>
<path fill="none" stroke="#191970" d="M1498.5208,-298.2637C1527.1575,-288.8588 1558.2594,-278.6443 1584.5639,-270.0053"/>
<polygon fill="#191970" stroke="#191970" points="1497.3229,-294.9731 1488.9143,-301.4187 1499.5071,-301.6236 1497.3229,-294.9731"/>
</g>
<!-- Node5 -->
<g id="node5" class="node">
<title>Node5</title>
<g id="a_node5"><a xlink:href="classgko_1_1LinOp.html" target="_top" xlink:title=" ">
<polygon fill="#ffffff" stroke="#000000" points="977.5,-333 977.5,-352 1045.5,-352 1045.5,-333 977.5,-333"/>
<text text-anchor="middle" x="1011.5" y="-340" font-family="Helvetica,sans-Serif" font-size="10.00" fill="#000000">gko::LinOp</text>
</a>
</g>
</g>
<!-- Node5&#45;&gt;Node4 -->
<g id="edge4" class="edge">
<title>Node5&#45;&gt;Node4</title>
<path fill="none" stroke="#191970" d="M1055.7975,-340.8305C1118.8963,-338.4524 1236.098,-334.0353 1318.2395,-330.9395"/>
<polygon fill="#191970" stroke="#191970" points="1055.6388,-337.3339 1045.7777,-341.2081 1055.9025,-344.3289 1055.6388,-337.3339"/>
</g>
<!-- Node6 -->
<g id="node6" class="node">
<title>Node6</title>
<g id="a_node6"><a xlink:href="classgko_1_1EnableAbstractPolymorphicObject.html" target="_top" xlink:title=" ">
<polygon fill="#ffffff" stroke="#ff0000" points="542,-330.5 542,-360.5 717,-360.5 717,-330.5 542,-330.5"/>
<text text-anchor="start" x="550" y="-348.5" font-family="Helvetica,sans-Serif" font-size="10.00" fill="#000000">gko::EnableAbstractPolymorphic</text>
<text text-anchor="middle" x="629.5" y="-337.5" font-family="Helvetica,sans-Serif" font-size="10.00" fill="#000000">Object&lt; LinOp &gt;</text>
</a>
</g>
</g>
<!-- Node6&#45;&gt;Node5 -->
<g id="edge5" class="edge">
<title>Node6&#45;&gt;Node5</title>
<path fill="none" stroke="#191970" d="M727.2316,-344.7325C809.2123,-344.0886 921.5754,-343.2062 977.2941,-342.7686"/>
<polygon fill="#191970" stroke="#191970" points="727.1107,-341.2332 717.1385,-344.8117 727.1657,-348.233 727.1107,-341.2332"/>
</g>
<!-- Node12 -->
<g id="node7" class="node">
<title>Node12</title>
<g id="a_node7"><a xlink:href="classgko_1_1EnableAbstractPolymorphicObject.html" target="_top" xlink:title="This mixin inherits from (a subclass of) PolymorphicObject and provides a base implementation of a ne...">
<polygon fill="#ffffff" stroke="#000000" points="138,-242 138,-283 336,-283 336,-242 138,-242"/>
<text text-anchor="start" x="146" y="-271" font-family="Helvetica,sans-Serif" font-size="10.00" fill="#000000">gko::EnableAbstractPolymorphic</text>
<text text-anchor="start" x="146" y="-260" font-family="Helvetica,sans-Serif" font-size="10.00" fill="#000000">Object&lt; AbstractObject, Polymorphic</text>
<text text-anchor="middle" x="237" y="-249" font-family="Helvetica,sans-Serif" font-size="10.00" fill="#000000">Base &gt;</text>
</a>
</g>
</g>
<!-- Node12&#45;&gt;Node4 -->
<g id="edge8" class="edge">
<title>Node12&#45;&gt;Node4</title>
<path fill="none" stroke="#ffa500" stroke-dasharray="5,2" d="M346.2577,-281.6245C348.8613,-281.9355 351.445,-282.2283 354,-282.5 356.9869,-282.8177 1062.807,-312.7881 1318.431,-323.6361"/>
<polygon fill="#ffa500" stroke="#ffa500" points="346.4973,-278.127 336.1362,-280.34 345.6159,-285.0713 346.4973,-278.127"/>
<text text-anchor="start" x="748" y="-329.5" font-family="Helvetica,sans-Serif" font-size="10.00" fill="#000000"> &lt; Schwarz&lt; ValueType,</text>
<text text-anchor="start" x="748" y="-318.5" font-family="Helvetica,sans-Serif" font-size="10.00" fill="#000000"> LocalIndexType, GlobalIndex</text>
<text text-anchor="middle" x="819.5" y="-307.5" font-family="Helvetica,sans-Serif" font-size="10.00" fill="#000000">Type &gt;, LinOp &gt;</text>
</g>
<!-- Node12&#45;&gt;Node6 -->
<g id="edge6" class="edge">
<title>Node12&#45;&gt;Node6</title>
<path fill="none" stroke="#ffa500" stroke-dasharray="5,2" d="M285.4575,-287.4612C306.0837,-297.065 330.716,-307.2224 354,-313.5 415.4848,-330.077 486.968,-338.0666 541.7103,-341.9174"/>
<polygon fill="#ffa500" stroke="#ffa500" points="286.8164,-284.2319 276.2818,-283.1035 283.8134,-290.5551 286.8164,-284.2319"/>
<text text-anchor="middle" x="432.5" y="-341.5" font-family="Helvetica,sans-Serif" font-size="10.00" fill="#000000"> &lt; LinOp &gt;</text>
</g>
<!-- Node14 -->
<g id="node10" class="node">
<title>Node14</title>
<g id="a_node10"><a xlink:href="classgko_1_1EnableAbstractPolymorphicObject.html" target="_top" xlink:title=" ">
<polygon fill="#ffffff" stroke="#000000" points="529,-224 529,-265 730,-265 730,-224 529,-224"/>
<text text-anchor="start" x="537" y="-253" font-family="Helvetica,sans-Serif" font-size="10.00" fill="#000000">gko::EnableAbstractPolymorphic</text>
<text text-anchor="start" x="537" y="-242" font-family="Helvetica,sans-Serif" font-size="10.00" fill="#000000">Object&lt; ConcreteObject, Polymorphic</text>
<text text-anchor="middle" x="629.5" y="-231" font-family="Helvetica,sans-Serif" font-size="10.00" fill="#000000">Base &gt;</text>
</a>
</g>
</g>
<!-- Node12&#45;&gt;Node14 -->
<g id="edge12" class="edge">
<title>Node12&#45;&gt;Node14</title>
<path fill="none" stroke="#ffa500" stroke-dasharray="5,2" d="M346.2032,-257.492C403.3756,-254.87 472.9091,-251.6812 528.78,-249.119"/>
<polygon fill="#ffa500" stroke="#ffa500" points="345.8735,-254.0033 336.0443,-257.9578 346.1942,-260.996 345.8735,-254.0033"/>
<text text-anchor="start" x="354" y="-270.5" font-family="Helvetica,sans-Serif" font-size="10.00" fill="#000000"> &lt; ConcreteObject, Polymorphic</text>
<text text-anchor="middle" x="432.5" y="-259.5" font-family="Helvetica,sans-Serif" font-size="10.00" fill="#000000">Base &gt;</text>
</g>
<!-- Node21 -->
<g id="node17" class="node">
<title>Node21</title>
<g id="a_node17"><a xlink:href="classgko_1_1EnableAbstractPolymorphicObject.html" target="_top" xlink:title=" ">
<polygon fill="#ffffff" stroke="#000000" points="531,-159 531,-200 728,-200 728,-159 531,-159"/>
<text text-anchor="start" x="539" y="-188" font-family="Helvetica,sans-Serif" font-size="10.00" fill="#000000">gko::EnableAbstractPolymorphic</text>
<text text-anchor="start" x="539" y="-177" font-family="Helvetica,sans-Serif" font-size="10.00" fill="#000000">Object&lt; ConcreteLinOp, Polymorphic</text>
<text text-anchor="middle" x="629.5" y="-166" font-family="Helvetica,sans-Serif" font-size="10.00" fill="#000000">Base &gt;</text>
</a>
</g>
</g>
<!-- Node12&#45;&gt;Node21 -->
<g id="edge22" class="edge">
<title>Node12&#45;&gt;Node21</title>
<path fill="none" stroke="#ffa500" stroke-dasharray="5,2" d="M302.0903,-238.7104C318.8479,-233.1656 336.9625,-227.6705 354,-223.5 411.9855,-209.3062 477.9953,-198.5808 530.8625,-191.274"/>
<polygon fill="#ffa500" stroke="#ffa500" points="300.7606,-235.4649 292.3989,-241.9713 302.9929,-242.0995 300.7606,-235.4649"/>
<text text-anchor="start" x="356" y="-237.5" font-family="Helvetica,sans-Serif" font-size="10.00" fill="#000000"> &lt; ConcreteLinOp, Polymorphic</text>
<text text-anchor="middle" x="432.5" y="-226.5" font-family="Helvetica,sans-Serif" font-size="10.00" fill="#000000">Base &gt;</text>
</g>
<!-- Node11 -->
<g id="node8" class="node">
<title>Node11</title>
<g id="a_node8"><a xlink:title=" ">
<polygon fill="#ffffff" stroke="#bfbfbf" points="0,-175 0,-194 101,-194 101,-175 0,-175"/>
<text text-anchor="middle" x="50.5" y="-182" font-family="Helvetica,sans-Serif" font-size="10.00" fill="#000000">PolymorphicBase</text>
</a>
</g>
</g>
<!-- Node11&#45;&gt;Node12 -->
<g id="edge7" class="edge">
<title>Node11&#45;&gt;Node12</title>
<path fill="none" stroke="#191970" d="M82.5985,-197.9246C111.5007,-210.0123 154.4214,-227.9631 187.6791,-241.8725"/>
<polygon fill="#191970" stroke="#191970" points="83.9447,-194.6939 73.3686,-194.0643 81.2437,-201.1518 83.9447,-194.6939"/>
</g>
<!-- Node11&#45;&gt;Node14 -->
<g id="edge11" class="edge">
<title>Node11&#45;&gt;Node14</title>
<path fill="none" stroke="#191970" d="M111.4106,-182.5032C218.9605,-179.6151 438.038,-176.7692 511,-198.5 519.9855,-201.1762 520.5248,-205.491 529,-209.5 540.1065,-214.7536 552.2243,-219.6396 564.0787,-223.9944"/>
<polygon fill="#191970" stroke="#191970" points="111.2584,-179.006 101.3594,-182.782 111.4526,-186.0033 111.2584,-179.006"/>
</g>
<!-- Node11&#45;&gt;Node21 -->
<g id="edge21" class="edge">
<title>Node11&#45;&gt;Node21</title>
<path fill="none" stroke="#191970" d="M100.0089,-173.156C106.37,-172.0602 112.8183,-171.1252 119,-170.5 292.3378,-152.9679 336.9029,-163.8982 511,-170.5 517.4945,-170.7463 524.1848,-171.0682 530.9246,-171.4434"/>
<polygon fill="#191970" stroke="#191970" points="99.3286,-169.7224 90.1355,-174.9889 100.6063,-176.6048 99.3286,-169.7224"/>
</g>
<!-- Node13 -->
<g id="node9" class="node">
<title>Node13</title>
<g id="a_node9"><a xlink:href="classgko_1_1EnablePolymorphicObject.html" target="_top" xlink:title="This mixin inherits from (a subclass of) PolymorphicObject and provides a base implementation of a ne...">
<polygon fill="#ffffff" stroke="#000000" points="909,-229.5 909,-259.5 1114,-259.5 1114,-229.5 909,-229.5"/>
<text text-anchor="start" x="917" y="-247.5" font-family="Helvetica,sans-Serif" font-size="10.00" fill="#000000">gko::EnablePolymorphicObject</text>
<text text-anchor="middle" x="1011.5" y="-236.5" font-family="Helvetica,sans-Serif" font-size="10.00" fill="#000000">&lt; ConcreteObject, PolymorphicBase &gt;</text>
</a>
</g>
</g>
<!-- Node13&#45;&gt;Node3 -->
<g id="edge9" class="edge">
<title>Node13&#45;&gt;Node3</title>
<path fill="none" stroke="#ffa500" stroke-dasharray="5,2" d="M1124.4325,-245.3885C1246.4652,-246.3487 1438.7345,-247.8614 1552.8902,-248.7596"/>
<polygon fill="#ffa500" stroke="#ffa500" points="1124.3376,-241.8878 1114.3104,-245.3089 1124.2825,-248.8876 1124.3376,-241.8878"/>
<text text-anchor="start" x="1338" y="-272.5" font-family="Helvetica,sans-Serif" font-size="10.00" fill="#000000"> &lt; Schwarz&lt; ValueType,</text>
<text text-anchor="start" x="1338" y="-261.5" font-family="Helvetica,sans-Serif" font-size="10.00" fill="#000000"> LocalIndexType, GlobalIndex</text>
<text text-anchor="middle" x="1409.5" y="-250.5" font-family="Helvetica,sans-Serif" font-size="10.00" fill="#000000">Type &gt;, LinOp &gt;</text>
</g>
<!-- Node20 -->
<g id="node16" class="node">
<title>Node20</title>
<g id="a_node16"><a xlink:href="classgko_1_1EnablePolymorphicObject.html" target="_top" xlink:title=" ">
<polygon fill="#ffffff" stroke="#000000" points="1309,-169.5 1309,-199.5 1510,-199.5 1510,-169.5 1309,-169.5"/>
<text text-anchor="start" x="1317" y="-187.5" font-family="Helvetica,sans-Serif" font-size="10.00" fill="#000000">gko::EnablePolymorphicObject</text>
<text text-anchor="middle" x="1409.5" y="-176.5" font-family="Helvetica,sans-Serif" font-size="10.00" fill="#000000">&lt; ConcreteLinOp, PolymorphicBase &gt;</text>
</a>
</g>
</g>
<!-- Node13&#45;&gt;Node20 -->
<g id="edge23" class="edge">
<title>Node13&#45;&gt;Node20</title>
<path fill="none" stroke="#ffa500" stroke-dasharray="5,2" d="M1072.699,-226.891C1091.5862,-221.9616 1112.5378,-217.0006 1132,-213.5 1190.1628,-203.0385 1255.9127,-195.9618 1308.8088,-191.4198"/>
<polygon fill="#ffa500" stroke="#ffa500" points="1071.7964,-223.5093 1063.0292,-229.4579 1073.5925,-230.275 1071.7964,-223.5093"/>
<text text-anchor="start" x="1132" y="-227.5" font-family="Helvetica,sans-Serif" font-size="10.00" fill="#000000"> &lt; ConcreteLinOp, Polymorphic</text>
<text text-anchor="middle" x="1208.5" y="-216.5" font-family="Helvetica,sans-Serif" font-size="10.00" fill="#000000">Base &gt;</text>
</g>
<!-- Node14&#45;&gt;Node13 -->
<g id="edge10" class="edge">
<title>Node14&#45;&gt;Node13</title>
<path fill="none" stroke="#191970" d="M740.2716,-244.5C793.482,-244.5 856.845,-244.5 908.9419,-244.5"/>
<polygon fill="#191970" stroke="#191970" points="740.1158,-241.0001 730.1158,-244.5 740.1157,-248.0001 740.1158,-241.0001"/>
</g>
<!-- Node15 -->
<g id="node11" class="node">
<title>Node15</title>
<g id="a_node11"><a xlink:href="classgko_1_1EnablePolymorphicAssignment.html" target="_top" xlink:title=" ">
<polygon fill="#ffffff" stroke="#000000" points="1303,-39 1303,-80 1516,-80 1516,-39 1303,-39"/>
<text text-anchor="start" x="1311" y="-68" font-family="Helvetica,sans-Serif" font-size="10.00" fill="#000000">gko::EnablePolymorphicAssignment</text>
<text text-anchor="start" x="1311" y="-57" font-family="Helvetica,sans-Serif" font-size="10.00" fill="#000000">&lt; Schwarz&lt; ValueType, LocalIndexType,</text>
<text text-anchor="middle" x="1409.5" y="-46" font-family="Helvetica,sans-Serif" font-size="10.00" fill="#000000"> GlobalIndexType &gt; &gt;</text>
</a>
</g>
</g>
<!-- Node15&#45;&gt;Node2 -->
<g id="edge13" class="edge">
<title>Node15&#45;&gt;Node2</title>
<path fill="none" stroke="#191970" d="M1526.1995,-78.8512C1642.5157,-98.1388 1818.0607,-127.2478 1919.776,-144.1143"/>
<polygon fill="#191970" stroke="#191970" points="1526.6213,-75.3734 1516.1834,-77.1903 1525.4761,-82.2791 1526.6213,-75.3734"/>
</g>
<!-- Node16 -->
<g id="node12" class="node">
<title>Node16</title>
<g id="a_node12"><a xlink:href="classgko_1_1ConvertibleTo.html" target="_top" xlink:title=" ">
<polygon fill="#ffffff" stroke="#000000" points="932,-.5 932,-52.5 1091,-52.5 1091,-.5 932,-.5"/>
<text text-anchor="start" x="940" y="-40.5" font-family="Helvetica,sans-Serif" font-size="10.00" fill="#000000">gko::ConvertibleTo</text>
<text text-anchor="start" x="940" y="-29.5" font-family="Helvetica,sans-Serif" font-size="10.00" fill="#000000">&lt; Schwarz&lt; ValueType,</text>
<text text-anchor="start" x="940" y="-18.5" font-family="Helvetica,sans-Serif" font-size="10.00" fill="#000000"> LocalIndexType, GlobalIndex</text>
<text text-anchor="middle" x="1011.5" y="-7.5" font-family="Helvetica,sans-Serif" font-size="10.00" fill="#000000">Type &gt; &gt;</text>
</a>
</g>
</g>
<!-- Node16&#45;&gt;Node15 -->
<g id="edge14" class="edge">
<title>Node16&#45;&gt;Node15</title>
<path fill="none" stroke="#191970" d="M1101.2639,-33.9427C1161.0574,-38.9005 1239.9157,-45.439 1302.9005,-50.6613"/>
<polygon fill="#191970" stroke="#191970" points="1101.3397,-30.4371 1091.0847,-33.0987 1100.7612,-37.4132 1101.3397,-30.4371"/>
</g>
<!-- Node17 -->
<g id="node13" class="node">
<title>Node17</title>
<g id="a_node13"><a xlink:href="classgko_1_1ConvertibleTo.html" target="_top" xlink:title="ConvertibleTo interface is used to mark that the implementer can be converted to the object of Result...">
<polygon fill="#ffffff" stroke="#000000" points="576,-71.5 576,-101.5 683,-101.5 683,-71.5 576,-71.5"/>
<text text-anchor="start" x="584" y="-89.5" font-family="Helvetica,sans-Serif" font-size="10.00" fill="#000000">gko::ConvertibleTo</text>
<text text-anchor="middle" x="629.5" y="-78.5" font-family="Helvetica,sans-Serif" font-size="10.00" fill="#000000">&lt; ResultType &gt;</text>
</a>
</g>
</g>
<!-- Node17&#45;&gt;Node16 -->
<g id="edge15" class="edge">
<title>Node17&#45;&gt;Node16</title>
<path fill="none" stroke="#ffa500" stroke-dasharray="5,2" d="M679.6784,-68.2011C700.5463,-61.2842 725.1829,-54.0032 748,-49.5 809.0447,-37.4523 879.2888,-31.7146 931.8918,-28.9825"/>
<polygon fill="#ffa500" stroke="#ffa500" points="678.4231,-64.9308 670.0695,-71.4475 680.6637,-71.5625 678.4231,-64.9308"/>
<text text-anchor="start" x="748" y="-74.5" font-family="Helvetica,sans-Serif" font-size="10.00" fill="#000000"> &lt; Schwarz&lt; ValueType,</text>
<text text-anchor="start" x="748" y="-63.5" font-family="Helvetica,sans-Serif" font-size="10.00" fill="#000000"> LocalIndexType, GlobalIndex</text>
<text text-anchor="middle" x="819.5" y="-52.5" font-family="Helvetica,sans-Serif" font-size="10.00" fill="#000000">Type &gt; &gt;</text>
</g>
<!-- Node18 -->
<g id="node14" class="node">
<title>Node18</title>
<g id="a_node14"><a xlink:href="classgko_1_1EnablePolymorphicAssignment.html" target="_top" xlink:title="This mixin is used to enable a default PolymorphicObject::copy_from() implementation for objects that...">
<polygon fill="#ffffff" stroke="#000000" points="915.5,-71.5 915.5,-101.5 1107.5,-101.5 1107.5,-71.5 915.5,-71.5"/>
<text text-anchor="start" x="923.5" y="-89.5" font-family="Helvetica,sans-Serif" font-size="10.00" fill="#000000">gko::EnablePolymorphicAssignment</text>
<text text-anchor="middle" x="1011.5" y="-78.5" font-family="Helvetica,sans-Serif" font-size="10.00" fill="#000000">&lt; ConcreteType, ResultType &gt;</text>
</a>
</g>
</g>
<!-- Node17&#45;&gt;Node18 -->
<g id="edge17" class="edge">
<title>Node17&#45;&gt;Node18</title>
<path fill="none" stroke="#191970" d="M693.2071,-86.5C753.7924,-86.5 845.7439,-86.5 915.2628,-86.5"/>
<polygon fill="#191970" stroke="#191970" points="693.0177,-83.0001 683.0177,-86.5 693.0177,-90.0001 693.0177,-83.0001"/>
</g>
<!-- Node23 -->
<g id="node19" class="node">
<title>Node23</title>
<g id="a_node19"><a xlink:href="classgko_1_1ConvertibleTo.html" target="_top" xlink:title=" ">
<polygon fill="#ffffff" stroke="#000000" points="956.5,-120.5 956.5,-150.5 1066.5,-150.5 1066.5,-120.5 956.5,-120.5"/>
<text text-anchor="start" x="964.5" y="-138.5" font-family="Helvetica,sans-Serif" font-size="10.00" fill="#000000">gko::ConvertibleTo</text>
<text text-anchor="middle" x="1011.5" y="-127.5" font-family="Helvetica,sans-Serif" font-size="10.00" fill="#000000">&lt; ConcreteLinOp &gt;</text>
</a>
</g>
</g>
<!-- Node17&#45;&gt;Node23 -->
<g id="edge26" class="edge">
<title>Node17&#45;&gt;Node23</title>
<path fill="none" stroke="#ffa500" stroke-dasharray="5,2" d="M693.0865,-94.6564C766.6985,-104.0988 886.7317,-119.4957 956.4891,-128.4436"/>
<polygon fill="#ffa500" stroke="#ffa500" points="693.3818,-91.1657 683.0177,-93.3648 692.4911,-98.1088 693.3818,-91.1657"/>
<text text-anchor="middle" x="819.5" y="-123.5" font-family="Helvetica,sans-Serif" font-size="10.00" fill="#000000"> &lt; ConcreteLinOp &gt;</text>
</g>
<!-- Node18&#45;&gt;Node15 -->
<g id="edge16" class="edge">
<title>Node18&#45;&gt;Node15</title>
<path fill="none" stroke="#ffa500" stroke-dasharray="5,2" d="M1079.2282,-69.2941C1096.335,-65.6659 1114.7475,-62.3715 1132,-60.5 1188.1585,-54.408 1251.0865,-53.6866 1302.8025,-54.6941"/>
<polygon fill="#ffa500" stroke="#ffa500" points="1078.3463,-65.9042 1069.3255,-71.4606 1079.8425,-72.7424 1078.3463,-65.9042"/>
<text text-anchor="start" x="1137" y="-85.5" font-family="Helvetica,sans-Serif" font-size="10.00" fill="#000000"> &lt; Schwarz&lt; ValueType,</text>
<text text-anchor="start" x="1137" y="-74.5" font-family="Helvetica,sans-Serif" font-size="10.00" fill="#000000"> LocalIndexType, GlobalIndex</text>
<text text-anchor="middle" x="1208.5" y="-63.5" font-family="Helvetica,sans-Serif" font-size="10.00" fill="#000000">Type &gt; &gt;</text>
</g>
<!-- Node22 -->
<g id="node18" class="node">
<title>Node22</title>
<g id="a_node18"><a xlink:href="classgko_1_1EnablePolymorphicAssignment.html" target="_top" xlink:title=" ">
<polygon fill="#ffffff" stroke="#000000" points="1313.5,-120.5 1313.5,-150.5 1505.5,-150.5 1505.5,-120.5 1313.5,-120.5"/>
<text text-anchor="start" x="1321.5" y="-138.5" font-family="Helvetica,sans-Serif" font-size="10.00" fill="#000000">gko::EnablePolymorphicAssignment</text>
<text text-anchor="middle" x="1409.5" y="-127.5" font-family="Helvetica,sans-Serif" font-size="10.00" fill="#000000">&lt; ConcreteLinOp &gt;</text>
</a>
</g>
</g>
<!-- Node18&#45;&gt;Node22 -->
<g id="edge27" class="edge">
<title>Node18&#45;&gt;Node22</title>
<path fill="none" stroke="#ffa500" stroke-dasharray="5,2" d="M1117.6029,-99.5629C1178.4147,-107.0498 1254.1488,-116.3738 1313.2341,-123.6482"/>
<polygon fill="#ffa500" stroke="#ffa500" points="1117.9437,-96.0785 1107.5909,-98.3303 1117.0883,-103.0261 1117.9437,-96.0785"/>
<text text-anchor="middle" x="1208.5" y="-123.5" font-family="Helvetica,sans-Serif" font-size="10.00" fill="#000000"> &lt; ConcreteLinOp &gt;</text>
</g>
<!-- Node19 -->
<g id="node15" class="node">
<title>Node19</title>
<g id="a_node15"><a xlink:href="classgko_1_1EnableLinOp.html" target="_top" xlink:title="The EnableLinOp mixin can be used to provide sensible default implementations of the majority of the ...">
<polygon fill="#ffffff" stroke="#000000" points="1569,-142.5 1569,-172.5 1725,-172.5 1725,-142.5 1569,-142.5"/>
<text text-anchor="start" x="1577" y="-160.5" font-family="Helvetica,sans-Serif" font-size="10.00" fill="#000000">gko::EnableLinOp&lt; Concrete</text>
<text text-anchor="middle" x="1647" y="-149.5" font-family="Helvetica,sans-Serif" font-size="10.00" fill="#000000">LinOp, PolymorphicBase &gt;</text>
</a>
</g>
</g>
<!-- Node19&#45;&gt;Node2 -->
<g id="edge18" class="edge">
<title>Node19&#45;&gt;Node2</title>
<path fill="none" stroke="#ffa500" stroke-dasharray="5,2" d="M1735.0364,-157.5C1791.7018,-157.5 1864.7906,-157.5 1919.9265,-157.5"/>
<polygon fill="#ffa500" stroke="#ffa500" points="1735.0147,-154.0001 1725.0147,-157.5 1735.0147,-161.0001 1735.0147,-154.0001"/>
<text text-anchor="start" x="1759" y="-182.5" font-family="Helvetica,sans-Serif" font-size="10.00" fill="#000000"> &lt; Schwarz&lt; ValueType,</text>
<text text-anchor="start" x="1759" y="-171.5" font-family="Helvetica,sans-Serif" font-size="10.00" fill="#000000"> LocalIndexType, GlobalIndex</text>
<text text-anchor="middle" x="1830.5" y="-160.5" font-family="Helvetica,sans-Serif" font-size="10.00" fill="#000000">Type &gt; &gt;</text>
</g>
<!-- Node20&#45;&gt;Node19 -->
<g id="edge19" class="edge">
<title>Node20&#45;&gt;Node19</title>
<path fill="none" stroke="#191970" d="M1520.3739,-171.8954C1536.739,-170.0349 1553.3045,-168.1517 1568.8198,-166.3879"/>
<polygon fill="#191970" stroke="#191970" points="1519.762,-168.4423 1510.2214,-173.0496 1520.5528,-175.3975 1519.762,-168.4423"/>
</g>
<!-- Node21&#45;&gt;Node20 -->
<g id="edge20" class="edge">
<title>Node21&#45;&gt;Node20</title>
<path fill="none" stroke="#191970" d="M738.532,-180.1989C889.9619,-181.1696 1161.8488,-182.9125 1308.7412,-183.8541"/>
<polygon fill="#191970" stroke="#191970" points="738.3098,-176.6975 728.2875,-180.1333 738.2649,-183.6974 738.3098,-176.6975"/>
</g>
<!-- Node22&#45;&gt;Node19 -->
<g id="edge24" class="edge">
<title>Node22&#45;&gt;Node19</title>
<path fill="none" stroke="#191970" d="M1516.14,-145.3782C1533.8648,-147.0201 1551.9533,-148.6957 1568.8037,-150.2566"/>
<polygon fill="#191970" stroke="#191970" points="1516.0382,-141.8539 1505.758,-144.4165 1515.3925,-148.8241 1516.0382,-141.8539"/>
</g>
<!-- Node23&#45;&gt;Node22 -->
<g id="edge25" class="edge">
<title>Node23&#45;&gt;Node22</title>
<path fill="none" stroke="#191970" d="M1076.8526,-135.5C1141.1462,-135.5 1240.0473,-135.5 1313.3139,-135.5"/>
<polygon fill="#191970" stroke="#191970" points="1076.8402,-132.0001 1066.8402,-135.5 1076.8402,-139.0001 1076.8402,-132.0001"/>
</g>
</g>
</svg>
        <g id="navigator" transform="translate(0 0)" fill="#404254">
                <rect fill="#f2f5e9" fill-opacity="0.5" stroke="#606060" stroke-width=".5" x="0" y="0" width="60" height="60"/>
                <use id="zoomplus" xlink:href="#zoomPlus" x="17" y="9" onmousedown="handleZoom(evt,'in')"/>
                <use id="zoomminus" xlink:href="#zoomMin" x="42" y="9" onmousedown="handleZoom(evt,'out')"/>
                <use id="reset" xlink:href="#resetDef" x="30" y="36" onmousedown="handleReset()"/>
                <g id="arrowUp" xlink:href="#dirArrow" transform="translate(30 24)" onmousedown="handlePan(0,-1)">
                  <use xlink:href="#rim" fill="#404040">
                        <set attributeName="fill" to="#808080" begin="arrowUp.mouseover" end="arrowUp.mouseout"/>
                  </use>
                  <path fill="none" stroke="white" stroke-width="1.5" d="M0,-3.0v7 M-2.5,-0.5L0,-3.0L2.5,-0.5"/>
                </g>
                <g id="arrowRight" xlink:href="#dirArrow" transform="rotate(90) translate(36 -43)" onmousedown="handlePan(1,0)">
                  <use xlink:href="#rim" fill="#404040">
                        <set attributeName="fill" to="#808080" begin="arrowRight.mouseover" end="arrowRight.mouseout"/>
                  </use>
                  <path fill="none" stroke="white" stroke-width="1.5" d="M0,-3.0v7 M-2.5,-0.5L0,-3.0L2.5,-0.5"/>
                </g>
                <g id="arrowDown" xlink:href="#dirArrow" transform="rotate(180) translate(-30 -48)" onmousedown="handlePan(0,1)">
                  <use xlink:href="#rim" fill="#404040">
                        <set attributeName="fill" to="#808080" begin="arrowDown.mouseover" end="arrowDown.mouseout"/>
                  </use>
                  <path fill="none" stroke="white" stroke-width="1.5" d="M0,-3.0v7 M-2.5,-0.5L0,-3.0L2.5,-0.5"/>
                </g>
                <g id="arrowLeft" xlink:href="#dirArrow" transform="rotate(270) translate(-36 17)" onmousedown="handlePan(-1,0)">
                  <use xlink:href="#rim" fill="#404040">
                        <set attributeName="fill" to="#808080" begin="arrowLeft.mouseover" end="arrowLeft.mouseout"/>
                  </use>
                  <path fill="none" stroke="white" stroke-width="1.5" d="M0,-3.0v7 M-2.5,-0.5L0,-3.0L2.5,-0.5"/>
                </g>
        </g>
        <svg viewBox="0 0 15 15" width="100%" height="30px" preserveAspectRatio="xMaxYMin meet">
         <g id="arrow_out" transform="scale(0.3 0.3)">
          <a xlink:href="classgko_1_1experimental_1_1distributed_1_1preconditioner_1_1Schwarz__coll__graph_org.svg" target="_base">
           <rect id="button" ry="5" rx="5" y="6" x="6" height="38" width="38"
                fill="#f2f5e9" fill-opacity="0.5" stroke="#606060" stroke-width="1.0"/>
           <path id="arrow"
             d="M 11.500037,31.436501 C 11.940474,20.09759 22.043105,11.32322 32.158766,21.979434 L 37.068811,17.246167 C 37.068811,17.246167 37.088388,32 37.088388,32 L 22.160133,31.978069 C 22.160133,31.978069 26.997745,27.140456 26.997745,27.140456 C 18.528582,18.264221 13.291696,25.230495 11.500037,31.436501 z"
             style="fill:#404040;"/>
          </a>
         </g>
        </svg>
</svg>
