<?xml version="1.0" encoding="UTF-8" standalone="no"?>
<!DOCTYPE svg PUBLIC "-//W3C//DTD SVG 1.1//EN"
 "http://www.w3.org/Graphics/SVG/1.1/DTD/svg11.dtd">
<!-- Generated by graphviz version 2.40.1 (20161225.0304)
 -->
<!-- Title: gko::matrix::Ell&lt; ValueType, IndexType &gt; Pages: 1 -->
<!--zoomable 511 -->
<svg id="main" version="1.1" xmlns="http://www.w3.org/2000/svg" xmlns:xlink="http://www.w3.org/1999/xlink" xml:space="preserve" onload="init(evt)">
<style type="text/css"><![CDATA[
.edge:hover path { stroke: red; }
.edge:hover polygon { stroke: red; fill: red; }
]]></style>
<script type="text/javascript"><![CDATA[
var edges = document.getElementsByTagName('g');
if (edges && edges.length) {
  for (var i=0;i<edges.length;i++) {
    if (edges[i].id.substr(0,4)=='edge') {
      edges[i].setAttribute('class','edge');
    }
  }
}
]]></script>
        <defs>
                <circle id="rim" cx="0" cy="0" r="7"/>
                <circle id="rim2" cx="0" cy="0" r="3.5"/>
                <g id="zoomPlus">
                        <use xlink:href="#rim" fill="#404040">
                                <set attributeName="fill" to="#808080" begin="zoomplus.mouseover" end="zoomplus.mouseout"/>
                        </use>
                        <path d="M-4,0h8M0,-4v8" fill="none" stroke="white" stroke-width="1.5" pointer-events="none"/>
                </g>
                <g id="zoomMin">
                        <use xlink:href="#rim" fill="#404040">
                                <set attributeName="fill" to="#808080" begin="zoomminus.mouseover" end="zoomminus.mouseout"/>
                        </use>
                        <path d="M-4,0h8" fill="none" stroke="white" stroke-width="1.5" pointer-events="none"/>
                </g>
                <g id="dirArrow">
                        <path fill="none" stroke="white" stroke-width="1.5" d="M0,-3.0v7 M-2.5,-0.5L0,-3.0L2.5,-0.5"/>
                </g>
               <g id="resetDef">
                       <use xlink:href="#rim2" fill="#404040">
                               <set attributeName="fill" to="#808080" begin="reset.mouseover" end="reset.mouseout"/>
                       </use>
               </g>
        </defs>

<script type="text/javascript">
var viewWidth = 2518;
var viewHeight = 511;
var sectionId = 'dynsection-0';
</script>
<script xlink:href="svgpan.js"/>
<svg id="graph" class="graph">
<g id="viewport">
<title>gko::matrix::Ell&lt; ValueType, IndexType &gt;</title>
<polygon fill="#ffffff" stroke="transparent" points="-4,4 -4,-506.9462 2514,-506.9462 2514,4 -4,4"/>
<!-- Node1 -->
<g id="node1" class="node">
<title>Node1</title>
<g id="a_node1"><a xlink:title="ELL is a matrix format where stride with explicit zeros is used such that all rows have the same numb...">
<polygon fill="#bfbfbf" stroke="#000000" points="2355,-222.5 2355,-252.5 2510,-252.5 2510,-222.5 2355,-222.5"/>
<text text-anchor="start" x="2363" y="-240.5" font-family="Helvetica,sans-Serif" font-size="10.00" fill="#000000">gko::matrix::Ell&lt; ValueType,</text>
<text text-anchor="middle" x="2432.5" y="-229.5" font-family="Helvetica,sans-Serif" font-size="10.00" fill="#000000"> IndexType &gt;</text>
</a>
</g>
</g>
<!-- Node2 -->
<g id="node2" class="node">
<title>Node2</title>
<g id="a_node2"><a xlink:href="classgko_1_1EnableLinOp.html" target="_top" xlink:title=" ">
<polygon fill="#ffffff" stroke="#000000" points="2140.5,-271.5 2140.5,-301.5 2295.5,-301.5 2295.5,-271.5 2140.5,-271.5"/>
<text text-anchor="start" x="2148.5" y="-289.5" font-family="Helvetica,sans-Serif" font-size="10.00" fill="#000000">gko::EnableLinOp&lt; Ell</text>
<text text-anchor="middle" x="2218" y="-278.5" font-family="Helvetica,sans-Serif" font-size="10.00" fill="#000000">&lt; ValueType, IndexType &gt; &gt;</text>
</a>
</g>
</g>
<!-- Node2&#45;&gt;Node1 -->
<g id="edge1" class="edge">
<title>Node2&#45;&gt;Node1</title>
<path fill="none" stroke="#191970" d="M2293.8671,-269.1691C2317.6819,-263.7288 2343.7605,-257.7715 2366.8097,-252.5062"/>
<polygon fill="#191970" stroke="#191970" points="2292.7842,-265.8262 2283.8148,-271.4654 2294.3431,-272.6504 2292.7842,-265.8262"/>
</g>
<!-- Node3 -->
<g id="node3" class="node">
<title>Node3</title>
<g id="a_node3"><a xlink:href="classgko_1_1EnablePolymorphicObject.html" target="_top" xlink:title=" ">
<polygon fill="#ffffff" stroke="#000000" points="1727.5,-213 1727.5,-254 1893.5,-254 1893.5,-213 1727.5,-213"/>
<text text-anchor="start" x="1735.5" y="-242" font-family="Helvetica,sans-Serif" font-size="10.00" fill="#000000">gko::EnablePolymorphicObject</text>
<text text-anchor="start" x="1735.5" y="-231" font-family="Helvetica,sans-Serif" font-size="10.00" fill="#000000">&lt; Ell&lt; ValueType, IndexType</text>
<text text-anchor="middle" x="1810.5" y="-220" font-family="Helvetica,sans-Serif" font-size="10.00" fill="#000000"> &gt;, LinOp &gt;</text>
</a>
</g>
</g>
<!-- Node3&#45;&gt;Node2 -->
<g id="edge2" class="edge">
<title>Node3&#45;&gt;Node2</title>
<path fill="none" stroke="#191970" d="M1903.6122,-244.0129C1960.414,-250.611 2034.4633,-259.542 2100,-268.5 2113.0379,-270.2821 2126.868,-272.2876 2140.2951,-274.296"/>
<polygon fill="#191970" stroke="#191970" points="1903.9092,-240.524 1893.5729,-242.8501 1903.1038,-247.4775 1903.9092,-240.524"/>
</g>
<!-- Node4 -->
<g id="node4" class="node">
<title>Node4</title>
<g id="a_node4"><a xlink:href="classgko_1_1EnableAbstractPolymorphicObject.html" target="_top" xlink:title=" ">
<polygon fill="#ffffff" stroke="#000000" points="1348.5,-63 1348.5,-104 1536.5,-104 1536.5,-63 1348.5,-63"/>
<text text-anchor="start" x="1356.5" y="-92" font-family="Helvetica,sans-Serif" font-size="10.00" fill="#000000">gko::EnableAbstractPolymorphic</text>
<text text-anchor="start" x="1356.5" y="-81" font-family="Helvetica,sans-Serif" font-size="10.00" fill="#000000">Object&lt; Ell&lt; ValueType, IndexType</text>
<text text-anchor="middle" x="1442.5" y="-70" font-family="Helvetica,sans-Serif" font-size="10.00" fill="#000000"> &gt;, LinOp &gt;</text>
</a>
</g>
</g>
<!-- Node4&#45;&gt;Node3 -->
<g id="edge3" class="edge">
<title>Node4&#45;&gt;Node3</title>
<path fill="none" stroke="#191970" d="M1546.6557,-75.0501C1599.7895,-76.4834 1661.737,-87.8762 1703,-126.5 1728.6582,-150.517 1697.341,-177.5113 1721,-203.5 1724.1993,-207.0143 1727.8223,-210.1174 1731.7319,-212.8574"/>
<polygon fill="#191970" stroke="#191970" points="1546.5533,-71.5482 1536.5002,-74.8925 1546.4446,-78.5474 1546.5533,-71.5482"/>
</g>
<!-- Node5 -->
<g id="node5" class="node">
<title>Node5</title>
<g id="a_node5"><a xlink:href="classgko_1_1LinOp.html" target="_top" xlink:title=" ">
<polygon fill="#ffffff" stroke="#000000" points="1000.5,-80 1000.5,-99 1068.5,-99 1068.5,-80 1000.5,-80"/>
<text text-anchor="middle" x="1034.5" y="-87" font-family="Helvetica,sans-Serif" font-size="10.00" fill="#000000">gko::LinOp</text>
</a>
</g>
</g>
<!-- Node5&#45;&gt;Node4 -->
<g id="edge4" class="edge">
<title>Node5&#45;&gt;Node4</title>
<path fill="none" stroke="#191970" d="M1078.7755,-88.8489C1143.0334,-87.9039 1263.6922,-86.1295 1348.3642,-84.8843"/>
<polygon fill="#191970" stroke="#191970" points="1078.5315,-85.352 1068.5841,-88.9988 1078.6345,-92.3512 1078.5315,-85.352"/>
</g>
<!-- Node6 -->
<g id="node6" class="node">
<title>Node6</title>
<g id="a_node6"><a xlink:href="classgko_1_1EnableAbstractPolymorphicObject.html" target="_top" xlink:title=" ">
<polygon fill="#ffffff" stroke="#ff0000" points="542,-75.5 542,-105.5 717,-105.5 717,-75.5 542,-75.5"/>
<text text-anchor="start" x="550" y="-93.5" font-family="Helvetica,sans-Serif" font-size="10.00" fill="#000000">gko::EnableAbstractPolymorphic</text>
<text text-anchor="middle" x="629.5" y="-82.5" font-family="Helvetica,sans-Serif" font-size="10.00" fill="#000000">Object&lt; LinOp &gt;</text>
</a>
</g>
</g>
<!-- Node6&#45;&gt;Node5 -->
<g id="edge5" class="edge">
<title>Node6&#45;&gt;Node5</title>
<path fill="none" stroke="#191970" d="M727.4215,-90.2582C815.7403,-90.0401 940.6381,-89.7318 1000.2509,-89.5846"/>
<polygon fill="#191970" stroke="#191970" points="727.3703,-86.7582 717.379,-90.283 727.3876,-93.7582 727.3703,-86.7582"/>
</g>
<!-- Node12 -->
<g id="node7" class="node">
<title>Node12</title>
<g id="a_node7"><a xlink:href="classgko_1_1EnableAbstractPolymorphicObject.html" target="_top" xlink:title="This mixin inherits from (a subclass of) PolymorphicObject and provides a base implementation of a ne...">
<polygon fill="#ffffff" stroke="#000000" points="138,-98 138,-139 336,-139 336,-98 138,-98"/>
<text text-anchor="start" x="146" y="-127" font-family="Helvetica,sans-Serif" font-size="10.00" fill="#000000">gko::EnableAbstractPolymorphic</text>
<text text-anchor="start" x="146" y="-116" font-family="Helvetica,sans-Serif" font-size="10.00" fill="#000000">Object&lt; AbstractObject, Polymorphic</text>
<text text-anchor="middle" x="237" y="-105" font-family="Helvetica,sans-Serif" font-size="10.00" fill="#000000">Base &gt;</text>
</a>
</g>
</g>
<!-- Node12&#45;&gt;Node4 -->
<g id="edge8" class="edge">
<title>Node12&#45;&gt;Node4</title>
<path fill="none" stroke="#ffa500" stroke-dasharray="5,2" d="M312.3453,-95.2608C326.1075,-91.5853 340.412,-88.1348 354,-85.5 430.8043,-70.6072 450.9103,-71.2633 529,-66.5 827.8421,-48.2711 1182.6041,-66.1642 1348.3699,-76.8231"/>
<polygon fill="#ffa500" stroke="#ffa500" points="311.1616,-91.9558 302.4381,-97.9684 313.0071,-98.7082 311.1616,-91.9558"/>
<text text-anchor="start" x="759.5" y="-72.5" font-family="Helvetica,sans-Serif" font-size="10.00" fill="#000000"> &lt; Ell&lt; ValueType, IndexType</text>
<text text-anchor="middle" x="831" y="-61.5" font-family="Helvetica,sans-Serif" font-size="10.00" fill="#000000"> &gt;, LinOp &gt;</text>
</g>
<!-- Node12&#45;&gt;Node6 -->
<g id="edge6" class="edge">
<title>Node12&#45;&gt;Node6</title>
<path fill="none" stroke="#ffa500" stroke-dasharray="5,2" d="M346.2444,-98.3524C348.8519,-98.0459 351.4401,-97.7607 354,-97.5 416.5928,-91.125 487.5743,-89.4523 541.8109,-89.3331"/>
<polygon fill="#ffa500" stroke="#ffa500" points="345.5911,-94.9071 336.1096,-99.6348 346.4699,-101.8517 345.5911,-94.9071"/>
<text text-anchor="middle" x="432.5" y="-100.5" font-family="Helvetica,sans-Serif" font-size="10.00" fill="#000000"> &lt; LinOp &gt;</text>
</g>
<!-- Node14 -->
<g id="node10" class="node">
<title>Node14</title>
<g id="a_node10"><a xlink:href="classgko_1_1EnableAbstractPolymorphicObject.html" target="_top" xlink:title=" ">
<polygon fill="#ffffff" stroke="#000000" points="529,-125 529,-166 730,-166 730,-125 529,-125"/>
<text text-anchor="start" x="537" y="-154" font-family="Helvetica,sans-Serif" font-size="10.00" fill="#000000">gko::EnableAbstractPolymorphic</text>
<text text-anchor="start" x="537" y="-143" font-family="Helvetica,sans-Serif" font-size="10.00" fill="#000000">Object&lt; ConcreteObject, Polymorphic</text>
<text text-anchor="middle" x="629.5" y="-132" font-family="Helvetica,sans-Serif" font-size="10.00" fill="#000000">Base &gt;</text>
</a>
</g>
</g>
<!-- Node12&#45;&gt;Node14 -->
<g id="edge12" class="edge">
<title>Node12&#45;&gt;Node14</title>
<path fill="none" stroke="#ffa500" stroke-dasharray="5,2" d="M346.452,-113.5989C396.722,-112.7062 457.0325,-113.5494 511,-119.5 522.6192,-120.7811 534.7699,-122.7288 546.6757,-124.9938"/>
<polygon fill="#ffa500" stroke="#ffa500" points="346.1373,-110.1045 336.2106,-113.807 346.2796,-117.103 346.1373,-110.1045"/>
<text text-anchor="start" x="354" y="-133.5" font-family="Helvetica,sans-Serif" font-size="10.00" fill="#000000"> &lt; ConcreteObject, Polymorphic</text>
<text text-anchor="middle" x="432.5" y="-122.5" font-family="Helvetica,sans-Serif" font-size="10.00" fill="#000000">Base &gt;</text>
</g>
<!-- Node21 -->
<g id="node17" class="node">
<title>Node21</title>
<g id="a_node17"><a xlink:href="classgko_1_1EnableAbstractPolymorphicObject.html" target="_top" xlink:title=" ">
<polygon fill="#ffffff" stroke="#000000" points="531,-190 531,-231 728,-231 728,-190 531,-190"/>
<text text-anchor="start" x="539" y="-219" font-family="Helvetica,sans-Serif" font-size="10.00" fill="#000000">gko::EnableAbstractPolymorphic</text>
<text text-anchor="start" x="539" y="-208" font-family="Helvetica,sans-Serif" font-size="10.00" fill="#000000">Object&lt; ConcreteLinOp, Polymorphic</text>
<text text-anchor="middle" x="629.5" y="-197" font-family="Helvetica,sans-Serif" font-size="10.00" fill="#000000">Base &gt;</text>
</a>
</g>
</g>
<!-- Node12&#45;&gt;Node21 -->
<g id="edge22" class="edge">
<title>Node12&#45;&gt;Node21</title>
<path fill="none" stroke="#ffa500" stroke-dasharray="5,2" d="M334.6295,-141.3839C398.1802,-156.2798 480.3736,-175.5455 541.8328,-189.9513"/>
<polygon fill="#ffa500" stroke="#ffa500" points="335.131,-137.9066 324.5961,-139.0321 333.5335,-144.7219 335.131,-137.9066"/>
<text text-anchor="start" x="356" y="-194.5" font-family="Helvetica,sans-Serif" font-size="10.00" fill="#000000"> &lt; ConcreteLinOp, Polymorphic</text>
<text text-anchor="middle" x="432.5" y="-183.5" font-family="Helvetica,sans-Serif" font-size="10.00" fill="#000000">Base &gt;</text>
</g>
<!-- Node11 -->
<g id="node8" class="node">
<title>Node11</title>
<g id="a_node8"><a xlink:title=" ">
<polygon fill="#ffffff" stroke="#bfbfbf" points="0,-191 0,-210 101,-210 101,-191 0,-191"/>
<text text-anchor="middle" x="50.5" y="-198" font-family="Helvetica,sans-Serif" font-size="10.00" fill="#000000">PolymorphicBase</text>
</a>
</g>
</g>
<!-- Node11&#45;&gt;Node12 -->
<g id="edge7" class="edge">
<title>Node11&#45;&gt;Node12</title>
<path fill="none" stroke="#191970" d="M81.6749,-186.7931C111.2807,-173.7761 156.181,-154.0344 190.1047,-139.1189"/>
<polygon fill="#191970" stroke="#191970" points="80.0044,-183.7041 72.2589,-190.9331 82.8219,-190.1121 80.0044,-183.7041"/>
</g>
<!-- Node11&#45;&gt;Node14 -->
<g id="edge11" class="edge">
<title>Node11&#45;&gt;Node14</title>
<path fill="none" stroke="#191970" d="M111.2562,-204.4384C199.9452,-208.8869 369.6838,-212.4702 511,-186.5 512.6995,-186.1877 541.8767,-176.0948 570.8503,-166.0023"/>
<polygon fill="#191970" stroke="#191970" points="111.2787,-200.9349 101.1095,-203.9077 110.913,-207.9253 111.2787,-200.9349"/>
</g>
<!-- Node11&#45;&gt;Node21 -->
<g id="edge21" class="edge">
<title>Node11&#45;&gt;Node21</title>
<path fill="none" stroke="#191970" d="M100.0089,-211.844C106.37,-212.9398 112.8183,-213.8748 119,-214.5 292.3378,-232.0321 336.8026,-217.4392 511,-214.5 517.4832,-214.3906 524.1651,-214.2476 530.8987,-214.0808"/>
<polygon fill="#191970" stroke="#191970" points="100.6063,-208.3952 90.1355,-210.0111 99.3286,-215.2776 100.6063,-208.3952"/>
</g>
<!-- Node13 -->
<g id="node9" class="node">
<title>Node13</title>
<g id="a_node9"><a xlink:href="classgko_1_1EnablePolymorphicObject.html" target="_top" xlink:title="This mixin inherits from (a subclass of) PolymorphicObject and provides a base implementation of a ne...">
<polygon fill="#ffffff" stroke="#000000" points="932,-130.5 932,-160.5 1137,-160.5 1137,-130.5 932,-130.5"/>
<text text-anchor="start" x="940" y="-148.5" font-family="Helvetica,sans-Serif" font-size="10.00" fill="#000000">gko::EnablePolymorphicObject</text>
<text text-anchor="middle" x="1034.5" y="-137.5" font-family="Helvetica,sans-Serif" font-size="10.00" fill="#000000">&lt; ConcreteObject, PolymorphicBase &gt;</text>
</a>
</g>
</g>
<!-- Node13&#45;&gt;Node3 -->
<g id="edge9" class="edge">
<title>Node13&#45;&gt;Node3</title>
<path fill="none" stroke="#ffa500" stroke-dasharray="5,2" d="M1147.5483,-142.5314C1251.0415,-141.5138 1408.1457,-144.2517 1543,-164.5 1613.6698,-175.111 1692.694,-196.7446 1746.4073,-212.9752"/>
<polygon fill="#ffa500" stroke="#ffa500" points="1147.3508,-139.0333 1137.3906,-142.6451 1147.4292,-146.0329 1147.3508,-139.0333"/>
<text text-anchor="start" x="1371" y="-178.5" font-family="Helvetica,sans-Serif" font-size="10.00" fill="#000000"> &lt; Ell&lt; ValueType, IndexType</text>
<text text-anchor="middle" x="1442.5" y="-167.5" font-family="Helvetica,sans-Serif" font-size="10.00" fill="#000000"> &gt;, LinOp &gt;</text>
</g>
<!-- Node20 -->
<g id="node16" class="node">
<title>Node20</title>
<g id="a_node16"><a xlink:href="classgko_1_1EnablePolymorphicObject.html" target="_top" xlink:title=" ">
<polygon fill="#ffffff" stroke="#000000" points="1342,-195.5 1342,-225.5 1543,-225.5 1543,-195.5 1342,-195.5"/>
<text text-anchor="start" x="1350" y="-213.5" font-family="Helvetica,sans-Serif" font-size="10.00" fill="#000000">gko::EnablePolymorphicObject</text>
<text text-anchor="middle" x="1442.5" y="-202.5" font-family="Helvetica,sans-Serif" font-size="10.00" fill="#000000">&lt; ConcreteLinOp, PolymorphicBase &gt;</text>
</a>
</g>
</g>
<!-- Node13&#45;&gt;Node20 -->
<g id="edge23" class="edge">
<title>Node13&#45;&gt;Node20</title>
<path fill="none" stroke="#ffa500" stroke-dasharray="5,2" d="M1147.312,-151.6694C1201.1663,-155.918 1266.3001,-162.9605 1324,-174.5 1349.7223,-179.6443 1377.8407,-188.0614 1400.2297,-195.4637"/>
<polygon fill="#ffa500" stroke="#ffa500" points="1147.2833,-148.157 1137.045,-150.8822 1146.7482,-155.1365 1147.2833,-148.157"/>
<text text-anchor="start" x="1163" y="-188.5" font-family="Helvetica,sans-Serif" font-size="10.00" fill="#000000"> &lt; ConcreteLinOp, Polymorphic</text>
<text text-anchor="middle" x="1239.5" y="-177.5" font-family="Helvetica,sans-Serif" font-size="10.00" fill="#000000">Base &gt;</text>
</g>
<!-- Node14&#45;&gt;Node13 -->
<g id="edge10" class="edge">
<title>Node14&#45;&gt;Node13</title>
<path fill="none" stroke="#191970" d="M740.3684,-145.5C800.1586,-145.5 873.4543,-145.5 931.9206,-145.5"/>
<polygon fill="#191970" stroke="#191970" points="740.1328,-142.0001 730.1327,-145.5 740.1327,-149.0001 740.1328,-142.0001"/>
</g>
<!-- Node15 -->
<g id="node11" class="node">
<title>Node15</title>
<g id="a_node11"><a xlink:href="classgko_1_1EnablePolymorphicAssignment.html" target="_top" xlink:title=" ">
<polygon fill="#ffffff" stroke="#000000" points="1346.5,-267.5 1346.5,-297.5 1538.5,-297.5 1538.5,-267.5 1346.5,-267.5"/>
<text text-anchor="start" x="1354.5" y="-285.5" font-family="Helvetica,sans-Serif" font-size="10.00" fill="#000000">gko::EnablePolymorphicAssignment</text>
<text text-anchor="middle" x="1442.5" y="-274.5" font-family="Helvetica,sans-Serif" font-size="10.00" fill="#000000">&lt; Ell&lt; ValueType, IndexType &gt; &gt;</text>
</a>
</g>
</g>
<!-- Node15&#45;&gt;Node2 -->
<g id="edge13" class="edge">
<title>Node15&#45;&gt;Node2</title>
<path fill="none" stroke="#191970" d="M1548.9808,-283.0492C1707.1784,-283.8652 2000.593,-285.3786 2140.2385,-286.0989"/>
<polygon fill="#191970" stroke="#191970" points="1548.7771,-279.5482 1538.7592,-282.9965 1548.7409,-286.5481 1548.7771,-279.5482"/>
</g>
<!-- Node16 -->
<g id="node12" class="node">
<title>Node16</title>
<g id="a_node12"><a xlink:href="classgko_1_1ConvertibleTo.html" target="_top" xlink:title=" ">
<polygon fill="#ffffff" stroke="#000000" points="945,-239.5 945,-269.5 1124,-269.5 1124,-239.5 945,-239.5"/>
<text text-anchor="start" x="953" y="-257.5" font-family="Helvetica,sans-Serif" font-size="10.00" fill="#000000">gko::ConvertibleTo</text>
<text text-anchor="middle" x="1034.5" y="-246.5" font-family="Helvetica,sans-Serif" font-size="10.00" fill="#000000">&lt; Ell&lt; ValueType, IndexType &gt; &gt;</text>
</a>
</g>
</g>
<!-- Node16&#45;&gt;Node15 -->
<g id="edge14" class="edge">
<title>Node16&#45;&gt;Node15</title>
<path fill="none" stroke="#191970" d="M1134.237,-261.3447C1198.8466,-265.7787 1282.539,-271.5223 1346.412,-275.9057"/>
<polygon fill="#191970" stroke="#191970" points="1134.2535,-257.8377 1124.0373,-260.6447 1133.7742,-264.8213 1134.2535,-257.8377"/>
</g>
<!-- Node17 -->
<g id="node13" class="node">
<title>Node17</title>
<g id="a_node13"><a xlink:href="classgko_1_1ConvertibleTo.html" target="_top" xlink:title="ConvertibleTo interface is used to mark that the implementer can be converted to the object of Result...">
<polygon fill="#ffffff" stroke="#000000" points="576,-370.5 576,-400.5 683,-400.5 683,-370.5 576,-370.5"/>
<text text-anchor="start" x="584" y="-388.5" font-family="Helvetica,sans-Serif" font-size="10.00" fill="#000000">gko::ConvertibleTo</text>
<text text-anchor="middle" x="629.5" y="-377.5" font-family="Helvetica,sans-Serif" font-size="10.00" fill="#000000">&lt; ResultType &gt;</text>
</a>
</g>
</g>
<!-- Node17&#45;&gt;Node16 -->
<g id="edge15" class="edge">
<title>Node17&#45;&gt;Node16</title>
<path fill="none" stroke="#ffa500" stroke-dasharray="5,2" d="M656.6483,-364.1633C679.6939,-347.1076 714.2994,-323.9077 748,-310.5 811.3372,-285.3015 887.205,-271.1231 944.9531,-263.3408"/>
<polygon fill="#ffa500" stroke="#ffa500" points="654.2926,-361.5558 648.4078,-370.366 658.5023,-367.1485 654.2926,-361.5558"/>
<text text-anchor="middle" x="831" y="-313.5" font-family="Helvetica,sans-Serif" font-size="10.00" fill="#000000"> &lt; Ell&lt; ValueType, IndexType &gt; &gt;</text>
</g>
<!-- Node18 -->
<g id="node14" class="node">
<title>Node18</title>
<g id="a_node14"><a xlink:href="classgko_1_1EnablePolymorphicAssignment.html" target="_top" xlink:title="This mixin is used to enable a default PolymorphicObject::copy_from() implementation for objects that...">
<polygon fill="#ffffff" stroke="#000000" points="938.5,-288.5 938.5,-318.5 1130.5,-318.5 1130.5,-288.5 938.5,-288.5"/>
<text text-anchor="start" x="946.5" y="-306.5" font-family="Helvetica,sans-Serif" font-size="10.00" fill="#000000">gko::EnablePolymorphicAssignment</text>
<text text-anchor="middle" x="1034.5" y="-295.5" font-family="Helvetica,sans-Serif" font-size="10.00" fill="#000000">&lt; ConcreteType, ResultType &gt;</text>
</a>
</g>
</g>
<!-- Node17&#45;&gt;Node18 -->
<g id="edge17" class="edge">
<title>Node17&#45;&gt;Node18</title>
<path fill="none" stroke="#191970" d="M693.3084,-370.5384C710.9948,-366.5067 730.2197,-362.2311 748,-358.5 816.652,-344.0937 894.8783,-329.1771 952.225,-318.519"/>
<polygon fill="#191970" stroke="#191970" points="692.0612,-367.2334 683.0953,-372.8781 693.6244,-374.0566 692.0612,-367.2334"/>
</g>
<!-- Node23 -->
<g id="node19" class="node">
<title>Node23</title>
<g id="a_node19"><a xlink:href="classgko_1_1ConvertibleTo.html" target="_top" xlink:title=" ">
<polygon fill="#ffffff" stroke="#000000" points="979.5,-337.5 979.5,-367.5 1089.5,-367.5 1089.5,-337.5 979.5,-337.5"/>
<text text-anchor="start" x="987.5" y="-355.5" font-family="Helvetica,sans-Serif" font-size="10.00" fill="#000000">gko::ConvertibleTo</text>
<text text-anchor="middle" x="1034.5" y="-344.5" font-family="Helvetica,sans-Serif" font-size="10.00" fill="#000000">&lt; ConcreteLinOp &gt;</text>
</a>
</g>
</g>
<!-- Node17&#45;&gt;Node23 -->
<g id="edge26" class="edge">
<title>Node17&#45;&gt;Node23</title>
<path fill="none" stroke="#ffa500" stroke-dasharray="5,2" d="M693.5551,-380.2807C772.3148,-373.8632 904.6793,-363.078 979.1976,-357.0061"/>
<polygon fill="#ffa500" stroke="#ffa500" points="692.9636,-376.8172 683.2809,-381.1179 693.5321,-383.7941 692.9636,-376.8172"/>
<text text-anchor="middle" x="831" y="-378.5" font-family="Helvetica,sans-Serif" font-size="10.00" fill="#000000"> &lt; ConcreteLinOp &gt;</text>
</g>
<!-- Node26 -->
<g id="node22" class="node">
<title>Node26</title>
<g id="a_node22"><a xlink:href="classgko_1_1ConvertibleTo.html" target="_top" xlink:title=" ">
<polygon fill="#ffffff" stroke="#000000" points="1156,-421 1156,-462 1323,-462 1323,-421 1156,-421"/>
<text text-anchor="start" x="1164" y="-450" font-family="Helvetica,sans-Serif" font-size="10.00" fill="#000000">gko::ConvertibleTo</text>
<text text-anchor="start" x="1164" y="-439" font-family="Helvetica,sans-Serif" font-size="10.00" fill="#000000">&lt; Ell&lt; next_precision</text>
<text text-anchor="middle" x="1239.5" y="-428" font-family="Helvetica,sans-Serif" font-size="10.00" fill="#000000">&lt; ValueType &gt;, IndexType &gt; &gt;</text>
</a>
</g>
</g>
<!-- Node17&#45;&gt;Node26 -->
<g id="edge31" class="edge">
<title>Node17&#45;&gt;Node26</title>
<path fill="none" stroke="#ffa500" stroke-dasharray="5,2" d="M684.0838,-403.4669C703.9851,-409.2792 726.8051,-415.0974 748,-418.5 889.9076,-441.2817 1057.5861,-444.0527 1155.8644,-443.2756"/>
<polygon fill="#ffa500" stroke="#ffa500" points="684.8522,-400.0436 674.2687,-400.5331 682.8475,-406.7504 684.8522,-400.0436"/>
<text text-anchor="start" x="755.5" y="-449.5" font-family="Helvetica,sans-Serif" font-size="10.00" fill="#000000"> &lt; Ell&lt; next_precision</text>
<text text-anchor="middle" x="831" y="-438.5" font-family="Helvetica,sans-Serif" font-size="10.00" fill="#000000">&lt; ValueType &gt;, IndexType &gt; &gt;</text>
</g>
<!-- Node27 -->
<g id="node23" class="node">
<title>Node27</title>
<g id="a_node23"><a xlink:href="classgko_1_1ConvertibleTo.html" target="_top" xlink:title=" ">
<polygon fill="#ffffff" stroke="#000000" points="1561,-367.5 1561,-397.5 1703,-397.5 1703,-367.5 1561,-367.5"/>
<text text-anchor="start" x="1569" y="-385.5" font-family="Helvetica,sans-Serif" font-size="10.00" fill="#000000">gko::ConvertibleTo</text>
<text text-anchor="middle" x="1632" y="-374.5" font-family="Helvetica,sans-Serif" font-size="10.00" fill="#000000">&lt; Dense&lt; ValueType &gt; &gt;</text>
</a>
</g>
</g>
<!-- Node17&#45;&gt;Node27 -->
<g id="edge33" class="edge">
<title>Node17&#45;&gt;Node27</title>
<path fill="none" stroke="#ffa500" stroke-dasharray="5,2" d="M693.381,-388.6897C711.0677,-389.4383 730.2746,-390.1262 748,-390.5 821.7614,-392.0555 840.2234,-390.911 914,-390.5 1151.0071,-389.1797 1432.0007,-385.408 1560.92,-383.5543"/>
<polygon fill="#ffa500" stroke="#ffa500" points="693.3088,-385.1834 683.1657,-388.244 693.0035,-392.1767 693.3088,-385.1834"/>
<text text-anchor="middle" x="1034.5" y="-392.5" font-family="Helvetica,sans-Serif" font-size="10.00" fill="#000000"> &lt; Dense&lt; ValueType &gt; &gt;</text>
</g>
<!-- Node28 -->
<g id="node24" class="node">
<title>Node28</title>
<g id="a_node24"><a xlink:href="classgko_1_1ConvertibleTo.html" target="_top" xlink:title=" ">
<polygon fill="#ffffff" stroke="#000000" points="1918,-468.5 1918,-498.5 2100,-498.5 2100,-468.5 1918,-468.5"/>
<text text-anchor="start" x="1926" y="-486.5" font-family="Helvetica,sans-Serif" font-size="10.00" fill="#000000">gko::ConvertibleTo</text>
<text text-anchor="middle" x="2009" y="-475.5" font-family="Helvetica,sans-Serif" font-size="10.00" fill="#000000">&lt; Csr&lt; ValueType, IndexType &gt; &gt;</text>
</a>
</g>
</g>
<!-- Node17&#45;&gt;Node28 -->
<g id="edge35" class="edge">
<title>Node17&#45;&gt;Node28</title>
<path fill="none" stroke="#ffa500" stroke-dasharray="5,2" d="M654.7287,-406.9258C677.5014,-424.9181 712.7493,-449.5469 748,-461.5 869.0115,-502.5338 906.7207,-485.5 1034.5,-485.5 1034.5,-485.5 1034.5,-485.5 1632,-485.5 1729.6876,-485.5 1841.6115,-484.8202 1917.9681,-484.2533"/>
<polygon fill="#ffa500" stroke="#ffa500" points="656.9075,-404.1865 646.9263,-400.6331 652.513,-409.6353 656.9075,-404.1865"/>
<text text-anchor="middle" x="1239.5" y="-488.5" font-family="Helvetica,sans-Serif" font-size="10.00" fill="#000000"> &lt; Csr&lt; ValueType, IndexType &gt; &gt;</text>
</g>
<!-- Node18&#45;&gt;Node15 -->
<g id="edge16" class="edge">
<title>Node18&#45;&gt;Node15</title>
<path fill="none" stroke="#ffa500" stroke-dasharray="5,2" d="M1141.1297,-293.4428C1145.8151,-293.103 1150.4547,-292.7863 1155,-292.5 1218.6765,-288.4894 1290.3954,-285.9913 1346.273,-284.4949"/>
<polygon fill="#ffa500" stroke="#ffa500" points="1140.5264,-289.9783 1130.8182,-294.2212 1141.0533,-296.9585 1140.5264,-289.9783"/>
<text text-anchor="middle" x="1239.5" y="-295.5" font-family="Helvetica,sans-Serif" font-size="10.00" fill="#000000"> &lt; Ell&lt; ValueType, IndexType &gt; &gt;</text>
</g>
<!-- Node22 -->
<g id="node18" class="node">
<title>Node22</title>
<g id="a_node18"><a xlink:href="classgko_1_1EnablePolymorphicAssignment.html" target="_top" xlink:title=" ">
<polygon fill="#ffffff" stroke="#000000" points="1346.5,-317.5 1346.5,-347.5 1538.5,-347.5 1538.5,-317.5 1346.5,-317.5"/>
<text text-anchor="start" x="1354.5" y="-335.5" font-family="Helvetica,sans-Serif" font-size="10.00" fill="#000000">gko::EnablePolymorphicAssignment</text>
<text text-anchor="middle" x="1442.5" y="-324.5" font-family="Helvetica,sans-Serif" font-size="10.00" fill="#000000">&lt; ConcreteLinOp &gt;</text>
</a>
</g>
</g>
<!-- Node18&#45;&gt;Node22 -->
<g id="edge27" class="edge">
<title>Node18&#45;&gt;Node22</title>
<path fill="none" stroke="#ffa500" stroke-dasharray="5,2" d="M1140.7328,-311.0509C1204.3309,-315.5713 1284.5326,-321.2719 1346.2658,-325.6598"/>
<polygon fill="#ffa500" stroke="#ffa500" points="1140.8967,-307.5538 1130.6737,-310.3359 1140.4003,-314.5362 1140.8967,-307.5538"/>
<text text-anchor="middle" x="1239.5" y="-326.5" font-family="Helvetica,sans-Serif" font-size="10.00" fill="#000000"> &lt; ConcreteLinOp &gt;</text>
</g>
<!-- Node19 -->
<g id="node15" class="node">
<title>Node19</title>
<g id="a_node15"><a xlink:href="classgko_1_1EnableLinOp.html" target="_top" xlink:title="The EnableLinOp mixin can be used to provide sensible default implementations of the majority of the ...">
<polygon fill="#ffffff" stroke="#000000" points="1732.5,-311.5 1732.5,-341.5 1888.5,-341.5 1888.5,-311.5 1732.5,-311.5"/>
<text text-anchor="start" x="1740.5" y="-329.5" font-family="Helvetica,sans-Serif" font-size="10.00" fill="#000000">gko::EnableLinOp&lt; Concrete</text>
<text text-anchor="middle" x="1810.5" y="-318.5" font-family="Helvetica,sans-Serif" font-size="10.00" fill="#000000">LinOp, PolymorphicBase &gt;</text>
</a>
</g>
</g>
<!-- Node19&#45;&gt;Node2 -->
<g id="edge18" class="edge">
<title>Node19&#45;&gt;Node2</title>
<path fill="none" stroke="#ffa500" stroke-dasharray="5,2" d="M1898.9814,-317.8147C1970.8782,-310.7574 2071.3125,-300.8988 2140.1762,-294.1391"/>
<polygon fill="#ffa500" stroke="#ffa500" points="1898.1982,-314.3747 1888.5879,-318.8349 1898.8821,-321.3412 1898.1982,-314.3747"/>
<text text-anchor="middle" x="2009" y="-318.5" font-family="Helvetica,sans-Serif" font-size="10.00" fill="#000000"> &lt; Ell&lt; ValueType, IndexType &gt; &gt;</text>
</g>
<!-- Node20&#45;&gt;Node19 -->
<g id="edge19" class="edge">
<title>Node20&#45;&gt;Node19</title>
<path fill="none" stroke="#191970" d="M1500.1036,-228.6577C1572.5167,-251.4835 1695.4752,-290.2422 1762.8523,-311.4806"/>
<polygon fill="#191970" stroke="#191970" points="1500.8219,-225.2144 1490.2323,-225.5461 1498.7175,-231.8906 1500.8219,-225.2144"/>
</g>
<!-- Node21&#45;&gt;Node20 -->
<g id="edge20" class="edge">
<title>Node21&#45;&gt;Node20</title>
<path fill="none" stroke="#191970" d="M738.6122,-210.5C896.9635,-210.5 1188.2617,-210.5 1341.765,-210.5"/>
<polygon fill="#191970" stroke="#191970" points="738.377,-207.0001 728.377,-210.5 738.3769,-214.0001 738.377,-207.0001"/>
</g>
<!-- Node22&#45;&gt;Node19 -->
<g id="edge24" class="edge">
<title>Node22&#45;&gt;Node19</title>
<path fill="none" stroke="#191970" d="M1548.7539,-330.7676C1607.4252,-329.811 1679.0194,-328.6437 1732.4914,-327.7719"/>
<polygon fill="#191970" stroke="#191970" points="1548.6486,-327.2688 1538.707,-330.9314 1548.7628,-334.2678 1548.6486,-327.2688"/>
</g>
<!-- Node23&#45;&gt;Node22 -->
<g id="edge25" class="edge">
<title>Node23&#45;&gt;Node22</title>
<path fill="none" stroke="#191970" d="M1099.9699,-349.3763C1158.6475,-346.5666 1247.0756,-342.3074 1324,-338.5 1331.3038,-338.1385 1338.8607,-337.7619 1346.46,-337.3813"/>
<polygon fill="#191970" stroke="#191970" points="1099.5526,-345.8922 1089.7314,-349.8663 1099.8873,-352.8842 1099.5526,-345.8922"/>
</g>
<!-- Node24 -->
<g id="node20" class="node">
<title>Node24</title>
<g id="a_node20"><a xlink:href="classgko_1_1EnableCreateMethod.html" target="_top" xlink:title=" ">
<polygon fill="#ffffff" stroke="#000000" points="2128.5,-222.5 2128.5,-252.5 2307.5,-252.5 2307.5,-222.5 2128.5,-222.5"/>
<text text-anchor="start" x="2136.5" y="-240.5" font-family="Helvetica,sans-Serif" font-size="10.00" fill="#000000">gko::EnableCreateMethod</text>
<text text-anchor="middle" x="2218" y="-229.5" font-family="Helvetica,sans-Serif" font-size="10.00" fill="#000000">&lt; Ell&lt; ValueType, IndexType &gt; &gt;</text>
</a>
</g>
</g>
<!-- Node24&#45;&gt;Node1 -->
<g id="edge28" class="edge">
<title>Node24&#45;&gt;Node1</title>
<path fill="none" stroke="#191970" d="M2318.0293,-237.5C2330.3498,-237.5 2342.7979,-237.5 2354.7194,-237.5"/>
<polygon fill="#191970" stroke="#191970" points="2317.7245,-234.0001 2307.7245,-237.5 2317.7244,-241.0001 2317.7245,-234.0001"/>
</g>
<!-- Node25 -->
<g id="node21" class="node">
<title>Node25</title>
<g id="a_node21"><a xlink:href="classgko_1_1EnableCreateMethod.html" target="_top" xlink:title="This mixin implements a static create() method on ConcreteType that dynamically allocates the memory,...">
<polygon fill="#ffffff" stroke="#000000" points="1739.5,-163.5 1739.5,-193.5 1881.5,-193.5 1881.5,-163.5 1739.5,-163.5"/>
<text text-anchor="start" x="1747.5" y="-181.5" font-family="Helvetica,sans-Serif" font-size="10.00" fill="#000000">gko::EnableCreateMethod</text>
<text text-anchor="middle" x="1810.5" y="-170.5" font-family="Helvetica,sans-Serif" font-size="10.00" fill="#000000">&lt; ConcreteType &gt;</text>
</a>
</g>
</g>
<!-- Node25&#45;&gt;Node24 -->
<g id="edge29" class="edge">
<title>Node25&#45;&gt;Node24</title>
<path fill="none" stroke="#ffa500" stroke-dasharray="5,2" d="M1892.2396,-190.3347C1960.6089,-200.2336 2057.993,-214.3333 2128.4577,-224.5356"/>
<polygon fill="#ffa500" stroke="#ffa500" points="1892.3457,-186.8136 1881.9474,-188.8445 1891.3427,-193.7414 1892.3457,-186.8136"/>
<text text-anchor="middle" x="2009" y="-222.5" font-family="Helvetica,sans-Serif" font-size="10.00" fill="#000000"> &lt; Ell&lt; ValueType, IndexType &gt; &gt;</text>
</g>
<!-- Node26&#45;&gt;Node1 -->
<g id="edge30" class="edge">
<title>Node26&#45;&gt;Node1</title>
<path fill="none" stroke="#191970" d="M1333.8183,-441.875C1413.3246,-442.1588 1530.1022,-442.5 1632,-442.5 1632,-442.5 1632,-442.5 2218,-442.5 2327.9775,-442.5 2403.7071,-299.9164 2425.8206,-252.5741"/>
<polygon fill="#191970" stroke="#191970" points="1333.352,-438.3734 1323.3394,-441.8372 1333.3267,-445.3733 1333.352,-438.3734"/>
</g>
<!-- Node27&#45;&gt;Node1 -->
<g id="edge32" class="edge">
<title>Node27&#45;&gt;Node1</title>
<path fill="none" stroke="#191970" d="M1713.6146,-386.1363C1844.9264,-389.3552 2109.4823,-384.8961 2318,-311.5 2355.7309,-298.2191 2393.545,-270.2235 2414.8891,-252.7291"/>
<polygon fill="#191970" stroke="#191970" points="1713.3333,-382.6276 1703.2433,-385.8591 1713.1462,-389.6251 1713.3333,-382.6276"/>
</g>
<!-- Node28&#45;&gt;Node1 -->
<g id="edge34" class="edge">
<title>Node28&#45;&gt;Node1</title>
<path fill="none" stroke="#191970" d="M2100.6075,-499.6627C2171.5999,-506.9939 2269.0062,-505.1295 2337,-456.5 2407.0061,-406.4313 2426.2679,-293.6487 2431.0537,-252.7117"/>
<polygon fill="#191970" stroke="#191970" points="2100.6574,-496.1467 2090.3315,-498.5188 2099.8829,-503.1038 2100.6574,-496.1467"/>
</g>
<!-- Node29 -->
<g id="node25" class="node">
<title>Node29</title>
<g id="a_node25"><a xlink:href="classgko_1_1DiagonalExtractable.html" target="_top" xlink:title="The diagonal of a LinOp implementing this interface can be extracted.">
<polygon fill="#ffffff" stroke="#000000" points="2148,-173.5 2148,-203.5 2288,-203.5 2288,-173.5 2148,-173.5"/>
<text text-anchor="start" x="2156" y="-191.5" font-family="Helvetica,sans-Serif" font-size="10.00" fill="#000000">gko::DiagonalExtractable</text>
<text text-anchor="middle" x="2218" y="-180.5" font-family="Helvetica,sans-Serif" font-size="10.00" fill="#000000">&lt; ValueType &gt;</text>
</a>
</g>
</g>
<!-- Node29&#45;&gt;Node1 -->
<g id="edge36" class="edge">
<title>Node29&#45;&gt;Node1</title>
<path fill="none" stroke="#191970" d="M2293.8671,-205.8309C2317.6819,-211.2712 2343.7605,-217.2285 2366.8097,-222.4938"/>
<polygon fill="#191970" stroke="#191970" points="2294.3431,-202.3496 2283.8148,-203.5346 2292.7842,-209.1738 2294.3431,-202.3496"/>
</g>
<!-- Node30 -->
<g id="node26" class="node">
<title>Node30</title>
<g id="a_node26"><a xlink:href="classgko_1_1DiagonalLinOpExtractable.html" target="_top" xlink:title="The diagonal of a LinOp can be extracted.">
<polygon fill="#ffffff" stroke="#000000" points="1727,-125 1727,-144 1894,-144 1894,-125 1727,-125"/>
<text text-anchor="middle" x="1810.5" y="-132" font-family="Helvetica,sans-Serif" font-size="10.00" fill="#000000">gko::DiagonalLinOpExtractable</text>
</a>
</g>
</g>
<!-- Node30&#45;&gt;Node29 -->
<g id="edge37" class="edge">
<title>Node30&#45;&gt;Node29</title>
<path fill="none" stroke="#191970" d="M1904.2003,-133.5603C1961.5229,-134.9606 2035.9116,-140.3377 2100,-156.5 2108.4888,-158.6408 2109.709,-161.689 2118,-164.5 2127.638,-167.7677 2137.9416,-170.7701 2148.1367,-173.4633"/>
<polygon fill="#191970" stroke="#191970" points="1904.1362,-130.0583 1894.0656,-133.3496 1903.9907,-137.0568 1904.1362,-130.0583"/>
</g>
<!-- Node31 -->
<g id="node27" class="node">
<title>Node31</title>
<g id="a_node27"><a xlink:href="classgko_1_1ReadableFromMatrixData.html" target="_top" xlink:title="A LinOp implementing this interface can read its data from a matrix_data structure.">
<polygon fill="#ffffff" stroke="#000000" points="2136,-124.5 2136,-154.5 2300,-154.5 2300,-124.5 2136,-124.5"/>
<text text-anchor="start" x="2144" y="-142.5" font-family="Helvetica,sans-Serif" font-size="10.00" fill="#000000">gko::ReadableFromMatrixData</text>
<text text-anchor="middle" x="2218" y="-131.5" font-family="Helvetica,sans-Serif" font-size="10.00" fill="#000000">&lt; ValueType, IndexType &gt;</text>
</a>
</g>
</g>
<!-- Node31&#45;&gt;Node1 -->
<g id="edge38" class="edge">
<title>Node31&#45;&gt;Node1</title>
<path fill="none" stroke="#191970" d="M2299.9822,-157.6724C2306.1591,-159.7449 2312.2285,-162.017 2318,-164.5 2353.7321,-179.8724 2390.969,-205.7545 2412.927,-222.2127"/>
<polygon fill="#191970" stroke="#191970" points="2300.8045,-154.2616 2290.2144,-154.5785 2298.6907,-160.9348 2300.8045,-154.2616"/>
</g>
<!-- Node32 -->
<g id="node28" class="node">
<title>Node32</title>
<g id="a_node28"><a xlink:href="classgko_1_1WritableToMatrixData.html" target="_top" xlink:title="A LinOp implementing this interface can write its data to a matrix_data structure.">
<polygon fill="#ffffff" stroke="#000000" points="2145,-75.5 2145,-105.5 2291,-105.5 2291,-75.5 2145,-75.5"/>
<text text-anchor="start" x="2153" y="-93.5" font-family="Helvetica,sans-Serif" font-size="10.00" fill="#000000">gko::WritableToMatrixData</text>
<text text-anchor="middle" x="2218" y="-82.5" font-family="Helvetica,sans-Serif" font-size="10.00" fill="#000000">&lt; ValueType, IndexType &gt;</text>
</a>
</g>
</g>
<!-- Node32&#45;&gt;Node1 -->
<g id="edge39" class="edge">
<title>Node32&#45;&gt;Node1</title>
<path fill="none" stroke="#191970" d="M2300.7725,-107.1114C2306.7697,-109.5388 2312.5823,-112.3181 2318,-115.5 2365.0889,-143.156 2404.7666,-195.9876 2422.5229,-222.1032"/>
<polygon fill="#191970" stroke="#191970" points="2301.8197,-103.767 2291.2265,-103.5794 2299.3906,-110.3321 2301.8197,-103.767"/>
</g>
<!-- Node33 -->
<g id="node29" class="node">
<title>Node33</title>
<g id="a_node29"><a xlink:href="classgko_1_1EnableAbsoluteComputation.html" target="_top" xlink:title=" ">
<polygon fill="#ffffff" stroke="#000000" points="2118,-15 2118,-56 2318,-56 2318,-15 2118,-15"/>
<text text-anchor="start" x="2126" y="-44" font-family="Helvetica,sans-Serif" font-size="10.00" fill="#000000">gko::EnableAbsoluteComputation</text>
<text text-anchor="start" x="2126" y="-33" font-family="Helvetica,sans-Serif" font-size="10.00" fill="#000000">&lt; remove_complex&lt; Ell&lt; ValueType,</text>
<text text-anchor="middle" x="2218" y="-22" font-family="Helvetica,sans-Serif" font-size="10.00" fill="#000000"> IndexType &gt; &gt; &gt;</text>
</a>
</g>
</g>
<!-- Node33&#45;&gt;Node1 -->
<g id="edge40" class="edge">
<title>Node33&#45;&gt;Node1</title>
<path fill="none" stroke="#191970" d="M2309.6668,-60.9193C2312.5523,-62.6595 2315.3407,-64.5172 2318,-66.5 2375.1422,-109.1061 2412.7592,-189.1555 2426.5802,-222.4145"/>
<polygon fill="#191970" stroke="#191970" points="2311.2038,-57.7706 2300.7508,-56.0429 2307.8449,-63.9121 2311.2038,-57.7706"/>
</g>
<!-- Node34 -->
<g id="node30" class="node">
<title>Node34</title>
<g id="a_node30"><a xlink:href="classgko_1_1AbsoluteComputable.html" target="_top" xlink:title="The AbsoluteComputable is an interface that allows to get the component wise absolute of a LinOp.">
<polygon fill="#ffffff" stroke="#000000" points="1371,-21 1371,-40 1514,-40 1514,-21 1371,-21"/>
<text text-anchor="middle" x="1442.5" y="-28" font-family="Helvetica,sans-Serif" font-size="10.00" fill="#000000">gko::AbsoluteComputable</text>
</a>
</g>
</g>
<!-- Node34&#45;&gt;Node33 -->
<g id="edge41" class="edge">
<title>Node34&#45;&gt;Node33</title>
<path fill="none" stroke="#191970" d="M1524.2413,-35.7795C1648.6064,-43.0396 1892.7865,-54.2645 2100,-45.5 2105.8542,-45.2524 2111.8675,-44.936 2117.9318,-44.5691"/>
<polygon fill="#191970" stroke="#191970" points="1524.2291,-32.2728 1514.0402,-35.1771 1523.8164,-39.2606 1524.2291,-32.2728"/>
</g>
<!-- Node35 -->
<g id="node31" class="node">
<title>Node35</title>
<g id="a_node31"><a xlink:href="classgko_1_1EnableAbsoluteComputation.html" target="_top" xlink:title="The EnableAbsoluteComputation mixin provides the default implementations of compute_absolute_linop an...">
<polygon fill="#ffffff" stroke="#000000" points="1721,-.5 1721,-30.5 1900,-30.5 1900,-.5 1721,-.5"/>
<text text-anchor="start" x="1729" y="-18.5" font-family="Helvetica,sans-Serif" font-size="10.00" fill="#000000">gko::EnableAbsoluteComputation</text>
<text text-anchor="middle" x="1810.5" y="-7.5" font-family="Helvetica,sans-Serif" font-size="10.00" fill="#000000">&lt; AbsoluteLinOp &gt;</text>
</a>
</g>
</g>
<!-- Node34&#45;&gt;Node35 -->
<g id="edge43" class="edge">
<title>Node34&#45;&gt;Node35</title>
<path fill="none" stroke="#191970" d="M1524.6004,-27.1535C1582.8732,-24.7783 1661.0623,-21.5912 1720.9431,-19.1504"/>
<polygon fill="#191970" stroke="#191970" points="1524.1768,-23.6678 1514.3277,-27.5722 1524.462,-30.662 1524.1768,-23.6678"/>
</g>
<!-- Node35&#45;&gt;Node33 -->
<g id="edge42" class="edge">
<title>Node35&#45;&gt;Node33</title>
<path fill="none" stroke="#ffa500" stroke-dasharray="5,2" d="M1910.4769,-16.4485C1966.2899,-17.4334 2037.0592,-19.4355 2100,-23.5 2105.8565,-23.8782 2111.8714,-24.3209 2117.937,-24.8091"/>
<polygon fill="#ffa500" stroke="#ffa500" points="1910.2922,-12.945 1900.2347,-16.2761 1910.1744,-19.944 1910.2922,-12.945"/>
<text text-anchor="start" x="1933.5" y="-37.5" font-family="Helvetica,sans-Serif" font-size="10.00" fill="#000000"> &lt; remove_complex&lt; Ell</text>
<text text-anchor="middle" x="2009" y="-26.5" font-family="Helvetica,sans-Serif" font-size="10.00" fill="#000000">&lt; ValueType, IndexType &gt; &gt; &gt;</text>
</g>
</g>
</svg>
        <g id="navigator" transform="translate(0 0)" fill="#404254">
                <rect fill="#f2f5e9" fill-opacity="0.5" stroke="#606060" stroke-width=".5" x="0" y="0" width="60" height="60"/>
                <use id="zoomplus" xlink:href="#zoomPlus" x="17" y="9" onmousedown="handleZoom(evt,'in')"/>
                <use id="zoomminus" xlink:href="#zoomMin" x="42" y="9" onmousedown="handleZoom(evt,'out')"/>
                <use id="reset" xlink:href="#resetDef" x="30" y="36" onmousedown="handleReset()"/>
                <g id="arrowUp" xlink:href="#dirArrow" transform="translate(30 24)" onmousedown="handlePan(0,-1)">
                  <use xlink:href="#rim" fill="#404040">
                        <set attributeName="fill" to="#808080" begin="arrowUp.mouseover" end="arrowUp.mouseout"/>
                  </use>
                  <path fill="none" stroke="white" stroke-width="1.5" d="M0,-3.0v7 M-2.5,-0.5L0,-3.0L2.5,-0.5"/>
                </g>
                <g id="arrowRight" xlink:href="#dirArrow" transform="rotate(90) translate(36 -43)" onmousedown="handlePan(1,0)">
                  <use xlink:href="#rim" fill="#404040">
                        <set attributeName="fill" to="#808080" begin="arrowRight.mouseover" end="arrowRight.mouseout"/>
                  </use>
                  <path fill="none" stroke="white" stroke-width="1.5" d="M0,-3.0v7 M-2.5,-0.5L0,-3.0L2.5,-0.5"/>
                </g>
                <g id="arrowDown" xlink:href="#dirArrow" transform="rotate(180) translate(-30 -48)" onmousedown="handlePan(0,1)">
                  <use xlink:href="#rim" fill="#404040">
                        <set attributeName="fill" to="#808080" begin="arrowDown.mouseover" end="arrowDown.mouseout"/>
                  </use>
                  <path fill="none" stroke="white" stroke-width="1.5" d="M0,-3.0v7 M-2.5,-0.5L0,-3.0L2.5,-0.5"/>
                </g>
                <g id="arrowLeft" xlink:href="#dirArrow" transform="rotate(270) translate(-36 17)" onmousedown="handlePan(-1,0)">
                  <use xlink:href="#rim" fill="#404040">
                        <set attributeName="fill" to="#808080" begin="arrowLeft.mouseover" end="arrowLeft.mouseout"/>
                  </use>
                  <path fill="none" stroke="white" stroke-width="1.5" d="M0,-3.0v7 M-2.5,-0.5L0,-3.0L2.5,-0.5"/>
                </g>
        </g>
        <svg viewBox="0 0 15 15" width="100%" height="30px" preserveAspectRatio="xMaxYMin meet">
         <g id="arrow_out" transform="scale(0.3 0.3)">
          <a xlink:href="classgko_1_1matrix_1_1Ell__inherit__graph_org.svg" target="_base">
           <rect id="button" ry="5" rx="5" y="6" x="6" height="38" width="38"
                fill="#f2f5e9" fill-opacity="0.5" stroke="#606060" stroke-width="1.0"/>
           <path id="arrow"
             d="M 11.500037,31.436501 C 11.940474,20.09759 22.043105,11.32322 32.158766,21.979434 L 37.068811,17.246167 C 37.068811,17.246167 37.088388,32 37.088388,32 L 22.160133,31.978069 C 22.160133,31.978069 26.997745,27.140456 26.997745,27.140456 C 18.528582,18.264221 13.291696,25.230495 11.500037,31.436501 z"
             style="fill:#404040;"/>
          </a>
         </g>
        </svg>
</svg>
