<?xml version="1.0" encoding="UTF-8" standalone="no"?>
<!DOCTYPE svg PUBLIC "-//W3C//DTD SVG 1.1//EN"
 "http://www.w3.org/Graphics/SVG/1.1/DTD/svg11.dtd">
<!-- Generated by graphviz version 2.40.1 (20161225.0304)
 -->
<!-- Title: gko::Executor Pages: 1 -->
<!--zoomable 340 -->
<svg id="main" version="1.1" xmlns="http://www.w3.org/2000/svg" xmlns:xlink="http://www.w3.org/1999/xlink" xml:space="preserve" onload="init(evt)">
<style type="text/css"><![CDATA[
.edge:hover path { stroke: red; }
.edge:hover polygon { stroke: red; fill: red; }
]]></style>
<script type="text/javascript"><![CDATA[
var edges = document.getElementsByTagName('g');
if (edges && edges.length) {
  for (var i=0;i<edges.length;i++) {
    if (edges[i].id.substr(0,4)=='edge') {
      edges[i].setAttribute('class','edge');
    }
  }
}
]]></script>
        <defs>
                <circle id="rim" cx="0" cy="0" r="7"/>
                <circle id="rim2" cx="0" cy="0" r="3.5"/>
                <g id="zoomPlus">
                        <use xlink:href="#rim" fill="#404040">
                                <set attributeName="fill" to="#808080" begin="zoomplus.mouseover" end="zoomplus.mouseout"/>
                        </use>
                        <path d="M-4,0h8M0,-4v8" fill="none" stroke="white" stroke-width="1.5" pointer-events="none"/>
                </g>
                <g id="zoomMin">
                        <use xlink:href="#rim" fill="#404040">
                                <set attributeName="fill" to="#808080" begin="zoomminus.mouseover" end="zoomminus.mouseout"/>
                        </use>
                        <path d="M-4,0h8" fill="none" stroke="white" stroke-width="1.5" pointer-events="none"/>
                </g>
                <g id="dirArrow">
                        <path fill="none" stroke="white" stroke-width="1.5" d="M0,-3.0v7 M-2.5,-0.5L0,-3.0L2.5,-0.5"/>
                </g>
               <g id="resetDef">
                       <use xlink:href="#rim2" fill="#404040">
                               <set attributeName="fill" to="#808080" begin="reset.mouseover" end="reset.mouseout"/>
                       </use>
               </g>
        </defs>

<script type="text/javascript">
var viewWidth = 1364;
var viewHeight = 340;
var sectionId = 'dynsection-0';
</script>
<script xlink:href="svgpan.js"/>
<svg id="graph" class="graph">
<g id="viewport">
<title>gko::Executor</title>
<polygon fill="#ffffff" stroke="transparent" points="-4,4 -4,-336 1360,-336 1360,4 -4,4"/>
<!-- Node1 -->
<g id="node1" class="node">
<title>Node1</title>
<g id="a_node1"><a xlink:title="The first step in using the Ginkgo library consists of creating an executor.">
<polygon fill="#bfbfbf" stroke="#000000" points="595,-158 595,-177 678,-177 678,-158 595,-158"/>
<text text-anchor="middle" x="636.5" y="-165" font-family="Helvetica,sans-Serif" font-size="10.00" fill="#000000">gko::Executor</text>
</a>
</g>
</g>
<!-- Node6 -->
<g id="node6" class="node">
<title>Node6</title>
<g id="a_node6"><a xlink:title=" ">
<polygon fill="#ffffff" stroke="#bfbfbf" points="1019,-301.5 1019,-331.5 1160,-331.5 1160,-301.5 1019,-301.5"/>
<text text-anchor="start" x="1027" y="-319.5" font-family="Helvetica,sans-Serif" font-size="10.00" fill="#000000">gko::detail::ExecutorBase</text>
<text text-anchor="middle" x="1089.5" y="-308.5" font-family="Helvetica,sans-Serif" font-size="10.00" fill="#000000">&lt; CudaExecutor &gt;</text>
</a>
</g>
</g>
<!-- Node1&#45;&gt;Node6 -->
<g id="edge5" class="edge">
<title>Node1&#45;&gt;Node6</title>
<path fill="none" stroke="#191970" d="M648.1409,-185.5336C661.7655,-205.1237 686.1708,-235.844 715,-252.5 809.9506,-307.3575 939.5178,-317.9558 1018.6963,-318.6445"/>
<polygon fill="#191970" stroke="#191970" points="650.9931,-183.503 642.5041,-177.1637 645.187,-187.4132 650.9931,-183.503"/>
</g>
<!-- Node7 -->
<g id="node7" class="node">
<title>Node7</title>
<g id="a_node7"><a xlink:title=" ">
<polygon fill="#ffffff" stroke="#bfbfbf" points="1019,-246.5 1019,-276.5 1160,-276.5 1160,-246.5 1019,-246.5"/>
<text text-anchor="start" x="1027" y="-264.5" font-family="Helvetica,sans-Serif" font-size="10.00" fill="#000000">gko::detail::ExecutorBase</text>
<text text-anchor="middle" x="1089.5" y="-253.5" font-family="Helvetica,sans-Serif" font-size="10.00" fill="#000000">&lt; DpcppExecutor &gt;</text>
</a>
</g>
</g>
<!-- Node1&#45;&gt;Node7 -->
<g id="edge6" class="edge">
<title>Node1&#45;&gt;Node7</title>
<path fill="none" stroke="#191970" d="M660.7821,-182.2045C702.5465,-206.5406 791.4662,-254.2214 874,-271.5 921.6563,-281.4769 976.4835,-278.7423 1018.9092,-273.6335"/>
<polygon fill="#191970" stroke="#191970" points="662.5301,-179.172 652.1385,-177.1067 658.974,-185.2015 662.5301,-179.172"/>
</g>
<!-- Node9 -->
<g id="node9" class="node">
<title>Node9</title>
<g id="a_node9"><a xlink:title=" ">
<polygon fill="#ffffff" stroke="#bfbfbf" points="1019,-.5 1019,-30.5 1160,-30.5 1160,-.5 1019,-.5"/>
<text text-anchor="start" x="1027" y="-18.5" font-family="Helvetica,sans-Serif" font-size="10.00" fill="#000000">gko::detail::ExecutorBase</text>
<text text-anchor="middle" x="1089.5" y="-7.5" font-family="Helvetica,sans-Serif" font-size="10.00" fill="#000000">&lt; HipExecutor &gt;</text>
</a>
</g>
</g>
<!-- Node1&#45;&gt;Node9 -->
<g id="edge8" class="edge">
<title>Node1&#45;&gt;Node9</title>
<path fill="none" stroke="#191970" d="M645.0562,-148.6518C657.0117,-124.6995 681.1202,-84.1165 715,-64.5 809.482,-9.7946 939.4801,-5.5216 1018.8289,-9.2202"/>
<polygon fill="#191970" stroke="#191970" points="641.843,-147.2581 640.6834,-157.7893 648.1573,-150.2798 641.843,-147.2581"/>
</g>
<!-- Node10 -->
<g id="node10" class="node">
<title>Node10</title>
<g id="a_node10"><a xlink:title=" ">
<polygon fill="#ffffff" stroke="#bfbfbf" points="1019,-56.5 1019,-86.5 1160,-86.5 1160,-56.5 1019,-56.5"/>
<text text-anchor="start" x="1027" y="-74.5" font-family="Helvetica,sans-Serif" font-size="10.00" fill="#000000">gko::detail::ExecutorBase</text>
<text text-anchor="middle" x="1089.5" y="-63.5" font-family="Helvetica,sans-Serif" font-size="10.00" fill="#000000">&lt; OmpExecutor &gt;</text>
</a>
</g>
</g>
<!-- Node1&#45;&gt;Node10 -->
<g id="edge9" class="edge">
<title>Node1&#45;&gt;Node10</title>
<path fill="none" stroke="#191970" d="M660.7821,-152.7955C702.5465,-128.4594 791.4662,-80.7786 874,-63.5 921.6379,-53.5269 976.4653,-55.7458 1018.8958,-60.3459"/>
<polygon fill="#191970" stroke="#191970" points="658.974,-149.7985 652.1385,-157.8933 662.5301,-155.828 658.974,-149.7985"/>
</g>
<!-- Node11 -->
<g id="node11" class="node">
<title>Node11</title>
<g id="a_node11"><a xlink:title=" ">
<polygon fill="#ffffff" stroke="#bfbfbf" points="715,-152.5 715,-182.5 856,-182.5 856,-152.5 715,-152.5"/>
<text text-anchor="start" x="723" y="-170.5" font-family="Helvetica,sans-Serif" font-size="10.00" fill="#000000">gko::detail::ExecutorBase</text>
<text text-anchor="middle" x="785.5" y="-159.5" font-family="Helvetica,sans-Serif" font-size="10.00" fill="#000000">&lt; ConcreteExecutor &gt;</text>
</a>
</g>
</g>
<!-- Node1&#45;&gt;Node11 -->
<g id="edge10" class="edge">
<title>Node1&#45;&gt;Node11</title>
<path fill="none" stroke="#191970" d="M688.228,-167.5C696.8197,-167.5 705.8585,-167.5 714.8232,-167.5"/>
<polygon fill="#191970" stroke="#191970" points="688.0048,-164.0001 678.0048,-167.5 688.0048,-171.0001 688.0048,-164.0001"/>
</g>
<!-- Node2 -->
<g id="node2" class="node">
<title>Node2</title>
<g id="a_node2"><a xlink:href="classgko_1_1log_1_1EnableLogging.html" target="_top" xlink:title=" ">
<polygon fill="#ffffff" stroke="#000000" points="425,-152.5 425,-182.5 558,-182.5 558,-152.5 425,-152.5"/>
<text text-anchor="start" x="433" y="-170.5" font-family="Helvetica,sans-Serif" font-size="10.00" fill="#000000">gko::log::EnableLogging</text>
<text text-anchor="middle" x="491.5" y="-159.5" font-family="Helvetica,sans-Serif" font-size="10.00" fill="#000000">&lt; Executor &gt;</text>
</a>
</g>
</g>
<!-- Node2&#45;&gt;Node1 -->
<g id="edge1" class="edge">
<title>Node2&#45;&gt;Node1</title>
<path fill="none" stroke="#191970" d="M568.3413,-167.5C577.4415,-167.5 586.4501,-167.5 594.791,-167.5"/>
<polygon fill="#191970" stroke="#191970" points="568.0587,-164.0001 558.0587,-167.5 568.0586,-171.0001 568.0587,-164.0001"/>
</g>
<!-- Node3 -->
<g id="node3" class="node">
<title>Node3</title>
<g id="a_node3"><a xlink:href="classgko_1_1log_1_1Loggable.html" target="_top" xlink:title="Loggable class is an interface which should be implemented by classes wanting to support logging.">
<polygon fill="#ffffff" stroke="#000000" points="176,-182 176,-201 282,-201 282,-182 176,-182"/>
<text text-anchor="middle" x="229" y="-189" font-family="Helvetica,sans-Serif" font-size="10.00" fill="#000000">gko::log::Loggable</text>
</a>
</g>
</g>
<!-- Node3&#45;&gt;Node2 -->
<g id="edge2" class="edge">
<title>Node3&#45;&gt;Node2</title>
<path fill="none" stroke="#191970" d="M292.3136,-185.7113C332.4192,-182.0445 384.2087,-177.3095 424.9261,-173.5868"/>
<polygon fill="#191970" stroke="#191970" points="291.7606,-182.2472 282.1208,-186.6432 292.398,-189.2181 291.7606,-182.2472"/>
</g>
<!-- Node4 -->
<g id="node4" class="node">
<title>Node4</title>
<g id="a_node4"><a xlink:href="classgko_1_1log_1_1EnableLogging.html" target="_top" xlink:title="EnableLogging is a mixin which should be inherited by any class which wants to enable logging.">
<polygon fill="#ffffff" stroke="#000000" points="138,-122 138,-163 320,-163 320,-122 138,-122"/>
<text text-anchor="start" x="146" y="-151" font-family="Helvetica,sans-Serif" font-size="10.00" fill="#000000">gko::log::EnableLogging</text>
<text text-anchor="start" x="146" y="-140" font-family="Helvetica,sans-Serif" font-size="10.00" fill="#000000">&lt; ConcreteLoggable, Polymorphic</text>
<text text-anchor="middle" x="229" y="-129" font-family="Helvetica,sans-Serif" font-size="10.00" fill="#000000">Base &gt;</text>
</a>
</g>
</g>
<!-- Node4&#45;&gt;Node2 -->
<g id="edge3" class="edge">
<title>Node4&#45;&gt;Node2</title>
<path fill="none" stroke="#ffa500" stroke-dasharray="5,2" d="M330.2441,-152.1423C361.8673,-155.154 395.946,-158.3996 424.5916,-161.1278"/>
<polygon fill="#ffa500" stroke="#ffa500" points="330.3599,-148.6376 320.0731,-151.1736 329.6962,-155.606 330.3599,-148.6376"/>
<text text-anchor="middle" x="372.5" y="-162.5" font-family="Helvetica,sans-Serif" font-size="10.00" fill="#000000"> &lt; Executor &gt;</text>
</g>
<!-- Node5 -->
<g id="node5" class="node">
<title>Node5</title>
<g id="a_node5"><a xlink:title=" ">
<polygon fill="#ffffff" stroke="#bfbfbf" points="0,-133 0,-152 101,-152 101,-133 0,-133"/>
<text text-anchor="middle" x="50.5" y="-140" font-family="Helvetica,sans-Serif" font-size="10.00" fill="#000000">PolymorphicBase</text>
</a>
</g>
</g>
<!-- Node5&#45;&gt;Node4 -->
<g id="edge4" class="edge">
<title>Node5&#45;&gt;Node4</title>
<path fill="none" stroke="#191970" d="M111.4269,-142.5C120.0117,-142.5 128.9864,-142.5 137.9851,-142.5"/>
<polygon fill="#191970" stroke="#191970" points="111.1735,-139.0001 101.1735,-142.5 111.1734,-146.0001 111.1735,-139.0001"/>
</g>
<!-- Node8 -->
<g id="node8" class="node">
<title>Node8</title>
<g id="a_node8"><a xlink:href="classgko_1_1DpcppExecutor.html" target="_top" xlink:title="This is the Executor subclass which represents a DPC++ enhanced device.">
<polygon fill="#ffffff" stroke="#000000" points="1233,-252 1233,-271 1347,-271 1347,-252 1233,-252"/>
<text text-anchor="middle" x="1290" y="-259" font-family="Helvetica,sans-Serif" font-size="10.00" fill="#000000">gko::DpcppExecutor</text>
</a>
</g>
</g>
<!-- Node7&#45;&gt;Node8 -->
<g id="edge7" class="edge">
<title>Node7&#45;&gt;Node8</title>
<path fill="none" stroke="#191970" d="M1170.3527,-261.5C1191.2831,-261.5 1213.3864,-261.5 1232.8225,-261.5"/>
<polygon fill="#191970" stroke="#191970" points="1170.1888,-258.0001 1160.1888,-261.5 1170.1888,-265.0001 1170.1888,-258.0001"/>
</g>
<!-- Node11&#45;&gt;Node6 -->
<g id="edge16" class="edge">
<title>Node11&#45;&gt;Node6</title>
<path fill="none" stroke="#ffa500" stroke-dasharray="5,2" d="M809.5867,-189.5591C826.6733,-204.4296 850.6333,-223.7652 874,-237.5 923.9835,-266.88 986.7633,-288.3827 1031.6473,-301.4718"/>
<polygon fill="#ffa500" stroke="#ffa500" points="811.5943,-186.6623 801.7837,-182.6619 806.9583,-191.9072 811.5943,-186.6623"/>
<text text-anchor="middle" x="924" y="-284.5" font-family="Helvetica,sans-Serif" font-size="10.00" fill="#000000"> &lt; CudaExecutor &gt;</text>
</g>
<!-- Node11&#45;&gt;Node7 -->
<g id="edge17" class="edge">
<title>Node11&#45;&gt;Node7</title>
<path fill="none" stroke="#ffa500" stroke-dasharray="5,2" d="M836.3683,-185.9427C848.6394,-190.2184 861.7469,-194.6429 874,-198.5 918.0241,-212.3582 929.6901,-213.5846 974,-226.5 995.9258,-232.8909 1020.1194,-240.1847 1040.6747,-246.4539"/>
<polygon fill="#ffa500" stroke="#ffa500" points="837.3336,-182.5721 826.7387,-182.5592 835.0131,-189.1763 837.3336,-182.5721"/>
<text text-anchor="middle" x="924" y="-229.5" font-family="Helvetica,sans-Serif" font-size="10.00" fill="#000000"> &lt; DpcppExecutor &gt;</text>
</g>
<!-- Node11&#45;&gt;Node9 -->
<g id="edge15" class="edge">
<title>Node11&#45;&gt;Node9</title>
<path fill="none" stroke="#ffa500" stroke-dasharray="5,2" d="M803.7765,-144.421C820.2404,-125.0648 846.0865,-98.0103 874,-81.5 918.6238,-55.1058 974.7846,-38.3532 1018.5858,-28.3323"/>
<polygon fill="#ffa500" stroke="#ffa500" points="801.0176,-142.2647 797.3163,-152.192 806.4005,-146.7396 801.0176,-142.2647"/>
<text text-anchor="middle" x="924" y="-84.5" font-family="Helvetica,sans-Serif" font-size="10.00" fill="#000000"> &lt; HipExecutor &gt;</text>
</g>
<!-- Node11&#45;&gt;Node10 -->
<g id="edge18" class="edge">
<title>Node11&#45;&gt;Node10</title>
<path fill="none" stroke="#ffa500" stroke-dasharray="5,2" d="M822.8494,-147.7614C838.3753,-140.0901 856.7655,-131.6803 874,-125.5 921.198,-108.5749 976.0323,-94.9142 1018.5761,-85.567"/>
<polygon fill="#ffa500" stroke="#ffa500" points="820.9516,-144.7979 813.5883,-152.4158 824.0951,-151.0524 820.9516,-144.7979"/>
<text text-anchor="middle" x="924" y="-128.5" font-family="Helvetica,sans-Serif" font-size="10.00" fill="#000000"> &lt; OmpExecutor &gt;</text>
</g>
<!-- Node12 -->
<g id="node12" class="node">
<title>Node12</title>
<g id="a_node12"><a xlink:href="classgko_1_1CudaExecutor.html" target="_top" xlink:title="This is the Executor subclass which represents the CUDA device.">
<polygon fill="#ffffff" stroke="#000000" points="1031.5,-108.5 1031.5,-138.5 1147.5,-138.5 1147.5,-108.5 1031.5,-108.5"/>
<text text-anchor="start" x="1039.5" y="-126.5" font-family="Helvetica,sans-Serif" font-size="10.00" fill="#000000">gko::CudaExecutor&lt;</text>
<text text-anchor="middle" x="1089.5" y="-115.5" font-family="Helvetica,sans-Serif" font-size="10.00" fill="#000000"> CudaExecutor &gt;</text>
</a>
</g>
</g>
<!-- Node11&#45;&gt;Node12 -->
<g id="edge11" class="edge">
<title>Node11&#45;&gt;Node12</title>
<path fill="none" stroke="#191970" d="M866.1839,-155.8221C918.0699,-148.3123 984.2923,-138.7274 1031.1106,-131.9511"/>
<polygon fill="#191970" stroke="#191970" points="865.4033,-152.3985 856.0078,-157.2949 866.4061,-159.3263 865.4033,-152.3985"/>
</g>
<!-- Node13 -->
<g id="node13" class="node">
<title>Node13</title>
<g id="a_node13"><a xlink:href="classgko_1_1HipExecutor.html" target="_top" xlink:title="This is the Executor subclass which represents the HIP enhanced device.">
<polygon fill="#ffffff" stroke="#000000" points="998.5,-196 998.5,-215 1180.5,-215 1180.5,-196 998.5,-196"/>
<text text-anchor="middle" x="1089.5" y="-203" font-family="Helvetica,sans-Serif" font-size="10.00" fill="#000000">gko::HipExecutor&lt; HipExecutor &gt;</text>
</a>
</g>
</g>
<!-- Node11&#45;&gt;Node13 -->
<g id="edge12" class="edge">
<title>Node11&#45;&gt;Node13</title>
<path fill="none" stroke="#191970" d="M866.1518,-177.5815C911.7416,-183.2802 968.4076,-190.3634 1013.2539,-195.9692"/>
<polygon fill="#191970" stroke="#191970" points="866.3647,-174.0809 856.0078,-176.3135 865.4964,-181.0269 866.3647,-174.0809"/>
</g>
<!-- Node14 -->
<g id="node14" class="node">
<title>Node14</title>
<g id="a_node14"><a xlink:href="classgko_1_1OmpExecutor.html" target="_top" xlink:title="This is the Executor subclass which represents the OpenMP device (typically CPU).">
<polygon fill="#ffffff" stroke="#000000" points="992,-158 992,-177 1187,-177 1187,-158 992,-158"/>
<text text-anchor="middle" x="1089.5" y="-165" font-family="Helvetica,sans-Serif" font-size="10.00" fill="#000000">gko::OmpExecutor&lt; OmpExecutor &gt;</text>
</a>
</g>
</g>
<!-- Node11&#45;&gt;Node14 -->
<g id="edge13" class="edge">
<title>Node11&#45;&gt;Node14</title>
<path fill="none" stroke="#191970" d="M866.1453,-167.5C904.7049,-167.5 951.1892,-167.5 991.7439,-167.5"/>
<polygon fill="#191970" stroke="#191970" points="866.0078,-164.0001 856.0078,-167.5 866.0078,-171.0001 866.0078,-164.0001"/>
</g>
<!-- Node15 -->
<g id="node15" class="node">
<title>Node15</title>
<g id="a_node15"><a xlink:href="classgko_1_1ReferenceExecutor.html" target="_top" xlink:title="This is a specialization of the OmpExecutor, which runs the reference implementations of the kernels ...">
<polygon fill="#ffffff" stroke="#000000" points="1224,-158 1224,-177 1356,-177 1356,-158 1224,-158"/>
<text text-anchor="middle" x="1290" y="-165" font-family="Helvetica,sans-Serif" font-size="10.00" fill="#000000">gko::ReferenceExecutor</text>
</a>
</g>
</g>
<!-- Node14&#45;&gt;Node15 -->
<g id="edge14" class="edge">
<title>Node14&#45;&gt;Node15</title>
<path fill="none" stroke="#191970" d="M1197.3154,-167.5C1206.3401,-167.5 1215.2825,-167.5 1223.848,-167.5"/>
<polygon fill="#191970" stroke="#191970" points="1197.107,-164.0001 1187.107,-167.5 1197.1069,-171.0001 1197.107,-164.0001"/>
</g>
</g>
</svg>
        <g id="navigator" transform="translate(0 0)" fill="#404254">
                <rect fill="#f2f5e9" fill-opacity="0.5" stroke="#606060" stroke-width=".5" x="0" y="0" width="60" height="60"/>
                <use id="zoomplus" xlink:href="#zoomPlus" x="17" y="9" onmousedown="handleZoom(evt,'in')"/>
                <use id="zoomminus" xlink:href="#zoomMin" x="42" y="9" onmousedown="handleZoom(evt,'out')"/>
                <use id="reset" xlink:href="#resetDef" x="30" y="36" onmousedown="handleReset()"/>
                <g id="arrowUp" xlink:href="#dirArrow" transform="translate(30 24)" onmousedown="handlePan(0,-1)">
                  <use xlink:href="#rim" fill="#404040">
                        <set attributeName="fill" to="#808080" begin="arrowUp.mouseover" end="arrowUp.mouseout"/>
                  </use>
                  <path fill="none" stroke="white" stroke-width="1.5" d="M0,-3.0v7 M-2.5,-0.5L0,-3.0L2.5,-0.5"/>
                </g>
                <g id="arrowRight" xlink:href="#dirArrow" transform="rotate(90) translate(36 -43)" onmousedown="handlePan(1,0)">
                  <use xlink:href="#rim" fill="#404040">
                        <set attributeName="fill" to="#808080" begin="arrowRight.mouseover" end="arrowRight.mouseout"/>
                  </use>
                  <path fill="none" stroke="white" stroke-width="1.5" d="M0,-3.0v7 M-2.5,-0.5L0,-3.0L2.5,-0.5"/>
                </g>
                <g id="arrowDown" xlink:href="#dirArrow" transform="rotate(180) translate(-30 -48)" onmousedown="handlePan(0,1)">
                  <use xlink:href="#rim" fill="#404040">
                        <set attributeName="fill" to="#808080" begin="arrowDown.mouseover" end="arrowDown.mouseout"/>
                  </use>
                  <path fill="none" stroke="white" stroke-width="1.5" d="M0,-3.0v7 M-2.5,-0.5L0,-3.0L2.5,-0.5"/>
                </g>
                <g id="arrowLeft" xlink:href="#dirArrow" transform="rotate(270) translate(-36 17)" onmousedown="handlePan(-1,0)">
                  <use xlink:href="#rim" fill="#404040">
                        <set attributeName="fill" to="#808080" begin="arrowLeft.mouseover" end="arrowLeft.mouseout"/>
                  </use>
                  <path fill="none" stroke="white" stroke-width="1.5" d="M0,-3.0v7 M-2.5,-0.5L0,-3.0L2.5,-0.5"/>
                </g>
        </g>
        <svg viewBox="0 0 15 15" width="100%" height="30px" preserveAspectRatio="xMaxYMin meet">
         <g id="arrow_out" transform="scale(0.3 0.3)">
          <a xlink:href="classgko_1_1Executor__inherit__graph_org.svg" target="_base">
           <rect id="button" ry="5" rx="5" y="6" x="6" height="38" width="38"
                fill="#f2f5e9" fill-opacity="0.5" stroke="#606060" stroke-width="1.0"/>
           <path id="arrow"
             d="M 11.500037,31.436501 C 11.940474,20.09759 22.043105,11.32322 32.158766,21.979434 L 37.068811,17.246167 C 37.068811,17.246167 37.088388,32 37.088388,32 L 22.160133,31.978069 C 22.160133,31.978069 26.997745,27.140456 26.997745,27.140456 C 18.528582,18.264221 13.291696,25.230495 11.500037,31.436501 z"
             style="fill:#404040;"/>
          </a>
         </g>
        </svg>
</svg>
