<?xml version="1.0" encoding="UTF-8" standalone="no"?>
<!DOCTYPE svg PUBLIC "-//W3C//DTD SVG 1.1//EN"
 "http://www.w3.org/Graphics/SVG/1.1/DTD/svg11.dtd">
<!-- Generated by graphviz version 2.40.1 (20161225.0304)
 -->
<!-- Title: gko::batch::MultiVector&lt; ValueType &gt; Pages: 1 -->
<svg width="2024pt" height="360pt"
 viewBox="0.00 0.00 2024.00 359.50" xmlns="http://www.w3.org/2000/svg" xmlns:xlink="http://www.w3.org/1999/xlink">
<g id="graph0" class="graph" transform="scale(1 1) rotate(0) translate(4 355.5)">
<title>gko::batch::MultiVector&lt; ValueType &gt;</title>
<polygon fill="#ffffff" stroke="transparent" points="-4,4 -4,-355.5 2020,-355.5 2020,4 -4,4"/>
<!-- Node1 -->
<g id="node1" class="node">
<title>Node1</title>
<g id="a_node1"><a xlink:title="MultiVector stores multiple vectors in a batched fashion and is useful for batched operations.">
<polygon fill="#bfbfbf" stroke="#000000" points="1888,-56.5 1888,-86.5 2016,-86.5 2016,-56.5 1888,-56.5"/>
<text text-anchor="start" x="1896" y="-74.5" font-family="Helvetica,sans-Serif" font-size="10.00" fill="#000000">gko::batch::MultiVector</text>
<text text-anchor="middle" x="1952" y="-63.5" font-family="Helvetica,sans-Serif" font-size="10.00" fill="#000000">&lt; ValueType &gt;</text>
</a>
</g>
</g>
<!-- Node2 -->
<g id="node2" class="node">
<title>Node2</title>
<g id="a_node2"><a xlink:href="classgko_1_1EnablePolymorphicObject.html" target="_top" xlink:title=" ">
<polygon fill="#ffffff" stroke="#000000" points="1672,-189.5 1672,-219.5 1838,-219.5 1838,-189.5 1672,-189.5"/>
<text text-anchor="start" x="1680" y="-207.5" font-family="Helvetica,sans-Serif" font-size="10.00" fill="#000000">gko::EnablePolymorphicObject</text>
<text text-anchor="middle" x="1755" y="-196.5" font-family="Helvetica,sans-Serif" font-size="10.00" fill="#000000">&lt; MultiVector&lt; ValueType &gt; &gt;</text>
</a>
</g>
</g>
<!-- Node2&#45;&gt;Node1 -->
<g id="edge1" class="edge">
<title>Node2&#45;&gt;Node1</title>
<path fill="none" stroke="#191970" d="M1785.9031,-183.6365C1825.8434,-156.6717 1894.4277,-110.3686 1929.6651,-86.5789"/>
<polygon fill="#191970" stroke="#191970" points="1783.928,-180.7469 1777.5984,-189.2432 1787.8448,-186.5485 1783.928,-180.7469"/>
</g>
<!-- Node3 -->
<g id="node3" class="node">
<title>Node3</title>
<g id="a_node3"><a xlink:href="classgko_1_1EnableAbstractPolymorphicObject.html" target="_top" xlink:title=" ">
<polygon fill="#ffffff" stroke="#000000" points="1278.5,-234 1278.5,-275 1453.5,-275 1453.5,-234 1278.5,-234"/>
<text text-anchor="start" x="1286.5" y="-263" font-family="Helvetica,sans-Serif" font-size="10.00" fill="#000000">gko::EnableAbstractPolymorphic</text>
<text text-anchor="start" x="1286.5" y="-252" font-family="Helvetica,sans-Serif" font-size="10.00" fill="#000000">Object&lt; MultiVector&lt; ValueType</text>
<text text-anchor="middle" x="1366" y="-241" font-family="Helvetica,sans-Serif" font-size="10.00" fill="#000000"> &gt;, PolymorphicObject &gt;</text>
</a>
</g>
</g>
<!-- Node3&#45;&gt;Node2 -->
<g id="edge2" class="edge">
<title>Node3&#45;&gt;Node2</title>
<path fill="none" stroke="#191970" d="M1463.9091,-241.9153C1528.0384,-233.6724 1610.9431,-223.0163 1671.8644,-215.1858"/>
<polygon fill="#191970" stroke="#191970" points="1463.2564,-238.4703 1453.7842,-243.2167 1464.1489,-245.4132 1463.2564,-238.4703"/>
</g>
<!-- Node4 -->
<g id="node4" class="node">
<title>Node4</title>
<g id="a_node4"><a xlink:href="classgko_1_1PolymorphicObject.html" target="_top" xlink:title="A PolymorphicObject is the abstract base for all &quot;heavy&quot; objects in Ginkgo that behave polymorphicall...">
<polygon fill="#ffffff" stroke="#000000" points="896,-285 896,-304 1029,-304 1029,-285 896,-285"/>
<text text-anchor="middle" x="962.5" y="-292" font-family="Helvetica,sans-Serif" font-size="10.00" fill="#000000">gko::PolymorphicObject</text>
</a>
</g>
</g>
<!-- Node4&#45;&gt;Node3 -->
<g id="edge3" class="edge">
<title>Node4&#45;&gt;Node3</title>
<path fill="none" stroke="#191970" d="M1039.4764,-287.7544C1097.8349,-282.5352 1180.0041,-274.9616 1252,-267.5 1260.5199,-266.617 1269.394,-265.6639 1278.263,-264.6891"/>
<polygon fill="#191970" stroke="#191970" points="1038.8789,-284.2937 1029.2295,-288.6685 1039.501,-291.266 1038.8789,-284.2937"/>
</g>
<!-- Node5 -->
<g id="node5" class="node">
<title>Node5</title>
<g id="a_node5"><a xlink:href="classgko_1_1log_1_1EnableLogging.html" target="_top" xlink:title=" ">
<polygon fill="#ffffff" stroke="#000000" points="563,-282.5 563,-312.5 696,-312.5 696,-282.5 563,-282.5"/>
<text text-anchor="start" x="571" y="-300.5" font-family="Helvetica,sans-Serif" font-size="10.00" fill="#000000">gko::log::EnableLogging</text>
<text text-anchor="middle" x="629.5" y="-289.5" font-family="Helvetica,sans-Serif" font-size="10.00" fill="#000000">&lt; PolymorphicObject &gt;</text>
</a>
</g>
</g>
<!-- Node5&#45;&gt;Node4 -->
<g id="edge4" class="edge">
<title>Node5&#45;&gt;Node4</title>
<path fill="none" stroke="#191970" d="M706.1775,-296.8092C763.4638,-296.2931 840.9966,-295.5946 895.7435,-295.1014"/>
<polygon fill="#191970" stroke="#191970" points="706.0552,-293.3101 696.0872,-296.9001 706.1183,-300.3098 706.0552,-293.3101"/>
</g>
<!-- Node6 -->
<g id="node6" class="node">
<title>Node6</title>
<g id="a_node6"><a xlink:href="classgko_1_1log_1_1Loggable.html" target="_top" xlink:title="Loggable class is an interface which should be implemented by classes wanting to support logging.">
<polygon fill="#ffffff" stroke="#000000" points="184,-332 184,-351 290,-351 290,-332 184,-332"/>
<text text-anchor="middle" x="237" y="-339" font-family="Helvetica,sans-Serif" font-size="10.00" fill="#000000">gko::log::Loggable</text>
</a>
</g>
</g>
<!-- Node6&#45;&gt;Node5 -->
<g id="edge5" class="edge">
<title>Node6&#45;&gt;Node5</title>
<path fill="none" stroke="#191970" d="M300.6369,-334.3662C372.683,-326.2897 489.5366,-313.1902 562.8175,-304.9752"/>
<polygon fill="#191970" stroke="#191970" points="299.8906,-330.9278 290.3428,-335.5202 300.6705,-337.8843 299.8906,-330.9278"/>
</g>
<!-- Node7 -->
<g id="node7" class="node">
<title>Node7</title>
<g id="a_node7"><a xlink:href="classgko_1_1log_1_1EnableLogging.html" target="_top" xlink:title="EnableLogging is a mixin which should be inherited by any class which wants to enable logging.">
<polygon fill="#ffffff" stroke="#000000" points="146,-272 146,-313 328,-313 328,-272 146,-272"/>
<text text-anchor="start" x="154" y="-301" font-family="Helvetica,sans-Serif" font-size="10.00" fill="#000000">gko::log::EnableLogging</text>
<text text-anchor="start" x="154" y="-290" font-family="Helvetica,sans-Serif" font-size="10.00" fill="#000000">&lt; ConcreteLoggable, Polymorphic</text>
<text text-anchor="middle" x="237" y="-279" font-family="Helvetica,sans-Serif" font-size="10.00" fill="#000000">Base &gt;</text>
</a>
</g>
</g>
<!-- Node7&#45;&gt;Node5 -->
<g id="edge6" class="edge">
<title>Node7&#45;&gt;Node5</title>
<path fill="none" stroke="#ffa500" stroke-dasharray="5,2" d="M338.2987,-293.7904C408.9782,-294.6908 501.3064,-295.867 562.8622,-296.6511"/>
<polygon fill="#ffa500" stroke="#ffa500" points="338.0777,-290.2874 328.0339,-293.6597 337.9885,-297.2869 338.0777,-290.2874"/>
<text text-anchor="middle" x="432.5" y="-298.5" font-family="Helvetica,sans-Serif" font-size="10.00" fill="#000000"> &lt; PolymorphicObject &gt;</text>
</g>
<!-- Node8 -->
<g id="node8" class="node">
<title>Node8</title>
<g id="a_node8"><a xlink:title=" ">
<polygon fill="#ffffff" stroke="#bfbfbf" points="0,-223 0,-242 101,-242 101,-223 0,-223"/>
<text text-anchor="middle" x="50.5" y="-230" font-family="Helvetica,sans-Serif" font-size="10.00" fill="#000000">PolymorphicBase</text>
</a>
</g>
</g>
<!-- Node8&#45;&gt;Node7 -->
<g id="edge7" class="edge">
<title>Node8&#45;&gt;Node7</title>
<path fill="none" stroke="#191970" d="M87.3985,-245.4808C102.9725,-250.8738 121.3267,-257.1174 138,-262.5 147.6563,-265.6173 157.8725,-268.8199 167.9312,-271.9183"/>
<polygon fill="#191970" stroke="#191970" points="88.2061,-242.0561 77.6113,-242.0773 85.9069,-248.6677 88.2061,-242.0561"/>
</g>
<!-- Node9 -->
<g id="node9" class="node">
<title>Node9</title>
<g id="a_node9"><a xlink:href="classgko_1_1EnableAbstractPolymorphicObject.html" target="_top" xlink:title="This mixin inherits from (a subclass of) PolymorphicObject and provides a base implementation of a ne...">
<polygon fill="#ffffff" stroke="#000000" points="138,-212 138,-253 336,-253 336,-212 138,-212"/>
<text text-anchor="start" x="146" y="-241" font-family="Helvetica,sans-Serif" font-size="10.00" fill="#000000">gko::EnableAbstractPolymorphic</text>
<text text-anchor="start" x="146" y="-230" font-family="Helvetica,sans-Serif" font-size="10.00" fill="#000000">Object&lt; AbstractObject, Polymorphic</text>
<text text-anchor="middle" x="237" y="-219" font-family="Helvetica,sans-Serif" font-size="10.00" fill="#000000">Base &gt;</text>
</a>
</g>
</g>
<!-- Node8&#45;&gt;Node9 -->
<g id="edge9" class="edge">
<title>Node8&#45;&gt;Node9</title>
<path fill="none" stroke="#191970" d="M111.5248,-232.5C119.9555,-232.5 128.7869,-232.5 137.6923,-232.5"/>
<polygon fill="#191970" stroke="#191970" points="111.462,-229.0001 101.4619,-232.5 111.4619,-236.0001 111.462,-229.0001"/>
</g>
<!-- Node11 -->
<g id="node11" class="node">
<title>Node11</title>
<g id="a_node11"><a xlink:href="classgko_1_1EnableAbstractPolymorphicObject.html" target="_top" xlink:title=" ">
<polygon fill="#ffffff" stroke="#000000" points="529,-184 529,-225 730,-225 730,-184 529,-184"/>
<text text-anchor="start" x="537" y="-213" font-family="Helvetica,sans-Serif" font-size="10.00" fill="#000000">gko::EnableAbstractPolymorphic</text>
<text text-anchor="start" x="537" y="-202" font-family="Helvetica,sans-Serif" font-size="10.00" fill="#000000">Object&lt; ConcreteObject, Polymorphic</text>
<text text-anchor="middle" x="629.5" y="-191" font-family="Helvetica,sans-Serif" font-size="10.00" fill="#000000">Base &gt;</text>
</a>
</g>
</g>
<!-- Node8&#45;&gt;Node11 -->
<g id="edge12" class="edge">
<title>Node8&#45;&gt;Node11</title>
<path fill="none" stroke="#191970" d="M81.5467,-219.0517C97.9869,-212.6549 118.7166,-205.7139 138,-202.5 301.5228,-175.2462 345.2258,-202.3269 511,-203.5 516.8633,-203.5415 522.8899,-203.5861 528.9705,-203.6327"/>
<polygon fill="#191970" stroke="#191970" points="79.8872,-215.9466 71.916,-222.926 82.4998,-222.4408 79.8872,-215.9466"/>
</g>
<!-- Node9&#45;&gt;Node3 -->
<g id="edge8" class="edge">
<title>Node9&#45;&gt;Node3</title>
<path fill="none" stroke="#ffa500" stroke-dasharray="5,2" d="M346.3108,-239.195C348.8985,-239.3034 351.4645,-239.4054 354,-239.5 695.7451,-252.2494 1102.786,-254.283 1278.316,-254.5253"/>
<polygon fill="#ffa500" stroke="#ffa500" points="346.3879,-235.6951 336.2421,-238.7468 346.0765,-242.6881 346.3879,-235.6951"/>
<text text-anchor="start" x="748" y="-265.5" font-family="Helvetica,sans-Serif" font-size="10.00" fill="#000000"> &lt; MultiVector&lt; ValueType</text>
<text text-anchor="middle" x="813" y="-254.5" font-family="Helvetica,sans-Serif" font-size="10.00" fill="#000000"> &gt;, PolymorphicObject &gt;</text>
</g>
<!-- Node9&#45;&gt;Node11 -->
<g id="edge13" class="edge">
<title>Node9&#45;&gt;Node11</title>
<path fill="none" stroke="#ffa500" stroke-dasharray="5,2" d="M346.2885,-218.2079C348.8828,-217.9593 351.4563,-217.7227 354,-217.5 411.837,-212.4362 476.6894,-209.2529 528.9372,-207.3047"/>
<polygon fill="#ffa500" stroke="#ffa500" points="345.7972,-214.7396 336.1975,-219.2224 346.4975,-221.7045 345.7972,-214.7396"/>
<text text-anchor="start" x="354" y="-231.5" font-family="Helvetica,sans-Serif" font-size="10.00" fill="#000000"> &lt; ConcreteObject, Polymorphic</text>
<text text-anchor="middle" x="432.5" y="-220.5" font-family="Helvetica,sans-Serif" font-size="10.00" fill="#000000">Base &gt;</text>
</g>
<!-- Node10 -->
<g id="node10" class="node">
<title>Node10</title>
<g id="a_node10"><a xlink:href="classgko_1_1EnablePolymorphicObject.html" target="_top" xlink:title="This mixin inherits from (a subclass of) PolymorphicObject and provides a base implementation of a ne...">
<polygon fill="#ffffff" stroke="#000000" points="1047,-189.5 1047,-219.5 1252,-219.5 1252,-189.5 1047,-189.5"/>
<text text-anchor="start" x="1055" y="-207.5" font-family="Helvetica,sans-Serif" font-size="10.00" fill="#000000">gko::EnablePolymorphicObject</text>
<text text-anchor="middle" x="1149.5" y="-196.5" font-family="Helvetica,sans-Serif" font-size="10.00" fill="#000000">&lt; ConcreteObject, PolymorphicBase &gt;</text>
</a>
</g>
</g>
<!-- Node10&#45;&gt;Node2 -->
<g id="edge10" class="edge">
<title>Node10&#45;&gt;Node2</title>
<path fill="none" stroke="#ffa500" stroke-dasharray="5,2" d="M1262.4362,-204.5C1381.2825,-204.5 1565.5407,-204.5 1671.783,-204.5"/>
<polygon fill="#ffa500" stroke="#ffa500" points="1262.2149,-201.0001 1252.2148,-204.5 1262.2148,-208.0001 1262.2149,-201.0001"/>
<text text-anchor="middle" x="1366" y="-207.5" font-family="Helvetica,sans-Serif" font-size="10.00" fill="#000000"> &lt; MultiVector&lt; ValueType &gt; &gt;</text>
</g>
<!-- Node11&#45;&gt;Node10 -->
<g id="edge11" class="edge">
<title>Node11&#45;&gt;Node10</title>
<path fill="none" stroke="#191970" d="M740.105,-204.5C830.7507,-204.5 958.065,-204.5 1046.5581,-204.5"/>
<polygon fill="#191970" stroke="#191970" points="740.0694,-201.0001 730.0694,-204.5 740.0693,-208.0001 740.0694,-201.0001"/>
</g>
<!-- Node12 -->
<g id="node12" class="node">
<title>Node12</title>
<g id="a_node12"><a xlink:href="classgko_1_1EnablePolymorphicAssignment.html" target="_top" xlink:title=" ">
<polygon fill="#ffffff" stroke="#000000" points="1659,-88.5 1659,-118.5 1851,-118.5 1851,-88.5 1659,-88.5"/>
<text text-anchor="start" x="1667" y="-106.5" font-family="Helvetica,sans-Serif" font-size="10.00" fill="#000000">gko::EnablePolymorphicAssignment</text>
<text text-anchor="middle" x="1755" y="-95.5" font-family="Helvetica,sans-Serif" font-size="10.00" fill="#000000">&lt; MultiVector&lt; ValueType &gt; &gt;</text>
</a>
</g>
</g>
<!-- Node12&#45;&gt;Node1 -->
<g id="edge14" class="edge">
<title>Node12&#45;&gt;Node1</title>
<path fill="none" stroke="#191970" d="M1857.4065,-86.8654C1867.7955,-85.1779 1878.1264,-83.4998 1887.9361,-81.9063"/>
<polygon fill="#191970" stroke="#191970" points="1856.7528,-83.4257 1847.4433,-88.4838 1857.8752,-90.3351 1856.7528,-83.4257"/>
</g>
<!-- Node13 -->
<g id="node13" class="node">
<title>Node13</title>
<g id="a_node13"><a xlink:href="classgko_1_1ConvertibleTo.html" target="_top" xlink:title=" ">
<polygon fill="#ffffff" stroke="#000000" points="1283,-137.5 1283,-167.5 1449,-167.5 1449,-137.5 1283,-137.5"/>
<text text-anchor="start" x="1291" y="-155.5" font-family="Helvetica,sans-Serif" font-size="10.00" fill="#000000">gko::ConvertibleTo</text>
<text text-anchor="middle" x="1366" y="-144.5" font-family="Helvetica,sans-Serif" font-size="10.00" fill="#000000">&lt; MultiVector&lt; ValueType &gt; &gt;</text>
</a>
</g>
</g>
<!-- Node13&#45;&gt;Node12 -->
<g id="edge15" class="edge">
<title>Node13&#45;&gt;Node12</title>
<path fill="none" stroke="#191970" d="M1459.1643,-141.165C1512.4292,-134.6385 1580.479,-126.2228 1641,-118.5 1646.8415,-117.7546 1652.8505,-116.9818 1658.9109,-116.1978"/>
<polygon fill="#191970" stroke="#191970" points="1458.5564,-137.7132 1449.0559,-142.4026 1459.4072,-144.6613 1458.5564,-137.7132"/>
</g>
<!-- Node14 -->
<g id="node14" class="node">
<title>Node14</title>
<g id="a_node14"><a xlink:href="classgko_1_1ConvertibleTo.html" target="_top" xlink:title="ConvertibleTo interface is used to mark that the implementer can be converted to the object of Result...">
<polygon fill="#ffffff" stroke="#000000" points="909,-88.5 909,-118.5 1016,-118.5 1016,-88.5 909,-88.5"/>
<text text-anchor="start" x="917" y="-106.5" font-family="Helvetica,sans-Serif" font-size="10.00" fill="#000000">gko::ConvertibleTo</text>
<text text-anchor="middle" x="962.5" y="-95.5" font-family="Helvetica,sans-Serif" font-size="10.00" fill="#000000">&lt; ResultType &gt;</text>
</a>
</g>
</g>
<!-- Node14&#45;&gt;Node13 -->
<g id="edge16" class="edge">
<title>Node14&#45;&gt;Node13</title>
<path fill="none" stroke="#ffa500" stroke-dasharray="5,2" d="M1026.2592,-114.4464C1033.2502,-115.5325 1040.2696,-116.5739 1047,-117.5 1126.8937,-128.4929 1218.4266,-138.2442 1282.8935,-144.6435"/>
<polygon fill="#ffa500" stroke="#ffa500" points="1026.4988,-110.9407 1016.074,-112.8314 1025.4025,-117.8544 1026.4988,-110.9407"/>
<text text-anchor="middle" x="1149.5" y="-144.5" font-family="Helvetica,sans-Serif" font-size="10.00" fill="#000000"> &lt; MultiVector&lt; ValueType &gt; &gt;</text>
</g>
<!-- Node15 -->
<g id="node15" class="node">
<title>Node15</title>
<g id="a_node15"><a xlink:href="classgko_1_1EnablePolymorphicAssignment.html" target="_top" xlink:title="This mixin is used to enable a default PolymorphicObject::copy_from() implementation for objects that...">
<polygon fill="#ffffff" stroke="#000000" points="1270,-88.5 1270,-118.5 1462,-118.5 1462,-88.5 1270,-88.5"/>
<text text-anchor="start" x="1278" y="-106.5" font-family="Helvetica,sans-Serif" font-size="10.00" fill="#000000">gko::EnablePolymorphicAssignment</text>
<text text-anchor="middle" x="1366" y="-95.5" font-family="Helvetica,sans-Serif" font-size="10.00" fill="#000000">&lt; ConcreteType, ResultType &gt;</text>
</a>
</g>
</g>
<!-- Node14&#45;&gt;Node15 -->
<g id="edge18" class="edge">
<title>Node14&#45;&gt;Node15</title>
<path fill="none" stroke="#191970" d="M1026.2682,-103.5C1091.794,-103.5 1194.5994,-103.5 1269.9694,-103.5"/>
<polygon fill="#191970" stroke="#191970" points="1026.0817,-100.0001 1016.0817,-103.5 1026.0817,-107.0001 1026.0817,-100.0001"/>
</g>
<!-- Node18 -->
<g id="node18" class="node">
<title>Node18</title>
<g id="a_node18"><a xlink:href="classgko_1_1ConvertibleTo.html" target="_top" xlink:title=" ">
<polygon fill="#ffffff" stroke="#000000" points="1480,-39 1480,-80 1641,-80 1641,-39 1480,-39"/>
<text text-anchor="start" x="1488" y="-68" font-family="Helvetica,sans-Serif" font-size="10.00" fill="#000000">gko::ConvertibleTo</text>
<text text-anchor="start" x="1488" y="-57" font-family="Helvetica,sans-Serif" font-size="10.00" fill="#000000">&lt; MultiVector&lt; next</text>
<text text-anchor="middle" x="1560.5" y="-46" font-family="Helvetica,sans-Serif" font-size="10.00" fill="#000000">_precision&lt; ValueType &gt; &gt; &gt;</text>
</a>
</g>
</g>
<!-- Node14&#45;&gt;Node18 -->
<g id="edge22" class="edge">
<title>Node14&#45;&gt;Node18</title>
<path fill="none" stroke="#ffa500" stroke-dasharray="5,2" d="M1013.4867,-85.453C1024.4166,-82.2521 1035.991,-79.3532 1047,-77.5 1198.3023,-52.0309 1378.0943,-52.6604 1479.7926,-55.8157"/>
<polygon fill="#ffa500" stroke="#ffa500" points="1012.2046,-82.185 1003.665,-88.4561 1014.2514,-88.8791 1012.2046,-82.185"/>
<text text-anchor="start" x="1077" y="-91.5" font-family="Helvetica,sans-Serif" font-size="10.00" fill="#000000"> &lt; MultiVector&lt; next</text>
<text text-anchor="middle" x="1149.5" y="-80.5" font-family="Helvetica,sans-Serif" font-size="10.00" fill="#000000">_precision&lt; ValueType &gt; &gt; &gt;</text>
</g>
<!-- Node15&#45;&gt;Node12 -->
<g id="edge17" class="edge">
<title>Node15&#45;&gt;Node12</title>
<path fill="none" stroke="#ffa500" stroke-dasharray="5,2" d="M1472.5024,-103.5C1530.7715,-103.5 1602.392,-103.5 1658.9382,-103.5"/>
<polygon fill="#ffa500" stroke="#ffa500" points="1472.1574,-100.0001 1462.1573,-103.5 1472.1573,-107.0001 1472.1574,-100.0001"/>
<text text-anchor="middle" x="1560.5" y="-106.5" font-family="Helvetica,sans-Serif" font-size="10.00" fill="#000000"> &lt; MultiVector&lt; ValueType &gt; &gt;</text>
</g>
<!-- Node16 -->
<g id="node16" class="node">
<title>Node16</title>
<g id="a_node16"><a xlink:href="classgko_1_1EnableCreateMethod.html" target="_top" xlink:title=" ">
<polygon fill="#ffffff" stroke="#000000" points="1672,-.5 1672,-30.5 1838,-30.5 1838,-.5 1672,-.5"/>
<text text-anchor="start" x="1680" y="-18.5" font-family="Helvetica,sans-Serif" font-size="10.00" fill="#000000">gko::EnableCreateMethod</text>
<text text-anchor="middle" x="1755" y="-7.5" font-family="Helvetica,sans-Serif" font-size="10.00" fill="#000000">&lt; MultiVector&lt; ValueType &gt; &gt;</text>
</a>
</g>
</g>
<!-- Node16&#45;&gt;Node1 -->
<g id="edge19" class="edge">
<title>Node16&#45;&gt;Node1</title>
<path fill="none" stroke="#191970" d="M1824.8401,-33.0997C1839.7813,-37.0378 1855.446,-41.2974 1870,-45.5 1881.6222,-48.856 1894.099,-52.6913 1905.726,-56.3665"/>
<polygon fill="#191970" stroke="#191970" points="1825.7054,-29.7083 1815.145,-30.562 1823.9328,-36.4802 1825.7054,-29.7083"/>
</g>
<!-- Node17 -->
<g id="node17" class="node">
<title>Node17</title>
<g id="a_node17"><a xlink:href="classgko_1_1EnableCreateMethod.html" target="_top" xlink:title="This mixin implements a static create() method on ConcreteType that dynamically allocates the memory,...">
<polygon fill="#ffffff" stroke="#000000" points="1295,-.5 1295,-30.5 1437,-30.5 1437,-.5 1295,-.5"/>
<text text-anchor="start" x="1303" y="-18.5" font-family="Helvetica,sans-Serif" font-size="10.00" fill="#000000">gko::EnableCreateMethod</text>
<text text-anchor="middle" x="1366" y="-7.5" font-family="Helvetica,sans-Serif" font-size="10.00" fill="#000000">&lt; ConcreteType &gt;</text>
</a>
</g>
</g>
<!-- Node17&#45;&gt;Node16 -->
<g id="edge20" class="edge">
<title>Node17&#45;&gt;Node16</title>
<path fill="none" stroke="#ffa500" stroke-dasharray="5,2" d="M1447.6823,-15.5C1513.5296,-15.5 1605.744,-15.5 1671.9524,-15.5"/>
<polygon fill="#ffa500" stroke="#ffa500" points="1447.3486,-12.0001 1437.3486,-15.5 1447.3486,-19.0001 1447.3486,-12.0001"/>
<text text-anchor="middle" x="1560.5" y="-18.5" font-family="Helvetica,sans-Serif" font-size="10.00" fill="#000000"> &lt; MultiVector&lt; ValueType &gt; &gt;</text>
</g>
<!-- Node18&#45;&gt;Node1 -->
<g id="edge21" class="edge">
<title>Node18&#45;&gt;Node1</title>
<path fill="none" stroke="#191970" d="M1651.188,-62.2797C1723.6989,-64.5023 1823.5415,-67.5626 1887.9342,-69.5363"/>
<polygon fill="#191970" stroke="#191970" points="1651.2469,-58.78 1641.1444,-61.9719 1651.0324,-65.7767 1651.2469,-58.78"/>
</g>
</g>
</svg>
