<?xml version="1.0" encoding="UTF-8" standalone="no"?>
<!DOCTYPE svg PUBLIC "-//W3C//DTD SVG 1.1//EN"
 "http://www.w3.org/Graphics/SVG/1.1/DTD/svg11.dtd">
<!-- Generated by graphviz version 2.40.1 (20161225.0304)
 -->
<!-- Title: Preconditioners Pages: 1 -->
<svg width="385pt" height="219pt"
 viewBox="0.00 0.00 385.00 218.57" xmlns="http://www.w3.org/2000/svg" xmlns:xlink="http://www.w3.org/1999/xlink">
<g id="graph0" class="graph" transform="scale(1 1) rotate(0) translate(4 214.5725)">
<title>Preconditioners</title>
<polygon fill="#ffffff" stroke="transparent" points="-4,4 -4,-214.5725 381,-214.5725 381,4 -4,4"/>
<!-- Node1 -->
<g id="node1" class="node">
<title>Node1</title>
<g id="a_node1"><a xlink:title="A module dedicated to the implementation and usage of the Preconditioners in Ginkgo.">
<polygon fill="#bfbfbf" stroke="#000000" points="92,-112.11 0,-112.11 0,-93.11 92,-93.11 92,-112.11"/>
<text text-anchor="middle" x="46" y="-100.11" font-family="Helvetica,sans-Serif" font-size="10.00" fill="#000000">Preconditioners</text>
</a>
</g>
</g>
<!-- Node3 -->
<g id="node2" class="node">
<title>Node3</title>
<g id="a_node2"><a xlink:href="group__jacobi.html" target="_top" xlink:title="A module dedicated to the implementation and usage of the Jacobi Preconditioner in Ginkgo.">
<polygon fill="#ffffff" stroke="#000000" points="377,-197.11 258,-197.11 258,-178.11 377,-178.11 377,-197.11"/>
<text text-anchor="middle" x="317.5" y="-185.11" font-family="Helvetica,sans-Serif" font-size="10.00" fill="#000000">Jacobi Preconditioner</text>
</a>
</g>
</g>
<!-- Node1&#45;&gt;Node3 -->
<g id="edge2" class="edge">
<title>Node1&#45;&gt;Node3</title>
<path fill="none" stroke="#000000" d="M53.2676,-121.7979C62.661,-143.5186 81.3006,-177.8025 110,-192.61 166.5216,-221.7723 243.7394,-208.3458 286.248,-197.1943"/>
<polygon fill="#000000" stroke="#000000" points="56.4072,-120.2273 49.3955,-112.2846 49.9237,-122.8663 56.4072,-120.2273"/>
</g>
<!-- Node1&#45;&gt;Node3 -->
<g id="edge4" class="edge">
<title>Node1&#45;&gt;Node3</title>
<path fill="none" stroke="#ffa500" stroke-dasharray="5,2" d="M56.4015,-112.2918C68.3611,-122.8235 89.0524,-139.2682 110,-147.61 164.2484,-169.213 182.8295,-154.7308 240,-166.61 255.1499,-169.7579 271.7322,-174.1241 285.6566,-178.0602"/>
<text text-anchor="start" x="127.5" y="-180.61" font-family="Helvetica,sans-Serif" font-size="10.00" fill="#000000">gko::preconditioner</text>
<text text-anchor="middle" x="175" y="-169.61" font-family="Helvetica,sans-Serif" font-size="10.00" fill="#000000">::Jacobi</text>
</g>
<!-- Node2 -->
<g id="node3" class="node">
<title>Node2</title>
<g id="a_node3"><a xlink:href="group__LinOp.html" target="_top" xlink:title="A module dedicated to the implementation and usage of the Linear operators in Ginkgo.">
<polygon fill="#ffffff" stroke="#000000" points="366.5,-30.11 268.5,-30.11 268.5,-11.11 366.5,-11.11 366.5,-30.11"/>
<text text-anchor="middle" x="317.5" y="-18.11" font-family="Helvetica,sans-Serif" font-size="10.00" fill="#000000">Linear Operators</text>
</a>
</g>
</g>
<!-- Node1&#45;&gt;Node2 -->
<g id="edge3" class="edge">
<title>Node1&#45;&gt;Node2</title>
<path fill="none" stroke="#ffa500" stroke-dasharray="5,2" d="M52.076,-93.0067C62.0899,-78.1328 83.6043,-49.9544 110,-37.61 137.0935,-24.9393 215.879,-21.5464 268.1967,-20.731"/>
<text text-anchor="middle" x="175" y="-139.61" font-family="Helvetica,sans-Serif" font-size="10.00" fill="#000000">gko::Preconditionable</text>
<text text-anchor="start" x="110" y="-128.61" font-family="Helvetica,sans-Serif" font-size="10.00" fill="#000000">gko::experimental::</text>
<text text-anchor="start" x="110" y="-117.61" font-family="Helvetica,sans-Serif" font-size="10.00" fill="#000000">distributed::preconditioner</text>
<text text-anchor="middle" x="175" y="-106.61" font-family="Helvetica,sans-Serif" font-size="10.00" fill="#000000">::Schwarz</text>
<text text-anchor="middle" x="175" y="-95.61" font-family="Helvetica,sans-Serif" font-size="10.00" fill="#000000">gko::preconditioner::Ic</text>
<text text-anchor="middle" x="175" y="-84.61" font-family="Helvetica,sans-Serif" font-size="10.00" fill="#000000">gko::preconditioner::Ilu</text>
<text text-anchor="start" x="110" y="-73.61" font-family="Helvetica,sans-Serif" font-size="10.00" fill="#000000">gko::preconditioner</text>
<text text-anchor="middle" x="175" y="-62.61" font-family="Helvetica,sans-Serif" font-size="10.00" fill="#000000">::Isai</text>
<text text-anchor="start" x="110" y="-51.61" font-family="Helvetica,sans-Serif" font-size="10.00" fill="#000000">gko::preconditioner</text>
<text text-anchor="middle" x="175" y="-40.61" font-family="Helvetica,sans-Serif" font-size="10.00" fill="#000000">::Jacobi</text>
</g>
<!-- Node2&#45;&gt;Node1 -->
<g id="edge1" class="edge">
<title>Node2&#45;&gt;Node1</title>
<path fill="none" stroke="#000000" d="M274.0164,-8.8926C230.1667,.4688 161.744,8.2012 110,-17.61 77.9321,-33.6063 57.7132,-74.172 49.8006,-92.8827"/>
<polygon fill="#000000" stroke="#000000" points="273.2719,-12.3125 283.7965,-11.0947 274.8097,-5.4835 273.2719,-12.3125"/>
</g>
</g>
</svg>
