<?xml version="1.0" encoding="UTF-8" standalone="no"?>
<!DOCTYPE svg PUBLIC "-//W3C//DTD SVG 1.1//EN"
 "http://www.w3.org/Graphics/SVG/1.1/DTD/svg11.dtd">
<!-- Generated by graphviz version 2.40.1 (20161225.0304)
 -->
<!-- Title: gko::batch::solver::Bicgstab&lt; ValueType &gt;::parameters_type Pages: 1 -->
<svg width="1325pt" height="207pt"
 viewBox="0.00 0.00 1325.00 206.50" xmlns="http://www.w3.org/2000/svg" xmlns:xlink="http://www.w3.org/1999/xlink">
<g id="graph0" class="graph" transform="scale(1 1) rotate(0) translate(4 202.5)">
<title>gko::batch::solver::Bicgstab&lt; ValueType &gt;::parameters_type</title>
<polygon fill="#ffffff" stroke="transparent" points="-4,4 -4,-202.5 1321,-202.5 1321,4 -4,4"/>
<!-- Node1 -->
<g id="node1" class="node">
<title>Node1</title>
<g id="a_node1"><a xlink:title=" ">
<polygon fill="#bfbfbf" stroke="#000000" points="1192,-67 1192,-108 1317,-108 1317,-67 1192,-67"/>
<text text-anchor="start" x="1200" y="-96" font-family="Helvetica,sans-Serif" font-size="10.00" fill="#000000">gko::batch::solver</text>
<text text-anchor="start" x="1200" y="-85" font-family="Helvetica,sans-Serif" font-size="10.00" fill="#000000">::Bicgstab&lt; ValueType</text>
<text text-anchor="middle" x="1254.5" y="-74" font-family="Helvetica,sans-Serif" font-size="10.00" fill="#000000"> &gt;::parameters_type</text>
</a>
</g>
</g>
<!-- Node2 -->
<g id="node2" class="node">
<title>Node2</title>
<g id="a_node2"><a xlink:href="structgko_1_1batch_1_1solver_1_1enable__preconditioned__iterative__solver__factory__parameters.html" target="_top" xlink:title=" ">
<polygon fill="#ffffff" stroke="#000000" points="979,-56 979,-119 1155,-119 1155,-56 979,-56"/>
<text text-anchor="start" x="987" y="-107" font-family="Helvetica,sans-Serif" font-size="10.00" fill="#000000">gko::batch::solver</text>
<text text-anchor="start" x="987" y="-96" font-family="Helvetica,sans-Serif" font-size="10.00" fill="#000000">::enable_preconditioned</text>
<text text-anchor="start" x="987" y="-85" font-family="Helvetica,sans-Serif" font-size="10.00" fill="#000000">_iterative_solver_factory</text>
<text text-anchor="start" x="987" y="-74" font-family="Helvetica,sans-Serif" font-size="10.00" fill="#000000">_parameters&lt; parameters_type,</text>
<text text-anchor="middle" x="1067" y="-63" font-family="Helvetica,sans-Serif" font-size="10.00" fill="#000000"> Factory &gt;</text>
</a>
</g>
</g>
<!-- Node2&#45;&gt;Node1 -->
<g id="edge1" class="edge">
<title>Node2&#45;&gt;Node1</title>
<path fill="none" stroke="#191970" d="M1165.3998,-87.5C1174.3752,-87.5 1183.2936,-87.5 1191.8249,-87.5"/>
<polygon fill="#191970" stroke="#191970" points="1165.2597,-84.0001 1155.2596,-87.5 1165.2596,-91.0001 1165.2597,-84.0001"/>
</g>
<!-- Node3 -->
<g id="node3" class="node">
<title>Node3</title>
<g id="a_node3"><a xlink:href="classgko_1_1enable__parameters__type.html" target="_top" xlink:title=" ">
<polygon fill="#ffffff" stroke="#000000" points="535,-157 535,-198 676,-198 676,-157 535,-157"/>
<text text-anchor="start" x="543" y="-186" font-family="Helvetica,sans-Serif" font-size="10.00" fill="#000000">gko::enable_parameters</text>
<text text-anchor="start" x="543" y="-175" font-family="Helvetica,sans-Serif" font-size="10.00" fill="#000000">_type&lt; parameters_type,</text>
<text text-anchor="middle" x="605.5" y="-164" font-family="Helvetica,sans-Serif" font-size="10.00" fill="#000000"> Factory &gt;</text>
</a>
</g>
</g>
<!-- Node3&#45;&gt;Node2 -->
<g id="edge2" class="edge">
<title>Node3&#45;&gt;Node2</title>
<path fill="none" stroke="#191970" d="M686.4213,-176.1244C759.716,-172.8701 869.8559,-162.9245 961,-133.5 973.6953,-129.4015 986.9477,-124.3283 999.6111,-119.0634"/>
<polygon fill="#191970" stroke="#191970" points="686.1767,-172.6314 676.3295,-176.5405 686.4652,-179.6255 686.1767,-172.6314"/>
</g>
<!-- Node4 -->
<g id="node4" class="node">
<title>Node4</title>
<g id="a_node4"><a xlink:href="classgko_1_1enable__parameters__type.html" target="_top" xlink:title="The enable_parameters_type mixin is used to create a base implementation of the factory parameters st...">
<polygon fill="#ffffff" stroke="#000000" points="0,-132 0,-173 179,-173 179,-132 0,-132"/>
<text text-anchor="start" x="8" y="-161" font-family="Helvetica,sans-Serif" font-size="10.00" fill="#000000">gko::enable_parameters</text>
<text text-anchor="start" x="8" y="-150" font-family="Helvetica,sans-Serif" font-size="10.00" fill="#000000">_type&lt; ConcreteParametersType,</text>
<text text-anchor="middle" x="89.5" y="-139" font-family="Helvetica,sans-Serif" font-size="10.00" fill="#000000"> Factory &gt;</text>
</a>
</g>
</g>
<!-- Node4&#45;&gt;Node3 -->
<g id="edge3" class="edge">
<title>Node4&#45;&gt;Node3</title>
<path fill="none" stroke="#ffa500" stroke-dasharray="5,2" d="M189.3446,-157.3374C290.7874,-162.2523 445.3408,-169.7404 534.7827,-174.0738"/>
<polygon fill="#ffa500" stroke="#ffa500" points="189.2433,-153.8285 179.0856,-156.8404 188.9045,-160.8203 189.2433,-153.8285"/>
<text text-anchor="start" x="208" y="-176.5" font-family="Helvetica,sans-Serif" font-size="10.00" fill="#000000"> &lt; parameters_type,</text>
<text text-anchor="middle" x="258.5" y="-165.5" font-family="Helvetica,sans-Serif" font-size="10.00" fill="#000000"> Factory &gt;</text>
</g>
<!-- Node9 -->
<g id="node9" class="node">
<title>Node9</title>
<g id="a_node9"><a xlink:href="classgko_1_1enable__parameters__type.html" target="_top" xlink:title=" ">
<polygon fill="#ffffff" stroke="#000000" points="346,-106.5 346,-136.5 509,-136.5 509,-106.5 346,-106.5"/>
<text text-anchor="start" x="354" y="-124.5" font-family="Helvetica,sans-Serif" font-size="10.00" fill="#000000">gko::enable_parameters</text>
<text text-anchor="middle" x="427.5" y="-113.5" font-family="Helvetica,sans-Serif" font-size="10.00" fill="#000000">_type&lt; Parameters, Factory &gt;</text>
</a>
</g>
</g>
<!-- Node4&#45;&gt;Node9 -->
<g id="edge10" class="edge">
<title>Node4&#45;&gt;Node9</title>
<path fill="none" stroke="#ffa500" stroke-dasharray="5,2" d="M189.2804,-137.361C191.8787,-137.0595 194.4554,-136.7717 197,-136.5 246.2461,-131.2419 301.6218,-127.5661 345.752,-125.1696"/>
<polygon fill="#ffa500" stroke="#ffa500" points="188.68,-133.908 179.174,-138.5862 189.5225,-140.8572 188.68,-133.908"/>
<text text-anchor="middle" x="258.5" y="-139.5" font-family="Helvetica,sans-Serif" font-size="10.00" fill="#000000"> &lt; Parameters, Factory &gt;</text>
</g>
<!-- Node5 -->
<g id="node5" class="node">
<title>Node5</title>
<g id="a_node5"><a xlink:title=" ">
<polygon fill="#ffffff" stroke="#bfbfbf" points="356,-.5 356,-30.5 499,-30.5 499,-.5 356,-.5"/>
<text text-anchor="start" x="364" y="-18.5" font-family="Helvetica,sans-Serif" font-size="10.00" fill="#000000">std::shared_ptr&lt; const</text>
<text text-anchor="middle" x="427.5" y="-7.5" font-family="Helvetica,sans-Serif" font-size="10.00" fill="#000000"> gko::batch::BatchLinOp &gt;</text>
</a>
</g>
</g>
<!-- Node5&#45;&gt;Node2 -->
<g id="edge4" class="edge">
<title>Node5&#45;&gt;Node2</title>
<path fill="none" stroke="#9a32cd" stroke-dasharray="5,2" d="M509.2336,-17.0287C557.76,-18.3749 620.4634,-20.8782 676,-25.5 803.3474,-36.0978 835.3294,-40.3358 961,-63.5 966.8451,-64.5774 972.8567,-65.753 978.9053,-66.9864"/>
<polygon fill="#9a32cd" stroke="#9a32cd" points="509.1912,-13.5264 499.1014,-16.7587 509.0046,-20.5239 509.1912,-13.5264"/>
<text text-anchor="middle" x="768" y="-45.5" font-family="Helvetica,sans-Serif" font-size="10.00" fill="#000000"> generated_preconditioner</text>
</g>
<!-- Node8 -->
<g id="node8" class="node">
<title>Node8</title>
<g id="a_node8"><a xlink:href="structgko_1_1batch_1_1solver_1_1enable__preconditioned__iterative__solver__factory__parameters.html" target="_top" xlink:title=" ">
<polygon fill="#ffffff" stroke="#000000" points="694,-87 694,-150 842,-150 842,-87 694,-87"/>
<text text-anchor="start" x="702" y="-138" font-family="Helvetica,sans-Serif" font-size="10.00" fill="#000000">gko::batch::solver</text>
<text text-anchor="start" x="702" y="-127" font-family="Helvetica,sans-Serif" font-size="10.00" fill="#000000">::enable_preconditioned</text>
<text text-anchor="start" x="702" y="-116" font-family="Helvetica,sans-Serif" font-size="10.00" fill="#000000">_iterative_solver_factory</text>
<text text-anchor="start" x="702" y="-105" font-family="Helvetica,sans-Serif" font-size="10.00" fill="#000000">_parameters&lt; Parameters,</text>
<text text-anchor="middle" x="768" y="-94" font-family="Helvetica,sans-Serif" font-size="10.00" fill="#000000"> Factory &gt;</text>
</a>
</g>
</g>
<!-- Node5&#45;&gt;Node8 -->
<g id="edge11" class="edge">
<title>Node5&#45;&gt;Node8</title>
<path fill="none" stroke="#9a32cd" stroke-dasharray="5,2" d="M509.0304,-25.6728C558.4179,-33.4305 622.0784,-46.3 676,-66.5 690.432,-71.9065 705.2983,-79.3636 718.76,-86.9435"/>
<polygon fill="#9a32cd" stroke="#9a32cd" points="509.4487,-22.1961 499.0341,-24.1415 508.3887,-29.1154 509.4487,-22.1961"/>
<text text-anchor="middle" x="605.5" y="-69.5" font-family="Helvetica,sans-Serif" font-size="10.00" fill="#000000"> generated_preconditioner</text>
</g>
<!-- Node6 -->
<g id="node6" class="node">
<title>Node6</title>
<g id="a_node6"><a xlink:title="STL class.">
<polygon fill="#ffffff" stroke="#bfbfbf" points="30.5,-30 30.5,-49 148.5,-49 148.5,-30 30.5,-30"/>
<text text-anchor="middle" x="89.5" y="-37" font-family="Helvetica,sans-Serif" font-size="10.00" fill="#000000">std::shared_ptr&lt; T &gt;</text>
</a>
</g>
</g>
<!-- Node6&#45;&gt;Node5 -->
<g id="edge5" class="edge">
<title>Node6&#45;&gt;Node5</title>
<path fill="none" stroke="#ffa500" stroke-dasharray="5,2" d="M139.3384,-27.8272C157.3954,-24.1127 178.0164,-20.4616 197,-18.5 250.0452,-13.0187 310.3185,-12.4307 355.9239,-13.1271"/>
<polygon fill="#ffa500" stroke="#ffa500" points="138.3758,-24.4533 129.317,-29.9478 139.825,-31.3016 138.3758,-24.4533"/>
<text text-anchor="start" x="211" y="-32.5" font-family="Helvetica,sans-Serif" font-size="10.00" fill="#000000"> &lt; const gko::batch</text>
<text text-anchor="middle" x="258.5" y="-21.5" font-family="Helvetica,sans-Serif" font-size="10.00" fill="#000000">::BatchLinOp &gt;</text>
</g>
<!-- Node7 -->
<g id="node7" class="node">
<title>Node7</title>
<g id="a_node7"><a xlink:title=" ">
<polygon fill="#ffffff" stroke="#bfbfbf" points="338,-49.5 338,-79.5 517,-79.5 517,-49.5 338,-49.5"/>
<text text-anchor="start" x="346" y="-67.5" font-family="Helvetica,sans-Serif" font-size="10.00" fill="#000000">std::shared_ptr&lt; const</text>
<text text-anchor="middle" x="427.5" y="-56.5" font-family="Helvetica,sans-Serif" font-size="10.00" fill="#000000"> gko::batch::BatchLinOpFactory &gt;</text>
</a>
</g>
</g>
<!-- Node6&#45;&gt;Node7 -->
<g id="edge7" class="edge">
<title>Node6&#45;&gt;Node7</title>
<path fill="none" stroke="#ffa500" stroke-dasharray="5,2" d="M158.8385,-44.6286C210.5646,-48.4545 281.6704,-53.7138 337.7369,-57.8607"/>
<polygon fill="#ffa500" stroke="#ffa500" points="158.9928,-41.1305 148.7619,-43.8833 158.4764,-48.1115 158.9928,-41.1305"/>
<text text-anchor="start" x="204" y="-69.5" font-family="Helvetica,sans-Serif" font-size="10.00" fill="#000000"> &lt; const gko::batch</text>
<text text-anchor="middle" x="258.5" y="-58.5" font-family="Helvetica,sans-Serif" font-size="10.00" fill="#000000">::BatchLinOpFactory &gt;</text>
</g>
<!-- Node7&#45;&gt;Node2 -->
<g id="edge6" class="edge">
<title>Node7&#45;&gt;Node2</title>
<path fill="none" stroke="#9a32cd" stroke-dasharray="5,2" d="M527.3574,-62.5159C611.3561,-61.4383 734.598,-61.2391 842,-66.5 887.259,-68.7169 937.4789,-73.2081 978.9706,-77.4701"/>
<polygon fill="#9a32cd" stroke="#9a32cd" points="527.2637,-59.0168 517.3119,-62.6514 527.3582,-66.0162 527.2637,-59.0168"/>
<text text-anchor="middle" x="768" y="-69.5" font-family="Helvetica,sans-Serif" font-size="10.00" fill="#000000"> preconditioner</text>
</g>
<!-- Node7&#45;&gt;Node8 -->
<g id="edge12" class="edge">
<title>Node7&#45;&gt;Node8</title>
<path fill="none" stroke="#9a32cd" stroke-dasharray="5,2" d="M527.371,-80.0351C572.74,-87.1281 627.0902,-95.6749 676,-103.5 681.7528,-104.4204 687.7069,-105.3786 693.692,-106.3457"/>
<polygon fill="#9a32cd" stroke="#9a32cd" points="527.658,-76.5376 517.2375,-78.4517 526.5772,-83.4537 527.658,-76.5376"/>
<text text-anchor="middle" x="605.5" y="-106.5" font-family="Helvetica,sans-Serif" font-size="10.00" fill="#000000"> preconditioner</text>
</g>
<!-- Node8&#45;&gt;Node2 -->
<g id="edge8" class="edge">
<title>Node8&#45;&gt;Node2</title>
<path fill="none" stroke="#ffa500" stroke-dasharray="5,2" d="M852.4146,-109.748C891.8584,-105.6585 938.8132,-100.7903 978.7285,-96.6519"/>
<polygon fill="#ffa500" stroke="#ffa500" points="851.88,-106.2846 842.2943,-110.7972 852.6019,-113.2472 851.88,-106.2846"/>
<text text-anchor="start" x="860" y="-121.5" font-family="Helvetica,sans-Serif" font-size="10.00" fill="#000000"> &lt; parameters_type,</text>
<text text-anchor="middle" x="910.5" y="-110.5" font-family="Helvetica,sans-Serif" font-size="10.00" fill="#000000"> Factory &gt;</text>
</g>
<!-- Node9&#45;&gt;Node8 -->
<g id="edge9" class="edge">
<title>Node9&#45;&gt;Node8</title>
<path fill="none" stroke="#191970" d="M519.1086,-120.6929C573.8389,-120.2107 642.4653,-119.606 693.7877,-119.1539"/>
<polygon fill="#191970" stroke="#191970" points="519.027,-117.1934 509.0582,-120.7814 519.0887,-124.1931 519.027,-117.1934"/>
</g>
</g>
</svg>
