<?xml version="1.0" encoding="UTF-8" standalone="no"?>
<!DOCTYPE svg PUBLIC "-//W3C//DTD SVG 1.1//EN"
 "http://www.w3.org/Graphics/SVG/1.1/DTD/svg11.dtd">
<!-- Generated by graphviz version 2.40.1 (20161225.0304)
 -->
<!-- Title: gko::log::criterion_data Pages: 1 -->
<!--zoomable 159 -->
<svg id="main" version="1.1" xmlns="http://www.w3.org/2000/svg" xmlns:xlink="http://www.w3.org/1999/xlink" xml:space="preserve" onload="init(evt)">
<style type="text/css"><![CDATA[
.edge:hover path { stroke: red; }
.edge:hover polygon { stroke: red; fill: red; }
]]></style>
<script type="text/javascript"><![CDATA[
var edges = document.getElementsByTagName('g');
if (edges && edges.length) {
  for (var i=0;i<edges.length;i++) {
    if (edges[i].id.substr(0,4)=='edge') {
      edges[i].setAttribute('class','edge');
    }
  }
}
]]></script>
        <defs>
                <circle id="rim" cx="0" cy="0" r="7"/>
                <circle id="rim2" cx="0" cy="0" r="3.5"/>
                <g id="zoomPlus">
                        <use xlink:href="#rim" fill="#404040">
                                <set attributeName="fill" to="#808080" begin="zoomplus.mouseover" end="zoomplus.mouseout"/>
                        </use>
                        <path d="M-4,0h8M0,-4v8" fill="none" stroke="white" stroke-width="1.5" pointer-events="none"/>
                </g>
                <g id="zoomMin">
                        <use xlink:href="#rim" fill="#404040">
                                <set attributeName="fill" to="#808080" begin="zoomminus.mouseover" end="zoomminus.mouseout"/>
                        </use>
                        <path d="M-4,0h8" fill="none" stroke="white" stroke-width="1.5" pointer-events="none"/>
                </g>
                <g id="dirArrow">
                        <path fill="none" stroke="white" stroke-width="1.5" d="M0,-3.0v7 M-2.5,-0.5L0,-3.0L2.5,-0.5"/>
                </g>
               <g id="resetDef">
                       <use xlink:href="#rim2" fill="#404040">
                               <set attributeName="fill" to="#808080" begin="reset.mouseover" end="reset.mouseout"/>
                       </use>
               </g>
        </defs>

<script type="text/javascript">
var viewWidth = 1689;
var viewHeight = 159;
var sectionId = 'dynsection-0';
</script>
<script xlink:href="svgpan.js"/>
<svg id="graph" class="graph">
<g id="viewport">
<title>gko::log::criterion_data</title>
<polygon fill="#ffffff" stroke="transparent" points="-4,4 -4,-154.5 1685,-154.5 1685,4 -4,4"/>
<!-- Node1 -->
<g id="node1" class="node">
<title>Node1</title>
<g id="a_node1"><a xlink:title="Struct representing Criterion related data.">
<polygon fill="#bfbfbf" stroke="#000000" points="1552,-69.5 1552,-88.5 1681,-88.5 1681,-69.5 1552,-69.5"/>
<text text-anchor="middle" x="1616.5" y="-76.5" font-family="Helvetica,sans-Serif" font-size="10.00" fill="#000000">gko::log::criterion_data</text>
</a>
</g>
</g>
<!-- Node2 -->
<g id="node2" class="node">
<title>Node2</title>
<g id="a_node2"><a xlink:href="classgko_1_1Array.html" target="_top" xlink:title=" ">
<polygon fill="#ffffff" stroke="#000000" points="1299,-120 1299,-150 1443,-150 1443,-120 1299,-120"/>
<text text-anchor="start" x="1307" y="-138" font-family="Helvetica,sans-Serif" font-size="10.00" fill="#000000">gko::Array&lt; gko::stopping</text>
<text text-anchor="middle" x="1371" y="-127" font-family="Helvetica,sans-Serif" font-size="10.00" fill="#000000">_status &gt;</text>
</a>
</g>
</g>
<!-- Node2&#45;&gt;Node1 -->
<g id="edge1" class="edge">
<title>Node2&#45;&gt;Node1</title>
<path fill="none" stroke="#9a32cd" stroke-dasharray="5,2" d="M1453.4195,-128.0446C1479.4745,-124.7396 1508.1942,-119.935 1534,-113 1556.4411,-106.9692 1580.9082,-96.3328 1597.3225,-88.5585"/>
<polygon fill="#9a32cd" stroke="#9a32cd" points="1452.7039,-124.6056 1443.1974,-129.283 1453.5458,-131.5548 1452.7039,-124.6056"/>
<text text-anchor="middle" x="1497.5" y="-129" font-family="Helvetica,sans-Serif" font-size="10.00" fill="#000000"> status</text>
</g>
<!-- Node3 -->
<g id="node3" class="node">
<title>Node3</title>
<g id="a_node3"><a xlink:href="classgko_1_1Array.html" target="_top" xlink:title="An Array is a container which encapsulates fixed&#45;sized arrays, stored on the Executor tied to the Arr...">
<polygon fill="#ffffff" stroke="#000000" points="979,-125.5 979,-144.5 1118,-144.5 1118,-125.5 979,-125.5"/>
<text text-anchor="middle" x="1048.5" y="-132.5" font-family="Helvetica,sans-Serif" font-size="10.00" fill="#000000">gko::Array&lt; ValueType &gt;</text>
</a>
</g>
</g>
<!-- Node3&#45;&gt;Node2 -->
<g id="edge2" class="edge">
<title>Node3&#45;&gt;Node2</title>
<path fill="none" stroke="#ffa500" stroke-dasharray="5,2" d="M1128.3049,-135C1180.5033,-135 1248.1422,-135 1298.7502,-135"/>
<polygon fill="#ffa500" stroke="#ffa500" points="1128.0807,-131.5001 1118.0806,-135 1128.0806,-138.5001 1128.0807,-131.5001"/>
<text text-anchor="middle" x="1217.5" y="-138" font-family="Helvetica,sans-Serif" font-size="10.00" fill="#000000"> &lt; gko::stopping_status &gt;</text>
</g>
<!-- Node4 -->
<g id="node4" class="node">
<title>Node4</title>
<g id="a_node4"><a xlink:title=" ">
<polygon fill="#ffffff" stroke="#bfbfbf" points="1307.5,-68 1307.5,-98 1434.5,-98 1434.5,-68 1307.5,-68"/>
<text text-anchor="start" x="1315.5" y="-86" font-family="Helvetica,sans-Serif" font-size="10.00" fill="#000000">std::unique_ptr&lt; const</text>
<text text-anchor="middle" x="1371" y="-75" font-family="Helvetica,sans-Serif" font-size="10.00" fill="#000000"> gko::LinOp &gt;</text>
</a>
</g>
</g>
<!-- Node4&#45;&gt;Node1 -->
<g id="edge3" class="edge">
<title>Node4&#45;&gt;Node1</title>
<path fill="none" stroke="#9a32cd" stroke-dasharray="5,2" d="M1445.2028,-80.3689C1450.5484,-80.2278 1455.8566,-80.1022 1461,-80 1490.8259,-79.4071 1523.8754,-79.1397 1551.8087,-79.0273"/>
<polygon fill="#9a32cd" stroke="#9a32cd" points="1444.8081,-76.8785 1434.9102,-80.6575 1445.0044,-83.8758 1444.8081,-76.8785"/>
<text text-anchor="middle" x="1497.5" y="-105" font-family="Helvetica,sans-Serif" font-size="10.00" fill="#000000"> residual_norm</text>
<text text-anchor="middle" x="1497.5" y="-94" font-family="Helvetica,sans-Serif" font-size="10.00" fill="#000000">solution</text>
<text text-anchor="middle" x="1497.5" y="-83" font-family="Helvetica,sans-Serif" font-size="10.00" fill="#000000">residual</text>
</g>
<!-- Node5 -->
<g id="node5" class="node">
<title>Node5</title>
<g id="a_node5"><a xlink:title="STL class.">
<polygon fill="#ffffff" stroke="#bfbfbf" points="989.5,-73.5 989.5,-92.5 1107.5,-92.5 1107.5,-73.5 989.5,-73.5"/>
<text text-anchor="middle" x="1048.5" y="-80.5" font-family="Helvetica,sans-Serif" font-size="10.00" fill="#000000">std::unique_ptr&lt; T &gt;</text>
</a>
</g>
</g>
<!-- Node5&#45;&gt;Node4 -->
<g id="edge4" class="edge">
<title>Node5&#45;&gt;Node4</title>
<path fill="none" stroke="#ffa500" stroke-dasharray="5,2" d="M1117.8744,-83C1174.0744,-83 1252.6202,-83 1307.2543,-83"/>
<polygon fill="#ffa500" stroke="#ffa500" points="1117.6515,-79.5001 1107.6515,-83 1117.6514,-86.5001 1117.6515,-79.5001"/>
<text text-anchor="middle" x="1217.5" y="-86" font-family="Helvetica,sans-Serif" font-size="10.00" fill="#000000"> &lt; const gko::LinOp &gt;</text>
</g>
<!-- Node6 -->
<g id="node6" class="node">
<title>Node6</title>
<g id="a_node6"><a xlink:href="classgko_1_1stop_1_1Criterion.html" target="_top" xlink:title="The Criterion class is a base class for all stopping criteria.">
<polygon fill="#ffffff" stroke="#000000" points="1316,-29.5 1316,-48.5 1426,-48.5 1426,-29.5 1316,-29.5"/>
<text text-anchor="middle" x="1371" y="-36.5" font-family="Helvetica,sans-Serif" font-size="10.00" fill="#000000">gko::stop::Criterion</text>
</a>
</g>
</g>
<!-- Node6&#45;&gt;Node1 -->
<g id="edge5" class="edge">
<title>Node6&#45;&gt;Node1</title>
<path fill="none" stroke="#9a32cd" stroke-dasharray="5,2" d="M1436.4166,-48.6108C1466.2151,-53.0972 1501.9225,-58.625 1534,-64 1544.1939,-65.7081 1555.0792,-67.6226 1565.4883,-69.4975"/>
<polygon fill="#9a32cd" stroke="#9a32cd" points="1436.5471,-45.0913 1426.1385,-47.0692 1435.5088,-52.0138 1436.5471,-45.0913"/>
<text text-anchor="middle" x="1497.5" y="-67" font-family="Helvetica,sans-Serif" font-size="10.00" fill="#000000"> criterion</text>
</g>
<!-- Node7 -->
<g id="node7" class="node">
<title>Node7</title>
<g id="a_node7"><a xlink:href="classgko_1_1EnableAbstractPolymorphicObject.html" target="_top" xlink:title=" ">
<polygon fill="#ffffff" stroke="#000000" points="961,-24 961,-54 1136,-54 1136,-24 961,-24"/>
<text text-anchor="start" x="969" y="-42" font-family="Helvetica,sans-Serif" font-size="10.00" fill="#000000">gko::EnableAbstractPolymorphic</text>
<text text-anchor="middle" x="1048.5" y="-31" font-family="Helvetica,sans-Serif" font-size="10.00" fill="#000000">Object&lt; Criterion &gt;</text>
</a>
</g>
</g>
<!-- Node7&#45;&gt;Node6 -->
<g id="edge6" class="edge">
<title>Node7&#45;&gt;Node6</title>
<path fill="none" stroke="#191970" d="M1146.4184,-39C1201.9349,-39 1269.3591,-39 1315.7572,-39"/>
<polygon fill="#191970" stroke="#191970" points="1146.1986,-35.5001 1136.1986,-39 1146.1985,-42.5001 1146.1986,-35.5001"/>
</g>
<!-- Node8 -->
<g id="node8" class="node">
<title>Node8</title>
<g id="a_node8"><a xlink:href="classgko_1_1PolymorphicObject.html" target="_top" xlink:title="A PolymorphicObject is the abstract base for all &quot;heavy&quot; objects in Ginkgo that behave polymorphicall...">
<polygon fill="#ffffff" stroke="#000000" points="791,-54.5 791,-73.5 924,-73.5 924,-54.5 791,-54.5"/>
<text text-anchor="middle" x="857.5" y="-61.5" font-family="Helvetica,sans-Serif" font-size="10.00" fill="#000000">gko::PolymorphicObject</text>
</a>
</g>
</g>
<!-- Node8&#45;&gt;Node7 -->
<g id="edge7" class="edge">
<title>Node8&#45;&gt;Node7</title>
<path fill="none" stroke="#191970" d="M934.164,-53.9654C942.8942,-52.8227 951.8431,-51.6514 960.703,-50.4917"/>
<polygon fill="#191970" stroke="#191970" points="933.4956,-50.523 924.0344,-55.2913 934.4041,-57.4638 933.4956,-50.523"/>
</g>
<!-- Node9 -->
<g id="node9" class="node">
<title>Node9</title>
<g id="a_node9"><a xlink:href="classgko_1_1log_1_1EnableLogging.html" target="_top" xlink:title=" ">
<polygon fill="#ffffff" stroke="#000000" points="554,-53 554,-83 687,-83 687,-53 554,-53"/>
<text text-anchor="start" x="562" y="-71" font-family="Helvetica,sans-Serif" font-size="10.00" fill="#000000">gko::log::EnableLogging</text>
<text text-anchor="middle" x="620.5" y="-60" font-family="Helvetica,sans-Serif" font-size="10.00" fill="#000000">&lt; PolymorphicObject &gt;</text>
</a>
</g>
</g>
<!-- Node9&#45;&gt;Node8 -->
<g id="edge8" class="edge">
<title>Node9&#45;&gt;Node8</title>
<path fill="none" stroke="#191970" d="M697.2213,-66.7051C727.4331,-66.1952 761.7998,-65.6152 790.9416,-65.1233"/>
<polygon fill="#191970" stroke="#191970" points="697.0879,-63.2068 687.1484,-66.8751 697.2061,-70.2058 697.0879,-63.2068"/>
</g>
<!-- Node10 -->
<g id="node10" class="node">
<title>Node10</title>
<g id="a_node10"><a xlink:href="classgko_1_1log_1_1Loggable.html" target="_top" xlink:title="Loggable class is an interface which should be implemented by classes wanting to support logging.">
<polygon fill="#ffffff" stroke="#000000" points="176,-107.5 176,-126.5 282,-126.5 282,-107.5 176,-107.5"/>
<text text-anchor="middle" x="229" y="-114.5" font-family="Helvetica,sans-Serif" font-size="10.00" fill="#000000">gko::log::Loggable</text>
</a>
</g>
</g>
<!-- Node10&#45;&gt;Node9 -->
<g id="edge9" class="edge">
<title>Node10&#45;&gt;Node9</title>
<path fill="none" stroke="#191970" d="M292.1473,-111.2241C354.3208,-105.2506 451.9097,-95.1069 536,-83 541.7515,-82.1719 547.7117,-81.248 553.6836,-80.2767"/>
<polygon fill="#191970" stroke="#191970" points="291.7237,-107.7485 282.1014,-112.1825 292.3887,-114.7168 291.7237,-107.7485"/>
</g>
<!-- Node11 -->
<g id="node11" class="node">
<title>Node11</title>
<g id="a_node11"><a xlink:href="classgko_1_1log_1_1EnableLogging.html" target="_top" xlink:title="EnableLogging is a mixin which should be inherited by any class which wants to enable logging.">
<polygon fill="#ffffff" stroke="#000000" points="138,-47.5 138,-88.5 320,-88.5 320,-47.5 138,-47.5"/>
<text text-anchor="start" x="146" y="-76.5" font-family="Helvetica,sans-Serif" font-size="10.00" fill="#000000">gko::log::EnableLogging</text>
<text text-anchor="start" x="146" y="-65.5" font-family="Helvetica,sans-Serif" font-size="10.00" fill="#000000">&lt; ConcreteLoggable, Polymorphic</text>
<text text-anchor="middle" x="229" y="-54.5" font-family="Helvetica,sans-Serif" font-size="10.00" fill="#000000">Base &gt;</text>
</a>
</g>
</g>
<!-- Node11&#45;&gt;Node9 -->
<g id="edge10" class="edge">
<title>Node11&#45;&gt;Node9</title>
<path fill="none" stroke="#ffa500" stroke-dasharray="5,2" d="M330.5189,-68C400.9042,-68 492.6363,-68 553.8964,-68"/>
<polygon fill="#ffa500" stroke="#ffa500" points="330.2953,-64.5001 320.2953,-68 330.2952,-71.5001 330.2953,-64.5001"/>
<text text-anchor="middle" x="437" y="-71" font-family="Helvetica,sans-Serif" font-size="10.00" fill="#000000"> &lt; PolymorphicObject &gt;</text>
</g>
<!-- Node12 -->
<g id="node12" class="node">
<title>Node12</title>
<g id="a_node12"><a xlink:title=" ">
<polygon fill="#ffffff" stroke="#bfbfbf" points="0,-21.5 0,-40.5 101,-40.5 101,-21.5 0,-21.5"/>
<text text-anchor="middle" x="50.5" y="-28.5" font-family="Helvetica,sans-Serif" font-size="10.00" fill="#000000">PolymorphicBase</text>
</a>
</g>
</g>
<!-- Node12&#45;&gt;Node11 -->
<g id="edge11" class="edge">
<title>Node12&#45;&gt;Node11</title>
<path fill="none" stroke="#191970" d="M106.2638,-42.5589C116.3029,-44.6398 127.0031,-46.8578 137.7421,-49.0838"/>
<polygon fill="#191970" stroke="#191970" points="106.9705,-39.131 96.4682,-40.5284 105.5496,-45.9853 106.9705,-39.131"/>
</g>
<!-- Node13 -->
<g id="node13" class="node">
<title>Node13</title>
<g id="a_node13"><a xlink:href="classgko_1_1EnableAbstractPolymorphicObject.html" target="_top" xlink:title="This mixin inherits from (a subclass of) PolymorphicObject and provides a base implementation of a ne...">
<polygon fill="#ffffff" stroke="#000000" points="338,-.5 338,-41.5 536,-41.5 536,-.5 338,-.5"/>
<text text-anchor="start" x="346" y="-29.5" font-family="Helvetica,sans-Serif" font-size="10.00" fill="#000000">gko::EnableAbstractPolymorphic</text>
<text text-anchor="start" x="346" y="-18.5" font-family="Helvetica,sans-Serif" font-size="10.00" fill="#000000">Object&lt; AbstractObject, Polymorphic</text>
<text text-anchor="middle" x="437" y="-7.5" font-family="Helvetica,sans-Serif" font-size="10.00" fill="#000000">Base &gt;</text>
</a>
</g>
</g>
<!-- Node12&#45;&gt;Node13 -->
<g id="edge13" class="edge">
<title>Node12&#45;&gt;Node13</title>
<path fill="none" stroke="#191970" d="M111.2068,-29.4293C171.8632,-27.8599 266.1374,-25.4208 337.6981,-23.5693"/>
<polygon fill="#191970" stroke="#191970" points="110.9342,-25.9351 101.0281,-29.6927 111.1153,-32.9328 110.9342,-25.9351"/>
</g>
<!-- Node13&#45;&gt;Node7 -->
<g id="edge12" class="edge">
<title>Node13&#45;&gt;Node7</title>
<path fill="none" stroke="#ffa500" stroke-dasharray="5,2" d="M546.4491,-24.2217C664.9128,-27.7088 851.4938,-33.201 960.7319,-36.4165"/>
<polygon fill="#ffa500" stroke="#ffa500" points="546.3668,-20.7179 536.2681,-23.922 546.1608,-27.7148 546.3668,-20.7179"/>
<text text-anchor="middle" x="739" y="-34" font-family="Helvetica,sans-Serif" font-size="10.00" fill="#000000"> &lt; Criterion &gt;</text>
</g>
</g>
</svg>
        <g id="navigator" transform="translate(0 0)" fill="#404254">
                <rect fill="#f2f5e9" fill-opacity="0.5" stroke="#606060" stroke-width=".5" x="0" y="0" width="60" height="60"/>
                <use id="zoomplus" xlink:href="#zoomPlus" x="17" y="9" onmousedown="handleZoom(evt,'in')"/>
                <use id="zoomminus" xlink:href="#zoomMin" x="42" y="9" onmousedown="handleZoom(evt,'out')"/>
                <use id="reset" xlink:href="#resetDef" x="30" y="36" onmousedown="handleReset()"/>
                <g id="arrowUp" xlink:href="#dirArrow" transform="translate(30 24)" onmousedown="handlePan(0,-1)">
                  <use xlink:href="#rim" fill="#404040">
                        <set attributeName="fill" to="#808080" begin="arrowUp.mouseover" end="arrowUp.mouseout"/>
                  </use>
                  <path fill="none" stroke="white" stroke-width="1.5" d="M0,-3.0v7 M-2.5,-0.5L0,-3.0L2.5,-0.5"/>
                </g>
                <g id="arrowRight" xlink:href="#dirArrow" transform="rotate(90) translate(36 -43)" onmousedown="handlePan(1,0)">
                  <use xlink:href="#rim" fill="#404040">
                        <set attributeName="fill" to="#808080" begin="arrowRight.mouseover" end="arrowRight.mouseout"/>
                  </use>
                  <path fill="none" stroke="white" stroke-width="1.5" d="M0,-3.0v7 M-2.5,-0.5L0,-3.0L2.5,-0.5"/>
                </g>
                <g id="arrowDown" xlink:href="#dirArrow" transform="rotate(180) translate(-30 -48)" onmousedown="handlePan(0,1)">
                  <use xlink:href="#rim" fill="#404040">
                        <set attributeName="fill" to="#808080" begin="arrowDown.mouseover" end="arrowDown.mouseout"/>
                  </use>
                  <path fill="none" stroke="white" stroke-width="1.5" d="M0,-3.0v7 M-2.5,-0.5L0,-3.0L2.5,-0.5"/>
                </g>
                <g id="arrowLeft" xlink:href="#dirArrow" transform="rotate(270) translate(-36 17)" onmousedown="handlePan(-1,0)">
                  <use xlink:href="#rim" fill="#404040">
                        <set attributeName="fill" to="#808080" begin="arrowLeft.mouseover" end="arrowLeft.mouseout"/>
                  </use>
                  <path fill="none" stroke="white" stroke-width="1.5" d="M0,-3.0v7 M-2.5,-0.5L0,-3.0L2.5,-0.5"/>
                </g>
        </g>
        <svg viewBox="0 0 15 15" width="100%" height="30px" preserveAspectRatio="xMaxYMin meet">
         <g id="arrow_out" transform="scale(0.3 0.3)">
          <a xlink:href="structgko_1_1log_1_1criterion__data__coll__graph_org.svg" target="_base">
           <rect id="button" ry="5" rx="5" y="6" x="6" height="38" width="38"
                fill="#f2f5e9" fill-opacity="0.5" stroke="#606060" stroke-width="1.0"/>
           <path id="arrow"
             d="M 11.500037,31.436501 C 11.940474,20.09759 22.043105,11.32322 32.158766,21.979434 L 37.068811,17.246167 C 37.068811,17.246167 37.088388,32 37.088388,32 L 22.160133,31.978069 C 22.160133,31.978069 26.997745,27.140456 26.997745,27.140456 C 18.528582,18.264221 13.291696,25.230495 11.500037,31.436501 z"
             style="fill:#404040;"/>
          </a>
         </g>
        </svg>
</svg>
