<?xml version="1.0" encoding="UTF-8" standalone="no"?>
<!DOCTYPE svg PUBLIC "-//W3C//DTD SVG 1.1//EN"
 "http://www.w3.org/Graphics/SVG/1.1/DTD/svg11.dtd">
<!-- Generated by graphviz version 2.40.1 (20161225.0304)
 -->
<!-- Title: gko::experimental::distributed::Partition&lt; LocalIndexType, GlobalIndexType &gt; Pages: 1 -->
<!--zoomable 290 -->
<svg id="main" version="1.1" xmlns="http://www.w3.org/2000/svg" xmlns:xlink="http://www.w3.org/1999/xlink" xml:space="preserve" onload="init(evt)">
<style type="text/css"><![CDATA[
.edge:hover path { stroke: red; }
.edge:hover polygon { stroke: red; fill: red; }
]]></style>
<script type="text/javascript"><![CDATA[
var edges = document.getElementsByTagName('g');
if (edges && edges.length) {
  for (var i=0;i<edges.length;i++) {
    if (edges[i].id.substr(0,4)=='edge') {
      edges[i].setAttribute('class','edge');
    }
  }
}
]]></script>
        <defs>
                <circle id="rim" cx="0" cy="0" r="7"/>
                <circle id="rim2" cx="0" cy="0" r="3.5"/>
                <g id="zoomPlus">
                        <use xlink:href="#rim" fill="#404040">
                                <set attributeName="fill" to="#808080" begin="zoomplus.mouseover" end="zoomplus.mouseout"/>
                        </use>
                        <path d="M-4,0h8M0,-4v8" fill="none" stroke="white" stroke-width="1.5" pointer-events="none"/>
                </g>
                <g id="zoomMin">
                        <use xlink:href="#rim" fill="#404040">
                                <set attributeName="fill" to="#808080" begin="zoomminus.mouseover" end="zoomminus.mouseout"/>
                        </use>
                        <path d="M-4,0h8" fill="none" stroke="white" stroke-width="1.5" pointer-events="none"/>
                </g>
                <g id="dirArrow">
                        <path fill="none" stroke="white" stroke-width="1.5" d="M0,-3.0v7 M-2.5,-0.5L0,-3.0L2.5,-0.5"/>
                </g>
               <g id="resetDef">
                       <use xlink:href="#rim2" fill="#404040">
                               <set attributeName="fill" to="#808080" begin="reset.mouseover" end="reset.mouseout"/>
                       </use>
               </g>
        </defs>

<script type="text/javascript">
var viewWidth = 2109;
var viewHeight = 290;
var sectionId = 'dynsection-1';
</script>
<script xlink:href="svgpan.js"/>
<svg id="graph" class="graph">
<g id="viewport">
<title>gko::experimental::distributed::Partition&lt; LocalIndexType, GlobalIndexType &gt;</title>
<polygon fill="#ffffff" stroke="transparent" points="-4,4 -4,-285.5 2105,-285.5 2105,4 -4,4"/>
<!-- Node1 -->
<g id="node1" class="node">
<title>Node1</title>
<g id="a_node1"><a xlink:title="Represents a partition of a range of indices [0, size) into a disjoint set of parts.">
<polygon fill="#bfbfbf" stroke="#000000" points="1934,-71.5 1934,-123.5 2101,-123.5 2101,-71.5 1934,-71.5"/>
<text text-anchor="start" x="1942" y="-111.5" font-family="Helvetica,sans-Serif" font-size="10.00" fill="#000000">gko::experimental::</text>
<text text-anchor="start" x="1942" y="-100.5" font-family="Helvetica,sans-Serif" font-size="10.00" fill="#000000">distributed::Partition</text>
<text text-anchor="start" x="1942" y="-89.5" font-family="Helvetica,sans-Serif" font-size="10.00" fill="#000000">&lt; LocalIndexType, GlobalIndex</text>
<text text-anchor="middle" x="2017.5" y="-78.5" font-family="Helvetica,sans-Serif" font-size="10.00" fill="#000000">Type &gt;</text>
</a>
</g>
</g>
<!-- Node2 -->
<g id="node2" class="node">
<title>Node2</title>
<g id="a_node2"><a xlink:href="classgko_1_1EnablePolymorphicObject.html" target="_top" xlink:title=" ">
<polygon fill="#ffffff" stroke="#000000" points="1718,-108 1718,-149 1884,-149 1884,-108 1718,-108"/>
<text text-anchor="start" x="1726" y="-137" font-family="Helvetica,sans-Serif" font-size="10.00" fill="#000000">gko::EnablePolymorphicObject</text>
<text text-anchor="start" x="1726" y="-126" font-family="Helvetica,sans-Serif" font-size="10.00" fill="#000000">&lt; Partition&lt; LocalIndexType,</text>
<text text-anchor="middle" x="1801" y="-115" font-family="Helvetica,sans-Serif" font-size="10.00" fill="#000000"> GlobalIndexType &gt; &gt;</text>
</a>
</g>
</g>
<!-- Node2&#45;&gt;Node1 -->
<g id="edge1" class="edge">
<title>Node2&#45;&gt;Node1</title>
<path fill="none" stroke="#191970" d="M1894.1274,-115.1654C1907.3551,-113.2713 1920.8901,-111.3333 1933.9213,-109.4674"/>
<polygon fill="#191970" stroke="#191970" points="1893.4883,-111.7211 1884.0854,-116.6032 1894.4805,-118.6504 1893.4883,-111.7211"/>
</g>
<!-- Node3 -->
<g id="node3" class="node">
<title>Node3</title>
<g id="a_node3"><a xlink:href="classgko_1_1EnableAbstractPolymorphicObject.html" target="_top" xlink:title=" ">
<polygon fill="#ffffff" stroke="#000000" points="1303,-169 1303,-210 1524,-210 1524,-169 1303,-169"/>
<text text-anchor="start" x="1311" y="-198" font-family="Helvetica,sans-Serif" font-size="10.00" fill="#000000">gko::EnableAbstractPolymorphic</text>
<text text-anchor="start" x="1311" y="-187" font-family="Helvetica,sans-Serif" font-size="10.00" fill="#000000">Object&lt; Partition&lt; LocalIndexType,</text>
<text text-anchor="middle" x="1413.5" y="-176" font-family="Helvetica,sans-Serif" font-size="10.00" fill="#000000"> GlobalIndexType &gt;, PolymorphicObject &gt;</text>
</a>
</g>
</g>
<!-- Node3&#45;&gt;Node2 -->
<g id="edge2" class="edge">
<title>Node3&#45;&gt;Node2</title>
<path fill="none" stroke="#191970" d="M1534.2535,-170.4911C1593.8541,-161.1088 1664.2485,-150.0273 1717.753,-141.6047"/>
<polygon fill="#191970" stroke="#191970" points="1533.3574,-167.0889 1524.0234,-172.1015 1534.446,-174.0038 1533.3574,-167.0889"/>
</g>
<!-- Node4 -->
<g id="node4" class="node">
<title>Node4</title>
<g id="a_node4"><a xlink:href="classgko_1_1PolymorphicObject.html" target="_top" xlink:title="A PolymorphicObject is the abstract base for all &quot;heavy&quot; objects in Ginkgo that behave polymorphicall...">
<polygon fill="#ffffff" stroke="#000000" points="929,-217 929,-236 1062,-236 1062,-217 929,-217"/>
<text text-anchor="middle" x="995.5" y="-224" font-family="Helvetica,sans-Serif" font-size="10.00" fill="#000000">gko::PolymorphicObject</text>
</a>
</g>
</g>
<!-- Node4&#45;&gt;Node3 -->
<g id="edge3" class="edge">
<title>Node4&#45;&gt;Node3</title>
<path fill="none" stroke="#191970" d="M1072.3053,-219.7014C1136.8709,-213.9863 1229.9891,-205.7438 1302.6394,-199.313"/>
<polygon fill="#191970" stroke="#191970" points="1071.848,-216.2281 1062.1955,-220.5963 1072.4652,-223.2009 1071.848,-216.2281"/>
</g>
<!-- Node5 -->
<g id="node5" class="node">
<title>Node5</title>
<g id="a_node5"><a xlink:href="classgko_1_1log_1_1EnableLogging.html" target="_top" xlink:title=" ">
<polygon fill="#ffffff" stroke="#000000" points="563,-216.5 563,-246.5 696,-246.5 696,-216.5 563,-216.5"/>
<text text-anchor="start" x="571" y="-234.5" font-family="Helvetica,sans-Serif" font-size="10.00" fill="#000000">gko::log::EnableLogging</text>
<text text-anchor="middle" x="629.5" y="-223.5" font-family="Helvetica,sans-Serif" font-size="10.00" fill="#000000">&lt; PolymorphicObject &gt;</text>
</a>
</g>
</g>
<!-- Node5&#45;&gt;Node4 -->
<g id="edge4" class="edge">
<title>Node5&#45;&gt;Node4</title>
<path fill="none" stroke="#191970" d="M706.5299,-230.4477C772.4177,-229.5476 866.2683,-228.2655 928.9453,-227.4092"/>
<polygon fill="#191970" stroke="#191970" points="706.1557,-226.9524 696.2045,-230.5887 706.2514,-233.9517 706.1557,-226.9524"/>
</g>
<!-- Node6 -->
<g id="node6" class="node">
<title>Node6</title>
<g id="a_node6"><a xlink:href="classgko_1_1log_1_1Loggable.html" target="_top" xlink:title="Loggable class is an interface which should be implemented by classes wanting to support logging.">
<polygon fill="#ffffff" stroke="#000000" points="184,-262 184,-281 290,-281 290,-262 184,-262"/>
<text text-anchor="middle" x="237" y="-269" font-family="Helvetica,sans-Serif" font-size="10.00" fill="#000000">gko::log::Loggable</text>
</a>
</g>
</g>
<!-- Node6&#45;&gt;Node5 -->
<g id="edge5" class="edge">
<title>Node6&#45;&gt;Node5</title>
<path fill="none" stroke="#191970" d="M300.6369,-265.0147C372.683,-257.6724 489.5366,-245.7638 562.8175,-238.2957"/>
<polygon fill="#191970" stroke="#191970" points="299.9364,-261.5679 290.3428,-266.0638 300.6461,-268.5318 299.9364,-261.5679"/>
</g>
<!-- Node7 -->
<g id="node7" class="node">
<title>Node7</title>
<g id="a_node7"><a xlink:href="classgko_1_1log_1_1EnableLogging.html" target="_top" xlink:title="EnableLogging is a mixin which should be inherited by any class which wants to enable logging.">
<polygon fill="#ffffff" stroke="#000000" points="146,-202 146,-243 328,-243 328,-202 146,-202"/>
<text text-anchor="start" x="154" y="-231" font-family="Helvetica,sans-Serif" font-size="10.00" fill="#000000">gko::log::EnableLogging</text>
<text text-anchor="start" x="154" y="-220" font-family="Helvetica,sans-Serif" font-size="10.00" fill="#000000">&lt; ConcreteLoggable, Polymorphic</text>
<text text-anchor="middle" x="237" y="-209" font-family="Helvetica,sans-Serif" font-size="10.00" fill="#000000">Base &gt;</text>
</a>
</g>
</g>
<!-- Node7&#45;&gt;Node5 -->
<g id="edge6" class="edge">
<title>Node7&#45;&gt;Node5</title>
<path fill="none" stroke="#ffa500" stroke-dasharray="5,2" d="M338.2987,-224.8228C408.9782,-226.4435 501.3064,-228.5605 562.8622,-229.972"/>
<polygon fill="#ffa500" stroke="#ffa500" points="338.1116,-221.3177 328.0339,-224.5874 337.951,-228.3158 338.1116,-221.3177"/>
<text text-anchor="middle" x="432.5" y="-231.5" font-family="Helvetica,sans-Serif" font-size="10.00" fill="#000000"> &lt; PolymorphicObject &gt;</text>
</g>
<!-- Node8 -->
<g id="node8" class="node">
<title>Node8</title>
<g id="a_node8"><a xlink:title=" ">
<polygon fill="#ffffff" stroke="#bfbfbf" points="0,-153 0,-172 101,-172 101,-153 0,-153"/>
<text text-anchor="middle" x="50.5" y="-160" font-family="Helvetica,sans-Serif" font-size="10.00" fill="#000000">PolymorphicBase</text>
</a>
</g>
</g>
<!-- Node8&#45;&gt;Node7 -->
<g id="edge7" class="edge">
<title>Node8&#45;&gt;Node7</title>
<path fill="none" stroke="#191970" d="M87.3985,-175.4808C102.9725,-180.8738 121.3267,-187.1174 138,-192.5 147.6563,-195.6173 157.8725,-198.8199 167.9312,-201.9183"/>
<polygon fill="#191970" stroke="#191970" points="88.2061,-172.0561 77.6113,-172.0773 85.9069,-178.6677 88.2061,-172.0561"/>
</g>
<!-- Node9 -->
<g id="node9" class="node">
<title>Node9</title>
<g id="a_node9"><a xlink:href="classgko_1_1EnableAbstractPolymorphicObject.html" target="_top" xlink:title="This mixin inherits from (a subclass of) PolymorphicObject and provides a base implementation of a ne...">
<polygon fill="#ffffff" stroke="#000000" points="138,-142 138,-183 336,-183 336,-142 138,-142"/>
<text text-anchor="start" x="146" y="-171" font-family="Helvetica,sans-Serif" font-size="10.00" fill="#000000">gko::EnableAbstractPolymorphic</text>
<text text-anchor="start" x="146" y="-160" font-family="Helvetica,sans-Serif" font-size="10.00" fill="#000000">Object&lt; AbstractObject, Polymorphic</text>
<text text-anchor="middle" x="237" y="-149" font-family="Helvetica,sans-Serif" font-size="10.00" fill="#000000">Base &gt;</text>
</a>
</g>
</g>
<!-- Node8&#45;&gt;Node9 -->
<g id="edge9" class="edge">
<title>Node8&#45;&gt;Node9</title>
<path fill="none" stroke="#191970" d="M111.5248,-162.5C119.9555,-162.5 128.7869,-162.5 137.6923,-162.5"/>
<polygon fill="#191970" stroke="#191970" points="111.462,-159.0001 101.4619,-162.5 111.4619,-166.0001 111.462,-159.0001"/>
</g>
<!-- Node11 -->
<g id="node11" class="node">
<title>Node11</title>
<g id="a_node11"><a xlink:href="classgko_1_1EnableAbstractPolymorphicObject.html" target="_top" xlink:title=" ">
<polygon fill="#ffffff" stroke="#000000" points="529,-108 529,-149 730,-149 730,-108 529,-108"/>
<text text-anchor="start" x="537" y="-137" font-family="Helvetica,sans-Serif" font-size="10.00" fill="#000000">gko::EnableAbstractPolymorphic</text>
<text text-anchor="start" x="537" y="-126" font-family="Helvetica,sans-Serif" font-size="10.00" fill="#000000">Object&lt; ConcreteObject, Polymorphic</text>
<text text-anchor="middle" x="629.5" y="-115" font-family="Helvetica,sans-Serif" font-size="10.00" fill="#000000">Base &gt;</text>
</a>
</g>
</g>
<!-- Node8&#45;&gt;Node11 -->
<g id="edge12" class="edge">
<title>Node8&#45;&gt;Node11</title>
<path fill="none" stroke="#191970" d="M81.5592,-149.1253C98.0027,-142.7485 118.7317,-135.8031 138,-132.5 271.7282,-109.5752 428.9407,-113.5843 528.8789,-119.9137"/>
<polygon fill="#191970" stroke="#191970" points="79.9071,-146.0167 71.9259,-152.9846 82.5103,-152.5146 79.9071,-146.0167"/>
</g>
<!-- Node9&#45;&gt;Node3 -->
<g id="edge8" class="edge">
<title>Node9&#45;&gt;Node3</title>
<path fill="none" stroke="#ffa500" stroke-dasharray="5,2" d="M346.3114,-169.181C348.8988,-169.2937 351.4647,-169.4003 354,-169.5 700.0629,-183.1129 1110.0861,-187.5201 1302.8722,-188.8994"/>
<polygon fill="#ffa500" stroke="#ffa500" points="346.3931,-165.6812 336.2432,-168.719 346.0722,-172.6738 346.3931,-165.6812"/>
<text text-anchor="start" x="748" y="-208.5" font-family="Helvetica,sans-Serif" font-size="10.00" fill="#000000"> &lt; Partition&lt; LocalIndexType,</text>
<text text-anchor="start" x="748" y="-197.5" font-family="Helvetica,sans-Serif" font-size="10.00" fill="#000000"> GlobalIndexType &gt;, Polymorphic</text>
<text text-anchor="middle" x="829.5" y="-186.5" font-family="Helvetica,sans-Serif" font-size="10.00" fill="#000000">Object &gt;</text>
</g>
<!-- Node9&#45;&gt;Node11 -->
<g id="edge13" class="edge">
<title>Node9&#45;&gt;Node11</title>
<path fill="none" stroke="#ffa500" stroke-dasharray="5,2" d="M346.2955,-148.2828C348.8877,-148.0118 351.4589,-147.7503 354,-147.5 411.8515,-141.8016 476.7046,-137.2389 528.9493,-134.0144"/>
<polygon fill="#ffa500" stroke="#ffa500" points="345.7778,-144.8183 336.2114,-149.3718 346.5294,-151.7778 345.7778,-144.8183"/>
<text text-anchor="start" x="354" y="-161.5" font-family="Helvetica,sans-Serif" font-size="10.00" fill="#000000"> &lt; ConcreteObject, Polymorphic</text>
<text text-anchor="middle" x="432.5" y="-150.5" font-family="Helvetica,sans-Serif" font-size="10.00" fill="#000000">Base &gt;</text>
</g>
<!-- Node10 -->
<g id="node10" class="node">
<title>Node10</title>
<g id="a_node10"><a xlink:href="classgko_1_1EnablePolymorphicObject.html" target="_top" xlink:title="This mixin inherits from (a subclass of) PolymorphicObject and provides a base implementation of a ne...">
<polygon fill="#ffffff" stroke="#000000" points="1080,-113.5 1080,-143.5 1285,-143.5 1285,-113.5 1080,-113.5"/>
<text text-anchor="start" x="1088" y="-131.5" font-family="Helvetica,sans-Serif" font-size="10.00" fill="#000000">gko::EnablePolymorphicObject</text>
<text text-anchor="middle" x="1182.5" y="-120.5" font-family="Helvetica,sans-Serif" font-size="10.00" fill="#000000">&lt; ConcreteObject, PolymorphicBase &gt;</text>
</a>
</g>
</g>
<!-- Node10&#45;&gt;Node2 -->
<g id="edge10" class="edge">
<title>Node10&#45;&gt;Node2</title>
<path fill="none" stroke="#ffa500" stroke-dasharray="5,2" d="M1295.4452,-128.5C1417.4106,-128.5 1608.8243,-128.5 1717.7758,-128.5"/>
<polygon fill="#ffa500" stroke="#ffa500" points="1295.327,-125.0001 1285.327,-128.5 1295.327,-132.0001 1295.327,-125.0001"/>
<text text-anchor="start" x="1341" y="-142.5" font-family="Helvetica,sans-Serif" font-size="10.00" fill="#000000"> &lt; Partition&lt; LocalIndexType,</text>
<text text-anchor="middle" x="1413.5" y="-131.5" font-family="Helvetica,sans-Serif" font-size="10.00" fill="#000000"> GlobalIndexType &gt; &gt;</text>
</g>
<!-- Node11&#45;&gt;Node10 -->
<g id="edge11" class="edge">
<title>Node11&#45;&gt;Node10</title>
<path fill="none" stroke="#191970" d="M740.3199,-128.5C839.2879,-128.5 983.1184,-128.5 1079.5965,-128.5"/>
<polygon fill="#191970" stroke="#191970" points="740.2857,-125.0001 730.2857,-128.5 740.2857,-132.0001 740.2857,-125.0001"/>
</g>
<!-- Node12 -->
<g id="node12" class="node">
<title>Node12</title>
<g id="a_node12"><a xlink:href="classgko_1_1EnablePolymorphicAssignment.html" target="_top" xlink:title=" ">
<polygon fill="#ffffff" stroke="#000000" points="1705,-48 1705,-89 1897,-89 1897,-48 1705,-48"/>
<text text-anchor="start" x="1713" y="-77" font-family="Helvetica,sans-Serif" font-size="10.00" fill="#000000">gko::EnablePolymorphicAssignment</text>
<text text-anchor="start" x="1713" y="-66" font-family="Helvetica,sans-Serif" font-size="10.00" fill="#000000">&lt; Partition&lt; LocalIndexType,</text>
<text text-anchor="middle" x="1801" y="-55" font-family="Helvetica,sans-Serif" font-size="10.00" fill="#000000"> GlobalIndexType &gt; &gt;</text>
</a>
</g>
</g>
<!-- Node12&#45;&gt;Node1 -->
<g id="edge14" class="edge">
<title>Node12&#45;&gt;Node1</title>
<path fill="none" stroke="#191970" d="M1907.2594,-82.7334C1916.1689,-83.9268 1925.0964,-85.1226 1933.8003,-86.2885"/>
<polygon fill="#191970" stroke="#191970" points="1907.597,-79.2474 1897.2209,-81.3887 1906.6676,-86.1854 1907.597,-79.2474"/>
</g>
<!-- Node13 -->
<g id="node13" class="node">
<title>Node13</title>
<g id="a_node13"><a xlink:href="classgko_1_1ConvertibleTo.html" target="_top" xlink:title=" ">
<polygon fill="#ffffff" stroke="#000000" points="1334.5,-50 1334.5,-91 1492.5,-91 1492.5,-50 1334.5,-50"/>
<text text-anchor="start" x="1342.5" y="-79" font-family="Helvetica,sans-Serif" font-size="10.00" fill="#000000">gko::ConvertibleTo</text>
<text text-anchor="start" x="1342.5" y="-68" font-family="Helvetica,sans-Serif" font-size="10.00" fill="#000000">&lt; Partition&lt; LocalIndexType,</text>
<text text-anchor="middle" x="1413.5" y="-57" font-family="Helvetica,sans-Serif" font-size="10.00" fill="#000000"> GlobalIndexType &gt; &gt;</text>
</a>
</g>
</g>
<!-- Node13&#45;&gt;Node12 -->
<g id="edge15" class="edge">
<title>Node13&#45;&gt;Node12</title>
<path fill="none" stroke="#191970" d="M1503.1396,-70.0373C1563.5724,-69.7254 1643.2273,-69.3143 1704.9578,-68.9957"/>
<polygon fill="#191970" stroke="#191970" points="1502.8332,-66.5388 1492.8515,-70.0904 1502.8694,-73.5387 1502.8332,-66.5388"/>
</g>
<!-- Node14 -->
<g id="node14" class="node">
<title>Node14</title>
<g id="a_node14"><a xlink:href="classgko_1_1ConvertibleTo.html" target="_top" xlink:title="ConvertibleTo interface is used to mark that the implementer can be converted to the object of Result...">
<polygon fill="#ffffff" stroke="#000000" points="942,-34.5 942,-64.5 1049,-64.5 1049,-34.5 942,-34.5"/>
<text text-anchor="start" x="950" y="-52.5" font-family="Helvetica,sans-Serif" font-size="10.00" fill="#000000">gko::ConvertibleTo</text>
<text text-anchor="middle" x="995.5" y="-41.5" font-family="Helvetica,sans-Serif" font-size="10.00" fill="#000000">&lt; ResultType &gt;</text>
</a>
</g>
</g>
<!-- Node14&#45;&gt;Node13 -->
<g id="edge16" class="edge">
<title>Node14&#45;&gt;Node13</title>
<path fill="none" stroke="#ffa500" stroke-dasharray="5,2" d="M1059.3718,-52.7089C1133.1234,-56.4141 1254.4944,-62.5117 1334.2168,-66.5169"/>
<polygon fill="#ffa500" stroke="#ffa500" points="1059.4535,-49.2087 1049.2905,-52.2024 1059.1022,-56.1998 1059.4535,-49.2087"/>
<text text-anchor="start" x="1110" y="-78.5" font-family="Helvetica,sans-Serif" font-size="10.00" fill="#000000"> &lt; Partition&lt; LocalIndexType,</text>
<text text-anchor="middle" x="1182.5" y="-67.5" font-family="Helvetica,sans-Serif" font-size="10.00" fill="#000000"> GlobalIndexType &gt; &gt;</text>
</g>
<!-- Node15 -->
<g id="node15" class="node">
<title>Node15</title>
<g id="a_node15"><a xlink:href="classgko_1_1EnablePolymorphicAssignment.html" target="_top" xlink:title="This mixin is used to enable a default PolymorphicObject::copy_from() implementation for objects that...">
<polygon fill="#ffffff" stroke="#000000" points="1317.5,-.5 1317.5,-30.5 1509.5,-30.5 1509.5,-.5 1317.5,-.5"/>
<text text-anchor="start" x="1325.5" y="-18.5" font-family="Helvetica,sans-Serif" font-size="10.00" fill="#000000">gko::EnablePolymorphicAssignment</text>
<text text-anchor="middle" x="1413.5" y="-7.5" font-family="Helvetica,sans-Serif" font-size="10.00" fill="#000000">&lt; ConcreteType, ResultType &gt;</text>
</a>
</g>
</g>
<!-- Node14&#45;&gt;Node15 -->
<g id="edge18" class="edge">
<title>Node14&#45;&gt;Node15</title>
<path fill="none" stroke="#191970" d="M1059.5353,-44.2914C1128.2361,-38.7033 1238.1217,-29.7652 1317.2426,-23.3295"/>
<polygon fill="#191970" stroke="#191970" points="1058.9738,-40.8254 1049.2905,-45.1247 1059.5413,-47.8024 1058.9738,-40.8254"/>
</g>
<!-- Node15&#45;&gt;Node12 -->
<g id="edge17" class="edge">
<title>Node15&#45;&gt;Node12</title>
<path fill="none" stroke="#ffa500" stroke-dasharray="5,2" d="M1519.7392,-23.5429C1570.5374,-28.1108 1632.1019,-34.6997 1687,-43.5 1695.1027,-44.7989 1703.4948,-46.3125 1711.882,-47.9404"/>
<polygon fill="#ffa500" stroke="#ffa500" points="1519.9981,-20.0522 1509.7283,-22.6562 1519.3805,-27.0249 1519.9981,-20.0522"/>
<text text-anchor="start" x="1542" y="-57.5" font-family="Helvetica,sans-Serif" font-size="10.00" fill="#000000"> &lt; Partition&lt; LocalIndexType,</text>
<text text-anchor="middle" x="1614.5" y="-46.5" font-family="Helvetica,sans-Serif" font-size="10.00" fill="#000000"> GlobalIndexType &gt; &gt;</text>
</g>
</g>
</svg>
        <g id="navigator" transform="translate(0 0)" fill="#404254">
                <rect fill="#f2f5e9" fill-opacity="0.5" stroke="#606060" stroke-width=".5" x="0" y="0" width="60" height="60"/>
                <use id="zoomplus" xlink:href="#zoomPlus" x="17" y="9" onmousedown="handleZoom(evt,'in')"/>
                <use id="zoomminus" xlink:href="#zoomMin" x="42" y="9" onmousedown="handleZoom(evt,'out')"/>
                <use id="reset" xlink:href="#resetDef" x="30" y="36" onmousedown="handleReset()"/>
                <g id="arrowUp" xlink:href="#dirArrow" transform="translate(30 24)" onmousedown="handlePan(0,-1)">
                  <use xlink:href="#rim" fill="#404040">
                        <set attributeName="fill" to="#808080" begin="arrowUp.mouseover" end="arrowUp.mouseout"/>
                  </use>
                  <path fill="none" stroke="white" stroke-width="1.5" d="M0,-3.0v7 M-2.5,-0.5L0,-3.0L2.5,-0.5"/>
                </g>
                <g id="arrowRight" xlink:href="#dirArrow" transform="rotate(90) translate(36 -43)" onmousedown="handlePan(1,0)">
                  <use xlink:href="#rim" fill="#404040">
                        <set attributeName="fill" to="#808080" begin="arrowRight.mouseover" end="arrowRight.mouseout"/>
                  </use>
                  <path fill="none" stroke="white" stroke-width="1.5" d="M0,-3.0v7 M-2.5,-0.5L0,-3.0L2.5,-0.5"/>
                </g>
                <g id="arrowDown" xlink:href="#dirArrow" transform="rotate(180) translate(-30 -48)" onmousedown="handlePan(0,1)">
                  <use xlink:href="#rim" fill="#404040">
                        <set attributeName="fill" to="#808080" begin="arrowDown.mouseover" end="arrowDown.mouseout"/>
                  </use>
                  <path fill="none" stroke="white" stroke-width="1.5" d="M0,-3.0v7 M-2.5,-0.5L0,-3.0L2.5,-0.5"/>
                </g>
                <g id="arrowLeft" xlink:href="#dirArrow" transform="rotate(270) translate(-36 17)" onmousedown="handlePan(-1,0)">
                  <use xlink:href="#rim" fill="#404040">
                        <set attributeName="fill" to="#808080" begin="arrowLeft.mouseover" end="arrowLeft.mouseout"/>
                  </use>
                  <path fill="none" stroke="white" stroke-width="1.5" d="M0,-3.0v7 M-2.5,-0.5L0,-3.0L2.5,-0.5"/>
                </g>
        </g>
        <svg viewBox="0 0 15 15" width="100%" height="30px" preserveAspectRatio="xMaxYMin meet">
         <g id="arrow_out" transform="scale(0.3 0.3)">
          <a xlink:href="classgko_1_1experimental_1_1distributed_1_1Partition__coll__graph_org.svg" target="_base">
           <rect id="button" ry="5" rx="5" y="6" x="6" height="38" width="38"
                fill="#f2f5e9" fill-opacity="0.5" stroke="#606060" stroke-width="1.0"/>
           <path id="arrow"
             d="M 11.500037,31.436501 C 11.940474,20.09759 22.043105,11.32322 32.158766,21.979434 L 37.068811,17.246167 C 37.068811,17.246167 37.088388,32 37.088388,32 L 22.160133,31.978069 C 22.160133,31.978069 26.997745,27.140456 26.997745,27.140456 C 18.528582,18.264221 13.291696,25.230495 11.500037,31.436501 z"
             style="fill:#404040;"/>
          </a>
         </g>
        </svg>
</svg>
