<?xml version="1.0" encoding="UTF-8" standalone="no"?>
<!DOCTYPE svg PUBLIC "-//W3C//DTD SVG 1.1//EN"
 "http://www.w3.org/Graphics/SVG/1.1/DTD/svg11.dtd">
<!-- Generated by graphviz version 2.40.1 (20161225.0304)
 -->
<!-- Title: gko::matrix::Coo&lt; ValueType, IndexType &gt; Pages: 1 -->
<svg width="2569pt" height="511pt"
 viewBox="0.00 0.00 2569.00 510.99" xmlns="http://www.w3.org/2000/svg" xmlns:xlink="http://www.w3.org/1999/xlink">
<g id="graph0" class="graph" transform="scale(1 1) rotate(0) translate(4 506.9862)">
<title>gko::matrix::Coo&lt; ValueType, IndexType &gt;</title>
<polygon fill="#ffffff" stroke="transparent" points="-4,4 -4,-506.9862 2565,-506.9862 2565,4 -4,4"/>
<!-- Node1 -->
<g id="node1" class="node">
<title>Node1</title>
<g id="a_node1"><a xlink:title="COO stores a matrix in the coordinate matrix format.">
<polygon fill="#bfbfbf" stroke="#000000" points="2400,-222.5 2400,-252.5 2561,-252.5 2561,-222.5 2400,-222.5"/>
<text text-anchor="start" x="2408" y="-240.5" font-family="Helvetica,sans-Serif" font-size="10.00" fill="#000000">gko::matrix::Coo&lt; ValueType,</text>
<text text-anchor="middle" x="2480.5" y="-229.5" font-family="Helvetica,sans-Serif" font-size="10.00" fill="#000000"> IndexType &gt;</text>
</a>
</g>
</g>
<!-- Node2 -->
<g id="node2" class="node">
<title>Node2</title>
<g id="a_node2"><a xlink:href="classgko_1_1EnableLinOp.html" target="_top" xlink:title=" ">
<polygon fill="#ffffff" stroke="#000000" points="2182.5,-271.5 2182.5,-301.5 2337.5,-301.5 2337.5,-271.5 2182.5,-271.5"/>
<text text-anchor="start" x="2190.5" y="-289.5" font-family="Helvetica,sans-Serif" font-size="10.00" fill="#000000">gko::EnableLinOp&lt; Coo</text>
<text text-anchor="middle" x="2260" y="-278.5" font-family="Helvetica,sans-Serif" font-size="10.00" fill="#000000">&lt; ValueType, IndexType &gt; &gt;</text>
</a>
</g>
</g>
<!-- Node2&#45;&gt;Node1 -->
<g id="edge1" class="edge">
<title>Node2&#45;&gt;Node1</title>
<path fill="none" stroke="#191970" d="M2337.6615,-269.2419C2362.2308,-263.782 2389.1725,-257.795 2412.9722,-252.5062"/>
<polygon fill="#191970" stroke="#191970" points="2336.6584,-265.8793 2327.6558,-271.4654 2338.1769,-272.7127 2336.6584,-265.8793"/>
</g>
<!-- Node3 -->
<g id="node3" class="node">
<title>Node3</title>
<g id="a_node3"><a xlink:href="classgko_1_1EnablePolymorphicObject.html" target="_top" xlink:title=" ">
<polygon fill="#ffffff" stroke="#000000" points="1776.5,-213 1776.5,-254 1942.5,-254 1942.5,-213 1776.5,-213"/>
<text text-anchor="start" x="1784.5" y="-242" font-family="Helvetica,sans-Serif" font-size="10.00" fill="#000000">gko::EnablePolymorphicObject</text>
<text text-anchor="start" x="1784.5" y="-231" font-family="Helvetica,sans-Serif" font-size="10.00" fill="#000000">&lt; Coo&lt; ValueType, IndexType</text>
<text text-anchor="middle" x="1859.5" y="-220" font-family="Helvetica,sans-Serif" font-size="10.00" fill="#000000"> &gt;, LinOp &gt;</text>
</a>
</g>
</g>
<!-- Node3&#45;&gt;Node2 -->
<g id="edge2" class="edge">
<title>Node3&#45;&gt;Node2</title>
<path fill="none" stroke="#191970" d="M1952.6973,-244.6241C2007.0738,-251.251 2076.9677,-260.0032 2139,-268.5 2152.9927,-270.4166 2167.8806,-272.5521 2182.2544,-274.6634"/>
<polygon fill="#191970" stroke="#191970" points="1953.0795,-241.1449 1942.73,-243.412 1952.2344,-248.0937 1953.0795,-241.1449"/>
</g>
<!-- Node4 -->
<g id="node4" class="node">
<title>Node4</title>
<g id="a_node4"><a xlink:href="classgko_1_1EnableAbstractPolymorphicObject.html" target="_top" xlink:title=" ">
<polygon fill="#ffffff" stroke="#000000" points="1354.5,-63 1354.5,-104 1548.5,-104 1548.5,-63 1354.5,-63"/>
<text text-anchor="start" x="1362.5" y="-92" font-family="Helvetica,sans-Serif" font-size="10.00" fill="#000000">gko::EnableAbstractPolymorphic</text>
<text text-anchor="start" x="1362.5" y="-81" font-family="Helvetica,sans-Serif" font-size="10.00" fill="#000000">Object&lt; Coo&lt; ValueType, IndexType</text>
<text text-anchor="middle" x="1451.5" y="-70" font-family="Helvetica,sans-Serif" font-size="10.00" fill="#000000"> &gt;, LinOp &gt;</text>
</a>
</g>
</g>
<!-- Node4&#45;&gt;Node3 -->
<g id="edge3" class="edge">
<title>Node4&#45;&gt;Node3</title>
<path fill="none" stroke="#191970" d="M1559.1831,-86.3577C1633.678,-90.6085 1724.2106,-101.042 1752,-126.5 1777.9144,-150.2403 1746.341,-177.5113 1770,-203.5 1773.1993,-207.0143 1776.8223,-210.1174 1780.7319,-212.8574"/>
<polygon fill="#191970" stroke="#191970" points="1558.9599,-82.8407 1548.7862,-85.798 1558.5836,-89.8306 1558.9599,-82.8407"/>
</g>
<!-- Node5 -->
<g id="node5" class="node">
<title>Node5</title>
<g id="a_node5"><a xlink:href="classgko_1_1LinOp.html" target="_top" xlink:title=" ">
<polygon fill="#ffffff" stroke="#000000" points="1006.5,-80 1006.5,-99 1074.5,-99 1074.5,-80 1006.5,-80"/>
<text text-anchor="middle" x="1040.5" y="-87" font-family="Helvetica,sans-Serif" font-size="10.00" fill="#000000">gko::LinOp</text>
</a>
</g>
</g>
<!-- Node5&#45;&gt;Node4 -->
<g id="edge4" class="edge">
<title>Node5&#45;&gt;Node4</title>
<path fill="none" stroke="#191970" d="M1084.9991,-88.8504C1149.0597,-87.9152 1268.9169,-86.1654 1354.113,-84.9217"/>
<polygon fill="#191970" stroke="#191970" points="1084.7825,-85.3531 1074.8347,-88.9988 1084.8848,-92.3523 1084.7825,-85.3531"/>
</g>
<!-- Node6 -->
<g id="node6" class="node">
<title>Node6</title>
<g id="a_node6"><a xlink:href="classgko_1_1EnableAbstractPolymorphicObject.html" target="_top" xlink:title=" ">
<polygon fill="#ffffff" stroke="#ff0000" points="542,-75.5 542,-105.5 717,-105.5 717,-75.5 542,-75.5"/>
<text text-anchor="start" x="550" y="-93.5" font-family="Helvetica,sans-Serif" font-size="10.00" fill="#000000">gko::EnableAbstractPolymorphic</text>
<text text-anchor="middle" x="629.5" y="-82.5" font-family="Helvetica,sans-Serif" font-size="10.00" fill="#000000">Object&lt; LinOp &gt;</text>
</a>
</g>
</g>
<!-- Node6&#45;&gt;Node5 -->
<g id="edge5" class="edge">
<title>Node6&#45;&gt;Node5</title>
<path fill="none" stroke="#191970" d="M727.4012,-90.2618C817.4625,-90.0427 945.9278,-89.7301 1006.4624,-89.5828"/>
<polygon fill="#191970" stroke="#191970" points="727.1571,-86.7623 717.1657,-90.2867 727.1742,-93.7623 727.1571,-86.7623"/>
</g>
<!-- Node12 -->
<g id="node7" class="node">
<title>Node12</title>
<g id="a_node7"><a xlink:href="classgko_1_1EnableAbstractPolymorphicObject.html" target="_top" xlink:title="This mixin inherits from (a subclass of) PolymorphicObject and provides a base implementation of a ne...">
<polygon fill="#ffffff" stroke="#000000" points="138,-98 138,-139 336,-139 336,-98 138,-98"/>
<text text-anchor="start" x="146" y="-127" font-family="Helvetica,sans-Serif" font-size="10.00" fill="#000000">gko::EnableAbstractPolymorphic</text>
<text text-anchor="start" x="146" y="-116" font-family="Helvetica,sans-Serif" font-size="10.00" fill="#000000">Object&lt; AbstractObject, Polymorphic</text>
<text text-anchor="middle" x="237" y="-105" font-family="Helvetica,sans-Serif" font-size="10.00" fill="#000000">Base &gt;</text>
</a>
</g>
</g>
<!-- Node12&#45;&gt;Node4 -->
<g id="edge8" class="edge">
<title>Node12&#45;&gt;Node4</title>
<path fill="none" stroke="#ffa500" stroke-dasharray="5,2" d="M312.3453,-95.2608C326.1075,-91.5853 340.412,-88.1348 354,-85.5 430.8043,-70.6072 450.9103,-71.2633 529,-66.5 829.5862,-48.1648 1186.1968,-65.9276 1354.4378,-76.6578"/>
<polygon fill="#ffa500" stroke="#ffa500" points="311.1616,-91.9558 302.4381,-97.9684 313.0071,-98.7082 311.1616,-91.9558"/>
<text text-anchor="start" x="759" y="-72.5" font-family="Helvetica,sans-Serif" font-size="10.00" fill="#000000"> &lt; Coo&lt; ValueType, IndexType</text>
<text text-anchor="middle" x="834" y="-61.5" font-family="Helvetica,sans-Serif" font-size="10.00" fill="#000000"> &gt;, LinOp &gt;</text>
</g>
<!-- Node12&#45;&gt;Node6 -->
<g id="edge6" class="edge">
<title>Node12&#45;&gt;Node6</title>
<path fill="none" stroke="#ffa500" stroke-dasharray="5,2" d="M346.2444,-98.3524C348.8519,-98.0459 351.4401,-97.7607 354,-97.5 416.5928,-91.125 487.5743,-89.4523 541.8109,-89.3331"/>
<polygon fill="#ffa500" stroke="#ffa500" points="345.5911,-94.9071 336.1096,-99.6348 346.4699,-101.8517 345.5911,-94.9071"/>
<text text-anchor="middle" x="432.5" y="-100.5" font-family="Helvetica,sans-Serif" font-size="10.00" fill="#000000"> &lt; LinOp &gt;</text>
</g>
<!-- Node14 -->
<g id="node10" class="node">
<title>Node14</title>
<g id="a_node10"><a xlink:href="classgko_1_1EnableAbstractPolymorphicObject.html" target="_top" xlink:title=" ">
<polygon fill="#ffffff" stroke="#000000" points="529,-125 529,-166 730,-166 730,-125 529,-125"/>
<text text-anchor="start" x="537" y="-154" font-family="Helvetica,sans-Serif" font-size="10.00" fill="#000000">gko::EnableAbstractPolymorphic</text>
<text text-anchor="start" x="537" y="-143" font-family="Helvetica,sans-Serif" font-size="10.00" fill="#000000">Object&lt; ConcreteObject, Polymorphic</text>
<text text-anchor="middle" x="629.5" y="-132" font-family="Helvetica,sans-Serif" font-size="10.00" fill="#000000">Base &gt;</text>
</a>
</g>
</g>
<!-- Node12&#45;&gt;Node14 -->
<g id="edge12" class="edge">
<title>Node12&#45;&gt;Node14</title>
<path fill="none" stroke="#ffa500" stroke-dasharray="5,2" d="M346.452,-113.5989C396.722,-112.7062 457.0325,-113.5494 511,-119.5 522.6192,-120.7811 534.7699,-122.7288 546.6757,-124.9938"/>
<polygon fill="#ffa500" stroke="#ffa500" points="346.1373,-110.1045 336.2106,-113.807 346.2796,-117.103 346.1373,-110.1045"/>
<text text-anchor="start" x="354" y="-133.5" font-family="Helvetica,sans-Serif" font-size="10.00" fill="#000000"> &lt; ConcreteObject, Polymorphic</text>
<text text-anchor="middle" x="432.5" y="-122.5" font-family="Helvetica,sans-Serif" font-size="10.00" fill="#000000">Base &gt;</text>
</g>
<!-- Node21 -->
<g id="node17" class="node">
<title>Node21</title>
<g id="a_node17"><a xlink:href="classgko_1_1EnableAbstractPolymorphicObject.html" target="_top" xlink:title=" ">
<polygon fill="#ffffff" stroke="#000000" points="531,-190 531,-231 728,-231 728,-190 531,-190"/>
<text text-anchor="start" x="539" y="-219" font-family="Helvetica,sans-Serif" font-size="10.00" fill="#000000">gko::EnableAbstractPolymorphic</text>
<text text-anchor="start" x="539" y="-208" font-family="Helvetica,sans-Serif" font-size="10.00" fill="#000000">Object&lt; ConcreteLinOp, Polymorphic</text>
<text text-anchor="middle" x="629.5" y="-197" font-family="Helvetica,sans-Serif" font-size="10.00" fill="#000000">Base &gt;</text>
</a>
</g>
</g>
<!-- Node12&#45;&gt;Node21 -->
<g id="edge22" class="edge">
<title>Node12&#45;&gt;Node21</title>
<path fill="none" stroke="#ffa500" stroke-dasharray="5,2" d="M334.6295,-141.3839C398.1802,-156.2798 480.3736,-175.5455 541.8328,-189.9513"/>
<polygon fill="#ffa500" stroke="#ffa500" points="335.131,-137.9066 324.5961,-139.0321 333.5335,-144.7219 335.131,-137.9066"/>
<text text-anchor="start" x="356" y="-194.5" font-family="Helvetica,sans-Serif" font-size="10.00" fill="#000000"> &lt; ConcreteLinOp, Polymorphic</text>
<text text-anchor="middle" x="432.5" y="-183.5" font-family="Helvetica,sans-Serif" font-size="10.00" fill="#000000">Base &gt;</text>
</g>
<!-- Node11 -->
<g id="node8" class="node">
<title>Node11</title>
<g id="a_node8"><a xlink:title=" ">
<polygon fill="#ffffff" stroke="#bfbfbf" points="0,-191 0,-210 101,-210 101,-191 0,-191"/>
<text text-anchor="middle" x="50.5" y="-198" font-family="Helvetica,sans-Serif" font-size="10.00" fill="#000000">PolymorphicBase</text>
</a>
</g>
</g>
<!-- Node11&#45;&gt;Node12 -->
<g id="edge7" class="edge">
<title>Node11&#45;&gt;Node12</title>
<path fill="none" stroke="#191970" d="M81.6749,-186.7931C111.2807,-173.7761 156.181,-154.0344 190.1047,-139.1189"/>
<polygon fill="#191970" stroke="#191970" points="80.0044,-183.7041 72.2589,-190.9331 82.8219,-190.1121 80.0044,-183.7041"/>
</g>
<!-- Node11&#45;&gt;Node14 -->
<g id="edge11" class="edge">
<title>Node11&#45;&gt;Node14</title>
<path fill="none" stroke="#191970" d="M111.2562,-204.4384C199.9452,-208.8869 369.6838,-212.4702 511,-186.5 512.6995,-186.1877 541.8767,-176.0948 570.8503,-166.0023"/>
<polygon fill="#191970" stroke="#191970" points="111.2787,-200.9349 101.1095,-203.9077 110.913,-207.9253 111.2787,-200.9349"/>
</g>
<!-- Node11&#45;&gt;Node21 -->
<g id="edge21" class="edge">
<title>Node11&#45;&gt;Node21</title>
<path fill="none" stroke="#191970" d="M100.0089,-211.844C106.37,-212.9398 112.8183,-213.8748 119,-214.5 292.3378,-232.0321 336.8026,-217.4392 511,-214.5 517.4832,-214.3906 524.1651,-214.2476 530.8987,-214.0808"/>
<polygon fill="#191970" stroke="#191970" points="100.6063,-208.3952 90.1355,-210.0111 99.3286,-215.2776 100.6063,-208.3952"/>
</g>
<!-- Node13 -->
<g id="node9" class="node">
<title>Node13</title>
<g id="a_node9"><a xlink:href="classgko_1_1EnablePolymorphicObject.html" target="_top" xlink:title="This mixin inherits from (a subclass of) PolymorphicObject and provides a base implementation of a ne...">
<polygon fill="#ffffff" stroke="#000000" points="938,-130.5 938,-160.5 1143,-160.5 1143,-130.5 938,-130.5"/>
<text text-anchor="start" x="946" y="-148.5" font-family="Helvetica,sans-Serif" font-size="10.00" fill="#000000">gko::EnablePolymorphicObject</text>
<text text-anchor="middle" x="1040.5" y="-137.5" font-family="Helvetica,sans-Serif" font-size="10.00" fill="#000000">&lt; ConcreteObject, PolymorphicBase &gt;</text>
</a>
</g>
</g>
<!-- Node13&#45;&gt;Node3 -->
<g id="edge9" class="edge">
<title>Node13&#45;&gt;Node3</title>
<path fill="none" stroke="#ffa500" stroke-dasharray="5,2" d="M1153.0633,-148.5723C1207.4342,-150.1563 1273.6165,-152.2307 1333,-154.5 1430.3637,-158.2206 1455.4281,-151.5618 1552,-164.5 1632.5292,-175.2889 1723.1028,-196.7789 1784.9704,-212.9246"/>
<polygon fill="#ffa500" stroke="#ffa500" points="1153.1501,-145.0735 1143.0529,-148.2823 1152.9473,-152.0705 1153.1501,-145.0735"/>
<text text-anchor="start" x="1376.5" y="-178.5" font-family="Helvetica,sans-Serif" font-size="10.00" fill="#000000"> &lt; Coo&lt; ValueType, IndexType</text>
<text text-anchor="middle" x="1451.5" y="-167.5" font-family="Helvetica,sans-Serif" font-size="10.00" fill="#000000"> &gt;, LinOp &gt;</text>
</g>
<!-- Node20 -->
<g id="node16" class="node">
<title>Node20</title>
<g id="a_node16"><a xlink:href="classgko_1_1EnablePolymorphicObject.html" target="_top" xlink:title=" ">
<polygon fill="#ffffff" stroke="#000000" points="1351,-195.5 1351,-225.5 1552,-225.5 1552,-195.5 1351,-195.5"/>
<text text-anchor="start" x="1359" y="-213.5" font-family="Helvetica,sans-Serif" font-size="10.00" fill="#000000">gko::EnablePolymorphicObject</text>
<text text-anchor="middle" x="1451.5" y="-202.5" font-family="Helvetica,sans-Serif" font-size="10.00" fill="#000000">&lt; ConcreteLinOp, PolymorphicBase &gt;</text>
</a>
</g>
</g>
<!-- Node13&#45;&gt;Node20 -->
<g id="edge23" class="edge">
<title>Node13&#45;&gt;Node20</title>
<path fill="none" stroke="#ffa500" stroke-dasharray="5,2" d="M1153.1546,-151.4875C1207.8216,-155.7068 1274.2276,-162.7771 1333,-174.5 1358.7249,-179.6312 1386.8435,-188.0477 1409.2319,-195.4529"/>
<polygon fill="#ffa500" stroke="#ffa500" points="1153.322,-147.9903 1143.0882,-150.7324 1152.7983,-154.9707 1153.322,-147.9903"/>
<text text-anchor="start" x="1170.5" y="-188.5" font-family="Helvetica,sans-Serif" font-size="10.00" fill="#000000"> &lt; ConcreteLinOp, Polymorphic</text>
<text text-anchor="middle" x="1247" y="-177.5" font-family="Helvetica,sans-Serif" font-size="10.00" fill="#000000">Base &gt;</text>
</g>
<!-- Node14&#45;&gt;Node13 -->
<g id="edge10" class="edge">
<title>Node14&#45;&gt;Node13</title>
<path fill="none" stroke="#191970" d="M740.1691,-145.5C801.6463,-145.5 877.6268,-145.5 937.7824,-145.5"/>
<polygon fill="#191970" stroke="#191970" points="740.0419,-142.0001 730.0419,-145.5 740.0419,-149.0001 740.0419,-142.0001"/>
</g>
<!-- Node15 -->
<g id="node11" class="node">
<title>Node15</title>
<g id="a_node11"><a xlink:href="classgko_1_1EnablePolymorphicAssignment.html" target="_top" xlink:title=" ">
<polygon fill="#ffffff" stroke="#000000" points="1355.5,-267.5 1355.5,-297.5 1547.5,-297.5 1547.5,-267.5 1355.5,-267.5"/>
<text text-anchor="start" x="1363.5" y="-285.5" font-family="Helvetica,sans-Serif" font-size="10.00" fill="#000000">gko::EnablePolymorphicAssignment</text>
<text text-anchor="middle" x="1451.5" y="-274.5" font-family="Helvetica,sans-Serif" font-size="10.00" fill="#000000">&lt; Coo&lt; ValueType, IndexType &gt; &gt;</text>
</a>
</g>
</g>
<!-- Node15&#45;&gt;Node2 -->
<g id="edge13" class="edge">
<title>Node15&#45;&gt;Node2</title>
<path fill="none" stroke="#191970" d="M1557.9912,-283.0269C1723.0777,-283.8436 2036.874,-285.3961 2182.3551,-286.1159"/>
<polygon fill="#191970" stroke="#191970" points="1557.8376,-279.5262 1547.8204,-282.9765 1557.8029,-286.5261 1557.8376,-279.5262"/>
</g>
<!-- Node16 -->
<g id="node12" class="node">
<title>Node16</title>
<g id="a_node12"><a xlink:href="classgko_1_1ConvertibleTo.html" target="_top" xlink:title=" ">
<polygon fill="#ffffff" stroke="#000000" points="948,-239.5 948,-269.5 1133,-269.5 1133,-239.5 948,-239.5"/>
<text text-anchor="start" x="956" y="-257.5" font-family="Helvetica,sans-Serif" font-size="10.00" fill="#000000">gko::ConvertibleTo</text>
<text text-anchor="middle" x="1040.5" y="-246.5" font-family="Helvetica,sans-Serif" font-size="10.00" fill="#000000">&lt; Coo&lt; ValueType, IndexType &gt; &gt;</text>
</a>
</g>
</g>
<!-- Node16&#45;&gt;Node15 -->
<g id="edge14" class="edge">
<title>Node16&#45;&gt;Node15</title>
<path fill="none" stroke="#191970" d="M1143.499,-261.517C1208.3819,-265.9372 1291.5896,-271.6059 1355.1606,-275.9367"/>
<polygon fill="#191970" stroke="#191970" points="1143.4637,-258.0065 1133.2489,-260.8187 1142.9878,-264.9903 1143.4637,-258.0065"/>
</g>
<!-- Node17 -->
<g id="node13" class="node">
<title>Node17</title>
<g id="a_node13"><a xlink:href="classgko_1_1ConvertibleTo.html" target="_top" xlink:title="ConvertibleTo interface is used to mark that the implementer can be converted to the object of Result...">
<polygon fill="#ffffff" stroke="#000000" points="576,-370.5 576,-400.5 683,-400.5 683,-370.5 576,-370.5"/>
<text text-anchor="start" x="584" y="-388.5" font-family="Helvetica,sans-Serif" font-size="10.00" fill="#000000">gko::ConvertibleTo</text>
<text text-anchor="middle" x="629.5" y="-377.5" font-family="Helvetica,sans-Serif" font-size="10.00" fill="#000000">&lt; ResultType &gt;</text>
</a>
</g>
</g>
<!-- Node17&#45;&gt;Node16 -->
<g id="edge15" class="edge">
<title>Node17&#45;&gt;Node16</title>
<path fill="none" stroke="#ffa500" stroke-dasharray="5,2" d="M656.167,-364.1105C679.1677,-346.7533 713.9611,-323.0194 748,-309.5 812.1096,-284.0374 888.8991,-270.1745 947.7094,-262.7376"/>
<polygon fill="#ffa500" stroke="#ffa500" points="653.7551,-361.5496 647.9553,-370.416 658.0184,-367.1017 653.7551,-361.5496"/>
<text text-anchor="middle" x="834" y="-312.5" font-family="Helvetica,sans-Serif" font-size="10.00" fill="#000000"> &lt; Coo&lt; ValueType, IndexType &gt; &gt;</text>
</g>
<!-- Node18 -->
<g id="node14" class="node">
<title>Node18</title>
<g id="a_node14"><a xlink:href="classgko_1_1EnablePolymorphicAssignment.html" target="_top" xlink:title="This mixin is used to enable a default PolymorphicObject::copy_from() implementation for objects that...">
<polygon fill="#ffffff" stroke="#000000" points="944.5,-288.5 944.5,-318.5 1136.5,-318.5 1136.5,-288.5 944.5,-288.5"/>
<text text-anchor="start" x="952.5" y="-306.5" font-family="Helvetica,sans-Serif" font-size="10.00" fill="#000000">gko::EnablePolymorphicAssignment</text>
<text text-anchor="middle" x="1040.5" y="-295.5" font-family="Helvetica,sans-Serif" font-size="10.00" fill="#000000">&lt; ConcreteType, ResultType &gt;</text>
</a>
</g>
</g>
<!-- Node17&#45;&gt;Node18 -->
<g id="edge17" class="edge">
<title>Node17&#45;&gt;Node18</title>
<path fill="none" stroke="#191970" d="M693.267,-369.8215C710.9532,-365.6397 730.1883,-361.2461 748,-357.5 816.5997,-343.0723 894.6942,-328.7616 952.9244,-318.5008"/>
<polygon fill="#191970" stroke="#191970" points="691.9725,-366.5317 683.055,-372.2527 693.5938,-373.3414 691.9725,-366.5317"/>
</g>
<!-- Node23 -->
<g id="node19" class="node">
<title>Node23</title>
<g id="a_node19"><a xlink:href="classgko_1_1ConvertibleTo.html" target="_top" xlink:title=" ">
<polygon fill="#ffffff" stroke="#000000" points="985.5,-337.5 985.5,-367.5 1095.5,-367.5 1095.5,-337.5 985.5,-337.5"/>
<text text-anchor="start" x="993.5" y="-355.5" font-family="Helvetica,sans-Serif" font-size="10.00" fill="#000000">gko::ConvertibleTo</text>
<text text-anchor="middle" x="1040.5" y="-344.5" font-family="Helvetica,sans-Serif" font-size="10.00" fill="#000000">&lt; ConcreteLinOp &gt;</text>
</a>
</g>
</g>
<!-- Node17&#45;&gt;Node23 -->
<g id="edge26" class="edge">
<title>Node17&#45;&gt;Node23</title>
<path fill="none" stroke="#ffa500" stroke-dasharray="5,2" d="M693.6863,-380.3464C773.8866,-373.9069 909.7671,-362.9968 985.4439,-356.9206"/>
<polygon fill="#ffa500" stroke="#ffa500" points="692.9188,-376.8966 683.2311,-381.1858 693.4791,-383.8742 692.9188,-376.8966"/>
<text text-anchor="middle" x="834" y="-378.5" font-family="Helvetica,sans-Serif" font-size="10.00" fill="#000000"> &lt; ConcreteLinOp &gt;</text>
</g>
<!-- Node26 -->
<g id="node22" class="node">
<title>Node26</title>
<g id="a_node22"><a xlink:href="classgko_1_1ConvertibleTo.html" target="_top" xlink:title=" ">
<polygon fill="#ffffff" stroke="#000000" points="1163.5,-421 1163.5,-462 1330.5,-462 1330.5,-421 1163.5,-421"/>
<text text-anchor="start" x="1171.5" y="-450" font-family="Helvetica,sans-Serif" font-size="10.00" fill="#000000">gko::ConvertibleTo</text>
<text text-anchor="start" x="1171.5" y="-439" font-family="Helvetica,sans-Serif" font-size="10.00" fill="#000000">&lt; Coo&lt; next_precision</text>
<text text-anchor="middle" x="1247" y="-428" font-family="Helvetica,sans-Serif" font-size="10.00" fill="#000000">&lt; ValueType &gt;, IndexType &gt; &gt;</text>
</a>
</g>
</g>
<!-- Node17&#45;&gt;Node26 -->
<g id="edge31" class="edge">
<title>Node17&#45;&gt;Node26</title>
<path fill="none" stroke="#ffa500" stroke-dasharray="5,2" d="M684.0825,-403.4751C703.9836,-409.2882 726.8039,-415.1048 748,-418.5 892.7186,-441.6809 1063.8308,-444.2793 1163.4195,-443.3682"/>
<polygon fill="#ffa500" stroke="#ffa500" points="684.851,-400.0519 674.2675,-400.5408 682.8459,-406.7586 684.851,-400.0519"/>
<text text-anchor="start" x="758.5" y="-450.5" font-family="Helvetica,sans-Serif" font-size="10.00" fill="#000000"> &lt; Coo&lt; next_precision</text>
<text text-anchor="middle" x="834" y="-439.5" font-family="Helvetica,sans-Serif" font-size="10.00" fill="#000000">&lt; ValueType &gt;, IndexType &gt; &gt;</text>
</g>
<!-- Node27 -->
<g id="node23" class="node">
<title>Node27</title>
<g id="a_node23"><a xlink:href="classgko_1_1ConvertibleTo.html" target="_top" xlink:title=" ">
<polygon fill="#ffffff" stroke="#000000" points="1570,-367.5 1570,-397.5 1752,-397.5 1752,-367.5 1570,-367.5"/>
<text text-anchor="start" x="1578" y="-385.5" font-family="Helvetica,sans-Serif" font-size="10.00" fill="#000000">gko::ConvertibleTo</text>
<text text-anchor="middle" x="1661" y="-374.5" font-family="Helvetica,sans-Serif" font-size="10.00" fill="#000000">&lt; Csr&lt; ValueType, IndexType &gt; &gt;</text>
</a>
</g>
</g>
<!-- Node17&#45;&gt;Node27 -->
<g id="edge33" class="edge">
<title>Node17&#45;&gt;Node27</title>
<path fill="none" stroke="#ffa500" stroke-dasharray="5,2" d="M693.381,-388.6897C711.0677,-389.4383 730.2746,-390.1262 748,-390.5 824.4275,-392.1117 843.5567,-390.9126 920,-390.5 1154.1457,-389.2361 1429.8907,-385.7258 1569.7412,-383.8021"/>
<polygon fill="#ffa500" stroke="#ffa500" points="693.3088,-385.1834 683.1657,-388.244 693.0035,-392.1767 693.3088,-385.1834"/>
<text text-anchor="middle" x="1040.5" y="-392.5" font-family="Helvetica,sans-Serif" font-size="10.00" fill="#000000"> &lt; Csr&lt; ValueType, IndexType &gt; &gt;</text>
</g>
<!-- Node28 -->
<g id="node24" class="node">
<title>Node28</title>
<g id="a_node24"><a xlink:href="classgko_1_1ConvertibleTo.html" target="_top" xlink:title=" ">
<polygon fill="#ffffff" stroke="#000000" points="1982,-468.5 1982,-498.5 2124,-498.5 2124,-468.5 1982,-468.5"/>
<text text-anchor="start" x="1990" y="-486.5" font-family="Helvetica,sans-Serif" font-size="10.00" fill="#000000">gko::ConvertibleTo</text>
<text text-anchor="middle" x="2053" y="-475.5" font-family="Helvetica,sans-Serif" font-size="10.00" fill="#000000">&lt; Dense&lt; ValueType &gt; &gt;</text>
</a>
</g>
</g>
<!-- Node17&#45;&gt;Node28 -->
<g id="edge35" class="edge">
<title>Node17&#45;&gt;Node28</title>
<path fill="none" stroke="#ffa500" stroke-dasharray="5,2" d="M654.2669,-406.9354C676.9835,-425.2221 712.4117,-450.4155 748,-462.5 871.4767,-504.4284 910.0987,-485.5 1040.5,-485.5 1040.5,-485.5 1040.5,-485.5 1661,-485.5 1773.123,-485.5 1903.2832,-484.6717 1981.8276,-484.0812"/>
<polygon fill="#ffa500" stroke="#ffa500" points="656.4436,-404.194 646.496,-400.5477 651.9986,-409.6016 656.4436,-404.194"/>
<text text-anchor="middle" x="1247" y="-488.5" font-family="Helvetica,sans-Serif" font-size="10.00" fill="#000000"> &lt; Dense&lt; ValueType &gt; &gt;</text>
</g>
<!-- Node18&#45;&gt;Node15 -->
<g id="edge16" class="edge">
<title>Node18&#45;&gt;Node15</title>
<path fill="none" stroke="#ffa500" stroke-dasharray="5,2" d="M1147.1296,-293.4408C1151.815,-293.1015 1156.4547,-292.7855 1161,-292.5 1225.7186,-288.4354 1298.6593,-285.9317 1355.2616,-284.446"/>
<polygon fill="#ffa500" stroke="#ffa500" points="1146.5266,-289.9762 1136.818,-294.2181 1147.0529,-296.9564 1146.5266,-289.9762"/>
<text text-anchor="middle" x="1247" y="-295.5" font-family="Helvetica,sans-Serif" font-size="10.00" fill="#000000"> &lt; Coo&lt; ValueType, IndexType &gt; &gt;</text>
</g>
<!-- Node22 -->
<g id="node18" class="node">
<title>Node22</title>
<g id="a_node18"><a xlink:href="classgko_1_1EnablePolymorphicAssignment.html" target="_top" xlink:title=" ">
<polygon fill="#ffffff" stroke="#000000" points="1355.5,-317.5 1355.5,-347.5 1547.5,-347.5 1547.5,-317.5 1355.5,-317.5"/>
<text text-anchor="start" x="1363.5" y="-335.5" font-family="Helvetica,sans-Serif" font-size="10.00" fill="#000000">gko::EnablePolymorphicAssignment</text>
<text text-anchor="middle" x="1451.5" y="-324.5" font-family="Helvetica,sans-Serif" font-size="10.00" fill="#000000">&lt; ConcreteLinOp &gt;</text>
</a>
</g>
</g>
<!-- Node18&#45;&gt;Node22 -->
<g id="edge27" class="edge">
<title>Node18&#45;&gt;Node22</title>
<path fill="none" stroke="#ffa500" stroke-dasharray="5,2" d="M1146.7889,-310.9997C1211.2129,-315.5454 1292.7527,-321.2989 1355.2683,-325.7099"/>
<polygon fill="#ffa500" stroke="#ffa500" points="1146.8234,-307.4935 1136.6018,-310.2809 1146.3306,-314.4762 1146.8234,-307.4935"/>
<text text-anchor="middle" x="1247" y="-326.5" font-family="Helvetica,sans-Serif" font-size="10.00" fill="#000000"> &lt; ConcreteLinOp &gt;</text>
</g>
<!-- Node19 -->
<g id="node15" class="node">
<title>Node19</title>
<g id="a_node15"><a xlink:href="classgko_1_1EnableLinOp.html" target="_top" xlink:title="The EnableLinOp mixin can be used to provide sensible default implementations of the majority of the ...">
<polygon fill="#ffffff" stroke="#000000" points="1781.5,-311.5 1781.5,-341.5 1937.5,-341.5 1937.5,-311.5 1781.5,-311.5"/>
<text text-anchor="start" x="1789.5" y="-329.5" font-family="Helvetica,sans-Serif" font-size="10.00" fill="#000000">gko::EnableLinOp&lt; Concrete</text>
<text text-anchor="middle" x="1859.5" y="-318.5" font-family="Helvetica,sans-Serif" font-size="10.00" fill="#000000">LinOp, PolymorphicBase &gt;</text>
</a>
</g>
</g>
<!-- Node19&#45;&gt;Node2 -->
<g id="edge18" class="edge">
<title>Node19&#45;&gt;Node2</title>
<path fill="none" stroke="#ffa500" stroke-dasharray="5,2" d="M1947.8205,-317.679C2017.9845,-310.6713 2115.1566,-300.9663 2182.3669,-294.2536"/>
<polygon fill="#ffa500" stroke="#ffa500" points="1947.2738,-314.2161 1937.6712,-318.6926 1947.9695,-321.1814 1947.2738,-314.2161"/>
<text text-anchor="middle" x="2053" y="-317.5" font-family="Helvetica,sans-Serif" font-size="10.00" fill="#000000"> &lt; Coo&lt; ValueType, IndexType &gt; &gt;</text>
</g>
<!-- Node20&#45;&gt;Node19 -->
<g id="edge19" class="edge">
<title>Node20&#45;&gt;Node19</title>
<path fill="none" stroke="#191970" d="M1514.3826,-228.3784C1594.5329,-251.1662 1731.6669,-290.1553 1806.6732,-311.4806"/>
<polygon fill="#191970" stroke="#191970" points="1514.9966,-224.9143 1504.4206,-225.5461 1513.0822,-231.6475 1514.9966,-224.9143"/>
</g>
<!-- Node21&#45;&gt;Node20 -->
<g id="edge20" class="edge">
<title>Node21&#45;&gt;Node20</title>
<path fill="none" stroke="#191970" d="M738.5994,-210.5C898.8583,-210.5 1195.6624,-210.5 1350.9174,-210.5"/>
<polygon fill="#191970" stroke="#191970" points="738.2439,-207.0001 728.2438,-210.5 738.2438,-214.0001 738.2439,-207.0001"/>
</g>
<!-- Node22&#45;&gt;Node19 -->
<g id="edge24" class="edge">
<title>Node22&#45;&gt;Node19</title>
<path fill="none" stroke="#191970" d="M1557.8523,-330.936C1627.8665,-329.9064 1717.9635,-328.5814 1781.3958,-327.6486"/>
<polygon fill="#191970" stroke="#191970" points="1557.6211,-327.4389 1547.6737,-331.0857 1557.7241,-334.4382 1557.6211,-327.4389"/>
</g>
<!-- Node23&#45;&gt;Node22 -->
<g id="edge25" class="edge">
<title>Node23&#45;&gt;Node22</title>
<path fill="none" stroke="#191970" d="M1106.1016,-349.412C1165.3839,-346.6091 1255.0399,-342.3394 1333,-338.5 1340.3039,-338.1403 1347.8608,-337.765 1355.4602,-337.3853"/>
<polygon fill="#191970" stroke="#191970" points="1105.5846,-345.9324 1095.761,-349.9006 1105.9151,-352.9246 1105.5846,-345.9324"/>
</g>
<!-- Node24 -->
<g id="node20" class="node">
<title>Node24</title>
<g id="a_node20"><a xlink:href="classgko_1_1EnableCreateMethod.html" target="_top" xlink:title=" ">
<polygon fill="#ffffff" stroke="#000000" points="2167.5,-222.5 2167.5,-252.5 2352.5,-252.5 2352.5,-222.5 2167.5,-222.5"/>
<text text-anchor="start" x="2175.5" y="-240.5" font-family="Helvetica,sans-Serif" font-size="10.00" fill="#000000">gko::EnableCreateMethod</text>
<text text-anchor="middle" x="2260" y="-229.5" font-family="Helvetica,sans-Serif" font-size="10.00" fill="#000000">&lt; Coo&lt; ValueType, IndexType &gt; &gt;</text>
</a>
</g>
</g>
<!-- Node24&#45;&gt;Node1 -->
<g id="edge28" class="edge">
<title>Node24&#45;&gt;Node1</title>
<path fill="none" stroke="#191970" d="M2362.8967,-237.5C2375.261,-237.5 2387.7493,-237.5 2399.7357,-237.5"/>
<polygon fill="#191970" stroke="#191970" points="2362.5535,-234.0001 2352.5534,-237.5 2362.5534,-241.0001 2362.5535,-234.0001"/>
</g>
<!-- Node25 -->
<g id="node21" class="node">
<title>Node25</title>
<g id="a_node21"><a xlink:href="classgko_1_1EnableCreateMethod.html" target="_top" xlink:title="This mixin implements a static create() method on ConcreteType that dynamically allocates the memory,...">
<polygon fill="#ffffff" stroke="#000000" points="1788.5,-163.5 1788.5,-193.5 1930.5,-193.5 1930.5,-163.5 1788.5,-163.5"/>
<text text-anchor="start" x="1796.5" y="-181.5" font-family="Helvetica,sans-Serif" font-size="10.00" fill="#000000">gko::EnableCreateMethod</text>
<text text-anchor="middle" x="1859.5" y="-170.5" font-family="Helvetica,sans-Serif" font-size="10.00" fill="#000000">&lt; ConcreteType &gt;</text>
</a>
</g>
</g>
<!-- Node25&#45;&gt;Node24 -->
<g id="edge29" class="edge">
<title>Node25&#45;&gt;Node24</title>
<path fill="none" stroke="#ffa500" stroke-dasharray="5,2" d="M1940.9349,-190.4966C2006.5554,-200.1636 2098.8408,-213.7587 2167.2912,-223.8425"/>
<polygon fill="#ffa500" stroke="#ffa500" points="1941.0432,-186.9749 1930.6399,-188.98 1940.023,-193.9002 1941.0432,-186.9749"/>
<text text-anchor="middle" x="2053" y="-220.5" font-family="Helvetica,sans-Serif" font-size="10.00" fill="#000000"> &lt; Coo&lt; ValueType, IndexType &gt; &gt;</text>
</g>
<!-- Node26&#45;&gt;Node1 -->
<g id="edge30" class="edge">
<title>Node26&#45;&gt;Node1</title>
<path fill="none" stroke="#191970" d="M1340.6729,-441.8552C1424.583,-442.1427 1551.0099,-442.5 1661,-442.5 1661,-442.5 1661,-442.5 2260,-442.5 2371.5958,-442.5 2450.4177,-299.9164 2473.5132,-252.5741"/>
<polygon fill="#191970" stroke="#191970" points="1340.6667,-438.3553 1330.6547,-441.8205 1340.6424,-445.3552 1340.6667,-438.3553"/>
</g>
<!-- Node27&#45;&gt;Node1 -->
<g id="edge32" class="edge">
<title>Node27&#45;&gt;Node1</title>
<path fill="none" stroke="#191970" d="M1762.4238,-386.5564C1901.7406,-388.9596 2158.3235,-381.9307 2363,-311.5 2401.525,-298.2433 2440.3922,-270.2399 2462.3603,-252.7374"/>
<polygon fill="#191970" stroke="#191970" points="1762.2531,-383.0525 1752.1875,-386.3591 1762.1182,-390.0512 1762.2531,-383.0525"/>
</g>
<!-- Node28&#45;&gt;Node1 -->
<g id="edge34" class="edge">
<title>Node28&#45;&gt;Node1</title>
<path fill="none" stroke="#191970" d="M2134.5025,-498.3991C2206.24,-506.8522 2310.17,-507.2407 2382,-456.5 2452.6552,-406.5892 2473.4849,-293.7085 2478.8413,-252.7287"/>
<polygon fill="#191970" stroke="#191970" points="2134.5181,-494.8736 2124.1595,-497.0986 2133.6447,-501.8189 2134.5181,-494.8736"/>
</g>
<!-- Node29 -->
<g id="node25" class="node">
<title>Node29</title>
<g id="a_node25"><a xlink:href="classgko_1_1DiagonalExtractable.html" target="_top" xlink:title="The diagonal of a LinOp implementing this interface can be extracted.">
<polygon fill="#ffffff" stroke="#000000" points="2190,-173.5 2190,-203.5 2330,-203.5 2330,-173.5 2190,-173.5"/>
<text text-anchor="start" x="2198" y="-191.5" font-family="Helvetica,sans-Serif" font-size="10.00" fill="#000000">gko::DiagonalExtractable</text>
<text text-anchor="middle" x="2260" y="-180.5" font-family="Helvetica,sans-Serif" font-size="10.00" fill="#000000">&lt; ValueType &gt;</text>
</a>
</g>
</g>
<!-- Node29&#45;&gt;Node1 -->
<g id="edge36" class="edge">
<title>Node29&#45;&gt;Node1</title>
<path fill="none" stroke="#191970" d="M2337.6615,-205.7581C2362.2308,-211.218 2389.1725,-217.205 2412.9722,-222.4938"/>
<polygon fill="#191970" stroke="#191970" points="2338.1769,-202.2873 2327.6558,-203.5346 2336.6584,-209.1207 2338.1769,-202.2873"/>
</g>
<!-- Node30 -->
<g id="node26" class="node">
<title>Node30</title>
<g id="a_node26"><a xlink:href="classgko_1_1DiagonalLinOpExtractable.html" target="_top" xlink:title="The diagonal of a LinOp can be extracted.">
<polygon fill="#ffffff" stroke="#000000" points="1776,-125 1776,-144 1943,-144 1943,-125 1776,-125"/>
<text text-anchor="middle" x="1859.5" y="-132" font-family="Helvetica,sans-Serif" font-size="10.00" fill="#000000">gko::DiagonalLinOpExtractable</text>
</a>
</g>
</g>
<!-- Node30&#45;&gt;Node29 -->
<g id="edge37" class="edge">
<title>Node30&#45;&gt;Node29</title>
<path fill="none" stroke="#191970" d="M1953.3129,-133.993C2008.1857,-135.6403 2078.372,-141.1233 2139,-156.5 2147.4859,-158.6522 2148.6998,-161.7164 2157,-164.5 2167.5319,-168.032 2178.8385,-171.235 2189.9654,-174.0672"/>
<polygon fill="#191970" stroke="#191970" points="1953.3395,-130.4926 1943.2509,-133.7285 1953.1555,-137.4902 1953.3395,-130.4926"/>
</g>
<!-- Node31 -->
<g id="node27" class="node">
<title>Node31</title>
<g id="a_node27"><a xlink:href="classgko_1_1ReadableFromMatrixData.html" target="_top" xlink:title="A LinOp implementing this interface can read its data from a matrix_data structure.">
<polygon fill="#ffffff" stroke="#000000" points="2178,-124.5 2178,-154.5 2342,-154.5 2342,-124.5 2178,-124.5"/>
<text text-anchor="start" x="2186" y="-142.5" font-family="Helvetica,sans-Serif" font-size="10.00" fill="#000000">gko::ReadableFromMatrixData</text>
<text text-anchor="middle" x="2260" y="-131.5" font-family="Helvetica,sans-Serif" font-size="10.00" fill="#000000">&lt; ValueType, IndexType &gt;</text>
</a>
</g>
</g>
<!-- Node31&#45;&gt;Node1 -->
<g id="edge38" class="edge">
<title>Node31&#45;&gt;Node1</title>
<path fill="none" stroke="#191970" d="M2343.9568,-157.4905C2350.4825,-159.6102 2356.9001,-161.9424 2363,-164.5 2399.7652,-179.9149 2438.2559,-206.033 2460.7756,-222.4921"/>
<polygon fill="#191970" stroke="#191970" points="2344.9297,-154.128 2334.3427,-154.5354 2342.873,-160.819 2344.9297,-154.128"/>
</g>
<!-- Node32 -->
<g id="node28" class="node">
<title>Node32</title>
<g id="a_node28"><a xlink:href="classgko_1_1WritableToMatrixData.html" target="_top" xlink:title="A LinOp implementing this interface can write its data to a matrix_data structure.">
<polygon fill="#ffffff" stroke="#000000" points="2187,-75.5 2187,-105.5 2333,-105.5 2333,-75.5 2187,-75.5"/>
<text text-anchor="start" x="2195" y="-93.5" font-family="Helvetica,sans-Serif" font-size="10.00" fill="#000000">gko::WritableToMatrixData</text>
<text text-anchor="middle" x="2260" y="-82.5" font-family="Helvetica,sans-Serif" font-size="10.00" fill="#000000">&lt; ValueType, IndexType &gt;</text>
</a>
</g>
</g>
<!-- Node32&#45;&gt;Node1 -->
<g id="edge39" class="edge">
<title>Node32&#45;&gt;Node1</title>
<path fill="none" stroke="#191970" d="M2342.8584,-106.1272C2349.8752,-108.7791 2356.6915,-111.8783 2363,-115.5 2411.2003,-143.1713 2452.2743,-196.4814 2470.4724,-222.4905"/>
<polygon fill="#191970" stroke="#191970" points="2343.7894,-102.7457 2333.1947,-102.7813 2341.4991,-109.3605 2343.7894,-102.7457"/>
</g>
<!-- Node33 -->
<g id="node29" class="node">
<title>Node33</title>
<g id="a_node29"><a xlink:href="classgko_1_1EnableAbsoluteComputation.html" target="_top" xlink:title=" ">
<polygon fill="#ffffff" stroke="#000000" points="2157,-15 2157,-56 2363,-56 2363,-15 2157,-15"/>
<text text-anchor="start" x="2165" y="-44" font-family="Helvetica,sans-Serif" font-size="10.00" fill="#000000">gko::EnableAbsoluteComputation</text>
<text text-anchor="start" x="2165" y="-33" font-family="Helvetica,sans-Serif" font-size="10.00" fill="#000000">&lt; remove_complex&lt; Coo&lt; ValueType,</text>
<text text-anchor="middle" x="2260" y="-22" font-family="Helvetica,sans-Serif" font-size="10.00" fill="#000000"> IndexType &gt; &gt; &gt;</text>
</a>
</g>
</g>
<!-- Node33&#45;&gt;Node1 -->
<g id="edge40" class="edge">
<title>Node33&#45;&gt;Node1</title>
<path fill="none" stroke="#191970" d="M2354.5041,-60.923C2357.4426,-62.6618 2360.285,-64.5182 2363,-66.5 2421.0423,-108.8686 2459.9784,-189.0507 2474.3378,-222.3798"/>
<polygon fill="#191970" stroke="#191970" points="2355.8978,-57.6987 2345.4317,-56.0515 2352.5862,-63.8659 2355.8978,-57.6987"/>
</g>
<!-- Node34 -->
<g id="node30" class="node">
<title>Node34</title>
<g id="a_node30"><a xlink:href="classgko_1_1AbsoluteComputable.html" target="_top" xlink:title="The AbsoluteComputable is an interface that allows to get the component wise absolute of a LinOp.">
<polygon fill="#ffffff" stroke="#000000" points="1380,-21 1380,-40 1523,-40 1523,-21 1380,-21"/>
<text text-anchor="middle" x="1451.5" y="-28" font-family="Helvetica,sans-Serif" font-size="10.00" fill="#000000">gko::AbsoluteComputable</text>
</a>
</g>
</g>
<!-- Node34&#45;&gt;Node33 -->
<g id="edge41" class="edge">
<title>Node34&#45;&gt;Node33</title>
<path fill="none" stroke="#191970" d="M1533.4723,-35.6259C1662.3864,-42.9345 1920.3676,-54.519 2139,-45.5 2144.7917,-45.2611 2150.7353,-44.9581 2156.7315,-44.6076"/>
<polygon fill="#191970" stroke="#191970" points="1533.4701,-32.1201 1523.2862,-35.042 1533.0695,-39.1087 1533.4701,-32.1201"/>
</g>
<!-- Node35 -->
<g id="node31" class="node">
<title>Node35</title>
<g id="a_node31"><a xlink:href="classgko_1_1EnableAbsoluteComputation.html" target="_top" xlink:title="The EnableAbsoluteComputation mixin provides the default implementations of compute_absolute_linop an...">
<polygon fill="#ffffff" stroke="#000000" points="1770,-.5 1770,-30.5 1949,-30.5 1949,-.5 1770,-.5"/>
<text text-anchor="start" x="1778" y="-18.5" font-family="Helvetica,sans-Serif" font-size="10.00" fill="#000000">gko::EnableAbsoluteComputation</text>
<text text-anchor="middle" x="1859.5" y="-7.5" font-family="Helvetica,sans-Serif" font-size="10.00" fill="#000000">&lt; AbsoluteLinOp &gt;</text>
</a>
</g>
</g>
<!-- Node34&#45;&gt;Node35 -->
<g id="edge43" class="edge">
<title>Node34&#45;&gt;Node35</title>
<path fill="none" stroke="#191970" d="M1533.3399,-27.4912C1601.7931,-24.9745 1699.2967,-21.3898 1769.8478,-18.796"/>
<polygon fill="#191970" stroke="#191970" points="1532.8997,-24.0049 1523.0351,-27.87 1533.1569,-31.0002 1532.8997,-24.0049"/>
</g>
<!-- Node35&#45;&gt;Node33 -->
<g id="edge42" class="edge">
<title>Node35&#45;&gt;Node33</title>
<path fill="none" stroke="#ffa500" stroke-dasharray="5,2" d="M1959.4004,-16.6592C2012.7426,-17.7072 2079.4925,-19.7023 2139,-23.5 2144.7935,-23.8697 2150.7385,-24.2985 2156.7357,-24.7694"/>
<polygon fill="#ffa500" stroke="#ffa500" points="1959.3236,-13.1572 1949.2594,-16.4681 1959.1917,-20.156 1959.3236,-13.1572"/>
<text text-anchor="start" x="1977.5" y="-37.5" font-family="Helvetica,sans-Serif" font-size="10.00" fill="#000000"> &lt; remove_complex&lt; Coo</text>
<text text-anchor="middle" x="2053" y="-26.5" font-family="Helvetica,sans-Serif" font-size="10.00" fill="#000000">&lt; ValueType, IndexType &gt; &gt; &gt;</text>
</g>
</g>
</svg>
