<?xml version="1.0" encoding="UTF-8" standalone="no"?>
<!DOCTYPE svg PUBLIC "-//W3C//DTD SVG 1.1//EN"
 "http://www.w3.org/Graphics/SVG/1.1/DTD/svg11.dtd">
<!-- Generated by graphviz version 2.40.1 (20161225.0304)
 -->
<!-- Title: gko::experimental::distributed::Matrix&lt; ValueType, LocalIndexType, GlobalIndexType &gt; Pages: 1 -->
<!--zoomable 428 -->
<svg id="main" version="1.1" xmlns="http://www.w3.org/2000/svg" xmlns:xlink="http://www.w3.org/1999/xlink" xml:space="preserve" onload="init(evt)">
<style type="text/css"><![CDATA[
.edge:hover path { stroke: red; }
.edge:hover polygon { stroke: red; fill: red; }
]]></style>
<script type="text/javascript"><![CDATA[
var edges = document.getElementsByTagName('g');
if (edges && edges.length) {
  for (var i=0;i<edges.length;i++) {
    if (edges[i].id.substr(0,4)=='edge') {
      edges[i].setAttribute('class','edge');
    }
  }
}
]]></script>
        <defs>
                <circle id="rim" cx="0" cy="0" r="7"/>
                <circle id="rim2" cx="0" cy="0" r="3.5"/>
                <g id="zoomPlus">
                        <use xlink:href="#rim" fill="#404040">
                                <set attributeName="fill" to="#808080" begin="zoomplus.mouseover" end="zoomplus.mouseout"/>
                        </use>
                        <path d="M-4,0h8M0,-4v8" fill="none" stroke="white" stroke-width="1.5" pointer-events="none"/>
                </g>
                <g id="zoomMin">
                        <use xlink:href="#rim" fill="#404040">
                                <set attributeName="fill" to="#808080" begin="zoomminus.mouseover" end="zoomminus.mouseout"/>
                        </use>
                        <path d="M-4,0h8" fill="none" stroke="white" stroke-width="1.5" pointer-events="none"/>
                </g>
                <g id="dirArrow">
                        <path fill="none" stroke="white" stroke-width="1.5" d="M0,-3.0v7 M-2.5,-0.5L0,-3.0L2.5,-0.5"/>
                </g>
               <g id="resetDef">
                       <use xlink:href="#rim2" fill="#404040">
                               <set attributeName="fill" to="#808080" begin="reset.mouseover" end="reset.mouseout"/>
                       </use>
               </g>
        </defs>

<script type="text/javascript">
var viewWidth = 2318;
var viewHeight = 428;
var sectionId = 'dynsection-1';
</script>
<script xlink:href="svgpan.js"/>
<svg id="graph" class="graph">
<g id="viewport">
<title>gko::experimental::distributed::Matrix&lt; ValueType, LocalIndexType, GlobalIndexType &gt;</title>
<polygon fill="#ffffff" stroke="transparent" points="-4,4 -4,-424 2314,-424 2314,4 -4,4"/>
<!-- Node1 -->
<g id="node1" class="node">
<title>Node1</title>
<g id="a_node1"><a xlink:title="The Matrix class defines a (MPI&#45;)distributed matrix.">
<polygon fill="#bfbfbf" stroke="#000000" points="2149,-204.5 2149,-256.5 2310,-256.5 2310,-204.5 2149,-204.5"/>
<text text-anchor="start" x="2157" y="-244.5" font-family="Helvetica,sans-Serif" font-size="10.00" fill="#000000">gko::experimental::</text>
<text text-anchor="start" x="2157" y="-233.5" font-family="Helvetica,sans-Serif" font-size="10.00" fill="#000000">distributed::Matrix</text>
<text text-anchor="start" x="2157" y="-222.5" font-family="Helvetica,sans-Serif" font-size="10.00" fill="#000000">&lt; ValueType, LocalIndexType,</text>
<text text-anchor="middle" x="2229.5" y="-211.5" font-family="Helvetica,sans-Serif" font-size="10.00" fill="#000000"> GlobalIndexType &gt;</text>
</a>
</g>
</g>
<!-- Node2 -->
<g id="node2" class="node">
<title>Node2</title>
<g id="a_node2"><a xlink:href="classgko_1_1experimental_1_1EnableDistributedLinOp.html" target="_top" xlink:title=" ">
<polygon fill="#ffffff" stroke="#000000" points="1934,-229.5 1934,-281.5 2112,-281.5 2112,-229.5 1934,-229.5"/>
<text text-anchor="start" x="1942" y="-269.5" font-family="Helvetica,sans-Serif" font-size="10.00" fill="#000000">gko::experimental::</text>
<text text-anchor="start" x="1942" y="-258.5" font-family="Helvetica,sans-Serif" font-size="10.00" fill="#000000">EnableDistributedLinOp</text>
<text text-anchor="start" x="1942" y="-247.5" font-family="Helvetica,sans-Serif" font-size="10.00" fill="#000000">&lt; Matrix&lt; ValueType, LocalIndex</text>
<text text-anchor="middle" x="2023" y="-236.5" font-family="Helvetica,sans-Serif" font-size="10.00" fill="#000000">Type, GlobalIndexType &gt; &gt;</text>
</a>
</g>
</g>
<!-- Node2&#45;&gt;Node1 -->
<g id="edge1" class="edge">
<title>Node2&#45;&gt;Node1</title>
<path fill="none" stroke="#191970" d="M2122.1481,-243.4966C2131.1,-242.4128 2140.0932,-241.3241 2148.8577,-240.263"/>
<polygon fill="#191970" stroke="#191970" points="2121.5797,-240.0398 2112.0729,-244.7164 2122.4211,-246.989 2121.5797,-240.0398"/>
</g>
<!-- Node3 -->
<g id="node3" class="node">
<title>Node3</title>
<g id="a_node3"><a xlink:href="classgko_1_1experimental_1_1EnableDistributedPolymorphicObject.html" target="_top" xlink:title=" ">
<polygon fill="#ffffff" stroke="#000000" points="1573,-123 1573,-186 1755,-186 1755,-123 1573,-123"/>
<text text-anchor="start" x="1581" y="-174" font-family="Helvetica,sans-Serif" font-size="10.00" fill="#000000">gko::experimental::</text>
<text text-anchor="start" x="1581" y="-163" font-family="Helvetica,sans-Serif" font-size="10.00" fill="#000000">EnableDistributedPolymorphic</text>
<text text-anchor="start" x="1581" y="-152" font-family="Helvetica,sans-Serif" font-size="10.00" fill="#000000">Object&lt; Matrix&lt; ValueType,</text>
<text text-anchor="start" x="1581" y="-141" font-family="Helvetica,sans-Serif" font-size="10.00" fill="#000000"> LocalIndexType, GlobalIndexType</text>
<text text-anchor="middle" x="1664" y="-130" font-family="Helvetica,sans-Serif" font-size="10.00" fill="#000000"> &gt;, LinOp &gt;</text>
</a>
</g>
</g>
<!-- Node3&#45;&gt;Node2 -->
<g id="edge2" class="edge">
<title>Node3&#45;&gt;Node2</title>
<path fill="none" stroke="#191970" d="M1764.8402,-182.8701C1817.9913,-197.8235 1882.6126,-216.0038 1933.9053,-230.4344"/>
<polygon fill="#191970" stroke="#191970" points="1765.6292,-179.4562 1755.0549,-180.1171 1763.7333,-186.1946 1765.6292,-179.4562"/>
</g>
<!-- Node4 -->
<g id="node4" class="node">
<title>Node4</title>
<g id="a_node4"><a xlink:href="classgko_1_1EnableAbstractPolymorphicObject.html" target="_top" xlink:title=" ">
<polygon fill="#ffffff" stroke="#000000" points="1343.5,-27.5 1343.5,-79.5 1525.5,-79.5 1525.5,-27.5 1343.5,-27.5"/>
<text text-anchor="start" x="1351.5" y="-67.5" font-family="Helvetica,sans-Serif" font-size="10.00" fill="#000000">gko::EnableAbstractPolymorphic</text>
<text text-anchor="start" x="1351.5" y="-56.5" font-family="Helvetica,sans-Serif" font-size="10.00" fill="#000000">Object&lt; Matrix&lt; ValueType,</text>
<text text-anchor="start" x="1351.5" y="-45.5" font-family="Helvetica,sans-Serif" font-size="10.00" fill="#000000"> LocalIndexType, GlobalIndexType</text>
<text text-anchor="middle" x="1434.5" y="-34.5" font-family="Helvetica,sans-Serif" font-size="10.00" fill="#000000"> &gt;, LinOp &gt;</text>
</a>
</g>
</g>
<!-- Node4&#45;&gt;Node3 -->
<g id="edge3" class="edge">
<title>Node4&#45;&gt;Node3</title>
<path fill="none" stroke="#191970" d="M1512.4032,-83.4022C1526.7194,-89.3973 1541.4232,-95.8945 1555,-102.5 1563.2294,-106.5038 1564.8396,-108.3573 1573,-112.5 1579.8268,-115.9656 1586.995,-119.4807 1594.1858,-122.9258"/>
<polygon fill="#191970" stroke="#191970" points="1513.6455,-80.1285 1503.0671,-79.5391 1510.9691,-86.5967 1513.6455,-80.1285"/>
</g>
<!-- Node5 -->
<g id="node5" class="node">
<title>Node5</title>
<g id="a_node5"><a xlink:href="classgko_1_1LinOp.html" target="_top" xlink:title=" ">
<polygon fill="#ffffff" stroke="#000000" points="989.5,-11 989.5,-30 1057.5,-30 1057.5,-11 989.5,-11"/>
<text text-anchor="middle" x="1023.5" y="-18" font-family="Helvetica,sans-Serif" font-size="10.00" fill="#000000">gko::LinOp</text>
</a>
</g>
</g>
<!-- Node5&#45;&gt;Node4 -->
<g id="edge4" class="edge">
<title>Node5&#45;&gt;Node4</title>
<path fill="none" stroke="#191970" d="M1067.8483,-24.0608C1133.4793,-29.3305 1257.9118,-39.3214 1343.4701,-46.191"/>
<polygon fill="#191970" stroke="#191970" points="1068.0828,-20.5685 1057.8347,-23.2568 1067.5225,-27.546 1068.0828,-20.5685"/>
</g>
<!-- Node6 -->
<g id="node6" class="node">
<title>Node6</title>
<g id="a_node6"><a xlink:href="classgko_1_1EnableAbstractPolymorphicObject.html" target="_top" xlink:title=" ">
<polygon fill="#ffffff" stroke="#ff0000" points="542,-.5 542,-30.5 717,-30.5 717,-.5 542,-.5"/>
<text text-anchor="start" x="550" y="-18.5" font-family="Helvetica,sans-Serif" font-size="10.00" fill="#000000">gko::EnableAbstractPolymorphic</text>
<text text-anchor="middle" x="629.5" y="-7.5" font-family="Helvetica,sans-Serif" font-size="10.00" fill="#000000">Object&lt; LinOp &gt;</text>
</a>
</g>
</g>
<!-- Node6&#45;&gt;Node5 -->
<g id="edge5" class="edge">
<title>Node6&#45;&gt;Node5</title>
<path fill="none" stroke="#191970" d="M727.6552,-16.7456C812.9015,-17.8274 931.4772,-19.3322 989.1962,-20.0647"/>
<polygon fill="#191970" stroke="#191970" points="727.4745,-13.2431 717.4309,-16.6159 727.3856,-20.2426 727.4745,-13.2431"/>
</g>
<!-- Node12 -->
<g id="node7" class="node">
<title>Node12</title>
<g id="a_node7"><a xlink:href="classgko_1_1EnableAbstractPolymorphicObject.html" target="_top" xlink:title="This mixin inherits from (a subclass of) PolymorphicObject and provides a base implementation of a ne...">
<polygon fill="#ffffff" stroke="#000000" points="138,-60 138,-101 336,-101 336,-60 138,-60"/>
<text text-anchor="start" x="146" y="-89" font-family="Helvetica,sans-Serif" font-size="10.00" fill="#000000">gko::EnableAbstractPolymorphic</text>
<text text-anchor="start" x="146" y="-78" font-family="Helvetica,sans-Serif" font-size="10.00" fill="#000000">Object&lt; AbstractObject, Polymorphic</text>
<text text-anchor="middle" x="237" y="-67" font-family="Helvetica,sans-Serif" font-size="10.00" fill="#000000">Base &gt;</text>
</a>
</g>
</g>
<!-- Node12&#45;&gt;Node4 -->
<g id="edge8" class="edge">
<title>Node12&#45;&gt;Node4</title>
<path fill="none" stroke="#ffa500" stroke-dasharray="5,2" d="M346.3181,-77.6852C348.9035,-77.6224 351.4672,-77.5606 354,-77.5 720.7177,-68.7258 1157.4733,-59.3561 1343.4271,-55.4176"/>
<polygon fill="#ffa500" stroke="#ffa500" points="346.1678,-74.1877 336.2565,-77.9314 346.3392,-81.1856 346.1678,-74.1877"/>
<text text-anchor="start" x="755" y="-93.5" font-family="Helvetica,sans-Serif" font-size="10.00" fill="#000000"> &lt; Matrix&lt; ValueType,</text>
<text text-anchor="start" x="755" y="-82.5" font-family="Helvetica,sans-Serif" font-size="10.00" fill="#000000"> LocalIndexType, GlobalIndex</text>
<text text-anchor="middle" x="826.5" y="-71.5" font-family="Helvetica,sans-Serif" font-size="10.00" fill="#000000">Type &gt;, LinOp &gt;</text>
</g>
<!-- Node12&#45;&gt;Node6 -->
<g id="edge6" class="edge">
<title>Node12&#45;&gt;Node6</title>
<path fill="none" stroke="#ffa500" stroke-dasharray="5,2" d="M289.3472,-55.9678C309.1773,-47.7362 332.2259,-39.4086 354,-34.5 415.853,-20.5562 487.324,-15.9486 541.9684,-14.7521"/>
<polygon fill="#ffa500" stroke="#ffa500" points="287.7257,-52.8539 279.8907,-59.9857 290.4631,-59.2965 287.7257,-52.8539"/>
<text text-anchor="middle" x="432.5" y="-37.5" font-family="Helvetica,sans-Serif" font-size="10.00" fill="#000000"> &lt; LinOp &gt;</text>
</g>
<!-- Node14 -->
<g id="node10" class="node">
<title>Node14</title>
<g id="a_node10"><a xlink:href="classgko_1_1EnableAbstractPolymorphicObject.html" target="_top" xlink:title=" ">
<polygon fill="#ffffff" stroke="#000000" points="529,-101 529,-142 730,-142 730,-101 529,-101"/>
<text text-anchor="start" x="537" y="-130" font-family="Helvetica,sans-Serif" font-size="10.00" fill="#000000">gko::EnableAbstractPolymorphic</text>
<text text-anchor="start" x="537" y="-119" font-family="Helvetica,sans-Serif" font-size="10.00" fill="#000000">Object&lt; ConcreteObject, Polymorphic</text>
<text text-anchor="middle" x="629.5" y="-108" font-family="Helvetica,sans-Serif" font-size="10.00" fill="#000000">Base &gt;</text>
</a>
</g>
</g>
<!-- Node12&#45;&gt;Node14 -->
<g id="edge12" class="edge">
<title>Node12&#45;&gt;Node14</title>
<path fill="none" stroke="#ffa500" stroke-dasharray="5,2" d="M346.2737,-81.0692C396.6321,-82.5122 457.0641,-85.9146 511,-93.5 524.2927,-95.3694 538.282,-98.0342 551.8044,-100.9848"/>
<polygon fill="#ffa500" stroke="#ffa500" points="346.1034,-77.5636 336.0145,-80.7981 345.9185,-84.5611 346.1034,-77.5636"/>
<text text-anchor="start" x="354" y="-107.5" font-family="Helvetica,sans-Serif" font-size="10.00" fill="#000000"> &lt; ConcreteObject, Polymorphic</text>
<text text-anchor="middle" x="432.5" y="-96.5" font-family="Helvetica,sans-Serif" font-size="10.00" fill="#000000">Base &gt;</text>
</g>
<!-- Node21 -->
<g id="node17" class="node">
<title>Node21</title>
<g id="a_node17"><a xlink:href="classgko_1_1EnableAbstractPolymorphicObject.html" target="_top" xlink:title=" ">
<polygon fill="#ffffff" stroke="#000000" points="531,-166 531,-207 728,-207 728,-166 531,-166"/>
<text text-anchor="start" x="539" y="-195" font-family="Helvetica,sans-Serif" font-size="10.00" fill="#000000">gko::EnableAbstractPolymorphic</text>
<text text-anchor="start" x="539" y="-184" font-family="Helvetica,sans-Serif" font-size="10.00" fill="#000000">Object&lt; ConcreteLinOp, Polymorphic</text>
<text text-anchor="middle" x="629.5" y="-173" font-family="Helvetica,sans-Serif" font-size="10.00" fill="#000000">Base &gt;</text>
</a>
</g>
</g>
<!-- Node12&#45;&gt;Node21 -->
<g id="edge22" class="edge">
<title>Node12&#45;&gt;Node21</title>
<path fill="none" stroke="#ffa500" stroke-dasharray="5,2" d="M305.1084,-104.2635C321.0698,-109.537 338.0677,-114.9159 354,-119.5 414.4319,-136.8877 483.1562,-153.6063 536.8476,-165.9936"/>
<polygon fill="#ffa500" stroke="#ffa500" points="305.9165,-100.8436 295.3229,-101.0016 303.7029,-107.4844 305.9165,-100.8436"/>
<text text-anchor="start" x="356" y="-173.5" font-family="Helvetica,sans-Serif" font-size="10.00" fill="#000000"> &lt; ConcreteLinOp, Polymorphic</text>
<text text-anchor="middle" x="432.5" y="-162.5" font-family="Helvetica,sans-Serif" font-size="10.00" fill="#000000">Base &gt;</text>
</g>
<!-- Node11 -->
<g id="node8" class="node">
<title>Node11</title>
<g id="a_node8"><a xlink:title=" ">
<polygon fill="#ffffff" stroke="#bfbfbf" points="0,-120 0,-139 101,-139 101,-120 0,-120"/>
<text text-anchor="middle" x="50.5" y="-127" font-family="Helvetica,sans-Serif" font-size="10.00" fill="#000000">PolymorphicBase</text>
</a>
</g>
</g>
<!-- Node11&#45;&gt;Node12 -->
<g id="edge7" class="edge">
<title>Node11&#45;&gt;Node12</title>
<path fill="none" stroke="#191970" d="M96.6373,-117.3781C115.3596,-112.4591 137.5184,-106.6372 158.6324,-101.0899"/>
<polygon fill="#191970" stroke="#191970" points="95.6842,-114.0097 86.9018,-119.936 97.463,-120.7799 95.6842,-114.0097"/>
</g>
<!-- Node11&#45;&gt;Node14 -->
<g id="edge11" class="edge">
<title>Node11&#45;&gt;Node14</title>
<path fill="none" stroke="#191970" d="M111.2841,-128.6602C210.5662,-127.2884 408.5048,-124.5535 528.9546,-122.8892"/>
<polygon fill="#191970" stroke="#191970" points="111.0727,-125.1626 101.122,-128.8006 111.1694,-132.162 111.0727,-125.1626"/>
</g>
<!-- Node11&#45;&gt;Node21 -->
<g id="edge21" class="edge">
<title>Node11&#45;&gt;Node21</title>
<path fill="none" stroke="#191970" d="M106.4356,-141.0504C110.6848,-141.8916 114.9094,-142.7166 119,-143.5 223.2055,-163.4575 248.3323,-175.9383 354,-185.5 412.4726,-190.7911 478.2119,-191.238 530.8056,-190.2698"/>
<polygon fill="#191970" stroke="#191970" points="107.0195,-137.598 96.5274,-139.0698 105.6473,-144.4622 107.0195,-137.598"/>
</g>
<!-- Node13 -->
<g id="node9" class="node">
<title>Node13</title>
<g id="a_node9"><a xlink:href="classgko_1_1experimental_1_1EnableDistributedPolymorphicObject.html" target="_top" xlink:title="This mixin does the same as EnablePolymorphicObject, but for concrete types that are derived from dis...">
<polygon fill="#ffffff" stroke="#000000" points="923,-95.5 923,-147.5 1124,-147.5 1124,-95.5 923,-95.5"/>
<text text-anchor="start" x="931" y="-135.5" font-family="Helvetica,sans-Serif" font-size="10.00" fill="#000000">gko::experimental::</text>
<text text-anchor="start" x="931" y="-124.5" font-family="Helvetica,sans-Serif" font-size="10.00" fill="#000000">EnableDistributedPolymorphic</text>
<text text-anchor="start" x="931" y="-113.5" font-family="Helvetica,sans-Serif" font-size="10.00" fill="#000000">Object&lt; ConcreteObject, Polymorphic</text>
<text text-anchor="middle" x="1023.5" y="-102.5" font-family="Helvetica,sans-Serif" font-size="10.00" fill="#000000">Base &gt;</text>
</a>
</g>
</g>
<!-- Node13&#45;&gt;Node3 -->
<g id="edge9" class="edge">
<title>Node13&#45;&gt;Node3</title>
<path fill="none" stroke="#ffa500" stroke-dasharray="5,2" d="M1134.247,-116.0428C1238.3182,-112.4592 1398.2363,-110.928 1536,-126.5 1547.98,-127.8542 1560.4858,-129.8477 1572.7863,-132.1579"/>
<polygon fill="#ffa500" stroke="#ffa500" points="1133.9079,-112.5526 1124.0391,-116.4071 1134.1576,-119.5481 1133.9079,-112.5526"/>
<text text-anchor="start" x="1363" y="-151.5" font-family="Helvetica,sans-Serif" font-size="10.00" fill="#000000"> &lt; Matrix&lt; ValueType,</text>
<text text-anchor="start" x="1363" y="-140.5" font-family="Helvetica,sans-Serif" font-size="10.00" fill="#000000"> LocalIndexType, GlobalIndex</text>
<text text-anchor="middle" x="1434.5" y="-129.5" font-family="Helvetica,sans-Serif" font-size="10.00" fill="#000000">Type &gt;, LinOp &gt;</text>
</g>
<!-- Node20 -->
<g id="node16" class="node">
<title>Node20</title>
<g id="a_node16"><a xlink:href="classgko_1_1experimental_1_1EnableDistributedPolymorphicObject.html" target="_top" xlink:title=" ">
<polygon fill="#ffffff" stroke="#000000" points="1336,-168.5 1336,-220.5 1533,-220.5 1533,-168.5 1336,-168.5"/>
<text text-anchor="start" x="1344" y="-208.5" font-family="Helvetica,sans-Serif" font-size="10.00" fill="#000000">gko::experimental::</text>
<text text-anchor="start" x="1344" y="-197.5" font-family="Helvetica,sans-Serif" font-size="10.00" fill="#000000">EnableDistributedPolymorphic</text>
<text text-anchor="start" x="1344" y="-186.5" font-family="Helvetica,sans-Serif" font-size="10.00" fill="#000000">Object&lt; ConcreteLinOp, Polymorphic</text>
<text text-anchor="middle" x="1434.5" y="-175.5" font-family="Helvetica,sans-Serif" font-size="10.00" fill="#000000">Base &gt;</text>
</a>
</g>
</g>
<!-- Node13&#45;&gt;Node20 -->
<g id="edge23" class="edge">
<title>Node13&#45;&gt;Node20</title>
<path fill="none" stroke="#ffa500" stroke-dasharray="5,2" d="M1134.4276,-129.6195C1201.9527,-135.1299 1281.4686,-142.791 1315,-150.5 1334.2837,-154.9334 1354.69,-161.6449 1373.0769,-168.4997"/>
<polygon fill="#ffa500" stroke="#ffa500" points="1134.3804,-126.1044 1124.1311,-128.7881 1133.817,-133.0817 1134.3804,-126.1044"/>
<text text-anchor="start" x="1152" y="-164.5" font-family="Helvetica,sans-Serif" font-size="10.00" fill="#000000"> &lt; ConcreteLinOp, Polymorphic</text>
<text text-anchor="middle" x="1228.5" y="-153.5" font-family="Helvetica,sans-Serif" font-size="10.00" fill="#000000">Base &gt;</text>
</g>
<!-- Node14&#45;&gt;Node13 -->
<g id="edge10" class="edge">
<title>Node14&#45;&gt;Node13</title>
<path fill="none" stroke="#191970" d="M740.3735,-121.5C797.6238,-121.5 866.9571,-121.5 922.6831,-121.5"/>
<polygon fill="#191970" stroke="#191970" points="740.1977,-118.0001 730.1976,-121.5 740.1976,-125.0001 740.1977,-118.0001"/>
</g>
<!-- Node15 -->
<g id="node11" class="node">
<title>Node15</title>
<g id="a_node11"><a xlink:href="classgko_1_1EnablePolymorphicAssignment.html" target="_top" xlink:title=" ">
<polygon fill="#ffffff" stroke="#000000" points="1333,-240 1333,-281 1536,-281 1536,-240 1333,-240"/>
<text text-anchor="start" x="1341" y="-269" font-family="Helvetica,sans-Serif" font-size="10.00" fill="#000000">gko::EnablePolymorphicAssignment</text>
<text text-anchor="start" x="1341" y="-258" font-family="Helvetica,sans-Serif" font-size="10.00" fill="#000000">&lt; Matrix&lt; ValueType, LocalIndexType,</text>
<text text-anchor="middle" x="1434.5" y="-247" font-family="Helvetica,sans-Serif" font-size="10.00" fill="#000000"> GlobalIndexType &gt; &gt;</text>
</a>
</g>
</g>
<!-- Node15&#45;&gt;Node2 -->
<g id="edge13" class="edge">
<title>Node15&#45;&gt;Node2</title>
<path fill="none" stroke="#191970" d="M1546.0244,-259.5525C1658.5392,-258.5965 1830.05,-257.1393 1933.8387,-256.2575"/>
<polygon fill="#191970" stroke="#191970" points="1545.9716,-256.0527 1536.0017,-259.6376 1546.0311,-263.0524 1545.9716,-256.0527"/>
</g>
<!-- Node16 -->
<g id="node12" class="node">
<title>Node16</title>
<g id="a_node12"><a xlink:href="classgko_1_1ConvertibleTo.html" target="_top" xlink:title=" ">
<polygon fill="#ffffff" stroke="#000000" points="944,-215.5 944,-267.5 1103,-267.5 1103,-215.5 944,-215.5"/>
<text text-anchor="start" x="952" y="-255.5" font-family="Helvetica,sans-Serif" font-size="10.00" fill="#000000">gko::ConvertibleTo</text>
<text text-anchor="start" x="952" y="-244.5" font-family="Helvetica,sans-Serif" font-size="10.00" fill="#000000">&lt; Matrix&lt; ValueType,</text>
<text text-anchor="start" x="952" y="-233.5" font-family="Helvetica,sans-Serif" font-size="10.00" fill="#000000"> LocalIndexType, GlobalIndex</text>
<text text-anchor="middle" x="1023.5" y="-222.5" font-family="Helvetica,sans-Serif" font-size="10.00" fill="#000000">Type &gt; &gt;</text>
</a>
</g>
</g>
<!-- Node16&#45;&gt;Node15 -->
<g id="edge14" class="edge">
<title>Node16&#45;&gt;Node15</title>
<path fill="none" stroke="#191970" d="M1113.2304,-242.4713C1170.907,-243.4641 1247.4216,-245.4666 1315,-249.5 1320.8232,-249.8476 1326.8022,-250.2507 1332.8331,-250.6931"/>
<polygon fill="#191970" stroke="#191970" points="1113.1077,-238.9689 1103.0512,-242.3032 1112.992,-245.9679 1113.1077,-238.9689"/>
</g>
<!-- Node17 -->
<g id="node13" class="node">
<title>Node17</title>
<g id="a_node13"><a xlink:href="classgko_1_1ConvertibleTo.html" target="_top" xlink:title="ConvertibleTo interface is used to mark that the implementer can be converted to the object of Result...">
<polygon fill="#ffffff" stroke="#000000" points="576,-314.5 576,-344.5 683,-344.5 683,-314.5 576,-314.5"/>
<text text-anchor="start" x="584" y="-332.5" font-family="Helvetica,sans-Serif" font-size="10.00" fill="#000000">gko::ConvertibleTo</text>
<text text-anchor="middle" x="629.5" y="-321.5" font-family="Helvetica,sans-Serif" font-size="10.00" fill="#000000">&lt; ResultType &gt;</text>
</a>
</g>
</g>
<!-- Node17&#45;&gt;Node16 -->
<g id="edge15" class="edge">
<title>Node17&#45;&gt;Node16</title>
<path fill="none" stroke="#ffa500" stroke-dasharray="5,2" d="M664.3703,-309.3101C687.3716,-296.9397 718.5809,-281.9135 748,-273.5 812.3506,-255.0966 888.0421,-247.2441 943.7873,-243.9104"/>
<polygon fill="#ffa500" stroke="#ffa500" points="662.4455,-306.3737 655.3567,-314.2477 665.8086,-312.5129 662.4455,-306.3737"/>
<text text-anchor="start" x="755" y="-298.5" font-family="Helvetica,sans-Serif" font-size="10.00" fill="#000000"> &lt; Matrix&lt; ValueType,</text>
<text text-anchor="start" x="755" y="-287.5" font-family="Helvetica,sans-Serif" font-size="10.00" fill="#000000"> LocalIndexType, GlobalIndex</text>
<text text-anchor="middle" x="826.5" y="-276.5" font-family="Helvetica,sans-Serif" font-size="10.00" fill="#000000">Type &gt; &gt;</text>
</g>
<!-- Node18 -->
<g id="node14" class="node">
<title>Node18</title>
<g id="a_node14"><a xlink:href="classgko_1_1EnablePolymorphicAssignment.html" target="_top" xlink:title="This mixin is used to enable a default PolymorphicObject::copy_from() implementation for objects that...">
<polygon fill="#ffffff" stroke="#000000" points="927.5,-286.5 927.5,-316.5 1119.5,-316.5 1119.5,-286.5 927.5,-286.5"/>
<text text-anchor="start" x="935.5" y="-304.5" font-family="Helvetica,sans-Serif" font-size="10.00" fill="#000000">gko::EnablePolymorphicAssignment</text>
<text text-anchor="middle" x="1023.5" y="-293.5" font-family="Helvetica,sans-Serif" font-size="10.00" fill="#000000">&lt; ConcreteType, ResultType &gt;</text>
</a>
</g>
</g>
<!-- Node17&#45;&gt;Node18 -->
<g id="edge17" class="edge">
<title>Node17&#45;&gt;Node18</title>
<path fill="none" stroke="#191970" d="M693.2912,-324.9666C756.617,-320.4663 854.4912,-313.5108 927.263,-308.3392"/>
<polygon fill="#191970" stroke="#191970" points="692.7733,-321.4945 683.0466,-325.6947 693.2696,-328.4769 692.7733,-321.4945"/>
</g>
<!-- Node23 -->
<g id="node19" class="node">
<title>Node23</title>
<g id="a_node19"><a xlink:href="classgko_1_1ConvertibleTo.html" target="_top" xlink:title=" ">
<polygon fill="#ffffff" stroke="#000000" points="968.5,-335.5 968.5,-365.5 1078.5,-365.5 1078.5,-335.5 968.5,-335.5"/>
<text text-anchor="start" x="976.5" y="-353.5" font-family="Helvetica,sans-Serif" font-size="10.00" fill="#000000">gko::ConvertibleTo</text>
<text text-anchor="middle" x="1023.5" y="-342.5" font-family="Helvetica,sans-Serif" font-size="10.00" fill="#000000">&lt; ConcreteLinOp &gt;</text>
</a>
</g>
</g>
<!-- Node17&#45;&gt;Node23 -->
<g id="edge26" class="edge">
<title>Node17&#45;&gt;Node23</title>
<path fill="none" stroke="#ffa500" stroke-dasharray="5,2" d="M693.4809,-332.9101C769.8597,-336.9811 896.3017,-343.7204 968.4848,-347.5677"/>
<polygon fill="#ffa500" stroke="#ffa500" points="693.2188,-329.3913 683.0466,-332.354 692.8461,-336.3814 693.2188,-329.3913"/>
<text text-anchor="middle" x="826.5" y="-346.5" font-family="Helvetica,sans-Serif" font-size="10.00" fill="#000000"> &lt; ConcreteLinOp &gt;</text>
</g>
<!-- Node26 -->
<g id="node22" class="node">
<title>Node26</title>
<g id="a_node22"><a xlink:href="classgko_1_1ConvertibleTo.html" target="_top" xlink:title=" ">
<polygon fill="#ffffff" stroke="#000000" points="1142,-367.5 1142,-419.5 1315,-419.5 1315,-367.5 1142,-367.5"/>
<text text-anchor="start" x="1150" y="-407.5" font-family="Helvetica,sans-Serif" font-size="10.00" fill="#000000">gko::ConvertibleTo</text>
<text text-anchor="start" x="1150" y="-396.5" font-family="Helvetica,sans-Serif" font-size="10.00" fill="#000000">&lt; Matrix&lt; next_precision</text>
<text text-anchor="start" x="1150" y="-385.5" font-family="Helvetica,sans-Serif" font-size="10.00" fill="#000000">&lt; ValueType &gt;, LocalIndexType,</text>
<text text-anchor="middle" x="1228.5" y="-374.5" font-family="Helvetica,sans-Serif" font-size="10.00" fill="#000000"> GlobalIndexType &gt; &gt;</text>
</a>
</g>
</g>
<!-- Node17&#45;&gt;Node26 -->
<g id="edge31" class="edge">
<title>Node17&#45;&gt;Node26</title>
<path fill="none" stroke="#ffa500" stroke-dasharray="5,2" d="M693.3045,-346.889C710.9193,-351.2035 730.109,-355.4579 748,-358.5 884.4674,-381.7042 1045.3079,-389.5341 1141.9723,-392.1701"/>
<polygon fill="#ffa500" stroke="#ffa500" points="693.6869,-343.3771 683.1369,-344.3505 691.9913,-350.1687 693.6869,-343.3771"/>
<text text-anchor="start" x="748" y="-402.5" font-family="Helvetica,sans-Serif" font-size="10.00" fill="#000000"> &lt; Matrix&lt; next_precision</text>
<text text-anchor="start" x="748" y="-391.5" font-family="Helvetica,sans-Serif" font-size="10.00" fill="#000000">&lt; ValueType &gt;, LocalIndexType,</text>
<text text-anchor="middle" x="826.5" y="-380.5" font-family="Helvetica,sans-Serif" font-size="10.00" fill="#000000"> GlobalIndexType &gt; &gt;</text>
</g>
<!-- Node18&#45;&gt;Node15 -->
<g id="edge16" class="edge">
<title>Node18&#45;&gt;Node15</title>
<path fill="none" stroke="#ffa500" stroke-dasharray="5,2" d="M1101.8479,-283.8928C1109.3721,-281.8715 1116.8564,-279.7306 1124,-277.5 1132.1935,-274.9416 1133.5918,-272.2266 1142,-270.5 1204.4643,-257.673 1275.9808,-255.0192 1332.662,-255.6468"/>
<polygon fill="#ffa500" stroke="#ffa500" points="1100.7481,-280.5626 1091.9587,-286.4785 1102.5189,-287.3349 1100.7481,-280.5626"/>
<text text-anchor="start" x="1157" y="-295.5" font-family="Helvetica,sans-Serif" font-size="10.00" fill="#000000"> &lt; Matrix&lt; ValueType,</text>
<text text-anchor="start" x="1157" y="-284.5" font-family="Helvetica,sans-Serif" font-size="10.00" fill="#000000"> LocalIndexType, GlobalIndex</text>
<text text-anchor="middle" x="1228.5" y="-273.5" font-family="Helvetica,sans-Serif" font-size="10.00" fill="#000000">Type &gt; &gt;</text>
</g>
<!-- Node22 -->
<g id="node18" class="node">
<title>Node22</title>
<g id="a_node18"><a xlink:href="classgko_1_1EnablePolymorphicAssignment.html" target="_top" xlink:title=" ">
<polygon fill="#ffffff" stroke="#000000" points="1338.5,-309.5 1338.5,-339.5 1530.5,-339.5 1530.5,-309.5 1338.5,-309.5"/>
<text text-anchor="start" x="1346.5" y="-327.5" font-family="Helvetica,sans-Serif" font-size="10.00" fill="#000000">gko::EnablePolymorphicAssignment</text>
<text text-anchor="middle" x="1434.5" y="-316.5" font-family="Helvetica,sans-Serif" font-size="10.00" fill="#000000">&lt; ConcreteLinOp &gt;</text>
</a>
</g>
</g>
<!-- Node18&#45;&gt;Node22 -->
<g id="edge27" class="edge">
<title>Node18&#45;&gt;Node22</title>
<path fill="none" stroke="#ffa500" stroke-dasharray="5,2" d="M1129.7889,-307.448C1194.2129,-311.0533 1275.7527,-315.6163 1338.2683,-319.1148"/>
<polygon fill="#ffa500" stroke="#ffa500" points="1129.7817,-303.9423 1119.6018,-306.878 1129.3906,-310.9313 1129.7817,-303.9423"/>
<text text-anchor="middle" x="1228.5" y="-320.5" font-family="Helvetica,sans-Serif" font-size="10.00" fill="#000000"> &lt; ConcreteLinOp &gt;</text>
</g>
<!-- Node19 -->
<g id="node15" class="node">
<title>Node19</title>
<g id="a_node15"><a xlink:href="classgko_1_1experimental_1_1EnableDistributedLinOp.html" target="_top" xlink:title="This mixin does the same as EnableLinOp, but for concrete types that are derived from distributed::Di...">
<polygon fill="#ffffff" stroke="#000000" points="1581,-284.5 1581,-336.5 1747,-336.5 1747,-284.5 1581,-284.5"/>
<text text-anchor="start" x="1589" y="-324.5" font-family="Helvetica,sans-Serif" font-size="10.00" fill="#000000">gko::experimental::</text>
<text text-anchor="start" x="1589" y="-313.5" font-family="Helvetica,sans-Serif" font-size="10.00" fill="#000000">EnableDistributedLinOp</text>
<text text-anchor="start" x="1589" y="-302.5" font-family="Helvetica,sans-Serif" font-size="10.00" fill="#000000">&lt; ConcreteLinOp, Polymorphic</text>
<text text-anchor="middle" x="1664" y="-291.5" font-family="Helvetica,sans-Serif" font-size="10.00" fill="#000000">Base &gt;</text>
</a>
</g>
</g>
<!-- Node19&#45;&gt;Node2 -->
<g id="edge18" class="edge">
<title>Node19&#45;&gt;Node2</title>
<path fill="none" stroke="#ffa500" stroke-dasharray="5,2" d="M1757.2703,-296.2107C1811.7609,-287.8625 1880.1572,-277.384 1933.9125,-269.1485"/>
<polygon fill="#ffa500" stroke="#ffa500" points="1756.6188,-292.7696 1747.2642,-297.7437 1757.6789,-299.6888 1756.6188,-292.7696"/>
<text text-anchor="start" x="1773" y="-317.5" font-family="Helvetica,sans-Serif" font-size="10.00" fill="#000000"> &lt; Matrix&lt; ValueType,</text>
<text text-anchor="start" x="1773" y="-306.5" font-family="Helvetica,sans-Serif" font-size="10.00" fill="#000000"> LocalIndexType, GlobalIndex</text>
<text text-anchor="middle" x="1844.5" y="-295.5" font-family="Helvetica,sans-Serif" font-size="10.00" fill="#000000">Type &gt; &gt;</text>
</g>
<!-- Node20&#45;&gt;Node19 -->
<g id="edge19" class="edge">
<title>Node20&#45;&gt;Node19</title>
<path fill="none" stroke="#191970" d="M1522.72,-224.4516C1527.25,-226.4056 1531.701,-228.4249 1536,-230.5 1568.0958,-245.9929 1602.2148,-267.6027 1627.1491,-284.4577"/>
<polygon fill="#191970" stroke="#191970" points="1523.9107,-221.156 1513.334,-220.5357 1521.2154,-227.6163 1523.9107,-221.156"/>
</g>
<!-- Node21&#45;&gt;Node20 -->
<g id="edge20" class="edge">
<title>Node21&#45;&gt;Node20</title>
<path fill="none" stroke="#191970" d="M738.3829,-187.5821C895.7708,-189.1462 1184.5235,-192.0158 1335.9297,-193.5204"/>
<polygon fill="#191970" stroke="#191970" points="738.2431,-184.0806 728.2088,-187.481 738.1735,-191.0803 738.2431,-184.0806"/>
</g>
<!-- Node22&#45;&gt;Node19 -->
<g id="edge24" class="edge">
<title>Node22&#45;&gt;Node19</title>
<path fill="none" stroke="#191970" d="M1540.9754,-318.0048C1554.2948,-317.1923 1567.7636,-316.3706 1580.659,-315.584"/>
<polygon fill="#191970" stroke="#191970" points="1540.5994,-314.5211 1530.8311,-318.6236 1541.0257,-321.5081 1540.5994,-314.5211"/>
</g>
<!-- Node23&#45;&gt;Node22 -->
<g id="edge25" class="edge">
<title>Node23&#45;&gt;Node22</title>
<path fill="none" stroke="#191970" d="M1088.8809,-346.5598C1147.9629,-342.976 1237.3139,-337.4989 1315,-332.5 1322.5738,-332.0126 1330.4171,-331.5016 1338.2991,-330.9836"/>
<polygon fill="#191970" stroke="#191970" points="1088.3451,-343.0857 1078.5752,-347.1843 1088.7686,-350.0729 1088.3451,-343.0857"/>
</g>
<!-- Node24 -->
<g id="node20" class="node">
<title>Node24</title>
<g id="a_node20"><a xlink:href="classgko_1_1EnableCreateMethod.html" target="_top" xlink:title=" ">
<polygon fill="#ffffff" stroke="#000000" points="1934,-169 1934,-210 2112,-210 2112,-169 1934,-169"/>
<text text-anchor="start" x="1942" y="-198" font-family="Helvetica,sans-Serif" font-size="10.00" fill="#000000">gko::EnableCreateMethod</text>
<text text-anchor="start" x="1942" y="-187" font-family="Helvetica,sans-Serif" font-size="10.00" fill="#000000">&lt; Matrix&lt; ValueType, LocalIndex</text>
<text text-anchor="middle" x="2023" y="-176" font-family="Helvetica,sans-Serif" font-size="10.00" fill="#000000">Type, GlobalIndexType &gt; &gt;</text>
</a>
</g>
</g>
<!-- Node24&#45;&gt;Node1 -->
<g id="edge28" class="edge">
<title>Node24&#45;&gt;Node1</title>
<path fill="none" stroke="#191970" d="M2122.1481,-209.1856C2131.1,-210.963 2140.0932,-212.7485 2148.8577,-214.4887"/>
<polygon fill="#191970" stroke="#191970" points="2122.5631,-205.6997 2112.0729,-207.1852 2121.1998,-212.5657 2122.5631,-205.6997"/>
</g>
<!-- Node25 -->
<g id="node21" class="node">
<title>Node25</title>
<g id="a_node21"><a xlink:href="classgko_1_1EnableCreateMethod.html" target="_top" xlink:title="This mixin implements a static create() method on ConcreteType that dynamically allocates the memory,...">
<polygon fill="#ffffff" stroke="#000000" points="1593,-73.5 1593,-103.5 1735,-103.5 1735,-73.5 1593,-73.5"/>
<text text-anchor="start" x="1601" y="-91.5" font-family="Helvetica,sans-Serif" font-size="10.00" fill="#000000">gko::EnableCreateMethod</text>
<text text-anchor="middle" x="1664" y="-80.5" font-family="Helvetica,sans-Serif" font-size="10.00" fill="#000000">&lt; ConcreteType &gt;</text>
</a>
</g>
</g>
<!-- Node25&#45;&gt;Node24 -->
<g id="edge29" class="edge">
<title>Node25&#45;&gt;Node24</title>
<path fill="none" stroke="#ffa500" stroke-dasharray="5,2" d="M1744.8711,-103.2187C1794.9873,-113.5246 1860.216,-129.1011 1916,-149.5 1924.4003,-152.5718 1925.7597,-155.0218 1934,-158.5 1942.4415,-162.0631 1951.4486,-165.5508 1960.3699,-168.8255"/>
<polygon fill="#ffa500" stroke="#ffa500" points="1745.5529,-99.7858 1735.0567,-101.228 1744.1613,-106.6461 1745.5529,-99.7858"/>
<text text-anchor="start" x="1773" y="-174.5" font-family="Helvetica,sans-Serif" font-size="10.00" fill="#000000"> &lt; Matrix&lt; ValueType,</text>
<text text-anchor="start" x="1773" y="-163.5" font-family="Helvetica,sans-Serif" font-size="10.00" fill="#000000"> LocalIndexType, GlobalIndex</text>
<text text-anchor="middle" x="1844.5" y="-152.5" font-family="Helvetica,sans-Serif" font-size="10.00" fill="#000000">Type &gt; &gt;</text>
</g>
<!-- Node26&#45;&gt;Node1 -->
<g id="edge30" class="edge">
<title>Node26&#45;&gt;Node1</title>
<path fill="none" stroke="#191970" d="M1325.4299,-383.9801C1390.2144,-378.4246 1477.3821,-372.5 1554.5,-372.5 1554.5,-372.5 1554.5,-372.5 2023,-372.5 2103.9267,-372.5 2176.2667,-297.5392 2209.7769,-256.545"/>
<polygon fill="#191970" stroke="#191970" points="1324.8884,-380.5139 1315.2295,-384.8676 1325.4952,-387.4875 1324.8884,-380.5139"/>
</g>
<!-- Node27 -->
<g id="node23" class="node">
<title>Node27</title>
<g id="a_node23"><a xlink:href="classgko_1_1experimental_1_1distributed_1_1DistributedBase.html" target="_top" xlink:title="A base class for distributed objects.">
<polygon fill="#ffffff" stroke="#000000" points="1946.5,-119.5 1946.5,-149.5 2099.5,-149.5 2099.5,-119.5 1946.5,-119.5"/>
<text text-anchor="start" x="1954.5" y="-137.5" font-family="Helvetica,sans-Serif" font-size="10.00" fill="#000000">gko::experimental::</text>
<text text-anchor="middle" x="2023" y="-126.5" font-family="Helvetica,sans-Serif" font-size="10.00" fill="#000000">distributed::DistributedBase</text>
</a>
</g>
</g>
<!-- Node27&#45;&gt;Node1 -->
<g id="edge32" class="edge">
<title>Node27&#45;&gt;Node1</title>
<path fill="none" stroke="#191970" d="M2094.9226,-152.8773C2100.7692,-154.9215 2106.5278,-157.1301 2112,-159.5 2140.214,-171.7188 2169.8293,-189.6518 2192.2696,-204.4375"/>
<polygon fill="#191970" stroke="#191970" points="2095.6287,-149.4238 2085.0352,-149.5928 2093.4219,-156.0669 2095.6287,-149.4238"/>
</g>
</g>
</svg>
        <g id="navigator" transform="translate(0 0)" fill="#404254">
                <rect fill="#f2f5e9" fill-opacity="0.5" stroke="#606060" stroke-width=".5" x="0" y="0" width="60" height="60"/>
                <use id="zoomplus" xlink:href="#zoomPlus" x="17" y="9" onmousedown="handleZoom(evt,'in')"/>
                <use id="zoomminus" xlink:href="#zoomMin" x="42" y="9" onmousedown="handleZoom(evt,'out')"/>
                <use id="reset" xlink:href="#resetDef" x="30" y="36" onmousedown="handleReset()"/>
                <g id="arrowUp" xlink:href="#dirArrow" transform="translate(30 24)" onmousedown="handlePan(0,-1)">
                  <use xlink:href="#rim" fill="#404040">
                        <set attributeName="fill" to="#808080" begin="arrowUp.mouseover" end="arrowUp.mouseout"/>
                  </use>
                  <path fill="none" stroke="white" stroke-width="1.5" d="M0,-3.0v7 M-2.5,-0.5L0,-3.0L2.5,-0.5"/>
                </g>
                <g id="arrowRight" xlink:href="#dirArrow" transform="rotate(90) translate(36 -43)" onmousedown="handlePan(1,0)">
                  <use xlink:href="#rim" fill="#404040">
                        <set attributeName="fill" to="#808080" begin="arrowRight.mouseover" end="arrowRight.mouseout"/>
                  </use>
                  <path fill="none" stroke="white" stroke-width="1.5" d="M0,-3.0v7 M-2.5,-0.5L0,-3.0L2.5,-0.5"/>
                </g>
                <g id="arrowDown" xlink:href="#dirArrow" transform="rotate(180) translate(-30 -48)" onmousedown="handlePan(0,1)">
                  <use xlink:href="#rim" fill="#404040">
                        <set attributeName="fill" to="#808080" begin="arrowDown.mouseover" end="arrowDown.mouseout"/>
                  </use>
                  <path fill="none" stroke="white" stroke-width="1.5" d="M0,-3.0v7 M-2.5,-0.5L0,-3.0L2.5,-0.5"/>
                </g>
                <g id="arrowLeft" xlink:href="#dirArrow" transform="rotate(270) translate(-36 17)" onmousedown="handlePan(-1,0)">
                  <use xlink:href="#rim" fill="#404040">
                        <set attributeName="fill" to="#808080" begin="arrowLeft.mouseover" end="arrowLeft.mouseout"/>
                  </use>
                  <path fill="none" stroke="white" stroke-width="1.5" d="M0,-3.0v7 M-2.5,-0.5L0,-3.0L2.5,-0.5"/>
                </g>
        </g>
        <svg viewBox="0 0 15 15" width="100%" height="30px" preserveAspectRatio="xMaxYMin meet">
         <g id="arrow_out" transform="scale(0.3 0.3)">
          <a xlink:href="classgko_1_1experimental_1_1distributed_1_1Matrix__coll__graph_org.svg" target="_base">
           <rect id="button" ry="5" rx="5" y="6" x="6" height="38" width="38"
                fill="#f2f5e9" fill-opacity="0.5" stroke="#606060" stroke-width="1.0"/>
           <path id="arrow"
             d="M 11.500037,31.436501 C 11.940474,20.09759 22.043105,11.32322 32.158766,21.979434 L 37.068811,17.246167 C 37.068811,17.246167 37.088388,32 37.088388,32 L 22.160133,31.978069 C 22.160133,31.978069 26.997745,27.140456 26.997745,27.140456 C 18.528582,18.264221 13.291696,25.230495 11.500037,31.436501 z"
             style="fill:#404040;"/>
          </a>
         </g>
        </svg>
</svg>
