<?xml version="1.0" encoding="UTF-8" standalone="no"?>
<!DOCTYPE svg PUBLIC "-//W3C//DTD SVG 1.1//EN"
 "http://www.w3.org/Graphics/SVG/1.1/DTD/svg11.dtd">
<!-- Generated by graphviz version 2.40.1 (20161225.0304)
 -->
<!-- Title: gko::solver::Bicg&lt; ValueType &gt; Pages: 1 -->
<svg width="2314pt" height="544pt"
 viewBox="0.00 0.00 2314.00 544.00" xmlns="http://www.w3.org/2000/svg" xmlns:xlink="http://www.w3.org/1999/xlink">
<g id="graph0" class="graph" transform="scale(1 1) rotate(0) translate(4 540)">
<title>gko::solver::Bicg&lt; ValueType &gt;</title>
<polygon fill="#ffffff" stroke="transparent" points="-4,4 -4,-540 2310,-540 2310,4 -4,4"/>
<!-- Node1 -->
<g id="node1" class="node">
<title>Node1</title>
<g id="a_node1"><a xlink:title="BICG or the Biconjugate gradient method is a Krylov subspace solver.">
<polygon fill="#bfbfbf" stroke="#000000" points="2200,-125 2200,-155 2306,-155 2306,-125 2200,-125"/>
<text text-anchor="start" x="2208" y="-143" font-family="Helvetica,sans-Serif" font-size="10.00" fill="#000000">gko::solver::Bicg&lt;</text>
<text text-anchor="middle" x="2253" y="-132" font-family="Helvetica,sans-Serif" font-size="10.00" fill="#000000"> ValueType &gt;</text>
</a>
</g>
</g>
<!-- Node2 -->
<g id="node2" class="node">
<title>Node2</title>
<g id="a_node2"><a xlink:href="classgko_1_1EnableLinOp.html" target="_top" xlink:title=" ">
<polygon fill="#ffffff" stroke="#000000" points="2005,-298 2005,-328 2139,-328 2139,-298 2005,-298"/>
<text text-anchor="start" x="2013" y="-316" font-family="Helvetica,sans-Serif" font-size="10.00" fill="#000000">gko::EnableLinOp&lt; Bicg</text>
<text text-anchor="middle" x="2072" y="-305" font-family="Helvetica,sans-Serif" font-size="10.00" fill="#000000">&lt; ValueType &gt; &gt;</text>
</a>
</g>
</g>
<!-- Node2&#45;&gt;Node1 -->
<g id="edge1" class="edge">
<title>Node2&#45;&gt;Node1</title>
<path fill="none" stroke="#191970" d="M2095.1551,-290.8683C2132.5123,-255.1622 2205.1252,-185.7587 2237.1616,-155.1384"/>
<polygon fill="#191970" stroke="#191970" points="2092.5566,-288.5103 2087.7459,-297.95 2097.3933,-293.5707 2092.5566,-288.5103"/>
</g>
<!-- Node3 -->
<g id="node3" class="node">
<title>Node3</title>
<g id="a_node3"><a xlink:href="classgko_1_1EnablePolymorphicObject.html" target="_top" xlink:title=" ">
<polygon fill="#ffffff" stroke="#000000" points="1647.5,-325 1647.5,-355 1813.5,-355 1813.5,-325 1647.5,-325"/>
<text text-anchor="start" x="1655.5" y="-343" font-family="Helvetica,sans-Serif" font-size="10.00" fill="#000000">gko::EnablePolymorphicObject</text>
<text text-anchor="middle" x="1730.5" y="-332" font-family="Helvetica,sans-Serif" font-size="10.00" fill="#000000">&lt; Bicg&lt; ValueType &gt;, LinOp &gt;</text>
</a>
</g>
</g>
<!-- Node3&#45;&gt;Node2 -->
<g id="edge2" class="edge">
<title>Node3&#45;&gt;Node2</title>
<path fill="none" stroke="#191970" d="M1823.7592,-332.6267C1881.0701,-328.0955 1953.1633,-322.3956 2004.8701,-318.3075"/>
<polygon fill="#191970" stroke="#191970" points="1823.2966,-329.1522 1813.6036,-333.4296 1823.8484,-336.1304 1823.2966,-329.1522"/>
</g>
<!-- Node4 -->
<g id="node4" class="node">
<title>Node4</title>
<g id="a_node4"><a xlink:href="classgko_1_1EnableAbstractPolymorphicObject.html" target="_top" xlink:title=" ">
<polygon fill="#ffffff" stroke="#000000" points="1292,-471.5 1292,-512.5 1467,-512.5 1467,-471.5 1292,-471.5"/>
<text text-anchor="start" x="1300" y="-500.5" font-family="Helvetica,sans-Serif" font-size="10.00" fill="#000000">gko::EnableAbstractPolymorphic</text>
<text text-anchor="start" x="1300" y="-489.5" font-family="Helvetica,sans-Serif" font-size="10.00" fill="#000000">Object&lt; Bicg&lt; ValueType &gt;</text>
<text text-anchor="middle" x="1379.5" y="-478.5" font-family="Helvetica,sans-Serif" font-size="10.00" fill="#000000">, LinOp &gt;</text>
</a>
</g>
</g>
<!-- Node4&#45;&gt;Node3 -->
<g id="edge3" class="edge">
<title>Node4&#45;&gt;Node3</title>
<path fill="none" stroke="#191970" d="M1455.791,-468.0763C1464.0155,-465.163 1472.2174,-462.1119 1480,-459 1562.259,-426.1087 1655.6794,-379.023 1701.7215,-355.1391"/>
<polygon fill="#191970" stroke="#191970" points="1454.4458,-464.8384 1446.1497,-471.4282 1456.7445,-471.4502 1454.4458,-464.8384"/>
</g>
<!-- Node5 -->
<g id="node5" class="node">
<title>Node5</title>
<g id="a_node5"><a xlink:href="classgko_1_1LinOp.html" target="_top" xlink:title=" ">
<polygon fill="#ffffff" stroke="#000000" points="953.5,-482.5 953.5,-501.5 1021.5,-501.5 1021.5,-482.5 953.5,-482.5"/>
<text text-anchor="middle" x="987.5" y="-489.5" font-family="Helvetica,sans-Serif" font-size="10.00" fill="#000000">gko::LinOp</text>
</a>
</g>
</g>
<!-- Node5&#45;&gt;Node4 -->
<g id="edge4" class="edge">
<title>Node5&#45;&gt;Node4</title>
<path fill="none" stroke="#191970" d="M1031.9667,-492C1094.8762,-492 1211.1665,-492 1291.805,-492"/>
<polygon fill="#191970" stroke="#191970" points="1031.6017,-488.5001 1021.6017,-492 1031.6017,-495.5001 1031.6017,-488.5001"/>
</g>
<!-- Node6 -->
<g id="node6" class="node">
<title>Node6</title>
<g id="a_node6"><a xlink:href="classgko_1_1EnableAbstractPolymorphicObject.html" target="_top" xlink:title=" ">
<polygon fill="#ffffff" stroke="#ff0000" points="542,-457 542,-487 717,-487 717,-457 542,-457"/>
<text text-anchor="start" x="550" y="-475" font-family="Helvetica,sans-Serif" font-size="10.00" fill="#000000">gko::EnableAbstractPolymorphic</text>
<text text-anchor="middle" x="629.5" y="-464" font-family="Helvetica,sans-Serif" font-size="10.00" fill="#000000">Object&lt; LinOp &gt;</text>
</a>
</g>
</g>
<!-- Node6&#45;&gt;Node5 -->
<g id="edge5" class="edge">
<title>Node6&#45;&gt;Node5</title>
<path fill="none" stroke="#191970" d="M727.518,-477.4759C802.7046,-481.6762 902.0446,-487.226 953.4368,-490.097"/>
<polygon fill="#191970" stroke="#191970" points="727.2563,-473.9559 717.0767,-476.8926 726.8658,-480.945 727.2563,-473.9559"/>
</g>
<!-- Node12 -->
<g id="node7" class="node">
<title>Node12</title>
<g id="a_node7"><a xlink:href="classgko_1_1EnableAbstractPolymorphicObject.html" target="_top" xlink:title="This mixin inherits from (a subclass of) PolymorphicObject and provides a base implementation of a ne...">
<polygon fill="#ffffff" stroke="#000000" points="138,-382.5 138,-423.5 336,-423.5 336,-382.5 138,-382.5"/>
<text text-anchor="start" x="146" y="-411.5" font-family="Helvetica,sans-Serif" font-size="10.00" fill="#000000">gko::EnableAbstractPolymorphic</text>
<text text-anchor="start" x="146" y="-400.5" font-family="Helvetica,sans-Serif" font-size="10.00" fill="#000000">Object&lt; AbstractObject, Polymorphic</text>
<text text-anchor="middle" x="237" y="-389.5" font-family="Helvetica,sans-Serif" font-size="10.00" fill="#000000">Base &gt;</text>
</a>
</g>
</g>
<!-- Node12&#45;&gt;Node4 -->
<g id="edge8" class="edge">
<title>Node12&#45;&gt;Node4</title>
<path fill="none" stroke="#ffa500" stroke-dasharray="5,2" d="M274.2858,-429.0763C296.4662,-443.3531 325.718,-460.1046 354,-470 428.2825,-495.9903 450.6658,-489.4415 529,-497 777.258,-520.9544 840.6157,-514.6452 1090,-511 1166.0244,-509.8888 1185.1723,-511.5769 1261,-506 1271.0202,-505.263 1281.4969,-504.3028 1291.8976,-503.2304"/>
<polygon fill="#ffa500" stroke="#ffa500" points="276.1276,-426.0987 265.8455,-423.5434 272.2899,-431.9529 276.1276,-426.0987"/>
<text text-anchor="start" x="753.5" y="-528" font-family="Helvetica,sans-Serif" font-size="10.00" fill="#000000"> &lt; Bicg&lt; ValueType &gt;</text>
<text text-anchor="middle" x="807.5" y="-517" font-family="Helvetica,sans-Serif" font-size="10.00" fill="#000000">, LinOp &gt;</text>
</g>
<!-- Node12&#45;&gt;Node6 -->
<g id="edge6" class="edge">
<title>Node12&#45;&gt;Node6</title>
<path fill="none" stroke="#ffa500" stroke-dasharray="5,2" d="M336.5681,-425.5779C342.4585,-426.7731 348.3022,-427.9234 354,-429 416.5509,-440.8191 487.5337,-451.8418 541.7812,-459.7678"/>
<polygon fill="#ffa500" stroke="#ffa500" points="337.1293,-422.12 326.6286,-423.5291 335.7161,-428.9759 337.1293,-422.12"/>
<text text-anchor="middle" x="432.5" y="-458" font-family="Helvetica,sans-Serif" font-size="10.00" fill="#000000"> &lt; LinOp &gt;</text>
</g>
<!-- Node14 -->
<g id="node10" class="node">
<title>Node14</title>
<g id="a_node10"><a xlink:href="classgko_1_1EnableAbstractPolymorphicObject.html" target="_top" xlink:title=" ">
<polygon fill="#ffffff" stroke="#000000" points="529,-310.5 529,-351.5 730,-351.5 730,-310.5 529,-310.5"/>
<text text-anchor="start" x="537" y="-339.5" font-family="Helvetica,sans-Serif" font-size="10.00" fill="#000000">gko::EnableAbstractPolymorphic</text>
<text text-anchor="start" x="537" y="-328.5" font-family="Helvetica,sans-Serif" font-size="10.00" fill="#000000">Object&lt; ConcreteObject, Polymorphic</text>
<text text-anchor="middle" x="629.5" y="-317.5" font-family="Helvetica,sans-Serif" font-size="10.00" fill="#000000">Base &gt;</text>
</a>
</g>
</g>
<!-- Node12&#45;&gt;Node14 -->
<g id="edge12" class="edge">
<title>Node12&#45;&gt;Node14</title>
<path fill="none" stroke="#ffa500" stroke-dasharray="5,2" d="M346.178,-402.1925C396.8987,-399.7999 457.6519,-394.0381 511,-381 518.5376,-379.1578 552.8254,-364.5754 582.5922,-351.6309"/>
<polygon fill="#ffa500" stroke="#ffa500" points="346.0114,-398.6964 336.1728,-402.6273 346.3153,-405.6898 346.0114,-398.6964"/>
<text text-anchor="start" x="354" y="-415" font-family="Helvetica,sans-Serif" font-size="10.00" fill="#000000"> &lt; ConcreteObject, Polymorphic</text>
<text text-anchor="middle" x="432.5" y="-404" font-family="Helvetica,sans-Serif" font-size="10.00" fill="#000000">Base &gt;</text>
</g>
<!-- Node21 -->
<g id="node17" class="node">
<title>Node21</title>
<g id="a_node17"><a xlink:href="classgko_1_1EnableAbstractPolymorphicObject.html" target="_top" xlink:title=" ">
<polygon fill="#ffffff" stroke="#000000" points="531,-250.5 531,-291.5 728,-291.5 728,-250.5 531,-250.5"/>
<text text-anchor="start" x="539" y="-279.5" font-family="Helvetica,sans-Serif" font-size="10.00" fill="#000000">gko::EnableAbstractPolymorphic</text>
<text text-anchor="start" x="539" y="-268.5" font-family="Helvetica,sans-Serif" font-size="10.00" fill="#000000">Object&lt; ConcreteLinOp, Polymorphic</text>
<text text-anchor="middle" x="629.5" y="-257.5" font-family="Helvetica,sans-Serif" font-size="10.00" fill="#000000">Base &gt;</text>
</a>
</g>
</g>
<!-- Node12&#45;&gt;Node21 -->
<g id="edge22" class="edge">
<title>Node12&#45;&gt;Node21</title>
<path fill="none" stroke="#ffa500" stroke-dasharray="5,2" d="M293.8417,-378.4787C312.8303,-370.6099 334.1986,-362.1007 354,-355 430.6192,-327.5249 451.1125,-324.6414 529,-301 539.1058,-297.9326 549.7911,-294.7152 560.2746,-291.5732"/>
<polygon fill="#ffa500" stroke="#ffa500" points="292.3207,-375.3208 284.4402,-382.4022 295.0168,-381.7808 292.3207,-375.3208"/>
<text text-anchor="start" x="356" y="-369" font-family="Helvetica,sans-Serif" font-size="10.00" fill="#000000"> &lt; ConcreteLinOp, Polymorphic</text>
<text text-anchor="middle" x="432.5" y="-358" font-family="Helvetica,sans-Serif" font-size="10.00" fill="#000000">Base &gt;</text>
</g>
<!-- Node11 -->
<g id="node8" class="node">
<title>Node11</title>
<g id="a_node8"><a xlink:title=" ">
<polygon fill="#ffffff" stroke="#bfbfbf" points="0,-315.5 0,-334.5 101,-334.5 101,-315.5 0,-315.5"/>
<text text-anchor="middle" x="50.5" y="-322.5" font-family="Helvetica,sans-Serif" font-size="10.00" fill="#000000">PolymorphicBase</text>
</a>
</g>
</g>
<!-- Node11&#45;&gt;Node12 -->
<g id="edge7" class="edge">
<title>Node11&#45;&gt;Node12</title>
<path fill="none" stroke="#191970" d="M82.5985,-338.4246C111.5007,-350.5123 154.4214,-368.4631 187.6791,-382.3725"/>
<polygon fill="#191970" stroke="#191970" points="83.9447,-335.1939 73.3686,-334.5643 81.2437,-341.6518 83.9447,-335.1939"/>
</g>
<!-- Node11&#45;&gt;Node14 -->
<g id="edge11" class="edge">
<title>Node11&#45;&gt;Node14</title>
<path fill="none" stroke="#191970" d="M111.2841,-325.6299C210.5662,-326.6587 408.5048,-328.7099 528.9546,-329.9581"/>
<polygon fill="#191970" stroke="#191970" points="111.1578,-322.1285 101.122,-325.5246 111.0852,-329.1281 111.1578,-322.1285"/>
</g>
<!-- Node11&#45;&gt;Node21 -->
<g id="edge21" class="edge">
<title>Node11&#45;&gt;Node21</title>
<path fill="none" stroke="#191970" d="M111.3374,-319.326C211.1572,-310.0164 410.602,-291.4154 530.8406,-280.2014"/>
<polygon fill="#191970" stroke="#191970" points="110.7537,-315.8652 101.122,-320.2788 111.4038,-322.835 110.7537,-315.8652"/>
</g>
<!-- Node13 -->
<g id="node9" class="node">
<title>Node13</title>
<g id="a_node9"><a xlink:href="classgko_1_1EnablePolymorphicObject.html" target="_top" xlink:title="This mixin inherits from (a subclass of) PolymorphicObject and provides a base implementation of a ne...">
<polygon fill="#ffffff" stroke="#000000" points="885,-286 885,-316 1090,-316 1090,-286 885,-286"/>
<text text-anchor="start" x="893" y="-304" font-family="Helvetica,sans-Serif" font-size="10.00" fill="#000000">gko::EnablePolymorphicObject</text>
<text text-anchor="middle" x="987.5" y="-293" font-family="Helvetica,sans-Serif" font-size="10.00" fill="#000000">&lt; ConcreteObject, PolymorphicBase &gt;</text>
</a>
</g>
</g>
<!-- Node13&#45;&gt;Node3 -->
<g id="edge9" class="edge">
<title>Node13&#45;&gt;Node3</title>
<path fill="none" stroke="#ffa500" stroke-dasharray="5,2" d="M1100.2031,-314.3608C1102.826,-314.5856 1105.4279,-314.7992 1108,-315 1300.7497,-330.0459 1527.8225,-336.269 1647.313,-338.6547"/>
<polygon fill="#ffa500" stroke="#ffa500" points="1100.2741,-310.8531 1090.0005,-313.4421 1099.6463,-317.8249 1100.2741,-310.8531"/>
<text text-anchor="start" x="1325.5" y="-348" font-family="Helvetica,sans-Serif" font-size="10.00" fill="#000000"> &lt; Bicg&lt; ValueType &gt;</text>
<text text-anchor="middle" x="1379.5" y="-337" font-family="Helvetica,sans-Serif" font-size="10.00" fill="#000000">, LinOp &gt;</text>
</g>
<!-- Node20 -->
<g id="node16" class="node">
<title>Node20</title>
<g id="a_node16"><a xlink:href="classgko_1_1EnablePolymorphicObject.html" target="_top" xlink:title=" ">
<polygon fill="#ffffff" stroke="#000000" points="1279,-262 1279,-292 1480,-292 1480,-262 1279,-262"/>
<text text-anchor="start" x="1287" y="-280" font-family="Helvetica,sans-Serif" font-size="10.00" fill="#000000">gko::EnablePolymorphicObject</text>
<text text-anchor="middle" x="1379.5" y="-269" font-family="Helvetica,sans-Serif" font-size="10.00" fill="#000000">&lt; ConcreteLinOp, PolymorphicBase &gt;</text>
</a>
</g>
</g>
<!-- Node13&#45;&gt;Node20 -->
<g id="edge23" class="edge">
<title>Node13&#45;&gt;Node20</title>
<path fill="none" stroke="#ffa500" stroke-dasharray="5,2" d="M1100.227,-293.49C1102.8427,-293.3242 1105.4367,-293.1606 1108,-293 1164.5497,-289.4566 1227.7398,-285.7195 1278.9195,-282.7489"/>
<polygon fill="#ffa500" stroke="#ffa500" points="1099.805,-290.0098 1090.0483,-294.1398 1100.251,-296.9955 1099.805,-290.0098"/>
<text text-anchor="start" x="1108" y="-307" font-family="Helvetica,sans-Serif" font-size="10.00" fill="#000000"> &lt; ConcreteLinOp, Polymorphic</text>
<text text-anchor="middle" x="1184.5" y="-296" font-family="Helvetica,sans-Serif" font-size="10.00" fill="#000000">Base &gt;</text>
</g>
<!-- Node14&#45;&gt;Node13 -->
<g id="edge10" class="edge">
<title>Node14&#45;&gt;Node13</title>
<path fill="none" stroke="#191970" d="M740.2058,-321.723C786.3205,-317.8586 839.5493,-313.3981 884.7833,-309.6075"/>
<polygon fill="#191970" stroke="#191970" points="739.8484,-318.2406 730.1757,-322.5635 740.433,-325.2161 739.8484,-318.2406"/>
</g>
<!-- Node15 -->
<g id="node11" class="node">
<title>Node15</title>
<g id="a_node11"><a xlink:href="classgko_1_1EnablePolymorphicAssignment.html" target="_top" xlink:title=" ">
<polygon fill="#ffffff" stroke="#000000" points="1283.5,-419 1283.5,-449 1475.5,-449 1475.5,-419 1283.5,-419"/>
<text text-anchor="start" x="1291.5" y="-437" font-family="Helvetica,sans-Serif" font-size="10.00" fill="#000000">gko::EnablePolymorphicAssignment</text>
<text text-anchor="middle" x="1379.5" y="-426" font-family="Helvetica,sans-Serif" font-size="10.00" fill="#000000">&lt; Bicg&lt; ValueType &gt; &gt;</text>
</a>
</g>
</g>
<!-- Node15&#45;&gt;Node2 -->
<g id="edge13" class="edge">
<title>Node15&#45;&gt;Node2</title>
<path fill="none" stroke="#191970" d="M1485.6485,-420.2773C1603.0593,-404.3157 1797.5322,-375.555 1963,-340 1979.6779,-336.4163 1997.6888,-332.1281 2014.1732,-328.0357"/>
<polygon fill="#191970" stroke="#191970" points="1485.0215,-416.8302 1475.5815,-421.6402 1485.9606,-423.7669 1485.0215,-416.8302"/>
</g>
<!-- Node16 -->
<g id="node12" class="node">
<title>Node16</title>
<g id="a_node12"><a xlink:href="classgko_1_1ConvertibleTo.html" target="_top" xlink:title=" ">
<polygon fill="#ffffff" stroke="#000000" points="921.5,-433 921.5,-463 1053.5,-463 1053.5,-433 921.5,-433"/>
<text text-anchor="start" x="929.5" y="-451" font-family="Helvetica,sans-Serif" font-size="10.00" fill="#000000">gko::ConvertibleTo</text>
<text text-anchor="middle" x="987.5" y="-440" font-family="Helvetica,sans-Serif" font-size="10.00" fill="#000000">&lt; Bicg&lt; ValueType &gt; &gt;</text>
</a>
</g>
</g>
<!-- Node16&#45;&gt;Node15 -->
<g id="edge14" class="edge">
<title>Node16&#45;&gt;Node15</title>
<path fill="none" stroke="#191970" d="M1063.7763,-445.2758C1126.5091,-443.0354 1215.7662,-439.8476 1283.3811,-437.4328"/>
<polygon fill="#191970" stroke="#191970" points="1063.4229,-441.7861 1053.5542,-445.6409 1063.6728,-448.7817 1063.4229,-441.7861"/>
</g>
<!-- Node17 -->
<g id="node13" class="node">
<title>Node17</title>
<g id="a_node13"><a xlink:href="classgko_1_1ConvertibleTo.html" target="_top" xlink:title="ConvertibleTo interface is used to mark that the implementer can be converted to the object of Result...">
<polygon fill="#ffffff" stroke="#000000" points="576,-384 576,-414 683,-414 683,-384 576,-384"/>
<text text-anchor="start" x="584" y="-402" font-family="Helvetica,sans-Serif" font-size="10.00" fill="#000000">gko::ConvertibleTo</text>
<text text-anchor="middle" x="629.5" y="-391" font-family="Helvetica,sans-Serif" font-size="10.00" fill="#000000">&lt; ResultType &gt;</text>
</a>
</g>
</g>
<!-- Node17&#45;&gt;Node16 -->
<g id="edge15" class="edge">
<title>Node17&#45;&gt;Node16</title>
<path fill="none" stroke="#ffa500" stroke-dasharray="5,2" d="M693.1014,-407.7052C757.3567,-416.4999 856.1918,-430.0277 921.345,-438.9453"/>
<polygon fill="#ffa500" stroke="#ffa500" points="693.4785,-404.2243 683.0962,-406.3358 692.5292,-411.1596 693.4785,-404.2243"/>
<text text-anchor="middle" x="807.5" y="-433" font-family="Helvetica,sans-Serif" font-size="10.00" fill="#000000"> &lt; Bicg&lt; ValueType &gt; &gt;</text>
</g>
<!-- Node18 -->
<g id="node14" class="node">
<title>Node18</title>
<g id="a_node14"><a xlink:href="classgko_1_1EnablePolymorphicAssignment.html" target="_top" xlink:title="This mixin is used to enable a default PolymorphicObject::copy_from() implementation for objects that...">
<polygon fill="#ffffff" stroke="#000000" points="891.5,-384 891.5,-414 1083.5,-414 1083.5,-384 891.5,-384"/>
<text text-anchor="start" x="899.5" y="-402" font-family="Helvetica,sans-Serif" font-size="10.00" fill="#000000">gko::EnablePolymorphicAssignment</text>
<text text-anchor="middle" x="987.5" y="-391" font-family="Helvetica,sans-Serif" font-size="10.00" fill="#000000">&lt; ConcreteType, ResultType &gt;</text>
</a>
</g>
</g>
<!-- Node17&#45;&gt;Node18 -->
<g id="edge17" class="edge">
<title>Node17&#45;&gt;Node18</title>
<path fill="none" stroke="#191970" d="M693.4065,-399C748.4132,-399 828.5969,-399 891.3502,-399"/>
<polygon fill="#191970" stroke="#191970" points="693.0963,-395.5001 683.0962,-399 693.0962,-402.5001 693.0963,-395.5001"/>
</g>
<!-- Node23 -->
<g id="node19" class="node">
<title>Node23</title>
<g id="a_node19"><a xlink:href="classgko_1_1ConvertibleTo.html" target="_top" xlink:title=" ">
<polygon fill="#ffffff" stroke="#000000" points="932.5,-335 932.5,-365 1042.5,-365 1042.5,-335 932.5,-335"/>
<text text-anchor="start" x="940.5" y="-353" font-family="Helvetica,sans-Serif" font-size="10.00" fill="#000000">gko::ConvertibleTo</text>
<text text-anchor="middle" x="987.5" y="-342" font-family="Helvetica,sans-Serif" font-size="10.00" fill="#000000">&lt; ConcreteLinOp &gt;</text>
</a>
</g>
</g>
<!-- Node17&#45;&gt;Node23 -->
<g id="edge26" class="edge">
<title>Node17&#45;&gt;Node23</title>
<path fill="none" stroke="#ffa500" stroke-dasharray="5,2" d="M693.2524,-390.2741C761.2521,-380.9669 867.8548,-366.376 932.3593,-357.5472"/>
<polygon fill="#ffa500" stroke="#ffa500" points="692.5292,-386.8404 683.0962,-391.6642 693.4785,-393.7757 692.5292,-386.8404"/>
<text text-anchor="middle" x="807.5" y="-384" font-family="Helvetica,sans-Serif" font-size="10.00" fill="#000000"> &lt; ConcreteLinOp &gt;</text>
</g>
<!-- Node18&#45;&gt;Node15 -->
<g id="edge16" class="edge">
<title>Node18&#45;&gt;Node15</title>
<path fill="none" stroke="#ffa500" stroke-dasharray="5,2" d="M1093.6896,-408.1931C1144.3499,-412.6109 1205.8138,-418.0173 1261,-423 1268.3051,-423.6596 1275.8629,-424.3477 1283.4628,-425.0439"/>
<polygon fill="#ffa500" stroke="#ffa500" points="1093.9728,-404.7046 1083.7067,-407.3231 1093.365,-411.6782 1093.9728,-404.7046"/>
<text text-anchor="middle" x="1184.5" y="-426" font-family="Helvetica,sans-Serif" font-size="10.00" fill="#000000"> &lt; Bicg&lt; ValueType &gt; &gt;</text>
</g>
<!-- Node22 -->
<g id="node18" class="node">
<title>Node22</title>
<g id="a_node18"><a xlink:href="classgko_1_1EnablePolymorphicAssignment.html" target="_top" xlink:title=" ">
<polygon fill="#ffffff" stroke="#000000" points="1283.5,-370 1283.5,-400 1475.5,-400 1475.5,-370 1283.5,-370"/>
<text text-anchor="start" x="1291.5" y="-388" font-family="Helvetica,sans-Serif" font-size="10.00" fill="#000000">gko::EnablePolymorphicAssignment</text>
<text text-anchor="middle" x="1379.5" y="-377" font-family="Helvetica,sans-Serif" font-size="10.00" fill="#000000">&lt; ConcreteLinOp &gt;</text>
</a>
</g>
</g>
<!-- Node18&#45;&gt;Node22 -->
<g id="edge27" class="edge">
<title>Node18&#45;&gt;Node22</title>
<path fill="none" stroke="#ffa500" stroke-dasharray="5,2" d="M1094.1289,-389.7606C1098.8145,-389.4778 1103.4544,-389.2218 1108,-389 1166.1493,-386.1621 1231.3801,-385.1314 1283.3266,-384.8247"/>
<polygon fill="#ffa500" stroke="#ffa500" points="1093.5734,-386.2888 1083.817,-390.4195 1094.0198,-393.2746 1093.5734,-386.2888"/>
<text text-anchor="middle" x="1184.5" y="-392" font-family="Helvetica,sans-Serif" font-size="10.00" fill="#000000"> &lt; ConcreteLinOp &gt;</text>
</g>
<!-- Node19 -->
<g id="node15" class="node">
<title>Node19</title>
<g id="a_node15"><a xlink:href="classgko_1_1EnableLinOp.html" target="_top" xlink:title="The EnableLinOp mixin can be used to provide sensible default implementations of the majority of the ...">
<polygon fill="#ffffff" stroke="#000000" points="1652.5,-276 1652.5,-306 1808.5,-306 1808.5,-276 1652.5,-276"/>
<text text-anchor="start" x="1660.5" y="-294" font-family="Helvetica,sans-Serif" font-size="10.00" fill="#000000">gko::EnableLinOp&lt; Concrete</text>
<text text-anchor="middle" x="1730.5" y="-283" font-family="Helvetica,sans-Serif" font-size="10.00" fill="#000000">LinOp, PolymorphicBase &gt;</text>
</a>
</g>
</g>
<!-- Node19&#45;&gt;Node2 -->
<g id="edge18" class="edge">
<title>Node19&#45;&gt;Node2</title>
<path fill="none" stroke="#ffa500" stroke-dasharray="5,2" d="M1818.8164,-295.3858C1862.2601,-297.684 1915.3943,-300.7043 1963,-304 1976.544,-304.9376 1991.0252,-306.0536 2004.8634,-307.1751"/>
<polygon fill="#ffa500" stroke="#ffa500" points="1818.7325,-291.8767 1808.5626,-294.8473 1818.3653,-298.867 1818.7325,-291.8767"/>
<text text-anchor="middle" x="1903.5" y="-307" font-family="Helvetica,sans-Serif" font-size="10.00" fill="#000000"> &lt; Bicg&lt; ValueType &gt; &gt;</text>
</g>
<!-- Node20&#45;&gt;Node19 -->
<g id="edge19" class="edge">
<title>Node20&#45;&gt;Node19</title>
<path fill="none" stroke="#191970" d="M1490.1616,-281.4139C1542.9095,-283.5178 1604.7501,-285.9843 1652.4919,-287.8886"/>
<polygon fill="#191970" stroke="#191970" points="1490.2141,-277.9133 1480.0825,-281.0118 1489.935,-284.9077 1490.2141,-277.9133"/>
</g>
<!-- Node21&#45;&gt;Node20 -->
<g id="edge20" class="edge">
<title>Node21&#45;&gt;Node20</title>
<path fill="none" stroke="#191970" d="M738.5775,-271.8726C883.7034,-273.0336 1138.2868,-275.0703 1278.9633,-276.1957"/>
<polygon fill="#191970" stroke="#191970" points="738.3483,-268.3708 728.3206,-271.7906 738.2923,-275.3705 738.3483,-268.3708"/>
</g>
<!-- Node22&#45;&gt;Node19 -->
<g id="edge24" class="edge">
<title>Node22&#45;&gt;Node19</title>
<path fill="none" stroke="#191970" d="M1444.4817,-367.3025C1496.0982,-353.2808 1570.133,-333.2491 1635,-316 1647.1738,-312.7628 1660.2294,-309.3237 1672.6569,-306.0654"/>
<polygon fill="#191970" stroke="#191970" points="1443.5218,-363.9363 1434.7896,-369.9363 1445.3575,-370.6913 1443.5218,-363.9363"/>
</g>
<!-- Node23&#45;&gt;Node22 -->
<g id="edge25" class="edge">
<title>Node23&#45;&gt;Node22</title>
<path fill="none" stroke="#191970" d="M1053.0239,-355.8504C1115.9342,-361.4673 1211.7021,-370.018 1283.2698,-376.408"/>
<polygon fill="#191970" stroke="#191970" points="1053.1043,-352.3437 1042.8326,-354.9404 1052.4817,-359.316 1053.1043,-352.3437"/>
</g>
<!-- Node24 -->
<g id="node20" class="node">
<title>Node24</title>
<g id="a_node20"><a xlink:href="classgko_1_1solver_1_1EnablePreconditionedIterativeSolver.html" target="_top" xlink:title=" ">
<polygon fill="#ffffff" stroke="#000000" points="1981,-119.5 1981,-160.5 2163,-160.5 2163,-119.5 1981,-119.5"/>
<text text-anchor="start" x="1989" y="-148.5" font-family="Helvetica,sans-Serif" font-size="10.00" fill="#000000">gko::solver::EnablePreconditioned</text>
<text text-anchor="start" x="1989" y="-137.5" font-family="Helvetica,sans-Serif" font-size="10.00" fill="#000000">IterativeSolver&lt; ValueType,</text>
<text text-anchor="middle" x="2072" y="-126.5" font-family="Helvetica,sans-Serif" font-size="10.00" fill="#000000"> Bicg&lt; ValueType &gt; &gt;</text>
</a>
</g>
</g>
<!-- Node24&#45;&gt;Node1 -->
<g id="edge28" class="edge">
<title>Node24&#45;&gt;Node1</title>
<path fill="none" stroke="#191970" d="M2173.2621,-140C2182.2874,-140 2191.1678,-140 2199.5375,-140"/>
<polygon fill="#191970" stroke="#191970" points="2173.0303,-136.5001 2163.0303,-140 2173.0302,-143.5001 2173.0303,-136.5001"/>
</g>
<!-- Node25 -->
<g id="node21" class="node">
<title>Node25</title>
<g id="a_node21"><a xlink:href="classgko_1_1solver_1_1EnableSolverBase.html" target="_top" xlink:title=" ">
<polygon fill="#ffffff" stroke="#000000" points="1301.5,-76 1301.5,-106 1457.5,-106 1457.5,-76 1301.5,-76"/>
<text text-anchor="start" x="1309.5" y="-94" font-family="Helvetica,sans-Serif" font-size="10.00" fill="#000000">gko::solver::EnableSolver</text>
<text text-anchor="middle" x="1379.5" y="-83" font-family="Helvetica,sans-Serif" font-size="10.00" fill="#000000">Base&lt; Bicg&lt; ValueType &gt; &gt;</text>
</a>
</g>
</g>
<!-- Node25&#45;&gt;Node24 -->
<g id="edge29" class="edge">
<title>Node25&#45;&gt;Node24</title>
<path fill="none" stroke="#191970" d="M1468.0367,-92.7118C1558.217,-94.9381 1702.028,-99.819 1826,-110 1877.3493,-114.217 1934.4866,-121.0531 1980.7612,-127.1354"/>
<polygon fill="#191970" stroke="#191970" points="1467.9349,-89.2084 1457.8534,-92.4661 1467.766,-96.2064 1467.9349,-89.2084"/>
</g>
<!-- Node26 -->
<g id="node22" class="node">
<title>Node26</title>
<g id="a_node22"><a xlink:href="classgko_1_1solver_1_1SolverBase.html" target="_top" xlink:title=" ">
<polygon fill="#ffffff" stroke="#000000" points="922,-58 922,-88 1053,-88 1053,-58 922,-58"/>
<text text-anchor="start" x="930" y="-76" font-family="Helvetica,sans-Serif" font-size="10.00" fill="#000000">gko::solver::SolverBase</text>
<text text-anchor="middle" x="987.5" y="-65" font-family="Helvetica,sans-Serif" font-size="10.00" fill="#000000">&lt; LinOp &gt;</text>
</a>
</g>
</g>
<!-- Node26&#45;&gt;Node25 -->
<g id="edge30" class="edge">
<title>Node26&#45;&gt;Node25</title>
<path fill="none" stroke="#191970" d="M1063.1263,-68.7661C1118.115,-66.5834 1194.2931,-65.4103 1261,-71 1274.2023,-72.1063 1288.146,-73.8943 1301.651,-75.9578"/>
<polygon fill="#191970" stroke="#191970" points="1062.9577,-65.27 1053.1124,-69.184 1063.2496,-72.2639 1062.9577,-65.27"/>
</g>
<!-- Node37 -->
<g id="node33" class="node">
<title>Node37</title>
<g id="a_node33"><a xlink:href="classgko_1_1solver_1_1EnableSolverBase.html" target="_top" xlink:title=" ">
<polygon fill="#ffffff" stroke="#000000" points="1309.5,-125 1309.5,-155 1449.5,-155 1449.5,-125 1309.5,-125"/>
<text text-anchor="start" x="1317.5" y="-143" font-family="Helvetica,sans-Serif" font-size="10.00" fill="#000000">gko::solver::EnableSolver</text>
<text text-anchor="middle" x="1379.5" y="-132" font-family="Helvetica,sans-Serif" font-size="10.00" fill="#000000">Base&lt; DerivedType &gt;</text>
</a>
</g>
</g>
<!-- Node26&#45;&gt;Node37 -->
<g id="edge46" class="edge">
<title>Node26&#45;&gt;Node37</title>
<path fill="none" stroke="#191970" d="M1063.4401,-74.2004C1131.9885,-76.3159 1227.1206,-82.1215 1261,-98 1271.2444,-102.8013 1269.1255,-110.4778 1279,-116 1288.3939,-121.2534 1298.9051,-125.3627 1309.4938,-128.5755"/>
<polygon fill="#191970" stroke="#191970" points="1063.202,-70.6922 1053.1054,-73.9029 1063.0006,-77.6893 1063.202,-70.6922"/>
</g>
<!-- Node27 -->
<g id="node23" class="node">
<title>Node27</title>
<g id="a_node23"><a xlink:title="A LinOp implementing this interface stores a system matrix.">
<polygon fill="#ffffff" stroke="#bfbfbf" points="184.5,-71 184.5,-101 289.5,-101 289.5,-71 184.5,-71"/>
<text text-anchor="start" x="192.5" y="-89" font-family="Helvetica,sans-Serif" font-size="10.00" fill="#000000">gko::solver::detail</text>
<text text-anchor="middle" x="237" y="-78" font-family="Helvetica,sans-Serif" font-size="10.00" fill="#000000">::SolverBaseLinOp</text>
</a>
</g>
</g>
<!-- Node27&#45;&gt;Node26 -->
<g id="edge31" class="edge">
<title>Node27&#45;&gt;Node26</title>
<path fill="none" stroke="#191970" d="M299.9509,-84.9096C440.5426,-82.4743 778.9162,-76.613 921.9292,-74.1358"/>
<polygon fill="#191970" stroke="#191970" points="299.7116,-81.4131 289.7737,-85.0859 299.8329,-88.4121 299.7116,-81.4131"/>
</g>
<!-- Node28 -->
<g id="node24" class="node">
<title>Node28</title>
<g id="a_node24"><a xlink:href="classgko_1_1solver_1_1SolverBase.html" target="_top" xlink:title=" ">
<polygon fill="#ffffff" stroke="#000000" points="564,-97 564,-127 695,-127 695,-97 564,-97"/>
<text text-anchor="start" x="572" y="-115" font-family="Helvetica,sans-Serif" font-size="10.00" fill="#000000">gko::solver::SolverBase</text>
<text text-anchor="middle" x="629.5" y="-104" font-family="Helvetica,sans-Serif" font-size="10.00" fill="#000000">&lt; MatrixType &gt;</text>
</a>
</g>
</g>
<!-- Node27&#45;&gt;Node28 -->
<g id="edge33" class="edge">
<title>Node27&#45;&gt;Node28</title>
<path fill="none" stroke="#191970" d="M299.8546,-90.1636C372.1828,-94.9548 490.4079,-102.7863 563.8816,-107.6533"/>
<polygon fill="#191970" stroke="#191970" points="299.7365,-86.6482 289.527,-89.4795 299.2738,-93.6329 299.7365,-86.6482"/>
</g>
<!-- Node28&#45;&gt;Node26 -->
<g id="edge32" class="edge">
<title>Node28&#45;&gt;Node26</title>
<path fill="none" stroke="#ffa500" stroke-dasharray="5,2" d="M705.2372,-103.7493C769.5073,-96.7478 860.7698,-86.8058 921.9512,-80.1408"/>
<polygon fill="#ffa500" stroke="#ffa500" points="704.7248,-100.2843 695.1627,-104.8468 705.483,-107.2431 704.7248,-100.2843"/>
<text text-anchor="middle" x="807.5" y="-101" font-family="Helvetica,sans-Serif" font-size="10.00" fill="#000000"> &lt; LinOp &gt;</text>
</g>
<!-- Node29 -->
<g id="node25" class="node">
<title>Node29</title>
<g id="a_node25"><a xlink:href="classgko_1_1solver_1_1EnableSolverBase.html" target="_top" xlink:title="A LinOp deriving from this CRTP class stores a system matrix.">
<polygon fill="#ffffff" stroke="#000000" points="896,-112 896,-142 1079,-142 1079,-112 896,-112"/>
<text text-anchor="start" x="904" y="-130" font-family="Helvetica,sans-Serif" font-size="10.00" fill="#000000">gko::solver::EnableSolver</text>
<text text-anchor="middle" x="987.5" y="-119" font-family="Helvetica,sans-Serif" font-size="10.00" fill="#000000">Base&lt; DerivedType, MatrixType &gt;</text>
</a>
</g>
</g>
<!-- Node28&#45;&gt;Node29 -->
<g id="edge35" class="edge">
<title>Node28&#45;&gt;Node29</title>
<path fill="none" stroke="#191970" d="M705.3154,-115.1766C760.9957,-117.5096 836.9041,-120.6901 895.9669,-123.1648"/>
<polygon fill="#191970" stroke="#191970" points="705.3005,-111.673 695.1627,-114.7512 705.0074,-118.6669 705.3005,-111.673"/>
</g>
<!-- Node29&#45;&gt;Node25 -->
<g id="edge34" class="edge">
<title>Node29&#45;&gt;Node25</title>
<path fill="none" stroke="#ffa500" stroke-dasharray="5,2" d="M1089.4448,-117.6377C1155.6264,-111.5598 1240.5614,-103.7597 1301.3904,-98.1733"/>
<polygon fill="#ffa500" stroke="#ffa500" points="1089.0446,-114.1597 1079.4066,-118.5596 1089.6848,-121.1303 1089.0446,-114.1597"/>
<text text-anchor="middle" x="1184.5" y="-118" font-family="Helvetica,sans-Serif" font-size="10.00" fill="#000000"> &lt; Bicg&lt; ValueType &gt; &gt;</text>
</g>
<!-- Node29&#45;&gt;Node37 -->
<g id="edge47" class="edge">
<title>Node29&#45;&gt;Node37</title>
<path fill="none" stroke="#ffa500" stroke-dasharray="5,2" d="M1089.4475,-130.3809C1158.5474,-132.6725 1248.0898,-135.642 1309.2937,-137.6717"/>
<polygon fill="#ffa500" stroke="#ffa500" points="1089.5171,-126.8814 1079.4066,-130.0479 1089.285,-133.8775 1089.5171,-126.8814"/>
<text text-anchor="middle" x="1184.5" y="-138" font-family="Helvetica,sans-Serif" font-size="10.00" fill="#000000"> &lt; DerivedType &gt;</text>
</g>
<!-- Node30 -->
<g id="node26" class="node">
<title>Node30</title>
<g id="a_node26"><a xlink:href="classgko_1_1solver_1_1EnableIterativeBase.html" target="_top" xlink:title=" ">
<polygon fill="#ffffff" stroke="#000000" points="1652.5,-25 1652.5,-55 1808.5,-55 1808.5,-25 1652.5,-25"/>
<text text-anchor="start" x="1660.5" y="-43" font-family="Helvetica,sans-Serif" font-size="10.00" fill="#000000">gko::solver::EnableIterative</text>
<text text-anchor="middle" x="1730.5" y="-32" font-family="Helvetica,sans-Serif" font-size="10.00" fill="#000000">Base&lt; Bicg&lt; ValueType &gt; &gt;</text>
</a>
</g>
</g>
<!-- Node30&#45;&gt;Node24 -->
<g id="edge36" class="edge">
<title>Node30&#45;&gt;Node24</title>
<path fill="none" stroke="#191970" d="M1818.7502,-36.0369C1865.4137,-38.1219 1921.4687,-47.6857 1963,-77 1976.6491,-86.634 1968.1679,-99.302 1981,-110 1985.2164,-113.5152 1989.858,-116.6227 1994.7449,-119.3691"/>
<polygon fill="#191970" stroke="#191970" points="1818.7524,-32.535 1808.6395,-35.6939 1818.515,-39.531 1818.7524,-32.535"/>
</g>
<!-- Node31 -->
<g id="node27" class="node">
<title>Node31</title>
<g id="a_node27"><a xlink:href="classgko_1_1solver_1_1IterativeBase.html" target="_top" xlink:title="A LinOp implementing this interface stores a stopping criterion factory.">
<polygon fill="#ffffff" stroke="#000000" points="916.5,-.5 916.5,-19.5 1058.5,-19.5 1058.5,-.5 916.5,-.5"/>
<text text-anchor="middle" x="987.5" y="-7.5" font-family="Helvetica,sans-Serif" font-size="10.00" fill="#000000">gko::solver::IterativeBase</text>
</a>
</g>
</g>
<!-- Node31&#45;&gt;Node30 -->
<g id="edge37" class="edge">
<title>Node31&#45;&gt;Node30</title>
<path fill="none" stroke="#191970" d="M1068.6104,-9.2332C1166.2778,-8.7535 1335.2584,-9.3381 1480,-17 1537.8942,-20.0646 1603.105,-26.1356 1652.4765,-31.2709"/>
<polygon fill="#191970" stroke="#191970" points="1068.4943,-5.7337 1058.5134,-9.2879 1068.5322,-12.7336 1068.4943,-5.7337"/>
</g>
<!-- Node32 -->
<g id="node28" class="node">
<title>Node32</title>
<g id="a_node28"><a xlink:href="classgko_1_1solver_1_1EnableIterativeBase.html" target="_top" xlink:title="A LinOp deriving from this CRTP class stores a stopping criterion factory and allows applying with a ...">
<polygon fill="#ffffff" stroke="#000000" points="1304,-27 1304,-57 1455,-57 1455,-27 1304,-27"/>
<text text-anchor="start" x="1312" y="-45" font-family="Helvetica,sans-Serif" font-size="10.00" fill="#000000">gko::solver::EnableIterative</text>
<text text-anchor="middle" x="1379.5" y="-34" font-family="Helvetica,sans-Serif" font-size="10.00" fill="#000000">Base&lt; DerivedType &gt;</text>
</a>
</g>
</g>
<!-- Node31&#45;&gt;Node32 -->
<g id="edge39" class="edge">
<title>Node31&#45;&gt;Node32</title>
<path fill="none" stroke="#191970" d="M1068.9211,-16.6466C1138.0397,-22.289 1236.4556,-30.3229 1303.8695,-35.8261"/>
<polygon fill="#191970" stroke="#191970" points="1069.1947,-13.1574 1058.943,-15.8321 1068.6251,-20.1342 1069.1947,-13.1574"/>
</g>
<!-- Node32&#45;&gt;Node30 -->
<g id="edge38" class="edge">
<title>Node32&#45;&gt;Node30</title>
<path fill="none" stroke="#ffa500" stroke-dasharray="5,2" d="M1465.1438,-41.2352C1476.1991,-41.1489 1487.3678,-41.0677 1498,-41 1549.4643,-40.6722 1607.3371,-40.4228 1652.4692,-40.2551"/>
<polygon fill="#ffa500" stroke="#ffa500" points="1465.0133,-37.7361 1455.0415,-41.3158 1465.0691,-44.7358 1465.0133,-37.7361"/>
<text text-anchor="middle" x="1557.5" y="-44" font-family="Helvetica,sans-Serif" font-size="10.00" fill="#000000"> &lt; Bicg&lt; ValueType &gt; &gt;</text>
</g>
<!-- Node36 -->
<g id="node32" class="node">
<title>Node36</title>
<g id="a_node32"><a xlink:href="classgko_1_1solver_1_1EnablePreconditionedIterativeSolver.html" target="_top" xlink:title="A LinOp implementing this interface stores a system matrix and stopping criterion factory.">
<polygon fill="#ffffff" stroke="#000000" points="1639.5,-119.5 1639.5,-160.5 1821.5,-160.5 1821.5,-119.5 1639.5,-119.5"/>
<text text-anchor="start" x="1647.5" y="-148.5" font-family="Helvetica,sans-Serif" font-size="10.00" fill="#000000">gko::solver::EnablePreconditioned</text>
<text text-anchor="start" x="1647.5" y="-137.5" font-family="Helvetica,sans-Serif" font-size="10.00" fill="#000000">IterativeSolver&lt; ValueType,</text>
<text text-anchor="middle" x="1730.5" y="-126.5" font-family="Helvetica,sans-Serif" font-size="10.00" fill="#000000"> DerivedType &gt;</text>
</a>
</g>
</g>
<!-- Node32&#45;&gt;Node36 -->
<g id="edge48" class="edge">
<title>Node32&#45;&gt;Node36</title>
<path fill="none" stroke="#191970" d="M1454.7505,-59.5121C1463.2833,-61.6337 1471.8405,-63.8222 1480,-66 1542.9822,-82.8105 1614.2172,-104.0748 1664.5779,-119.4907"/>
<polygon fill="#191970" stroke="#191970" points="1455.317,-56.0472 1444.7704,-57.057 1453.6448,-62.8445 1455.317,-56.0472"/>
</g>
<!-- Node33 -->
<g id="node29" class="node">
<title>Node33</title>
<g id="a_node29"><a xlink:href="classgko_1_1solver_1_1EnablePreconditionable.html" target="_top" xlink:title=" ">
<polygon fill="#ffffff" stroke="#000000" points="1635,-180 1635,-210 1826,-210 1826,-180 1635,-180"/>
<text text-anchor="start" x="1643" y="-198" font-family="Helvetica,sans-Serif" font-size="10.00" fill="#000000">gko::solver::EnablePreconditionable</text>
<text text-anchor="middle" x="1730.5" y="-187" font-family="Helvetica,sans-Serif" font-size="10.00" fill="#000000">&lt; Bicg&lt; ValueType &gt; &gt;</text>
</a>
</g>
</g>
<!-- Node33&#45;&gt;Node24 -->
<g id="edge40" class="edge">
<title>Node33&#45;&gt;Node24</title>
<path fill="none" stroke="#191970" d="M1836.1735,-184.3077C1876.0659,-179.6196 1921.7648,-173.4662 1963,-166 1971.8059,-164.4056 1980.9665,-162.5447 1990.0701,-160.5645"/>
<polygon fill="#191970" stroke="#191970" points="1835.6933,-180.8399 1826.1627,-185.468 1836.4992,-187.7933 1835.6933,-180.8399"/>
</g>
<!-- Node34 -->
<g id="node30" class="node">
<title>Node34</title>
<g id="a_node30"><a xlink:href="classgko_1_1Preconditionable.html" target="_top" xlink:title="A LinOp implementing this interface can be preconditioned.">
<polygon fill="#ffffff" stroke="#000000" points="926.5,-191.5 926.5,-210.5 1048.5,-210.5 1048.5,-191.5 926.5,-191.5"/>
<text text-anchor="middle" x="987.5" y="-198.5" font-family="Helvetica,sans-Serif" font-size="10.00" fill="#000000">gko::Preconditionable</text>
</a>
</g>
</g>
<!-- Node34&#45;&gt;Node33 -->
<g id="edge41" class="edge">
<title>Node34&#45;&gt;Node33</title>
<path fill="none" stroke="#191970" d="M1058.79,-200.4243C1193.0684,-199.34 1483.5425,-196.9943 1634.7103,-195.7735"/>
<polygon fill="#191970" stroke="#191970" points="1058.5899,-196.9257 1048.6185,-200.5064 1058.6465,-203.9255 1058.5899,-196.9257"/>
</g>
<!-- Node35 -->
<g id="node31" class="node">
<title>Node35</title>
<g id="a_node31"><a xlink:href="classgko_1_1solver_1_1EnablePreconditionable.html" target="_top" xlink:title="Mixin providing default operation for Preconditionable with correct value semantics.">
<polygon fill="#ffffff" stroke="#000000" points="1284,-213 1284,-243 1475,-243 1475,-213 1284,-213"/>
<text text-anchor="start" x="1292" y="-231" font-family="Helvetica,sans-Serif" font-size="10.00" fill="#000000">gko::solver::EnablePreconditionable</text>
<text text-anchor="middle" x="1379.5" y="-220" font-family="Helvetica,sans-Serif" font-size="10.00" fill="#000000">&lt; DerivedType &gt;</text>
</a>
</g>
</g>
<!-- Node34&#45;&gt;Node35 -->
<g id="edge43" class="edge">
<title>Node34&#45;&gt;Node35</title>
<path fill="none" stroke="#191970" d="M1059.0055,-205.9251C1122.1011,-210.271 1214.5661,-216.6398 1283.982,-221.421"/>
<polygon fill="#191970" stroke="#191970" points="1058.9669,-202.4143 1048.75,-205.2188 1058.4858,-209.3977 1058.9669,-202.4143"/>
</g>
<!-- Node35&#45;&gt;Node33 -->
<g id="edge42" class="edge">
<title>Node35&#45;&gt;Node33</title>
<path fill="none" stroke="#ffa500" stroke-dasharray="5,2" d="M1485.2243,-228.5776C1526.4755,-227.7226 1574.08,-225.4034 1617,-220 1635.0173,-217.7317 1654.3943,-213.9684 1671.9482,-210.0416"/>
<polygon fill="#ffa500" stroke="#ffa500" points="1485.0911,-225.0793 1475.1563,-228.7601 1485.2181,-232.0782 1485.0911,-225.0793"/>
<text text-anchor="middle" x="1557.5" y="-231" font-family="Helvetica,sans-Serif" font-size="10.00" fill="#000000"> &lt; Bicg&lt; ValueType &gt; &gt;</text>
</g>
<!-- Node35&#45;&gt;Node36 -->
<g id="edge49" class="edge">
<title>Node35&#45;&gt;Node36</title>
<path fill="none" stroke="#191970" d="M1449.1437,-210.5395C1506.4977,-196.1601 1587.9317,-175.7436 1648.4433,-160.5726"/>
<polygon fill="#191970" stroke="#191970" points="1448.2889,-207.1454 1439.4402,-212.9722 1449.9912,-213.9352 1448.2889,-207.1454"/>
</g>
<!-- Node36&#45;&gt;Node24 -->
<g id="edge44" class="edge">
<title>Node36&#45;&gt;Node24</title>
<path fill="none" stroke="#ffa500" stroke-dasharray="5,2" d="M1831.8299,-140C1879.1134,-140 1934.9564,-140 1980.8904,-140"/>
<polygon fill="#ffa500" stroke="#ffa500" points="1831.5672,-136.5001 1821.5671,-140 1831.5671,-143.5001 1831.5672,-136.5001"/>
<text text-anchor="start" x="1853.5" y="-154" font-family="Helvetica,sans-Serif" font-size="10.00" fill="#000000"> &lt; ValueType, Bicg&lt;</text>
<text text-anchor="middle" x="1903.5" y="-143" font-family="Helvetica,sans-Serif" font-size="10.00" fill="#000000"> ValueType &gt; &gt;</text>
</g>
<!-- Node37&#45;&gt;Node36 -->
<g id="edge45" class="edge">
<title>Node37&#45;&gt;Node36</title>
<path fill="none" stroke="#191970" d="M1459.817,-140C1513.348,-140 1583.8182,-140 1639.4354,-140"/>
<polygon fill="#191970" stroke="#191970" points="1459.6865,-136.5001 1449.6865,-140 1459.6865,-143.5001 1459.6865,-136.5001"/>
</g>
<!-- Node38 -->
<g id="node34" class="node">
<title>Node38</title>
<g id="a_node34"><a xlink:href="classgko_1_1Transposable.html" target="_top" xlink:title="Linear operators which support transposition should implement the Transposable interface.">
<polygon fill="#ffffff" stroke="#000000" points="2020,-81.5 2020,-100.5 2124,-100.5 2124,-81.5 2020,-81.5"/>
<text text-anchor="middle" x="2072" y="-88.5" font-family="Helvetica,sans-Serif" font-size="10.00" fill="#000000">gko::Transposable</text>
</a>
</g>
</g>
<!-- Node38&#45;&gt;Node1 -->
<g id="edge50" class="edge">
<title>Node38&#45;&gt;Node1</title>
<path fill="none" stroke="#191970" d="M2132.8076,-102.6745C2142.9379,-104.9113 2153.3008,-107.3804 2163,-110 2178.9005,-114.2945 2196.1116,-119.8116 2211.1832,-124.9408"/>
<polygon fill="#191970" stroke="#191970" points="2133.3005,-99.2005 2122.7879,-100.5181 2131.8276,-106.0438 2133.3005,-99.2005"/>
</g>
</g>
</svg>
