<?xml version="1.0" encoding="UTF-8" standalone="no"?>
<!DOCTYPE svg PUBLIC "-//W3C//DTD SVG 1.1//EN"
 "http://www.w3.org/Graphics/SVG/1.1/DTD/svg11.dtd">
<!-- Generated by graphviz version 2.40.1 (20161225.0304)
 -->
<!-- Title: gko::solver::EnableApplyWithInitialGuess&lt; DerivedType &gt; Pages: 1 -->
<svg width="875pt" height="100pt"
 viewBox="0.00 0.00 875.00 99.50" xmlns="http://www.w3.org/2000/svg" xmlns:xlink="http://www.w3.org/1999/xlink">
<g id="graph0" class="graph" transform="scale(1 1) rotate(0) translate(4 95.5)">
<title>gko::solver::EnableApplyWithInitialGuess&lt; DerivedType &gt;</title>
<polygon fill="#ffffff" stroke="transparent" points="-4,4 -4,-95.5 871,-95.5 871,4 -4,4"/>
<!-- Node1 -->
<g id="node1" class="node">
<title>Node1</title>
<g id="a_node1"><a xlink:title="EnableApplyWithInitialGuess providing default operation for ApplyWithInitialGuess with correct valida...">
<polygon fill="#bfbfbf" stroke="#000000" points="192,-33 192,-63 372,-63 372,-33 192,-33"/>
<text text-anchor="start" x="200" y="-51" font-family="Helvetica,sans-Serif" font-size="10.00" fill="#000000">gko::solver::EnableApply</text>
<text text-anchor="middle" x="282" y="-40" font-family="Helvetica,sans-Serif" font-size="10.00" fill="#000000">WithInitialGuess&lt; DerivedType &gt;</text>
</a>
</g>
</g>
<!-- Node3 -->
<g id="node3" class="node">
<title>Node3</title>
<g id="a_node3"><a xlink:href="classgko_1_1solver_1_1EnableApplyWithInitialGuess.html" target="_top" xlink:title=" ">
<polygon fill="#ffffff" stroke="#000000" points="513,-61 513,-91 675,-91 675,-61 513,-61"/>
<text text-anchor="start" x="521" y="-79" font-family="Helvetica,sans-Serif" font-size="10.00" fill="#000000">gko::solver::EnableApply</text>
<text text-anchor="middle" x="594" y="-68" font-family="Helvetica,sans-Serif" font-size="10.00" fill="#000000">WithInitialGuess&lt; Multigrid &gt;</text>
</a>
</g>
</g>
<!-- Node1&#45;&gt;Node3 -->
<g id="edge2" class="edge">
<title>Node1&#45;&gt;Node3</title>
<path fill="none" stroke="#ffa500" stroke-dasharray="5,2" d="M382.2569,-56.9974C424.4257,-60.7818 472.8513,-65.1277 512.7401,-68.7074"/>
<polygon fill="#ffa500" stroke="#ffa500" points="382.5162,-53.5067 372.2433,-56.0988 381.8904,-60.4787 382.5162,-53.5067"/>
<text text-anchor="middle" x="442.5" y="-70" font-family="Helvetica,sans-Serif" font-size="10.00" fill="#000000"> &lt; Multigrid &gt;</text>
</g>
<!-- Node5 -->
<g id="node5" class="node">
<title>Node5</title>
<g id="a_node5"><a xlink:href="classgko_1_1solver_1_1EnableApplyWithInitialGuess.html" target="_top" xlink:title=" ">
<polygon fill="#ffffff" stroke="#000000" points="525.5,-.5 525.5,-41.5 662.5,-41.5 662.5,-.5 525.5,-.5"/>
<text text-anchor="start" x="533.5" y="-29.5" font-family="Helvetica,sans-Serif" font-size="10.00" fill="#000000">gko::solver::EnableApply</text>
<text text-anchor="start" x="533.5" y="-18.5" font-family="Helvetica,sans-Serif" font-size="10.00" fill="#000000">WithInitialGuess&lt; Ir&lt;</text>
<text text-anchor="middle" x="594" y="-7.5" font-family="Helvetica,sans-Serif" font-size="10.00" fill="#000000"> ValueType &gt; &gt;</text>
</a>
</g>
</g>
<!-- Node1&#45;&gt;Node5 -->
<g id="edge4" class="edge">
<title>Node1&#45;&gt;Node5</title>
<path fill="none" stroke="#ffa500" stroke-dasharray="5,2" d="M382.2731,-37.7067C384.875,-37.4655 387.4542,-37.2295 390,-37 434.9352,-32.95 485.4925,-28.9806 525.0347,-26.0086"/>
<polygon fill="#ffa500" stroke="#ffa500" points="381.7752,-34.238 372.1474,-38.6602 382.4316,-41.2072 381.7752,-34.238"/>
<text text-anchor="middle" x="442.5" y="-40" font-family="Helvetica,sans-Serif" font-size="10.00" fill="#000000"> &lt; Ir&lt; ValueType &gt; &gt;</text>
</g>
<!-- Node2 -->
<g id="node2" class="node">
<title>Node2</title>
<g id="a_node2"><a xlink:href="classgko_1_1solver_1_1ApplyWithInitialGuess.html" target="_top" xlink:title="ApplyWithInitialGuess provides a way to give the input guess for apply function.">
<polygon fill="#ffffff" stroke="#000000" points="0,-33 0,-63 155,-63 155,-33 0,-33"/>
<text text-anchor="start" x="8" y="-51" font-family="Helvetica,sans-Serif" font-size="10.00" fill="#000000">gko::solver::ApplyWithInitial</text>
<text text-anchor="middle" x="77.5" y="-40" font-family="Helvetica,sans-Serif" font-size="10.00" fill="#000000">Guess</text>
</a>
</g>
</g>
<!-- Node2&#45;&gt;Node1 -->
<g id="edge1" class="edge">
<title>Node2&#45;&gt;Node1</title>
<path fill="none" stroke="#191970" d="M165.3079,-48C174.0699,-48 182.9763,-48 191.7627,-48"/>
<polygon fill="#191970" stroke="#191970" points="165.1043,-44.5001 155.1043,-48 165.1042,-51.5001 165.1043,-44.5001"/>
</g>
<!-- Node4 -->
<g id="node4" class="node">
<title>Node4</title>
<g id="a_node4"><a xlink:href="classgko_1_1solver_1_1Multigrid.html" target="_top" xlink:title="Multigrid methods have a hierarchy of many levels, whose corase level is a subset of the fine level,...">
<polygon fill="#ffffff" stroke="#000000" points="730,-66.5 730,-85.5 849,-85.5 849,-66.5 730,-66.5"/>
<text text-anchor="middle" x="789.5" y="-73.5" font-family="Helvetica,sans-Serif" font-size="10.00" fill="#000000">gko::solver::Multigrid</text>
</a>
</g>
</g>
<!-- Node3&#45;&gt;Node4 -->
<g id="edge3" class="edge">
<title>Node3&#45;&gt;Node4</title>
<path fill="none" stroke="#191970" d="M685.5453,-76C700.5427,-76 715.7356,-76 729.7043,-76"/>
<polygon fill="#191970" stroke="#191970" points="685.2112,-72.5001 675.2112,-76 685.2112,-79.5001 685.2112,-72.5001"/>
</g>
<!-- Node6 -->
<g id="node6" class="node">
<title>Node6</title>
<g id="a_node6"><a xlink:href="classgko_1_1solver_1_1Ir.html" target="_top" xlink:title="Iterative refinement (IR) is an iterative method that uses another coarse method to approximate the e...">
<polygon fill="#ffffff" stroke="#000000" points="712,-11.5 712,-30.5 867,-30.5 867,-11.5 712,-11.5"/>
<text text-anchor="middle" x="789.5" y="-18.5" font-family="Helvetica,sans-Serif" font-size="10.00" fill="#000000">gko::solver::Ir&lt; ValueType &gt;</text>
</a>
</g>
</g>
<!-- Node5&#45;&gt;Node6 -->
<g id="edge5" class="edge">
<title>Node5&#45;&gt;Node6</title>
<path fill="none" stroke="#191970" d="M672.809,-21C685.6176,-21 698.8775,-21 711.6627,-21"/>
<polygon fill="#191970" stroke="#191970" points="672.6511,-17.5001 662.6511,-21 672.6511,-24.5001 672.6511,-17.5001"/>
</g>
</g>
</svg>
