<?xml version="1.0" encoding="UTF-8" standalone="no"?>
<!DOCTYPE svg PUBLIC "-//W3C//DTD SVG 1.1//EN"
 "http://www.w3.org/Graphics/SVG/1.1/DTD/svg11.dtd">
<!-- Generated by graphviz version 2.40.1 (20161225.0304)
 -->
<!-- Title: gko::WritableToMatrixData&lt; ValueType, IndexType &gt; Pages: 1 -->
<!--zoomable 795 -->
<svg id="main" version="1.1" xmlns="http://www.w3.org/2000/svg" xmlns:xlink="http://www.w3.org/1999/xlink" xml:space="preserve" onload="init(evt)">
<style type="text/css"><![CDATA[
.edge:hover path { stroke: red; }
.edge:hover polygon { stroke: red; fill: red; }
]]></style>
<script type="text/javascript"><![CDATA[
var edges = document.getElementsByTagName('g');
if (edges && edges.length) {
  for (var i=0;i<edges.length;i++) {
    if (edges[i].id.substr(0,4)=='edge') {
      edges[i].setAttribute('class','edge');
    }
  }
}
]]></script>
        <defs>
                <circle id="rim" cx="0" cy="0" r="7"/>
                <circle id="rim2" cx="0" cy="0" r="3.5"/>
                <g id="zoomPlus">
                        <use xlink:href="#rim" fill="#404040">
                                <set attributeName="fill" to="#808080" begin="zoomplus.mouseover" end="zoomplus.mouseout"/>
                        </use>
                        <path d="M-4,0h8M0,-4v8" fill="none" stroke="white" stroke-width="1.5" pointer-events="none"/>
                </g>
                <g id="zoomMin">
                        <use xlink:href="#rim" fill="#404040">
                                <set attributeName="fill" to="#808080" begin="zoomminus.mouseover" end="zoomminus.mouseout"/>
                        </use>
                        <path d="M-4,0h8" fill="none" stroke="white" stroke-width="1.5" pointer-events="none"/>
                </g>
                <g id="dirArrow">
                        <path fill="none" stroke="white" stroke-width="1.5" d="M0,-3.0v7 M-2.5,-0.5L0,-3.0L2.5,-0.5"/>
                </g>
               <g id="resetDef">
                       <use xlink:href="#rim2" fill="#404040">
                               <set attributeName="fill" to="#808080" begin="reset.mouseover" end="reset.mouseout"/>
                       </use>
               </g>
        </defs>

<script type="text/javascript">
var viewWidth = 858;
var viewHeight = 795;
var sectionId = 'dynsection-0';
</script>
<script xlink:href="svgpan.js"/>
<svg id="graph" class="graph">
<g id="viewport">
<title>gko::WritableToMatrixData&lt; ValueType, IndexType &gt;</title>
<polygon fill="#ffffff" stroke="transparent" points="-4,4 -4,-790.5 854,-790.5 854,4 -4,4"/>
<!-- Node1 -->
<g id="node1" class="node">
<title>Node1</title>
<g id="a_node1"><a xlink:title="A LinOp implementing this interface can write its data to a matrix_data structure.">
<polygon fill="#bfbfbf" stroke="#000000" points="0,-447.5 0,-477.5 146,-477.5 146,-447.5 0,-447.5"/>
<text text-anchor="start" x="8" y="-465.5" font-family="Helvetica,sans-Serif" font-size="10.00" fill="#000000">gko::WritableToMatrixData</text>
<text text-anchor="middle" x="73" y="-454.5" font-family="Helvetica,sans-Serif" font-size="10.00" fill="#000000">&lt; ValueType, IndexType &gt;</text>
</a>
</g>
</g>
<!-- Node2 -->
<g id="node2" class="node">
<title>Node2</title>
<g id="a_node2"><a xlink:href="classgko_1_1matrix_1_1Dense.html" target="_top" xlink:title=" ">
<polygon fill="#ffffff" stroke="#000000" points="322.5,-767 322.5,-786 446.5,-786 446.5,-767 322.5,-767"/>
<text text-anchor="middle" x="384.5" y="-774" font-family="Helvetica,sans-Serif" font-size="10.00" fill="#000000">Dense&lt; value_type &gt;</text>
</a>
</g>
</g>
<!-- Node1&#45;&gt;Node2 -->
<g id="edge1" class="edge">
<title>Node1&#45;&gt;Node2</title>
<path fill="none" stroke="#191970" d="M78.5179,-487.7441C88.2679,-531.2775 112.5743,-620.3618 164,-676.5 215.8913,-733.1464 308.3562,-755.4801 355.3487,-766.9092"/>
<polygon fill="#191970" stroke="#191970" points="81.8814,-486.7387 76.3451,-477.7055 75.0399,-488.2196 81.8814,-486.7387"/>
</g>
<!-- Node1&#45;&gt;Node2 -->
<g id="edge2" class="edge">
<title>Node1&#45;&gt;Node2</title>
<path fill="none" stroke="#191970" d="M76.3827,-487.6586C84.4176,-534.2532 108.3033,-633.6995 164,-694.5 205.541,-739.8477 273.0842,-763.2056 322.4847,-773.0696"/>
<polygon fill="#191970" stroke="#191970" points="79.795,-486.8338 74.7477,-477.5185 72.8843,-487.9482 79.795,-486.8338"/>
</g>
<!-- Node3 -->
<g id="node3" class="node">
<title>Node3</title>
<g id="a_node3"><a xlink:href="classgko_1_1matrix_1_1Coo.html" target="_top" xlink:title="COO stores a matrix in the coordinate matrix format.">
<polygon fill="#ffffff" stroke="#000000" points="304,-717.5 304,-747.5 465,-747.5 465,-717.5 304,-717.5"/>
<text text-anchor="start" x="312" y="-735.5" font-family="Helvetica,sans-Serif" font-size="10.00" fill="#000000">gko::matrix::Coo&lt; ValueType,</text>
<text text-anchor="middle" x="384.5" y="-724.5" font-family="Helvetica,sans-Serif" font-size="10.00" fill="#000000"> IndexType &gt;</text>
</a>
</g>
</g>
<!-- Node1&#45;&gt;Node3 -->
<g id="edge3" class="edge">
<title>Node1&#45;&gt;Node3</title>
<path fill="none" stroke="#191970" d="M80.7436,-487.8385C93.0962,-524.6424 120.4107,-593.2087 164,-636.5 206.3626,-678.5731 270.2002,-703.5972 318.3029,-717.4914"/>
<polygon fill="#191970" stroke="#191970" points="83.9407,-486.3518 77.5217,-477.9229 77.2834,-488.515 83.9407,-486.3518"/>
</g>
<!-- Node4 -->
<g id="node4" class="node">
<title>Node4</title>
<g id="a_node4"><a xlink:href="classgko_1_1matrix_1_1Csr.html" target="_top" xlink:title="CSR is a matrix format which stores only the nonzero coefficients by compressing each row of the matr...">
<polygon fill="#ffffff" stroke="#000000" points="305.5,-668.5 305.5,-698.5 463.5,-698.5 463.5,-668.5 305.5,-668.5"/>
<text text-anchor="start" x="313.5" y="-686.5" font-family="Helvetica,sans-Serif" font-size="10.00" fill="#000000">gko::matrix::Csr&lt; ValueType,</text>
<text text-anchor="middle" x="384.5" y="-675.5" font-family="Helvetica,sans-Serif" font-size="10.00" fill="#000000"> IndexType &gt;</text>
</a>
</g>
</g>
<!-- Node1&#45;&gt;Node4 -->
<g id="edge4" class="edge">
<title>Node1&#45;&gt;Node4</title>
<path fill="none" stroke="#191970" d="M85.4557,-486.8636C100.774,-514.8651 129.0877,-560.7735 164,-590.5 210.0265,-629.6898 274.9625,-654.3739 322.4451,-668.3815"/>
<polygon fill="#191970" stroke="#191970" points="88.3911,-484.9306 80.5898,-477.7618 82.2178,-488.2308 88.3911,-484.9306"/>
</g>
<!-- Node5 -->
<g id="node5" class="node">
<title>Node5</title>
<g id="a_node5"><a xlink:href="classgko_1_1matrix_1_1Ell.html" target="_top" xlink:title="ELL is a matrix format where stride with explicit zeros is used such that all rows have the same numb...">
<polygon fill="#ffffff" stroke="#000000" points="307,-619.5 307,-649.5 462,-649.5 462,-619.5 307,-619.5"/>
<text text-anchor="start" x="315" y="-637.5" font-family="Helvetica,sans-Serif" font-size="10.00" fill="#000000">gko::matrix::Ell&lt; ValueType,</text>
<text text-anchor="middle" x="384.5" y="-626.5" font-family="Helvetica,sans-Serif" font-size="10.00" fill="#000000"> IndexType &gt;</text>
</a>
</g>
</g>
<!-- Node1&#45;&gt;Node5 -->
<g id="edge5" class="edge">
<title>Node1&#45;&gt;Node5</title>
<path fill="none" stroke="#191970" d="M92.7486,-485.0465C110.0988,-503.8419 136.7619,-530.3796 164,-548.5 214.6323,-582.1836 280.4184,-605.6642 326.914,-619.481"/>
<polygon fill="#191970" stroke="#191970" points="95.2217,-482.5636 85.9084,-477.5125 90.039,-487.2689 95.2217,-482.5636"/>
</g>
<!-- Node6 -->
<g id="node6" class="node">
<title>Node6</title>
<g id="a_node6"><a xlink:href="classgko_1_1matrix_1_1Fbcsr.html" target="_top" xlink:title="Fixed&#45;block compressed sparse row storage matrix format.">
<polygon fill="#ffffff" stroke="#000000" points="312.5,-570.5 312.5,-600.5 456.5,-600.5 456.5,-570.5 312.5,-570.5"/>
<text text-anchor="start" x="320.5" y="-588.5" font-family="Helvetica,sans-Serif" font-size="10.00" fill="#000000">gko::matrix::Fbcsr</text>
<text text-anchor="middle" x="384.5" y="-577.5" font-family="Helvetica,sans-Serif" font-size="10.00" fill="#000000">&lt; ValueType, IndexType &gt;</text>
</a>
</g>
</g>
<!-- Node1&#45;&gt;Node6 -->
<g id="edge6" class="edge">
<title>Node1&#45;&gt;Node6</title>
<path fill="none" stroke="#191970" d="M104.3572,-482.9635C121.5113,-493.5877 143.4094,-506.2449 164,-515.5 223.7377,-542.3512 241.5005,-541.9197 304,-561.5 313.4633,-564.4647 323.579,-567.5478 333.3329,-570.4772"/>
<polygon fill="#191970" stroke="#191970" points="106.1812,-479.9761 95.8512,-477.6218 102.4584,-485.9041 106.1812,-479.9761"/>
</g>
<!-- Node7 -->
<g id="node7" class="node">
<title>Node7</title>
<g id="a_node7"><a xlink:href="classgko_1_1matrix_1_1Hybrid.html" target="_top" xlink:title="HYBRID is a matrix format which splits the matrix into ELLPACK and COO format.">
<polygon fill="#ffffff" stroke="#000000" points="312.5,-521.5 312.5,-551.5 456.5,-551.5 456.5,-521.5 312.5,-521.5"/>
<text text-anchor="start" x="320.5" y="-539.5" font-family="Helvetica,sans-Serif" font-size="10.00" fill="#000000">gko::matrix::Hybrid</text>
<text text-anchor="middle" x="384.5" y="-528.5" font-family="Helvetica,sans-Serif" font-size="10.00" fill="#000000">&lt; ValueType, IndexType &gt;</text>
</a>
</g>
</g>
<!-- Node1&#45;&gt;Node7 -->
<g id="edge7" class="edge">
<title>Node1&#45;&gt;Node7</title>
<path fill="none" stroke="#191970" d="M133.1112,-480.2612C143.3862,-483.1288 153.9772,-485.98 164,-488.5 213.2988,-500.8951 269.2674,-513.056 312.4809,-522.036"/>
<polygon fill="#191970" stroke="#191970" points="133.9602,-476.8642 123.3855,-477.5172 132.0594,-483.6012 133.9602,-476.8642"/>
</g>
<!-- Node8 -->
<g id="node8" class="node">
<title>Node8</title>
<g id="a_node8"><a xlink:href="classgko_1_1matrix_1_1Sellp.html" target="_top" xlink:title="SELL&#45;P is a matrix format similar to ELL format.">
<polygon fill="#ffffff" stroke="#000000" points="312.5,-472.5 312.5,-502.5 456.5,-502.5 456.5,-472.5 312.5,-472.5"/>
<text text-anchor="start" x="320.5" y="-490.5" font-family="Helvetica,sans-Serif" font-size="10.00" fill="#000000">gko::matrix::Sellp</text>
<text text-anchor="middle" x="384.5" y="-479.5" font-family="Helvetica,sans-Serif" font-size="10.00" fill="#000000">&lt; ValueType, IndexType &gt;</text>
</a>
</g>
</g>
<!-- Node1&#45;&gt;Node8 -->
<g id="edge8" class="edge">
<title>Node1&#45;&gt;Node8</title>
<path fill="none" stroke="#191970" d="M156.2318,-469.1799C204.9376,-473.0889 265.8241,-477.9754 312.4624,-481.7185"/>
<polygon fill="#191970" stroke="#191970" points="156.2809,-465.6727 146.0329,-468.3614 155.7208,-472.6503 156.2809,-465.6727"/>
</g>
<!-- Node9 -->
<g id="node9" class="node">
<title>Node9</title>
<g id="a_node9"><a xlink:href="classgko_1_1matrix_1_1SparsityCsr.html" target="_top" xlink:title="SparsityCsr is a matrix format which stores only the sparsity pattern of a sparse matrix by compressi...">
<polygon fill="#ffffff" stroke="#000000" points="312.5,-423.5 312.5,-453.5 456.5,-453.5 456.5,-423.5 312.5,-423.5"/>
<text text-anchor="start" x="320.5" y="-441.5" font-family="Helvetica,sans-Serif" font-size="10.00" fill="#000000">gko::matrix::SparsityCsr</text>
<text text-anchor="middle" x="384.5" y="-430.5" font-family="Helvetica,sans-Serif" font-size="10.00" fill="#000000">&lt; ValueType, IndexType &gt;</text>
</a>
</g>
</g>
<!-- Node1&#45;&gt;Node9 -->
<g id="edge9" class="edge">
<title>Node1&#45;&gt;Node9</title>
<path fill="none" stroke="#191970" d="M156.2318,-456.0873C204.9376,-452.3347 265.8241,-447.6436 312.4624,-444.0502"/>
<polygon fill="#191970" stroke="#191970" points="155.7345,-452.6151 146.0329,-456.8731 156.2723,-459.5944 155.7345,-452.6151"/>
</g>
<!-- Node10 -->
<g id="node10" class="node">
<title>Node10</title>
<g id="a_node10"><a xlink:href="classgko_1_1preconditioner_1_1Jacobi.html" target="_top" xlink:title="A block&#45;Jacobi preconditioner is a block&#45;diagonal linear operator, obtained by inverting the diagonal...">
<polygon fill="#ffffff" stroke="#000000" points="326.5,-363 326.5,-404 442.5,-404 442.5,-363 326.5,-363"/>
<text text-anchor="start" x="334.5" y="-392" font-family="Helvetica,sans-Serif" font-size="10.00" fill="#000000">gko::preconditioner</text>
<text text-anchor="start" x="334.5" y="-381" font-family="Helvetica,sans-Serif" font-size="10.00" fill="#000000">::Jacobi&lt; ValueType,</text>
<text text-anchor="middle" x="384.5" y="-370" font-family="Helvetica,sans-Serif" font-size="10.00" fill="#000000"> IndexType &gt;</text>
</a>
</g>
</g>
<!-- Node1&#45;&gt;Node10 -->
<g id="edge10" class="edge">
<title>Node1&#45;&gt;Node10</title>
<path fill="none" stroke="#191970" d="M142.0542,-444.9871C197.4168,-430.9465 274.2258,-411.4668 326.4514,-398.2218"/>
<polygon fill="#191970" stroke="#191970" points="141.1567,-441.6038 132.324,-447.4548 142.8775,-448.389 141.1567,-441.6038"/>
</g>
<!-- Node11 -->
<g id="node11" class="node">
<title>Node11</title>
<g id="a_node11"><a xlink:title=" ">
<polygon fill="#ffffff" stroke="#bfbfbf" points="311.5,-303 311.5,-344 457.5,-344 457.5,-303 311.5,-303"/>
<text text-anchor="start" x="319.5" y="-332" font-family="Helvetica,sans-Serif" font-size="10.00" fill="#000000">gko::WritableToMatrixData</text>
<text text-anchor="start" x="319.5" y="-321" font-family="Helvetica,sans-Serif" font-size="10.00" fill="#000000">&lt; std::complex&lt; double</text>
<text text-anchor="middle" x="384.5" y="-310" font-family="Helvetica,sans-Serif" font-size="10.00" fill="#000000"> &gt;, int64 &gt;</text>
</a>
</g>
</g>
<!-- Node1&#45;&gt;Node11 -->
<g id="edge11" class="edge">
<title>Node1&#45;&gt;Node11</title>
<path fill="none" stroke="#ffa500" stroke-dasharray="5,2" d="M93.4675,-439.4296C110.6281,-421.4402 136.6569,-397.1303 164,-382.5 209.947,-357.9154 266.8715,-343.02 311.3723,-334.3465"/>
<polygon fill="#ffa500" stroke="#ffa500" points="90.4904,-437.4905 86.2341,-447.1928 95.6118,-442.2625 90.4904,-437.4905"/>
<text text-anchor="start" x="164" y="-396.5" font-family="Helvetica,sans-Serif" font-size="10.00" fill="#000000"> &lt; std::complex&lt; double</text>
<text text-anchor="middle" x="225" y="-385.5" font-family="Helvetica,sans-Serif" font-size="10.00" fill="#000000"> &gt;, int64 &gt;</text>
</g>
<!-- Node15 -->
<g id="node15" class="node">
<title>Node15</title>
<g id="a_node15"><a xlink:href="classgko_1_1WritableToMatrixData.html" target="_top" xlink:title=" ">
<polygon fill="#ffffff" stroke="#000000" points="311.5,-18.5 311.5,-48.5 457.5,-48.5 457.5,-18.5 311.5,-18.5"/>
<text text-anchor="start" x="319.5" y="-36.5" font-family="Helvetica,sans-Serif" font-size="10.00" fill="#000000">gko::WritableToMatrixData</text>
<text text-anchor="middle" x="384.5" y="-25.5" font-family="Helvetica,sans-Serif" font-size="10.00" fill="#000000">&lt; ValueType, int64 &gt;</text>
</a>
</g>
</g>
<!-- Node1&#45;&gt;Node15 -->
<g id="edge15" class="edge">
<title>Node1&#45;&gt;Node15</title>
<path fill="none" stroke="#ffa500" stroke-dasharray="5,2" d="M75.1748,-437.0352C82.4849,-357.7445 108.8682,-117.5258 164,-66.5 202.9897,-30.4141 263.5523,-23.5364 311.3487,-24.9204"/>
<polygon fill="#ffa500" stroke="#ffa500" points="71.6778,-436.8459 74.2689,-447.119 78.6497,-437.4723 71.6778,-436.8459"/>
<text text-anchor="middle" x="225" y="-69.5" font-family="Helvetica,sans-Serif" font-size="10.00" fill="#000000"> &lt; ValueType, int64 &gt;</text>
</g>
<!-- Node19 -->
<g id="node19" class="node">
<title>Node19</title>
<g id="a_node19"><a xlink:title=" ">
<polygon fill="#ffffff" stroke="#bfbfbf" points="311.5,-243 311.5,-284 457.5,-284 457.5,-243 311.5,-243"/>
<text text-anchor="start" x="319.5" y="-272" font-family="Helvetica,sans-Serif" font-size="10.00" fill="#000000">gko::WritableToMatrixData</text>
<text text-anchor="start" x="319.5" y="-261" font-family="Helvetica,sans-Serif" font-size="10.00" fill="#000000">&lt; std::complex&lt; float &gt;</text>
<text text-anchor="middle" x="384.5" y="-250" font-family="Helvetica,sans-Serif" font-size="10.00" fill="#000000">, int64 &gt;</text>
</a>
</g>
</g>
<!-- Node1&#45;&gt;Node19 -->
<g id="edge19" class="edge">
<title>Node1&#45;&gt;Node19</title>
<path fill="none" stroke="#ffa500" stroke-dasharray="5,2" d="M81.0684,-437.9845C93.4126,-404.4606 120.2672,-344.9033 164,-313.5 187.435,-296.672 256.6612,-282.6835 311.3631,-273.8222"/>
<polygon fill="#ffa500" stroke="#ffa500" points="77.7403,-436.8979 77.7007,-447.4926 84.3386,-439.235 77.7403,-436.8979"/>
<text text-anchor="start" x="169.5" y="-327.5" font-family="Helvetica,sans-Serif" font-size="10.00" fill="#000000"> &lt; std::complex&lt; float</text>
<text text-anchor="middle" x="225" y="-316.5" font-family="Helvetica,sans-Serif" font-size="10.00" fill="#000000"> &gt;, int64 &gt;</text>
</g>
<!-- Node20 -->
<g id="node20" class="node">
<title>Node20</title>
<g id="a_node20"><a xlink:title=" ">
<polygon fill="#ffffff" stroke="#bfbfbf" points="311.5,-183 311.5,-224 457.5,-224 457.5,-183 311.5,-183"/>
<text text-anchor="start" x="319.5" y="-212" font-family="Helvetica,sans-Serif" font-size="10.00" fill="#000000">gko::WritableToMatrixData</text>
<text text-anchor="start" x="319.5" y="-201" font-family="Helvetica,sans-Serif" font-size="10.00" fill="#000000">&lt; std::complex&lt; double</text>
<text text-anchor="middle" x="384.5" y="-190" font-family="Helvetica,sans-Serif" font-size="10.00" fill="#000000"> &gt;, int32 &gt;</text>
</a>
</g>
</g>
<!-- Node1&#45;&gt;Node20 -->
<g id="edge23" class="edge">
<title>Node1&#45;&gt;Node20</title>
<path fill="none" stroke="#ffa500" stroke-dasharray="5,2" d="M76.4373,-437.3006C83.8933,-392.8147 105.8352,-300.5328 164,-252.5 186.3002,-234.0844 256.1031,-220.6232 311.2663,-212.5207"/>
<polygon fill="#ffa500" stroke="#ffa500" points="72.9642,-436.8573 74.8763,-447.2782 79.88,-437.9394 72.9642,-436.8573"/>
<text text-anchor="start" x="164" y="-266.5" font-family="Helvetica,sans-Serif" font-size="10.00" fill="#000000"> &lt; std::complex&lt; double</text>
<text text-anchor="middle" x="225" y="-255.5" font-family="Helvetica,sans-Serif" font-size="10.00" fill="#000000"> &gt;, int32 &gt;</text>
</g>
<!-- Node21 -->
<g id="node21" class="node">
<title>Node21</title>
<g id="a_node21"><a xlink:title=" ">
<polygon fill="#ffffff" stroke="#bfbfbf" points="311.5,-123 311.5,-164 457.5,-164 457.5,-123 311.5,-123"/>
<text text-anchor="start" x="319.5" y="-152" font-family="Helvetica,sans-Serif" font-size="10.00" fill="#000000">gko::WritableToMatrixData</text>
<text text-anchor="start" x="319.5" y="-141" font-family="Helvetica,sans-Serif" font-size="10.00" fill="#000000">&lt; std::complex&lt; float &gt;</text>
<text text-anchor="middle" x="384.5" y="-130" font-family="Helvetica,sans-Serif" font-size="10.00" fill="#000000">, int32 &gt;</text>
</a>
</g>
</g>
<!-- Node1&#45;&gt;Node21 -->
<g id="edge27" class="edge">
<title>Node1&#45;&gt;Node21</title>
<path fill="none" stroke="#ffa500" stroke-dasharray="5,2" d="M78.0936,-437.3697C90.9054,-376.6164 126.1608,-224.2932 164,-190.5 203.8495,-154.9114 263.8926,-143.9124 311.2653,-141.3984"/>
<polygon fill="#ffa500" stroke="#ffa500" points="74.6427,-436.7738 76.0329,-447.277 81.4961,-438.1993 74.6427,-436.7738"/>
<text text-anchor="start" x="169.5" y="-204.5" font-family="Helvetica,sans-Serif" font-size="10.00" fill="#000000"> &lt; std::complex&lt; float</text>
<text text-anchor="middle" x="225" y="-193.5" font-family="Helvetica,sans-Serif" font-size="10.00" fill="#000000"> &gt;, int32 &gt;</text>
</g>
<!-- Node22 -->
<g id="node22" class="node">
<title>Node22</title>
<g id="a_node22"><a xlink:href="classgko_1_1WritableToMatrixData.html" target="_top" xlink:title=" ">
<polygon fill="#ffffff" stroke="#000000" points="311.5,-68.5 311.5,-98.5 457.5,-98.5 457.5,-68.5 311.5,-68.5"/>
<text text-anchor="start" x="319.5" y="-86.5" font-family="Helvetica,sans-Serif" font-size="10.00" fill="#000000">gko::WritableToMatrixData</text>
<text text-anchor="middle" x="384.5" y="-75.5" font-family="Helvetica,sans-Serif" font-size="10.00" fill="#000000">&lt; ValueType, int32 &gt;</text>
</a>
</g>
</g>
<!-- Node1&#45;&gt;Node22 -->
<g id="edge31" class="edge">
<title>Node1&#45;&gt;Node22</title>
<path fill="none" stroke="#ffa500" stroke-dasharray="5,2" d="M76.467,-437.0291C86.5735,-366.5668 118.2156,-171.4148 164,-128.5 203.1241,-91.828 263.677,-81.5434 311.4355,-79.8928"/>
<polygon fill="#ffa500" stroke="#ffa500" points="72.96,-436.8345 75.031,-447.2249 79.8916,-437.8108 72.96,-436.8345"/>
<text text-anchor="middle" x="225" y="-131.5" font-family="Helvetica,sans-Serif" font-size="10.00" fill="#000000"> &lt; ValueType, int32 &gt;</text>
</g>
<!-- Node12 -->
<g id="node12" class="node">
<title>Node12</title>
<g id="a_node12"><a xlink:href="classgko_1_1matrix_1_1Fft.html" target="_top" xlink:title="This LinOp implements a 1D Fourier matrix using the FFT algorithm.">
<polygon fill="#ffffff" stroke="#000000" points="517,-136 517,-155 609,-155 609,-136 517,-136"/>
<text text-anchor="middle" x="563" y="-143" font-family="Helvetica,sans-Serif" font-size="10.00" fill="#000000">gko::matrix::Fft</text>
</a>
</g>
</g>
<!-- Node11&#45;&gt;Node12 -->
<g id="edge12" class="edge">
<title>Node11&#45;&gt;Node12</title>
<path fill="none" stroke="#191970" d="M461.1012,-297.0063C462.4496,-295.8848 463.7517,-294.7167 465,-293.5 496.5606,-262.7388 476.9248,-237.743 502,-201.5 515.0872,-182.584 535.6436,-165.438 549.2204,-155.2386"/>
<polygon fill="#191970" stroke="#191970" points="458.9679,-294.2298 452.9247,-302.9321 463.0757,-299.8978 458.9679,-294.2298"/>
</g>
<!-- Node13 -->
<g id="node13" class="node">
<title>Node13</title>
<g id="a_node13"><a xlink:href="classgko_1_1matrix_1_1Fft2.html" target="_top" xlink:title="This LinOp implements a 2D Fourier matrix using the FFT algorithm.">
<polygon fill="#ffffff" stroke="#000000" points="514,-311 514,-330 612,-330 612,-311 514,-311"/>
<text text-anchor="middle" x="563" y="-318" font-family="Helvetica,sans-Serif" font-size="10.00" fill="#000000">gko::matrix::Fft2</text>
</a>
</g>
</g>
<!-- Node11&#45;&gt;Node13 -->
<g id="edge13" class="edge">
<title>Node11&#45;&gt;Node13</title>
<path fill="none" stroke="#191970" d="M456.2716,-348.633C459.2657,-350.1857 462.1885,-351.8083 465,-353.5 474.4593,-359.1919 473.3828,-372.5253 484,-369.5 510.8521,-361.8486 537.4897,-342.1612 551.9398,-330.1995"/>
<polygon fill="#191970" stroke="#191970" points="457.639,-345.4062 447.1147,-344.1849 454.5803,-351.7026 457.639,-345.4062"/>
</g>
<!-- Node14 -->
<g id="node14" class="node">
<title>Node14</title>
<g id="a_node14"><a xlink:href="classgko_1_1matrix_1_1Fft3.html" target="_top" xlink:title="This LinOp implements a 3D Fourier matrix using the FFT algorithm.">
<polygon fill="#ffffff" stroke="#000000" points="514,-211 514,-230 612,-230 612,-211 514,-211"/>
<text text-anchor="middle" x="563" y="-218" font-family="Helvetica,sans-Serif" font-size="10.00" fill="#000000">gko::matrix::Fft3</text>
</a>
</g>
</g>
<!-- Node11&#45;&gt;Node14 -->
<g id="edge14" class="edge">
<title>Node11&#45;&gt;Node14</title>
<path fill="none" stroke="#191970" d="M454.8603,-298.6506C458.3306,-296.9989 461.7292,-295.2804 465,-293.5 499.286,-274.8372 534.9129,-245.2902 552.2409,-230.1464"/>
<polygon fill="#191970" stroke="#191970" points="453.2143,-295.5536 445.5452,-302.8635 456.0989,-301.9317 453.2143,-295.5536"/>
</g>
<!-- Node16 -->
<g id="node16" class="node">
<title>Node16</title>
<g id="a_node16"><a xlink:href="classgko_1_1matrix_1_1Dense.html" target="_top" xlink:title="Dense is a matrix format which explicitly stores all values of the matrix.">
<polygon fill="#ffffff" stroke="#000000" points="508,-.5 508,-30.5 618,-30.5 618,-.5 508,-.5"/>
<text text-anchor="start" x="516" y="-18.5" font-family="Helvetica,sans-Serif" font-size="10.00" fill="#000000">gko::matrix::Dense</text>
<text text-anchor="middle" x="563" y="-7.5" font-family="Helvetica,sans-Serif" font-size="10.00" fill="#000000">&lt; ValueType &gt;</text>
</a>
</g>
</g>
<!-- Node15&#45;&gt;Node16 -->
<g id="edge16" class="edge">
<title>Node15&#45;&gt;Node16</title>
<path fill="none" stroke="#191970" d="M467.6486,-24.0717C472.842,-23.527 477.9917,-22.9987 483,-22.5 491.0465,-21.6988 499.5534,-20.9013 507.8991,-20.147"/>
<polygon fill="#191970" stroke="#191970" points="467.2072,-20.5988 457.633,-25.1359 467.9469,-27.5596 467.2072,-20.5988"/>
</g>
<!-- Node18 -->
<g id="node18" class="node">
<title>Node18</title>
<g id="a_node18"><a xlink:href="classgko_1_1matrix_1_1Diagonal.html" target="_top" xlink:title="This class is a utility which efficiently implements the diagonal matrix (a linear operator which sca...">
<polygon fill="#ffffff" stroke="#000000" points="502,-62.5 502,-92.5 624,-92.5 624,-62.5 502,-62.5"/>
<text text-anchor="start" x="510" y="-80.5" font-family="Helvetica,sans-Serif" font-size="10.00" fill="#000000">gko::matrix::Diagonal</text>
<text text-anchor="middle" x="563" y="-69.5" font-family="Helvetica,sans-Serif" font-size="10.00" fill="#000000">&lt; ValueType &gt;</text>
</a>
</g>
</g>
<!-- Node15&#45;&gt;Node18 -->
<g id="edge18" class="edge">
<title>Node15&#45;&gt;Node18</title>
<path fill="none" stroke="#191970" d="M455.4353,-50.9855C470.8586,-54.7873 487.0444,-58.777 502.0414,-62.4738"/>
<polygon fill="#191970" stroke="#191970" points="455.9774,-47.5144 445.4303,-48.5192 454.302,-54.3109 455.9774,-47.5144"/>
</g>
<!-- Node17 -->
<g id="node17" class="node">
<title>Node17</title>
<g id="a_node17"><a xlink:href="classgko_1_1matrix_1_1Dense.html" target="_top" xlink:title=" ">
<polygon fill="#ffffff" stroke="#000000" points="740,-.5 740,-30.5 850,-30.5 850,-.5 740,-.5"/>
<text text-anchor="start" x="748" y="-18.5" font-family="Helvetica,sans-Serif" font-size="10.00" fill="#000000">gko::matrix::Dense</text>
<text text-anchor="middle" x="795" y="-7.5" font-family="Helvetica,sans-Serif" font-size="10.00" fill="#000000">&lt; value_type &gt;</text>
</a>
</g>
</g>
<!-- Node16&#45;&gt;Node17 -->
<g id="edge17" class="edge">
<title>Node16&#45;&gt;Node17</title>
<path fill="none" stroke="#ffa500" stroke-dasharray="5,2" d="M628.4304,-15.5C663.5371,-15.5 706.3274,-15.5 739.7468,-15.5"/>
<polygon fill="#ffa500" stroke="#ffa500" points="628.2751,-12.0001 618.275,-15.5 628.275,-19.0001 628.2751,-12.0001"/>
<text text-anchor="middle" x="682" y="-18.5" font-family="Helvetica,sans-Serif" font-size="10.00" fill="#000000"> &lt; value_type &gt;</text>
</g>
<!-- Node19&#45;&gt;Node12 -->
<g id="edge20" class="edge">
<title>Node19&#45;&gt;Node12</title>
<path fill="none" stroke="#191970" d="M456.2823,-238.3847C459.2736,-236.8272 462.1928,-235.1988 465,-233.5 469.9397,-230.5107 528.1007,-177.4483 552.4175,-155.1957"/>
<polygon fill="#191970" stroke="#191970" points="454.5881,-235.3168 447.1323,-242.8443 457.655,-241.6092 454.5881,-235.3168"/>
</g>
<!-- Node19&#45;&gt;Node13 -->
<g id="edge21" class="edge">
<title>Node19&#45;&gt;Node13</title>
<path fill="none" stroke="#191970" d="M459.3423,-289.4415C461.2914,-290.7344 463.1825,-292.0865 465,-293.5 476.0945,-302.1281 470.5918,-312.8995 483,-319.5 492.3198,-324.4576 503.1568,-326.5598 513.7887,-327.065"/>
<polygon fill="#191970" stroke="#191970" points="460.8526,-286.2668 450.4726,-284.1441 457.2633,-292.2765 460.8526,-286.2668"/>
</g>
<!-- Node19&#45;&gt;Node14 -->
<g id="edge22" class="edge">
<title>Node19&#45;&gt;Node14</title>
<path fill="none" stroke="#191970" d="M467.4572,-243.5159C486.974,-238.8144 506.8941,-234.0157 523.4595,-230.0252"/>
<polygon fill="#191970" stroke="#191970" points="466.52,-240.1415 457.6178,-245.8862 468.1594,-246.9468 466.52,-240.1415"/>
</g>
<!-- Node20&#45;&gt;Node12 -->
<g id="edge24" class="edge">
<title>Node20&#45;&gt;Node12</title>
<path fill="none" stroke="#191970" d="M459.3423,-177.5585C461.2914,-176.2656 463.1825,-174.9135 465,-173.5 476.0945,-164.8719 470.6332,-154.1779 483,-147.5 493.1466,-142.021 505.1232,-139.8845 516.6765,-139.4991"/>
<polygon fill="#191970" stroke="#191970" points="457.2633,-174.7235 450.4726,-182.8559 460.8526,-180.7332 457.2633,-174.7235"/>
</g>
<!-- Node20&#45;&gt;Node13 -->
<g id="edge25" class="edge">
<title>Node20&#45;&gt;Node13</title>
<path fill="none" stroke="#191970" d="M462.1518,-230.6497C463.1339,-231.5686 464.0845,-232.5183 465,-233.5 484.2782,-254.1728 463.287,-274.2415 483,-294.5 491.3515,-303.0826 502.5608,-308.8345 513.9403,-312.6887"/>
<polygon fill="#191970" stroke="#191970" points="464.0635,-227.6973 454.0647,-224.1937 459.6962,-233.1679 464.0635,-227.6973"/>
</g>
<!-- Node20&#45;&gt;Node14 -->
<g id="edge26" class="edge">
<title>Node20&#45;&gt;Node14</title>
<path fill="none" stroke="#191970" d="M467.9189,-211.4447C483.6794,-212.9457 499.6834,-214.4698 513.9538,-215.8289"/>
<polygon fill="#191970" stroke="#191970" points="467.9046,-207.9275 457.6178,-210.4636 467.2409,-214.896 467.9046,-207.9275"/>
</g>
<!-- Node21&#45;&gt;Node12 -->
<g id="edge28" class="edge">
<title>Node21&#45;&gt;Node12</title>
<path fill="none" stroke="#191970" d="M460.4002,-121.8893C468.3434,-121.3042 476.3192,-121.4047 484,-122.5 502.1013,-125.0814 521.8513,-130.8314 537.076,-135.9361"/>
<polygon fill="#191970" stroke="#191970" points="459.9461,-118.4179 450.3808,-122.9738 460.6995,-125.3773 459.9461,-118.4179"/>
</g>
<!-- Node21&#45;&gt;Node13 -->
<g id="edge29" class="edge">
<title>Node21&#45;&gt;Node13</title>
<path fill="none" stroke="#191970" d="M460.2355,-169.7325C461.879,-170.935 463.4708,-172.1902 465,-173.5 490.54,-195.3764 483.6212,-211.3382 502,-239.5 519.5105,-266.3313 542.9546,-295.9519 555.0451,-310.8343"/>
<polygon fill="#191970" stroke="#191970" points="461.9301,-166.6597 451.6372,-164.1483 458.1174,-172.5303 461.9301,-166.6597"/>
</g>
<!-- Node21&#45;&gt;Node14 -->
<g id="edge30" class="edge">
<title>Node21&#45;&gt;Node14</title>
<path fill="none" stroke="#191970" d="M450.7981,-167.6608C455.6241,-169.5866 460.3997,-171.5444 465,-173.5 493.132,-185.459 524.9037,-201.1036 544.4431,-210.9802"/>
<polygon fill="#191970" stroke="#191970" points="452.0752,-164.4022 441.4878,-164.0057 449.5171,-170.918 452.0752,-164.4022"/>
</g>
<!-- Node22&#45;&gt;Node16 -->
<g id="edge32" class="edge">
<title>Node22&#45;&gt;Node16</title>
<path fill="none" stroke="#191970" d="M443.5485,-65.1227C450.8086,-62.6593 458.0982,-60.0872 465,-57.5 486.8393,-49.3133 510.9209,-39.011 529.747,-30.6588"/>
<polygon fill="#191970" stroke="#191970" points="442.0846,-61.9214 433.7059,-68.4058 444.2996,-68.5617 442.0846,-61.9214"/>
</g>
<!-- Node22&#45;&gt;Node18 -->
<g id="edge33" class="edge">
<title>Node22&#45;&gt;Node18</title>
<path fill="none" stroke="#191970" d="M467.704,-80.7032C479.2433,-80.3154 490.918,-79.9229 501.9518,-79.552"/>
<polygon fill="#191970" stroke="#191970" points="467.4946,-77.2082 457.6178,-81.0423 467.7298,-84.2042 467.4946,-77.2082"/>
</g>
</g>
</svg>
        <g id="navigator" transform="translate(0 0)" fill="#404254">
                <rect fill="#f2f5e9" fill-opacity="0.5" stroke="#606060" stroke-width=".5" x="0" y="0" width="60" height="60"/>
                <use id="zoomplus" xlink:href="#zoomPlus" x="17" y="9" onmousedown="handleZoom(evt,'in')"/>
                <use id="zoomminus" xlink:href="#zoomMin" x="42" y="9" onmousedown="handleZoom(evt,'out')"/>
                <use id="reset" xlink:href="#resetDef" x="30" y="36" onmousedown="handleReset()"/>
                <g id="arrowUp" xlink:href="#dirArrow" transform="translate(30 24)" onmousedown="handlePan(0,-1)">
                  <use xlink:href="#rim" fill="#404040">
                        <set attributeName="fill" to="#808080" begin="arrowUp.mouseover" end="arrowUp.mouseout"/>
                  </use>
                  <path fill="none" stroke="white" stroke-width="1.5" d="M0,-3.0v7 M-2.5,-0.5L0,-3.0L2.5,-0.5"/>
                </g>
                <g id="arrowRight" xlink:href="#dirArrow" transform="rotate(90) translate(36 -43)" onmousedown="handlePan(1,0)">
                  <use xlink:href="#rim" fill="#404040">
                        <set attributeName="fill" to="#808080" begin="arrowRight.mouseover" end="arrowRight.mouseout"/>
                  </use>
                  <path fill="none" stroke="white" stroke-width="1.5" d="M0,-3.0v7 M-2.5,-0.5L0,-3.0L2.5,-0.5"/>
                </g>
                <g id="arrowDown" xlink:href="#dirArrow" transform="rotate(180) translate(-30 -48)" onmousedown="handlePan(0,1)">
                  <use xlink:href="#rim" fill="#404040">
                        <set attributeName="fill" to="#808080" begin="arrowDown.mouseover" end="arrowDown.mouseout"/>
                  </use>
                  <path fill="none" stroke="white" stroke-width="1.5" d="M0,-3.0v7 M-2.5,-0.5L0,-3.0L2.5,-0.5"/>
                </g>
                <g id="arrowLeft" xlink:href="#dirArrow" transform="rotate(270) translate(-36 17)" onmousedown="handlePan(-1,0)">
                  <use xlink:href="#rim" fill="#404040">
                        <set attributeName="fill" to="#808080" begin="arrowLeft.mouseover" end="arrowLeft.mouseout"/>
                  </use>
                  <path fill="none" stroke="white" stroke-width="1.5" d="M0,-3.0v7 M-2.5,-0.5L0,-3.0L2.5,-0.5"/>
                </g>
        </g>
        <svg viewBox="0 0 15 15" width="100%" height="30px" preserveAspectRatio="xMaxYMin meet">
         <g id="arrow_out" transform="scale(0.3 0.3)">
          <a xlink:href="classgko_1_1WritableToMatrixData__inherit__graph_org.svg" target="_base">
           <rect id="button" ry="5" rx="5" y="6" x="6" height="38" width="38"
                fill="#f2f5e9" fill-opacity="0.5" stroke="#606060" stroke-width="1.0"/>
           <path id="arrow"
             d="M 11.500037,31.436501 C 11.940474,20.09759 22.043105,11.32322 32.158766,21.979434 L 37.068811,17.246167 C 37.068811,17.246167 37.088388,32 37.088388,32 L 22.160133,31.978069 C 22.160133,31.978069 26.997745,27.140456 26.997745,27.140456 C 18.528582,18.264221 13.291696,25.230495 11.500037,31.436501 z"
             style="fill:#404040;"/>
          </a>
         </g>
        </svg>
</svg>
