<?xml version="1.0" encoding="UTF-8" standalone="no"?>
<!DOCTYPE svg PUBLIC "-//W3C//DTD SVG 1.1//EN"
 "http://www.w3.org/Graphics/SVG/1.1/DTD/svg11.dtd">
<!-- Generated by graphviz version 2.40.1 (20161225.0304)
 -->
<!-- Title: gko::solver::LowerTrs&lt; ValueType, IndexType &gt; Pages: 1 -->
<svg width="2390pt" height="427pt"
 viewBox="0.00 0.00 2390.00 426.50" xmlns="http://www.w3.org/2000/svg" xmlns:xlink="http://www.w3.org/1999/xlink">
<g id="graph0" class="graph" transform="scale(1 1) rotate(0) translate(4 422.5)">
<title>gko::solver::LowerTrs&lt; ValueType, IndexType &gt;</title>
<polygon fill="#ffffff" stroke="transparent" points="-4,4 -4,-422.5 2386,-422.5 2386,4 -4,4"/>
<!-- Node1 -->
<g id="node1" class="node">
<title>Node1</title>
<g id="a_node1"><a xlink:title="LowerTrs is the triangular solver which solves the system L x = b, when L is a lower triangular matri...">
<polygon fill="#bfbfbf" stroke="#000000" points="2238,-59.5 2238,-89.5 2382,-89.5 2382,-59.5 2238,-59.5"/>
<text text-anchor="start" x="2246" y="-77.5" font-family="Helvetica,sans-Serif" font-size="10.00" fill="#000000">gko::solver::LowerTrs</text>
<text text-anchor="middle" x="2310" y="-66.5" font-family="Helvetica,sans-Serif" font-size="10.00" fill="#000000">&lt; ValueType, IndexType &gt;</text>
</a>
</g>
</g>
<!-- Node2 -->
<g id="node2" class="node">
<title>Node2</title>
<g id="a_node2"><a xlink:href="classgko_1_1EnableLinOp.html" target="_top" xlink:title=" ">
<polygon fill="#ffffff" stroke="#000000" points="2044.5,-194.5 2044.5,-224.5 2199.5,-224.5 2199.5,-194.5 2044.5,-194.5"/>
<text text-anchor="start" x="2052.5" y="-212.5" font-family="Helvetica,sans-Serif" font-size="10.00" fill="#000000">gko::EnableLinOp&lt; LowerTrs</text>
<text text-anchor="middle" x="2122" y="-201.5" font-family="Helvetica,sans-Serif" font-size="10.00" fill="#000000">&lt; ValueType, IndexType &gt; &gt;</text>
</a>
</g>
</g>
<!-- Node2&#45;&gt;Node1 -->
<g id="edge1" class="edge">
<title>Node2&#45;&gt;Node1</title>
<path fill="none" stroke="#191970" d="M2151.3618,-188.4157C2189.5308,-161.0071 2255.2689,-113.8016 2288.8769,-89.6682"/>
<polygon fill="#191970" stroke="#191970" points="2149.2818,-185.6004 2143.2005,-194.2762 2153.3648,-191.2863 2149.2818,-185.6004"/>
</g>
<!-- Node3 -->
<g id="node3" class="node">
<title>Node3</title>
<g id="a_node3"><a xlink:href="classgko_1_1EnablePolymorphicObject.html" target="_top" xlink:title=" ">
<polygon fill="#ffffff" stroke="#000000" points="1659,-164 1659,-205 1846,-205 1846,-164 1659,-164"/>
<text text-anchor="start" x="1667" y="-193" font-family="Helvetica,sans-Serif" font-size="10.00" fill="#000000">gko::EnablePolymorphicObject</text>
<text text-anchor="start" x="1667" y="-182" font-family="Helvetica,sans-Serif" font-size="10.00" fill="#000000">&lt; LowerTrs&lt; ValueType, IndexType</text>
<text text-anchor="middle" x="1752.5" y="-171" font-family="Helvetica,sans-Serif" font-size="10.00" fill="#000000"> &gt;, LinOp &gt;</text>
</a>
</g>
</g>
<!-- Node3&#45;&gt;Node2 -->
<g id="edge2" class="edge">
<title>Node3&#45;&gt;Node2</title>
<path fill="none" stroke="#191970" d="M1856.4211,-191.5312C1916.0562,-195.566 1989.6862,-200.5478 2044.2816,-204.2417"/>
<polygon fill="#191970" stroke="#191970" points="1856.4316,-188.024 1846.2181,-190.8409 1855.959,-195.008 1856.4316,-188.024"/>
</g>
<!-- Node4 -->
<g id="node4" class="node">
<title>Node4</title>
<g id="a_node4"><a xlink:href="classgko_1_1EnableAbstractPolymorphicObject.html" target="_top" xlink:title=" ">
<polygon fill="#ffffff" stroke="#000000" points="1298,-218 1298,-259 1473,-259 1473,-218 1298,-218"/>
<text text-anchor="start" x="1306" y="-247" font-family="Helvetica,sans-Serif" font-size="10.00" fill="#000000">gko::EnableAbstractPolymorphic</text>
<text text-anchor="start" x="1306" y="-236" font-family="Helvetica,sans-Serif" font-size="10.00" fill="#000000">Object&lt; LowerTrs&lt; ValueType,</text>
<text text-anchor="middle" x="1385.5" y="-225" font-family="Helvetica,sans-Serif" font-size="10.00" fill="#000000"> IndexType &gt;, LinOp &gt;</text>
</a>
</g>
</g>
<!-- Node4&#45;&gt;Node3 -->
<g id="edge3" class="edge">
<title>Node4&#45;&gt;Node3</title>
<path fill="none" stroke="#191970" d="M1483.4097,-224.0937C1537.8267,-216.0868 1605.1851,-206.1758 1658.8962,-198.2728"/>
<polygon fill="#191970" stroke="#191970" points="1482.7896,-220.6471 1473.4056,-225.5657 1483.8087,-227.5726 1482.7896,-220.6471"/>
</g>
<!-- Node5 -->
<g id="node5" class="node">
<title>Node5</title>
<g id="a_node5"><a xlink:href="classgko_1_1LinOp.html" target="_top" xlink:title=" ">
<polygon fill="#ffffff" stroke="#000000" points="955.5,-200 955.5,-219 1023.5,-219 1023.5,-200 955.5,-200"/>
<text text-anchor="middle" x="989.5" y="-207" font-family="Helvetica,sans-Serif" font-size="10.00" fill="#000000">gko::LinOp</text>
</a>
</g>
</g>
<!-- Node5&#45;&gt;Node4 -->
<g id="edge4" class="edge">
<title>Node5&#45;&gt;Node4</title>
<path fill="none" stroke="#191970" d="M1033.7068,-212.7374C1097.3545,-217.3984 1216.1324,-226.0968 1297.9352,-232.0874"/>
<polygon fill="#191970" stroke="#191970" points="1033.8344,-209.2374 1023.6055,-211.9976 1033.3231,-216.2187 1033.8344,-209.2374"/>
</g>
<!-- Node6 -->
<g id="node6" class="node">
<title>Node6</title>
<g id="a_node6"><a xlink:href="classgko_1_1EnableAbstractPolymorphicObject.html" target="_top" xlink:title=" ">
<polygon fill="#ffffff" stroke="#ff0000" points="542,-190.5 542,-220.5 717,-220.5 717,-190.5 542,-190.5"/>
<text text-anchor="start" x="550" y="-208.5" font-family="Helvetica,sans-Serif" font-size="10.00" fill="#000000">gko::EnableAbstractPolymorphic</text>
<text text-anchor="middle" x="629.5" y="-197.5" font-family="Helvetica,sans-Serif" font-size="10.00" fill="#000000">Object&lt; LinOp &gt;</text>
</a>
</g>
</g>
<!-- Node6&#45;&gt;Node5 -->
<g id="edge5" class="edge">
<title>Node6&#45;&gt;Node5</title>
<path fill="none" stroke="#191970" d="M727.1416,-206.5849C802.8119,-207.4257 903.2382,-208.5415 955.1549,-209.1184"/>
<polygon fill="#191970" stroke="#191970" points="727.1439,-203.0848 717.1056,-206.4734 727.066,-210.0844 727.1439,-203.0848"/>
</g>
<!-- Node12 -->
<g id="node7" class="node">
<title>Node12</title>
<g id="a_node7"><a xlink:href="classgko_1_1EnableAbstractPolymorphicObject.html" target="_top" xlink:title="This mixin inherits from (a subclass of) PolymorphicObject and provides a base implementation of a ne...">
<polygon fill="#ffffff" stroke="#000000" points="138,-149 138,-190 336,-190 336,-149 138,-149"/>
<text text-anchor="start" x="146" y="-178" font-family="Helvetica,sans-Serif" font-size="10.00" fill="#000000">gko::EnableAbstractPolymorphic</text>
<text text-anchor="start" x="146" y="-167" font-family="Helvetica,sans-Serif" font-size="10.00" fill="#000000">Object&lt; AbstractObject, Polymorphic</text>
<text text-anchor="middle" x="237" y="-156" font-family="Helvetica,sans-Serif" font-size="10.00" fill="#000000">Base &gt;</text>
</a>
</g>
</g>
<!-- Node12&#45;&gt;Node4 -->
<g id="edge8" class="edge">
<title>Node12&#45;&gt;Node4</title>
<path fill="none" stroke="#ffa500" stroke-dasharray="5,2" d="M289.893,-194.0433C309.6144,-202.1867 332.4501,-210.4531 354,-215.5 430.0064,-233.3005 451.0248,-226.7994 529,-230.5 809.7354,-243.8232 1142.7906,-241.8343 1297.8948,-239.8807"/>
<polygon fill="#ffa500" stroke="#ffa500" points="291.0549,-190.7348 280.481,-190.0701 288.3326,-197.1837 291.0549,-190.7348"/>
<text text-anchor="start" x="748" y="-253.5" font-family="Helvetica,sans-Serif" font-size="10.00" fill="#000000"> &lt; LowerTrs&lt; ValueType,</text>
<text text-anchor="middle" x="808.5" y="-242.5" font-family="Helvetica,sans-Serif" font-size="10.00" fill="#000000"> IndexType &gt;, LinOp &gt;</text>
</g>
<!-- Node12&#45;&gt;Node6 -->
<g id="edge6" class="edge">
<title>Node12&#45;&gt;Node6</title>
<path fill="none" stroke="#ffa500" stroke-dasharray="5,2" d="M346.2714,-187.5954C348.8708,-187.9127 351.45,-188.215 354,-188.5 416.6259,-195.4997 487.6066,-199.7939 541.8344,-202.3151"/>
<polygon fill="#ffa500" stroke="#ffa500" points="346.5267,-184.0996 336.1634,-186.3025 345.6385,-191.043 346.5267,-184.0996"/>
<text text-anchor="middle" x="432.5" y="-203.5" font-family="Helvetica,sans-Serif" font-size="10.00" fill="#000000"> &lt; LinOp &gt;</text>
</g>
<!-- Node14 -->
<g id="node10" class="node">
<title>Node14</title>
<g id="a_node10"><a xlink:href="classgko_1_1EnableAbstractPolymorphicObject.html" target="_top" xlink:title=" ">
<polygon fill="#ffffff" stroke="#000000" points="529,-130 529,-171 730,-171 730,-130 529,-130"/>
<text text-anchor="start" x="537" y="-159" font-family="Helvetica,sans-Serif" font-size="10.00" fill="#000000">gko::EnableAbstractPolymorphic</text>
<text text-anchor="start" x="537" y="-148" font-family="Helvetica,sans-Serif" font-size="10.00" fill="#000000">Object&lt; ConcreteObject, Polymorphic</text>
<text text-anchor="middle" x="629.5" y="-137" font-family="Helvetica,sans-Serif" font-size="10.00" fill="#000000">Base &gt;</text>
</a>
</g>
</g>
<!-- Node12&#45;&gt;Node14 -->
<g id="edge12" class="edge">
<title>Node12&#45;&gt;Node14</title>
<path fill="none" stroke="#ffa500" stroke-dasharray="5,2" d="M346.2032,-164.2137C403.3756,-161.4461 472.9091,-158.0802 528.78,-155.3756"/>
<polygon fill="#ffa500" stroke="#ffa500" points="345.8634,-160.726 336.0443,-164.7055 346.2019,-167.7178 345.8634,-160.726"/>
<text text-anchor="start" x="354" y="-176.5" font-family="Helvetica,sans-Serif" font-size="10.00" fill="#000000"> &lt; ConcreteObject, Polymorphic</text>
<text text-anchor="middle" x="432.5" y="-165.5" font-family="Helvetica,sans-Serif" font-size="10.00" fill="#000000">Base &gt;</text>
</g>
<!-- Node21 -->
<g id="node17" class="node">
<title>Node21</title>
<g id="a_node17"><a xlink:href="classgko_1_1EnableAbstractPolymorphicObject.html" target="_top" xlink:title=" ">
<polygon fill="#ffffff" stroke="#000000" points="531,-70 531,-111 728,-111 728,-70 531,-70"/>
<text text-anchor="start" x="539" y="-99" font-family="Helvetica,sans-Serif" font-size="10.00" fill="#000000">gko::EnableAbstractPolymorphic</text>
<text text-anchor="start" x="539" y="-88" font-family="Helvetica,sans-Serif" font-size="10.00" fill="#000000">Object&lt; ConcreteLinOp, Polymorphic</text>
<text text-anchor="middle" x="629.5" y="-77" font-family="Helvetica,sans-Serif" font-size="10.00" fill="#000000">Base &gt;</text>
</a>
</g>
</g>
<!-- Node12&#45;&gt;Node21 -->
<g id="edge22" class="edge">
<title>Node12&#45;&gt;Node21</title>
<path fill="none" stroke="#ffa500" stroke-dasharray="5,2" d="M301.7934,-145.6274C318.6233,-140.0567 336.8463,-134.5702 354,-130.5 411.9592,-116.7477 477.9681,-106.9658 530.8413,-100.5189"/>
<polygon fill="#ffa500" stroke="#ffa500" points="300.422,-142.3961 292.0639,-148.9071 302.658,-149.0294 300.422,-142.3961"/>
<text text-anchor="start" x="356" y="-144.5" font-family="Helvetica,sans-Serif" font-size="10.00" fill="#000000"> &lt; ConcreteLinOp, Polymorphic</text>
<text text-anchor="middle" x="432.5" y="-133.5" font-family="Helvetica,sans-Serif" font-size="10.00" fill="#000000">Base &gt;</text>
</g>
<!-- Node11 -->
<g id="node8" class="node">
<title>Node11</title>
<g id="a_node8"><a xlink:title=" ">
<polygon fill="#ffffff" stroke="#bfbfbf" points="0,-82 0,-101 101,-101 101,-82 0,-82"/>
<text text-anchor="middle" x="50.5" y="-89" font-family="Helvetica,sans-Serif" font-size="10.00" fill="#000000">PolymorphicBase</text>
</a>
</g>
</g>
<!-- Node11&#45;&gt;Node12 -->
<g id="edge7" class="edge">
<title>Node11&#45;&gt;Node12</title>
<path fill="none" stroke="#191970" d="M82.5985,-104.9246C111.5007,-117.0123 154.4214,-134.9631 187.6791,-148.8725"/>
<polygon fill="#191970" stroke="#191970" points="83.9447,-101.6939 73.3686,-101.0643 81.2437,-108.1518 83.9447,-101.6939"/>
</g>
<!-- Node11&#45;&gt;Node14 -->
<g id="edge11" class="edge">
<title>Node11&#45;&gt;Node14</title>
<path fill="none" stroke="#191970" d="M111.3499,-88.4811C219.3143,-83.9262 439.7293,-78.4646 511,-105.5 520.7367,-109.1935 519.8235,-115.5769 529,-120.5 535.4984,-123.9863 542.456,-127.1204 549.5648,-129.9264"/>
<polygon fill="#191970" stroke="#191970" points="111.1008,-84.9885 101.2616,-88.9179 111.4037,-91.9819 111.1008,-84.9885"/>
</g>
<!-- Node11&#45;&gt;Node21 -->
<g id="edge21" class="edge">
<title>Node11&#45;&gt;Node21</title>
<path fill="none" stroke="#191970" d="M100.0089,-80.156C106.37,-79.0602 112.8183,-78.1252 119,-77.5 292.3378,-59.9679 337.0377,-67.9863 511,-77.5 517.5096,-77.856 524.2114,-78.3212 530.9595,-78.8634"/>
<polygon fill="#191970" stroke="#191970" points="99.3286,-76.7224 90.1355,-81.9889 100.6063,-83.6048 99.3286,-76.7224"/>
</g>
<!-- Node13 -->
<g id="node9" class="node">
<title>Node13</title>
<g id="a_node9"><a xlink:href="classgko_1_1EnablePolymorphicObject.html" target="_top" xlink:title="This mixin inherits from (a subclass of) PolymorphicObject and provides a base implementation of a ne...">
<polygon fill="#ffffff" stroke="#000000" points="887,-135.5 887,-165.5 1092,-165.5 1092,-135.5 887,-135.5"/>
<text text-anchor="start" x="895" y="-153.5" font-family="Helvetica,sans-Serif" font-size="10.00" fill="#000000">gko::EnablePolymorphicObject</text>
<text text-anchor="middle" x="989.5" y="-142.5" font-family="Helvetica,sans-Serif" font-size="10.00" fill="#000000">&lt; ConcreteObject, PolymorphicBase &gt;</text>
</a>
</g>
</g>
<!-- Node13&#45;&gt;Node3 -->
<g id="edge9" class="edge">
<title>Node13&#45;&gt;Node3</title>
<path fill="none" stroke="#ffa500" stroke-dasharray="5,2" d="M1102.2054,-162.9227C1104.8276,-163.1266 1107.4287,-163.3195 1110,-163.5 1304.829,-177.1742 1533.5307,-181.9665 1658.7512,-183.6302"/>
<polygon fill="#ffa500" stroke="#ffa500" points="1102.2579,-159.4154 1092.0052,-162.0859 1101.6855,-166.3919 1102.2579,-159.4154"/>
<text text-anchor="start" x="1325" y="-193.5" font-family="Helvetica,sans-Serif" font-size="10.00" fill="#000000"> &lt; LowerTrs&lt; ValueType,</text>
<text text-anchor="middle" x="1385.5" y="-182.5" font-family="Helvetica,sans-Serif" font-size="10.00" fill="#000000"> IndexType &gt;, LinOp &gt;</text>
</g>
<!-- Node20 -->
<g id="node16" class="node">
<title>Node20</title>
<g id="a_node16"><a xlink:href="classgko_1_1EnablePolymorphicObject.html" target="_top" xlink:title=" ">
<polygon fill="#ffffff" stroke="#000000" points="1285,-110.5 1285,-140.5 1486,-140.5 1486,-110.5 1285,-110.5"/>
<text text-anchor="start" x="1293" y="-128.5" font-family="Helvetica,sans-Serif" font-size="10.00" fill="#000000">gko::EnablePolymorphicObject</text>
<text text-anchor="middle" x="1385.5" y="-117.5" font-family="Helvetica,sans-Serif" font-size="10.00" fill="#000000">&lt; ConcreteLinOp, PolymorphicBase &gt;</text>
</a>
</g>
</g>
<!-- Node13&#45;&gt;Node20 -->
<g id="edge23" class="edge">
<title>Node13&#45;&gt;Node20</title>
<path fill="none" stroke="#ffa500" stroke-dasharray="5,2" d="M1102.2246,-142.0228C1104.8411,-141.8447 1107.4358,-141.6702 1110,-141.5 1167.8444,-137.6604 1232.5555,-133.876 1284.7195,-130.9523"/>
<polygon fill="#ffa500" stroke="#ffa500" points="1101.7789,-138.5451 1092.0436,-142.7252 1102.2608,-145.5285 1101.7789,-138.5451"/>
<text text-anchor="start" x="1110" y="-155.5" font-family="Helvetica,sans-Serif" font-size="10.00" fill="#000000"> &lt; ConcreteLinOp, Polymorphic</text>
<text text-anchor="middle" x="1186.5" y="-144.5" font-family="Helvetica,sans-Serif" font-size="10.00" fill="#000000">Base &gt;</text>
</g>
<!-- Node14&#45;&gt;Node13 -->
<g id="edge10" class="edge">
<title>Node14&#45;&gt;Node13</title>
<path fill="none" stroke="#191970" d="M740.4138,-150.5C787.1115,-150.5 841.1224,-150.5 886.8889,-150.5"/>
<polygon fill="#191970" stroke="#191970" points="740.2588,-147.0001 730.2588,-150.5 740.2587,-154.0001 740.2588,-147.0001"/>
</g>
<!-- Node15 -->
<g id="node11" class="node">
<title>Node15</title>
<g id="a_node11"><a xlink:href="classgko_1_1EnablePolymorphicAssignment.html" target="_top" xlink:title=" ">
<polygon fill="#ffffff" stroke="#000000" points="1281,-345.5 1281,-375.5 1490,-375.5 1490,-345.5 1281,-345.5"/>
<text text-anchor="start" x="1289" y="-363.5" font-family="Helvetica,sans-Serif" font-size="10.00" fill="#000000">gko::EnablePolymorphicAssignment</text>
<text text-anchor="middle" x="1385.5" y="-352.5" font-family="Helvetica,sans-Serif" font-size="10.00" fill="#000000">&lt; LowerTrs&lt; ValueType, IndexType &gt; &gt;</text>
</a>
</g>
</g>
<!-- Node15&#45;&gt;Node2 -->
<g id="edge13" class="edge">
<title>Node15&#45;&gt;Node2</title>
<path fill="none" stroke="#191970" d="M1499.9721,-351.4346C1629.682,-338.9437 1846.2825,-311.3283 2025,-255.5 2049.7283,-247.7753 2076.2003,-234.8777 2095.2321,-224.7019"/>
<polygon fill="#191970" stroke="#191970" points="1499.6379,-347.9505 1490.0136,-352.3803 1500.2998,-354.9192 1499.6379,-347.9505"/>
</g>
<!-- Node16 -->
<g id="node12" class="node">
<title>Node16</title>
<g id="a_node12"><a xlink:href="classgko_1_1ConvertibleTo.html" target="_top" xlink:title=" ">
<polygon fill="#ffffff" stroke="#000000" points="922.5,-377 922.5,-418 1056.5,-418 1056.5,-377 922.5,-377"/>
<text text-anchor="start" x="930.5" y="-406" font-family="Helvetica,sans-Serif" font-size="10.00" fill="#000000">gko::ConvertibleTo</text>
<text text-anchor="start" x="930.5" y="-395" font-family="Helvetica,sans-Serif" font-size="10.00" fill="#000000">&lt; LowerTrs&lt; ValueType,</text>
<text text-anchor="middle" x="989.5" y="-384" font-family="Helvetica,sans-Serif" font-size="10.00" fill="#000000"> IndexType &gt; &gt;</text>
</a>
</g>
</g>
<!-- Node16&#45;&gt;Node15 -->
<g id="edge14" class="edge">
<title>Node16&#45;&gt;Node15</title>
<path fill="none" stroke="#191970" d="M1066.5437,-394.7648C1121.439,-392.3152 1196.9081,-387.9305 1263,-380.5 1275.0989,-379.1397 1287.8243,-377.4057 1300.3102,-375.5292"/>
<polygon fill="#191970" stroke="#191970" points="1066.3783,-391.2686 1056.5399,-395.2 1066.6826,-398.262 1066.3783,-391.2686"/>
</g>
<!-- Node17 -->
<g id="node13" class="node">
<title>Node17</title>
<g id="a_node13"><a xlink:href="classgko_1_1ConvertibleTo.html" target="_top" xlink:title="ConvertibleTo interface is used to mark that the implementer can be converted to the object of Result...">
<polygon fill="#ffffff" stroke="#000000" points="576,-327.5 576,-357.5 683,-357.5 683,-327.5 576,-327.5"/>
<text text-anchor="start" x="584" y="-345.5" font-family="Helvetica,sans-Serif" font-size="10.00" fill="#000000">gko::ConvertibleTo</text>
<text text-anchor="middle" x="629.5" y="-334.5" font-family="Helvetica,sans-Serif" font-size="10.00" fill="#000000">&lt; ResultType &gt;</text>
</a>
</g>
</g>
<!-- Node17&#45;&gt;Node16 -->
<g id="edge15" class="edge">
<title>Node17&#45;&gt;Node16</title>
<path fill="none" stroke="#ffa500" stroke-dasharray="5,2" d="M693.0244,-352.2051C757.3683,-362.0354 856.5144,-377.1827 922.1852,-387.2158"/>
<polygon fill="#ffa500" stroke="#ffa500" points="693.4208,-348.7251 683.0069,-350.6747 692.3636,-355.6449 693.4208,-348.7251"/>
<text text-anchor="start" x="748" y="-391.5" font-family="Helvetica,sans-Serif" font-size="10.00" fill="#000000"> &lt; LowerTrs&lt; ValueType,</text>
<text text-anchor="middle" x="808.5" y="-380.5" font-family="Helvetica,sans-Serif" font-size="10.00" fill="#000000"> IndexType &gt; &gt;</text>
</g>
<!-- Node18 -->
<g id="node14" class="node">
<title>Node18</title>
<g id="a_node14"><a xlink:href="classgko_1_1EnablePolymorphicAssignment.html" target="_top" xlink:title="This mixin is used to enable a default PolymorphicObject::copy_from() implementation for objects that...">
<polygon fill="#ffffff" stroke="#000000" points="893.5,-327.5 893.5,-357.5 1085.5,-357.5 1085.5,-327.5 893.5,-327.5"/>
<text text-anchor="start" x="901.5" y="-345.5" font-family="Helvetica,sans-Serif" font-size="10.00" fill="#000000">gko::EnablePolymorphicAssignment</text>
<text text-anchor="middle" x="989.5" y="-334.5" font-family="Helvetica,sans-Serif" font-size="10.00" fill="#000000">&lt; ConcreteType, ResultType &gt;</text>
</a>
</g>
</g>
<!-- Node17&#45;&gt;Node18 -->
<g id="edge17" class="edge">
<title>Node17&#45;&gt;Node18</title>
<path fill="none" stroke="#191970" d="M693.055,-342.5C748.5338,-342.5 829.8688,-342.5 893.3162,-342.5"/>
<polygon fill="#191970" stroke="#191970" points="693.0069,-339.0001 683.0069,-342.5 693.0069,-346.0001 693.0069,-339.0001"/>
</g>
<!-- Node23 -->
<g id="node19" class="node">
<title>Node23</title>
<g id="a_node19"><a xlink:href="classgko_1_1ConvertibleTo.html" target="_top" xlink:title=" ">
<polygon fill="#ffffff" stroke="#000000" points="934.5,-278.5 934.5,-308.5 1044.5,-308.5 1044.5,-278.5 934.5,-278.5"/>
<text text-anchor="start" x="942.5" y="-296.5" font-family="Helvetica,sans-Serif" font-size="10.00" fill="#000000">gko::ConvertibleTo</text>
<text text-anchor="middle" x="989.5" y="-285.5" font-family="Helvetica,sans-Serif" font-size="10.00" fill="#000000">&lt; ConcreteLinOp &gt;</text>
</a>
</g>
</g>
<!-- Node17&#45;&gt;Node23 -->
<g id="edge26" class="edge">
<title>Node17&#45;&gt;Node23</title>
<path fill="none" stroke="#ffa500" stroke-dasharray="5,2" d="M693.2231,-333.8266C761.644,-324.5137 869.2504,-309.8673 934.2198,-301.0242"/>
<polygon fill="#ffa500" stroke="#ffa500" points="692.4435,-330.4003 683.0069,-335.2171 693.3876,-337.3364 692.4435,-330.4003"/>
<text text-anchor="middle" x="808.5" y="-327.5" font-family="Helvetica,sans-Serif" font-size="10.00" fill="#000000"> &lt; ConcreteLinOp &gt;</text>
</g>
<!-- Node18&#45;&gt;Node15 -->
<g id="edge16" class="edge">
<title>Node18&#45;&gt;Node15</title>
<path fill="none" stroke="#ffa500" stroke-dasharray="5,2" d="M1095.8033,-347.332C1153.2001,-349.9409 1223.7912,-353.1496 1280.9205,-355.7464"/>
<polygon fill="#ffa500" stroke="#ffa500" points="1095.7619,-343.8266 1085.6132,-346.8688 1095.444,-350.8193 1095.7619,-343.8266"/>
<text text-anchor="start" x="1126" y="-368.5" font-family="Helvetica,sans-Serif" font-size="10.00" fill="#000000"> &lt; LowerTrs&lt; ValueType,</text>
<text text-anchor="middle" x="1186.5" y="-357.5" font-family="Helvetica,sans-Serif" font-size="10.00" fill="#000000"> IndexType &gt; &gt;</text>
</g>
<!-- Node22 -->
<g id="node18" class="node">
<title>Node22</title>
<g id="a_node18"><a xlink:href="classgko_1_1EnablePolymorphicAssignment.html" target="_top" xlink:title=" ">
<polygon fill="#ffffff" stroke="#000000" points="1289.5,-278.5 1289.5,-308.5 1481.5,-308.5 1481.5,-278.5 1289.5,-278.5"/>
<text text-anchor="start" x="1297.5" y="-296.5" font-family="Helvetica,sans-Serif" font-size="10.00" fill="#000000">gko::EnablePolymorphicAssignment</text>
<text text-anchor="middle" x="1385.5" y="-285.5" font-family="Helvetica,sans-Serif" font-size="10.00" fill="#000000">&lt; ConcreteLinOp &gt;</text>
</a>
</g>
</g>
<!-- Node18&#45;&gt;Node22 -->
<g id="edge27" class="edge">
<title>Node18&#45;&gt;Node22</title>
<path fill="none" stroke="#ffa500" stroke-dasharray="5,2" d="M1095.5381,-329.3791C1155.8104,-321.9212 1230.6983,-312.6548 1289.2692,-305.4073"/>
<polygon fill="#ffa500" stroke="#ffa500" points="1095.1077,-325.9056 1085.6132,-330.6072 1095.9674,-332.8526 1095.1077,-325.9056"/>
<text text-anchor="middle" x="1186.5" y="-329.5" font-family="Helvetica,sans-Serif" font-size="10.00" fill="#000000"> &lt; ConcreteLinOp &gt;</text>
</g>
<!-- Node19 -->
<g id="node15" class="node">
<title>Node19</title>
<g id="a_node15"><a xlink:href="classgko_1_1EnableLinOp.html" target="_top" xlink:title="The EnableLinOp mixin can be used to provide sensible default implementations of the majority of the ...">
<polygon fill="#ffffff" stroke="#000000" points="1674.5,-224.5 1674.5,-254.5 1830.5,-254.5 1830.5,-224.5 1674.5,-224.5"/>
<text text-anchor="start" x="1682.5" y="-242.5" font-family="Helvetica,sans-Serif" font-size="10.00" fill="#000000">gko::EnableLinOp&lt; Concrete</text>
<text text-anchor="middle" x="1752.5" y="-231.5" font-family="Helvetica,sans-Serif" font-size="10.00" fill="#000000">LinOp, PolymorphicBase &gt;</text>
</a>
</g>
</g>
<!-- Node19&#45;&gt;Node2 -->
<g id="edge18" class="edge">
<title>Node19&#45;&gt;Node2</title>
<path fill="none" stroke="#ffa500" stroke-dasharray="5,2" d="M1841.0161,-232.3133C1902.9782,-227.2826 1984.9749,-220.6252 2044.3859,-215.8016"/>
<polygon fill="#ffa500" stroke="#ffa500" points="1840.5454,-228.8399 1830.8614,-233.1378 1841.1119,-235.817 1840.5454,-228.8399"/>
<text text-anchor="start" x="1884" y="-243.5" font-family="Helvetica,sans-Serif" font-size="10.00" fill="#000000"> &lt; LowerTrs&lt; ValueType,</text>
<text text-anchor="middle" x="1944.5" y="-232.5" font-family="Helvetica,sans-Serif" font-size="10.00" fill="#000000"> IndexType &gt; &gt;</text>
</g>
<!-- Node20&#45;&gt;Node19 -->
<g id="edge19" class="edge">
<title>Node20&#45;&gt;Node19</title>
<path fill="none" stroke="#191970" d="M1450.1566,-143.446C1463.3787,-147.2886 1477.1705,-151.4225 1490,-155.5 1565.8197,-179.5969 1582.9631,-191.0976 1659,-214.5 1670.081,-217.9105 1681.9812,-221.2987 1693.4539,-224.4288"/>
<polygon fill="#191970" stroke="#191970" points="1450.7601,-139.9775 1440.1819,-140.5701 1448.8209,-146.7035 1450.7601,-139.9775"/>
</g>
<!-- Node21&#45;&gt;Node20 -->
<g id="edge20" class="edge">
<title>Node21&#45;&gt;Node20</title>
<path fill="none" stroke="#191970" d="M738.6779,-95.5545C885.0643,-102.3317 1142.924,-114.2696 1284.8343,-120.8396"/>
<polygon fill="#191970" stroke="#191970" points="738.485,-92.0419 728.3338,-95.0756 738.1612,-99.0345 738.485,-92.0419"/>
</g>
<!-- Node22&#45;&gt;Node19 -->
<g id="edge24" class="edge">
<title>Node22&#45;&gt;Node19</title>
<path fill="none" stroke="#191970" d="M1491.9071,-277.8434C1550.1914,-269.2675 1621.158,-258.8255 1674.3073,-251.0052"/>
<polygon fill="#191970" stroke="#191970" points="1491.3089,-274.3936 1481.9249,-279.3121 1492.3279,-281.3191 1491.3089,-274.3936"/>
</g>
<!-- Node23&#45;&gt;Node22 -->
<g id="edge25" class="edge">
<title>Node23&#45;&gt;Node22</title>
<path fill="none" stroke="#191970" d="M1054.9015,-293.5C1118.7679,-293.5 1216.6945,-293.5 1289.4105,-293.5"/>
<polygon fill="#191970" stroke="#191970" points="1054.5621,-290.0001 1044.5621,-293.5 1054.5621,-297.0001 1054.5621,-290.0001"/>
</g>
<!-- Node24 -->
<g id="node20" class="node">
<title>Node24</title>
<g id="a_node20"><a xlink:href="classgko_1_1solver_1_1EnableSolverBase.html" target="_top" xlink:title=" ">
<polygon fill="#ffffff" stroke="#000000" points="2043,-48.5 2043,-100.5 2201,-100.5 2201,-48.5 2043,-48.5"/>
<text text-anchor="start" x="2051" y="-88.5" font-family="Helvetica,sans-Serif" font-size="10.00" fill="#000000">gko::solver::EnableSolver</text>
<text text-anchor="start" x="2051" y="-77.5" font-family="Helvetica,sans-Serif" font-size="10.00" fill="#000000">Base&lt; LowerTrs&lt; ValueType,</text>
<text text-anchor="start" x="2051" y="-66.5" font-family="Helvetica,sans-Serif" font-size="10.00" fill="#000000"> IndexType &gt;, matrix::Csr</text>
<text text-anchor="middle" x="2122" y="-55.5" font-family="Helvetica,sans-Serif" font-size="10.00" fill="#000000">&lt; ValueType, IndexType &gt; &gt;</text>
</a>
</g>
</g>
<!-- Node24&#45;&gt;Node1 -->
<g id="edge28" class="edge">
<title>Node24&#45;&gt;Node1</title>
<path fill="none" stroke="#191970" d="M2211.2033,-74.5C2220.1144,-74.5 2229.0831,-74.5 2237.7879,-74.5"/>
<polygon fill="#191970" stroke="#191970" points="2211.1841,-71.0001 2201.184,-74.5 2211.184,-78.0001 2211.1841,-71.0001"/>
</g>
<!-- Node25 -->
<g id="node21" class="node">
<title>Node25</title>
<g id="a_node21"><a xlink:href="classgko_1_1solver_1_1SolverBase.html" target="_top" xlink:title=" ">
<polygon fill="#ffffff" stroke="#000000" points="1679.5,-54 1679.5,-95 1825.5,-95 1825.5,-54 1679.5,-54"/>
<text text-anchor="start" x="1687.5" y="-83" font-family="Helvetica,sans-Serif" font-size="10.00" fill="#000000">gko::solver::SolverBase</text>
<text text-anchor="start" x="1687.5" y="-72" font-family="Helvetica,sans-Serif" font-size="10.00" fill="#000000">&lt; matrix::Csr&lt; ValueType,</text>
<text text-anchor="middle" x="1752.5" y="-61" font-family="Helvetica,sans-Serif" font-size="10.00" fill="#000000"> IndexType &gt; &gt;</text>
</a>
</g>
</g>
<!-- Node25&#45;&gt;Node24 -->
<g id="edge29" class="edge">
<title>Node25&#45;&gt;Node24</title>
<path fill="none" stroke="#191970" d="M1835.6382,-74.5C1897.6139,-74.5 1981.7329,-74.5 2042.7542,-74.5"/>
<polygon fill="#191970" stroke="#191970" points="1835.5013,-71.0001 1825.5013,-74.5 1835.5013,-78.0001 1835.5013,-71.0001"/>
</g>
<!-- Node26 -->
<g id="node22" class="node">
<title>Node26</title>
<g id="a_node22"><a xlink:title="A LinOp implementing this interface stores a system matrix.">
<polygon fill="#ffffff" stroke="#bfbfbf" points="937,-44.5 937,-74.5 1042,-74.5 1042,-44.5 937,-44.5"/>
<text text-anchor="start" x="945" y="-62.5" font-family="Helvetica,sans-Serif" font-size="10.00" fill="#000000">gko::solver::detail</text>
<text text-anchor="middle" x="989.5" y="-51.5" font-family="Helvetica,sans-Serif" font-size="10.00" fill="#000000">::SolverBaseLinOp</text>
</a>
</g>
</g>
<!-- Node26&#45;&gt;Node25 -->
<g id="edge30" class="edge">
<title>Node26&#45;&gt;Node25</title>
<path fill="none" stroke="#191970" d="M1052.3899,-61.1396C1070.9431,-61.6034 1091.2882,-62.0923 1110,-62.5 1316.3455,-66.9955 1559.9914,-71.2604 1679.2667,-73.2803"/>
<polygon fill="#191970" stroke="#191970" points="1052.3737,-57.6382 1042.2887,-60.8853 1052.1974,-64.636 1052.3737,-57.6382"/>
</g>
<!-- Node27 -->
<g id="node23" class="node">
<title>Node27</title>
<g id="a_node23"><a xlink:href="classgko_1_1solver_1_1SolverBase.html" target="_top" xlink:title=" ">
<polygon fill="#ffffff" stroke="#000000" points="1320,-22.5 1320,-52.5 1451,-52.5 1451,-22.5 1320,-22.5"/>
<text text-anchor="start" x="1328" y="-40.5" font-family="Helvetica,sans-Serif" font-size="10.00" fill="#000000">gko::solver::SolverBase</text>
<text text-anchor="middle" x="1385.5" y="-29.5" font-family="Helvetica,sans-Serif" font-size="10.00" fill="#000000">&lt; MatrixType &gt;</text>
</a>
</g>
</g>
<!-- Node26&#45;&gt;Node27 -->
<g id="edge32" class="edge">
<title>Node26&#45;&gt;Node27</title>
<path fill="none" stroke="#191970" d="M1052.073,-56.0237C1125.1433,-51.9643 1245.4599,-45.28 1319.8336,-41.1481"/>
<polygon fill="#191970" stroke="#191970" points="1051.8762,-52.5292 1042.0857,-56.5786 1052.2645,-59.5184 1051.8762,-52.5292"/>
</g>
<!-- Node27&#45;&gt;Node25 -->
<g id="edge31" class="edge">
<title>Node27&#45;&gt;Node25</title>
<path fill="none" stroke="#ffa500" stroke-dasharray="5,2" d="M1461.5091,-35.4626C1512.526,-35.1762 1581.1027,-36.8834 1641,-45.5 1654.8585,-47.4936 1669.4748,-50.5653 1683.3982,-53.9763"/>
<polygon fill="#ffa500" stroke="#ffa500" points="1461.1939,-31.965 1451.2235,-35.5486 1461.2525,-38.9648 1461.1939,-31.965"/>
<text text-anchor="start" x="1508" y="-59.5" font-family="Helvetica,sans-Serif" font-size="10.00" fill="#000000"> &lt; matrix::Csr&lt; ValueType,</text>
<text text-anchor="middle" x="1574.5" y="-48.5" font-family="Helvetica,sans-Serif" font-size="10.00" fill="#000000"> IndexType &gt; &gt;</text>
</g>
<!-- Node28 -->
<g id="node24" class="node">
<title>Node28</title>
<g id="a_node24"><a xlink:href="classgko_1_1solver_1_1EnableSolverBase.html" target="_top" xlink:title="A LinOp deriving from this CRTP class stores a system matrix.">
<polygon fill="#ffffff" stroke="#000000" points="1661,-.5 1661,-30.5 1844,-30.5 1844,-.5 1661,-.5"/>
<text text-anchor="start" x="1669" y="-18.5" font-family="Helvetica,sans-Serif" font-size="10.00" fill="#000000">gko::solver::EnableSolver</text>
<text text-anchor="middle" x="1752.5" y="-7.5" font-family="Helvetica,sans-Serif" font-size="10.00" fill="#000000">Base&lt; DerivedType, MatrixType &gt;</text>
</a>
</g>
</g>
<!-- Node27&#45;&gt;Node28 -->
<g id="edge34" class="edge">
<title>Node27&#45;&gt;Node28</title>
<path fill="none" stroke="#191970" d="M1461.2737,-29.3995C1476.7211,-27.939 1492.8734,-26.5494 1508,-25.5 1558.54,-21.9939 1615.0486,-19.5843 1660.9986,-18.0105"/>
<polygon fill="#191970" stroke="#191970" points="1460.8601,-25.9231 1451.2422,-30.3667 1461.532,-32.8907 1460.8601,-25.9231"/>
</g>
<!-- Node28&#45;&gt;Node24 -->
<g id="edge33" class="edge">
<title>Node28&#45;&gt;Node24</title>
<path fill="none" stroke="#ffa500" stroke-dasharray="5,2" d="M1854.4723,-16.8894C1906.1008,-19.3132 1969.4483,-24.9326 2025,-37.5 2037.042,-40.2242 2049.5847,-44.1397 2061.4979,-48.4139"/>
<polygon fill="#ffa500" stroke="#ffa500" points="1854.4516,-13.3852 1844.3086,-16.4461 1854.1466,-20.3786 1854.4516,-13.3852"/>
<text text-anchor="start" x="1864" y="-62.5" font-family="Helvetica,sans-Serif" font-size="10.00" fill="#000000"> &lt; LowerTrs&lt; ValueType,</text>
<text text-anchor="start" x="1864" y="-51.5" font-family="Helvetica,sans-Serif" font-size="10.00" fill="#000000"> IndexType &gt;, matrix</text>
<text text-anchor="middle" x="1944.5" y="-40.5" font-family="Helvetica,sans-Serif" font-size="10.00" fill="#000000">::Csr&lt; ValueType, IndexType &gt; &gt;</text>
</g>
<!-- Node29 -->
<g id="node25" class="node">
<title>Node29</title>
<g id="a_node25"><a xlink:href="classgko_1_1Transposable.html" target="_top" xlink:title="Linear operators which support transposition should implement the Transposable interface.">
<polygon fill="#ffffff" stroke="#000000" points="2070,-10 2070,-29 2174,-29 2174,-10 2070,-10"/>
<text text-anchor="middle" x="2122" y="-17" font-family="Helvetica,sans-Serif" font-size="10.00" fill="#000000">gko::Transposable</text>
</a>
</g>
</g>
<!-- Node29&#45;&gt;Node1 -->
<g id="edge35" class="edge">
<title>Node29&#45;&gt;Node1</title>
<path fill="none" stroke="#191970" d="M2171.8455,-31.6134C2181.545,-34.1131 2191.6131,-36.8076 2201,-39.5 2222.302,-45.61 2245.7253,-53.0371 2265.3812,-59.475"/>
<polygon fill="#191970" stroke="#191970" points="2172.4692,-28.1607 2161.9149,-29.0872 2170.7434,-34.9446 2172.4692,-28.1607"/>
</g>
</g>
</svg>
