<?xml version="1.0" encoding="UTF-8" standalone="no"?>
<!DOCTYPE svg PUBLIC "-//W3C//DTD SVG 1.1//EN"
 "http://www.w3.org/Graphics/SVG/1.1/DTD/svg11.dtd">
<!-- Generated by graphviz version 2.40.1 (20161225.0304)
 -->
<!-- Title: gko::HipUnifiedAllocator Pages: 1 -->
<svg width="278pt" height="140pt"
 viewBox="0.00 0.00 278.00 140.00" xmlns="http://www.w3.org/2000/svg" xmlns:xlink="http://www.w3.org/1999/xlink">
<g id="graph0" class="graph" transform="scale(1 1) rotate(0) translate(4 136)">
<title>gko::HipUnifiedAllocator</title>
<polygon fill="#ffffff" stroke="transparent" points="-4,4 -4,-136 274,-136 274,4 -4,4"/>
<!-- Node1 -->
<g id="node1" class="node">
<title>Node1</title>
<g id="a_node1"><a xlink:title=" ">
<polygon fill="#bfbfbf" stroke="#000000" points="67,-.5 67,-19.5 202,-19.5 202,-.5 67,-.5"/>
<text text-anchor="middle" x="134.5" y="-7.5" font-family="Helvetica,sans-Serif" font-size="10.00" fill="#000000">gko::HipUnifiedAllocator</text>
</a>
</g>
</g>
<!-- Node2 -->
<g id="node2" class="node">
<title>Node2</title>
<g id="a_node2"><a xlink:href="classgko_1_1HipAllocatorBase.html" target="_top" xlink:title="Implement this interface to provide an allocator for HipExecutor.">
<polygon fill="#ffffff" stroke="#000000" points="0,-56.5 0,-75.5 125,-75.5 125,-56.5 0,-56.5"/>
<text text-anchor="middle" x="62.5" y="-63.5" font-family="Helvetica,sans-Serif" font-size="10.00" fill="#000000">gko::HipAllocatorBase</text>
</a>
</g>
</g>
<!-- Node2&#45;&gt;Node1 -->
<g id="edge1" class="edge">
<title>Node2&#45;&gt;Node1</title>
<path fill="none" stroke="#191970" d="M83.164,-49.928C95.7489,-40.1397 111.4092,-27.9595 122.1023,-19.6427"/>
<polygon fill="#191970" stroke="#191970" points="80.7862,-47.3434 75.0414,-56.2455 85.0838,-52.8688 80.7862,-47.3434"/>
</g>
<!-- Node3 -->
<g id="node3" class="node">
<title>Node3</title>
<g id="a_node3"><a xlink:href="classgko_1_1Allocator.html" target="_top" xlink:title="Provides generic allocation and deallocation functionality to be used by an Executor.">
<polygon fill="#ffffff" stroke="#000000" points="92.5,-112.5 92.5,-131.5 176.5,-131.5 176.5,-112.5 92.5,-112.5"/>
<text text-anchor="middle" x="134.5" y="-119.5" font-family="Helvetica,sans-Serif" font-size="10.00" fill="#000000">gko::Allocator</text>
</a>
</g>
</g>
<!-- Node3&#45;&gt;Node2 -->
<g id="edge2" class="edge">
<title>Node3&#45;&gt;Node2</title>
<path fill="none" stroke="#191970" d="M113.836,-105.928C101.2511,-96.1397 85.5908,-83.9595 74.8977,-75.6427"/>
<polygon fill="#191970" stroke="#191970" points="111.9162,-108.8688 121.9586,-112.2455 116.2138,-103.3434 111.9162,-108.8688"/>
</g>
<!-- Node4 -->
<g id="node4" class="node">
<title>Node4</title>
<g id="a_node4"><a xlink:href="classgko_1_1CpuAllocatorBase.html" target="_top" xlink:title="Implement this interface to provide an allocator for OmpExecutor or ReferenceExecutor.">
<polygon fill="#ffffff" stroke="#000000" points="143,-56.5 143,-75.5 270,-75.5 270,-56.5 143,-56.5"/>
<text text-anchor="middle" x="206.5" y="-63.5" font-family="Helvetica,sans-Serif" font-size="10.00" fill="#000000">gko::CpuAllocatorBase</text>
</a>
</g>
</g>
<!-- Node3&#45;&gt;Node4 -->
<g id="edge4" class="edge">
<title>Node3&#45;&gt;Node4</title>
<path fill="none" stroke="#191970" d="M155.164,-105.928C167.7489,-96.1397 183.4092,-83.9595 194.1023,-75.6427"/>
<polygon fill="#191970" stroke="#191970" points="152.7862,-103.3434 147.0414,-112.2455 157.0838,-108.8688 152.7862,-103.3434"/>
</g>
<!-- Node4&#45;&gt;Node1 -->
<g id="edge3" class="edge">
<title>Node4&#45;&gt;Node1</title>
<path fill="none" stroke="#191970" d="M185.836,-49.928C173.2511,-40.1397 157.5908,-27.9595 146.8977,-19.6427"/>
<polygon fill="#191970" stroke="#191970" points="183.9162,-52.8688 193.9586,-56.2455 188.2138,-47.3434 183.9162,-52.8688"/>
</g>
</g>
</svg>
