<?xml version="1.0" encoding="UTF-8" standalone="no"?>
<!DOCTYPE svg PUBLIC "-//W3C//DTD SVG 1.1//EN"
 "http://www.w3.org/Graphics/SVG/1.1/DTD/svg11.dtd">
<!-- Generated by graphviz version 2.40.1 (20161225.0304)
 -->
<!-- Title: gko::AbstractFactory&lt; AbstractProductType, ComponentsType &gt; Pages: 1 -->
<!--zoomable 230 -->
<svg id="main" version="1.1" xmlns="http://www.w3.org/2000/svg" xmlns:xlink="http://www.w3.org/1999/xlink" xml:space="preserve" onload="init(evt)">
<style type="text/css"><![CDATA[
.edge:hover path { stroke: red; }
.edge:hover polygon { stroke: red; fill: red; }
]]></style>
<script type="text/javascript"><![CDATA[
var edges = document.getElementsByTagName('g');
if (edges && edges.length) {
  for (var i=0;i<edges.length;i++) {
    if (edges[i].id.substr(0,4)=='edge') {
      edges[i].setAttribute('class','edge');
    }
  }
}
]]></script>
        <defs>
                <circle id="rim" cx="0" cy="0" r="7"/>
                <circle id="rim2" cx="0" cy="0" r="3.5"/>
                <g id="zoomPlus">
                        <use xlink:href="#rim" fill="#404040">
                                <set attributeName="fill" to="#808080" begin="zoomplus.mouseover" end="zoomplus.mouseout"/>
                        </use>
                        <path d="M-4,0h8M0,-4v8" fill="none" stroke="white" stroke-width="1.5" pointer-events="none"/>
                </g>
                <g id="zoomMin">
                        <use xlink:href="#rim" fill="#404040">
                                <set attributeName="fill" to="#808080" begin="zoomminus.mouseover" end="zoomminus.mouseout"/>
                        </use>
                        <path d="M-4,0h8" fill="none" stroke="white" stroke-width="1.5" pointer-events="none"/>
                </g>
                <g id="dirArrow">
                        <path fill="none" stroke="white" stroke-width="1.5" d="M0,-3.0v7 M-2.5,-0.5L0,-3.0L2.5,-0.5"/>
                </g>
               <g id="resetDef">
                       <use xlink:href="#rim2" fill="#404040">
                               <set attributeName="fill" to="#808080" begin="reset.mouseover" end="reset.mouseout"/>
                       </use>
               </g>
        </defs>

<script type="text/javascript">
var viewWidth = 2484;
var viewHeight = 230;
var sectionId = 'dynsection-0';
</script>
<script xlink:href="svgpan.js"/>
<svg id="graph" class="graph">
<g id="viewport">
<title>gko::AbstractFactory&lt; AbstractProductType, ComponentsType &gt;</title>
<polygon fill="#ffffff" stroke="transparent" points="-4,4 -4,-226 2480,-226 2480,4 -4,4"/>
<!-- Node1 -->
<g id="node1" class="node">
<title>Node1</title>
<g id="a_node1"><a xlink:title="The AbstractFactory is a generic interface template that enables easy implementation of the abstract ...">
<polygon fill="#bfbfbf" stroke="#000000" points="1272,-81.5 1272,-122.5 1403,-122.5 1403,-81.5 1272,-81.5"/>
<text text-anchor="start" x="1280" y="-110.5" font-family="Helvetica,sans-Serif" font-size="10.00" fill="#000000">gko::AbstractFactory</text>
<text text-anchor="start" x="1280" y="-99.5" font-family="Helvetica,sans-Serif" font-size="10.00" fill="#000000">&lt; AbstractProductType,</text>
<text text-anchor="middle" x="1337.5" y="-88.5" font-family="Helvetica,sans-Serif" font-size="10.00" fill="#000000"> ComponentsType &gt;</text>
</a>
</g>
</g>
<!-- Node9 -->
<g id="node9" class="node">
<title>Node9</title>
<g id="a_node9"><a xlink:title=" ">
<polygon fill="#ffffff" stroke="#bfbfbf" points="1549,-81.5 1549,-122.5 1675,-122.5 1675,-81.5 1549,-81.5"/>
<text text-anchor="start" x="1557" y="-110.5" font-family="Helvetica,sans-Serif" font-size="10.00" fill="#000000">gko::AbstractFactory</text>
<text text-anchor="start" x="1557" y="-99.5" font-family="Helvetica,sans-Serif" font-size="10.00" fill="#000000">&lt; LinOp, std::shared</text>
<text text-anchor="middle" x="1612" y="-88.5" font-family="Helvetica,sans-Serif" font-size="10.00" fill="#000000">_ptr&lt; const LinOp &gt; &gt;</text>
</a>
</g>
</g>
<!-- Node1&#45;&gt;Node9 -->
<g id="edge9" class="edge">
<title>Node1&#45;&gt;Node9</title>
<path fill="none" stroke="#ffa500" stroke-dasharray="5,2" d="M1413.2817,-102C1455.8379,-102 1508.3311,-102 1548.6768,-102"/>
<polygon fill="#ffa500" stroke="#ffa500" points="1413.2496,-98.5001 1403.2496,-102 1413.2496,-105.5001 1413.2496,-98.5001"/>
<text text-anchor="start" x="1421" y="-116" font-family="Helvetica,sans-Serif" font-size="10.00" fill="#000000"> &lt; LinOp, std::shared</text>
<text text-anchor="middle" x="1476" y="-105" font-family="Helvetica,sans-Serif" font-size="10.00" fill="#000000">_ptr&lt; const LinOp &gt; &gt;</text>
</g>
<!-- Node2 -->
<g id="node2" class="node">
<title>Node2</title>
<g id="a_node2"><a xlink:href="classgko_1_1EnableAbstractPolymorphicObject.html" target="_top" xlink:title=" ">
<polygon fill="#ffffff" stroke="#000000" points="1003,-81.5 1003,-122.5 1235,-122.5 1235,-81.5 1003,-81.5"/>
<text text-anchor="start" x="1011" y="-110.5" font-family="Helvetica,sans-Serif" font-size="10.00" fill="#000000">gko::EnableAbstractPolymorphic</text>
<text text-anchor="start" x="1011" y="-99.5" font-family="Helvetica,sans-Serif" font-size="10.00" fill="#000000">Object&lt; AbstractFactory&lt;</text>
<text text-anchor="middle" x="1119" y="-88.5" font-family="Helvetica,sans-Serif" font-size="10.00" fill="#000000"> AbstractProductType, ComponentsType &gt; &gt;</text>
</a>
</g>
</g>
<!-- Node2&#45;&gt;Node1 -->
<g id="edge1" class="edge">
<title>Node2&#45;&gt;Node1</title>
<path fill="none" stroke="#191970" d="M1245.529,-102C1254.5516,-102 1263.413,-102 1271.8583,-102"/>
<polygon fill="#191970" stroke="#191970" points="1245.2872,-98.5001 1235.2872,-102 1245.2871,-105.5001 1245.2872,-98.5001"/>
</g>
<!-- Node3 -->
<g id="node3" class="node">
<title>Node3</title>
<g id="a_node3"><a xlink:href="classgko_1_1PolymorphicObject.html" target="_top" xlink:title="A PolymorphicObject is the abstract base for all &quot;heavy&quot; objects in Ginkgo that behave polymorphicall...">
<polygon fill="#ffffff" stroke="#000000" points="833,-118.5 833,-137.5 966,-137.5 966,-118.5 833,-118.5"/>
<text text-anchor="middle" x="899.5" y="-125.5" font-family="Helvetica,sans-Serif" font-size="10.00" fill="#000000">gko::PolymorphicObject</text>
</a>
</g>
</g>
<!-- Node3&#45;&gt;Node2 -->
<g id="edge2" class="edge">
<title>Node3&#45;&gt;Node2</title>
<path fill="none" stroke="#191970" d="M976.2084,-118.9138C984.8198,-117.8938 993.7305,-116.8383 1002.6997,-115.7759"/>
<polygon fill="#191970" stroke="#191970" points="975.7701,-115.4412 966.2513,-120.0932 976.5936,-122.3926 975.7701,-115.4412"/>
</g>
<!-- Node4 -->
<g id="node4" class="node">
<title>Node4</title>
<g id="a_node4"><a xlink:href="classgko_1_1log_1_1EnableLogging.html" target="_top" xlink:title=" ">
<polygon fill="#ffffff" stroke="#000000" points="554,-118 554,-148 687,-148 687,-118 554,-118"/>
<text text-anchor="start" x="562" y="-136" font-family="Helvetica,sans-Serif" font-size="10.00" fill="#000000">gko::log::EnableLogging</text>
<text text-anchor="middle" x="620.5" y="-125" font-family="Helvetica,sans-Serif" font-size="10.00" fill="#000000">&lt; PolymorphicObject &gt;</text>
</a>
</g>
</g>
<!-- Node4&#45;&gt;Node3 -->
<g id="edge3" class="edge">
<title>Node4&#45;&gt;Node3</title>
<path fill="none" stroke="#191970" d="M697.3369,-131.623C739.7842,-130.8623 792.0026,-129.9265 832.7349,-129.1965"/>
<polygon fill="#191970" stroke="#191970" points="697.2631,-128.1237 687.3275,-131.8024 697.3886,-135.1225 697.2631,-128.1237"/>
</g>
<!-- Node5 -->
<g id="node5" class="node">
<title>Node5</title>
<g id="a_node5"><a xlink:href="classgko_1_1log_1_1Loggable.html" target="_top" xlink:title="Loggable class is an interface which should be implemented by classes wanting to support logging.">
<polygon fill="#ffffff" stroke="#000000" points="176,-172.5 176,-191.5 282,-191.5 282,-172.5 176,-172.5"/>
<text text-anchor="middle" x="229" y="-179.5" font-family="Helvetica,sans-Serif" font-size="10.00" fill="#000000">gko::log::Loggable</text>
</a>
</g>
</g>
<!-- Node5&#45;&gt;Node4 -->
<g id="edge4" class="edge">
<title>Node5&#45;&gt;Node4</title>
<path fill="none" stroke="#191970" d="M292.1473,-176.2241C354.3208,-170.2506 451.9097,-160.1069 536,-148 541.7515,-147.1719 547.7117,-146.248 553.6836,-145.2767"/>
<polygon fill="#191970" stroke="#191970" points="291.7237,-172.7485 282.1014,-177.1825 292.3887,-179.7168 291.7237,-172.7485"/>
</g>
<!-- Node6 -->
<g id="node6" class="node">
<title>Node6</title>
<g id="a_node6"><a xlink:href="classgko_1_1log_1_1EnableLogging.html" target="_top" xlink:title="EnableLogging is a mixin which should be inherited by any class which wants to enable logging.">
<polygon fill="#ffffff" stroke="#000000" points="138,-112.5 138,-153.5 320,-153.5 320,-112.5 138,-112.5"/>
<text text-anchor="start" x="146" y="-141.5" font-family="Helvetica,sans-Serif" font-size="10.00" fill="#000000">gko::log::EnableLogging</text>
<text text-anchor="start" x="146" y="-130.5" font-family="Helvetica,sans-Serif" font-size="10.00" fill="#000000">&lt; ConcreteLoggable, Polymorphic</text>
<text text-anchor="middle" x="229" y="-119.5" font-family="Helvetica,sans-Serif" font-size="10.00" fill="#000000">Base &gt;</text>
</a>
</g>
</g>
<!-- Node6&#45;&gt;Node4 -->
<g id="edge5" class="edge">
<title>Node6&#45;&gt;Node4</title>
<path fill="none" stroke="#ffa500" stroke-dasharray="5,2" d="M330.5189,-133C400.9042,-133 492.6363,-133 553.8964,-133"/>
<polygon fill="#ffa500" stroke="#ffa500" points="330.2953,-129.5001 320.2953,-133 330.2952,-136.5001 330.2953,-129.5001"/>
<text text-anchor="middle" x="437" y="-136" font-family="Helvetica,sans-Serif" font-size="10.00" fill="#000000"> &lt; PolymorphicObject &gt;</text>
</g>
<!-- Node7 -->
<g id="node7" class="node">
<title>Node7</title>
<g id="a_node7"><a xlink:title=" ">
<polygon fill="#ffffff" stroke="#bfbfbf" points="0,-86.5 0,-105.5 101,-105.5 101,-86.5 0,-86.5"/>
<text text-anchor="middle" x="50.5" y="-93.5" font-family="Helvetica,sans-Serif" font-size="10.00" fill="#000000">PolymorphicBase</text>
</a>
</g>
</g>
<!-- Node7&#45;&gt;Node6 -->
<g id="edge6" class="edge">
<title>Node7&#45;&gt;Node6</title>
<path fill="none" stroke="#191970" d="M106.2638,-107.5589C116.3029,-109.6398 127.0031,-111.8578 137.7421,-114.0838"/>
<polygon fill="#191970" stroke="#191970" points="106.9705,-104.131 96.4682,-105.5284 105.5496,-110.9853 106.9705,-104.131"/>
</g>
<!-- Node8 -->
<g id="node8" class="node">
<title>Node8</title>
<g id="a_node8"><a xlink:href="classgko_1_1EnableAbstractPolymorphicObject.html" target="_top" xlink:title="This mixin inherits from (a subclass of) PolymorphicObject and provides a base implementation of a ne...">
<polygon fill="#ffffff" stroke="#000000" points="338,-63.5 338,-104.5 536,-104.5 536,-63.5 338,-63.5"/>
<text text-anchor="start" x="346" y="-92.5" font-family="Helvetica,sans-Serif" font-size="10.00" fill="#000000">gko::EnableAbstractPolymorphic</text>
<text text-anchor="start" x="346" y="-81.5" font-family="Helvetica,sans-Serif" font-size="10.00" fill="#000000">Object&lt; AbstractObject, Polymorphic</text>
<text text-anchor="middle" x="437" y="-70.5" font-family="Helvetica,sans-Serif" font-size="10.00" fill="#000000">Base &gt;</text>
</a>
</g>
</g>
<!-- Node7&#45;&gt;Node8 -->
<g id="edge8" class="edge">
<title>Node7&#45;&gt;Node8</title>
<path fill="none" stroke="#191970" d="M111.2068,-94.1152C171.8632,-92.2319 266.1374,-89.3049 337.6981,-87.0831"/>
<polygon fill="#191970" stroke="#191970" points="110.9147,-90.6225 101.0281,-94.4312 111.132,-97.6191 110.9147,-90.6225"/>
</g>
<!-- Node8&#45;&gt;Node2 -->
<g id="edge7" class="edge">
<title>Node8&#45;&gt;Node2</title>
<path fill="none" stroke="#ffa500" stroke-dasharray="5,2" d="M546.0962,-85.9706C621.605,-87.4175 724.4163,-89.5517 815,-92 877.0248,-93.6764 946.1554,-95.9206 1002.8024,-97.8582"/>
<polygon fill="#ffa500" stroke="#ffa500" points="546.1592,-82.4713 536.0943,-85.7799 546.0257,-89.47 546.1592,-82.4713"/>
<text text-anchor="start" x="705" y="-117" font-family="Helvetica,sans-Serif" font-size="10.00" fill="#000000"> &lt; AbstractFactory&lt;</text>
<text text-anchor="start" x="705" y="-106" font-family="Helvetica,sans-Serif" font-size="10.00" fill="#000000"> AbstractProductType,</text>
<text text-anchor="middle" x="760" y="-95" font-family="Helvetica,sans-Serif" font-size="10.00" fill="#000000"> ComponentsType &gt; &gt;</text>
</g>
<!-- Node10 -->
<g id="node10" class="node">
<title>Node10</title>
<g id="a_node10"><a xlink:href="classgko_1_1LinOpFactory.html" target="_top" xlink:title="A LinOpFactory represents a higher order mapping which transforms one linear operator into another.">
<polygon fill="#ffffff" stroke="#000000" points="1712,-92.5 1712,-111.5 1816,-111.5 1816,-92.5 1712,-92.5"/>
<text text-anchor="middle" x="1764" y="-99.5" font-family="Helvetica,sans-Serif" font-size="10.00" fill="#000000">gko::LinOpFactory</text>
</a>
</g>
</g>
<!-- Node9&#45;&gt;Node10 -->
<g id="edge10" class="edge">
<title>Node9&#45;&gt;Node10</title>
<path fill="none" stroke="#191970" d="M1685.2534,-102C1694.2531,-102 1703.3043,-102 1711.9012,-102"/>
<polygon fill="#191970" stroke="#191970" points="1685.1412,-98.5001 1675.1412,-102 1685.1411,-105.5001 1685.1412,-98.5001"/>
</g>
<!-- Node11 -->
<g id="node11" class="node">
<title>Node11</title>
<g id="a_node11"><a xlink:href="classgko_1_1EnableAbstractPolymorphicObject.html" target="_top" xlink:title=" ">
<polygon fill="#ffffff" stroke="#000000" points="1859,-180.5 1859,-221.5 2034,-221.5 2034,-180.5 1859,-180.5"/>
<text text-anchor="start" x="1867" y="-209.5" font-family="Helvetica,sans-Serif" font-size="10.00" fill="#000000">gko::EnableAbstractPolymorphic</text>
<text text-anchor="start" x="1867" y="-198.5" font-family="Helvetica,sans-Serif" font-size="10.00" fill="#000000">Object&lt; Amd&lt; IndexType &gt;,</text>
<text text-anchor="middle" x="1946.5" y="-187.5" font-family="Helvetica,sans-Serif" font-size="10.00" fill="#000000"> LinOpFactory &gt;</text>
</a>
</g>
</g>
<!-- Node10&#45;&gt;Node11 -->
<g id="edge11" class="edge">
<title>Node10&#45;&gt;Node11</title>
<path fill="none" stroke="#191970" d="M1781.3657,-118.4776C1798.4303,-133.9035 1825.7985,-156.6659 1853,-171 1859.4852,-174.4174 1866.4297,-177.5332 1873.4963,-180.3523"/>
<polygon fill="#191970" stroke="#191970" points="1783.5878,-115.7658 1773.8621,-111.5633 1778.8443,-120.9136 1783.5878,-115.7658"/>
</g>
<!-- Node14 -->
<g id="node14" class="node">
<title>Node14</title>
<g id="a_node14"><a xlink:href="classgko_1_1EnableAbstractPolymorphicObject.html" target="_top" xlink:title=" ">
<polygon fill="#ffffff" stroke="#000000" points="1859,-120.5 1859,-161.5 2034,-161.5 2034,-120.5 1859,-120.5"/>
<text text-anchor="start" x="1867" y="-149.5" font-family="Helvetica,sans-Serif" font-size="10.00" fill="#000000">gko::EnableAbstractPolymorphic</text>
<text text-anchor="start" x="1867" y="-138.5" font-family="Helvetica,sans-Serif" font-size="10.00" fill="#000000">Object&lt; Cholesky&lt; ValueType,</text>
<text text-anchor="middle" x="1946.5" y="-127.5" font-family="Helvetica,sans-Serif" font-size="10.00" fill="#000000"> IndexType &gt;, LinOpFactory &gt;</text>
</a>
</g>
</g>
<!-- Node10&#45;&gt;Node14 -->
<g id="edge14" class="edge">
<title>Node10&#45;&gt;Node14</title>
<path fill="none" stroke="#191970" d="M1818.5514,-113.6576C1831.2376,-116.3686 1845.0593,-119.3223 1858.7747,-122.2532"/>
<polygon fill="#191970" stroke="#191970" points="1819.1552,-110.2076 1808.6445,-111.5405 1817.6923,-117.0531 1819.1552,-110.2076"/>
</g>
<!-- Node17 -->
<g id="node17" class="node">
<title>Node17</title>
<g id="a_node17"><a xlink:href="classgko_1_1EnableAbstractPolymorphicObject.html" target="_top" xlink:title=" ">
<polygon fill="#ffffff" stroke="#000000" points="1859,-60.5 1859,-101.5 2034,-101.5 2034,-60.5 1859,-60.5"/>
<text text-anchor="start" x="1867" y="-89.5" font-family="Helvetica,sans-Serif" font-size="10.00" fill="#000000">gko::EnableAbstractPolymorphic</text>
<text text-anchor="start" x="1867" y="-78.5" font-family="Helvetica,sans-Serif" font-size="10.00" fill="#000000">Object&lt; IdentityFactory&lt;</text>
<text text-anchor="middle" x="1946.5" y="-67.5" font-family="Helvetica,sans-Serif" font-size="10.00" fill="#000000"> ValueType &gt;, LinOpFactory &gt;</text>
</a>
</g>
</g>
<!-- Node10&#45;&gt;Node17 -->
<g id="edge17" class="edge">
<title>Node10&#45;&gt;Node17</title>
<path fill="none" stroke="#191970" d="M1826.4815,-94.8103C1836.8737,-93.6145 1847.8204,-92.3549 1858.7016,-91.1028"/>
<polygon fill="#191970" stroke="#191970" points="1825.8315,-91.362 1816.2972,-95.9822 1826.6318,-98.3161 1825.8315,-91.362"/>
</g>
<!-- Node20 -->
<g id="node20" class="node">
<title>Node20</title>
<g id="a_node20"><a xlink:href="classgko_1_1EnableAbstractPolymorphicObject.html" target="_top" xlink:title=" ">
<polygon fill="#ffffff" stroke="#000000" points="1853,-.5 1853,-41.5 2040,-41.5 2040,-.5 1853,-.5"/>
<text text-anchor="start" x="1861" y="-29.5" font-family="Helvetica,sans-Serif" font-size="10.00" fill="#000000">gko::EnableAbstractPolymorphic</text>
<text text-anchor="start" x="1861" y="-18.5" font-family="Helvetica,sans-Serif" font-size="10.00" fill="#000000">Object&lt; Lu&lt; ValueType, IndexType</text>
<text text-anchor="middle" x="1946.5" y="-7.5" font-family="Helvetica,sans-Serif" font-size="10.00" fill="#000000"> &gt;, LinOpFactory &gt;</text>
</a>
</g>
</g>
<!-- Node10&#45;&gt;Node20 -->
<g id="edge20" class="edge">
<title>Node10&#45;&gt;Node20</title>
<path fill="none" stroke="#191970" d="M1787.0711,-86.9836C1804.638,-75.9993 1829.6896,-61.2819 1853,-51 1860.6429,-47.6288 1868.7855,-44.4491 1876.9565,-41.511"/>
<polygon fill="#191970" stroke="#191970" points="1785.1875,-84.0337 1778.6159,-92.3442 1788.9357,-89.9456 1785.1875,-84.0337"/>
</g>
<!-- Node12 -->
<g id="node12" class="node">
<title>Node12</title>
<g id="a_node12"><a xlink:href="classgko_1_1EnablePolymorphicObject.html" target="_top" xlink:title=" ">
<polygon fill="#ffffff" stroke="#000000" points="2077,-186 2077,-216 2280,-216 2280,-186 2077,-186"/>
<text text-anchor="start" x="2085" y="-204" font-family="Helvetica,sans-Serif" font-size="10.00" fill="#000000">gko::EnablePolymorphicObject</text>
<text text-anchor="middle" x="2178.5" y="-193" font-family="Helvetica,sans-Serif" font-size="10.00" fill="#000000">&lt; Amd&lt; IndexType &gt;, LinOpFactory &gt;</text>
</a>
</g>
</g>
<!-- Node11&#45;&gt;Node12 -->
<g id="edge12" class="edge">
<title>Node11&#45;&gt;Node12</title>
<path fill="none" stroke="#191970" d="M2044.3669,-201C2055.0413,-201 2065.9257,-201 2076.6465,-201"/>
<polygon fill="#191970" stroke="#191970" points="2044.2093,-197.5001 2034.2093,-201 2044.2092,-204.5001 2044.2093,-197.5001"/>
</g>
<!-- Node13 -->
<g id="node13" class="node">
<title>Node13</title>
<g id="a_node13"><a xlink:href="classgko_1_1experimental_1_1reorder_1_1Amd.html" target="_top" xlink:title="Computes a Approximate Minimum Degree (AMD) reordering of an input matrix.">
<polygon fill="#ffffff" stroke="#000000" points="2320.5,-186 2320.5,-216 2472.5,-216 2472.5,-186 2320.5,-186"/>
<text text-anchor="start" x="2328.5" y="-204" font-family="Helvetica,sans-Serif" font-size="10.00" fill="#000000">gko::experimental::</text>
<text text-anchor="middle" x="2396.5" y="-193" font-family="Helvetica,sans-Serif" font-size="10.00" fill="#000000">reorder::Amd&lt; IndexType &gt;</text>
</a>
</g>
</g>
<!-- Node12&#45;&gt;Node13 -->
<g id="edge13" class="edge">
<title>Node12&#45;&gt;Node13</title>
<path fill="none" stroke="#191970" d="M2290.3323,-201C2300.5065,-201 2310.6478,-201 2320.4013,-201"/>
<polygon fill="#191970" stroke="#191970" points="2290.1602,-197.5001 2280.1602,-201 2290.1602,-204.5001 2290.1602,-197.5001"/>
</g>
<!-- Node15 -->
<g id="node15" class="node">
<title>Node15</title>
<g id="a_node15"><a xlink:href="classgko_1_1EnablePolymorphicObject.html" target="_top" xlink:title=" ">
<polygon fill="#ffffff" stroke="#000000" points="2084,-120.5 2084,-161.5 2273,-161.5 2273,-120.5 2084,-120.5"/>
<text text-anchor="start" x="2092" y="-149.5" font-family="Helvetica,sans-Serif" font-size="10.00" fill="#000000">gko::EnablePolymorphicObject</text>
<text text-anchor="start" x="2092" y="-138.5" font-family="Helvetica,sans-Serif" font-size="10.00" fill="#000000">&lt; Cholesky&lt; ValueType, IndexType</text>
<text text-anchor="middle" x="2178.5" y="-127.5" font-family="Helvetica,sans-Serif" font-size="10.00" fill="#000000"> &gt;, LinOpFactory &gt;</text>
</a>
</g>
</g>
<!-- Node14&#45;&gt;Node15 -->
<g id="edge15" class="edge">
<title>Node14&#45;&gt;Node15</title>
<path fill="none" stroke="#191970" d="M2044.532,-141C2057.5016,-141 2070.7783,-141 2083.6923,-141"/>
<polygon fill="#191970" stroke="#191970" points="2044.2093,-137.5001 2034.2093,-141 2044.2092,-144.5001 2044.2093,-137.5001"/>
</g>
<!-- Node16 -->
<g id="node16" class="node">
<title>Node16</title>
<g id="a_node16"><a xlink:href="classgko_1_1experimental_1_1factorization_1_1Cholesky.html" target="_top" xlink:title="Computes a Cholesky factorization of a symmetric, positive&#45;definite sparse matrix.">
<polygon fill="#ffffff" stroke="#000000" points="2324.5,-120.5 2324.5,-161.5 2468.5,-161.5 2468.5,-120.5 2324.5,-120.5"/>
<text text-anchor="start" x="2332.5" y="-149.5" font-family="Helvetica,sans-Serif" font-size="10.00" fill="#000000">gko::experimental::</text>
<text text-anchor="start" x="2332.5" y="-138.5" font-family="Helvetica,sans-Serif" font-size="10.00" fill="#000000">factorization::Cholesky</text>
<text text-anchor="middle" x="2396.5" y="-127.5" font-family="Helvetica,sans-Serif" font-size="10.00" fill="#000000">&lt; ValueType, IndexType &gt;</text>
</a>
</g>
</g>
<!-- Node15&#45;&gt;Node16 -->
<g id="edge16" class="edge">
<title>Node15&#45;&gt;Node16</title>
<path fill="none" stroke="#191970" d="M2283.2408,-141C2297.1157,-141 2311.0828,-141 2324.2409,-141"/>
<polygon fill="#191970" stroke="#191970" points="2283.1669,-137.5001 2273.1669,-141 2283.1668,-144.5001 2283.1669,-137.5001"/>
</g>
<!-- Node18 -->
<g id="node18" class="node">
<title>Node18</title>
<g id="a_node18"><a xlink:href="classgko_1_1EnablePolymorphicObject.html" target="_top" xlink:title=" ">
<polygon fill="#ffffff" stroke="#000000" points="2095.5,-60.5 2095.5,-101.5 2261.5,-101.5 2261.5,-60.5 2095.5,-60.5"/>
<text text-anchor="start" x="2103.5" y="-89.5" font-family="Helvetica,sans-Serif" font-size="10.00" fill="#000000">gko::EnablePolymorphicObject</text>
<text text-anchor="start" x="2103.5" y="-78.5" font-family="Helvetica,sans-Serif" font-size="10.00" fill="#000000">&lt; IdentityFactory&lt; ValueType</text>
<text text-anchor="middle" x="2178.5" y="-67.5" font-family="Helvetica,sans-Serif" font-size="10.00" fill="#000000"> &gt;, LinOpFactory &gt;</text>
</a>
</g>
</g>
<!-- Node17&#45;&gt;Node18 -->
<g id="edge18" class="edge">
<title>Node17&#45;&gt;Node18</title>
<path fill="none" stroke="#191970" d="M2044.6237,-81C2061.4781,-81 2078.8484,-81 2095.2649,-81"/>
<polygon fill="#191970" stroke="#191970" points="2044.2093,-77.5001 2034.2093,-81 2044.2092,-84.5001 2044.2093,-77.5001"/>
</g>
<!-- Node19 -->
<g id="node19" class="node">
<title>Node19</title>
<g id="a_node19"><a xlink:href="classgko_1_1matrix_1_1IdentityFactory.html" target="_top" xlink:title="This factory is a utility which can be used to generate Identity operators.">
<polygon fill="#ffffff" stroke="#000000" points="2320.5,-66 2320.5,-96 2472.5,-96 2472.5,-66 2320.5,-66"/>
<text text-anchor="start" x="2328.5" y="-84" font-family="Helvetica,sans-Serif" font-size="10.00" fill="#000000">gko::matrix::IdentityFactory</text>
<text text-anchor="middle" x="2396.5" y="-73" font-family="Helvetica,sans-Serif" font-size="10.00" fill="#000000">&lt; ValueType &gt;</text>
</a>
</g>
</g>
<!-- Node18&#45;&gt;Node19 -->
<g id="edge19" class="edge">
<title>Node18&#45;&gt;Node19</title>
<path fill="none" stroke="#191970" d="M2271.6168,-81C2287.9255,-81 2304.719,-81 2320.4945,-81"/>
<polygon fill="#191970" stroke="#191970" points="2271.5384,-77.5001 2261.5383,-81 2271.5383,-84.5001 2271.5384,-77.5001"/>
</g>
<!-- Node21 -->
<g id="node21" class="node">
<title>Node21</title>
<g id="a_node21"><a xlink:href="classgko_1_1EnablePolymorphicObject.html" target="_top" xlink:title=" ">
<polygon fill="#ffffff" stroke="#000000" points="2095.5,-.5 2095.5,-41.5 2261.5,-41.5 2261.5,-.5 2095.5,-.5"/>
<text text-anchor="start" x="2103.5" y="-29.5" font-family="Helvetica,sans-Serif" font-size="10.00" fill="#000000">gko::EnablePolymorphicObject</text>
<text text-anchor="start" x="2103.5" y="-18.5" font-family="Helvetica,sans-Serif" font-size="10.00" fill="#000000">&lt; Lu&lt; ValueType, IndexType</text>
<text text-anchor="middle" x="2178.5" y="-7.5" font-family="Helvetica,sans-Serif" font-size="10.00" fill="#000000"> &gt;, LinOpFactory &gt;</text>
</a>
</g>
</g>
<!-- Node20&#45;&gt;Node21 -->
<g id="edge21" class="edge">
<title>Node20&#45;&gt;Node21</title>
<path fill="none" stroke="#191970" d="M2050.5199,-21C2065.5145,-21 2080.7791,-21 2095.2969,-21"/>
<polygon fill="#191970" stroke="#191970" points="2050.1946,-17.5001 2040.1945,-21 2050.1945,-24.5001 2050.1946,-17.5001"/>
</g>
<!-- Node22 -->
<g id="node22" class="node">
<title>Node22</title>
<g id="a_node22"><a xlink:href="classgko_1_1experimental_1_1factorization_1_1Lu.html" target="_top" xlink:title="Computes an LU factorization of a sparse matrix.">
<polygon fill="#ffffff" stroke="#000000" points="2317,-.5 2317,-41.5 2476,-41.5 2476,-.5 2317,-.5"/>
<text text-anchor="start" x="2325" y="-29.5" font-family="Helvetica,sans-Serif" font-size="10.00" fill="#000000">gko::experimental::</text>
<text text-anchor="start" x="2325" y="-18.5" font-family="Helvetica,sans-Serif" font-size="10.00" fill="#000000">factorization::Lu&lt; ValueType,</text>
<text text-anchor="middle" x="2396.5" y="-7.5" font-family="Helvetica,sans-Serif" font-size="10.00" fill="#000000"> IndexType &gt;</text>
</a>
</g>
</g>
<!-- Node21&#45;&gt;Node22 -->
<g id="edge22" class="edge">
<title>Node21&#45;&gt;Node22</title>
<path fill="none" stroke="#191970" d="M2271.8519,-21C2286.8633,-21 2302.2791,-21 2316.9283,-21"/>
<polygon fill="#191970" stroke="#191970" points="2271.5384,-17.5001 2261.5383,-21 2271.5383,-24.5001 2271.5384,-17.5001"/>
</g>
</g>
</svg>
        <g id="navigator" transform="translate(0 0)" fill="#404254">
                <rect fill="#f2f5e9" fill-opacity="0.5" stroke="#606060" stroke-width=".5" x="0" y="0" width="60" height="60"/>
                <use id="zoomplus" xlink:href="#zoomPlus" x="17" y="9" onmousedown="handleZoom(evt,'in')"/>
                <use id="zoomminus" xlink:href="#zoomMin" x="42" y="9" onmousedown="handleZoom(evt,'out')"/>
                <use id="reset" xlink:href="#resetDef" x="30" y="36" onmousedown="handleReset()"/>
                <g id="arrowUp" xlink:href="#dirArrow" transform="translate(30 24)" onmousedown="handlePan(0,-1)">
                  <use xlink:href="#rim" fill="#404040">
                        <set attributeName="fill" to="#808080" begin="arrowUp.mouseover" end="arrowUp.mouseout"/>
                  </use>
                  <path fill="none" stroke="white" stroke-width="1.5" d="M0,-3.0v7 M-2.5,-0.5L0,-3.0L2.5,-0.5"/>
                </g>
                <g id="arrowRight" xlink:href="#dirArrow" transform="rotate(90) translate(36 -43)" onmousedown="handlePan(1,0)">
                  <use xlink:href="#rim" fill="#404040">
                        <set attributeName="fill" to="#808080" begin="arrowRight.mouseover" end="arrowRight.mouseout"/>
                  </use>
                  <path fill="none" stroke="white" stroke-width="1.5" d="M0,-3.0v7 M-2.5,-0.5L0,-3.0L2.5,-0.5"/>
                </g>
                <g id="arrowDown" xlink:href="#dirArrow" transform="rotate(180) translate(-30 -48)" onmousedown="handlePan(0,1)">
                  <use xlink:href="#rim" fill="#404040">
                        <set attributeName="fill" to="#808080" begin="arrowDown.mouseover" end="arrowDown.mouseout"/>
                  </use>
                  <path fill="none" stroke="white" stroke-width="1.5" d="M0,-3.0v7 M-2.5,-0.5L0,-3.0L2.5,-0.5"/>
                </g>
                <g id="arrowLeft" xlink:href="#dirArrow" transform="rotate(270) translate(-36 17)" onmousedown="handlePan(-1,0)">
                  <use xlink:href="#rim" fill="#404040">
                        <set attributeName="fill" to="#808080" begin="arrowLeft.mouseover" end="arrowLeft.mouseout"/>
                  </use>
                  <path fill="none" stroke="white" stroke-width="1.5" d="M0,-3.0v7 M-2.5,-0.5L0,-3.0L2.5,-0.5"/>
                </g>
        </g>
        <svg viewBox="0 0 15 15" width="100%" height="30px" preserveAspectRatio="xMaxYMin meet">
         <g id="arrow_out" transform="scale(0.3 0.3)">
          <a xlink:href="classgko_1_1AbstractFactory__inherit__graph_org.svg" target="_base">
           <rect id="button" ry="5" rx="5" y="6" x="6" height="38" width="38"
                fill="#f2f5e9" fill-opacity="0.5" stroke="#606060" stroke-width="1.0"/>
           <path id="arrow"
             d="M 11.500037,31.436501 C 11.940474,20.09759 22.043105,11.32322 32.158766,21.979434 L 37.068811,17.246167 C 37.068811,17.246167 37.088388,32 37.088388,32 L 22.160133,31.978069 C 22.160133,31.978069 26.997745,27.140456 26.997745,27.140456 C 18.528582,18.264221 13.291696,25.230495 11.500037,31.436501 z"
             style="fill:#404040;"/>
          </a>
         </g>
        </svg>
</svg>
