<?xml version="1.0" encoding="UTF-8" standalone="no"?>
<!DOCTYPE svg PUBLIC "-//W3C//DTD SVG 1.1//EN"
 "http://www.w3.org/Graphics/SVG/1.1/DTD/svg11.dtd">
<!-- Generated by graphviz version 2.40.1 (20161225.0304)
 -->
<!-- Title: gko::EnableCreateMethod&lt; ConcreteType &gt; Pages: 1 -->
<!--zoomable 284 -->
<svg id="main" version="1.1" xmlns="http://www.w3.org/2000/svg" xmlns:xlink="http://www.w3.org/1999/xlink" xml:space="preserve" onload="init(evt)">
<style type="text/css"><![CDATA[
.edge:hover path { stroke: red; }
.edge:hover polygon { stroke: red; fill: red; }
]]></style>
<script type="text/javascript"><![CDATA[
var edges = document.getElementsByTagName('g');
if (edges && edges.length) {
  for (var i=0;i<edges.length;i++) {
    if (edges[i].id.substr(0,4)=='edge') {
      edges[i].setAttribute('class','edge');
    }
  }
}
]]></script>
        <defs>
                <circle id="rim" cx="0" cy="0" r="7"/>
                <circle id="rim2" cx="0" cy="0" r="3.5"/>
                <g id="zoomPlus">
                        <use xlink:href="#rim" fill="#404040">
                                <set attributeName="fill" to="#808080" begin="zoomplus.mouseover" end="zoomplus.mouseout"/>
                        </use>
                        <path d="M-4,0h8M0,-4v8" fill="none" stroke="white" stroke-width="1.5" pointer-events="none"/>
                </g>
                <g id="zoomMin">
                        <use xlink:href="#rim" fill="#404040">
                                <set attributeName="fill" to="#808080" begin="zoomminus.mouseover" end="zoomminus.mouseout"/>
                        </use>
                        <path d="M-4,0h8" fill="none" stroke="white" stroke-width="1.5" pointer-events="none"/>
                </g>
                <g id="dirArrow">
                        <path fill="none" stroke="white" stroke-width="1.5" d="M0,-3.0v7 M-2.5,-0.5L0,-3.0L2.5,-0.5"/>
                </g>
               <g id="resetDef">
                       <use xlink:href="#rim2" fill="#404040">
                               <set attributeName="fill" to="#808080" begin="reset.mouseover" end="reset.mouseout"/>
                       </use>
               </g>
        </defs>

<script type="text/javascript">
var viewWidth = 893;
var viewHeight = 284;
var sectionId = 'dynsection-0';
</script>
<script xlink:href="svgpan.js"/>
<svg id="graph" class="graph">
<g id="viewport">
<title>gko::EnableCreateMethod&lt; ConcreteType &gt;</title>
<polygon fill="#ffffff" stroke="transparent" points="-4,4 -4,-280 889,-280 889,4 -4,4"/>
<!-- Node1 -->
<g id="node1" class="node">
<title>Node1</title>
<g id="a_node1"><a xlink:title="This mixin implements a static create() method on ConcreteType that dynamically allocates the memory,...">
<polygon fill="#bfbfbf" stroke="#000000" points="0,-73.5 0,-103.5 142,-103.5 142,-73.5 0,-73.5"/>
<text text-anchor="start" x="8" y="-91.5" font-family="Helvetica,sans-Serif" font-size="10.00" fill="#000000">gko::EnableCreateMethod</text>
<text text-anchor="middle" x="71" y="-80.5" font-family="Helvetica,sans-Serif" font-size="10.00" fill="#000000">&lt; ConcreteType &gt;</text>
</a>
</g>
</g>
<!-- Node2 -->
<g id="node2" class="node">
<title>Node2</title>
<g id="a_node2"><a xlink:href="classgko_1_1EnableCreateMethod.html" target="_top" xlink:title=" ">
<polygon fill="#ffffff" stroke="#000000" points="338,-122.5 338,-152.5 511,-152.5 511,-122.5 338,-122.5"/>
<text text-anchor="start" x="346" y="-140.5" font-family="Helvetica,sans-Serif" font-size="10.00" fill="#000000">gko::EnableCreateMethod</text>
<text text-anchor="middle" x="424.5" y="-129.5" font-family="Helvetica,sans-Serif" font-size="10.00" fill="#000000">&lt; Composition&lt; ValueType &gt; &gt;</text>
</a>
</g>
</g>
<!-- Node1&#45;&gt;Node2 -->
<g id="edge1" class="edge">
<title>Node1&#45;&gt;Node2</title>
<path fill="none" stroke="#ffa500" stroke-dasharray="5,2" d="M152.3724,-102.3469C154.9435,-102.7421 157.491,-103.1275 160,-103.5 219.1912,-112.2889 286.0359,-120.8699 337.7178,-127.2126"/>
<polygon fill="#ffa500" stroke="#ffa500" points="152.7904,-98.8698 142.3694,-100.7811 151.7078,-105.7856 152.7904,-98.8698"/>
<text text-anchor="middle" x="240" y="-127.5" font-family="Helvetica,sans-Serif" font-size="10.00" fill="#000000"> &lt; Composition&lt; ValueType &gt; &gt;</text>
</g>
<!-- Node10 -->
<g id="node10" class="node">
<title>Node10</title>
<g id="a_node10"><a xlink:href="classgko_1_1EnableCreateMethod.html" target="_top" xlink:title=" ">
<polygon fill="#ffffff" stroke="#000000" points="338,-73.5 338,-103.5 511,-103.5 511,-73.5 338,-73.5"/>
<text text-anchor="start" x="346" y="-91.5" font-family="Helvetica,sans-Serif" font-size="10.00" fill="#000000">gko::EnableCreateMethod</text>
<text text-anchor="middle" x="424.5" y="-80.5" font-family="Helvetica,sans-Serif" font-size="10.00" fill="#000000">&lt; Combination&lt; ValueType &gt; &gt;</text>
</a>
</g>
</g>
<!-- Node1&#45;&gt;Node10 -->
<g id="edge9" class="edge">
<title>Node1&#45;&gt;Node10</title>
<path fill="none" stroke="#ffa500" stroke-dasharray="5,2" d="M152.2596,-88.5C207.775,-88.5 281.2502,-88.5 337.8757,-88.5"/>
<polygon fill="#ffa500" stroke="#ffa500" points="152.1108,-85.0001 142.1108,-88.5 152.1107,-92.0001 152.1108,-85.0001"/>
<text text-anchor="middle" x="240" y="-91.5" font-family="Helvetica,sans-Serif" font-size="10.00" fill="#000000"> &lt; Combination&lt; ValueType &gt; &gt;</text>
</g>
<!-- Node12 -->
<g id="node12" class="node">
<title>Node12</title>
<g id="a_node12"><a xlink:href="classgko_1_1EnableCreateMethod.html" target="_top" xlink:title=" ">
<polygon fill="#ffffff" stroke="#000000" points="339,-24.5 339,-54.5 510,-54.5 510,-24.5 339,-24.5"/>
<text text-anchor="start" x="347" y="-42.5" font-family="Helvetica,sans-Serif" font-size="10.00" fill="#000000">gko::EnableCreateMethod</text>
<text text-anchor="middle" x="424.5" y="-31.5" font-family="Helvetica,sans-Serif" font-size="10.00" fill="#000000">&lt; Perturbation&lt; ValueType &gt; &gt;</text>
</a>
</g>
</g>
<!-- Node1&#45;&gt;Node12 -->
<g id="edge11" class="edge">
<title>Node1&#45;&gt;Node12</title>
<path fill="none" stroke="#ffa500" stroke-dasharray="5,2" d="M152.3724,-74.6531C154.9435,-74.2579 157.491,-73.8725 160,-73.5 219.6491,-64.6431 287.0708,-55.9973 338.9146,-49.6406"/>
<polygon fill="#ffa500" stroke="#ffa500" points="151.7078,-71.2144 142.3694,-76.2189 152.7904,-78.1302 151.7078,-71.2144"/>
<text text-anchor="middle" x="240" y="-76.5" font-family="Helvetica,sans-Serif" font-size="10.00" fill="#000000"> &lt; Perturbation&lt; ValueType &gt; &gt;</text>
</g>
<!-- Node3 -->
<g id="node3" class="node">
<title>Node3</title>
<g id="a_node3"><a xlink:href="classgko_1_1Composition.html" target="_top" xlink:title="The Composition class can be used to compose linear operators op1, op2, ..., opn and obtain the opera...">
<polygon fill="#ffffff" stroke="#000000" points="548.5,-128 548.5,-147 722.5,-147 722.5,-128 548.5,-128"/>
<text text-anchor="middle" x="635.5" y="-135" font-family="Helvetica,sans-Serif" font-size="10.00" fill="#000000">gko::Composition&lt; ValueType &gt;</text>
</a>
</g>
</g>
<!-- Node2&#45;&gt;Node3 -->
<g id="edge2" class="edge">
<title>Node2&#45;&gt;Node3</title>
<path fill="none" stroke="#191970" d="M521.3696,-137.5C530.3903,-137.5 539.4956,-137.5 548.4195,-137.5"/>
<polygon fill="#191970" stroke="#191970" points="521.2352,-134.0001 511.2352,-137.5 521.2352,-141.0001 521.2352,-134.0001"/>
</g>
<!-- Node4 -->
<g id="node4" class="node">
<title>Node4</title>
<g id="a_node4"><a xlink:href="classgko_1_1factorization_1_1Ic.html" target="_top" xlink:title="Represents an incomplete Cholesky factorization (IC(0)) of a sparse matrix.">
<polygon fill="#ffffff" stroke="#000000" points="771,-245.5 771,-275.5 874,-275.5 874,-245.5 771,-245.5"/>
<text text-anchor="start" x="779" y="-263.5" font-family="Helvetica,sans-Serif" font-size="10.00" fill="#000000">gko::factorization</text>
<text text-anchor="middle" x="822.5" y="-252.5" font-family="Helvetica,sans-Serif" font-size="10.00" fill="#000000">::Ic&lt; ValueType &gt;</text>
</a>
</g>
</g>
<!-- Node3&#45;&gt;Node4 -->
<g id="edge3" class="edge">
<title>Node3&#45;&gt;Node4</title>
<path fill="none" stroke="#191970" d="M652.9273,-154.2474C675.919,-175.6304 718.3608,-212.7023 760,-236.5 765.7521,-239.7874 772.0412,-242.8008 778.343,-245.499"/>
<polygon fill="#191970" stroke="#191970" points="655.0533,-151.4418 645.3742,-147.1329 650.2537,-156.5373 655.0533,-151.4418"/>
</g>
<!-- Node5 -->
<g id="node5" class="node">
<title>Node5</title>
<g id="a_node5"><a xlink:href="classgko_1_1factorization_1_1Ilu.html" target="_top" xlink:title="Represents an incomplete LU factorization – ILU(0) – of a sparse matrix.">
<polygon fill="#ffffff" stroke="#000000" points="769,-196.5 769,-226.5 876,-226.5 876,-196.5 769,-196.5"/>
<text text-anchor="start" x="777" y="-214.5" font-family="Helvetica,sans-Serif" font-size="10.00" fill="#000000">gko::factorization</text>
<text text-anchor="middle" x="822.5" y="-203.5" font-family="Helvetica,sans-Serif" font-size="10.00" fill="#000000">::Ilu&lt; ValueType &gt;</text>
</a>
</g>
</g>
<!-- Node3&#45;&gt;Node5 -->
<g id="edge4" class="edge">
<title>Node3&#45;&gt;Node5</title>
<path fill="none" stroke="#191970" d="M668.2652,-150.8172C693.3405,-160.9704 728.8026,-175.2464 760,-187.5 767.4648,-190.432 775.4461,-193.527 783.1231,-196.4842"/>
<polygon fill="#191970" stroke="#191970" points="669.4453,-147.519 658.8628,-147.0062 666.8158,-154.0063 669.4453,-147.519"/>
</g>
<!-- Node6 -->
<g id="node6" class="node">
<title>Node6</title>
<g id="a_node6"><a xlink:href="classgko_1_1factorization_1_1ParIc.html" target="_top" xlink:title="ParIC is an incomplete Cholesky factorization which is computed in parallel.">
<polygon fill="#ffffff" stroke="#000000" points="763.5,-147.5 763.5,-177.5 881.5,-177.5 881.5,-147.5 763.5,-147.5"/>
<text text-anchor="start" x="771.5" y="-165.5" font-family="Helvetica,sans-Serif" font-size="10.00" fill="#000000">gko::factorization</text>
<text text-anchor="middle" x="822.5" y="-154.5" font-family="Helvetica,sans-Serif" font-size="10.00" fill="#000000">::ParIc&lt; ValueType &gt;</text>
</a>
</g>
</g>
<!-- Node3&#45;&gt;Node6 -->
<g id="edge5" class="edge">
<title>Node3&#45;&gt;Node6</title>
<path fill="none" stroke="#191970" d="M716.9041,-148.3829C732.515,-150.4699 748.5834,-152.6181 763.329,-154.5894"/>
<polygon fill="#191970" stroke="#191970" points="717.1058,-144.8788 706.7301,-147.0227 716.1781,-151.8171 717.1058,-144.8788"/>
</g>
<!-- Node7 -->
<g id="node7" class="node">
<title>Node7</title>
<g id="a_node7"><a xlink:href="classgko_1_1factorization_1_1ParIct.html" target="_top" xlink:title="ParICT is an incomplete threshold&#45;based Cholesky factorization which is computed in parallel.">
<polygon fill="#ffffff" stroke="#000000" points="761.5,-98.5 761.5,-128.5 883.5,-128.5 883.5,-98.5 761.5,-98.5"/>
<text text-anchor="start" x="769.5" y="-116.5" font-family="Helvetica,sans-Serif" font-size="10.00" fill="#000000">gko::factorization</text>
<text text-anchor="middle" x="822.5" y="-105.5" font-family="Helvetica,sans-Serif" font-size="10.00" fill="#000000">::ParIct&lt; ValueType &gt;</text>
</a>
</g>
</g>
<!-- Node3&#45;&gt;Node7 -->
<g id="edge6" class="edge">
<title>Node3&#45;&gt;Node7</title>
<path fill="none" stroke="#191970" d="M719.7991,-126.6809C733.794,-124.8847 748.0665,-123.053 761.346,-121.3486"/>
<polygon fill="#191970" stroke="#191970" points="719.149,-123.2355 709.6759,-127.9801 720.0402,-130.1786 719.149,-123.2355"/>
</g>
<!-- Node8 -->
<g id="node8" class="node">
<title>Node8</title>
<g id="a_node8"><a xlink:href="classgko_1_1factorization_1_1ParIlu.html" target="_top" xlink:title="ParILU is an incomplete LU factorization which is computed in parallel.">
<polygon fill="#ffffff" stroke="#000000" points="761.5,-49.5 761.5,-79.5 883.5,-79.5 883.5,-49.5 761.5,-49.5"/>
<text text-anchor="start" x="769.5" y="-67.5" font-family="Helvetica,sans-Serif" font-size="10.00" fill="#000000">gko::factorization</text>
<text text-anchor="middle" x="822.5" y="-56.5" font-family="Helvetica,sans-Serif" font-size="10.00" fill="#000000">::ParIlu&lt; ValueType &gt;</text>
</a>
</g>
</g>
<!-- Node3&#45;&gt;Node8 -->
<g id="edge7" class="edge">
<title>Node3&#45;&gt;Node8</title>
<path fill="none" stroke="#191970" d="M675.723,-124.8578C690.7137,-119.8469 707.7794,-113.7839 723,-107.5 739.9032,-100.5214 743.2773,-96.9007 760,-89.5 767.5876,-86.1421 775.774,-82.7238 783.6433,-79.5369"/>
<polygon fill="#191970" stroke="#191970" points="674.615,-121.5377 666.2118,-127.9905 676.8049,-128.1864 674.615,-121.5377"/>
</g>
<!-- Node9 -->
<g id="node9" class="node">
<title>Node9</title>
<g id="a_node9"><a xlink:href="classgko_1_1factorization_1_1ParIlut.html" target="_top" xlink:title="ParILUT is an incomplete threshold&#45;based LU factorization which is computed in parallel.">
<polygon fill="#ffffff" stroke="#000000" points="760,-.5 760,-30.5 885,-30.5 885,-.5 760,-.5"/>
<text text-anchor="start" x="768" y="-18.5" font-family="Helvetica,sans-Serif" font-size="10.00" fill="#000000">gko::factorization</text>
<text text-anchor="middle" x="822.5" y="-7.5" font-family="Helvetica,sans-Serif" font-size="10.00" fill="#000000">::ParIlut&lt; ValueType &gt;</text>
</a>
</g>
</g>
<!-- Node3&#45;&gt;Node9 -->
<g id="edge8" class="edge">
<title>Node3&#45;&gt;Node9</title>
<path fill="none" stroke="#191970" d="M693.5003,-124.4309C704.0765,-120.2318 714.4525,-114.7198 723,-107.5 749.2847,-85.2982 734.123,-62.1757 760,-39.5 763.9338,-36.0529 768.4158,-33.076 773.1317,-30.5107"/>
<polygon fill="#191970" stroke="#191970" points="692.0023,-121.2502 683.778,-127.9294 694.3724,-127.8367 692.0023,-121.2502"/>
</g>
<!-- Node11 -->
<g id="node11" class="node">
<title>Node11</title>
<g id="a_node11"><a xlink:href="classgko_1_1Combination.html" target="_top" xlink:title="The Combination class can be used to construct a linear combination of multiple linear operators c1 *...">
<polygon fill="#ffffff" stroke="#000000" points="548,-79 548,-98 723,-98 723,-79 548,-79"/>
<text text-anchor="middle" x="635.5" y="-86" font-family="Helvetica,sans-Serif" font-size="10.00" fill="#000000">gko::Combination&lt; ValueType &gt;</text>
</a>
</g>
</g>
<!-- Node10&#45;&gt;Node11 -->
<g id="edge10" class="edge">
<title>Node10&#45;&gt;Node11</title>
<path fill="none" stroke="#191970" d="M521.4666,-88.5C530.2256,-88.5 539.0636,-88.5 547.7368,-88.5"/>
<polygon fill="#191970" stroke="#191970" points="521.2352,-85.0001 511.2352,-88.5 521.2352,-92.0001 521.2352,-85.0001"/>
</g>
<!-- Node13 -->
<g id="node13" class="node">
<title>Node13</title>
<g id="a_node13"><a xlink:href="classgko_1_1Perturbation.html" target="_top" xlink:title="The Perturbation class can be used to construct a LinOp to represent the operation (identity + scalar...">
<polygon fill="#ffffff" stroke="#000000" points="581,-24.5 581,-54.5 690,-54.5 690,-24.5 581,-24.5"/>
<text text-anchor="start" x="589" y="-42.5" font-family="Helvetica,sans-Serif" font-size="10.00" fill="#000000">gko::Perturbation&lt;</text>
<text text-anchor="middle" x="635.5" y="-31.5" font-family="Helvetica,sans-Serif" font-size="10.00" fill="#000000"> ValueType &gt;</text>
</a>
</g>
</g>
<!-- Node12&#45;&gt;Node13 -->
<g id="edge12" class="edge">
<title>Node12&#45;&gt;Node13</title>
<path fill="none" stroke="#191970" d="M520.1598,-39.5C540.9328,-39.5 562.2192,-39.5 580.7596,-39.5"/>
<polygon fill="#191970" stroke="#191970" points="520.0176,-36.0001 510.0176,-39.5 520.0176,-43.0001 520.0176,-36.0001"/>
</g>
</g>
</svg>
        <g id="navigator" transform="translate(0 0)" fill="#404254">
                <rect fill="#f2f5e9" fill-opacity="0.5" stroke="#606060" stroke-width=".5" x="0" y="0" width="60" height="60"/>
                <use id="zoomplus" xlink:href="#zoomPlus" x="17" y="9" onmousedown="handleZoom(evt,'in')"/>
                <use id="zoomminus" xlink:href="#zoomMin" x="42" y="9" onmousedown="handleZoom(evt,'out')"/>
                <use id="reset" xlink:href="#resetDef" x="30" y="36" onmousedown="handleReset()"/>
                <g id="arrowUp" xlink:href="#dirArrow" transform="translate(30 24)" onmousedown="handlePan(0,-1)">
                  <use xlink:href="#rim" fill="#404040">
                        <set attributeName="fill" to="#808080" begin="arrowUp.mouseover" end="arrowUp.mouseout"/>
                  </use>
                  <path fill="none" stroke="white" stroke-width="1.5" d="M0,-3.0v7 M-2.5,-0.5L0,-3.0L2.5,-0.5"/>
                </g>
                <g id="arrowRight" xlink:href="#dirArrow" transform="rotate(90) translate(36 -43)" onmousedown="handlePan(1,0)">
                  <use xlink:href="#rim" fill="#404040">
                        <set attributeName="fill" to="#808080" begin="arrowRight.mouseover" end="arrowRight.mouseout"/>
                  </use>
                  <path fill="none" stroke="white" stroke-width="1.5" d="M0,-3.0v7 M-2.5,-0.5L0,-3.0L2.5,-0.5"/>
                </g>
                <g id="arrowDown" xlink:href="#dirArrow" transform="rotate(180) translate(-30 -48)" onmousedown="handlePan(0,1)">
                  <use xlink:href="#rim" fill="#404040">
                        <set attributeName="fill" to="#808080" begin="arrowDown.mouseover" end="arrowDown.mouseout"/>
                  </use>
                  <path fill="none" stroke="white" stroke-width="1.5" d="M0,-3.0v7 M-2.5,-0.5L0,-3.0L2.5,-0.5"/>
                </g>
                <g id="arrowLeft" xlink:href="#dirArrow" transform="rotate(270) translate(-36 17)" onmousedown="handlePan(-1,0)">
                  <use xlink:href="#rim" fill="#404040">
                        <set attributeName="fill" to="#808080" begin="arrowLeft.mouseover" end="arrowLeft.mouseout"/>
                  </use>
                  <path fill="none" stroke="white" stroke-width="1.5" d="M0,-3.0v7 M-2.5,-0.5L0,-3.0L2.5,-0.5"/>
                </g>
        </g>
        <svg viewBox="0 0 15 15" width="100%" height="30px" preserveAspectRatio="xMaxYMin meet">
         <g id="arrow_out" transform="scale(0.3 0.3)">
          <a xlink:href="classgko_1_1EnableCreateMethod__inherit__graph_org.svg" target="_base">
           <rect id="button" ry="5" rx="5" y="6" x="6" height="38" width="38"
                fill="#f2f5e9" fill-opacity="0.5" stroke="#606060" stroke-width="1.0"/>
           <path id="arrow"
             d="M 11.500037,31.436501 C 11.940474,20.09759 22.043105,11.32322 32.158766,21.979434 L 37.068811,17.246167 C 37.068811,17.246167 37.088388,32 37.088388,32 L 22.160133,31.978069 C 22.160133,31.978069 26.997745,27.140456 26.997745,27.140456 C 18.528582,18.264221 13.291696,25.230495 11.500037,31.436501 z"
             style="fill:#404040;"/>
          </a>
         </g>
        </svg>
</svg>
