<?xml version="1.0" encoding="UTF-8" standalone="no"?>
<!DOCTYPE svg PUBLIC "-//W3C//DTD SVG 1.1//EN"
 "http://www.w3.org/Graphics/SVG/1.1/DTD/svg11.dtd">
<!-- Generated by graphviz version 2.40.1 (20161225.0304)
 -->
<!-- Title: gko::batch::matrix::Dense&lt; ValueType &gt; Pages: 1 -->
<svg width="2156pt" height="353pt"
 viewBox="0.00 0.00 2156.00 352.72" xmlns="http://www.w3.org/2000/svg" xmlns:xlink="http://www.w3.org/1999/xlink">
<g id="graph0" class="graph" transform="scale(1 1) rotate(0) translate(4 348.7202)">
<title>gko::batch::matrix::Dense&lt; ValueType &gt;</title>
<polygon fill="#ffffff" stroke="transparent" points="-4,4 -4,-348.7202 2152,-348.7202 2152,4 -4,4"/>
<!-- Node1 -->
<g id="node1" class="node">
<title>Node1</title>
<g id="a_node1"><a xlink:title="Dense is a batch matrix format which explicitly stores all values of the matrix in each of the batche...">
<polygon fill="#bfbfbf" stroke="#000000" points="2023,-43 2023,-73 2148,-73 2148,-43 2023,-43"/>
<text text-anchor="start" x="2031" y="-61" font-family="Helvetica,sans-Serif" font-size="10.00" fill="#000000">gko::batch::matrix</text>
<text text-anchor="middle" x="2085.5" y="-50" font-family="Helvetica,sans-Serif" font-size="10.00" fill="#000000">::Dense&lt; ValueType &gt;</text>
</a>
</g>
</g>
<!-- Node2 -->
<g id="node2" class="node">
<title>Node2</title>
<g id="a_node2"><a xlink:href="classgko_1_1batch_1_1EnableBatchLinOp.html" target="_top" xlink:title=" ">
<polygon fill="#ffffff" stroke="#000000" points="1831,-94 1831,-124 1986,-124 1986,-94 1831,-94"/>
<text text-anchor="start" x="1839" y="-112" font-family="Helvetica,sans-Serif" font-size="10.00" fill="#000000">gko::batch::EnableBatchLin</text>
<text text-anchor="middle" x="1908.5" y="-101" font-family="Helvetica,sans-Serif" font-size="10.00" fill="#000000">Op&lt; Dense&lt; ValueType &gt; &gt;</text>
</a>
</g>
</g>
<!-- Node2&#45;&gt;Node1 -->
<g id="edge1" class="edge">
<title>Node2&#45;&gt;Node1</title>
<path fill="none" stroke="#191970" d="M1970.2602,-91.2047C1990.8714,-85.2659 2013.6181,-78.7117 2033.4186,-73.0065"/>
<polygon fill="#191970" stroke="#191970" points="1969.2885,-87.8422 1960.6485,-93.9742 1971.2267,-94.5685 1969.2885,-87.8422"/>
</g>
<!-- Node3 -->
<g id="node3" class="node">
<title>Node3</title>
<g id="a_node3"><a xlink:href="classgko_1_1EnablePolymorphicObject.html" target="_top" xlink:title=" ">
<polygon fill="#ffffff" stroke="#000000" points="1277,-189 1277,-219 1480,-219 1480,-189 1277,-189"/>
<text text-anchor="start" x="1285" y="-207" font-family="Helvetica,sans-Serif" font-size="10.00" fill="#000000">gko::EnablePolymorphicObject</text>
<text text-anchor="middle" x="1378.5" y="-196" font-family="Helvetica,sans-Serif" font-size="10.00" fill="#000000">&lt; Dense&lt; ValueType &gt;, BatchLinOp &gt;</text>
</a>
</g>
</g>
<!-- Node3&#45;&gt;Node2 -->
<g id="edge2" class="edge">
<title>Node3&#45;&gt;Node2</title>
<path fill="none" stroke="#191970" d="M1465.707,-185.4558C1470.6321,-183.5079 1475.4322,-181.3623 1480,-179 1499.3118,-169.0127 1497.0166,-155.5648 1517,-147 1545.0487,-134.9785 1724.8006,-121.2183 1830.7296,-114.0084"/>
<polygon fill="#191970" stroke="#191970" points="1464.3009,-182.2433 1456.1099,-188.9633 1466.7038,-188.8179 1464.3009,-182.2433"/>
</g>
<!-- Node4 -->
<g id="node4" class="node">
<title>Node4</title>
<g id="a_node4"><a xlink:href="classgko_1_1EnableAbstractPolymorphicObject.html" target="_top" xlink:title=" ">
<polygon fill="#ffffff" stroke="#000000" points="542,-180.5 542,-221.5 717,-221.5 717,-180.5 542,-180.5"/>
<text text-anchor="start" x="550" y="-209.5" font-family="Helvetica,sans-Serif" font-size="10.00" fill="#000000">gko::EnableAbstractPolymorphic</text>
<text text-anchor="start" x="550" y="-198.5" font-family="Helvetica,sans-Serif" font-size="10.00" fill="#000000">Object&lt; Dense&lt; ValueType</text>
<text text-anchor="middle" x="629.5" y="-187.5" font-family="Helvetica,sans-Serif" font-size="10.00" fill="#000000"> &gt;, BatchLinOp &gt;</text>
</a>
</g>
</g>
<!-- Node4&#45;&gt;Node3 -->
<g id="edge3" class="edge">
<title>Node4&#45;&gt;Node3</title>
<path fill="none" stroke="#191970" d="M727.2876,-201.3917C869.5871,-201.9616 1132.4574,-203.0145 1276.8842,-203.593"/>
<polygon fill="#191970" stroke="#191970" points="727.2677,-197.8917 717.2537,-201.3515 727.2396,-204.8916 727.2677,-197.8917"/>
</g>
<!-- Node5 -->
<g id="node5" class="node">
<title>Node5</title>
<g id="a_node5"><a xlink:title=" ">
<polygon fill="#ffffff" stroke="#bfbfbf" points="201,-160.5 201,-179.5 273,-179.5 273,-160.5 201,-160.5"/>
<text text-anchor="middle" x="237" y="-167.5" font-family="Helvetica,sans-Serif" font-size="10.00" fill="#000000">BatchLinOp</text>
</a>
</g>
</g>
<!-- Node5&#45;&gt;Node4 -->
<g id="edge4" class="edge">
<title>Node5&#45;&gt;Node4</title>
<path fill="none" stroke="#191970" d="M283.4797,-171.0803C338.0613,-172.6483 431.2766,-176.2611 511,-184 521.0329,-184.9739 531.5175,-186.189 541.9225,-187.5189"/>
<polygon fill="#191970" stroke="#191970" points="283.5148,-167.58 273.4218,-170.802 283.3212,-174.5773 283.5148,-167.58"/>
</g>
<!-- Node6 -->
<g id="node6" class="node">
<title>Node6</title>
<g id="a_node6"><a xlink:href="classgko_1_1EnableAbstractPolymorphicObject.html" target="_top" xlink:title="This mixin inherits from (a subclass of) PolymorphicObject and provides a base implementation of a ne...">
<polygon fill="#ffffff" stroke="#000000" points="138,-268.5 138,-309.5 336,-309.5 336,-268.5 138,-268.5"/>
<text text-anchor="start" x="146" y="-297.5" font-family="Helvetica,sans-Serif" font-size="10.00" fill="#000000">gko::EnableAbstractPolymorphic</text>
<text text-anchor="start" x="146" y="-286.5" font-family="Helvetica,sans-Serif" font-size="10.00" fill="#000000">Object&lt; AbstractObject, Polymorphic</text>
<text text-anchor="middle" x="237" y="-275.5" font-family="Helvetica,sans-Serif" font-size="10.00" fill="#000000">Base &gt;</text>
</a>
</g>
</g>
<!-- Node6&#45;&gt;Node4 -->
<g id="edge5" class="edge">
<title>Node6&#45;&gt;Node4</title>
<path fill="none" stroke="#ffa500" stroke-dasharray="5,2" d="M285.7609,-264.1304C306.3454,-254.5928 330.8655,-244.4596 354,-238 415.4716,-220.836 486.9552,-211.5315 541.701,-206.5466"/>
<polygon fill="#ffa500" stroke="#ffa500" points="284.1481,-261.0213 276.5992,-268.4553 287.1364,-267.3514 284.1481,-261.0213"/>
<text text-anchor="start" x="379.5" y="-252" font-family="Helvetica,sans-Serif" font-size="10.00" fill="#000000"> &lt; Dense&lt; ValueType</text>
<text text-anchor="middle" x="432.5" y="-241" font-family="Helvetica,sans-Serif" font-size="10.00" fill="#000000"> &gt;, BatchLinOp &gt;</text>
</g>
<!-- Node9 -->
<g id="node9" class="node">
<title>Node9</title>
<g id="a_node9"><a xlink:href="classgko_1_1EnableAbstractPolymorphicObject.html" target="_top" xlink:title=" ">
<polygon fill="#ffffff" stroke="#000000" points="529,-240.5 529,-281.5 730,-281.5 730,-240.5 529,-240.5"/>
<text text-anchor="start" x="537" y="-269.5" font-family="Helvetica,sans-Serif" font-size="10.00" fill="#000000">gko::EnableAbstractPolymorphic</text>
<text text-anchor="start" x="537" y="-258.5" font-family="Helvetica,sans-Serif" font-size="10.00" fill="#000000">Object&lt; ConcreteObject, Polymorphic</text>
<text text-anchor="middle" x="629.5" y="-247.5" font-family="Helvetica,sans-Serif" font-size="10.00" fill="#000000">Base &gt;</text>
</a>
</g>
</g>
<!-- Node6&#45;&gt;Node9 -->
<g id="edge10" class="edge">
<title>Node6&#45;&gt;Node9</title>
<path fill="none" stroke="#ffa500" stroke-dasharray="5,2" d="M346.2885,-274.7079C348.8828,-274.4593 351.4563,-274.2227 354,-274 411.837,-268.9362 476.6894,-265.7529 528.9372,-263.8047"/>
<polygon fill="#ffa500" stroke="#ffa500" points="345.7972,-271.2396 336.1975,-275.7224 346.4975,-278.2045 345.7972,-271.2396"/>
<text text-anchor="start" x="354" y="-288" font-family="Helvetica,sans-Serif" font-size="10.00" fill="#000000"> &lt; ConcreteObject, Polymorphic</text>
<text text-anchor="middle" x="432.5" y="-277" font-family="Helvetica,sans-Serif" font-size="10.00" fill="#000000">Base &gt;</text>
</g>
<!-- Node16 -->
<g id="node16" class="node">
<title>Node16</title>
<g id="a_node16"><a xlink:href="classgko_1_1EnableAbstractPolymorphicObject.html" target="_top" xlink:title=" ">
<polygon fill="#ffffff" stroke="#000000" points="542,-300.5 542,-341.5 717,-341.5 717,-300.5 542,-300.5"/>
<text text-anchor="start" x="550" y="-329.5" font-family="Helvetica,sans-Serif" font-size="10.00" fill="#000000">gko::EnableAbstractPolymorphic</text>
<text text-anchor="start" x="550" y="-318.5" font-family="Helvetica,sans-Serif" font-size="10.00" fill="#000000">Object&lt; ConcreteBatchLinOp,</text>
<text text-anchor="middle" x="629.5" y="-307.5" font-family="Helvetica,sans-Serif" font-size="10.00" fill="#000000"> PolymorphicBase &gt;</text>
</a>
</g>
</g>
<!-- Node6&#45;&gt;Node16 -->
<g id="edge20" class="edge">
<title>Node6&#45;&gt;Node16</title>
<path fill="none" stroke="#ffa500" stroke-dasharray="5,2" d="M346.2134,-297.904C407.9382,-302.9364 484.0683,-309.1432 541.8581,-313.8547"/>
<polygon fill="#ffa500" stroke="#ffa500" points="346.2957,-294.3992 336.0443,-297.075 345.7268,-301.3761 346.2957,-294.3992"/>
<text text-anchor="start" x="374" y="-324" font-family="Helvetica,sans-Serif" font-size="10.00" fill="#000000"> &lt; ConcreteBatchLinOp,</text>
<text text-anchor="middle" x="432.5" y="-313" font-family="Helvetica,sans-Serif" font-size="10.00" fill="#000000"> PolymorphicBase &gt;</text>
</g>
<!-- Node7 -->
<g id="node7" class="node">
<title>Node7</title>
<g id="a_node7"><a xlink:title=" ">
<polygon fill="#ffffff" stroke="#bfbfbf" points="0,-279.5 0,-298.5 101,-298.5 101,-279.5 0,-279.5"/>
<text text-anchor="middle" x="50.5" y="-286.5" font-family="Helvetica,sans-Serif" font-size="10.00" fill="#000000">PolymorphicBase</text>
</a>
</g>
</g>
<!-- Node7&#45;&gt;Node6 -->
<g id="edge6" class="edge">
<title>Node7&#45;&gt;Node6</title>
<path fill="none" stroke="#191970" d="M111.5248,-289C119.9555,-289 128.7869,-289 137.6923,-289"/>
<polygon fill="#191970" stroke="#191970" points="111.462,-285.5001 101.4619,-289 111.4619,-292.5001 111.462,-285.5001"/>
</g>
<!-- Node7&#45;&gt;Node9 -->
<g id="edge9" class="edge">
<title>Node7&#45;&gt;Node9</title>
<path fill="none" stroke="#191970" d="M81.5467,-275.5517C97.9869,-269.1549 118.7166,-262.2139 138,-259 301.5228,-231.7462 345.2258,-258.8269 511,-260 516.8633,-260.0415 522.8899,-260.0861 528.9705,-260.1327"/>
<polygon fill="#191970" stroke="#191970" points="79.8872,-272.4466 71.916,-279.426 82.4998,-278.9408 79.8872,-272.4466"/>
</g>
<!-- Node7&#45;&gt;Node16 -->
<g id="edge19" class="edge">
<title>Node7&#45;&gt;Node16</title>
<path fill="none" stroke="#191970" d="M82.6769,-302.2078C98.98,-308.3371 119.2483,-315.1125 138,-319 300.4946,-352.6876 345.3789,-346.4407 511,-336 521.0376,-335.3672 531.5251,-334.4358 541.9318,-333.3417"/>
<polygon fill="#191970" stroke="#191970" points="83.6768,-298.8422 73.0873,-298.5066 81.1562,-305.3726 83.6768,-298.8422"/>
</g>
<!-- Node8 -->
<g id="node8" class="node">
<title>Node8</title>
<g id="a_node8"><a xlink:href="classgko_1_1EnablePolymorphicObject.html" target="_top" xlink:title="This mixin inherits from (a subclass of) PolymorphicObject and provides a base implementation of a ne...">
<polygon fill="#ffffff" stroke="#000000" points="895,-246 895,-276 1100,-276 1100,-246 895,-246"/>
<text text-anchor="start" x="903" y="-264" font-family="Helvetica,sans-Serif" font-size="10.00" fill="#000000">gko::EnablePolymorphicObject</text>
<text text-anchor="middle" x="997.5" y="-253" font-family="Helvetica,sans-Serif" font-size="10.00" fill="#000000">&lt; ConcreteObject, PolymorphicBase &gt;</text>
</a>
</g>
</g>
<!-- Node8&#45;&gt;Node3 -->
<g id="edge7" class="edge">
<title>Node8&#45;&gt;Node3</title>
<path fill="none" stroke="#ffa500" stroke-dasharray="5,2" d="M1096.5398,-244.3717C1103.799,-243.2112 1111.0114,-242.0761 1118,-241 1170.3711,-232.9357 1228.7673,-224.5828 1276.9755,-217.8585"/>
<polygon fill="#ffa500" stroke="#ffa500" points="1095.9452,-240.9222 1086.6283,-245.9667 1097.0574,-247.8333 1095.9452,-240.9222"/>
<text text-anchor="start" x="1135.5" y="-255" font-family="Helvetica,sans-Serif" font-size="10.00" fill="#000000"> &lt; Dense&lt; ValueType</text>
<text text-anchor="middle" x="1188.5" y="-244" font-family="Helvetica,sans-Serif" font-size="10.00" fill="#000000"> &gt;, BatchLinOp &gt;</text>
</g>
<!-- Node15 -->
<g id="node15" class="node">
<title>Node15</title>
<g id="a_node15"><a xlink:href="classgko_1_1EnablePolymorphicObject.html" target="_top" xlink:title=" ">
<polygon fill="#ffffff" stroke="#000000" points="1281.5,-260.5 1281.5,-301.5 1475.5,-301.5 1475.5,-260.5 1281.5,-260.5"/>
<text text-anchor="start" x="1289.5" y="-289.5" font-family="Helvetica,sans-Serif" font-size="10.00" fill="#000000">gko::EnablePolymorphicObject</text>
<text text-anchor="start" x="1289.5" y="-278.5" font-family="Helvetica,sans-Serif" font-size="10.00" fill="#000000">&lt; ConcreteBatchLinOp, Polymorphic</text>
<text text-anchor="middle" x="1378.5" y="-267.5" font-family="Helvetica,sans-Serif" font-size="10.00" fill="#000000">Base &gt;</text>
</a>
</g>
</g>
<!-- Node8&#45;&gt;Node15 -->
<g id="edge21" class="edge">
<title>Node8&#45;&gt;Node15</title>
<path fill="none" stroke="#ffa500" stroke-dasharray="5,2" d="M1110.1307,-266.9124C1164.5044,-269.7666 1229.1015,-273.1576 1281.2932,-275.8973"/>
<polygon fill="#ffa500" stroke="#ffa500" points="1110.272,-263.4151 1100.1022,-266.3859 1109.9049,-270.4054 1110.272,-263.4151"/>
<text text-anchor="start" x="1130" y="-288" font-family="Helvetica,sans-Serif" font-size="10.00" fill="#000000"> &lt; ConcreteBatchLinOp,</text>
<text text-anchor="middle" x="1188.5" y="-277" font-family="Helvetica,sans-Serif" font-size="10.00" fill="#000000"> PolymorphicBase &gt;</text>
</g>
<!-- Node9&#45;&gt;Node8 -->
<g id="edge8" class="edge">
<title>Node9&#45;&gt;Node8</title>
<path fill="none" stroke="#191970" d="M740.0843,-261C789.2,-261 846.6641,-261 894.8233,-261"/>
<polygon fill="#191970" stroke="#191970" points="740.0577,-257.5001 730.0576,-261 740.0576,-264.5001 740.0577,-257.5001"/>
</g>
<!-- Node10 -->
<g id="node10" class="node">
<title>Node10</title>
<g id="a_node10"><a xlink:href="classgko_1_1EnablePolymorphicAssignment.html" target="_top" xlink:title=" ">
<polygon fill="#ffffff" stroke="#000000" points="1282.5,-75 1282.5,-105 1474.5,-105 1474.5,-75 1282.5,-75"/>
<text text-anchor="start" x="1290.5" y="-93" font-family="Helvetica,sans-Serif" font-size="10.00" fill="#000000">gko::EnablePolymorphicAssignment</text>
<text text-anchor="middle" x="1378.5" y="-82" font-family="Helvetica,sans-Serif" font-size="10.00" fill="#000000">&lt; Dense&lt; ValueType &gt; &gt;</text>
</a>
</g>
</g>
<!-- Node10&#45;&gt;Node2 -->
<g id="edge11" class="edge">
<title>Node10&#45;&gt;Node2</title>
<path fill="none" stroke="#191970" d="M1484.843,-93.8123C1587.2173,-97.4823 1739.589,-102.9447 1830.9788,-106.2209"/>
<polygon fill="#191970" stroke="#191970" points="1484.9053,-90.3124 1474.7863,-93.4518 1484.6544,-97.3079 1484.9053,-90.3124"/>
</g>
<!-- Node11 -->
<g id="node11" class="node">
<title>Node11</title>
<g id="a_node11"><a xlink:href="classgko_1_1ConvertibleTo.html" target="_top" xlink:title=" ">
<polygon fill="#ffffff" stroke="#000000" points="926.5,-46 926.5,-76 1068.5,-76 1068.5,-46 926.5,-46"/>
<text text-anchor="start" x="934.5" y="-64" font-family="Helvetica,sans-Serif" font-size="10.00" fill="#000000">gko::ConvertibleTo</text>
<text text-anchor="middle" x="997.5" y="-53" font-family="Helvetica,sans-Serif" font-size="10.00" fill="#000000">&lt; Dense&lt; ValueType &gt; &gt;</text>
</a>
</g>
</g>
<!-- Node11&#45;&gt;Node10 -->
<g id="edge12" class="edge">
<title>Node11&#45;&gt;Node10</title>
<path fill="none" stroke="#191970" d="M1078.842,-67.1914C1138.4765,-71.7305 1219.6513,-77.9092 1282.4729,-82.6909"/>
<polygon fill="#191970" stroke="#191970" points="1078.9531,-63.6898 1068.7162,-66.4207 1078.4217,-70.6696 1078.9531,-63.6898"/>
</g>
<!-- Node12 -->
<g id="node12" class="node">
<title>Node12</title>
<g id="a_node12"><a xlink:href="classgko_1_1ConvertibleTo.html" target="_top" xlink:title="ConvertibleTo interface is used to mark that the implementer can be converted to the object of Result...">
<polygon fill="#ffffff" stroke="#000000" points="576,-74 576,-104 683,-104 683,-74 576,-74"/>
<text text-anchor="start" x="584" y="-92" font-family="Helvetica,sans-Serif" font-size="10.00" fill="#000000">gko::ConvertibleTo</text>
<text text-anchor="middle" x="629.5" y="-81" font-family="Helvetica,sans-Serif" font-size="10.00" fill="#000000">&lt; ResultType &gt;</text>
</a>
</g>
</g>
<!-- Node12&#45;&gt;Node11 -->
<g id="edge13" class="edge">
<title>Node12&#45;&gt;Node11</title>
<path fill="none" stroke="#ffa500" stroke-dasharray="5,2" d="M693.1163,-84.1596C758.0569,-79.2185 858.6538,-71.5644 926.2358,-66.4223"/>
<polygon fill="#ffa500" stroke="#ffa500" points="692.716,-80.6799 683.0104,-84.9286 693.2471,-87.6597 692.716,-80.6799"/>
<text text-anchor="middle" x="812.5" y="-83" font-family="Helvetica,sans-Serif" font-size="10.00" fill="#000000"> &lt; Dense&lt; ValueType &gt; &gt;</text>
</g>
<!-- Node13 -->
<g id="node13" class="node">
<title>Node13</title>
<g id="a_node13"><a xlink:href="classgko_1_1EnablePolymorphicAssignment.html" target="_top" xlink:title="This mixin is used to enable a default PolymorphicObject::copy_from() implementation for objects that...">
<polygon fill="#ffffff" stroke="#000000" points="901.5,-95 901.5,-125 1093.5,-125 1093.5,-95 901.5,-95"/>
<text text-anchor="start" x="909.5" y="-113" font-family="Helvetica,sans-Serif" font-size="10.00" fill="#000000">gko::EnablePolymorphicAssignment</text>
<text text-anchor="middle" x="997.5" y="-102" font-family="Helvetica,sans-Serif" font-size="10.00" fill="#000000">&lt; ConcreteType, ResultType &gt;</text>
</a>
</g>
</g>
<!-- Node12&#45;&gt;Node13 -->
<g id="edge15" class="edge">
<title>Node12&#45;&gt;Node13</title>
<path fill="none" stroke="#191970" d="M693.0372,-92.6258C750.436,-95.9012 835.7367,-100.7689 901.459,-104.5194"/>
<polygon fill="#191970" stroke="#191970" points="693.1936,-89.1291 683.0104,-92.0536 692.7947,-96.1177 693.1936,-89.1291"/>
</g>
<!-- Node18 -->
<g id="node18" class="node">
<title>Node18</title>
<g id="a_node18"><a xlink:href="classgko_1_1ConvertibleTo.html" target="_top" xlink:title=" ">
<polygon fill="#ffffff" stroke="#000000" points="928.5,-144 928.5,-174 1066.5,-174 1066.5,-144 928.5,-144"/>
<text text-anchor="start" x="936.5" y="-162" font-family="Helvetica,sans-Serif" font-size="10.00" fill="#000000">gko::ConvertibleTo</text>
<text text-anchor="middle" x="997.5" y="-151" font-family="Helvetica,sans-Serif" font-size="10.00" fill="#000000">&lt; ConcreteBatchLinOp &gt;</text>
</a>
</g>
</g>
<!-- Node12&#45;&gt;Node18 -->
<g id="edge24" class="edge">
<title>Node12&#45;&gt;Node18</title>
<path fill="none" stroke="#ffa500" stroke-dasharray="5,2" d="M693.3263,-102.8258C711.0128,-106.5588 730.2332,-110.5244 748,-114 808.7985,-125.8935 878.1626,-138.3116 928.2949,-147.0823"/>
<polygon fill="#ffa500" stroke="#ffa500" points="693.6212,-99.3106 683.1127,-100.6603 692.1692,-106.1584 693.6212,-99.3106"/>
<text text-anchor="middle" x="812.5" y="-140" font-family="Helvetica,sans-Serif" font-size="10.00" fill="#000000"> &lt; ConcreteBatchLinOp &gt;</text>
</g>
<!-- Node19 -->
<g id="node19" class="node">
<title>Node19</title>
<g id="a_node19"><a xlink:href="classgko_1_1ConvertibleTo.html" target="_top" xlink:title=" ">
<polygon fill="#ffffff" stroke="#000000" points="1118,-.5 1118,-41.5 1259,-41.5 1259,-.5 1118,-.5"/>
<text text-anchor="start" x="1126" y="-29.5" font-family="Helvetica,sans-Serif" font-size="10.00" fill="#000000">gko::ConvertibleTo</text>
<text text-anchor="start" x="1126" y="-18.5" font-family="Helvetica,sans-Serif" font-size="10.00" fill="#000000">&lt; Dense&lt; next_precision</text>
<text text-anchor="middle" x="1188.5" y="-7.5" font-family="Helvetica,sans-Serif" font-size="10.00" fill="#000000">&lt; ValueType &gt; &gt; &gt;</text>
</a>
</g>
</g>
<!-- Node12&#45;&gt;Node19 -->
<g id="edge27" class="edge">
<title>Node12&#45;&gt;Node19</title>
<path fill="none" stroke="#ffa500" stroke-dasharray="5,2" d="M671.4079,-69.9954C693.6867,-60.7823 721.8157,-50.5355 748,-45 876.3227,-17.8717 1030.082,-16.2984 1117.8237,-18.2299"/>
<polygon fill="#ffa500" stroke="#ffa500" points="669.7777,-66.8844 661.927,-73.999 672.5009,-73.3331 669.7777,-66.8844"/>
<text text-anchor="start" x="748.5" y="-59" font-family="Helvetica,sans-Serif" font-size="10.00" fill="#000000"> &lt; Dense&lt; next_precision</text>
<text text-anchor="middle" x="812.5" y="-48" font-family="Helvetica,sans-Serif" font-size="10.00" fill="#000000">&lt; ValueType &gt; &gt; &gt;</text>
</g>
<!-- Node13&#45;&gt;Node10 -->
<g id="edge14" class="edge">
<title>Node13&#45;&gt;Node10</title>
<path fill="none" stroke="#ffa500" stroke-dasharray="5,2" d="M1104.1142,-98.0334C1108.8038,-97.6537 1113.4485,-97.3062 1118,-97 1172.2809,-93.3486 1233.0449,-91.5831 1282.2248,-90.7373"/>
<polygon fill="#ffa500" stroke="#ffa500" points="1103.4617,-94.5762 1093.7949,-98.9125 1104.0559,-101.551 1103.4617,-94.5762"/>
<text text-anchor="middle" x="1188.5" y="-100" font-family="Helvetica,sans-Serif" font-size="10.00" fill="#000000"> &lt; Dense&lt; ValueType &gt; &gt;</text>
</g>
<!-- Node17 -->
<g id="node17" class="node">
<title>Node17</title>
<g id="a_node17"><a xlink:href="classgko_1_1EnablePolymorphicAssignment.html" target="_top" xlink:title=" ">
<polygon fill="#ffffff" stroke="#000000" points="1282.5,-140 1282.5,-170 1474.5,-170 1474.5,-140 1282.5,-140"/>
<text text-anchor="start" x="1290.5" y="-158" font-family="Helvetica,sans-Serif" font-size="10.00" fill="#000000">gko::EnablePolymorphicAssignment</text>
<text text-anchor="middle" x="1378.5" y="-147" font-family="Helvetica,sans-Serif" font-size="10.00" fill="#000000">&lt; ConcreteBatchLinOp &gt;</text>
</a>
</g>
</g>
<!-- Node13&#45;&gt;Node17 -->
<g id="edge25" class="edge">
<title>Node13&#45;&gt;Node17</title>
<path fill="none" stroke="#ffa500" stroke-dasharray="5,2" d="M1103.5999,-122.5315C1159.6459,-129.1511 1227.9082,-137.2136 1282.3884,-143.6482"/>
<polygon fill="#ffa500" stroke="#ffa500" points="1103.9839,-119.0526 1093.6424,-121.3554 1103.1628,-126.0043 1103.9839,-119.0526"/>
<text text-anchor="middle" x="1188.5" y="-144" font-family="Helvetica,sans-Serif" font-size="10.00" fill="#000000"> &lt; ConcreteBatchLinOp &gt;</text>
</g>
<!-- Node14 -->
<g id="node14" class="node">
<title>Node14</title>
<g id="a_node14"><a xlink:href="classgko_1_1batch_1_1EnableBatchLinOp.html" target="_top" xlink:title="The EnableBatchLinOp mixin can be used to provide sensible default implementations of the majority of...">
<polygon fill="#ffffff" stroke="#000000" points="1517,-156.5 1517,-197.5 1666,-197.5 1666,-156.5 1517,-156.5"/>
<text text-anchor="start" x="1525" y="-185.5" font-family="Helvetica,sans-Serif" font-size="10.00" fill="#000000">gko::batch::EnableBatchLin</text>
<text text-anchor="start" x="1525" y="-174.5" font-family="Helvetica,sans-Serif" font-size="10.00" fill="#000000">Op&lt; ConcreteBatchLinOp,</text>
<text text-anchor="middle" x="1591.5" y="-163.5" font-family="Helvetica,sans-Serif" font-size="10.00" fill="#000000"> PolymorphicBase &gt;</text>
</a>
</g>
</g>
<!-- Node14&#45;&gt;Node2 -->
<g id="edge16" class="edge">
<title>Node14&#45;&gt;Node2</title>
<path fill="none" stroke="#ffa500" stroke-dasharray="5,2" d="M1676.3265,-167.159C1717.8699,-161.4385 1768.4217,-153.1319 1813,-142 1832.0615,-137.24 1852.7235,-130.3286 1869.937,-124.0594"/>
<polygon fill="#ffa500" stroke="#ffa500" points="1675.6839,-163.7139 1666.2426,-168.5214 1676.6212,-170.6509 1675.6839,-163.7139"/>
<text text-anchor="middle" x="1748.5" y="-169" font-family="Helvetica,sans-Serif" font-size="10.00" fill="#000000"> &lt; Dense&lt; ValueType &gt; &gt;</text>
</g>
<!-- Node15&#45;&gt;Node14 -->
<g id="edge17" class="edge">
<title>Node15&#45;&gt;Node14</title>
<path fill="none" stroke="#191970" d="M1429.6277,-256.0363C1466.2994,-238.1308 1515.1054,-214.3007 1549.5055,-197.5044"/>
<polygon fill="#191970" stroke="#191970" points="1428.0324,-252.9202 1420.5819,-260.4529 1431.1037,-259.2105 1428.0324,-252.9202"/>
</g>
<!-- Node16&#45;&gt;Node15 -->
<g id="edge18" class="edge">
<title>Node16&#45;&gt;Node15</title>
<path fill="none" stroke="#191970" d="M727.2677,-321.4955C851.2483,-321.2614 1071.4703,-317.9659 1259,-300 1266.319,-299.2988 1273.8704,-298.4342 1281.4538,-297.464"/>
<polygon fill="#191970" stroke="#191970" points="727.0382,-317.9956 717.0426,-321.5082 727.047,-324.9956 727.0382,-317.9956"/>
</g>
<!-- Node17&#45;&gt;Node14 -->
<g id="edge22" class="edge">
<title>Node17&#45;&gt;Node14</title>
<path fill="none" stroke="#191970" d="M1484.6673,-165.9656C1495.5165,-167.0862 1506.3704,-168.2073 1516.7785,-169.2823"/>
<polygon fill="#191970" stroke="#191970" points="1485.0246,-162.484 1474.7179,-164.938 1484.3053,-169.447 1485.0246,-162.484"/>
</g>
<!-- Node18&#45;&gt;Node17 -->
<g id="edge23" class="edge">
<title>Node18&#45;&gt;Node17</title>
<path fill="none" stroke="#191970" d="M1077.0734,-158.1646C1136.8087,-157.5374 1218.8762,-156.6758 1282.297,-156.01"/>
<polygon fill="#191970" stroke="#191970" points="1076.9009,-154.6661 1066.9383,-158.271 1076.9745,-161.6657 1076.9009,-154.6661"/>
</g>
<!-- Node19&#45;&gt;Node1 -->
<g id="edge26" class="edge">
<title>Node19&#45;&gt;Node1</title>
<path fill="none" stroke="#191970" d="M1269.458,-25.8492C1331.9884,-29.1789 1420.6953,-33 1498.5,-33 1498.5,-33 1498.5,-33 1908.5,-33 1946.672,-33 1989.0236,-38.7713 2022.7264,-44.768"/>
<polygon fill="#191970" stroke="#191970" points="1269.4389,-22.3431 1259.2646,-25.2984 1269.0612,-29.3329 1269.4389,-22.3431"/>
</g>
</g>
</svg>
