<?xml version="1.0" encoding="UTF-8" standalone="no"?>
<!DOCTYPE svg PUBLIC "-//W3C//DTD SVG 1.1//EN"
 "http://www.w3.org/Graphics/SVG/1.1/DTD/svg11.dtd">
<!-- Generated by graphviz version 2.40.1 (20161225.0304)
 -->
<!-- Title: gko::matrix::Sellp&lt; ValueType, IndexType &gt; Pages: 1 -->
<!--zoomable 506 -->
<svg id="main" version="1.1" xmlns="http://www.w3.org/2000/svg" xmlns:xlink="http://www.w3.org/1999/xlink" xml:space="preserve" onload="init(evt)">
<style type="text/css"><![CDATA[
.edge:hover path { stroke: red; }
.edge:hover polygon { stroke: red; fill: red; }
]]></style>
<script type="text/javascript"><![CDATA[
var edges = document.getElementsByTagName('g');
if (edges && edges.length) {
  for (var i=0;i<edges.length;i++) {
    if (edges[i].id.substr(0,4)=='edge') {
      edges[i].setAttribute('class','edge');
    }
  }
}
]]></script>
        <defs>
                <circle id="rim" cx="0" cy="0" r="7"/>
                <circle id="rim2" cx="0" cy="0" r="3.5"/>
                <g id="zoomPlus">
                        <use xlink:href="#rim" fill="#404040">
                                <set attributeName="fill" to="#808080" begin="zoomplus.mouseover" end="zoomplus.mouseout"/>
                        </use>
                        <path d="M-4,0h8M0,-4v8" fill="none" stroke="white" stroke-width="1.5" pointer-events="none"/>
                </g>
                <g id="zoomMin">
                        <use xlink:href="#rim" fill="#404040">
                                <set attributeName="fill" to="#808080" begin="zoomminus.mouseover" end="zoomminus.mouseout"/>
                        </use>
                        <path d="M-4,0h8" fill="none" stroke="white" stroke-width="1.5" pointer-events="none"/>
                </g>
                <g id="dirArrow">
                        <path fill="none" stroke="white" stroke-width="1.5" d="M0,-3.0v7 M-2.5,-0.5L0,-3.0L2.5,-0.5"/>
                </g>
               <g id="resetDef">
                       <use xlink:href="#rim2" fill="#404040">
                               <set attributeName="fill" to="#808080" begin="reset.mouseover" end="reset.mouseout"/>
                       </use>
               </g>
        </defs>

<script type="text/javascript">
var viewWidth = 2504;
var viewHeight = 506;
var sectionId = 'dynsection-0';
</script>
<script xlink:href="svgpan.js"/>
<svg id="graph" class="graph">
<g id="viewport">
<title>gko::matrix::Sellp&lt; ValueType, IndexType &gt;</title>
<polygon fill="#ffffff" stroke="transparent" points="-4,4 -4,-502.4489 2500,-502.4489 2500,4 -4,4"/>
<!-- Node1 -->
<g id="node1" class="node">
<title>Node1</title>
<g id="a_node1"><a xlink:title="SELL&#45;P is a matrix format similar to ELL format.">
<polygon fill="#bfbfbf" stroke="#000000" points="2352,-246.5 2352,-276.5 2496,-276.5 2496,-246.5 2352,-246.5"/>
<text text-anchor="start" x="2360" y="-264.5" font-family="Helvetica,sans-Serif" font-size="10.00" fill="#000000">gko::matrix::Sellp</text>
<text text-anchor="middle" x="2424" y="-253.5" font-family="Helvetica,sans-Serif" font-size="10.00" fill="#000000">&lt; ValueType, IndexType &gt;</text>
</a>
</g>
</g>
<!-- Node2 -->
<g id="node2" class="node">
<title>Node2</title>
<g id="a_node2"><a xlink:href="classgko_1_1EnableLinOp.html" target="_top" xlink:title=" ">
<polygon fill="#ffffff" stroke="#000000" points="2131.5,-295.5 2131.5,-325.5 2286.5,-325.5 2286.5,-295.5 2131.5,-295.5"/>
<text text-anchor="start" x="2139.5" y="-313.5" font-family="Helvetica,sans-Serif" font-size="10.00" fill="#000000">gko::EnableLinOp&lt; Sellp</text>
<text text-anchor="middle" x="2209" y="-302.5" font-family="Helvetica,sans-Serif" font-size="10.00" fill="#000000">&lt; ValueType, IndexType &gt; &gt;</text>
</a>
</g>
</g>
<!-- Node2&#45;&gt;Node1 -->
<g id="edge1" class="edge">
<title>Node2&#45;&gt;Node1</title>
<path fill="none" stroke="#191970" d="M2285.3601,-293.2378C2295.3317,-290.9757 2305.4106,-288.6853 2315,-286.5 2329.1026,-283.2862 2344.2283,-279.8257 2358.5872,-276.5342"/>
<polygon fill="#191970" stroke="#191970" points="2284.425,-289.8609 2275.4465,-295.4855 2285.9729,-296.6876 2284.425,-289.8609"/>
</g>
<!-- Node3 -->
<g id="node3" class="node">
<title>Node3</title>
<g id="a_node3"><a xlink:href="classgko_1_1EnablePolymorphicObject.html" target="_top" xlink:title=" ">
<polygon fill="#ffffff" stroke="#000000" points="1711.5,-205 1711.5,-246 1879.5,-246 1879.5,-205 1711.5,-205"/>
<text text-anchor="start" x="1719.5" y="-234" font-family="Helvetica,sans-Serif" font-size="10.00" fill="#000000">gko::EnablePolymorphicObject</text>
<text text-anchor="start" x="1719.5" y="-223" font-family="Helvetica,sans-Serif" font-size="10.00" fill="#000000">&lt; Sellp&lt; ValueType, IndexType</text>
<text text-anchor="middle" x="1795.5" y="-212" font-family="Helvetica,sans-Serif" font-size="10.00" fill="#000000"> &gt;, LinOp &gt;</text>
</a>
</g>
</g>
<!-- Node3&#45;&gt;Node2 -->
<g id="edge2" class="edge">
<title>Node3&#45;&gt;Node2</title>
<path fill="none" stroke="#191970" d="M1889.8718,-217.9005C1949.7763,-217.457 2026.7068,-225.3365 2085,-260.5 2097.0346,-267.7595 2091.3525,-278.6344 2103,-286.5 2111.6004,-292.3078 2121.398,-296.7279 2131.4814,-300.0884"/>
<polygon fill="#191970" stroke="#191970" points="1889.5981,-214.4042 1879.6531,-218.0573 1889.7056,-221.4033 1889.5981,-214.4042"/>
</g>
<!-- Node4 -->
<g id="node4" class="node">
<title>Node4</title>
<g id="a_node4"><a xlink:href="classgko_1_1EnableAbstractPolymorphicObject.html" target="_top" xlink:title=" ">
<polygon fill="#ffffff" stroke="#000000" points="1340,-47 1340,-88 1515,-88 1515,-47 1340,-47"/>
<text text-anchor="start" x="1348" y="-76" font-family="Helvetica,sans-Serif" font-size="10.00" fill="#000000">gko::EnableAbstractPolymorphic</text>
<text text-anchor="start" x="1348" y="-65" font-family="Helvetica,sans-Serif" font-size="10.00" fill="#000000">Object&lt; Sellp&lt; ValueType,</text>
<text text-anchor="middle" x="1427.5" y="-54" font-family="Helvetica,sans-Serif" font-size="10.00" fill="#000000"> IndexType &gt;, LinOp &gt;</text>
</a>
</g>
</g>
<!-- Node4&#45;&gt;Node3 -->
<g id="edge3" class="edge">
<title>Node4&#45;&gt;Node3</title>
<path fill="none" stroke="#191970" d="M1525.187,-72.3276C1589.0614,-77.5457 1664.8042,-88.3272 1688,-110.5 1715.9139,-137.1828 1680.3053,-166.6739 1706,-195.5 1709.1623,-199.0477 1712.7566,-202.1766 1716.6446,-204.936"/>
<polygon fill="#191970" stroke="#191970" points="1525.2892,-68.825 1515.0474,-71.537 1524.745,-75.8038 1525.2892,-68.825"/>
</g>
<!-- Node5 -->
<g id="node5" class="node">
<title>Node5</title>
<g id="a_node5"><a xlink:href="classgko_1_1LinOp.html" target="_top" xlink:title=" ">
<polygon fill="#ffffff" stroke="#000000" points="985.5,-63 985.5,-82 1053.5,-82 1053.5,-63 985.5,-63"/>
<text text-anchor="middle" x="1019.5" y="-70" font-family="Helvetica,sans-Serif" font-size="10.00" fill="#000000">gko::LinOp</text>
</a>
</g>
</g>
<!-- Node5&#45;&gt;Node4 -->
<g id="edge4" class="edge">
<title>Node5&#45;&gt;Node4</title>
<path fill="none" stroke="#191970" d="M1063.6219,-71.9593C1129.4386,-71.1527 1254.6694,-69.618 1339.6204,-68.577"/>
<polygon fill="#191970" stroke="#191970" points="1063.5404,-68.4599 1053.5841,-72.0823 1063.6263,-75.4594 1063.5404,-68.4599"/>
</g>
<!-- Node6 -->
<g id="node6" class="node">
<title>Node6</title>
<g id="a_node6"><a xlink:href="classgko_1_1EnableAbstractPolymorphicObject.html" target="_top" xlink:title=" ">
<polygon fill="#ffffff" stroke="#ff0000" points="542,-60.5 542,-90.5 717,-90.5 717,-60.5 542,-60.5"/>
<text text-anchor="start" x="550" y="-78.5" font-family="Helvetica,sans-Serif" font-size="10.00" fill="#000000">gko::EnableAbstractPolymorphic</text>
<text text-anchor="middle" x="629.5" y="-67.5" font-family="Helvetica,sans-Serif" font-size="10.00" fill="#000000">Object&lt; LinOp &gt;</text>
</a>
</g>
</g>
<!-- Node6&#45;&gt;Node5 -->
<g id="edge5" class="edge">
<title>Node6&#45;&gt;Node5</title>
<path fill="none" stroke="#191970" d="M727.1193,-74.7491C811.2777,-74.1017 927.9924,-73.2039 985.1613,-72.7641"/>
<polygon fill="#191970" stroke="#191970" points="726.9964,-71.2498 717.0236,-74.8267 727.0503,-78.2496 726.9964,-71.2498"/>
</g>
<!-- Node12 -->
<g id="node7" class="node">
<title>Node12</title>
<g id="a_node7"><a xlink:href="classgko_1_1EnableAbstractPolymorphicObject.html" target="_top" xlink:title="This mixin inherits from (a subclass of) PolymorphicObject and provides a base implementation of a ne...">
<polygon fill="#ffffff" stroke="#000000" points="138,-83 138,-124 336,-124 336,-83 138,-83"/>
<text text-anchor="start" x="146" y="-112" font-family="Helvetica,sans-Serif" font-size="10.00" fill="#000000">gko::EnableAbstractPolymorphic</text>
<text text-anchor="start" x="146" y="-101" font-family="Helvetica,sans-Serif" font-size="10.00" fill="#000000">Object&lt; AbstractObject, Polymorphic</text>
<text text-anchor="middle" x="237" y="-90" font-family="Helvetica,sans-Serif" font-size="10.00" fill="#000000">Base &gt;</text>
</a>
</g>
</g>
<!-- Node12&#45;&gt;Node4 -->
<g id="edge8" class="edge">
<title>Node12&#45;&gt;Node4</title>
<path fill="none" stroke="#ffa500" stroke-dasharray="5,2" d="M290.8916,-79.1908C310.3807,-71.4903 332.8093,-63.855 354,-59.5 430.265,-43.8262 451.1867,-54.1665 529,-51.5 792.4024,-42.4737 858.6391,-43.3326 1122,-53.5 1195.4803,-56.3368 1278.8718,-60.2019 1339.9428,-63.1523"/>
<polygon fill="#ffa500" stroke="#ffa500" points="289.5338,-75.9645 281.5787,-82.9621 292.1613,-82.4527 289.5338,-75.9645"/>
<text text-anchor="start" x="769" y="-59.5" font-family="Helvetica,sans-Serif" font-size="10.00" fill="#000000"> &lt; Sellp&lt; ValueType,</text>
<text text-anchor="middle" x="823.5" y="-48.5" font-family="Helvetica,sans-Serif" font-size="10.00" fill="#000000"> IndexType &gt;, LinOp &gt;</text>
</g>
<!-- Node12&#45;&gt;Node6 -->
<g id="edge6" class="edge">
<title>Node12&#45;&gt;Node6</title>
<path fill="none" stroke="#ffa500" stroke-dasharray="5,2" d="M307.484,-80.2573C322.6639,-76.2023 338.737,-72.6113 354,-70.5 416.4318,-61.864 487.5725,-63.4413 541.9222,-67.0068"/>
<polygon fill="#ffa500" stroke="#ffa500" points="306.3589,-76.937 297.6551,-82.9781 308.2265,-83.6833 306.3589,-76.937"/>
<text text-anchor="middle" x="432.5" y="-73.5" font-family="Helvetica,sans-Serif" font-size="10.00" fill="#000000"> &lt; LinOp &gt;</text>
</g>
<!-- Node14 -->
<g id="node10" class="node">
<title>Node14</title>
<g id="a_node10"><a xlink:href="classgko_1_1EnableAbstractPolymorphicObject.html" target="_top" xlink:title=" ">
<polygon fill="#ffffff" stroke="#000000" points="529,-113 529,-154 730,-154 730,-113 529,-113"/>
<text text-anchor="start" x="537" y="-142" font-family="Helvetica,sans-Serif" font-size="10.00" fill="#000000">gko::EnableAbstractPolymorphic</text>
<text text-anchor="start" x="537" y="-131" font-family="Helvetica,sans-Serif" font-size="10.00" fill="#000000">Object&lt; ConcreteObject, Polymorphic</text>
<text text-anchor="middle" x="629.5" y="-120" font-family="Helvetica,sans-Serif" font-size="10.00" fill="#000000">Base &gt;</text>
</a>
</g>
</g>
<!-- Node12&#45;&gt;Node14 -->
<g id="edge12" class="edge">
<title>Node12&#45;&gt;Node14</title>
<path fill="none" stroke="#ffa500" stroke-dasharray="5,2" d="M346.5215,-98.0022C396.8055,-96.9883 457.1079,-97.9017 511,-104.5 526.1366,-106.3533 542.1324,-109.458 557.3067,-112.9637"/>
<polygon fill="#ffa500" stroke="#ffa500" points="346.1936,-94.5087 336.2768,-98.2379 346.3547,-101.5068 346.1936,-94.5087"/>
<text text-anchor="start" x="354" y="-118.5" font-family="Helvetica,sans-Serif" font-size="10.00" fill="#000000"> &lt; ConcreteObject, Polymorphic</text>
<text text-anchor="middle" x="432.5" y="-107.5" font-family="Helvetica,sans-Serif" font-size="10.00" fill="#000000">Base &gt;</text>
</g>
<!-- Node21 -->
<g id="node17" class="node">
<title>Node21</title>
<g id="a_node17"><a xlink:href="classgko_1_1EnableAbstractPolymorphicObject.html" target="_top" xlink:title=" ">
<polygon fill="#ffffff" stroke="#000000" points="531,-174 531,-215 728,-215 728,-174 531,-174"/>
<text text-anchor="start" x="539" y="-203" font-family="Helvetica,sans-Serif" font-size="10.00" fill="#000000">gko::EnableAbstractPolymorphic</text>
<text text-anchor="start" x="539" y="-192" font-family="Helvetica,sans-Serif" font-size="10.00" fill="#000000">Object&lt; ConcreteLinOp, Polymorphic</text>
<text text-anchor="middle" x="629.5" y="-181" font-family="Helvetica,sans-Serif" font-size="10.00" fill="#000000">Base &gt;</text>
</a>
</g>
</g>
<!-- Node12&#45;&gt;Node21 -->
<g id="edge22" class="edge">
<title>Node12&#45;&gt;Node21</title>
<path fill="none" stroke="#ffa500" stroke-dasharray="5,2" d="M335.5408,-126.3464C398.6456,-140.9771 479.8463,-159.8032 540.9092,-173.9605"/>
<polygon fill="#ffa500" stroke="#ffa500" points="336.1062,-122.8847 325.5741,-124.0356 334.5251,-129.7038 336.1062,-122.8847"/>
<text text-anchor="start" x="356" y="-178.5" font-family="Helvetica,sans-Serif" font-size="10.00" fill="#000000"> &lt; ConcreteLinOp, Polymorphic</text>
<text text-anchor="middle" x="432.5" y="-167.5" font-family="Helvetica,sans-Serif" font-size="10.00" fill="#000000">Base &gt;</text>
</g>
<!-- Node11 -->
<g id="node8" class="node">
<title>Node11</title>
<g id="a_node8"><a xlink:title=" ">
<polygon fill="#ffffff" stroke="#bfbfbf" points="0,-176 0,-195 101,-195 101,-176 0,-176"/>
<text text-anchor="middle" x="50.5" y="-183" font-family="Helvetica,sans-Serif" font-size="10.00" fill="#000000">PolymorphicBase</text>
</a>
</g>
</g>
<!-- Node11&#45;&gt;Node12 -->
<g id="edge7" class="edge">
<title>Node11&#45;&gt;Node12</title>
<path fill="none" stroke="#191970" d="M81.6749,-171.7931C111.2807,-158.7761 156.181,-139.0344 190.1047,-124.1189"/>
<polygon fill="#191970" stroke="#191970" points="80.0044,-168.7041 72.2589,-175.9331 82.8219,-175.1121 80.0044,-168.7041"/>
</g>
<!-- Node11&#45;&gt;Node14 -->
<g id="edge11" class="edge">
<title>Node11&#45;&gt;Node14</title>
<path fill="none" stroke="#191970" d="M111.3939,-190.1499C200.253,-195.4771 370.1997,-200.1357 511,-171.5 519.4115,-169.7893 520.8936,-167.3224 529,-164.5 539.1739,-160.9578 549.9963,-157.4017 560.6281,-154.0263"/>
<polygon fill="#191970" stroke="#191970" points="111.4257,-186.6452 101.2272,-189.516 110.99,-193.6316 111.4257,-186.6452"/>
</g>
<!-- Node11&#45;&gt;Node21 -->
<g id="edge21" class="edge">
<title>Node11&#45;&gt;Node21</title>
<path fill="none" stroke="#191970" d="M100.0089,-196.844C106.37,-197.9398 112.8183,-198.8748 119,-199.5 292.3378,-217.0321 336.8165,-203.1731 511,-199.5 517.4848,-199.3633 524.1679,-199.1845 530.9023,-198.976"/>
<polygon fill="#191970" stroke="#191970" points="100.6063,-193.3952 90.1355,-195.0111 99.3286,-200.2776 100.6063,-193.3952"/>
</g>
<!-- Node13 -->
<g id="node9" class="node">
<title>Node13</title>
<g id="a_node9"><a xlink:href="classgko_1_1EnablePolymorphicObject.html" target="_top" xlink:title="This mixin inherits from (a subclass of) PolymorphicObject and provides a base implementation of a ne...">
<polygon fill="#ffffff" stroke="#000000" points="917,-118.5 917,-148.5 1122,-148.5 1122,-118.5 917,-118.5"/>
<text text-anchor="start" x="925" y="-136.5" font-family="Helvetica,sans-Serif" font-size="10.00" fill="#000000">gko::EnablePolymorphicObject</text>
<text text-anchor="middle" x="1019.5" y="-125.5" font-family="Helvetica,sans-Serif" font-size="10.00" fill="#000000">&lt; ConcreteObject, PolymorphicBase &gt;</text>
</a>
</g>
</g>
<!-- Node13&#45;&gt;Node3 -->
<g id="edge9" class="edge">
<title>Node13&#45;&gt;Node3</title>
<path fill="none" stroke="#ffa500" stroke-dasharray="5,2" d="M1132.2177,-128.2698C1235.8109,-125.4813 1393.2651,-126.3483 1528,-148.5 1566.8645,-154.8897 1664.6849,-184.3591 1730.6284,-204.9273"/>
<polygon fill="#ffa500" stroke="#ffa500" points="1131.9469,-124.776 1122.0509,-128.5599 1132.1466,-131.7732 1131.9469,-124.776"/>
<text text-anchor="start" x="1373" y="-162.5" font-family="Helvetica,sans-Serif" font-size="10.00" fill="#000000"> &lt; Sellp&lt; ValueType,</text>
<text text-anchor="middle" x="1427.5" y="-151.5" font-family="Helvetica,sans-Serif" font-size="10.00" fill="#000000"> IndexType &gt;, LinOp &gt;</text>
</g>
<!-- Node20 -->
<g id="node16" class="node">
<title>Node20</title>
<g id="a_node16"><a xlink:href="classgko_1_1EnablePolymorphicObject.html" target="_top" xlink:title=" ">
<polygon fill="#ffffff" stroke="#000000" points="1327,-179.5 1327,-209.5 1528,-209.5 1528,-179.5 1327,-179.5"/>
<text text-anchor="start" x="1335" y="-197.5" font-family="Helvetica,sans-Serif" font-size="10.00" fill="#000000">gko::EnablePolymorphicObject</text>
<text text-anchor="middle" x="1427.5" y="-186.5" font-family="Helvetica,sans-Serif" font-size="10.00" fill="#000000">&lt; ConcreteLinOp, PolymorphicBase &gt;</text>
</a>
</g>
</g>
<!-- Node13&#45;&gt;Node20 -->
<g id="edge23" class="edge">
<title>Node13&#45;&gt;Node20</title>
<path fill="none" stroke="#ffa500" stroke-dasharray="5,2" d="M1132.3085,-137.7654C1186.1621,-141.1928 1251.2962,-147.3701 1309,-158.5 1334.8625,-163.4883 1363.1075,-171.9459 1385.5331,-179.4102"/>
<polygon fill="#ffa500" stroke="#ffa500" points="1132.237,-134.2545 1122.0417,-137.1363 1131.8089,-141.2414 1132.237,-134.2545"/>
<text text-anchor="start" x="1148" y="-172.5" font-family="Helvetica,sans-Serif" font-size="10.00" fill="#000000"> &lt; ConcreteLinOp, Polymorphic</text>
<text text-anchor="middle" x="1224.5" y="-161.5" font-family="Helvetica,sans-Serif" font-size="10.00" fill="#000000">Base &gt;</text>
</g>
<!-- Node14&#45;&gt;Node13 -->
<g id="edge10" class="edge">
<title>Node14&#45;&gt;Node13</title>
<path fill="none" stroke="#191970" d="M740.4069,-133.5C795.8628,-133.5 862.5426,-133.5 916.818,-133.5"/>
<polygon fill="#191970" stroke="#191970" points="740.1882,-130.0001 730.1882,-133.5 740.1882,-137.0001 740.1882,-130.0001"/>
</g>
<!-- Node15 -->
<g id="node11" class="node">
<title>Node15</title>
<g id="a_node11"><a xlink:href="classgko_1_1EnablePolymorphicAssignment.html" target="_top" xlink:title=" ">
<polygon fill="#ffffff" stroke="#000000" points="1331.5,-259.5 1331.5,-289.5 1523.5,-289.5 1523.5,-259.5 1331.5,-259.5"/>
<text text-anchor="start" x="1339.5" y="-277.5" font-family="Helvetica,sans-Serif" font-size="10.00" fill="#000000">gko::EnablePolymorphicAssignment</text>
<text text-anchor="middle" x="1427.5" y="-266.5" font-family="Helvetica,sans-Serif" font-size="10.00" fill="#000000">&lt; Sellp&lt; ValueType, IndexType &gt; &gt;</text>
</a>
</g>
</g>
<!-- Node15&#45;&gt;Node2 -->
<g id="edge13" class="edge">
<title>Node15&#45;&gt;Node2</title>
<path fill="none" stroke="#191970" d="M1534.1347,-278.9909C1626.8606,-282.9368 1764.8206,-288.9058 1885,-294.5 1969.2458,-298.4216 2065.7967,-303.2301 2131.4295,-306.546"/>
<polygon fill="#191970" stroke="#191970" points="1534.0403,-275.4838 1523.9006,-278.5558 1533.7429,-282.4775 1534.0403,-275.4838"/>
</g>
<!-- Node16 -->
<g id="node12" class="node">
<title>Node16</title>
<g id="a_node12"><a xlink:href="classgko_1_1ConvertibleTo.html" target="_top" xlink:title=" ">
<polygon fill="#ffffff" stroke="#000000" points="961.5,-223 961.5,-264 1077.5,-264 1077.5,-223 961.5,-223"/>
<text text-anchor="start" x="969.5" y="-252" font-family="Helvetica,sans-Serif" font-size="10.00" fill="#000000">gko::ConvertibleTo</text>
<text text-anchor="start" x="969.5" y="-241" font-family="Helvetica,sans-Serif" font-size="10.00" fill="#000000">&lt; Sellp&lt; ValueType,</text>
<text text-anchor="middle" x="1019.5" y="-230" font-family="Helvetica,sans-Serif" font-size="10.00" fill="#000000"> IndexType &gt; &gt;</text>
</a>
</g>
</g>
<!-- Node16&#45;&gt;Node15 -->
<g id="edge14" class="edge">
<title>Node16&#45;&gt;Node15</title>
<path fill="none" stroke="#191970" d="M1087.8996,-248.697C1154.4978,-253.7572 1256.3364,-261.4949 1331.1287,-267.1777"/>
<polygon fill="#191970" stroke="#191970" points="1087.7596,-245.1764 1077.5232,-247.9086 1087.2292,-252.1563 1087.7596,-245.1764"/>
</g>
<!-- Node17 -->
<g id="node13" class="node">
<title>Node17</title>
<g id="a_node13"><a xlink:href="classgko_1_1ConvertibleTo.html" target="_top" xlink:title="ConvertibleTo interface is used to mark that the implementer can be converted to the object of Result...">
<polygon fill="#ffffff" stroke="#000000" points="576,-371.5 576,-401.5 683,-401.5 683,-371.5 576,-371.5"/>
<text text-anchor="start" x="584" y="-389.5" font-family="Helvetica,sans-Serif" font-size="10.00" fill="#000000">gko::ConvertibleTo</text>
<text text-anchor="middle" x="629.5" y="-378.5" font-family="Helvetica,sans-Serif" font-size="10.00" fill="#000000">&lt; ResultType &gt;</text>
</a>
</g>
</g>
<!-- Node17&#45;&gt;Node16 -->
<g id="edge15" class="edge">
<title>Node17&#45;&gt;Node16</title>
<path fill="none" stroke="#ffa500" stroke-dasharray="5,2" d="M651.7835,-364.498C674.188,-343.6867 710.6713,-313.2223 748,-296.5 817.3583,-265.4292 904.7144,-252.5194 961.3135,-247.1906"/>
<polygon fill="#ffa500" stroke="#ffa500" points="649.3273,-362.0037 644.4676,-371.4183 654.1376,-367.089 649.3273,-362.0037"/>
<text text-anchor="start" x="772" y="-310.5" font-family="Helvetica,sans-Serif" font-size="10.00" fill="#000000"> &lt; Sellp&lt; ValueType,</text>
<text text-anchor="middle" x="823.5" y="-299.5" font-family="Helvetica,sans-Serif" font-size="10.00" fill="#000000"> IndexType &gt; &gt;</text>
</g>
<!-- Node18 -->
<g id="node14" class="node">
<title>Node18</title>
<g id="a_node14"><a xlink:href="classgko_1_1EnablePolymorphicAssignment.html" target="_top" xlink:title="This mixin is used to enable a default PolymorphicObject::copy_from() implementation for objects that...">
<polygon fill="#ffffff" stroke="#000000" points="923.5,-283.5 923.5,-313.5 1115.5,-313.5 1115.5,-283.5 923.5,-283.5"/>
<text text-anchor="start" x="931.5" y="-301.5" font-family="Helvetica,sans-Serif" font-size="10.00" fill="#000000">gko::EnablePolymorphicAssignment</text>
<text text-anchor="middle" x="1019.5" y="-290.5" font-family="Helvetica,sans-Serif" font-size="10.00" fill="#000000">&lt; ConcreteType, ResultType &gt;</text>
</a>
</g>
</g>
<!-- Node17&#45;&gt;Node18 -->
<g id="edge17" class="edge">
<title>Node17&#45;&gt;Node18</title>
<path fill="none" stroke="#191970" d="M692.7583,-369.3398C710.5802,-364.6718 730.0118,-359.7385 748,-355.5 813.5137,-340.0633 888.4082,-324.4941 942.918,-313.5372"/>
<polygon fill="#191970" stroke="#191970" points="691.8205,-365.9673 683.0423,-371.8997 693.604,-372.7363 691.8205,-365.9673"/>
</g>
<!-- Node23 -->
<g id="node19" class="node">
<title>Node23</title>
<g id="a_node19"><a xlink:href="classgko_1_1ConvertibleTo.html" target="_top" xlink:title=" ">
<polygon fill="#ffffff" stroke="#000000" points="964.5,-332.5 964.5,-362.5 1074.5,-362.5 1074.5,-332.5 964.5,-332.5"/>
<text text-anchor="start" x="972.5" y="-350.5" font-family="Helvetica,sans-Serif" font-size="10.00" fill="#000000">gko::ConvertibleTo</text>
<text text-anchor="middle" x="1019.5" y="-339.5" font-family="Helvetica,sans-Serif" font-size="10.00" fill="#000000">&lt; ConcreteLinOp &gt;</text>
</a>
</g>
</g>
<!-- Node17&#45;&gt;Node23 -->
<g id="edge26" class="edge">
<title>Node17&#45;&gt;Node23</title>
<path fill="none" stroke="#ffa500" stroke-dasharray="5,2" d="M693.3945,-380.0084C711.0812,-378.2172 730.2848,-376.2778 748,-374.5 822.9386,-366.9794 909.5225,-358.3854 964.378,-352.9524"/>
<polygon fill="#ffa500" stroke="#ffa500" points="692.7749,-376.5532 683.1787,-381.0435 693.4807,-383.5175 692.7749,-376.5532"/>
<text text-anchor="middle" x="823.5" y="-377.5" font-family="Helvetica,sans-Serif" font-size="10.00" fill="#000000"> &lt; ConcreteLinOp &gt;</text>
</g>
<!-- Node26 -->
<g id="node22" class="node">
<title>Node26</title>
<g id="a_node22"><a xlink:href="classgko_1_1ConvertibleTo.html" target="_top" xlink:title=" ">
<polygon fill="#ffffff" stroke="#000000" points="1141,-416 1141,-457 1308,-457 1308,-416 1141,-416"/>
<text text-anchor="start" x="1149" y="-445" font-family="Helvetica,sans-Serif" font-size="10.00" fill="#000000">gko::ConvertibleTo</text>
<text text-anchor="start" x="1149" y="-434" font-family="Helvetica,sans-Serif" font-size="10.00" fill="#000000">&lt; Sellp&lt; next_precision</text>
<text text-anchor="middle" x="1224.5" y="-423" font-family="Helvetica,sans-Serif" font-size="10.00" fill="#000000">&lt; ValueType &gt;, IndexType &gt; &gt;</text>
</a>
</g>
</g>
<!-- Node17&#45;&gt;Node26 -->
<g id="edge31" class="edge">
<title>Node17&#45;&gt;Node26</title>
<path fill="none" stroke="#ffa500" stroke-dasharray="5,2" d="M693.2765,-403.1928C710.8912,-407.2107 730.0879,-411.0465 748,-413.5 884.6229,-432.2139 1045.0926,-436.3143 1140.597,-436.894"/>
<polygon fill="#ffa500" stroke="#ffa500" points="693.644,-399.6843 683.1096,-400.8151 692.0499,-406.5004 693.644,-399.6843"/>
<text text-anchor="start" x="748" y="-441.5" font-family="Helvetica,sans-Serif" font-size="10.00" fill="#000000"> &lt; Sellp&lt; next_precision</text>
<text text-anchor="middle" x="823.5" y="-430.5" font-family="Helvetica,sans-Serif" font-size="10.00" fill="#000000">&lt; ValueType &gt;, IndexType &gt; &gt;</text>
</g>
<!-- Node27 -->
<g id="node23" class="node">
<title>Node27</title>
<g id="a_node23"><a xlink:href="classgko_1_1ConvertibleTo.html" target="_top" xlink:title=" ">
<polygon fill="#ffffff" stroke="#000000" points="1546,-374.5 1546,-404.5 1688,-404.5 1688,-374.5 1546,-374.5"/>
<text text-anchor="start" x="1554" y="-392.5" font-family="Helvetica,sans-Serif" font-size="10.00" fill="#000000">gko::ConvertibleTo</text>
<text text-anchor="middle" x="1617" y="-381.5" font-family="Helvetica,sans-Serif" font-size="10.00" fill="#000000">&lt; Dense&lt; ValueType &gt; &gt;</text>
</a>
</g>
</g>
<!-- Node17&#45;&gt;Node27 -->
<g id="edge33" class="edge">
<title>Node17&#45;&gt;Node27</title>
<path fill="none" stroke="#ffa500" stroke-dasharray="5,2" d="M693.4422,-386.6943C869.6276,-387.2295 1361.236,-388.723 1545.786,-389.2837"/>
<polygon fill="#ffa500" stroke="#ffa500" points="693.3042,-383.1939 683.2936,-386.6634 693.2829,-390.1939 693.3042,-383.1939"/>
<text text-anchor="middle" x="1019.5" y="-390.5" font-family="Helvetica,sans-Serif" font-size="10.00" fill="#000000"> &lt; Dense&lt; ValueType &gt; &gt;</text>
</g>
<!-- Node28 -->
<g id="node24" class="node">
<title>Node28</title>
<g id="a_node24"><a xlink:href="classgko_1_1ConvertibleTo.html" target="_top" xlink:title=" ">
<polygon fill="#ffffff" stroke="#000000" points="1903,-463.5 1903,-493.5 2085,-493.5 2085,-463.5 1903,-463.5"/>
<text text-anchor="start" x="1911" y="-481.5" font-family="Helvetica,sans-Serif" font-size="10.00" fill="#000000">gko::ConvertibleTo</text>
<text text-anchor="middle" x="1994" y="-470.5" font-family="Helvetica,sans-Serif" font-size="10.00" fill="#000000">&lt; Csr&lt; ValueType, IndexType &gt; &gt;</text>
</a>
</g>
</g>
<!-- Node17&#45;&gt;Node28 -->
<g id="edge35" class="edge">
<title>Node17&#45;&gt;Node28</title>
<path fill="none" stroke="#ffa500" stroke-dasharray="5,2" d="M658.3896,-407.392C681.4581,-422.9116 715.237,-443.1186 748,-453.5 863.5975,-490.1287 898.2381,-480.5 1019.5,-480.5 1019.5,-480.5 1019.5,-480.5 1617,-480.5 1714.6876,-480.5 1826.6115,-479.8202 1902.9681,-479.2533"/>
<polygon fill="#ffa500" stroke="#ffa500" points="660.3234,-404.4742 650.0972,-401.7037 656.3637,-410.2466 660.3234,-404.4742"/>
<text text-anchor="middle" x="1224.5" y="-483.5" font-family="Helvetica,sans-Serif" font-size="10.00" fill="#000000"> &lt; Csr&lt; ValueType, IndexType &gt; &gt;</text>
</g>
<!-- Node18&#45;&gt;Node15 -->
<g id="edge16" class="edge">
<title>Node18&#45;&gt;Node15</title>
<path fill="none" stroke="#ffa500" stroke-dasharray="5,2" d="M1105.0086,-281.8415C1116.7265,-280.0737 1128.6329,-278.5429 1140,-277.5 1203.6252,-271.6628 1275.5002,-270.9128 1331.4689,-271.6221"/>
<polygon fill="#ffa500" stroke="#ffa500" points="1104.113,-278.4392 1094.7779,-283.4498 1105.2001,-285.3543 1104.113,-278.4392"/>
<text text-anchor="start" x="1173" y="-291.5" font-family="Helvetica,sans-Serif" font-size="10.00" fill="#000000"> &lt; Sellp&lt; ValueType,</text>
<text text-anchor="middle" x="1224.5" y="-280.5" font-family="Helvetica,sans-Serif" font-size="10.00" fill="#000000"> IndexType &gt; &gt;</text>
</g>
<!-- Node22 -->
<g id="node18" class="node">
<title>Node22</title>
<g id="a_node18"><a xlink:href="classgko_1_1EnablePolymorphicAssignment.html" target="_top" xlink:title=" ">
<polygon fill="#ffffff" stroke="#000000" points="1331.5,-309.5 1331.5,-339.5 1523.5,-339.5 1523.5,-309.5 1331.5,-309.5"/>
<text text-anchor="start" x="1339.5" y="-327.5" font-family="Helvetica,sans-Serif" font-size="10.00" fill="#000000">gko::EnablePolymorphicAssignment</text>
<text text-anchor="middle" x="1427.5" y="-316.5" font-family="Helvetica,sans-Serif" font-size="10.00" fill="#000000">&lt; ConcreteLinOp &gt;</text>
</a>
</g>
</g>
<!-- Node18&#45;&gt;Node22 -->
<g id="edge27" class="edge">
<title>Node18&#45;&gt;Node22</title>
<path fill="none" stroke="#ffa500" stroke-dasharray="5,2" d="M1125.7328,-305.2697C1189.3309,-309.3226 1269.5326,-314.4334 1331.2658,-318.3674"/>
<polygon fill="#ffa500" stroke="#ffa500" points="1125.876,-301.7719 1115.6737,-304.6287 1125.4308,-308.7577 1125.876,-301.7719"/>
<text text-anchor="middle" x="1224.5" y="-319.5" font-family="Helvetica,sans-Serif" font-size="10.00" fill="#000000"> &lt; ConcreteLinOp &gt;</text>
</g>
<!-- Node19 -->
<g id="node15" class="node">
<title>Node19</title>
<g id="a_node15"><a xlink:href="classgko_1_1EnableLinOp.html" target="_top" xlink:title="The EnableLinOp mixin can be used to provide sensible default implementations of the majority of the ...">
<polygon fill="#ffffff" stroke="#000000" points="1717.5,-303.5 1717.5,-333.5 1873.5,-333.5 1873.5,-303.5 1717.5,-303.5"/>
<text text-anchor="start" x="1725.5" y="-321.5" font-family="Helvetica,sans-Serif" font-size="10.00" fill="#000000">gko::EnableLinOp&lt; Concrete</text>
<text text-anchor="middle" x="1795.5" y="-310.5" font-family="Helvetica,sans-Serif" font-size="10.00" fill="#000000">LinOp, PolymorphicBase &gt;</text>
</a>
</g>
</g>
<!-- Node19&#45;&gt;Node2 -->
<g id="edge18" class="edge">
<title>Node19&#45;&gt;Node2</title>
<path fill="none" stroke="#ffa500" stroke-dasharray="5,2" d="M1883.9304,-316.7891C1957.453,-315.3667 2061.067,-313.3621 2131.4082,-312.0012"/>
<polygon fill="#ffa500" stroke="#ffa500" points="1883.6927,-313.293 1873.7623,-316.9859 1883.8282,-320.2917 1883.6927,-313.293"/>
<text text-anchor="start" x="1942.5" y="-329.5" font-family="Helvetica,sans-Serif" font-size="10.00" fill="#000000"> &lt; Sellp&lt; ValueType,</text>
<text text-anchor="middle" x="1994" y="-318.5" font-family="Helvetica,sans-Serif" font-size="10.00" fill="#000000"> IndexType &gt; &gt;</text>
</g>
<!-- Node20&#45;&gt;Node19 -->
<g id="edge19" class="edge">
<title>Node20&#45;&gt;Node19</title>
<path fill="none" stroke="#191970" d="M1481.7359,-212.7751C1554.682,-237.3548 1683.0464,-280.608 1750.7679,-303.4272"/>
<polygon fill="#191970" stroke="#191970" points="1482.8502,-209.4573 1472.2561,-209.5809 1480.615,-216.0909 1482.8502,-209.4573"/>
</g>
<!-- Node21&#45;&gt;Node20 -->
<g id="edge20" class="edge">
<title>Node21&#45;&gt;Node20</title>
<path fill="none" stroke="#191970" d="M738.1848,-194.5C893.3648,-194.5 1176.2677,-194.5 1326.8777,-194.5"/>
<polygon fill="#191970" stroke="#191970" points="738.1509,-191.0001 728.1508,-194.5 738.1508,-198.0001 738.1509,-191.0001"/>
</g>
<!-- Node22&#45;&gt;Node19 -->
<g id="edge24" class="edge">
<title>Node22&#45;&gt;Node19</title>
<path fill="none" stroke="#191970" d="M1533.7539,-322.7676C1592.4252,-321.811 1664.0194,-320.6437 1717.4914,-319.7719"/>
<polygon fill="#191970" stroke="#191970" points="1533.6486,-319.2688 1523.707,-322.9314 1533.7628,-326.2678 1533.6486,-319.2688"/>
</g>
<!-- Node23&#45;&gt;Node22 -->
<g id="edge25" class="edge">
<title>Node23&#45;&gt;Node22</title>
<path fill="none" stroke="#191970" d="M1084.9962,-344.8466C1143.691,-342.3463 1232.1298,-338.2769 1309,-333.5 1316.3103,-333.0457 1323.8719,-332.5444 1331.4745,-332.0177"/>
<polygon fill="#191970" stroke="#191970" points="1084.5976,-341.3602 1074.7544,-345.2798 1084.8934,-348.354 1084.5976,-341.3602"/>
</g>
<!-- Node24 -->
<g id="node20" class="node">
<title>Node24</title>
<g id="a_node20"><a xlink:href="classgko_1_1EnableCreateMethod.html" target="_top" xlink:title=" ">
<polygon fill="#ffffff" stroke="#000000" points="2113.5,-246.5 2113.5,-276.5 2304.5,-276.5 2304.5,-246.5 2113.5,-246.5"/>
<text text-anchor="start" x="2121.5" y="-264.5" font-family="Helvetica,sans-Serif" font-size="10.00" fill="#000000">gko::EnableCreateMethod</text>
<text text-anchor="middle" x="2209" y="-253.5" font-family="Helvetica,sans-Serif" font-size="10.00" fill="#000000">&lt; Sellp&lt; ValueType, IndexType &gt; &gt;</text>
</a>
</g>
</g>
<!-- Node24&#45;&gt;Node1 -->
<g id="edge28" class="edge">
<title>Node24&#45;&gt;Node1</title>
<path fill="none" stroke="#191970" d="M2314.6659,-261.5C2327.3,-261.5 2339.9679,-261.5 2351.9713,-261.5"/>
<polygon fill="#191970" stroke="#191970" points="2314.5542,-258.0001 2304.5542,-261.5 2314.5542,-265.0001 2314.5542,-258.0001"/>
</g>
<!-- Node25 -->
<g id="node21" class="node">
<title>Node25</title>
<g id="a_node21"><a xlink:href="classgko_1_1EnableCreateMethod.html" target="_top" xlink:title="This mixin implements a static create() method on ConcreteType that dynamically allocates the memory,...">
<polygon fill="#ffffff" stroke="#000000" points="1724.5,-155.5 1724.5,-185.5 1866.5,-185.5 1866.5,-155.5 1724.5,-155.5"/>
<text text-anchor="start" x="1732.5" y="-173.5" font-family="Helvetica,sans-Serif" font-size="10.00" fill="#000000">gko::EnableCreateMethod</text>
<text text-anchor="middle" x="1795.5" y="-162.5" font-family="Helvetica,sans-Serif" font-size="10.00" fill="#000000">&lt; ConcreteType &gt;</text>
</a>
</g>
</g>
<!-- Node25&#45;&gt;Node24 -->
<g id="edge29" class="edge">
<title>Node25&#45;&gt;Node24</title>
<path fill="none" stroke="#ffa500" stroke-dasharray="5,2" d="M1876.9634,-154.6409C1939.8042,-147.1582 2025.7263,-147.817 2085,-191.5 2102.6731,-204.5245 2086.3543,-223.1858 2103,-237.5 2107.0058,-240.9447 2111.4033,-243.923 2116.0591,-246.4957"/>
<polygon fill="#ffa500" stroke="#ffa500" points="1876.1641,-151.2148 1866.6915,-155.9603 1877.0559,-158.1577 1876.1641,-151.2148"/>
<text text-anchor="start" x="1942.5" y="-205.5" font-family="Helvetica,sans-Serif" font-size="10.00" fill="#000000"> &lt; Sellp&lt; ValueType,</text>
<text text-anchor="middle" x="1994" y="-194.5" font-family="Helvetica,sans-Serif" font-size="10.00" fill="#000000"> IndexType &gt; &gt;</text>
</g>
<!-- Node26&#45;&gt;Node1 -->
<g id="edge30" class="edge">
<title>Node26&#45;&gt;Node1</title>
<path fill="none" stroke="#191970" d="M1318.8183,-436.875C1398.3246,-437.1588 1515.1022,-437.5 1617,-437.5 1617,-437.5 1617,-437.5 2209,-437.5 2310.2997,-437.5 2390.0808,-319.0674 2415.4814,-276.5057"/>
<polygon fill="#191970" stroke="#191970" points="1318.352,-433.3734 1308.3394,-436.8372 1318.3267,-440.3733 1318.352,-433.3734"/>
</g>
<!-- Node27&#45;&gt;Node1 -->
<g id="edge32" class="edge">
<title>Node27&#45;&gt;Node1</title>
<path fill="none" stroke="#191970" d="M1698.1491,-396.4168C1831.1859,-404.8905 2102.1594,-410.0281 2315,-335.5 2351.6986,-322.6497 2387.7236,-294.2337 2407.7863,-276.592"/>
<polygon fill="#191970" stroke="#191970" points="1698.2447,-392.9156 1688.0358,-395.7491 1697.7834,-399.9004 1698.2447,-392.9156"/>
</g>
<!-- Node28&#45;&gt;Node1 -->
<g id="edge34" class="edge">
<title>Node28&#45;&gt;Node1</title>
<path fill="none" stroke="#191970" d="M2085.9076,-494.7011C2159.4437,-502.5098 2261.8429,-501.2725 2334,-451.5 2395.2923,-409.2218 2416.0509,-313.6726 2421.9551,-276.6002"/>
<polygon fill="#191970" stroke="#191970" points="2086.0606,-491.196 2075.7291,-493.5433 2085.2694,-498.1511 2086.0606,-491.196"/>
</g>
<!-- Node29 -->
<g id="node25" class="node">
<title>Node29</title>
<g id="a_node25"><a xlink:href="classgko_1_1DiagonalExtractable.html" target="_top" xlink:title="The diagonal of a LinOp implementing this interface can be extracted.">
<polygon fill="#ffffff" stroke="#000000" points="2139,-197.5 2139,-227.5 2279,-227.5 2279,-197.5 2139,-197.5"/>
<text text-anchor="start" x="2147" y="-215.5" font-family="Helvetica,sans-Serif" font-size="10.00" fill="#000000">gko::DiagonalExtractable</text>
<text text-anchor="middle" x="2209" y="-204.5" font-family="Helvetica,sans-Serif" font-size="10.00" fill="#000000">&lt; ValueType &gt;</text>
</a>
</g>
</g>
<!-- Node29&#45;&gt;Node1 -->
<g id="edge36" class="edge">
<title>Node29&#45;&gt;Node1</title>
<path fill="none" stroke="#191970" d="M2284.7244,-229.7581C2308.6808,-235.218 2334.9506,-241.205 2358.1565,-246.4938"/>
<polygon fill="#191970" stroke="#191970" points="2285.496,-226.3443 2274.9682,-227.5346 2283.9404,-233.1693 2285.496,-226.3443"/>
</g>
<!-- Node30 -->
<g id="node26" class="node">
<title>Node30</title>
<g id="a_node26"><a xlink:href="classgko_1_1DiagonalLinOpExtractable.html" target="_top" xlink:title="The diagonal of a LinOp can be extracted.">
<polygon fill="#ffffff" stroke="#000000" points="1712,-117 1712,-136 1879,-136 1879,-117 1712,-117"/>
<text text-anchor="middle" x="1795.5" y="-124" font-family="Helvetica,sans-Serif" font-size="10.00" fill="#000000">gko::DiagonalLinOpExtractable</text>
</a>
</g>
</g>
<!-- Node30&#45;&gt;Node29 -->
<g id="edge37" class="edge">
<title>Node30&#45;&gt;Node29</title>
<path fill="none" stroke="#191970" d="M1849.6145,-115.3334C1912.2058,-105.6097 2015.5281,-99.7486 2085,-148.5 2100.9577,-159.6982 2087.9065,-176.1616 2103,-188.5 2113.2991,-196.9191 2125.9646,-202.5213 2138.9122,-206.2196"/>
<polygon fill="#191970" stroke="#191970" points="1848.8539,-111.9113 1839.5527,-116.9845 1849.9875,-118.8189 1848.8539,-111.9113"/>
</g>
<!-- Node31 -->
<g id="node27" class="node">
<title>Node31</title>
<g id="a_node27"><a xlink:href="classgko_1_1ReadableFromMatrixData.html" target="_top" xlink:title="A LinOp implementing this interface can read its data from a matrix_data structure.">
<polygon fill="#ffffff" stroke="#000000" points="2127,-148.5 2127,-178.5 2291,-178.5 2291,-148.5 2127,-148.5"/>
<text text-anchor="start" x="2135" y="-166.5" font-family="Helvetica,sans-Serif" font-size="10.00" fill="#000000">gko::ReadableFromMatrixData</text>
<text text-anchor="middle" x="2209" y="-155.5" font-family="Helvetica,sans-Serif" font-size="10.00" fill="#000000">&lt; ValueType, IndexType &gt;</text>
</a>
</g>
</g>
<!-- Node31&#45;&gt;Node1 -->
<g id="edge38" class="edge">
<title>Node31&#45;&gt;Node1</title>
<path fill="none" stroke="#191970" d="M2296.8872,-181.6004C2303.1022,-183.6786 2309.1985,-185.9725 2315,-188.5 2349.6608,-203.6004 2385.2022,-229.8119 2405.9084,-246.3754"/>
<polygon fill="#191970" stroke="#191970" points="2297.638,-178.1676 2287.0487,-178.5095 2295.54,-184.8458 2297.638,-178.1676"/>
</g>
<!-- Node32 -->
<g id="node28" class="node">
<title>Node32</title>
<g id="a_node28"><a xlink:href="classgko_1_1WritableToMatrixData.html" target="_top" xlink:title="A LinOp implementing this interface can write its data to a matrix_data structure.">
<polygon fill="#ffffff" stroke="#000000" points="2136,-99.5 2136,-129.5 2282,-129.5 2282,-99.5 2136,-99.5"/>
<text text-anchor="start" x="2144" y="-117.5" font-family="Helvetica,sans-Serif" font-size="10.00" fill="#000000">gko::WritableToMatrixData</text>
<text text-anchor="middle" x="2209" y="-106.5" font-family="Helvetica,sans-Serif" font-size="10.00" fill="#000000">&lt; ValueType, IndexType &gt;</text>
</a>
</g>
</g>
<!-- Node32&#45;&gt;Node1 -->
<g id="edge39" class="edge">
<title>Node32&#45;&gt;Node1</title>
<path fill="none" stroke="#191970" d="M2291.6631,-128.676C2299.8263,-131.6271 2307.7586,-135.1925 2315,-139.5 2361.136,-166.9435 2398.5608,-220.3622 2414.9901,-246.4437"/>
<polygon fill="#191970" stroke="#191970" points="2292.5948,-125.2978 2282.0016,-125.4861 2290.4001,-131.9449 2292.5948,-125.2978"/>
</g>
<!-- Node33 -->
<g id="node29" class="node">
<title>Node33</title>
<g id="a_node29"><a xlink:href="classgko_1_1EnableAbsoluteComputation.html" target="_top" xlink:title=" ">
<polygon fill="#ffffff" stroke="#000000" points="2103,-39 2103,-80 2315,-80 2315,-39 2103,-39"/>
<text text-anchor="start" x="2111" y="-68" font-family="Helvetica,sans-Serif" font-size="10.00" fill="#000000">gko::EnableAbsoluteComputation</text>
<text text-anchor="start" x="2111" y="-57" font-family="Helvetica,sans-Serif" font-size="10.00" fill="#000000">&lt; remove_complex&lt; Sellp&lt; ValueType,</text>
<text text-anchor="middle" x="2209" y="-46" font-family="Helvetica,sans-Serif" font-size="10.00" fill="#000000"> IndexType &gt; &gt; &gt;</text>
</a>
</g>
</g>
<!-- Node33&#45;&gt;Node1 -->
<g id="edge40" class="edge">
<title>Node33&#45;&gt;Node1</title>
<path fill="none" stroke="#191970" d="M2306.719,-84.9157C2309.5849,-86.6557 2312.3549,-88.5144 2315,-90.5 2371.1711,-132.6646 2405.9904,-212.9606 2418.6237,-246.35"/>
<polygon fill="#191970" stroke="#191970" points="2308.3109,-81.7969 2297.8621,-80.044 2304.9372,-87.9303 2308.3109,-81.7969"/>
</g>
<!-- Node34 -->
<g id="node30" class="node">
<title>Node34</title>
<g id="a_node30"><a xlink:href="classgko_1_1AbsoluteComputable.html" target="_top" xlink:title="The AbsoluteComputable is an interface that allows to get the component wise absolute of a LinOp.">
<polygon fill="#ffffff" stroke="#000000" points="1356,-9 1356,-28 1499,-28 1499,-9 1356,-9"/>
<text text-anchor="middle" x="1427.5" y="-16" font-family="Helvetica,sans-Serif" font-size="10.00" fill="#000000">gko::AbsoluteComputable</text>
</a>
</g>
</g>
<!-- Node34&#45;&gt;Node33 -->
<g id="edge41" class="edge">
<title>Node34&#45;&gt;Node33</title>
<path fill="none" stroke="#191970" d="M1509.4041,-28.1252C1521.6593,-29.3797 1534.1534,-30.5549 1546,-31.5 1742.236,-47.156 1971.8911,-54.3867 2102.9231,-57.4643"/>
<polygon fill="#191970" stroke="#191970" points="1509.4954,-24.6157 1499.1855,-27.056 1508.767,-31.5777 1509.4954,-24.6157"/>
</g>
<!-- Node35 -->
<g id="node31" class="node">
<title>Node35</title>
<g id="a_node31"><a xlink:href="classgko_1_1EnableAbsoluteComputation.html" target="_top" xlink:title="The EnableAbsoluteComputation mixin provides the default implementations of compute_absolute_linop an...">
<polygon fill="#ffffff" stroke="#000000" points="1706,-.5 1706,-30.5 1885,-30.5 1885,-.5 1706,-.5"/>
<text text-anchor="start" x="1714" y="-18.5" font-family="Helvetica,sans-Serif" font-size="10.00" fill="#000000">gko::EnableAbsoluteComputation</text>
<text text-anchor="middle" x="1795.5" y="-7.5" font-family="Helvetica,sans-Serif" font-size="10.00" fill="#000000">&lt; AbsoluteLinOp &gt;</text>
</a>
</g>
</g>
<!-- Node34&#45;&gt;Node35 -->
<g id="edge43" class="edge">
<title>Node34&#45;&gt;Node35</title>
<path fill="none" stroke="#191970" d="M1509.6004,-17.8307C1567.8732,-17.3557 1646.0623,-16.7182 1705.9431,-16.2301"/>
<polygon fill="#191970" stroke="#191970" points="1509.2988,-14.3329 1499.3277,-17.9144 1509.3559,-21.3327 1509.2988,-14.3329"/>
</g>
<!-- Node35&#45;&gt;Node33 -->
<g id="edge42" class="edge">
<title>Node35&#45;&gt;Node33</title>
<path fill="none" stroke="#ffa500" stroke-dasharray="5,2" d="M1895.336,-12.0222C1951.3972,-11.626 2022.4513,-13.7207 2085,-23.5 2106.4832,-26.8588 2129.4888,-32.8408 2149.7788,-38.9759"/>
<polygon fill="#ffa500" stroke="#ffa500" points="1895.0129,-8.5252 1885.048,-12.1239 1895.0822,-15.5248 1895.0129,-8.5252"/>
<text text-anchor="start" x="1918.5" y="-37.5" font-family="Helvetica,sans-Serif" font-size="10.00" fill="#000000"> &lt; remove_complex&lt; Sellp</text>
<text text-anchor="middle" x="1994" y="-26.5" font-family="Helvetica,sans-Serif" font-size="10.00" fill="#000000">&lt; ValueType, IndexType &gt; &gt; &gt;</text>
</g>
</g>
</svg>
        <g id="navigator" transform="translate(0 0)" fill="#404254">
                <rect fill="#f2f5e9" fill-opacity="0.5" stroke="#606060" stroke-width=".5" x="0" y="0" width="60" height="60"/>
                <use id="zoomplus" xlink:href="#zoomPlus" x="17" y="9" onmousedown="handleZoom(evt,'in')"/>
                <use id="zoomminus" xlink:href="#zoomMin" x="42" y="9" onmousedown="handleZoom(evt,'out')"/>
                <use id="reset" xlink:href="#resetDef" x="30" y="36" onmousedown="handleReset()"/>
                <g id="arrowUp" xlink:href="#dirArrow" transform="translate(30 24)" onmousedown="handlePan(0,-1)">
                  <use xlink:href="#rim" fill="#404040">
                        <set attributeName="fill" to="#808080" begin="arrowUp.mouseover" end="arrowUp.mouseout"/>
                  </use>
                  <path fill="none" stroke="white" stroke-width="1.5" d="M0,-3.0v7 M-2.5,-0.5L0,-3.0L2.5,-0.5"/>
                </g>
                <g id="arrowRight" xlink:href="#dirArrow" transform="rotate(90) translate(36 -43)" onmousedown="handlePan(1,0)">
                  <use xlink:href="#rim" fill="#404040">
                        <set attributeName="fill" to="#808080" begin="arrowRight.mouseover" end="arrowRight.mouseout"/>
                  </use>
                  <path fill="none" stroke="white" stroke-width="1.5" d="M0,-3.0v7 M-2.5,-0.5L0,-3.0L2.5,-0.5"/>
                </g>
                <g id="arrowDown" xlink:href="#dirArrow" transform="rotate(180) translate(-30 -48)" onmousedown="handlePan(0,1)">
                  <use xlink:href="#rim" fill="#404040">
                        <set attributeName="fill" to="#808080" begin="arrowDown.mouseover" end="arrowDown.mouseout"/>
                  </use>
                  <path fill="none" stroke="white" stroke-width="1.5" d="M0,-3.0v7 M-2.5,-0.5L0,-3.0L2.5,-0.5"/>
                </g>
                <g id="arrowLeft" xlink:href="#dirArrow" transform="rotate(270) translate(-36 17)" onmousedown="handlePan(-1,0)">
                  <use xlink:href="#rim" fill="#404040">
                        <set attributeName="fill" to="#808080" begin="arrowLeft.mouseover" end="arrowLeft.mouseout"/>
                  </use>
                  <path fill="none" stroke="white" stroke-width="1.5" d="M0,-3.0v7 M-2.5,-0.5L0,-3.0L2.5,-0.5"/>
                </g>
        </g>
        <svg viewBox="0 0 15 15" width="100%" height="30px" preserveAspectRatio="xMaxYMin meet">
         <g id="arrow_out" transform="scale(0.3 0.3)">
          <a xlink:href="classgko_1_1matrix_1_1Sellp__coll__graph_org.svg" target="_base">
           <rect id="button" ry="5" rx="5" y="6" x="6" height="38" width="38"
                fill="#f2f5e9" fill-opacity="0.5" stroke="#606060" stroke-width="1.0"/>
           <path id="arrow"
             d="M 11.500037,31.436501 C 11.940474,20.09759 22.043105,11.32322 32.158766,21.979434 L 37.068811,17.246167 C 37.068811,17.246167 37.088388,32 37.088388,32 L 22.160133,31.978069 C 22.160133,31.978069 26.997745,27.140456 26.997745,27.140456 C 18.528582,18.264221 13.291696,25.230495 11.500037,31.436501 z"
             style="fill:#404040;"/>
          </a>
         </g>
        </svg>
</svg>
