<?xml version="1.0" encoding="UTF-8" standalone="no"?>
<!DOCTYPE svg PUBLIC "-//W3C//DTD SVG 1.1//EN"
 "http://www.w3.org/Graphics/SVG/1.1/DTD/svg11.dtd">
<!-- Generated by graphviz version 2.40.1 (20161225.0304)
 -->
<!-- Title: gko::array&lt; ValueType &gt; Pages: 1 -->
<svg width="479pt" height="664pt"
 viewBox="0.00 0.00 479.00 664.27" xmlns="http://www.w3.org/2000/svg" xmlns:xlink="http://www.w3.org/1999/xlink">
<g id="graph0" class="graph" transform="scale(1 1) rotate(0) translate(4 660.2728)">
<title>gko::array&lt; ValueType &gt;</title>
<polygon fill="#ffffff" stroke="transparent" points="-4,4 -4,-660.2728 475,-660.2728 475,4 -4,4"/>
<!-- Node1 -->
<g id="node1" class="node">
<title>Node1</title>
<g id="a_node1"><a xlink:title="An array is a container which encapsulates fixed&#45;sized arrays, stored on the Executor tied to the arr...">
<polygon fill="#bfbfbf" stroke="#000000" points="0,-323.7728 0,-342.7728 138,-342.7728 138,-323.7728 0,-323.7728"/>
<text text-anchor="middle" x="69" y="-330.7728" font-family="Helvetica,sans-Serif" font-size="10.00" fill="#000000">gko::array&lt; ValueType &gt;</text>
</a>
</g>
</g>
<!-- Node2 -->
<g id="node2" class="node">
<title>Node2</title>
<g id="a_node2"><a xlink:href="classgko_1_1array.html" target="_top" xlink:title=" ">
<polygon fill="#ffffff" stroke="#000000" points="323.5,-618.2728 323.5,-648.2728 466.5,-648.2728 466.5,-618.2728 323.5,-618.2728"/>
<text text-anchor="start" x="331.5" y="-636.2728" font-family="Helvetica,sans-Serif" font-size="10.00" fill="#000000">gko::array&lt; gko::stopping</text>
<text text-anchor="middle" x="395" y="-625.2728" font-family="Helvetica,sans-Serif" font-size="10.00" fill="#000000">_status &gt;</text>
</a>
</g>
</g>
<!-- Node1&#45;&gt;Node2 -->
<g id="edge1" class="edge">
<title>Node1&#45;&gt;Node2</title>
<path fill="none" stroke="#ffa500" stroke-dasharray="5,2" d="M72.3514,-352.6546C82.5914,-409.5081 115.2636,-573.9345 156,-607.2728 202.1891,-645.0734 271.3507,-648.7563 323.4081,-644.6426"/>
<polygon fill="#ffa500" stroke="#ffa500" points="75.7947,-352.0266 70.6067,-342.7889 68.9017,-353.2456 75.7947,-352.0266"/>
<text text-anchor="middle" x="228.5" y="-648.2728" font-family="Helvetica,sans-Serif" font-size="10.00" fill="#000000"> &lt; gko::stopping_status &gt;</text>
</g>
<!-- Node3 -->
<g id="node3" class="node">
<title>Node3</title>
<g id="a_node3"><a xlink:href="classgko_1_1array.html" target="_top" xlink:title=" ">
<polygon fill="#ffffff" stroke="#000000" points="319,-569.2728 319,-599.2728 471,-599.2728 471,-569.2728 319,-569.2728"/>
<text text-anchor="start" x="327" y="-587.2728" font-family="Helvetica,sans-Serif" font-size="10.00" fill="#000000">gko::array&lt; remove</text>
<text text-anchor="middle" x="395" y="-576.2728" font-family="Helvetica,sans-Serif" font-size="10.00" fill="#000000">_complex&lt; value_type &gt; &gt;</text>
</a>
</g>
</g>
<!-- Node1&#45;&gt;Node3 -->
<g id="edge2" class="edge">
<title>Node1&#45;&gt;Node3</title>
<path fill="none" stroke="#ffa500" stroke-dasharray="5,2" d="M70.3106,-353.0327C74.3844,-397.1302 90.8287,-503.66 156,-554.2728 180.7712,-573.5104 258.5678,-580.5036 318.7461,-582.9966"/>
<polygon fill="#ffa500" stroke="#ffa500" points="73.7775,-352.479 69.4889,-342.7909 66.7999,-353.0389 73.7775,-352.479"/>
<text text-anchor="start" x="159.5" y="-595.2728" font-family="Helvetica,sans-Serif" font-size="10.00" fill="#000000"> &lt; remove_complex&lt; value</text>
<text text-anchor="middle" x="228.5" y="-584.2728" font-family="Helvetica,sans-Serif" font-size="10.00" fill="#000000">_type &gt; &gt;</text>
</g>
<!-- Node4 -->
<g id="node4" class="node">
<title>Node4</title>
<g id="a_node4"><a xlink:href="classgko_1_1array.html" target="_top" xlink:title=" ">
<polygon fill="#ffffff" stroke="#000000" points="326,-530.7728 326,-549.7728 464,-549.7728 464,-530.7728 326,-530.7728"/>
<text text-anchor="middle" x="395" y="-537.7728" font-family="Helvetica,sans-Serif" font-size="10.00" fill="#000000">gko::array&lt; IndexType &gt;</text>
</a>
</g>
</g>
<!-- Node1&#45;&gt;Node4 -->
<g id="edge3" class="edge">
<title>Node1&#45;&gt;Node4</title>
<path fill="none" stroke="#ffa500" stroke-dasharray="5,2" d="M71.9356,-352.899C78.8417,-391.4693 99.9788,-476.8219 156,-516.2728 182.5521,-534.9711 265.2612,-539.8009 325.9674,-540.7162"/>
<polygon fill="#ffa500" stroke="#ffa500" points="75.3723,-352.228 70.2866,-342.9336 68.4662,-353.3708 75.3723,-352.228"/>
<text text-anchor="middle" x="228.5" y="-542.2728" font-family="Helvetica,sans-Serif" font-size="10.00" fill="#000000"> &lt; IndexType &gt;</text>
</g>
<!-- Node5 -->
<g id="node5" class="node">
<title>Node5</title>
<g id="a_node5"><a xlink:href="classgko_1_1array.html" target="_top" xlink:title=" ">
<polygon fill="#ffffff" stroke="#000000" points="328,-492.7728 328,-511.7728 462,-511.7728 462,-492.7728 328,-492.7728"/>
<text text-anchor="middle" x="395" y="-499.7728" font-family="Helvetica,sans-Serif" font-size="10.00" fill="#000000">gko::array&lt; real_type &gt;</text>
</a>
</g>
</g>
<!-- Node1&#45;&gt;Node5 -->
<g id="edge4" class="edge">
<title>Node1&#45;&gt;Node5</title>
<path fill="none" stroke="#ffa500" stroke-dasharray="5,2" d="M74.2172,-352.6867C84.1105,-385.3165 108.942,-450.5006 156,-480.2728 183.6421,-497.7611 267.2707,-502.0734 327.8182,-502.7933"/>
<polygon fill="#ffa500" stroke="#ffa500" points="77.55,-351.6115 71.4242,-342.9671 70.8222,-353.5448 77.55,-351.6115"/>
<text text-anchor="middle" x="228.5" y="-504.2728" font-family="Helvetica,sans-Serif" font-size="10.00" fill="#000000"> &lt; real_type &gt;</text>
</g>
<!-- Node6 -->
<g id="node6" class="node">
<title>Node6</title>
<g id="a_node6"><a xlink:href="classgko_1_1array.html" target="_top" xlink:title=" ">
<polygon fill="#ffffff" stroke="#000000" points="323.5,-454.7728 323.5,-473.7728 466.5,-473.7728 466.5,-454.7728 323.5,-454.7728"/>
<text text-anchor="middle" x="395" y="-461.7728" font-family="Helvetica,sans-Serif" font-size="10.00" fill="#000000">gko::array&lt; value_type &gt;</text>
</a>
</g>
</g>
<!-- Node1&#45;&gt;Node6 -->
<g id="edge5" class="edge">
<title>Node1&#45;&gt;Node6</title>
<path fill="none" stroke="#ffa500" stroke-dasharray="5,2" d="M79.7744,-351.682C94.0836,-374.2936 121.6037,-411.904 156,-430.2728 207.4799,-457.7647 273.6698,-465.4082 323.3351,-466.662"/>
<polygon fill="#ffa500" stroke="#ffa500" points="82.6733,-349.7135 74.4693,-343.0094 76.7019,-353.3664 82.6733,-349.7135"/>
<text text-anchor="middle" x="228.5" y="-468.2728" font-family="Helvetica,sans-Serif" font-size="10.00" fill="#000000"> &lt; value_type &gt;</text>
</g>
<!-- Node7 -->
<g id="node7" class="node">
<title>Node7</title>
<g id="a_node7"><a xlink:href="classgko_1_1array.html" target="_top" xlink:title=" ">
<polygon fill="#ffffff" stroke="#000000" points="344.5,-416.7728 344.5,-435.7728 445.5,-435.7728 445.5,-416.7728 344.5,-416.7728"/>
<text text-anchor="middle" x="395" y="-423.7728" font-family="Helvetica,sans-Serif" font-size="10.00" fill="#000000">gko::array&lt; int &gt;</text>
</a>
</g>
</g>
<!-- Node1&#45;&gt;Node7 -->
<g id="edge6" class="edge">
<title>Node1&#45;&gt;Node7</title>
<path fill="none" stroke="#ffa500" stroke-dasharray="5,2" d="M91.0533,-348.8048C108.0437,-360.0446 132.5253,-374.7087 156,-383.2728 218.5774,-406.1022 294.9508,-417.1311 344.2537,-422.2296"/>
<polygon fill="#ffa500" stroke="#ffa500" points="92.6818,-345.6808 82.4388,-342.9733 88.7578,-351.4775 92.6818,-345.6808"/>
<text text-anchor="middle" x="228.5" y="-418.2728" font-family="Helvetica,sans-Serif" font-size="10.00" fill="#000000"> &lt; int &gt;</text>
</g>
<!-- Node8 -->
<g id="node8" class="node">
<title>Node8</title>
<g id="a_node8"><a xlink:href="classgko_1_1array.html" target="_top" xlink:title=" ">
<polygon fill="#ffffff" stroke="#000000" points="325,-367.2728 325,-397.2728 465,-397.2728 465,-367.2728 325,-367.2728"/>
<text text-anchor="start" x="333" y="-385.2728" font-family="Helvetica,sans-Serif" font-size="10.00" fill="#000000">gko::array&lt; comm_index</text>
<text text-anchor="middle" x="395" y="-374.2728" font-family="Helvetica,sans-Serif" font-size="10.00" fill="#000000">_type &gt;</text>
</a>
</g>
</g>
<!-- Node1&#45;&gt;Node8 -->
<g id="edge7" class="edge">
<title>Node1&#45;&gt;Node8</title>
<path fill="none" stroke="#ffa500" stroke-dasharray="5,2" d="M132.6709,-344.4725C140.5224,-345.7881 148.4414,-347.0838 156,-348.2728 212.7204,-357.195 277.18,-366.305 324.8511,-372.8465"/>
<polygon fill="#ffa500" stroke="#ffa500" points="133.2376,-341.0188 122.794,-342.8021 132.0703,-347.9208 133.2376,-341.0188"/>
<text text-anchor="middle" x="228.5" y="-371.2728" font-family="Helvetica,sans-Serif" font-size="10.00" fill="#000000"> &lt; comm_index_type &gt;</text>
</g>
<!-- Node9 -->
<g id="node9" class="node">
<title>Node9</title>
<g id="a_node9"><a xlink:href="classgko_1_1array.html" target="_top" xlink:title=" ">
<polygon fill="#ffffff" stroke="#000000" points="322,-318.2728 322,-348.2728 468,-348.2728 468,-318.2728 322,-318.2728"/>
<text text-anchor="start" x="330" y="-336.2728" font-family="Helvetica,sans-Serif" font-size="10.00" fill="#000000">gko::array&lt; gko::precision</text>
<text text-anchor="middle" x="395" y="-325.2728" font-family="Helvetica,sans-Serif" font-size="10.00" fill="#000000">_reduction &gt;</text>
</a>
</g>
</g>
<!-- Node1&#45;&gt;Node9 -->
<g id="edge8" class="edge">
<title>Node1&#45;&gt;Node9</title>
<path fill="none" stroke="#ffa500" stroke-dasharray="5,2" d="M148.1502,-333.2728C201.0322,-333.2728 270.0951,-333.2728 321.7186,-333.2728"/>
<polygon fill="#ffa500" stroke="#ffa500" points="148.1363,-329.7729 138.1362,-333.2728 148.1362,-336.7729 148.1363,-329.7729"/>
<text text-anchor="middle" x="228.5" y="-336.2728" font-family="Helvetica,sans-Serif" font-size="10.00" fill="#000000"> &lt; gko::precision_reduction &gt;</text>
</g>
<!-- Node10 -->
<g id="node10" class="node">
<title>Node10</title>
<g id="a_node10"><a xlink:href="classgko_1_1array.html" target="_top" xlink:title=" ">
<polygon fill="#ffffff" stroke="#000000" points="328.5,-269.2728 328.5,-299.2728 461.5,-299.2728 461.5,-269.2728 328.5,-269.2728"/>
<text text-anchor="start" x="336.5" y="-287.2728" font-family="Helvetica,sans-Serif" font-size="10.00" fill="#000000">gko::array&lt; local_index</text>
<text text-anchor="middle" x="395" y="-276.2728" font-family="Helvetica,sans-Serif" font-size="10.00" fill="#000000">_type &gt;</text>
</a>
</g>
</g>
<!-- Node1&#45;&gt;Node10 -->
<g id="edge9" class="edge">
<title>Node1&#45;&gt;Node10</title>
<path fill="none" stroke="#ffa500" stroke-dasharray="5,2" d="M132.6709,-322.073C140.5224,-320.7574 148.4414,-319.4617 156,-318.2728 214.1694,-309.1226 280.4786,-299.775 328.4715,-293.2027"/>
<polygon fill="#ffa500" stroke="#ffa500" points="132.0703,-318.6247 122.794,-323.7434 133.2376,-325.5267 132.0703,-318.6247"/>
<text text-anchor="middle" x="228.5" y="-321.2728" font-family="Helvetica,sans-Serif" font-size="10.00" fill="#000000"> &lt; local_index_type &gt;</text>
</g>
<!-- Node11 -->
<g id="node11" class="node">
<title>Node11</title>
<g id="a_node11"><a xlink:href="classgko_1_1array.html" target="_top" xlink:title=" ">
<polygon fill="#ffffff" stroke="#000000" points="334,-220.2728 334,-250.2728 456,-250.2728 456,-220.2728 334,-220.2728"/>
<text text-anchor="start" x="342" y="-238.2728" font-family="Helvetica,sans-Serif" font-size="10.00" fill="#000000">gko::array&lt; unsigned</text>
<text text-anchor="middle" x="395" y="-227.2728" font-family="Helvetica,sans-Serif" font-size="10.00" fill="#000000"> char &gt;</text>
</a>
</g>
</g>
<!-- Node1&#45;&gt;Node11 -->
<g id="edge10" class="edge">
<title>Node1&#45;&gt;Node11</title>
<path fill="none" stroke="#ffa500" stroke-dasharray="5,2" d="M90.749,-317.7256C107.7477,-306.2847 132.378,-291.2234 156,-282.2728 214.2288,-260.2092 284.5448,-247.9774 333.778,-241.5667"/>
<polygon fill="#ffa500" stroke="#ffa500" points="88.3983,-315.0946 82.1453,-323.6475 92.3671,-320.8608 88.3983,-315.0946"/>
<text text-anchor="middle" x="228.5" y="-285.2728" font-family="Helvetica,sans-Serif" font-size="10.00" fill="#000000"> &lt; unsigned char &gt;</text>
</g>
<!-- Node12 -->
<g id="node12" class="node">
<title>Node12</title>
<g id="a_node12"><a xlink:href="classgko_1_1array.html" target="_top" xlink:title=" ">
<polygon fill="#ffffff" stroke="#000000" points="327.5,-181.7728 327.5,-200.7728 462.5,-200.7728 462.5,-181.7728 327.5,-181.7728"/>
<text text-anchor="middle" x="395" y="-188.7728" font-family="Helvetica,sans-Serif" font-size="10.00" fill="#000000">gko::array&lt; size_type &gt;</text>
</a>
</g>
</g>
<!-- Node1&#45;&gt;Node12 -->
<g id="edge11" class="edge">
<title>Node1&#45;&gt;Node12</title>
<path fill="none" stroke="#ffa500" stroke-dasharray="5,2" d="M79.1828,-314.7741C93.1922,-291.2349 120.7335,-251.2414 156,-231.2728 208.4423,-201.5788 277.0298,-192.5918 327.2729,-190.4355"/>
<polygon fill="#ffa500" stroke="#ffa500" points="75.9733,-313.3345 74.0242,-323.7485 82.0422,-316.823 75.9733,-313.3345"/>
<text text-anchor="middle" x="228.5" y="-234.2728" font-family="Helvetica,sans-Serif" font-size="10.00" fill="#000000"> &lt; size_type &gt;</text>
</g>
<!-- Node13 -->
<g id="node13" class="node">
<title>Node13</title>
<g id="a_node13"><a xlink:href="classgko_1_1array.html" target="_top" xlink:title=" ">
<polygon fill="#ffffff" stroke="#000000" points="341.5,-132.2728 341.5,-162.2728 448.5,-162.2728 448.5,-132.2728 341.5,-132.2728"/>
<text text-anchor="start" x="349.5" y="-150.2728" font-family="Helvetica,sans-Serif" font-size="10.00" fill="#000000">gko::array&lt; global</text>
<text text-anchor="middle" x="395" y="-139.2728" font-family="Helvetica,sans-Serif" font-size="10.00" fill="#000000">_index_type &gt;</text>
</a>
</g>
</g>
<!-- Node1&#45;&gt;Node13 -->
<g id="edge12" class="edge">
<title>Node1&#45;&gt;Node13</title>
<path fill="none" stroke="#ffa500" stroke-dasharray="5,2" d="M73.7011,-313.8104C83.021,-279.8203 107.2858,-210.1349 156,-177.2728 210.9487,-140.2049 289.4725,-137.5374 341.3151,-140.8824"/>
<polygon fill="#ffa500" stroke="#ffa500" points="70.3108,-312.9415 71.1883,-323.4999 77.0866,-314.6987 70.3108,-312.9415"/>
<text text-anchor="middle" x="228.5" y="-180.2728" font-family="Helvetica,sans-Serif" font-size="10.00" fill="#000000"> &lt; global_index_type &gt;</text>
</g>
<!-- Node14 -->
<g id="node14" class="node">
<title>Node14</title>
<g id="a_node14"><a xlink:href="classgko_1_1array.html" target="_top" xlink:title=" ">
<polygon fill="#ffffff" stroke="#000000" points="340,-93.7728 340,-112.7728 450,-112.7728 450,-93.7728 340,-93.7728"/>
<text text-anchor="middle" x="395" y="-100.7728" font-family="Helvetica,sans-Serif" font-size="10.00" fill="#000000">gko::array&lt; char &gt;</text>
</a>
</g>
</g>
<!-- Node1&#45;&gt;Node14 -->
<g id="edge13" class="edge">
<title>Node1&#45;&gt;Node14</title>
<path fill="none" stroke="#ffa500" stroke-dasharray="5,2" d="M70.6489,-313.5304C75.3669,-270.9121 92.9651,-170.4251 156,-124.2728 210.9486,-84.0409 293.1975,-86.633 345.4612,-93.7588"/>
<polygon fill="#ffa500" stroke="#ffa500" points="67.1438,-313.413 69.651,-323.7069 74.1103,-314.0962 67.1438,-313.413"/>
<text text-anchor="middle" x="228.5" y="-127.2728" font-family="Helvetica,sans-Serif" font-size="10.00" fill="#000000"> &lt; char &gt;</text>
</g>
<!-- Node15 -->
<g id="node15" class="node">
<title>Node15</title>
<g id="a_node15"><a xlink:href="classgko_1_1array.html" target="_top" xlink:title=" ">
<polygon fill="#ffffff" stroke="#000000" points="340,-55.7728 340,-74.7728 450,-74.7728 450,-55.7728 340,-55.7728"/>
<text text-anchor="middle" x="395" y="-62.7728" font-family="Helvetica,sans-Serif" font-size="10.00" fill="#000000">gko::array&lt; bool &gt;</text>
</a>
</g>
</g>
<!-- Node1&#45;&gt;Node15 -->
<g id="edge14" class="edge">
<title>Node1&#45;&gt;Node15</title>
<path fill="none" stroke="#ffa500" stroke-dasharray="5,2" d="M72.6206,-313.7363C83.2608,-258.6317 116.199,-104.0417 156,-74.2728 216.5163,-29.0098 311.7843,-43.5562 361.8045,-55.7479"/>
<polygon fill="#ffa500" stroke="#ffa500" points="69.1679,-313.1585 70.7441,-323.6354 76.0454,-314.4623 69.1679,-313.1585"/>
<text text-anchor="middle" x="228.5" y="-77.2728" font-family="Helvetica,sans-Serif" font-size="10.00" fill="#000000"> &lt; bool &gt;</text>
</g>
<!-- Node16 -->
<g id="node16" class="node">
<title>Node16</title>
<g id="a_node16"><a xlink:href="classgko_1_1array.html" target="_top" xlink:title=" ">
<polygon fill="#ffffff" stroke="#000000" points="323.5,-17.7728 323.5,-36.7728 466.5,-36.7728 466.5,-17.7728 323.5,-17.7728"/>
<text text-anchor="middle" x="395" y="-24.7728" font-family="Helvetica,sans-Serif" font-size="10.00" fill="#000000">gko::array&lt; index_type &gt;</text>
</a>
</g>
</g>
<!-- Node1&#45;&gt;Node16 -->
<g id="edge15" class="edge">
<title>Node1&#45;&gt;Node16</title>
<path fill="none" stroke="#ffa500" stroke-dasharray="5,2" d="M71.573,-313.6174C80.0761,-252.0155 109.4148,-64.7028 156,-29.2728 218.2572,18.0766 318.4118,-3.219 366.8993,-17.741"/>
<polygon fill="#ffa500" stroke="#ffa500" points="68.0958,-313.214 70.2282,-323.592 75.033,-314.1493 68.0958,-313.214"/>
<text text-anchor="middle" x="228.5" y="-32.2728" font-family="Helvetica,sans-Serif" font-size="10.00" fill="#000000"> &lt; index_type &gt;</text>
</g>
</g>
</svg>
