<?xml version="1.0" encoding="UTF-8" standalone="no"?>
<!DOCTYPE svg PUBLIC "-//W3C//DTD SVG 1.1//EN"
 "http://www.w3.org/Graphics/SVG/1.1/DTD/svg11.dtd">
<!-- Generated by graphviz version 2.40.1 (20161225.0304)
 -->
<!-- Title: gko::batch::solver::EnableBatchSolver&lt; ConcreteSolver, ValueType, PolymorphicBase &gt; Pages: 1 -->
<svg width="2765pt" height="313pt"
 viewBox="0.00 0.00 2765.00 312.99" xmlns="http://www.w3.org/2000/svg" xmlns:xlink="http://www.w3.org/1999/xlink">
<g id="graph0" class="graph" transform="scale(1 1) rotate(0) translate(4 308.9902)">
<title>gko::batch::solver::EnableBatchSolver&lt; ConcreteSolver, ValueType, PolymorphicBase &gt;</title>
<polygon fill="#ffffff" stroke="transparent" points="-4,4 -4,-308.9902 2761,-308.9902 2761,4 -4,4"/>
<!-- Node1 -->
<g id="node1" class="node">
<title>Node1</title>
<g id="a_node1"><a xlink:title="This mixin provides apply and common iterative solver functionality to all the batched solvers.">
<polygon fill="#bfbfbf" stroke="#000000" points="2089,-135.5 2089,-187.5 2250,-187.5 2250,-135.5 2089,-135.5"/>
<text text-anchor="start" x="2097" y="-175.5" font-family="Helvetica,sans-Serif" font-size="10.00" fill="#000000">gko::batch::solver</text>
<text text-anchor="start" x="2097" y="-164.5" font-family="Helvetica,sans-Serif" font-size="10.00" fill="#000000">::EnableBatchSolver</text>
<text text-anchor="start" x="2097" y="-153.5" font-family="Helvetica,sans-Serif" font-size="10.00" fill="#000000">&lt; ConcreteSolver, ValueType,</text>
<text text-anchor="middle" x="2169.5" y="-142.5" font-family="Helvetica,sans-Serif" font-size="10.00" fill="#000000"> PolymorphicBase &gt;</text>
</a>
</g>
</g>
<!-- Node19 -->
<g id="node19" class="node">
<title>Node19</title>
<g id="a_node19"><a xlink:href="classgko_1_1batch_1_1solver_1_1EnableBatchSolver.html" target="_top" xlink:title=" ">
<polygon fill="#ffffff" stroke="#000000" points="2404,-175 2404,-216 2583,-216 2583,-175 2404,-175"/>
<text text-anchor="start" x="2412" y="-204" font-family="Helvetica,sans-Serif" font-size="10.00" fill="#000000">gko::batch::solver</text>
<text text-anchor="start" x="2412" y="-193" font-family="Helvetica,sans-Serif" font-size="10.00" fill="#000000">::EnableBatchSolver</text>
<text text-anchor="middle" x="2493.5" y="-182" font-family="Helvetica,sans-Serif" font-size="10.00" fill="#000000">&lt; Cg&lt; ValueType &gt;, ValueType &gt;</text>
</a>
</g>
</g>
<!-- Node1&#45;&gt;Node19 -->
<g id="edge27" class="edge">
<title>Node1&#45;&gt;Node19</title>
<path fill="none" stroke="#ffa500" stroke-dasharray="5,2" d="M2260.0433,-171.0015C2305.0111,-175.7203 2359.1653,-181.4031 2403.9909,-186.1071"/>
<polygon fill="#ffa500" stroke="#ffa500" points="2260.3169,-167.511 2250.0062,-169.9482 2259.5863,-174.4728 2260.3169,-167.511"/>
<text text-anchor="start" x="2275.5" y="-198.5" font-family="Helvetica,sans-Serif" font-size="10.00" fill="#000000"> &lt; Cg&lt; ValueType &gt;,</text>
<text text-anchor="middle" x="2327" y="-187.5" font-family="Helvetica,sans-Serif" font-size="10.00" fill="#000000"> ValueType &gt;</text>
</g>
<!-- Node21 -->
<g id="node21" class="node">
<title>Node21</title>
<g id="a_node21"><a xlink:href="classgko_1_1batch_1_1solver_1_1EnableBatchSolver.html" target="_top" xlink:title=" ">
<polygon fill="#ffffff" stroke="#000000" points="2428,-103.5 2428,-155.5 2559,-155.5 2559,-103.5 2428,-103.5"/>
<text text-anchor="start" x="2436" y="-143.5" font-family="Helvetica,sans-Serif" font-size="10.00" fill="#000000">gko::batch::solver</text>
<text text-anchor="start" x="2436" y="-132.5" font-family="Helvetica,sans-Serif" font-size="10.00" fill="#000000">::EnableBatchSolver</text>
<text text-anchor="start" x="2436" y="-121.5" font-family="Helvetica,sans-Serif" font-size="10.00" fill="#000000">&lt; Bicgstab&lt; ValueType</text>
<text text-anchor="middle" x="2493.5" y="-110.5" font-family="Helvetica,sans-Serif" font-size="10.00" fill="#000000"> &gt;, ValueType &gt;</text>
</a>
</g>
</g>
<!-- Node1&#45;&gt;Node21 -->
<g id="edge29" class="edge">
<title>Node1&#45;&gt;Node21</title>
<path fill="none" stroke="#ffa500" stroke-dasharray="5,2" d="M2260.2281,-146.4492C2262.8454,-146.1156 2265.4402,-145.7981 2268,-145.5 2321.6034,-139.2576 2382.6787,-135.1052 2427.7356,-132.5984"/>
<polygon fill="#ffa500" stroke="#ffa500" points="2259.4978,-143.0156 2250.0493,-147.8089 2260.4247,-149.9539 2259.4978,-143.0156"/>
<text text-anchor="start" x="2268" y="-159.5" font-family="Helvetica,sans-Serif" font-size="10.00" fill="#000000"> &lt; Bicgstab&lt; ValueType</text>
<text text-anchor="middle" x="2327" y="-148.5" font-family="Helvetica,sans-Serif" font-size="10.00" fill="#000000"> &gt;, ValueType &gt;</text>
</g>
<!-- Node2 -->
<g id="node2" class="node">
<title>Node2</title>
<g id="a_node2"><a xlink:href="classgko_1_1batch_1_1solver_1_1BatchSolver.html" target="_top" xlink:title="The BatchSolver is a base class for all batched solvers and provides the common getters and setter fo...">
<polygon fill="#ffffff" stroke="#000000" points="1909,-174.5 1909,-204.5 2013,-204.5 2013,-174.5 1909,-174.5"/>
<text text-anchor="start" x="1917" y="-192.5" font-family="Helvetica,sans-Serif" font-size="10.00" fill="#000000">gko::batch::solver</text>
<text text-anchor="middle" x="1961" y="-181.5" font-family="Helvetica,sans-Serif" font-size="10.00" fill="#000000">::BatchSolver</text>
</a>
</g>
</g>
<!-- Node2&#45;&gt;Node1 -->
<g id="edge1" class="edge">
<title>Node2&#45;&gt;Node1</title>
<path fill="none" stroke="#191970" d="M2022.9945,-181.1746C2043.6738,-178.3975 2067.0232,-175.2619 2088.9048,-172.3233"/>
<polygon fill="#191970" stroke="#191970" points="2022.5207,-177.7067 2013.0755,-182.5066 2023.4524,-184.6444 2022.5207,-177.7067"/>
</g>
<!-- Node3 -->
<g id="node3" class="node">
<title>Node3</title>
<g id="a_node3"><a xlink:href="classgko_1_1batch_1_1EnableBatchLinOp.html" target="_top" xlink:title=" ">
<polygon fill="#ffffff" stroke="#000000" points="1870,-114 1870,-155 2052,-155 2052,-114 1870,-114"/>
<text text-anchor="start" x="1878" y="-143" font-family="Helvetica,sans-Serif" font-size="10.00" fill="#000000">gko::batch::EnableBatchLin</text>
<text text-anchor="start" x="1878" y="-132" font-family="Helvetica,sans-Serif" font-size="10.00" fill="#000000">Op&lt; ConcreteSolver, Polymorphic</text>
<text text-anchor="middle" x="1961" y="-121" font-family="Helvetica,sans-Serif" font-size="10.00" fill="#000000">Base &gt;</text>
</a>
</g>
</g>
<!-- Node3&#45;&gt;Node1 -->
<g id="edge2" class="edge">
<title>Node3&#45;&gt;Node1</title>
<path fill="none" stroke="#191970" d="M2062.1658,-147.6006C2071.0625,-148.7527 2079.9891,-149.9087 2088.6862,-151.0349"/>
<polygon fill="#191970" stroke="#191970" points="2062.5145,-144.1166 2052.1478,-146.3033 2061.6155,-151.0587 2062.5145,-144.1166"/>
</g>
<!-- Node4 -->
<g id="node4" class="node">
<title>Node4</title>
<g id="a_node4"><a xlink:href="classgko_1_1EnablePolymorphicObject.html" target="_top" xlink:title=" ">
<polygon fill="#ffffff" stroke="#000000" points="1288,-220.5 1288,-250.5 1492,-250.5 1492,-220.5 1288,-220.5"/>
<text text-anchor="start" x="1296" y="-238.5" font-family="Helvetica,sans-Serif" font-size="10.00" fill="#000000">gko::EnablePolymorphicObject</text>
<text text-anchor="middle" x="1390" y="-227.5" font-family="Helvetica,sans-Serif" font-size="10.00" fill="#000000">&lt; ConcreteSolver, PolymorphicBase &gt;</text>
</a>
</g>
</g>
<!-- Node4&#45;&gt;Node3 -->
<g id="edge3" class="edge">
<title>Node4&#45;&gt;Node3</title>
<path fill="none" stroke="#191970" d="M1502.3128,-219.6185C1596.1243,-205.7907 1733.2253,-184.2734 1852,-160.5 1860.3935,-158.82 1869.1217,-156.9494 1877.8216,-155.0034"/>
<polygon fill="#191970" stroke="#191970" points="1501.6186,-216.1828 1492.2335,-221.0992 1502.6361,-223.1085 1501.6186,-216.1828"/>
</g>
<!-- Node5 -->
<g id="node5" class="node">
<title>Node5</title>
<g id="a_node5"><a xlink:href="classgko_1_1EnableAbstractPolymorphicObject.html" target="_top" xlink:title=" ">
<polygon fill="#ffffff" stroke="#000000" points="529.5,-255 529.5,-296 729.5,-296 729.5,-255 529.5,-255"/>
<text text-anchor="start" x="537.5" y="-284" font-family="Helvetica,sans-Serif" font-size="10.00" fill="#000000">gko::EnableAbstractPolymorphic</text>
<text text-anchor="start" x="537.5" y="-273" font-family="Helvetica,sans-Serif" font-size="10.00" fill="#000000">Object&lt; ConcreteSolver, Polymorphic</text>
<text text-anchor="middle" x="629.5" y="-262" font-family="Helvetica,sans-Serif" font-size="10.00" fill="#000000">Base &gt;</text>
</a>
</g>
</g>
<!-- Node5&#45;&gt;Node4 -->
<g id="edge4" class="edge">
<title>Node5&#45;&gt;Node4</title>
<path fill="none" stroke="#191970" d="M739.7813,-276.0372C867.6219,-275.6984 1084.5209,-272.1555 1270,-254.5 1280.8139,-253.4706 1292.1334,-252.0865 1303.3173,-250.532"/>
<polygon fill="#191970" stroke="#191970" points="739.5862,-272.5375 729.5934,-276.0579 739.6005,-279.5375 739.5862,-272.5375"/>
</g>
<!-- Node6 -->
<g id="node6" class="node">
<title>Node6</title>
<g id="a_node6"><a xlink:title=" ">
<polygon fill="#ffffff" stroke="#bfbfbf" points="0,-209 0,-228 101,-228 101,-209 0,-209"/>
<text text-anchor="middle" x="50.5" y="-216" font-family="Helvetica,sans-Serif" font-size="10.00" fill="#000000">PolymorphicBase</text>
</a>
</g>
</g>
<!-- Node6&#45;&gt;Node5 -->
<g id="edge5" class="edge">
<title>Node6&#45;&gt;Node5</title>
<path fill="none" stroke="#191970" d="M69.6964,-234.439C86.553,-247.4402 112.3272,-264.9965 138,-273.5 267.8069,-316.4954 427.6943,-306.4463 529.1384,-292.9143"/>
<polygon fill="#191970" stroke="#191970" points="71.7512,-231.6015 61.7421,-228.1275 67.4002,-237.085 71.7512,-231.6015"/>
</g>
<!-- Node7 -->
<g id="node7" class="node">
<title>Node7</title>
<g id="a_node7"><a xlink:href="classgko_1_1EnableAbstractPolymorphicObject.html" target="_top" xlink:title="This mixin inherits from (a subclass of) PolymorphicObject and provides a base implementation of a ne...">
<polygon fill="#ffffff" stroke="#000000" points="138,-223 138,-264 336,-264 336,-223 138,-223"/>
<text text-anchor="start" x="146" y="-252" font-family="Helvetica,sans-Serif" font-size="10.00" fill="#000000">gko::EnableAbstractPolymorphic</text>
<text text-anchor="start" x="146" y="-241" font-family="Helvetica,sans-Serif" font-size="10.00" fill="#000000">Object&lt; AbstractObject, Polymorphic</text>
<text text-anchor="middle" x="237" y="-230" font-family="Helvetica,sans-Serif" font-size="10.00" fill="#000000">Base &gt;</text>
</a>
</g>
</g>
<!-- Node6&#45;&gt;Node7 -->
<g id="edge7" class="edge">
<title>Node6&#45;&gt;Node7</title>
<path fill="none" stroke="#191970" d="M111.5248,-226.6803C119.9555,-227.8104 128.7869,-228.9942 137.6923,-230.188"/>
<polygon fill="#191970" stroke="#191970" points="111.8383,-223.1911 101.4619,-225.3314 110.9083,-230.129 111.8383,-223.1911"/>
</g>
<!-- Node9 -->
<g id="node9" class="node">
<title>Node9</title>
<g id="a_node9"><a xlink:href="classgko_1_1EnableAbstractPolymorphicObject.html" target="_top" xlink:title=" ">
<polygon fill="#ffffff" stroke="#000000" points="529,-195 529,-236 730,-236 730,-195 529,-195"/>
<text text-anchor="start" x="537" y="-224" font-family="Helvetica,sans-Serif" font-size="10.00" fill="#000000">gko::EnableAbstractPolymorphic</text>
<text text-anchor="start" x="537" y="-213" font-family="Helvetica,sans-Serif" font-size="10.00" fill="#000000">Object&lt; ConcreteObject, Polymorphic</text>
<text text-anchor="middle" x="629.5" y="-202" font-family="Helvetica,sans-Serif" font-size="10.00" fill="#000000">Base &gt;</text>
</a>
</g>
</g>
<!-- Node6&#45;&gt;Node9 -->
<g id="edge10" class="edge">
<title>Node6&#45;&gt;Node9</title>
<path fill="none" stroke="#191970" d="M111.6455,-214.5598C120.4846,-214.12 129.4731,-213.7434 138,-213.5 303.7109,-208.7693 345.2258,-213.3269 511,-214.5 516.8633,-214.5415 522.8899,-214.5861 528.9705,-214.6327"/>
<polygon fill="#191970" stroke="#191970" points="111.1764,-211.0796 101.3744,-215.1009 111.5447,-218.0699 111.1764,-211.0796"/>
</g>
<!-- Node16 -->
<g id="node16" class="node">
<title>Node16</title>
<g id="a_node16"><a xlink:href="classgko_1_1EnableAbstractPolymorphicObject.html" target="_top" xlink:title=" ">
<polygon fill="#ffffff" stroke="#000000" points="542,-135 542,-176 717,-176 717,-135 542,-135"/>
<text text-anchor="start" x="550" y="-164" font-family="Helvetica,sans-Serif" font-size="10.00" fill="#000000">gko::EnableAbstractPolymorphic</text>
<text text-anchor="start" x="550" y="-153" font-family="Helvetica,sans-Serif" font-size="10.00" fill="#000000">Object&lt; ConcreteBatchLinOp,</text>
<text text-anchor="middle" x="629.5" y="-142" font-family="Helvetica,sans-Serif" font-size="10.00" fill="#000000"> PolymorphicBase &gt;</text>
</a>
</g>
</g>
<!-- Node6&#45;&gt;Node16 -->
<g id="edge20" class="edge">
<title>Node6&#45;&gt;Node16</title>
<path fill="none" stroke="#191970" d="M98.8702,-206.6062C158.4484,-192.5729 262.9567,-169.9556 354,-160.5 416.5701,-154.0016 487.5523,-152.86 541.7948,-153.2866"/>
<polygon fill="#191970" stroke="#191970" points="97.9137,-203.2359 88.9927,-208.9513 99.5307,-210.0466 97.9137,-203.2359"/>
</g>
<!-- Node7&#45;&gt;Node5 -->
<g id="edge6" class="edge">
<title>Node7&#45;&gt;Node5</title>
<path fill="none" stroke="#ffa500" stroke-dasharray="5,2" d="M346.2428,-252.4064C403.6414,-257.086 473.4903,-262.7807 529.464,-267.3442"/>
<polygon fill="#ffa500" stroke="#ffa500" points="346.2957,-248.8992 336.0443,-251.575 345.7268,-255.8761 346.2957,-248.8992"/>
<text text-anchor="start" x="354.5" y="-278.5" font-family="Helvetica,sans-Serif" font-size="10.00" fill="#000000"> &lt; ConcreteSolver, Polymorphic</text>
<text text-anchor="middle" x="432.5" y="-267.5" font-family="Helvetica,sans-Serif" font-size="10.00" fill="#000000">Base &gt;</text>
</g>
<!-- Node7&#45;&gt;Node9 -->
<g id="edge11" class="edge">
<title>Node7&#45;&gt;Node9</title>
<path fill="none" stroke="#ffa500" stroke-dasharray="5,2" d="M346.2885,-229.2079C348.8828,-228.9593 351.4563,-228.7227 354,-228.5 411.837,-223.4362 476.6894,-220.2529 528.9372,-218.3047"/>
<polygon fill="#ffa500" stroke="#ffa500" points="345.7972,-225.7396 336.1975,-230.2224 346.4975,-232.7045 345.7972,-225.7396"/>
<text text-anchor="start" x="354" y="-242.5" font-family="Helvetica,sans-Serif" font-size="10.00" fill="#000000"> &lt; ConcreteObject, Polymorphic</text>
<text text-anchor="middle" x="432.5" y="-231.5" font-family="Helvetica,sans-Serif" font-size="10.00" fill="#000000">Base &gt;</text>
</g>
<!-- Node7&#45;&gt;Node16 -->
<g id="edge21" class="edge">
<title>Node7&#45;&gt;Node16</title>
<path fill="none" stroke="#ffa500" stroke-dasharray="5,2" d="M285.7609,-218.6304C306.3454,-209.0928 330.8655,-198.9596 354,-192.5 415.4716,-175.336 486.9552,-166.0315 541.701,-161.0466"/>
<polygon fill="#ffa500" stroke="#ffa500" points="284.1481,-215.5213 276.5992,-222.9553 287.1364,-221.8514 284.1481,-215.5213"/>
<text text-anchor="start" x="374" y="-206.5" font-family="Helvetica,sans-Serif" font-size="10.00" fill="#000000"> &lt; ConcreteBatchLinOp,</text>
<text text-anchor="middle" x="432.5" y="-195.5" font-family="Helvetica,sans-Serif" font-size="10.00" fill="#000000"> PolymorphicBase &gt;</text>
</g>
<!-- Node8 -->
<g id="node8" class="node">
<title>Node8</title>
<g id="a_node8"><a xlink:href="classgko_1_1EnablePolymorphicObject.html" target="_top" xlink:title="This mixin inherits from (a subclass of) PolymorphicObject and provides a base implementation of a ne...">
<polygon fill="#ffffff" stroke="#000000" points="891,-200.5 891,-230.5 1096,-230.5 1096,-200.5 891,-200.5"/>
<text text-anchor="start" x="899" y="-218.5" font-family="Helvetica,sans-Serif" font-size="10.00" fill="#000000">gko::EnablePolymorphicObject</text>
<text text-anchor="middle" x="993.5" y="-207.5" font-family="Helvetica,sans-Serif" font-size="10.00" fill="#000000">&lt; ConcreteObject, PolymorphicBase &gt;</text>
</a>
</g>
</g>
<!-- Node8&#45;&gt;Node4 -->
<g id="edge8" class="edge">
<title>Node8&#45;&gt;Node4</title>
<path fill="none" stroke="#ffa500" stroke-dasharray="5,2" d="M1106.282,-221.1889C1163.4083,-224.0704 1232.2441,-227.5426 1287.8058,-230.3452"/>
<polygon fill="#ffa500" stroke="#ffa500" points="1106.2879,-217.6848 1096.1242,-220.6765 1105.9352,-224.6759 1106.2879,-217.6848"/>
<text text-anchor="start" x="1114" y="-242.5" font-family="Helvetica,sans-Serif" font-size="10.00" fill="#000000"> &lt; ConcreteSolver, Polymorphic</text>
<text text-anchor="middle" x="1192" y="-231.5" font-family="Helvetica,sans-Serif" font-size="10.00" fill="#000000">Base &gt;</text>
</g>
<!-- Node15 -->
<g id="node15" class="node">
<title>Node15</title>
<g id="a_node15"><a xlink:href="classgko_1_1EnablePolymorphicObject.html" target="_top" xlink:title=" ">
<polygon fill="#ffffff" stroke="#000000" points="1293,-142 1293,-183 1487,-183 1487,-142 1293,-142"/>
<text text-anchor="start" x="1301" y="-171" font-family="Helvetica,sans-Serif" font-size="10.00" fill="#000000">gko::EnablePolymorphicObject</text>
<text text-anchor="start" x="1301" y="-160" font-family="Helvetica,sans-Serif" font-size="10.00" fill="#000000">&lt; ConcreteBatchLinOp, Polymorphic</text>
<text text-anchor="middle" x="1390" y="-149" font-family="Helvetica,sans-Serif" font-size="10.00" fill="#000000">Base &gt;</text>
</a>
</g>
</g>
<!-- Node8&#45;&gt;Node15 -->
<g id="edge22" class="edge">
<title>Node8&#45;&gt;Node15</title>
<path fill="none" stroke="#ffa500" stroke-dasharray="5,2" d="M1091.3567,-198.8749C1099.0121,-197.6915 1106.6284,-196.5519 1114,-195.5 1173.2398,-187.0468 1239.8459,-179.0402 1292.7835,-173.0308"/>
<polygon fill="#ffa500" stroke="#ffa500" points="1090.6256,-195.4467 1081.2878,-200.4523 1091.7091,-202.3623 1090.6256,-195.4467"/>
<text text-anchor="start" x="1133.5" y="-209.5" font-family="Helvetica,sans-Serif" font-size="10.00" fill="#000000"> &lt; ConcreteBatchLinOp,</text>
<text text-anchor="middle" x="1192" y="-198.5" font-family="Helvetica,sans-Serif" font-size="10.00" fill="#000000"> PolymorphicBase &gt;</text>
</g>
<!-- Node9&#45;&gt;Node8 -->
<g id="edge9" class="edge">
<title>Node9&#45;&gt;Node8</title>
<path fill="none" stroke="#191970" d="M740.4955,-215.5C788.3344,-215.5 843.9354,-215.5 890.8106,-215.5"/>
<polygon fill="#191970" stroke="#191970" points="740.4109,-212.0001 730.4109,-215.5 740.4109,-219.0001 740.4109,-212.0001"/>
</g>
<!-- Node10 -->
<g id="node10" class="node">
<title>Node10</title>
<g id="a_node10"><a xlink:href="classgko_1_1EnablePolymorphicAssignment.html" target="_top" xlink:title=" ">
<polygon fill="#ffffff" stroke="#000000" points="1294,-38.5 1294,-68.5 1486,-68.5 1486,-38.5 1294,-38.5"/>
<text text-anchor="start" x="1302" y="-56.5" font-family="Helvetica,sans-Serif" font-size="10.00" fill="#000000">gko::EnablePolymorphicAssignment</text>
<text text-anchor="middle" x="1390" y="-45.5" font-family="Helvetica,sans-Serif" font-size="10.00" fill="#000000">&lt; ConcreteSolver &gt;</text>
</a>
</g>
</g>
<!-- Node10&#45;&gt;Node3 -->
<g id="edge12" class="edge">
<title>Node10&#45;&gt;Node3</title>
<path fill="none" stroke="#191970" d="M1496.4283,-68.5975C1603.8183,-83.8315 1767.898,-107.1072 1869.5887,-121.5327"/>
<polygon fill="#191970" stroke="#191970" points="1496.6092,-65.0882 1486.2167,-67.149 1495.626,-72.0188 1496.6092,-65.0882"/>
</g>
<!-- Node11 -->
<g id="node11" class="node">
<title>Node11</title>
<g id="a_node11"><a xlink:href="classgko_1_1ConvertibleTo.html" target="_top" xlink:title=" ">
<polygon fill="#ffffff" stroke="#000000" points="937,-.5 937,-30.5 1050,-30.5 1050,-.5 937,-.5"/>
<text text-anchor="start" x="945" y="-18.5" font-family="Helvetica,sans-Serif" font-size="10.00" fill="#000000">gko::ConvertibleTo</text>
<text text-anchor="middle" x="993.5" y="-7.5" font-family="Helvetica,sans-Serif" font-size="10.00" fill="#000000">&lt; ConcreteSolver &gt;</text>
</a>
</g>
</g>
<!-- Node11&#45;&gt;Node10 -->
<g id="edge13" class="edge">
<title>Node11&#45;&gt;Node10</title>
<path fill="none" stroke="#191970" d="M1060.2846,-21.9005C1124.2774,-28.0335 1221.5422,-37.3552 1293.8662,-44.2867"/>
<polygon fill="#191970" stroke="#191970" points="1060.5971,-18.4145 1050.3088,-20.9445 1059.9292,-25.3826 1060.5971,-18.4145"/>
</g>
<!-- Node12 -->
<g id="node12" class="node">
<title>Node12</title>
<g id="a_node12"><a xlink:href="classgko_1_1ConvertibleTo.html" target="_top" xlink:title="ConvertibleTo interface is used to mark that the implementer can be converted to the object of Result...">
<polygon fill="#ffffff" stroke="#000000" points="576,-49.5 576,-79.5 683,-79.5 683,-49.5 576,-49.5"/>
<text text-anchor="start" x="584" y="-67.5" font-family="Helvetica,sans-Serif" font-size="10.00" fill="#000000">gko::ConvertibleTo</text>
<text text-anchor="middle" x="629.5" y="-56.5" font-family="Helvetica,sans-Serif" font-size="10.00" fill="#000000">&lt; ResultType &gt;</text>
</a>
</g>
</g>
<!-- Node12&#45;&gt;Node11 -->
<g id="edge14" class="edge">
<title>Node12&#45;&gt;Node11</title>
<path fill="none" stroke="#ffa500" stroke-dasharray="5,2" d="M693.496,-55.8851C762.3989,-46.6098 870.9678,-31.9947 936.8716,-23.1231"/>
<polygon fill="#ffa500" stroke="#ffa500" points="692.6531,-52.467 683.2095,-57.2699 693.587,-59.4044 692.6531,-52.467"/>
<text text-anchor="middle" x="810.5" y="-50.5" font-family="Helvetica,sans-Serif" font-size="10.00" fill="#000000"> &lt; ConcreteSolver &gt;</text>
</g>
<!-- Node13 -->
<g id="node13" class="node">
<title>Node13</title>
<g id="a_node13"><a xlink:href="classgko_1_1EnablePolymorphicAssignment.html" target="_top" xlink:title="This mixin is used to enable a default PolymorphicObject::copy_from() implementation for objects that...">
<polygon fill="#ffffff" stroke="#000000" points="897.5,-49.5 897.5,-79.5 1089.5,-79.5 1089.5,-49.5 897.5,-49.5"/>
<text text-anchor="start" x="905.5" y="-67.5" font-family="Helvetica,sans-Serif" font-size="10.00" fill="#000000">gko::EnablePolymorphicAssignment</text>
<text text-anchor="middle" x="993.5" y="-56.5" font-family="Helvetica,sans-Serif" font-size="10.00" fill="#000000">&lt; ConcreteType, ResultType &gt;</text>
</a>
</g>
</g>
<!-- Node12&#45;&gt;Node13 -->
<g id="edge16" class="edge">
<title>Node12&#45;&gt;Node13</title>
<path fill="none" stroke="#191970" d="M693.4312,-64.5C749.8928,-64.5 833.0261,-64.5 897.4802,-64.5"/>
<polygon fill="#191970" stroke="#191970" points="693.2095,-61.0001 683.2095,-64.5 693.2094,-68.0001 693.2095,-61.0001"/>
</g>
<!-- Node18 -->
<g id="node18" class="node">
<title>Node18</title>
<g id="a_node18"><a xlink:href="classgko_1_1ConvertibleTo.html" target="_top" xlink:title=" ">
<polygon fill="#ffffff" stroke="#000000" points="924.5,-98.5 924.5,-128.5 1062.5,-128.5 1062.5,-98.5 924.5,-98.5"/>
<text text-anchor="start" x="932.5" y="-116.5" font-family="Helvetica,sans-Serif" font-size="10.00" fill="#000000">gko::ConvertibleTo</text>
<text text-anchor="middle" x="993.5" y="-105.5" font-family="Helvetica,sans-Serif" font-size="10.00" fill="#000000">&lt; ConcreteBatchLinOp &gt;</text>
</a>
</g>
</g>
<!-- Node12&#45;&gt;Node18 -->
<g id="edge25" class="edge">
<title>Node12&#45;&gt;Node18</title>
<path fill="none" stroke="#ffa500" stroke-dasharray="5,2" d="M693.2781,-73.0855C757.9571,-81.7923 857.75,-95.226 924.3084,-104.1857"/>
<polygon fill="#ffa500" stroke="#ffa500" points="693.587,-69.5956 683.2095,-71.7301 692.6531,-76.533 693.587,-69.5956"/>
<text text-anchor="middle" x="810.5" y="-99.5" font-family="Helvetica,sans-Serif" font-size="10.00" fill="#000000"> &lt; ConcreteBatchLinOp &gt;</text>
</g>
<!-- Node13&#45;&gt;Node10 -->
<g id="edge15" class="edge">
<title>Node13&#45;&gt;Node10</title>
<path fill="none" stroke="#ffa500" stroke-dasharray="5,2" d="M1100.126,-55.1971C1104.8124,-54.9316 1109.4532,-54.6966 1114,-54.5 1173.7206,-51.9178 1240.7776,-51.6148 1293.8391,-51.9828"/>
<polygon fill="#ffa500" stroke="#ffa500" points="1099.5818,-51.7236 1089.8126,-55.824 1100.0066,-58.7107 1099.5818,-51.7236"/>
<text text-anchor="middle" x="1192" y="-57.5" font-family="Helvetica,sans-Serif" font-size="10.00" fill="#000000"> &lt; ConcreteSolver &gt;</text>
</g>
<!-- Node17 -->
<g id="node17" class="node">
<title>Node17</title>
<g id="a_node17"><a xlink:href="classgko_1_1EnablePolymorphicAssignment.html" target="_top" xlink:title=" ">
<polygon fill="#ffffff" stroke="#000000" points="1294,-92.5 1294,-122.5 1486,-122.5 1486,-92.5 1294,-92.5"/>
<text text-anchor="start" x="1302" y="-110.5" font-family="Helvetica,sans-Serif" font-size="10.00" fill="#000000">gko::EnablePolymorphicAssignment</text>
<text text-anchor="middle" x="1390" y="-99.5" font-family="Helvetica,sans-Serif" font-size="10.00" fill="#000000">&lt; ConcreteBatchLinOp &gt;</text>
</a>
</g>
</g>
<!-- Node13&#45;&gt;Node17 -->
<g id="edge26" class="edge">
<title>Node13&#45;&gt;Node17</title>
<path fill="none" stroke="#ffa500" stroke-dasharray="5,2" d="M1099.6907,-76.0163C1160.1538,-82.5734 1235.3021,-90.7232 1293.9915,-97.088"/>
<polygon fill="#ffa500" stroke="#ffa500" points="1100.0537,-72.5352 1089.7346,-74.9365 1099.2989,-79.4944 1100.0537,-72.5352"/>
<text text-anchor="middle" x="1192" y="-97.5" font-family="Helvetica,sans-Serif" font-size="10.00" fill="#000000"> &lt; ConcreteBatchLinOp &gt;</text>
</g>
<!-- Node14 -->
<g id="node14" class="node">
<title>Node14</title>
<g id="a_node14"><a xlink:href="classgko_1_1batch_1_1EnableBatchLinOp.html" target="_top" xlink:title="The EnableBatchLinOp mixin can be used to provide sensible default implementations of the majority of...">
<polygon fill="#ffffff" stroke="#000000" points="1529,-114 1529,-155 1678,-155 1678,-114 1529,-114"/>
<text text-anchor="start" x="1537" y="-143" font-family="Helvetica,sans-Serif" font-size="10.00" fill="#000000">gko::batch::EnableBatchLin</text>
<text text-anchor="start" x="1537" y="-132" font-family="Helvetica,sans-Serif" font-size="10.00" fill="#000000">Op&lt; ConcreteBatchLinOp,</text>
<text text-anchor="middle" x="1603.5" y="-121" font-family="Helvetica,sans-Serif" font-size="10.00" fill="#000000"> PolymorphicBase &gt;</text>
</a>
</g>
</g>
<!-- Node14&#45;&gt;Node3 -->
<g id="edge17" class="edge">
<title>Node14&#45;&gt;Node3</title>
<path fill="none" stroke="#ffa500" stroke-dasharray="5,2" d="M1688.0173,-134.5C1742.6854,-134.5 1813.8213,-134.5 1869.7699,-134.5"/>
<polygon fill="#ffa500" stroke="#ffa500" points="1688.0086,-131.0001 1678.0086,-134.5 1688.0085,-138.0001 1688.0086,-131.0001"/>
<text text-anchor="start" x="1696" y="-148.5" font-family="Helvetica,sans-Serif" font-size="10.00" fill="#000000"> &lt; ConcreteSolver, Polymorphic</text>
<text text-anchor="middle" x="1774" y="-137.5" font-family="Helvetica,sans-Serif" font-size="10.00" fill="#000000">Base &gt;</text>
</g>
<!-- Node15&#45;&gt;Node14 -->
<g id="edge18" class="edge">
<title>Node15&#45;&gt;Node14</title>
<path fill="none" stroke="#191970" d="M1497.2567,-148.4336C1507.8971,-147.0381 1518.5308,-145.6435 1528.7349,-144.3053"/>
<polygon fill="#191970" stroke="#191970" points="1496.5267,-144.9992 1487.0668,-149.7699 1497.437,-151.9398 1496.5267,-144.9992"/>
</g>
<!-- Node16&#45;&gt;Node15 -->
<g id="edge19" class="edge">
<title>Node16&#45;&gt;Node15</title>
<path fill="none" stroke="#191970" d="M727.4092,-156.4012C873.5584,-157.7464 1147.139,-160.2646 1292.8472,-161.6058"/>
<polygon fill="#191970" stroke="#191970" points="727.142,-152.8987 717.1102,-156.3064 727.0775,-159.8984 727.142,-152.8987"/>
</g>
<!-- Node17&#45;&gt;Node14 -->
<g id="edge23" class="edge">
<title>Node17&#45;&gt;Node14</title>
<path fill="none" stroke="#191970" d="M1496.2002,-120.9305C1507.18,-122.319 1518.1674,-123.7085 1528.698,-125.0403"/>
<polygon fill="#191970" stroke="#191970" points="1496.4925,-117.4396 1486.1323,-119.6573 1495.6142,-124.3843 1496.4925,-117.4396"/>
</g>
<!-- Node18&#45;&gt;Node17 -->
<g id="edge24" class="edge">
<title>Node18&#45;&gt;Node17</title>
<path fill="none" stroke="#191970" d="M1072.949,-112.2977C1136.6159,-111.3343 1226.1811,-109.979 1293.884,-108.9545"/>
<polygon fill="#191970" stroke="#191970" points="1072.5109,-108.8039 1062.565,-112.4549 1072.6169,-115.8031 1072.5109,-108.8039"/>
</g>
<!-- Node20 -->
<g id="node20" class="node">
<title>Node20</title>
<g id="a_node20"><a xlink:href="classgko_1_1batch_1_1solver_1_1Cg.html" target="_top" xlink:title="Cg or the Conjugate Gradient is a Krylov subspace solver.">
<polygon fill="#ffffff" stroke="#000000" points="2635,-180.5 2635,-210.5 2742,-210.5 2742,-180.5 2635,-180.5"/>
<text text-anchor="start" x="2643" y="-198.5" font-family="Helvetica,sans-Serif" font-size="10.00" fill="#000000">gko::batch::solver</text>
<text text-anchor="middle" x="2688.5" y="-187.5" font-family="Helvetica,sans-Serif" font-size="10.00" fill="#000000">::Cg&lt; ValueType &gt;</text>
</a>
</g>
</g>
<!-- Node19&#45;&gt;Node20 -->
<g id="edge28" class="edge">
<title>Node19&#45;&gt;Node20</title>
<path fill="none" stroke="#191970" d="M2593.4166,-195.5C2607.7157,-195.5 2621.9455,-195.5 2634.8748,-195.5"/>
<polygon fill="#191970" stroke="#191970" points="2593.01,-192.0001 2583.0099,-195.5 2593.0099,-199.0001 2593.01,-192.0001"/>
</g>
<!-- Node22 -->
<g id="node22" class="node">
<title>Node22</title>
<g id="a_node22"><a xlink:href="classgko_1_1batch_1_1solver_1_1Bicgstab.html" target="_top" xlink:title="BiCGSTAB or the Bi&#45;Conjugate Gradient&#45;Stabilized is a Krylov subspace solver.">
<polygon fill="#ffffff" stroke="#000000" points="2620,-114.5 2620,-144.5 2757,-144.5 2757,-114.5 2620,-114.5"/>
<text text-anchor="start" x="2628" y="-132.5" font-family="Helvetica,sans-Serif" font-size="10.00" fill="#000000">gko::batch::solver</text>
<text text-anchor="middle" x="2688.5" y="-121.5" font-family="Helvetica,sans-Serif" font-size="10.00" fill="#000000">::Bicgstab&lt; ValueType &gt;</text>
</a>
</g>
</g>
<!-- Node21&#45;&gt;Node22 -->
<g id="edge30" class="edge">
<title>Node21&#45;&gt;Node22</title>
<path fill="none" stroke="#191970" d="M2569.4299,-129.5C2585.9963,-129.5 2603.4373,-129.5 2619.7074,-129.5"/>
<polygon fill="#191970" stroke="#191970" points="2569.2463,-126.0001 2559.2463,-129.5 2569.2462,-133.0001 2569.2463,-126.0001"/>
</g>
</g>
</svg>
