<?xml version="1.0" encoding="UTF-8" standalone="no"?>
<!DOCTYPE svg PUBLIC "-//W3C//DTD SVG 1.1//EN"
 "http://www.w3.org/Graphics/SVG/1.1/DTD/svg11.dtd">
<!-- Generated by graphviz version 2.40.1 (20161225.0304)
 -->
<!-- Title: gko::solver::Ir&lt; ValueType &gt; Pages: 1 -->
<!--zoomable 540 -->
<svg id="main" version="1.1" xmlns="http://www.w3.org/2000/svg" xmlns:xlink="http://www.w3.org/1999/xlink" xml:space="preserve" onload="init(evt)">
<style type="text/css"><![CDATA[
.edge:hover path { stroke: red; }
.edge:hover polygon { stroke: red; fill: red; }
]]></style>
<script type="text/javascript"><![CDATA[
var edges = document.getElementsByTagName('g');
if (edges && edges.length) {
  for (var i=0;i<edges.length;i++) {
    if (edges[i].id.substr(0,4)=='edge') {
      edges[i].setAttribute('class','edge');
    }
  }
}
]]></script>
        <defs>
                <circle id="rim" cx="0" cy="0" r="7"/>
                <circle id="rim2" cx="0" cy="0" r="3.5"/>
                <g id="zoomPlus">
                        <use xlink:href="#rim" fill="#404040">
                                <set attributeName="fill" to="#808080" begin="zoomplus.mouseover" end="zoomplus.mouseout"/>
                        </use>
                        <path d="M-4,0h8M0,-4v8" fill="none" stroke="white" stroke-width="1.5" pointer-events="none"/>
                </g>
                <g id="zoomMin">
                        <use xlink:href="#rim" fill="#404040">
                                <set attributeName="fill" to="#808080" begin="zoomminus.mouseover" end="zoomminus.mouseout"/>
                        </use>
                        <path d="M-4,0h8" fill="none" stroke="white" stroke-width="1.5" pointer-events="none"/>
                </g>
                <g id="dirArrow">
                        <path fill="none" stroke="white" stroke-width="1.5" d="M0,-3.0v7 M-2.5,-0.5L0,-3.0L2.5,-0.5"/>
                </g>
               <g id="resetDef">
                       <use xlink:href="#rim2" fill="#404040">
                               <set attributeName="fill" to="#808080" begin="reset.mouseover" end="reset.mouseout"/>
                       </use>
               </g>
        </defs>

<script type="text/javascript">
var viewWidth = 2231;
var viewHeight = 540;
var sectionId = 'dynsection-1';
</script>
<script xlink:href="svgpan.js"/>
<svg id="graph" class="graph">
<g id="viewport">
<title>gko::solver::Ir&lt; ValueType &gt;</title>
<polygon fill="#ffffff" stroke="transparent" points="-4,4 -4,-535.5 2227,-535.5 2227,4 -4,4"/>
<!-- Node1 -->
<g id="node1" class="node">
<title>Node1</title>
<g id="a_node1"><a xlink:title="Iterative refinement (IR) is an iterative method that uses another coarse method to approximate the e...">
<polygon fill="#bfbfbf" stroke="#000000" points="2068,-126 2068,-145 2223,-145 2223,-126 2068,-126"/>
<text text-anchor="middle" x="2145.5" y="-133" font-family="Helvetica,sans-Serif" font-size="10.00" fill="#000000">gko::solver::Ir&lt; ValueType &gt;</text>
</a>
</g>
</g>
<!-- Node2 -->
<g id="node2" class="node">
<title>Node2</title>
<g id="a_node2"><a xlink:href="classgko_1_1EnableLinOp.html" target="_top" xlink:title=" ">
<polygon fill="#ffffff" stroke="#000000" points="1896,-285.5 1896,-315.5 2015,-315.5 2015,-285.5 1896,-285.5"/>
<text text-anchor="start" x="1904" y="-303.5" font-family="Helvetica,sans-Serif" font-size="10.00" fill="#000000">gko::EnableLinOp&lt; Ir</text>
<text text-anchor="middle" x="1955.5" y="-292.5" font-family="Helvetica,sans-Serif" font-size="10.00" fill="#000000">&lt; ValueType &gt; &gt;</text>
</a>
</g>
</g>
<!-- Node2&#45;&gt;Node1 -->
<g id="edge1" class="edge">
<title>Node2&#45;&gt;Node1</title>
<path fill="none" stroke="#191970" d="M1980.5978,-278.7045C2022.4597,-242.3508 2104.8668,-170.7867 2134.533,-145.0239"/>
<polygon fill="#191970" stroke="#191970" points="1978.2896,-276.0734 1973.0342,-285.2729 1982.8795,-281.3587 1978.2896,-276.0734"/>
</g>
<!-- Node3 -->
<g id="node3" class="node">
<title>Node3</title>
<g id="a_node3"><a xlink:href="classgko_1_1EnablePolymorphicObject.html" target="_top" xlink:title=" ">
<polygon fill="#ffffff" stroke="#000000" points="1564.5,-415.5 1564.5,-445.5 1730.5,-445.5 1730.5,-415.5 1564.5,-415.5"/>
<text text-anchor="start" x="1572.5" y="-433.5" font-family="Helvetica,sans-Serif" font-size="10.00" fill="#000000">gko::EnablePolymorphicObject</text>
<text text-anchor="middle" x="1647.5" y="-422.5" font-family="Helvetica,sans-Serif" font-size="10.00" fill="#000000">&lt; Ir&lt; ValueType &gt;, LinOp &gt;</text>
</a>
</g>
</g>
<!-- Node3&#45;&gt;Node2 -->
<g id="edge2" class="edge">
<title>Node3&#45;&gt;Node2</title>
<path fill="none" stroke="#191970" d="M1692.5942,-411.4667C1754.1916,-385.4678 1863.401,-339.373 1919.7132,-315.6048"/>
<polygon fill="#191970" stroke="#191970" points="1690.9844,-408.3472 1683.1324,-415.4603 1693.7064,-414.7962 1690.9844,-408.3472"/>
</g>
<!-- Node4 -->
<g id="node4" class="node">
<title>Node4</title>
<g id="a_node4"><a xlink:href="classgko_1_1EnableAbstractPolymorphicObject.html" target="_top" xlink:title=" ">
<polygon fill="#ffffff" stroke="#000000" points="1278,-471 1278,-512 1453,-512 1453,-471 1278,-471"/>
<text text-anchor="start" x="1286" y="-500" font-family="Helvetica,sans-Serif" font-size="10.00" fill="#000000">gko::EnableAbstractPolymorphic</text>
<text text-anchor="start" x="1286" y="-489" font-family="Helvetica,sans-Serif" font-size="10.00" fill="#000000">Object&lt; Ir&lt; ValueType &gt;,</text>
<text text-anchor="middle" x="1365.5" y="-478" font-family="Helvetica,sans-Serif" font-size="10.00" fill="#000000"> LinOp &gt;</text>
</a>
</g>
</g>
<!-- Node4&#45;&gt;Node3 -->
<g id="edge3" class="edge">
<title>Node4&#45;&gt;Node3</title>
<path fill="none" stroke="#191970" d="M1463.1759,-470.3715C1500.9016,-462.211 1543.2105,-453.0591 1577.7695,-445.5836"/>
<polygon fill="#191970" stroke="#191970" points="1462.2147,-466.9984 1453.1808,-472.5336 1463.6947,-473.8402 1462.2147,-466.9984"/>
</g>
<!-- Node5 -->
<g id="node5" class="node">
<title>Node5</title>
<g id="a_node5"><a xlink:href="classgko_1_1LinOp.html" target="_top" xlink:title=" ">
<polygon fill="#ffffff" stroke="#000000" points="939.5,-479 939.5,-498 1007.5,-498 1007.5,-479 939.5,-479"/>
<text text-anchor="middle" x="973.5" y="-486" font-family="Helvetica,sans-Serif" font-size="10.00" fill="#000000">gko::LinOp</text>
</a>
</g>
</g>
<!-- Node5&#45;&gt;Node4 -->
<g id="edge4" class="edge">
<title>Node5&#45;&gt;Node4</title>
<path fill="none" stroke="#191970" d="M1017.9667,-488.8403C1080.8762,-489.3218 1197.1665,-490.2117 1277.805,-490.8289"/>
<polygon fill="#191970" stroke="#191970" points="1017.6282,-485.3377 1007.6017,-488.761 1017.5746,-492.3375 1017.6282,-485.3377"/>
</g>
<!-- Node6 -->
<g id="node6" class="node">
<title>Node6</title>
<g id="a_node6"><a xlink:href="classgko_1_1EnableAbstractPolymorphicObject.html" target="_top" xlink:title=" ">
<polygon fill="#ffffff" stroke="#ff0000" points="542,-469.5 542,-499.5 717,-499.5 717,-469.5 542,-469.5"/>
<text text-anchor="start" x="550" y="-487.5" font-family="Helvetica,sans-Serif" font-size="10.00" fill="#000000">gko::EnableAbstractPolymorphic</text>
<text text-anchor="middle" x="629.5" y="-476.5" font-family="Helvetica,sans-Serif" font-size="10.00" fill="#000000">Object&lt; LinOp &gt;</text>
</a>
</g>
</g>
<!-- Node6&#45;&gt;Node5 -->
<g id="edge5" class="edge">
<title>Node6&#45;&gt;Node5</title>
<path fill="none" stroke="#191970" d="M727.5234,-485.6398C798.5972,-486.4662 890.4903,-487.5348 939.3733,-488.1032"/>
<polygon fill="#191970" stroke="#191970" points="727.2359,-482.1363 717.1958,-485.5197 727.1544,-489.1358 727.2359,-482.1363"/>
</g>
<!-- Node12 -->
<g id="node7" class="node">
<title>Node12</title>
<g id="a_node7"><a xlink:href="classgko_1_1EnableAbstractPolymorphicObject.html" target="_top" xlink:title="This mixin inherits from (a subclass of) PolymorphicObject and provides a base implementation of a ne...">
<polygon fill="#ffffff" stroke="#000000" points="138,-428 138,-469 336,-469 336,-428 138,-428"/>
<text text-anchor="start" x="146" y="-457" font-family="Helvetica,sans-Serif" font-size="10.00" fill="#000000">gko::EnableAbstractPolymorphic</text>
<text text-anchor="start" x="146" y="-446" font-family="Helvetica,sans-Serif" font-size="10.00" fill="#000000">Object&lt; AbstractObject, Polymorphic</text>
<text text-anchor="middle" x="237" y="-435" font-family="Helvetica,sans-Serif" font-size="10.00" fill="#000000">Base &gt;</text>
</a>
</g>
</g>
<!-- Node12&#45;&gt;Node4 -->
<g id="edge8" class="edge">
<title>Node12&#45;&gt;Node4</title>
<path fill="none" stroke="#ffa500" stroke-dasharray="5,2" d="M290.9619,-472.831C310.4575,-480.6577 332.8721,-488.5714 354,-493.5 430.0601,-511.2428 450.979,-505.9407 529,-509.5 584.3973,-512.0272 995.9654,-508.6673 1076,-507.5 1152.0127,-506.3914 1171.126,-508.222 1247,-503.5 1257.0095,-502.8771 1267.4796,-502.0594 1277.8766,-501.1433"/>
<polygon fill="#ffa500" stroke="#ffa500" points="292.2245,-469.5659 281.6443,-469.0092 289.568,-476.0423 292.2245,-469.5659"/>
<text text-anchor="start" x="752" y="-523.5" font-family="Helvetica,sans-Serif" font-size="10.00" fill="#000000"> &lt; Ir&lt; ValueType &gt;,</text>
<text text-anchor="middle" x="800.5" y="-512.5" font-family="Helvetica,sans-Serif" font-size="10.00" fill="#000000"> LinOp &gt;</text>
</g>
<!-- Node12&#45;&gt;Node6 -->
<g id="edge6" class="edge">
<title>Node12&#45;&gt;Node6</title>
<path fill="none" stroke="#ffa500" stroke-dasharray="5,2" d="M346.2787,-465.6196C348.8759,-465.9272 351.4527,-466.2214 354,-466.5 416.6567,-473.3533 487.6365,-477.9154 541.8562,-480.7318"/>
<polygon fill="#ffa500" stroke="#ffa500" points="346.5317,-462.1244 336.178,-464.3716 345.6733,-469.0715 346.5317,-462.1244"/>
<text text-anchor="middle" x="432.5" y="-481.5" font-family="Helvetica,sans-Serif" font-size="10.00" fill="#000000"> &lt; LinOp &gt;</text>
</g>
<!-- Node14 -->
<g id="node10" class="node">
<title>Node14</title>
<g id="a_node10"><a xlink:href="classgko_1_1EnableAbstractPolymorphicObject.html" target="_top" xlink:title=" ">
<polygon fill="#ffffff" stroke="#000000" points="529,-405 529,-446 730,-446 730,-405 529,-405"/>
<text text-anchor="start" x="537" y="-434" font-family="Helvetica,sans-Serif" font-size="10.00" fill="#000000">gko::EnableAbstractPolymorphic</text>
<text text-anchor="start" x="537" y="-423" font-family="Helvetica,sans-Serif" font-size="10.00" fill="#000000">Object&lt; ConcreteObject, Polymorphic</text>
<text text-anchor="middle" x="629.5" y="-412" font-family="Helvetica,sans-Serif" font-size="10.00" fill="#000000">Base &gt;</text>
</a>
</g>
</g>
<!-- Node12&#45;&gt;Node14 -->
<g id="edge12" class="edge">
<title>Node12&#45;&gt;Node14</title>
<path fill="none" stroke="#ffa500" stroke-dasharray="5,2" d="M346.2032,-442.1008C403.3756,-438.7506 472.9091,-434.676 528.78,-431.4021"/>
<polygon fill="#ffa500" stroke="#ffa500" points="345.8224,-438.617 336.0443,-442.6961 346.232,-445.6051 345.8224,-438.617"/>
<text text-anchor="start" x="354" y="-454.5" font-family="Helvetica,sans-Serif" font-size="10.00" fill="#000000"> &lt; ConcreteObject, Polymorphic</text>
<text text-anchor="middle" x="432.5" y="-443.5" font-family="Helvetica,sans-Serif" font-size="10.00" fill="#000000">Base &gt;</text>
</g>
<!-- Node21 -->
<g id="node17" class="node">
<title>Node21</title>
<g id="a_node17"><a xlink:href="classgko_1_1EnableAbstractPolymorphicObject.html" target="_top" xlink:title=" ">
<polygon fill="#ffffff" stroke="#000000" points="531,-340 531,-381 728,-381 728,-340 531,-340"/>
<text text-anchor="start" x="539" y="-369" font-family="Helvetica,sans-Serif" font-size="10.00" fill="#000000">gko::EnableAbstractPolymorphic</text>
<text text-anchor="start" x="539" y="-358" font-family="Helvetica,sans-Serif" font-size="10.00" fill="#000000">Object&lt; ConcreteLinOp, Polymorphic</text>
<text text-anchor="middle" x="629.5" y="-347" font-family="Helvetica,sans-Serif" font-size="10.00" fill="#000000">Base &gt;</text>
</a>
</g>
</g>
<!-- Node12&#45;&gt;Node21 -->
<g id="edge22" class="edge">
<title>Node12&#45;&gt;Node21</title>
<path fill="none" stroke="#ffa500" stroke-dasharray="5,2" d="M297.6712,-424.3893C315.6025,-417.901 335.4104,-411.3467 354,-406.5 411.8331,-391.4216 477.8372,-380.1997 530.7395,-372.616"/>
<polygon fill="#ffa500" stroke="#ffa500" points="296.0987,-421.2384 287.9221,-427.9758 298.5156,-427.8079 296.0987,-421.2384"/>
<text text-anchor="start" x="356" y="-420.5" font-family="Helvetica,sans-Serif" font-size="10.00" fill="#000000"> &lt; ConcreteLinOp, Polymorphic</text>
<text text-anchor="middle" x="432.5" y="-409.5" font-family="Helvetica,sans-Serif" font-size="10.00" fill="#000000">Base &gt;</text>
</g>
<!-- Node11 -->
<g id="node8" class="node">
<title>Node11</title>
<g id="a_node8"><a xlink:title=" ">
<polygon fill="#ffffff" stroke="#bfbfbf" points="0,-361 0,-380 101,-380 101,-361 0,-361"/>
<text text-anchor="middle" x="50.5" y="-368" font-family="Helvetica,sans-Serif" font-size="10.00" fill="#000000">PolymorphicBase</text>
</a>
</g>
</g>
<!-- Node11&#45;&gt;Node12 -->
<g id="edge7" class="edge">
<title>Node11&#45;&gt;Node12</title>
<path fill="none" stroke="#191970" d="M82.5985,-383.9246C111.5007,-396.0123 154.4214,-413.9631 187.6791,-427.8725"/>
<polygon fill="#191970" stroke="#191970" points="83.9447,-380.6939 73.3686,-380.0643 81.2437,-387.1518 83.9447,-380.6939"/>
</g>
<!-- Node11&#45;&gt;Node14 -->
<g id="edge11" class="edge">
<title>Node11&#45;&gt;Node14</title>
<path fill="none" stroke="#191970" d="M111.2562,-366.5616C199.9452,-362.1131 369.6838,-358.5298 511,-384.5 512.6995,-384.8123 541.8767,-394.9052 570.8503,-404.9977"/>
<polygon fill="#191970" stroke="#191970" points="110.913,-363.0747 101.1095,-367.0923 111.2787,-370.0651 110.913,-363.0747"/>
</g>
<!-- Node11&#45;&gt;Node21 -->
<g id="edge21" class="edge">
<title>Node11&#45;&gt;Node21</title>
<path fill="none" stroke="#191970" d="M100.0089,-359.156C106.37,-358.0602 112.8183,-357.1252 119,-356.5 292.3378,-338.9679 336.8026,-353.5608 511,-356.5 517.4832,-356.6094 524.1651,-356.7524 530.8987,-356.9192"/>
<polygon fill="#191970" stroke="#191970" points="99.3286,-355.7224 90.1355,-360.9889 100.6063,-362.6048 99.3286,-355.7224"/>
</g>
<!-- Node13 -->
<g id="node9" class="node">
<title>Node13</title>
<g id="a_node9"><a xlink:href="classgko_1_1EnablePolymorphicObject.html" target="_top" xlink:title="This mixin inherits from (a subclass of) PolymorphicObject and provides a base implementation of a ne...">
<polygon fill="#ffffff" stroke="#000000" points="871,-410.5 871,-440.5 1076,-440.5 1076,-410.5 871,-410.5"/>
<text text-anchor="start" x="879" y="-428.5" font-family="Helvetica,sans-Serif" font-size="10.00" fill="#000000">gko::EnablePolymorphicObject</text>
<text text-anchor="middle" x="973.5" y="-417.5" font-family="Helvetica,sans-Serif" font-size="10.00" fill="#000000">&lt; ConcreteObject, PolymorphicBase &gt;</text>
</a>
</g>
</g>
<!-- Node13&#45;&gt;Node3 -->
<g id="edge9" class="edge">
<title>Node13&#45;&gt;Node3</title>
<path fill="none" stroke="#ffa500" stroke-dasharray="5,2" d="M1086.6001,-426.339C1221.5727,-427.3403 1444.0566,-428.9908 1564.2493,-429.8824"/>
<polygon fill="#ffa500" stroke="#ffa500" points="1086.2584,-422.8365 1076.2327,-426.2621 1086.2064,-429.8363 1086.2584,-422.8365"/>
<text text-anchor="start" x="1317" y="-442.5" font-family="Helvetica,sans-Serif" font-size="10.00" fill="#000000"> &lt; Ir&lt; ValueType &gt;,</text>
<text text-anchor="middle" x="1365.5" y="-431.5" font-family="Helvetica,sans-Serif" font-size="10.00" fill="#000000"> LinOp &gt;</text>
</g>
<!-- Node20 -->
<g id="node16" class="node">
<title>Node20</title>
<g id="a_node16"><a xlink:href="classgko_1_1EnablePolymorphicObject.html" target="_top" xlink:title=" ">
<polygon fill="#ffffff" stroke="#000000" points="1265,-347.5 1265,-377.5 1466,-377.5 1466,-347.5 1265,-347.5"/>
<text text-anchor="start" x="1273" y="-365.5" font-family="Helvetica,sans-Serif" font-size="10.00" fill="#000000">gko::EnablePolymorphicObject</text>
<text text-anchor="middle" x="1365.5" y="-354.5" font-family="Helvetica,sans-Serif" font-size="10.00" fill="#000000">&lt; ConcreteLinOp, PolymorphicBase &gt;</text>
</a>
</g>
</g>
<!-- Node13&#45;&gt;Node20 -->
<g id="edge23" class="edge">
<title>Node13&#45;&gt;Node20</title>
<path fill="none" stroke="#ffa500" stroke-dasharray="5,2" d="M1035.5139,-407.8453C1054.1962,-402.9884 1074.8305,-398.0787 1094,-394.5 1150.1034,-384.0263 1213.4049,-376.3315 1264.7633,-371.116"/>
<polygon fill="#ffa500" stroke="#ffa500" points="1034.4245,-404.513 1025.65,-410.4509 1036.2123,-411.2808 1034.4245,-404.513"/>
<text text-anchor="start" x="1094" y="-408.5" font-family="Helvetica,sans-Serif" font-size="10.00" fill="#000000"> &lt; ConcreteLinOp, Polymorphic</text>
<text text-anchor="middle" x="1170.5" y="-397.5" font-family="Helvetica,sans-Serif" font-size="10.00" fill="#000000">Base &gt;</text>
</g>
<!-- Node14&#45;&gt;Node13 -->
<g id="edge10" class="edge">
<title>Node14&#45;&gt;Node13</title>
<path fill="none" stroke="#191970" d="M740.6155,-425.5C782.4481,-425.5 829.7976,-425.5 870.8265,-425.5"/>
<polygon fill="#191970" stroke="#191970" points="740.387,-422.0001 730.387,-425.5 740.387,-429.0001 740.387,-422.0001"/>
</g>
<!-- Node15 -->
<g id="node11" class="node">
<title>Node15</title>
<g id="a_node11"><a xlink:href="classgko_1_1EnablePolymorphicAssignment.html" target="_top" xlink:title=" ">
<polygon fill="#ffffff" stroke="#000000" points="1269.5,-241.5 1269.5,-271.5 1461.5,-271.5 1461.5,-241.5 1269.5,-241.5"/>
<text text-anchor="start" x="1277.5" y="-259.5" font-family="Helvetica,sans-Serif" font-size="10.00" fill="#000000">gko::EnablePolymorphicAssignment</text>
<text text-anchor="middle" x="1365.5" y="-248.5" font-family="Helvetica,sans-Serif" font-size="10.00" fill="#000000">&lt; Ir&lt; ValueType &gt; &gt;</text>
</a>
</g>
</g>
<!-- Node15&#45;&gt;Node2 -->
<g id="edge13" class="edge">
<title>Node15&#45;&gt;Node2</title>
<path fill="none" stroke="#191970" d="M1471.8812,-264.4335C1595.9061,-273.6828 1796.5389,-288.6453 1895.8656,-296.0527"/>
<polygon fill="#191970" stroke="#191970" points="1471.8394,-260.9208 1461.6068,-263.6673 1471.3188,-267.9014 1471.8394,-260.9208"/>
</g>
<!-- Node16 -->
<g id="node12" class="node">
<title>Node16</title>
<g id="a_node12"><a xlink:href="classgko_1_1ConvertibleTo.html" target="_top" xlink:title=" ">
<polygon fill="#ffffff" stroke="#000000" points="914.5,-203.5 914.5,-233.5 1032.5,-233.5 1032.5,-203.5 914.5,-203.5"/>
<text text-anchor="start" x="922.5" y="-221.5" font-family="Helvetica,sans-Serif" font-size="10.00" fill="#000000">gko::ConvertibleTo</text>
<text text-anchor="middle" x="973.5" y="-210.5" font-family="Helvetica,sans-Serif" font-size="10.00" fill="#000000">&lt; Ir&lt; ValueType &gt; &gt;</text>
</a>
</g>
</g>
<!-- Node16&#45;&gt;Node15 -->
<g id="edge14" class="edge">
<title>Node16&#45;&gt;Node15</title>
<path fill="none" stroke="#191970" d="M1042.8269,-225.2205C1105.7495,-231.3201 1199.1434,-240.3736 1269.2855,-247.1731"/>
<polygon fill="#191970" stroke="#191970" points="1042.9019,-221.7114 1032.6108,-224.2301 1042.2264,-228.6788 1042.9019,-221.7114"/>
</g>
<!-- Node17 -->
<g id="node13" class="node">
<title>Node17</title>
<g id="a_node13"><a xlink:href="classgko_1_1ConvertibleTo.html" target="_top" xlink:title="ConvertibleTo interface is used to mark that the implementer can be converted to the object of Result...">
<polygon fill="#ffffff" stroke="#000000" points="576,-252.5 576,-282.5 683,-282.5 683,-252.5 576,-252.5"/>
<text text-anchor="start" x="584" y="-270.5" font-family="Helvetica,sans-Serif" font-size="10.00" fill="#000000">gko::ConvertibleTo</text>
<text text-anchor="middle" x="629.5" y="-259.5" font-family="Helvetica,sans-Serif" font-size="10.00" fill="#000000">&lt; ResultType &gt;</text>
</a>
</g>
</g>
<!-- Node17&#45;&gt;Node16 -->
<g id="edge15" class="edge">
<title>Node17&#45;&gt;Node16</title>
<path fill="none" stroke="#ffa500" stroke-dasharray="5,2" d="M693.5029,-258.3833C756.7866,-249.3691 852.8289,-235.6886 914.3643,-226.9234"/>
<polygon fill="#ffa500" stroke="#ffa500" points="692.6565,-254.9685 683.25,-259.8438 693.6437,-261.8985 692.6565,-254.9685"/>
<text text-anchor="middle" x="800.5" y="-252.5" font-family="Helvetica,sans-Serif" font-size="10.00" fill="#000000"> &lt; Ir&lt; ValueType &gt; &gt;</text>
</g>
<!-- Node18 -->
<g id="node14" class="node">
<title>Node18</title>
<g id="a_node14"><a xlink:href="classgko_1_1EnablePolymorphicAssignment.html" target="_top" xlink:title="This mixin is used to enable a default PolymorphicObject::copy_from() implementation for objects that...">
<polygon fill="#ffffff" stroke="#000000" points="877.5,-252.5 877.5,-282.5 1069.5,-282.5 1069.5,-252.5 877.5,-252.5"/>
<text text-anchor="start" x="885.5" y="-270.5" font-family="Helvetica,sans-Serif" font-size="10.00" fill="#000000">gko::EnablePolymorphicAssignment</text>
<text text-anchor="middle" x="973.5" y="-259.5" font-family="Helvetica,sans-Serif" font-size="10.00" fill="#000000">&lt; ConcreteType, ResultType &gt;</text>
</a>
</g>
</g>
<!-- Node17&#45;&gt;Node18 -->
<g id="edge17" class="edge">
<title>Node17&#45;&gt;Node18</title>
<path fill="none" stroke="#191970" d="M693.2719,-267.5C744.8964,-267.5 818.4304,-267.5 877.2194,-267.5"/>
<polygon fill="#191970" stroke="#191970" points="693.25,-264.0001 683.25,-267.5 693.25,-271.0001 693.25,-264.0001"/>
</g>
<!-- Node23 -->
<g id="node19" class="node">
<title>Node23</title>
<g id="a_node19"><a xlink:href="classgko_1_1ConvertibleTo.html" target="_top" xlink:title=" ">
<polygon fill="#ffffff" stroke="#000000" points="918.5,-301.5 918.5,-331.5 1028.5,-331.5 1028.5,-301.5 918.5,-301.5"/>
<text text-anchor="start" x="926.5" y="-319.5" font-family="Helvetica,sans-Serif" font-size="10.00" fill="#000000">gko::ConvertibleTo</text>
<text text-anchor="middle" x="973.5" y="-308.5" font-family="Helvetica,sans-Serif" font-size="10.00" fill="#000000">&lt; ConcreteLinOp &gt;</text>
</a>
</g>
</g>
<!-- Node17&#45;&gt;Node23 -->
<g id="edge26" class="edge">
<title>Node17&#45;&gt;Node23</title>
<path fill="none" stroke="#ffa500" stroke-dasharray="5,2" d="M693.3261,-276.5915C758.0149,-285.8059 857.0647,-299.9147 918.4212,-308.6545"/>
<polygon fill="#ffa500" stroke="#ffa500" points="693.6437,-273.1015 683.25,-275.1563 692.6565,-280.0315 693.6437,-273.1015"/>
<text text-anchor="middle" x="800.5" y="-301.5" font-family="Helvetica,sans-Serif" font-size="10.00" fill="#000000"> &lt; ConcreteLinOp &gt;</text>
</g>
<!-- Node18&#45;&gt;Node15 -->
<g id="edge16" class="edge">
<title>Node18&#45;&gt;Node15</title>
<path fill="none" stroke="#ffa500" stroke-dasharray="5,2" d="M1080.126,-258.1975C1084.8124,-257.9319 1089.4532,-257.6967 1094,-257.5 1152.1582,-254.9836 1217.3893,-254.6624 1269.3338,-255.0041"/>
<polygon fill="#ffa500" stroke="#ffa500" points="1079.5817,-254.724 1069.8126,-258.8245 1080.0066,-261.7111 1079.5817,-254.724"/>
<text text-anchor="middle" x="1170.5" y="-260.5" font-family="Helvetica,sans-Serif" font-size="10.00" fill="#000000"> &lt; Ir&lt; ValueType &gt; &gt;</text>
</g>
<!-- Node22 -->
<g id="node18" class="node">
<title>Node22</title>
<g id="a_node18"><a xlink:href="classgko_1_1EnablePolymorphicAssignment.html" target="_top" xlink:title=" ">
<polygon fill="#ffffff" stroke="#000000" points="1269.5,-298.5 1269.5,-328.5 1461.5,-328.5 1461.5,-298.5 1269.5,-298.5"/>
<text text-anchor="start" x="1277.5" y="-316.5" font-family="Helvetica,sans-Serif" font-size="10.00" fill="#000000">gko::EnablePolymorphicAssignment</text>
<text text-anchor="middle" x="1365.5" y="-305.5" font-family="Helvetica,sans-Serif" font-size="10.00" fill="#000000">&lt; ConcreteLinOp &gt;</text>
</a>
</g>
</g>
<!-- Node18&#45;&gt;Node22 -->
<g id="edge27" class="edge">
<title>Node18&#45;&gt;Node22</title>
<path fill="none" stroke="#ffa500" stroke-dasharray="5,2" d="M1079.7161,-279.213C1130.3823,-284.8837 1191.8434,-291.8835 1247,-298.5 1254.3093,-299.3768 1261.8701,-300.2989 1269.4722,-301.2368"/>
<polygon fill="#ffa500" stroke="#ffa500" points="1080.0588,-275.7296 1069.7319,-278.0971 1079.2812,-282.6863 1080.0588,-275.7296"/>
<text text-anchor="middle" x="1170.5" y="-301.5" font-family="Helvetica,sans-Serif" font-size="10.00" fill="#000000"> &lt; ConcreteLinOp &gt;</text>
</g>
<!-- Node19 -->
<g id="node15" class="node">
<title>Node19</title>
<g id="a_node15"><a xlink:href="classgko_1_1EnableLinOp.html" target="_top" xlink:title="The EnableLinOp mixin can be used to provide sensible default implementations of the majority of the ...">
<polygon fill="#ffffff" stroke="#000000" points="1569.5,-313.5 1569.5,-343.5 1725.5,-343.5 1725.5,-313.5 1569.5,-313.5"/>
<text text-anchor="start" x="1577.5" y="-331.5" font-family="Helvetica,sans-Serif" font-size="10.00" fill="#000000">gko::EnableLinOp&lt; Concrete</text>
<text text-anchor="middle" x="1647.5" y="-320.5" font-family="Helvetica,sans-Serif" font-size="10.00" fill="#000000">LinOp, PolymorphicBase &gt;</text>
</a>
</g>
</g>
<!-- Node19&#45;&gt;Node2 -->
<g id="edge18" class="edge">
<title>Node19&#45;&gt;Node2</title>
<path fill="none" stroke="#ffa500" stroke-dasharray="5,2" d="M1735.7221,-320.4798C1787.0805,-315.8109 1850.4579,-310.0493 1895.937,-305.9148"/>
<polygon fill="#ffa500" stroke="#ffa500" points="1735.2616,-317.0071 1725.6196,-321.3982 1735.8954,-323.9784 1735.2616,-317.0071"/>
<text text-anchor="middle" x="1809.5" y="-320.5" font-family="Helvetica,sans-Serif" font-size="10.00" fill="#000000"> &lt; Ir&lt; ValueType &gt; &gt;</text>
</g>
<!-- Node20&#45;&gt;Node19 -->
<g id="edge19" class="edge">
<title>Node20&#45;&gt;Node19</title>
<path fill="none" stroke="#191970" d="M1476.12,-349.1628C1507.1865,-345.4172 1540.3188,-341.4226 1569.0892,-337.9538"/>
<polygon fill="#191970" stroke="#191970" points="1475.6233,-345.6973 1466.1142,-350.3692 1476.4612,-352.647 1475.6233,-345.6973"/>
</g>
<!-- Node21&#45;&gt;Node20 -->
<g id="edge20" class="edge">
<title>Node21&#45;&gt;Node20</title>
<path fill="none" stroke="#191970" d="M738.4191,-360.796C880.4261,-361.1819 1126.8962,-361.8516 1264.7548,-362.2262"/>
<polygon fill="#191970" stroke="#191970" points="738.3876,-357.296 728.3781,-360.7687 738.3685,-364.296 738.3876,-357.296"/>
</g>
<!-- Node22&#45;&gt;Node19 -->
<g id="edge24" class="edge">
<title>Node22&#45;&gt;Node19</title>
<path fill="none" stroke="#191970" d="M1472.1524,-319.173C1504.468,-320.8919 1539.3468,-322.7472 1569.4212,-324.3469"/>
<polygon fill="#191970" stroke="#191970" points="1471.9315,-315.6564 1461.7597,-318.6202 1471.5596,-322.6465 1471.9315,-315.6564"/>
</g>
<!-- Node23&#45;&gt;Node22 -->
<g id="edge25" class="edge">
<title>Node23&#45;&gt;Node22</title>
<path fill="none" stroke="#191970" d="M1039.0239,-315.9985C1101.9342,-315.5171 1197.7021,-314.7842 1269.2698,-314.2365"/>
<polygon fill="#191970" stroke="#191970" points="1038.8055,-312.5 1028.8326,-316.0765 1038.8591,-319.4998 1038.8055,-312.5"/>
</g>
<!-- Node24 -->
<g id="node20" class="node">
<title>Node24</title>
<g id="a_node20"><a xlink:href="classgko_1_1solver_1_1EnableSolverBase.html" target="_top" xlink:title=" ">
<polygon fill="#ffffff" stroke="#000000" points="1884.5,-176.5 1884.5,-206.5 2026.5,-206.5 2026.5,-176.5 1884.5,-176.5"/>
<text text-anchor="start" x="1892.5" y="-194.5" font-family="Helvetica,sans-Serif" font-size="10.00" fill="#000000">gko::solver::EnableSolver</text>
<text text-anchor="middle" x="1955.5" y="-183.5" font-family="Helvetica,sans-Serif" font-size="10.00" fill="#000000">Base&lt; Ir&lt; ValueType &gt; &gt;</text>
</a>
</g>
</g>
<!-- Node24&#45;&gt;Node1 -->
<g id="edge28" class="edge">
<title>Node24&#45;&gt;Node1</title>
<path fill="none" stroke="#191970" d="M2016.2044,-173.6082C2048.4362,-164.1083 2086.7517,-152.8153 2113.264,-145.0011"/>
<polygon fill="#191970" stroke="#191970" points="2015.019,-170.3086 2006.4165,-176.493 2016.9981,-177.023 2015.019,-170.3086"/>
</g>
<!-- Node25 -->
<g id="node21" class="node">
<title>Node25</title>
<g id="a_node21"><a xlink:href="classgko_1_1solver_1_1SolverBase.html" target="_top" xlink:title=" ">
<polygon fill="#ffffff" stroke="#000000" points="1582,-225.5 1582,-255.5 1713,-255.5 1713,-225.5 1582,-225.5"/>
<text text-anchor="start" x="1590" y="-243.5" font-family="Helvetica,sans-Serif" font-size="10.00" fill="#000000">gko::solver::SolverBase</text>
<text text-anchor="middle" x="1647.5" y="-232.5" font-family="Helvetica,sans-Serif" font-size="10.00" fill="#000000">&lt; LinOp &gt;</text>
</a>
</g>
</g>
<!-- Node25&#45;&gt;Node24 -->
<g id="edge29" class="edge">
<title>Node25&#45;&gt;Node24</title>
<path fill="none" stroke="#191970" d="M1723.156,-228.5433C1764.234,-222.0424 1815.9069,-213.8504 1862,-206.5 1869.2246,-205.3479 1876.7627,-204.1431 1884.2871,-202.9387"/>
<polygon fill="#191970" stroke="#191970" points="1722.5503,-225.0955 1713.2202,-230.1154 1723.6444,-232.0095 1722.5503,-225.0955"/>
</g>
<!-- Node26 -->
<g id="node22" class="node">
<title>Node26</title>
<g id="a_node22"><a xlink:href="classgko_1_1solver_1_1SolverBase.html" target="_top" xlink:title="A LinOp implementing this interface stores a system matrix.">
<polygon fill="#ffffff" stroke="#000000" points="1300,-185.5 1300,-215.5 1431,-215.5 1431,-185.5 1300,-185.5"/>
<text text-anchor="start" x="1308" y="-203.5" font-family="Helvetica,sans-Serif" font-size="10.00" fill="#000000">gko::solver::SolverBase</text>
<text text-anchor="middle" x="1365.5" y="-192.5" font-family="Helvetica,sans-Serif" font-size="10.00" fill="#000000">&lt; MatrixType &gt;</text>
</a>
</g>
</g>
<!-- Node26&#45;&gt;Node25 -->
<g id="edge30" class="edge">
<title>Node26&#45;&gt;Node25</title>
<path fill="none" stroke="#ffa500" stroke-dasharray="5,2" d="M1441.2875,-211.25C1485.0813,-217.4619 1539.6392,-225.2006 1581.6352,-231.1575"/>
<polygon fill="#ffa500" stroke="#ffa500" points="1441.653,-207.7669 1431.2606,-209.8277 1440.6699,-214.6975 1441.653,-207.7669"/>
<text text-anchor="middle" x="1511" y="-226.5" font-family="Helvetica,sans-Serif" font-size="10.00" fill="#000000"> &lt; LinOp &gt;</text>
</g>
<!-- Node27 -->
<g id="node23" class="node">
<title>Node27</title>
<g id="a_node23"><a xlink:href="classgko_1_1solver_1_1EnableSolverBase.html" target="_top" xlink:title="A LinOp deriving from this CRTP class stores a system matrix.">
<polygon fill="#ffffff" stroke="#000000" points="1556,-176.5 1556,-206.5 1739,-206.5 1739,-176.5 1556,-176.5"/>
<text text-anchor="start" x="1564" y="-194.5" font-family="Helvetica,sans-Serif" font-size="10.00" fill="#000000">gko::solver::EnableSolver</text>
<text text-anchor="middle" x="1647.5" y="-183.5" font-family="Helvetica,sans-Serif" font-size="10.00" fill="#000000">Base&lt; DerivedType, MatrixType &gt;</text>
</a>
</g>
</g>
<!-- Node26&#45;&gt;Node27 -->
<g id="edge32" class="edge">
<title>Node26&#45;&gt;Node27</title>
<path fill="none" stroke="#191970" d="M1441.4886,-198.0748C1476.7517,-196.9494 1518.9602,-195.6023 1555.964,-194.4214"/>
<polygon fill="#191970" stroke="#191970" points="1441.1438,-194.584 1431.2606,-198.4013 1441.3672,-201.5804 1441.1438,-194.584"/>
</g>
<!-- Node27&#45;&gt;Node24 -->
<g id="edge31" class="edge">
<title>Node27&#45;&gt;Node24</title>
<path fill="none" stroke="#ffa500" stroke-dasharray="5,2" d="M1749.2832,-191.5C1793.504,-191.5 1844.2403,-191.5 1884.3218,-191.5"/>
<polygon fill="#ffa500" stroke="#ffa500" points="1749.0763,-188.0001 1739.0762,-191.5 1749.0762,-195.0001 1749.0763,-188.0001"/>
<text text-anchor="middle" x="1809.5" y="-194.5" font-family="Helvetica,sans-Serif" font-size="10.00" fill="#000000"> &lt; Ir&lt; ValueType &gt; &gt;</text>
</g>
<!-- Node28 -->
<g id="node24" class="node">
<title>Node28</title>
<g id="a_node24"><a xlink:href="classgko_1_1solver_1_1EnableIterativeBase.html" target="_top" xlink:title=" ">
<polygon fill="#ffffff" stroke="#000000" points="1880,-120.5 1880,-150.5 2031,-150.5 2031,-120.5 1880,-120.5"/>
<text text-anchor="start" x="1888" y="-138.5" font-family="Helvetica,sans-Serif" font-size="10.00" fill="#000000">gko::solver::EnableIterative</text>
<text text-anchor="middle" x="1955.5" y="-127.5" font-family="Helvetica,sans-Serif" font-size="10.00" fill="#000000">Base&lt; Ir&lt; ValueType &gt; &gt;</text>
</a>
</g>
</g>
<!-- Node28&#45;&gt;Node1 -->
<g id="edge33" class="edge">
<title>Node28&#45;&gt;Node1</title>
<path fill="none" stroke="#191970" d="M2041.1525,-135.5C2050.0785,-135.5 2059.1156,-135.5 2067.9446,-135.5"/>
<polygon fill="#191970" stroke="#191970" points="2041.139,-132.0001 2031.139,-135.5 2041.1389,-139.0001 2041.139,-132.0001"/>
</g>
<!-- Node29 -->
<g id="node25" class="node">
<title>Node29</title>
<g id="a_node25"><a xlink:href="classgko_1_1solver_1_1IterativeBase.html" target="_top" xlink:title="A LinOp implementing this interface stores a stopping criterion factory.">
<polygon fill="#ffffff" stroke="#000000" points="1294.5,-116 1294.5,-135 1436.5,-135 1436.5,-116 1294.5,-116"/>
<text text-anchor="middle" x="1365.5" y="-123" font-family="Helvetica,sans-Serif" font-size="10.00" fill="#000000">gko::solver::IterativeBase</text>
</a>
</g>
</g>
<!-- Node29&#45;&gt;Node28 -->
<g id="edge34" class="edge">
<title>Node29&#45;&gt;Node28</title>
<path fill="none" stroke="#191970" d="M1446.9698,-127.4105C1526.1574,-129.2094 1649.8232,-131.8651 1757,-133.5 1797.49,-134.1177 1842.6287,-134.5897 1879.619,-134.9196"/>
<polygon fill="#191970" stroke="#191970" points="1446.6555,-123.9025 1436.5783,-127.1735 1446.4958,-130.9007 1446.6555,-123.9025"/>
</g>
<!-- Node30 -->
<g id="node26" class="node">
<title>Node30</title>
<g id="a_node26"><a xlink:href="classgko_1_1solver_1_1EnableIterativeBase.html" target="_top" xlink:title="A LinOp deriving from this CRTP class stores a stopping criterion factory and allows applying with a ...">
<polygon fill="#ffffff" stroke="#000000" points="1572,-88.5 1572,-118.5 1723,-118.5 1723,-88.5 1572,-88.5"/>
<text text-anchor="start" x="1580" y="-106.5" font-family="Helvetica,sans-Serif" font-size="10.00" fill="#000000">gko::solver::EnableIterative</text>
<text text-anchor="middle" x="1647.5" y="-95.5" font-family="Helvetica,sans-Serif" font-size="10.00" fill="#000000">Base&lt; DerivedType &gt;</text>
</a>
</g>
</g>
<!-- Node29&#45;&gt;Node30 -->
<g id="edge36" class="edge">
<title>Node29&#45;&gt;Node30</title>
<path fill="none" stroke="#191970" d="M1446.7725,-119.1596C1486.1999,-116.0837 1533.2707,-112.4115 1571.9176,-109.3965"/>
<polygon fill="#191970" stroke="#191970" points="1446.358,-115.6812 1436.6605,-119.9485 1446.9025,-122.66 1446.358,-115.6812"/>
</g>
<!-- Node30&#45;&gt;Node28 -->
<g id="edge35" class="edge">
<title>Node30&#45;&gt;Node28</title>
<path fill="none" stroke="#ffa500" stroke-dasharray="5,2" d="M1733.1157,-110.1007C1772.4278,-113.3838 1819.6276,-117.6807 1862,-122.5 1867.7808,-123.1575 1873.7562,-123.8826 1879.7613,-124.644"/>
<polygon fill="#ffa500" stroke="#ffa500" points="1733.2918,-106.6034 1723.0372,-109.2667 1732.7144,-113.5795 1733.2918,-106.6034"/>
<text text-anchor="middle" x="1809.5" y="-125.5" font-family="Helvetica,sans-Serif" font-size="10.00" fill="#000000"> &lt; Ir&lt; ValueType &gt; &gt;</text>
</g>
<!-- Node31 -->
<g id="node27" class="node">
<title>Node31</title>
<g id="a_node27"><a xlink:href="classgko_1_1solver_1_1EnableApplyWithInitialGuess.html" target="_top" xlink:title=" ">
<polygon fill="#ffffff" stroke="#000000" points="1887,-46 1887,-87 2024,-87 2024,-46 1887,-46"/>
<text text-anchor="start" x="1895" y="-75" font-family="Helvetica,sans-Serif" font-size="10.00" fill="#000000">gko::solver::EnableApply</text>
<text text-anchor="start" x="1895" y="-64" font-family="Helvetica,sans-Serif" font-size="10.00" fill="#000000">WithInitialGuess&lt; Ir&lt;</text>
<text text-anchor="middle" x="1955.5" y="-53" font-family="Helvetica,sans-Serif" font-size="10.00" fill="#000000"> ValueType &gt; &gt;</text>
</a>
</g>
</g>
<!-- Node31&#45;&gt;Node1 -->
<g id="edge37" class="edge">
<title>Node31&#45;&gt;Node1</title>
<path fill="none" stroke="#191970" d="M2021.7654,-90.5648C2055.3529,-102.7624 2094.2305,-116.8811 2119.308,-125.9882"/>
<polygon fill="#191970" stroke="#191970" points="2022.586,-87.1392 2011.9918,-87.0155 2020.1965,-93.7188 2022.586,-87.1392"/>
</g>
<!-- Node32 -->
<g id="node28" class="node">
<title>Node32</title>
<g id="a_node28"><a xlink:href="classgko_1_1solver_1_1ApplyWithInitialGuess.html" target="_top" xlink:title="ApplyWithInitialGuess provides a way to give the input guess for apply function.">
<polygon fill="#ffffff" stroke="#000000" points="1288,-27.5 1288,-57.5 1443,-57.5 1443,-27.5 1288,-27.5"/>
<text text-anchor="start" x="1296" y="-45.5" font-family="Helvetica,sans-Serif" font-size="10.00" fill="#000000">gko::solver::ApplyWithInitial</text>
<text text-anchor="middle" x="1365.5" y="-34.5" font-family="Helvetica,sans-Serif" font-size="10.00" fill="#000000">Guess</text>
</a>
</g>
</g>
<!-- Node32&#45;&gt;Node31 -->
<g id="edge38" class="edge">
<title>Node32&#45;&gt;Node31</title>
<path fill="none" stroke="#191970" d="M1453.3397,-46.0731C1571.5244,-50.8807 1779.2789,-59.3317 1886.761,-63.7038"/>
<polygon fill="#191970" stroke="#191970" points="1453.3729,-42.5717 1443.2389,-45.6623 1453.0883,-49.5659 1453.3729,-42.5717"/>
</g>
<!-- Node33 -->
<g id="node29" class="node">
<title>Node33</title>
<g id="a_node29"><a xlink:href="classgko_1_1solver_1_1EnableApplyWithInitialGuess.html" target="_top" xlink:title="EnableApplyWithInitialGuess providing default operation for ApplyWithInitialGuess with correct valida...">
<polygon fill="#ffffff" stroke="#000000" points="1557.5,-.5 1557.5,-30.5 1737.5,-30.5 1737.5,-.5 1557.5,-.5"/>
<text text-anchor="start" x="1565.5" y="-18.5" font-family="Helvetica,sans-Serif" font-size="10.00" fill="#000000">gko::solver::EnableApply</text>
<text text-anchor="middle" x="1647.5" y="-7.5" font-family="Helvetica,sans-Serif" font-size="10.00" fill="#000000">WithInitialGuess&lt; DerivedType &gt;</text>
</a>
</g>
</g>
<!-- Node32&#45;&gt;Node33 -->
<g id="edge40" class="edge">
<title>Node32&#45;&gt;Node33</title>
<path fill="none" stroke="#191970" d="M1453.4206,-34.0821C1486.5224,-30.9127 1524.1943,-27.3059 1557.4845,-24.1185"/>
<polygon fill="#191970" stroke="#191970" points="1452.9251,-30.6134 1443.3042,-35.0507 1453.5923,-37.5815 1452.9251,-30.6134"/>
</g>
<!-- Node33&#45;&gt;Node31 -->
<g id="edge39" class="edge">
<title>Node33&#45;&gt;Node31</title>
<path fill="none" stroke="#ffa500" stroke-dasharray="5,2" d="M1747.801,-19.3614C1784.0665,-22.074 1825.145,-26.6813 1862,-34.5 1875.4268,-37.3485 1889.5927,-41.5416 1902.7245,-45.9609"/>
<polygon fill="#ffa500" stroke="#ffa500" points="1747.93,-15.8618 1737.7074,-18.6454 1747.4347,-22.8443 1747.93,-15.8618"/>
<text text-anchor="middle" x="1809.5" y="-37.5" font-family="Helvetica,sans-Serif" font-size="10.00" fill="#000000"> &lt; Ir&lt; ValueType &gt; &gt;</text>
</g>
<!-- Node34 -->
<g id="node30" class="node">
<title>Node34</title>
<g id="a_node30"><a xlink:href="classgko_1_1Transposable.html" target="_top" xlink:title="Linear operators which support transposition should implement the Transposable interface.">
<polygon fill="#ffffff" stroke="#000000" points="1903.5,-8 1903.5,-27 2007.5,-27 2007.5,-8 1903.5,-8"/>
<text text-anchor="middle" x="1955.5" y="-15" font-family="Helvetica,sans-Serif" font-size="10.00" fill="#000000">gko::Transposable</text>
</a>
</g>
</g>
<!-- Node34&#45;&gt;Node1 -->
<g id="edge41" class="edge">
<title>Node34&#45;&gt;Node1</title>
<path fill="none" stroke="#191970" d="M2016.6769,-30.2429C2021.6323,-32.068 2026.4698,-34.1431 2031,-36.5 2076.9251,-60.3934 2119.973,-106.139 2137.3761,-125.9558"/>
<polygon fill="#191970" stroke="#191970" points="2017.6455,-26.8765 2007.0518,-27.0329 2015.4309,-33.517 2017.6455,-26.8765"/>
</g>
</g>
</svg>
        <g id="navigator" transform="translate(0 0)" fill="#404254">
                <rect fill="#f2f5e9" fill-opacity="0.5" stroke="#606060" stroke-width=".5" x="0" y="0" width="60" height="60"/>
                <use id="zoomplus" xlink:href="#zoomPlus" x="17" y="9" onmousedown="handleZoom(evt,'in')"/>
                <use id="zoomminus" xlink:href="#zoomMin" x="42" y="9" onmousedown="handleZoom(evt,'out')"/>
                <use id="reset" xlink:href="#resetDef" x="30" y="36" onmousedown="handleReset()"/>
                <g id="arrowUp" xlink:href="#dirArrow" transform="translate(30 24)" onmousedown="handlePan(0,-1)">
                  <use xlink:href="#rim" fill="#404040">
                        <set attributeName="fill" to="#808080" begin="arrowUp.mouseover" end="arrowUp.mouseout"/>
                  </use>
                  <path fill="none" stroke="white" stroke-width="1.5" d="M0,-3.0v7 M-2.5,-0.5L0,-3.0L2.5,-0.5"/>
                </g>
                <g id="arrowRight" xlink:href="#dirArrow" transform="rotate(90) translate(36 -43)" onmousedown="handlePan(1,0)">
                  <use xlink:href="#rim" fill="#404040">
                        <set attributeName="fill" to="#808080" begin="arrowRight.mouseover" end="arrowRight.mouseout"/>
                  </use>
                  <path fill="none" stroke="white" stroke-width="1.5" d="M0,-3.0v7 M-2.5,-0.5L0,-3.0L2.5,-0.5"/>
                </g>
                <g id="arrowDown" xlink:href="#dirArrow" transform="rotate(180) translate(-30 -48)" onmousedown="handlePan(0,1)">
                  <use xlink:href="#rim" fill="#404040">
                        <set attributeName="fill" to="#808080" begin="arrowDown.mouseover" end="arrowDown.mouseout"/>
                  </use>
                  <path fill="none" stroke="white" stroke-width="1.5" d="M0,-3.0v7 M-2.5,-0.5L0,-3.0L2.5,-0.5"/>
                </g>
                <g id="arrowLeft" xlink:href="#dirArrow" transform="rotate(270) translate(-36 17)" onmousedown="handlePan(-1,0)">
                  <use xlink:href="#rim" fill="#404040">
                        <set attributeName="fill" to="#808080" begin="arrowLeft.mouseover" end="arrowLeft.mouseout"/>
                  </use>
                  <path fill="none" stroke="white" stroke-width="1.5" d="M0,-3.0v7 M-2.5,-0.5L0,-3.0L2.5,-0.5"/>
                </g>
        </g>
        <svg viewBox="0 0 15 15" width="100%" height="30px" preserveAspectRatio="xMaxYMin meet">
         <g id="arrow_out" transform="scale(0.3 0.3)">
          <a xlink:href="classgko_1_1solver_1_1Ir__coll__graph_org.svg" target="_base">
           <rect id="button" ry="5" rx="5" y="6" x="6" height="38" width="38"
                fill="#f2f5e9" fill-opacity="0.5" stroke="#606060" stroke-width="1.0"/>
           <path id="arrow"
             d="M 11.500037,31.436501 C 11.940474,20.09759 22.043105,11.32322 32.158766,21.979434 L 37.068811,17.246167 C 37.068811,17.246167 37.088388,32 37.088388,32 L 22.160133,31.978069 C 22.160133,31.978069 26.997745,27.140456 26.997745,27.140456 C 18.528582,18.264221 13.291696,25.230495 11.500037,31.436501 z"
             style="fill:#404040;"/>
          </a>
         </g>
        </svg>
</svg>
