<?xml version="1.0" encoding="UTF-8" standalone="no"?>
<!DOCTYPE svg PUBLIC "-//W3C//DTD SVG 1.1//EN"
 "http://www.w3.org/Graphics/SVG/1.1/DTD/svg11.dtd">
<!-- Generated by graphviz version 2.40.1 (20161225.0304)
 -->
<!-- Title: gko::batch::solver::BatchSolver Pages: 1 -->
<svg width="769pt" height="88pt"
 viewBox="0.00 0.00 769.00 88.00" xmlns="http://www.w3.org/2000/svg" xmlns:xlink="http://www.w3.org/1999/xlink">
<g id="graph0" class="graph" transform="scale(1 1) rotate(0) translate(4 84)">
<title>gko::batch::solver::BatchSolver</title>
<polygon fill="#ffffff" stroke="transparent" points="-4,4 -4,-84 765,-84 765,4 -4,4"/>
<!-- Node1 -->
<g id="node1" class="node">
<title>Node1</title>
<g id="a_node1"><a xlink:title="The BatchSolver is a base class for all batched solvers and provides the common getters and setter fo...">
<polygon fill="#bfbfbf" stroke="#000000" points="0,-38.5 0,-68.5 104,-68.5 104,-38.5 0,-38.5"/>
<text text-anchor="start" x="8" y="-56.5" font-family="Helvetica,sans-Serif" font-size="10.00" fill="#000000">gko::batch::solver</text>
<text text-anchor="middle" x="52" y="-45.5" font-family="Helvetica,sans-Serif" font-size="10.00" fill="#000000">::BatchSolver</text>
</a>
</g>
</g>
<!-- Node2 -->
<g id="node2" class="node">
<title>Node2</title>
<g id="a_node2"><a xlink:href="classgko_1_1batch_1_1solver_1_1EnableBatchSolver.html" target="_top" xlink:title=" ">
<polygon fill="#ffffff" stroke="#000000" points="456,-27.5 456,-79.5 587,-79.5 587,-27.5 456,-27.5"/>
<text text-anchor="start" x="464" y="-67.5" font-family="Helvetica,sans-Serif" font-size="10.00" fill="#000000">gko::batch::solver</text>
<text text-anchor="start" x="464" y="-56.5" font-family="Helvetica,sans-Serif" font-size="10.00" fill="#000000">::EnableBatchSolver</text>
<text text-anchor="start" x="464" y="-45.5" font-family="Helvetica,sans-Serif" font-size="10.00" fill="#000000">&lt; Bicgstab&lt; ValueType</text>
<text text-anchor="middle" x="521.5" y="-34.5" font-family="Helvetica,sans-Serif" font-size="10.00" fill="#000000"> &gt;, ValueType &gt;</text>
</a>
</g>
</g>
<!-- Node1&#45;&gt;Node2 -->
<g id="edge1" class="edge">
<title>Node1&#45;&gt;Node2</title>
<path fill="none" stroke="#191970" d="M114.6272,-60.3491C191.0738,-67.6542 324.2323,-76.9713 438,-67.5 443.8593,-67.0122 449.9261,-66.3351 455.9926,-65.5396"/>
<polygon fill="#191970" stroke="#191970" points="114.5173,-56.8219 104.2245,-59.3339 113.8372,-63.7888 114.5173,-56.8219"/>
</g>
<!-- Node4 -->
<g id="node4" class="node">
<title>Node4</title>
<g id="a_node4"><a xlink:href="classgko_1_1batch_1_1solver_1_1EnableBatchSolver.html" target="_top" xlink:title="This mixin provides apply and common iterative solver functionality to all the batched solvers.">
<polygon fill="#ffffff" stroke="#000000" points="141,-.5 141,-52.5 302,-52.5 302,-.5 141,-.5"/>
<text text-anchor="start" x="149" y="-40.5" font-family="Helvetica,sans-Serif" font-size="10.00" fill="#000000">gko::batch::solver</text>
<text text-anchor="start" x="149" y="-29.5" font-family="Helvetica,sans-Serif" font-size="10.00" fill="#000000">::EnableBatchSolver</text>
<text text-anchor="start" x="149" y="-18.5" font-family="Helvetica,sans-Serif" font-size="10.00" fill="#000000">&lt; ConcreteSolver, ValueType,</text>
<text text-anchor="middle" x="221.5" y="-7.5" font-family="Helvetica,sans-Serif" font-size="10.00" fill="#000000"> PolymorphicBase &gt;</text>
</a>
</g>
</g>
<!-- Node1&#45;&gt;Node4 -->
<g id="edge3" class="edge">
<title>Node1&#45;&gt;Node4</title>
<path fill="none" stroke="#191970" d="M114.2079,-43.5908C122.8525,-42.2138 131.8345,-40.783 140.7572,-39.3617"/>
<polygon fill="#191970" stroke="#191970" points="113.5635,-40.1492 104.2387,-45.1788 114.6648,-47.0621 113.5635,-40.1492"/>
</g>
<!-- Node3 -->
<g id="node3" class="node">
<title>Node3</title>
<g id="a_node3"><a xlink:href="classgko_1_1batch_1_1solver_1_1Bicgstab.html" target="_top" xlink:title="BiCGSTAB or the Bi&#45;Conjugate Gradient&#45;Stabilized is a Krylov subspace solver.">
<polygon fill="#ffffff" stroke="#000000" points="624,-38.5 624,-68.5 761,-68.5 761,-38.5 624,-38.5"/>
<text text-anchor="start" x="632" y="-56.5" font-family="Helvetica,sans-Serif" font-size="10.00" fill="#000000">gko::batch::solver</text>
<text text-anchor="middle" x="692.5" y="-45.5" font-family="Helvetica,sans-Serif" font-size="10.00" fill="#000000">::Bicgstab&lt; ValueType &gt;</text>
</a>
</g>
</g>
<!-- Node2&#45;&gt;Node3 -->
<g id="edge2" class="edge">
<title>Node2&#45;&gt;Node3</title>
<path fill="none" stroke="#191970" d="M597.4055,-53.5C606.2375,-53.5 615.2078,-53.5 623.9331,-53.5"/>
<polygon fill="#191970" stroke="#191970" points="597.124,-50.0001 587.124,-53.5 597.124,-57.0001 597.124,-50.0001"/>
</g>
<!-- Node4&#45;&gt;Node2 -->
<g id="edge4" class="edge">
<title>Node4&#45;&gt;Node2</title>
<path fill="none" stroke="#ffa500" stroke-dasharray="5,2" d="M312.4246,-34.3171C351.1365,-37.6874 396.7831,-41.717 438,-45.5 443.8008,-46.0324 449.8274,-46.5938 455.8676,-47.162"/>
<polygon fill="#ffa500" stroke="#ffa500" points="312.4864,-30.8093 302.2208,-33.43 311.88,-37.783 312.4864,-30.8093"/>
<text text-anchor="start" x="320" y="-59.5" font-family="Helvetica,sans-Serif" font-size="10.00" fill="#000000"> &lt; Bicgstab&lt; ValueType</text>
<text text-anchor="middle" x="379" y="-48.5" font-family="Helvetica,sans-Serif" font-size="10.00" fill="#000000"> &gt;, ValueType &gt;</text>
</g>
</g>
</svg>
