<?xml version="1.0" encoding="UTF-8" standalone="no"?>
<!DOCTYPE svg PUBLIC "-//W3C//DTD SVG 1.1//EN"
 "http://www.w3.org/Graphics/SVG/1.1/DTD/svg11.dtd">
<!-- Generated by graphviz version 2.40.1 (20161225.0304)
 -->
<!-- Title: gko::solver::EnablePreconditionable&lt; DerivedType &gt; Pages: 1 -->
<!--zoomable 533 -->
<svg id="main" version="1.1" xmlns="http://www.w3.org/2000/svg" xmlns:xlink="http://www.w3.org/1999/xlink" xml:space="preserve" onload="init(evt)">
<style type="text/css"><![CDATA[
.edge:hover path { stroke: red; }
.edge:hover polygon { stroke: red; fill: red; }
]]></style>
<script type="text/javascript"><![CDATA[
var edges = document.getElementsByTagName('g');
if (edges && edges.length) {
  for (var i=0;i<edges.length;i++) {
    if (edges[i].id.substr(0,4)=='edge') {
      edges[i].setAttribute('class','edge');
    }
  }
}
]]></script>
        <defs>
                <circle id="rim" cx="0" cy="0" r="7"/>
                <circle id="rim2" cx="0" cy="0" r="3.5"/>
                <g id="zoomPlus">
                        <use xlink:href="#rim" fill="#404040">
                                <set attributeName="fill" to="#808080" begin="zoomplus.mouseover" end="zoomplus.mouseout"/>
                        </use>
                        <path d="M-4,0h8M0,-4v8" fill="none" stroke="white" stroke-width="1.5" pointer-events="none"/>
                </g>
                <g id="zoomMin">
                        <use xlink:href="#rim" fill="#404040">
                                <set attributeName="fill" to="#808080" begin="zoomminus.mouseover" end="zoomminus.mouseout"/>
                        </use>
                        <path d="M-4,0h8" fill="none" stroke="white" stroke-width="1.5" pointer-events="none"/>
                </g>
                <g id="dirArrow">
                        <path fill="none" stroke="white" stroke-width="1.5" d="M0,-3.0v7 M-2.5,-0.5L0,-3.0L2.5,-0.5"/>
                </g>
               <g id="resetDef">
                       <use xlink:href="#rim2" fill="#404040">
                               <set attributeName="fill" to="#808080" begin="reset.mouseover" end="reset.mouseout"/>
                       </use>
               </g>
        </defs>

<script type="text/javascript">
var viewWidth = 1322;
var viewHeight = 533;
var sectionId = 'dynsection-0';
</script>
<script xlink:href="svgpan.js"/>
<svg id="graph" class="graph">
<g id="viewport">
<title>gko::solver::EnablePreconditionable&lt; DerivedType &gt;</title>
<polygon fill="#ffffff" stroke="transparent" points="-4,4 -4,-529 1318,-529 1318,4 -4,4"/>
<!-- Node1 -->
<g id="node1" class="node">
<title>Node1</title>
<g id="a_node1"><a xlink:title="Mixin providing default operation for Preconditionable with correct value semantics.">
<polygon fill="#bfbfbf" stroke="#000000" points="159,-235 159,-265 350,-265 350,-235 159,-235"/>
<text text-anchor="start" x="167" y="-253" font-family="Helvetica,sans-Serif" font-size="10.00" fill="#000000">gko::solver::EnablePreconditionable</text>
<text text-anchor="middle" x="254.5" y="-242" font-family="Helvetica,sans-Serif" font-size="10.00" fill="#000000">&lt; DerivedType &gt;</text>
</a>
</g>
</g>
<!-- Node3 -->
<g id="node3" class="node">
<title>Node3</title>
<g id="a_node3"><a xlink:href="classgko_1_1solver_1_1EnablePreconditionedIterativeSolver.html" target="_top" xlink:title="A LinOp implementing this interface stores a system matrix and stopping criterion factory.">
<polygon fill="#ffffff" stroke="#000000" points="533.5,-235 533.5,-265 715.5,-265 715.5,-235 533.5,-235"/>
<text text-anchor="start" x="541.5" y="-253" font-family="Helvetica,sans-Serif" font-size="10.00" fill="#000000">gko::solver::EnablePreconditioned</text>
<text text-anchor="middle" x="624.5" y="-242" font-family="Helvetica,sans-Serif" font-size="10.00" fill="#000000">IterativeSolver&lt; DerivedType &gt;</text>
</a>
</g>
</g>
<!-- Node1&#45;&gt;Node3 -->
<g id="edge2" class="edge">
<title>Node1&#45;&gt;Node3</title>
<path fill="none" stroke="#191970" d="M360.327,-250C414.9514,-250 480.9262,-250 533.279,-250"/>
<polygon fill="#191970" stroke="#191970" points="360.2654,-246.5001 350.2654,-250 360.2653,-253.5001 360.2654,-246.5001"/>
</g>
<!-- Node20 -->
<g id="node20" class="node">
<title>Node20</title>
<g id="a_node20"><a xlink:href="classgko_1_1solver_1_1EnablePreconditionable.html" target="_top" xlink:title=" ">
<polygon fill="#ffffff" stroke="#000000" points="529,-73 529,-103 720,-103 720,-73 529,-73"/>
<text text-anchor="start" x="537" y="-91" font-family="Helvetica,sans-Serif" font-size="10.00" fill="#000000">gko::solver::EnablePreconditionable</text>
<text text-anchor="middle" x="624.5" y="-80" font-family="Helvetica,sans-Serif" font-size="10.00" fill="#000000">&lt; Bicgstab&lt; ValueType &gt; &gt;</text>
</a>
</g>
</g>
<!-- Node1&#45;&gt;Node20 -->
<g id="edge19" class="edge">
<title>Node1&#45;&gt;Node20</title>
<path fill="none" stroke="#ffa500" stroke-dasharray="5,2" d="M274.4116,-227.5073C295.4852,-205.0883 330.7874,-171.2968 368,-152 417.9117,-126.118 478.789,-110.3514 528.7088,-100.9457"/>
<polygon fill="#ffa500" stroke="#ffa500" points="271.7804,-225.1976 267.5712,-234.9204 276.9249,-229.9447 271.7804,-225.1976"/>
<text text-anchor="middle" x="439.5" y="-155" font-family="Helvetica,sans-Serif" font-size="10.00" fill="#000000"> &lt; Bicgstab&lt; ValueType &gt; &gt;</text>
</g>
<!-- Node21 -->
<g id="node21" class="node">
<title>Node21</title>
<g id="a_node21"><a xlink:href="classgko_1_1solver_1_1EnablePreconditionable.html" target="_top" xlink:title=" ">
<polygon fill="#ffffff" stroke="#000000" points="529,-184 529,-214 720,-214 720,-184 529,-184"/>
<text text-anchor="start" x="537" y="-202" font-family="Helvetica,sans-Serif" font-size="10.00" fill="#000000">gko::solver::EnablePreconditionable</text>
<text text-anchor="middle" x="624.5" y="-191" font-family="Helvetica,sans-Serif" font-size="10.00" fill="#000000">&lt; Gmres&lt; ValueType &gt; &gt;</text>
</a>
</g>
</g>
<!-- Node1&#45;&gt;Node21 -->
<g id="edge21" class="edge">
<title>Node1&#45;&gt;Node21</title>
<path fill="none" stroke="#ffa500" stroke-dasharray="5,2" d="M360.387,-235.4048C413.4581,-228.0896 477.2312,-219.2992 528.815,-212.189"/>
<polygon fill="#ffa500" stroke="#ffa500" points="359.6938,-231.9671 350.2654,-236.7999 360.6497,-238.9016 359.6938,-231.9671"/>
<text text-anchor="middle" x="439.5" y="-237" font-family="Helvetica,sans-Serif" font-size="10.00" fill="#000000"> &lt; Gmres&lt; ValueType &gt; &gt;</text>
</g>
<!-- Node22 -->
<g id="node22" class="node">
<title>Node22</title>
<g id="a_node22"><a xlink:href="classgko_1_1solver_1_1EnablePreconditionable.html" target="_top" xlink:title=" ">
<polygon fill="#ffffff" stroke="#000000" points="529,-315 529,-345 720,-345 720,-315 529,-315"/>
<text text-anchor="start" x="537" y="-333" font-family="Helvetica,sans-Serif" font-size="10.00" fill="#000000">gko::solver::EnablePreconditionable</text>
<text text-anchor="middle" x="624.5" y="-322" font-family="Helvetica,sans-Serif" font-size="10.00" fill="#000000">&lt; CbGmres&lt; ValueType &gt; &gt;</text>
</a>
</g>
</g>
<!-- Node1&#45;&gt;Node22 -->
<g id="edge23" class="edge">
<title>Node1&#45;&gt;Node22</title>
<path fill="none" stroke="#ffa500" stroke-dasharray="5,2" d="M333.9949,-267.1881C399.7022,-281.3951 492.083,-301.3693 554.9041,-314.9522"/>
<polygon fill="#ffa500" stroke="#ffa500" points="334.608,-263.7398 324.0942,-265.0474 333.1286,-270.5817 334.608,-263.7398"/>
<text text-anchor="middle" x="439.5" y="-307" font-family="Helvetica,sans-Serif" font-size="10.00" fill="#000000"> &lt; CbGmres&lt; ValueType &gt; &gt;</text>
</g>
<!-- Node23 -->
<g id="node23" class="node">
<title>Node23</title>
<g id="a_node23"><a xlink:href="classgko_1_1solver_1_1EnablePreconditionable.html" target="_top" xlink:title=" ">
<polygon fill="#ffffff" stroke="#000000" points="529,-380 529,-410 720,-410 720,-380 529,-380"/>
<text text-anchor="start" x="537" y="-398" font-family="Helvetica,sans-Serif" font-size="10.00" fill="#000000">gko::solver::EnablePreconditionable</text>
<text text-anchor="middle" x="624.5" y="-387" font-family="Helvetica,sans-Serif" font-size="10.00" fill="#000000">&lt; Fcg&lt; ValueType &gt; &gt;</text>
</a>
</g>
</g>
<!-- Node1&#45;&gt;Node23 -->
<g id="edge25" class="edge">
<title>Node1&#45;&gt;Node23</title>
<path fill="none" stroke="#ffa500" stroke-dasharray="5,2" d="M284.1039,-270.9278C306.3559,-285.9173 338.0342,-305.7207 368,-319 429.6764,-346.3319 503.9379,-367.1146 556.6482,-379.9812"/>
<polygon fill="#ffa500" stroke="#ffa500" points="285.9999,-267.9843 275.7668,-265.2394 282.0546,-273.7667 285.9999,-267.9843"/>
<text text-anchor="middle" x="439.5" y="-369" font-family="Helvetica,sans-Serif" font-size="10.00" fill="#000000"> &lt; Fcg&lt; ValueType &gt; &gt;</text>
</g>
<!-- Node24 -->
<g id="node24" class="node">
<title>Node24</title>
<g id="a_node24"><a xlink:href="classgko_1_1solver_1_1EnablePreconditionable.html" target="_top" xlink:title=" ">
<polygon fill="#ffffff" stroke="#000000" points="529,-437 529,-467 720,-467 720,-437 529,-437"/>
<text text-anchor="start" x="537" y="-455" font-family="Helvetica,sans-Serif" font-size="10.00" fill="#000000">gko::solver::EnablePreconditionable</text>
<text text-anchor="middle" x="624.5" y="-444" font-family="Helvetica,sans-Serif" font-size="10.00" fill="#000000">&lt; Idr&lt; ValueType &gt; &gt;</text>
</a>
</g>
</g>
<!-- Node1&#45;&gt;Node24 -->
<g id="edge27" class="edge">
<title>Node1&#45;&gt;Node24</title>
<path fill="none" stroke="#ffa500" stroke-dasharray="5,2" d="M268.892,-273.9486C287.9022,-303.5222 324.1541,-353.2999 368,-381 416.4384,-411.6015 478.1319,-429.2158 528.8751,-439.2445"/>
<polygon fill="#ffa500" stroke="#ffa500" points="271.6222,-271.715 263.338,-265.1103 265.6953,-275.4395 271.6222,-271.715"/>
<text text-anchor="middle" x="439.5" y="-437" font-family="Helvetica,sans-Serif" font-size="10.00" fill="#000000"> &lt; Idr&lt; ValueType &gt; &gt;</text>
</g>
<!-- Node25 -->
<g id="node25" class="node">
<title>Node25</title>
<g id="a_node25"><a xlink:href="classgko_1_1solver_1_1EnablePreconditionable.html" target="_top" xlink:title=" ">
<polygon fill="#ffffff" stroke="#000000" points="529,-490 529,-520 720,-520 720,-490 529,-490"/>
<text text-anchor="start" x="537" y="-508" font-family="Helvetica,sans-Serif" font-size="10.00" fill="#000000">gko::solver::EnablePreconditionable</text>
<text text-anchor="middle" x="624.5" y="-497" font-family="Helvetica,sans-Serif" font-size="10.00" fill="#000000">&lt; Cgs&lt; ValueType &gt; &gt;</text>
</a>
</g>
</g>
<!-- Node1&#45;&gt;Node25 -->
<g id="edge29" class="edge">
<title>Node1&#45;&gt;Node25</title>
<path fill="none" stroke="#ffa500" stroke-dasharray="5,2" d="M261.3221,-274.6632C274.4552,-317.3055 307.4491,-404.5068 368,-449 414.1883,-482.9395 476.8906,-497.0482 528.7385,-502.6192"/>
<polygon fill="#ffa500" stroke="#ffa500" points="264.6762,-273.663 258.4743,-265.073 257.9658,-275.6557 264.6762,-273.663"/>
<text text-anchor="middle" x="439.5" y="-502" font-family="Helvetica,sans-Serif" font-size="10.00" fill="#000000"> &lt; Cgs&lt; ValueType &gt; &gt;</text>
</g>
<!-- Node26 -->
<g id="node26" class="node">
<title>Node26</title>
<g id="a_node26"><a xlink:href="classgko_1_1solver_1_1EnablePreconditionable.html" target="_top" xlink:title=" ">
<polygon fill="#ffffff" stroke="#000000" points="529,-6 529,-36 720,-36 720,-6 529,-6"/>
<text text-anchor="start" x="537" y="-24" font-family="Helvetica,sans-Serif" font-size="10.00" fill="#000000">gko::solver::EnablePreconditionable</text>
<text text-anchor="middle" x="624.5" y="-13" font-family="Helvetica,sans-Serif" font-size="10.00" fill="#000000">&lt; Cg&lt; ValueType &gt; &gt;</text>
</a>
</g>
</g>
<!-- Node1&#45;&gt;Node26 -->
<g id="edge31" class="edge">
<title>Node1&#45;&gt;Node26</title>
<path fill="none" stroke="#ffa500" stroke-dasharray="5,2" d="M265.2496,-225.3724C281.99,-189.9529 317.6739,-125.0464 368,-90 415.3031,-57.0588 477.5662,-39.8359 528.9019,-30.8351"/>
<polygon fill="#ffa500" stroke="#ffa500" points="262.0357,-223.9839 261.0338,-234.5313 268.3945,-226.9108 262.0357,-223.9839"/>
<text text-anchor="middle" x="439.5" y="-93" font-family="Helvetica,sans-Serif" font-size="10.00" fill="#000000"> &lt; Cg&lt; ValueType &gt; &gt;</text>
</g>
<!-- Node27 -->
<g id="node27" class="node">
<title>Node27</title>
<g id="a_node27"><a xlink:href="classgko_1_1solver_1_1EnablePreconditionable.html" target="_top" xlink:title=" ">
<polygon fill="#ffffff" stroke="#000000" points="529,-131 529,-161 720,-161 720,-131 529,-131"/>
<text text-anchor="start" x="537" y="-149" font-family="Helvetica,sans-Serif" font-size="10.00" fill="#000000">gko::solver::EnablePreconditionable</text>
<text text-anchor="middle" x="624.5" y="-138" font-family="Helvetica,sans-Serif" font-size="10.00" fill="#000000">&lt; Bicg&lt; ValueType &gt; &gt;</text>
</a>
</g>
</g>
<!-- Node1&#45;&gt;Node27 -->
<g id="edge33" class="edge">
<title>Node1&#45;&gt;Node27</title>
<path fill="none" stroke="#ffa500" stroke-dasharray="5,2" d="M294.3041,-230.5313C315.7482,-220.6303 342.8902,-209.0264 368,-201 421.901,-183.7705 483.9029,-170.3096 533.4448,-161.0177"/>
<polygon fill="#ffa500" stroke="#ffa500" points="292.7583,-227.3903 285.1834,-234.7978 295.7244,-233.7308 292.7583,-227.3903"/>
<text text-anchor="middle" x="439.5" y="-204" font-family="Helvetica,sans-Serif" font-size="10.00" fill="#000000"> &lt; Bicg&lt; ValueType &gt; &gt;</text>
</g>
<!-- Node2 -->
<g id="node2" class="node">
<title>Node2</title>
<g id="a_node2"><a xlink:href="classgko_1_1Preconditionable.html" target="_top" xlink:title="A LinOp implementing this interface can be preconditioned.">
<polygon fill="#ffffff" stroke="#000000" points="0,-240.5 0,-259.5 122,-259.5 122,-240.5 0,-240.5"/>
<text text-anchor="middle" x="61" y="-247.5" font-family="Helvetica,sans-Serif" font-size="10.00" fill="#000000">gko::Preconditionable</text>
</a>
</g>
</g>
<!-- Node2&#45;&gt;Node1 -->
<g id="edge1" class="edge">
<title>Node2&#45;&gt;Node1</title>
<path fill="none" stroke="#191970" d="M132.4859,-250C141.0293,-250 149.8553,-250 158.6712,-250"/>
<polygon fill="#191970" stroke="#191970" points="132.2246,-246.5001 122.2246,-250 132.2246,-253.5001 132.2246,-246.5001"/>
</g>
<!-- Node4 -->
<g id="node4" class="node">
<title>Node4</title>
<g id="a_node4"><a xlink:href="classgko_1_1solver_1_1EnablePreconditionedIterativeSolver.html" target="_top" xlink:title=" ">
<polygon fill="#ffffff" stroke="#000000" points="928,-483.5 928,-524.5 1110,-524.5 1110,-483.5 928,-483.5"/>
<text text-anchor="start" x="936" y="-512.5" font-family="Helvetica,sans-Serif" font-size="10.00" fill="#000000">gko::solver::EnablePreconditioned</text>
<text text-anchor="start" x="936" y="-501.5" font-family="Helvetica,sans-Serif" font-size="10.00" fill="#000000">IterativeSolver&lt; ValueType,</text>
<text text-anchor="middle" x="1019" y="-490.5" font-family="Helvetica,sans-Serif" font-size="10.00" fill="#000000"> Cgs&lt; ValueType &gt; &gt;</text>
</a>
</g>
</g>
<!-- Node3&#45;&gt;Node4 -->
<g id="edge3" class="edge">
<title>Node3&#45;&gt;Node4</title>
<path fill="none" stroke="#ffa500" stroke-dasharray="5,2" d="M676.3743,-269.6009C692.805,-278.315 709.4252,-290.2462 720,-306 751.5276,-352.9682 700.2369,-389.8817 738,-432 763.2562,-460.169 855.6615,-480.0742 927.6945,-491.7125"/>
<polygon fill="#ffa500" stroke="#ffa500" points="677.8173,-266.4096 667.3053,-265.0869 674.6981,-272.6762 677.8173,-266.4096"/>
<text text-anchor="middle" x="824" y="-490" font-family="Helvetica,sans-Serif" font-size="10.00" fill="#000000"> &lt; ValueType, Cgs&lt; ValueType &gt; &gt;</text>
</g>
<!-- Node6 -->
<g id="node6" class="node">
<title>Node6</title>
<g id="a_node6"><a xlink:href="classgko_1_1solver_1_1EnablePreconditionedIterativeSolver.html" target="_top" xlink:title=" ">
<polygon fill="#ffffff" stroke="#000000" points="928,-419.5 928,-460.5 1110,-460.5 1110,-419.5 928,-419.5"/>
<text text-anchor="start" x="936" y="-448.5" font-family="Helvetica,sans-Serif" font-size="10.00" fill="#000000">gko::solver::EnablePreconditioned</text>
<text text-anchor="start" x="936" y="-437.5" font-family="Helvetica,sans-Serif" font-size="10.00" fill="#000000">IterativeSolver&lt; ValueType,</text>
<text text-anchor="middle" x="1019" y="-426.5" font-family="Helvetica,sans-Serif" font-size="10.00" fill="#000000"> Idr&lt; ValueType &gt; &gt;</text>
</a>
</g>
</g>
<!-- Node3&#45;&gt;Node6 -->
<g id="edge5" class="edge">
<title>Node3&#45;&gt;Node6</title>
<path fill="none" stroke="#ffa500" stroke-dasharray="5,2" d="M674.0003,-269.7353C690.7238,-278.5861 708.1409,-290.5705 720,-306 738.2674,-329.767 716.4948,-350.1172 738,-371 751.8973,-384.4951 851.0653,-406.7782 927.7006,-422.3597"/>
<polygon fill="#ffa500" stroke="#ffa500" points="675.3292,-266.4865 664.8205,-265.1385 672.1949,-272.7456 675.3292,-266.4865"/>
<text text-anchor="middle" x="824" y="-420" font-family="Helvetica,sans-Serif" font-size="10.00" fill="#000000"> &lt; ValueType, Idr&lt; ValueType &gt; &gt;</text>
</g>
<!-- Node8 -->
<g id="node8" class="node">
<title>Node8</title>
<g id="a_node8"><a xlink:href="classgko_1_1solver_1_1EnablePreconditionedIterativeSolver.html" target="_top" xlink:title=" ">
<polygon fill="#ffffff" stroke="#000000" points="928,-351.5 928,-392.5 1110,-392.5 1110,-351.5 928,-351.5"/>
<text text-anchor="start" x="936" y="-380.5" font-family="Helvetica,sans-Serif" font-size="10.00" fill="#000000">gko::solver::EnablePreconditioned</text>
<text text-anchor="start" x="936" y="-369.5" font-family="Helvetica,sans-Serif" font-size="10.00" fill="#000000">IterativeSolver&lt; ValueType,</text>
<text text-anchor="middle" x="1019" y="-358.5" font-family="Helvetica,sans-Serif" font-size="10.00" fill="#000000"> Fcg&lt; ValueType &gt; &gt;</text>
</a>
</g>
</g>
<!-- Node3&#45;&gt;Node8 -->
<g id="edge7" class="edge">
<title>Node3&#45;&gt;Node8</title>
<path fill="none" stroke="#ffa500" stroke-dasharray="5,2" d="M655.6226,-270.632C677.7673,-284.458 708.6752,-302.0677 738,-313 799.4214,-335.8979 871.8862,-350.8395 927.8425,-359.9568"/>
<polygon fill="#ffa500" stroke="#ffa500" points="657.3149,-267.5607 646.9956,-265.1601 653.5656,-273.472 657.3149,-267.5607"/>
<text text-anchor="middle" x="824" y="-359" font-family="Helvetica,sans-Serif" font-size="10.00" fill="#000000"> &lt; ValueType, Fcg&lt; ValueType &gt; &gt;</text>
</g>
<!-- Node10 -->
<g id="node10" class="node">
<title>Node10</title>
<g id="a_node10"><a xlink:href="classgko_1_1solver_1_1EnablePreconditionedIterativeSolver.html" target="_top" xlink:title=" ">
<polygon fill="#ffffff" stroke="#000000" points="928,-274.5 928,-315.5 1110,-315.5 1110,-274.5 928,-274.5"/>
<text text-anchor="start" x="936" y="-303.5" font-family="Helvetica,sans-Serif" font-size="10.00" fill="#000000">gko::solver::EnablePreconditioned</text>
<text text-anchor="start" x="936" y="-292.5" font-family="Helvetica,sans-Serif" font-size="10.00" fill="#000000">IterativeSolver&lt; ValueType,</text>
<text text-anchor="middle" x="1019" y="-281.5" font-family="Helvetica,sans-Serif" font-size="10.00" fill="#000000"> CbGmres&lt; ValueType &gt; &gt;</text>
</a>
</g>
</g>
<!-- Node3&#45;&gt;Node10 -->
<g id="edge9" class="edge">
<title>Node3&#45;&gt;Node10</title>
<path fill="none" stroke="#ffa500" stroke-dasharray="5,2" d="M710.1706,-266.7702C719.5416,-268.3302 728.9577,-269.7803 738,-271 801.2011,-279.525 872.8316,-285.5879 927.9532,-289.4873"/>
<polygon fill="#ffa500" stroke="#ffa500" points="710.4861,-263.2735 700.0396,-265.04 709.3077,-270.1736 710.4861,-263.2735"/>
<text text-anchor="start" x="766.5" y="-301" font-family="Helvetica,sans-Serif" font-size="10.00" fill="#000000"> &lt; ValueType, CbGmres</text>
<text text-anchor="middle" x="824" y="-290" font-family="Helvetica,sans-Serif" font-size="10.00" fill="#000000">&lt; ValueType &gt; &gt;</text>
</g>
<!-- Node12 -->
<g id="node12" class="node">
<title>Node12</title>
<g id="a_node12"><a xlink:href="classgko_1_1solver_1_1EnablePreconditionedIterativeSolver.html" target="_top" xlink:title=" ">
<polygon fill="#ffffff" stroke="#000000" points="928,-147.5 928,-188.5 1110,-188.5 1110,-147.5 928,-147.5"/>
<text text-anchor="start" x="936" y="-176.5" font-family="Helvetica,sans-Serif" font-size="10.00" fill="#000000">gko::solver::EnablePreconditioned</text>
<text text-anchor="start" x="936" y="-165.5" font-family="Helvetica,sans-Serif" font-size="10.00" fill="#000000">IterativeSolver&lt; ValueType,</text>
<text text-anchor="middle" x="1019" y="-154.5" font-family="Helvetica,sans-Serif" font-size="10.00" fill="#000000"> Bicg&lt; ValueType &gt; &gt;</text>
</a>
</g>
</g>
<!-- Node3&#45;&gt;Node12 -->
<g id="edge11" class="edge">
<title>Node3&#45;&gt;Node12</title>
<path fill="none" stroke="#ffa500" stroke-dasharray="5,2" d="M695.5988,-231.8842C703.9225,-229.1814 712.2155,-226.2118 720,-223 728.4599,-219.5095 729.3509,-215.991 738,-213 799.4014,-191.7662 871.8668,-180.4731 927.8283,-174.511"/>
<polygon fill="#ffa500" stroke="#ffa500" points="694.3431,-228.6096 685.8422,-234.9329 696.4309,-235.291 694.3431,-228.6096"/>
<text text-anchor="start" x="774" y="-227" font-family="Helvetica,sans-Serif" font-size="10.00" fill="#000000"> &lt; ValueType, Bicg&lt;</text>
<text text-anchor="middle" x="824" y="-216" font-family="Helvetica,sans-Serif" font-size="10.00" fill="#000000"> ValueType &gt; &gt;</text>
</g>
<!-- Node14 -->
<g id="node14" class="node">
<title>Node14</title>
<g id="a_node14"><a xlink:href="classgko_1_1solver_1_1EnablePreconditionedIterativeSolver.html" target="_top" xlink:title=" ">
<polygon fill="#ffffff" stroke="#000000" points="928,-212.5 928,-253.5 1110,-253.5 1110,-212.5 928,-212.5"/>
<text text-anchor="start" x="936" y="-241.5" font-family="Helvetica,sans-Serif" font-size="10.00" fill="#000000">gko::solver::EnablePreconditioned</text>
<text text-anchor="start" x="936" y="-230.5" font-family="Helvetica,sans-Serif" font-size="10.00" fill="#000000">IterativeSolver&lt; ValueType,</text>
<text text-anchor="middle" x="1019" y="-219.5" font-family="Helvetica,sans-Serif" font-size="10.00" fill="#000000"> Gmres&lt; ValueType &gt; &gt;</text>
</a>
</g>
</g>
<!-- Node3&#45;&gt;Node14 -->
<g id="edge13" class="edge">
<title>Node3&#45;&gt;Node14</title>
<path fill="none" stroke="#ffa500" stroke-dasharray="5,2" d="M725.751,-245.6368C788.1002,-242.9501 867.3728,-239.534 927.7737,-236.9312"/>
<polygon fill="#ffa500" stroke="#ffa500" points="725.3416,-242.1511 715.5016,-246.0785 725.6431,-249.1446 725.3416,-242.1511"/>
<text text-anchor="start" x="772.5" y="-259" font-family="Helvetica,sans-Serif" font-size="10.00" fill="#000000"> &lt; ValueType, Gmres</text>
<text text-anchor="middle" x="824" y="-248" font-family="Helvetica,sans-Serif" font-size="10.00" fill="#000000">&lt; ValueType &gt; &gt;</text>
</g>
<!-- Node16 -->
<g id="node16" class="node">
<title>Node16</title>
<g id="a_node16"><a xlink:href="classgko_1_1solver_1_1EnablePreconditionedIterativeSolver.html" target="_top" xlink:title=" ">
<polygon fill="#ffffff" stroke="#000000" points="928,-78.5 928,-119.5 1110,-119.5 1110,-78.5 928,-78.5"/>
<text text-anchor="start" x="936" y="-107.5" font-family="Helvetica,sans-Serif" font-size="10.00" fill="#000000">gko::solver::EnablePreconditioned</text>
<text text-anchor="start" x="936" y="-96.5" font-family="Helvetica,sans-Serif" font-size="10.00" fill="#000000">IterativeSolver&lt; ValueType,</text>
<text text-anchor="middle" x="1019" y="-85.5" font-family="Helvetica,sans-Serif" font-size="10.00" fill="#000000"> Bicgstab&lt; ValueType &gt; &gt;</text>
</a>
</g>
</g>
<!-- Node3&#45;&gt;Node16 -->
<g id="edge15" class="edge">
<title>Node3&#45;&gt;Node16</title>
<path fill="none" stroke="#ffa500" stroke-dasharray="5,2" d="M713.1281,-229.0954C715.5615,-227.2302 717.8633,-225.203 720,-223 742.9648,-199.3226 713.9645,-173.5897 738,-151 788.1611,-103.8561 866.4936,-92.5402 927.7251,-92.064"/>
<polygon fill="#ffa500" stroke="#ffa500" points="710.8313,-226.4165 704.3954,-234.8325 714.6749,-232.2669 710.8313,-226.4165"/>
<text text-anchor="start" x="768" y="-165" font-family="Helvetica,sans-Serif" font-size="10.00" fill="#000000"> &lt; ValueType, Bicgstab</text>
<text text-anchor="middle" x="824" y="-154" font-family="Helvetica,sans-Serif" font-size="10.00" fill="#000000">&lt; ValueType &gt; &gt;</text>
</g>
<!-- Node18 -->
<g id="node18" class="node">
<title>Node18</title>
<g id="a_node18"><a xlink:href="classgko_1_1solver_1_1EnablePreconditionedIterativeSolver.html" target="_top" xlink:title=" ">
<polygon fill="#ffffff" stroke="#000000" points="928,-.5 928,-41.5 1110,-41.5 1110,-.5 928,-.5"/>
<text text-anchor="start" x="936" y="-29.5" font-family="Helvetica,sans-Serif" font-size="10.00" fill="#000000">gko::solver::EnablePreconditioned</text>
<text text-anchor="start" x="936" y="-18.5" font-family="Helvetica,sans-Serif" font-size="10.00" fill="#000000">IterativeSolver&lt; ValueType,</text>
<text text-anchor="middle" x="1019" y="-7.5" font-family="Helvetica,sans-Serif" font-size="10.00" fill="#000000"> Cg&lt; ValueType &gt; &gt;</text>
</a>
</g>
</g>
<!-- Node3&#45;&gt;Node18 -->
<g id="edge17" class="edge">
<title>Node3&#45;&gt;Node18</title>
<path fill="none" stroke="#ffa500" stroke-dasharray="5,2" d="M714.2896,-228.7345C716.3208,-226.9669 718.2324,-225.059 720,-223 762.2992,-173.7267 693.8737,-125.644 738,-78 751.0647,-63.8938 850.7089,-46.053 927.6698,-34.1234"/>
<polygon fill="#ffa500" stroke="#ffa500" points="711.9067,-226.1418 705.914,-234.879 716.0473,-231.7858 711.9067,-226.1418"/>
<text text-anchor="middle" x="824" y="-81" font-family="Helvetica,sans-Serif" font-size="10.00" fill="#000000"> &lt; ValueType, Cg&lt; ValueType &gt; &gt;</text>
</g>
<!-- Node5 -->
<g id="node5" class="node">
<title>Node5</title>
<g id="a_node5"><a xlink:href="classgko_1_1solver_1_1Cgs.html" target="_top" xlink:title="CGS or the conjugate gradient square method is an iterative type Krylov subspace method which is suit...">
<polygon fill="#ffffff" stroke="#000000" points="1147,-494.5 1147,-513.5 1314,-513.5 1314,-494.5 1147,-494.5"/>
<text text-anchor="middle" x="1230.5" y="-501.5" font-family="Helvetica,sans-Serif" font-size="10.00" fill="#000000">gko::solver::Cgs&lt; ValueType &gt;</text>
</a>
</g>
</g>
<!-- Node4&#45;&gt;Node5 -->
<g id="edge4" class="edge">
<title>Node4&#45;&gt;Node5</title>
<path fill="none" stroke="#191970" d="M1120.2715,-504C1129.1937,-504 1138.1586,-504 1146.9114,-504"/>
<polygon fill="#191970" stroke="#191970" points="1120.2297,-500.5001 1110.2296,-504 1120.2296,-507.5001 1120.2297,-500.5001"/>
</g>
<!-- Node7 -->
<g id="node7" class="node">
<title>Node7</title>
<g id="a_node7"><a xlink:href="classgko_1_1solver_1_1Idr.html" target="_top" xlink:title="IDR(s) is an efficient method for solving large nonsymmetric systems of linear equations.">
<polygon fill="#ffffff" stroke="#000000" points="1150,-430.5 1150,-449.5 1311,-449.5 1311,-430.5 1150,-430.5"/>
<text text-anchor="middle" x="1230.5" y="-437.5" font-family="Helvetica,sans-Serif" font-size="10.00" fill="#000000">gko::solver::Idr&lt; ValueType &gt;</text>
</a>
</g>
</g>
<!-- Node6&#45;&gt;Node7 -->
<g id="edge6" class="edge">
<title>Node6&#45;&gt;Node7</title>
<path fill="none" stroke="#191970" d="M1120.4801,-440C1130.3475,-440 1140.2645,-440 1149.8869,-440"/>
<polygon fill="#191970" stroke="#191970" points="1120.2297,-436.5001 1110.2296,-440 1120.2296,-443.5001 1120.2297,-436.5001"/>
</g>
<!-- Node9 -->
<g id="node9" class="node">
<title>Node9</title>
<g id="a_node9"><a xlink:href="classgko_1_1solver_1_1Fcg.html" target="_top" xlink:title="FCG or the flexible conjugate gradient method is an iterative type Krylov subspace method which is su...">
<polygon fill="#ffffff" stroke="#000000" points="1148,-362.5 1148,-381.5 1313,-381.5 1313,-362.5 1148,-362.5"/>
<text text-anchor="middle" x="1230.5" y="-369.5" font-family="Helvetica,sans-Serif" font-size="10.00" fill="#000000">gko::solver::Fcg&lt; ValueType &gt;</text>
</a>
</g>
</g>
<!-- Node8&#45;&gt;Node9 -->
<g id="edge8" class="edge">
<title>Node8&#45;&gt;Node9</title>
<path fill="none" stroke="#191970" d="M1120.253,-372C1129.5193,-372 1138.8318,-372 1147.9051,-372"/>
<polygon fill="#191970" stroke="#191970" points="1120.2297,-368.5001 1110.2296,-372 1120.2296,-375.5001 1120.2297,-368.5001"/>
</g>
<!-- Node11 -->
<g id="node11" class="node">
<title>Node11</title>
<g id="a_node11"><a xlink:href="classgko_1_1solver_1_1CbGmres.html" target="_top" xlink:title="CB&#45;GMRES or the compressed basis generalized minimal residual method is an iterative type Krylov subs...">
<polygon fill="#ffffff" stroke="#000000" points="1169.5,-280 1169.5,-310 1291.5,-310 1291.5,-280 1169.5,-280"/>
<text text-anchor="start" x="1177.5" y="-298" font-family="Helvetica,sans-Serif" font-size="10.00" fill="#000000">gko::solver::CbGmres</text>
<text text-anchor="middle" x="1230.5" y="-287" font-family="Helvetica,sans-Serif" font-size="10.00" fill="#000000">&lt; ValueType &gt;</text>
</a>
</g>
</g>
<!-- Node10&#45;&gt;Node11 -->
<g id="edge10" class="edge">
<title>Node10&#45;&gt;Node11</title>
<path fill="none" stroke="#191970" d="M1120.5963,-295C1137.2985,-295 1154.139,-295 1169.448,-295"/>
<polygon fill="#191970" stroke="#191970" points="1120.2297,-291.5001 1110.2296,-295 1120.2296,-298.5001 1120.2297,-291.5001"/>
</g>
<!-- Node13 -->
<g id="node13" class="node">
<title>Node13</title>
<g id="a_node13"><a xlink:href="classgko_1_1solver_1_1Bicg.html" target="_top" xlink:title="BICG or the Biconjugate gradient method is a Krylov subspace solver.">
<polygon fill="#ffffff" stroke="#000000" points="1177.5,-153 1177.5,-183 1283.5,-183 1283.5,-153 1177.5,-153"/>
<text text-anchor="start" x="1185.5" y="-171" font-family="Helvetica,sans-Serif" font-size="10.00" fill="#000000">gko::solver::Bicg&lt;</text>
<text text-anchor="middle" x="1230.5" y="-160" font-family="Helvetica,sans-Serif" font-size="10.00" fill="#000000"> ValueType &gt;</text>
</a>
</g>
</g>
<!-- Node12&#45;&gt;Node13 -->
<g id="edge12" class="edge">
<title>Node12&#45;&gt;Node13</title>
<path fill="none" stroke="#191970" d="M1120.4827,-168C1140.1515,-168 1160.0175,-168 1177.3531,-168"/>
<polygon fill="#191970" stroke="#191970" points="1120.2297,-164.5001 1110.2296,-168 1120.2296,-171.5001 1120.2297,-164.5001"/>
</g>
<!-- Node15 -->
<g id="node15" class="node">
<title>Node15</title>
<g id="a_node15"><a xlink:href="classgko_1_1solver_1_1Gmres.html" target="_top" xlink:title="GMRES or the generalized minimal residual method is an iterative type Krylov subspace method which is...">
<polygon fill="#ffffff" stroke="#000000" points="1176,-218 1176,-248 1285,-248 1285,-218 1176,-218"/>
<text text-anchor="start" x="1184" y="-236" font-family="Helvetica,sans-Serif" font-size="10.00" fill="#000000">gko::solver::Gmres</text>
<text text-anchor="middle" x="1230.5" y="-225" font-family="Helvetica,sans-Serif" font-size="10.00" fill="#000000">&lt; ValueType &gt;</text>
</a>
</g>
</g>
<!-- Node14&#45;&gt;Node15 -->
<g id="edge14" class="edge">
<title>Node14&#45;&gt;Node15</title>
<path fill="none" stroke="#191970" d="M1120.2319,-233C1139.4193,-233 1158.8054,-233 1175.8573,-233"/>
<polygon fill="#191970" stroke="#191970" points="1120.2297,-229.5001 1110.2296,-233 1120.2296,-236.5001 1120.2297,-229.5001"/>
</g>
<!-- Node17 -->
<g id="node17" class="node">
<title>Node17</title>
<g id="a_node17"><a xlink:href="classgko_1_1solver_1_1Bicgstab.html" target="_top" xlink:title="BiCGSTAB or the Bi&#45;Conjugate Gradient&#45;Stabilized is a Krylov subspace solver.">
<polygon fill="#ffffff" stroke="#000000" points="1171,-84 1171,-114 1290,-114 1290,-84 1171,-84"/>
<text text-anchor="start" x="1179" y="-102" font-family="Helvetica,sans-Serif" font-size="10.00" fill="#000000">gko::solver::Bicgstab</text>
<text text-anchor="middle" x="1230.5" y="-91" font-family="Helvetica,sans-Serif" font-size="10.00" fill="#000000">&lt; ValueType &gt;</text>
</a>
</g>
</g>
<!-- Node16&#45;&gt;Node17 -->
<g id="edge16" class="edge">
<title>Node16&#45;&gt;Node17</title>
<path fill="none" stroke="#191970" d="M1120.4009,-99C1137.7304,-99 1155.216,-99 1170.9918,-99"/>
<polygon fill="#191970" stroke="#191970" points="1120.2297,-95.5001 1110.2296,-99 1120.2296,-102.5001 1120.2297,-95.5001"/>
</g>
<!-- Node19 -->
<g id="node19" class="node">
<title>Node19</title>
<g id="a_node19"><a xlink:href="classgko_1_1solver_1_1Cg.html" target="_top" xlink:title="CG or the conjugate gradient method is an iterative type Krylov subspace method which is suitable for...">
<polygon fill="#ffffff" stroke="#000000" points="1150,-11.5 1150,-30.5 1311,-30.5 1311,-11.5 1150,-11.5"/>
<text text-anchor="middle" x="1230.5" y="-18.5" font-family="Helvetica,sans-Serif" font-size="10.00" fill="#000000">gko::solver::Cg&lt; ValueType &gt;</text>
</a>
</g>
</g>
<!-- Node18&#45;&gt;Node19 -->
<g id="edge18" class="edge">
<title>Node18&#45;&gt;Node19</title>
<path fill="none" stroke="#191970" d="M1120.4801,-21C1130.3475,-21 1140.2645,-21 1149.8869,-21"/>
<polygon fill="#191970" stroke="#191970" points="1120.2297,-17.5001 1110.2296,-21 1120.2296,-24.5001 1120.2297,-17.5001"/>
</g>
<!-- Node20&#45;&gt;Node16 -->
<g id="edge20" class="edge">
<title>Node20&#45;&gt;Node16</title>
<path fill="none" stroke="#191970" d="M675.1941,-69.9358C694.5777,-63.9141 717.0576,-57.9827 738,-55 813.6807,-44.2211 834.9578,-40.4252 910,-55 933.6388,-59.5912 958.6441,-69.2982 978.7338,-78.4295"/>
<polygon fill="#191970" stroke="#191970" points="674.118,-66.6052 665.657,-72.9819 676.2478,-73.2734 674.118,-66.6052"/>
</g>
<!-- Node21&#45;&gt;Node14 -->
<g id="edge22" class="edge">
<title>Node21&#45;&gt;Node14</title>
<path fill="none" stroke="#191970" d="M690.367,-181.847C749.5153,-169.6081 837.882,-159.2557 910,-184 919.5863,-187.2891 919.1752,-193.0161 928,-198 937.4328,-203.3273 947.8367,-208.1785 958.1366,-212.4586"/>
<polygon fill="#191970" stroke="#191970" points="689.4475,-178.4645 680.4038,-183.9836 690.9154,-185.3089 689.4475,-178.4645"/>
</g>
<!-- Node22&#45;&gt;Node10 -->
<g id="edge24" class="edge">
<title>Node22&#45;&gt;Node10</title>
<path fill="none" stroke="#191970" d="M696.7779,-346.9361C755.0901,-357.7778 838.8319,-366.9382 910,-350 913.8147,-349.0921 949.6496,-330.8514 979.2063,-315.6224"/>
<polygon fill="#191970" stroke="#191970" points="697.401,-343.4919 686.9203,-345.0423 696.0803,-350.3662 697.401,-343.4919"/>
</g>
<!-- Node23&#45;&gt;Node8 -->
<g id="edge26" class="edge">
<title>Node23&#45;&gt;Node8</title>
<path fill="none" stroke="#191970" d="M730.1945,-410.8014C784.2871,-416.2097 850.9999,-418.7408 910,-409 930.013,-405.6959 951.2911,-399.1954 969.6851,-392.5527"/>
<polygon fill="#191970" stroke="#191970" points="730.5558,-407.3201 720.2458,-409.7603 729.8272,-414.2821 730.5558,-407.3201"/>
</g>
<!-- Node24&#45;&gt;Node6 -->
<g id="edge28" class="edge">
<title>Node24&#45;&gt;Node6</title>
<path fill="none" stroke="#191970" d="M730.2331,-467.396C732.8458,-467.6181 735.438,-467.8203 738,-468 814.2571,-473.3485 834.1589,-477.5855 910,-468 922.9871,-466.3586 936.6425,-463.6584 949.7266,-460.5662"/>
<polygon fill="#191970" stroke="#191970" points="730.3556,-463.8923 720.0734,-466.447 729.7045,-470.862 730.3556,-463.8923"/>
</g>
<!-- Node25&#45;&gt;Node4 -->
<g id="edge30" class="edge">
<title>Node25&#45;&gt;Node4</title>
<path fill="none" stroke="#191970" d="M730.3965,-504.7316C792.0403,-504.5753 868.9621,-504.3803 927.8875,-504.231"/>
<polygon fill="#191970" stroke="#191970" points="730.2402,-501.2319 720.2492,-504.7573 730.258,-508.2318 730.2402,-501.2319"/>
</g>
<!-- Node26&#45;&gt;Node18 -->
<g id="edge32" class="edge">
<title>Node26&#45;&gt;Node18</title>
<path fill="none" stroke="#191970" d="M730.3965,-21C792.0403,-21 868.9621,-21 927.8875,-21"/>
<polygon fill="#191970" stroke="#191970" points="730.2492,-17.5001 720.2492,-21 730.2491,-24.5001 730.2492,-17.5001"/>
</g>
<!-- Node27&#45;&gt;Node12 -->
<g id="edge34" class="edge">
<title>Node27&#45;&gt;Node12</title>
<path fill="none" stroke="#191970" d="M672.8441,-127.7132C730.9062,-108.6303 830.423,-85.1891 910,-114 919.7917,-117.5451 919.1211,-123.5586 928,-129 939.1379,-135.8259 951.683,-142.0362 963.818,-147.3947"/>
<polygon fill="#191970" stroke="#191970" points="671.5506,-124.4558 663.1954,-130.9704 673.7895,-131.0881 671.5506,-124.4558"/>
</g>
</g>
</svg>
        <g id="navigator" transform="translate(0 0)" fill="#404254">
                <rect fill="#f2f5e9" fill-opacity="0.5" stroke="#606060" stroke-width=".5" x="0" y="0" width="60" height="60"/>
                <use id="zoomplus" xlink:href="#zoomPlus" x="17" y="9" onmousedown="handleZoom(evt,'in')"/>
                <use id="zoomminus" xlink:href="#zoomMin" x="42" y="9" onmousedown="handleZoom(evt,'out')"/>
                <use id="reset" xlink:href="#resetDef" x="30" y="36" onmousedown="handleReset()"/>
                <g id="arrowUp" xlink:href="#dirArrow" transform="translate(30 24)" onmousedown="handlePan(0,-1)">
                  <use xlink:href="#rim" fill="#404040">
                        <set attributeName="fill" to="#808080" begin="arrowUp.mouseover" end="arrowUp.mouseout"/>
                  </use>
                  <path fill="none" stroke="white" stroke-width="1.5" d="M0,-3.0v7 M-2.5,-0.5L0,-3.0L2.5,-0.5"/>
                </g>
                <g id="arrowRight" xlink:href="#dirArrow" transform="rotate(90) translate(36 -43)" onmousedown="handlePan(1,0)">
                  <use xlink:href="#rim" fill="#404040">
                        <set attributeName="fill" to="#808080" begin="arrowRight.mouseover" end="arrowRight.mouseout"/>
                  </use>
                  <path fill="none" stroke="white" stroke-width="1.5" d="M0,-3.0v7 M-2.5,-0.5L0,-3.0L2.5,-0.5"/>
                </g>
                <g id="arrowDown" xlink:href="#dirArrow" transform="rotate(180) translate(-30 -48)" onmousedown="handlePan(0,1)">
                  <use xlink:href="#rim" fill="#404040">
                        <set attributeName="fill" to="#808080" begin="arrowDown.mouseover" end="arrowDown.mouseout"/>
                  </use>
                  <path fill="none" stroke="white" stroke-width="1.5" d="M0,-3.0v7 M-2.5,-0.5L0,-3.0L2.5,-0.5"/>
                </g>
                <g id="arrowLeft" xlink:href="#dirArrow" transform="rotate(270) translate(-36 17)" onmousedown="handlePan(-1,0)">
                  <use xlink:href="#rim" fill="#404040">
                        <set attributeName="fill" to="#808080" begin="arrowLeft.mouseover" end="arrowLeft.mouseout"/>
                  </use>
                  <path fill="none" stroke="white" stroke-width="1.5" d="M0,-3.0v7 M-2.5,-0.5L0,-3.0L2.5,-0.5"/>
                </g>
        </g>
        <svg viewBox="0 0 15 15" width="100%" height="30px" preserveAspectRatio="xMaxYMin meet">
         <g id="arrow_out" transform="scale(0.3 0.3)">
          <a xlink:href="classgko_1_1solver_1_1EnablePreconditionable__inherit__graph_org.svg" target="_base">
           <rect id="button" ry="5" rx="5" y="6" x="6" height="38" width="38"
                fill="#f2f5e9" fill-opacity="0.5" stroke="#606060" stroke-width="1.0"/>
           <path id="arrow"
             d="M 11.500037,31.436501 C 11.940474,20.09759 22.043105,11.32322 32.158766,21.979434 L 37.068811,17.246167 C 37.068811,17.246167 37.088388,32 37.088388,32 L 22.160133,31.978069 C 22.160133,31.978069 26.997745,27.140456 26.997745,27.140456 C 18.528582,18.264221 13.291696,25.230495 11.500037,31.436501 z"
             style="fill:#404040;"/>
          </a>
         </g>
        </svg>
</svg>
