<?xml version="1.0" encoding="UTF-8" standalone="no"?>
<!DOCTYPE svg PUBLIC "-//W3C//DTD SVG 1.1//EN"
 "http://www.w3.org/Graphics/SVG/1.1/DTD/svg11.dtd">
<!-- Generated by graphviz version 2.40.1 (20161225.0304)
 -->
<!-- Title: gko::Transposable Pages: 1 -->
<svg width="565pt" height="1326pt"
 viewBox="0.00 0.00 565.00 1325.95" xmlns="http://www.w3.org/2000/svg" xmlns:xlink="http://www.w3.org/1999/xlink">
<g id="graph0" class="graph" transform="scale(1 1) rotate(0) translate(4 1321.9475)">
<title>gko::Transposable</title>
<polygon fill="#ffffff" stroke="transparent" points="-4,4 -4,-1321.9475 561,-1321.9475 561,4 -4,4"/>
<!-- Node1 -->
<g id="node1" class="node">
<title>Node1</title>
<g id="a_node1"><a xlink:title="Linear operators which support transposition should implement the Transposable interface.">
<polygon fill="#bfbfbf" stroke="#000000" points="0,-643 0,-662 104,-662 104,-643 0,-643"/>
<text text-anchor="middle" x="52" y="-650" font-family="Helvetica,sans-Serif" font-size="10.00" fill="#000000">gko::Transposable</text>
</a>
</g>
</g>
<!-- Node2 -->
<g id="node2" class="node">
<title>Node2</title>
<g id="a_node2"><a xlink:href="classgko_1_1matrix_1_1Dense.html" target="_top" xlink:title=" ">
<polygon fill="#ffffff" stroke="#000000" points="439.5,-1272.5 439.5,-1302.5 549.5,-1302.5 549.5,-1272.5 439.5,-1272.5"/>
<text text-anchor="start" x="447.5" y="-1290.5" font-family="Helvetica,sans-Serif" font-size="10.00" fill="#000000">gko::matrix::Dense</text>
<text text-anchor="middle" x="494.5" y="-1279.5" font-family="Helvetica,sans-Serif" font-size="10.00" fill="#000000">&lt; value_type &gt;</text>
</a>
</g>
</g>
<!-- Node1&#45;&gt;Node2 -->
<g id="edge1" class="edge">
<title>Node1&#45;&gt;Node2</title>
<path fill="none" stroke="#191970" d="M53.4126,-672.3462C60.7577,-772.8498 95.979,-1222.4909 141,-1263.5 222.173,-1337.4396 362.0121,-1319.9364 439.241,-1302.5624"/>
<polygon fill="#191970" stroke="#191970" points="56.9002,-672.047 52.6886,-662.3252 49.9184,-672.5515 56.9002,-672.047"/>
</g>
<!-- Node3 -->
<g id="node3" class="node">
<title>Node3</title>
<g id="a_node3"><a xlink:href="classgko_1_1Combination.html" target="_top" xlink:title="The Combination class can be used to construct a linear combination of multiple linear operators c1 *...">
<polygon fill="#ffffff" stroke="#000000" points="141,-1175 141,-1194 316,-1194 316,-1175 141,-1175"/>
<text text-anchor="middle" x="228.5" y="-1182" font-family="Helvetica,sans-Serif" font-size="10.00" fill="#000000">gko::Combination&lt; ValueType &gt;</text>
</a>
</g>
</g>
<!-- Node1&#45;&gt;Node3 -->
<g id="edge2" class="edge">
<title>Node1&#45;&gt;Node3</title>
<path fill="none" stroke="#191970" d="M53.4587,-672.0808C58.5713,-736.4634 77.8177,-947.1117 122,-1115.5 128.0333,-1138.4942 122.9832,-1149.991 141,-1165.5 145.3591,-1169.2523 150.2859,-1172.3169 155.5253,-1174.8141"/>
<polygon fill="#191970" stroke="#191970" points="56.9481,-671.8073 52.6883,-662.1066 49.9689,-672.3465 56.9481,-671.8073"/>
</g>
<!-- Node4 -->
<g id="node4" class="node">
<title>Node4</title>
<g id="a_node4"><a xlink:href="classgko_1_1Composition.html" target="_top" xlink:title="The Composition class can be used to compose linear operators op1, op2, ..., opn and obtain the opera...">
<polygon fill="#ffffff" stroke="#000000" points="141.5,-1137 141.5,-1156 315.5,-1156 315.5,-1137 141.5,-1137"/>
<text text-anchor="middle" x="228.5" y="-1144" font-family="Helvetica,sans-Serif" font-size="10.00" fill="#000000">gko::Composition&lt; ValueType &gt;</text>
</a>
</g>
</g>
<!-- Node1&#45;&gt;Node4 -->
<g id="edge3" class="edge">
<title>Node1&#45;&gt;Node4</title>
<path fill="none" stroke="#191970" d="M52.7678,-672.4247C56.3452,-754.2145 74.1485,-1062.9024 141,-1127.5 144.9126,-1131.2807 149.3909,-1134.3827 154.207,-1136.921"/>
<polygon fill="#191970" stroke="#191970" points="56.2495,-671.9066 52.3391,-662.0598 49.2555,-672.1959 56.2495,-671.9066"/>
</g>
<!-- Node11 -->
<g id="node11" class="node">
<title>Node11</title>
<g id="a_node11"><a xlink:href="classgko_1_1experimental_1_1solver_1_1Direct.html" target="_top" xlink:title="A direct solver based on a factorization into lower and upper triangular factors (with an optional di...">
<polygon fill="#ffffff" stroke="#000000" points="155.5,-1077 155.5,-1118 301.5,-1118 301.5,-1077 155.5,-1077"/>
<text text-anchor="start" x="163.5" y="-1106" font-family="Helvetica,sans-Serif" font-size="10.00" fill="#000000">gko::experimental::</text>
<text text-anchor="start" x="163.5" y="-1095" font-family="Helvetica,sans-Serif" font-size="10.00" fill="#000000">solver::Direct&lt; ValueType,</text>
<text text-anchor="middle" x="228.5" y="-1084" font-family="Helvetica,sans-Serif" font-size="10.00" fill="#000000"> IndexType &gt;</text>
</a>
</g>
</g>
<!-- Node1&#45;&gt;Node11 -->
<g id="edge10" class="edge">
<title>Node1&#45;&gt;Node11</title>
<path fill="none" stroke="#191970" d="M53.5493,-672.5697C59.7338,-747.4855 85.0744,-1009.4436 141,-1067.5 145.2337,-1071.895 150.1384,-1075.6462 155.4217,-1078.8479"/>
<polygon fill="#191970" stroke="#191970" points="57.007,-671.9006 52.7195,-662.2121 50.0294,-672.4597 57.007,-671.9006"/>
</g>
<!-- Node12 -->
<g id="node12" class="node">
<title>Node12</title>
<g id="a_node12"><a xlink:href="classgko_1_1matrix_1_1Csr.html" target="_top" xlink:title="CSR is a matrix format which stores only the nonzero coefficients by compressing each row of the matr...">
<polygon fill="#ffffff" stroke="#000000" points="149.5,-1027.5 149.5,-1057.5 307.5,-1057.5 307.5,-1027.5 149.5,-1027.5"/>
<text text-anchor="start" x="157.5" y="-1045.5" font-family="Helvetica,sans-Serif" font-size="10.00" fill="#000000">gko::matrix::Csr&lt; ValueType,</text>
<text text-anchor="middle" x="228.5" y="-1034.5" font-family="Helvetica,sans-Serif" font-size="10.00" fill="#000000"> IndexType &gt;</text>
</a>
</g>
</g>
<!-- Node1&#45;&gt;Node12 -->
<g id="edge11" class="edge">
<title>Node1&#45;&gt;Node12</title>
<path fill="none" stroke="#191970" d="M54.0775,-672.4525C61.6781,-741.5652 90.2138,-969.1983 141,-1018.5 144.5037,-1021.9013 148.442,-1024.8308 152.6581,-1027.3528"/>
<polygon fill="#191970" stroke="#191970" points="57.5153,-671.6841 52.9684,-662.1146 50.5552,-672.4309 57.5153,-671.6841"/>
</g>
<!-- Node13 -->
<g id="node13" class="node">
<title>Node13</title>
<g id="a_node13"><a xlink:href="classgko_1_1matrix_1_1Dense.html" target="_top" xlink:title="Dense is a matrix format which explicitly stores all values of the matrix.">
<polygon fill="#ffffff" stroke="#000000" points="173.5,-1223.5 173.5,-1253.5 283.5,-1253.5 283.5,-1223.5 173.5,-1223.5"/>
<text text-anchor="start" x="181.5" y="-1241.5" font-family="Helvetica,sans-Serif" font-size="10.00" fill="#000000">gko::matrix::Dense</text>
<text text-anchor="middle" x="228.5" y="-1230.5" font-family="Helvetica,sans-Serif" font-size="10.00" fill="#000000">&lt; ValueType &gt;</text>
</a>
</g>
</g>
<!-- Node1&#45;&gt;Node13 -->
<g id="edge12" class="edge">
<title>Node1&#45;&gt;Node13</title>
<path fill="none" stroke="#191970" d="M54.0657,-672.1529C61.1283,-737.7174 85.8908,-954.7831 122,-1131.5 128.6256,-1163.9255 119.0743,-1178.7094 141,-1203.5 149.563,-1213.1819 161.1737,-1220.2213 173.1355,-1225.3271"/>
<polygon fill="#191970" stroke="#191970" points="57.5263,-671.5959 52.9863,-662.0231 50.5657,-672.3377 57.5263,-671.5959"/>
</g>
<!-- Node14 -->
<g id="node14" class="node">
<title>Node14</title>
<g id="a_node14"><a xlink:href="classgko_1_1matrix_1_1Diagonal.html" target="_top" xlink:title="This class is a utility which efficiently implements the diagonal matrix (a linear operator which sca...">
<polygon fill="#ffffff" stroke="#000000" points="167.5,-978.5 167.5,-1008.5 289.5,-1008.5 289.5,-978.5 167.5,-978.5"/>
<text text-anchor="start" x="175.5" y="-996.5" font-family="Helvetica,sans-Serif" font-size="10.00" fill="#000000">gko::matrix::Diagonal</text>
<text text-anchor="middle" x="228.5" y="-985.5" font-family="Helvetica,sans-Serif" font-size="10.00" fill="#000000">&lt; ValueType &gt;</text>
</a>
</g>
</g>
<!-- Node1&#45;&gt;Node14 -->
<g id="edge14" class="edge">
<title>Node1&#45;&gt;Node14</title>
<path fill="none" stroke="#191970" d="M54.8893,-672.1287C64.4672,-734.5791 97.0781,-927.0572 141,-969.5 148.3629,-976.6149 157.6277,-981.664 167.3541,-985.2377"/>
<polygon fill="#191970" stroke="#191970" points="58.3212,-671.414 53.3714,-662.0465 51.3992,-672.4562 58.3212,-671.414"/>
</g>
<!-- Node15 -->
<g id="node15" class="node">
<title>Node15</title>
<g id="a_node15"><a xlink:href="classgko_1_1matrix_1_1Fbcsr.html" target="_top" xlink:title="Fixed&#45;block compressed sparse row storage matrix format.">
<polygon fill="#ffffff" stroke="#000000" points="156.5,-929.5 156.5,-959.5 300.5,-959.5 300.5,-929.5 156.5,-929.5"/>
<text text-anchor="start" x="164.5" y="-947.5" font-family="Helvetica,sans-Serif" font-size="10.00" fill="#000000">gko::matrix::Fbcsr</text>
<text text-anchor="middle" x="228.5" y="-936.5" font-family="Helvetica,sans-Serif" font-size="10.00" fill="#000000">&lt; ValueType, IndexType &gt;</text>
</a>
</g>
</g>
<!-- Node1&#45;&gt;Node15 -->
<g id="edge15" class="edge">
<title>Node1&#45;&gt;Node15</title>
<path fill="none" stroke="#191970" d="M55.9119,-672.3501C67.3533,-728.3814 102.3918,-885.8753 141,-919.5 145.6464,-923.5467 150.9079,-926.9406 156.4892,-929.7867"/>
<polygon fill="#191970" stroke="#191970" points="59.2915,-671.4023 53.8898,-662.2879 52.4287,-672.7815 59.2915,-671.4023"/>
</g>
<!-- Node16 -->
<g id="node16" class="node">
<title>Node16</title>
<g id="a_node16"><a xlink:href="classgko_1_1matrix_1_1Fft.html" target="_top" xlink:title="This LinOp implements a 1D Fourier matrix using the FFT algorithm.">
<polygon fill="#ffffff" stroke="#000000" points="182.5,-891 182.5,-910 274.5,-910 274.5,-891 182.5,-891"/>
<text text-anchor="middle" x="228.5" y="-898" font-family="Helvetica,sans-Serif" font-size="10.00" fill="#000000">gko::matrix::Fft</text>
</a>
</g>
</g>
<!-- Node1&#45;&gt;Node16 -->
<g id="edge16" class="edge">
<title>Node1&#45;&gt;Node16</title>
<path fill="none" stroke="#191970" d="M53.3554,-672.5123C57.5635,-717.6691 74.4811,-827.7204 141,-881.5 152.6049,-890.8824 167.8108,-895.8998 182.285,-898.5067"/>
<polygon fill="#191970" stroke="#191970" points="56.8219,-671.9575 52.5211,-662.2749 49.8451,-672.5262 56.8219,-671.9575"/>
</g>
<!-- Node17 -->
<g id="node17" class="node">
<title>Node17</title>
<g id="a_node17"><a xlink:href="classgko_1_1matrix_1_1Fft2.html" target="_top" xlink:title="This LinOp implements a 2D Fourier matrix using the FFT algorithm.">
<polygon fill="#ffffff" stroke="#000000" points="179.5,-853 179.5,-872 277.5,-872 277.5,-853 179.5,-853"/>
<text text-anchor="middle" x="228.5" y="-860" font-family="Helvetica,sans-Serif" font-size="10.00" fill="#000000">gko::matrix::Fft2</text>
</a>
</g>
</g>
<!-- Node1&#45;&gt;Node17 -->
<g id="edge17" class="edge">
<title>Node1&#45;&gt;Node17</title>
<path fill="none" stroke="#191970" d="M55.2375,-672.1641C62.7603,-711.2818 85.2202,-798.9181 141,-843.5 151.8073,-852.1377 165.6758,-857.066 179.1708,-859.82"/>
<polygon fill="#191970" stroke="#191970" points="58.6765,-671.5124 53.4625,-662.2894 51.787,-672.7509 58.6765,-671.5124"/>
</g>
<!-- Node18 -->
<g id="node18" class="node">
<title>Node18</title>
<g id="a_node18"><a xlink:href="classgko_1_1matrix_1_1Fft3.html" target="_top" xlink:title="This LinOp implements a 3D Fourier matrix using the FFT algorithm.">
<polygon fill="#ffffff" stroke="#000000" points="179.5,-815 179.5,-834 277.5,-834 277.5,-815 179.5,-815"/>
<text text-anchor="middle" x="228.5" y="-822" font-family="Helvetica,sans-Serif" font-size="10.00" fill="#000000">gko::matrix::Fft3</text>
</a>
</g>
</g>
<!-- Node1&#45;&gt;Node18 -->
<g id="edge18" class="edge">
<title>Node1&#45;&gt;Node18</title>
<path fill="none" stroke="#191970" d="M57.6519,-672.0766C68.2451,-705.0927 94.3371,-771.5572 141,-805.5 152.0625,-813.5469 165.8589,-818.3067 179.2024,-821.0884"/>
<polygon fill="#191970" stroke="#191970" points="60.9199,-670.795 54.6462,-662.2574 54.2265,-672.844 60.9199,-670.795"/>
</g>
<!-- Node19 -->
<g id="node19" class="node">
<title>Node19</title>
<g id="a_node19"><a xlink:href="classgko_1_1matrix_1_1Identity.html" target="_top" xlink:title="This class is a utility which efficiently implements the identity matrix (a linear operator which map...">
<polygon fill="#ffffff" stroke="#000000" points="170.5,-765.5 170.5,-795.5 286.5,-795.5 286.5,-765.5 170.5,-765.5"/>
<text text-anchor="start" x="178.5" y="-783.5" font-family="Helvetica,sans-Serif" font-size="10.00" fill="#000000">gko::matrix::Identity</text>
<text text-anchor="middle" x="228.5" y="-772.5" font-family="Helvetica,sans-Serif" font-size="10.00" fill="#000000">&lt; ValueType &gt;</text>
</a>
</g>
</g>
<!-- Node1&#45;&gt;Node19 -->
<g id="edge19" class="edge">
<title>Node1&#45;&gt;Node19</title>
<path fill="none" stroke="#191970" d="M62.7912,-670.8479C77.5081,-694.2532 106.0788,-734.3459 141,-756.5 149.9118,-762.1537 160.1523,-766.4919 170.4156,-769.816"/>
<polygon fill="#191970" stroke="#191970" points="65.7169,-668.9234 57.5167,-662.2146 59.7435,-672.5728 65.7169,-668.9234"/>
</g>
<!-- Node20 -->
<g id="node20" class="node">
<title>Node20</title>
<g id="a_node20"><a xlink:href="classgko_1_1matrix_1_1SparsityCsr.html" target="_top" xlink:title="SparsityCsr is a matrix format which stores only the sparsity pattern of a sparse matrix by compressi...">
<polygon fill="#ffffff" stroke="#000000" points="156.5,-716.5 156.5,-746.5 300.5,-746.5 300.5,-716.5 156.5,-716.5"/>
<text text-anchor="start" x="164.5" y="-734.5" font-family="Helvetica,sans-Serif" font-size="10.00" fill="#000000">gko::matrix::SparsityCsr</text>
<text text-anchor="middle" x="228.5" y="-723.5" font-family="Helvetica,sans-Serif" font-size="10.00" fill="#000000">&lt; ValueType, IndexType &gt;</text>
</a>
</g>
</g>
<!-- Node1&#45;&gt;Node20 -->
<g id="edge20" class="edge">
<title>Node1&#45;&gt;Node20</title>
<path fill="none" stroke="#191970" d="M73.236,-668.0458C90.695,-680.2167 116.4655,-696.8185 141,-707.5 148.6546,-710.8326 156.8901,-713.8139 165.138,-716.4466"/>
<polygon fill="#191970" stroke="#191970" points="75.095,-665.0732 64.9143,-662.1399 71.0437,-670.7818 75.095,-665.0732"/>
</g>
<!-- Node21 -->
<g id="node21" class="node">
<title>Node21</title>
<g id="a_node21"><a xlink:href="classgko_1_1preconditioner_1_1Ic.html" target="_top" xlink:title="The Incomplete Cholesky (IC) preconditioner solves the equation &#160;for a given lower triangular matrix ...">
<polygon fill="#ffffff" stroke="#000000" points="145,-667.5 145,-697.5 312,-697.5 312,-667.5 145,-667.5"/>
<text text-anchor="start" x="153" y="-685.5" font-family="Helvetica,sans-Serif" font-size="10.00" fill="#000000">gko::preconditioner</text>
<text text-anchor="middle" x="228.5" y="-674.5" font-family="Helvetica,sans-Serif" font-size="10.00" fill="#000000">::Ic&lt; LSolverType, IndexType &gt;</text>
</a>
</g>
</g>
<!-- Node1&#45;&gt;Node21 -->
<g id="edge21" class="edge">
<title>Node1&#45;&gt;Node21</title>
<path fill="none" stroke="#191970" d="M114.1331,-663.0609C124.0463,-664.7458 134.4426,-666.5129 144.7566,-668.266"/>
<polygon fill="#191970" stroke="#191970" points="114.4463,-659.564 104.0012,-661.3387 113.2733,-666.465 114.4463,-659.564"/>
</g>
<!-- Node22 -->
<g id="node22" class="node">
<title>Node22</title>
<g id="a_node22"><a xlink:href="classgko_1_1preconditioner_1_1Ilu.html" target="_top" xlink:title="The Incomplete LU (ILU) preconditioner solves the equation &#160;for a given lower triangular matrix L,...">
<polygon fill="#ffffff" stroke="#000000" points="150.5,-596.5 150.5,-648.5 306.5,-648.5 306.5,-596.5 150.5,-596.5"/>
<text text-anchor="start" x="158.5" y="-636.5" font-family="Helvetica,sans-Serif" font-size="10.00" fill="#000000">gko::preconditioner</text>
<text text-anchor="start" x="158.5" y="-625.5" font-family="Helvetica,sans-Serif" font-size="10.00" fill="#000000">::Ilu&lt; LSolverType,</text>
<text text-anchor="start" x="158.5" y="-614.5" font-family="Helvetica,sans-Serif" font-size="10.00" fill="#000000"> USolverType, ReverseApply,</text>
<text text-anchor="middle" x="228.5" y="-603.5" font-family="Helvetica,sans-Serif" font-size="10.00" fill="#000000"> IndexType &gt;</text>
</a>
</g>
</g>
<!-- Node1&#45;&gt;Node22 -->
<g id="edge22" class="edge">
<title>Node1&#45;&gt;Node22</title>
<path fill="none" stroke="#191970" d="M114.1058,-641.9438C125.8291,-639.9511 138.229,-637.8435 150.37,-635.7799"/>
<polygon fill="#191970" stroke="#191970" points="113.2733,-638.535 104.0012,-643.6613 114.4463,-645.436 113.2733,-638.535"/>
</g>
<!-- Node23 -->
<g id="node23" class="node">
<title>Node23</title>
<g id="a_node23"><a xlink:href="classgko_1_1preconditioner_1_1Isai.html" target="_top" xlink:title="The Incomplete Sparse Approximate Inverse (ISAI) Preconditioner generates an approximate inverse matr...">
<polygon fill="#ffffff" stroke="#000000" points="154,-536 154,-577 303,-577 303,-536 154,-536"/>
<text text-anchor="start" x="162" y="-565" font-family="Helvetica,sans-Serif" font-size="10.00" fill="#000000">gko::preconditioner</text>
<text text-anchor="start" x="162" y="-554" font-family="Helvetica,sans-Serif" font-size="10.00" fill="#000000">::Isai&lt; IsaiType, ValueType,</text>
<text text-anchor="middle" x="228.5" y="-543" font-family="Helvetica,sans-Serif" font-size="10.00" fill="#000000"> IndexType &gt;</text>
</a>
</g>
</g>
<!-- Node1&#45;&gt;Node23 -->
<g id="edge23" class="edge">
<title>Node1&#45;&gt;Node23</title>
<path fill="none" stroke="#191970" d="M70.486,-636.5081C87.7871,-622.1673 114.825,-601.3152 141,-587.5 148.1264,-583.7387 155.8069,-580.2641 163.5532,-577.1076"/>
<polygon fill="#191970" stroke="#191970" points="68.2138,-633.8458 62.8214,-642.9657 72.7241,-639.1991 68.2138,-633.8458"/>
</g>
<!-- Node24 -->
<g id="node24" class="node">
<title>Node24</title>
<g id="a_node24"><a xlink:href="classgko_1_1preconditioner_1_1Jacobi.html" target="_top" xlink:title="A block&#45;Jacobi preconditioner is a block&#45;diagonal linear operator, obtained by inverting the diagonal...">
<polygon fill="#ffffff" stroke="#000000" points="170.5,-476 170.5,-517 286.5,-517 286.5,-476 170.5,-476"/>
<text text-anchor="start" x="178.5" y="-505" font-family="Helvetica,sans-Serif" font-size="10.00" fill="#000000">gko::preconditioner</text>
<text text-anchor="start" x="178.5" y="-494" font-family="Helvetica,sans-Serif" font-size="10.00" fill="#000000">::Jacobi&lt; ValueType,</text>
<text text-anchor="middle" x="228.5" y="-483" font-family="Helvetica,sans-Serif" font-size="10.00" fill="#000000"> IndexType &gt;</text>
</a>
</g>
</g>
<!-- Node1&#45;&gt;Node24 -->
<g id="edge24" class="edge">
<title>Node1&#45;&gt;Node24</title>
<path fill="none" stroke="#191970" d="M60.6734,-633.4236C74.0926,-605.9583 102.4207,-555.4079 141,-526.5 149.739,-519.9518 160.0091,-514.7656 170.3803,-510.6799"/>
<polygon fill="#191970" stroke="#191970" points="57.3849,-632.1904 56.2701,-642.7264 63.712,-635.1852 57.3849,-632.1904"/>
</g>
<!-- Node25 -->
<g id="node25" class="node">
<title>Node25</title>
<g id="a_node25"><a xlink:href="classgko_1_1solver_1_1Bicg.html" target="_top" xlink:title="BICG or the Biconjugate gradient method is a Krylov subspace solver.">
<polygon fill="#ffffff" stroke="#000000" points="175.5,-426.5 175.5,-456.5 281.5,-456.5 281.5,-426.5 175.5,-426.5"/>
<text text-anchor="start" x="183.5" y="-444.5" font-family="Helvetica,sans-Serif" font-size="10.00" fill="#000000">gko::solver::Bicg&lt;</text>
<text text-anchor="middle" x="228.5" y="-433.5" font-family="Helvetica,sans-Serif" font-size="10.00" fill="#000000"> ValueType &gt;</text>
</a>
</g>
</g>
<!-- Node1&#45;&gt;Node25 -->
<g id="edge25" class="edge">
<title>Node1&#45;&gt;Node25</title>
<path fill="none" stroke="#191970" d="M55.8144,-632.8605C64.2245,-594.9049 87.9832,-511.2825 141,-466.5 150.7762,-458.2422 163.1258,-452.7072 175.4415,-448.9987"/>
<polygon fill="#191970" stroke="#191970" points="52.3812,-632.1795 53.7591,-642.6843 59.2328,-633.613 52.3812,-632.1795"/>
</g>
<!-- Node26 -->
<g id="node26" class="node">
<title>Node26</title>
<g id="a_node26"><a xlink:href="classgko_1_1solver_1_1Bicgstab.html" target="_top" xlink:title="BiCGSTAB or the Bi&#45;Conjugate Gradient&#45;Stabilized is a Krylov subspace solver.">
<polygon fill="#ffffff" stroke="#000000" points="169,-377.5 169,-407.5 288,-407.5 288,-377.5 169,-377.5"/>
<text text-anchor="start" x="177" y="-395.5" font-family="Helvetica,sans-Serif" font-size="10.00" fill="#000000">gko::solver::Bicgstab</text>
<text text-anchor="middle" x="228.5" y="-384.5" font-family="Helvetica,sans-Serif" font-size="10.00" fill="#000000">&lt; ValueType &gt;</text>
</a>
</g>
</g>
<!-- Node1&#45;&gt;Node26 -->
<g id="edge26" class="edge">
<title>Node1&#45;&gt;Node26</title>
<path fill="none" stroke="#191970" d="M53.6538,-632.5311C58.4817,-587.3705 76.6003,-476.7212 141,-417.5 148.7916,-410.3349 158.4982,-405.2079 168.5838,-401.5429"/>
<polygon fill="#191970" stroke="#191970" points="50.1436,-632.4704 52.6734,-642.7588 57.1117,-633.1384 50.1436,-632.4704"/>
</g>
<!-- Node27 -->
<g id="node27" class="node">
<title>Node27</title>
<g id="a_node27"><a xlink:href="classgko_1_1solver_1_1Cg.html" target="_top" xlink:title="CG or the conjugate gradient method is an iterative type Krylov subspace method which is suitable for...">
<polygon fill="#ffffff" stroke="#000000" points="148,-339 148,-358 309,-358 309,-339 148,-339"/>
<text text-anchor="middle" x="228.5" y="-346" font-family="Helvetica,sans-Serif" font-size="10.00" fill="#000000">gko::solver::Cg&lt; ValueType &gt;</text>
</a>
</g>
</g>
<!-- Node1&#45;&gt;Node27 -->
<g id="edge27" class="edge">
<title>Node1&#45;&gt;Node27</title>
<path fill="none" stroke="#191970" d="M55.5816,-632.6365C66.4839,-574.3372 100.9746,-405.483 141,-368.5 145.578,-364.27 150.8616,-360.8735 156.5186,-358.1535"/>
<polygon fill="#191970" stroke="#191970" points="52.0881,-632.2823 53.721,-642.7505 58.9726,-633.5488 52.0881,-632.2823"/>
</g>
<!-- Node28 -->
<g id="node28" class="node">
<title>Node28</title>
<g id="a_node28"><a xlink:href="classgko_1_1solver_1_1Cgs.html" target="_top" xlink:title="CGS or the conjugate gradient square method is an iterative type Krylov subspace method which is suit...">
<polygon fill="#ffffff" stroke="#000000" points="145,-301 145,-320 312,-320 312,-301 145,-301"/>
<text text-anchor="middle" x="228.5" y="-308" font-family="Helvetica,sans-Serif" font-size="10.00" fill="#000000">gko::solver::Cgs&lt; ValueType &gt;</text>
</a>
</g>
</g>
<!-- Node1&#45;&gt;Node28 -->
<g id="edge28" class="edge">
<title>Node1&#45;&gt;Node28</title>
<path fill="none" stroke="#191970" d="M54.6758,-632.7914C63.7033,-569.2631 95.0648,-371.5555 141,-329.5 145.1276,-325.721 149.8246,-322.6292 154.8493,-320.1059"/>
<polygon fill="#191970" stroke="#191970" points="51.2059,-632.3333 53.293,-642.7205 58.139,-633.2989 51.2059,-632.3333"/>
</g>
<!-- Node29 -->
<g id="node29" class="node">
<title>Node29</title>
<g id="a_node29"><a xlink:href="classgko_1_1solver_1_1Fcg.html" target="_top" xlink:title="FCG or the flexible conjugate gradient method is an iterative type Krylov subspace method which is su...">
<polygon fill="#ffffff" stroke="#000000" points="146,-263 146,-282 311,-282 311,-263 146,-263"/>
<text text-anchor="middle" x="228.5" y="-270" font-family="Helvetica,sans-Serif" font-size="10.00" fill="#000000">gko::solver::Fcg&lt; ValueType &gt;</text>
</a>
</g>
</g>
<!-- Node1&#45;&gt;Node29 -->
<g id="edge29" class="edge">
<title>Node1&#45;&gt;Node29</title>
<path fill="none" stroke="#191970" d="M54.0162,-632.7078C61.4134,-564.1667 89.3563,-338.5581 141,-291.5 145.1365,-287.7308 149.8399,-284.646 154.8691,-282.1275"/>
<polygon fill="#191970" stroke="#191970" points="50.5031,-632.6501 52.9381,-642.9614 57.4647,-633.3822 50.5031,-632.6501"/>
</g>
<!-- Node30 -->
<g id="node30" class="node">
<title>Node30</title>
<g id="a_node30"><a xlink:href="classgko_1_1solver_1_1Gcr.html" target="_top" xlink:title="GCR or the generalized conjugate residual method is an iterative type Krylov subspace method similar ...">
<polygon fill="#ffffff" stroke="#000000" points="146,-225 146,-244 311,-244 311,-225 146,-225"/>
<text text-anchor="middle" x="228.5" y="-232" font-family="Helvetica,sans-Serif" font-size="10.00" fill="#000000">gko::solver::Gcr&lt; ValueType &gt;</text>
</a>
</g>
</g>
<!-- Node1&#45;&gt;Node30 -->
<g id="edge30" class="edge">
<title>Node1&#45;&gt;Node30</title>
<path fill="none" stroke="#191970" d="M53.4949,-632.5043C59.4135,-559.0499 83.7339,-305.6812 141,-253.5 145.1365,-249.7308 149.8399,-246.646 154.8691,-244.1275"/>
<polygon fill="#191970" stroke="#191970" points="49.9887,-632.4483 52.7007,-642.6901 56.9675,-632.9925 49.9887,-632.4483"/>
</g>
<!-- Node31 -->
<g id="node31" class="node">
<title>Node31</title>
<g id="a_node31"><a xlink:href="classgko_1_1solver_1_1Gmres.html" target="_top" xlink:title="GMRES or the generalized minimal residual method is an iterative type Krylov subspace method which is...">
<polygon fill="#ffffff" stroke="#000000" points="174,-175.5 174,-205.5 283,-205.5 283,-175.5 174,-175.5"/>
<text text-anchor="start" x="182" y="-193.5" font-family="Helvetica,sans-Serif" font-size="10.00" fill="#000000">gko::solver::Gmres</text>
<text text-anchor="middle" x="228.5" y="-182.5" font-family="Helvetica,sans-Serif" font-size="10.00" fill="#000000">&lt; ValueType &gt;</text>
</a>
</g>
</g>
<!-- Node1&#45;&gt;Node31 -->
<g id="edge31" class="edge">
<title>Node1&#45;&gt;Node31</title>
<path fill="none" stroke="#191970" d="M53.1487,-632.7339C58.056,-555.4312 79.8742,-274.9154 141,-215.5 149.9498,-206.8006 161.7085,-201.0897 173.6902,-197.3511"/>
<polygon fill="#191970" stroke="#191970" points="49.6395,-632.7802 52.5237,-642.9749 56.6265,-633.2068 49.6395,-632.7802"/>
</g>
<!-- Node32 -->
<g id="node32" class="node">
<title>Node32</title>
<g id="a_node32"><a xlink:href="classgko_1_1solver_1_1Idr.html" target="_top" xlink:title="IDR(s) is an efficient method for solving large nonsymmetric systems of linear equations.">
<polygon fill="#ffffff" stroke="#000000" points="148,-137 148,-156 309,-156 309,-137 148,-137"/>
<text text-anchor="middle" x="228.5" y="-144" font-family="Helvetica,sans-Serif" font-size="10.00" fill="#000000">gko::solver::Idr&lt; ValueType &gt;</text>
</a>
</g>
</g>
<!-- Node1&#45;&gt;Node32 -->
<g id="edge32" class="edge">
<title>Node1&#45;&gt;Node32</title>
<path fill="none" stroke="#191970" d="M52.6687,-632.6245C55.8836,-549.7211 72.5451,-232.7127 141,-166.5 145.3682,-162.2749 150.4363,-158.8729 155.8895,-156.1413"/>
<polygon fill="#191970" stroke="#191970" points="49.1674,-632.5974 52.3003,-642.7184 56.1628,-632.8527 49.1674,-632.5974"/>
</g>
<!-- Node33 -->
<g id="node33" class="node">
<title>Node33</title>
<g id="a_node33"><a xlink:href="classgko_1_1solver_1_1Ir.html" target="_top" xlink:title="Iterative refinement (IR) is an iterative method that uses another coarse method to approximate the e...">
<polygon fill="#ffffff" stroke="#000000" points="151,-99 151,-118 306,-118 306,-99 151,-99"/>
<text text-anchor="middle" x="228.5" y="-106" font-family="Helvetica,sans-Serif" font-size="10.00" fill="#000000">gko::solver::Ir&lt; ValueType &gt;</text>
</a>
</g>
</g>
<!-- Node1&#45;&gt;Node33 -->
<g id="edge33" class="edge">
<title>Node1&#45;&gt;Node33</title>
<path fill="none" stroke="#191970" d="M53.9089,-632.5784C60.3386,-567.9013 83.0155,-358.1736 122,-188.5 128.3586,-160.8253 120.0562,-146.6749 141,-127.5 145.1276,-123.721 149.8246,-120.6292 154.8493,-118.1059"/>
<polygon fill="#191970" stroke="#191970" points="50.3871,-632.6314 52.8971,-642.9246 57.3538,-633.3128 50.3871,-632.6314"/>
</g>
<!-- Node34 -->
<g id="node34" class="node">
<title>Node34</title>
<g id="a_node34"><a xlink:href="classgko_1_1solver_1_1LowerTrs.html" target="_top" xlink:title="LowerTrs is the triangular solver which solves the system L x = b, when L is a lower triangular matri...">
<polygon fill="#ffffff" stroke="#000000" points="156.5,-49.5 156.5,-79.5 300.5,-79.5 300.5,-49.5 156.5,-49.5"/>
<text text-anchor="start" x="164.5" y="-67.5" font-family="Helvetica,sans-Serif" font-size="10.00" fill="#000000">gko::solver::LowerTrs</text>
<text text-anchor="middle" x="228.5" y="-56.5" font-family="Helvetica,sans-Serif" font-size="10.00" fill="#000000">&lt; ValueType, IndexType &gt;</text>
</a>
</g>
</g>
<!-- Node1&#45;&gt;Node34 -->
<g id="edge34" class="edge">
<title>Node1&#45;&gt;Node34</title>
<path fill="none" stroke="#191970" d="M52.2729,-632.5981C53.926,-542.1462 65.2947,-170.719 141,-89.5 145.4166,-84.7617 150.663,-80.8999 156.3599,-77.7553"/>
<polygon fill="#191970" stroke="#191970" points="48.7731,-632.5617 52.1098,-642.6174 55.7722,-632.6757 48.7731,-632.5617"/>
</g>
<!-- Node35 -->
<g id="node35" class="node">
<title>Node35</title>
<g id="a_node35"><a xlink:href="classgko_1_1solver_1_1UpperTrs.html" target="_top" xlink:title="UpperTrs is the triangular solver which solves the system U x = b, when U is an upper triangular matr...">
<polygon fill="#ffffff" stroke="#000000" points="156.5,-.5 156.5,-30.5 300.5,-30.5 300.5,-.5 156.5,-.5"/>
<text text-anchor="start" x="164.5" y="-18.5" font-family="Helvetica,sans-Serif" font-size="10.00" fill="#000000">gko::solver::UpperTrs</text>
<text text-anchor="middle" x="228.5" y="-7.5" font-family="Helvetica,sans-Serif" font-size="10.00" fill="#000000">&lt; ValueType, IndexType &gt;</text>
</a>
</g>
</g>
<!-- Node1&#45;&gt;Node35 -->
<g id="edge35" class="edge">
<title>Node1&#45;&gt;Node35</title>
<path fill="none" stroke="#191970" d="M53.6114,-632.6208C59.5815,-561.4751 82.1769,-313.0445 122,-111.5 128.332,-79.4537 118.0968,-63.7917 141,-40.5 145.4308,-35.994 150.6133,-32.2858 156.2043,-29.236"/>
<polygon fill="#191970" stroke="#191970" points="50.1045,-632.5615 52.7688,-642.8159 57.0807,-633.1382 50.1045,-632.5615"/>
</g>
<!-- Node5 -->
<g id="node5" class="node">
<title>Node5</title>
<g id="a_node5"><a xlink:href="classgko_1_1factorization_1_1Ic.html" target="_top" xlink:title="Represents an incomplete Cholesky factorization (IC(0)) of a sparse matrix.">
<polygon fill="#ffffff" stroke="#000000" points="443,-1223.5 443,-1253.5 546,-1253.5 546,-1223.5 443,-1223.5"/>
<text text-anchor="start" x="451" y="-1241.5" font-family="Helvetica,sans-Serif" font-size="10.00" fill="#000000">gko::factorization</text>
<text text-anchor="middle" x="494.5" y="-1230.5" font-family="Helvetica,sans-Serif" font-size="10.00" fill="#000000">::Ic&lt; ValueType &gt;</text>
</a>
</g>
</g>
<!-- Node4&#45;&gt;Node5 -->
<g id="edge4" class="edge">
<title>Node4&#45;&gt;Node5</title>
<path fill="none" stroke="#191970" d="M302.7149,-1159.403C307.3177,-1161.1795 311.7871,-1163.2006 316,-1165.5 325.9308,-1170.9202 324.401,-1177.5117 334,-1183.5 367.4879,-1204.3912 409.893,-1218.4812 442.7049,-1227.1661"/>
<polygon fill="#191970" stroke="#191970" points="303.7139,-1156.0452 293.1191,-1156.0892 301.4289,-1162.6618 303.7139,-1156.0452"/>
</g>
<!-- Node6 -->
<g id="node6" class="node">
<title>Node6</title>
<g id="a_node6"><a xlink:href="classgko_1_1factorization_1_1Ilu.html" target="_top" xlink:title="Represents an incomplete LU factorization – ILU(0) – of a sparse matrix.">
<polygon fill="#ffffff" stroke="#000000" points="441,-1174.5 441,-1204.5 548,-1204.5 548,-1174.5 441,-1174.5"/>
<text text-anchor="start" x="449" y="-1192.5" font-family="Helvetica,sans-Serif" font-size="10.00" fill="#000000">gko::factorization</text>
<text text-anchor="middle" x="494.5" y="-1181.5" font-family="Helvetica,sans-Serif" font-size="10.00" fill="#000000">::Ilu&lt; ValueType &gt;</text>
</a>
</g>
</g>
<!-- Node4&#45;&gt;Node6 -->
<g id="edge5" class="edge">
<title>Node4&#45;&gt;Node6</title>
<path fill="none" stroke="#191970" d="M297.4292,-1157.6427C342.0518,-1164.8561 399.3173,-1174.1133 440.6059,-1180.7878"/>
<polygon fill="#191970" stroke="#191970" points="297.9644,-1154.1839 287.534,-1156.0431 296.8473,-1161.0941 297.9644,-1154.1839"/>
</g>
<!-- Node7 -->
<g id="node7" class="node">
<title>Node7</title>
<g id="a_node7"><a xlink:href="classgko_1_1factorization_1_1ParIc.html" target="_top" xlink:title="ParIC is an incomplete Cholesky factorization which is computed in parallel.">
<polygon fill="#ffffff" stroke="#000000" points="435.5,-1125.5 435.5,-1155.5 553.5,-1155.5 553.5,-1125.5 435.5,-1125.5"/>
<text text-anchor="start" x="443.5" y="-1143.5" font-family="Helvetica,sans-Serif" font-size="10.00" fill="#000000">gko::factorization</text>
<text text-anchor="middle" x="494.5" y="-1132.5" font-family="Helvetica,sans-Serif" font-size="10.00" fill="#000000">::ParIc&lt; ValueType &gt;</text>
</a>
</g>
</g>
<!-- Node4&#45;&gt;Node7 -->
<g id="edge6" class="edge">
<title>Node4&#45;&gt;Node7</title>
<path fill="none" stroke="#191970" d="M325.84,-1144.3044C362.556,-1143.4762 403.1868,-1142.5597 435.3679,-1141.8338"/>
<polygon fill="#191970" stroke="#191970" points="325.5168,-1140.8107 315.5983,-1144.5354 325.6748,-1147.8089 325.5168,-1140.8107"/>
</g>
<!-- Node8 -->
<g id="node8" class="node">
<title>Node8</title>
<g id="a_node8"><a xlink:href="classgko_1_1factorization_1_1ParIct.html" target="_top" xlink:title="ParICT is an incomplete threshold&#45;based Cholesky factorization which is computed in parallel.">
<polygon fill="#ffffff" stroke="#000000" points="433.5,-1076.5 433.5,-1106.5 555.5,-1106.5 555.5,-1076.5 433.5,-1076.5"/>
<text text-anchor="start" x="441.5" y="-1094.5" font-family="Helvetica,sans-Serif" font-size="10.00" fill="#000000">gko::factorization</text>
<text text-anchor="middle" x="494.5" y="-1083.5" font-family="Helvetica,sans-Serif" font-size="10.00" fill="#000000">::ParIct&lt; ValueType &gt;</text>
</a>
</g>
</g>
<!-- Node4&#45;&gt;Node8 -->
<g id="edge7" class="edge">
<title>Node4&#45;&gt;Node8</title>
<path fill="none" stroke="#191970" d="M284.3768,-1134.9465C327.89,-1125.9494 388.2316,-1113.4728 433.0926,-1104.197"/>
<polygon fill="#191970" stroke="#191970" points="283.6141,-1131.5301 274.53,-1136.9825 285.0316,-1138.3851 283.6141,-1131.5301"/>
</g>
<!-- Node9 -->
<g id="node9" class="node">
<title>Node9</title>
<g id="a_node9"><a xlink:href="classgko_1_1factorization_1_1ParIlu.html" target="_top" xlink:title="ParILU is an incomplete LU factorization which is computed in parallel.">
<polygon fill="#ffffff" stroke="#000000" points="433.5,-1027.5 433.5,-1057.5 555.5,-1057.5 555.5,-1027.5 433.5,-1027.5"/>
<text text-anchor="start" x="441.5" y="-1045.5" font-family="Helvetica,sans-Serif" font-size="10.00" fill="#000000">gko::factorization</text>
<text text-anchor="middle" x="494.5" y="-1034.5" font-family="Helvetica,sans-Serif" font-size="10.00" fill="#000000">::ParIlu&lt; ValueType &gt;</text>
</a>
</g>
</g>
<!-- Node4&#45;&gt;Node9 -->
<g id="edge8" class="edge">
<title>Node4&#45;&gt;Node9</title>
<path fill="none" stroke="#191970" d="M305.3136,-1133.1913C309.0283,-1131.5119 312.6154,-1129.6233 316,-1127.5 326.9958,-1120.6018 323.5705,-1112.2279 334,-1104.5 363.5209,-1082.6261 401.7256,-1067.4589 433.4545,-1057.6033"/>
<polygon fill="#191970" stroke="#191970" points="303.8591,-1130.003 295.8596,-1136.9498 306.4452,-1136.5078 303.8591,-1130.003"/>
</g>
<!-- Node10 -->
<g id="node10" class="node">
<title>Node10</title>
<g id="a_node10"><a xlink:href="classgko_1_1factorization_1_1ParIlut.html" target="_top" xlink:title="ParILUT is an incomplete threshold&#45;based LU factorization which is computed in parallel.">
<polygon fill="#ffffff" stroke="#000000" points="432,-978.5 432,-1008.5 557,-1008.5 557,-978.5 432,-978.5"/>
<text text-anchor="start" x="440" y="-996.5" font-family="Helvetica,sans-Serif" font-size="10.00" fill="#000000">gko::factorization</text>
<text text-anchor="middle" x="494.5" y="-985.5" font-family="Helvetica,sans-Serif" font-size="10.00" fill="#000000">::ParIlut&lt; ValueType &gt;</text>
</a>
</g>
</g>
<!-- Node4&#45;&gt;Node10 -->
<g id="edge9" class="edge">
<title>Node4&#45;&gt;Node10</title>
<path fill="none" stroke="#191970" d="M311.3514,-1131.4518C312.9717,-1130.2252 314.5252,-1128.9099 316,-1127.5 338.5976,-1105.896 313.4641,-1083.0724 334,-1059.5 358.9362,-1030.8766 398.2067,-1014.441 431.6604,-1005.1298"/>
<polygon fill="#191970" stroke="#191970" points="309.3417,-1128.5812 302.748,-1136.8743 313.0742,-1134.5032 309.3417,-1128.5812"/>
</g>
<!-- Node13&#45;&gt;Node2 -->
<g id="edge13" class="edge">
<title>Node13&#45;&gt;Node2</title>
<path fill="none" stroke="#ffa500" stroke-dasharray="5,2" d="M294.0138,-1244.1919C329.7374,-1247.9918 374.5843,-1253.8971 414,-1262.5 426.1529,-1265.1525 439.1102,-1268.7997 450.998,-1272.4886"/>
<polygon fill="#ffa500" stroke="#ffa500" points="294.0223,-1240.6742 283.7154,-1243.1276 293.3026,-1247.6372 294.0223,-1240.6742"/>
<text text-anchor="middle" x="374" y="-1265.5" font-family="Helvetica,sans-Serif" font-size="10.00" fill="#000000"> &lt; value_type &gt;</text>
</g>
</g>
</svg>
