<?xml version="1.0" encoding="UTF-8" standalone="no"?>
<!DOCTYPE svg PUBLIC "-//W3C//DTD SVG 1.1//EN"
 "http://www.w3.org/Graphics/SVG/1.1/DTD/svg11.dtd">
<!-- Generated by graphviz version 2.40.1 (20161225.0304)
 -->
<!-- Title: gko::ScaledIdentityAddable Pages: 1 -->
<svg width="579pt" height="103pt"
 viewBox="0.00 0.00 579.00 102.72" xmlns="http://www.w3.org/2000/svg" xmlns:xlink="http://www.w3.org/1999/xlink">
<g id="graph0" class="graph" transform="scale(1 1) rotate(0) translate(4 98.7209)">
<title>gko::ScaledIdentityAddable</title>
<polygon fill="#ffffff" stroke="transparent" points="-4,4 -4,-98.7209 575,-98.7209 575,4 -4,4"/>
<!-- Node1 -->
<g id="node1" class="node">
<title>Node1</title>
<g id="a_node1"><a xlink:title="Adds the operation M &lt;&#45; a I + b M for matrix M, identity operator I and scalars a and b,...">
<polygon fill="#bfbfbf" stroke="#000000" points="0,-55 0,-74 150,-74 150,-55 0,-55"/>
<text text-anchor="middle" x="75" y="-62" font-family="Helvetica,sans-Serif" font-size="10.00" fill="#000000">gko::ScaledIdentityAddable</text>
</a>
</g>
</g>
<!-- Node2 -->
<g id="node2" class="node">
<title>Node2</title>
<g id="a_node2"><a xlink:href="classgko_1_1matrix_1_1Dense.html" target="_top" xlink:title=" ">
<polygon fill="#ffffff" stroke="#000000" points="461,-47.5 461,-77.5 571,-77.5 571,-47.5 461,-47.5"/>
<text text-anchor="start" x="469" y="-65.5" font-family="Helvetica,sans-Serif" font-size="10.00" fill="#000000">gko::matrix::Dense</text>
<text text-anchor="middle" x="516" y="-54.5" font-family="Helvetica,sans-Serif" font-size="10.00" fill="#000000">&lt; value_type &gt;</text>
</a>
</g>
</g>
<!-- Node1&#45;&gt;Node2 -->
<g id="edge1" class="edge">
<title>Node1&#45;&gt;Node2</title>
<path fill="none" stroke="#191970" d="M118.2332,-76.4783C138.8721,-81.5954 164.0255,-86.967 187,-89.5 256.7993,-97.1954 274.9929,-94.9928 345,-89.5 383.9522,-86.4438 427.4399,-79.5289 460.8121,-73.4625"/>
<polygon fill="#191970" stroke="#191970" points="119.0477,-73.0741 108.4934,-74.0002 117.3216,-79.8579 119.0477,-73.0741"/>
</g>
<!-- Node3 -->
<g id="node3" class="node">
<title>Node3</title>
<g id="a_node3"><a xlink:href="classgko_1_1matrix_1_1Csr.html" target="_top" xlink:title="CSR is a matrix format which stores only the nonzero coefficients by compressing each row of the matr...">
<polygon fill="#ffffff" stroke="#000000" points="187,-49.5 187,-79.5 345,-79.5 345,-49.5 187,-49.5"/>
<text text-anchor="start" x="195" y="-67.5" font-family="Helvetica,sans-Serif" font-size="10.00" fill="#000000">gko::matrix::Csr&lt; ValueType,</text>
<text text-anchor="middle" x="266" y="-56.5" font-family="Helvetica,sans-Serif" font-size="10.00" fill="#000000"> IndexType &gt;</text>
</a>
</g>
</g>
<!-- Node1&#45;&gt;Node3 -->
<g id="edge2" class="edge">
<title>Node1&#45;&gt;Node3</title>
<path fill="none" stroke="#191970" d="M160.4319,-64.5C169.196,-64.5 178.0744,-64.5 186.7676,-64.5"/>
<polygon fill="#191970" stroke="#191970" points="160.2141,-61.0001 150.2141,-64.5 160.214,-68.0001 160.2141,-61.0001"/>
</g>
<!-- Node4 -->
<g id="node4" class="node">
<title>Node4</title>
<g id="a_node4"><a xlink:href="classgko_1_1matrix_1_1Dense.html" target="_top" xlink:title="Dense is a matrix format which explicitly stores all values of the matrix.">
<polygon fill="#ffffff" stroke="#000000" points="211,-.5 211,-30.5 321,-30.5 321,-.5 211,-.5"/>
<text text-anchor="start" x="219" y="-18.5" font-family="Helvetica,sans-Serif" font-size="10.00" fill="#000000">gko::matrix::Dense</text>
<text text-anchor="middle" x="266" y="-7.5" font-family="Helvetica,sans-Serif" font-size="10.00" fill="#000000">&lt; ValueType &gt;</text>
</a>
</g>
</g>
<!-- Node1&#45;&gt;Node4 -->
<g id="edge3" class="edge">
<title>Node1&#45;&gt;Node4</title>
<path fill="none" stroke="#191970" d="M122.1887,-52.394C148.9909,-45.518 182.6851,-36.874 210.7208,-29.6816"/>
<polygon fill="#191970" stroke="#191970" points="121.0967,-49.0607 112.2801,-54.936 122.8362,-55.8412 121.0967,-49.0607"/>
</g>
<!-- Node4&#45;&gt;Node2 -->
<g id="edge4" class="edge">
<title>Node4&#45;&gt;Node2</title>
<path fill="none" stroke="#ffa500" stroke-dasharray="5,2" d="M331.1759,-27.7531C371.4986,-35.3337 422.6897,-44.9577 460.9679,-52.154"/>
<polygon fill="#ffa500" stroke="#ffa500" points="331.6476,-24.2805 321.1731,-25.8725 330.3542,-31.16 331.6476,-24.2805"/>
<text text-anchor="middle" x="403" y="-51.5" font-family="Helvetica,sans-Serif" font-size="10.00" fill="#000000"> &lt; value_type &gt;</text>
</g>
</g>
</svg>
