<?xml version="1.0" encoding="UTF-8" standalone="no"?>
<!DOCTYPE svg PUBLIC "-//W3C//DTD SVG 1.1//EN"
 "http://www.w3.org/Graphics/SVG/1.1/DTD/svg11.dtd">
<!-- Generated by graphviz version 2.40.1 (20161225.0304)
 -->
<!-- Title: gko::stop::Criterion Pages: 1 -->
<svg width="1291pt" height="135pt"
 viewBox="0.00 0.00 1291.00 135.00" xmlns="http://www.w3.org/2000/svg" xmlns:xlink="http://www.w3.org/1999/xlink">
<g id="graph0" class="graph" transform="scale(1 1) rotate(0) translate(4 131)">
<title>gko::stop::Criterion</title>
<polygon fill="#ffffff" stroke="transparent" points="-4,4 -4,-131 1287,-131 1287,4 -4,4"/>
<!-- Node1 -->
<g id="node1" class="node">
<title>Node1</title>
<g id="a_node1"><a xlink:title="The Criterion class is a base class for all stopping criteria.">
<polygon fill="#bfbfbf" stroke="#000000" points="1173,-29.5 1173,-48.5 1283,-48.5 1283,-29.5 1173,-29.5"/>
<text text-anchor="middle" x="1228" y="-36.5" font-family="Helvetica,sans-Serif" font-size="10.00" fill="#000000">gko::stop::Criterion</text>
</a>
</g>
</g>
<!-- Node2 -->
<g id="node2" class="node">
<title>Node2</title>
<g id="a_node2"><a xlink:href="classgko_1_1EnableAbstractPolymorphicObject.html" target="_top" xlink:title=" ">
<polygon fill="#ffffff" stroke="#000000" points="961,-24 961,-54 1136,-54 1136,-24 961,-24"/>
<text text-anchor="start" x="969" y="-42" font-family="Helvetica,sans-Serif" font-size="10.00" fill="#000000">gko::EnableAbstractPolymorphic</text>
<text text-anchor="middle" x="1048.5" y="-31" font-family="Helvetica,sans-Serif" font-size="10.00" fill="#000000">Object&lt; Criterion &gt;</text>
</a>
</g>
</g>
<!-- Node2&#45;&gt;Node1 -->
<g id="edge1" class="edge">
<title>Node2&#45;&gt;Node1</title>
<path fill="none" stroke="#191970" d="M1146.3596,-39C1155.3812,-39 1164.2927,-39 1172.7253,-39"/>
<polygon fill="#191970" stroke="#191970" points="1146.1467,-35.5001 1136.1467,-39 1146.1466,-42.5001 1146.1467,-35.5001"/>
</g>
<!-- Node3 -->
<g id="node3" class="node">
<title>Node3</title>
<g id="a_node3"><a xlink:href="classgko_1_1PolymorphicObject.html" target="_top" xlink:title="A PolymorphicObject is the abstract base for all &quot;heavy&quot; objects in Ginkgo that behave polymorphicall...">
<polygon fill="#ffffff" stroke="#000000" points="791,-54.5 791,-73.5 924,-73.5 924,-54.5 791,-54.5"/>
<text text-anchor="middle" x="857.5" y="-61.5" font-family="Helvetica,sans-Serif" font-size="10.00" fill="#000000">gko::PolymorphicObject</text>
</a>
</g>
</g>
<!-- Node3&#45;&gt;Node2 -->
<g id="edge2" class="edge">
<title>Node3&#45;&gt;Node2</title>
<path fill="none" stroke="#191970" d="M934.164,-53.9654C942.8942,-52.8227 951.8431,-51.6514 960.703,-50.4917"/>
<polygon fill="#191970" stroke="#191970" points="933.4956,-50.523 924.0344,-55.2913 934.4041,-57.4638 933.4956,-50.523"/>
</g>
<!-- Node4 -->
<g id="node4" class="node">
<title>Node4</title>
<g id="a_node4"><a xlink:href="classgko_1_1log_1_1EnableLogging.html" target="_top" xlink:title=" ">
<polygon fill="#ffffff" stroke="#000000" points="554,-53 554,-83 687,-83 687,-53 554,-53"/>
<text text-anchor="start" x="562" y="-71" font-family="Helvetica,sans-Serif" font-size="10.00" fill="#000000">gko::log::EnableLogging</text>
<text text-anchor="middle" x="620.5" y="-60" font-family="Helvetica,sans-Serif" font-size="10.00" fill="#000000">&lt; PolymorphicObject &gt;</text>
</a>
</g>
</g>
<!-- Node4&#45;&gt;Node3 -->
<g id="edge3" class="edge">
<title>Node4&#45;&gt;Node3</title>
<path fill="none" stroke="#191970" d="M697.2213,-66.7051C727.4331,-66.1952 761.7998,-65.6152 790.9416,-65.1233"/>
<polygon fill="#191970" stroke="#191970" points="697.0879,-63.2068 687.1484,-66.8751 697.2061,-70.2058 697.0879,-63.2068"/>
</g>
<!-- Node5 -->
<g id="node5" class="node">
<title>Node5</title>
<g id="a_node5"><a xlink:href="classgko_1_1log_1_1Loggable.html" target="_top" xlink:title="Loggable class is an interface which should be implemented by classes wanting to support logging.">
<polygon fill="#ffffff" stroke="#000000" points="176,-107.5 176,-126.5 282,-126.5 282,-107.5 176,-107.5"/>
<text text-anchor="middle" x="229" y="-114.5" font-family="Helvetica,sans-Serif" font-size="10.00" fill="#000000">gko::log::Loggable</text>
</a>
</g>
</g>
<!-- Node5&#45;&gt;Node4 -->
<g id="edge4" class="edge">
<title>Node5&#45;&gt;Node4</title>
<path fill="none" stroke="#191970" d="M292.1473,-111.2241C354.3208,-105.2506 451.9097,-95.1069 536,-83 541.7515,-82.1719 547.7117,-81.248 553.6836,-80.2767"/>
<polygon fill="#191970" stroke="#191970" points="291.7237,-107.7485 282.1014,-112.1825 292.3887,-114.7168 291.7237,-107.7485"/>
</g>
<!-- Node6 -->
<g id="node6" class="node">
<title>Node6</title>
<g id="a_node6"><a xlink:href="classgko_1_1log_1_1EnableLogging.html" target="_top" xlink:title="EnableLogging is a mixin which should be inherited by any class which wants to enable logging.">
<polygon fill="#ffffff" stroke="#000000" points="138,-47.5 138,-88.5 320,-88.5 320,-47.5 138,-47.5"/>
<text text-anchor="start" x="146" y="-76.5" font-family="Helvetica,sans-Serif" font-size="10.00" fill="#000000">gko::log::EnableLogging</text>
<text text-anchor="start" x="146" y="-65.5" font-family="Helvetica,sans-Serif" font-size="10.00" fill="#000000">&lt; ConcreteLoggable, Polymorphic</text>
<text text-anchor="middle" x="229" y="-54.5" font-family="Helvetica,sans-Serif" font-size="10.00" fill="#000000">Base &gt;</text>
</a>
</g>
</g>
<!-- Node6&#45;&gt;Node4 -->
<g id="edge5" class="edge">
<title>Node6&#45;&gt;Node4</title>
<path fill="none" stroke="#ffa500" stroke-dasharray="5,2" d="M330.5189,-68C400.9042,-68 492.6363,-68 553.8964,-68"/>
<polygon fill="#ffa500" stroke="#ffa500" points="330.2953,-64.5001 320.2953,-68 330.2952,-71.5001 330.2953,-64.5001"/>
<text text-anchor="middle" x="437" y="-71" font-family="Helvetica,sans-Serif" font-size="10.00" fill="#000000"> &lt; PolymorphicObject &gt;</text>
</g>
<!-- Node7 -->
<g id="node7" class="node">
<title>Node7</title>
<g id="a_node7"><a xlink:title=" ">
<polygon fill="#ffffff" stroke="#bfbfbf" points="0,-21.5 0,-40.5 101,-40.5 101,-21.5 0,-21.5"/>
<text text-anchor="middle" x="50.5" y="-28.5" font-family="Helvetica,sans-Serif" font-size="10.00" fill="#000000">PolymorphicBase</text>
</a>
</g>
</g>
<!-- Node7&#45;&gt;Node6 -->
<g id="edge6" class="edge">
<title>Node7&#45;&gt;Node6</title>
<path fill="none" stroke="#191970" d="M106.2638,-42.5589C116.3029,-44.6398 127.0031,-46.8578 137.7421,-49.0838"/>
<polygon fill="#191970" stroke="#191970" points="106.9705,-39.131 96.4682,-40.5284 105.5496,-45.9853 106.9705,-39.131"/>
</g>
<!-- Node8 -->
<g id="node8" class="node">
<title>Node8</title>
<g id="a_node8"><a xlink:href="classgko_1_1EnableAbstractPolymorphicObject.html" target="_top" xlink:title="This mixin inherits from (a subclass of) PolymorphicObject and provides a base implementation of a ne...">
<polygon fill="#ffffff" stroke="#000000" points="338,-.5 338,-41.5 536,-41.5 536,-.5 338,-.5"/>
<text text-anchor="start" x="346" y="-29.5" font-family="Helvetica,sans-Serif" font-size="10.00" fill="#000000">gko::EnableAbstractPolymorphic</text>
<text text-anchor="start" x="346" y="-18.5" font-family="Helvetica,sans-Serif" font-size="10.00" fill="#000000">Object&lt; AbstractObject, Polymorphic</text>
<text text-anchor="middle" x="437" y="-7.5" font-family="Helvetica,sans-Serif" font-size="10.00" fill="#000000">Base &gt;</text>
</a>
</g>
</g>
<!-- Node7&#45;&gt;Node8 -->
<g id="edge8" class="edge">
<title>Node7&#45;&gt;Node8</title>
<path fill="none" stroke="#191970" d="M111.2068,-29.4293C171.8632,-27.8599 266.1374,-25.4208 337.6981,-23.5693"/>
<polygon fill="#191970" stroke="#191970" points="110.9342,-25.9351 101.0281,-29.6927 111.1153,-32.9328 110.9342,-25.9351"/>
</g>
<!-- Node8&#45;&gt;Node2 -->
<g id="edge7" class="edge">
<title>Node8&#45;&gt;Node2</title>
<path fill="none" stroke="#ffa500" stroke-dasharray="5,2" d="M546.4491,-24.2217C664.9128,-27.7088 851.4938,-33.201 960.7319,-36.4165"/>
<polygon fill="#ffa500" stroke="#ffa500" points="546.3668,-20.7179 536.2681,-23.922 546.1608,-27.7148 546.3668,-20.7179"/>
<text text-anchor="middle" x="739" y="-34" font-family="Helvetica,sans-Serif" font-size="10.00" fill="#000000"> &lt; Criterion &gt;</text>
</g>
</g>
</svg>
