<?xml version="1.0" encoding="UTF-8" standalone="no"?>
<!DOCTYPE svg PUBLIC "-//W3C//DTD SVG 1.1//EN"
 "http://www.w3.org/Graphics/SVG/1.1/DTD/svg11.dtd">
<!-- Generated by graphviz version 2.40.1 (20161225.0304)
 -->
<!-- Title: gko::matrix::SparsityCsr&lt; ValueType, IndexType &gt; Pages: 1 -->
<svg width="2454pt" height="574pt"
 viewBox="0.00 0.00 2454.00 573.50" xmlns="http://www.w3.org/2000/svg" xmlns:xlink="http://www.w3.org/1999/xlink">
<g id="graph0" class="graph" transform="scale(1 1) rotate(0) translate(4 569.5)">
<title>gko::matrix::SparsityCsr&lt; ValueType, IndexType &gt;</title>
<polygon fill="#ffffff" stroke="transparent" points="-4,4 -4,-569.5 2450,-569.5 2450,4 -4,4"/>
<!-- Node1 -->
<g id="node1" class="node">
<title>Node1</title>
<g id="a_node1"><a xlink:title="SparsityCsr is a matrix format which stores only the sparsity pattern of a sparse matrix by compressi...">
<polygon fill="#bfbfbf" stroke="#000000" points="2302,-110 2302,-140 2446,-140 2446,-110 2302,-110"/>
<text text-anchor="start" x="2310" y="-128" font-family="Helvetica,sans-Serif" font-size="10.00" fill="#000000">gko::matrix::SparsityCsr</text>
<text text-anchor="middle" x="2374" y="-117" font-family="Helvetica,sans-Serif" font-size="10.00" fill="#000000">&lt; ValueType, IndexType &gt;</text>
</a>
</g>
</g>
<!-- Node2 -->
<g id="node2" class="node">
<title>Node2</title>
<g id="a_node2"><a xlink:href="classgko_1_1EnableLinOp.html" target="_top" xlink:title=" ">
<polygon fill="#ffffff" stroke="#000000" points="2094,-289 2094,-319 2265,-319 2265,-289 2094,-289"/>
<text text-anchor="start" x="2102" y="-307" font-family="Helvetica,sans-Serif" font-size="10.00" fill="#000000">gko::EnableLinOp&lt; Sparsity</text>
<text text-anchor="middle" x="2179.5" y="-296" font-family="Helvetica,sans-Serif" font-size="10.00" fill="#000000">Csr&lt; ValueType, IndexType &gt; &gt;</text>
</a>
</g>
</g>
<!-- Node2&#45;&gt;Node1 -->
<g id="edge1" class="edge">
<title>Node2&#45;&gt;Node1</title>
<path fill="none" stroke="#191970" d="M2203.5476,-281.8687C2243.6197,-244.9901 2323.0457,-171.8937 2357.459,-140.2228"/>
<polygon fill="#191970" stroke="#191970" points="2201.071,-279.3914 2196.083,-288.7386 2205.8113,-284.5421 2201.071,-279.3914"/>
</g>
<!-- Node3 -->
<g id="node3" class="node">
<title>Node3</title>
<g id="a_node3"><a xlink:href="classgko_1_1EnablePolymorphicObject.html" target="_top" xlink:title=" ">
<polygon fill="#ffffff" stroke="#000000" points="1758,-432.5 1758,-473.5 1924,-473.5 1924,-432.5 1758,-432.5"/>
<text text-anchor="start" x="1766" y="-461.5" font-family="Helvetica,sans-Serif" font-size="10.00" fill="#000000">gko::EnablePolymorphicObject</text>
<text text-anchor="start" x="1766" y="-450.5" font-family="Helvetica,sans-Serif" font-size="10.00" fill="#000000">&lt; SparsityCsr&lt; ValueType,</text>
<text text-anchor="middle" x="1841" y="-439.5" font-family="Helvetica,sans-Serif" font-size="10.00" fill="#000000"> IndexType &gt;, LinOp &gt;</text>
</a>
</g>
</g>
<!-- Node3&#45;&gt;Node2 -->
<g id="edge2" class="edge">
<title>Node3&#45;&gt;Node2</title>
<path fill="none" stroke="#191970" d="M1896.9094,-428.3899C1967.4522,-397.3386 2086.602,-344.8916 2145.0597,-319.1598"/>
<polygon fill="#191970" stroke="#191970" points="1895.4541,-425.2064 1887.7116,-432.4386 1898.2742,-431.6132 1895.4541,-425.2064"/>
</g>
<!-- Node4 -->
<g id="node4" class="node">
<title>Node4</title>
<g id="a_node4"><a xlink:href="classgko_1_1EnableAbstractPolymorphicObject.html" target="_top" xlink:title=" ">
<polygon fill="#ffffff" stroke="#000000" points="1379.5,-493.5 1379.5,-534.5 1558.5,-534.5 1558.5,-493.5 1379.5,-493.5"/>
<text text-anchor="start" x="1387.5" y="-522.5" font-family="Helvetica,sans-Serif" font-size="10.00" fill="#000000">gko::EnableAbstractPolymorphic</text>
<text text-anchor="start" x="1387.5" y="-511.5" font-family="Helvetica,sans-Serif" font-size="10.00" fill="#000000">Object&lt; SparsityCsr&lt; ValueType,</text>
<text text-anchor="middle" x="1469" y="-500.5" font-family="Helvetica,sans-Serif" font-size="10.00" fill="#000000"> IndexType &gt;, LinOp &gt;</text>
</a>
</g>
</g>
<!-- Node4&#45;&gt;Node3 -->
<g id="edge3" class="edge">
<title>Node4&#45;&gt;Node3</title>
<path fill="none" stroke="#191970" d="M1568.6864,-497.6536C1627.8402,-487.9536 1701.96,-475.7996 1757.9302,-466.6217"/>
<polygon fill="#191970" stroke="#191970" points="1567.8785,-494.2392 1558.5767,-499.3114 1569.0113,-501.147 1567.8785,-494.2392"/>
</g>
<!-- Node5 -->
<g id="node5" class="node">
<title>Node5</title>
<g id="a_node5"><a xlink:href="classgko_1_1LinOp.html" target="_top" xlink:title=" ">
<polygon fill="#ffffff" stroke="#000000" points="1003.5,-536.5 1003.5,-555.5 1071.5,-555.5 1071.5,-536.5 1003.5,-536.5"/>
<text text-anchor="middle" x="1037.5" y="-543.5" font-family="Helvetica,sans-Serif" font-size="10.00" fill="#000000">gko::LinOp</text>
</a>
</g>
</g>
<!-- Node5&#45;&gt;Node4 -->
<g id="edge4" class="edge">
<title>Node5&#45;&gt;Node4</title>
<path fill="none" stroke="#191970" d="M1081.9305,-542.705C1151.7719,-537.5256 1288.6291,-527.3763 1379.4594,-520.6403"/>
<polygon fill="#191970" stroke="#191970" points="1081.4335,-539.2322 1071.7198,-543.4623 1081.9513,-546.213 1081.4335,-539.2322"/>
</g>
<!-- Node6 -->
<g id="node6" class="node">
<title>Node6</title>
<g id="a_node6"><a xlink:href="classgko_1_1EnableAbstractPolymorphicObject.html" target="_top" xlink:title=" ">
<polygon fill="#ffffff" stroke="#ff0000" points="542,-535 542,-565 717,-565 717,-535 542,-535"/>
<text text-anchor="start" x="550" y="-553" font-family="Helvetica,sans-Serif" font-size="10.00" fill="#000000">gko::EnableAbstractPolymorphic</text>
<text text-anchor="middle" x="629.5" y="-542" font-family="Helvetica,sans-Serif" font-size="10.00" fill="#000000">Object&lt; LinOp &gt;</text>
</a>
</g>
</g>
<!-- Node6&#45;&gt;Node5 -->
<g id="edge5" class="edge">
<title>Node6&#45;&gt;Node5</title>
<path fill="none" stroke="#191970" d="M727.1636,-549.0425C816.3446,-548.1682 943.1591,-546.9249 1003.3094,-546.3352"/>
<polygon fill="#191970" stroke="#191970" points="726.9914,-545.5439 717.0262,-549.1419 727.0601,-552.5436 726.9914,-545.5439"/>
</g>
<!-- Node12 -->
<g id="node7" class="node">
<title>Node12</title>
<g id="a_node7"><a xlink:href="classgko_1_1EnableAbstractPolymorphicObject.html" target="_top" xlink:title="This mixin inherits from (a subclass of) PolymorphicObject and provides a base implementation of a ne...">
<polygon fill="#ffffff" stroke="#000000" points="138,-448.5 138,-489.5 336,-489.5 336,-448.5 138,-448.5"/>
<text text-anchor="start" x="146" y="-477.5" font-family="Helvetica,sans-Serif" font-size="10.00" fill="#000000">gko::EnableAbstractPolymorphic</text>
<text text-anchor="start" x="146" y="-466.5" font-family="Helvetica,sans-Serif" font-size="10.00" fill="#000000">Object&lt; AbstractObject, Polymorphic</text>
<text text-anchor="middle" x="237" y="-455.5" font-family="Helvetica,sans-Serif" font-size="10.00" fill="#000000">Base &gt;</text>
</a>
</g>
</g>
<!-- Node12&#45;&gt;Node4 -->
<g id="edge8" class="edge">
<title>Node12&#45;&gt;Node4</title>
<path fill="none" stroke="#ffa500" stroke-dasharray="5,2" d="M346.2578,-487.2281C348.8613,-487.5057 351.445,-487.7639 354,-488 733.8307,-523.1012 1189.3571,-519.5761 1379.1512,-516.0868"/>
<polygon fill="#ffa500" stroke="#ffa500" points="346.4701,-483.7296 336.1364,-486.0673 345.6724,-490.684 346.4701,-483.7296"/>
<text text-anchor="start" x="765.5" y="-530" font-family="Helvetica,sans-Serif" font-size="10.00" fill="#000000"> &lt; SparsityCsr&lt; ValueType,</text>
<text text-anchor="middle" x="832.5" y="-519" font-family="Helvetica,sans-Serif" font-size="10.00" fill="#000000"> IndexType &gt;, LinOp &gt;</text>
</g>
<!-- Node12&#45;&gt;Node6 -->
<g id="edge6" class="edge">
<title>Node12&#45;&gt;Node6</title>
<path fill="none" stroke="#ffa500" stroke-dasharray="5,2" d="M285.1891,-493.9291C305.8616,-503.5801 330.6008,-513.7812 354,-520 415.4942,-536.3433 486.977,-543.807 541.7169,-547.2038"/>
<polygon fill="#ffa500" stroke="#ffa500" points="286.5297,-490.6909 275.9965,-489.5498 283.5191,-497.0104 286.5297,-490.6909"/>
<text text-anchor="middle" x="432.5" y="-547" font-family="Helvetica,sans-Serif" font-size="10.00" fill="#000000"> &lt; LinOp &gt;</text>
</g>
<!-- Node14 -->
<g id="node10" class="node">
<title>Node14</title>
<g id="a_node10"><a xlink:href="classgko_1_1EnableAbstractPolymorphicObject.html" target="_top" xlink:title=" ">
<polygon fill="#ffffff" stroke="#000000" points="529,-427.5 529,-468.5 730,-468.5 730,-427.5 529,-427.5"/>
<text text-anchor="start" x="537" y="-456.5" font-family="Helvetica,sans-Serif" font-size="10.00" fill="#000000">gko::EnableAbstractPolymorphic</text>
<text text-anchor="start" x="537" y="-445.5" font-family="Helvetica,sans-Serif" font-size="10.00" fill="#000000">Object&lt; ConcreteObject, Polymorphic</text>
<text text-anchor="middle" x="629.5" y="-434.5" font-family="Helvetica,sans-Serif" font-size="10.00" fill="#000000">Base &gt;</text>
</a>
</g>
</g>
<!-- Node12&#45;&gt;Node14 -->
<g id="edge12" class="edge">
<title>Node12&#45;&gt;Node14</title>
<path fill="none" stroke="#ffa500" stroke-dasharray="5,2" d="M346.2032,-463.1573C403.3756,-460.0984 472.9091,-456.3781 528.78,-453.3888"/>
<polygon fill="#ffa500" stroke="#ffa500" points="345.843,-459.6715 336.0443,-463.7008 346.2171,-466.6615 345.843,-459.6715"/>
<text text-anchor="start" x="354" y="-476" font-family="Helvetica,sans-Serif" font-size="10.00" fill="#000000"> &lt; ConcreteObject, Polymorphic</text>
<text text-anchor="middle" x="432.5" y="-465" font-family="Helvetica,sans-Serif" font-size="10.00" fill="#000000">Base &gt;</text>
</g>
<!-- Node21 -->
<g id="node17" class="node">
<title>Node21</title>
<g id="a_node17"><a xlink:href="classgko_1_1EnableAbstractPolymorphicObject.html" target="_top" xlink:title=" ">
<polygon fill="#ffffff" stroke="#000000" points="531,-362.5 531,-403.5 728,-403.5 728,-362.5 531,-362.5"/>
<text text-anchor="start" x="539" y="-391.5" font-family="Helvetica,sans-Serif" font-size="10.00" fill="#000000">gko::EnableAbstractPolymorphic</text>
<text text-anchor="start" x="539" y="-380.5" font-family="Helvetica,sans-Serif" font-size="10.00" fill="#000000">Object&lt; ConcreteLinOp, Polymorphic</text>
<text text-anchor="middle" x="629.5" y="-369.5" font-family="Helvetica,sans-Serif" font-size="10.00" fill="#000000">Base &gt;</text>
</a>
</g>
</g>
<!-- Node12&#45;&gt;Node21 -->
<g id="edge22" class="edge">
<title>Node12&#45;&gt;Node21</title>
<path fill="none" stroke="#ffa500" stroke-dasharray="5,2" d="M298.9789,-445.0119C316.5708,-438.8262 335.8738,-432.6184 354,-428 411.8822,-413.2521 477.8883,-402.2743 530.7792,-394.8548"/>
<polygon fill="#ffa500" stroke="#ffa500" points="297.6384,-441.7741 289.4001,-448.436 299.9947,-448.3657 297.6384,-441.7741"/>
<text text-anchor="start" x="356" y="-442" font-family="Helvetica,sans-Serif" font-size="10.00" fill="#000000"> &lt; ConcreteLinOp, Polymorphic</text>
<text text-anchor="middle" x="432.5" y="-431" font-family="Helvetica,sans-Serif" font-size="10.00" fill="#000000">Base &gt;</text>
</g>
<!-- Node11 -->
<g id="node8" class="node">
<title>Node11</title>
<g id="a_node8"><a xlink:title=" ">
<polygon fill="#ffffff" stroke="#bfbfbf" points="0,-381.5 0,-400.5 101,-400.5 101,-381.5 0,-381.5"/>
<text text-anchor="middle" x="50.5" y="-388.5" font-family="Helvetica,sans-Serif" font-size="10.00" fill="#000000">PolymorphicBase</text>
</a>
</g>
</g>
<!-- Node11&#45;&gt;Node12 -->
<g id="edge7" class="edge">
<title>Node11&#45;&gt;Node12</title>
<path fill="none" stroke="#191970" d="M82.5985,-404.4246C111.5007,-416.5123 154.4214,-434.4631 187.6791,-448.3725"/>
<polygon fill="#191970" stroke="#191970" points="83.9447,-401.1939 73.3686,-400.5643 81.2437,-407.6518 83.9447,-401.1939"/>
</g>
<!-- Node11&#45;&gt;Node14 -->
<g id="edge11" class="edge">
<title>Node11&#45;&gt;Node14</title>
<path fill="none" stroke="#191970" d="M111.2279,-385.4886C200.225,-379.056 370.7292,-372.9976 511,-405 519.5352,-406.9473 520.8592,-409.7798 529,-413 541.4558,-417.927 554.9171,-422.8705 567.8153,-427.4259"/>
<polygon fill="#191970" stroke="#191970" points="110.7572,-382.014 101.047,-386.2521 111.2807,-388.9944 110.7572,-382.014"/>
</g>
<!-- Node11&#45;&gt;Node21 -->
<g id="edge21" class="edge">
<title>Node11&#45;&gt;Node21</title>
<path fill="none" stroke="#191970" d="M100.0089,-379.656C106.37,-378.5602 112.8183,-377.6252 119,-377 292.3378,-359.4679 336.8335,-372.5935 511,-377 517.4867,-377.1641 524.1712,-377.3787 530.9066,-377.6288"/>
<polygon fill="#191970" stroke="#191970" points="99.3286,-376.2224 90.1355,-381.4889 100.6063,-383.1048 99.3286,-376.2224"/>
</g>
<!-- Node13 -->
<g id="node9" class="node">
<title>Node13</title>
<g id="a_node9"><a xlink:href="classgko_1_1EnablePolymorphicObject.html" target="_top" xlink:title="This mixin inherits from (a subclass of) PolymorphicObject and provides a base implementation of a ne...">
<polygon fill="#ffffff" stroke="#000000" points="935,-433 935,-463 1140,-463 1140,-433 935,-433"/>
<text text-anchor="start" x="943" y="-451" font-family="Helvetica,sans-Serif" font-size="10.00" fill="#000000">gko::EnablePolymorphicObject</text>
<text text-anchor="middle" x="1037.5" y="-440" font-family="Helvetica,sans-Serif" font-size="10.00" fill="#000000">&lt; ConcreteObject, PolymorphicBase &gt;</text>
</a>
</g>
</g>
<!-- Node13&#45;&gt;Node3 -->
<g id="edge9" class="edge">
<title>Node13&#45;&gt;Node3</title>
<path fill="none" stroke="#ffa500" stroke-dasharray="5,2" d="M1150.1679,-448.7011C1313.6584,-449.7185 1612.9192,-451.5807 1757.8991,-452.4829"/>
<polygon fill="#ffa500" stroke="#ffa500" points="1150.1016,-445.2007 1140.08,-448.6383 1150.058,-452.2006 1150.1016,-445.2007"/>
<text text-anchor="start" x="1402" y="-465" font-family="Helvetica,sans-Serif" font-size="10.00" fill="#000000"> &lt; SparsityCsr&lt; ValueType,</text>
<text text-anchor="middle" x="1469" y="-454" font-family="Helvetica,sans-Serif" font-size="10.00" fill="#000000"> IndexType &gt;, LinOp &gt;</text>
</g>
<!-- Node20 -->
<g id="node16" class="node">
<title>Node20</title>
<g id="a_node16"><a xlink:href="classgko_1_1EnablePolymorphicObject.html" target="_top" xlink:title=" ">
<polygon fill="#ffffff" stroke="#000000" points="1368.5,-368 1368.5,-398 1569.5,-398 1569.5,-368 1368.5,-368"/>
<text text-anchor="start" x="1376.5" y="-386" font-family="Helvetica,sans-Serif" font-size="10.00" fill="#000000">gko::EnablePolymorphicObject</text>
<text text-anchor="middle" x="1469" y="-375" font-family="Helvetica,sans-Serif" font-size="10.00" fill="#000000">&lt; ConcreteLinOp, PolymorphicBase &gt;</text>
</a>
</g>
</g>
<!-- Node13&#45;&gt;Node20 -->
<g id="edge23" class="edge">
<title>Node13&#45;&gt;Node20</title>
<path fill="none" stroke="#ffa500" stroke-dasharray="5,2" d="M1099.2322,-430.3121C1117.983,-425.4296 1138.7255,-420.5143 1158,-417 1197.1403,-409.8636 1293.3321,-399.7605 1368.4601,-392.4232"/>
<polygon fill="#ffa500" stroke="#ffa500" points="1098.106,-426.9896 1089.3353,-432.9331 1099.8981,-433.7564 1098.106,-426.9896"/>
<text text-anchor="start" x="1172.5" y="-431" font-family="Helvetica,sans-Serif" font-size="10.00" fill="#000000"> &lt; ConcreteLinOp, Polymorphic</text>
<text text-anchor="middle" x="1249" y="-420" font-family="Helvetica,sans-Serif" font-size="10.00" fill="#000000">Base &gt;</text>
</g>
<!-- Node14&#45;&gt;Node13 -->
<g id="edge10" class="edge">
<title>Node14&#45;&gt;Node13</title>
<path fill="none" stroke="#191970" d="M740.4636,-448C801.0615,-448 875.5974,-448 934.8448,-448"/>
<polygon fill="#191970" stroke="#191970" points="740.0922,-444.5001 730.0922,-448 740.0921,-451.5001 740.0922,-444.5001"/>
</g>
<!-- Node15 -->
<g id="node11" class="node">
<title>Node15</title>
<g id="a_node11"><a xlink:href="classgko_1_1EnablePolymorphicAssignment.html" target="_top" xlink:title=" ">
<polygon fill="#ffffff" stroke="#000000" points="1358,-309 1358,-339 1580,-339 1580,-309 1358,-309"/>
<text text-anchor="start" x="1366" y="-327" font-family="Helvetica,sans-Serif" font-size="10.00" fill="#000000">gko::EnablePolymorphicAssignment</text>
<text text-anchor="middle" x="1469" y="-316" font-family="Helvetica,sans-Serif" font-size="10.00" fill="#000000">&lt; SparsityCsr&lt; ValueType, IndexType &gt; &gt;</text>
</a>
</g>
</g>
<!-- Node15&#45;&gt;Node2 -->
<g id="edge13" class="edge">
<title>Node15&#45;&gt;Node2</title>
<path fill="none" stroke="#191970" d="M1590.2401,-322.4458C1712.7939,-320.5825 1907.6082,-316.8208 2076,-310 2081.8449,-309.7633 2087.8738,-309.4899 2093.9458,-309.1931"/>
<polygon fill="#191970" stroke="#191970" points="1590.0241,-318.9485 1580.0778,-322.5985 1590.1293,-325.9478 1590.0241,-318.9485"/>
</g>
<!-- Node16 -->
<g id="node12" class="node">
<title>Node16</title>
<g id="a_node12"><a xlink:href="classgko_1_1ConvertibleTo.html" target="_top" xlink:title=" ">
<polygon fill="#ffffff" stroke="#000000" points="964,-313.5 964,-354.5 1111,-354.5 1111,-313.5 964,-313.5"/>
<text text-anchor="start" x="972" y="-342.5" font-family="Helvetica,sans-Serif" font-size="10.00" fill="#000000">gko::ConvertibleTo</text>
<text text-anchor="start" x="972" y="-331.5" font-family="Helvetica,sans-Serif" font-size="10.00" fill="#000000">&lt; SparsityCsr&lt; ValueType,</text>
<text text-anchor="middle" x="1037.5" y="-320.5" font-family="Helvetica,sans-Serif" font-size="10.00" fill="#000000"> IndexType &gt; &gt;</text>
</a>
</g>
</g>
<!-- Node16&#45;&gt;Node15 -->
<g id="edge14" class="edge">
<title>Node16&#45;&gt;Node15</title>
<path fill="none" stroke="#191970" d="M1121.3468,-332.0569C1188.7927,-330.4938 1284.146,-328.284 1357.9355,-326.5739"/>
<polygon fill="#191970" stroke="#191970" points="1121.1034,-328.5615 1111.1872,-332.2923 1121.2656,-335.5596 1121.1034,-328.5615"/>
</g>
<!-- Node17 -->
<g id="node13" class="node">
<title>Node17</title>
<g id="a_node13"><a xlink:href="classgko_1_1ConvertibleTo.html" target="_top" xlink:title="ConvertibleTo interface is used to mark that the implementer can be converted to the object of Result...">
<polygon fill="#ffffff" stroke="#000000" points="576,-215 576,-245 683,-245 683,-215 576,-215"/>
<text text-anchor="start" x="584" y="-233" font-family="Helvetica,sans-Serif" font-size="10.00" fill="#000000">gko::ConvertibleTo</text>
<text text-anchor="middle" x="629.5" y="-222" font-family="Helvetica,sans-Serif" font-size="10.00" fill="#000000">&lt; ResultType &gt;</text>
</a>
</g>
</g>
<!-- Node17&#45;&gt;Node16 -->
<g id="edge15" class="edge">
<title>Node17&#45;&gt;Node16</title>
<path fill="none" stroke="#ffa500" stroke-dasharray="5,2" d="M683.0683,-248.2577C703.3003,-254.8678 726.6004,-262.1412 748,-268 820.8402,-287.9422 905.1203,-306.6741 963.8926,-319.0502"/>
<polygon fill="#ffa500" stroke="#ffa500" points="683.9974,-244.8788 673.4044,-245.075 681.8077,-251.5275 683.9974,-244.8788"/>
<text text-anchor="start" x="765.5" y="-321" font-family="Helvetica,sans-Serif" font-size="10.00" fill="#000000"> &lt; SparsityCsr&lt; ValueType,</text>
<text text-anchor="middle" x="832.5" y="-310" font-family="Helvetica,sans-Serif" font-size="10.00" fill="#000000"> IndexType &gt; &gt;</text>
</g>
<!-- Node18 -->
<g id="node14" class="node">
<title>Node18</title>
<g id="a_node14"><a xlink:href="classgko_1_1EnablePolymorphicAssignment.html" target="_top" xlink:title="This mixin is used to enable a default PolymorphicObject::copy_from() implementation for objects that...">
<polygon fill="#ffffff" stroke="#000000" points="941.5,-264 941.5,-294 1133.5,-294 1133.5,-264 941.5,-264"/>
<text text-anchor="start" x="949.5" y="-282" font-family="Helvetica,sans-Serif" font-size="10.00" fill="#000000">gko::EnablePolymorphicAssignment</text>
<text text-anchor="middle" x="1037.5" y="-271" font-family="Helvetica,sans-Serif" font-size="10.00" fill="#000000">&lt; ConcreteType, ResultType &gt;</text>
</a>
</g>
</g>
<!-- Node17&#45;&gt;Node18 -->
<g id="edge17" class="edge">
<title>Node17&#45;&gt;Node18</title>
<path fill="none" stroke="#191970" d="M693.3835,-238.1936C711.0702,-240.4329 730.2765,-242.8375 748,-245 812.4242,-252.8604 884.9564,-261.3783 941.3037,-267.9221"/>
<polygon fill="#191970" stroke="#191970" points="693.5292,-234.6841 683.1681,-236.8973 692.6479,-241.6284 693.5292,-234.6841"/>
</g>
<!-- Node23 -->
<g id="node19" class="node">
<title>Node23</title>
<g id="a_node19"><a xlink:href="classgko_1_1ConvertibleTo.html" target="_top" xlink:title=" ">
<polygon fill="#ffffff" stroke="#000000" points="982.5,-215 982.5,-245 1092.5,-245 1092.5,-215 982.5,-215"/>
<text text-anchor="start" x="990.5" y="-233" font-family="Helvetica,sans-Serif" font-size="10.00" fill="#000000">gko::ConvertibleTo</text>
<text text-anchor="middle" x="1037.5" y="-222" font-family="Helvetica,sans-Serif" font-size="10.00" fill="#000000">&lt; ConcreteLinOp &gt;</text>
</a>
</g>
</g>
<!-- Node17&#45;&gt;Node23 -->
<g id="edge26" class="edge">
<title>Node17&#45;&gt;Node23</title>
<path fill="none" stroke="#ffa500" stroke-dasharray="5,2" d="M693.6232,-230C773.1029,-230 907.2177,-230 982.3171,-230"/>
<polygon fill="#ffa500" stroke="#ffa500" points="693.2585,-226.5001 683.2584,-230 693.2584,-233.5001 693.2585,-226.5001"/>
<text text-anchor="middle" x="832.5" y="-233" font-family="Helvetica,sans-Serif" font-size="10.00" fill="#000000"> &lt; ConcreteLinOp &gt;</text>
</g>
<!-- Node24 -->
<g id="node20" class="node">
<title>Node24</title>
<g id="a_node20"><a xlink:href="classgko_1_1ConvertibleTo.html" target="_top" xlink:title=" ">
<polygon fill="#ffffff" stroke="#000000" points="1158,-128 1158,-158 1340,-158 1340,-128 1158,-128"/>
<text text-anchor="start" x="1166" y="-146" font-family="Helvetica,sans-Serif" font-size="10.00" fill="#000000">gko::ConvertibleTo</text>
<text text-anchor="middle" x="1249" y="-135" font-family="Helvetica,sans-Serif" font-size="10.00" fill="#000000">&lt; Csr&lt; ValueType, IndexType &gt; &gt;</text>
</a>
</g>
</g>
<!-- Node17&#45;&gt;Node24 -->
<g id="edge29" class="edge">
<title>Node17&#45;&gt;Node24</title>
<path fill="none" stroke="#ffa500" stroke-dasharray="5,2" d="M656.4013,-208.7491C679.3,-192.0357 713.8283,-169.9648 748,-160 886.483,-119.6169 1055.6634,-124.4002 1157.7376,-132.7919"/>
<polygon fill="#ffa500" stroke="#ffa500" points="654.1398,-206.0695 648.2195,-214.8559 658.3269,-211.6792 654.1398,-206.0695"/>
<text text-anchor="middle" x="832.5" y="-163" font-family="Helvetica,sans-Serif" font-size="10.00" fill="#000000"> &lt; Csr&lt; ValueType, IndexType &gt; &gt;</text>
</g>
<!-- Node25 -->
<g id="node21" class="node">
<title>Node25</title>
<g id="a_node21"><a xlink:href="classgko_1_1ConvertibleTo.html" target="_top" xlink:title=" ">
<polygon fill="#ffffff" stroke="#000000" points="1598,-170 1598,-200 1740,-200 1740,-170 1598,-170"/>
<text text-anchor="start" x="1606" y="-188" font-family="Helvetica,sans-Serif" font-size="10.00" fill="#000000">gko::ConvertibleTo</text>
<text text-anchor="middle" x="1669" y="-177" font-family="Helvetica,sans-Serif" font-size="10.00" fill="#000000">&lt; Dense&lt; ValueType &gt; &gt;</text>
</a>
</g>
</g>
<!-- Node17&#45;&gt;Node25 -->
<g id="edge31" class="edge">
<title>Node17&#45;&gt;Node25</title>
<path fill="none" stroke="#ffa500" stroke-dasharray="5,2" d="M693.1315,-220.8226C754.8135,-212.3736 851.0988,-200.364 935,-195 1177.76,-179.4796 1466.5644,-181.5441 1597.7944,-183.599"/>
<polygon fill="#ffa500" stroke="#ffa500" points="692.5874,-217.3644 683.1598,-222.1987 693.5444,-224.2987 692.5874,-217.3644"/>
<text text-anchor="middle" x="1037.5" y="-198" font-family="Helvetica,sans-Serif" font-size="10.00" fill="#000000"> &lt; Dense&lt; ValueType &gt; &gt;</text>
</g>
<!-- Node18&#45;&gt;Node15 -->
<g id="edge16" class="edge">
<title>Node18&#45;&gt;Node15</title>
<path fill="none" stroke="#ffa500" stroke-dasharray="5,2" d="M1144.0895,-284.0431C1202.1542,-287.4711 1275.185,-292.8873 1340,-301 1356.9297,-303.119 1375.0118,-305.9706 1392.118,-308.9435"/>
<polygon fill="#ffa500" stroke="#ffa500" points="1143.9832,-280.5312 1133.7975,-283.447 1143.5783,-287.5194 1143.9832,-280.5312"/>
<text text-anchor="start" x="1182" y="-315" font-family="Helvetica,sans-Serif" font-size="10.00" fill="#000000"> &lt; SparsityCsr&lt; ValueType,</text>
<text text-anchor="middle" x="1249" y="-304" font-family="Helvetica,sans-Serif" font-size="10.00" fill="#000000"> IndexType &gt; &gt;</text>
</g>
<!-- Node22 -->
<g id="node18" class="node">
<title>Node22</title>
<g id="a_node18"><a xlink:href="classgko_1_1EnablePolymorphicAssignment.html" target="_top" xlink:title=" ">
<polygon fill="#ffffff" stroke="#000000" points="1373,-248 1373,-278 1565,-278 1565,-248 1373,-248"/>
<text text-anchor="start" x="1381" y="-266" font-family="Helvetica,sans-Serif" font-size="10.00" fill="#000000">gko::EnablePolymorphicAssignment</text>
<text text-anchor="middle" x="1469" y="-255" font-family="Helvetica,sans-Serif" font-size="10.00" fill="#000000">&lt; ConcreteLinOp &gt;</text>
</a>
</g>
</g>
<!-- Node18&#45;&gt;Node22 -->
<g id="edge27" class="edge">
<title>Node18&#45;&gt;Node22</title>
<path fill="none" stroke="#ffa500" stroke-dasharray="5,2" d="M1144.0897,-265.0338C1148.7859,-264.6388 1153.4388,-264.2902 1158,-264 1229.9357,-259.4238 1311.4199,-259.3485 1372.9312,-260.3242"/>
<polygon fill="#ffa500" stroke="#ffa500" points="1143.4021,-261.5816 1133.758,-265.9682 1144.0326,-268.5532 1143.4021,-261.5816"/>
<text text-anchor="middle" x="1249" y="-267" font-family="Helvetica,sans-Serif" font-size="10.00" fill="#000000"> &lt; ConcreteLinOp &gt;</text>
</g>
<!-- Node19 -->
<g id="node15" class="node">
<title>Node19</title>
<g id="a_node15"><a xlink:href="classgko_1_1EnableLinOp.html" target="_top" xlink:title="The EnableLinOp mixin can be used to provide sensible default implementations of the majority of the ...">
<polygon fill="#ffffff" stroke="#000000" points="1763,-265 1763,-295 1919,-295 1919,-265 1763,-265"/>
<text text-anchor="start" x="1771" y="-283" font-family="Helvetica,sans-Serif" font-size="10.00" fill="#000000">gko::EnableLinOp&lt; Concrete</text>
<text text-anchor="middle" x="1841" y="-272" font-family="Helvetica,sans-Serif" font-size="10.00" fill="#000000">LinOp, PolymorphicBase &gt;</text>
</a>
</g>
</g>
<!-- Node19&#45;&gt;Node2 -->
<g id="edge18" class="edge">
<title>Node19&#45;&gt;Node2</title>
<path fill="none" stroke="#ffa500" stroke-dasharray="5,2" d="M1929.3379,-280.5164C1973.4717,-281.4071 2027.642,-283.4554 2076,-288 2081.7928,-288.5444 2087.7545,-289.2027 2093.7525,-289.9379"/>
<polygon fill="#ffa500" stroke="#ffa500" points="1929.2779,-277.0148 1919.2147,-280.3287 1929.148,-284.0136 1929.2779,-277.0148"/>
<text text-anchor="start" x="1942" y="-302" font-family="Helvetica,sans-Serif" font-size="10.00" fill="#000000"> &lt; SparsityCsr&lt; ValueType,</text>
<text text-anchor="middle" x="2009" y="-291" font-family="Helvetica,sans-Serif" font-size="10.00" fill="#000000"> IndexType &gt; &gt;</text>
</g>
<!-- Node20&#45;&gt;Node19 -->
<g id="edge19" class="edge">
<title>Node20&#45;&gt;Node19</title>
<path fill="none" stroke="#191970" d="M1533.2991,-365.1968C1604.8963,-345.3728 1719.3758,-313.6755 1786.6665,-295.0439"/>
<polygon fill="#191970" stroke="#191970" points="1532.1938,-361.871 1523.4904,-367.9126 1534.0618,-368.6172 1532.1938,-361.871"/>
</g>
<!-- Node21&#45;&gt;Node20 -->
<g id="edge20" class="edge">
<title>Node21&#45;&gt;Node20</title>
<path fill="none" stroke="#191970" d="M738.364,-383C902.1172,-383 1209.5152,-383 1368.3237,-383"/>
<polygon fill="#191970" stroke="#191970" points="738.27,-379.5001 728.2699,-383 738.2699,-386.5001 738.27,-379.5001"/>
</g>
<!-- Node22&#45;&gt;Node19 -->
<g id="edge24" class="edge">
<title>Node22&#45;&gt;Node19</title>
<path fill="none" stroke="#191970" d="M1575.5145,-267.8676C1635.2838,-270.599 1708.5405,-273.9467 1762.9498,-276.4332"/>
<polygon fill="#191970" stroke="#191970" points="1575.4324,-264.3603 1565.283,-267.4 1575.1128,-271.353 1575.4324,-264.3603"/>
</g>
<!-- Node23&#45;&gt;Node22 -->
<g id="edge25" class="edge">
<title>Node23&#45;&gt;Node22</title>
<path fill="none" stroke="#191970" d="M1102.8478,-234.9976C1174.6226,-240.4868 1290.5921,-249.3558 1372.7666,-255.6403"/>
<polygon fill="#191970" stroke="#191970" points="1102.8259,-231.4858 1092.5881,-234.213 1102.292,-238.4654 1102.8259,-231.4858"/>
</g>
<!-- Node24&#45;&gt;Node1 -->
<g id="edge28" class="edge">
<title>Node24&#45;&gt;Node1</title>
<path fill="none" stroke="#191970" d="M1350.5233,-144.508C1435.5854,-145.6416 1560.2139,-147 1669,-147 1669,-147 1669,-147 2179.5,-147 2220.1093,-147 2265.1874,-142.2062 2301.7136,-137.0941"/>
<polygon fill="#191970" stroke="#191970" points="1350.3959,-141.0061 1340.3497,-144.371 1350.3016,-148.0054 1350.3959,-141.0061"/>
</g>
<!-- Node25&#45;&gt;Node1 -->
<g id="edge30" class="edge">
<title>Node25&#45;&gt;Node1</title>
<path fill="none" stroke="#191970" d="M1750.1598,-190.5235C1868.8632,-196.6553 2096.1319,-200.9947 2284,-161 2304.7393,-156.5849 2326.8658,-147.7949 2343.9898,-140.0062"/>
<polygon fill="#191970" stroke="#191970" points="1750.2336,-187.0226 1740.0611,-189.9839 1749.86,-194.0126 1750.2336,-187.0226"/>
</g>
<!-- Node26 -->
<g id="node22" class="node">
<title>Node26</title>
<g id="a_node22"><a xlink:href="classgko_1_1ReadableFromMatrixData.html" target="_top" xlink:title="A LinOp implementing this interface can read its data from a matrix_data structure.">
<polygon fill="#ffffff" stroke="#000000" points="2097.5,-88 2097.5,-118 2261.5,-118 2261.5,-88 2097.5,-88"/>
<text text-anchor="start" x="2105.5" y="-106" font-family="Helvetica,sans-Serif" font-size="10.00" fill="#000000">gko::ReadableFromMatrixData</text>
<text text-anchor="middle" x="2179.5" y="-95" font-family="Helvetica,sans-Serif" font-size="10.00" fill="#000000">&lt; ValueType, IndexType &gt;</text>
</a>
</g>
</g>
<!-- Node26&#45;&gt;Node1 -->
<g id="edge32" class="edge">
<title>Node26&#45;&gt;Node1</title>
<path fill="none" stroke="#191970" d="M2271.7911,-113.4391C2281.919,-114.5847 2292.1187,-115.7384 2301.9494,-116.8503"/>
<polygon fill="#191970" stroke="#191970" points="2272.0336,-109.9443 2261.7036,-112.2981 2271.2468,-116.8999 2272.0336,-109.9443"/>
</g>
<!-- Node27 -->
<g id="node23" class="node">
<title>Node27</title>
<g id="a_node23"><a xlink:href="classgko_1_1WritableToMatrixData.html" target="_top" xlink:title="A LinOp implementing this interface can write its data to a matrix_data structure.">
<polygon fill="#ffffff" stroke="#000000" points="2106.5,-39 2106.5,-69 2252.5,-69 2252.5,-39 2106.5,-39"/>
<text text-anchor="start" x="2114.5" y="-57" font-family="Helvetica,sans-Serif" font-size="10.00" fill="#000000">gko::WritableToMatrixData</text>
<text text-anchor="middle" x="2179.5" y="-46" font-family="Helvetica,sans-Serif" font-size="10.00" fill="#000000">&lt; ValueType, IndexType &gt;</text>
</a>
</g>
</g>
<!-- Node27&#45;&gt;Node1 -->
<g id="edge33" class="edge">
<title>Node27&#45;&gt;Node1</title>
<path fill="none" stroke="#191970" d="M2244.1514,-72.0443C2251.2244,-74.2732 2258.2886,-76.6115 2265,-79 2290.9301,-88.2281 2319.5792,-100.3989 2340.9964,-109.9034"/>
<polygon fill="#191970" stroke="#191970" points="2245.1209,-68.6807 2234.5335,-69.0783 2243.058,-75.3699 2245.1209,-68.6807"/>
</g>
<!-- Node28 -->
<g id="node24" class="node">
<title>Node28</title>
<g id="a_node24"><a xlink:href="classgko_1_1Transposable.html" target="_top" xlink:title="Linear operators which support transposition should implement the Transposable interface.">
<polygon fill="#ffffff" stroke="#000000" points="2127.5,-.5 2127.5,-19.5 2231.5,-19.5 2231.5,-.5 2127.5,-.5"/>
<text text-anchor="middle" x="2179.5" y="-7.5" font-family="Helvetica,sans-Serif" font-size="10.00" fill="#000000">gko::Transposable</text>
</a>
</g>
</g>
<!-- Node28&#45;&gt;Node1 -->
<g id="edge34" class="edge">
<title>Node28&#45;&gt;Node1</title>
<path fill="none" stroke="#191970" d="M2241.2242,-20.6101C2249.4467,-23.1173 2257.5883,-26.204 2265,-30 2304.9929,-50.4829 2342.3491,-88.7679 2361.203,-109.9457"/>
<polygon fill="#191970" stroke="#191970" points="2242.1456,-17.2336 2231.5734,-17.9253 2240.2695,-23.9775 2242.1456,-17.2336"/>
</g>
</g>
</svg>
