<?xml version="1.0" encoding="UTF-8" standalone="no"?>
<!DOCTYPE svg PUBLIC "-//W3C//DTD SVG 1.1//EN"
 "http://www.w3.org/Graphics/SVG/1.1/DTD/svg11.dtd">
<!-- Generated by graphviz version 2.40.1 (20161225.0304)
 -->
<!-- Title: ExamplesMap Pages: 1 -->
<!--zoomable 473 -->
<svg id="main" version="1.1" xmlns="http://www.w3.org/2000/svg" xmlns:xlink="http://www.w3.org/1999/xlink" xml:space="preserve" onload="init(evt)">
<style type="text/css"><![CDATA[
.edge:hover path { stroke: red; }
.edge:hover polygon { stroke: red; fill: red; }
]]></style>
<script type="text/javascript"><![CDATA[
var edges = document.getElementsByTagName('g');
if (edges && edges.length) {
  for (var i=0;i<edges.length;i++) {
    if (edges[i].id.substr(0,4)=='edge') {
      edges[i].setAttribute('class','edge');
    }
  }
}
]]></script>
        <defs>
                <circle id="rim" cx="0" cy="0" r="7"/>
                <circle id="rim2" cx="0" cy="0" r="3.5"/>
                <g id="zoomPlus">
                        <use xlink:href="#rim" fill="#404040">
                                <set attributeName="fill" to="#808080" begin="zoomplus.mouseover" end="zoomplus.mouseout"/>
                        </use>
                        <path d="M-4,0h8M0,-4v8" fill="none" stroke="white" stroke-width="1.5" pointer-events="none"/>
                </g>
                <g id="zoomMin">
                        <use xlink:href="#rim" fill="#404040">
                                <set attributeName="fill" to="#808080" begin="zoomminus.mouseover" end="zoomminus.mouseout"/>
                        </use>
                        <path d="M-4,0h8" fill="none" stroke="white" stroke-width="1.5" pointer-events="none"/>
                </g>
                <g id="dirArrow">
                        <path fill="none" stroke="white" stroke-width="1.5" d="M0,-3.0v7 M-2.5,-0.5L0,-3.0L2.5,-0.5"/>
                </g>
               <g id="resetDef">
                       <use xlink:href="#rim2" fill="#404040">
                               <set attributeName="fill" to="#808080" begin="reset.mouseover" end="reset.mouseout"/>
                       </use>
               </g>
        </defs>

<script type="text/javascript">
var viewWidth = 2436;
var viewHeight = 473;
</script>
<script xlink:href="svgpan.js"/>
<svg id="graph" class="graph">
<g id="viewport">
<title>ExamplesMap</title>
<polygon fill="#ffffff" stroke="transparent" points="-4,4 -4,-469 2431.5,-469 2431.5,4 -4,4"/>
<!-- adaptiveprecision_blockjacobi -->
<g id="node1" class="node">
<title>adaptiveprecision_blockjacobi</title>
<g id="a_node1"><a xlink:href="adaptiveprecision_blockjacobi.html" target="_top" xlink:title="Use a preconditioner in Ginkgo. Solve a linear system.">
<polygon fill="#7fffd4" stroke="#000000" points="197.5,-218.5 2.5,-218.5 2.5,-197.5 197.5,-197.5 197.5,-218.5"/>
<text text-anchor="middle" x="100" y="-204.9" font-family="Helvetica,sans-Serif" font-size="12.00" fill="#000000">adaptiveprecision_blockjacobi</text>
</a>
</g>
</g>
<!-- cb_gmres -->
<g id="node2" class="node">
<title>cb_gmres</title>
<g id="a_node2"><a xlink:href="cb_gmres.html" target="_top" xlink:title="Solve a linear system with CB&#45;GMRES, both with and without compression. Benchmark the solve time and validate the result.">
<polygon fill="#ff7f50" stroke="#000000" points="1469.5,-440.5 1394.5,-440.5 1394.5,-415.5 1469.5,-415.5 1469.5,-440.5"/>
<text text-anchor="middle" x="1432" y="-424.9" font-family="Helvetica,sans-Serif" font-size="12.00" fill="#000000">cb_gmres</text>
</a>
</g>
</g>
<!-- custom_logger -->
<g id="node3" class="node">
<title>custom_logger</title>
<g id="a_node3"><a xlink:href="custom_logger.html" target="_top" xlink:title="Creating a custom logger with Ginkgo">
<polygon fill="#ffd700" stroke="#000000" points="674.5,-108.5 569.5,-108.5 569.5,-87.5 674.5,-87.5 674.5,-108.5"/>
<text text-anchor="middle" x="622" y="-94.9" font-family="Helvetica,sans-Serif" font-size="12.00" fill="#000000">custom_logger</text>
</a>
</g>
</g>
<!-- custom_matrix_format -->
<g id="node4" class="node">
<title>custom_matrix_format</title>
<g id="a_node4"><a xlink:href="custom_matrix_format.html" target="_top" xlink:title="Create a custom matrix format. Matrix free iterative solve.">
<polygon fill="#ff7f50" stroke="#000000" points="1138.5,-110.5 985.5,-110.5 985.5,-85.5 1138.5,-85.5 1138.5,-110.5"/>
<text text-anchor="middle" x="1062" y="-94.9" font-family="Helvetica,sans-Serif" font-size="12.00" fill="#000000">custom_matrix_format</text>
</a>
</g>
</g>
<!-- custom_stopping_criterion -->
<g id="node5" class="node">
<title>custom_stopping_criterion</title>
<g id="a_node5"><a xlink:href="custom_stopping_criterion.html" target="_top" xlink:title="Create a custom stopping criterion.">
<polygon fill="#00bfff" stroke="#000000" points="1070,-218.5 896,-218.5 896,-197.5 1070,-197.5 1070,-218.5"/>
<text text-anchor="middle" x="983" y="-204.9" font-family="Helvetica,sans-Serif" font-size="12.00" fill="#000000">custom_stopping_criterion</text>
</a>
</g>
</g>
<!-- distributed_solver -->
<g id="node6" class="node">
<title>distributed_solver</title>
<g id="a_node6"><a xlink:href="distributed_solver.html" target="_top" xlink:title="Solves a distributed linear system.">
<polygon fill="#dda0dd" stroke="#000000" points="1619,-108.5 1497,-108.5 1497,-87.5 1619,-87.5 1619,-108.5"/>
<text text-anchor="middle" x="1558" y="-94.9" font-family="Helvetica,sans-Serif" font-size="12.00" fill="#000000">distributed_solver</text>
</a>
</g>
</g>
<!-- external_lib_interfacing -->
<g id="node7" class="node">
<title>external_lib_interfacing</title>
<g id="a_node7"><a xlink:href="external_lib_interfacing.html" target="_top" xlink:title="Interface with an external library.">
<polygon fill="#ff7f50" stroke="#000000" points="1644,-440.5 1488,-440.5 1488,-415.5 1644,-415.5 1644,-440.5"/>
<text text-anchor="middle" x="1566" y="-424.9" font-family="Helvetica,sans-Serif" font-size="12.00" fill="#000000">external_lib_interfacing</text>
</a>
</g>
</g>
<!-- ginkgo_overhead -->
<g id="node8" class="node">
<title>ginkgo_overhead</title>
<g id="a_node8"><a xlink:href="ginkgo_overhead.html" target="_top" xlink:title="Measure ginkgo overhead.">
<polygon fill="#ff7f50" stroke="#000000" points="1781.5,-440.5 1662.5,-440.5 1662.5,-415.5 1781.5,-415.5 1781.5,-440.5"/>
<text text-anchor="middle" x="1722" y="-424.9" font-family="Helvetica,sans-Serif" font-size="12.00" fill="#000000">ginkgo_overhead</text>
</a>
</g>
</g>
<!-- ginkgo_ranges -->
<g id="node9" class="node">
<title>ginkgo_ranges</title>
<g id="a_node9"><a xlink:href="ginkgo_ranges.html" target="_top" xlink:title="Use the ranges concept in ginkgo.">
<polygon fill="#ff7f50" stroke="#000000" points="1904,-440.5 1800,-440.5 1800,-415.5 1904,-415.5 1904,-440.5"/>
<text text-anchor="middle" x="1852" y="-424.9" font-family="Helvetica,sans-Serif" font-size="12.00" fill="#000000">ginkgo_ranges</text>
</a>
</g>
</g>
<!-- heat_equation -->
<g id="node10" class="node">
<title>heat_equation</title>
<g id="a_node10"><a xlink:href="heat_equation.html" target="_top" xlink:title="Assemble a 2D finite difference matrix. Use it to build an implicit Euler integrator.">
<polygon fill="#ff7f50" stroke="#000000" points="1739,-110.5 1637,-110.5 1637,-85.5 1739,-85.5 1739,-110.5"/>
<text text-anchor="middle" x="1688" y="-94.9" font-family="Helvetica,sans-Serif" font-size="12.00" fill="#000000">heat_equation</text>
</a>
</g>
</g>
<!-- schroedinger_splitting -->
<g id="node30" class="node">
<title>schroedinger_splitting</title>
<g id="a_node30"><a xlink:href="schroedinger_splitting.html" target="_top" xlink:title="Build an FFT and iFFT LinOp. Use them to implement a splitting method to solve the Schroedinger equation.">
<polygon fill="#ff7f50" stroke="#000000" points="1762,-25 1614,-25 1614,0 1762,0 1762,-25"/>
<text text-anchor="middle" x="1688" y="-9.4" font-family="Helvetica,sans-Serif" font-size="12.00" fill="#000000">schroedinger_splitting</text>
</a>
</g>
</g>
<!-- heat_equation&#45;&gt;schroedinger_splitting -->
<g id="edge39" class="edge">
<title>heat_equation&#45;&gt;schroedinger_splitting</title>
<path fill="none" stroke="#000000" d="M1688,-85.3842C1688,-72.25 1688,-51.3945 1688,-35.3514"/>
<polygon fill="#000000" stroke="#000000" points="1691.5001,-35.1675 1688,-25.1676 1684.5001,-35.1676 1691.5001,-35.1675"/>
</g>
<!-- ilu_preconditioned_solver -->
<g id="node11" class="node">
<title>ilu_preconditioned_solver</title>
<g id="a_node11"><a xlink:href="ilu_preconditioned_solver.html" target="_top" xlink:title="Generate an incomplete factorization. ">
<polygon fill="#dc143c" stroke="#000000" points="1772,-328.5 1604,-328.5 1604,-307.5 1772,-307.5 1772,-328.5"/>
<text text-anchor="middle" x="1688" y="-314.9" font-family="Helvetica,sans-Serif" font-size="12.00" fill="#000000">ilu_preconditioned_solver</text>
</a>
</g>
</g>
<!-- ir_ilu_preconditioned_solver -->
<g id="node13" class="node">
<title>ir_ilu_preconditioned_solver</title>
<g id="a_node13"><a xlink:href="ir_ilu_preconditioned_solver.html" target="_top" xlink:title="Generate an incomplete factorization.">
<polygon fill="#dc143c" stroke="#000000" points="1792,-218.5 1610,-218.5 1610,-197.5 1792,-197.5 1792,-218.5"/>
<text text-anchor="middle" x="1701" y="-204.9" font-family="Helvetica,sans-Serif" font-size="12.00" fill="#000000">ir_ilu_preconditioned_solver</text>
</a>
</g>
</g>
<!-- ilu_preconditioned_solver&#45;&gt;ir_ilu_preconditioned_solver -->
<g id="edge16" class="edge">
<title>ilu_preconditioned_solver&#45;&gt;ir_ilu_preconditioned_solver</title>
<path fill="none" stroke="#000000" d="M1689.2465,-307.4527C1691.3861,-289.3482 1695.7941,-252.0498 1698.562,-228.6289"/>
<polygon fill="#000000" stroke="#000000" points="1702.0403,-229.0187 1699.7382,-218.677 1695.0886,-228.197 1702.0403,-229.0187"/>
</g>
<!-- inverse_iteration -->
<g id="node12" class="node">
<title>inverse_iteration</title>
<g id="a_node12"><a xlink:href="inverse_iteration.html" target="_top" xlink:title="Compute eigenvalues with inverse iteration method.">
<polygon fill="#ff7f50" stroke="#000000" points="2102,-330.5 1986,-330.5 1986,-305.5 2102,-305.5 2102,-330.5"/>
<text text-anchor="middle" x="2044" y="-314.9" font-family="Helvetica,sans-Serif" font-size="12.00" fill="#000000">inverse_iteration</text>
</a>
</g>
</g>
<!-- iterative_refinement -->
<g id="node14" class="node">
<title>iterative_refinement</title>
<g id="a_node14"><a xlink:href="iterative_refinement.html" target="_top" xlink:title="Use an iterative refinement method in Ginkgo. Solve a linear system.">
<polygon fill="#228b22" stroke="#000000" points="1959.8858,-305.9878 1959.8858,-330.0122 1912.504,-347 1845.496,-347 1798.1142,-330.0122 1798.1142,-305.9878 1845.496,-289 1912.504,-289 1959.8858,-305.9878"/>
<polygon fill="none" stroke="#000000" points="1963.8949,-303.1748 1963.8949,-332.8252 1913.2024,-351 1844.7976,-351 1794.1051,-332.8252 1794.1051,-303.1748 1844.7976,-285 1913.2024,-285 1963.8949,-303.1748"/>
<polygon fill="none" stroke="#000000" points="1967.904,-300.3617 1967.904,-335.6383 1913.9009,-355 1844.0991,-355 1790.096,-335.6383 1790.096,-300.3617 1844.0991,-281 1913.9009,-281 1967.904,-300.3617"/>
<text text-anchor="middle" x="1879" y="-314.9" font-family="Helvetica,sans-Serif" font-size="12.00" fill="#000000">iterative_refinement</text>
</a>
</g>
</g>
<!-- iterative_refinement&#45;&gt;ir_ilu_preconditioned_solver -->
<g id="edge17" class="edge">
<title>iterative_refinement&#45;&gt;ir_ilu_preconditioned_solver</title>
<path fill="none" stroke="#000000" d="M1827.9923,-286.4784C1794.9095,-266.034 1753.2046,-240.2612 1726.8111,-223.9507"/>
<polygon fill="#000000" stroke="#000000" points="1728.4999,-220.88 1718.1532,-218.6003 1724.82,-226.8347 1728.4999,-220.88"/>
</g>
<!-- mixed_precision_ir -->
<g id="node19" class="node">
<title>mixed_precision_ir</title>
<g id="a_node19"><a xlink:href="mixed_precision_ir.html" target="_top" xlink:title="Manually implement a Mixed Precision Iterative Refinement (MPIR) method in Ginkgo. Solve a linear system.">
<polygon fill="#7fffd4" stroke="#000000" points="1943,-218.5 1815,-218.5 1815,-197.5 1943,-197.5 1943,-218.5"/>
<text text-anchor="middle" x="1879" y="-204.9" font-family="Helvetica,sans-Serif" font-size="12.00" fill="#000000">mixed_precision_ir</text>
</a>
</g>
</g>
<!-- iterative_refinement&#45;&gt;mixed_precision_ir -->
<g id="edge26" class="edge">
<title>iterative_refinement&#45;&gt;mixed_precision_ir</title>
<path fill="none" stroke="#000000" d="M1879,-280.759C1879,-263.4747 1879,-243.5692 1879,-228.9524"/>
<polygon fill="#000000" stroke="#000000" points="1882.5001,-228.9367 1879,-218.9367 1875.5001,-228.9367 1882.5001,-228.9367"/>
</g>
<!-- kokkos_assembly -->
<g id="node15" class="node">
<title>kokkos_assembly</title>
<g id="a_node15"><a xlink:href="kokkos_assembly.html" target="_top" xlink:title="Assembles a CSR matrix with Kokkos API.">
<polygon fill="#ff7f50" stroke="#000000" points="1275.5,-110.5 1156.5,-110.5 1156.5,-85.5 1275.5,-85.5 1275.5,-110.5"/>
<text text-anchor="middle" x="1216" y="-94.9" font-family="Helvetica,sans-Serif" font-size="12.00" fill="#000000">kokkos_assembly</text>
</a>
</g>
</g>
<!-- minimal_cuda_solver -->
<g id="node16" class="node">
<title>minimal_cuda_solver</title>
<g id="a_node16"><a xlink:href="minimal_cuda_solver.html" target="_top" xlink:title="Use the CUDA executor. Solve a linear system.">
<polygon fill="#228b22" stroke="#000000" points="966.3921,-305.9878 966.3921,-330.0122 918.1279,-347 849.8721,-347 801.6079,-330.0122 801.6079,-305.9878 849.8721,-289 918.1279,-289 966.3921,-305.9878"/>
<polygon fill="none" stroke="#000000" points="970.3896,-303.1546 970.3896,-332.8454 918.8105,-351 849.1895,-351 797.6104,-332.8454 797.6104,-303.1546 849.1895,-285 918.8105,-285 970.3896,-303.1546"/>
<polygon fill="none" stroke="#000000" points="974.3871,-300.3214 974.3871,-335.6786 919.4931,-355 848.5069,-355 793.6129,-335.6786 793.6129,-300.3214 848.5069,-281 919.4931,-281 974.3871,-300.3214"/>
<text text-anchor="middle" x="884" y="-314.9" font-family="Helvetica,sans-Serif" font-size="12.00" fill="#000000">minimal_cuda_solver</text>
</a>
</g>
</g>
<!-- minimal_cuda_solver&#45;&gt;custom_logger -->
<g id="edge4" class="edge">
<title>minimal_cuda_solver&#45;&gt;custom_logger</title>
<path fill="none" stroke="#000000" d="M793.5384,-302.0379C755.4741,-291.3765 713.123,-273.7979 683,-245 663.9951,-226.8311 639.535,-154.4356 628.2337,-118.4797"/>
<polygon fill="#000000" stroke="#000000" points="631.4727,-117.1071 625.1695,-108.5912 624.7863,-119.1791 631.4727,-117.1071"/>
</g>
<!-- minimal_cuda_solver&#45;&gt;custom_stopping_criterion -->
<g id="edge9" class="edge">
<title>minimal_cuda_solver&#45;&gt;custom_stopping_criterion</title>
<path fill="none" stroke="#000000" d="M917.5169,-280.759C933.9878,-262.458 953.1035,-241.2183 966.4135,-226.4294"/>
<polygon fill="#000000" stroke="#000000" points="969.0688,-228.7111 973.157,-218.9367 963.8657,-224.0283 969.0688,-228.7111"/>
</g>
<!-- performance_debugging -->
<g id="node26" class="node">
<title>performance_debugging</title>
<g id="a_node26"><a xlink:href="performance_debugging.html" target="_top" xlink:title="Logging to debug performance within Ginkgo.">
<polygon fill="#ffd700" stroke="#000000" points="967,-108.5 803,-108.5 803,-87.5 967,-87.5 967,-108.5"/>
<text text-anchor="middle" x="885" y="-94.9" font-family="Helvetica,sans-Serif" font-size="12.00" fill="#000000">performance_debugging</text>
</a>
</g>
</g>
<!-- minimal_cuda_solver&#45;&gt;performance_debugging -->
<g id="edge35" class="edge">
<title>minimal_cuda_solver&#45;&gt;performance_debugging</title>
<path fill="none" stroke="#000000" d="M884.1696,-280.68C884.3817,-234.0185 884.7374,-155.7749 884.9059,-118.6938"/>
<polygon fill="#000000" stroke="#000000" points="888.4063,-118.6037 884.9519,-108.5879 881.4064,-118.5718 888.4063,-118.6037"/>
</g>
<!-- simple_solver_logging -->
<g id="node32" class="node">
<title>simple_solver_logging</title>
<g id="a_node32"><a xlink:href="simple_solver_logging.html" target="_top" xlink:title="Logging within Ginkgo.">
<polygon fill="#ffd700" stroke="#000000" points="839.5,-218.5 692.5,-218.5 692.5,-197.5 839.5,-197.5 839.5,-218.5"/>
<text text-anchor="middle" x="766" y="-204.9" font-family="Helvetica,sans-Serif" font-size="12.00" fill="#000000">simple_solver_logging</text>
</a>
</g>
</g>
<!-- minimal_cuda_solver&#45;&gt;simple_solver_logging -->
<g id="edge41" class="edge">
<title>minimal_cuda_solver&#45;&gt;simple_solver_logging</title>
<path fill="none" stroke="#000000" d="M845.3624,-281.9819C825.2149,-263.2003 801.4565,-241.0527 785.2208,-225.9177"/>
<polygon fill="#000000" stroke="#000000" points="787.1766,-222.956 777.4753,-218.6973 782.4034,-228.0763 787.1766,-222.956"/>
</g>
<!-- mixed_multigrid_preconditioned_solver -->
<g id="node17" class="node">
<title>mixed_multigrid_preconditioned_solver</title>
<g id="a_node17"><a xlink:href="mixed_multigrid_preconditioned_solver.html" target="_top" xlink:title="Use a preconditioner in Ginkgo. Solve a linear system.">
<polygon fill="#dc143c" stroke="#000000" points="551.5,-108.5 300.5,-108.5 300.5,-87.5 551.5,-87.5 551.5,-108.5"/>
<text text-anchor="middle" x="426" y="-94.9" font-family="Helvetica,sans-Serif" font-size="12.00" fill="#000000">mixed_multigrid_preconditioned_solver</text>
</a>
</g>
</g>
<!-- mixed_multigrid_solver -->
<g id="node18" class="node">
<title>mixed_multigrid_solver</title>
<g id="a_node18"><a xlink:href="mixed_multigrid_solver.html" target="_top" xlink:title="Use Multigrid in Ginkgo. Solve a linear system.">
<polygon fill="#7fffd4" stroke="#000000" points="597.5,-218.5 442.5,-218.5 442.5,-197.5 597.5,-197.5 597.5,-218.5"/>
<text text-anchor="middle" x="520" y="-204.9" font-family="Helvetica,sans-Serif" font-size="12.00" fill="#000000">mixed_multigrid_solver</text>
</a>
</g>
</g>
<!-- mixed_multigrid_solver&#45;&gt;mixed_multigrid_preconditioned_solver -->
<g id="edge24" class="edge">
<title>mixed_multigrid_solver&#45;&gt;mixed_multigrid_preconditioned_solver</title>
<path fill="none" stroke="#000000" d="M510.9869,-197.4527C495.0257,-178.7748 461.607,-139.6677 441.7632,-116.4462"/>
<polygon fill="#000000" stroke="#000000" points="444.2813,-114.0055 435.1239,-108.677 438.9597,-118.5531 444.2813,-114.0055"/>
</g>
<!-- mixed_spmv -->
<g id="node20" class="node">
<title>mixed_spmv</title>
<g id="a_node20"><a xlink:href="mixed_spmv.html" target="_top" xlink:title="Mixed precision apply. Read a matrix from a file and generate right hand side randomly.">
<polygon fill="#7fffd4" stroke="#000000" points="2014,-438.5 1922,-438.5 1922,-417.5 2014,-417.5 2014,-438.5"/>
<text text-anchor="middle" x="1968" y="-424.9" font-family="Helvetica,sans-Serif" font-size="12.00" fill="#000000">mixed_spmv</text>
</a>
</g>
</g>
<!-- multigrid_preconditioned_solver -->
<g id="node21" class="node">
<title>multigrid_preconditioned_solver</title>
<g id="a_node21"><a xlink:href="multigrid_preconditioned_solver.html" target="_top" xlink:title="Use a preconditioner in Ginkgo. Solve a linear system.">
<polygon fill="#dc143c" stroke="#000000" points="424,-218.5 216,-218.5 216,-197.5 424,-197.5 424,-218.5"/>
<text text-anchor="middle" x="320" y="-204.9" font-family="Helvetica,sans-Serif" font-size="12.00" fill="#000000">multigrid_preconditioned_solver</text>
</a>
</g>
</g>
<!-- multigrid_preconditioned_solver&#45;&gt;mixed_multigrid_preconditioned_solver -->
<g id="edge23" class="edge">
<title>multigrid_preconditioned_solver&#45;&gt;mixed_multigrid_preconditioned_solver</title>
<path fill="none" stroke="#000000" d="M330.1637,-197.4527C348.2414,-178.6929 386.1784,-139.3243 408.5181,-116.1416"/>
<polygon fill="#000000" stroke="#000000" points="411.2926,-118.3064 415.7113,-108.677 406.2521,-113.4491 411.2926,-118.3064"/>
</g>
<!-- multigrid_preconditioned_solver_customized -->
<g id="node22" class="node">
<title>multigrid_preconditioned_solver_customized</title>
<g id="a_node22"><a xlink:href="multigrid_preconditioned_solver_customized.html" target="_top" xlink:title="Use a preconditioner in Ginkgo. Solve a linear system.">
<polygon fill="#dc143c" stroke="#000000" points="282,-108.5 0,-108.5 0,-87.5 282,-87.5 282,-108.5"/>
<text text-anchor="middle" x="141" y="-94.9" font-family="Helvetica,sans-Serif" font-size="12.00" fill="#000000">multigrid_preconditioned_solver_customized</text>
</a>
</g>
</g>
<!-- multigrid_preconditioned_solver&#45;&gt;multigrid_preconditioned_solver_customized -->
<g id="edge28" class="edge">
<title>multigrid_preconditioned_solver&#45;&gt;multigrid_preconditioned_solver_customized</title>
<path fill="none" stroke="#000000" d="M302.8367,-197.4527C271.2955,-178.0699 203.9538,-136.6867 166.8522,-113.8868"/>
<polygon fill="#000000" stroke="#000000" points="168.4637,-110.7691 158.1113,-108.5153 164.7987,-116.733 168.4637,-110.7691"/>
</g>
<!-- nine_pt_stencil_solver -->
<g id="node23" class="node">
<title>nine_pt_stencil_solver</title>
<g id="a_node23"><a xlink:href="nine_pt_stencil_solver.html" target="_top" xlink:title="Use array views to generate a nine point 2D stencil matrix. Solve a linear system.">
<polygon fill="#228b22" stroke="#000000" points="1470.5525,-85.9878 1470.5525,-110.0122 1421.0228,-127 1350.9772,-127 1301.4475,-110.0122 1301.4475,-85.9878 1350.9772,-69 1421.0228,-69 1470.5525,-85.9878"/>
<polygon fill="none" stroke="#000000" points="1474.5424,-83.1287 1474.5424,-112.8713 1421.6864,-131 1350.3136,-131 1297.4576,-112.8713 1297.4576,-83.1287 1350.3136,-65 1421.6864,-65 1474.5424,-83.1287"/>
<polygon fill="none" stroke="#000000" points="1478.5324,-80.2695 1478.5324,-115.7305 1422.3501,-135 1349.6499,-135 1293.4676,-115.7305 1293.4676,-80.2695 1349.6499,-61 1422.3501,-61 1478.5324,-80.2695"/>
<text text-anchor="middle" x="1386" y="-94.9" font-family="Helvetica,sans-Serif" font-size="12.00" fill="#000000">nine_pt_stencil_solver</text>
</a>
</g>
</g>
<!-- papi_logging -->
<g id="node24" class="node">
<title>papi_logging</title>
<g id="a_node24"><a xlink:href="papi_logging.html" target="_top" xlink:title="Logging with PAPI.">
<polygon fill="#ffd700" stroke="#000000" points="785,-108.5 693,-108.5 693,-87.5 785,-87.5 785,-108.5"/>
<text text-anchor="middle" x="739" y="-94.9" font-family="Helvetica,sans-Serif" font-size="12.00" fill="#000000">papi_logging</text>
</a>
</g>
</g>
<!-- par_ilu_convergence -->
<g id="node25" class="node">
<title>par_ilu_convergence</title>
<g id="a_node25"><a xlink:href="par_ilu_convergence.html" target="_top" xlink:title="Compute runtimes and residuals for different ParILU(T)/IC(T) iteration counts.">
<polygon fill="#dc143c" stroke="#000000" points="2260,-328.5 2120,-328.5 2120,-307.5 2260,-307.5 2260,-328.5"/>
<text text-anchor="middle" x="2190" y="-314.9" font-family="Helvetica,sans-Serif" font-size="12.00" fill="#000000">par_ilu_convergence</text>
</a>
</g>
</g>
<!-- poisson_solver -->
<g id="node27" class="node">
<title>poisson_solver</title>
<g id="a_node27"><a xlink:href="poisson_solver.html" target="_top" xlink:title="Solve the poisson problem. Generate the matrix within Ginkgo.">
<polygon fill="#228b22" stroke="#000000" points="1310.2764,-305.9878 1310.2764,-330.0122 1274.9673,-347 1225.0327,-347 1189.7236,-330.0122 1189.7236,-305.9878 1225.0327,-289 1274.9673,-289 1310.2764,-305.9878"/>
<polygon fill="none" stroke="#000000" points="1314.2695,-303.4715 1314.2695,-332.5285 1275.8765,-351 1224.1235,-351 1185.7305,-332.5285 1185.7305,-303.4715 1224.1235,-285 1275.8765,-285 1314.2695,-303.4715"/>
<polygon fill="none" stroke="#000000" points="1318.2626,-300.9552 1318.2626,-335.0448 1276.7857,-355 1223.2143,-355 1181.7374,-335.0448 1181.7374,-300.9552 1223.2143,-281 1276.7857,-281 1318.2626,-300.9552"/>
<text text-anchor="middle" x="1250" y="-314.9" font-family="Helvetica,sans-Serif" font-size="12.00" fill="#000000">poisson_solver</text>
</a>
</g>
</g>
<!-- poisson_solver&#45;&gt;custom_matrix_format -->
<g id="edge6" class="edge">
<title>poisson_solver&#45;&gt;custom_matrix_format</title>
<path fill="none" stroke="#000000" d="M1219.3761,-282.1636C1179.5229,-235.5268 1111.2207,-155.5987 1079.3398,-118.2913"/>
<polygon fill="#000000" stroke="#000000" points="1081.9168,-115.9193 1072.7594,-110.5908 1076.5951,-120.4669 1081.9168,-115.9193"/>
</g>
<!-- poisson_solver&#45;&gt;kokkos_assembly -->
<g id="edge20" class="edge">
<title>poisson_solver&#45;&gt;kokkos_assembly</title>
<path fill="none" stroke="#000000" d="M1242.4874,-280.9324C1240.2669,-269.4392 1237.919,-256.7161 1236,-245 1228.8331,-201.2446 1222.2611,-149.8635 1218.7248,-120.8986"/>
<polygon fill="#000000" stroke="#000000" points="1222.1571,-120.127 1217.4827,-110.6191 1215.2077,-120.9668 1222.1571,-120.127"/>
</g>
<!-- poisson_solver&#45;&gt;nine_pt_stencil_solver -->
<g id="edge31" class="edge">
<title>poisson_solver&#45;&gt;nine_pt_stencil_solver</title>
<path fill="none" stroke="#000000" d="M1246.3842,-280.9133C1245.1501,-249.2661 1247.9374,-203.8062 1269,-171 1279.5744,-154.5298 1295.3263,-141.1344 1311.8707,-130.5297"/>
<polygon fill="#000000" stroke="#000000" points="1313.847,-133.4243 1320.5714,-125.2369 1310.209,-127.4438 1313.847,-133.4243"/>
</g>
<!-- three_pt_stencil_solver -->
<g id="node33" class="node">
<title>three_pt_stencil_solver</title>
<g id="a_node33"><a xlink:href="three_pt_stencil_solver.html" target="_top" xlink:title="Use array views to generate stencil matrix. Solve a linear system.">
<polygon fill="#228b22" stroke="#000000" points="1463.6743,-195.9878 1463.6743,-220.0122 1411.7301,-237 1338.2699,-237 1286.3257,-220.0122 1286.3257,-195.9878 1338.2699,-179 1411.7301,-179 1463.6743,-195.9878"/>
<polygon fill="none" stroke="#000000" points="1467.6673,-193.0859 1467.6673,-222.9141 1412.3654,-241 1337.6346,-241 1282.3327,-222.9141 1282.3327,-193.0859 1337.6346,-175 1412.3654,-175 1467.6673,-193.0859"/>
<polygon fill="none" stroke="#000000" points="1471.6603,-190.184 1471.6603,-225.816 1413.0007,-245 1336.9993,-245 1278.3397,-225.816 1278.3397,-190.184 1336.9993,-171 1413.0007,-171 1471.6603,-190.184"/>
<text text-anchor="middle" x="1375" y="-204.9" font-family="Helvetica,sans-Serif" font-size="12.00" fill="#000000">three_pt_stencil_solver</text>
</a>
</g>
</g>
<!-- poisson_solver&#45;&gt;three_pt_stencil_solver -->
<g id="edge43" class="edge">
<title>poisson_solver&#45;&gt;three_pt_stencil_solver</title>
<path fill="none" stroke="#000000" d="M1286.828,-285.5913C1299.1089,-274.7841 1312.9904,-262.5685 1326.0439,-251.0814"/>
<polygon fill="#000000" stroke="#000000" points="1328.4206,-253.6522 1333.6155,-244.4184 1323.7961,-248.3972 1328.4206,-253.6522"/>
</g>
<!-- preconditioned_solver -->
<g id="node28" class="node">
<title>preconditioned_solver</title>
<g id="a_node28"><a xlink:href="preconditioned_solver.html" target="_top" xlink:title="Use a preconditioner in Ginkgo. Solve a linear system.">
<polygon fill="#dc143c" stroke="#000000" points="394.5,-328.5 245.5,-328.5 245.5,-307.5 394.5,-307.5 394.5,-328.5"/>
<text text-anchor="middle" x="320" y="-314.9" font-family="Helvetica,sans-Serif" font-size="12.00" fill="#000000">preconditioned_solver</text>
</a>
</g>
</g>
<!-- preconditioned_solver&#45;&gt;adaptiveprecision_blockjacobi -->
<g id="edge1" class="edge">
<title>preconditioned_solver&#45;&gt;adaptiveprecision_blockjacobi</title>
<path fill="none" stroke="#000000" d="M298.9055,-307.4527C259.6469,-287.8235 175.262,-245.631 130.0528,-223.0264"/>
<polygon fill="#000000" stroke="#000000" points="131.5402,-219.857 121.0307,-218.5153 128.4097,-226.118 131.5402,-219.857"/>
</g>
<!-- preconditioned_solver&#45;&gt;multigrid_preconditioned_solver -->
<g id="edge27" class="edge">
<title>preconditioned_solver&#45;&gt;multigrid_preconditioned_solver</title>
<path fill="none" stroke="#000000" d="M320,-307.4527C320,-289.4302 320,-252.3869 320,-228.9477"/>
<polygon fill="#000000" stroke="#000000" points="323.5001,-228.6769 320,-218.677 316.5001,-228.677 323.5001,-228.6769"/>
</g>
<!-- preconditioner_export -->
<g id="node29" class="node">
<title>preconditioner_export</title>
<g id="a_node29"><a xlink:href="preconditioner_export.html" target="_top" xlink:title="Generate and store different preconditioners on the disk.">
<polygon fill="#dc143c" stroke="#000000" points="2427.5,-328.5 2278.5,-328.5 2278.5,-307.5 2427.5,-307.5 2427.5,-328.5"/>
<text text-anchor="middle" x="2353" y="-314.9" font-family="Helvetica,sans-Serif" font-size="12.00" fill="#000000">preconditioner_export</text>
</a>
</g>
</g>
<!-- simple_solver -->
<g id="node31" class="node">
<title>simple_solver</title>
<g id="a_node31"><a xlink:href="simple_solver.html" target="_top" xlink:title="Solve a simple linear system with CG. Read a matrix and right hand side from a file.">
<polygon fill="#228b22" stroke="#000000" points="1368.8081,-415.9878 1368.8081,-440.0122 1335.5307,-457 1288.4693,-457 1255.1919,-440.0122 1255.1919,-415.9878 1288.4693,-399 1335.5307,-399 1368.8081,-415.9878"/>
<polygon fill="none" stroke="#000000" points="1372.8018,-413.537 1372.8018,-442.463 1336.4897,-461 1287.5103,-461 1251.1982,-442.463 1251.1982,-413.537 1287.5103,-395 1336.4897,-395 1372.8018,-413.537"/>
<polygon fill="none" stroke="#000000" points="1376.7955,-411.0861 1376.7955,-444.9139 1337.4488,-465 1286.5512,-465 1247.2045,-444.9139 1247.2045,-411.0861 1286.5512,-391 1337.4488,-391 1376.7955,-411.0861"/>
<text text-anchor="middle" x="1312" y="-424.9" font-family="Helvetica,sans-Serif" font-size="12.00" fill="#000000">simple_solver</text>
</a>
</g>
</g>
<!-- simple_solver&#45;&gt;custom_logger -->
<g id="edge2" class="edge">
<title>simple_solver&#45;&gt;custom_logger</title>
<path fill="none" stroke="#000000" d="M1246.7404,-424.6675C1118.8741,-417.2948 840.3909,-396.8393 755,-355 692.6301,-324.4403 675.4078,-306.9471 644,-245 623.0983,-203.7747 620.6754,-148.2747 621.1053,-118.6571"/>
<polygon fill="#000000" stroke="#000000" points="624.6041,-118.7483 621.3772,-108.6568 617.6066,-118.558 624.6041,-118.7483"/>
</g>
<!-- simple_solver&#45;&gt;custom_matrix_format -->
<g id="edge5" class="edge">
<title>simple_solver&#45;&gt;custom_matrix_format</title>
<path fill="none" stroke="#000000" d="M1246.9793,-411.8149C1214.283,-400.6916 1176.3293,-382.7825 1151,-355 1118.4922,-319.3438 1081.1651,-176.8211 1067.4323,-120.7888"/>
<polygon fill="#000000" stroke="#000000" points="1070.7666,-119.6866 1065.0088,-110.7928 1063.9637,-121.336 1070.7666,-119.6866"/>
</g>
<!-- simple_solver&#45;&gt;custom_stopping_criterion -->
<g id="edge8" class="edge">
<title>simple_solver&#45;&gt;custom_stopping_criterion</title>
<path fill="none" stroke="#000000" d="M1247.0966,-418.8628C1198.3963,-409.4087 1132.113,-390.7722 1084,-355 1038.2339,-320.9728 1006.0421,-259.8186 991.5815,-228.1835"/>
<polygon fill="#000000" stroke="#000000" points="994.6159,-226.3919 987.3633,-218.6685 988.2165,-229.2289 994.6159,-226.3919"/>
</g>
<!-- simple_solver&#45;&gt;distributed_solver -->
<g id="edge10" class="edge">
<title>simple_solver&#45;&gt;distributed_solver</title>
<path fill="none" stroke="#000000" d="M1361.6365,-403.0454C1397.3202,-384.7899 1440.2856,-362.0355 1447,-355 1514.565,-284.203 1544.5149,-165.7803 1554.2222,-118.4517"/>
<polygon fill="#000000" stroke="#000000" points="1557.6837,-118.9877 1556.1755,-108.5008 1550.8148,-117.6394 1557.6837,-118.9877"/>
</g>
<!-- simple_solver&#45;&gt;heat_equation -->
<g id="edge12" class="edge">
<title>simple_solver&#45;&gt;heat_equation</title>
<path fill="none" stroke="#000000" d="M1360.2839,-402.45C1368.4507,-398.4403 1376.906,-394.4771 1385,-391 1428.7858,-372.1899 1448.8638,-384.8649 1486,-355 1561.1498,-294.5645 1537.7283,-243.778 1601,-171 1619.0097,-150.2845 1643.1609,-130.5108 1661.4476,-116.7811"/>
<polygon fill="#000000" stroke="#000000" points="1663.9288,-119.3002 1669.901,-110.5489 1659.775,-113.6659 1663.9288,-119.3002"/>
</g>
<!-- simple_solver&#45;&gt;ilu_preconditioned_solver -->
<g id="edge14" class="edge">
<title>simple_solver&#45;&gt;ilu_preconditioned_solver</title>
<path fill="none" stroke="#000000" d="M1359.0346,-401.6298C1367.4961,-397.6223 1376.3724,-393.8732 1385,-391 1472.7663,-361.7715 1500.7827,-379.4441 1590,-355 1611.9562,-348.9844 1635.8722,-340.005 1654.5816,-332.3986"/>
<polygon fill="#000000" stroke="#000000" points="1655.9464,-335.6217 1663.8528,-328.5691 1653.274,-329.1519 1655.9464,-335.6217"/>
</g>
<!-- simple_solver&#45;&gt;inverse_iteration -->
<g id="edge15" class="edge">
<title>simple_solver&#45;&gt;inverse_iteration</title>
<path fill="none" stroke="#000000" d="M1357.9894,-401.1674C1366.7136,-397.104 1375.9495,-393.4554 1385,-391 1639.4009,-321.9808 1723.8623,-428.5172 1977,-355 1991.3376,-350.836 2005.9962,-343.1996 2017.9321,-335.9411"/>
<polygon fill="#000000" stroke="#000000" points="2019.9033,-338.8357 2026.4784,-330.5279 2016.1576,-332.9221 2019.9033,-338.8357"/>
</g>
<!-- simple_solver&#45;&gt;iterative_refinement -->
<g id="edge18" class="edge">
<title>simple_solver&#45;&gt;iterative_refinement</title>
<path fill="none" stroke="#000000" d="M1358.0517,-401.3907C1366.7696,-397.3046 1375.9873,-393.5905 1385,-391 1554.8488,-342.1802 1608.7616,-394.5721 1781,-355 1789.1532,-353.1268 1797.5405,-350.7321 1805.8146,-348.0639"/>
<polygon fill="#000000" stroke="#000000" points="1807.0928,-351.3267 1815.4548,-344.8208 1804.8607,-344.6921 1807.0928,-351.3267"/>
</g>
<!-- simple_solver&#45;&gt;kokkos_assembly -->
<g id="edge19" class="edge">
<title>simple_solver&#45;&gt;kokkos_assembly</title>
<path fill="none" stroke="#000000" d="M1247.4282,-410.6617C1219.4269,-399.5863 1189.3539,-382.0609 1173,-355 1126.5804,-278.1895 1177.931,-166.0855 1203.3942,-119.5188"/>
<polygon fill="#000000" stroke="#000000" points="1206.5501,-121.0468 1208.3904,-110.613 1200.4452,-117.6219 1206.5501,-121.0468"/>
</g>
<!-- simple_solver&#45;&gt;minimal_cuda_solver -->
<g id="edge22" class="edge">
<title>simple_solver&#45;&gt;minimal_cuda_solver</title>
<path fill="none" stroke="#000000" d="M1247.1215,-412.5127C1187.2592,-398.0883 1095.9655,-375.7497 1017,-355 1002.3584,-351.1527 986.8452,-346.9514 971.7819,-342.805"/>
<polygon fill="#000000" stroke="#000000" points="972.5328,-339.3814 961.9618,-340.0925 970.6689,-346.1287 972.5328,-339.3814"/>
</g>
<!-- simple_solver&#45;&gt;mixed_multigrid_solver -->
<g id="edge25" class="edge">
<title>simple_solver&#45;&gt;mixed_multigrid_solver</title>
<path fill="none" stroke="#000000" d="M1246.9477,-424.4603C1083.5711,-415.1153 665.2277,-388.2043 612,-355 564.7233,-325.508 537.7191,-261.8262 526.3852,-228.8051"/>
<polygon fill="#000000" stroke="#000000" points="529.5725,-227.2911 523.1357,-218.8757 522.9197,-229.4684 529.5725,-227.2911"/>
</g>
<!-- simple_solver&#45;&gt;nine_pt_stencil_solver -->
<g id="edge29" class="edge">
<title>simple_solver&#45;&gt;nine_pt_stencil_solver</title>
<path fill="none" stroke="#000000" d="M1352.9204,-398.7887C1394.2071,-366.543 1455.4025,-310.4474 1481,-245 1492.9797,-214.3705 1495.5362,-200.5022 1481,-171 1474.062,-156.9189 1462.9585,-144.7958 1450.7484,-134.7001"/>
<polygon fill="#000000" stroke="#000000" points="1452.6393,-131.7367 1442.5975,-128.3582 1448.3407,-137.2614 1452.6393,-131.7367"/>
</g>
<!-- simple_solver&#45;&gt;par_ilu_convergence -->
<g id="edge33" class="edge">
<title>simple_solver&#45;&gt;par_ilu_convergence</title>
<path fill="none" stroke="#000000" d="M1357.5706,-401.2683C1366.4133,-397.1389 1375.7986,-393.4412 1385,-391 1697.2606,-308.1562 1797.489,-432.9783 2111,-355 2129.3256,-350.4419 2148.5409,-341.5466 2163.4318,-333.6202"/>
<polygon fill="#000000" stroke="#000000" points="2165.4672,-336.4951 2172.54,-328.6067 2162.0917,-330.3627 2165.4672,-336.4951"/>
</g>
<!-- simple_solver&#45;&gt;poisson_solver -->
<g id="edge36" class="edge">
<title>simple_solver&#45;&gt;poisson_solver</title>
<path fill="none" stroke="#000000" d="M1291.0096,-390.759C1286.1617,-382.1578 1280.9478,-372.9074 1275.9175,-363.9827"/>
<polygon fill="#000000" stroke="#000000" points="1278.928,-362.1956 1270.9688,-355.2026 1272.8299,-365.6327 1278.928,-362.1956"/>
</g>
<!-- simple_solver&#45;&gt;preconditioned_solver -->
<g id="edge37" class="edge">
<title>simple_solver&#45;&gt;preconditioned_solver</title>
<path fill="none" stroke="#000000" d="M1247.008,-423.4507C1113.969,-413.7867 801.1237,-389.2584 540,-355 487.9851,-348.1759 429.4243,-338.215 385.8057,-330.3471"/>
<polygon fill="#000000" stroke="#000000" points="386.3591,-326.8905 375.8949,-328.5491 385.1095,-333.778 386.3591,-326.8905"/>
</g>
<!-- simple_solver&#45;&gt;preconditioner_export -->
<g id="edge38" class="edge">
<title>simple_solver&#45;&gt;preconditioner_export</title>
<path fill="none" stroke="#000000" d="M1357.5531,-401.2017C1366.3975,-397.0788 1375.7879,-393.4005 1385,-391 1765.5085,-291.8489 1885.9442,-443.803 2269,-355 2288.5404,-350.47 2309.1734,-341.4494 2325.1002,-333.4494"/>
<polygon fill="#000000" stroke="#000000" points="2327.0905,-336.3599 2334.3569,-328.6495 2323.8682,-330.1457 2327.0905,-336.3599"/>
</g>
<!-- simple_solver&#45;&gt;simple_solver_logging -->
<g id="edge40" class="edge">
<title>simple_solver&#45;&gt;simple_solver_logging</title>
<path fill="none" stroke="#000000" d="M1247.0474,-423.3811C1113.3354,-413.2542 817.1012,-387.3948 785,-355 751.7845,-321.4807 756.4058,-260.5541 761.7007,-228.6847"/>
<polygon fill="#000000" stroke="#000000" points="765.1673,-229.1856 763.5407,-218.7164 758.2836,-227.9149 765.1673,-229.1856"/>
</g>
<!-- simple_solver&#45;&gt;three_pt_stencil_solver -->
<g id="edge42" class="edge">
<title>simple_solver&#45;&gt;three_pt_stencil_solver</title>
<path fill="none" stroke="#000000" d="M1322.6871,-390.68C1333.422,-353.193 1349.9941,-295.3223 1361.6018,-254.7872"/>
<polygon fill="#000000" stroke="#000000" points="1364.9775,-255.7125 1364.3658,-245.1353 1358.248,-253.7853 1364.9775,-255.7125"/>
</g>
<!-- simple_solver_logging&#45;&gt;custom_logger -->
<g id="edge3" class="edge">
<title>simple_solver_logging&#45;&gt;custom_logger</title>
<path fill="none" stroke="#000000" d="M752.1927,-197.4527C727.2053,-178.3652 674.2886,-137.9427 644.1784,-114.9418"/>
<polygon fill="#000000" stroke="#000000" points="646.0485,-111.966 635.9771,-108.677 641.7992,-117.5288 646.0485,-111.966"/>
</g>
<!-- simple_solver_logging&#45;&gt;papi_logging -->
<g id="edge32" class="edge">
<title>simple_solver_logging&#45;&gt;papi_logging</title>
<path fill="none" stroke="#000000" d="M763.4111,-197.4527C758.9673,-179.3482 749.8122,-142.0498 744.0635,-118.6289"/>
<polygon fill="#000000" stroke="#000000" points="747.4037,-117.5543 741.6207,-108.677 740.6055,-119.223 747.4037,-117.5543"/>
</g>
<!-- simple_solver_logging&#45;&gt;performance_debugging -->
<g id="edge34" class="edge">
<title>simple_solver_logging&#45;&gt;performance_debugging</title>
<path fill="none" stroke="#000000" d="M777.4102,-197.4527C797.8822,-178.529 841.0403,-138.6351 866.0271,-115.5379"/>
<polygon fill="#000000" stroke="#000000" points="868.4819,-118.0351 873.4495,-108.677 863.7304,-112.8947 868.4819,-118.0351"/>
</g>
<!-- three_pt_stencil_solver&#45;&gt;custom_matrix_format -->
<g id="edge7" class="edge">
<title>three_pt_stencil_solver&#45;&gt;custom_matrix_format</title>
<path fill="none" stroke="#000000" d="M1295.1866,-184.6024C1251.1181,-171.1458 1195.6192,-153.312 1147,-135 1130.8147,-128.9039 1113.2401,-121.4061 1098.2945,-114.7576"/>
<polygon fill="#000000" stroke="#000000" points="1099.4498,-111.4397 1088.8937,-110.5344 1096.5813,-117.8249 1099.4498,-111.4397"/>
</g>
<!-- three_pt_stencil_solver&#45;&gt;distributed_solver -->
<g id="edge11" class="edge">
<title>three_pt_stencil_solver&#45;&gt;distributed_solver</title>
<path fill="none" stroke="#000000" d="M1428.4231,-175.8877C1462.208,-155.5799 1504.4224,-130.2051 1531.3043,-114.0466"/>
<polygon fill="#000000" stroke="#000000" points="1533.3667,-116.8906 1540.1344,-108.7389 1529.7604,-110.891 1533.3667,-116.8906"/>
</g>
<!-- three_pt_stencil_solver&#45;&gt;heat_equation -->
<g id="edge13" class="edge">
<title>three_pt_stencil_solver&#45;&gt;heat_equation</title>
<path fill="none" stroke="#000000" d="M1465.7866,-188.1661C1514.9402,-175.8624 1576.0601,-157.9925 1628,-135 1639.6846,-129.8275 1651.819,-122.7193 1662.0925,-116.1148"/>
<polygon fill="#000000" stroke="#000000" points="1664.1715,-118.936 1670.5836,-110.5018 1660.3114,-113.0966 1664.1715,-118.936"/>
</g>
<!-- three_pt_stencil_solver&#45;&gt;kokkos_assembly -->
<g id="edge21" class="edge">
<title>three_pt_stencil_solver&#45;&gt;kokkos_assembly</title>
<path fill="none" stroke="#000000" d="M1326.4308,-174.3987C1298.8574,-155.3228 1265.4029,-132.1781 1242.5916,-116.3967"/>
<polygon fill="#000000" stroke="#000000" points="1244.3238,-113.3391 1234.1087,-110.528 1240.3412,-119.0958 1244.3238,-113.3391"/>
</g>
<!-- three_pt_stencil_solver&#45;&gt;nine_pt_stencil_solver -->
<g id="edge30" class="edge">
<title>three_pt_stencil_solver&#45;&gt;nine_pt_stencil_solver</title>
<path fill="none" stroke="#000000" d="M1378.7241,-170.759C1379.5394,-162.6058 1380.4131,-153.8692 1381.262,-145.3797"/>
<polygon fill="#000000" stroke="#000000" points="1384.7672,-145.5013 1382.2797,-135.2026 1377.802,-144.8047 1384.7672,-145.5013"/>
</g>
</g>
</svg>
        <g id="navigator" transform="translate(0 0)" fill="#404254">
                <rect fill="#f2f5e9" fill-opacity="0.5" stroke="#606060" stroke-width=".5" x="0" y="0" width="60" height="60"/>
                <use id="zoomplus" xlink:href="#zoomPlus" x="17" y="9" onmousedown="handleZoom(evt,'in')"/>
                <use id="zoomminus" xlink:href="#zoomMin" x="42" y="9" onmousedown="handleZoom(evt,'out')"/>
                <use id="reset" xlink:href="#resetDef" x="30" y="36" onmousedown="handleReset()"/>
                <g id="arrowUp" xlink:href="#dirArrow" transform="translate(30 24)" onmousedown="handlePan(0,-1)">
                  <use xlink:href="#rim" fill="#404040">
                        <set attributeName="fill" to="#808080" begin="arrowUp.mouseover" end="arrowUp.mouseout"/>
                  </use>
                  <path fill="none" stroke="white" stroke-width="1.5" d="M0,-3.0v7 M-2.5,-0.5L0,-3.0L2.5,-0.5"/>
                </g>
                <g id="arrowRight" xlink:href="#dirArrow" transform="rotate(90) translate(36 -43)" onmousedown="handlePan(1,0)">
                  <use xlink:href="#rim" fill="#404040">
                        <set attributeName="fill" to="#808080" begin="arrowRight.mouseover" end="arrowRight.mouseout"/>
                  </use>
                  <path fill="none" stroke="white" stroke-width="1.5" d="M0,-3.0v7 M-2.5,-0.5L0,-3.0L2.5,-0.5"/>
                </g>
                <g id="arrowDown" xlink:href="#dirArrow" transform="rotate(180) translate(-30 -48)" onmousedown="handlePan(0,1)">
                  <use xlink:href="#rim" fill="#404040">
                        <set attributeName="fill" to="#808080" begin="arrowDown.mouseover" end="arrowDown.mouseout"/>
                  </use>
                  <path fill="none" stroke="white" stroke-width="1.5" d="M0,-3.0v7 M-2.5,-0.5L0,-3.0L2.5,-0.5"/>
                </g>
                <g id="arrowLeft" xlink:href="#dirArrow" transform="rotate(270) translate(-36 17)" onmousedown="handlePan(-1,0)">
                  <use xlink:href="#rim" fill="#404040">
                        <set attributeName="fill" to="#808080" begin="arrowLeft.mouseover" end="arrowLeft.mouseout"/>
                  </use>
                  <path fill="none" stroke="white" stroke-width="1.5" d="M0,-3.0v7 M-2.5,-0.5L0,-3.0L2.5,-0.5"/>
                </g>
        </g>
        <svg viewBox="0 0 15 15" width="100%" height="30px" preserveAspectRatio="xMaxYMin meet">
         <g id="arrow_out" transform="scale(0.3 0.3)">
          <a xlink:href="dot_inline_dotgraph_1_org.svg" target="_base">
           <rect id="button" ry="5" rx="5" y="6" x="6" height="38" width="38"
                fill="#f2f5e9" fill-opacity="0.5" stroke="#606060" stroke-width="1.0"/>
           <path id="arrow"
             d="M 11.500037,31.436501 C 11.940474,20.09759 22.043105,11.32322 32.158766,21.979434 L 37.068811,17.246167 C 37.068811,17.246167 37.088388,32 37.088388,32 L 22.160133,31.978069 C 22.160133,31.978069 26.997745,27.140456 26.997745,27.140456 C 18.528582,18.264221 13.291696,25.230495 11.500037,31.436501 z"
             style="fill:#404040;"/>
          </a>
         </g>
        </svg>
</svg>
