<?xml version="1.0" encoding="UTF-8" standalone="no"?>
<!DOCTYPE svg PUBLIC "-//W3C//DTD SVG 1.1//EN"
 "http://www.w3.org/Graphics/SVG/1.1/DTD/svg11.dtd">
<!-- Generated by graphviz version 2.40.1 (20161225.0304)
 -->
<!-- Title: Linear Operators Pages: 1 -->
<!--zoomable 677 -->
<svg id="main" version="1.1" xmlns="http://www.w3.org/2000/svg" xmlns:xlink="http://www.w3.org/1999/xlink" xml:space="preserve" onload="init(evt)">
<style type="text/css"><![CDATA[
.edge:hover path { stroke: red; }
.edge:hover polygon { stroke: red; fill: red; }
]]></style>
<script type="text/javascript"><![CDATA[
var edges = document.getElementsByTagName('g');
if (edges && edges.length) {
  for (var i=0;i<edges.length;i++) {
    if (edges[i].id.substr(0,4)=='edge') {
      edges[i].setAttribute('class','edge');
    }
  }
}
]]></script>
        <defs>
                <circle id="rim" cx="0" cy="0" r="7"/>
                <circle id="rim2" cx="0" cy="0" r="3.5"/>
                <g id="zoomPlus">
                        <use xlink:href="#rim" fill="#404040">
                                <set attributeName="fill" to="#808080" begin="zoomplus.mouseover" end="zoomplus.mouseout"/>
                        </use>
                        <path d="M-4,0h8M0,-4v8" fill="none" stroke="white" stroke-width="1.5" pointer-events="none"/>
                </g>
                <g id="zoomMin">
                        <use xlink:href="#rim" fill="#404040">
                                <set attributeName="fill" to="#808080" begin="zoomminus.mouseover" end="zoomminus.mouseout"/>
                        </use>
                        <path d="M-4,0h8" fill="none" stroke="white" stroke-width="1.5" pointer-events="none"/>
                </g>
                <g id="dirArrow">
                        <path fill="none" stroke="white" stroke-width="1.5" d="M0,-3.0v7 M-2.5,-0.5L0,-3.0L2.5,-0.5"/>
                </g>
               <g id="resetDef">
                       <use xlink:href="#rim2" fill="#404040">
                               <set attributeName="fill" to="#808080" begin="reset.mouseover" end="reset.mouseout"/>
                       </use>
               </g>
        </defs>

<script type="text/javascript">
var viewWidth = 398;
var viewHeight = 677;
var sectionId = 'dynsection-0';
</script>
<script xlink:href="svgpan.js"/>
<svg id="graph" class="graph">
<g id="viewport">
<title>Linear Operators</title>
<polygon fill="#ffffff" stroke="transparent" points="-4,4 -4,-673.1405 394,-673.1405 394,4 -4,4"/>
<!-- Node2 -->
<g id="node1" class="node">
<title>Node2</title>
<g id="a_node1"><a xlink:href="group__factor.html" target="_top" xlink:title="A module dedicated to the implementation and usage of the Factorizations in Ginkgo.">
<polygon fill="#ffffff" stroke="#000000" points="360.5,-612.622 276.5,-612.622 276.5,-593.622 360.5,-593.622 360.5,-612.622"/>
<text text-anchor="middle" x="318.5" y="-600.622" font-family="Helvetica,sans-Serif" font-size="10.00" fill="#000000">Factorizations</text>
</a>
</g>
</g>
<!-- Node4 -->
<g id="node2" class="node">
<title>Node4</title>
<g id="a_node2"><a xlink:href="group__precond.html" target="_top" xlink:title="A module dedicated to the implementation and usage of the Preconditioners in Ginkgo.">
<polygon fill="#ffffff" stroke="#000000" points="364.5,-471.622 272.5,-471.622 272.5,-452.622 364.5,-452.622 364.5,-471.622"/>
<text text-anchor="middle" x="318.5" y="-459.622" font-family="Helvetica,sans-Serif" font-size="10.00" fill="#000000">Preconditioners</text>
</a>
</g>
</g>
<!-- Node3 -->
<g id="node3" class="node">
<title>Node3</title>
<g id="a_node3"><a xlink:href="group__mat__formats.html" target="_top" xlink:title="A module dedicated to the implementation and usage of the various Matrix Formats in Ginkgo.">
<polygon fill="#ffffff" stroke="#000000" points="390,-324.122 247,-324.122 247,-294.122 390,-294.122 390,-324.122"/>
<text text-anchor="start" x="255" y="-312.122" font-family="Helvetica,sans-Serif" font-size="10.00" fill="#000000">SpMV employing different</text>
<text text-anchor="middle" x="318.5" y="-301.122" font-family="Helvetica,sans-Serif" font-size="10.00" fill="#000000"> Matrix formats</text>
</a>
</g>
</g>
<!-- Node6 -->
<g id="node4" class="node">
<title>Node6</title>
<g id="a_node4"><a xlink:href="group__jacobi.html" target="_top" xlink:title="A module dedicated to the implementation and usage of the Jacobi Preconditioner in Ginkgo.">
<polygon fill="#ffffff" stroke="#000000" points="378,-200.622 259,-200.622 259,-181.622 378,-181.622 378,-200.622"/>
<text text-anchor="middle" x="318.5" y="-188.622" font-family="Helvetica,sans-Serif" font-size="10.00" fill="#000000">Jacobi Preconditioner</text>
</a>
</g>
</g>
<!-- Node1 -->
<g id="node5" class="node">
<title>Node1</title>
<g id="a_node5"><a xlink:title="A module dedicated to the implementation and usage of the Linear operators in Ginkgo.">
<polygon fill="#bfbfbf" stroke="#000000" points="98,-392.622 0,-392.622 0,-373.622 98,-373.622 98,-392.622"/>
<text text-anchor="middle" x="49" y="-380.622" font-family="Helvetica,sans-Serif" font-size="10.00" fill="#000000">Linear Operators</text>
</a>
</g>
</g>
<!-- Node1&#45;&gt;Node2 -->
<g id="edge1" class="edge">
<title>Node1&#45;&gt;Node2</title>
<path fill="none" stroke="#000000" d="M50.853,-403.0181C56.5996,-459.8794 76.1762,-621.0005 116,-652.122 175.1382,-698.3373 271.4475,-637.441 305.8171,-612.7082"/>
<polygon fill="#000000" stroke="#000000" points="54.3134,-402.4406 49.8601,-392.8272 47.3464,-403.1195 54.3134,-402.4406"/>
</g>
<!-- Node1&#45;&gt;Node2 -->
<g id="edge7" class="edge">
<title>Node1&#45;&gt;Node2</title>
<path fill="none" stroke="#ffa500" stroke-dasharray="5,2" d="M50.9277,-392.9502C56.3374,-417.7573 74.0891,-483.1982 116,-515.122 156.7713,-546.1778 182.0874,-517.4829 229,-538.122 260.9915,-552.1966 292.7312,-579.112 308.4077,-593.4964"/>
<text text-anchor="middle" x="172.5" y="-640.122" font-family="Helvetica,sans-Serif" font-size="10.00" fill="#000000">gko::factorization::Ic</text>
<text text-anchor="middle" x="172.5" y="-629.122" font-family="Helvetica,sans-Serif" font-size="10.00" fill="#000000">gko::factorization::Ilu</text>
<text text-anchor="start" x="120.5" y="-618.122" font-family="Helvetica,sans-Serif" font-size="10.00" fill="#000000">gko::factorization</text>
<text text-anchor="middle" x="172.5" y="-607.122" font-family="Helvetica,sans-Serif" font-size="10.00" fill="#000000">::ParIc</text>
<text text-anchor="start" x="120.5" y="-596.122" font-family="Helvetica,sans-Serif" font-size="10.00" fill="#000000">gko::factorization</text>
<text text-anchor="middle" x="172.5" y="-585.122" font-family="Helvetica,sans-Serif" font-size="10.00" fill="#000000">::ParIct</text>
<text text-anchor="start" x="120.5" y="-574.122" font-family="Helvetica,sans-Serif" font-size="10.00" fill="#000000">gko::factorization</text>
<text text-anchor="middle" x="172.5" y="-563.122" font-family="Helvetica,sans-Serif" font-size="10.00" fill="#000000">::ParIlu</text>
<text text-anchor="start" x="120.5" y="-552.122" font-family="Helvetica,sans-Serif" font-size="10.00" fill="#000000">gko::factorization</text>
<text text-anchor="middle" x="172.5" y="-541.122" font-family="Helvetica,sans-Serif" font-size="10.00" fill="#000000">::ParIlut</text>
</g>
<!-- Node1&#45;&gt;Node4 -->
<g id="edge3" class="edge">
<title>Node1&#45;&gt;Node4</title>
<path fill="none" stroke="#000000" d="M54.2158,-402.4753C62.4432,-428.6945 81.1984,-474.4784 116,-494.122 177.3716,-528.7629 264.9456,-490.6761 301.4774,-471.6399"/>
<polygon fill="#000000" stroke="#000000" points="57.5723,-401.4832 51.4003,-392.8718 50.8551,-403.4526 57.5723,-401.4832"/>
</g>
<!-- Node1&#45;&gt;Node4 -->
<g id="edge5" class="edge">
<title>Node1&#45;&gt;Node4</title>
<path fill="none" stroke="#ffa500" stroke-dasharray="5,2" d="M98.3926,-389.464C143.1212,-395.5505 205.4968,-404.9919 229,-413.122 257.46,-422.9667 287.5892,-441.3444 304.6204,-452.5809"/>
<text text-anchor="middle" x="172.5" y="-482.122" font-family="Helvetica,sans-Serif" font-size="10.00" fill="#000000">gko::Preconditionable</text>
<text text-anchor="middle" x="172.5" y="-471.122" font-family="Helvetica,sans-Serif" font-size="10.00" fill="#000000">gko::preconditioner::Ic</text>
<text text-anchor="middle" x="172.5" y="-460.122" font-family="Helvetica,sans-Serif" font-size="10.00" fill="#000000">gko::preconditioner::Ilu</text>
<text text-anchor="start" x="116" y="-449.122" font-family="Helvetica,sans-Serif" font-size="10.00" fill="#000000">gko::preconditioner</text>
<text text-anchor="middle" x="172.5" y="-438.122" font-family="Helvetica,sans-Serif" font-size="10.00" fill="#000000">::Isai</text>
<text text-anchor="start" x="116" y="-427.122" font-family="Helvetica,sans-Serif" font-size="10.00" fill="#000000">gko::preconditioner</text>
<text text-anchor="middle" x="172.5" y="-416.122" font-family="Helvetica,sans-Serif" font-size="10.00" fill="#000000">::Jacobi</text>
</g>
<!-- Node1&#45;&gt;Node3 -->
<g id="edge2" class="edge">
<title>Node1&#45;&gt;Node3</title>
<path fill="none" stroke="#000000" d="M108.4142,-385.9981C144.2613,-385.9169 190.3255,-382.5464 229,-369.122 257.0991,-359.3685 284.8191,-338.5852 301.7915,-324.2357"/>
<polygon fill="#000000" stroke="#000000" points="108.1363,-382.4964 98.1141,-385.9325 108.0916,-389.4962 108.1363,-382.4964"/>
</g>
<!-- Node1&#45;&gt;Node3 -->
<g id="edge6" class="edge">
<title>Node1&#45;&gt;Node3</title>
<path fill="none" stroke="#ffa500" stroke-dasharray="5,2" d="M49.8449,-373.49C52.8557,-345.7713 65.7483,-265.713 116,-233.122 158.1363,-205.7943 181.8572,-215.8064 229,-233.122 261.9116,-245.2105 290.9999,-275.3627 306.5457,-293.8485"/>
<text text-anchor="start" x="119.5" y="-357.122" font-family="Helvetica,sans-Serif" font-size="10.00" fill="#000000">gko::experimental::</text>
<text text-anchor="middle" x="172.5" y="-346.122" font-family="Helvetica,sans-Serif" font-size="10.00" fill="#000000">distributed::Vector</text>
<text text-anchor="middle" x="172.5" y="-335.122" font-family="Helvetica,sans-Serif" font-size="10.00" fill="#000000">gko::matrix::Coo</text>
<text text-anchor="middle" x="172.5" y="-324.122" font-family="Helvetica,sans-Serif" font-size="10.00" fill="#000000">gko::matrix::Csr</text>
<text text-anchor="middle" x="172.5" y="-313.122" font-family="Helvetica,sans-Serif" font-size="10.00" fill="#000000">gko::matrix::Dense</text>
<text text-anchor="middle" x="172.5" y="-302.122" font-family="Helvetica,sans-Serif" font-size="10.00" fill="#000000">gko::matrix::Diagonal</text>
<text text-anchor="middle" x="172.5" y="-291.122" font-family="Helvetica,sans-Serif" font-size="10.00" fill="#000000">gko::matrix::Ell</text>
<text text-anchor="middle" x="172.5" y="-280.122" font-family="Helvetica,sans-Serif" font-size="10.00" fill="#000000">gko::matrix::Fbcsr</text>
<text text-anchor="middle" x="172.5" y="-269.122" font-family="Helvetica,sans-Serif" font-size="10.00" fill="#000000">gko::matrix::Fft</text>
<text text-anchor="middle" x="172.5" y="-258.122" font-family="Helvetica,sans-Serif" font-size="10.00" fill="#000000">gko::matrix::Fft2</text>
<text text-anchor="middle" x="172.5" y="-247.122" font-family="Helvetica,sans-Serif" font-size="10.00" fill="#000000">gko::matrix::Fft3</text>
<text text-anchor="middle" x="172.5" y="-236.122" font-family="Helvetica,sans-Serif" font-size="10.00" fill="#000000">...</text>
</g>
<!-- Node1&#45;&gt;Node6 -->
<g id="edge8" class="edge">
<title>Node1&#45;&gt;Node6</title>
<path fill="none" stroke="#ffa500" stroke-dasharray="5,2" d="M50.8109,-373.6034C57.8196,-337.8724 84.3529,-212.6355 116,-190.122 138.13,-174.3789 207.3052,-178.0024 258.6802,-183.3506"/>
<text text-anchor="start" x="125" y="-204.122" font-family="Helvetica,sans-Serif" font-size="10.00" fill="#000000">gko::preconditioner</text>
<text text-anchor="middle" x="172.5" y="-193.122" font-family="Helvetica,sans-Serif" font-size="10.00" fill="#000000">::Jacobi</text>
</g>
<!-- Node5 -->
<g id="node6" class="node">
<title>Node5</title>
<g id="a_node6"><a xlink:href="group__solvers.html" target="_top" xlink:title="A module dedicated to the implementation and usage of the Solvers in Ginkgo.">
<polygon fill="#ffffff" stroke="#000000" points="345,-97.622 292,-97.622 292,-78.622 345,-78.622 345,-97.622"/>
<text text-anchor="middle" x="318.5" y="-85.622" font-family="Helvetica,sans-Serif" font-size="10.00" fill="#000000">Solvers</text>
</a>
</g>
</g>
<!-- Node1&#45;&gt;Node5 -->
<g id="edge4" class="edge">
<title>Node1&#45;&gt;Node5</title>
<path fill="none" stroke="#000000" d="M52.7879,-363.5502C62.202,-316.8503 87.9344,-200.799 116,-174.122 153.6626,-138.3229 181.3301,-164.8012 229,-144.122 258.2583,-131.4297 289.0904,-110.1204 305.8403,-97.7714"/>
<polygon fill="#000000" stroke="#000000" points="49.3074,-363.1092 50.7999,-373.5984 56.1743,-364.4679 49.3074,-363.1092"/>
</g>
<!-- Node1&#45;&gt;Node5 -->
<g id="edge9" class="edge">
<title>Node1&#45;&gt;Node5</title>
<path fill="none" stroke="#ffa500" stroke-dasharray="5,2" d="M49.1919,-373.4002C50.4617,-320.3208 59.4628,-66.2024 116,-19.122 154.5932,13.0158 181.4615,-2.9245 229,-19.122 263.9142,-31.0181 295.8161,-62.654 310.3006,-78.6212"/>
<text text-anchor="middle" x="172.5" y="-132.122" font-family="Helvetica,sans-Serif" font-size="10.00" fill="#000000">gko::solver::Bicg</text>
<text text-anchor="middle" x="172.5" y="-121.122" font-family="Helvetica,sans-Serif" font-size="10.00" fill="#000000">gko::solver::Bicgstab</text>
<text text-anchor="middle" x="172.5" y="-110.122" font-family="Helvetica,sans-Serif" font-size="10.00" fill="#000000">gko::solver::CbGmres</text>
<text text-anchor="middle" x="172.5" y="-99.122" font-family="Helvetica,sans-Serif" font-size="10.00" fill="#000000">gko::solver::Cg</text>
<text text-anchor="middle" x="172.5" y="-88.122" font-family="Helvetica,sans-Serif" font-size="10.00" fill="#000000">gko::solver::Cgs</text>
<text text-anchor="middle" x="172.5" y="-77.122" font-family="Helvetica,sans-Serif" font-size="10.00" fill="#000000">gko::solver::Fcg</text>
<text text-anchor="middle" x="172.5" y="-66.122" font-family="Helvetica,sans-Serif" font-size="10.00" fill="#000000">gko::solver::Gmres</text>
<text text-anchor="middle" x="172.5" y="-55.122" font-family="Helvetica,sans-Serif" font-size="10.00" fill="#000000">gko::solver::Idr</text>
<text text-anchor="middle" x="172.5" y="-44.122" font-family="Helvetica,sans-Serif" font-size="10.00" fill="#000000">gko::solver::Ir</text>
<text text-anchor="middle" x="172.5" y="-33.122" font-family="Helvetica,sans-Serif" font-size="10.00" fill="#000000">gko::solver::Multigrid</text>
<text text-anchor="middle" x="172.5" y="-22.122" font-family="Helvetica,sans-Serif" font-size="10.00" fill="#000000">...</text>
</g>
</g>
</svg>
        <g id="navigator" transform="translate(0 0)" fill="#404254">
                <rect fill="#f2f5e9" fill-opacity="0.5" stroke="#606060" stroke-width=".5" x="0" y="0" width="60" height="60"/>
                <use id="zoomplus" xlink:href="#zoomPlus" x="17" y="9" onmousedown="handleZoom(evt,'in')"/>
                <use id="zoomminus" xlink:href="#zoomMin" x="42" y="9" onmousedown="handleZoom(evt,'out')"/>
                <use id="reset" xlink:href="#resetDef" x="30" y="36" onmousedown="handleReset()"/>
                <g id="arrowUp" xlink:href="#dirArrow" transform="translate(30 24)" onmousedown="handlePan(0,-1)">
                  <use xlink:href="#rim" fill="#404040">
                        <set attributeName="fill" to="#808080" begin="arrowUp.mouseover" end="arrowUp.mouseout"/>
                  </use>
                  <path fill="none" stroke="white" stroke-width="1.5" d="M0,-3.0v7 M-2.5,-0.5L0,-3.0L2.5,-0.5"/>
                </g>
                <g id="arrowRight" xlink:href="#dirArrow" transform="rotate(90) translate(36 -43)" onmousedown="handlePan(1,0)">
                  <use xlink:href="#rim" fill="#404040">
                        <set attributeName="fill" to="#808080" begin="arrowRight.mouseover" end="arrowRight.mouseout"/>
                  </use>
                  <path fill="none" stroke="white" stroke-width="1.5" d="M0,-3.0v7 M-2.5,-0.5L0,-3.0L2.5,-0.5"/>
                </g>
                <g id="arrowDown" xlink:href="#dirArrow" transform="rotate(180) translate(-30 -48)" onmousedown="handlePan(0,1)">
                  <use xlink:href="#rim" fill="#404040">
                        <set attributeName="fill" to="#808080" begin="arrowDown.mouseover" end="arrowDown.mouseout"/>
                  </use>
                  <path fill="none" stroke="white" stroke-width="1.5" d="M0,-3.0v7 M-2.5,-0.5L0,-3.0L2.5,-0.5"/>
                </g>
                <g id="arrowLeft" xlink:href="#dirArrow" transform="rotate(270) translate(-36 17)" onmousedown="handlePan(-1,0)">
                  <use xlink:href="#rim" fill="#404040">
                        <set attributeName="fill" to="#808080" begin="arrowLeft.mouseover" end="arrowLeft.mouseout"/>
                  </use>
                  <path fill="none" stroke="white" stroke-width="1.5" d="M0,-3.0v7 M-2.5,-0.5L0,-3.0L2.5,-0.5"/>
                </g>
        </g>
        <svg viewBox="0 0 15 15" width="100%" height="30px" preserveAspectRatio="xMaxYMin meet">
         <g id="arrow_out" transform="scale(0.3 0.3)">
          <a xlink:href="group__LinOp_org.svg" target="_base">
           <rect id="button" ry="5" rx="5" y="6" x="6" height="38" width="38"
                fill="#f2f5e9" fill-opacity="0.5" stroke="#606060" stroke-width="1.0"/>
           <path id="arrow"
             d="M 11.500037,31.436501 C 11.940474,20.09759 22.043105,11.32322 32.158766,21.979434 L 37.068811,17.246167 C 37.068811,17.246167 37.088388,32 37.088388,32 L 22.160133,31.978069 C 22.160133,31.978069 26.997745,27.140456 26.997745,27.140456 C 18.528582,18.264221 13.291696,25.230495 11.500037,31.436501 z"
             style="fill:#404040;"/>
          </a>
         </g>
        </svg>
</svg>
