<?xml version="1.0" encoding="UTF-8" standalone="no"?>
<!DOCTYPE svg PUBLIC "-//W3C//DTD SVG 1.1//EN"
 "http://www.w3.org/Graphics/SVG/1.1/DTD/svg11.dtd">
<!-- Generated by graphviz version 2.40.1 (20161225.0304)
 -->
<!-- Title: gko::batch::solver::enable_preconditioned_iterative_solver_factory_parameters&lt; Parameters, Factory &gt; Pages: 1 -->
<svg width="838pt" height="143pt"
 viewBox="0.00 0.00 838.00 142.50" xmlns="http://www.w3.org/2000/svg" xmlns:xlink="http://www.w3.org/1999/xlink">
<g id="graph0" class="graph" transform="scale(1 1) rotate(0) translate(4 138.5)">
<title>gko::batch::solver::enable_preconditioned_iterative_solver_factory_parameters&lt; Parameters, Factory &gt;</title>
<polygon fill="#ffffff" stroke="transparent" points="-4,4 -4,-138.5 834,-138.5 834,4 -4,4"/>
<!-- Node1 -->
<g id="node1" class="node">
<title>Node1</title>
<g id="a_node1"><a xlink:title=" ">
<polygon fill="#bfbfbf" stroke="#000000" points="682,-33 682,-96 830,-96 830,-33 682,-33"/>
<text text-anchor="start" x="690" y="-84" font-family="Helvetica,sans-Serif" font-size="10.00" fill="#000000">gko::batch::solver</text>
<text text-anchor="start" x="690" y="-73" font-family="Helvetica,sans-Serif" font-size="10.00" fill="#000000">::enable_preconditioned</text>
<text text-anchor="start" x="690" y="-62" font-family="Helvetica,sans-Serif" font-size="10.00" fill="#000000">_iterative_solver_factory</text>
<text text-anchor="start" x="690" y="-51" font-family="Helvetica,sans-Serif" font-size="10.00" fill="#000000">_parameters&lt; Parameters,</text>
<text text-anchor="middle" x="756" y="-40" font-family="Helvetica,sans-Serif" font-size="10.00" fill="#000000"> Factory &gt;</text>
</a>
</g>
</g>
<!-- Node2 -->
<g id="node2" class="node">
<title>Node2</title>
<g id="a_node2"><a xlink:href="classgko_1_1enable__parameters__type.html" target="_top" xlink:title=" ">
<polygon fill="#ffffff" stroke="#000000" points="346,-98.5 346,-128.5 509,-128.5 509,-98.5 346,-98.5"/>
<text text-anchor="start" x="354" y="-116.5" font-family="Helvetica,sans-Serif" font-size="10.00" fill="#000000">gko::enable_parameters</text>
<text text-anchor="middle" x="427.5" y="-105.5" font-family="Helvetica,sans-Serif" font-size="10.00" fill="#000000">_type&lt; Parameters, Factory &gt;</text>
</a>
</g>
</g>
<!-- Node2&#45;&gt;Node1 -->
<g id="edge1" class="edge">
<title>Node2&#45;&gt;Node1</title>
<path fill="none" stroke="#191970" d="M519.1698,-100.731C563.0267,-94.5173 616.2615,-86.8226 664,-79.5 669.7586,-78.6167 675.7169,-77.6852 681.7049,-76.7365"/>
<polygon fill="#191970" stroke="#191970" points="518.5103,-97.2894 509.0989,-102.1552 519.4905,-104.2204 518.5103,-97.2894"/>
</g>
<!-- Node3 -->
<g id="node3" class="node">
<title>Node3</title>
<g id="a_node3"><a xlink:href="classgko_1_1enable__parameters__type.html" target="_top" xlink:title="The enable_parameters_type mixin is used to create a base implementation of the factory parameters st...">
<polygon fill="#ffffff" stroke="#000000" points="0,-93 0,-134 179,-134 179,-93 0,-93"/>
<text text-anchor="start" x="8" y="-122" font-family="Helvetica,sans-Serif" font-size="10.00" fill="#000000">gko::enable_parameters</text>
<text text-anchor="start" x="8" y="-111" font-family="Helvetica,sans-Serif" font-size="10.00" fill="#000000">_type&lt; ConcreteParametersType,</text>
<text text-anchor="middle" x="89.5" y="-100" font-family="Helvetica,sans-Serif" font-size="10.00" fill="#000000"> Factory &gt;</text>
</a>
</g>
</g>
<!-- Node3&#45;&gt;Node2 -->
<g id="edge2" class="edge">
<title>Node3&#45;&gt;Node2</title>
<path fill="none" stroke="#ffa500" stroke-dasharray="5,2" d="M189.3453,-113.5C239.1817,-113.5 298.7137,-113.5 345.7899,-113.5"/>
<polygon fill="#ffa500" stroke="#ffa500" points="189.1904,-110.0001 179.1904,-113.5 189.1904,-117.0001 189.1904,-110.0001"/>
<text text-anchor="middle" x="258.5" y="-116.5" font-family="Helvetica,sans-Serif" font-size="10.00" fill="#000000"> &lt; Parameters, Factory &gt;</text>
</g>
<!-- Node4 -->
<g id="node4" class="node">
<title>Node4</title>
<g id="a_node4"><a xlink:title=" ">
<polygon fill="#ffffff" stroke="#bfbfbf" points="356,-49.5 356,-79.5 499,-79.5 499,-49.5 356,-49.5"/>
<text text-anchor="start" x="364" y="-67.5" font-family="Helvetica,sans-Serif" font-size="10.00" fill="#000000">std::shared_ptr&lt; const</text>
<text text-anchor="middle" x="427.5" y="-56.5" font-family="Helvetica,sans-Serif" font-size="10.00" fill="#000000"> gko::batch::BatchLinOp &gt;</text>
</a>
</g>
</g>
<!-- Node4&#45;&gt;Node1 -->
<g id="edge3" class="edge">
<title>Node4&#45;&gt;Node1</title>
<path fill="none" stroke="#9a32cd" stroke-dasharray="5,2" d="M509.2191,-64.5C562.158,-64.5 630.5511,-64.5 681.9066,-64.5"/>
<polygon fill="#9a32cd" stroke="#9a32cd" points="509.1848,-61.0001 499.1848,-64.5 509.1848,-68.0001 509.1848,-61.0001"/>
<text text-anchor="middle" x="599.5" y="-67.5" font-family="Helvetica,sans-Serif" font-size="10.00" fill="#000000"> generated_preconditioner</text>
</g>
<!-- Node5 -->
<g id="node5" class="node">
<title>Node5</title>
<g id="a_node5"><a xlink:title="STL class.">
<polygon fill="#ffffff" stroke="#bfbfbf" points="30.5,-33 30.5,-52 148.5,-52 148.5,-33 30.5,-33"/>
<text text-anchor="middle" x="89.5" y="-40" font-family="Helvetica,sans-Serif" font-size="10.00" fill="#000000">std::shared_ptr&lt; T &gt;</text>
</a>
</g>
</g>
<!-- Node5&#45;&gt;Node4 -->
<g id="edge4" class="edge">
<title>Node5&#45;&gt;Node4</title>
<path fill="none" stroke="#ffa500" stroke-dasharray="5,2" d="M158.8537,-47.0141C216.3763,-50.7582 297.8576,-56.0617 355.9731,-59.8444"/>
<polygon fill="#ffa500" stroke="#ffa500" points="158.9681,-43.5143 148.7619,-46.3573 158.5134,-50.4995 158.9681,-43.5143"/>
<text text-anchor="start" x="211" y="-70.5" font-family="Helvetica,sans-Serif" font-size="10.00" fill="#000000"> &lt; const gko::batch</text>
<text text-anchor="middle" x="258.5" y="-59.5" font-family="Helvetica,sans-Serif" font-size="10.00" fill="#000000">::BatchLinOp &gt;</text>
</g>
<!-- Node6 -->
<g id="node6" class="node">
<title>Node6</title>
<g id="a_node6"><a xlink:title=" ">
<polygon fill="#ffffff" stroke="#bfbfbf" points="338,-.5 338,-30.5 517,-30.5 517,-.5 338,-.5"/>
<text text-anchor="start" x="346" y="-18.5" font-family="Helvetica,sans-Serif" font-size="10.00" fill="#000000">std::shared_ptr&lt; const</text>
<text text-anchor="middle" x="427.5" y="-7.5" font-family="Helvetica,sans-Serif" font-size="10.00" fill="#000000"> gko::batch::BatchLinOpFactory &gt;</text>
</a>
</g>
</g>
<!-- Node5&#45;&gt;Node6 -->
<g id="edge6" class="edge">
<title>Node5&#45;&gt;Node6</title>
<path fill="none" stroke="#ffa500" stroke-dasharray="5,2" d="M145.1665,-31.1302C161.7742,-28.1532 180.0644,-25.2816 197,-23.5 243.2927,-18.63 295.0733,-16.5332 337.8116,-15.6953"/>
<polygon fill="#ffa500" stroke="#ffa500" points="144.2717,-27.736 135.0705,-32.9885 145.5389,-34.6203 144.2717,-27.736"/>
<text text-anchor="start" x="204" y="-37.5" font-family="Helvetica,sans-Serif" font-size="10.00" fill="#000000"> &lt; const gko::batch</text>
<text text-anchor="middle" x="258.5" y="-26.5" font-family="Helvetica,sans-Serif" font-size="10.00" fill="#000000">::BatchLinOpFactory &gt;</text>
</g>
<!-- Node6&#45;&gt;Node1 -->
<g id="edge5" class="edge">
<title>Node6&#45;&gt;Node1</title>
<path fill="none" stroke="#9a32cd" stroke-dasharray="5,2" d="M527.1288,-29.3983C569.369,-35.4009 619.114,-42.615 664,-49.5 669.7586,-50.3833 675.7169,-51.3148 681.7049,-52.2635"/>
<polygon fill="#9a32cd" stroke="#9a32cd" points="527.5133,-25.9179 517.1208,-27.9788 526.5302,-32.8485 527.5133,-25.9179"/>
<text text-anchor="middle" x="599.5" y="-52.5" font-family="Helvetica,sans-Serif" font-size="10.00" fill="#000000"> preconditioner</text>
</g>
</g>
</svg>
