<?xml version="1.0" encoding="UTF-8" standalone="no"?>
<!DOCTYPE svg PUBLIC "-//W3C//DTD SVG 1.1//EN"
 "http://www.w3.org/Graphics/SVG/1.1/DTD/svg11.dtd">
<!-- Generated by graphviz version 2.40.1 (20161225.0304)
 -->
<!-- Title: gko::solver::Multigrid::parameters_type Pages: 1 -->
<svg width="1273pt" height="110pt"
 viewBox="0.00 0.00 1273.00 109.50" xmlns="http://www.w3.org/2000/svg" xmlns:xlink="http://www.w3.org/1999/xlink">
<g id="graph0" class="graph" transform="scale(1 1) rotate(0) translate(4 105.5)">
<title>gko::solver::Multigrid::parameters_type</title>
<polygon fill="#ffffff" stroke="transparent" points="-4,4 -4,-105.5 1269,-105.5 1269,4 -4,4"/>
<!-- Node1 -->
<g id="node1" class="node">
<title>Node1</title>
<g id="a_node1"><a xlink:title=" ">
<polygon fill="#bfbfbf" stroke="#000000" points="1146,-43.5 1146,-73.5 1265,-73.5 1265,-43.5 1146,-43.5"/>
<text text-anchor="start" x="1154" y="-61.5" font-family="Helvetica,sans-Serif" font-size="10.00" fill="#000000">gko::solver::Multigrid</text>
<text text-anchor="middle" x="1205.5" y="-50.5" font-family="Helvetica,sans-Serif" font-size="10.00" fill="#000000">::parameters_type</text>
</a>
</g>
</g>
<!-- Node2 -->
<g id="node2" class="node">
<title>Node2</title>
<g id="a_node2"><a xlink:href="structgko_1_1solver_1_1enable__iterative__solver__factory__parameters.html" target="_top" xlink:title=" ">
<polygon fill="#ffffff" stroke="#000000" points="963,-32.5 963,-84.5 1109,-84.5 1109,-32.5 963,-32.5"/>
<text text-anchor="start" x="971" y="-72.5" font-family="Helvetica,sans-Serif" font-size="10.00" fill="#000000">gko::solver::enable</text>
<text text-anchor="start" x="971" y="-61.5" font-family="Helvetica,sans-Serif" font-size="10.00" fill="#000000">_iterative_solver_factory</text>
<text text-anchor="start" x="971" y="-50.5" font-family="Helvetica,sans-Serif" font-size="10.00" fill="#000000">_parameters&lt; parameters</text>
<text text-anchor="middle" x="1036" y="-39.5" font-family="Helvetica,sans-Serif" font-size="10.00" fill="#000000">_type, Factory &gt;</text>
</a>
</g>
</g>
<!-- Node2&#45;&gt;Node1 -->
<g id="edge1" class="edge">
<title>Node2&#45;&gt;Node1</title>
<path fill="none" stroke="#191970" d="M1119.3915,-58.5C1128.3034,-58.5 1137.2352,-58.5 1145.7928,-58.5"/>
<polygon fill="#191970" stroke="#191970" points="1119.3594,-55.0001 1109.3593,-58.5 1119.3593,-62.0001 1119.3594,-55.0001"/>
</g>
<!-- Node3 -->
<g id="node3" class="node">
<title>Node3</title>
<g id="a_node3"><a xlink:href="classgko_1_1enable__parameters__type.html" target="_top" xlink:title=" ">
<polygon fill="#ffffff" stroke="#000000" points="519,-60 519,-101 660,-101 660,-60 519,-60"/>
<text text-anchor="start" x="527" y="-89" font-family="Helvetica,sans-Serif" font-size="10.00" fill="#000000">gko::enable_parameters</text>
<text text-anchor="start" x="527" y="-78" font-family="Helvetica,sans-Serif" font-size="10.00" fill="#000000">_type&lt; parameters_type,</text>
<text text-anchor="middle" x="589.5" y="-67" font-family="Helvetica,sans-Serif" font-size="10.00" fill="#000000"> Factory &gt;</text>
</a>
</g>
</g>
<!-- Node3&#45;&gt;Node2 -->
<g id="edge2" class="edge">
<title>Node3&#45;&gt;Node2</title>
<path fill="none" stroke="#191970" d="M670.4224,-78.9696C742.5256,-77.2655 850.8841,-73.8688 945,-67.5 950.7022,-67.1141 956.6002,-66.6588 962.5262,-66.1612"/>
<polygon fill="#191970" stroke="#191970" points="669.9698,-75.479 660.0533,-79.2089 670.1314,-82.4771 669.9698,-75.479"/>
</g>
<!-- Node4 -->
<g id="node4" class="node">
<title>Node4</title>
<g id="a_node4"><a xlink:href="classgko_1_1enable__parameters__type.html" target="_top" xlink:title="The enable_parameters_type mixin is used to create a base implementation of the factory parameters st...">
<polygon fill="#ffffff" stroke="#000000" points="0,-37 0,-78 179,-78 179,-37 0,-37"/>
<text text-anchor="start" x="8" y="-66" font-family="Helvetica,sans-Serif" font-size="10.00" fill="#000000">gko::enable_parameters</text>
<text text-anchor="start" x="8" y="-55" font-family="Helvetica,sans-Serif" font-size="10.00" fill="#000000">_type&lt; ConcreteParametersType,</text>
<text text-anchor="middle" x="89.5" y="-44" font-family="Helvetica,sans-Serif" font-size="10.00" fill="#000000"> Factory &gt;</text>
</a>
</g>
</g>
<!-- Node4&#45;&gt;Node3 -->
<g id="edge3" class="edge">
<title>Node4&#45;&gt;Node3</title>
<path fill="none" stroke="#ffa500" stroke-dasharray="5,2" d="M189.3403,-62.0927C286.8117,-66.5763 432.6614,-73.2854 518.7357,-77.2448"/>
<polygon fill="#ffa500" stroke="#ffa500" points="189.3288,-58.5885 179.1785,-61.6252 189.0071,-65.5811 189.3288,-58.5885"/>
<text text-anchor="start" x="208" y="-82.5" font-family="Helvetica,sans-Serif" font-size="10.00" fill="#000000"> &lt; parameters_type,</text>
<text text-anchor="middle" x="258.5" y="-71.5" font-family="Helvetica,sans-Serif" font-size="10.00" fill="#000000"> Factory &gt;</text>
</g>
<!-- Node6 -->
<g id="node6" class="node">
<title>Node6</title>
<g id="a_node6"><a xlink:href="classgko_1_1enable__parameters__type.html" target="_top" xlink:title=" ">
<polygon fill="#ffffff" stroke="#000000" points="338,-19.5 338,-49.5 501,-49.5 501,-19.5 338,-19.5"/>
<text text-anchor="start" x="346" y="-37.5" font-family="Helvetica,sans-Serif" font-size="10.00" fill="#000000">gko::enable_parameters</text>
<text text-anchor="middle" x="419.5" y="-26.5" font-family="Helvetica,sans-Serif" font-size="10.00" fill="#000000">_type&lt; Parameters, Factory &gt;</text>
</a>
</g>
</g>
<!-- Node4&#45;&gt;Node6 -->
<g id="edge6" class="edge">
<title>Node4&#45;&gt;Node6</title>
<path fill="none" stroke="#ffa500" stroke-dasharray="5,2" d="M189.3017,-47.1223C191.8937,-46.906 194.4633,-46.6981 197,-46.5 243.5699,-42.8637 295.7098,-39.9879 337.8043,-37.9643"/>
<polygon fill="#ffa500" stroke="#ffa500" points="188.8774,-43.6458 179.2159,-47.994 189.4802,-50.6198 188.8774,-43.6458"/>
<text text-anchor="middle" x="258.5" y="-49.5" font-family="Helvetica,sans-Serif" font-size="10.00" fill="#000000"> &lt; Parameters, Factory &gt;</text>
</g>
<!-- Node5 -->
<g id="node5" class="node">
<title>Node5</title>
<g id="a_node5"><a xlink:href="structgko_1_1solver_1_1enable__iterative__solver__factory__parameters.html" target="_top" xlink:title=" ">
<polygon fill="#ffffff" stroke="#000000" points="678,-.5 678,-52.5 826,-52.5 826,-.5 678,-.5"/>
<text text-anchor="start" x="686" y="-40.5" font-family="Helvetica,sans-Serif" font-size="10.00" fill="#000000">gko::solver::enable</text>
<text text-anchor="start" x="686" y="-29.5" font-family="Helvetica,sans-Serif" font-size="10.00" fill="#000000">_iterative_solver_factory</text>
<text text-anchor="start" x="686" y="-18.5" font-family="Helvetica,sans-Serif" font-size="10.00" fill="#000000">_parameters&lt; Parameters,</text>
<text text-anchor="middle" x="752" y="-7.5" font-family="Helvetica,sans-Serif" font-size="10.00" fill="#000000"> Factory &gt;</text>
</a>
</g>
</g>
<!-- Node5&#45;&gt;Node2 -->
<g id="edge4" class="edge">
<title>Node5&#45;&gt;Node2</title>
<path fill="none" stroke="#ffa500" stroke-dasharray="5,2" d="M836.6099,-34.0213C870.3652,-37.2329 909.5572,-41.2259 945,-45.5 950.7039,-46.1879 956.6032,-46.9393 962.53,-47.7229"/>
<polygon fill="#ffa500" stroke="#ffa500" points="836.6034,-30.5053 826.3188,-33.0503 835.9458,-37.4743 836.6034,-30.5053"/>
<text text-anchor="start" x="844" y="-59.5" font-family="Helvetica,sans-Serif" font-size="10.00" fill="#000000"> &lt; parameters_type,</text>
<text text-anchor="middle" x="894.5" y="-48.5" font-family="Helvetica,sans-Serif" font-size="10.00" fill="#000000"> Factory &gt;</text>
</g>
<!-- Node6&#45;&gt;Node5 -->
<g id="edge5" class="edge">
<title>Node6&#45;&gt;Node5</title>
<path fill="none" stroke="#191970" d="M511.5773,-32.2846C564.0079,-31.0231 628.8191,-29.4638 677.934,-28.282"/>
<polygon fill="#191970" stroke="#191970" points="511.1774,-28.7931 501.2645,-32.5327 511.3458,-35.7911 511.1774,-28.7931"/>
</g>
</g>
</svg>
