<?xml version="1.0" encoding="UTF-8" standalone="no"?>
<!DOCTYPE svg PUBLIC "-//W3C//DTD SVG 1.1//EN"
 "http://www.w3.org/Graphics/SVG/1.1/DTD/svg11.dtd">
<!-- Generated by graphviz version 2.40.1 (20161225.0304)
 -->
<!-- Title: gko::preconditioner::Isai&lt; IsaiType, ValueType, IndexType &gt;::parameters_type Pages: 1 -->
<svg width="824pt" height="101pt"
 viewBox="0.00 0.00 824.00 100.50" xmlns="http://www.w3.org/2000/svg" xmlns:xlink="http://www.w3.org/1999/xlink">
<g id="graph0" class="graph" transform="scale(1 1) rotate(0) translate(4 96.5)">
<title>gko::preconditioner::Isai&lt; IsaiType, ValueType, IndexType &gt;::parameters_type</title>
<polygon fill="#ffffff" stroke="transparent" points="-4,4 -4,-96.5 820,-96.5 820,4 -4,4"/>
<!-- Node1 -->
<g id="node1" class="node">
<title>Node1</title>
<g id="a_node1"><a xlink:title=" ">
<polygon fill="#bfbfbf" stroke="#000000" points="646,-22 646,-63 816,-63 816,-22 646,-22"/>
<text text-anchor="start" x="654" y="-51" font-family="Helvetica,sans-Serif" font-size="10.00" fill="#000000">gko::preconditioner</text>
<text text-anchor="start" x="654" y="-40" font-family="Helvetica,sans-Serif" font-size="10.00" fill="#000000">::Isai&lt; IsaiType, ValueType,</text>
<text text-anchor="middle" x="731" y="-29" font-family="Helvetica,sans-Serif" font-size="10.00" fill="#000000"> IndexType &gt;::parameters_type</text>
</a>
</g>
</g>
<!-- Node2 -->
<g id="node2" class="node">
<title>Node2</title>
<g id="a_node2"><a xlink:href="classgko_1_1enable__parameters__type.html" target="_top" xlink:title=" ">
<polygon fill="#ffffff" stroke="#000000" points="357,-50 357,-91 498,-91 498,-50 357,-50"/>
<text text-anchor="start" x="365" y="-79" font-family="Helvetica,sans-Serif" font-size="10.00" fill="#000000">gko::enable_parameters</text>
<text text-anchor="start" x="365" y="-68" font-family="Helvetica,sans-Serif" font-size="10.00" fill="#000000">_type&lt; parameters_type,</text>
<text text-anchor="middle" x="427.5" y="-57" font-family="Helvetica,sans-Serif" font-size="10.00" fill="#000000"> Factory &gt;</text>
</a>
</g>
</g>
<!-- Node2&#45;&gt;Node1 -->
<g id="edge1" class="edge">
<title>Node2&#45;&gt;Node1</title>
<path fill="none" stroke="#191970" d="M508.2861,-63.0469C550.7199,-59.1321 602.7083,-54.3358 645.7805,-50.3621"/>
<polygon fill="#191970" stroke="#191970" points="507.9104,-59.5666 498.2742,-63.9706 508.5535,-66.537 507.9104,-59.5666"/>
</g>
<!-- Node3 -->
<g id="node3" class="node">
<title>Node3</title>
<g id="a_node3"><a xlink:href="classgko_1_1enable__parameters__type.html" target="_top" xlink:title="The enable_parameters_type mixin is used to create a base implementation of the factory parameters st...">
<polygon fill="#ffffff" stroke="#000000" points="0,-50 0,-91 179,-91 179,-50 0,-50"/>
<text text-anchor="start" x="8" y="-79" font-family="Helvetica,sans-Serif" font-size="10.00" fill="#000000">gko::enable_parameters</text>
<text text-anchor="start" x="8" y="-68" font-family="Helvetica,sans-Serif" font-size="10.00" fill="#000000">_type&lt; ConcreteParametersType,</text>
<text text-anchor="middle" x="89.5" y="-57" font-family="Helvetica,sans-Serif" font-size="10.00" fill="#000000"> Factory &gt;</text>
</a>
</g>
</g>
<!-- Node3&#45;&gt;Node2 -->
<g id="edge2" class="edge">
<title>Node3&#45;&gt;Node2</title>
<path fill="none" stroke="#ffa500" stroke-dasharray="5,2" d="M189.4527,-70.5C243.2963,-70.5 308.4325,-70.5 356.9488,-70.5"/>
<polygon fill="#ffa500" stroke="#ffa500" points="189.1904,-67.0001 179.1904,-70.5 189.1904,-74.0001 189.1904,-67.0001"/>
<text text-anchor="start" x="217.5" y="-84.5" font-family="Helvetica,sans-Serif" font-size="10.00" fill="#000000"> &lt; parameters_type,</text>
<text text-anchor="middle" x="268" y="-73.5" font-family="Helvetica,sans-Serif" font-size="10.00" fill="#000000"> Factory &gt;</text>
</g>
<!-- Node4 -->
<g id="node4" class="node">
<title>Node4</title>
<g id="a_node4"><a xlink:title=" ">
<polygon fill="#ffffff" stroke="#bfbfbf" points="364,-.5 364,-30.5 491,-30.5 491,-.5 364,-.5"/>
<text text-anchor="start" x="372" y="-18.5" font-family="Helvetica,sans-Serif" font-size="10.00" fill="#000000">std::shared_ptr&lt; const</text>
<text text-anchor="middle" x="427.5" y="-7.5" font-family="Helvetica,sans-Serif" font-size="10.00" fill="#000000"> gko::LinOpFactory &gt;</text>
</a>
</g>
</g>
<!-- Node4&#45;&gt;Node1 -->
<g id="edge3" class="edge">
<title>Node4&#45;&gt;Node1</title>
<path fill="none" stroke="#9a32cd" stroke-dasharray="5,2" d="M501.1016,-22.0478C544.7695,-25.9325 600.3116,-30.8737 645.863,-34.926"/>
<polygon fill="#9a32cd" stroke="#9a32cd" points="501.3944,-18.5601 491.1235,-21.1601 500.774,-25.5325 501.3944,-18.5601"/>
<text text-anchor="middle" x="572" y="-36.5" font-family="Helvetica,sans-Serif" font-size="10.00" fill="#000000"> excess_solver_factory</text>
</g>
<!-- Node5 -->
<g id="node5" class="node">
<title>Node5</title>
<g id="a_node5"><a xlink:title="STL class.">
<polygon fill="#ffffff" stroke="#bfbfbf" points="30.5,-6 30.5,-25 148.5,-25 148.5,-6 30.5,-6"/>
<text text-anchor="middle" x="89.5" y="-13" font-family="Helvetica,sans-Serif" font-size="10.00" fill="#000000">std::shared_ptr&lt; T &gt;</text>
</a>
</g>
</g>
<!-- Node5&#45;&gt;Node4 -->
<g id="edge4" class="edge">
<title>Node5&#45;&gt;Node4</title>
<path fill="none" stroke="#ffa500" stroke-dasharray="5,2" d="M158.9393,-15.5C219.1571,-15.5 305.5842,-15.5 363.9942,-15.5"/>
<polygon fill="#ffa500" stroke="#ffa500" points="158.7619,-12.0001 148.7619,-15.5 158.7619,-19.0001 158.7619,-12.0001"/>
<text text-anchor="middle" x="268" y="-18.5" font-family="Helvetica,sans-Serif" font-size="10.00" fill="#000000"> &lt; const gko::LinOpFactory &gt;</text>
</g>
</g>
</svg>
