<?xml version="1.0" encoding="UTF-8" standalone="no"?>
<!DOCTYPE svg PUBLIC "-//W3C//DTD SVG 1.1//EN"
 "http://www.w3.org/Graphics/SVG/1.1/DTD/svg11.dtd">
<!-- Generated by graphviz version 2.40.1 (20161225.0304)
 -->
<!-- Title: gko::log::criterion_data Pages: 1 -->
<svg width="1688pt" height="155pt"
 viewBox="0.00 0.00 1688.00 154.50" xmlns="http://www.w3.org/2000/svg" xmlns:xlink="http://www.w3.org/1999/xlink">
<g id="graph0" class="graph" transform="scale(1 1) rotate(0) translate(4 150.5)">
<title>gko::log::criterion_data</title>
<polygon fill="#ffffff" stroke="transparent" points="-4,4 -4,-150.5 1684,-150.5 1684,4 -4,4"/>
<!-- Node1 -->
<g id="node1" class="node">
<title>Node1</title>
<g id="a_node1"><a xlink:title="Struct representing Criterion related data.">
<polygon fill="#bfbfbf" stroke="#000000" points="1551,-50 1551,-69 1680,-69 1680,-50 1551,-50"/>
<text text-anchor="middle" x="1615.5" y="-57" font-family="Helvetica,sans-Serif" font-size="10.00" fill="#000000">gko::log::criterion_data</text>
</a>
</g>
</g>
<!-- Node2 -->
<g id="node2" class="node">
<title>Node2</title>
<g id="a_node2"><a xlink:title=" ">
<polygon fill="#ffffff" stroke="#bfbfbf" points="1307,-88.5 1307,-118.5 1434,-118.5 1434,-88.5 1307,-88.5"/>
<text text-anchor="start" x="1315" y="-106.5" font-family="Helvetica,sans-Serif" font-size="10.00" fill="#000000">std::unique_ptr&lt; const</text>
<text text-anchor="middle" x="1370.5" y="-95.5" font-family="Helvetica,sans-Serif" font-size="10.00" fill="#000000"> gko::LinOp &gt;</text>
</a>
</g>
</g>
<!-- Node2&#45;&gt;Node1 -->
<g id="edge1" class="edge">
<title>Node2&#45;&gt;Node1</title>
<path fill="none" stroke="#9a32cd" stroke-dasharray="5,2" d="M1444.2297,-90.3943C1472.0534,-85.4349 1503.9878,-79.7262 1533,-74.5 1542.7424,-72.745 1553.1301,-70.864 1563.1329,-69.0478"/>
<polygon fill="#9a32cd" stroke="#9a32cd" points="1443.4089,-86.9854 1434.1779,-92.1853 1444.6368,-93.8768 1443.4089,-86.9854"/>
<text text-anchor="middle" x="1496.5" y="-111.5" font-family="Helvetica,sans-Serif" font-size="10.00" fill="#000000"> residual_norm</text>
<text text-anchor="middle" x="1496.5" y="-100.5" font-family="Helvetica,sans-Serif" font-size="10.00" fill="#000000">solution</text>
<text text-anchor="middle" x="1496.5" y="-89.5" font-family="Helvetica,sans-Serif" font-size="10.00" fill="#000000">residual</text>
</g>
<!-- Node3 -->
<g id="node3" class="node">
<title>Node3</title>
<g id="a_node3"><a xlink:title="STL class.">
<polygon fill="#ffffff" stroke="#bfbfbf" points="989.5,-94 989.5,-113 1107.5,-113 1107.5,-94 989.5,-94"/>
<text text-anchor="middle" x="1048.5" y="-101" font-family="Helvetica,sans-Serif" font-size="10.00" fill="#000000">std::unique_ptr&lt; T &gt;</text>
</a>
</g>
</g>
<!-- Node3&#45;&gt;Node2 -->
<g id="edge2" class="edge">
<title>Node3&#45;&gt;Node2</title>
<path fill="none" stroke="#ffa500" stroke-dasharray="5,2" d="M1117.7668,-103.5C1173.8797,-103.5 1252.3037,-103.5 1306.8531,-103.5"/>
<polygon fill="#ffa500" stroke="#ffa500" points="1117.5598,-100.0001 1107.5598,-103.5 1117.5597,-107.0001 1117.5598,-100.0001"/>
<text text-anchor="middle" x="1217.5" y="-106.5" font-family="Helvetica,sans-Serif" font-size="10.00" fill="#000000"> &lt; const gko::LinOp &gt;</text>
</g>
<!-- Node4 -->
<g id="node4" class="node">
<title>Node4</title>
<g id="a_node4"><a xlink:href="classgko_1_1stop_1_1Criterion.html" target="_top" xlink:title="The Criterion class is a base class for all stopping criteria.">
<polygon fill="#ffffff" stroke="#000000" points="1315.5,-50 1315.5,-69 1425.5,-69 1425.5,-50 1315.5,-50"/>
<text text-anchor="middle" x="1370.5" y="-57" font-family="Helvetica,sans-Serif" font-size="10.00" fill="#000000">gko::stop::Criterion</text>
</a>
</g>
</g>
<!-- Node4&#45;&gt;Node1 -->
<g id="edge3" class="edge">
<title>Node4&#45;&gt;Node1</title>
<path fill="none" stroke="#9a32cd" stroke-dasharray="5,2" d="M1436.0655,-59.5C1471.6369,-59.5 1515.4454,-59.5 1550.8707,-59.5"/>
<polygon fill="#9a32cd" stroke="#9a32cd" points="1435.7883,-56.0001 1425.7883,-59.5 1435.7882,-63.0001 1435.7883,-56.0001"/>
<text text-anchor="middle" x="1496.5" y="-62.5" font-family="Helvetica,sans-Serif" font-size="10.00" fill="#000000"> criterion</text>
</g>
<!-- Node5 -->
<g id="node5" class="node">
<title>Node5</title>
<g id="a_node5"><a xlink:href="classgko_1_1EnableAbstractPolymorphicObject.html" target="_top" xlink:title=" ">
<polygon fill="#ffffff" stroke="#000000" points="961,-44.5 961,-74.5 1136,-74.5 1136,-44.5 961,-44.5"/>
<text text-anchor="start" x="969" y="-62.5" font-family="Helvetica,sans-Serif" font-size="10.00" fill="#000000">gko::EnableAbstractPolymorphic</text>
<text text-anchor="middle" x="1048.5" y="-51.5" font-family="Helvetica,sans-Serif" font-size="10.00" fill="#000000">Object&lt; Criterion &gt;</text>
</a>
</g>
</g>
<!-- Node5&#45;&gt;Node4 -->
<g id="edge4" class="edge">
<title>Node5&#45;&gt;Node4</title>
<path fill="none" stroke="#191970" d="M1146.2666,-59.5C1201.697,-59.5 1269.0167,-59.5 1315.3428,-59.5"/>
<polygon fill="#191970" stroke="#191970" points="1146.0626,-56.0001 1136.0626,-59.5 1146.0626,-63.0001 1146.0626,-56.0001"/>
</g>
<!-- Node6 -->
<g id="node6" class="node">
<title>Node6</title>
<g id="a_node6"><a xlink:href="classgko_1_1PolymorphicObject.html" target="_top" xlink:title="A PolymorphicObject is the abstract base for all &quot;heavy&quot; objects in Ginkgo that behave polymorphicall...">
<polygon fill="#ffffff" stroke="#000000" points="791,-74 791,-93 924,-93 924,-74 791,-74"/>
<text text-anchor="middle" x="857.5" y="-81" font-family="Helvetica,sans-Serif" font-size="10.00" fill="#000000">gko::PolymorphicObject</text>
</a>
</g>
</g>
<!-- Node6&#45;&gt;Node5 -->
<g id="edge5" class="edge">
<title>Node6&#45;&gt;Node5</title>
<path fill="none" stroke="#191970" d="M934.164,-73.8668C942.8942,-72.7698 951.8431,-71.6454 960.703,-70.5321"/>
<polygon fill="#191970" stroke="#191970" points="933.52,-70.4201 924.0344,-75.1397 934.3928,-77.3655 933.52,-70.4201"/>
</g>
<!-- Node7 -->
<g id="node7" class="node">
<title>Node7</title>
<g id="a_node7"><a xlink:href="classgko_1_1log_1_1EnableLogging.html" target="_top" xlink:title=" ">
<polygon fill="#ffffff" stroke="#000000" points="554,-72.5 554,-102.5 687,-102.5 687,-72.5 554,-72.5"/>
<text text-anchor="start" x="562" y="-90.5" font-family="Helvetica,sans-Serif" font-size="10.00" fill="#000000">gko::log::EnableLogging</text>
<text text-anchor="middle" x="620.5" y="-79.5" font-family="Helvetica,sans-Serif" font-size="10.00" fill="#000000">&lt; PolymorphicObject &gt;</text>
</a>
</g>
</g>
<!-- Node7&#45;&gt;Node6 -->
<g id="edge6" class="edge">
<title>Node7&#45;&gt;Node6</title>
<path fill="none" stroke="#191970" d="M697.2213,-86.2051C727.4331,-85.6952 761.7998,-85.1152 790.9416,-84.6233"/>
<polygon fill="#191970" stroke="#191970" points="697.0879,-82.7068 687.1484,-86.3751 697.2061,-89.7058 697.0879,-82.7068"/>
</g>
<!-- Node8 -->
<g id="node8" class="node">
<title>Node8</title>
<g id="a_node8"><a xlink:href="classgko_1_1log_1_1Loggable.html" target="_top" xlink:title="Loggable class is an interface which should be implemented by classes wanting to support logging.">
<polygon fill="#ffffff" stroke="#000000" points="176,-127 176,-146 282,-146 282,-127 176,-127"/>
<text text-anchor="middle" x="229" y="-134" font-family="Helvetica,sans-Serif" font-size="10.00" fill="#000000">gko::log::Loggable</text>
</a>
</g>
</g>
<!-- Node8&#45;&gt;Node7 -->
<g id="edge7" class="edge">
<title>Node8&#45;&gt;Node7</title>
<path fill="none" stroke="#191970" d="M292.1473,-130.7241C354.3208,-124.7506 451.9097,-114.6069 536,-102.5 541.7515,-101.6719 547.7117,-100.748 553.6836,-99.7767"/>
<polygon fill="#191970" stroke="#191970" points="291.7237,-127.2485 282.1014,-131.6825 292.3887,-134.2168 291.7237,-127.2485"/>
</g>
<!-- Node9 -->
<g id="node9" class="node">
<title>Node9</title>
<g id="a_node9"><a xlink:href="classgko_1_1log_1_1EnableLogging.html" target="_top" xlink:title="EnableLogging is a mixin which should be inherited by any class which wants to enable logging.">
<polygon fill="#ffffff" stroke="#000000" points="138,-67 138,-108 320,-108 320,-67 138,-67"/>
<text text-anchor="start" x="146" y="-96" font-family="Helvetica,sans-Serif" font-size="10.00" fill="#000000">gko::log::EnableLogging</text>
<text text-anchor="start" x="146" y="-85" font-family="Helvetica,sans-Serif" font-size="10.00" fill="#000000">&lt; ConcreteLoggable, Polymorphic</text>
<text text-anchor="middle" x="229" y="-74" font-family="Helvetica,sans-Serif" font-size="10.00" fill="#000000">Base &gt;</text>
</a>
</g>
</g>
<!-- Node9&#45;&gt;Node7 -->
<g id="edge8" class="edge">
<title>Node9&#45;&gt;Node7</title>
<path fill="none" stroke="#ffa500" stroke-dasharray="5,2" d="M330.5189,-87.5C400.9042,-87.5 492.6363,-87.5 553.8964,-87.5"/>
<polygon fill="#ffa500" stroke="#ffa500" points="330.2953,-84.0001 320.2953,-87.5 330.2952,-91.0001 330.2953,-84.0001"/>
<text text-anchor="middle" x="437" y="-90.5" font-family="Helvetica,sans-Serif" font-size="10.00" fill="#000000"> &lt; PolymorphicObject &gt;</text>
</g>
<!-- Node10 -->
<g id="node10" class="node">
<title>Node10</title>
<g id="a_node10"><a xlink:title=" ">
<polygon fill="#ffffff" stroke="#bfbfbf" points="0,-41 0,-60 101,-60 101,-41 0,-41"/>
<text text-anchor="middle" x="50.5" y="-48" font-family="Helvetica,sans-Serif" font-size="10.00" fill="#000000">PolymorphicBase</text>
</a>
</g>
</g>
<!-- Node10&#45;&gt;Node9 -->
<g id="edge9" class="edge">
<title>Node10&#45;&gt;Node9</title>
<path fill="none" stroke="#191970" d="M106.2638,-62.0589C116.3029,-64.1398 127.0031,-66.3578 137.7421,-68.5838"/>
<polygon fill="#191970" stroke="#191970" points="106.9705,-58.631 96.4682,-60.0284 105.5496,-65.4853 106.9705,-58.631"/>
</g>
<!-- Node11 -->
<g id="node11" class="node">
<title>Node11</title>
<g id="a_node11"><a xlink:href="classgko_1_1EnableAbstractPolymorphicObject.html" target="_top" xlink:title="This mixin inherits from (a subclass of) PolymorphicObject and provides a base implementation of a ne...">
<polygon fill="#ffffff" stroke="#000000" points="338,-20 338,-61 536,-61 536,-20 338,-20"/>
<text text-anchor="start" x="346" y="-49" font-family="Helvetica,sans-Serif" font-size="10.00" fill="#000000">gko::EnableAbstractPolymorphic</text>
<text text-anchor="start" x="346" y="-38" font-family="Helvetica,sans-Serif" font-size="10.00" fill="#000000">Object&lt; AbstractObject, Polymorphic</text>
<text text-anchor="middle" x="437" y="-27" font-family="Helvetica,sans-Serif" font-size="10.00" fill="#000000">Base &gt;</text>
</a>
</g>
</g>
<!-- Node10&#45;&gt;Node11 -->
<g id="edge11" class="edge">
<title>Node10&#45;&gt;Node11</title>
<path fill="none" stroke="#191970" d="M111.2068,-48.9293C171.8632,-47.3599 266.1374,-44.9208 337.6981,-43.0693"/>
<polygon fill="#191970" stroke="#191970" points="110.9342,-45.4351 101.0281,-49.1927 111.1153,-52.4328 110.9342,-45.4351"/>
</g>
<!-- Node11&#45;&gt;Node5 -->
<g id="edge10" class="edge">
<title>Node11&#45;&gt;Node5</title>
<path fill="none" stroke="#ffa500" stroke-dasharray="5,2" d="M546.4491,-43.9007C664.9128,-47.5815 851.4938,-53.3788 960.7319,-56.7729"/>
<polygon fill="#ffa500" stroke="#ffa500" points="546.372,-40.3967 536.2681,-43.5844 546.1546,-47.3933 546.372,-40.3967"/>
<text text-anchor="middle" x="739" y="-53.5" font-family="Helvetica,sans-Serif" font-size="10.00" fill="#000000"> &lt; Criterion &gt;</text>
</g>
<!-- Node12 -->
<g id="node12" class="node">
<title>Node12</title>
<g id="a_node12"><a xlink:href="classgko_1_1array.html" target="_top" xlink:title=" ">
<polygon fill="#ffffff" stroke="#000000" points="1299,-.5 1299,-30.5 1442,-30.5 1442,-.5 1299,-.5"/>
<text text-anchor="start" x="1307" y="-18.5" font-family="Helvetica,sans-Serif" font-size="10.00" fill="#000000">gko::array&lt; gko::stopping</text>
<text text-anchor="middle" x="1370.5" y="-7.5" font-family="Helvetica,sans-Serif" font-size="10.00" fill="#000000">_status &gt;</text>
</a>
</g>
</g>
<!-- Node12&#45;&gt;Node1 -->
<g id="edge12" class="edge">
<title>Node12&#45;&gt;Node1</title>
<path fill="none" stroke="#9a32cd" stroke-dasharray="5,2" d="M1452.2299,-30.0321C1478.0688,-34.6408 1506.7321,-39.7681 1533,-44.5 1542.7424,-46.255 1553.1301,-48.136 1563.1329,-49.9522"/>
<polygon fill="#9a32cd" stroke="#9a32cd" points="1452.5607,-26.536 1442.1016,-28.2264 1451.332,-33.4273 1452.5607,-26.536"/>
<text text-anchor="middle" x="1496.5" y="-47.5" font-family="Helvetica,sans-Serif" font-size="10.00" fill="#000000"> status</text>
</g>
<!-- Node13 -->
<g id="node13" class="node">
<title>Node13</title>
<g id="a_node13"><a xlink:href="classgko_1_1array.html" target="_top" xlink:title="An array is a container which encapsulates fixed&#45;sized arrays, stored on the Executor tied to the arr...">
<polygon fill="#ffffff" stroke="#000000" points="979.5,-6 979.5,-25 1117.5,-25 1117.5,-6 979.5,-6"/>
<text text-anchor="middle" x="1048.5" y="-13" font-family="Helvetica,sans-Serif" font-size="10.00" fill="#000000">gko::array&lt; ValueType &gt;</text>
</a>
</g>
</g>
<!-- Node13&#45;&gt;Node12 -->
<g id="edge13" class="edge">
<title>Node13&#45;&gt;Node12</title>
<path fill="none" stroke="#ffa500" stroke-dasharray="5,2" d="M1127.8186,-15.5C1180.118,-15.5 1248.0604,-15.5 1298.7487,-15.5"/>
<polygon fill="#ffa500" stroke="#ffa500" points="1127.5771,-12.0001 1117.5771,-15.5 1127.577,-19.0001 1127.5771,-12.0001"/>
<text text-anchor="middle" x="1217.5" y="-18.5" font-family="Helvetica,sans-Serif" font-size="10.00" fill="#000000"> &lt; gko::stopping_status &gt;</text>
</g>
</g>
</svg>
