<?xml version="1.0" encoding="UTF-8" standalone="no"?>
<!DOCTYPE svg PUBLIC "-//W3C//DTD SVG 1.1//EN"
 "http://www.w3.org/Graphics/SVG/1.1/DTD/svg11.dtd">
<!-- Generated by graphviz version 2.40.1 (20161225.0304)
 -->
<!-- Title: gko::solver::EnablePreconditionable&lt; DerivedType &gt; Pages: 1 -->
<!--zoomable 593 -->
<svg id="main" version="1.1" xmlns="http://www.w3.org/2000/svg" xmlns:xlink="http://www.w3.org/1999/xlink" xml:space="preserve" onload="init(evt)">
<style type="text/css"><![CDATA[
.edge:hover path { stroke: red; }
.edge:hover polygon { stroke: red; fill: red; }
]]></style>
<script type="text/javascript"><![CDATA[
var edges = document.getElementsByTagName('g');
if (edges && edges.length) {
  for (var i=0;i<edges.length;i++) {
    if (edges[i].id.substr(0,4)=='edge') {
      edges[i].setAttribute('class','edge');
    }
  }
}
]]></script>
        <defs>
                <circle id="rim" cx="0" cy="0" r="7"/>
                <circle id="rim2" cx="0" cy="0" r="3.5"/>
                <g id="zoomPlus">
                        <use xlink:href="#rim" fill="#404040">
                                <set attributeName="fill" to="#808080" begin="zoomplus.mouseover" end="zoomplus.mouseout"/>
                        </use>
                        <path d="M-4,0h8M0,-4v8" fill="none" stroke="white" stroke-width="1.5" pointer-events="none"/>
                </g>
                <g id="zoomMin">
                        <use xlink:href="#rim" fill="#404040">
                                <set attributeName="fill" to="#808080" begin="zoomminus.mouseover" end="zoomminus.mouseout"/>
                        </use>
                        <path d="M-4,0h8" fill="none" stroke="white" stroke-width="1.5" pointer-events="none"/>
                </g>
                <g id="dirArrow">
                        <path fill="none" stroke="white" stroke-width="1.5" d="M0,-3.0v7 M-2.5,-0.5L0,-3.0L2.5,-0.5"/>
                </g>
               <g id="resetDef">
                       <use xlink:href="#rim2" fill="#404040">
                               <set attributeName="fill" to="#808080" begin="reset.mouseover" end="reset.mouseout"/>
                       </use>
               </g>
        </defs>

<script type="text/javascript">
var viewWidth = 1322;
var viewHeight = 593;
var sectionId = 'dynsection-0';
</script>
<script xlink:href="svgpan.js"/>
<svg id="graph" class="graph">
<g id="viewport">
<title>gko::solver::EnablePreconditionable&lt; DerivedType &gt;</title>
<polygon fill="#ffffff" stroke="transparent" points="-4,4 -4,-589 1318,-589 1318,4 -4,4"/>
<!-- Node1 -->
<g id="node1" class="node">
<title>Node1</title>
<g id="a_node1"><a xlink:title="Mixin providing default operation for Preconditionable with correct value semantics.">
<polygon fill="#bfbfbf" stroke="#000000" points="159,-240 159,-270 350,-270 350,-240 159,-240"/>
<text text-anchor="start" x="167" y="-258" font-family="Helvetica,sans-Serif" font-size="10.00" fill="#000000">gko::solver::EnablePreconditionable</text>
<text text-anchor="middle" x="254.5" y="-247" font-family="Helvetica,sans-Serif" font-size="10.00" fill="#000000">&lt; DerivedType &gt;</text>
</a>
</g>
</g>
<!-- Node3 -->
<g id="node3" class="node">
<title>Node3</title>
<g id="a_node3"><a xlink:href="classgko_1_1solver_1_1EnablePreconditionedIterativeSolver.html" target="_top" xlink:title="A LinOp implementing this interface stores a system matrix and stopping criterion factory.">
<polygon fill="#ffffff" stroke="#000000" points="533.5,-281 533.5,-311 715.5,-311 715.5,-281 533.5,-281"/>
<text text-anchor="start" x="541.5" y="-299" font-family="Helvetica,sans-Serif" font-size="10.00" fill="#000000">gko::solver::EnablePreconditioned</text>
<text text-anchor="middle" x="624.5" y="-288" font-family="Helvetica,sans-Serif" font-size="10.00" fill="#000000">IterativeSolver&lt; DerivedType &gt;</text>
</a>
</g>
</g>
<!-- Node1&#45;&gt;Node3 -->
<g id="edge2" class="edge">
<title>Node1&#45;&gt;Node3</title>
<path fill="none" stroke="#191970" d="M360.327,-266.7268C414.9514,-272.7798 480.9262,-280.0905 533.279,-285.8917"/>
<polygon fill="#191970" stroke="#191970" points="360.59,-263.2346 350.2654,-265.6118 359.819,-270.192 360.59,-263.2346"/>
</g>
<!-- Node22 -->
<g id="node22" class="node">
<title>Node22</title>
<g id="a_node22"><a xlink:href="classgko_1_1solver_1_1EnablePreconditionable.html" target="_top" xlink:title=" ">
<polygon fill="#ffffff" stroke="#000000" points="529,-117 529,-147 720,-147 720,-117 529,-117"/>
<text text-anchor="start" x="537" y="-135" font-family="Helvetica,sans-Serif" font-size="10.00" fill="#000000">gko::solver::EnablePreconditionable</text>
<text text-anchor="middle" x="624.5" y="-124" font-family="Helvetica,sans-Serif" font-size="10.00" fill="#000000">&lt; Bicgstab&lt; ValueType &gt; &gt;</text>
</a>
</g>
</g>
<!-- Node1&#45;&gt;Node22 -->
<g id="edge21" class="edge">
<title>Node1&#45;&gt;Node22</title>
<path fill="none" stroke="#ffa500" stroke-dasharray="5,2" d="M282.9817,-233.9196C305.1161,-218.4962 337.1451,-198.2117 368,-186 419.3055,-165.6943 479.5513,-152.5098 528.7591,-144.2559"/>
<polygon fill="#ffa500" stroke="#ffa500" points="280.8533,-231.1381 274.7161,-239.7744 284.8994,-236.8502 280.8533,-231.1381"/>
<text text-anchor="middle" x="439.5" y="-189" font-family="Helvetica,sans-Serif" font-size="10.00" fill="#000000"> &lt; Bicgstab&lt; ValueType &gt; &gt;</text>
</g>
<!-- Node23 -->
<g id="node23" class="node">
<title>Node23</title>
<g id="a_node23"><a xlink:href="classgko_1_1solver_1_1EnablePreconditionable.html" target="_top" xlink:title=" ">
<polygon fill="#ffffff" stroke="#000000" points="529,-168 529,-198 720,-198 720,-168 529,-168"/>
<text text-anchor="start" x="537" y="-186" font-family="Helvetica,sans-Serif" font-size="10.00" fill="#000000">gko::solver::EnablePreconditionable</text>
<text text-anchor="middle" x="624.5" y="-175" font-family="Helvetica,sans-Serif" font-size="10.00" fill="#000000">&lt; Gmres&lt; ValueType &gt; &gt;</text>
</a>
</g>
</g>
<!-- Node1&#45;&gt;Node23 -->
<g id="edge23" class="edge">
<title>Node1&#45;&gt;Node23</title>
<path fill="none" stroke="#ffa500" stroke-dasharray="5,2" d="M319.1539,-237.4801C335.0638,-233.4458 352.0979,-229.3583 368,-226 420.9035,-214.8276 480.4385,-204.6986 528.8251,-197.0815"/>
<polygon fill="#ffa500" stroke="#ffa500" points="318.2303,-234.1036 309.4133,-239.9781 319.9693,-240.8842 318.2303,-234.1036"/>
<text text-anchor="middle" x="439.5" y="-229" font-family="Helvetica,sans-Serif" font-size="10.00" fill="#000000"> &lt; Gmres&lt; ValueType &gt; &gt;</text>
</g>
<!-- Node24 -->
<g id="node24" class="node">
<title>Node24</title>
<g id="a_node24"><a xlink:href="classgko_1_1solver_1_1EnablePreconditionable.html" target="_top" xlink:title=" ">
<polygon fill="#ffffff" stroke="#000000" points="529,-495 529,-525 720,-525 720,-495 529,-495"/>
<text text-anchor="start" x="537" y="-513" font-family="Helvetica,sans-Serif" font-size="10.00" fill="#000000">gko::solver::EnablePreconditionable</text>
<text text-anchor="middle" x="624.5" y="-502" font-family="Helvetica,sans-Serif" font-size="10.00" fill="#000000">&lt; CbGmres&lt; ValueType &gt; &gt;</text>
</a>
</g>
</g>
<!-- Node1&#45;&gt;Node24 -->
<g id="edge25" class="edge">
<title>Node1&#45;&gt;Node24</title>
<path fill="none" stroke="#ffa500" stroke-dasharray="5,2" d="M263.6614,-279.4749C279.2201,-317.7172 314.4283,-391.4514 368,-432 414.5761,-467.2536 477.1303,-486.6879 528.8031,-497.3407"/>
<polygon fill="#ffa500" stroke="#ffa500" points="266.8948,-278.1336 259.962,-270.122 260.3855,-280.7083 266.8948,-278.1336"/>
<text text-anchor="middle" x="439.5" y="-495" font-family="Helvetica,sans-Serif" font-size="10.00" fill="#000000"> &lt; CbGmres&lt; ValueType &gt; &gt;</text>
</g>
<!-- Node25 -->
<g id="node25" class="node">
<title>Node25</title>
<g id="a_node25"><a xlink:href="classgko_1_1solver_1_1EnablePreconditionable.html" target="_top" xlink:title=" ">
<polygon fill="#ffffff" stroke="#000000" points="529,-218 529,-248 720,-248 720,-218 529,-218"/>
<text text-anchor="start" x="537" y="-236" font-family="Helvetica,sans-Serif" font-size="10.00" fill="#000000">gko::solver::EnablePreconditionable</text>
<text text-anchor="middle" x="624.5" y="-225" font-family="Helvetica,sans-Serif" font-size="10.00" fill="#000000">&lt; Fcg&lt; ValueType &gt; &gt;</text>
</a>
</g>
</g>
<!-- Node1&#45;&gt;Node25 -->
<g id="edge27" class="edge">
<title>Node1&#45;&gt;Node25</title>
<path fill="none" stroke="#ffa500" stroke-dasharray="5,2" d="M360.387,-248.704C413.4581,-245.5484 477.2312,-241.7565 528.815,-238.6894"/>
<polygon fill="#ffa500" stroke="#ffa500" points="360.04,-245.2184 350.2654,-249.3058 360.4555,-252.206 360.04,-245.2184"/>
<text text-anchor="middle" x="439.5" y="-251" font-family="Helvetica,sans-Serif" font-size="10.00" fill="#000000"> &lt; Fcg&lt; ValueType &gt; &gt;</text>
</g>
<!-- Node26 -->
<g id="node26" class="node">
<title>Node26</title>
<g id="a_node26"><a xlink:href="classgko_1_1solver_1_1EnablePreconditionable.html" target="_top" xlink:title=" ">
<polygon fill="#ffffff" stroke="#000000" points="529,-549 529,-579 720,-579 720,-549 529,-549"/>
<text text-anchor="start" x="537" y="-567" font-family="Helvetica,sans-Serif" font-size="10.00" fill="#000000">gko::solver::EnablePreconditionable</text>
<text text-anchor="middle" x="624.5" y="-556" font-family="Helvetica,sans-Serif" font-size="10.00" fill="#000000">&lt; Idr&lt; ValueType &gt; &gt;</text>
</a>
</g>
</g>
<!-- Node1&#45;&gt;Node26 -->
<g id="edge29" class="edge">
<title>Node1&#45;&gt;Node26</title>
<path fill="none" stroke="#ffa500" stroke-dasharray="5,2" d="M258.2461,-280.1701C267.2457,-331.3241 295.0173,-447.6016 368,-507 412.9335,-543.57 476.4115,-557.8839 528.9758,-563.0237"/>
<polygon fill="#ffa500" stroke="#ffa500" points="261.6497,-279.3008 256.5578,-270.0098 254.7444,-280.4483 261.6497,-279.3008"/>
<text text-anchor="middle" x="439.5" y="-563" font-family="Helvetica,sans-Serif" font-size="10.00" fill="#000000"> &lt; Idr&lt; ValueType &gt; &gt;</text>
</g>
<!-- Node27 -->
<g id="node27" class="node">
<title>Node27</title>
<g id="a_node27"><a xlink:href="classgko_1_1solver_1_1EnablePreconditionable.html" target="_top" xlink:title=" ">
<polygon fill="#ffffff" stroke="#000000" points="529,-365 529,-395 720,-395 720,-365 529,-365"/>
<text text-anchor="start" x="537" y="-383" font-family="Helvetica,sans-Serif" font-size="10.00" fill="#000000">gko::solver::EnablePreconditionable</text>
<text text-anchor="middle" x="624.5" y="-372" font-family="Helvetica,sans-Serif" font-size="10.00" fill="#000000">&lt; Cgs&lt; ValueType &gt; &gt;</text>
</a>
</g>
</g>
<!-- Node1&#45;&gt;Node27 -->
<g id="edge31" class="edge">
<title>Node1&#45;&gt;Node27</title>
<path fill="none" stroke="#ffa500" stroke-dasharray="5,2" d="M308.6725,-273.3015C382.1227,-298.1158 511.9261,-341.9683 579.9994,-364.966"/>
<polygon fill="#ffa500" stroke="#ffa500" points="309.7249,-269.9628 299.1306,-270.0779 307.4843,-276.5945 309.7249,-269.9628"/>
<text text-anchor="middle" x="439.5" y="-342" font-family="Helvetica,sans-Serif" font-size="10.00" fill="#000000"> &lt; Cgs&lt; ValueType &gt; &gt;</text>
</g>
<!-- Node28 -->
<g id="node28" class="node">
<title>Node28</title>
<g id="a_node28"><a xlink:href="classgko_1_1solver_1_1EnablePreconditionable.html" target="_top" xlink:title=" ">
<polygon fill="#ffffff" stroke="#000000" points="529,-7 529,-37 720,-37 720,-7 529,-7"/>
<text text-anchor="start" x="537" y="-25" font-family="Helvetica,sans-Serif" font-size="10.00" fill="#000000">gko::solver::EnablePreconditionable</text>
<text text-anchor="middle" x="624.5" y="-14" font-family="Helvetica,sans-Serif" font-size="10.00" fill="#000000">&lt; Gcr&lt; ValueType &gt; &gt;</text>
</a>
</g>
</g>
<!-- Node1&#45;&gt;Node28 -->
<g id="edge33" class="edge">
<title>Node1&#45;&gt;Node28</title>
<path fill="none" stroke="#ffa500" stroke-dasharray="5,2" d="M262.6341,-230.4954C277.125,-190.8714 311.3244,-113.2217 368,-74 414.7968,-41.6147 477.2015,-28.4716 528.7395,-23.4939"/>
<polygon fill="#ffa500" stroke="#ffa500" points="259.3327,-229.3334 259.2961,-239.9282 265.9317,-231.6687 259.3327,-229.3334"/>
<text text-anchor="middle" x="439.5" y="-77" font-family="Helvetica,sans-Serif" font-size="10.00" fill="#000000"> &lt; Gcr&lt; ValueType &gt; &gt;</text>
</g>
<!-- Node29 -->
<g id="node29" class="node">
<title>Node29</title>
<g id="a_node29"><a xlink:href="classgko_1_1solver_1_1EnablePreconditionable.html" target="_top" xlink:title=" ">
<polygon fill="#ffffff" stroke="#000000" points="529,-64 529,-94 720,-94 720,-64 529,-64"/>
<text text-anchor="start" x="537" y="-82" font-family="Helvetica,sans-Serif" font-size="10.00" fill="#000000">gko::solver::EnablePreconditionable</text>
<text text-anchor="middle" x="624.5" y="-71" font-family="Helvetica,sans-Serif" font-size="10.00" fill="#000000">&lt; Cg&lt; ValueType &gt; &gt;</text>
</a>
</g>
</g>
<!-- Node1&#45;&gt;Node29 -->
<g id="edge35" class="edge">
<title>Node1&#45;&gt;Node29</title>
<path fill="none" stroke="#ffa500" stroke-dasharray="5,2" d="M269.7024,-231.6295C289.0766,-203.8322 325.234,-158.1635 368,-134 416.9701,-106.3311 478.3872,-92.5582 528.845,-85.7132"/>
<polygon fill="#ffa500" stroke="#ffa500" points="266.7533,-229.7419 264.0147,-239.9767 272.538,-233.6836 266.7533,-229.7419"/>
<text text-anchor="middle" x="439.5" y="-137" font-family="Helvetica,sans-Serif" font-size="10.00" fill="#000000"> &lt; Cg&lt; ValueType &gt; &gt;</text>
</g>
<!-- Node30 -->
<g id="node30" class="node">
<title>Node30</title>
<g id="a_node30"><a xlink:href="classgko_1_1solver_1_1EnablePreconditionable.html" target="_top" xlink:title=" ">
<polygon fill="#ffffff" stroke="#000000" points="529,-435 529,-465 720,-465 720,-435 529,-435"/>
<text text-anchor="start" x="537" y="-453" font-family="Helvetica,sans-Serif" font-size="10.00" fill="#000000">gko::solver::EnablePreconditionable</text>
<text text-anchor="middle" x="624.5" y="-442" font-family="Helvetica,sans-Serif" font-size="10.00" fill="#000000">&lt; Bicg&lt; ValueType &gt; &gt;</text>
</a>
</g>
</g>
<!-- Node1&#45;&gt;Node30 -->
<g id="edge37" class="edge">
<title>Node1&#45;&gt;Node30</title>
<path fill="none" stroke="#ffa500" stroke-dasharray="5,2" d="M275.5653,-277.6042C297.0565,-299.5799 332.2412,-332.6768 368,-354 431.8101,-392.0503 513.2807,-419.4153 567.0825,-434.9637"/>
<polygon fill="#ffa500" stroke="#ffa500" points="278.0161,-275.1035 268.5562,-270.3325 272.9761,-279.9614 278.0161,-275.1035"/>
<text text-anchor="middle" x="439.5" y="-420" font-family="Helvetica,sans-Serif" font-size="10.00" fill="#000000"> &lt; Bicg&lt; ValueType &gt; &gt;</text>
</g>
<!-- Node2 -->
<g id="node2" class="node">
<title>Node2</title>
<g id="a_node2"><a xlink:href="classgko_1_1Preconditionable.html" target="_top" xlink:title="A LinOp implementing this interface can be preconditioned.">
<polygon fill="#ffffff" stroke="#000000" points="0,-245.5 0,-264.5 122,-264.5 122,-245.5 0,-245.5"/>
<text text-anchor="middle" x="61" y="-252.5" font-family="Helvetica,sans-Serif" font-size="10.00" fill="#000000">gko::Preconditionable</text>
</a>
</g>
</g>
<!-- Node2&#45;&gt;Node1 -->
<g id="edge1" class="edge">
<title>Node2&#45;&gt;Node1</title>
<path fill="none" stroke="#191970" d="M132.4859,-255C141.0293,-255 149.8553,-255 158.6712,-255"/>
<polygon fill="#191970" stroke="#191970" points="132.2246,-251.5001 122.2246,-255 132.2246,-258.5001 132.2246,-251.5001"/>
</g>
<!-- Node4 -->
<g id="node4" class="node">
<title>Node4</title>
<g id="a_node4"><a xlink:href="classgko_1_1solver_1_1EnablePreconditionedIterativeSolver.html" target="_top" xlink:title=" ">
<polygon fill="#ffffff" stroke="#000000" points="928,-324.5 928,-365.5 1110,-365.5 1110,-324.5 928,-324.5"/>
<text text-anchor="start" x="936" y="-353.5" font-family="Helvetica,sans-Serif" font-size="10.00" fill="#000000">gko::solver::EnablePreconditioned</text>
<text text-anchor="start" x="936" y="-342.5" font-family="Helvetica,sans-Serif" font-size="10.00" fill="#000000">IterativeSolver&lt; ValueType,</text>
<text text-anchor="middle" x="1019" y="-331.5" font-family="Helvetica,sans-Serif" font-size="10.00" fill="#000000"> Cgs&lt; ValueType &gt; &gt;</text>
</a>
</g>
</g>
<!-- Node3&#45;&gt;Node4 -->
<g id="edge3" class="edge">
<title>Node3&#45;&gt;Node4</title>
<path fill="none" stroke="#ffa500" stroke-dasharray="5,2" d="M725.751,-308.5762C788.1002,-316.3204 867.3728,-326.1667 927.7737,-333.669"/>
<polygon fill="#ffa500" stroke="#ffa500" points="725.8568,-305.0625 715.5016,-307.3031 724.9939,-312.0091 725.8568,-305.0625"/>
<text text-anchor="middle" x="824" y="-333" font-family="Helvetica,sans-Serif" font-size="10.00" fill="#000000"> &lt; ValueType, Cgs&lt; ValueType &gt; &gt;</text>
</g>
<!-- Node6 -->
<g id="node6" class="node">
<title>Node6</title>
<g id="a_node6"><a xlink:href="classgko_1_1solver_1_1EnablePreconditionedIterativeSolver.html" target="_top" xlink:title=" ">
<polygon fill="#ffffff" stroke="#000000" points="928,-543.5 928,-584.5 1110,-584.5 1110,-543.5 928,-543.5"/>
<text text-anchor="start" x="936" y="-572.5" font-family="Helvetica,sans-Serif" font-size="10.00" fill="#000000">gko::solver::EnablePreconditioned</text>
<text text-anchor="start" x="936" y="-561.5" font-family="Helvetica,sans-Serif" font-size="10.00" fill="#000000">IterativeSolver&lt; ValueType,</text>
<text text-anchor="middle" x="1019" y="-550.5" font-family="Helvetica,sans-Serif" font-size="10.00" fill="#000000"> Idr&lt; ValueType &gt; &gt;</text>
</a>
</g>
</g>
<!-- Node3&#45;&gt;Node6 -->
<g id="edge5" class="edge">
<title>Node3&#45;&gt;Node6</title>
<path fill="none" stroke="#ffa500" stroke-dasharray="5,2" d="M673.1098,-315.7682C690.6462,-325.3348 708.8466,-338.5905 720,-356 753.3661,-408.0815 696.8362,-447.8338 738,-494 750.9445,-508.5175 850.9197,-531.0623 927.9768,-546.6247"/>
<polygon fill="#ffa500" stroke="#ffa500" points="674.5338,-312.5648 664.0408,-311.0993 671.3297,-318.7884 674.5338,-312.5648"/>
<text text-anchor="middle" x="824" y="-544" font-family="Helvetica,sans-Serif" font-size="10.00" fill="#000000"> &lt; ValueType, Idr&lt; ValueType &gt; &gt;</text>
</g>
<!-- Node8 -->
<g id="node8" class="node">
<title>Node8</title>
<g id="a_node8"><a xlink:href="classgko_1_1solver_1_1EnablePreconditionedIterativeSolver.html" target="_top" xlink:title=" ">
<polygon fill="#ffffff" stroke="#000000" points="928,-263.5 928,-304.5 1110,-304.5 1110,-263.5 928,-263.5"/>
<text text-anchor="start" x="936" y="-292.5" font-family="Helvetica,sans-Serif" font-size="10.00" fill="#000000">gko::solver::EnablePreconditioned</text>
<text text-anchor="start" x="936" y="-281.5" font-family="Helvetica,sans-Serif" font-size="10.00" fill="#000000">IterativeSolver&lt; ValueType,</text>
<text text-anchor="middle" x="1019" y="-270.5" font-family="Helvetica,sans-Serif" font-size="10.00" fill="#000000"> Fcg&lt; ValueType &gt; &gt;</text>
</a>
</g>
</g>
<!-- Node3&#45;&gt;Node8 -->
<g id="edge7" class="edge">
<title>Node3&#45;&gt;Node8</title>
<path fill="none" stroke="#ffa500" stroke-dasharray="5,2" d="M725.751,-292.9201C788.1002,-291.0236 867.3728,-288.6122 927.7737,-286.7749"/>
<polygon fill="#ffa500" stroke="#ffa500" points="725.3905,-289.4294 715.5016,-293.2319 725.6034,-296.4261 725.3905,-289.4294"/>
<text text-anchor="middle" x="824" y="-295" font-family="Helvetica,sans-Serif" font-size="10.00" fill="#000000"> &lt; ValueType, Fcg&lt; ValueType &gt; &gt;</text>
</g>
<!-- Node10 -->
<g id="node10" class="node">
<title>Node10</title>
<g id="a_node10"><a xlink:href="classgko_1_1solver_1_1EnablePreconditionedIterativeSolver.html" target="_top" xlink:title=" ">
<polygon fill="#ffffff" stroke="#000000" points="928,-477.5 928,-518.5 1110,-518.5 1110,-477.5 928,-477.5"/>
<text text-anchor="start" x="936" y="-506.5" font-family="Helvetica,sans-Serif" font-size="10.00" fill="#000000">gko::solver::EnablePreconditioned</text>
<text text-anchor="start" x="936" y="-495.5" font-family="Helvetica,sans-Serif" font-size="10.00" fill="#000000">IterativeSolver&lt; ValueType,</text>
<text text-anchor="middle" x="1019" y="-484.5" font-family="Helvetica,sans-Serif" font-size="10.00" fill="#000000"> CbGmres&lt; ValueType &gt; &gt;</text>
</a>
</g>
</g>
<!-- Node3&#45;&gt;Node10 -->
<g id="edge9" class="edge">
<title>Node3&#45;&gt;Node10</title>
<path fill="none" stroke="#ffa500" stroke-dasharray="5,2" d="M670.6477,-315.9017C688.387,-325.644 707.3869,-338.9901 720,-356 738.1099,-380.4228 716.478,-400.5233 738,-422 745.2105,-429.1953 854.8249,-457.4794 934.9775,-477.4306"/>
<polygon fill="#ffa500" stroke="#ffa500" points="672.0104,-312.6648 661.5265,-311.1354 668.7684,-318.8688 672.0104,-312.6648"/>
<text text-anchor="start" x="766.5" y="-484" font-family="Helvetica,sans-Serif" font-size="10.00" fill="#000000"> &lt; ValueType, CbGmres</text>
<text text-anchor="middle" x="824" y="-473" font-family="Helvetica,sans-Serif" font-size="10.00" fill="#000000">&lt; ValueType &gt; &gt;</text>
</g>
<!-- Node12 -->
<g id="node12" class="node">
<title>Node12</title>
<g id="a_node12"><a xlink:href="classgko_1_1solver_1_1EnablePreconditionedIterativeSolver.html" target="_top" xlink:title=" ">
<polygon fill="#ffffff" stroke="#000000" points="928,-406.5 928,-447.5 1110,-447.5 1110,-406.5 928,-406.5"/>
<text text-anchor="start" x="936" y="-435.5" font-family="Helvetica,sans-Serif" font-size="10.00" fill="#000000">gko::solver::EnablePreconditioned</text>
<text text-anchor="start" x="936" y="-424.5" font-family="Helvetica,sans-Serif" font-size="10.00" fill="#000000">IterativeSolver&lt; ValueType,</text>
<text text-anchor="middle" x="1019" y="-413.5" font-family="Helvetica,sans-Serif" font-size="10.00" fill="#000000"> Bicg&lt; ValueType &gt; &gt;</text>
</a>
</g>
</g>
<!-- Node3&#45;&gt;Node12 -->
<g id="edge11" class="edge">
<title>Node3&#45;&gt;Node12</title>
<path fill="none" stroke="#ffa500" stroke-dasharray="5,2" d="M665.4732,-315.1458C686.8381,-324.7554 713.5503,-336.193 738,-345 804.698,-369.0251 882.1457,-391.2157 938.8223,-406.437"/>
<polygon fill="#ffa500" stroke="#ffa500" points="666.9171,-311.9575 656.3643,-311.0142 664.0255,-318.3324 666.9171,-311.9575"/>
<text text-anchor="start" x="774" y="-410" font-family="Helvetica,sans-Serif" font-size="10.00" fill="#000000"> &lt; ValueType, Bicg&lt;</text>
<text text-anchor="middle" x="824" y="-399" font-family="Helvetica,sans-Serif" font-size="10.00" fill="#000000"> ValueType &gt; &gt;</text>
</g>
<!-- Node14 -->
<g id="node14" class="node">
<title>Node14</title>
<g id="a_node14"><a xlink:href="classgko_1_1solver_1_1EnablePreconditionedIterativeSolver.html" target="_top" xlink:title=" ">
<polygon fill="#ffffff" stroke="#000000" points="928,-201.5 928,-242.5 1110,-242.5 1110,-201.5 928,-201.5"/>
<text text-anchor="start" x="936" y="-230.5" font-family="Helvetica,sans-Serif" font-size="10.00" fill="#000000">gko::solver::EnablePreconditioned</text>
<text text-anchor="start" x="936" y="-219.5" font-family="Helvetica,sans-Serif" font-size="10.00" fill="#000000">IterativeSolver&lt; ValueType,</text>
<text text-anchor="middle" x="1019" y="-208.5" font-family="Helvetica,sans-Serif" font-size="10.00" fill="#000000"> Gmres&lt; ValueType &gt; &gt;</text>
</a>
</g>
</g>
<!-- Node3&#45;&gt;Node14 -->
<g id="edge13" class="edge">
<title>Node3&#45;&gt;Node14</title>
<path fill="none" stroke="#ffa500" stroke-dasharray="5,2" d="M678.8773,-277.909C697.4722,-272.2058 718.5004,-266.2833 738,-262 800.8084,-248.2035 872.6026,-238.0785 927.8999,-231.467"/>
<polygon fill="#ffa500" stroke="#ffa500" points="677.6166,-274.6358 669.1103,-280.9519 679.6988,-281.3189 677.6166,-274.6358"/>
<text text-anchor="start" x="772.5" y="-276" font-family="Helvetica,sans-Serif" font-size="10.00" fill="#000000"> &lt; ValueType, Gmres</text>
<text text-anchor="middle" x="824" y="-265" font-family="Helvetica,sans-Serif" font-size="10.00" fill="#000000">&lt; ValueType &gt; &gt;</text>
</g>
<!-- Node16 -->
<g id="node16" class="node">
<title>Node16</title>
<g id="a_node16"><a xlink:href="classgko_1_1solver_1_1EnablePreconditionedIterativeSolver.html" target="_top" xlink:title=" ">
<polygon fill="#ffffff" stroke="#000000" points="928,-138.5 928,-179.5 1110,-179.5 1110,-138.5 928,-138.5"/>
<text text-anchor="start" x="936" y="-167.5" font-family="Helvetica,sans-Serif" font-size="10.00" fill="#000000">gko::solver::EnablePreconditioned</text>
<text text-anchor="start" x="936" y="-156.5" font-family="Helvetica,sans-Serif" font-size="10.00" fill="#000000">IterativeSolver&lt; ValueType,</text>
<text text-anchor="middle" x="1019" y="-145.5" font-family="Helvetica,sans-Serif" font-size="10.00" fill="#000000"> Bicgstab&lt; ValueType &gt; &gt;</text>
</a>
</g>
</g>
<!-- Node3&#45;&gt;Node16 -->
<g id="edge15" class="edge">
<title>Node3&#45;&gt;Node16</title>
<path fill="none" stroke="#ffa500" stroke-dasharray="5,2" d="M692.5713,-276.4795C702.6672,-271.3615 712.261,-264.9662 720,-257 735.876,-240.6579 720.4869,-223.5741 738,-209 790.3705,-165.4181 867.5484,-154.2284 927.7768,-153.2073"/>
<polygon fill="#ffa500" stroke="#ffa500" points="690.7952,-273.4452 683.1973,-280.8291 693.7416,-279.7949 690.7952,-273.4452"/>
<text text-anchor="start" x="768" y="-223" font-family="Helvetica,sans-Serif" font-size="10.00" fill="#000000"> &lt; ValueType, Bicgstab</text>
<text text-anchor="middle" x="824" y="-212" font-family="Helvetica,sans-Serif" font-size="10.00" fill="#000000">&lt; ValueType &gt; &gt;</text>
</g>
<!-- Node18 -->
<g id="node18" class="node">
<title>Node18</title>
<g id="a_node18"><a xlink:href="classgko_1_1solver_1_1EnablePreconditionedIterativeSolver.html" target="_top" xlink:title=" ">
<polygon fill="#ffffff" stroke="#000000" points="928,-.5 928,-41.5 1110,-41.5 1110,-.5 928,-.5"/>
<text text-anchor="start" x="936" y="-29.5" font-family="Helvetica,sans-Serif" font-size="10.00" fill="#000000">gko::solver::EnablePreconditioned</text>
<text text-anchor="start" x="936" y="-18.5" font-family="Helvetica,sans-Serif" font-size="10.00" fill="#000000">IterativeSolver&lt; ValueType,</text>
<text text-anchor="middle" x="1019" y="-7.5" font-family="Helvetica,sans-Serif" font-size="10.00" fill="#000000"> Gcr&lt; ValueType &gt; &gt;</text>
</a>
</g>
</g>
<!-- Node3&#45;&gt;Node18 -->
<g id="edge17" class="edge">
<title>Node3&#45;&gt;Node18</title>
<path fill="none" stroke="#ffa500" stroke-dasharray="5,2" d="M697.5076,-276.3384C706.1713,-271.2897 714.0372,-264.9524 720,-257 743.1875,-226.0756 712.3119,-112.8807 738,-84 750.8548,-69.5476 850.8488,-49.547 927.9347,-35.987"/>
<polygon fill="#ffa500" stroke="#ffa500" points="695.8701,-273.245 688.619,-280.9697 699.1047,-279.4528 695.8701,-273.245"/>
<text text-anchor="middle" x="824" y="-87" font-family="Helvetica,sans-Serif" font-size="10.00" fill="#000000"> &lt; ValueType, Gcr&lt; ValueType &gt; &gt;</text>
</g>
<!-- Node20 -->
<g id="node20" class="node">
<title>Node20</title>
<g id="a_node20"><a xlink:href="classgko_1_1solver_1_1EnablePreconditionedIterativeSolver.html" target="_top" xlink:title=" ">
<polygon fill="#ffffff" stroke="#000000" points="928,-72.5 928,-113.5 1110,-113.5 1110,-72.5 928,-72.5"/>
<text text-anchor="start" x="936" y="-101.5" font-family="Helvetica,sans-Serif" font-size="10.00" fill="#000000">gko::solver::EnablePreconditioned</text>
<text text-anchor="start" x="936" y="-90.5" font-family="Helvetica,sans-Serif" font-size="10.00" fill="#000000">IterativeSolver&lt; ValueType,</text>
<text text-anchor="middle" x="1019" y="-79.5" font-family="Helvetica,sans-Serif" font-size="10.00" fill="#000000"> Cg&lt; ValueType &gt; &gt;</text>
</a>
</g>
</g>
<!-- Node3&#45;&gt;Node20 -->
<g id="edge19" class="edge">
<title>Node3&#45;&gt;Node20</title>
<path fill="none" stroke="#ffa500" stroke-dasharray="5,2" d="M696.808,-276.2749C705.6611,-271.2321 713.7661,-264.9134 720,-257 752.8288,-215.3264 700.6919,-176.7164 738,-139 764.0733,-112.6413 856.0656,-101.3789 927.7766,-96.5713"/>
<polygon fill="#ffa500" stroke="#ffa500" points="695.0599,-273.2377 687.7473,-280.9042 698.2448,-279.4712 695.0599,-273.2377"/>
<text text-anchor="middle" x="824" y="-142" font-family="Helvetica,sans-Serif" font-size="10.00" fill="#000000"> &lt; ValueType, Cg&lt; ValueType &gt; &gt;</text>
</g>
<!-- Node5 -->
<g id="node5" class="node">
<title>Node5</title>
<g id="a_node5"><a xlink:href="classgko_1_1solver_1_1Cgs.html" target="_top" xlink:title="CGS or the conjugate gradient square method is an iterative type Krylov subspace method which is suit...">
<polygon fill="#ffffff" stroke="#000000" points="1147,-335.5 1147,-354.5 1314,-354.5 1314,-335.5 1147,-335.5"/>
<text text-anchor="middle" x="1230.5" y="-342.5" font-family="Helvetica,sans-Serif" font-size="10.00" fill="#000000">gko::solver::Cgs&lt; ValueType &gt;</text>
</a>
</g>
</g>
<!-- Node4&#45;&gt;Node5 -->
<g id="edge4" class="edge">
<title>Node4&#45;&gt;Node5</title>
<path fill="none" stroke="#191970" d="M1120.2715,-345C1129.1937,-345 1138.1586,-345 1146.9114,-345"/>
<polygon fill="#191970" stroke="#191970" points="1120.2297,-341.5001 1110.2296,-345 1120.2296,-348.5001 1120.2297,-341.5001"/>
</g>
<!-- Node7 -->
<g id="node7" class="node">
<title>Node7</title>
<g id="a_node7"><a xlink:href="classgko_1_1solver_1_1Idr.html" target="_top" xlink:title="IDR(s) is an efficient method for solving large nonsymmetric systems of linear equations.">
<polygon fill="#ffffff" stroke="#000000" points="1150,-554.5 1150,-573.5 1311,-573.5 1311,-554.5 1150,-554.5"/>
<text text-anchor="middle" x="1230.5" y="-561.5" font-family="Helvetica,sans-Serif" font-size="10.00" fill="#000000">gko::solver::Idr&lt; ValueType &gt;</text>
</a>
</g>
</g>
<!-- Node6&#45;&gt;Node7 -->
<g id="edge6" class="edge">
<title>Node6&#45;&gt;Node7</title>
<path fill="none" stroke="#191970" d="M1120.4801,-564C1130.3475,-564 1140.2645,-564 1149.8869,-564"/>
<polygon fill="#191970" stroke="#191970" points="1120.2297,-560.5001 1110.2296,-564 1120.2296,-567.5001 1120.2297,-560.5001"/>
</g>
<!-- Node9 -->
<g id="node9" class="node">
<title>Node9</title>
<g id="a_node9"><a xlink:href="classgko_1_1solver_1_1Fcg.html" target="_top" xlink:title="FCG or the flexible conjugate gradient method is an iterative type Krylov subspace method which is su...">
<polygon fill="#ffffff" stroke="#000000" points="1148,-274.5 1148,-293.5 1313,-293.5 1313,-274.5 1148,-274.5"/>
<text text-anchor="middle" x="1230.5" y="-281.5" font-family="Helvetica,sans-Serif" font-size="10.00" fill="#000000">gko::solver::Fcg&lt; ValueType &gt;</text>
</a>
</g>
</g>
<!-- Node8&#45;&gt;Node9 -->
<g id="edge8" class="edge">
<title>Node8&#45;&gt;Node9</title>
<path fill="none" stroke="#191970" d="M1120.253,-284C1129.5193,-284 1138.8318,-284 1147.9051,-284"/>
<polygon fill="#191970" stroke="#191970" points="1120.2297,-280.5001 1110.2296,-284 1120.2296,-287.5001 1120.2297,-280.5001"/>
</g>
<!-- Node11 -->
<g id="node11" class="node">
<title>Node11</title>
<g id="a_node11"><a xlink:href="classgko_1_1solver_1_1CbGmres.html" target="_top" xlink:title="CB&#45;GMRES or the compressed basis generalized minimal residual method is an iterative type Krylov subs...">
<polygon fill="#ffffff" stroke="#000000" points="1169.5,-483 1169.5,-513 1291.5,-513 1291.5,-483 1169.5,-483"/>
<text text-anchor="start" x="1177.5" y="-501" font-family="Helvetica,sans-Serif" font-size="10.00" fill="#000000">gko::solver::CbGmres</text>
<text text-anchor="middle" x="1230.5" y="-490" font-family="Helvetica,sans-Serif" font-size="10.00" fill="#000000">&lt; ValueType &gt;</text>
</a>
</g>
</g>
<!-- Node10&#45;&gt;Node11 -->
<g id="edge10" class="edge">
<title>Node10&#45;&gt;Node11</title>
<path fill="none" stroke="#191970" d="M1120.5963,-498C1137.2985,-498 1154.139,-498 1169.448,-498"/>
<polygon fill="#191970" stroke="#191970" points="1120.2297,-494.5001 1110.2296,-498 1120.2296,-501.5001 1120.2297,-494.5001"/>
</g>
<!-- Node13 -->
<g id="node13" class="node">
<title>Node13</title>
<g id="a_node13"><a xlink:href="classgko_1_1solver_1_1Bicg.html" target="_top" xlink:title="BICG or the Biconjugate gradient method is a Krylov subspace solver.">
<polygon fill="#ffffff" stroke="#000000" points="1177.5,-412 1177.5,-442 1283.5,-442 1283.5,-412 1177.5,-412"/>
<text text-anchor="start" x="1185.5" y="-430" font-family="Helvetica,sans-Serif" font-size="10.00" fill="#000000">gko::solver::Bicg&lt;</text>
<text text-anchor="middle" x="1230.5" y="-419" font-family="Helvetica,sans-Serif" font-size="10.00" fill="#000000"> ValueType &gt;</text>
</a>
</g>
</g>
<!-- Node12&#45;&gt;Node13 -->
<g id="edge12" class="edge">
<title>Node12&#45;&gt;Node13</title>
<path fill="none" stroke="#191970" d="M1120.4827,-427C1140.1515,-427 1160.0175,-427 1177.3531,-427"/>
<polygon fill="#191970" stroke="#191970" points="1120.2297,-423.5001 1110.2296,-427 1120.2296,-430.5001 1120.2297,-423.5001"/>
</g>
<!-- Node15 -->
<g id="node15" class="node">
<title>Node15</title>
<g id="a_node15"><a xlink:href="classgko_1_1solver_1_1Gmres.html" target="_top" xlink:title="GMRES or the generalized minimal residual method is an iterative type Krylov subspace method which is...">
<polygon fill="#ffffff" stroke="#000000" points="1176,-207 1176,-237 1285,-237 1285,-207 1176,-207"/>
<text text-anchor="start" x="1184" y="-225" font-family="Helvetica,sans-Serif" font-size="10.00" fill="#000000">gko::solver::Gmres</text>
<text text-anchor="middle" x="1230.5" y="-214" font-family="Helvetica,sans-Serif" font-size="10.00" fill="#000000">&lt; ValueType &gt;</text>
</a>
</g>
</g>
<!-- Node14&#45;&gt;Node15 -->
<g id="edge14" class="edge">
<title>Node14&#45;&gt;Node15</title>
<path fill="none" stroke="#191970" d="M1120.2319,-222C1139.4193,-222 1158.8054,-222 1175.8573,-222"/>
<polygon fill="#191970" stroke="#191970" points="1120.2297,-218.5001 1110.2296,-222 1120.2296,-225.5001 1120.2297,-218.5001"/>
</g>
<!-- Node17 -->
<g id="node17" class="node">
<title>Node17</title>
<g id="a_node17"><a xlink:href="classgko_1_1solver_1_1Bicgstab.html" target="_top" xlink:title="BiCGSTAB or the Bi&#45;Conjugate Gradient&#45;Stabilized is a Krylov subspace solver.">
<polygon fill="#ffffff" stroke="#000000" points="1171,-144 1171,-174 1290,-174 1290,-144 1171,-144"/>
<text text-anchor="start" x="1179" y="-162" font-family="Helvetica,sans-Serif" font-size="10.00" fill="#000000">gko::solver::Bicgstab</text>
<text text-anchor="middle" x="1230.5" y="-151" font-family="Helvetica,sans-Serif" font-size="10.00" fill="#000000">&lt; ValueType &gt;</text>
</a>
</g>
</g>
<!-- Node16&#45;&gt;Node17 -->
<g id="edge16" class="edge">
<title>Node16&#45;&gt;Node17</title>
<path fill="none" stroke="#191970" d="M1120.4009,-159C1137.7304,-159 1155.216,-159 1170.9918,-159"/>
<polygon fill="#191970" stroke="#191970" points="1120.2297,-155.5001 1110.2296,-159 1120.2296,-162.5001 1120.2297,-155.5001"/>
</g>
<!-- Node19 -->
<g id="node19" class="node">
<title>Node19</title>
<g id="a_node19"><a xlink:href="classgko_1_1solver_1_1Gcr.html" target="_top" xlink:title="GCR or the generalized conjugate residual method is an iterative type Krylov subspace method similar ...">
<polygon fill="#ffffff" stroke="#000000" points="1148,-11.5 1148,-30.5 1313,-30.5 1313,-11.5 1148,-11.5"/>
<text text-anchor="middle" x="1230.5" y="-18.5" font-family="Helvetica,sans-Serif" font-size="10.00" fill="#000000">gko::solver::Gcr&lt; ValueType &gt;</text>
</a>
</g>
</g>
<!-- Node18&#45;&gt;Node19 -->
<g id="edge18" class="edge">
<title>Node18&#45;&gt;Node19</title>
<path fill="none" stroke="#191970" d="M1120.253,-21C1129.5193,-21 1138.8318,-21 1147.9051,-21"/>
<polygon fill="#191970" stroke="#191970" points="1120.2297,-17.5001 1110.2296,-21 1120.2296,-24.5001 1120.2297,-17.5001"/>
</g>
<!-- Node21 -->
<g id="node21" class="node">
<title>Node21</title>
<g id="a_node21"><a xlink:href="classgko_1_1solver_1_1Cg.html" target="_top" xlink:title="CG or the conjugate gradient method is an iterative type Krylov subspace method which is suitable for...">
<polygon fill="#ffffff" stroke="#000000" points="1150,-83.5 1150,-102.5 1311,-102.5 1311,-83.5 1150,-83.5"/>
<text text-anchor="middle" x="1230.5" y="-90.5" font-family="Helvetica,sans-Serif" font-size="10.00" fill="#000000">gko::solver::Cg&lt; ValueType &gt;</text>
</a>
</g>
</g>
<!-- Node20&#45;&gt;Node21 -->
<g id="edge20" class="edge">
<title>Node20&#45;&gt;Node21</title>
<path fill="none" stroke="#191970" d="M1120.4801,-93C1130.3475,-93 1140.2645,-93 1149.8869,-93"/>
<polygon fill="#191970" stroke="#191970" points="1120.2297,-89.5001 1110.2296,-93 1120.2296,-96.5001 1120.2297,-89.5001"/>
</g>
<!-- Node22&#45;&gt;Node16 -->
<g id="edge22" class="edge">
<title>Node22&#45;&gt;Node16</title>
<path fill="none" stroke="#191970" d="M707.8736,-115.4211C765.2822,-106.8237 842.9869,-100.7788 910,-115 918.5638,-116.8174 919.9279,-119.6113 928,-123 940.2191,-128.1297 953.4401,-133.4755 965.9181,-138.4296"/>
<polygon fill="#191970" stroke="#191970" points="707.1028,-111.9988 697.7592,-116.9935 708.1782,-118.9158 707.1028,-111.9988"/>
</g>
<!-- Node23&#45;&gt;Node14 -->
<g id="edge24" class="edge">
<title>Node23&#45;&gt;Node14</title>
<path fill="none" stroke="#191970" d="M697.572,-166.1442C756.6875,-155.8994 841.1272,-149.0646 910,-174 919.7917,-177.5451 918.9696,-183.8138 928,-189 936.0152,-193.6032 944.7867,-197.7516 953.6196,-201.4283"/>
<polygon fill="#191970" stroke="#191970" points="696.7925,-162.7283 687.5744,-167.951 698.0375,-169.6167 696.7925,-162.7283"/>
</g>
<!-- Node24&#45;&gt;Node10 -->
<g id="edge26" class="edge">
<title>Node24&#45;&gt;Node10</title>
<path fill="none" stroke="#191970" d="M720.066,-526.2544C726.1231,-526.9441 732.1388,-527.5381 738,-528 814.2082,-534.0054 834.2438,-538.2349 910,-528 924.9769,-525.9766 940.8055,-522.4563 955.6184,-518.5226"/>
<polygon fill="#191970" stroke="#191970" points="720.2033,-522.7453 709.8533,-525.0099 719.3565,-529.6939 720.2033,-522.7453"/>
</g>
<!-- Node25&#45;&gt;Node8 -->
<g id="edge28" class="edge">
<title>Node25&#45;&gt;Node8</title>
<path fill="none" stroke="#191970" d="M730.2152,-227.6146C784.5925,-227.2134 851.5531,-230.4157 910,-244 918.5272,-245.9819 919.8641,-248.7675 928,-252 937.6494,-255.8338 947.9625,-259.6875 958.0517,-263.3267"/>
<polygon fill="#191970" stroke="#191970" points="730.1721,-224.1148 720.2131,-227.7298 730.2528,-231.1143 730.1721,-224.1148"/>
</g>
<!-- Node26&#45;&gt;Node6 -->
<g id="edge30" class="edge">
<title>Node26&#45;&gt;Node6</title>
<path fill="none" stroke="#191970" d="M730.3965,-564C792.0403,-564 868.9621,-564 927.8875,-564"/>
<polygon fill="#191970" stroke="#191970" points="730.2492,-560.5001 720.2492,-564 730.2491,-567.5001 730.2492,-560.5001"/>
</g>
<!-- Node27&#45;&gt;Node4 -->
<g id="edge32" class="edge">
<title>Node27&#45;&gt;Node4</title>
<path fill="none" stroke="#191970" d="M699.012,-396.8071C757.2005,-407.1047 839.7016,-415.4588 910,-399 937.5538,-392.5489 966.1267,-378.056 987.1026,-365.7076"/>
<polygon fill="#191970" stroke="#191970" points="699.6311,-393.3623 689.1644,-395.0048 698.3709,-400.2479 699.6311,-393.3623"/>
</g>
<!-- Node28&#45;&gt;Node18 -->
<g id="edge34" class="edge">
<title>Node28&#45;&gt;Node18</title>
<path fill="none" stroke="#191970" d="M730.3965,-21.7316C792.0403,-21.5753 868.9621,-21.3803 927.8875,-21.231"/>
<polygon fill="#191970" stroke="#191970" points="730.2402,-18.2319 720.2492,-21.7573 730.258,-25.2318 730.2402,-18.2319"/>
</g>
<!-- Node29&#45;&gt;Node20 -->
<g id="edge36" class="edge">
<title>Node29&#45;&gt;Node20</title>
<path fill="none" stroke="#191970" d="M697.3532,-62.0024C710.7979,-59.5038 724.7686,-57.3271 738,-56 814.0628,-48.3707 834.5766,-43.5477 910,-56 930.013,-59.3041 951.2911,-65.8046 969.6851,-72.4473"/>
<polygon fill="#191970" stroke="#191970" points="696.3488,-58.6317 687.1955,-63.9671 697.6782,-65.5043 696.3488,-58.6317"/>
</g>
<!-- Node30&#45;&gt;Node12 -->
<g id="edge38" class="edge">
<title>Node30&#45;&gt;Node12</title>
<path fill="none" stroke="#191970" d="M709.1134,-466.6067C766.2709,-475.1477 843.1959,-481.4253 910,-469 932.7292,-464.7725 956.8303,-455.9813 976.5741,-447.5294"/>
<polygon fill="#191970" stroke="#191970" points="709.4559,-463.1181 699.0382,-465.0473 708.3852,-470.0357 709.4559,-463.1181"/>
</g>
</g>
</svg>
        <g id="navigator" transform="translate(0 0)" fill="#404254">
                <rect fill="#f2f5e9" fill-opacity="0.5" stroke="#606060" stroke-width=".5" x="0" y="0" width="60" height="60"/>
                <use id="zoomplus" xlink:href="#zoomPlus" x="17" y="9" onmousedown="handleZoom(evt,'in')"/>
                <use id="zoomminus" xlink:href="#zoomMin" x="42" y="9" onmousedown="handleZoom(evt,'out')"/>
                <use id="reset" xlink:href="#resetDef" x="30" y="36" onmousedown="handleReset()"/>
                <g id="arrowUp" xlink:href="#dirArrow" transform="translate(30 24)" onmousedown="handlePan(0,-1)">
                  <use xlink:href="#rim" fill="#404040">
                        <set attributeName="fill" to="#808080" begin="arrowUp.mouseover" end="arrowUp.mouseout"/>
                  </use>
                  <path fill="none" stroke="white" stroke-width="1.5" d="M0,-3.0v7 M-2.5,-0.5L0,-3.0L2.5,-0.5"/>
                </g>
                <g id="arrowRight" xlink:href="#dirArrow" transform="rotate(90) translate(36 -43)" onmousedown="handlePan(1,0)">
                  <use xlink:href="#rim" fill="#404040">
                        <set attributeName="fill" to="#808080" begin="arrowRight.mouseover" end="arrowRight.mouseout"/>
                  </use>
                  <path fill="none" stroke="white" stroke-width="1.5" d="M0,-3.0v7 M-2.5,-0.5L0,-3.0L2.5,-0.5"/>
                </g>
                <g id="arrowDown" xlink:href="#dirArrow" transform="rotate(180) translate(-30 -48)" onmousedown="handlePan(0,1)">
                  <use xlink:href="#rim" fill="#404040">
                        <set attributeName="fill" to="#808080" begin="arrowDown.mouseover" end="arrowDown.mouseout"/>
                  </use>
                  <path fill="none" stroke="white" stroke-width="1.5" d="M0,-3.0v7 M-2.5,-0.5L0,-3.0L2.5,-0.5"/>
                </g>
                <g id="arrowLeft" xlink:href="#dirArrow" transform="rotate(270) translate(-36 17)" onmousedown="handlePan(-1,0)">
                  <use xlink:href="#rim" fill="#404040">
                        <set attributeName="fill" to="#808080" begin="arrowLeft.mouseover" end="arrowLeft.mouseout"/>
                  </use>
                  <path fill="none" stroke="white" stroke-width="1.5" d="M0,-3.0v7 M-2.5,-0.5L0,-3.0L2.5,-0.5"/>
                </g>
        </g>
        <svg viewBox="0 0 15 15" width="100%" height="30px" preserveAspectRatio="xMaxYMin meet">
         <g id="arrow_out" transform="scale(0.3 0.3)">
          <a xlink:href="classgko_1_1solver_1_1EnablePreconditionable__inherit__graph_org.svg" target="_base">
           <rect id="button" ry="5" rx="5" y="6" x="6" height="38" width="38"
                fill="#f2f5e9" fill-opacity="0.5" stroke="#606060" stroke-width="1.0"/>
           <path id="arrow"
             d="M 11.500037,31.436501 C 11.940474,20.09759 22.043105,11.32322 32.158766,21.979434 L 37.068811,17.246167 C 37.068811,17.246167 37.088388,32 37.088388,32 L 22.160133,31.978069 C 22.160133,31.978069 26.997745,27.140456 26.997745,27.140456 C 18.528582,18.264221 13.291696,25.230495 11.500037,31.436501 z"
             style="fill:#404040;"/>
          </a>
         </g>
        </svg>
</svg>
