<?xml version="1.0" encoding="UTF-8" standalone="no"?>
<!DOCTYPE svg PUBLIC "-//W3C//DTD SVG 1.1//EN"
 "http://www.w3.org/Graphics/SVG/1.1/DTD/svg11.dtd">
<!-- Generated by graphviz version 2.40.1 (20161225.0304)
 -->
<!-- Title: gko::EnableAbsoluteComputation&lt; AbsoluteLinOp &gt; Pages: 1 -->
<svg width="1230pt" height="569pt"
 viewBox="0.00 0.00 1230.00 568.87" xmlns="http://www.w3.org/2000/svg" xmlns:xlink="http://www.w3.org/1999/xlink">
<g id="graph0" class="graph" transform="scale(1 1) rotate(0) translate(4 564.871)">
<title>gko::EnableAbsoluteComputation&lt; AbsoluteLinOp &gt;</title>
<polygon fill="#ffffff" stroke="transparent" points="-4,4 -4,-564.871 1226,-564.871 1226,4 -4,4"/>
<!-- Node1 -->
<g id="node1" class="node">
<title>Node1</title>
<g id="a_node1"><a xlink:title="The EnableAbsoluteComputation mixin provides the default implementations of compute_absolute_linop an...">
<polygon fill="#bfbfbf" stroke="#000000" points="180,-280 180,-310 359,-310 359,-280 180,-280"/>
<text text-anchor="start" x="188" y="-298" font-family="Helvetica,sans-Serif" font-size="10.00" fill="#000000">gko::EnableAbsoluteComputation</text>
<text text-anchor="middle" x="269.5" y="-287" font-family="Helvetica,sans-Serif" font-size="10.00" fill="#000000">&lt; AbsoluteLinOp &gt;</text>
</a>
</g>
</g>
<!-- Node3 -->
<g id="node3" class="node">
<title>Node3</title>
<g id="a_node3"><a xlink:href="classgko_1_1matrix_1_1Dense.html" target="_top" xlink:title=" ">
<polygon fill="#ffffff" stroke="#000000" points="611.5,-530.5 611.5,-549.5 735.5,-549.5 735.5,-530.5 611.5,-530.5"/>
<text text-anchor="middle" x="673.5" y="-537.5" font-family="Helvetica,sans-Serif" font-size="10.00" fill="#000000">Dense&lt; value_type &gt;</text>
</a>
</g>
</g>
<!-- Node1&#45;&gt;Node3 -->
<g id="edge2" class="edge">
<title>Node1&#45;&gt;Node3</title>
<path fill="none" stroke="#191970" d="M273.0515,-320.2766C281.3636,-368.8606 306.9807,-474.6528 377,-522 454.7509,-574.5754 571.8104,-561.4929 632.9887,-549.5366"/>
<polygon fill="#191970" stroke="#191970" points="276.4887,-319.6055 271.4508,-310.2851 269.5768,-320.7129 276.4887,-319.6055"/>
</g>
<!-- Node4 -->
<g id="node4" class="node">
<title>Node4</title>
<g id="a_node4"><a xlink:href="classgko_1_1EnableAbsoluteComputation.html" target="_top" xlink:title=" ">
<polygon fill="#ffffff" stroke="#000000" points="584,-470.5 584,-511.5 763,-511.5 763,-470.5 584,-470.5"/>
<text text-anchor="start" x="592" y="-499.5" font-family="Helvetica,sans-Serif" font-size="10.00" fill="#000000">gko::EnableAbsoluteComputation</text>
<text text-anchor="start" x="592" y="-488.5" font-family="Helvetica,sans-Serif" font-size="10.00" fill="#000000">&lt; remove_complex&lt; Hybrid&lt;</text>
<text text-anchor="middle" x="673.5" y="-477.5" font-family="Helvetica,sans-Serif" font-size="10.00" fill="#000000"> ValueType, IndexType &gt; &gt; &gt;</text>
</a>
</g>
</g>
<!-- Node1&#45;&gt;Node4 -->
<g id="edge3" class="edge">
<title>Node1&#45;&gt;Node4</title>
<path fill="none" stroke="#ffa500" stroke-dasharray="5,2" d="M278.788,-320.1221C293.556,-356.1876 326.0408,-421.7277 377,-453 438.8142,-490.9338 521.4984,-498.7758 583.8458,-498.0757"/>
<polygon fill="#ffa500" stroke="#ffa500" points="281.8623,-318.3783 274.9318,-310.3647 275.3523,-320.9512 281.8623,-318.3783"/>
<text text-anchor="start" x="378.5" y="-510" font-family="Helvetica,sans-Serif" font-size="10.00" fill="#000000"> &lt; remove_complex&lt; Hybrid</text>
<text text-anchor="middle" x="454" y="-499" font-family="Helvetica,sans-Serif" font-size="10.00" fill="#000000">&lt; ValueType, IndexType &gt; &gt; &gt;</text>
</g>
<!-- Node6 -->
<g id="node6" class="node">
<title>Node6</title>
<g id="a_node6"><a xlink:href="classgko_1_1EnableAbsoluteComputation.html" target="_top" xlink:title=" ">
<polygon fill="#ffffff" stroke="#000000" points="567.5,-410.5 567.5,-451.5 779.5,-451.5 779.5,-410.5 567.5,-410.5"/>
<text text-anchor="start" x="575.5" y="-439.5" font-family="Helvetica,sans-Serif" font-size="10.00" fill="#000000">gko::EnableAbsoluteComputation</text>
<text text-anchor="start" x="575.5" y="-428.5" font-family="Helvetica,sans-Serif" font-size="10.00" fill="#000000">&lt; remove_complex&lt; Sellp&lt; ValueType,</text>
<text text-anchor="middle" x="673.5" y="-417.5" font-family="Helvetica,sans-Serif" font-size="10.00" fill="#000000"> IndexType &gt; &gt; &gt;</text>
</a>
</g>
</g>
<!-- Node1&#45;&gt;Node6 -->
<g id="edge5" class="edge">
<title>Node1&#45;&gt;Node6</title>
<path fill="none" stroke="#ffa500" stroke-dasharray="5,2" d="M288.1215,-317.9104C307.7193,-340.2868 340.7162,-373.3341 377,-390 436.3821,-417.2754 508.9679,-427.6477 567.4575,-431.1416"/>
<polygon fill="#ffa500" stroke="#ffa500" points="290.6859,-315.5239 281.5262,-310.1994 285.3663,-320.0738 290.6859,-315.5239"/>
<text text-anchor="start" x="378.5" y="-441" font-family="Helvetica,sans-Serif" font-size="10.00" fill="#000000"> &lt; remove_complex&lt; Sellp</text>
<text text-anchor="middle" x="454" y="-430" font-family="Helvetica,sans-Serif" font-size="10.00" fill="#000000">&lt; ValueType, IndexType &gt; &gt; &gt;</text>
</g>
<!-- Node8 -->
<g id="node8" class="node">
<title>Node8</title>
<g id="a_node8"><a xlink:href="classgko_1_1EnableAbsoluteComputation.html" target="_top" xlink:title=" ">
<polygon fill="#ffffff" stroke="#000000" points="549,-361 549,-391 798,-391 798,-361 549,-361"/>
<text text-anchor="start" x="557" y="-379" font-family="Helvetica,sans-Serif" font-size="10.00" fill="#000000">gko::EnableAbsoluteComputation</text>
<text text-anchor="middle" x="673.5" y="-368" font-family="Helvetica,sans-Serif" font-size="10.00" fill="#000000">&lt; remove_complex&lt; Dense&lt; ValueType &gt; &gt; &gt;</text>
</a>
</g>
</g>
<!-- Node1&#45;&gt;Node8 -->
<g id="edge7" class="edge">
<title>Node1&#45;&gt;Node8</title>
<path fill="none" stroke="#ffa500" stroke-dasharray="5,2" d="M310.5292,-314.2546C330.2365,-322.7606 354.428,-332.1405 377,-338 432.5061,-352.409 495.3369,-361.4589 548.8274,-367.0915"/>
<polygon fill="#ffa500" stroke="#ffa500" points="311.8045,-310.9919 301.2417,-310.1683 308.9854,-317.3992 311.8045,-310.9919"/>
<text text-anchor="start" x="383" y="-378" font-family="Helvetica,sans-Serif" font-size="10.00" fill="#000000"> &lt; remove_complex&lt; Dense</text>
<text text-anchor="middle" x="454" y="-367" font-family="Helvetica,sans-Serif" font-size="10.00" fill="#000000">&lt; ValueType &gt; &gt; &gt;</text>
</g>
<!-- Node11 -->
<g id="node11" class="node">
<title>Node11</title>
<g id="a_node11"><a xlink:href="classgko_1_1EnableAbsoluteComputation.html" target="_top" xlink:title=" ">
<polygon fill="#ffffff" stroke="#000000" points="570.5,-300.5 570.5,-341.5 776.5,-341.5 776.5,-300.5 570.5,-300.5"/>
<text text-anchor="start" x="578.5" y="-329.5" font-family="Helvetica,sans-Serif" font-size="10.00" fill="#000000">gko::EnableAbsoluteComputation</text>
<text text-anchor="start" x="578.5" y="-318.5" font-family="Helvetica,sans-Serif" font-size="10.00" fill="#000000">&lt; remove_complex&lt; Coo&lt; ValueType,</text>
<text text-anchor="middle" x="673.5" y="-307.5" font-family="Helvetica,sans-Serif" font-size="10.00" fill="#000000"> IndexType &gt; &gt; &gt;</text>
</a>
</g>
</g>
<!-- Node1&#45;&gt;Node11 -->
<g id="edge10" class="edge">
<title>Node1&#45;&gt;Node11</title>
<path fill="none" stroke="#ffa500" stroke-dasharray="5,2" d="M369.2045,-301.4166C430.3227,-305.35 508.4149,-310.3757 570.1852,-314.351"/>
<polygon fill="#ffa500" stroke="#ffa500" points="369.3649,-297.9198 359.1607,-300.7702 368.9152,-304.9053 369.3649,-297.9198"/>
<text text-anchor="start" x="378.5" y="-326" font-family="Helvetica,sans-Serif" font-size="10.00" fill="#000000"> &lt; remove_complex&lt; Coo</text>
<text text-anchor="middle" x="454" y="-315" font-family="Helvetica,sans-Serif" font-size="10.00" fill="#000000">&lt; ValueType, IndexType &gt; &gt; &gt;</text>
</g>
<!-- Node13 -->
<g id="node13" class="node">
<title>Node13</title>
<g id="a_node13"><a xlink:href="classgko_1_1EnableAbsoluteComputation.html" target="_top" xlink:title=" ">
<polygon fill="#ffffff" stroke="#000000" points="584,-240.5 584,-281.5 763,-281.5 763,-240.5 584,-240.5"/>
<text text-anchor="start" x="592" y="-269.5" font-family="Helvetica,sans-Serif" font-size="10.00" fill="#000000">gko::EnableAbsoluteComputation</text>
<text text-anchor="start" x="592" y="-258.5" font-family="Helvetica,sans-Serif" font-size="10.00" fill="#000000">&lt; remove_complex&lt; Diagonal</text>
<text text-anchor="middle" x="673.5" y="-247.5" font-family="Helvetica,sans-Serif" font-size="10.00" fill="#000000">&lt; ValueType &gt; &gt; &gt;</text>
</a>
</g>
</g>
<!-- Node1&#45;&gt;Node13 -->
<g id="edge12" class="edge">
<title>Node1&#45;&gt;Node13</title>
<path fill="none" stroke="#ffa500" stroke-dasharray="5,2" d="M358.0642,-278.4517C364.4594,-277.5321 370.8207,-276.6996 377,-276 446.1393,-268.1719 524.8124,-264.4286 583.737,-262.6389"/>
<polygon fill="#ffa500" stroke="#ffa500" points="357.3773,-275.0156 348.0081,-279.9622 358.4171,-281.9379 357.3773,-275.0156"/>
<text text-anchor="start" x="377" y="-290" font-family="Helvetica,sans-Serif" font-size="10.00" fill="#000000"> &lt; remove_complex&lt; Diagonal</text>
<text text-anchor="middle" x="454" y="-279" font-family="Helvetica,sans-Serif" font-size="10.00" fill="#000000">&lt; ValueType &gt; &gt; &gt;</text>
</g>
<!-- Node15 -->
<g id="node15" class="node">
<title>Node15</title>
<g id="a_node15"><a xlink:href="classgko_1_1EnableAbsoluteComputation.html" target="_top" xlink:title=" ">
<polygon fill="#ffffff" stroke="#000000" points="584,-180.5 584,-221.5 763,-221.5 763,-180.5 584,-180.5"/>
<text text-anchor="start" x="592" y="-209.5" font-family="Helvetica,sans-Serif" font-size="10.00" fill="#000000">gko::EnableAbsoluteComputation</text>
<text text-anchor="start" x="592" y="-198.5" font-family="Helvetica,sans-Serif" font-size="10.00" fill="#000000">&lt; remove_complex&lt; Vector&lt;</text>
<text text-anchor="middle" x="673.5" y="-187.5" font-family="Helvetica,sans-Serif" font-size="10.00" fill="#000000"> ValueType &gt; &gt; &gt;</text>
</a>
</g>
</g>
<!-- Node1&#45;&gt;Node15 -->
<g id="edge14" class="edge">
<title>Node1&#45;&gt;Node15</title>
<path fill="none" stroke="#ffa500" stroke-dasharray="5,2" d="M301.4775,-274.5161C322.205,-262.2239 350.2384,-247.3916 377,-239 444.47,-217.8434 524.1095,-208.443 583.8527,-204.2777"/>
<polygon fill="#ffa500" stroke="#ffa500" points="299.5268,-271.6055 292.7834,-279.7772 303.1509,-277.5944 299.5268,-271.6055"/>
<text text-anchor="start" x="383" y="-253" font-family="Helvetica,sans-Serif" font-size="10.00" fill="#000000"> &lt; remove_complex&lt; Vector</text>
<text text-anchor="middle" x="454" y="-242" font-family="Helvetica,sans-Serif" font-size="10.00" fill="#000000">&lt; ValueType &gt; &gt; &gt;</text>
</g>
<!-- Node17 -->
<g id="node17" class="node">
<title>Node17</title>
<g id="a_node17"><a xlink:href="classgko_1_1EnableAbsoluteComputation.html" target="_top" xlink:title=" ">
<polygon fill="#ffffff" stroke="#000000" points="567,-120.5 567,-161.5 780,-161.5 780,-120.5 567,-120.5"/>
<text text-anchor="start" x="575" y="-149.5" font-family="Helvetica,sans-Serif" font-size="10.00" fill="#000000">gko::EnableAbsoluteComputation</text>
<text text-anchor="start" x="575" y="-138.5" font-family="Helvetica,sans-Serif" font-size="10.00" fill="#000000">&lt; remove_complex&lt; Fbcsr&lt; ValueType,</text>
<text text-anchor="middle" x="673.5" y="-127.5" font-family="Helvetica,sans-Serif" font-size="10.00" fill="#000000"> IndexType &gt; &gt; &gt;</text>
</a>
</g>
</g>
<!-- Node1&#45;&gt;Node17 -->
<g id="edge16" class="edge">
<title>Node1&#45;&gt;Node17</title>
<path fill="none" stroke="#ffa500" stroke-dasharray="5,2" d="M285.1878,-271.1871C303.7671,-245.1165 337.2597,-204.3228 377,-184 435.3506,-154.1601 508.089,-143.2771 566.9169,-139.9191"/>
<polygon fill="#ffa500" stroke="#ffa500" points="282.08,-269.5263 279.2523,-279.7368 287.8302,-273.5183 282.08,-269.5263"/>
<text text-anchor="start" x="378.5" y="-198" font-family="Helvetica,sans-Serif" font-size="10.00" fill="#000000"> &lt; remove_complex&lt; Fbcsr</text>
<text text-anchor="middle" x="454" y="-187" font-family="Helvetica,sans-Serif" font-size="10.00" fill="#000000">&lt; ValueType, IndexType &gt; &gt; &gt;</text>
</g>
<!-- Node19 -->
<g id="node19" class="node">
<title>Node19</title>
<g id="a_node19"><a xlink:href="classgko_1_1EnableAbsoluteComputation.html" target="_top" xlink:title=" ">
<polygon fill="#ffffff" stroke="#000000" points="572,-60.5 572,-101.5 775,-101.5 775,-60.5 572,-60.5"/>
<text text-anchor="start" x="580" y="-89.5" font-family="Helvetica,sans-Serif" font-size="10.00" fill="#000000">gko::EnableAbsoluteComputation</text>
<text text-anchor="start" x="580" y="-78.5" font-family="Helvetica,sans-Serif" font-size="10.00" fill="#000000">&lt; remove_complex&lt; Csr&lt; ValueType,</text>
<text text-anchor="middle" x="673.5" y="-67.5" font-family="Helvetica,sans-Serif" font-size="10.00" fill="#000000"> IndexType &gt; &gt; &gt;</text>
</a>
</g>
</g>
<!-- Node1&#45;&gt;Node19 -->
<g id="edge18" class="edge">
<title>Node1&#45;&gt;Node19</title>
<path fill="none" stroke="#ffa500" stroke-dasharray="5,2" d="M276.7455,-270.3242C289.7454,-230.8407 321.038,-154.2318 377,-118 434.2619,-80.9266 510.9303,-72.1775 571.9589,-72.4361"/>
<polygon fill="#ffa500" stroke="#ffa500" points="273.375,-269.3744 273.6941,-279.9644 280.0487,-271.4868 273.375,-269.3744"/>
<text text-anchor="start" x="378.5" y="-132" font-family="Helvetica,sans-Serif" font-size="10.00" fill="#000000"> &lt; remove_complex&lt; Csr</text>
<text text-anchor="middle" x="454" y="-121" font-family="Helvetica,sans-Serif" font-size="10.00" fill="#000000">&lt; ValueType, IndexType &gt; &gt; &gt;</text>
</g>
<!-- Node21 -->
<g id="node21" class="node">
<title>Node21</title>
<g id="a_node21"><a xlink:href="classgko_1_1EnableAbsoluteComputation.html" target="_top" xlink:title=" ">
<polygon fill="#ffffff" stroke="#000000" points="573.5,-.5 573.5,-41.5 773.5,-41.5 773.5,-.5 573.5,-.5"/>
<text text-anchor="start" x="581.5" y="-29.5" font-family="Helvetica,sans-Serif" font-size="10.00" fill="#000000">gko::EnableAbsoluteComputation</text>
<text text-anchor="start" x="581.5" y="-18.5" font-family="Helvetica,sans-Serif" font-size="10.00" fill="#000000">&lt; remove_complex&lt; Ell&lt; ValueType,</text>
<text text-anchor="middle" x="673.5" y="-7.5" font-family="Helvetica,sans-Serif" font-size="10.00" fill="#000000"> IndexType &gt; &gt; &gt;</text>
</a>
</g>
</g>
<!-- Node1&#45;&gt;Node21 -->
<g id="edge20" class="edge">
<title>Node1&#45;&gt;Node21</title>
<path fill="none" stroke="#ffa500" stroke-dasharray="5,2" d="M272.1904,-269.5879C279.128,-218.0773 302.652,-101.7037 377,-48 432.9376,-7.5946 511.166,-1.9883 573.2246,-5.8747"/>
<polygon fill="#ffa500" stroke="#ffa500" points="268.6778,-269.4733 270.9176,-279.8286 275.6244,-270.3367 268.6778,-269.4733"/>
<text text-anchor="start" x="378.5" y="-62" font-family="Helvetica,sans-Serif" font-size="10.00" fill="#000000"> &lt; remove_complex&lt; Ell</text>
<text text-anchor="middle" x="454" y="-51" font-family="Helvetica,sans-Serif" font-size="10.00" fill="#000000">&lt; ValueType, IndexType &gt; &gt; &gt;</text>
</g>
<!-- Node2 -->
<g id="node2" class="node">
<title>Node2</title>
<g id="a_node2"><a xlink:href="classgko_1_1AbsoluteComputable.html" target="_top" xlink:title="The AbsoluteComputable is an interface that allows to get the component wise absolute of a LinOp.">
<polygon fill="#ffffff" stroke="#000000" points="0,-285.5 0,-304.5 143,-304.5 143,-285.5 0,-285.5"/>
<text text-anchor="middle" x="71.5" y="-292.5" font-family="Helvetica,sans-Serif" font-size="10.00" fill="#000000">gko::AbsoluteComputable</text>
</a>
</g>
</g>
<!-- Node2&#45;&gt;Node1 -->
<g id="edge1" class="edge">
<title>Node2&#45;&gt;Node1</title>
<path fill="none" stroke="#191970" d="M153.3712,-295C162.0677,-295 170.9461,-295 179.7268,-295"/>
<polygon fill="#191970" stroke="#191970" points="153.2625,-291.5001 143.2625,-295 153.2625,-298.5001 153.2625,-291.5001"/>
</g>
<!-- Node5 -->
<g id="node5" class="node">
<title>Node5</title>
<g id="a_node5"><a xlink:href="classgko_1_1matrix_1_1Hybrid.html" target="_top" xlink:title="HYBRID is a matrix format which splits the matrix into ELLPACK and COO format.">
<polygon fill="#ffffff" stroke="#000000" points="843.5,-476 843.5,-506 987.5,-506 987.5,-476 843.5,-476"/>
<text text-anchor="start" x="851.5" y="-494" font-family="Helvetica,sans-Serif" font-size="10.00" fill="#000000">gko::matrix::Hybrid</text>
<text text-anchor="middle" x="915.5" y="-483" font-family="Helvetica,sans-Serif" font-size="10.00" fill="#000000">&lt; ValueType, IndexType &gt;</text>
</a>
</g>
</g>
<!-- Node4&#45;&gt;Node5 -->
<g id="edge4" class="edge">
<title>Node4&#45;&gt;Node5</title>
<path fill="none" stroke="#191970" d="M773.5577,-491C796.9212,-491 821.3591,-491 843.2429,-491"/>
<polygon fill="#191970" stroke="#191970" points="773.268,-487.5001 763.268,-491 773.2679,-494.5001 773.268,-487.5001"/>
</g>
<!-- Node7 -->
<g id="node7" class="node">
<title>Node7</title>
<g id="a_node7"><a xlink:href="classgko_1_1matrix_1_1Sellp.html" target="_top" xlink:title="SELL&#45;P is a matrix format similar to ELL format.">
<polygon fill="#ffffff" stroke="#000000" points="843.5,-416 843.5,-446 987.5,-446 987.5,-416 843.5,-416"/>
<text text-anchor="start" x="851.5" y="-434" font-family="Helvetica,sans-Serif" font-size="10.00" fill="#000000">gko::matrix::Sellp</text>
<text text-anchor="middle" x="915.5" y="-423" font-family="Helvetica,sans-Serif" font-size="10.00" fill="#000000">&lt; ValueType, IndexType &gt;</text>
</a>
</g>
</g>
<!-- Node6&#45;&gt;Node7 -->
<g id="edge6" class="edge">
<title>Node6&#45;&gt;Node7</title>
<path fill="none" stroke="#191970" d="M789.7411,-431C807.9602,-431 826.3234,-431 843.175,-431"/>
<polygon fill="#191970" stroke="#191970" points="789.6448,-427.5001 779.6447,-431 789.6447,-434.5001 789.6448,-427.5001"/>
</g>
<!-- Node9 -->
<g id="node9" class="node">
<title>Node9</title>
<g id="a_node9"><a xlink:href="classgko_1_1matrix_1_1Dense.html" target="_top" xlink:title="Dense is a matrix format which explicitly stores all values of the matrix.">
<polygon fill="#ffffff" stroke="#000000" points="860.5,-361 860.5,-391 970.5,-391 970.5,-361 860.5,-361"/>
<text text-anchor="start" x="868.5" y="-379" font-family="Helvetica,sans-Serif" font-size="10.00" fill="#000000">gko::matrix::Dense</text>
<text text-anchor="middle" x="915.5" y="-368" font-family="Helvetica,sans-Serif" font-size="10.00" fill="#000000">&lt; ValueType &gt;</text>
</a>
</g>
</g>
<!-- Node8&#45;&gt;Node9 -->
<g id="edge8" class="edge">
<title>Node8&#45;&gt;Node9</title>
<path fill="none" stroke="#191970" d="M808.2824,-376C826.6509,-376 844.5901,-376 860.3771,-376"/>
<polygon fill="#191970" stroke="#191970" points="808.0445,-372.5001 798.0445,-376 808.0444,-379.5001 808.0445,-372.5001"/>
</g>
<!-- Node10 -->
<g id="node10" class="node">
<title>Node10</title>
<g id="a_node10"><a xlink:href="classgko_1_1matrix_1_1Dense.html" target="_top" xlink:title=" ">
<polygon fill="#ffffff" stroke="#000000" points="1112,-361 1112,-391 1222,-391 1222,-361 1112,-361"/>
<text text-anchor="start" x="1120" y="-379" font-family="Helvetica,sans-Serif" font-size="10.00" fill="#000000">gko::matrix::Dense</text>
<text text-anchor="middle" x="1167" y="-368" font-family="Helvetica,sans-Serif" font-size="10.00" fill="#000000">&lt; value_type &gt;</text>
</a>
</g>
</g>
<!-- Node9&#45;&gt;Node10 -->
<g id="edge9" class="edge">
<title>Node9&#45;&gt;Node10</title>
<path fill="none" stroke="#ffa500" stroke-dasharray="5,2" d="M980.7894,-376C1021.5011,-376 1073.3084,-376 1111.936,-376"/>
<polygon fill="#ffa500" stroke="#ffa500" points="980.6928,-372.5001 970.6927,-376 980.6927,-379.5001 980.6928,-372.5001"/>
<text text-anchor="middle" x="1054" y="-379" font-family="Helvetica,sans-Serif" font-size="10.00" fill="#000000"> &lt; value_type &gt;</text>
</g>
<!-- Node12 -->
<g id="node12" class="node">
<title>Node12</title>
<g id="a_node12"><a xlink:href="classgko_1_1matrix_1_1Coo.html" target="_top" xlink:title="COO stores a matrix in the coordinate matrix format.">
<polygon fill="#ffffff" stroke="#000000" points="835,-306 835,-336 996,-336 996,-306 835,-306"/>
<text text-anchor="start" x="843" y="-324" font-family="Helvetica,sans-Serif" font-size="10.00" fill="#000000">gko::matrix::Coo&lt; ValueType,</text>
<text text-anchor="middle" x="915.5" y="-313" font-family="Helvetica,sans-Serif" font-size="10.00" fill="#000000"> IndexType &gt;</text>
</a>
</g>
</g>
<!-- Node11&#45;&gt;Node12 -->
<g id="edge11" class="edge">
<title>Node11&#45;&gt;Node12</title>
<path fill="none" stroke="#191970" d="M786.8785,-321C803.0689,-321 819.442,-321 834.8321,-321"/>
<polygon fill="#191970" stroke="#191970" points="786.8318,-317.5001 776.8317,-321 786.8317,-324.5001 786.8318,-317.5001"/>
</g>
<!-- Node14 -->
<g id="node14" class="node">
<title>Node14</title>
<g id="a_node14"><a xlink:href="classgko_1_1matrix_1_1Diagonal.html" target="_top" xlink:title="This class is a utility which efficiently implements the diagonal matrix (a linear operator which sca...">
<polygon fill="#ffffff" stroke="#000000" points="854.5,-246 854.5,-276 976.5,-276 976.5,-246 854.5,-246"/>
<text text-anchor="start" x="862.5" y="-264" font-family="Helvetica,sans-Serif" font-size="10.00" fill="#000000">gko::matrix::Diagonal</text>
<text text-anchor="middle" x="915.5" y="-253" font-family="Helvetica,sans-Serif" font-size="10.00" fill="#000000">&lt; ValueType &gt;</text>
</a>
</g>
</g>
<!-- Node13&#45;&gt;Node14 -->
<g id="edge13" class="edge">
<title>Node13&#45;&gt;Node14</title>
<path fill="none" stroke="#191970" d="M773.2884,-261C800.7003,-261 829.6114,-261 854.1552,-261"/>
<polygon fill="#191970" stroke="#191970" points="773.268,-257.5001 763.268,-261 773.2679,-264.5001 773.268,-257.5001"/>
</g>
<!-- Node16 -->
<g id="node16" class="node">
<title>Node16</title>
<g id="a_node16"><a xlink:href="classgko_1_1experimental_1_1distributed_1_1Vector.html" target="_top" xlink:title="Vector is a format which explicitly stores (multiple) distributed column vectors in a dense storage f...">
<polygon fill="#ffffff" stroke="#000000" points="859.5,-180.5 859.5,-221.5 971.5,-221.5 971.5,-180.5 859.5,-180.5"/>
<text text-anchor="start" x="867.5" y="-209.5" font-family="Helvetica,sans-Serif" font-size="10.00" fill="#000000">gko::experimental::</text>
<text text-anchor="start" x="867.5" y="-198.5" font-family="Helvetica,sans-Serif" font-size="10.00" fill="#000000">distributed::Vector</text>
<text text-anchor="middle" x="915.5" y="-187.5" font-family="Helvetica,sans-Serif" font-size="10.00" fill="#000000">&lt; ValueType &gt;</text>
</a>
</g>
</g>
<!-- Node15&#45;&gt;Node16 -->
<g id="edge15" class="edge">
<title>Node15&#45;&gt;Node16</title>
<path fill="none" stroke="#191970" d="M773.5337,-201C802.7884,-201 833.7297,-201 859.2334,-201"/>
<polygon fill="#191970" stroke="#191970" points="773.268,-197.5001 763.268,-201 773.2679,-204.5001 773.268,-197.5001"/>
</g>
<!-- Node18 -->
<g id="node18" class="node">
<title>Node18</title>
<g id="a_node18"><a xlink:href="classgko_1_1matrix_1_1Fbcsr.html" target="_top" xlink:title="Fixed&#45;block compressed sparse row storage matrix format.">
<polygon fill="#ffffff" stroke="#000000" points="843.5,-126 843.5,-156 987.5,-156 987.5,-126 843.5,-126"/>
<text text-anchor="start" x="851.5" y="-144" font-family="Helvetica,sans-Serif" font-size="10.00" fill="#000000">gko::matrix::Fbcsr</text>
<text text-anchor="middle" x="915.5" y="-133" font-family="Helvetica,sans-Serif" font-size="10.00" fill="#000000">&lt; ValueType, IndexType &gt;</text>
</a>
</g>
</g>
<!-- Node17&#45;&gt;Node18 -->
<g id="edge17" class="edge">
<title>Node17&#45;&gt;Node18</title>
<path fill="none" stroke="#191970" d="M790.3534,-141C808.4023,-141 826.5744,-141 843.2608,-141"/>
<polygon fill="#191970" stroke="#191970" points="790.3492,-137.5001 780.3492,-141 790.3491,-144.5001 790.3492,-137.5001"/>
</g>
<!-- Node20 -->
<g id="node20" class="node">
<title>Node20</title>
<g id="a_node20"><a xlink:href="classgko_1_1matrix_1_1Csr.html" target="_top" xlink:title="CSR is a matrix format which stores only the nonzero coefficients by compressing each row of the matr...">
<polygon fill="#ffffff" stroke="#000000" points="836.5,-66 836.5,-96 994.5,-96 994.5,-66 836.5,-66"/>
<text text-anchor="start" x="844.5" y="-84" font-family="Helvetica,sans-Serif" font-size="10.00" fill="#000000">gko::matrix::Csr&lt; ValueType,</text>
<text text-anchor="middle" x="915.5" y="-73" font-family="Helvetica,sans-Serif" font-size="10.00" fill="#000000"> IndexType &gt;</text>
</a>
</g>
</g>
<!-- Node19&#45;&gt;Node20 -->
<g id="edge19" class="edge">
<title>Node19&#45;&gt;Node20</title>
<path fill="none" stroke="#191970" d="M785.1873,-81C802.4252,-81 819.9166,-81 836.251,-81"/>
<polygon fill="#191970" stroke="#191970" points="785.078,-77.5001 775.0779,-81 785.0779,-84.5001 785.078,-77.5001"/>
</g>
<!-- Node22 -->
<g id="node22" class="node">
<title>Node22</title>
<g id="a_node22"><a xlink:href="classgko_1_1matrix_1_1Ell.html" target="_top" xlink:title="ELL is a matrix format where stride with explicit zeros is used such that all rows have the same numb...">
<polygon fill="#ffffff" stroke="#000000" points="838,-6 838,-36 993,-36 993,-6 838,-6"/>
<text text-anchor="start" x="846" y="-24" font-family="Helvetica,sans-Serif" font-size="10.00" fill="#000000">gko::matrix::Ell&lt; ValueType,</text>
<text text-anchor="middle" x="915.5" y="-13" font-family="Helvetica,sans-Serif" font-size="10.00" fill="#000000"> IndexType &gt;</text>
</a>
</g>
</g>
<!-- Node21&#45;&gt;Node22 -->
<g id="edge21" class="edge">
<title>Node21&#45;&gt;Node22</title>
<path fill="none" stroke="#191970" d="M783.7898,-21C802.0721,-21 820.6831,-21 837.9357,-21"/>
<polygon fill="#191970" stroke="#191970" points="783.6776,-17.5001 773.6775,-21 783.6775,-24.5001 783.6776,-17.5001"/>
</g>
</g>
</svg>
