<?xml version="1.0" encoding="UTF-8" standalone="no"?>
<!DOCTYPE svg PUBLIC "-//W3C//DTD SVG 1.1//EN"
 "http://www.w3.org/Graphics/SVG/1.1/DTD/svg11.dtd">
<!-- Generated by graphviz version 2.40.1 (20161225.0304)
 -->
<!-- Title: gko::matrix::RowGatherer&lt; IndexType &gt; Pages: 1 -->
<!--zoomable 348 -->
<svg id="main" version="1.1" xmlns="http://www.w3.org/2000/svg" xmlns:xlink="http://www.w3.org/1999/xlink" xml:space="preserve" onload="init(evt)">
<style type="text/css"><![CDATA[
.edge:hover path { stroke: red; }
.edge:hover polygon { stroke: red; fill: red; }
]]></style>
<script type="text/javascript"><![CDATA[
var edges = document.getElementsByTagName('g');
if (edges && edges.length) {
  for (var i=0;i<edges.length;i++) {
    if (edges[i].id.substr(0,4)=='edge') {
      edges[i].setAttribute('class','edge');
    }
  }
}
]]></script>
        <defs>
                <circle id="rim" cx="0" cy="0" r="7"/>
                <circle id="rim2" cx="0" cy="0" r="3.5"/>
                <g id="zoomPlus">
                        <use xlink:href="#rim" fill="#404040">
                                <set attributeName="fill" to="#808080" begin="zoomplus.mouseover" end="zoomplus.mouseout"/>
                        </use>
                        <path d="M-4,0h8M0,-4v8" fill="none" stroke="white" stroke-width="1.5" pointer-events="none"/>
                </g>
                <g id="zoomMin">
                        <use xlink:href="#rim" fill="#404040">
                                <set attributeName="fill" to="#808080" begin="zoomminus.mouseover" end="zoomminus.mouseout"/>
                        </use>
                        <path d="M-4,0h8" fill="none" stroke="white" stroke-width="1.5" pointer-events="none"/>
                </g>
                <g id="dirArrow">
                        <path fill="none" stroke="white" stroke-width="1.5" d="M0,-3.0v7 M-2.5,-0.5L0,-3.0L2.5,-0.5"/>
                </g>
               <g id="resetDef">
                       <use xlink:href="#rim2" fill="#404040">
                               <set attributeName="fill" to="#808080" begin="reset.mouseover" end="reset.mouseout"/>
                       </use>
               </g>
        </defs>

<script type="text/javascript">
var viewWidth = 2293;
var viewHeight = 348;
var sectionId = 'dynsection-1';
</script>
<script xlink:href="svgpan.js"/>
<svg id="graph" class="graph">
<g id="viewport">
<title>gko::matrix::RowGatherer&lt; IndexType &gt;</title>
<polygon fill="#ffffff" stroke="transparent" points="-4,4 -4,-344 2289,-344 2289,4 -4,4"/>
<!-- Node1 -->
<g id="node1" class="node">
<title>Node1</title>
<g id="a_node1"><a xlink:title="RowGatherer is a matrix &quot;format&quot; which stores the gather indices arrays which can be used to gather r...">
<polygon fill="#bfbfbf" stroke="#000000" points="2143,-113.5 2143,-143.5 2285,-143.5 2285,-113.5 2143,-113.5"/>
<text text-anchor="start" x="2151" y="-131.5" font-family="Helvetica,sans-Serif" font-size="10.00" fill="#000000">gko::matrix::RowGatherer</text>
<text text-anchor="middle" x="2214" y="-120.5" font-family="Helvetica,sans-Serif" font-size="10.00" fill="#000000">&lt; IndexType &gt;</text>
</a>
</g>
</g>
<!-- Node2 -->
<g id="node2" class="node">
<title>Node2</title>
<g id="a_node2"><a xlink:href="classgko_1_1EnableLinOp.html" target="_top" xlink:title=" ">
<polygon fill="#ffffff" stroke="#000000" points="1930,-113.5 1930,-143.5 2106,-143.5 2106,-113.5 1930,-113.5"/>
<text text-anchor="start" x="1938" y="-131.5" font-family="Helvetica,sans-Serif" font-size="10.00" fill="#000000">gko::EnableLinOp&lt; RowGatherer</text>
<text text-anchor="middle" x="2018" y="-120.5" font-family="Helvetica,sans-Serif" font-size="10.00" fill="#000000">&lt; IndexType &gt; &gt;</text>
</a>
</g>
</g>
<!-- Node2&#45;&gt;Node1 -->
<g id="edge1" class="edge">
<title>Node2&#45;&gt;Node1</title>
<path fill="none" stroke="#191970" d="M2116.3684,-128.5C2125.3407,-128.5 2134.3089,-128.5 2142.9721,-128.5"/>
<polygon fill="#191970" stroke="#191970" points="2116.2527,-125.0001 2106.2526,-128.5 2116.2526,-132.0001 2116.2527,-125.0001"/>
</g>
<!-- Node3 -->
<g id="node3" class="node">
<title>Node3</title>
<g id="a_node3"><a xlink:href="classgko_1_1EnablePolymorphicObject.html" target="_top" xlink:title=" ">
<polygon fill="#ffffff" stroke="#000000" points="1567,-207 1567,-248 1733,-248 1733,-207 1567,-207"/>
<text text-anchor="start" x="1575" y="-236" font-family="Helvetica,sans-Serif" font-size="10.00" fill="#000000">gko::EnablePolymorphicObject</text>
<text text-anchor="start" x="1575" y="-225" font-family="Helvetica,sans-Serif" font-size="10.00" fill="#000000">&lt; RowGatherer&lt; IndexType</text>
<text text-anchor="middle" x="1650" y="-214" font-family="Helvetica,sans-Serif" font-size="10.00" fill="#000000"> &gt;, LinOp &gt;</text>
</a>
</g>
</g>
<!-- Node3&#45;&gt;Node2 -->
<g id="edge2" class="edge">
<title>Node3&#45;&gt;Node2</title>
<path fill="none" stroke="#191970" d="M1735.9157,-204.3868C1805.715,-185.6093 1902.1232,-159.6734 1962.2274,-143.504"/>
<polygon fill="#191970" stroke="#191970" points="1734.9972,-201.0094 1726.2498,-206.9871 1736.8158,-207.769 1734.9972,-201.0094"/>
</g>
<!-- Node4 -->
<g id="node4" class="node">
<title>Node4</title>
<g id="a_node4"><a xlink:href="classgko_1_1EnableAbstractPolymorphicObject.html" target="_top" xlink:title=" ">
<polygon fill="#ffffff" stroke="#000000" points="1338,-268 1338,-309 1521,-309 1521,-268 1338,-268"/>
<text text-anchor="start" x="1346" y="-297" font-family="Helvetica,sans-Serif" font-size="10.00" fill="#000000">gko::EnableAbstractPolymorphic</text>
<text text-anchor="start" x="1346" y="-286" font-family="Helvetica,sans-Serif" font-size="10.00" fill="#000000">Object&lt; RowGatherer&lt; IndexType</text>
<text text-anchor="middle" x="1429.5" y="-275" font-family="Helvetica,sans-Serif" font-size="10.00" fill="#000000"> &gt;, LinOp &gt;</text>
</a>
</g>
</g>
<!-- Node4&#45;&gt;Node3 -->
<g id="edge3" class="edge">
<title>Node4&#45;&gt;Node3</title>
<path fill="none" stroke="#191970" d="M1513.729,-265.1985C1534.098,-259.5636 1555.7236,-253.581 1575.6039,-248.0812"/>
<polygon fill="#191970" stroke="#191970" points="1512.5486,-261.8936 1503.8438,-267.9332 1514.4151,-268.6402 1512.5486,-261.8936"/>
</g>
<!-- Node5 -->
<g id="node5" class="node">
<title>Node5</title>
<g id="a_node5"><a xlink:href="classgko_1_1LinOp.html" target="_top" xlink:title=" ">
<polygon fill="#ffffff" stroke="#000000" points="995.5,-312 995.5,-331 1063.5,-331 1063.5,-312 995.5,-312"/>
<text text-anchor="middle" x="1029.5" y="-319" font-family="Helvetica,sans-Serif" font-size="10.00" fill="#000000">gko::LinOp</text>
</a>
</g>
</g>
<!-- Node5&#45;&gt;Node4 -->
<g id="edge4" class="edge">
<title>Node5&#45;&gt;Node4</title>
<path fill="none" stroke="#191970" d="M1073.6479,-317.8578C1136.9257,-312.6374 1254.884,-302.9058 1337.5908,-296.0825"/>
<polygon fill="#191970" stroke="#191970" points="1073.2821,-314.376 1063.6038,-318.6864 1073.8577,-321.3523 1073.2821,-314.376"/>
</g>
<!-- Node6 -->
<g id="node6" class="node">
<title>Node6</title>
<g id="a_node6"><a xlink:href="classgko_1_1EnableAbstractPolymorphicObject.html" target="_top" xlink:title=" ">
<polygon fill="#ffffff" stroke="#ff0000" points="542,-309.5 542,-339.5 717,-339.5 717,-309.5 542,-309.5"/>
<text text-anchor="start" x="550" y="-327.5" font-family="Helvetica,sans-Serif" font-size="10.00" fill="#000000">gko::EnableAbstractPolymorphic</text>
<text text-anchor="middle" x="629.5" y="-316.5" font-family="Helvetica,sans-Serif" font-size="10.00" fill="#000000">Object&lt; LinOp &gt;</text>
</a>
</g>
</g>
<!-- Node6&#45;&gt;Node5 -->
<g id="edge5" class="edge">
<title>Node6&#45;&gt;Node5</title>
<path fill="none" stroke="#191970" d="M727.4445,-323.7654C814.4482,-323.1129 936.6501,-322.1964 995.3692,-321.756"/>
<polygon fill="#191970" stroke="#191970" points="727.2551,-320.2666 717.2817,-323.8416 727.3077,-327.2664 727.2551,-320.2666"/>
</g>
<!-- Node12 -->
<g id="node7" class="node">
<title>Node12</title>
<g id="a_node7"><a xlink:href="classgko_1_1EnableAbstractPolymorphicObject.html" target="_top" xlink:title="This mixin inherits from (a subclass of) PolymorphicObject and provides a base implementation of a ne...">
<polygon fill="#ffffff" stroke="#000000" points="138,-223 138,-264 336,-264 336,-223 138,-223"/>
<text text-anchor="start" x="146" y="-252" font-family="Helvetica,sans-Serif" font-size="10.00" fill="#000000">gko::EnableAbstractPolymorphic</text>
<text text-anchor="start" x="146" y="-241" font-family="Helvetica,sans-Serif" font-size="10.00" fill="#000000">Object&lt; AbstractObject, Polymorphic</text>
<text text-anchor="middle" x="237" y="-230" font-family="Helvetica,sans-Serif" font-size="10.00" fill="#000000">Base &gt;</text>
</a>
</g>
</g>
<!-- Node12&#45;&gt;Node4 -->
<g id="edge8" class="edge">
<title>Node12&#45;&gt;Node4</title>
<path fill="none" stroke="#ffa500" stroke-dasharray="5,2" d="M346.2581,-261.7252C348.8615,-262.0036 351.4451,-262.2628 354,-262.5 717.1132,-296.213 1151.9597,-293.6248 1337.8938,-290.4979"/>
<polygon fill="#ffa500" stroke="#ffa500" points="346.4713,-258.2267 336.1369,-260.5614 345.6716,-265.1809 346.4713,-258.2267"/>
<text text-anchor="start" x="759" y="-303.5" font-family="Helvetica,sans-Serif" font-size="10.00" fill="#000000"> &lt; RowGatherer&lt; IndexType</text>
<text text-anchor="middle" x="828.5" y="-292.5" font-family="Helvetica,sans-Serif" font-size="10.00" fill="#000000"> &gt;, LinOp &gt;</text>
</g>
<!-- Node12&#45;&gt;Node6 -->
<g id="edge6" class="edge">
<title>Node12&#45;&gt;Node6</title>
<path fill="none" stroke="#ffa500" stroke-dasharray="5,2" d="M285.1891,-268.4291C305.8616,-278.0801 330.6008,-288.2812 354,-294.5 415.4942,-310.8433 486.977,-318.307 541.7169,-321.7038"/>
<polygon fill="#ffa500" stroke="#ffa500" points="286.5297,-265.1909 275.9965,-264.0498 283.5191,-271.5104 286.5297,-265.1909"/>
<text text-anchor="middle" x="432.5" y="-321.5" font-family="Helvetica,sans-Serif" font-size="10.00" fill="#000000"> &lt; LinOp &gt;</text>
</g>
<!-- Node14 -->
<g id="node10" class="node">
<title>Node14</title>
<g id="a_node10"><a xlink:href="classgko_1_1EnableAbstractPolymorphicObject.html" target="_top" xlink:title=" ">
<polygon fill="#ffffff" stroke="#000000" points="529,-202 529,-243 730,-243 730,-202 529,-202"/>
<text text-anchor="start" x="537" y="-231" font-family="Helvetica,sans-Serif" font-size="10.00" fill="#000000">gko::EnableAbstractPolymorphic</text>
<text text-anchor="start" x="537" y="-220" font-family="Helvetica,sans-Serif" font-size="10.00" fill="#000000">Object&lt; ConcreteObject, Polymorphic</text>
<text text-anchor="middle" x="629.5" y="-209" font-family="Helvetica,sans-Serif" font-size="10.00" fill="#000000">Base &gt;</text>
</a>
</g>
</g>
<!-- Node12&#45;&gt;Node14 -->
<g id="edge12" class="edge">
<title>Node12&#45;&gt;Node14</title>
<path fill="none" stroke="#ffa500" stroke-dasharray="5,2" d="M346.2032,-237.6573C403.3756,-234.5984 472.9091,-230.8781 528.78,-227.8888"/>
<polygon fill="#ffa500" stroke="#ffa500" points="345.843,-234.1715 336.0443,-238.2008 346.2171,-241.1615 345.843,-234.1715"/>
<text text-anchor="start" x="354" y="-250.5" font-family="Helvetica,sans-Serif" font-size="10.00" fill="#000000"> &lt; ConcreteObject, Polymorphic</text>
<text text-anchor="middle" x="432.5" y="-239.5" font-family="Helvetica,sans-Serif" font-size="10.00" fill="#000000">Base &gt;</text>
</g>
<!-- Node21 -->
<g id="node17" class="node">
<title>Node21</title>
<g id="a_node17"><a xlink:href="classgko_1_1EnableAbstractPolymorphicObject.html" target="_top" xlink:title=" ">
<polygon fill="#ffffff" stroke="#000000" points="531,-137 531,-178 728,-178 728,-137 531,-137"/>
<text text-anchor="start" x="539" y="-166" font-family="Helvetica,sans-Serif" font-size="10.00" fill="#000000">gko::EnableAbstractPolymorphic</text>
<text text-anchor="start" x="539" y="-155" font-family="Helvetica,sans-Serif" font-size="10.00" fill="#000000">Object&lt; ConcreteLinOp, Polymorphic</text>
<text text-anchor="middle" x="629.5" y="-144" font-family="Helvetica,sans-Serif" font-size="10.00" fill="#000000">Base &gt;</text>
</a>
</g>
</g>
<!-- Node12&#45;&gt;Node21 -->
<g id="edge22" class="edge">
<title>Node12&#45;&gt;Node21</title>
<path fill="none" stroke="#ffa500" stroke-dasharray="5,2" d="M298.9789,-219.5119C316.5708,-213.3262 335.8738,-207.1184 354,-202.5 411.8822,-187.7521 477.8883,-176.7743 530.7792,-169.3548"/>
<polygon fill="#ffa500" stroke="#ffa500" points="297.6384,-216.2741 289.4001,-222.936 299.9947,-222.8657 297.6384,-216.2741"/>
<text text-anchor="start" x="356" y="-216.5" font-family="Helvetica,sans-Serif" font-size="10.00" fill="#000000"> &lt; ConcreteLinOp, Polymorphic</text>
<text text-anchor="middle" x="432.5" y="-205.5" font-family="Helvetica,sans-Serif" font-size="10.00" fill="#000000">Base &gt;</text>
</g>
<!-- Node11 -->
<g id="node8" class="node">
<title>Node11</title>
<g id="a_node8"><a xlink:title=" ">
<polygon fill="#ffffff" stroke="#bfbfbf" points="0,-156 0,-175 101,-175 101,-156 0,-156"/>
<text text-anchor="middle" x="50.5" y="-163" font-family="Helvetica,sans-Serif" font-size="10.00" fill="#000000">PolymorphicBase</text>
</a>
</g>
</g>
<!-- Node11&#45;&gt;Node12 -->
<g id="edge7" class="edge">
<title>Node11&#45;&gt;Node12</title>
<path fill="none" stroke="#191970" d="M82.5985,-178.9246C111.5007,-191.0123 154.4214,-208.9631 187.6791,-222.8725"/>
<polygon fill="#191970" stroke="#191970" points="83.9447,-175.6939 73.3686,-175.0643 81.2437,-182.1518 83.9447,-175.6939"/>
</g>
<!-- Node11&#45;&gt;Node14 -->
<g id="edge11" class="edge">
<title>Node11&#45;&gt;Node14</title>
<path fill="none" stroke="#191970" d="M111.2279,-159.9886C200.225,-153.556 370.7292,-147.4976 511,-179.5 519.5352,-181.4473 520.8592,-184.2798 529,-187.5 541.4558,-192.427 554.9171,-197.3705 567.8153,-201.9259"/>
<polygon fill="#191970" stroke="#191970" points="110.7572,-156.514 101.047,-160.7521 111.2807,-163.4944 110.7572,-156.514"/>
</g>
<!-- Node11&#45;&gt;Node21 -->
<g id="edge21" class="edge">
<title>Node11&#45;&gt;Node21</title>
<path fill="none" stroke="#191970" d="M100.0089,-154.156C106.37,-153.0602 112.8183,-152.1252 119,-151.5 292.3378,-133.9679 336.8335,-147.0935 511,-151.5 517.4867,-151.6641 524.1712,-151.8787 530.9066,-152.1288"/>
<polygon fill="#191970" stroke="#191970" points="99.3286,-150.7224 90.1355,-155.9889 100.6063,-157.6048 99.3286,-150.7224"/>
</g>
<!-- Node13 -->
<g id="node9" class="node">
<title>Node13</title>
<g id="a_node9"><a xlink:href="classgko_1_1EnablePolymorphicObject.html" target="_top" xlink:title="This mixin inherits from (a subclass of) PolymorphicObject and provides a base implementation of a ne...">
<polygon fill="#ffffff" stroke="#000000" points="927,-207.5 927,-237.5 1132,-237.5 1132,-207.5 927,-207.5"/>
<text text-anchor="start" x="935" y="-225.5" font-family="Helvetica,sans-Serif" font-size="10.00" fill="#000000">gko::EnablePolymorphicObject</text>
<text text-anchor="middle" x="1029.5" y="-214.5" font-family="Helvetica,sans-Serif" font-size="10.00" fill="#000000">&lt; ConcreteObject, PolymorphicBase &gt;</text>
</a>
</g>
</g>
<!-- Node13&#45;&gt;Node3 -->
<g id="edge9" class="edge">
<title>Node13&#45;&gt;Node3</title>
<path fill="none" stroke="#ffa500" stroke-dasharray="5,2" d="M1142.4714,-223.4103C1264.9561,-224.3973 1457.5446,-225.9492 1566.8842,-226.8303"/>
<polygon fill="#ffa500" stroke="#ffa500" points="1142.3389,-219.9092 1132.311,-223.3285 1142.2824,-226.909 1142.3389,-219.9092"/>
<text text-anchor="start" x="1360" y="-240.5" font-family="Helvetica,sans-Serif" font-size="10.00" fill="#000000"> &lt; RowGatherer&lt; IndexType</text>
<text text-anchor="middle" x="1429.5" y="-229.5" font-family="Helvetica,sans-Serif" font-size="10.00" fill="#000000"> &gt;, LinOp &gt;</text>
</g>
<!-- Node20 -->
<g id="node16" class="node">
<title>Node20</title>
<g id="a_node16"><a xlink:href="classgko_1_1EnablePolymorphicObject.html" target="_top" xlink:title=" ">
<polygon fill="#ffffff" stroke="#000000" points="1329,-144.5 1329,-174.5 1530,-174.5 1530,-144.5 1329,-144.5"/>
<text text-anchor="start" x="1337" y="-162.5" font-family="Helvetica,sans-Serif" font-size="10.00" fill="#000000">gko::EnablePolymorphicObject</text>
<text text-anchor="middle" x="1429.5" y="-151.5" font-family="Helvetica,sans-Serif" font-size="10.00" fill="#000000">&lt; ConcreteLinOp, PolymorphicBase &gt;</text>
</a>
</g>
</g>
<!-- Node13&#45;&gt;Node20 -->
<g id="edge23" class="edge">
<title>Node13&#45;&gt;Node20</title>
<path fill="none" stroke="#ffa500" stroke-dasharray="5,2" d="M1091.2435,-204.8736C1109.9947,-199.9931 1130.7345,-195.0634 1150,-191.5 1208.8327,-180.618 1275.3598,-172.8232 1328.7461,-167.6527"/>
<polygon fill="#ffa500" stroke="#ffa500" points="1090.1184,-201.5508 1081.3462,-207.4921 1091.9088,-208.318 1090.1184,-201.5508"/>
<text text-anchor="start" x="1154" y="-205.5" font-family="Helvetica,sans-Serif" font-size="10.00" fill="#000000"> &lt; ConcreteLinOp, Polymorphic</text>
<text text-anchor="middle" x="1230.5" y="-194.5" font-family="Helvetica,sans-Serif" font-size="10.00" fill="#000000">Base &gt;</text>
</g>
<!-- Node14&#45;&gt;Node13 -->
<g id="edge10" class="edge">
<title>Node14&#45;&gt;Node13</title>
<path fill="none" stroke="#191970" d="M740.5319,-222.5C798.8019,-222.5 869.7266,-222.5 926.7273,-222.5"/>
<polygon fill="#191970" stroke="#191970" points="740.1787,-219.0001 730.1786,-222.5 740.1786,-226.0001 740.1787,-219.0001"/>
</g>
<!-- Node15 -->
<g id="node11" class="node">
<title>Node15</title>
<g id="a_node11"><a xlink:href="classgko_1_1EnablePolymorphicAssignment.html" target="_top" xlink:title=" ">
<polygon fill="#ffffff" stroke="#000000" points="1333.5,-38.5 1333.5,-68.5 1525.5,-68.5 1525.5,-38.5 1333.5,-38.5"/>
<text text-anchor="start" x="1341.5" y="-56.5" font-family="Helvetica,sans-Serif" font-size="10.00" fill="#000000">gko::EnablePolymorphicAssignment</text>
<text text-anchor="middle" x="1429.5" y="-45.5" font-family="Helvetica,sans-Serif" font-size="10.00" fill="#000000">&lt; RowGatherer&lt; IndexType &gt; &gt;</text>
</a>
</g>
</g>
<!-- Node15&#45;&gt;Node2 -->
<g id="edge13" class="edge">
<title>Node15&#45;&gt;Node2</title>
<path fill="none" stroke="#191970" d="M1535.7248,-67.0376C1648.4974,-81.4096 1824.6758,-103.8623 1929.9801,-117.2825"/>
<polygon fill="#191970" stroke="#191970" points="1536.0532,-63.5512 1525.6909,-65.7588 1535.1682,-70.495 1536.0532,-63.5512"/>
</g>
<!-- Node16 -->
<g id="node12" class="node">
<title>Node16</title>
<g id="a_node12"><a xlink:href="classgko_1_1ConvertibleTo.html" target="_top" xlink:title=" ">
<polygon fill="#ffffff" stroke="#000000" points="942.5,-.5 942.5,-30.5 1116.5,-30.5 1116.5,-.5 942.5,-.5"/>
<text text-anchor="start" x="950.5" y="-18.5" font-family="Helvetica,sans-Serif" font-size="10.00" fill="#000000">gko::ConvertibleTo</text>
<text text-anchor="middle" x="1029.5" y="-7.5" font-family="Helvetica,sans-Serif" font-size="10.00" fill="#000000">&lt; RowGatherer&lt; IndexType &gt; &gt;</text>
</a>
</g>
</g>
<!-- Node16&#45;&gt;Node15 -->
<g id="edge14" class="edge">
<title>Node16&#45;&gt;Node15</title>
<path fill="none" stroke="#191970" d="M1127.0812,-24.7702C1189.7789,-30.7265 1270.8683,-38.43 1333.2944,-44.3605"/>
<polygon fill="#191970" stroke="#191970" points="1127.0736,-21.2538 1116.7874,-23.7923 1126.4116,-28.2224 1127.0736,-21.2538"/>
</g>
<!-- Node17 -->
<g id="node13" class="node">
<title>Node17</title>
<g id="a_node13"><a xlink:href="classgko_1_1ConvertibleTo.html" target="_top" xlink:title="ConvertibleTo interface is used to mark that the implementer can be converted to the object of Result...">
<polygon fill="#ffffff" stroke="#000000" points="576,-49.5 576,-79.5 683,-79.5 683,-49.5 576,-49.5"/>
<text text-anchor="start" x="584" y="-67.5" font-family="Helvetica,sans-Serif" font-size="10.00" fill="#000000">gko::ConvertibleTo</text>
<text text-anchor="middle" x="629.5" y="-56.5" font-family="Helvetica,sans-Serif" font-size="10.00" fill="#000000">&lt; ResultType &gt;</text>
</a>
</g>
</g>
<!-- Node17&#45;&gt;Node16 -->
<g id="edge15" class="edge">
<title>Node17&#45;&gt;Node16</title>
<path fill="none" stroke="#ffa500" stroke-dasharray="5,2" d="M693.3882,-56.3449C711.075,-54.1058 730.2801,-51.6916 748,-49.5 813.0986,-41.4486 886.6949,-32.5672 942.3055,-25.9013"/>
<polygon fill="#ffa500" stroke="#ffa500" points="692.653,-52.9101 683.1727,-57.6401 693.5335,-59.8545 692.653,-52.9101"/>
<text text-anchor="middle" x="828.5" y="-52.5" font-family="Helvetica,sans-Serif" font-size="10.00" fill="#000000"> &lt; RowGatherer&lt; IndexType &gt; &gt;</text>
</g>
<!-- Node18 -->
<g id="node14" class="node">
<title>Node18</title>
<g id="a_node14"><a xlink:href="classgko_1_1EnablePolymorphicAssignment.html" target="_top" xlink:title="This mixin is used to enable a default PolymorphicObject::copy_from() implementation for objects that...">
<polygon fill="#ffffff" stroke="#000000" points="933.5,-49.5 933.5,-79.5 1125.5,-79.5 1125.5,-49.5 933.5,-49.5"/>
<text text-anchor="start" x="941.5" y="-67.5" font-family="Helvetica,sans-Serif" font-size="10.00" fill="#000000">gko::EnablePolymorphicAssignment</text>
<text text-anchor="middle" x="1029.5" y="-56.5" font-family="Helvetica,sans-Serif" font-size="10.00" fill="#000000">&lt; ConcreteType, ResultType &gt;</text>
</a>
</g>
</g>
<!-- Node17&#45;&gt;Node18 -->
<g id="edge17" class="edge">
<title>Node17&#45;&gt;Node18</title>
<path fill="none" stroke="#191970" d="M693.0918,-64.5C757.7858,-64.5 858.8544,-64.5 933.3362,-64.5"/>
<polygon fill="#191970" stroke="#191970" points="693.0308,-61.0001 683.0307,-64.5 693.0307,-68.0001 693.0308,-61.0001"/>
</g>
<!-- Node23 -->
<g id="node19" class="node">
<title>Node23</title>
<g id="a_node19"><a xlink:href="classgko_1_1ConvertibleTo.html" target="_top" xlink:title=" ">
<polygon fill="#ffffff" stroke="#000000" points="974.5,-98.5 974.5,-128.5 1084.5,-128.5 1084.5,-98.5 974.5,-98.5"/>
<text text-anchor="start" x="982.5" y="-116.5" font-family="Helvetica,sans-Serif" font-size="10.00" fill="#000000">gko::ConvertibleTo</text>
<text text-anchor="middle" x="1029.5" y="-105.5" font-family="Helvetica,sans-Serif" font-size="10.00" fill="#000000">&lt; ConcreteLinOp &gt;</text>
</a>
</g>
</g>
<!-- Node17&#45;&gt;Node23 -->
<g id="edge26" class="edge">
<title>Node17&#45;&gt;Node23</title>
<path fill="none" stroke="#ffa500" stroke-dasharray="5,2" d="M693.1637,-72.2988C770.8155,-81.8111 900.7952,-97.7337 974.3615,-106.7455"/>
<polygon fill="#ffa500" stroke="#ffa500" points="693.3821,-68.7995 683.0307,-71.0575 692.5309,-75.7475 693.3821,-68.7995"/>
<text text-anchor="middle" x="828.5" y="-101.5" font-family="Helvetica,sans-Serif" font-size="10.00" fill="#000000"> &lt; ConcreteLinOp &gt;</text>
</g>
<!-- Node18&#45;&gt;Node15 -->
<g id="edge16" class="edge">
<title>Node18&#45;&gt;Node15</title>
<path fill="none" stroke="#ffa500" stroke-dasharray="5,2" d="M1136.1259,-55.1969C1140.8124,-54.9314 1145.4532,-54.6965 1150,-54.5 1210.9628,-51.8655 1279.4745,-51.5779 1333.4092,-51.9672"/>
<polygon fill="#ffa500" stroke="#ffa500" points="1135.5818,-51.7234 1125.8126,-55.8236 1136.0065,-58.7105 1135.5818,-51.7234"/>
<text text-anchor="middle" x="1230.5" y="-57.5" font-family="Helvetica,sans-Serif" font-size="10.00" fill="#000000"> &lt; RowGatherer&lt; IndexType &gt; &gt;</text>
</g>
<!-- Node22 -->
<g id="node18" class="node">
<title>Node22</title>
<g id="a_node18"><a xlink:href="classgko_1_1EnablePolymorphicAssignment.html" target="_top" xlink:title=" ">
<polygon fill="#ffffff" stroke="#000000" points="1333.5,-95.5 1333.5,-125.5 1525.5,-125.5 1525.5,-95.5 1333.5,-95.5"/>
<text text-anchor="start" x="1341.5" y="-113.5" font-family="Helvetica,sans-Serif" font-size="10.00" fill="#000000">gko::EnablePolymorphicAssignment</text>
<text text-anchor="middle" x="1429.5" y="-102.5" font-family="Helvetica,sans-Serif" font-size="10.00" fill="#000000">&lt; ConcreteLinOp &gt;</text>
</a>
</g>
</g>
<!-- Node18&#45;&gt;Node22 -->
<g id="edge27" class="edge">
<title>Node18&#45;&gt;Node22</title>
<path fill="none" stroke="#ffa500" stroke-dasharray="5,2" d="M1135.6408,-76.4539C1188.3728,-82.4213 1253.0501,-89.7831 1311,-96.5 1318.3053,-97.3468 1325.8632,-98.2279 1333.4633,-99.1176"/>
<polygon fill="#ffa500" stroke="#ffa500" points="1135.9292,-72.9643 1125.5991,-75.3181 1135.1423,-79.92 1135.9292,-72.9643"/>
<text text-anchor="middle" x="1230.5" y="-99.5" font-family="Helvetica,sans-Serif" font-size="10.00" fill="#000000"> &lt; ConcreteLinOp &gt;</text>
</g>
<!-- Node19 -->
<g id="node15" class="node">
<title>Node19</title>
<g id="a_node15"><a xlink:href="classgko_1_1EnableLinOp.html" target="_top" xlink:title="The EnableLinOp mixin can be used to provide sensible default implementations of the majority of the ...">
<polygon fill="#ffffff" stroke="#000000" points="1572,-113.5 1572,-143.5 1728,-143.5 1728,-113.5 1572,-113.5"/>
<text text-anchor="start" x="1580" y="-131.5" font-family="Helvetica,sans-Serif" font-size="10.00" fill="#000000">gko::EnableLinOp&lt; Concrete</text>
<text text-anchor="middle" x="1650" y="-120.5" font-family="Helvetica,sans-Serif" font-size="10.00" fill="#000000">LinOp, PolymorphicBase &gt;</text>
</a>
</g>
</g>
<!-- Node19&#45;&gt;Node2 -->
<g id="edge18" class="edge">
<title>Node19&#45;&gt;Node2</title>
<path fill="none" stroke="#ffa500" stroke-dasharray="5,2" d="M1738.2866,-128.5C1796.2513,-128.5 1871.7781,-128.5 1929.7378,-128.5"/>
<polygon fill="#ffa500" stroke="#ffa500" points="1738.0434,-125.0001 1728.0433,-128.5 1738.0433,-132.0001 1738.0434,-125.0001"/>
<text text-anchor="middle" x="1831.5" y="-131.5" font-family="Helvetica,sans-Serif" font-size="10.00" fill="#000000"> &lt; RowGatherer&lt; IndexType &gt; &gt;</text>
</g>
<!-- Node20&#45;&gt;Node19 -->
<g id="edge19" class="edge">
<title>Node20&#45;&gt;Node19</title>
<path fill="none" stroke="#191970" d="M1540.2456,-143.9303C1550.8692,-142.4368 1561.4867,-140.9441 1571.7034,-139.5077"/>
<polygon fill="#191970" stroke="#191970" points="1539.4865,-140.5025 1530.0711,-145.3607 1540.4611,-147.4344 1539.4865,-140.5025"/>
</g>
<!-- Node21&#45;&gt;Node20 -->
<g id="edge20" class="edge">
<title>Node21&#45;&gt;Node20</title>
<path fill="none" stroke="#191970" d="M738.4642,-157.7724C894.1432,-158.1616 1178.0361,-158.8713 1328.9413,-159.2486"/>
<polygon fill="#191970" stroke="#191970" points="738.4068,-154.2724 728.3981,-157.7472 738.3893,-161.2723 738.4068,-154.2724"/>
</g>
<!-- Node22&#45;&gt;Node19 -->
<g id="edge24" class="edge">
<title>Node22&#45;&gt;Node19</title>
<path fill="none" stroke="#191970" d="M1535.7437,-119.173C1547.8851,-120.1641 1560.0914,-121.1605 1571.7726,-122.1141"/>
<polygon fill="#191970" stroke="#191970" points="1535.8247,-115.668 1525.5731,-118.3427 1535.2551,-122.6448 1535.8247,-115.668"/>
</g>
<!-- Node23&#45;&gt;Node22 -->
<g id="edge25" class="edge">
<title>Node23&#45;&gt;Node22</title>
<path fill="none" stroke="#191970" d="M1094.7819,-113.0104C1159.5539,-112.5246 1259.5564,-111.7746 1333.3988,-111.2208"/>
<polygon fill="#191970" stroke="#191970" points="1094.6718,-109.511 1084.6983,-113.086 1094.7243,-116.5108 1094.6718,-109.511"/>
</g>
</g>
</svg>
        <g id="navigator" transform="translate(0 0)" fill="#404254">
                <rect fill="#f2f5e9" fill-opacity="0.5" stroke="#606060" stroke-width=".5" x="0" y="0" width="60" height="60"/>
                <use id="zoomplus" xlink:href="#zoomPlus" x="17" y="9" onmousedown="handleZoom(evt,'in')"/>
                <use id="zoomminus" xlink:href="#zoomMin" x="42" y="9" onmousedown="handleZoom(evt,'out')"/>
                <use id="reset" xlink:href="#resetDef" x="30" y="36" onmousedown="handleReset()"/>
                <g id="arrowUp" xlink:href="#dirArrow" transform="translate(30 24)" onmousedown="handlePan(0,-1)">
                  <use xlink:href="#rim" fill="#404040">
                        <set attributeName="fill" to="#808080" begin="arrowUp.mouseover" end="arrowUp.mouseout"/>
                  </use>
                  <path fill="none" stroke="white" stroke-width="1.5" d="M0,-3.0v7 M-2.5,-0.5L0,-3.0L2.5,-0.5"/>
                </g>
                <g id="arrowRight" xlink:href="#dirArrow" transform="rotate(90) translate(36 -43)" onmousedown="handlePan(1,0)">
                  <use xlink:href="#rim" fill="#404040">
                        <set attributeName="fill" to="#808080" begin="arrowRight.mouseover" end="arrowRight.mouseout"/>
                  </use>
                  <path fill="none" stroke="white" stroke-width="1.5" d="M0,-3.0v7 M-2.5,-0.5L0,-3.0L2.5,-0.5"/>
                </g>
                <g id="arrowDown" xlink:href="#dirArrow" transform="rotate(180) translate(-30 -48)" onmousedown="handlePan(0,1)">
                  <use xlink:href="#rim" fill="#404040">
                        <set attributeName="fill" to="#808080" begin="arrowDown.mouseover" end="arrowDown.mouseout"/>
                  </use>
                  <path fill="none" stroke="white" stroke-width="1.5" d="M0,-3.0v7 M-2.5,-0.5L0,-3.0L2.5,-0.5"/>
                </g>
                <g id="arrowLeft" xlink:href="#dirArrow" transform="rotate(270) translate(-36 17)" onmousedown="handlePan(-1,0)">
                  <use xlink:href="#rim" fill="#404040">
                        <set attributeName="fill" to="#808080" begin="arrowLeft.mouseover" end="arrowLeft.mouseout"/>
                  </use>
                  <path fill="none" stroke="white" stroke-width="1.5" d="M0,-3.0v7 M-2.5,-0.5L0,-3.0L2.5,-0.5"/>
                </g>
        </g>
        <svg viewBox="0 0 15 15" width="100%" height="30px" preserveAspectRatio="xMaxYMin meet">
         <g id="arrow_out" transform="scale(0.3 0.3)">
          <a xlink:href="classgko_1_1matrix_1_1RowGatherer__coll__graph_org.svg" target="_base">
           <rect id="button" ry="5" rx="5" y="6" x="6" height="38" width="38"
                fill="#f2f5e9" fill-opacity="0.5" stroke="#606060" stroke-width="1.0"/>
           <path id="arrow"
             d="M 11.500037,31.436501 C 11.940474,20.09759 22.043105,11.32322 32.158766,21.979434 L 37.068811,17.246167 C 37.068811,17.246167 37.088388,32 37.088388,32 L 22.160133,31.978069 C 22.160133,31.978069 26.997745,27.140456 26.997745,27.140456 C 18.528582,18.264221 13.291696,25.230495 11.500037,31.436501 z"
             style="fill:#404040;"/>
          </a>
         </g>
        </svg>
</svg>
