<?xml version="1.0" encoding="UTF-8" standalone="no"?>
<!DOCTYPE svg PUBLIC "-//W3C//DTD SVG 1.1//EN"
 "http://www.w3.org/Graphics/SVG/1.1/DTD/svg11.dtd">
<!-- Generated by graphviz version 2.40.1 (20161225.0304)
 -->
<!-- Title: gko::matrix::Fbcsr&lt; ValueType, IndexType &gt; Pages: 1 -->
<!--zoomable 745 -->
<svg id="main" version="1.1" xmlns="http://www.w3.org/2000/svg" xmlns:xlink="http://www.w3.org/1999/xlink" xml:space="preserve" onload="init(evt)">
<style type="text/css"><![CDATA[
.edge:hover path { stroke: red; }
.edge:hover polygon { stroke: red; fill: red; }
]]></style>
<script type="text/javascript"><![CDATA[
var edges = document.getElementsByTagName('g');
if (edges && edges.length) {
  for (var i=0;i<edges.length;i++) {
    if (edges[i].id.substr(0,4)=='edge') {
      edges[i].setAttribute('class','edge');
    }
  }
}
]]></script>
        <defs>
                <circle id="rim" cx="0" cy="0" r="7"/>
                <circle id="rim2" cx="0" cy="0" r="3.5"/>
                <g id="zoomPlus">
                        <use xlink:href="#rim" fill="#404040">
                                <set attributeName="fill" to="#808080" begin="zoomplus.mouseover" end="zoomplus.mouseout"/>
                        </use>
                        <path d="M-4,0h8M0,-4v8" fill="none" stroke="white" stroke-width="1.5" pointer-events="none"/>
                </g>
                <g id="zoomMin">
                        <use xlink:href="#rim" fill="#404040">
                                <set attributeName="fill" to="#808080" begin="zoomminus.mouseover" end="zoomminus.mouseout"/>
                        </use>
                        <path d="M-4,0h8" fill="none" stroke="white" stroke-width="1.5" pointer-events="none"/>
                </g>
                <g id="dirArrow">
                        <path fill="none" stroke="white" stroke-width="1.5" d="M0,-3.0v7 M-2.5,-0.5L0,-3.0L2.5,-0.5"/>
                </g>
               <g id="resetDef">
                       <use xlink:href="#rim2" fill="#404040">
                               <set attributeName="fill" to="#808080" begin="reset.mouseover" end="reset.mouseout"/>
                       </use>
               </g>
        </defs>

<script type="text/javascript">
var viewWidth = 2505;
var viewHeight = 745;
var sectionId = 'dynsection-1';
</script>
<script xlink:href="svgpan.js"/>
<svg id="graph" class="graph">
<g id="viewport">
<title>gko::matrix::Fbcsr&lt; ValueType, IndexType &gt;</title>
<polygon fill="#ffffff" stroke="transparent" points="-4,4 -4,-741 2501,-741 2501,4 -4,4"/>
<!-- Node1 -->
<g id="node1" class="node">
<title>Node1</title>
<g id="a_node1"><a xlink:title="Fixed&#45;block compressed sparse row storage matrix format.">
<polygon fill="#bfbfbf" stroke="#000000" points="2353,-228 2353,-258 2497,-258 2497,-228 2353,-228"/>
<text text-anchor="start" x="2361" y="-246" font-family="Helvetica,sans-Serif" font-size="10.00" fill="#000000">gko::matrix::Fbcsr</text>
<text text-anchor="middle" x="2425" y="-235" font-family="Helvetica,sans-Serif" font-size="10.00" fill="#000000">&lt; ValueType, IndexType &gt;</text>
</a>
</g>
</g>
<!-- Node2 -->
<g id="node2" class="node">
<title>Node2</title>
<g id="a_node2"><a xlink:href="classgko_1_1EnableLinOp.html" target="_top" xlink:title=" ">
<polygon fill="#ffffff" stroke="#000000" points="2132,-486 2132,-516 2287,-516 2287,-486 2132,-486"/>
<text text-anchor="start" x="2140" y="-504" font-family="Helvetica,sans-Serif" font-size="10.00" fill="#000000">gko::EnableLinOp&lt; Fbcsr</text>
<text text-anchor="middle" x="2209.5" y="-493" font-family="Helvetica,sans-Serif" font-size="10.00" fill="#000000">&lt; ValueType, IndexType &gt; &gt;</text>
</a>
</g>
</g>
<!-- Node2&#45;&gt;Node1 -->
<g id="edge1" class="edge">
<title>Node2&#45;&gt;Node1</title>
<path fill="none" stroke="#191970" d="M2237.1818,-479.6063C2264.058,-458.0143 2305.0698,-422.8251 2335,-387 2370.9132,-344.0135 2403.0936,-285.5138 2417.2995,-258.2071"/>
<polygon fill="#191970" stroke="#191970" points="2234.9709,-476.8926 2229.3226,-485.8563 2239.3279,-482.3714 2234.9709,-476.8926"/>
</g>
<!-- Node3 -->
<g id="node3" class="node">
<title>Node3</title>
<g id="a_node3"><a xlink:href="classgko_1_1EnablePolymorphicObject.html" target="_top" xlink:title=" ">
<polygon fill="#ffffff" stroke="#000000" points="1710.5,-621.5 1710.5,-662.5 1880.5,-662.5 1880.5,-621.5 1710.5,-621.5"/>
<text text-anchor="start" x="1718.5" y="-650.5" font-family="Helvetica,sans-Serif" font-size="10.00" fill="#000000">gko::EnablePolymorphicObject</text>
<text text-anchor="start" x="1718.5" y="-639.5" font-family="Helvetica,sans-Serif" font-size="10.00" fill="#000000">&lt; Fbcsr&lt; ValueType, IndexType</text>
<text text-anchor="middle" x="1795.5" y="-628.5" font-family="Helvetica,sans-Serif" font-size="10.00" fill="#000000"> &gt;, LinOp &gt;</text>
</a>
</g>
</g>
<!-- Node3&#45;&gt;Node2 -->
<g id="edge2" class="edge">
<title>Node3&#45;&gt;Node2</title>
<path fill="none" stroke="#191970" d="M1865.3427,-618.213C1951.0104,-589.0363 2093.6658,-540.4508 2165.4238,-516.0115"/>
<polygon fill="#191970" stroke="#191970" points="1864.0368,-614.9603 1855.6992,-621.4974 1866.2936,-621.5865 1864.0368,-614.9603"/>
</g>
<!-- Node4 -->
<g id="node4" class="node">
<title>Node4</title>
<g id="a_node4"><a xlink:href="classgko_1_1EnableAbstractPolymorphicObject.html" target="_top" xlink:title=" ">
<polygon fill="#ffffff" stroke="#000000" points="1340,-682.5 1340,-723.5 1515,-723.5 1515,-682.5 1340,-682.5"/>
<text text-anchor="start" x="1348" y="-711.5" font-family="Helvetica,sans-Serif" font-size="10.00" fill="#000000">gko::EnableAbstractPolymorphic</text>
<text text-anchor="start" x="1348" y="-700.5" font-family="Helvetica,sans-Serif" font-size="10.00" fill="#000000">Object&lt; Fbcsr&lt; ValueType,</text>
<text text-anchor="middle" x="1427.5" y="-689.5" font-family="Helvetica,sans-Serif" font-size="10.00" fill="#000000"> IndexType &gt;, LinOp &gt;</text>
</a>
</g>
</g>
<!-- Node4&#45;&gt;Node3 -->
<g id="edge3" class="edge">
<title>Node4&#45;&gt;Node3</title>
<path fill="none" stroke="#191970" d="M1525.391,-686.7735C1583.0036,-677.2236 1655.1589,-665.2631 1710.3962,-656.1069"/>
<polygon fill="#191970" stroke="#191970" points="1524.4706,-683.3782 1515.1776,-688.4665 1525.6154,-690.284 1524.4706,-683.3782"/>
</g>
<!-- Node5 -->
<g id="node5" class="node">
<title>Node5</title>
<g id="a_node5"><a xlink:href="classgko_1_1LinOp.html" target="_top" xlink:title=" ">
<polygon fill="#ffffff" stroke="#000000" points="985.5,-685.5 985.5,-704.5 1053.5,-704.5 1053.5,-685.5 985.5,-685.5"/>
<text text-anchor="middle" x="1019.5" y="-692.5" font-family="Helvetica,sans-Serif" font-size="10.00" fill="#000000">gko::LinOp</text>
</a>
</g>
</g>
<!-- Node5&#45;&gt;Node4 -->
<g id="edge4" class="edge">
<title>Node5&#45;&gt;Node4</title>
<path fill="none" stroke="#191970" d="M1063.6219,-695.8651C1129.4386,-697.1557 1254.6694,-699.6112 1339.6204,-701.2769"/>
<polygon fill="#191970" stroke="#191970" points="1063.6508,-692.3651 1053.5841,-695.6683 1063.5135,-699.3638 1063.6508,-692.3651"/>
</g>
<!-- Node6 -->
<g id="node6" class="node">
<title>Node6</title>
<g id="a_node6"><a xlink:href="classgko_1_1EnableAbstractPolymorphicObject.html" target="_top" xlink:title=" ">
<polygon fill="#ffffff" stroke="#ff0000" points="542,-675 542,-705 717,-705 717,-675 542,-675"/>
<text text-anchor="start" x="550" y="-693" font-family="Helvetica,sans-Serif" font-size="10.00" fill="#000000">gko::EnableAbstractPolymorphic</text>
<text text-anchor="middle" x="629.5" y="-682" font-family="Helvetica,sans-Serif" font-size="10.00" fill="#000000">Object&lt; LinOp &gt;</text>
</a>
</g>
</g>
<!-- Node6&#45;&gt;Node5 -->
<g id="edge5" class="edge">
<title>Node6&#45;&gt;Node5</title>
<path fill="none" stroke="#191970" d="M727.1193,-691.2515C811.2777,-692.3305 927.9924,-693.8268 985.1613,-694.5598"/>
<polygon fill="#191970" stroke="#191970" points="727.0677,-687.7507 717.0236,-691.1221 726.9779,-694.7501 727.0677,-687.7507"/>
</g>
<!-- Node12 -->
<g id="node7" class="node">
<title>Node12</title>
<g id="a_node7"><a xlink:href="classgko_1_1EnableAbstractPolymorphicObject.html" target="_top" xlink:title="This mixin inherits from (a subclass of) PolymorphicObject and provides a base implementation of a ne...">
<polygon fill="#ffffff" stroke="#000000" points="138,-633.5 138,-674.5 336,-674.5 336,-633.5 138,-633.5"/>
<text text-anchor="start" x="146" y="-662.5" font-family="Helvetica,sans-Serif" font-size="10.00" fill="#000000">gko::EnableAbstractPolymorphic</text>
<text text-anchor="start" x="146" y="-651.5" font-family="Helvetica,sans-Serif" font-size="10.00" fill="#000000">Object&lt; AbstractObject, Polymorphic</text>
<text text-anchor="middle" x="237" y="-640.5" font-family="Helvetica,sans-Serif" font-size="10.00" fill="#000000">Base &gt;</text>
</a>
</g>
</g>
<!-- Node12&#45;&gt;Node4 -->
<g id="edge8" class="edge">
<title>Node12&#45;&gt;Node4</title>
<path fill="none" stroke="#ffa500" stroke-dasharray="5,2" d="M289.893,-678.5433C309.6144,-686.6867 332.4501,-694.9531 354,-700 430.0064,-717.8005 451.0084,-711.6636 529,-715 556.985,-716.1972 926.1303,-714.7735 1122,-714 1205.1117,-713.6718 1225.971,-716.7195 1309,-713 1319.0033,-712.5519 1329.4695,-711.9146 1339.8643,-711.176"/>
<polygon fill="#ffa500" stroke="#ffa500" points="291.0549,-675.2348 280.481,-674.5701 288.3326,-681.6837 291.0549,-675.2348"/>
<text text-anchor="start" x="769" y="-729" font-family="Helvetica,sans-Serif" font-size="10.00" fill="#000000"> &lt; Fbcsr&lt; ValueType,</text>
<text text-anchor="middle" x="823.5" y="-718" font-family="Helvetica,sans-Serif" font-size="10.00" fill="#000000"> IndexType &gt;, LinOp &gt;</text>
</g>
<!-- Node12&#45;&gt;Node6 -->
<g id="edge6" class="edge">
<title>Node12&#45;&gt;Node6</title>
<path fill="none" stroke="#ffa500" stroke-dasharray="5,2" d="M346.2714,-672.0954C348.8708,-672.4127 351.45,-672.715 354,-673 416.6259,-679.9997 487.6066,-684.2939 541.8344,-686.8151"/>
<polygon fill="#ffa500" stroke="#ffa500" points="346.5267,-668.5996 336.1634,-670.8025 345.6385,-675.543 346.5267,-668.5996"/>
<text text-anchor="middle" x="432.5" y="-688" font-family="Helvetica,sans-Serif" font-size="10.00" fill="#000000"> &lt; LinOp &gt;</text>
</g>
<!-- Node14 -->
<g id="node10" class="node">
<title>Node14</title>
<g id="a_node10"><a xlink:href="classgko_1_1EnableAbstractPolymorphicObject.html" target="_top" xlink:title=" ">
<polygon fill="#ffffff" stroke="#000000" points="529,-613.5 529,-654.5 730,-654.5 730,-613.5 529,-613.5"/>
<text text-anchor="start" x="537" y="-642.5" font-family="Helvetica,sans-Serif" font-size="10.00" fill="#000000">gko::EnableAbstractPolymorphic</text>
<text text-anchor="start" x="537" y="-631.5" font-family="Helvetica,sans-Serif" font-size="10.00" fill="#000000">Object&lt; ConcreteObject, Polymorphic</text>
<text text-anchor="middle" x="629.5" y="-620.5" font-family="Helvetica,sans-Serif" font-size="10.00" fill="#000000">Base &gt;</text>
</a>
</g>
</g>
<!-- Node12&#45;&gt;Node14 -->
<g id="edge12" class="edge">
<title>Node12&#45;&gt;Node14</title>
<path fill="none" stroke="#ffa500" stroke-dasharray="5,2" d="M346.2032,-648.4355C403.3756,-645.5223 472.9091,-641.9792 528.78,-639.1322"/>
<polygon fill="#ffa500" stroke="#ffa500" points="345.8532,-644.9487 336.0443,-648.9532 346.2095,-651.9396 345.8532,-644.9487"/>
<text text-anchor="start" x="354" y="-661" font-family="Helvetica,sans-Serif" font-size="10.00" fill="#000000"> &lt; ConcreteObject, Polymorphic</text>
<text text-anchor="middle" x="432.5" y="-650" font-family="Helvetica,sans-Serif" font-size="10.00" fill="#000000">Base &gt;</text>
</g>
<!-- Node21 -->
<g id="node17" class="node">
<title>Node21</title>
<g id="a_node17"><a xlink:href="classgko_1_1EnableAbstractPolymorphicObject.html" target="_top" xlink:title=" ">
<polygon fill="#ffffff" stroke="#000000" points="531,-551.5 531,-592.5 728,-592.5 728,-551.5 531,-551.5"/>
<text text-anchor="start" x="539" y="-580.5" font-family="Helvetica,sans-Serif" font-size="10.00" fill="#000000">gko::EnableAbstractPolymorphic</text>
<text text-anchor="start" x="539" y="-569.5" font-family="Helvetica,sans-Serif" font-size="10.00" fill="#000000">Object&lt; ConcreteLinOp, Polymorphic</text>
<text text-anchor="middle" x="629.5" y="-558.5" font-family="Helvetica,sans-Serif" font-size="10.00" fill="#000000">Base &gt;</text>
</a>
</g>
</g>
<!-- Node12&#45;&gt;Node21 -->
<g id="edge22" class="edge">
<title>Node12&#45;&gt;Node21</title>
<path fill="none" stroke="#ffa500" stroke-dasharray="5,2" d="M300.4955,-629.9963C317.6785,-624.1339 336.3967,-618.3144 354,-614 411.9172,-599.8049 477.9245,-589.543 530.8074,-582.7173"/>
<polygon fill="#ffa500" stroke="#ffa500" points="298.8738,-626.8544 290.5759,-633.4419 301.1707,-633.4668 298.8738,-626.8544"/>
<text text-anchor="start" x="356" y="-628" font-family="Helvetica,sans-Serif" font-size="10.00" fill="#000000"> &lt; ConcreteLinOp, Polymorphic</text>
<text text-anchor="middle" x="432.5" y="-617" font-family="Helvetica,sans-Serif" font-size="10.00" fill="#000000">Base &gt;</text>
</g>
<!-- Node11 -->
<g id="node8" class="node">
<title>Node11</title>
<g id="a_node8"><a xlink:title=" ">
<polygon fill="#ffffff" stroke="#bfbfbf" points="0,-566.5 0,-585.5 101,-585.5 101,-566.5 0,-566.5"/>
<text text-anchor="middle" x="50.5" y="-573.5" font-family="Helvetica,sans-Serif" font-size="10.00" fill="#000000">PolymorphicBase</text>
</a>
</g>
</g>
<!-- Node11&#45;&gt;Node12 -->
<g id="edge7" class="edge">
<title>Node11&#45;&gt;Node12</title>
<path fill="none" stroke="#191970" d="M82.5985,-589.4246C111.5007,-601.5123 154.4214,-619.4631 187.6791,-633.3725"/>
<polygon fill="#191970" stroke="#191970" points="83.9447,-586.1939 73.3686,-585.5643 81.2437,-592.6518 83.9447,-586.1939"/>
</g>
<!-- Node11&#45;&gt;Node14 -->
<g id="edge11" class="edge">
<title>Node11&#45;&gt;Node14</title>
<path fill="none" stroke="#191970" d="M111.0875,-573.7329C218.6293,-570.3883 438.3886,-566.8048 511,-590 520.1589,-592.9257 520.3346,-597.8341 529,-602 537.7466,-606.2049 547.1792,-610.0403 556.6388,-613.479"/>
<polygon fill="#191970" stroke="#191970" points="110.9219,-570.2363 101.0392,-574.0549 111.1462,-577.2327 110.9219,-570.2363"/>
</g>
<!-- Node11&#45;&gt;Node21 -->
<g id="edge21" class="edge">
<title>Node11&#45;&gt;Node21</title>
<path fill="none" stroke="#191970" d="M100.0089,-564.656C106.37,-563.5602 112.8183,-562.6252 119,-562 292.3378,-544.4679 336.9321,-554.6684 511,-562 517.4977,-562.2737 524.1906,-562.6314 530.9321,-563.0484"/>
<polygon fill="#191970" stroke="#191970" points="99.3286,-561.2224 90.1355,-566.4889 100.6063,-568.1048 99.3286,-561.2224"/>
</g>
<!-- Node13 -->
<g id="node9" class="node">
<title>Node13</title>
<g id="a_node9"><a xlink:href="classgko_1_1EnablePolymorphicObject.html" target="_top" xlink:title="This mixin inherits from (a subclass of) PolymorphicObject and provides a base implementation of a ne...">
<polygon fill="#ffffff" stroke="#000000" points="917,-619 917,-649 1122,-649 1122,-619 917,-619"/>
<text text-anchor="start" x="925" y="-637" font-family="Helvetica,sans-Serif" font-size="10.00" fill="#000000">gko::EnablePolymorphicObject</text>
<text text-anchor="middle" x="1019.5" y="-626" font-family="Helvetica,sans-Serif" font-size="10.00" fill="#000000">&lt; ConcreteObject, PolymorphicBase &gt;</text>
</a>
</g>
</g>
<!-- Node13&#45;&gt;Node3 -->
<g id="edge9" class="edge">
<title>Node13&#45;&gt;Node3</title>
<path fill="none" stroke="#ffa500" stroke-dasharray="5,2" d="M1132.3002,-635.1629C1289.2145,-636.7806 1569.8845,-639.6741 1710.4216,-641.1229"/>
<polygon fill="#ffa500" stroke="#ffa500" points="1132.1819,-631.6616 1122.1463,-635.0582 1132.1097,-638.6612 1132.1819,-631.6616"/>
<text text-anchor="start" x="1373" y="-653" font-family="Helvetica,sans-Serif" font-size="10.00" fill="#000000"> &lt; Fbcsr&lt; ValueType,</text>
<text text-anchor="middle" x="1427.5" y="-642" font-family="Helvetica,sans-Serif" font-size="10.00" fill="#000000"> IndexType &gt;, LinOp &gt;</text>
</g>
<!-- Node20 -->
<g id="node16" class="node">
<title>Node20</title>
<g id="a_node16"><a xlink:href="classgko_1_1EnablePolymorphicObject.html" target="_top" xlink:title=" ">
<polygon fill="#ffffff" stroke="#000000" points="1327,-557 1327,-587 1528,-587 1528,-557 1327,-557"/>
<text text-anchor="start" x="1335" y="-575" font-family="Helvetica,sans-Serif" font-size="10.00" fill="#000000">gko::EnablePolymorphicObject</text>
<text text-anchor="middle" x="1427.5" y="-564" font-family="Helvetica,sans-Serif" font-size="10.00" fill="#000000">&lt; ConcreteLinOp, PolymorphicBase &gt;</text>
</a>
</g>
</g>
<!-- Node13&#45;&gt;Node20 -->
<g id="edge23" class="edge">
<title>Node13&#45;&gt;Node20</title>
<path fill="none" stroke="#ffa500" stroke-dasharray="5,2" d="M1088.1587,-616.6639C1105.036,-612.7854 1123.1101,-608.9517 1140,-606 1201.7645,-595.206 1271.6042,-586.8581 1326.9819,-581.1355"/>
<polygon fill="#ffa500" stroke="#ffa500" points="1087.3209,-613.2653 1078.378,-618.9464 1088.9117,-620.0821 1087.3209,-613.2653"/>
<text text-anchor="start" x="1148" y="-620" font-family="Helvetica,sans-Serif" font-size="10.00" fill="#000000"> &lt; ConcreteLinOp, Polymorphic</text>
<text text-anchor="middle" x="1224.5" y="-609" font-family="Helvetica,sans-Serif" font-size="10.00" fill="#000000">Base &gt;</text>
</g>
<!-- Node14&#45;&gt;Node13 -->
<g id="edge10" class="edge">
<title>Node14&#45;&gt;Node13</title>
<path fill="none" stroke="#191970" d="M740.4069,-634C795.8628,-634 862.5426,-634 916.818,-634"/>
<polygon fill="#191970" stroke="#191970" points="740.1882,-630.5001 730.1882,-634 740.1882,-637.5001 740.1882,-630.5001"/>
</g>
<!-- Node15 -->
<g id="node11" class="node">
<title>Node15</title>
<g id="a_node11"><a xlink:href="classgko_1_1EnablePolymorphicAssignment.html" target="_top" xlink:title=" ">
<polygon fill="#ffffff" stroke="#000000" points="1331.5,-505 1331.5,-535 1523.5,-535 1523.5,-505 1331.5,-505"/>
<text text-anchor="start" x="1339.5" y="-523" font-family="Helvetica,sans-Serif" font-size="10.00" fill="#000000">gko::EnablePolymorphicAssignment</text>
<text text-anchor="middle" x="1427.5" y="-512" font-family="Helvetica,sans-Serif" font-size="10.00" fill="#000000">&lt; Fbcsr&lt; ValueType, IndexType &gt; &gt;</text>
</a>
</g>
</g>
<!-- Node15&#45;&gt;Node2 -->
<g id="edge13" class="edge">
<title>Node15&#45;&gt;Node2</title>
<path fill="none" stroke="#191970" d="M1533.9615,-518.3498C1664.0054,-516.1916 1890.6924,-511.9699 2085,-506 2100.1353,-505.535 2116.3021,-504.9504 2131.8046,-504.3465"/>
<polygon fill="#191970" stroke="#191970" points="1533.5523,-514.8559 1523.6115,-518.5206 1533.6679,-521.855 1533.5523,-514.8559"/>
</g>
<!-- Node16 -->
<g id="node12" class="node">
<title>Node16</title>
<g id="a_node12"><a xlink:href="classgko_1_1ConvertibleTo.html" target="_top" xlink:title=" ">
<polygon fill="#ffffff" stroke="#000000" points="961,-502.5 961,-543.5 1078,-543.5 1078,-502.5 961,-502.5"/>
<text text-anchor="start" x="969" y="-531.5" font-family="Helvetica,sans-Serif" font-size="10.00" fill="#000000">gko::ConvertibleTo</text>
<text text-anchor="start" x="969" y="-520.5" font-family="Helvetica,sans-Serif" font-size="10.00" fill="#000000">&lt; Fbcsr&lt; ValueType,</text>
<text text-anchor="middle" x="1019.5" y="-509.5" font-family="Helvetica,sans-Serif" font-size="10.00" fill="#000000"> IndexType &gt; &gt;</text>
</a>
</g>
</g>
<!-- Node16&#45;&gt;Node15 -->
<g id="edge14" class="edge">
<title>Node16&#45;&gt;Node15</title>
<path fill="none" stroke="#191970" d="M1088.7764,-522.4906C1155.3994,-522.0007 1256.6954,-521.2559 1331.1635,-520.7084"/>
<polygon fill="#191970" stroke="#191970" points="1088.3649,-518.9934 1078.391,-522.567 1088.4165,-525.9933 1088.3649,-518.9934"/>
</g>
<!-- Node17 -->
<g id="node13" class="node">
<title>Node17</title>
<g id="a_node13"><a xlink:href="classgko_1_1ConvertibleTo.html" target="_top" xlink:title="ConvertibleTo interface is used to mark that the implementer can be converted to the object of Result...">
<polygon fill="#ffffff" stroke="#000000" points="576,-360 576,-390 683,-390 683,-360 576,-360"/>
<text text-anchor="start" x="584" y="-378" font-family="Helvetica,sans-Serif" font-size="10.00" fill="#000000">gko::ConvertibleTo</text>
<text text-anchor="middle" x="629.5" y="-367" font-family="Helvetica,sans-Serif" font-size="10.00" fill="#000000">&lt; ResultType &gt;</text>
</a>
</g>
</g>
<!-- Node17&#45;&gt;Node16 -->
<g id="edge15" class="edge">
<title>Node17&#45;&gt;Node16</title>
<path fill="none" stroke="#ffa500" stroke-dasharray="5,2" d="M657.7945,-395.989C681.0169,-412.3783 715.2878,-434.6982 748,-449 818.3909,-479.7749 904.7459,-500.6635 960.8934,-512.1995"/>
<polygon fill="#ffa500" stroke="#ffa500" points="659.6309,-392.9993 649.4615,-390.0271 655.5578,-398.6923 659.6309,-392.9993"/>
<text text-anchor="start" x="771.5" y="-510" font-family="Helvetica,sans-Serif" font-size="10.00" fill="#000000"> &lt; Fbcsr&lt; ValueType,</text>
<text text-anchor="middle" x="823.5" y="-499" font-family="Helvetica,sans-Serif" font-size="10.00" fill="#000000"> IndexType &gt; &gt;</text>
</g>
<!-- Node18 -->
<g id="node14" class="node">
<title>Node18</title>
<g id="a_node14"><a xlink:href="classgko_1_1EnablePolymorphicAssignment.html" target="_top" xlink:title="This mixin is used to enable a default PolymorphicObject::copy_from() implementation for objects that...">
<polygon fill="#ffffff" stroke="#000000" points="923.5,-453 923.5,-483 1115.5,-483 1115.5,-453 923.5,-453"/>
<text text-anchor="start" x="931.5" y="-471" font-family="Helvetica,sans-Serif" font-size="10.00" fill="#000000">gko::EnablePolymorphicAssignment</text>
<text text-anchor="middle" x="1019.5" y="-460" font-family="Helvetica,sans-Serif" font-size="10.00" fill="#000000">&lt; ConcreteType, ResultType &gt;</text>
</a>
</g>
</g>
<!-- Node17&#45;&gt;Node18 -->
<g id="edge17" class="edge">
<title>Node17&#45;&gt;Node18</title>
<path fill="none" stroke="#191970" d="M673.3511,-393.9119C695.4174,-402.8448 722.7742,-413.0469 748,-420 805.3358,-435.8038 870.9718,-447.5739 923.3446,-455.5031"/>
<polygon fill="#191970" stroke="#191970" points="674.5066,-390.6029 663.9265,-390.0442 671.849,-397.0788 674.5066,-390.6029"/>
</g>
<!-- Node23 -->
<g id="node19" class="node">
<title>Node23</title>
<g id="a_node19"><a xlink:href="classgko_1_1ConvertibleTo.html" target="_top" xlink:title=" ">
<polygon fill="#ffffff" stroke="#000000" points="964.5,-404 964.5,-434 1074.5,-434 1074.5,-404 964.5,-404"/>
<text text-anchor="start" x="972.5" y="-422" font-family="Helvetica,sans-Serif" font-size="10.00" fill="#000000">gko::ConvertibleTo</text>
<text text-anchor="middle" x="1019.5" y="-411" font-family="Helvetica,sans-Serif" font-size="10.00" fill="#000000">&lt; ConcreteLinOp &gt;</text>
</a>
</g>
</g>
<!-- Node17&#45;&gt;Node23 -->
<g id="edge26" class="edge">
<title>Node17&#45;&gt;Node23</title>
<path fill="none" stroke="#ffa500" stroke-dasharray="5,2" d="M693.3863,-382.6373C711.0731,-384.7273 730.2786,-386.9741 748,-389 822.9135,-397.564 909.5036,-407.0626 964.3672,-413.0313"/>
<polygon fill="#ffa500" stroke="#ffa500" points="693.513,-379.128 683.1708,-381.4277 692.6899,-386.0794 693.513,-379.128"/>
<text text-anchor="middle" x="823.5" y="-408" font-family="Helvetica,sans-Serif" font-size="10.00" fill="#000000"> &lt; ConcreteLinOp &gt;</text>
</g>
<!-- Node24 -->
<g id="node20" class="node">
<title>Node24</title>
<g id="a_node20"><a xlink:href="classgko_1_1ConvertibleTo.html" target="_top" xlink:title=" ">
<polygon fill="#ffffff" stroke="#000000" points="1141,-264.5 1141,-305.5 1308,-305.5 1308,-264.5 1141,-264.5"/>
<text text-anchor="start" x="1149" y="-293.5" font-family="Helvetica,sans-Serif" font-size="10.00" fill="#000000">gko::ConvertibleTo</text>
<text text-anchor="start" x="1149" y="-282.5" font-family="Helvetica,sans-Serif" font-size="10.00" fill="#000000">&lt; Fbcsr&lt; next_precision</text>
<text text-anchor="middle" x="1224.5" y="-271.5" font-family="Helvetica,sans-Serif" font-size="10.00" fill="#000000">&lt; ValueType &gt;, IndexType &gt; &gt;</text>
</a>
</g>
</g>
<!-- Node17&#45;&gt;Node24 -->
<g id="edge29" class="edge">
<title>Node17&#45;&gt;Node24</title>
<path fill="none" stroke="#ffa500" stroke-dasharray="5,2" d="M653.7296,-353.4453C676.3332,-334.8386 711.9055,-309.2346 748,-298 880.5516,-256.7425 1043.9892,-263.9729 1140.9199,-273.8608"/>
<polygon fill="#ffa500" stroke="#ffa500" points="651.4066,-350.8258 646.0118,-359.9443 655.9155,-356.1803 651.4066,-350.8258"/>
<text text-anchor="start" x="748" y="-312" font-family="Helvetica,sans-Serif" font-size="10.00" fill="#000000"> &lt; Fbcsr&lt; next_precision</text>
<text text-anchor="middle" x="823.5" y="-301" font-family="Helvetica,sans-Serif" font-size="10.00" fill="#000000">&lt; ValueType &gt;, IndexType &gt; &gt;</text>
</g>
<!-- Node25 -->
<g id="node21" class="node">
<title>Node25</title>
<g id="a_node21"><a xlink:href="classgko_1_1ConvertibleTo.html" target="_top" xlink:title=" ">
<polygon fill="#ffffff" stroke="#000000" points="1546,-238 1546,-268 1688,-268 1688,-238 1546,-238"/>
<text text-anchor="start" x="1554" y="-256" font-family="Helvetica,sans-Serif" font-size="10.00" fill="#000000">gko::ConvertibleTo</text>
<text text-anchor="middle" x="1617" y="-245" font-family="Helvetica,sans-Serif" font-size="10.00" fill="#000000">&lt; Dense&lt; ValueType &gt; &gt;</text>
</a>
</g>
</g>
<!-- Node17&#45;&gt;Node25 -->
<g id="edge31" class="edge">
<title>Node17&#45;&gt;Node25</title>
<path fill="none" stroke="#ffa500" stroke-dasharray="5,2" d="M646.9859,-351.5299C667.8347,-325.5576 705.2743,-284.8804 748,-266 1026.6089,-142.8837 1406.1972,-205.856 1554.2527,-237.9874"/>
<polygon fill="#ffa500" stroke="#ffa500" points="643.9802,-349.6911 640.5678,-359.7214 649.4904,-354.0084 643.9802,-349.6911"/>
<text text-anchor="middle" x="1019.5" y="-216" font-family="Helvetica,sans-Serif" font-size="10.00" fill="#000000"> &lt; Dense&lt; ValueType &gt; &gt;</text>
</g>
<!-- Node26 -->
<g id="node22" class="node">
<title>Node26</title>
<g id="a_node22"><a xlink:href="classgko_1_1ConvertibleTo.html" target="_top" xlink:title=" ">
<polygon fill="#ffffff" stroke="#000000" points="1903,-359 1903,-389 2085,-389 2085,-359 1903,-359"/>
<text text-anchor="start" x="1911" y="-377" font-family="Helvetica,sans-Serif" font-size="10.00" fill="#000000">gko::ConvertibleTo</text>
<text text-anchor="middle" x="1994" y="-366" font-family="Helvetica,sans-Serif" font-size="10.00" fill="#000000">&lt; Csr&lt; ValueType, IndexType &gt; &gt;</text>
</a>
</g>
</g>
<!-- Node17&#45;&gt;Node26 -->
<g id="edge33" class="edge">
<title>Node17&#45;&gt;Node26</title>
<path fill="none" stroke="#ffa500" stroke-dasharray="5,2" d="M693.5387,-374.9531C914.4065,-374.7912 1644.9016,-374.2558 1902.8332,-374.0668"/>
<polygon fill="#ffa500" stroke="#ffa500" points="693.4077,-371.4531 683.4103,-374.9605 693.4129,-378.4531 693.4077,-371.4531"/>
<text text-anchor="middle" x="1224.5" y="-377" font-family="Helvetica,sans-Serif" font-size="10.00" fill="#000000"> &lt; Csr&lt; ValueType, IndexType &gt; &gt;</text>
</g>
<!-- Node27 -->
<g id="node23" class="node">
<title>Node27</title>
<g id="a_node23"><a xlink:href="classgko_1_1ConvertibleTo.html" target="_top" xlink:title=" ">
<polygon fill="#ffffff" stroke="#000000" points="1151,-311.5 1151,-352.5 1298,-352.5 1298,-311.5 1151,-311.5"/>
<text text-anchor="start" x="1159" y="-340.5" font-family="Helvetica,sans-Serif" font-size="10.00" fill="#000000">gko::ConvertibleTo</text>
<text text-anchor="start" x="1159" y="-329.5" font-family="Helvetica,sans-Serif" font-size="10.00" fill="#000000">&lt; SparsityCsr&lt; ValueType,</text>
<text text-anchor="middle" x="1224.5" y="-318.5" font-family="Helvetica,sans-Serif" font-size="10.00" fill="#000000"> IndexType &gt; &gt;</text>
</a>
</g>
</g>
<!-- Node17&#45;&gt;Node27 -->
<g id="edge35" class="edge">
<title>Node17&#45;&gt;Node27</title>
<path fill="none" stroke="#ffa500" stroke-dasharray="5,2" d="M678.5725,-356.7176C699.6326,-349.7593 724.7086,-342.6349 748,-339 889.2147,-316.9617 1056.8244,-321.479 1150.9025,-326.7476"/>
<polygon fill="#ffa500" stroke="#ffa500" points="677.2404,-353.4734 668.8918,-359.9965 679.4861,-360.1034 677.2404,-353.4734"/>
<text text-anchor="start" x="756.5" y="-353" font-family="Helvetica,sans-Serif" font-size="10.00" fill="#000000"> &lt; SparsityCsr&lt; ValueType,</text>
<text text-anchor="middle" x="823.5" y="-342" font-family="Helvetica,sans-Serif" font-size="10.00" fill="#000000"> IndexType &gt; &gt;</text>
</g>
<!-- Node18&#45;&gt;Node15 -->
<g id="edge16" class="edge">
<title>Node18&#45;&gt;Node15</title>
<path fill="none" stroke="#ffa500" stroke-dasharray="5,2" d="M1125.8047,-474.3159C1180.7085,-478.394 1248.666,-484.7099 1309,-494 1327.6312,-496.8688 1347.719,-500.9096 1365.9676,-504.9522"/>
<polygon fill="#ffa500" stroke="#ffa500" points="1125.9377,-470.8164 1115.7097,-473.5803 1125.4288,-477.7979 1125.9377,-470.8164"/>
<text text-anchor="start" x="1172.5" y="-508" font-family="Helvetica,sans-Serif" font-size="10.00" fill="#000000"> &lt; Fbcsr&lt; ValueType,</text>
<text text-anchor="middle" x="1224.5" y="-497" font-family="Helvetica,sans-Serif" font-size="10.00" fill="#000000"> IndexType &gt; &gt;</text>
</g>
<!-- Node22 -->
<g id="node18" class="node">
<title>Node22</title>
<g id="a_node18"><a xlink:href="classgko_1_1EnablePolymorphicAssignment.html" target="_top" xlink:title=" ">
<polygon fill="#ffffff" stroke="#000000" points="1331.5,-437 1331.5,-467 1523.5,-467 1523.5,-437 1331.5,-437"/>
<text text-anchor="start" x="1339.5" y="-455" font-family="Helvetica,sans-Serif" font-size="10.00" fill="#000000">gko::EnablePolymorphicAssignment</text>
<text text-anchor="middle" x="1427.5" y="-444" font-family="Helvetica,sans-Serif" font-size="10.00" fill="#000000">&lt; ConcreteLinOp &gt;</text>
</a>
</g>
</g>
<!-- Node18&#45;&gt;Node22 -->
<g id="edge27" class="edge">
<title>Node18&#45;&gt;Node22</title>
<path fill="none" stroke="#ffa500" stroke-dasharray="5,2" d="M1126.0898,-454.0353C1130.786,-453.6399 1135.4388,-453.2908 1140,-453 1203.6353,-448.9434 1275.3541,-448.6865 1331.242,-449.4471"/>
<polygon fill="#ffa500" stroke="#ffa500" points="1125.4019,-450.5832 1115.7581,-454.9705 1126.033,-457.5547 1125.4019,-450.5832"/>
<text text-anchor="middle" x="1224.5" y="-456" font-family="Helvetica,sans-Serif" font-size="10.00" fill="#000000"> &lt; ConcreteLinOp &gt;</text>
</g>
<!-- Node19 -->
<g id="node15" class="node">
<title>Node19</title>
<g id="a_node15"><a xlink:href="classgko_1_1EnableLinOp.html" target="_top" xlink:title="The EnableLinOp mixin can be used to provide sensible default implementations of the majority of the ...">
<polygon fill="#ffffff" stroke="#000000" points="1717.5,-461 1717.5,-491 1873.5,-491 1873.5,-461 1717.5,-461"/>
<text text-anchor="start" x="1725.5" y="-479" font-family="Helvetica,sans-Serif" font-size="10.00" fill="#000000">gko::EnableLinOp&lt; Concrete</text>
<text text-anchor="middle" x="1795.5" y="-468" font-family="Helvetica,sans-Serif" font-size="10.00" fill="#000000">LinOp, PolymorphicBase &gt;</text>
</a>
</g>
</g>
<!-- Node19&#45;&gt;Node2 -->
<g id="edge18" class="edge">
<title>Node19&#45;&gt;Node2</title>
<path fill="none" stroke="#ffa500" stroke-dasharray="5,2" d="M1883.7781,-475.9686C1941.1909,-476.5572 2017.635,-478.4863 2085,-484 2100.2197,-485.2457 2116.4248,-487.0812 2131.9384,-489.0909"/>
<polygon fill="#ffa500" stroke="#ffa500" points="1883.68,-472.4676 1873.6486,-475.8765 1883.6163,-479.4673 1883.68,-472.4676"/>
<text text-anchor="start" x="1942" y="-498" font-family="Helvetica,sans-Serif" font-size="10.00" fill="#000000"> &lt; Fbcsr&lt; ValueType,</text>
<text text-anchor="middle" x="1994" y="-487" font-family="Helvetica,sans-Serif" font-size="10.00" fill="#000000"> IndexType &gt; &gt;</text>
</g>
<!-- Node20&#45;&gt;Node19 -->
<g id="edge19" class="edge">
<title>Node20&#45;&gt;Node19</title>
<path fill="none" stroke="#191970" d="M1495.4023,-554.2864C1565.073,-536.1114 1672.2887,-508.1421 1737.9329,-491.0175"/>
<polygon fill="#191970" stroke="#191970" points="1494.1975,-550.9834 1485.4048,-556.8944 1495.9645,-557.7568 1494.1975,-550.9834"/>
</g>
<!-- Node21&#45;&gt;Node20 -->
<g id="edge20" class="edge">
<title>Node21&#45;&gt;Node20</title>
<path fill="none" stroke="#191970" d="M738.1848,-572C893.3648,-572 1176.2677,-572 1326.8777,-572"/>
<polygon fill="#191970" stroke="#191970" points="738.1509,-568.5001 728.1508,-572 738.1508,-575.5001 738.1509,-568.5001"/>
</g>
<!-- Node22&#45;&gt;Node19 -->
<g id="edge24" class="edge">
<title>Node22&#45;&gt;Node19</title>
<path fill="none" stroke="#191970" d="M1533.7539,-458.9296C1592.4252,-462.756 1664.0194,-467.4252 1717.4914,-470.9125"/>
<polygon fill="#191970" stroke="#191970" points="1533.9136,-455.4327 1523.707,-458.2744 1533.458,-462.4178 1533.9136,-455.4327"/>
</g>
<!-- Node23&#45;&gt;Node22 -->
<g id="edge25" class="edge">
<title>Node23&#45;&gt;Node22</title>
<path fill="none" stroke="#191970" d="M1084.8725,-424.2875C1151.4073,-429.669 1255.2785,-438.0703 1331.2215,-444.2128"/>
<polygon fill="#191970" stroke="#191970" points="1084.7743,-420.7682 1074.5247,-423.4505 1084.2099,-427.7454 1084.7743,-420.7682"/>
</g>
<!-- Node24&#45;&gt;Node1 -->
<g id="edge28" class="edge">
<title>Node24&#45;&gt;Node1</title>
<path fill="none" stroke="#191970" d="M1318.8046,-288.375C1398.3026,-290.9292 1515.0758,-294 1617,-294 1617,-294 1617,-294 2209.5,-294 2272.5525,-294 2343.2602,-273.0696 2385.9382,-258.0258"/>
<polygon fill="#191970" stroke="#191970" points="1318.4353,-284.8613 1308.3268,-288.0344 1318.2078,-291.8576 1318.4353,-284.8613"/>
</g>
<!-- Node25&#45;&gt;Node1 -->
<g id="edge30" class="edge">
<title>Node25&#45;&gt;Node1</title>
<path fill="none" stroke="#191970" d="M1698.4857,-251.9915C1856.5468,-250.0353 2202.4239,-245.7547 2352.7961,-243.8936"/>
<polygon fill="#191970" stroke="#191970" points="1698.3061,-248.4934 1688.3502,-252.117 1698.3927,-255.4928 1698.3061,-248.4934"/>
</g>
<!-- Node26&#45;&gt;Node1 -->
<g id="edge32" class="edge">
<title>Node26&#45;&gt;Node1</title>
<path fill="none" stroke="#191970" d="M2095.4191,-385.0637C2166.2298,-388.2977 2260.9494,-383.3632 2335,-346 2374.0095,-326.3173 2403.437,-281.7185 2416.9042,-258.1886"/>
<polygon fill="#191970" stroke="#191970" points="2095.3186,-381.5538 2085.1504,-384.5301 2094.9553,-388.5444 2095.3186,-381.5538"/>
</g>
<!-- Node27&#45;&gt;Node1 -->
<g id="edge34" class="edge">
<title>Node27&#45;&gt;Node1</title>
<path fill="none" stroke="#191970" d="M1308.7273,-332C1388.2075,-332 1510.7006,-332 1617,-332 1617,-332 1617,-332 2209.5,-332 2258.0203,-332 2270.9352,-325.9829 2316,-308 2348.742,-294.9345 2383.1346,-272.8102 2404.3247,-258.0544"/>
<polygon fill="#191970" stroke="#191970" points="1308.2874,-328.5001 1298.2873,-332 1308.2873,-335.5001 1308.2874,-328.5001"/>
</g>
<!-- Node28 -->
<g id="node24" class="node">
<title>Node28</title>
<g id="a_node24"><a xlink:href="classgko_1_1DiagonalExtractable.html" target="_top" xlink:title="The diagonal of a LinOp implementing this interface can be extracted.">
<polygon fill="#ffffff" stroke="#000000" points="2139.5,-197 2139.5,-227 2279.5,-227 2279.5,-197 2139.5,-197"/>
<text text-anchor="start" x="2147.5" y="-215" font-family="Helvetica,sans-Serif" font-size="10.00" fill="#000000">gko::DiagonalExtractable</text>
<text text-anchor="middle" x="2209.5" y="-204" font-family="Helvetica,sans-Serif" font-size="10.00" fill="#000000">&lt; ValueType &gt;</text>
</a>
</g>
</g>
<!-- Node28&#45;&gt;Node1 -->
<g id="edge36" class="edge">
<title>Node28&#45;&gt;Node1</title>
<path fill="none" stroke="#191970" d="M2289.8077,-223.5524C2310.5332,-226.5338 2332.71,-229.7239 2352.9836,-232.6403"/>
<polygon fill="#191970" stroke="#191970" points="2290.1611,-220.0673 2279.7646,-222.1077 2289.1643,-226.9959 2290.1611,-220.0673"/>
</g>
<!-- Node29 -->
<g id="node25" class="node">
<title>Node29</title>
<g id="a_node25"><a xlink:href="classgko_1_1DiagonalLinOpExtractable.html" target="_top" xlink:title="The diagonal of a LinOp can be extracted.">
<polygon fill="#ffffff" stroke="#000000" points="1712,-202.5 1712,-221.5 1879,-221.5 1879,-202.5 1712,-202.5"/>
<text text-anchor="middle" x="1795.5" y="-209.5" font-family="Helvetica,sans-Serif" font-size="10.00" fill="#000000">gko::DiagonalLinOpExtractable</text>
</a>
</g>
</g>
<!-- Node29&#45;&gt;Node28 -->
<g id="edge37" class="edge">
<title>Node29&#45;&gt;Node28</title>
<path fill="none" stroke="#191970" d="M1889.3212,-212C1965.2372,-212 2070.4778,-212 2139.2596,-212"/>
<polygon fill="#191970" stroke="#191970" points="1889.2791,-208.5001 1879.2791,-212 1889.279,-215.5001 1889.2791,-208.5001"/>
</g>
<!-- Node30 -->
<g id="node26" class="node">
<title>Node30</title>
<g id="a_node26"><a xlink:href="classgko_1_1ReadableFromMatrixData.html" target="_top" xlink:title="A LinOp implementing this interface can read its data from a matrix_data structure.">
<polygon fill="#ffffff" stroke="#000000" points="2127.5,-148 2127.5,-178 2291.5,-178 2291.5,-148 2127.5,-148"/>
<text text-anchor="start" x="2135.5" y="-166" font-family="Helvetica,sans-Serif" font-size="10.00" fill="#000000">gko::ReadableFromMatrixData</text>
<text text-anchor="middle" x="2209.5" y="-155" font-family="Helvetica,sans-Serif" font-size="10.00" fill="#000000">&lt; ValueType, IndexType &gt;</text>
</a>
</g>
</g>
<!-- Node30&#45;&gt;Node1 -->
<g id="edge38" class="edge">
<title>Node30&#45;&gt;Node1</title>
<path fill="none" stroke="#191970" d="M2293.5205,-180.7417C2301.1914,-182.9551 2308.7843,-185.3747 2316,-188 2345.6791,-198.798 2377.7347,-215.6583 2399.3464,-227.866"/>
<polygon fill="#191970" stroke="#191970" points="2294.3561,-177.3415 2283.7848,-178.0484 2292.4896,-184.0881 2294.3561,-177.3415"/>
</g>
<!-- Node31 -->
<g id="node27" class="node">
<title>Node31</title>
<g id="a_node27"><a xlink:href="classgko_1_1WritableToMatrixData.html" target="_top" xlink:title="A LinOp implementing this interface can write its data to a matrix_data structure.">
<polygon fill="#ffffff" stroke="#000000" points="2136.5,-99 2136.5,-129 2282.5,-129 2282.5,-99 2136.5,-99"/>
<text text-anchor="start" x="2144.5" y="-117" font-family="Helvetica,sans-Serif" font-size="10.00" fill="#000000">gko::WritableToMatrixData</text>
<text text-anchor="middle" x="2209.5" y="-106" font-family="Helvetica,sans-Serif" font-size="10.00" fill="#000000">&lt; ValueType, IndexType &gt;</text>
</a>
</g>
</g>
<!-- Node31&#45;&gt;Node1 -->
<g id="edge39" class="edge">
<title>Node31&#45;&gt;Node1</title>
<path fill="none" stroke="#191970" d="M2292.4114,-128.8134C2300.6093,-131.6407 2308.6175,-135.0028 2316,-139 2357.8608,-161.6651 2395.2929,-204.6682 2413.4355,-227.6355"/>
<polygon fill="#191970" stroke="#191970" points="2293.3173,-125.4288 2282.7269,-125.7341 2291.1962,-132.0998 2293.3173,-125.4288"/>
</g>
<!-- Node32 -->
<g id="node28" class="node">
<title>Node32</title>
<g id="a_node28"><a xlink:href="classgko_1_1Transposable.html" target="_top" xlink:title="Linear operators which support transposition should implement the Transposable interface.">
<polygon fill="#ffffff" stroke="#000000" points="2157.5,-60.5 2157.5,-79.5 2261.5,-79.5 2261.5,-60.5 2157.5,-60.5"/>
<text text-anchor="middle" x="2209.5" y="-67.5" font-family="Helvetica,sans-Serif" font-size="10.00" fill="#000000">gko::Transposable</text>
</a>
</g>
</g>
<!-- Node32&#45;&gt;Node1 -->
<g id="edge40" class="edge">
<title>Node32&#45;&gt;Node1</title>
<path fill="none" stroke="#191970" d="M2271.7312,-73.5514C2287.0792,-76.5503 2302.8667,-81.6059 2316,-90 2370.1364,-124.6012 2405.501,-196.5523 2418.9263,-227.8793"/>
<polygon fill="#191970" stroke="#191970" points="2272.1846,-70.0785 2261.7412,-71.8633 2271.0182,-76.9806 2272.1846,-70.0785"/>
</g>
<!-- Node33 -->
<g id="node29" class="node">
<title>Node33</title>
<g id="a_node29"><a xlink:href="classgko_1_1EnableAbsoluteComputation.html" target="_top" xlink:title=" ">
<polygon fill="#ffffff" stroke="#000000" points="2103,-.5 2103,-41.5 2316,-41.5 2316,-.5 2103,-.5"/>
<text text-anchor="start" x="2111" y="-29.5" font-family="Helvetica,sans-Serif" font-size="10.00" fill="#000000">gko::EnableAbsoluteComputation</text>
<text text-anchor="start" x="2111" y="-18.5" font-family="Helvetica,sans-Serif" font-size="10.00" fill="#000000">&lt; remove_complex&lt; Fbcsr&lt; ValueType,</text>
<text text-anchor="middle" x="2209.5" y="-7.5" font-family="Helvetica,sans-Serif" font-size="10.00" fill="#000000"> IndexType &gt; &gt; &gt;</text>
</a>
</g>
</g>
<!-- Node33&#45;&gt;Node1 -->
<g id="edge41" class="edge">
<title>Node33&#45;&gt;Node1</title>
<path fill="none" stroke="#191970" d="M2310.2839,-46.8739C2312.2482,-48.182 2314.157,-49.5563 2316,-51 2377.2536,-98.9842 2409.902,-191.5979 2420.795,-227.8891"/>
<polygon fill="#191970" stroke="#191970" points="2311.7309,-43.662 2301.3484,-41.5516 2308.1488,-49.676 2311.7309,-43.662"/>
</g>
<!-- Node34 -->
<g id="node30" class="node">
<title>Node34</title>
<g id="a_node30"><a xlink:href="classgko_1_1AbsoluteComputable.html" target="_top" xlink:title="The AbsoluteComputable is an interface that allows to get the component wise absolute of a LinOp.">
<polygon fill="#ffffff" stroke="#000000" points="1356,-7.5 1356,-26.5 1499,-26.5 1499,-7.5 1356,-7.5"/>
<text text-anchor="middle" x="1427.5" y="-14.5" font-family="Helvetica,sans-Serif" font-size="10.00" fill="#000000">gko::AbsoluteComputable</text>
</a>
</g>
</g>
<!-- Node34&#45;&gt;Node33 -->
<g id="edge42" class="edge">
<title>Node34&#45;&gt;Node33</title>
<path fill="none" stroke="#191970" d="M1509.2446,-17.0049C1600.7707,-17.0508 1753.5149,-17.2485 1885,-18 1957.6764,-18.4154 2039.5061,-19.1739 2102.8103,-19.8243"/>
<polygon fill="#191970" stroke="#191970" points="1509.2155,-13.5049 1499.2138,-17.0003 1509.2122,-20.5049 1509.2155,-13.5049"/>
</g>
<!-- Node35 -->
<g id="node31" class="node">
<title>Node35</title>
<g id="a_node31"><a xlink:href="classgko_1_1EnableAbsoluteComputation.html" target="_top" xlink:title="The EnableAbsoluteComputation mixin provides the default implementations of compute_absolute_linop an...">
<polygon fill="#ffffff" stroke="#000000" points="1706,-28 1706,-58 1885,-58 1885,-28 1706,-28"/>
<text text-anchor="start" x="1714" y="-46" font-family="Helvetica,sans-Serif" font-size="10.00" fill="#000000">gko::EnableAbsoluteComputation</text>
<text text-anchor="middle" x="1795.5" y="-35" font-family="Helvetica,sans-Serif" font-size="10.00" fill="#000000">&lt; AbsoluteLinOp &gt;</text>
</a>
</g>
</g>
<!-- Node34&#45;&gt;Node35 -->
<g id="edge44" class="edge">
<title>Node34&#45;&gt;Node35</title>
<path fill="none" stroke="#191970" d="M1509.6004,-22.8006C1567.8732,-26.9177 1646.0623,-32.4419 1705.9431,-36.6726"/>
<polygon fill="#191970" stroke="#191970" points="1509.5495,-19.2883 1499.3277,-22.0748 1509.0561,-26.2709 1509.5495,-19.2883"/>
</g>
<!-- Node35&#45;&gt;Node33 -->
<g id="edge43" class="edge">
<title>Node35&#45;&gt;Node33</title>
<path fill="none" stroke="#ffa500" stroke-dasharray="5,2" d="M1895.3755,-37.6926C1958.0844,-34.3603 2038.899,-30.0658 2102.8537,-26.6672"/>
<polygon fill="#ffa500" stroke="#ffa500" points="1894.877,-34.2141 1885.0769,-38.2399 1895.2485,-41.2042 1894.877,-34.2141"/>
<text text-anchor="start" x="1918.5" y="-52" font-family="Helvetica,sans-Serif" font-size="10.00" fill="#000000"> &lt; remove_complex&lt; Fbcsr</text>
<text text-anchor="middle" x="1994" y="-41" font-family="Helvetica,sans-Serif" font-size="10.00" fill="#000000">&lt; ValueType, IndexType &gt; &gt; &gt;</text>
</g>
</g>
</svg>
        <g id="navigator" transform="translate(0 0)" fill="#404254">
                <rect fill="#f2f5e9" fill-opacity="0.5" stroke="#606060" stroke-width=".5" x="0" y="0" width="60" height="60"/>
                <use id="zoomplus" xlink:href="#zoomPlus" x="17" y="9" onmousedown="handleZoom(evt,'in')"/>
                <use id="zoomminus" xlink:href="#zoomMin" x="42" y="9" onmousedown="handleZoom(evt,'out')"/>
                <use id="reset" xlink:href="#resetDef" x="30" y="36" onmousedown="handleReset()"/>
                <g id="arrowUp" xlink:href="#dirArrow" transform="translate(30 24)" onmousedown="handlePan(0,-1)">
                  <use xlink:href="#rim" fill="#404040">
                        <set attributeName="fill" to="#808080" begin="arrowUp.mouseover" end="arrowUp.mouseout"/>
                  </use>
                  <path fill="none" stroke="white" stroke-width="1.5" d="M0,-3.0v7 M-2.5,-0.5L0,-3.0L2.5,-0.5"/>
                </g>
                <g id="arrowRight" xlink:href="#dirArrow" transform="rotate(90) translate(36 -43)" onmousedown="handlePan(1,0)">
                  <use xlink:href="#rim" fill="#404040">
                        <set attributeName="fill" to="#808080" begin="arrowRight.mouseover" end="arrowRight.mouseout"/>
                  </use>
                  <path fill="none" stroke="white" stroke-width="1.5" d="M0,-3.0v7 M-2.5,-0.5L0,-3.0L2.5,-0.5"/>
                </g>
                <g id="arrowDown" xlink:href="#dirArrow" transform="rotate(180) translate(-30 -48)" onmousedown="handlePan(0,1)">
                  <use xlink:href="#rim" fill="#404040">
                        <set attributeName="fill" to="#808080" begin="arrowDown.mouseover" end="arrowDown.mouseout"/>
                  </use>
                  <path fill="none" stroke="white" stroke-width="1.5" d="M0,-3.0v7 M-2.5,-0.5L0,-3.0L2.5,-0.5"/>
                </g>
                <g id="arrowLeft" xlink:href="#dirArrow" transform="rotate(270) translate(-36 17)" onmousedown="handlePan(-1,0)">
                  <use xlink:href="#rim" fill="#404040">
                        <set attributeName="fill" to="#808080" begin="arrowLeft.mouseover" end="arrowLeft.mouseout"/>
                  </use>
                  <path fill="none" stroke="white" stroke-width="1.5" d="M0,-3.0v7 M-2.5,-0.5L0,-3.0L2.5,-0.5"/>
                </g>
        </g>
        <svg viewBox="0 0 15 15" width="100%" height="30px" preserveAspectRatio="xMaxYMin meet">
         <g id="arrow_out" transform="scale(0.3 0.3)">
          <a xlink:href="classgko_1_1matrix_1_1Fbcsr__coll__graph_org.svg" target="_base">
           <rect id="button" ry="5" rx="5" y="6" x="6" height="38" width="38"
                fill="#f2f5e9" fill-opacity="0.5" stroke="#606060" stroke-width="1.0"/>
           <path id="arrow"
             d="M 11.500037,31.436501 C 11.940474,20.09759 22.043105,11.32322 32.158766,21.979434 L 37.068811,17.246167 C 37.068811,17.246167 37.088388,32 37.088388,32 L 22.160133,31.978069 C 22.160133,31.978069 26.997745,27.140456 26.997745,27.140456 C 18.528582,18.264221 13.291696,25.230495 11.500037,31.436501 z"
             style="fill:#404040;"/>
          </a>
         </g>
        </svg>
</svg>
