<?xml version="1.0" encoding="UTF-8" standalone="no"?>
<!DOCTYPE svg PUBLIC "-//W3C//DTD SVG 1.1//EN"
 "http://www.w3.org/Graphics/SVG/1.1/DTD/svg11.dtd">
<!-- Generated by graphviz version 2.40.1 (20161225.0304)
 -->
<!-- Title: gko::batch::matrix::Identity&lt; ValueType &gt; Pages: 1 -->
<!--zoomable 283 -->
<svg id="main" version="1.1" xmlns="http://www.w3.org/2000/svg" xmlns:xlink="http://www.w3.org/1999/xlink" xml:space="preserve" onload="init(evt)">
<style type="text/css"><![CDATA[
.edge:hover path { stroke: red; }
.edge:hover polygon { stroke: red; fill: red; }
]]></style>
<script type="text/javascript"><![CDATA[
var edges = document.getElementsByTagName('g');
if (edges && edges.length) {
  for (var i=0;i<edges.length;i++) {
    if (edges[i].id.substr(0,4)=='edge') {
      edges[i].setAttribute('class','edge');
    }
  }
}
]]></script>
        <defs>
                <circle id="rim" cx="0" cy="0" r="7"/>
                <circle id="rim2" cx="0" cy="0" r="3.5"/>
                <g id="zoomPlus">
                        <use xlink:href="#rim" fill="#404040">
                                <set attributeName="fill" to="#808080" begin="zoomplus.mouseover" end="zoomplus.mouseout"/>
                        </use>
                        <path d="M-4,0h8M0,-4v8" fill="none" stroke="white" stroke-width="1.5" pointer-events="none"/>
                </g>
                <g id="zoomMin">
                        <use xlink:href="#rim" fill="#404040">
                                <set attributeName="fill" to="#808080" begin="zoomminus.mouseover" end="zoomminus.mouseout"/>
                        </use>
                        <path d="M-4,0h8" fill="none" stroke="white" stroke-width="1.5" pointer-events="none"/>
                </g>
                <g id="dirArrow">
                        <path fill="none" stroke="white" stroke-width="1.5" d="M0,-3.0v7 M-2.5,-0.5L0,-3.0L2.5,-0.5"/>
                </g>
               <g id="resetDef">
                       <use xlink:href="#rim2" fill="#404040">
                               <set attributeName="fill" to="#808080" begin="reset.mouseover" end="reset.mouseout"/>
                       </use>
               </g>
        </defs>

<script type="text/javascript">
var viewWidth = 2170;
var viewHeight = 283;
var sectionId = 'dynsection-1';
</script>
<script xlink:href="svgpan.js"/>
<svg id="graph" class="graph">
<g id="viewport">
<title>gko::batch::matrix::Identity&lt; ValueType &gt;</title>
<polygon fill="#ffffff" stroke="transparent" points="-4,4 -4,-278.5 2166,-278.5 2166,4 -4,4"/>
<!-- Node1 -->
<g id="node1" class="node">
<title>Node1</title>
<g id="a_node1"><a xlink:title="The batch Identity matrix, which represents a batch of Identity matrices.">
<polygon fill="#bfbfbf" stroke="#000000" points="2030,-137.5 2030,-167.5 2162,-167.5 2162,-137.5 2030,-137.5"/>
<text text-anchor="start" x="2038" y="-155.5" font-family="Helvetica,sans-Serif" font-size="10.00" fill="#000000">gko::batch::matrix</text>
<text text-anchor="middle" x="2096" y="-144.5" font-family="Helvetica,sans-Serif" font-size="10.00" fill="#000000">::Identity&lt; ValueType &gt;</text>
</a>
</g>
</g>
<!-- Node2 -->
<g id="node2" class="node">
<title>Node2</title>
<g id="a_node2"><a xlink:href="classgko_1_1batch_1_1EnableBatchLinOp.html" target="_top" xlink:title=" ">
<polygon fill="#ffffff" stroke="#000000" points="1831,-137.5 1831,-167.5 1993,-167.5 1993,-137.5 1831,-137.5"/>
<text text-anchor="start" x="1839" y="-155.5" font-family="Helvetica,sans-Serif" font-size="10.00" fill="#000000">gko::batch::EnableBatchLin</text>
<text text-anchor="middle" x="1912" y="-144.5" font-family="Helvetica,sans-Serif" font-size="10.00" fill="#000000">Op&lt; Identity&lt; ValueType &gt; &gt;</text>
</a>
</g>
</g>
<!-- Node2&#45;&gt;Node1 -->
<g id="edge1" class="edge">
<title>Node2&#45;&gt;Node1</title>
<path fill="none" stroke="#191970" d="M2003.3099,-152.5C2012.2475,-152.5 2021.1939,-152.5 2029.8114,-152.5"/>
<polygon fill="#191970" stroke="#191970" points="2003.2407,-149.0001 1993.2407,-152.5 2003.2406,-156.0001 2003.2407,-149.0001"/>
</g>
<!-- Node3 -->
<g id="node3" class="node">
<title>Node3</title>
<g id="a_node3"><a xlink:href="classgko_1_1EnablePolymorphicObject.html" target="_top" xlink:title=" ">
<polygon fill="#ffffff" stroke="#000000" points="1293,-187 1293,-228 1459,-228 1459,-187 1293,-187"/>
<text text-anchor="start" x="1301" y="-216" font-family="Helvetica,sans-Serif" font-size="10.00" fill="#000000">gko::EnablePolymorphicObject</text>
<text text-anchor="start" x="1301" y="-205" font-family="Helvetica,sans-Serif" font-size="10.00" fill="#000000">&lt; Identity&lt; ValueType &gt;,</text>
<text text-anchor="middle" x="1376" y="-194" font-family="Helvetica,sans-Serif" font-size="10.00" fill="#000000"> BatchLinOp &gt;</text>
</a>
</g>
</g>
<!-- Node3&#45;&gt;Node2 -->
<g id="edge2" class="edge">
<title>Node3&#45;&gt;Node2</title>
<path fill="none" stroke="#191970" d="M1469.1053,-200.039C1557.6683,-192.6407 1694.5835,-180.4201 1813,-166.5 1818.8615,-165.811 1824.9124,-165.058 1830.9988,-164.2703"/>
<polygon fill="#191970" stroke="#191970" points="1468.7604,-196.5555 1459.0851,-200.8727 1469.3409,-203.5314 1468.7604,-196.5555"/>
</g>
<!-- Node4 -->
<g id="node4" class="node">
<title>Node4</title>
<g id="a_node4"><a xlink:href="classgko_1_1EnableAbstractPolymorphicObject.html" target="_top" xlink:title=" ">
<polygon fill="#ffffff" stroke="#000000" points="542,-231 542,-272 717,-272 717,-231 542,-231"/>
<text text-anchor="start" x="550" y="-260" font-family="Helvetica,sans-Serif" font-size="10.00" fill="#000000">gko::EnableAbstractPolymorphic</text>
<text text-anchor="start" x="550" y="-249" font-family="Helvetica,sans-Serif" font-size="10.00" fill="#000000">Object&lt; Identity&lt; ValueType</text>
<text text-anchor="middle" x="629.5" y="-238" font-family="Helvetica,sans-Serif" font-size="10.00" fill="#000000"> &gt;, BatchLinOp &gt;</text>
</a>
</g>
</g>
<!-- Node4&#45;&gt;Node3 -->
<g id="edge3" class="edge">
<title>Node4&#45;&gt;Node3</title>
<path fill="none" stroke="#191970" d="M727.5237,-254.5624C852.0667,-257.1122 1073.3935,-257.1542 1261,-233.5 1271.7635,-232.1429 1282.9993,-230.2333 1294.0506,-228.0582"/>
<polygon fill="#191970" stroke="#191970" points="727.3253,-251.0574 717.2524,-254.3419 727.175,-258.0558 727.3253,-251.0574"/>
</g>
<!-- Node5 -->
<g id="node5" class="node">
<title>Node5</title>
<g id="a_node5"><a xlink:title=" ">
<polygon fill="#ffffff" stroke="#bfbfbf" points="201,-255 201,-274 273,-274 273,-255 201,-255"/>
<text text-anchor="middle" x="237" y="-262" font-family="Helvetica,sans-Serif" font-size="10.00" fill="#000000">BatchLinOp</text>
</a>
</g>
</g>
<!-- Node5&#45;&gt;Node4 -->
<g id="edge4" class="edge">
<title>Node5&#45;&gt;Node4</title>
<path fill="none" stroke="#191970" d="M283.3256,-262.9656C346.7932,-260.8635 462.0057,-257.0476 541.9954,-254.3982"/>
<polygon fill="#191970" stroke="#191970" points="283.1005,-259.4711 273.2219,-263.3003 283.3323,-266.4673 283.1005,-259.4711"/>
</g>
<!-- Node6 -->
<g id="node6" class="node">
<title>Node6</title>
<g id="a_node6"><a xlink:href="classgko_1_1EnableAbstractPolymorphicObject.html" target="_top" xlink:title="This mixin inherits from (a subclass of) PolymorphicObject and provides a base implementation of a ne...">
<polygon fill="#ffffff" stroke="#000000" points="138,-166 138,-207 336,-207 336,-166 138,-166"/>
<text text-anchor="start" x="146" y="-195" font-family="Helvetica,sans-Serif" font-size="10.00" fill="#000000">gko::EnableAbstractPolymorphic</text>
<text text-anchor="start" x="146" y="-184" font-family="Helvetica,sans-Serif" font-size="10.00" fill="#000000">Object&lt; AbstractObject, Polymorphic</text>
<text text-anchor="middle" x="237" y="-173" font-family="Helvetica,sans-Serif" font-size="10.00" fill="#000000">Base &gt;</text>
</a>
</g>
</g>
<!-- Node6&#45;&gt;Node4 -->
<g id="edge5" class="edge">
<title>Node6&#45;&gt;Node4</title>
<path fill="none" stroke="#ffa500" stroke-dasharray="5,2" d="M346.3132,-204.2845C348.9001,-204.6948 351.4654,-205.1005 354,-205.5 423.7274,-216.4909 441.4011,-217.7228 511,-229.5 521.0061,-231.1932 531.4741,-233.0345 541.8698,-234.9069"/>
<polygon fill="#ffa500" stroke="#ffa500" points="346.6727,-200.7978 336.2469,-202.6824 345.5724,-207.7108 346.6727,-200.7978"/>
<text text-anchor="start" x="376" y="-243.5" font-family="Helvetica,sans-Serif" font-size="10.00" fill="#000000"> &lt; Identity&lt; ValueType</text>
<text text-anchor="middle" x="432.5" y="-232.5" font-family="Helvetica,sans-Serif" font-size="10.00" fill="#000000"> &gt;, BatchLinOp &gt;</text>
</g>
<!-- Node9 -->
<g id="node9" class="node">
<title>Node9</title>
<g id="a_node9"><a xlink:href="classgko_1_1EnableAbstractPolymorphicObject.html" target="_top" xlink:title=" ">
<polygon fill="#ffffff" stroke="#000000" points="529,-162 529,-203 730,-203 730,-162 529,-162"/>
<text text-anchor="start" x="537" y="-191" font-family="Helvetica,sans-Serif" font-size="10.00" fill="#000000">gko::EnableAbstractPolymorphic</text>
<text text-anchor="start" x="537" y="-180" font-family="Helvetica,sans-Serif" font-size="10.00" fill="#000000">Object&lt; ConcreteObject, Polymorphic</text>
<text text-anchor="middle" x="629.5" y="-169" font-family="Helvetica,sans-Serif" font-size="10.00" fill="#000000">Base &gt;</text>
</a>
</g>
</g>
<!-- Node6&#45;&gt;Node9 -->
<g id="edge10" class="edge">
<title>Node6&#45;&gt;Node9</title>
<path fill="none" stroke="#ffa500" stroke-dasharray="5,2" d="M346.3168,-183.6213C348.9027,-183.5776 351.4667,-183.5371 354,-183.5 411.8683,-182.6532 476.5808,-182.3835 528.7395,-182.3345"/>
<polygon fill="#ffa500" stroke="#ffa500" points="346.1888,-180.1229 336.254,-183.804 346.316,-187.1218 346.1888,-180.1229"/>
<text text-anchor="start" x="354" y="-197.5" font-family="Helvetica,sans-Serif" font-size="10.00" fill="#000000"> &lt; ConcreteObject, Polymorphic</text>
<text text-anchor="middle" x="432.5" y="-186.5" font-family="Helvetica,sans-Serif" font-size="10.00" fill="#000000">Base &gt;</text>
</g>
<!-- Node16 -->
<g id="node16" class="node">
<title>Node16</title>
<g id="a_node16"><a xlink:href="classgko_1_1EnableAbstractPolymorphicObject.html" target="_top" xlink:title=" ">
<polygon fill="#ffffff" stroke="#000000" points="542,-47 542,-88 717,-88 717,-47 542,-47"/>
<text text-anchor="start" x="550" y="-76" font-family="Helvetica,sans-Serif" font-size="10.00" fill="#000000">gko::EnableAbstractPolymorphic</text>
<text text-anchor="start" x="550" y="-65" font-family="Helvetica,sans-Serif" font-size="10.00" fill="#000000">Object&lt; ConcreteBatchLinOp,</text>
<text text-anchor="middle" x="629.5" y="-54" font-family="Helvetica,sans-Serif" font-size="10.00" fill="#000000"> PolymorphicBase &gt;</text>
</a>
</g>
</g>
<!-- Node6&#45;&gt;Node16 -->
<g id="edge20" class="edge">
<title>Node6&#45;&gt;Node16</title>
<path fill="none" stroke="#ffa500" stroke-dasharray="5,2" d="M314.8596,-162.8942C386.9536,-141.0364 493.084,-108.8592 561.7546,-88.0394"/>
<polygon fill="#ffa500" stroke="#ffa500" points="313.4745,-159.6567 304.9202,-165.9076 315.5056,-166.3556 313.4745,-159.6567"/>
<text text-anchor="start" x="374" y="-161.5" font-family="Helvetica,sans-Serif" font-size="10.00" fill="#000000"> &lt; ConcreteBatchLinOp,</text>
<text text-anchor="middle" x="432.5" y="-150.5" font-family="Helvetica,sans-Serif" font-size="10.00" fill="#000000"> PolymorphicBase &gt;</text>
</g>
<!-- Node7 -->
<g id="node7" class="node">
<title>Node7</title>
<g id="a_node7"><a xlink:title=" ">
<polygon fill="#ffffff" stroke="#bfbfbf" points="0,-128 0,-147 101,-147 101,-128 0,-128"/>
<text text-anchor="middle" x="50.5" y="-135" font-family="Helvetica,sans-Serif" font-size="10.00" fill="#000000">PolymorphicBase</text>
</a>
</g>
</g>
<!-- Node7&#45;&gt;Node6 -->
<g id="edge6" class="edge">
<title>Node7&#45;&gt;Node6</title>
<path fill="none" stroke="#191970" d="M96.6373,-149.6219C115.3596,-154.5409 137.5184,-160.3628 158.6324,-165.9101"/>
<polygon fill="#191970" stroke="#191970" points="97.463,-146.2201 86.9018,-147.064 95.6842,-152.9903 97.463,-146.2201"/>
</g>
<!-- Node7&#45;&gt;Node9 -->
<g id="edge9" class="edge">
<title>Node7&#45;&gt;Node9</title>
<path fill="none" stroke="#191970" d="M111.1263,-141.1485C168.9392,-144.7191 258.4421,-150.4847 336,-156.5 400.1341,-161.4741 472.0795,-167.8351 528.6875,-173.0202"/>
<polygon fill="#191970" stroke="#191970" points="111.261,-137.6502 101.0649,-140.5295 110.8311,-144.637 111.261,-137.6502"/>
</g>
<!-- Node7&#45;&gt;Node16 -->
<g id="edge19" class="edge">
<title>Node7&#45;&gt;Node16</title>
<path fill="none" stroke="#191970" d="M111.3455,-130.1439C214.2887,-117.6983 423.1729,-92.4446 541.8798,-78.0931"/>
<polygon fill="#191970" stroke="#191970" points="110.6296,-126.7049 101.122,-131.3799 111.4698,-133.6543 110.6296,-126.7049"/>
</g>
<!-- Node8 -->
<g id="node8" class="node">
<title>Node8</title>
<g id="a_node8"><a xlink:href="classgko_1_1EnablePolymorphicObject.html" target="_top" xlink:title="This mixin inherits from (a subclass of) PolymorphicObject and provides a base implementation of a ne...">
<polygon fill="#ffffff" stroke="#000000" points="902,-192.5 902,-222.5 1107,-222.5 1107,-192.5 902,-192.5"/>
<text text-anchor="start" x="910" y="-210.5" font-family="Helvetica,sans-Serif" font-size="10.00" fill="#000000">gko::EnablePolymorphicObject</text>
<text text-anchor="middle" x="1004.5" y="-199.5" font-family="Helvetica,sans-Serif" font-size="10.00" fill="#000000">&lt; ConcreteObject, PolymorphicBase &gt;</text>
</a>
</g>
</g>
<!-- Node8&#45;&gt;Node3 -->
<g id="edge7" class="edge">
<title>Node8&#45;&gt;Node3</title>
<path fill="none" stroke="#ffa500" stroke-dasharray="5,2" d="M1117.5413,-207.5C1174.013,-207.5 1241.131,-207.5 1292.8161,-207.5"/>
<polygon fill="#ffa500" stroke="#ffa500" points="1117.4902,-204.0001 1107.4901,-207.5 1117.4901,-211.0001 1117.4902,-204.0001"/>
<text text-anchor="start" x="1136.5" y="-221.5" font-family="Helvetica,sans-Serif" font-size="10.00" fill="#000000"> &lt; Identity&lt; ValueType</text>
<text text-anchor="middle" x="1193" y="-210.5" font-family="Helvetica,sans-Serif" font-size="10.00" fill="#000000"> &gt;, BatchLinOp &gt;</text>
</g>
<!-- Node15 -->
<g id="node15" class="node">
<title>Node15</title>
<g id="a_node15"><a xlink:href="classgko_1_1EnablePolymorphicObject.html" target="_top" xlink:title=" ">
<polygon fill="#ffffff" stroke="#000000" points="1279,-76 1279,-117 1473,-117 1473,-76 1279,-76"/>
<text text-anchor="start" x="1287" y="-105" font-family="Helvetica,sans-Serif" font-size="10.00" fill="#000000">gko::EnablePolymorphicObject</text>
<text text-anchor="start" x="1287" y="-94" font-family="Helvetica,sans-Serif" font-size="10.00" fill="#000000">&lt; ConcreteBatchLinOp, Polymorphic</text>
<text text-anchor="middle" x="1376" y="-83" font-family="Helvetica,sans-Serif" font-size="10.00" fill="#000000">Base &gt;</text>
</a>
</g>
</g>
<!-- Node8&#45;&gt;Node15 -->
<g id="edge21" class="edge">
<title>Node8&#45;&gt;Node15</title>
<path fill="none" stroke="#ffa500" stroke-dasharray="5,2" d="M1082.1093,-190.0463C1090.5352,-187.9379 1098.9639,-185.7362 1107,-183.5 1127.215,-177.8748 1240.447,-140.9467 1313.4116,-117.0442"/>
<polygon fill="#ffa500" stroke="#ffa500" points="1081.1166,-186.6861 1072.2431,-192.475 1082.7899,-193.4832 1081.1166,-186.6861"/>
<text text-anchor="start" x="1134.5" y="-191.5" font-family="Helvetica,sans-Serif" font-size="10.00" fill="#000000"> &lt; ConcreteBatchLinOp,</text>
<text text-anchor="middle" x="1193" y="-180.5" font-family="Helvetica,sans-Serif" font-size="10.00" fill="#000000"> PolymorphicBase &gt;</text>
</g>
<!-- Node9&#45;&gt;Node8 -->
<g id="edge8" class="edge">
<title>Node9&#45;&gt;Node8</title>
<path fill="none" stroke="#191970" d="M740.5643,-189.9043C791.5899,-193.306 851.7277,-197.3152 901.7018,-200.6468"/>
<polygon fill="#191970" stroke="#191970" points="740.6971,-186.4055 730.4864,-189.2324 740.2314,-193.39 740.6971,-186.4055"/>
</g>
<!-- Node10 -->
<g id="node10" class="node">
<title>Node10</title>
<g id="a_node10"><a xlink:href="classgko_1_1EnablePolymorphicAssignment.html" target="_top" xlink:title=" ">
<polygon fill="#ffffff" stroke="#000000" points="1280,-137.5 1280,-167.5 1472,-167.5 1472,-137.5 1280,-137.5"/>
<text text-anchor="start" x="1288" y="-155.5" font-family="Helvetica,sans-Serif" font-size="10.00" fill="#000000">gko::EnablePolymorphicAssignment</text>
<text text-anchor="middle" x="1376" y="-144.5" font-family="Helvetica,sans-Serif" font-size="10.00" fill="#000000">&lt; Identity&lt; ValueType &gt; &gt;</text>
</a>
</g>
</g>
<!-- Node10&#45;&gt;Node2 -->
<g id="edge11" class="edge">
<title>Node10&#45;&gt;Node2</title>
<path fill="none" stroke="#191970" d="M1482.1995,-152.5C1584.6623,-152.5 1737.5553,-152.5 1830.6844,-152.5"/>
<polygon fill="#191970" stroke="#191970" points="1482.1354,-149.0001 1472.1354,-152.5 1482.1354,-156.0001 1482.1354,-149.0001"/>
</g>
<!-- Node11 -->
<g id="node11" class="node">
<title>Node11</title>
<g id="a_node11"><a xlink:href="classgko_1_1ConvertibleTo.html" target="_top" xlink:title=" ">
<polygon fill="#ffffff" stroke="#000000" points="930,-143.5 930,-173.5 1079,-173.5 1079,-143.5 930,-143.5"/>
<text text-anchor="start" x="938" y="-161.5" font-family="Helvetica,sans-Serif" font-size="10.00" fill="#000000">gko::ConvertibleTo</text>
<text text-anchor="middle" x="1004.5" y="-150.5" font-family="Helvetica,sans-Serif" font-size="10.00" fill="#000000">&lt; Identity&lt; ValueType &gt; &gt;</text>
</a>
</g>
</g>
<!-- Node11&#45;&gt;Node10 -->
<g id="edge12" class="edge">
<title>Node11&#45;&gt;Node10</title>
<path fill="none" stroke="#191970" d="M1089.275,-160.2891C1139.2618,-160.9799 1203.7421,-161.241 1261,-159.5 1267.0979,-159.3146 1273.3751,-159.074 1279.7024,-158.794"/>
<polygon fill="#191970" stroke="#191970" points="1089.2074,-156.7878 1079.1571,-160.1407 1089.1047,-163.787 1089.2074,-156.7878"/>
</g>
<!-- Node12 -->
<g id="node12" class="node">
<title>Node12</title>
<g id="a_node12"><a xlink:href="classgko_1_1ConvertibleTo.html" target="_top" xlink:title="ConvertibleTo interface is used to mark that the implementer can be converted to the object of Result...">
<polygon fill="#ffffff" stroke="#000000" points="576,-109.5 576,-139.5 683,-139.5 683,-109.5 576,-109.5"/>
<text text-anchor="start" x="584" y="-127.5" font-family="Helvetica,sans-Serif" font-size="10.00" fill="#000000">gko::ConvertibleTo</text>
<text text-anchor="middle" x="629.5" y="-116.5" font-family="Helvetica,sans-Serif" font-size="10.00" fill="#000000">&lt; ResultType &gt;</text>
</a>
</g>
</g>
<!-- Node12&#45;&gt;Node11 -->
<g id="edge13" class="edge">
<title>Node12&#45;&gt;Node11</title>
<path fill="none" stroke="#ffa500" stroke-dasharray="5,2" d="M693.4184,-130.2953C758.9164,-136.2338 860.6885,-145.4611 929.8462,-151.7314"/>
<polygon fill="#ffa500" stroke="#ffa500" points="693.5036,-126.7887 683.2284,-129.3714 692.8714,-133.7601 693.5036,-126.7887"/>
<text text-anchor="middle" x="816" y="-150.5" font-family="Helvetica,sans-Serif" font-size="10.00" fill="#000000"> &lt; Identity&lt; ValueType &gt; &gt;</text>
</g>
<!-- Node13 -->
<g id="node13" class="node">
<title>Node13</title>
<g id="a_node13"><a xlink:href="classgko_1_1EnablePolymorphicAssignment.html" target="_top" xlink:title="This mixin is used to enable a default PolymorphicObject::copy_from() implementation for objects that...">
<polygon fill="#ffffff" stroke="#000000" points="908.5,-94.5 908.5,-124.5 1100.5,-124.5 1100.5,-94.5 908.5,-94.5"/>
<text text-anchor="start" x="916.5" y="-112.5" font-family="Helvetica,sans-Serif" font-size="10.00" fill="#000000">gko::EnablePolymorphicAssignment</text>
<text text-anchor="middle" x="1004.5" y="-101.5" font-family="Helvetica,sans-Serif" font-size="10.00" fill="#000000">&lt; ConcreteType, ResultType &gt;</text>
</a>
</g>
</g>
<!-- Node12&#45;&gt;Node13 -->
<g id="edge15" class="edge">
<title>Node12&#45;&gt;Node13</title>
<path fill="none" stroke="#191970" d="M693.5304,-121.9388C752.5493,-119.578 840.9516,-116.0419 908.4323,-113.3427"/>
<polygon fill="#191970" stroke="#191970" points="693.0804,-118.4539 683.2284,-122.3509 693.3603,-125.4483 693.0804,-118.4539"/>
</g>
<!-- Node18 -->
<g id="node18" class="node">
<title>Node18</title>
<g id="a_node18"><a xlink:href="classgko_1_1ConvertibleTo.html" target="_top" xlink:title=" ">
<polygon fill="#ffffff" stroke="#000000" points="935.5,-.5 935.5,-30.5 1073.5,-30.5 1073.5,-.5 935.5,-.5"/>
<text text-anchor="start" x="943.5" y="-18.5" font-family="Helvetica,sans-Serif" font-size="10.00" fill="#000000">gko::ConvertibleTo</text>
<text text-anchor="middle" x="1004.5" y="-7.5" font-family="Helvetica,sans-Serif" font-size="10.00" fill="#000000">&lt; ConcreteBatchLinOp &gt;</text>
</a>
</g>
</g>
<!-- Node12&#45;&gt;Node18 -->
<g id="edge24" class="edge">
<title>Node12&#45;&gt;Node18</title>
<path fill="none" stroke="#ffa500" stroke-dasharray="5,2" d="M692.8119,-107.7784C705.1621,-104.4353 717.9996,-100.9037 730,-97.5 809.1913,-75.0389 900.7158,-47.348 955.5297,-30.5768"/>
<polygon fill="#ffa500" stroke="#ffa500" points="691.7816,-104.4311 683.037,-110.4129 693.6033,-111.1899 691.7816,-104.4311"/>
<text text-anchor="middle" x="816" y="-94.5" font-family="Helvetica,sans-Serif" font-size="10.00" fill="#000000"> &lt; ConcreteBatchLinOp &gt;</text>
</g>
<!-- Node13&#45;&gt;Node10 -->
<g id="edge14" class="edge">
<title>Node13&#45;&gt;Node10</title>
<path fill="none" stroke="#ffa500" stroke-dasharray="5,2" d="M1068.1889,-92.4012C1122.304,-81.4072 1200.5904,-74.067 1261,-103.5 1272.6691,-109.1855 1268.1731,-119.3396 1279,-126.5 1285.544,-130.8279 1292.7845,-134.4376 1300.2746,-137.448"/>
<polygon fill="#ffa500" stroke="#ffa500" points="1067.4285,-88.9846 1058.3754,-94.4885 1068.8848,-95.8314 1067.4285,-88.9846"/>
<text text-anchor="middle" x="1193" y="-106.5" font-family="Helvetica,sans-Serif" font-size="10.00" fill="#000000"> &lt; Identity&lt; ValueType &gt; &gt;</text>
</g>
<!-- Node17 -->
<g id="node17" class="node">
<title>Node17</title>
<g id="a_node17"><a xlink:href="classgko_1_1EnablePolymorphicAssignment.html" target="_top" xlink:title=" ">
<polygon fill="#ffffff" stroke="#000000" points="1280,-25.5 1280,-55.5 1472,-55.5 1472,-25.5 1280,-25.5"/>
<text text-anchor="start" x="1288" y="-43.5" font-family="Helvetica,sans-Serif" font-size="10.00" fill="#000000">gko::EnablePolymorphicAssignment</text>
<text text-anchor="middle" x="1376" y="-32.5" font-family="Helvetica,sans-Serif" font-size="10.00" fill="#000000">&lt; ConcreteBatchLinOp &gt;</text>
</a>
</g>
</g>
<!-- Node13&#45;&gt;Node17 -->
<g id="edge25" class="edge">
<title>Node13&#45;&gt;Node17</title>
<path fill="none" stroke="#ffa500" stroke-dasharray="5,2" d="M1051.3337,-90.9209C1073.3689,-82.8674 1100.2006,-74.0333 1125,-68.5 1175.4974,-57.2328 1232.7708,-50.4036 1279.8447,-46.315"/>
<polygon fill="#ffa500" stroke="#ffa500" points="1050.0424,-87.6668 1041.8884,-94.4316 1052.4813,-94.2282 1050.0424,-87.6668"/>
<text text-anchor="middle" x="1193" y="-71.5" font-family="Helvetica,sans-Serif" font-size="10.00" fill="#000000"> &lt; ConcreteBatchLinOp &gt;</text>
</g>
<!-- Node14 -->
<g id="node14" class="node">
<title>Node14</title>
<g id="a_node14"><a xlink:href="classgko_1_1batch_1_1EnableBatchLinOp.html" target="_top" xlink:title="The EnableBatchLinOp mixin can be used to provide sensible default implementations of the majority of...">
<polygon fill="#ffffff" stroke="#000000" points="1510,-76 1510,-117 1659,-117 1659,-76 1510,-76"/>
<text text-anchor="start" x="1518" y="-105" font-family="Helvetica,sans-Serif" font-size="10.00" fill="#000000">gko::batch::EnableBatchLin</text>
<text text-anchor="start" x="1518" y="-94" font-family="Helvetica,sans-Serif" font-size="10.00" fill="#000000">Op&lt; ConcreteBatchLinOp,</text>
<text text-anchor="middle" x="1584.5" y="-83" font-family="Helvetica,sans-Serif" font-size="10.00" fill="#000000"> PolymorphicBase &gt;</text>
</a>
</g>
</g>
<!-- Node14&#45;&gt;Node2 -->
<g id="edge16" class="edge">
<title>Node14&#45;&gt;Node2</title>
<path fill="none" stroke="#ffa500" stroke-dasharray="5,2" d="M1669.3831,-105.7097C1712.5725,-110.9787 1765.787,-118.3662 1813,-127.5 1827.3586,-130.2778 1842.7443,-133.8616 1857.0038,-137.4434"/>
<polygon fill="#ffa500" stroke="#ffa500" points="1669.544,-102.2039 1659.1974,-104.4836 1668.7073,-109.1538 1669.544,-102.2039"/>
<text text-anchor="middle" x="1745" y="-130.5" font-family="Helvetica,sans-Serif" font-size="10.00" fill="#000000"> &lt; Identity&lt; ValueType &gt; &gt;</text>
</g>
<!-- Node15&#45;&gt;Node14 -->
<g id="edge17" class="edge">
<title>Node15&#45;&gt;Node14</title>
<path fill="none" stroke="#191970" d="M1483.3477,-96.5C1492.31,-96.5 1501.2417,-96.5 1509.8777,-96.5"/>
<polygon fill="#191970" stroke="#191970" points="1483.2301,-93.0001 1473.2301,-96.5 1483.23,-100.0001 1483.2301,-93.0001"/>
</g>
<!-- Node16&#45;&gt;Node15 -->
<g id="edge18" class="edge">
<title>Node16&#45;&gt;Node15</title>
<path fill="none" stroke="#191970" d="M727.2509,-65.9556C851.5097,-64.8091 1072.5407,-65.5023 1261,-80.5 1266.8273,-80.9637 1272.8101,-81.5277 1278.8384,-82.1633"/>
<polygon fill="#191970" stroke="#191970" points="726.9686,-62.4581 717.0035,-66.0564 727.0375,-69.4578 726.9686,-62.4581"/>
</g>
<!-- Node17&#45;&gt;Node14 -->
<g id="edge22" class="edge">
<title>Node17&#45;&gt;Node14</title>
<path fill="none" stroke="#191970" d="M1442.0138,-58.1854C1452.384,-60.9662 1462.9833,-63.81 1473,-66.5 1484.9065,-69.6975 1497.5272,-73.09 1509.8319,-76.3994"/>
<polygon fill="#191970" stroke="#191970" points="1442.7331,-54.7547 1432.1678,-55.5456 1440.9203,-61.5159 1442.7331,-54.7547"/>
</g>
<!-- Node18&#45;&gt;Node17 -->
<g id="edge23" class="edge">
<title>Node18&#45;&gt;Node17</title>
<path fill="none" stroke="#191970" d="M1083.7627,-14.4903C1134.5348,-14.5504 1201.7727,-15.9423 1261,-21.5 1271.6781,-22.502 1282.864,-23.9035 1293.8896,-25.4961"/>
<polygon fill="#191970" stroke="#191970" points="1083.5096,-10.9904 1073.5115,-14.496 1083.5135,-17.9904 1083.5096,-10.9904"/>
</g>
</g>
</svg>
        <g id="navigator" transform="translate(0 0)" fill="#404254">
                <rect fill="#f2f5e9" fill-opacity="0.5" stroke="#606060" stroke-width=".5" x="0" y="0" width="60" height="60"/>
                <use id="zoomplus" xlink:href="#zoomPlus" x="17" y="9" onmousedown="handleZoom(evt,'in')"/>
                <use id="zoomminus" xlink:href="#zoomMin" x="42" y="9" onmousedown="handleZoom(evt,'out')"/>
                <use id="reset" xlink:href="#resetDef" x="30" y="36" onmousedown="handleReset()"/>
                <g id="arrowUp" xlink:href="#dirArrow" transform="translate(30 24)" onmousedown="handlePan(0,-1)">
                  <use xlink:href="#rim" fill="#404040">
                        <set attributeName="fill" to="#808080" begin="arrowUp.mouseover" end="arrowUp.mouseout"/>
                  </use>
                  <path fill="none" stroke="white" stroke-width="1.5" d="M0,-3.0v7 M-2.5,-0.5L0,-3.0L2.5,-0.5"/>
                </g>
                <g id="arrowRight" xlink:href="#dirArrow" transform="rotate(90) translate(36 -43)" onmousedown="handlePan(1,0)">
                  <use xlink:href="#rim" fill="#404040">
                        <set attributeName="fill" to="#808080" begin="arrowRight.mouseover" end="arrowRight.mouseout"/>
                  </use>
                  <path fill="none" stroke="white" stroke-width="1.5" d="M0,-3.0v7 M-2.5,-0.5L0,-3.0L2.5,-0.5"/>
                </g>
                <g id="arrowDown" xlink:href="#dirArrow" transform="rotate(180) translate(-30 -48)" onmousedown="handlePan(0,1)">
                  <use xlink:href="#rim" fill="#404040">
                        <set attributeName="fill" to="#808080" begin="arrowDown.mouseover" end="arrowDown.mouseout"/>
                  </use>
                  <path fill="none" stroke="white" stroke-width="1.5" d="M0,-3.0v7 M-2.5,-0.5L0,-3.0L2.5,-0.5"/>
                </g>
                <g id="arrowLeft" xlink:href="#dirArrow" transform="rotate(270) translate(-36 17)" onmousedown="handlePan(-1,0)">
                  <use xlink:href="#rim" fill="#404040">
                        <set attributeName="fill" to="#808080" begin="arrowLeft.mouseover" end="arrowLeft.mouseout"/>
                  </use>
                  <path fill="none" stroke="white" stroke-width="1.5" d="M0,-3.0v7 M-2.5,-0.5L0,-3.0L2.5,-0.5"/>
                </g>
        </g>
        <svg viewBox="0 0 15 15" width="100%" height="30px" preserveAspectRatio="xMaxYMin meet">
         <g id="arrow_out" transform="scale(0.3 0.3)">
          <a xlink:href="classgko_1_1batch_1_1matrix_1_1Identity__coll__graph_org.svg" target="_base">
           <rect id="button" ry="5" rx="5" y="6" x="6" height="38" width="38"
                fill="#f2f5e9" fill-opacity="0.5" stroke="#606060" stroke-width="1.0"/>
           <path id="arrow"
             d="M 11.500037,31.436501 C 11.940474,20.09759 22.043105,11.32322 32.158766,21.979434 L 37.068811,17.246167 C 37.068811,17.246167 37.088388,32 37.088388,32 L 22.160133,31.978069 C 22.160133,31.978069 26.997745,27.140456 26.997745,27.140456 C 18.528582,18.264221 13.291696,25.230495 11.500037,31.436501 z"
             style="fill:#404040;"/>
          </a>
         </g>
        </svg>
</svg>
