<?xml version="1.0" encoding="UTF-8" standalone="no"?>
<!DOCTYPE svg PUBLIC "-//W3C//DTD SVG 1.1//EN"
 "http://www.w3.org/Graphics/SVG/1.1/DTD/svg11.dtd">
<!-- Generated by graphviz version 2.40.1 (20161225.0304)
 -->
<!-- Title: gko::batch::EnableBatchLinOp&lt; ConcreteBatchLinOp, PolymorphicBase &gt; Pages: 1 -->
<!--zoomable 395 -->
<svg id="main" version="1.1" xmlns="http://www.w3.org/2000/svg" xmlns:xlink="http://www.w3.org/1999/xlink" xml:space="preserve" onload="init(evt)">
<style type="text/css"><![CDATA[
.edge:hover path { stroke: red; }
.edge:hover polygon { stroke: red; fill: red; }
]]></style>
<script type="text/javascript"><![CDATA[
var edges = document.getElementsByTagName('g');
if (edges && edges.length) {
  for (var i=0;i<edges.length;i++) {
    if (edges[i].id.substr(0,4)=='edge') {
      edges[i].setAttribute('class','edge');
    }
  }
}
]]></script>
        <defs>
                <circle id="rim" cx="0" cy="0" r="7"/>
                <circle id="rim2" cx="0" cy="0" r="3.5"/>
                <g id="zoomPlus">
                        <use xlink:href="#rim" fill="#404040">
                                <set attributeName="fill" to="#808080" begin="zoomplus.mouseover" end="zoomplus.mouseout"/>
                        </use>
                        <path d="M-4,0h8M0,-4v8" fill="none" stroke="white" stroke-width="1.5" pointer-events="none"/>
                </g>
                <g id="zoomMin">
                        <use xlink:href="#rim" fill="#404040">
                                <set attributeName="fill" to="#808080" begin="zoomminus.mouseover" end="zoomminus.mouseout"/>
                        </use>
                        <path d="M-4,0h8" fill="none" stroke="white" stroke-width="1.5" pointer-events="none"/>
                </g>
                <g id="dirArrow">
                        <path fill="none" stroke="white" stroke-width="1.5" d="M0,-3.0v7 M-2.5,-0.5L0,-3.0L2.5,-0.5"/>
                </g>
               <g id="resetDef">
                       <use xlink:href="#rim2" fill="#404040">
                               <set attributeName="fill" to="#808080" begin="reset.mouseover" end="reset.mouseout"/>
                       </use>
               </g>
        </defs>

<script type="text/javascript">
var viewWidth = 2967;
var viewHeight = 395;
var sectionId = 'dynsection-0';
</script>
<script xlink:href="svgpan.js"/>
<svg id="graph" class="graph">
<g id="viewport">
<title>gko::batch::EnableBatchLinOp&lt; ConcreteBatchLinOp, PolymorphicBase &gt;</title>
<polygon fill="#ffffff" stroke="transparent" points="-4,4 -4,-391 2963,-391 2963,4 -4,4"/>
<!-- Node1 -->
<g id="node1" class="node">
<title>Node1</title>
<g id="a_node1"><a xlink:title="The EnableBatchLinOp mixin can be used to provide sensible default implementations of the majority of...">
<polygon fill="#bfbfbf" stroke="#000000" points="1488,-172.5 1488,-213.5 1637,-213.5 1637,-172.5 1488,-172.5"/>
<text text-anchor="start" x="1496" y="-201.5" font-family="Helvetica,sans-Serif" font-size="10.00" fill="#000000">gko::batch::EnableBatchLin</text>
<text text-anchor="start" x="1496" y="-190.5" font-family="Helvetica,sans-Serif" font-size="10.00" fill="#000000">Op&lt; ConcreteBatchLinOp,</text>
<text text-anchor="middle" x="1562.5" y="-179.5" font-family="Helvetica,sans-Serif" font-size="10.00" fill="#000000"> PolymorphicBase &gt;</text>
</a>
</g>
</g>
<!-- Node12 -->
<g id="node12" class="node">
<title>Node12</title>
<g id="a_node12"><a xlink:href="classgko_1_1batch_1_1EnableBatchLinOp.html" target="_top" xlink:title=" ">
<polygon fill="#ffffff" stroke="#000000" points="1862.5,-355 1862.5,-385 2017.5,-385 2017.5,-355 1862.5,-355"/>
<text text-anchor="start" x="1870.5" y="-373" font-family="Helvetica,sans-Serif" font-size="10.00" fill="#000000">gko::batch::EnableBatchLin</text>
<text text-anchor="middle" x="1940" y="-362" font-family="Helvetica,sans-Serif" font-size="10.00" fill="#000000">Op&lt; Dense&lt; ValueType &gt; &gt;</text>
</a>
</g>
</g>
<!-- Node1&#45;&gt;Node12 -->
<g id="edge15" class="edge">
<title>Node1&#45;&gt;Node12</title>
<path fill="none" stroke="#ffa500" stroke-dasharray="5,2" d="M1573.4751,-223.0733C1587.1667,-255.9464 1613.9037,-307.3482 1655,-333 1717.0073,-371.7042 1801.3794,-378.2272 1862.2124,-376.7264"/>
<polygon fill="#ffa500" stroke="#ffa500" points="1576.6131,-221.4947 1569.6433,-213.5151 1570.1157,-224.0994 1576.6131,-221.4947"/>
<text text-anchor="middle" x="1739.5" y="-379" font-family="Helvetica,sans-Serif" font-size="10.00" fill="#000000"> &lt; Dense&lt; ValueType &gt; &gt;</text>
</g>
<!-- Node14 -->
<g id="node14" class="node">
<title>Node14</title>
<g id="a_node14"><a xlink:href="classgko_1_1batch_1_1EnableBatchLinOp.html" target="_top" xlink:title=" ">
<polygon fill="#ffffff" stroke="#000000" points="1859,-304 1859,-334 2021,-334 2021,-304 1859,-304"/>
<text text-anchor="start" x="1867" y="-322" font-family="Helvetica,sans-Serif" font-size="10.00" fill="#000000">gko::batch::EnableBatchLin</text>
<text text-anchor="middle" x="1940" y="-311" font-family="Helvetica,sans-Serif" font-size="10.00" fill="#000000">Op&lt; Identity&lt; ValueType &gt; &gt;</text>
</a>
</g>
</g>
<!-- Node1&#45;&gt;Node14 -->
<g id="edge17" class="edge">
<title>Node1&#45;&gt;Node14</title>
<path fill="none" stroke="#ffa500" stroke-dasharray="5,2" d="M1579.8745,-222.4445C1595.9971,-246.7762 1622.3895,-279.8517 1655,-296 1689.5868,-313.127 1787.31,-317.9335 1858.7076,-319.0678"/>
<polygon fill="#ffa500" stroke="#ffa500" points="1582.753,-220.4496 1574.4068,-213.9234 1576.8616,-224.2299 1582.753,-220.4496"/>
<text text-anchor="middle" x="1739.5" y="-321" font-family="Helvetica,sans-Serif" font-size="10.00" fill="#000000"> &lt; Identity&lt; ValueType &gt; &gt;</text>
</g>
<!-- Node16 -->
<g id="node16" class="node">
<title>Node16</title>
<g id="a_node16"><a xlink:href="classgko_1_1batch_1_1EnableBatchLinOp.html" target="_top" xlink:title=" ">
<polygon fill="#ffffff" stroke="#000000" points="1849,-197.5 1849,-238.5 2031,-238.5 2031,-197.5 1849,-197.5"/>
<text text-anchor="start" x="1857" y="-226.5" font-family="Helvetica,sans-Serif" font-size="10.00" fill="#000000">gko::batch::EnableBatchLin</text>
<text text-anchor="start" x="1857" y="-215.5" font-family="Helvetica,sans-Serif" font-size="10.00" fill="#000000">Op&lt; ConcreteSolver, Polymorphic</text>
<text text-anchor="middle" x="1940" y="-204.5" font-family="Helvetica,sans-Serif" font-size="10.00" fill="#000000">Base &gt;</text>
</a>
</g>
</g>
<!-- Node1&#45;&gt;Node16 -->
<g id="edge19" class="edge">
<title>Node1&#45;&gt;Node16</title>
<path fill="none" stroke="#ffa500" stroke-dasharray="5,2" d="M1647.2779,-198.6144C1707.2482,-202.586 1787.5719,-207.9054 1848.9073,-211.9674"/>
<polygon fill="#ffa500" stroke="#ffa500" points="1647.2913,-195.1077 1637.0819,-197.9392 1646.8287,-202.0924 1647.2913,-195.1077"/>
<text text-anchor="start" x="1661.5" y="-223" font-family="Helvetica,sans-Serif" font-size="10.00" fill="#000000"> &lt; ConcreteSolver, Polymorphic</text>
<text text-anchor="middle" x="1739.5" y="-212" font-family="Helvetica,sans-Serif" font-size="10.00" fill="#000000">Base &gt;</text>
</g>
<!-- Node22 -->
<g id="node22" class="node">
<title>Node22</title>
<g id="a_node22"><a xlink:href="classgko_1_1batch_1_1EnableBatchLinOp.html" target="_top" xlink:title=" ">
<polygon fill="#ffffff" stroke="#000000" points="2081,-145.5 2081,-186.5 2230,-186.5 2230,-145.5 2081,-145.5"/>
<text text-anchor="start" x="2089" y="-174.5" font-family="Helvetica,sans-Serif" font-size="10.00" fill="#000000">gko::batch::EnableBatchLin</text>
<text text-anchor="start" x="2089" y="-163.5" font-family="Helvetica,sans-Serif" font-size="10.00" fill="#000000">Op&lt; Bicgstab&lt; ValueType</text>
<text text-anchor="middle" x="2155.5" y="-152.5" font-family="Helvetica,sans-Serif" font-size="10.00" fill="#000000"> &gt;, BatchLinOp &gt;</text>
</a>
</g>
</g>
<!-- Node1&#45;&gt;Node22 -->
<g id="edge25" class="edge">
<title>Node1&#45;&gt;Node22</title>
<path fill="none" stroke="#ffa500" stroke-dasharray="5,2" d="M1646.918,-174.0313C1649.6379,-173.6494 1652.3371,-173.3034 1655,-173 1805.2352,-155.8805 1982.463,-158.799 2080.5854,-162.4251"/>
<polygon fill="#ffa500" stroke="#ffa500" points="1646.3564,-170.5764 1637.0063,-175.559 1647.4228,-177.4947 1646.3564,-170.5764"/>
<text text-anchor="start" x="1680.5" y="-187" font-family="Helvetica,sans-Serif" font-size="10.00" fill="#000000"> &lt; Bicgstab&lt; ValueType</text>
<text text-anchor="middle" x="1739.5" y="-176" font-family="Helvetica,sans-Serif" font-size="10.00" fill="#000000"> &gt;, BatchLinOp &gt;</text>
</g>
<!-- Node23 -->
<g id="node23" class="node">
<title>Node23</title>
<g id="a_node23"><a xlink:href="classgko_1_1batch_1_1EnableBatchLinOp.html" target="_top" xlink:title=" ">
<polygon fill="#ffffff" stroke="#000000" points="2056,-260 2056,-290 2255,-290 2255,-260 2056,-260"/>
<text text-anchor="start" x="2064" y="-278" font-family="Helvetica,sans-Serif" font-size="10.00" fill="#000000">gko::batch::EnableBatchLin</text>
<text text-anchor="middle" x="2155.5" y="-267" font-family="Helvetica,sans-Serif" font-size="10.00" fill="#000000">Op&lt; Cg&lt; ValueType &gt;, BatchLinOp &gt;</text>
</a>
</g>
</g>
<!-- Node1&#45;&gt;Node23 -->
<g id="edge27" class="edge">
<title>Node1&#45;&gt;Node23</title>
<path fill="none" stroke="#ffa500" stroke-dasharray="5,2" d="M1609.2437,-218.0137C1623.5537,-224.6233 1639.592,-231.0167 1655,-235 1790.6646,-270.0726 1953.2985,-276.8708 2055.5401,-277.0743"/>
<polygon fill="#ffa500" stroke="#ffa500" points="1610.6466,-214.8052 1600.1136,-213.6623 1607.6349,-221.1242 1610.6466,-214.8052"/>
<text text-anchor="start" x="1688" y="-278" font-family="Helvetica,sans-Serif" font-size="10.00" fill="#000000"> &lt; Cg&lt; ValueType &gt;,</text>
<text text-anchor="middle" x="1739.5" y="-267" font-family="Helvetica,sans-Serif" font-size="10.00" fill="#000000"> BatchLinOp &gt;</text>
</g>
<!-- Node24 -->
<g id="node24" class="node">
<title>Node24</title>
<g id="a_node24"><a xlink:href="classgko_1_1batch_1_1EnableBatchLinOp.html" target="_top" xlink:title=" ">
<polygon fill="#ffffff" stroke="#000000" points="1842,-110 1842,-140 2038,-140 2038,-110 1842,-110"/>
<text text-anchor="start" x="1850" y="-128" font-family="Helvetica,sans-Serif" font-size="10.00" fill="#000000">gko::batch::EnableBatchLin</text>
<text text-anchor="middle" x="1940" y="-117" font-family="Helvetica,sans-Serif" font-size="10.00" fill="#000000">Op&lt; Csr&lt; ValueType, IndexType &gt; &gt;</text>
</a>
</g>
</g>
<!-- Node1&#45;&gt;Node24 -->
<g id="edge29" class="edge">
<title>Node1&#45;&gt;Node24</title>
<path fill="none" stroke="#ffa500" stroke-dasharray="5,2" d="M1596.1674,-166.4179C1612.8718,-154.8121 1633.9467,-142.407 1655,-136 1715.2796,-117.6556 1786.0503,-114.8302 1841.9886,-116.6283"/>
<polygon fill="#ffa500" stroke="#ffa500" points="1593.9416,-163.707 1587.8536,-172.3781 1598.0202,-169.3961 1593.9416,-163.707"/>
<text text-anchor="middle" x="1739.5" y="-139" font-family="Helvetica,sans-Serif" font-size="10.00" fill="#000000"> &lt; Csr&lt; ValueType, IndexType &gt; &gt;</text>
</g>
<!-- Node26 -->
<g id="node26" class="node">
<title>Node26</title>
<g id="a_node26"><a xlink:href="classgko_1_1batch_1_1EnableBatchLinOp.html" target="_top" xlink:title=" ">
<polygon fill="#ffffff" stroke="#000000" points="1844,-61 1844,-91 2036,-91 2036,-61 1844,-61"/>
<text text-anchor="start" x="1852" y="-79" font-family="Helvetica,sans-Serif" font-size="10.00" fill="#000000">gko::batch::EnableBatchLin</text>
<text text-anchor="middle" x="1940" y="-68" font-family="Helvetica,sans-Serif" font-size="10.00" fill="#000000">Op&lt; Ell&lt; ValueType, IndexType &gt; &gt;</text>
</a>
</g>
</g>
<!-- Node1&#45;&gt;Node26 -->
<g id="edge31" class="edge">
<title>Node1&#45;&gt;Node26</title>
<path fill="none" stroke="#ffa500" stroke-dasharray="5,2" d="M1582.9516,-164.1641C1599.7029,-143.0257 1625.4095,-115.7179 1655,-102 1713.7119,-74.7816 1786.4568,-68.5295 1843.7564,-68.9548"/>
<polygon fill="#ffa500" stroke="#ffa500" points="1580.0864,-162.1486 1576.766,-172.2097 1585.6358,-166.4152 1580.0864,-162.1486"/>
<text text-anchor="middle" x="1739.5" y="-105" font-family="Helvetica,sans-Serif" font-size="10.00" fill="#000000"> &lt; Ell&lt; ValueType, IndexType &gt; &gt;</text>
</g>
<!-- Node28 -->
<g id="node28" class="node">
<title>Node28</title>
<g id="a_node28"><a xlink:href="classgko_1_1batch_1_1EnableBatchLinOp.html" target="_top" xlink:title=" ">
<polygon fill="#ffffff" stroke="#000000" points="1865.5,-.5 1865.5,-41.5 2014.5,-41.5 2014.5,-.5 1865.5,-.5"/>
<text text-anchor="start" x="1873.5" y="-29.5" font-family="Helvetica,sans-Serif" font-size="10.00" fill="#000000">gko::batch::EnableBatchLin</text>
<text text-anchor="start" x="1873.5" y="-18.5" font-family="Helvetica,sans-Serif" font-size="10.00" fill="#000000">Op&lt; Jacobi&lt; ValueType,</text>
<text text-anchor="middle" x="1940" y="-7.5" font-family="Helvetica,sans-Serif" font-size="10.00" fill="#000000"> IndexType &gt; &gt;</text>
</a>
</g>
</g>
<!-- Node1&#45;&gt;Node28 -->
<g id="edge33" class="edge">
<title>Node1&#45;&gt;Node28</title>
<path fill="none" stroke="#ffa500" stroke-dasharray="5,2" d="M1572.0038,-162.5376C1584.7431,-127.3451 1611.0001,-70.848 1655,-44 1718.1379,-5.4743 1804.326,-4.0035 1865.3439,-9.5043"/>
<polygon fill="#ffa500" stroke="#ffa500" points="1568.5923,-161.6929 1568.6223,-172.2877 1575.2059,-163.9866 1568.5923,-161.6929"/>
<text text-anchor="start" x="1685.5" y="-58" font-family="Helvetica,sans-Serif" font-size="10.00" fill="#000000"> &lt; Jacobi&lt; ValueType,</text>
<text text-anchor="middle" x="1739.5" y="-47" font-family="Helvetica,sans-Serif" font-size="10.00" fill="#000000"> IndexType &gt; &gt;</text>
</g>
<!-- Node2 -->
<g id="node2" class="node">
<title>Node2</title>
<g id="a_node2"><a xlink:href="classgko_1_1EnablePolymorphicObject.html" target="_top" xlink:title=" ">
<polygon fill="#ffffff" stroke="#000000" points="1257,-200.5 1257,-241.5 1451,-241.5 1451,-200.5 1257,-200.5"/>
<text text-anchor="start" x="1265" y="-229.5" font-family="Helvetica,sans-Serif" font-size="10.00" fill="#000000">gko::EnablePolymorphicObject</text>
<text text-anchor="start" x="1265" y="-218.5" font-family="Helvetica,sans-Serif" font-size="10.00" fill="#000000">&lt; ConcreteBatchLinOp, Polymorphic</text>
<text text-anchor="middle" x="1354" y="-207.5" font-family="Helvetica,sans-Serif" font-size="10.00" fill="#000000">Base &gt;</text>
</a>
</g>
</g>
<!-- Node2&#45;&gt;Node1 -->
<g id="edge1" class="edge">
<title>Node2&#45;&gt;Node1</title>
<path fill="none" stroke="#191970" d="M1461.3477,-206.584C1470.31,-205.3804 1479.2417,-204.181 1487.8777,-203.0212"/>
<polygon fill="#191970" stroke="#191970" points="1460.6752,-203.1428 1451.2301,-207.9427 1461.607,-210.0805 1460.6752,-203.1428"/>
</g>
<!-- Node3 -->
<g id="node3" class="node">
<title>Node3</title>
<g id="a_node3"><a xlink:href="classgko_1_1EnableAbstractPolymorphicObject.html" target="_top" xlink:title=" ">
<polygon fill="#ffffff" stroke="#000000" points="542,-249.5 542,-290.5 717,-290.5 717,-249.5 542,-249.5"/>
<text text-anchor="start" x="550" y="-278.5" font-family="Helvetica,sans-Serif" font-size="10.00" fill="#000000">gko::EnableAbstractPolymorphic</text>
<text text-anchor="start" x="550" y="-267.5" font-family="Helvetica,sans-Serif" font-size="10.00" fill="#000000">Object&lt; ConcreteBatchLinOp,</text>
<text text-anchor="middle" x="629.5" y="-256.5" font-family="Helvetica,sans-Serif" font-size="10.00" fill="#000000"> PolymorphicBase &gt;</text>
</a>
</g>
</g>
<!-- Node3&#45;&gt;Node2 -->
<g id="edge2" class="edge">
<title>Node3&#45;&gt;Node2</title>
<path fill="none" stroke="#191970" d="M727.5322,-271.3899C848.3263,-271.8965 1059.605,-268.8533 1239,-246 1248.2219,-244.8252 1257.7984,-243.2783 1267.3123,-241.5286"/>
<polygon fill="#191970" stroke="#191970" points="727.2217,-267.8883 717.2039,-271.3369 727.1858,-274.8882 727.2217,-267.8883"/>
</g>
<!-- Node4 -->
<g id="node4" class="node">
<title>Node4</title>
<g id="a_node4"><a xlink:title=" ">
<polygon fill="#ffffff" stroke="#bfbfbf" points="0,-231.5 0,-250.5 101,-250.5 101,-231.5 0,-231.5"/>
<text text-anchor="middle" x="50.5" y="-238.5" font-family="Helvetica,sans-Serif" font-size="10.00" fill="#000000">PolymorphicBase</text>
</a>
</g>
</g>
<!-- Node4&#45;&gt;Node3 -->
<g id="edge3" class="edge">
<title>Node4&#45;&gt;Node3</title>
<path fill="none" stroke="#191970" d="M82.6542,-254.3188C98.9518,-260.4756 119.2219,-267.2421 138,-271 300.6692,-303.5533 345.4341,-295.4372 511,-285 521.0376,-284.3672 531.5251,-283.4358 541.9318,-282.3417"/>
<polygon fill="#191970" stroke="#191970" points="83.6578,-250.9539 73.069,-250.5965 81.1237,-257.4791 83.6578,-250.9539"/>
</g>
<!-- Node5 -->
<g id="node5" class="node">
<title>Node5</title>
<g id="a_node5"><a xlink:href="classgko_1_1EnableAbstractPolymorphicObject.html" target="_top" xlink:title="This mixin inherits from (a subclass of) PolymorphicObject and provides a base implementation of a ne...">
<polygon fill="#ffffff" stroke="#000000" points="138,-220.5 138,-261.5 336,-261.5 336,-220.5 138,-220.5"/>
<text text-anchor="start" x="146" y="-249.5" font-family="Helvetica,sans-Serif" font-size="10.00" fill="#000000">gko::EnableAbstractPolymorphic</text>
<text text-anchor="start" x="146" y="-238.5" font-family="Helvetica,sans-Serif" font-size="10.00" fill="#000000">Object&lt; AbstractObject, Polymorphic</text>
<text text-anchor="middle" x="237" y="-227.5" font-family="Helvetica,sans-Serif" font-size="10.00" fill="#000000">Base &gt;</text>
</a>
</g>
</g>
<!-- Node4&#45;&gt;Node5 -->
<g id="edge5" class="edge">
<title>Node4&#45;&gt;Node5</title>
<path fill="none" stroke="#191970" d="M111.5248,-241C119.9555,-241 128.7869,-241 137.6923,-241"/>
<polygon fill="#191970" stroke="#191970" points="111.462,-237.5001 101.4619,-241 111.4619,-244.5001 111.462,-237.5001"/>
</g>
<!-- Node7 -->
<g id="node7" class="node">
<title>Node7</title>
<g id="a_node7"><a xlink:href="classgko_1_1EnableAbstractPolymorphicObject.html" target="_top" xlink:title=" ">
<polygon fill="#ffffff" stroke="#000000" points="529,-189.5 529,-230.5 730,-230.5 730,-189.5 529,-189.5"/>
<text text-anchor="start" x="537" y="-218.5" font-family="Helvetica,sans-Serif" font-size="10.00" fill="#000000">gko::EnableAbstractPolymorphic</text>
<text text-anchor="start" x="537" y="-207.5" font-family="Helvetica,sans-Serif" font-size="10.00" fill="#000000">Object&lt; ConcreteObject, Polymorphic</text>
<text text-anchor="middle" x="629.5" y="-196.5" font-family="Helvetica,sans-Serif" font-size="10.00" fill="#000000">Base &gt;</text>
</a>
</g>
</g>
<!-- Node4&#45;&gt;Node7 -->
<g id="edge8" class="edge">
<title>Node4&#45;&gt;Node7</title>
<path fill="none" stroke="#191970" d="M81.5592,-227.6253C98.0027,-221.2485 118.7317,-214.3031 138,-211 301.3966,-182.9892 345.2213,-208.3005 511,-209 516.8634,-209.0247 522.89,-209.0564 528.9708,-209.093"/>
<polygon fill="#191970" stroke="#191970" points="79.9071,-224.5167 71.9259,-231.4846 82.5103,-231.0146 79.9071,-224.5167"/>
</g>
<!-- Node5&#45;&gt;Node3 -->
<g id="edge4" class="edge">
<title>Node5&#45;&gt;Node3</title>
<path fill="none" stroke="#ffa500" stroke-dasharray="5,2" d="M346.2134,-249.0693C407.9382,-253.6298 484.0683,-259.2547 541.8581,-263.5245"/>
<polygon fill="#ffa500" stroke="#ffa500" points="346.2751,-245.5644 336.0443,-248.3179 345.7592,-252.5453 346.2751,-245.5644"/>
<text text-anchor="start" x="374" y="-274" font-family="Helvetica,sans-Serif" font-size="10.00" fill="#000000"> &lt; ConcreteBatchLinOp,</text>
<text text-anchor="middle" x="432.5" y="-263" font-family="Helvetica,sans-Serif" font-size="10.00" fill="#000000"> PolymorphicBase &gt;</text>
</g>
<!-- Node5&#45;&gt;Node7 -->
<g id="edge9" class="edge">
<title>Node5&#45;&gt;Node7</title>
<path fill="none" stroke="#ffa500" stroke-dasharray="5,2" d="M346.2792,-224.7937C348.8763,-224.5145 351.4529,-224.2492 354,-224 411.7926,-218.3455 476.6426,-214.9067 528.9003,-212.8532"/>
<polygon fill="#ffa500" stroke="#ffa500" points="345.7227,-221.3342 336.1789,-225.9348 346.5087,-228.2899 345.7227,-221.3342"/>
<text text-anchor="start" x="354" y="-238" font-family="Helvetica,sans-Serif" font-size="10.00" fill="#000000"> &lt; ConcreteObject, Polymorphic</text>
<text text-anchor="middle" x="432.5" y="-227" font-family="Helvetica,sans-Serif" font-size="10.00" fill="#000000">Base &gt;</text>
</g>
<!-- Node6 -->
<g id="node6" class="node">
<title>Node6</title>
<g id="a_node6"><a xlink:href="classgko_1_1EnablePolymorphicObject.html" target="_top" xlink:title="This mixin inherits from (a subclass of) PolymorphicObject and provides a base implementation of a ne...">
<polygon fill="#ffffff" stroke="#000000" points="891,-205 891,-235 1096,-235 1096,-205 891,-205"/>
<text text-anchor="start" x="899" y="-223" font-family="Helvetica,sans-Serif" font-size="10.00" fill="#000000">gko::EnablePolymorphicObject</text>
<text text-anchor="middle" x="993.5" y="-212" font-family="Helvetica,sans-Serif" font-size="10.00" fill="#000000">&lt; ConcreteObject, PolymorphicBase &gt;</text>
</a>
</g>
</g>
<!-- Node6&#45;&gt;Node2 -->
<g id="edge6" class="edge">
<title>Node6&#45;&gt;Node2</title>
<path fill="none" stroke="#ffa500" stroke-dasharray="5,2" d="M1106.5026,-220.3135C1154.7728,-220.4474 1210.554,-220.6021 1256.9272,-220.7307"/>
<polygon fill="#ffa500" stroke="#ffa500" points="1106.3321,-216.8131 1096.3224,-220.2852 1106.3126,-223.813 1106.3321,-216.8131"/>
<text text-anchor="start" x="1118" y="-234" font-family="Helvetica,sans-Serif" font-size="10.00" fill="#000000"> &lt; ConcreteBatchLinOp,</text>
<text text-anchor="middle" x="1176.5" y="-223" font-family="Helvetica,sans-Serif" font-size="10.00" fill="#000000"> PolymorphicBase &gt;</text>
</g>
<!-- Node7&#45;&gt;Node6 -->
<g id="edge7" class="edge">
<title>Node7&#45;&gt;Node6</title>
<path fill="none" stroke="#191970" d="M740.4955,-213.0493C788.3344,-214.3636 843.9354,-215.8911 890.8106,-217.1789"/>
<polygon fill="#191970" stroke="#191970" points="740.5033,-209.5483 730.4109,-212.7723 740.311,-216.5457 740.5033,-209.5483"/>
</g>
<!-- Node8 -->
<g id="node8" class="node">
<title>Node8</title>
<g id="a_node8"><a xlink:href="classgko_1_1EnablePolymorphicAssignment.html" target="_top" xlink:title=" ">
<polygon fill="#ffffff" stroke="#000000" points="1258,-151 1258,-181 1450,-181 1450,-151 1258,-151"/>
<text text-anchor="start" x="1266" y="-169" font-family="Helvetica,sans-Serif" font-size="10.00" fill="#000000">gko::EnablePolymorphicAssignment</text>
<text text-anchor="middle" x="1354" y="-158" font-family="Helvetica,sans-Serif" font-size="10.00" fill="#000000">&lt; ConcreteBatchLinOp &gt;</text>
</a>
</g>
</g>
<!-- Node8&#45;&gt;Node1 -->
<g id="edge10" class="edge">
<title>Node8&#45;&gt;Node1</title>
<path fill="none" stroke="#191970" d="M1460.1668,-179.7482C1469.5315,-180.9609 1478.8756,-182.1709 1487.8966,-183.3391"/>
<polygon fill="#191970" stroke="#191970" points="1460.378,-176.2464 1450.0113,-178.4331 1459.479,-183.1885 1460.378,-176.2464"/>
</g>
<!-- Node9 -->
<g id="node9" class="node">
<title>Node9</title>
<g id="a_node9"><a xlink:href="classgko_1_1ConvertibleTo.html" target="_top" xlink:title=" ">
<polygon fill="#ffffff" stroke="#000000" points="924.5,-155 924.5,-185 1062.5,-185 1062.5,-155 924.5,-155"/>
<text text-anchor="start" x="932.5" y="-173" font-family="Helvetica,sans-Serif" font-size="10.00" fill="#000000">gko::ConvertibleTo</text>
<text text-anchor="middle" x="993.5" y="-162" font-family="Helvetica,sans-Serif" font-size="10.00" fill="#000000">&lt; ConcreteBatchLinOp &gt;</text>
</a>
</g>
</g>
<!-- Node9&#45;&gt;Node8 -->
<g id="edge11" class="edge">
<title>Node9&#45;&gt;Node8</title>
<path fill="none" stroke="#191970" d="M1072.8893,-169.1191C1127.4182,-168.5141 1200.1081,-167.7075 1257.9096,-167.0662"/>
<polygon fill="#191970" stroke="#191970" points="1072.542,-165.6227 1062.5815,-169.2335 1072.6197,-172.6222 1072.542,-165.6227"/>
</g>
<!-- Node10 -->
<g id="node10" class="node">
<title>Node10</title>
<g id="a_node10"><a xlink:href="classgko_1_1ConvertibleTo.html" target="_top" xlink:title="ConvertibleTo interface is used to mark that the implementer can be converted to the object of Result...">
<polygon fill="#ffffff" stroke="#000000" points="576,-131 576,-161 683,-161 683,-131 576,-131"/>
<text text-anchor="start" x="584" y="-149" font-family="Helvetica,sans-Serif" font-size="10.00" fill="#000000">gko::ConvertibleTo</text>
<text text-anchor="middle" x="629.5" y="-138" font-family="Helvetica,sans-Serif" font-size="10.00" fill="#000000">&lt; ResultType &gt;</text>
</a>
</g>
</g>
<!-- Node10&#45;&gt;Node9 -->
<g id="edge12" class="edge">
<title>Node10&#45;&gt;Node9</title>
<path fill="none" stroke="#ffa500" stroke-dasharray="5,2" d="M693.2781,-150.2051C757.9571,-154.4697 857.75,-161.0495 924.3084,-165.4379"/>
<polygon fill="#ffa500" stroke="#ffa500" points="693.4181,-146.7069 683.2095,-149.5413 692.9575,-153.6917 693.4181,-146.7069"/>
<text text-anchor="middle" x="810.5" y="-165" font-family="Helvetica,sans-Serif" font-size="10.00" fill="#000000"> &lt; ConcreteBatchLinOp &gt;</text>
</g>
<!-- Node11 -->
<g id="node11" class="node">
<title>Node11</title>
<g id="a_node11"><a xlink:href="classgko_1_1EnablePolymorphicAssignment.html" target="_top" xlink:title="This mixin is used to enable a default PolymorphicObject::copy_from() implementation for objects that...">
<polygon fill="#ffffff" stroke="#000000" points="897.5,-106 897.5,-136 1089.5,-136 1089.5,-106 897.5,-106"/>
<text text-anchor="start" x="905.5" y="-124" font-family="Helvetica,sans-Serif" font-size="10.00" fill="#000000">gko::EnablePolymorphicAssignment</text>
<text text-anchor="middle" x="993.5" y="-113" font-family="Helvetica,sans-Serif" font-size="10.00" fill="#000000">&lt; ConcreteType, ResultType &gt;</text>
</a>
</g>
</g>
<!-- Node10&#45;&gt;Node11 -->
<g id="edge14" class="edge">
<title>Node10&#45;&gt;Node11</title>
<path fill="none" stroke="#191970" d="M693.4312,-141.6091C749.8928,-137.7313 833.0261,-132.0216 897.4802,-127.5948"/>
<polygon fill="#191970" stroke="#191970" points="692.9461,-138.1341 683.2095,-142.3112 693.4258,-145.1176 692.9461,-138.1341"/>
</g>
<!-- Node11&#45;&gt;Node8 -->
<g id="edge13" class="edge">
<title>Node11&#45;&gt;Node8</title>
<path fill="none" stroke="#ffa500" stroke-dasharray="5,2" d="M1099.8402,-134.2741C1149.8872,-140.5213 1209.1284,-147.9162 1257.8213,-153.9943"/>
<polygon fill="#ffa500" stroke="#ffa500" points="1099.9904,-130.7658 1089.6338,-133.0001 1099.1233,-137.7118 1099.9904,-130.7658"/>
<text text-anchor="middle" x="1176.5" y="-155" font-family="Helvetica,sans-Serif" font-size="10.00" fill="#000000"> &lt; ConcreteBatchLinOp &gt;</text>
</g>
<!-- Node13 -->
<g id="node13" class="node">
<title>Node13</title>
<g id="a_node13"><a xlink:href="classgko_1_1batch_1_1matrix_1_1Dense.html" target="_top" xlink:title="Dense is a batch matrix format which explicitly stores all values of the matrix in each of the batche...">
<polygon fill="#ffffff" stroke="#000000" points="2300,-356 2300,-386 2425,-386 2425,-356 2300,-356"/>
<text text-anchor="start" x="2308" y="-374" font-family="Helvetica,sans-Serif" font-size="10.00" fill="#000000">gko::batch::matrix</text>
<text text-anchor="middle" x="2362.5" y="-363" font-family="Helvetica,sans-Serif" font-size="10.00" fill="#000000">::Dense&lt; ValueType &gt;</text>
</a>
</g>
</g>
<!-- Node12&#45;&gt;Node13 -->
<g id="edge16" class="edge">
<title>Node12&#45;&gt;Node13</title>
<path fill="none" stroke="#191970" d="M2028.1927,-370.2087C2109.3885,-370.4009 2227.8222,-370.6812 2299.7602,-370.8515"/>
<polygon fill="#191970" stroke="#191970" points="2027.9937,-366.7084 2017.9854,-370.1846 2027.977,-373.7083 2027.9937,-366.7084"/>
</g>
<!-- Node15 -->
<g id="node15" class="node">
<title>Node15</title>
<g id="a_node15"><a xlink:href="classgko_1_1batch_1_1matrix_1_1Identity.html" target="_top" xlink:title="The batch Identity matrix, which represents a batch of Identity matrices.">
<polygon fill="#ffffff" stroke="#000000" points="2296.5,-307 2296.5,-337 2428.5,-337 2428.5,-307 2296.5,-307"/>
<text text-anchor="start" x="2304.5" y="-325" font-family="Helvetica,sans-Serif" font-size="10.00" fill="#000000">gko::batch::matrix</text>
<text text-anchor="middle" x="2362.5" y="-314" font-family="Helvetica,sans-Serif" font-size="10.00" fill="#000000">::Identity&lt; ValueType &gt;</text>
</a>
</g>
</g>
<!-- Node14&#45;&gt;Node15 -->
<g id="edge18" class="edge">
<title>Node14&#45;&gt;Node15</title>
<path fill="none" stroke="#191970" d="M2031.5009,-319.6497C2111.2388,-320.2159 2224.9654,-321.0234 2296.2086,-321.5293"/>
<polygon fill="#191970" stroke="#191970" points="2031.4869,-316.1496 2021.4622,-319.5784 2031.4371,-323.1494 2031.4869,-316.1496"/>
</g>
<!-- Node17 -->
<g id="node17" class="node">
<title>Node17</title>
<g id="a_node17"><a xlink:href="classgko_1_1batch_1_1solver_1_1EnableBatchSolver.html" target="_top" xlink:title="This mixin provides apply and common iterative solver functionality to all the batched solvers.">
<polygon fill="#ffffff" stroke="#000000" points="2282,-192 2282,-244 2443,-244 2443,-192 2282,-192"/>
<text text-anchor="start" x="2290" y="-232" font-family="Helvetica,sans-Serif" font-size="10.00" fill="#000000">gko::batch::solver</text>
<text text-anchor="start" x="2290" y="-221" font-family="Helvetica,sans-Serif" font-size="10.00" fill="#000000">::EnableBatchSolver</text>
<text text-anchor="start" x="2290" y="-210" font-family="Helvetica,sans-Serif" font-size="10.00" fill="#000000">&lt; ConcreteSolver, ValueType,</text>
<text text-anchor="middle" x="2362.5" y="-199" font-family="Helvetica,sans-Serif" font-size="10.00" fill="#000000"> PolymorphicBase &gt;</text>
</a>
</g>
</g>
<!-- Node16&#45;&gt;Node17 -->
<g id="edge20" class="edge">
<title>Node16&#45;&gt;Node17</title>
<path fill="none" stroke="#191970" d="M2041.3843,-218C2115.074,-218 2213.4772,-218 2281.8471,-218"/>
<polygon fill="#191970" stroke="#191970" points="2041.1561,-214.5001 2031.156,-218 2041.156,-221.5001 2041.1561,-214.5001"/>
</g>
<!-- Node18 -->
<g id="node18" class="node">
<title>Node18</title>
<g id="a_node18"><a xlink:href="classgko_1_1batch_1_1solver_1_1EnableBatchSolver.html" target="_top" xlink:title=" ">
<polygon fill="#ffffff" stroke="#000000" points="2606,-233.5 2606,-274.5 2785,-274.5 2785,-233.5 2606,-233.5"/>
<text text-anchor="start" x="2614" y="-262.5" font-family="Helvetica,sans-Serif" font-size="10.00" fill="#000000">gko::batch::solver</text>
<text text-anchor="start" x="2614" y="-251.5" font-family="Helvetica,sans-Serif" font-size="10.00" fill="#000000">::EnableBatchSolver</text>
<text text-anchor="middle" x="2695.5" y="-240.5" font-family="Helvetica,sans-Serif" font-size="10.00" fill="#000000">&lt; Cg&lt; ValueType &gt;, ValueType &gt;</text>
</a>
</g>
</g>
<!-- Node17&#45;&gt;Node18 -->
<g id="edge21" class="edge">
<title>Node17&#45;&gt;Node18</title>
<path fill="none" stroke="#ffa500" stroke-dasharray="5,2" d="M2453.1433,-227.5398C2494.3067,-231.8997 2543.617,-237.161 2588,-242 2593.7872,-242.631 2599.7492,-243.2851 2605.7588,-243.9475"/>
<polygon fill="#ffa500" stroke="#ffa500" points="2453.4475,-224.0526 2443.1347,-226.4805 2452.7107,-231.0137 2453.4475,-224.0526"/>
<text text-anchor="start" x="2477.5" y="-256" font-family="Helvetica,sans-Serif" font-size="10.00" fill="#000000"> &lt; Cg&lt; ValueType &gt;,</text>
<text text-anchor="middle" x="2529" y="-245" font-family="Helvetica,sans-Serif" font-size="10.00" fill="#000000"> ValueType &gt;</text>
</g>
<!-- Node20 -->
<g id="node20" class="node">
<title>Node20</title>
<g id="a_node20"><a xlink:href="classgko_1_1batch_1_1solver_1_1EnableBatchSolver.html" target="_top" xlink:title=" ">
<polygon fill="#ffffff" stroke="#000000" points="2630,-156 2630,-208 2761,-208 2761,-156 2630,-156"/>
<text text-anchor="start" x="2638" y="-196" font-family="Helvetica,sans-Serif" font-size="10.00" fill="#000000">gko::batch::solver</text>
<text text-anchor="start" x="2638" y="-185" font-family="Helvetica,sans-Serif" font-size="10.00" fill="#000000">::EnableBatchSolver</text>
<text text-anchor="start" x="2638" y="-174" font-family="Helvetica,sans-Serif" font-size="10.00" fill="#000000">&lt; Bicgstab&lt; ValueType</text>
<text text-anchor="middle" x="2695.5" y="-163" font-family="Helvetica,sans-Serif" font-size="10.00" fill="#000000"> &gt;, ValueType &gt;</text>
</a>
</g>
</g>
<!-- Node17&#45;&gt;Node20 -->
<g id="edge23" class="edge">
<title>Node17&#45;&gt;Node20</title>
<path fill="none" stroke="#ffa500" stroke-dasharray="5,2" d="M2453.3336,-205.0272C2458.9699,-204.3147 2464.5601,-203.6325 2470,-203 2523.7015,-196.7562 2584.7695,-191.1614 2629.7987,-187.3197"/>
<polygon fill="#ffa500" stroke="#ffa500" points="2452.6316,-201.5886 2443.161,-206.3381 2453.5263,-208.5312 2452.6316,-201.5886"/>
<text text-anchor="start" x="2470" y="-217" font-family="Helvetica,sans-Serif" font-size="10.00" fill="#000000"> &lt; Bicgstab&lt; ValueType</text>
<text text-anchor="middle" x="2529" y="-206" font-family="Helvetica,sans-Serif" font-size="10.00" fill="#000000"> &gt;, ValueType &gt;</text>
</g>
<!-- Node19 -->
<g id="node19" class="node">
<title>Node19</title>
<g id="a_node19"><a xlink:href="classgko_1_1batch_1_1solver_1_1Cg.html" target="_top" xlink:title="Cg or the Conjugate Gradient is a Krylov subspace solver.">
<polygon fill="#ffffff" stroke="#000000" points="2837,-239 2837,-269 2944,-269 2944,-239 2837,-239"/>
<text text-anchor="start" x="2845" y="-257" font-family="Helvetica,sans-Serif" font-size="10.00" fill="#000000">gko::batch::solver</text>
<text text-anchor="middle" x="2890.5" y="-246" font-family="Helvetica,sans-Serif" font-size="10.00" fill="#000000">::Cg&lt; ValueType &gt;</text>
</a>
</g>
</g>
<!-- Node18&#45;&gt;Node19 -->
<g id="edge22" class="edge">
<title>Node18&#45;&gt;Node19</title>
<path fill="none" stroke="#191970" d="M2795.4166,-254C2809.7157,-254 2823.9455,-254 2836.8748,-254"/>
<polygon fill="#191970" stroke="#191970" points="2795.01,-250.5001 2785.0099,-254 2795.0099,-257.5001 2795.01,-250.5001"/>
</g>
<!-- Node21 -->
<g id="node21" class="node">
<title>Node21</title>
<g id="a_node21"><a xlink:href="classgko_1_1batch_1_1solver_1_1Bicgstab.html" target="_top" xlink:title="BiCGSTAB or the Bi&#45;Conjugate Gradient&#45;Stabilized is a Krylov subspace solver.">
<polygon fill="#ffffff" stroke="#000000" points="2822,-167 2822,-197 2959,-197 2959,-167 2822,-167"/>
<text text-anchor="start" x="2830" y="-185" font-family="Helvetica,sans-Serif" font-size="10.00" fill="#000000">gko::batch::solver</text>
<text text-anchor="middle" x="2890.5" y="-174" font-family="Helvetica,sans-Serif" font-size="10.00" fill="#000000">::Bicgstab&lt; ValueType &gt;</text>
</a>
</g>
</g>
<!-- Node20&#45;&gt;Node21 -->
<g id="edge24" class="edge">
<title>Node20&#45;&gt;Node21</title>
<path fill="none" stroke="#191970" d="M2771.4299,-182C2787.9963,-182 2805.4373,-182 2821.7074,-182"/>
<polygon fill="#191970" stroke="#191970" points="2771.2463,-178.5001 2761.2463,-182 2771.2462,-185.5001 2771.2463,-178.5001"/>
</g>
<!-- Node22&#45;&gt;Node20 -->
<g id="edge26" class="edge">
<title>Node22&#45;&gt;Node20</title>
<path fill="none" stroke="#191970" d="M2240.2074,-168.5099C2348.0134,-171.7041 2531.9542,-177.1542 2629.7816,-180.0528"/>
<polygon fill="#191970" stroke="#191970" points="2240.117,-165.0057 2230.0177,-168.2079 2239.9097,-172.0027 2240.117,-165.0057"/>
</g>
<!-- Node23&#45;&gt;Node18 -->
<g id="edge28" class="edge">
<title>Node23&#45;&gt;Node18</title>
<path fill="none" stroke="#191970" d="M2265.4214,-274.2445C2352.8881,-273.1512 2478.3711,-270.4858 2588,-264 2593.8004,-263.6568 2599.7724,-263.2502 2605.7893,-262.8004"/>
<polygon fill="#191970" stroke="#191970" points="2265.1713,-270.7471 2255.2141,-274.3671 2265.2555,-277.7466 2265.1713,-270.7471"/>
</g>
<!-- Node25 -->
<g id="node25" class="node">
<title>Node25</title>
<g id="a_node25"><a xlink:href="classgko_1_1batch_1_1matrix_1_1Csr.html" target="_top" xlink:title="Csr is a general sparse matrix format that stores the column indices for each nonzero entry and a cum...">
<polygon fill="#ffffff" stroke="#000000" points="2279.5,-104 2279.5,-134 2445.5,-134 2445.5,-104 2279.5,-104"/>
<text text-anchor="start" x="2287.5" y="-122" font-family="Helvetica,sans-Serif" font-size="10.00" fill="#000000">gko::batch::matrix</text>
<text text-anchor="middle" x="2362.5" y="-111" font-family="Helvetica,sans-Serif" font-size="10.00" fill="#000000">::Csr&lt; ValueType, IndexType &gt;</text>
</a>
</g>
</g>
<!-- Node24&#45;&gt;Node25 -->
<g id="edge30" class="edge">
<title>Node24&#45;&gt;Node25</title>
<path fill="none" stroke="#191970" d="M2048.265,-123.4625C2120.212,-122.4408 2213.2582,-121.1194 2279.3841,-120.1803"/>
<polygon fill="#191970" stroke="#191970" points="2048.2072,-119.9629 2038.258,-123.6046 2048.3067,-126.9622 2048.2072,-119.9629"/>
</g>
<!-- Node27 -->
<g id="node27" class="node">
<title>Node27</title>
<g id="a_node27"><a xlink:href="classgko_1_1batch_1_1matrix_1_1Ell.html" target="_top" xlink:title="Ell is a sparse matrix format that stores the same number of nonzeros in each row,...">
<polygon fill="#ffffff" stroke="#000000" points="2281.5,-55 2281.5,-85 2443.5,-85 2443.5,-55 2281.5,-55"/>
<text text-anchor="start" x="2289.5" y="-73" font-family="Helvetica,sans-Serif" font-size="10.00" fill="#000000">gko::batch::matrix</text>
<text text-anchor="middle" x="2362.5" y="-62" font-family="Helvetica,sans-Serif" font-size="10.00" fill="#000000">::Ell&lt; ValueType, IndexType &gt;</text>
</a>
</g>
</g>
<!-- Node26&#45;&gt;Node27 -->
<g id="edge32" class="edge">
<title>Node26&#45;&gt;Node27</title>
<path fill="none" stroke="#191970" d="M2046.2713,-74.4908C2119.1896,-73.4553 2214.4826,-72.102 2281.3269,-71.1528"/>
<polygon fill="#191970" stroke="#191970" points="2046.0853,-70.993 2036.136,-74.6348 2046.1847,-77.9923 2046.0853,-70.993"/>
</g>
<!-- Node29 -->
<g id="node29" class="node">
<title>Node29</title>
<g id="a_node29"><a xlink:href="classgko_1_1batch_1_1preconditioner_1_1Jacobi.html" target="_top" xlink:title="A block&#45;Jacobi preconditioner is a block&#45;diagonal linear operator, obtained by inverting the diagonal...">
<polygon fill="#ffffff" stroke="#000000" points="2273,-6 2273,-36 2452,-36 2452,-6 2273,-6"/>
<text text-anchor="start" x="2281" y="-24" font-family="Helvetica,sans-Serif" font-size="10.00" fill="#000000">gko::batch::preconditioner</text>
<text text-anchor="middle" x="2362.5" y="-13" font-family="Helvetica,sans-Serif" font-size="10.00" fill="#000000">::Jacobi&lt; ValueType, IndexType &gt;</text>
</a>
</g>
</g>
<!-- Node28&#45;&gt;Node29 -->
<g id="edge34" class="edge">
<title>Node28&#45;&gt;Node29</title>
<path fill="none" stroke="#191970" d="M2024.9444,-21C2096.8818,-21 2199.6977,-21 2272.9218,-21"/>
<polygon fill="#191970" stroke="#191970" points="2024.562,-17.5001 2014.562,-21 2024.5619,-24.5001 2024.562,-17.5001"/>
</g>
</g>
</svg>
        <g id="navigator" transform="translate(0 0)" fill="#404254">
                <rect fill="#f2f5e9" fill-opacity="0.5" stroke="#606060" stroke-width=".5" x="0" y="0" width="60" height="60"/>
                <use id="zoomplus" xlink:href="#zoomPlus" x="17" y="9" onmousedown="handleZoom(evt,'in')"/>
                <use id="zoomminus" xlink:href="#zoomMin" x="42" y="9" onmousedown="handleZoom(evt,'out')"/>
                <use id="reset" xlink:href="#resetDef" x="30" y="36" onmousedown="handleReset()"/>
                <g id="arrowUp" xlink:href="#dirArrow" transform="translate(30 24)" onmousedown="handlePan(0,-1)">
                  <use xlink:href="#rim" fill="#404040">
                        <set attributeName="fill" to="#808080" begin="arrowUp.mouseover" end="arrowUp.mouseout"/>
                  </use>
                  <path fill="none" stroke="white" stroke-width="1.5" d="M0,-3.0v7 M-2.5,-0.5L0,-3.0L2.5,-0.5"/>
                </g>
                <g id="arrowRight" xlink:href="#dirArrow" transform="rotate(90) translate(36 -43)" onmousedown="handlePan(1,0)">
                  <use xlink:href="#rim" fill="#404040">
                        <set attributeName="fill" to="#808080" begin="arrowRight.mouseover" end="arrowRight.mouseout"/>
                  </use>
                  <path fill="none" stroke="white" stroke-width="1.5" d="M0,-3.0v7 M-2.5,-0.5L0,-3.0L2.5,-0.5"/>
                </g>
                <g id="arrowDown" xlink:href="#dirArrow" transform="rotate(180) translate(-30 -48)" onmousedown="handlePan(0,1)">
                  <use xlink:href="#rim" fill="#404040">
                        <set attributeName="fill" to="#808080" begin="arrowDown.mouseover" end="arrowDown.mouseout"/>
                  </use>
                  <path fill="none" stroke="white" stroke-width="1.5" d="M0,-3.0v7 M-2.5,-0.5L0,-3.0L2.5,-0.5"/>
                </g>
                <g id="arrowLeft" xlink:href="#dirArrow" transform="rotate(270) translate(-36 17)" onmousedown="handlePan(-1,0)">
                  <use xlink:href="#rim" fill="#404040">
                        <set attributeName="fill" to="#808080" begin="arrowLeft.mouseover" end="arrowLeft.mouseout"/>
                  </use>
                  <path fill="none" stroke="white" stroke-width="1.5" d="M0,-3.0v7 M-2.5,-0.5L0,-3.0L2.5,-0.5"/>
                </g>
        </g>
        <svg viewBox="0 0 15 15" width="100%" height="30px" preserveAspectRatio="xMaxYMin meet">
         <g id="arrow_out" transform="scale(0.3 0.3)">
          <a xlink:href="classgko_1_1batch_1_1EnableBatchLinOp__inherit__graph_org.svg" target="_base">
           <rect id="button" ry="5" rx="5" y="6" x="6" height="38" width="38"
                fill="#f2f5e9" fill-opacity="0.5" stroke="#606060" stroke-width="1.0"/>
           <path id="arrow"
             d="M 11.500037,31.436501 C 11.940474,20.09759 22.043105,11.32322 32.158766,21.979434 L 37.068811,17.246167 C 37.068811,17.246167 37.088388,32 37.088388,32 L 22.160133,31.978069 C 22.160133,31.978069 26.997745,27.140456 26.997745,27.140456 C 18.528582,18.264221 13.291696,25.230495 11.500037,31.436501 z"
             style="fill:#404040;"/>
          </a>
         </g>
        </svg>
</svg>
