<?xml version="1.0" encoding="UTF-8" standalone="no"?>
<!DOCTYPE svg PUBLIC "-//W3C//DTD SVG 1.1//EN"
 "http://www.w3.org/Graphics/SVG/1.1/DTD/svg11.dtd">
<!-- Generated by graphviz version 2.40.1 (20161225.0304)
 -->
<!-- Title: gko::solver::EnableApplyWithInitialGuess&lt; DerivedType &gt; Pages: 1 -->
<svg width="188pt" height="106pt"
 viewBox="0.00 0.00 188.00 106.00" xmlns="http://www.w3.org/2000/svg" xmlns:xlink="http://www.w3.org/1999/xlink">
<g id="graph0" class="graph" transform="scale(1 1) rotate(0) translate(4 102)">
<title>gko::solver::EnableApplyWithInitialGuess&lt; DerivedType &gt;</title>
<polygon fill="#ffffff" stroke="transparent" points="-4,4 -4,-102 184,-102 184,4 -4,4"/>
<!-- Node1 -->
<g id="node1" class="node">
<title>Node1</title>
<g id="a_node1"><a xlink:title="EnableApplyWithInitialGuess providing default operation for ApplyWithInitialGuess with correct valida...">
<polygon fill="#bfbfbf" stroke="#000000" points="0,-.5 0,-30.5 180,-30.5 180,-.5 0,-.5"/>
<text text-anchor="start" x="8" y="-18.5" font-family="Helvetica,sans-Serif" font-size="10.00" fill="#000000">gko::solver::EnableApply</text>
<text text-anchor="middle" x="90" y="-7.5" font-family="Helvetica,sans-Serif" font-size="10.00" fill="#000000">WithInitialGuess&lt; DerivedType &gt;</text>
</a>
</g>
</g>
<!-- Node2 -->
<g id="node2" class="node">
<title>Node2</title>
<g id="a_node2"><a xlink:href="classgko_1_1solver_1_1ApplyWithInitialGuess.html" target="_top" xlink:title="ApplyWithInitialGuess provides a way to give the input guess for apply function.">
<polygon fill="#ffffff" stroke="#000000" points="12.5,-67.5 12.5,-97.5 167.5,-97.5 167.5,-67.5 12.5,-67.5"/>
<text text-anchor="start" x="20.5" y="-85.5" font-family="Helvetica,sans-Serif" font-size="10.00" fill="#000000">gko::solver::ApplyWithInitial</text>
<text text-anchor="middle" x="90" y="-74.5" font-family="Helvetica,sans-Serif" font-size="10.00" fill="#000000">Guess</text>
</a>
</g>
</g>
<!-- Node2&#45;&gt;Node1 -->
<g id="edge1" class="edge">
<title>Node2&#45;&gt;Node1</title>
<path fill="none" stroke="#191970" d="M90,-57.0249C90,-48.128 90,-38.4287 90,-30.6432"/>
<polygon fill="#191970" stroke="#191970" points="86.5001,-57.2966 90,-67.2967 93.5001,-57.2967 86.5001,-57.2966"/>
</g>
</g>
</svg>
