<?xml version="1.0" encoding="UTF-8" standalone="no"?>
<!DOCTYPE svg PUBLIC "-//W3C//DTD SVG 1.1//EN"
 "http://www.w3.org/Graphics/SVG/1.1/DTD/svg11.dtd">
<!-- Generated by graphviz version 2.40.1 (20161225.0304)
 -->
<!-- Title: gko::CudaAllocatorBase Pages: 1 -->
<svg width="440pt" height="142pt"
 viewBox="0.00 0.00 440.00 142.00" xmlns="http://www.w3.org/2000/svg" xmlns:xlink="http://www.w3.org/1999/xlink">
<g id="graph0" class="graph" transform="scale(1 1) rotate(0) translate(4 138)">
<title>gko::CudaAllocatorBase</title>
<polygon fill="#ffffff" stroke="transparent" points="-4,4 -4,-138 436,-138 436,4 -4,4"/>
<!-- Node1 -->
<g id="node1" class="node">
<title>Node1</title>
<g id="a_node1"><a xlink:title="Implement this interface to provide an allocator for CudaExecutor.">
<polygon fill="#bfbfbf" stroke="#000000" points="120,-57.5 120,-76.5 253,-76.5 253,-57.5 120,-57.5"/>
<text text-anchor="middle" x="186.5" y="-64.5" font-family="Helvetica,sans-Serif" font-size="10.00" fill="#000000">gko::CudaAllocatorBase</text>
</a>
</g>
</g>
<!-- Node3 -->
<g id="node3" class="node">
<title>Node3</title>
<g id="a_node3"><a xlink:href="classgko_1_1CudaAllocator.html" target="_top" xlink:title="Allocator using cudaMalloc.">
<polygon fill="#ffffff" stroke="#000000" points="306,-114.5 306,-133.5 415,-133.5 415,-114.5 306,-114.5"/>
<text text-anchor="middle" x="360.5" y="-121.5" font-family="Helvetica,sans-Serif" font-size="10.00" fill="#000000">gko::CudaAllocator</text>
</a>
</g>
</g>
<!-- Node1&#45;&gt;Node3 -->
<g id="edge2" class="edge">
<title>Node1&#45;&gt;Node3</title>
<path fill="none" stroke="#191970" d="M219.8392,-80.2768C239.7499,-87.9753 265.6332,-97.5825 289,-105 299.5281,-108.342 311.0517,-111.5829 321.7138,-114.4133"/>
<polygon fill="#191970" stroke="#191970" points="220.8883,-76.9293 210.2999,-76.558 218.3457,-83.4512 220.8883,-76.9293"/>
</g>
<!-- Node4 -->
<g id="node4" class="node">
<title>Node4</title>
<g id="a_node4"><a xlink:href="classgko_1_1CudaAsyncAllocator.html" target="_top" xlink:title=" ">
<polygon fill="#ffffff" stroke="#000000" points="291.5,-76.5 291.5,-95.5 429.5,-95.5 429.5,-76.5 291.5,-76.5"/>
<text text-anchor="middle" x="360.5" y="-83.5" font-family="Helvetica,sans-Serif" font-size="10.00" fill="#000000">gko::CudaAsyncAllocator</text>
</a>
</g>
</g>
<!-- Node1&#45;&gt;Node4 -->
<g id="edge3" class="edge">
<title>Node1&#45;&gt;Node4</title>
<path fill="none" stroke="#191970" d="M263.3069,-75.387C272.6279,-76.4048 282.1072,-77.4399 291.3088,-78.4446"/>
<polygon fill="#191970" stroke="#191970" points="263.5962,-71.8978 253.2753,-74.2916 262.8363,-78.8565 263.5962,-71.8978"/>
</g>
<!-- Node5 -->
<g id="node5" class="node">
<title>Node5</title>
<g id="a_node5"><a xlink:href="classgko_1_1CudaHostAllocator.html" target="_top" xlink:title=" ">
<polygon fill="#ffffff" stroke="#000000" points="295,-38.5 295,-57.5 426,-57.5 426,-38.5 295,-38.5"/>
<text text-anchor="middle" x="360.5" y="-45.5" font-family="Helvetica,sans-Serif" font-size="10.00" fill="#000000">gko::CudaHostAllocator</text>
</a>
</g>
</g>
<!-- Node1&#45;&gt;Node5 -->
<g id="edge4" class="edge">
<title>Node1&#45;&gt;Node5</title>
<path fill="none" stroke="#191970" d="M263.2657,-58.6175C273.7715,-57.4704 284.4792,-56.3011 294.7646,-55.178"/>
<polygon fill="#191970" stroke="#191970" points="262.8363,-55.1435 253.2753,-59.7084 263.5962,-62.1022 262.8363,-55.1435"/>
</g>
<!-- Node6 -->
<g id="node6" class="node">
<title>Node6</title>
<g id="a_node6"><a xlink:href="classgko_1_1CudaUnifiedAllocator.html" target="_top" xlink:title=" ">
<polygon fill="#ffffff" stroke="#000000" points="289,-.5 289,-19.5 432,-19.5 432,-.5 289,-.5"/>
<text text-anchor="middle" x="360.5" y="-7.5" font-family="Helvetica,sans-Serif" font-size="10.00" fill="#000000">gko::CudaUnifiedAllocator</text>
</a>
</g>
</g>
<!-- Node1&#45;&gt;Node6 -->
<g id="edge5" class="edge">
<title>Node1&#45;&gt;Node6</title>
<path fill="none" stroke="#191970" d="M219.8392,-53.7232C239.7499,-46.0247 265.6332,-36.4175 289,-29 299.5281,-25.658 311.0517,-22.4171 321.7138,-19.5867"/>
<polygon fill="#191970" stroke="#191970" points="218.3457,-50.5488 210.2999,-57.442 220.8883,-57.0707 218.3457,-50.5488"/>
</g>
<!-- Node2 -->
<g id="node2" class="node">
<title>Node2</title>
<g id="a_node2"><a xlink:href="classgko_1_1Allocator.html" target="_top" xlink:title="Provides generic allocation and deallocation functionality to be used by an Executor.">
<polygon fill="#ffffff" stroke="#000000" points="0,-57.5 0,-76.5 84,-76.5 84,-57.5 0,-57.5"/>
<text text-anchor="middle" x="42" y="-64.5" font-family="Helvetica,sans-Serif" font-size="10.00" fill="#000000">gko::Allocator</text>
</a>
</g>
</g>
<!-- Node2&#45;&gt;Node1 -->
<g id="edge1" class="edge">
<title>Node2&#45;&gt;Node1</title>
<path fill="none" stroke="#191970" d="M94.3977,-67C102.6477,-67 111.2722,-67 119.7932,-67"/>
<polygon fill="#191970" stroke="#191970" points="94.1839,-63.5001 84.1838,-67 94.1838,-70.5001 94.1839,-63.5001"/>
</g>
</g>
</svg>
