<?xml version="1.0" encoding="UTF-8" standalone="no"?>
<!DOCTYPE svg PUBLIC "-//W3C//DTD SVG 1.1//EN"
 "http://www.w3.org/Graphics/SVG/1.1/DTD/svg11.dtd">
<!-- Generated by graphviz version 2.40.1 (20161225.0304)
 -->
<!-- Title: gko::batch::MultiVector&lt; ValueType &gt; Pages: 1 -->
<svg width="2024pt" height="318pt"
 viewBox="0.00 0.00 2024.00 318.00" xmlns="http://www.w3.org/2000/svg" xmlns:xlink="http://www.w3.org/1999/xlink">
<g id="graph0" class="graph" transform="scale(1 1) rotate(0) translate(4 314)">
<title>gko::batch::MultiVector&lt; ValueType &gt;</title>
<polygon fill="#ffffff" stroke="transparent" points="-4,4 -4,-314 2020,-314 2020,4 -4,4"/>
<!-- Node1 -->
<g id="node1" class="node">
<title>Node1</title>
<g id="a_node1"><a xlink:title="MultiVector stores multiple vectors in a batched fashion and is useful for batched operations.">
<polygon fill="#bfbfbf" stroke="#000000" points="1888,-72 1888,-102 2016,-102 2016,-72 1888,-72"/>
<text text-anchor="start" x="1896" y="-90" font-family="Helvetica,sans-Serif" font-size="10.00" fill="#000000">gko::batch::MultiVector</text>
<text text-anchor="middle" x="1952" y="-79" font-family="Helvetica,sans-Serif" font-size="10.00" fill="#000000">&lt; ValueType &gt;</text>
</a>
</g>
</g>
<!-- Node2 -->
<g id="node2" class="node">
<title>Node2</title>
<g id="a_node2"><a xlink:href="classgko_1_1EnablePolymorphicObject.html" target="_top" xlink:title=" ">
<polygon fill="#ffffff" stroke="#000000" points="1672,-148 1672,-178 1838,-178 1838,-148 1672,-148"/>
<text text-anchor="start" x="1680" y="-166" font-family="Helvetica,sans-Serif" font-size="10.00" fill="#000000">gko::EnablePolymorphicObject</text>
<text text-anchor="middle" x="1755" y="-155" font-family="Helvetica,sans-Serif" font-size="10.00" fill="#000000">&lt; MultiVector&lt; ValueType &gt; &gt;</text>
</a>
</g>
</g>
<!-- Node2&#45;&gt;Node1 -->
<g id="edge1" class="edge">
<title>Node2&#45;&gt;Node1</title>
<path fill="none" stroke="#191970" d="M1803.5535,-144.2687C1837.2007,-131.288 1881.4216,-114.2282 1912.8233,-102.1138"/>
<polygon fill="#191970" stroke="#191970" points="1801.9909,-141.12 1793.9209,-147.9848 1804.5104,-147.6509 1801.9909,-141.12"/>
</g>
<!-- Node3 -->
<g id="node3" class="node">
<title>Node3</title>
<g id="a_node3"><a xlink:href="classgko_1_1EnableAbstractPolymorphicObject.html" target="_top" xlink:title=" ">
<polygon fill="#ffffff" stroke="#000000" points="1278.5,-192.5 1278.5,-233.5 1453.5,-233.5 1453.5,-192.5 1278.5,-192.5"/>
<text text-anchor="start" x="1286.5" y="-221.5" font-family="Helvetica,sans-Serif" font-size="10.00" fill="#000000">gko::EnableAbstractPolymorphic</text>
<text text-anchor="start" x="1286.5" y="-210.5" font-family="Helvetica,sans-Serif" font-size="10.00" fill="#000000">Object&lt; MultiVector&lt; ValueType</text>
<text text-anchor="middle" x="1366" y="-199.5" font-family="Helvetica,sans-Serif" font-size="10.00" fill="#000000"> &gt;, PolymorphicObject &gt;</text>
</a>
</g>
</g>
<!-- Node3&#45;&gt;Node2 -->
<g id="edge2" class="edge">
<title>Node3&#45;&gt;Node2</title>
<path fill="none" stroke="#191970" d="M1463.9091,-200.4153C1528.0384,-192.1724 1610.9431,-181.5163 1671.8644,-173.6858"/>
<polygon fill="#191970" stroke="#191970" points="1463.2564,-196.9703 1453.7842,-201.7167 1464.1489,-203.9132 1463.2564,-196.9703"/>
</g>
<!-- Node4 -->
<g id="node4" class="node">
<title>Node4</title>
<g id="a_node4"><a xlink:href="classgko_1_1PolymorphicObject.html" target="_top" xlink:title="A PolymorphicObject is the abstract base for all &quot;heavy&quot; objects in Ginkgo that behave polymorphicall...">
<polygon fill="#ffffff" stroke="#000000" points="896,-243.5 896,-262.5 1029,-262.5 1029,-243.5 896,-243.5"/>
<text text-anchor="middle" x="962.5" y="-250.5" font-family="Helvetica,sans-Serif" font-size="10.00" fill="#000000">gko::PolymorphicObject</text>
</a>
</g>
</g>
<!-- Node4&#45;&gt;Node3 -->
<g id="edge3" class="edge">
<title>Node4&#45;&gt;Node3</title>
<path fill="none" stroke="#191970" d="M1039.4764,-246.2544C1097.8349,-241.0352 1180.0041,-233.4616 1252,-226 1260.5199,-225.117 1269.394,-224.1639 1278.263,-223.1891"/>
<polygon fill="#191970" stroke="#191970" points="1038.8789,-242.7937 1029.2295,-247.1685 1039.501,-249.766 1038.8789,-242.7937"/>
</g>
<!-- Node5 -->
<g id="node5" class="node">
<title>Node5</title>
<g id="a_node5"><a xlink:href="classgko_1_1log_1_1EnableLogging.html" target="_top" xlink:title=" ">
<polygon fill="#ffffff" stroke="#000000" points="563,-241 563,-271 696,-271 696,-241 563,-241"/>
<text text-anchor="start" x="571" y="-259" font-family="Helvetica,sans-Serif" font-size="10.00" fill="#000000">gko::log::EnableLogging</text>
<text text-anchor="middle" x="629.5" y="-248" font-family="Helvetica,sans-Serif" font-size="10.00" fill="#000000">&lt; PolymorphicObject &gt;</text>
</a>
</g>
</g>
<!-- Node5&#45;&gt;Node4 -->
<g id="edge4" class="edge">
<title>Node5&#45;&gt;Node4</title>
<path fill="none" stroke="#191970" d="M706.1775,-255.3092C763.4638,-254.7931 840.9966,-254.0946 895.7435,-253.6014"/>
<polygon fill="#191970" stroke="#191970" points="706.0552,-251.8101 696.0872,-255.4001 706.1183,-258.8098 706.0552,-251.8101"/>
</g>
<!-- Node6 -->
<g id="node6" class="node">
<title>Node6</title>
<g id="a_node6"><a xlink:href="classgko_1_1log_1_1Loggable.html" target="_top" xlink:title="Loggable class is an interface which should be implemented by classes wanting to support logging.">
<polygon fill="#ffffff" stroke="#000000" points="184,-290.5 184,-309.5 290,-309.5 290,-290.5 184,-290.5"/>
<text text-anchor="middle" x="237" y="-297.5" font-family="Helvetica,sans-Serif" font-size="10.00" fill="#000000">gko::log::Loggable</text>
</a>
</g>
</g>
<!-- Node6&#45;&gt;Node5 -->
<g id="edge5" class="edge">
<title>Node6&#45;&gt;Node5</title>
<path fill="none" stroke="#191970" d="M300.6369,-292.8662C372.683,-284.7897 489.5366,-271.6902 562.8175,-263.4752"/>
<polygon fill="#191970" stroke="#191970" points="299.8906,-289.4278 290.3428,-294.0202 300.6705,-296.3843 299.8906,-289.4278"/>
</g>
<!-- Node7 -->
<g id="node7" class="node">
<title>Node7</title>
<g id="a_node7"><a xlink:href="classgko_1_1log_1_1EnableLogging.html" target="_top" xlink:title="EnableLogging is a mixin which should be inherited by any class which wants to enable logging.">
<polygon fill="#ffffff" stroke="#000000" points="146,-230.5 146,-271.5 328,-271.5 328,-230.5 146,-230.5"/>
<text text-anchor="start" x="154" y="-259.5" font-family="Helvetica,sans-Serif" font-size="10.00" fill="#000000">gko::log::EnableLogging</text>
<text text-anchor="start" x="154" y="-248.5" font-family="Helvetica,sans-Serif" font-size="10.00" fill="#000000">&lt; ConcreteLoggable, Polymorphic</text>
<text text-anchor="middle" x="237" y="-237.5" font-family="Helvetica,sans-Serif" font-size="10.00" fill="#000000">Base &gt;</text>
</a>
</g>
</g>
<!-- Node7&#45;&gt;Node5 -->
<g id="edge6" class="edge">
<title>Node7&#45;&gt;Node5</title>
<path fill="none" stroke="#ffa500" stroke-dasharray="5,2" d="M338.2987,-252.2904C408.9782,-253.1908 501.3064,-254.367 562.8622,-255.1511"/>
<polygon fill="#ffa500" stroke="#ffa500" points="338.0777,-248.7874 328.0339,-252.1597 337.9885,-255.7869 338.0777,-248.7874"/>
<text text-anchor="middle" x="432.5" y="-257" font-family="Helvetica,sans-Serif" font-size="10.00" fill="#000000"> &lt; PolymorphicObject &gt;</text>
</g>
<!-- Node8 -->
<g id="node8" class="node">
<title>Node8</title>
<g id="a_node8"><a xlink:title=" ">
<polygon fill="#ffffff" stroke="#bfbfbf" points="0,-181.5 0,-200.5 101,-200.5 101,-181.5 0,-181.5"/>
<text text-anchor="middle" x="50.5" y="-188.5" font-family="Helvetica,sans-Serif" font-size="10.00" fill="#000000">PolymorphicBase</text>
</a>
</g>
</g>
<!-- Node8&#45;&gt;Node7 -->
<g id="edge7" class="edge">
<title>Node8&#45;&gt;Node7</title>
<path fill="none" stroke="#191970" d="M87.3985,-203.9808C102.9725,-209.3738 121.3267,-215.6174 138,-221 147.6563,-224.1173 157.8725,-227.3199 167.9312,-230.4183"/>
<polygon fill="#191970" stroke="#191970" points="88.2061,-200.5561 77.6113,-200.5773 85.9069,-207.1677 88.2061,-200.5561"/>
</g>
<!-- Node9 -->
<g id="node9" class="node">
<title>Node9</title>
<g id="a_node9"><a xlink:href="classgko_1_1EnableAbstractPolymorphicObject.html" target="_top" xlink:title="This mixin inherits from (a subclass of) PolymorphicObject and provides a base implementation of a ne...">
<polygon fill="#ffffff" stroke="#000000" points="138,-170.5 138,-211.5 336,-211.5 336,-170.5 138,-170.5"/>
<text text-anchor="start" x="146" y="-199.5" font-family="Helvetica,sans-Serif" font-size="10.00" fill="#000000">gko::EnableAbstractPolymorphic</text>
<text text-anchor="start" x="146" y="-188.5" font-family="Helvetica,sans-Serif" font-size="10.00" fill="#000000">Object&lt; AbstractObject, Polymorphic</text>
<text text-anchor="middle" x="237" y="-177.5" font-family="Helvetica,sans-Serif" font-size="10.00" fill="#000000">Base &gt;</text>
</a>
</g>
</g>
<!-- Node8&#45;&gt;Node9 -->
<g id="edge9" class="edge">
<title>Node8&#45;&gt;Node9</title>
<path fill="none" stroke="#191970" d="M111.5248,-191C119.9555,-191 128.7869,-191 137.6923,-191"/>
<polygon fill="#191970" stroke="#191970" points="111.462,-187.5001 101.4619,-191 111.4619,-194.5001 111.462,-187.5001"/>
</g>
<!-- Node11 -->
<g id="node11" class="node">
<title>Node11</title>
<g id="a_node11"><a xlink:href="classgko_1_1EnableAbstractPolymorphicObject.html" target="_top" xlink:title=" ">
<polygon fill="#ffffff" stroke="#000000" points="529,-142.5 529,-183.5 730,-183.5 730,-142.5 529,-142.5"/>
<text text-anchor="start" x="537" y="-171.5" font-family="Helvetica,sans-Serif" font-size="10.00" fill="#000000">gko::EnableAbstractPolymorphic</text>
<text text-anchor="start" x="537" y="-160.5" font-family="Helvetica,sans-Serif" font-size="10.00" fill="#000000">Object&lt; ConcreteObject, Polymorphic</text>
<text text-anchor="middle" x="629.5" y="-149.5" font-family="Helvetica,sans-Serif" font-size="10.00" fill="#000000">Base &gt;</text>
</a>
</g>
</g>
<!-- Node8&#45;&gt;Node11 -->
<g id="edge12" class="edge">
<title>Node8&#45;&gt;Node11</title>
<path fill="none" stroke="#191970" d="M81.5467,-177.5517C97.9869,-171.1549 118.7166,-164.2139 138,-161 301.5228,-133.7462 345.2258,-160.8269 511,-162 516.8633,-162.0415 522.8899,-162.0861 528.9705,-162.1327"/>
<polygon fill="#191970" stroke="#191970" points="79.8872,-174.4466 71.916,-181.426 82.4998,-180.9408 79.8872,-174.4466"/>
</g>
<!-- Node9&#45;&gt;Node3 -->
<g id="edge8" class="edge">
<title>Node9&#45;&gt;Node3</title>
<path fill="none" stroke="#ffa500" stroke-dasharray="5,2" d="M346.3108,-197.695C348.8985,-197.8034 351.4645,-197.9054 354,-198 695.7451,-210.7494 1102.786,-212.783 1278.316,-213.0253"/>
<polygon fill="#ffa500" stroke="#ffa500" points="346.3879,-194.1951 336.2421,-197.2468 346.0765,-201.1881 346.3879,-194.1951"/>
<text text-anchor="start" x="748" y="-224" font-family="Helvetica,sans-Serif" font-size="10.00" fill="#000000"> &lt; MultiVector&lt; ValueType</text>
<text text-anchor="middle" x="813" y="-213" font-family="Helvetica,sans-Serif" font-size="10.00" fill="#000000"> &gt;, PolymorphicObject &gt;</text>
</g>
<!-- Node9&#45;&gt;Node11 -->
<g id="edge13" class="edge">
<title>Node9&#45;&gt;Node11</title>
<path fill="none" stroke="#ffa500" stroke-dasharray="5,2" d="M346.2885,-176.7079C348.8828,-176.4593 351.4563,-176.2227 354,-176 411.837,-170.9362 476.6894,-167.7529 528.9372,-165.8047"/>
<polygon fill="#ffa500" stroke="#ffa500" points="345.7972,-173.2396 336.1975,-177.7224 346.4975,-180.2045 345.7972,-173.2396"/>
<text text-anchor="start" x="354" y="-190" font-family="Helvetica,sans-Serif" font-size="10.00" fill="#000000"> &lt; ConcreteObject, Polymorphic</text>
<text text-anchor="middle" x="432.5" y="-179" font-family="Helvetica,sans-Serif" font-size="10.00" fill="#000000">Base &gt;</text>
</g>
<!-- Node10 -->
<g id="node10" class="node">
<title>Node10</title>
<g id="a_node10"><a xlink:href="classgko_1_1EnablePolymorphicObject.html" target="_top" xlink:title="This mixin inherits from (a subclass of) PolymorphicObject and provides a base implementation of a ne...">
<polygon fill="#ffffff" stroke="#000000" points="1047,-148 1047,-178 1252,-178 1252,-148 1047,-148"/>
<text text-anchor="start" x="1055" y="-166" font-family="Helvetica,sans-Serif" font-size="10.00" fill="#000000">gko::EnablePolymorphicObject</text>
<text text-anchor="middle" x="1149.5" y="-155" font-family="Helvetica,sans-Serif" font-size="10.00" fill="#000000">&lt; ConcreteObject, PolymorphicBase &gt;</text>
</a>
</g>
</g>
<!-- Node10&#45;&gt;Node2 -->
<g id="edge10" class="edge">
<title>Node10&#45;&gt;Node2</title>
<path fill="none" stroke="#ffa500" stroke-dasharray="5,2" d="M1262.4362,-163C1381.2825,-163 1565.5407,-163 1671.783,-163"/>
<polygon fill="#ffa500" stroke="#ffa500" points="1262.2149,-159.5001 1252.2148,-163 1262.2148,-166.5001 1262.2149,-159.5001"/>
<text text-anchor="middle" x="1366" y="-166" font-family="Helvetica,sans-Serif" font-size="10.00" fill="#000000"> &lt; MultiVector&lt; ValueType &gt; &gt;</text>
</g>
<!-- Node11&#45;&gt;Node10 -->
<g id="edge11" class="edge">
<title>Node11&#45;&gt;Node10</title>
<path fill="none" stroke="#191970" d="M740.105,-163C830.7507,-163 958.065,-163 1046.5581,-163"/>
<polygon fill="#191970" stroke="#191970" points="740.0694,-159.5001 730.0694,-163 740.0693,-166.5001 740.0694,-159.5001"/>
</g>
<!-- Node12 -->
<g id="node12" class="node">
<title>Node12</title>
<g id="a_node12"><a xlink:href="classgko_1_1EnablePolymorphicAssignment.html" target="_top" xlink:title=" ">
<polygon fill="#ffffff" stroke="#000000" points="1659,-72 1659,-102 1851,-102 1851,-72 1659,-72"/>
<text text-anchor="start" x="1667" y="-90" font-family="Helvetica,sans-Serif" font-size="10.00" fill="#000000">gko::EnablePolymorphicAssignment</text>
<text text-anchor="middle" x="1755" y="-79" font-family="Helvetica,sans-Serif" font-size="10.00" fill="#000000">&lt; MultiVector&lt; ValueType &gt; &gt;</text>
</a>
</g>
</g>
<!-- Node12&#45;&gt;Node1 -->
<g id="edge14" class="edge">
<title>Node12&#45;&gt;Node1</title>
<path fill="none" stroke="#191970" d="M1861.3617,-87C1870.3508,-87 1879.2519,-87 1887.7632,-87"/>
<polygon fill="#191970" stroke="#191970" points="1861.1916,-83.5001 1851.1916,-87 1861.1916,-90.5001 1861.1916,-83.5001"/>
</g>
<!-- Node13 -->
<g id="node13" class="node">
<title>Node13</title>
<g id="a_node13"><a xlink:href="classgko_1_1ConvertibleTo.html" target="_top" xlink:title=" ">
<polygon fill="#ffffff" stroke="#000000" points="1283,-96 1283,-126 1449,-126 1449,-96 1283,-96"/>
<text text-anchor="start" x="1291" y="-114" font-family="Helvetica,sans-Serif" font-size="10.00" fill="#000000">gko::ConvertibleTo</text>
<text text-anchor="middle" x="1366" y="-103" font-family="Helvetica,sans-Serif" font-size="10.00" fill="#000000">&lt; MultiVector&lt; ValueType &gt; &gt;</text>
</a>
</g>
</g>
<!-- Node13&#45;&gt;Node12 -->
<g id="edge15" class="edge">
<title>Node13&#45;&gt;Node12</title>
<path fill="none" stroke="#191970" d="M1459.7148,-105.2181C1519.9272,-101.5032 1597.9456,-96.6897 1658.6651,-92.9435"/>
<polygon fill="#191970" stroke="#191970" points="1459.2157,-101.7422 1449.4503,-105.8514 1459.6468,-108.7289 1459.2157,-101.7422"/>
</g>
<!-- Node14 -->
<g id="node14" class="node">
<title>Node14</title>
<g id="a_node14"><a xlink:href="classgko_1_1ConvertibleTo.html" target="_top" xlink:title="ConvertibleTo interface is used to mark that the implementer can be converted to the object of Result...">
<polygon fill="#ffffff" stroke="#000000" points="909,-47 909,-77 1016,-77 1016,-47 909,-47"/>
<text text-anchor="start" x="917" y="-65" font-family="Helvetica,sans-Serif" font-size="10.00" fill="#000000">gko::ConvertibleTo</text>
<text text-anchor="middle" x="962.5" y="-54" font-family="Helvetica,sans-Serif" font-size="10.00" fill="#000000">&lt; ResultType &gt;</text>
</a>
</g>
</g>
<!-- Node14&#45;&gt;Node13 -->
<g id="edge16" class="edge">
<title>Node14&#45;&gt;Node13</title>
<path fill="none" stroke="#ffa500" stroke-dasharray="5,2" d="M1026.2592,-72.9464C1033.2502,-74.0325 1040.2696,-75.0739 1047,-76 1126.8937,-86.9929 1218.4266,-96.7442 1282.8935,-103.1435"/>
<polygon fill="#ffa500" stroke="#ffa500" points="1026.4988,-69.4407 1016.074,-71.3314 1025.4025,-76.3544 1026.4988,-69.4407"/>
<text text-anchor="middle" x="1149.5" y="-103" font-family="Helvetica,sans-Serif" font-size="10.00" fill="#000000"> &lt; MultiVector&lt; ValueType &gt; &gt;</text>
</g>
<!-- Node15 -->
<g id="node15" class="node">
<title>Node15</title>
<g id="a_node15"><a xlink:href="classgko_1_1EnablePolymorphicAssignment.html" target="_top" xlink:title="This mixin is used to enable a default PolymorphicObject::copy_from() implementation for objects that...">
<polygon fill="#ffffff" stroke="#000000" points="1270,-47 1270,-77 1462,-77 1462,-47 1270,-47"/>
<text text-anchor="start" x="1278" y="-65" font-family="Helvetica,sans-Serif" font-size="10.00" fill="#000000">gko::EnablePolymorphicAssignment</text>
<text text-anchor="middle" x="1366" y="-54" font-family="Helvetica,sans-Serif" font-size="10.00" fill="#000000">&lt; ConcreteType, ResultType &gt;</text>
</a>
</g>
</g>
<!-- Node14&#45;&gt;Node15 -->
<g id="edge18" class="edge">
<title>Node14&#45;&gt;Node15</title>
<path fill="none" stroke="#191970" d="M1026.2682,-62C1091.794,-62 1194.5994,-62 1269.9694,-62"/>
<polygon fill="#191970" stroke="#191970" points="1026.0817,-58.5001 1016.0817,-62 1026.0817,-65.5001 1026.0817,-58.5001"/>
</g>
<!-- Node16 -->
<g id="node16" class="node">
<title>Node16</title>
<g id="a_node16"><a xlink:href="classgko_1_1ConvertibleTo.html" target="_top" xlink:title=" ">
<polygon fill="#ffffff" stroke="#000000" points="1480,-.5 1480,-41.5 1641,-41.5 1641,-.5 1480,-.5"/>
<text text-anchor="start" x="1488" y="-29.5" font-family="Helvetica,sans-Serif" font-size="10.00" fill="#000000">gko::ConvertibleTo</text>
<text text-anchor="start" x="1488" y="-18.5" font-family="Helvetica,sans-Serif" font-size="10.00" fill="#000000">&lt; MultiVector&lt; next</text>
<text text-anchor="middle" x="1560.5" y="-7.5" font-family="Helvetica,sans-Serif" font-size="10.00" fill="#000000">_precision&lt; ValueType &gt; &gt; &gt;</text>
</a>
</g>
</g>
<!-- Node14&#45;&gt;Node16 -->
<g id="edge20" class="edge">
<title>Node14&#45;&gt;Node16</title>
<path fill="none" stroke="#ffa500" stroke-dasharray="5,2" d="M1013.4785,-43.9036C1024.4089,-40.7061 1035.9856,-37.821 1047,-36 1198.3476,-10.9772 1378.124,-12.8076 1479.8073,-16.7028"/>
<polygon fill="#ffa500" stroke="#ffa500" points="1012.1965,-40.6355 1003.6567,-46.9063 1014.2431,-47.3297 1012.1965,-40.6355"/>
<text text-anchor="start" x="1077" y="-50" font-family="Helvetica,sans-Serif" font-size="10.00" fill="#000000"> &lt; MultiVector&lt; next</text>
<text text-anchor="middle" x="1149.5" y="-39" font-family="Helvetica,sans-Serif" font-size="10.00" fill="#000000">_precision&lt; ValueType &gt; &gt; &gt;</text>
</g>
<!-- Node15&#45;&gt;Node12 -->
<g id="edge17" class="edge">
<title>Node15&#45;&gt;Node12</title>
<path fill="none" stroke="#ffa500" stroke-dasharray="5,2" d="M1472.1584,-68.3559C1523.2142,-71.4655 1585.2897,-75.3234 1641,-79 1646.8402,-79.3854 1652.8482,-79.7883 1658.9078,-80.1994"/>
<polygon fill="#ffa500" stroke="#ffa500" points="1472.2934,-64.8577 1462.0994,-67.7442 1471.8685,-71.8448 1472.2934,-64.8577"/>
<text text-anchor="middle" x="1560.5" y="-82" font-family="Helvetica,sans-Serif" font-size="10.00" fill="#000000"> &lt; MultiVector&lt; ValueType &gt; &gt;</text>
</g>
<!-- Node16&#45;&gt;Node1 -->
<g id="edge19" class="edge">
<title>Node16&#45;&gt;Node1</title>
<path fill="none" stroke="#191970" d="M1651.4253,-32.0151C1708.8693,-39.4998 1784.5363,-50.3252 1851,-63 1864.5435,-65.5828 1879.0118,-68.7651 1892.6427,-71.958"/>
<polygon fill="#191970" stroke="#191970" points="1651.6476,-28.5147 1641.2812,-30.7033 1650.7498,-35.4569 1651.6476,-28.5147"/>
</g>
</g>
</svg>
