<?xml version="1.0" encoding="UTF-8" standalone="no"?>
<!DOCTYPE svg PUBLIC "-//W3C//DTD SVG 1.1//EN"
 "http://www.w3.org/Graphics/SVG/1.1/DTD/svg11.dtd">
<!-- Generated by graphviz version 2.40.1 (20161225.0304)
 -->
<!-- Title: gko::batch::solver::BatchSolver Pages: 1 -->
<svg width="817pt" height="128pt"
 viewBox="0.00 0.00 817.00 127.50" xmlns="http://www.w3.org/2000/svg" xmlns:xlink="http://www.w3.org/1999/xlink">
<g id="graph0" class="graph" transform="scale(1 1) rotate(0) translate(4 123.5)">
<title>gko::batch::solver::BatchSolver</title>
<polygon fill="#ffffff" stroke="transparent" points="-4,4 -4,-123.5 813,-123.5 813,4 -4,4"/>
<!-- Node1 -->
<g id="node1" class="node">
<title>Node1</title>
<g id="a_node1"><a xlink:title="The BatchSolver is a base class for all batched solvers and provides the common getters and setter fo...">
<polygon fill="#bfbfbf" stroke="#000000" points="0,-44 0,-74 104,-74 104,-44 0,-44"/>
<text text-anchor="start" x="8" y="-62" font-family="Helvetica,sans-Serif" font-size="10.00" fill="#000000">gko::batch::solver</text>
<text text-anchor="middle" x="52" y="-51" font-family="Helvetica,sans-Serif" font-size="10.00" fill="#000000">::BatchSolver</text>
</a>
</g>
</g>
<!-- Node2 -->
<g id="node2" class="node">
<title>Node2</title>
<g id="a_node2"><a xlink:href="classgko_1_1batch_1_1solver_1_1EnableBatchSolver.html" target="_top" xlink:title=" ">
<polygon fill="#ffffff" stroke="#000000" points="480,-67 480,-119 611,-119 611,-67 480,-67"/>
<text text-anchor="start" x="488" y="-107" font-family="Helvetica,sans-Serif" font-size="10.00" fill="#000000">gko::batch::solver</text>
<text text-anchor="start" x="488" y="-96" font-family="Helvetica,sans-Serif" font-size="10.00" fill="#000000">::EnableBatchSolver</text>
<text text-anchor="start" x="488" y="-85" font-family="Helvetica,sans-Serif" font-size="10.00" fill="#000000">&lt; Bicgstab&lt; ValueType</text>
<text text-anchor="middle" x="545.5" y="-74" font-family="Helvetica,sans-Serif" font-size="10.00" fill="#000000"> &gt;, ValueType &gt;</text>
</a>
</g>
</g>
<!-- Node1&#45;&gt;Node2 -->
<g id="edge1" class="edge">
<title>Node1&#45;&gt;Node2</title>
<path fill="none" stroke="#191970" d="M91.6001,-78.3776C106.7006,-84.8624 124.301,-91.3618 141,-95 258.1633,-120.5265 398.986,-111.1113 479.7834,-102.0099"/>
<polygon fill="#191970" stroke="#191970" points="92.6325,-75.0066 82.0724,-74.1486 89.7925,-81.4047 92.6325,-75.0066"/>
</g>
<!-- Node4 -->
<g id="node4" class="node">
<title>Node4</title>
<g id="a_node4"><a xlink:href="classgko_1_1batch_1_1solver_1_1EnableBatchSolver.html" target="_top" xlink:title=" ">
<polygon fill="#ffffff" stroke="#000000" points="456,-.5 456,-41.5 635,-41.5 635,-.5 456,-.5"/>
<text text-anchor="start" x="464" y="-29.5" font-family="Helvetica,sans-Serif" font-size="10.00" fill="#000000">gko::batch::solver</text>
<text text-anchor="start" x="464" y="-18.5" font-family="Helvetica,sans-Serif" font-size="10.00" fill="#000000">::EnableBatchSolver</text>
<text text-anchor="middle" x="545.5" y="-7.5" font-family="Helvetica,sans-Serif" font-size="10.00" fill="#000000">&lt; Cg&lt; ValueType &gt;, ValueType &gt;</text>
</a>
</g>
</g>
<!-- Node1&#45;&gt;Node4 -->
<g id="edge3" class="edge">
<title>Node1&#45;&gt;Node4</title>
<path fill="none" stroke="#191970" d="M91.5828,-39.8325C106.6814,-33.4911 124.2849,-27.2328 141,-24 247.6999,-3.3634 373.21,-6.5799 455.7997,-12.3523"/>
<polygon fill="#191970" stroke="#191970" points="89.828,-36.7791 82.0571,-43.9808 92.6229,-43.197 89.828,-36.7791"/>
</g>
<!-- Node6 -->
<g id="node6" class="node">
<title>Node6</title>
<g id="a_node6"><a xlink:href="classgko_1_1batch_1_1solver_1_1EnableBatchSolver.html" target="_top" xlink:title="This mixin provides apply and common iterative solver functionality to all the batched solvers.">
<polygon fill="#ffffff" stroke="#000000" points="141,-33 141,-85 302,-85 302,-33 141,-33"/>
<text text-anchor="start" x="149" y="-73" font-family="Helvetica,sans-Serif" font-size="10.00" fill="#000000">gko::batch::solver</text>
<text text-anchor="start" x="149" y="-62" font-family="Helvetica,sans-Serif" font-size="10.00" fill="#000000">::EnableBatchSolver</text>
<text text-anchor="start" x="149" y="-51" font-family="Helvetica,sans-Serif" font-size="10.00" fill="#000000">&lt; ConcreteSolver, ValueType,</text>
<text text-anchor="middle" x="221.5" y="-40" font-family="Helvetica,sans-Serif" font-size="10.00" fill="#000000"> PolymorphicBase &gt;</text>
</a>
</g>
</g>
<!-- Node1&#45;&gt;Node6 -->
<g id="edge5" class="edge">
<title>Node1&#45;&gt;Node6</title>
<path fill="none" stroke="#191970" d="M114.4899,-59C123.0478,-59 131.9315,-59 140.7572,-59"/>
<polygon fill="#191970" stroke="#191970" points="114.2387,-55.5001 104.2387,-59 114.2386,-62.5001 114.2387,-55.5001"/>
</g>
<!-- Node3 -->
<g id="node3" class="node">
<title>Node3</title>
<g id="a_node3"><a xlink:href="classgko_1_1batch_1_1solver_1_1Bicgstab.html" target="_top" xlink:title="BiCGSTAB or the Bi&#45;Conjugate Gradient&#45;Stabilized is a Krylov subspace solver.">
<polygon fill="#ffffff" stroke="#000000" points="672,-78 672,-108 809,-108 809,-78 672,-78"/>
<text text-anchor="start" x="680" y="-96" font-family="Helvetica,sans-Serif" font-size="10.00" fill="#000000">gko::batch::solver</text>
<text text-anchor="middle" x="740.5" y="-85" font-family="Helvetica,sans-Serif" font-size="10.00" fill="#000000">::Bicgstab&lt; ValueType &gt;</text>
</a>
</g>
</g>
<!-- Node2&#45;&gt;Node3 -->
<g id="edge2" class="edge">
<title>Node2&#45;&gt;Node3</title>
<path fill="none" stroke="#191970" d="M621.4299,-93C637.9963,-93 655.4373,-93 671.7074,-93"/>
<polygon fill="#191970" stroke="#191970" points="621.2463,-89.5001 611.2463,-93 621.2462,-96.5001 621.2463,-89.5001"/>
</g>
<!-- Node5 -->
<g id="node5" class="node">
<title>Node5</title>
<g id="a_node5"><a xlink:href="classgko_1_1batch_1_1solver_1_1Cg.html" target="_top" xlink:title="Cg or the Conjugate Gradient is a Krylov subspace solver.">
<polygon fill="#ffffff" stroke="#000000" points="687,-6 687,-36 794,-36 794,-6 687,-6"/>
<text text-anchor="start" x="695" y="-24" font-family="Helvetica,sans-Serif" font-size="10.00" fill="#000000">gko::batch::solver</text>
<text text-anchor="middle" x="740.5" y="-13" font-family="Helvetica,sans-Serif" font-size="10.00" fill="#000000">::Cg&lt; ValueType &gt;</text>
</a>
</g>
</g>
<!-- Node4&#45;&gt;Node5 -->
<g id="edge4" class="edge">
<title>Node4&#45;&gt;Node5</title>
<path fill="none" stroke="#191970" d="M645.4166,-21C659.7157,-21 673.9455,-21 686.8748,-21"/>
<polygon fill="#191970" stroke="#191970" points="645.01,-17.5001 635.0099,-21 645.0099,-24.5001 645.01,-17.5001"/>
</g>
<!-- Node6&#45;&gt;Node2 -->
<g id="edge7" class="edge">
<title>Node6&#45;&gt;Node2</title>
<path fill="none" stroke="#ffa500" stroke-dasharray="5,2" d="M312.431,-68.0381C351.1439,-71.9383 396.7895,-76.6062 438,-81 451.5381,-82.4434 466.0301,-84.0317 479.8499,-85.5671"/>
<polygon fill="#ffa500" stroke="#ffa500" points="312.5269,-64.5302 302.2268,-67.0116 311.8262,-71.495 312.5269,-64.5302"/>
<text text-anchor="start" x="320" y="-95" font-family="Helvetica,sans-Serif" font-size="10.00" fill="#000000"> &lt; Bicgstab&lt; ValueType</text>
<text text-anchor="middle" x="379" y="-84" font-family="Helvetica,sans-Serif" font-size="10.00" fill="#000000"> &gt;, ValueType &gt;</text>
</g>
<!-- Node6&#45;&gt;Node4 -->
<g id="edge6" class="edge">
<title>Node6&#45;&gt;Node4</title>
<path fill="none" stroke="#ffa500" stroke-dasharray="5,2" d="M311.95,-43.1089C314.6616,-42.7224 317.3497,-42.3516 320,-42 364.629,-36.0799 414.4464,-31.2545 455.8832,-27.7289"/>
<polygon fill="#ffa500" stroke="#ffa500" points="311.435,-39.6469 302.0536,-44.5704 312.4577,-46.5718 311.435,-39.6469"/>
<text text-anchor="start" x="327.5" y="-56" font-family="Helvetica,sans-Serif" font-size="10.00" fill="#000000"> &lt; Cg&lt; ValueType &gt;,</text>
<text text-anchor="middle" x="379" y="-45" font-family="Helvetica,sans-Serif" font-size="10.00" fill="#000000"> ValueType &gt;</text>
</g>
</g>
</svg>
