<?xml version="1.0" encoding="UTF-8" standalone="no"?>
<!DOCTYPE svg PUBLIC "-//W3C//DTD SVG 1.1//EN"
 "http://www.w3.org/Graphics/SVG/1.1/DTD/svg11.dtd">
<!-- Generated by graphviz version 2.40.1 (20161225.0304)
 -->
<!-- Title: BatchLinOp Pages: 1 -->
<svg width="387pt" height="237pt"
 viewBox="0.00 0.00 387.00 237.20" xmlns="http://www.w3.org/2000/svg" xmlns:xlink="http://www.w3.org/1999/xlink">
<g id="graph0" class="graph" transform="scale(1 1) rotate(0) translate(4 233.2002)">
<title>BatchLinOp</title>
<polygon fill="#ffffff" stroke="transparent" points="-4,4 -4,-233.2002 383,-233.2002 383,4 -4,4"/>
<!-- Node1 -->
<g id="node1" class="node">
<title>Node1</title>
<g id="a_node1"><a xlink:title=" ">
<polygon fill="#bfbfbf" stroke="#000000" points="72,-99.7002 0,-99.7002 0,-80.7002 72,-80.7002 72,-99.7002"/>
<text text-anchor="middle" x="36" y="-87.7002" font-family="Helvetica,sans-Serif" font-size="10.00" fill="#000000">BatchLinOp</text>
</a>
</g>
</g>
<!-- Node4 -->
<g id="node2" class="node">
<title>Node4</title>
<g id="a_node2"><a xlink:href="group__precond.html" target="_top" xlink:title="A module dedicated to the implementation and usage of the Preconditioners in Ginkgo.">
<polygon fill="#ffffff" stroke="#000000" points="353.5,-211.7002 261.5,-211.7002 261.5,-192.7002 353.5,-192.7002 353.5,-211.7002"/>
<text text-anchor="middle" x="307.5" y="-199.7002" font-family="Helvetica,sans-Serif" font-size="10.00" fill="#000000">Preconditioners</text>
</a>
</g>
</g>
<!-- Node1&#45;&gt;Node4 -->
<g id="edge3" class="edge">
<title>Node1&#45;&gt;Node4</title>
<path fill="none" stroke="#ffa500" stroke-dasharray="5,2" d="M39.0629,-99.7095C45.3875,-117.6567 61.7176,-156.3207 90,-174.2002 141.811,-206.954 214.4798,-209.5843 261.2787,-207.026"/>
<text text-anchor="start" x="90" y="-221.2002" font-family="Helvetica,sans-Serif" font-size="10.00" fill="#000000">gko::batch::preconditioner</text>
<text text-anchor="middle" x="154" y="-210.2002" font-family="Helvetica,sans-Serif" font-size="10.00" fill="#000000">::Jacobi</text>
</g>
<!-- Node2 -->
<g id="node3" class="node">
<title>Node2</title>
<g id="a_node3"><a xlink:href="group__mat__formats.html" target="_top" xlink:title="A module dedicated to the implementation and usage of the various Matrix Formats in Ginkgo.">
<polygon fill="#ffffff" stroke="#000000" points="379,-128.2002 236,-128.2002 236,-98.2002 379,-98.2002 379,-128.2002"/>
<text text-anchor="start" x="244" y="-116.2002" font-family="Helvetica,sans-Serif" font-size="10.00" fill="#000000">SpMV employing different</text>
<text text-anchor="middle" x="307.5" y="-105.2002" font-family="Helvetica,sans-Serif" font-size="10.00" fill="#000000"> Matrix formats</text>
</a>
</g>
</g>
<!-- Node1&#45;&gt;Node2 -->
<g id="edge1" class="edge">
<title>Node1&#45;&gt;Node2</title>
<path fill="none" stroke="#ffa500" stroke-dasharray="5,2" d="M72.0531,-93.2544C113.6677,-96.7798 183.1404,-102.6651 235.8635,-107.1316"/>
<text text-anchor="middle" x="154" y="-162.2002" font-family="Helvetica,sans-Serif" font-size="10.00" fill="#000000">gko::batch::matrix::Csr</text>
<text text-anchor="start" x="98" y="-151.2002" font-family="Helvetica,sans-Serif" font-size="10.00" fill="#000000">gko::batch::matrix</text>
<text text-anchor="middle" x="154" y="-140.2002" font-family="Helvetica,sans-Serif" font-size="10.00" fill="#000000">::Dense</text>
<text text-anchor="middle" x="154" y="-129.2002" font-family="Helvetica,sans-Serif" font-size="10.00" fill="#000000">gko::batch::matrix::Ell</text>
<text text-anchor="start" x="98" y="-118.2002" font-family="Helvetica,sans-Serif" font-size="10.00" fill="#000000">gko::batch::matrix</text>
<text text-anchor="middle" x="154" y="-107.2002" font-family="Helvetica,sans-Serif" font-size="10.00" fill="#000000">::Identity</text>
</g>
<!-- Node3 -->
<g id="node4" class="node">
<title>Node3</title>
<g id="a_node4"><a xlink:href="group__jacobi.html" target="_top" xlink:title="A module dedicated to the implementation and usage of the Jacobi Preconditioner in Ginkgo.">
<polygon fill="#ffffff" stroke="#000000" points="367,-77.7002 248,-77.7002 248,-58.7002 367,-58.7002 367,-77.7002"/>
<text text-anchor="middle" x="307.5" y="-65.7002" font-family="Helvetica,sans-Serif" font-size="10.00" fill="#000000">Jacobi Preconditioner</text>
</a>
</g>
</g>
<!-- Node1&#45;&gt;Node3 -->
<g id="edge2" class="edge">
<title>Node1&#45;&gt;Node3</title>
<path fill="none" stroke="#ffa500" stroke-dasharray="5,2" d="M55.4875,-80.6246C65.535,-76.2082 78.1414,-71.4531 90,-69.2002 142.6781,-59.1923 203.8365,-59.9793 247.8594,-62.6647"/>
<text text-anchor="start" x="90" y="-83.2002" font-family="Helvetica,sans-Serif" font-size="10.00" fill="#000000">gko::batch::preconditioner</text>
<text text-anchor="middle" x="154" y="-72.2002" font-family="Helvetica,sans-Serif" font-size="10.00" fill="#000000">::Jacobi</text>
</g>
<!-- Node5 -->
<g id="node5" class="node">
<title>Node5</title>
<g id="a_node5"><a xlink:href="group__solvers.html" target="_top" xlink:title="A module dedicated to the implementation and usage of the Solvers in Ginkgo.">
<polygon fill="#ffffff" stroke="#000000" points="334,-21.7002 281,-21.7002 281,-2.7002 334,-2.7002 334,-21.7002"/>
<text text-anchor="middle" x="307.5" y="-9.7002" font-family="Helvetica,sans-Serif" font-size="10.00" fill="#000000">Solvers</text>
</a>
</g>
</g>
<!-- Node1&#45;&gt;Node5 -->
<g id="edge4" class="edge">
<title>Node1&#45;&gt;Node5</title>
<path fill="none" stroke="#ffa500" stroke-dasharray="5,2" d="M40.6002,-80.2448C48.328,-64.8357 65.5102,-35.6858 90,-23.2002 152.3148,8.5696 238.1507,.1666 280.9696,-6.9381"/>
<text text-anchor="start" x="101" y="-48.2002" font-family="Helvetica,sans-Serif" font-size="10.00" fill="#000000">gko::batch::solver</text>
<text text-anchor="middle" x="154" y="-37.2002" font-family="Helvetica,sans-Serif" font-size="10.00" fill="#000000">::Bicgstab</text>
<text text-anchor="middle" x="154" y="-26.2002" font-family="Helvetica,sans-Serif" font-size="10.00" fill="#000000">gko::batch::solver::Cg</text>
</g>
</g>
</svg>
