<?xml version="1.0" encoding="UTF-8" standalone="no"?>
<!DOCTYPE svg PUBLIC "-//W3C//DTD SVG 1.1//EN"
 "http://www.w3.org/Graphics/SVG/1.1/DTD/svg11.dtd">
<!-- Generated by graphviz version 2.40.1 (20161225.0304)
 -->
<!-- Title: gko::preconditioner::Jacobi&lt; ValueType, IndexType &gt;::parameters_type Pages: 1 -->
<svg width="1178pt" height="178pt"
 viewBox="0.00 0.00 1178.00 178.00" xmlns="http://www.w3.org/2000/svg" xmlns:xlink="http://www.w3.org/1999/xlink">
<g id="graph0" class="graph" transform="scale(1 1) rotate(0) translate(4 174)">
<title>gko::preconditioner::Jacobi&lt; ValueType, IndexType &gt;::parameters_type</title>
<polygon fill="#ffffff" stroke="transparent" points="-4,4 -4,-174 1174,-174 1174,4 -4,4"/>
<!-- Node1 -->
<g id="node1" class="node">
<title>Node1</title>
<g id="a_node1"><a xlink:title=" ">
<polygon fill="#bfbfbf" stroke="#000000" points="1000,-77.5 1000,-118.5 1170,-118.5 1170,-77.5 1000,-77.5"/>
<text text-anchor="start" x="1008" y="-106.5" font-family="Helvetica,sans-Serif" font-size="10.00" fill="#000000">gko::preconditioner</text>
<text text-anchor="start" x="1008" y="-95.5" font-family="Helvetica,sans-Serif" font-size="10.00" fill="#000000">::Jacobi&lt; ValueType,</text>
<text text-anchor="middle" x="1085" y="-84.5" font-family="Helvetica,sans-Serif" font-size="10.00" fill="#000000"> IndexType &gt;::parameters_type</text>
</a>
</g>
</g>
<!-- Node2 -->
<g id="node2" class="node">
<title>Node2</title>
<g id="a_node2"><a xlink:href="classgko_1_1enable__parameters__type.html" target="_top" xlink:title=" ">
<polygon fill="#ffffff" stroke="#000000" points="696.5,-127.5 696.5,-168.5 837.5,-168.5 837.5,-127.5 696.5,-127.5"/>
<text text-anchor="start" x="704.5" y="-156.5" font-family="Helvetica,sans-Serif" font-size="10.00" fill="#000000">gko::enable_parameters</text>
<text text-anchor="start" x="704.5" y="-145.5" font-family="Helvetica,sans-Serif" font-size="10.00" fill="#000000">_type&lt; parameters_type,</text>
<text text-anchor="middle" x="767" y="-134.5" font-family="Helvetica,sans-Serif" font-size="10.00" fill="#000000"> Factory &gt;</text>
</a>
</g>
</g>
<!-- Node2&#45;&gt;Node1 -->
<g id="edge1" class="edge">
<title>Node2&#45;&gt;Node1</title>
<path fill="none" stroke="#191970" d="M847.6174,-135.3243C894.1591,-128.0064 952.6502,-118.8097 999.9255,-111.3765"/>
<polygon fill="#191970" stroke="#191970" points="846.9095,-131.8925 837.5745,-136.9034 847.9968,-138.8076 846.9095,-131.8925"/>
</g>
<!-- Node3 -->
<g id="node3" class="node">
<title>Node3</title>
<g id="a_node3"><a xlink:href="classgko_1_1enable__parameters__type.html" target="_top" xlink:title="The enable_parameters_type mixin is used to create a base implementation of the factory parameters st...">
<polygon fill="#ffffff" stroke="#000000" points="319,-127.5 319,-168.5 498,-168.5 498,-127.5 319,-127.5"/>
<text text-anchor="start" x="327" y="-156.5" font-family="Helvetica,sans-Serif" font-size="10.00" fill="#000000">gko::enable_parameters</text>
<text text-anchor="start" x="327" y="-145.5" font-family="Helvetica,sans-Serif" font-size="10.00" fill="#000000">_type&lt; ConcreteParametersType,</text>
<text text-anchor="middle" x="408.5" y="-134.5" font-family="Helvetica,sans-Serif" font-size="10.00" fill="#000000"> Factory &gt;</text>
</a>
</g>
</g>
<!-- Node3&#45;&gt;Node2 -->
<g id="edge2" class="edge">
<title>Node3&#45;&gt;Node2</title>
<path fill="none" stroke="#ffa500" stroke-dasharray="5,2" d="M508.2567,-148C568.0195,-148 642.5661,-148 696.2714,-148"/>
<polygon fill="#ffa500" stroke="#ffa500" points="508.04,-144.5001 498.0399,-148 508.0399,-151.5001 508.04,-144.5001"/>
<text text-anchor="start" x="537" y="-162" font-family="Helvetica,sans-Serif" font-size="10.00" fill="#000000"> &lt; parameters_type,</text>
<text text-anchor="middle" x="587.5" y="-151" font-family="Helvetica,sans-Serif" font-size="10.00" fill="#000000"> Factory &gt;</text>
</g>
<!-- Node4 -->
<g id="node4" class="node">
<title>Node4</title>
<g id="a_node4"><a xlink:href="classgko_1_1array.html" target="_top" xlink:title=" ">
<polygon fill="#ffffff" stroke="#000000" points="516,-88.5 516,-107.5 659,-107.5 659,-88.5 516,-88.5"/>
<text text-anchor="middle" x="587.5" y="-95.5" font-family="Helvetica,sans-Serif" font-size="10.00" fill="#000000">gko::array&lt; index_type &gt;</text>
</a>
</g>
</g>
<!-- Node4&#45;&gt;Node1 -->
<g id="edge3" class="edge">
<title>Node4&#45;&gt;Node1</title>
<path fill="none" stroke="#9a32cd" stroke-dasharray="5,2" d="M669.0552,-98C760.2132,-98 907.1492,-98 999.7733,-98"/>
<polygon fill="#9a32cd" stroke="#9a32cd" points="669.0444,-94.5001 659.0444,-98 669.0443,-101.5001 669.0444,-94.5001"/>
<text text-anchor="middle" x="767" y="-101" font-family="Helvetica,sans-Serif" font-size="10.00" fill="#000000"> block_pointers</text>
</g>
<!-- Node5 -->
<g id="node5" class="node">
<title>Node5</title>
<g id="a_node5"><a xlink:href="classgko_1_1array.html" target="_top" xlink:title="An array is a container which encapsulates fixed&#45;sized arrays, stored on the Executor tied to the arr...">
<polygon fill="#ffffff" stroke="#000000" points="0,-66.5 0,-85.5 138,-85.5 138,-66.5 0,-66.5"/>
<text text-anchor="middle" x="69" y="-73.5" font-family="Helvetica,sans-Serif" font-size="10.00" fill="#000000">gko::array&lt; ValueType &gt;</text>
</a>
</g>
</g>
<!-- Node5&#45;&gt;Node4 -->
<g id="edge4" class="edge">
<title>Node5&#45;&gt;Node4</title>
<path fill="none" stroke="#ffa500" stroke-dasharray="5,2" d="M148.188,-79.36C248.3916,-83.6116 419.5075,-90.8721 515.9444,-94.9639"/>
<polygon fill="#ffa500" stroke="#ffa500" points="148.2602,-75.86 138.1208,-78.9328 147.9634,-82.8537 148.2602,-75.86"/>
<text text-anchor="middle" x="228.5" y="-88" font-family="Helvetica,sans-Serif" font-size="10.00" fill="#000000"> &lt; index_type &gt;</text>
</g>
<!-- Node7 -->
<g id="node7" class="node">
<title>Node7</title>
<g id="a_node7"><a xlink:href="classgko_1_1array.html" target="_top" xlink:title=" ">
<polygon fill="#ffffff" stroke="#000000" points="335.5,-39 335.5,-69 481.5,-69 481.5,-39 335.5,-39"/>
<text text-anchor="start" x="343.5" y="-57" font-family="Helvetica,sans-Serif" font-size="10.00" fill="#000000">gko::array&lt; gko::precision</text>
<text text-anchor="middle" x="408.5" y="-46" font-family="Helvetica,sans-Serif" font-size="10.00" fill="#000000">_reduction &gt;</text>
</a>
</g>
</g>
<!-- Node5&#45;&gt;Node7 -->
<g id="edge7" class="edge">
<title>Node5&#45;&gt;Node7</title>
<path fill="none" stroke="#ffa500" stroke-dasharray="5,2" d="M148.3317,-65.6945C150.9167,-65.4466 153.478,-65.214 156,-65 216.3353,-59.8802 284.9952,-57.0837 335.472,-55.5935"/>
<polygon fill="#ffa500" stroke="#ffa500" points="147.8711,-62.2232 138.2776,-66.7193 148.581,-69.1871 147.8711,-62.2232"/>
<text text-anchor="middle" x="228.5" y="-68" font-family="Helvetica,sans-Serif" font-size="10.00" fill="#000000"> &lt; gko::precision_reduction &gt;</text>
</g>
<!-- Node6 -->
<g id="node6" class="node">
<title>Node6</title>
<g id="a_node6"><a xlink:title=" ">
<polygon fill="#ffffff" stroke="#bfbfbf" points="677,-9 677,-61 857,-61 857,-9 677,-9"/>
<text text-anchor="start" x="685" y="-49" font-family="Helvetica,sans-Serif" font-size="10.00" fill="#000000">gko::preconditioner</text>
<text text-anchor="start" x="685" y="-38" font-family="Helvetica,sans-Serif" font-size="10.00" fill="#000000">::Jacobi&lt; ValueType,</text>
<text text-anchor="start" x="685" y="-27" font-family="Helvetica,sans-Serif" font-size="10.00" fill="#000000"> IndexType &gt;::parameters</text>
<text text-anchor="middle" x="767" y="-16" font-family="Helvetica,sans-Serif" font-size="10.00" fill="#000000">_type::storage_optimization_type</text>
</a>
</g>
</g>
<!-- Node6&#45;&gt;Node1 -->
<g id="edge5" class="edge">
<title>Node6&#45;&gt;Node1</title>
<path fill="none" stroke="#9a32cd" stroke-dasharray="5,2" d="M867.2898,-51.3735C903.531,-57.6465 944.6977,-65.1847 982,-73 988.6637,-74.3961 995.5528,-75.9109 1002.4629,-77.4809"/>
<polygon fill="#9a32cd" stroke="#9a32cd" points="867.6545,-47.8849 857.2058,-49.6385 866.4675,-54.7835 867.6545,-47.8849"/>
<text text-anchor="middle" x="928.5" y="-76" font-family="Helvetica,sans-Serif" font-size="10.00" fill="#000000"> storage_optimization</text>
</g>
<!-- Node7&#45;&gt;Node6 -->
<g id="edge6" class="edge">
<title>Node7&#45;&gt;Node6</title>
<path fill="none" stroke="#9a32cd" stroke-dasharray="5,2" d="M492.05,-49.572C547.4569,-46.6355 620.1235,-42.7842 676.8364,-39.7785"/>
<polygon fill="#9a32cd" stroke="#9a32cd" points="491.7136,-46.0848 481.9129,-50.1092 492.0842,-53.075 491.7136,-46.0848"/>
<text text-anchor="middle" x="587.5" y="-50" font-family="Helvetica,sans-Serif" font-size="10.00" fill="#000000"> block_wise</text>
</g>
<!-- Node8 -->
<g id="node8" class="node">
<title>Node8</title>
<g id="a_node8"><a xlink:href="classgko_1_1precision__reduction.html" target="_top" xlink:title="This class is used to encode storage precisions of low precision algorithms.">
<polygon fill="#ffffff" stroke="#000000" points="340.5,-.5 340.5,-19.5 476.5,-19.5 476.5,-.5 340.5,-.5"/>
<text text-anchor="middle" x="408.5" y="-7.5" font-family="Helvetica,sans-Serif" font-size="10.00" fill="#000000">gko::precision_reduction</text>
</a>
</g>
</g>
<!-- Node8&#45;&gt;Node6 -->
<g id="edge8" class="edge">
<title>Node8&#45;&gt;Node6</title>
<path fill="none" stroke="#9a32cd" stroke-dasharray="5,2" d="M486.5355,-15.1713C535.9668,-18.4779 601.2375,-22.9007 659,-27 664.8138,-27.4126 670.8033,-27.8426 676.8406,-28.2797"/>
<polygon fill="#9a32cd" stroke="#9a32cd" points="486.7633,-11.6788 476.5522,-14.5043 486.2966,-18.6633 486.7633,-11.6788"/>
<text text-anchor="middle" x="587.5" y="-30" font-family="Helvetica,sans-Serif" font-size="10.00" fill="#000000"> of_all_blocks</text>
</g>
</g>
</svg>
