<?xml version="1.0" encoding="UTF-8" standalone="no"?>
<!DOCTYPE svg PUBLIC "-//W3C//DTD SVG 1.1//EN"
 "http://www.w3.org/Graphics/SVG/1.1/DTD/svg11.dtd">
<!-- Generated by graphviz version 2.40.1 (20161225.0304)
 -->
<!-- Title: gko::solver::enable_iterative_solver_factory_parameters&lt; Parameters, Factory &gt; Pages: 1 -->
<!--zoomable 431 -->
<svg id="main" version="1.1" xmlns="http://www.w3.org/2000/svg" xmlns:xlink="http://www.w3.org/1999/xlink" xml:space="preserve" onload="init(evt)">
<style type="text/css"><![CDATA[
.edge:hover path { stroke: red; }
.edge:hover polygon { stroke: red; fill: red; }
]]></style>
<script type="text/javascript"><![CDATA[
var edges = document.getElementsByTagName('g');
if (edges && edges.length) {
  for (var i=0;i<edges.length;i++) {
    if (edges[i].id.substr(0,4)=='edge') {
      edges[i].setAttribute('class','edge');
    }
  }
}
]]></script>
        <defs>
                <circle id="rim" cx="0" cy="0" r="7"/>
                <circle id="rim2" cx="0" cy="0" r="3.5"/>
                <g id="zoomPlus">
                        <use xlink:href="#rim" fill="#404040">
                                <set attributeName="fill" to="#808080" begin="zoomplus.mouseover" end="zoomplus.mouseout"/>
                        </use>
                        <path d="M-4,0h8M0,-4v8" fill="none" stroke="white" stroke-width="1.5" pointer-events="none"/>
                </g>
                <g id="zoomMin">
                        <use xlink:href="#rim" fill="#404040">
                                <set attributeName="fill" to="#808080" begin="zoomminus.mouseover" end="zoomminus.mouseout"/>
                        </use>
                        <path d="M-4,0h8" fill="none" stroke="white" stroke-width="1.5" pointer-events="none"/>
                </g>
                <g id="dirArrow">
                        <path fill="none" stroke="white" stroke-width="1.5" d="M0,-3.0v7 M-2.5,-0.5L0,-3.0L2.5,-0.5"/>
                </g>
               <g id="resetDef">
                       <use xlink:href="#rim2" fill="#404040">
                               <set attributeName="fill" to="#808080" begin="reset.mouseover" end="reset.mouseout"/>
                       </use>
               </g>
        </defs>

<script type="text/javascript">
var viewWidth = 1500;
var viewHeight = 431;
var sectionId = 'dynsection-0';
</script>
<script xlink:href="svgpan.js"/>
<svg id="graph" class="graph">
<g id="viewport">
<title>gko::solver::enable_iterative_solver_factory_parameters&lt; Parameters, Factory &gt;</title>
<polygon fill="#ffffff" stroke="transparent" points="-4,4 -4,-427 1496,-427 1496,4 -4,4"/>
<!-- Node1 -->
<g id="node1" class="node">
<title>Node1</title>
<g id="a_node1"><a xlink:title=" ">
<polygon fill="#bfbfbf" stroke="#000000" points="538,-153.5 538,-205.5 686,-205.5 686,-153.5 538,-153.5"/>
<text text-anchor="start" x="546" y="-193.5" font-family="Helvetica,sans-Serif" font-size="10.00" fill="#000000">gko::solver::enable</text>
<text text-anchor="start" x="546" y="-182.5" font-family="Helvetica,sans-Serif" font-size="10.00" fill="#000000">_iterative_solver_factory</text>
<text text-anchor="start" x="546" y="-171.5" font-family="Helvetica,sans-Serif" font-size="10.00" fill="#000000">_parameters&lt; Parameters,</text>
<text text-anchor="middle" x="612" y="-160.5" font-family="Helvetica,sans-Serif" font-size="10.00" fill="#000000"> Factory &gt;</text>
</a>
</g>
</g>
<!-- Node4 -->
<g id="node4" class="node">
<title>Node4</title>
<g id="a_node4"><a xlink:href="structgko_1_1solver_1_1enable__preconditioned__iterative__solver__factory__parameters.html" target="_top" xlink:title=" ">
<polygon fill="#ffffff" stroke="#000000" points="823,-189.5 823,-241.5 976,-241.5 976,-189.5 823,-189.5"/>
<text text-anchor="start" x="831" y="-229.5" font-family="Helvetica,sans-Serif" font-size="10.00" fill="#000000">gko::solver::enable</text>
<text text-anchor="start" x="831" y="-218.5" font-family="Helvetica,sans-Serif" font-size="10.00" fill="#000000">_preconditioned_iterative</text>
<text text-anchor="start" x="831" y="-207.5" font-family="Helvetica,sans-Serif" font-size="10.00" fill="#000000">_solver_factory_parameters</text>
<text text-anchor="middle" x="899.5" y="-196.5" font-family="Helvetica,sans-Serif" font-size="10.00" fill="#000000">&lt; Parameters, Factory &gt;</text>
</a>
</g>
</g>
<!-- Node1&#45;&gt;Node4 -->
<g id="edge3" class="edge">
<title>Node1&#45;&gt;Node4</title>
<path fill="none" stroke="#191970" d="M696.3409,-191.4966C698.9226,-191.8386 701.4804,-192.1738 704,-192.5 743.1455,-197.5677 786.7635,-202.7444 822.85,-206.9001"/>
<polygon fill="#191970" stroke="#191970" points="696.6706,-188.0096 686.294,-190.1492 695.7401,-194.9474 696.6706,-188.0096"/>
</g>
<!-- Node15 -->
<g id="node15" class="node">
<title>Node15</title>
<g id="a_node15"><a xlink:href="structgko_1_1solver_1_1enable__iterative__solver__factory__parameters.html" target="_top" xlink:title=" ">
<polygon fill="#ffffff" stroke="#000000" points="826.5,-118.5 826.5,-170.5 972.5,-170.5 972.5,-118.5 826.5,-118.5"/>
<text text-anchor="start" x="834.5" y="-158.5" font-family="Helvetica,sans-Serif" font-size="10.00" fill="#000000">gko::solver::enable</text>
<text text-anchor="start" x="834.5" y="-147.5" font-family="Helvetica,sans-Serif" font-size="10.00" fill="#000000">_iterative_solver_factory</text>
<text text-anchor="start" x="834.5" y="-136.5" font-family="Helvetica,sans-Serif" font-size="10.00" fill="#000000">_parameters&lt; parameters</text>
<text text-anchor="middle" x="899.5" y="-125.5" font-family="Helvetica,sans-Serif" font-size="10.00" fill="#000000">_type, Factory &gt;</text>
</a>
</g>
</g>
<!-- Node1&#45;&gt;Node15 -->
<g id="edge14" class="edge">
<title>Node1&#45;&gt;Node15</title>
<path fill="none" stroke="#ffa500" stroke-dasharray="5,2" d="M696.0676,-169.2657C737.3095,-164.2449 786.5207,-158.254 826.2106,-153.4222"/>
<polygon fill="#ffa500" stroke="#ffa500" points="695.5421,-165.8037 686.0384,-170.4866 696.3881,-172.7524 695.5421,-165.8037"/>
<text text-anchor="start" x="704" y="-182.5" font-family="Helvetica,sans-Serif" font-size="10.00" fill="#000000"> &lt; parameters_type,</text>
<text text-anchor="middle" x="754.5" y="-171.5" font-family="Helvetica,sans-Serif" font-size="10.00" fill="#000000"> Factory &gt;</text>
</g>
<!-- Node2 -->
<g id="node2" class="node">
<title>Node2</title>
<g id="a_node2"><a xlink:href="classgko_1_1enable__parameters__type.html" target="_top" xlink:title=" ">
<polygon fill="#ffffff" stroke="#000000" points="338,-164.5 338,-194.5 501,-194.5 501,-164.5 338,-164.5"/>
<text text-anchor="start" x="346" y="-182.5" font-family="Helvetica,sans-Serif" font-size="10.00" fill="#000000">gko::enable_parameters</text>
<text text-anchor="middle" x="419.5" y="-171.5" font-family="Helvetica,sans-Serif" font-size="10.00" fill="#000000">_type&lt; Parameters, Factory &gt;</text>
</a>
</g>
</g>
<!-- Node2&#45;&gt;Node1 -->
<g id="edge1" class="edge">
<title>Node2&#45;&gt;Node1</title>
<path fill="none" stroke="#191970" d="M511.1958,-179.5C520.139,-179.5 529.1349,-179.5 537.8735,-179.5"/>
<polygon fill="#191970" stroke="#191970" points="511.1374,-176.0001 501.1373,-179.5 511.1373,-183.0001 511.1374,-176.0001"/>
</g>
<!-- Node3 -->
<g id="node3" class="node">
<title>Node3</title>
<g id="a_node3"><a xlink:href="classgko_1_1enable__parameters__type.html" target="_top" xlink:title="The enable_parameters_type mixin is used to create a base implementation of the factory parameters st...">
<polygon fill="#ffffff" stroke="#000000" points="0,-159 0,-200 179,-200 179,-159 0,-159"/>
<text text-anchor="start" x="8" y="-188" font-family="Helvetica,sans-Serif" font-size="10.00" fill="#000000">gko::enable_parameters</text>
<text text-anchor="start" x="8" y="-177" font-family="Helvetica,sans-Serif" font-size="10.00" fill="#000000">_type&lt; ConcreteParametersType,</text>
<text text-anchor="middle" x="89.5" y="-166" font-family="Helvetica,sans-Serif" font-size="10.00" fill="#000000"> Factory &gt;</text>
</a>
</g>
</g>
<!-- Node3&#45;&gt;Node2 -->
<g id="edge2" class="edge">
<title>Node3&#45;&gt;Node2</title>
<path fill="none" stroke="#ffa500" stroke-dasharray="5,2" d="M189.2501,-179.5C236.8162,-179.5 293.0061,-179.5 337.9696,-179.5"/>
<polygon fill="#ffa500" stroke="#ffa500" points="189.2381,-176.0001 179.2381,-179.5 189.238,-183.0001 189.2381,-176.0001"/>
<text text-anchor="middle" x="258.5" y="-182.5" font-family="Helvetica,sans-Serif" font-size="10.00" fill="#000000"> &lt; Parameters, Factory &gt;</text>
</g>
<!-- Node5 -->
<g id="node5" class="node">
<title>Node5</title>
<g id="a_node5"><a xlink:href="structgko_1_1solver_1_1enable__preconditioned__iterative__solver__factory__parameters.html" target="_top" xlink:title=" ">
<polygon fill="#ffffff" stroke="#000000" points="1113,-185.5 1113,-237.5 1277,-237.5 1277,-185.5 1113,-185.5"/>
<text text-anchor="start" x="1121" y="-225.5" font-family="Helvetica,sans-Serif" font-size="10.00" fill="#000000">gko::solver::enable</text>
<text text-anchor="start" x="1121" y="-214.5" font-family="Helvetica,sans-Serif" font-size="10.00" fill="#000000">_preconditioned_iterative</text>
<text text-anchor="start" x="1121" y="-203.5" font-family="Helvetica,sans-Serif" font-size="10.00" fill="#000000">_solver_factory_parameters</text>
<text text-anchor="middle" x="1195" y="-192.5" font-family="Helvetica,sans-Serif" font-size="10.00" fill="#000000">&lt; parameters_type, Factory &gt;</text>
</a>
</g>
</g>
<!-- Node4&#45;&gt;Node5 -->
<g id="edge4" class="edge">
<title>Node4&#45;&gt;Node5</title>
<path fill="none" stroke="#ffa500" stroke-dasharray="5,2" d="M986.6146,-214.3208C1026.5116,-213.7807 1073.5455,-213.1441 1112.8233,-212.6124"/>
<polygon fill="#ffa500" stroke="#ffa500" points="986.3194,-210.8244 976.3677,-214.4595 986.4142,-217.8237 986.3194,-210.8244"/>
<text text-anchor="start" x="994" y="-227.5" font-family="Helvetica,sans-Serif" font-size="10.00" fill="#000000"> &lt; parameters_type,</text>
<text text-anchor="middle" x="1044.5" y="-216.5" font-family="Helvetica,sans-Serif" font-size="10.00" fill="#000000"> Factory &gt;</text>
</g>
<!-- Node6 -->
<g id="node6" class="node">
<title>Node6</title>
<g id="a_node6"><a xlink:href="structgko_1_1solver_1_1Bicg_1_1parameters__type.html" target="_top" xlink:title=" ">
<polygon fill="#ffffff" stroke="#000000" points="1318,-392.5 1318,-422.5 1488,-422.5 1488,-392.5 1318,-392.5"/>
<text text-anchor="start" x="1326" y="-410.5" font-family="Helvetica,sans-Serif" font-size="10.00" fill="#000000">gko::solver::Bicg&lt;</text>
<text text-anchor="middle" x="1403" y="-399.5" font-family="Helvetica,sans-Serif" font-size="10.00" fill="#000000"> ValueType &gt;::parameters_type</text>
</a>
</g>
</g>
<!-- Node5&#45;&gt;Node6 -->
<g id="edge5" class="edge">
<title>Node5&#45;&gt;Node6</title>
<path fill="none" stroke="#191970" d="M1210.3855,-247.1602C1229.1646,-286.4466 1264.6311,-348.6652 1314,-383.5 1318.8381,-386.9138 1324.1368,-389.8421 1329.662,-392.354"/>
<polygon fill="#191970" stroke="#191970" points="1213.3709,-245.2806 1205.9724,-237.6968 1207.0268,-248.2391 1213.3709,-245.2806"/>
</g>
<!-- Node7 -->
<g id="node7" class="node">
<title>Node7</title>
<g id="a_node7"><a xlink:href="structgko_1_1solver_1_1Bicgstab_1_1parameters__type.html" target="_top" xlink:title=" ">
<polygon fill="#ffffff" stroke="#000000" points="1314,-343.5 1314,-373.5 1492,-373.5 1492,-343.5 1314,-343.5"/>
<text text-anchor="start" x="1322" y="-361.5" font-family="Helvetica,sans-Serif" font-size="10.00" fill="#000000">gko::solver::Bicgstab</text>
<text text-anchor="middle" x="1403" y="-350.5" font-family="Helvetica,sans-Serif" font-size="10.00" fill="#000000">&lt; ValueType &gt;::parameters_type</text>
</a>
</g>
</g>
<!-- Node5&#45;&gt;Node7 -->
<g id="edge6" class="edge">
<title>Node5&#45;&gt;Node7</title>
<path fill="none" stroke="#191970" d="M1219.7681,-245.921C1241.5637,-273.7677 1275.726,-311.9376 1314,-334.5 1319.7902,-337.9133 1326.0761,-340.8526 1332.5391,-343.3816"/>
<polygon fill="#191970" stroke="#191970" points="1222.2759,-243.4399 1213.4102,-237.6391 1216.7234,-247.7026 1222.2759,-243.4399"/>
</g>
<!-- Node8 -->
<g id="node8" class="node">
<title>Node8</title>
<g id="a_node8"><a xlink:href="structgko_1_1solver_1_1CbGmres_1_1parameters__type.html" target="_top" xlink:title=" ">
<polygon fill="#ffffff" stroke="#000000" points="1314,-294.5 1314,-324.5 1492,-324.5 1492,-294.5 1314,-294.5"/>
<text text-anchor="start" x="1322" y="-312.5" font-family="Helvetica,sans-Serif" font-size="10.00" fill="#000000">gko::solver::CbGmres</text>
<text text-anchor="middle" x="1403" y="-301.5" font-family="Helvetica,sans-Serif" font-size="10.00" fill="#000000">&lt; ValueType &gt;::parameters_type</text>
</a>
</g>
</g>
<!-- Node5&#45;&gt;Node8 -->
<g id="edge7" class="edge">
<title>Node5&#45;&gt;Node8</title>
<path fill="none" stroke="#191970" d="M1239.0763,-243.2361C1260.8059,-257.7334 1287.8993,-274.1601 1314,-285.5 1321.6325,-288.8161 1329.8364,-291.7752 1338.0647,-294.3857"/>
<polygon fill="#191970" stroke="#191970" points="1240.9646,-240.2878 1230.7213,-237.5812 1237.041,-246.0849 1240.9646,-240.2878"/>
</g>
<!-- Node9 -->
<g id="node9" class="node">
<title>Node9</title>
<g id="a_node9"><a xlink:href="structgko_1_1solver_1_1Cg_1_1parameters__type.html" target="_top" xlink:title=" ">
<polygon fill="#ffffff" stroke="#000000" points="1328,-245.5 1328,-275.5 1478,-275.5 1478,-245.5 1328,-245.5"/>
<text text-anchor="start" x="1336" y="-263.5" font-family="Helvetica,sans-Serif" font-size="10.00" fill="#000000">gko::solver::Cg&lt; ValueType</text>
<text text-anchor="middle" x="1403" y="-252.5" font-family="Helvetica,sans-Serif" font-size="10.00" fill="#000000"> &gt;::parameters_type</text>
</a>
</g>
</g>
<!-- Node5&#45;&gt;Node9 -->
<g id="edge8" class="edge">
<title>Node5&#45;&gt;Node9</title>
<path fill="none" stroke="#191970" d="M1287.4041,-233.2683C1304.8348,-237.3745 1322.7054,-241.5844 1339.0245,-245.4288"/>
<polygon fill="#191970" stroke="#191970" points="1287.7432,-229.7524 1277.2071,-230.8661 1286.1381,-236.5659 1287.7432,-229.7524"/>
</g>
<!-- Node10 -->
<g id="node10" class="node">
<title>Node10</title>
<g id="a_node10"><a xlink:href="structgko_1_1solver_1_1Cgs_1_1parameters__type.html" target="_top" xlink:title=" ">
<polygon fill="#ffffff" stroke="#000000" points="1325.5,-196.5 1325.5,-226.5 1480.5,-226.5 1480.5,-196.5 1325.5,-196.5"/>
<text text-anchor="start" x="1333.5" y="-214.5" font-family="Helvetica,sans-Serif" font-size="10.00" fill="#000000">gko::solver::Cgs&lt; ValueType</text>
<text text-anchor="middle" x="1403" y="-203.5" font-family="Helvetica,sans-Serif" font-size="10.00" fill="#000000"> &gt;::parameters_type</text>
</a>
</g>
</g>
<!-- Node5&#45;&gt;Node10 -->
<g id="edge9" class="edge">
<title>Node5&#45;&gt;Node10</title>
<path fill="none" stroke="#191970" d="M1287.3474,-211.5C1300.073,-211.5 1313.0342,-211.5 1325.4561,-211.5"/>
<polygon fill="#191970" stroke="#191970" points="1287.2071,-208.0001 1277.2071,-211.5 1287.2071,-215.0001 1287.2071,-208.0001"/>
</g>
<!-- Node11 -->
<g id="node11" class="node">
<title>Node11</title>
<g id="a_node11"><a xlink:href="structgko_1_1solver_1_1Fcg_1_1parameters__type.html" target="_top" xlink:title=" ">
<polygon fill="#ffffff" stroke="#000000" points="1326,-147.5 1326,-177.5 1480,-177.5 1480,-147.5 1326,-147.5"/>
<text text-anchor="start" x="1334" y="-165.5" font-family="Helvetica,sans-Serif" font-size="10.00" fill="#000000">gko::solver::Fcg&lt; ValueType</text>
<text text-anchor="middle" x="1403" y="-154.5" font-family="Helvetica,sans-Serif" font-size="10.00" fill="#000000"> &gt;::parameters_type</text>
</a>
</g>
</g>
<!-- Node5&#45;&gt;Node11 -->
<g id="edge10" class="edge">
<title>Node5&#45;&gt;Node11</title>
<path fill="none" stroke="#191970" d="M1287.4041,-189.7317C1304.8348,-185.6255 1322.7054,-181.4156 1339.0245,-177.5712"/>
<polygon fill="#191970" stroke="#191970" points="1286.1381,-186.4341 1277.2071,-192.1339 1287.7432,-193.2476 1286.1381,-186.4341"/>
</g>
<!-- Node12 -->
<g id="node12" class="node">
<title>Node12</title>
<g id="a_node12"><a xlink:href="structgko_1_1solver_1_1Gcr_1_1parameters__type.html" target="_top" xlink:title=" ">
<polygon fill="#ffffff" stroke="#000000" points="1326,-98.5 1326,-128.5 1480,-128.5 1480,-98.5 1326,-98.5"/>
<text text-anchor="start" x="1334" y="-116.5" font-family="Helvetica,sans-Serif" font-size="10.00" fill="#000000">gko::solver::Gcr&lt; ValueType</text>
<text text-anchor="middle" x="1403" y="-105.5" font-family="Helvetica,sans-Serif" font-size="10.00" fill="#000000"> &gt;::parameters_type</text>
</a>
</g>
</g>
<!-- Node5&#45;&gt;Node12 -->
<g id="edge11" class="edge">
<title>Node5&#45;&gt;Node12</title>
<path fill="none" stroke="#191970" d="M1260.9178,-180.5059C1266.4666,-177.31 1271.8998,-173.9592 1277,-170.5 1295.2359,-158.1314 1294.6191,-147.9838 1314,-137.5 1320.3342,-134.0736 1327.1915,-131.1103 1334.1923,-128.553"/>
<polygon fill="#191970" stroke="#191970" points="1259.1704,-177.4728 1252.1344,-185.3939 1262.5744,-183.5894 1259.1704,-177.4728"/>
</g>
<!-- Node13 -->
<g id="node13" class="node">
<title>Node13</title>
<g id="a_node13"><a xlink:href="structgko_1_1solver_1_1Gmres_1_1parameters__type.html" target="_top" xlink:title=" ">
<polygon fill="#ffffff" stroke="#000000" points="1314,-49.5 1314,-79.5 1492,-79.5 1492,-49.5 1314,-49.5"/>
<text text-anchor="start" x="1322" y="-67.5" font-family="Helvetica,sans-Serif" font-size="10.00" fill="#000000">gko::solver::Gmres</text>
<text text-anchor="middle" x="1403" y="-56.5" font-family="Helvetica,sans-Serif" font-size="10.00" fill="#000000">&lt; ValueType &gt;::parameters_type</text>
</a>
</g>
</g>
<!-- Node5&#45;&gt;Node13 -->
<g id="edge12" class="edge">
<title>Node5&#45;&gt;Node13</title>
<path fill="none" stroke="#191970" d="M1266.7969,-179.609C1270.439,-176.7846 1273.8758,-173.751 1277,-170.5 1304.7042,-141.6713 1283.5529,-114.4151 1314,-88.5 1318.0216,-85.077 1322.4853,-82.1377 1327.2102,-79.6143"/>
<polygon fill="#191970" stroke="#191970" points="1264.6735,-176.824 1258.5377,-185.4613 1268.7206,-182.5355 1264.6735,-176.824"/>
</g>
<!-- Node14 -->
<g id="node14" class="node">
<title>Node14</title>
<g id="a_node14"><a xlink:href="structgko_1_1solver_1_1Idr_1_1parameters__type.html" target="_top" xlink:title=" ">
<polygon fill="#ffffff" stroke="#000000" points="1328,-.5 1328,-30.5 1478,-30.5 1478,-.5 1328,-.5"/>
<text text-anchor="start" x="1336" y="-18.5" font-family="Helvetica,sans-Serif" font-size="10.00" fill="#000000">gko::solver::Idr&lt; ValueType</text>
<text text-anchor="middle" x="1403" y="-7.5" font-family="Helvetica,sans-Serif" font-size="10.00" fill="#000000"> &gt;::parameters_type</text>
</a>
</g>
</g>
<!-- Node5&#45;&gt;Node14 -->
<g id="edge13" class="edge">
<title>Node5&#45;&gt;Node14</title>
<path fill="none" stroke="#191970" d="M1268.5539,-179.1353C1271.605,-176.4595 1274.4476,-173.585 1277,-170.5 1315.5669,-123.8863 1270.9668,-82.0252 1314,-39.5 1318.0979,-35.4505 1322.8033,-32.0653 1327.8642,-29.2376"/>
<polygon fill="#191970" stroke="#191970" points="1266.2956,-176.4583 1260.5867,-185.3835 1270.6154,-181.9665 1266.2956,-176.4583"/>
</g>
<!-- Node15&#45;&gt;Node5 -->
<g id="edge15" class="edge">
<title>Node15&#45;&gt;Node5</title>
<path fill="none" stroke="#191970" d="M982.4559,-163.3089C1023.2377,-172.5556 1072.2322,-183.6643 1112.8984,-192.8847"/>
<polygon fill="#191970" stroke="#191970" points="983.0714,-159.8597 972.545,-161.0618 981.5235,-166.6865 983.0714,-159.8597"/>
</g>
<!-- Node16 -->
<g id="node16" class="node">
<title>Node16</title>
<g id="a_node16"><a xlink:href="structgko_1_1solver_1_1Ir_1_1parameters__type.html" target="_top" xlink:title=" ">
<polygon fill="#ffffff" stroke="#000000" points="1123,-131.5 1123,-161.5 1267,-161.5 1267,-131.5 1123,-131.5"/>
<text text-anchor="start" x="1131" y="-149.5" font-family="Helvetica,sans-Serif" font-size="10.00" fill="#000000">gko::solver::Ir&lt; ValueType</text>
<text text-anchor="middle" x="1195" y="-138.5" font-family="Helvetica,sans-Serif" font-size="10.00" fill="#000000"> &gt;::parameters_type</text>
</a>
</g>
</g>
<!-- Node15&#45;&gt;Node16 -->
<g id="edge16" class="edge">
<title>Node15&#45;&gt;Node16</title>
<path fill="none" stroke="#191970" d="M982.6689,-145.0629C1026.779,-145.3614 1080.45,-145.7247 1122.7953,-146.0113"/>
<polygon fill="#191970" stroke="#191970" points="982.5685,-141.5622 972.545,-144.9944 982.521,-148.5621 982.5685,-141.5622"/>
</g>
<!-- Node17 -->
<g id="node17" class="node">
<title>Node17</title>
<g id="a_node17"><a xlink:href="structgko_1_1solver_1_1Multigrid_1_1parameters__type.html" target="_top" xlink:title=" ">
<polygon fill="#ffffff" stroke="#000000" points="1135.5,-82.5 1135.5,-112.5 1254.5,-112.5 1254.5,-82.5 1135.5,-82.5"/>
<text text-anchor="start" x="1143.5" y="-100.5" font-family="Helvetica,sans-Serif" font-size="10.00" fill="#000000">gko::solver::Multigrid</text>
<text text-anchor="middle" x="1195" y="-89.5" font-family="Helvetica,sans-Serif" font-size="10.00" fill="#000000">::parameters_type</text>
</a>
</g>
</g>
<!-- Node15&#45;&gt;Node17 -->
<g id="edge17" class="edge">
<title>Node15&#45;&gt;Node17</title>
<path fill="none" stroke="#191970" d="M982.7167,-131.2642C1031.2537,-123.5442 1091.3544,-113.9851 1135.2039,-107.0107"/>
<polygon fill="#191970" stroke="#191970" points="981.871,-127.8546 972.545,-132.882 982.9706,-134.7677 981.871,-127.8546"/>
</g>
</g>
</svg>
        <g id="navigator" transform="translate(0 0)" fill="#404254">
                <rect fill="#f2f5e9" fill-opacity="0.5" stroke="#606060" stroke-width=".5" x="0" y="0" width="60" height="60"/>
                <use id="zoomplus" xlink:href="#zoomPlus" x="17" y="9" onmousedown="handleZoom(evt,'in')"/>
                <use id="zoomminus" xlink:href="#zoomMin" x="42" y="9" onmousedown="handleZoom(evt,'out')"/>
                <use id="reset" xlink:href="#resetDef" x="30" y="36" onmousedown="handleReset()"/>
                <g id="arrowUp" xlink:href="#dirArrow" transform="translate(30 24)" onmousedown="handlePan(0,-1)">
                  <use xlink:href="#rim" fill="#404040">
                        <set attributeName="fill" to="#808080" begin="arrowUp.mouseover" end="arrowUp.mouseout"/>
                  </use>
                  <path fill="none" stroke="white" stroke-width="1.5" d="M0,-3.0v7 M-2.5,-0.5L0,-3.0L2.5,-0.5"/>
                </g>
                <g id="arrowRight" xlink:href="#dirArrow" transform="rotate(90) translate(36 -43)" onmousedown="handlePan(1,0)">
                  <use xlink:href="#rim" fill="#404040">
                        <set attributeName="fill" to="#808080" begin="arrowRight.mouseover" end="arrowRight.mouseout"/>
                  </use>
                  <path fill="none" stroke="white" stroke-width="1.5" d="M0,-3.0v7 M-2.5,-0.5L0,-3.0L2.5,-0.5"/>
                </g>
                <g id="arrowDown" xlink:href="#dirArrow" transform="rotate(180) translate(-30 -48)" onmousedown="handlePan(0,1)">
                  <use xlink:href="#rim" fill="#404040">
                        <set attributeName="fill" to="#808080" begin="arrowDown.mouseover" end="arrowDown.mouseout"/>
                  </use>
                  <path fill="none" stroke="white" stroke-width="1.5" d="M0,-3.0v7 M-2.5,-0.5L0,-3.0L2.5,-0.5"/>
                </g>
                <g id="arrowLeft" xlink:href="#dirArrow" transform="rotate(270) translate(-36 17)" onmousedown="handlePan(-1,0)">
                  <use xlink:href="#rim" fill="#404040">
                        <set attributeName="fill" to="#808080" begin="arrowLeft.mouseover" end="arrowLeft.mouseout"/>
                  </use>
                  <path fill="none" stroke="white" stroke-width="1.5" d="M0,-3.0v7 M-2.5,-0.5L0,-3.0L2.5,-0.5"/>
                </g>
        </g>
        <svg viewBox="0 0 15 15" width="100%" height="30px" preserveAspectRatio="xMaxYMin meet">
         <g id="arrow_out" transform="scale(0.3 0.3)">
          <a xlink:href="structgko_1_1solver_1_1enable__iterative__solver__factory__parameters__inherit__graph_org.svg" target="_base">
           <rect id="button" ry="5" rx="5" y="6" x="6" height="38" width="38"
                fill="#f2f5e9" fill-opacity="0.5" stroke="#606060" stroke-width="1.0"/>
           <path id="arrow"
             d="M 11.500037,31.436501 C 11.940474,20.09759 22.043105,11.32322 32.158766,21.979434 L 37.068811,17.246167 C 37.068811,17.246167 37.088388,32 37.088388,32 L 22.160133,31.978069 C 22.160133,31.978069 26.997745,27.140456 26.997745,27.140456 C 18.528582,18.264221 13.291696,25.230495 11.500037,31.436501 z"
             style="fill:#404040;"/>
          </a>
         </g>
        </svg>
</svg>
