<?xml version="1.0" encoding="UTF-8" standalone="no"?>
<!DOCTYPE svg PUBLIC "-//W3C//DTD SVG 1.1//EN"
 "http://www.w3.org/Graphics/SVG/1.1/DTD/svg11.dtd">
<!-- Generated by graphviz version 2.40.1 (20161225.0304)
 -->
<!-- Title: gko::solver::enable_preconditioned_iterative_solver_factory_parameters&lt; Parameters, Factory &gt; Pages: 1 -->
<svg width="1220pt" height="167pt"
 viewBox="0.00 0.00 1220.00 166.50" xmlns="http://www.w3.org/2000/svg" xmlns:xlink="http://www.w3.org/1999/xlink">
<g id="graph0" class="graph" transform="scale(1 1) rotate(0) translate(4 162.5)">
<title>gko::solver::enable_preconditioned_iterative_solver_factory_parameters&lt; Parameters, Factory &gt;</title>
<polygon fill="#ffffff" stroke="transparent" points="-4,4 -4,-162.5 1216,-162.5 1216,4 -4,4"/>
<!-- Node1 -->
<g id="node1" class="node">
<title>Node1</title>
<g id="a_node1"><a xlink:title=" ">
<polygon fill="#bfbfbf" stroke="#000000" points="1059,-38.5 1059,-90.5 1212,-90.5 1212,-38.5 1059,-38.5"/>
<text text-anchor="start" x="1067" y="-78.5" font-family="Helvetica,sans-Serif" font-size="10.00" fill="#000000">gko::solver::enable</text>
<text text-anchor="start" x="1067" y="-67.5" font-family="Helvetica,sans-Serif" font-size="10.00" fill="#000000">_preconditioned_iterative</text>
<text text-anchor="start" x="1067" y="-56.5" font-family="Helvetica,sans-Serif" font-size="10.00" fill="#000000">_solver_factory_parameters</text>
<text text-anchor="middle" x="1135.5" y="-45.5" font-family="Helvetica,sans-Serif" font-size="10.00" fill="#000000">&lt; Parameters, Factory &gt;</text>
</a>
</g>
</g>
<!-- Node2 -->
<g id="node2" class="node">
<title>Node2</title>
<g id="a_node2"><a xlink:href="structgko_1_1solver_1_1enable__iterative__solver__factory__parameters.html" target="_top" xlink:title=" ">
<polygon fill="#ffffff" stroke="#000000" points="746,-98.5 746,-150.5 894,-150.5 894,-98.5 746,-98.5"/>
<text text-anchor="start" x="754" y="-138.5" font-family="Helvetica,sans-Serif" font-size="10.00" fill="#000000">gko::solver::enable</text>
<text text-anchor="start" x="754" y="-127.5" font-family="Helvetica,sans-Serif" font-size="10.00" fill="#000000">_iterative_solver_factory</text>
<text text-anchor="start" x="754" y="-116.5" font-family="Helvetica,sans-Serif" font-size="10.00" fill="#000000">_parameters&lt; Parameters,</text>
<text text-anchor="middle" x="820" y="-105.5" font-family="Helvetica,sans-Serif" font-size="10.00" fill="#000000"> Factory &gt;</text>
</a>
</g>
</g>
<!-- Node2&#45;&gt;Node1 -->
<g id="edge1" class="edge">
<title>Node2&#45;&gt;Node1</title>
<path fill="none" stroke="#191970" d="M904.4363,-108.4424C952.4833,-99.3051 1012.1995,-87.9486 1058.8872,-79.0698"/>
<polygon fill="#191970" stroke="#191970" points="903.5396,-105.0501 894.3696,-110.3568 904.8474,-111.9269 903.5396,-105.0501"/>
</g>
<!-- Node3 -->
<g id="node3" class="node">
<title>Node3</title>
<g id="a_node3"><a xlink:href="classgko_1_1enable__parameters__type.html" target="_top" xlink:title=" ">
<polygon fill="#ffffff" stroke="#000000" points="387.5,-122.5 387.5,-152.5 550.5,-152.5 550.5,-122.5 387.5,-122.5"/>
<text text-anchor="start" x="395.5" y="-140.5" font-family="Helvetica,sans-Serif" font-size="10.00" fill="#000000">gko::enable_parameters</text>
<text text-anchor="middle" x="469" y="-129.5" font-family="Helvetica,sans-Serif" font-size="10.00" fill="#000000">_type&lt; Parameters, Factory &gt;</text>
</a>
</g>
</g>
<!-- Node3&#45;&gt;Node2 -->
<g id="edge2" class="edge">
<title>Node3&#45;&gt;Node2</title>
<path fill="none" stroke="#191970" d="M561.0519,-134.0907C618.6662,-131.9568 691.9194,-129.2437 745.8008,-127.2481"/>
<polygon fill="#191970" stroke="#191970" points="560.7145,-130.6007 550.8509,-134.4685 560.9736,-137.5959 560.7145,-130.6007"/>
</g>
<!-- Node4 -->
<g id="node4" class="node">
<title>Node4</title>
<g id="a_node4"><a xlink:href="classgko_1_1enable__parameters__type.html" target="_top" xlink:title="The enable_parameters_type mixin is used to create a base implementation of the factory parameters st...">
<polygon fill="#ffffff" stroke="#000000" points="0,-117 0,-158 179,-158 179,-117 0,-117"/>
<text text-anchor="start" x="8" y="-146" font-family="Helvetica,sans-Serif" font-size="10.00" fill="#000000">gko::enable_parameters</text>
<text text-anchor="start" x="8" y="-135" font-family="Helvetica,sans-Serif" font-size="10.00" fill="#000000">_type&lt; ConcreteParametersType,</text>
<text text-anchor="middle" x="89.5" y="-124" font-family="Helvetica,sans-Serif" font-size="10.00" fill="#000000"> Factory &gt;</text>
</a>
</g>
</g>
<!-- Node4&#45;&gt;Node3 -->
<g id="edge3" class="edge">
<title>Node4&#45;&gt;Node3</title>
<path fill="none" stroke="#ffa500" stroke-dasharray="5,2" d="M189.5884,-137.5C251.3299,-137.5 329.5172,-137.5 387.4712,-137.5"/>
<polygon fill="#ffa500" stroke="#ffa500" points="189.4362,-134.0001 179.4362,-137.5 189.4362,-141.0001 189.4362,-134.0001"/>
<text text-anchor="middle" x="274.5" y="-140.5" font-family="Helvetica,sans-Serif" font-size="10.00" fill="#000000"> &lt; Parameters, Factory &gt;</text>
</g>
<!-- Node5 -->
<g id="node5" class="node">
<title>Node5</title>
<g id="a_node5"><a xlink:title=" ">
<polygon fill="#ffffff" stroke="#bfbfbf" points="370,-73.5 370,-103.5 568,-103.5 568,-73.5 370,-73.5"/>
<text text-anchor="start" x="378" y="-91.5" font-family="Helvetica,sans-Serif" font-size="10.00" fill="#000000">std::vector&lt; std::shared</text>
<text text-anchor="middle" x="469" y="-80.5" font-family="Helvetica,sans-Serif" font-size="10.00" fill="#000000">_ptr&lt; const gko::AbstractFactory &gt; &gt;</text>
</a>
</g>
</g>
<!-- Node5&#45;&gt;Node2 -->
<g id="edge4" class="edge">
<title>Node5&#45;&gt;Node2</title>
<path fill="none" stroke="#9a32cd" stroke-dasharray="5,2" d="M578.139,-97.7032C624.4002,-101.8401 678.8711,-107.0216 728,-112.5 733.763,-113.1426 739.7245,-113.8418 745.7147,-114.569"/>
<polygon fill="#9a32cd" stroke="#9a32cd" points="578.3645,-94.2095 568.0937,-96.8098 577.7443,-101.182 578.3645,-94.2095"/>
<text text-anchor="middle" x="657" y="-115.5" font-family="Helvetica,sans-Serif" font-size="10.00" fill="#000000"> criteria</text>
</g>
<!-- Node6 -->
<g id="node6" class="node">
<title>Node6</title>
<g id="a_node6"><a xlink:title="STL class.">
<polygon fill="#ffffff" stroke="#bfbfbf" points="41,-79 41,-98 138,-98 138,-79 41,-79"/>
<text text-anchor="middle" x="89.5" y="-86" font-family="Helvetica,sans-Serif" font-size="10.00" fill="#000000">std::vector&lt; T &gt;</text>
</a>
</g>
</g>
<!-- Node6&#45;&gt;Node5 -->
<g id="edge5" class="edge">
<title>Node6&#45;&gt;Node5</title>
<path fill="none" stroke="#ffa500" stroke-dasharray="5,2" d="M148.6138,-88.5C207.7109,-88.5 299.6605,-88.5 369.9239,-88.5"/>
<polygon fill="#ffa500" stroke="#ffa500" points="148.3361,-85.0001 138.3361,-88.5 148.336,-92.0001 148.3361,-85.0001"/>
<text text-anchor="start" x="197" y="-102.5" font-family="Helvetica,sans-Serif" font-size="10.00" fill="#000000"> &lt; std::shared_ptr&lt;</text>
<text text-anchor="middle" x="274.5" y="-91.5" font-family="Helvetica,sans-Serif" font-size="10.00" fill="#000000"> const gko::AbstractFactory &gt; &gt;</text>
</g>
<!-- Node7 -->
<g id="node7" class="node">
<title>Node7</title>
<g id="a_node7"><a xlink:title=" ">
<polygon fill="#ffffff" stroke="#bfbfbf" points="756.5,-49.5 756.5,-79.5 883.5,-79.5 883.5,-49.5 756.5,-49.5"/>
<text text-anchor="start" x="764.5" y="-67.5" font-family="Helvetica,sans-Serif" font-size="10.00" fill="#000000">std::shared_ptr&lt; const</text>
<text text-anchor="middle" x="820" y="-56.5" font-family="Helvetica,sans-Serif" font-size="10.00" fill="#000000"> gko::LinOpFactory &gt;</text>
</a>
</g>
</g>
<!-- Node7&#45;&gt;Node1 -->
<g id="edge6" class="edge">
<title>Node7&#45;&gt;Node1</title>
<path fill="none" stroke="#9a32cd" stroke-dasharray="5,2" d="M893.8719,-64.5C943.5054,-64.5 1008.7601,-64.5 1058.9438,-64.5"/>
<polygon fill="#9a32cd" stroke="#9a32cd" points="893.8462,-61.0001 883.8461,-64.5 893.8461,-68.0001 893.8462,-61.0001"/>
<text text-anchor="middle" x="976.5" y="-67.5" font-family="Helvetica,sans-Serif" font-size="10.00" fill="#000000"> preconditioner</text>
</g>
<!-- Node8 -->
<g id="node8" class="node">
<title>Node8</title>
<g id="a_node8"><a xlink:title="STL class.">
<polygon fill="#ffffff" stroke="#bfbfbf" points="410,-35 410,-54 528,-54 528,-35 410,-35"/>
<text text-anchor="middle" x="469" y="-42" font-family="Helvetica,sans-Serif" font-size="10.00" fill="#000000">std::shared_ptr&lt; T &gt;</text>
</a>
</g>
</g>
<!-- Node8&#45;&gt;Node7 -->
<g id="edge7" class="edge">
<title>Node8&#45;&gt;Node7</title>
<path fill="none" stroke="#ffa500" stroke-dasharray="5,2" d="M538.4561,-48.4576C601.9026,-52.0728 694.9312,-57.3736 756.4524,-60.8791"/>
<polygon fill="#ffa500" stroke="#ffa500" points="538.3284,-44.9447 528.1455,-47.8701 537.9301,-51.9334 538.3284,-44.9447"/>
<text text-anchor="middle" x="657" y="-61.5" font-family="Helvetica,sans-Serif" font-size="10.00" fill="#000000"> &lt; const gko::LinOpFactory &gt;</text>
</g>
<!-- Node9 -->
<g id="node9" class="node">
<title>Node9</title>
<g id="a_node9"><a xlink:title=" ">
<polygon fill="#ffffff" stroke="#bfbfbf" points="756.5,-.5 756.5,-30.5 883.5,-30.5 883.5,-.5 756.5,-.5"/>
<text text-anchor="start" x="764.5" y="-18.5" font-family="Helvetica,sans-Serif" font-size="10.00" fill="#000000">std::shared_ptr&lt; const</text>
<text text-anchor="middle" x="820" y="-7.5" font-family="Helvetica,sans-Serif" font-size="10.00" fill="#000000"> gko::LinOp &gt;</text>
</a>
</g>
</g>
<!-- Node8&#45;&gt;Node9 -->
<g id="edge9" class="edge">
<title>Node8&#45;&gt;Node9</title>
<path fill="none" stroke="#ffa500" stroke-dasharray="5,2" d="M538.4561,-38.7615C601.9026,-33.5194 694.9312,-25.8333 756.4524,-20.7504"/>
<polygon fill="#ffa500" stroke="#ffa500" points="537.8233,-35.3017 528.1455,-39.6133 538.3997,-42.278 537.8233,-35.3017"/>
<text text-anchor="middle" x="657" y="-37.5" font-family="Helvetica,sans-Serif" font-size="10.00" fill="#000000"> &lt; const gko::LinOp &gt;</text>
</g>
<!-- Node9&#45;&gt;Node1 -->
<g id="edge8" class="edge">
<title>Node9&#45;&gt;Node1</title>
<path fill="none" stroke="#9a32cd" stroke-dasharray="5,2" d="M893.9244,-26.7829C936.8661,-33.3596 991.9999,-41.8419 1041,-49.5 1046.8264,-50.4106 1052.8541,-51.3571 1058.9153,-52.312"/>
<polygon fill="#9a32cd" stroke="#9a32cd" points="894.2556,-23.2929 883.8411,-25.2394 893.1963,-30.2123 894.2556,-23.2929"/>
<text text-anchor="middle" x="976.5" y="-52.5" font-family="Helvetica,sans-Serif" font-size="10.00" fill="#000000"> generated_preconditioner</text>
</g>
</g>
</svg>
