<?xml version="1.0" encoding="UTF-8" standalone="no"?>
<!DOCTYPE svg PUBLIC "-//W3C//DTD SVG 1.1//EN"
 "http://www.w3.org/Graphics/SVG/1.1/DTD/svg11.dtd">
<!-- Generated by graphviz version 2.40.1 (20161225.0304)
 -->
<!-- Title: gko::batch::preconditioner::Jacobi&lt; ValueType, IndexType &gt;::parameters_type Pages: 1 -->
<svg width="746pt" height="89pt"
 viewBox="0.00 0.00 746.00 89.00" xmlns="http://www.w3.org/2000/svg" xmlns:xlink="http://www.w3.org/1999/xlink">
<g id="graph0" class="graph" transform="scale(1 1) rotate(0) translate(4 85)">
<title>gko::batch::preconditioner::Jacobi&lt; ValueType, IndexType &gt;::parameters_type</title>
<polygon fill="#ffffff" stroke="transparent" points="-4,4 -4,-85 742,-85 742,4 -4,4"/>
<!-- Node1 -->
<g id="node1" class="node">
<title>Node1</title>
<g id="a_node1"><a xlink:title=" ">
<polygon fill="#bfbfbf" stroke="#000000" points="570,-13.5 570,-54.5 738,-54.5 738,-13.5 570,-13.5"/>
<text text-anchor="start" x="578" y="-42.5" font-family="Helvetica,sans-Serif" font-size="10.00" fill="#000000">gko::batch::preconditioner</text>
<text text-anchor="start" x="578" y="-31.5" font-family="Helvetica,sans-Serif" font-size="10.00" fill="#000000">::Jacobi&lt; ValueType, IndexType</text>
<text text-anchor="middle" x="654" y="-20.5" font-family="Helvetica,sans-Serif" font-size="10.00" fill="#000000"> &gt;::parameters_type</text>
</a>
</g>
</g>
<!-- Node2 -->
<g id="node2" class="node">
<title>Node2</title>
<g id="a_node2"><a xlink:href="classgko_1_1enable__parameters__type.html" target="_top" xlink:title=" ">
<polygon fill="#ffffff" stroke="#000000" points="317,-38.5 317,-79.5 458,-79.5 458,-38.5 317,-38.5"/>
<text text-anchor="start" x="325" y="-67.5" font-family="Helvetica,sans-Serif" font-size="10.00" fill="#000000">gko::enable_parameters</text>
<text text-anchor="start" x="325" y="-56.5" font-family="Helvetica,sans-Serif" font-size="10.00" fill="#000000">_type&lt; parameters_type,</text>
<text text-anchor="middle" x="387.5" y="-45.5" font-family="Helvetica,sans-Serif" font-size="10.00" fill="#000000"> Factory &gt;</text>
</a>
</g>
</g>
<!-- Node2&#45;&gt;Node1 -->
<g id="edge1" class="edge">
<title>Node2&#45;&gt;Node1</title>
<path fill="none" stroke="#191970" d="M468.4387,-51.4073C500.4752,-48.402 537.3073,-44.9468 569.6692,-41.911"/>
<polygon fill="#191970" stroke="#191970" points="467.8468,-47.9473 458.2174,-52.3661 468.5006,-54.9167 467.8468,-47.9473"/>
</g>
<!-- Node3 -->
<g id="node3" class="node">
<title>Node3</title>
<g id="a_node3"><a xlink:href="classgko_1_1enable__parameters__type.html" target="_top" xlink:title="The enable_parameters_type mixin is used to create a base implementation of the factory parameters st...">
<polygon fill="#ffffff" stroke="#000000" points="0,-38.5 0,-79.5 179,-79.5 179,-38.5 0,-38.5"/>
<text text-anchor="start" x="8" y="-67.5" font-family="Helvetica,sans-Serif" font-size="10.00" fill="#000000">gko::enable_parameters</text>
<text text-anchor="start" x="8" y="-56.5" font-family="Helvetica,sans-Serif" font-size="10.00" fill="#000000">_type&lt; ConcreteParametersType,</text>
<text text-anchor="middle" x="89.5" y="-45.5" font-family="Helvetica,sans-Serif" font-size="10.00" fill="#000000"> Factory &gt;</text>
</a>
</g>
</g>
<!-- Node3&#45;&gt;Node2 -->
<g id="edge2" class="edge">
<title>Node3&#45;&gt;Node2</title>
<path fill="none" stroke="#ffa500" stroke-dasharray="5,2" d="M189.5134,-59C231.2575,-59 278.7738,-59 316.7918,-59"/>
<polygon fill="#ffa500" stroke="#ffa500" points="189.314,-55.5001 179.3139,-59 189.3139,-62.5001 189.314,-55.5001"/>
<text text-anchor="start" x="197" y="-73" font-family="Helvetica,sans-Serif" font-size="10.00" fill="#000000"> &lt; parameters_type,</text>
<text text-anchor="middle" x="247.5" y="-62" font-family="Helvetica,sans-Serif" font-size="10.00" fill="#000000"> Factory &gt;</text>
</g>
<!-- Node4 -->
<g id="node4" class="node">
<title>Node4</title>
<g id="a_node4"><a xlink:href="classgko_1_1array.html" target="_top" xlink:title=" ">
<polygon fill="#ffffff" stroke="#000000" points="316,-.5 316,-19.5 459,-19.5 459,-.5 316,-.5"/>
<text text-anchor="middle" x="387.5" y="-7.5" font-family="Helvetica,sans-Serif" font-size="10.00" fill="#000000">gko::array&lt; index_type &gt;</text>
</a>
</g>
</g>
<!-- Node4&#45;&gt;Node1 -->
<g id="edge3" class="edge">
<title>Node4&#45;&gt;Node1</title>
<path fill="none" stroke="#9a32cd" stroke-dasharray="5,2" d="M469.4344,-17.3787C501.2829,-20.2469 537.7477,-23.5307 569.8085,-26.418"/>
<polygon fill="#9a32cd" stroke="#9a32cd" points="469.5413,-13.8743 459.2677,-16.4631 468.9134,-20.846 469.5413,-13.8743"/>
<text text-anchor="middle" x="514.5" y="-27" font-family="Helvetica,sans-Serif" font-size="10.00" fill="#000000"> block_pointers</text>
</g>
<!-- Node5 -->
<g id="node5" class="node">
<title>Node5</title>
<g id="a_node5"><a xlink:href="classgko_1_1array.html" target="_top" xlink:title="An array is a container which encapsulates fixed&#45;sized arrays, stored on the Executor tied to the arr...">
<polygon fill="#ffffff" stroke="#000000" points="20.5,-.5 20.5,-19.5 158.5,-19.5 158.5,-.5 20.5,-.5"/>
<text text-anchor="middle" x="89.5" y="-7.5" font-family="Helvetica,sans-Serif" font-size="10.00" fill="#000000">gko::array&lt; ValueType &gt;</text>
</a>
</g>
</g>
<!-- Node5&#45;&gt;Node4 -->
<g id="edge4" class="edge">
<title>Node5&#45;&gt;Node4</title>
<path fill="none" stroke="#ffa500" stroke-dasharray="5,2" d="M168.7866,-10C214.5128,-10 271.5475,-10 315.9083,-10"/>
<polygon fill="#ffa500" stroke="#ffa500" points="168.6162,-6.5001 158.6162,-10 168.6162,-13.5001 168.6162,-6.5001"/>
<text text-anchor="middle" x="247.5" y="-13" font-family="Helvetica,sans-Serif" font-size="10.00" fill="#000000"> &lt; index_type &gt;</text>
</g>
</g>
</svg>
