<?xml version="1.0" encoding="UTF-8" standalone="no"?>
<!DOCTYPE svg PUBLIC "-//W3C//DTD SVG 1.1//EN"
 "http://www.w3.org/Graphics/SVG/1.1/DTD/svg11.dtd">
<!-- Generated by graphviz version 2.40.1 (20161225.0304)
 -->
<!-- Title: gko::matrix::Fft3 Pages: 1 -->
<!--zoomable 505 -->
<svg id="main" version="1.1" xmlns="http://www.w3.org/2000/svg" xmlns:xlink="http://www.w3.org/1999/xlink" xml:space="preserve" onload="init(evt)">
<style type="text/css"><![CDATA[
.edge:hover path { stroke: red; }
.edge:hover polygon { stroke: red; fill: red; }
]]></style>
<script type="text/javascript"><![CDATA[
var edges = document.getElementsByTagName('g');
if (edges && edges.length) {
  for (var i=0;i<edges.length;i++) {
    if (edges[i].id.substr(0,4)=='edge') {
      edges[i].setAttribute('class','edge');
    }
  }
}
]]></script>
        <defs>
                <circle id="rim" cx="0" cy="0" r="7"/>
                <circle id="rim2" cx="0" cy="0" r="3.5"/>
                <g id="zoomPlus">
                        <use xlink:href="#rim" fill="#404040">
                                <set attributeName="fill" to="#808080" begin="zoomplus.mouseover" end="zoomplus.mouseout"/>
                        </use>
                        <path d="M-4,0h8M0,-4v8" fill="none" stroke="white" stroke-width="1.5" pointer-events="none"/>
                </g>
                <g id="zoomMin">
                        <use xlink:href="#rim" fill="#404040">
                                <set attributeName="fill" to="#808080" begin="zoomminus.mouseover" end="zoomminus.mouseout"/>
                        </use>
                        <path d="M-4,0h8" fill="none" stroke="white" stroke-width="1.5" pointer-events="none"/>
                </g>
                <g id="dirArrow">
                        <path fill="none" stroke="white" stroke-width="1.5" d="M0,-3.0v7 M-2.5,-0.5L0,-3.0L2.5,-0.5"/>
                </g>
               <g id="resetDef">
                       <use xlink:href="#rim2" fill="#404040">
                               <set attributeName="fill" to="#808080" begin="reset.mouseover" end="reset.mouseout"/>
                       </use>
               </g>
        </defs>

<script type="text/javascript">
var viewWidth = 2108;
var viewHeight = 505;
var sectionId = 'dynsection-0';
</script>
<script xlink:href="svgpan.js"/>
<svg id="graph" class="graph">
<g id="viewport">
<title>gko::matrix::Fft3</title>
<polygon fill="#ffffff" stroke="transparent" points="-4,4 -4,-501 2104,-501 2104,4 -4,4"/>
<!-- Node1 -->
<g id="node1" class="node">
<title>Node1</title>
<g id="a_node1"><a xlink:title="This LinOp implements a 3D Fourier matrix using the FFT algorithm.">
<polygon fill="#bfbfbf" stroke="#000000" points="2002,-169.5 2002,-188.5 2100,-188.5 2100,-169.5 2002,-169.5"/>
<text text-anchor="middle" x="2051" y="-176.5" font-family="Helvetica,sans-Serif" font-size="10.00" fill="#000000">gko::matrix::Fft3</text>
</a>
</g>
</g>
<!-- Node2 -->
<g id="node2" class="node">
<title>Node2</title>
<g id="a_node2"><a xlink:href="classgko_1_1EnableLinOp.html" target="_top" xlink:title=" ">
<polygon fill="#ffffff" stroke="#000000" points="1820.5,-328.5 1820.5,-347.5 1963.5,-347.5 1963.5,-328.5 1820.5,-328.5"/>
<text text-anchor="middle" x="1892" y="-335.5" font-family="Helvetica,sans-Serif" font-size="10.00" fill="#000000">gko::EnableLinOp&lt; Fft3 &gt;</text>
</a>
</g>
</g>
<!-- Node2&#45;&gt;Node1 -->
<g id="edge1" class="edge">
<title>Node2&#45;&gt;Node1</title>
<path fill="none" stroke="#191970" d="M1956.6199,-324.2667C1959.5551,-322.6968 1962.3687,-320.948 1965,-319 2012.457,-283.8663 2039.396,-214.015 2047.9699,-188.5623"/>
<polygon fill="#191970" stroke="#191970" points="1955.1309,-321.099 1947.5105,-328.4597 1958.0579,-327.4577 1955.1309,-321.099"/>
</g>
<!-- Node3 -->
<g id="node3" class="node">
<title>Node3</title>
<g id="a_node3"><a xlink:href="classgko_1_1EnablePolymorphicObject.html" target="_top" xlink:title=" ">
<polygon fill="#ffffff" stroke="#000000" points="1495,-397 1495,-427 1661,-427 1661,-397 1495,-397"/>
<text text-anchor="start" x="1503" y="-415" font-family="Helvetica,sans-Serif" font-size="10.00" fill="#000000">gko::EnablePolymorphicObject</text>
<text text-anchor="middle" x="1578" y="-404" font-family="Helvetica,sans-Serif" font-size="10.00" fill="#000000">&lt; Fft3, LinOp &gt;</text>
</a>
</g>
</g>
<!-- Node3&#45;&gt;Node2 -->
<g id="edge2" class="edge">
<title>Node3&#45;&gt;Node2</title>
<path fill="none" stroke="#191970" d="M1651.713,-394.6281C1714.1044,-379.9244 1801.1941,-359.4001 1851.5841,-347.5248"/>
<polygon fill="#191970" stroke="#191970" points="1650.8515,-391.2352 1641.9211,-396.9358 1652.4573,-398.0486 1650.8515,-391.2352"/>
</g>
<!-- Node4 -->
<g id="node4" class="node">
<title>Node4</title>
<g id="a_node4"><a xlink:href="classgko_1_1EnableAbstractPolymorphicObject.html" target="_top" xlink:title=" ">
<polygon fill="#ffffff" stroke="#000000" points="1270,-442 1270,-472 1445,-472 1445,-442 1270,-442"/>
<text text-anchor="start" x="1278" y="-460" font-family="Helvetica,sans-Serif" font-size="10.00" fill="#000000">gko::EnableAbstractPolymorphic</text>
<text text-anchor="middle" x="1357.5" y="-449" font-family="Helvetica,sans-Serif" font-size="10.00" fill="#000000">Object&lt; Fft3, LinOp &gt;</text>
</a>
</g>
</g>
<!-- Node4&#45;&gt;Node3 -->
<g id="edge3" class="edge">
<title>Node4&#45;&gt;Node3</title>
<path fill="none" stroke="#191970" d="M1441.2942,-439.8992C1462.0412,-435.6651 1484.1167,-431.1599 1504.3396,-427.0327"/>
<polygon fill="#191970" stroke="#191970" points="1440.328,-436.5241 1431.2299,-441.9531 1441.7278,-443.3827 1440.328,-436.5241"/>
</g>
<!-- Node5 -->
<g id="node5" class="node">
<title>Node5</title>
<g id="a_node5"><a xlink:href="classgko_1_1LinOp.html" target="_top" xlink:title=" ">
<polygon fill="#ffffff" stroke="#000000" points="931.5,-447.5 931.5,-466.5 999.5,-466.5 999.5,-447.5 931.5,-447.5"/>
<text text-anchor="middle" x="965.5" y="-454.5" font-family="Helvetica,sans-Serif" font-size="10.00" fill="#000000">gko::LinOp</text>
</a>
</g>
</g>
<!-- Node5&#45;&gt;Node4 -->
<g id="edge4" class="edge">
<title>Node5&#45;&gt;Node4</title>
<path fill="none" stroke="#191970" d="M1009.9667,-457C1072.8762,-457 1189.1665,-457 1269.805,-457"/>
<polygon fill="#191970" stroke="#191970" points="1009.6017,-453.5001 999.6017,-457 1009.6017,-460.5001 1009.6017,-453.5001"/>
</g>
<!-- Node6 -->
<g id="node6" class="node">
<title>Node6</title>
<g id="a_node6"><a xlink:href="classgko_1_1EnableAbstractPolymorphicObject.html" target="_top" xlink:title=" ">
<polygon fill="#ffffff" stroke="#ff0000" points="542,-442 542,-472 717,-472 717,-442 542,-442"/>
<text text-anchor="start" x="550" y="-460" font-family="Helvetica,sans-Serif" font-size="10.00" fill="#000000">gko::EnableAbstractPolymorphic</text>
<text text-anchor="middle" x="629.5" y="-449" font-family="Helvetica,sans-Serif" font-size="10.00" fill="#000000">Object&lt; LinOp &gt;</text>
</a>
</g>
</g>
<!-- Node6&#45;&gt;Node5 -->
<g id="edge5" class="edge">
<title>Node6&#45;&gt;Node5</title>
<path fill="none" stroke="#191970" d="M727.7603,-457C796.4379,-457 884.0201,-457 931.3799,-457"/>
<polygon fill="#191970" stroke="#191970" points="727.3412,-453.5001 717.3412,-457 727.3411,-460.5001 727.3412,-453.5001"/>
</g>
<!-- Node12 -->
<g id="node7" class="node">
<title>Node12</title>
<g id="a_node7"><a xlink:href="classgko_1_1EnableAbstractPolymorphicObject.html" target="_top" xlink:title="This mixin inherits from (a subclass of) PolymorphicObject and provides a base implementation of a ne...">
<polygon fill="#ffffff" stroke="#000000" points="138,-416.5 138,-457.5 336,-457.5 336,-416.5 138,-416.5"/>
<text text-anchor="start" x="146" y="-445.5" font-family="Helvetica,sans-Serif" font-size="10.00" fill="#000000">gko::EnableAbstractPolymorphic</text>
<text text-anchor="start" x="146" y="-434.5" font-family="Helvetica,sans-Serif" font-size="10.00" fill="#000000">Object&lt; AbstractObject, Polymorphic</text>
<text text-anchor="middle" x="237" y="-423.5" font-family="Helvetica,sans-Serif" font-size="10.00" fill="#000000">Base &gt;</text>
</a>
</g>
</g>
<!-- Node12&#45;&gt;Node4 -->
<g id="edge8" class="edge">
<title>Node12&#45;&gt;Node4</title>
<path fill="none" stroke="#ffa500" stroke-dasharray="5,2" d="M322.7837,-459.8382C333.2505,-462.1576 343.8353,-464.2858 354,-466 431.0147,-478.988 450.979,-478.4407 529,-482 768.3215,-492.9176 828.4957,-481.6271 1068,-476 1144.0115,-474.2141 1163.1723,-476.5769 1239,-471 1249.0202,-470.263 1259.4969,-469.3028 1269.8976,-468.2304"/>
<polygon fill="#ffa500" stroke="#ffa500" points="323.33,-456.373 312.8022,-457.5631 321.7743,-463.198 323.33,-456.373"/>
<text text-anchor="middle" x="796.5" y="-489" font-family="Helvetica,sans-Serif" font-size="10.00" fill="#000000"> &lt; Fft3, LinOp &gt;</text>
</g>
<!-- Node12&#45;&gt;Node6 -->
<g id="edge6" class="edge">
<title>Node12&#45;&gt;Node6</title>
<path fill="none" stroke="#ffa500" stroke-dasharray="5,2" d="M346.3159,-443.5838C348.902,-443.7255 351.4664,-443.8644 354,-444 416.7568,-447.3579 487.5803,-450.6897 541.703,-453.1396"/>
<polygon fill="#ffa500" stroke="#ffa500" points="346.4309,-440.0848 336.2522,-443.0249 346.0427,-447.0741 346.4309,-440.0848"/>
<text text-anchor="middle" x="432.5" y="-454" font-family="Helvetica,sans-Serif" font-size="10.00" fill="#000000"> &lt; LinOp &gt;</text>
</g>
<!-- Node14 -->
<g id="node10" class="node">
<title>Node14</title>
<g id="a_node10"><a xlink:href="classgko_1_1EnableAbstractPolymorphicObject.html" target="_top" xlink:title=" ">
<polygon fill="#ffffff" stroke="#000000" points="529,-381.5 529,-422.5 730,-422.5 730,-381.5 529,-381.5"/>
<text text-anchor="start" x="537" y="-410.5" font-family="Helvetica,sans-Serif" font-size="10.00" fill="#000000">gko::EnableAbstractPolymorphic</text>
<text text-anchor="start" x="537" y="-399.5" font-family="Helvetica,sans-Serif" font-size="10.00" fill="#000000">Object&lt; ConcreteObject, Polymorphic</text>
<text text-anchor="middle" x="629.5" y="-388.5" font-family="Helvetica,sans-Serif" font-size="10.00" fill="#000000">Base &gt;</text>
</a>
</g>
</g>
<!-- Node12&#45;&gt;Node14 -->
<g id="edge12" class="edge">
<title>Node12&#45;&gt;Node14</title>
<path fill="none" stroke="#ffa500" stroke-dasharray="5,2" d="M346.27,-418.8921C348.8698,-418.5786 351.4495,-418.2804 354,-418 411.7435,-411.6517 476.591,-407.7277 528.8595,-405.3556"/>
<polygon fill="#ffa500" stroke="#ffa500" points="345.6416,-415.4436 336.1606,-420.1725 346.5212,-422.3882 345.6416,-415.4436"/>
<text text-anchor="start" x="354" y="-432" font-family="Helvetica,sans-Serif" font-size="10.00" fill="#000000"> &lt; ConcreteObject, Polymorphic</text>
<text text-anchor="middle" x="432.5" y="-421" font-family="Helvetica,sans-Serif" font-size="10.00" fill="#000000">Base &gt;</text>
</g>
<!-- Node21 -->
<g id="node17" class="node">
<title>Node21</title>
<g id="a_node17"><a xlink:href="classgko_1_1EnableAbstractPolymorphicObject.html" target="_top" xlink:title=" ">
<polygon fill="#ffffff" stroke="#000000" points="531,-321.5 531,-362.5 728,-362.5 728,-321.5 531,-321.5"/>
<text text-anchor="start" x="539" y="-350.5" font-family="Helvetica,sans-Serif" font-size="10.00" fill="#000000">gko::EnableAbstractPolymorphic</text>
<text text-anchor="start" x="539" y="-339.5" font-family="Helvetica,sans-Serif" font-size="10.00" fill="#000000">Object&lt; ConcreteLinOp, Polymorphic</text>
<text text-anchor="middle" x="629.5" y="-328.5" font-family="Helvetica,sans-Serif" font-size="10.00" fill="#000000">Base &gt;</text>
</a>
</g>
</g>
<!-- Node12&#45;&gt;Node21 -->
<g id="edge22" class="edge">
<title>Node12&#45;&gt;Node21</title>
<path fill="none" stroke="#ffa500" stroke-dasharray="5,2" d="M280.7558,-411.5829C302.1807,-400.2178 328.7481,-387.6788 354,-380 411.2807,-362.5817 477.7083,-353.1218 530.9826,-347.9973"/>
<polygon fill="#ffa500" stroke="#ffa500" points="279.0413,-408.5309 271.9075,-416.3641 282.3691,-414.6894 279.0413,-408.5309"/>
<text text-anchor="start" x="356" y="-394" font-family="Helvetica,sans-Serif" font-size="10.00" fill="#000000"> &lt; ConcreteLinOp, Polymorphic</text>
<text text-anchor="middle" x="432.5" y="-383" font-family="Helvetica,sans-Serif" font-size="10.00" fill="#000000">Base &gt;</text>
</g>
<!-- Node11 -->
<g id="node8" class="node">
<title>Node11</title>
<g id="a_node8"><a xlink:title=" ">
<polygon fill="#ffffff" stroke="#bfbfbf" points="0,-378.5 0,-397.5 101,-397.5 101,-378.5 0,-378.5"/>
<text text-anchor="middle" x="50.5" y="-385.5" font-family="Helvetica,sans-Serif" font-size="10.00" fill="#000000">PolymorphicBase</text>
</a>
</g>
</g>
<!-- Node11&#45;&gt;Node12 -->
<g id="edge7" class="edge">
<title>Node11&#45;&gt;Node12</title>
<path fill="none" stroke="#191970" d="M96.6373,-400.1219C115.3596,-405.0409 137.5184,-410.8628 158.6324,-416.4101"/>
<polygon fill="#191970" stroke="#191970" points="97.463,-396.7201 86.9018,-397.564 95.6842,-403.4903 97.463,-396.7201"/>
</g>
<!-- Node11&#45;&gt;Node14 -->
<g id="edge11" class="edge">
<title>Node11&#45;&gt;Node14</title>
<path fill="none" stroke="#191970" d="M111.2841,-389.4697C210.5662,-391.8703 408.5048,-396.6564 528.9546,-399.5689"/>
<polygon fill="#191970" stroke="#191970" points="111.2037,-385.9669 101.122,-389.224 111.0344,-392.9648 111.2037,-385.9669"/>
</g>
<!-- Node11&#45;&gt;Node21 -->
<g id="edge21" class="edge">
<title>Node11&#45;&gt;Node21</title>
<path fill="none" stroke="#191970" d="M111.2765,-377.3462C172.38,-367.1654 269.3906,-352.444 354,-346 412.5478,-341.5409 478.2901,-340.4383 530.8667,-340.4987"/>
<polygon fill="#191970" stroke="#191970" points="110.3239,-373.9571 101.0417,-379.065 111.4833,-380.8604 110.3239,-373.9571"/>
</g>
<!-- Node13 -->
<g id="node9" class="node">
<title>Node13</title>
<g id="a_node9"><a xlink:href="classgko_1_1EnablePolymorphicObject.html" target="_top" xlink:title="This mixin inherits from (a subclass of) PolymorphicObject and provides a base implementation of a ne...">
<polygon fill="#ffffff" stroke="#000000" points="863,-387 863,-417 1068,-417 1068,-387 863,-387"/>
<text text-anchor="start" x="871" y="-405" font-family="Helvetica,sans-Serif" font-size="10.00" fill="#000000">gko::EnablePolymorphicObject</text>
<text text-anchor="middle" x="965.5" y="-394" font-family="Helvetica,sans-Serif" font-size="10.00" fill="#000000">&lt; ConcreteObject, PolymorphicBase &gt;</text>
</a>
</g>
</g>
<!-- Node13&#45;&gt;Node3 -->
<g id="edge9" class="edge">
<title>Node13&#45;&gt;Node3</title>
<path fill="none" stroke="#ffa500" stroke-dasharray="5,2" d="M1078.0199,-403.8371C1198.5539,-405.805 1387.0176,-408.8819 1494.8379,-410.6423"/>
<polygon fill="#ffa500" stroke="#ffa500" points="1078.0746,-400.3376 1068.0187,-403.6738 1077.9602,-407.3367 1078.0746,-400.3376"/>
<text text-anchor="middle" x="1357.5" y="-413" font-family="Helvetica,sans-Serif" font-size="10.00" fill="#000000"> &lt; Fft3, LinOp &gt;</text>
</g>
<!-- Node20 -->
<g id="node16" class="node">
<title>Node20</title>
<g id="a_node16"><a xlink:href="classgko_1_1EnablePolymorphicObject.html" target="_top" xlink:title=" ">
<polygon fill="#ffffff" stroke="#000000" points="1257,-329 1257,-359 1458,-359 1458,-329 1257,-329"/>
<text text-anchor="start" x="1265" y="-347" font-family="Helvetica,sans-Serif" font-size="10.00" fill="#000000">gko::EnablePolymorphicObject</text>
<text text-anchor="middle" x="1357.5" y="-336" font-family="Helvetica,sans-Serif" font-size="10.00" fill="#000000">&lt; ConcreteLinOp, PolymorphicBase &gt;</text>
</a>
</g>
</g>
<!-- Node13&#45;&gt;Node20 -->
<g id="edge23" class="edge">
<title>Node13&#45;&gt;Node20</title>
<path fill="none" stroke="#ffa500" stroke-dasharray="5,2" d="M1039.6157,-384.8482C1054.9025,-381.6375 1070.9335,-378.5075 1086,-376 1142.2983,-366.6304 1205.6116,-359.0025 1256.9278,-353.5474"/>
<polygon fill="#ffa500" stroke="#ffa500" points="1038.7452,-381.4551 1029.6952,-386.964 1040.2053,-388.3011 1038.7452,-381.4551"/>
<text text-anchor="start" x="1086" y="-390" font-family="Helvetica,sans-Serif" font-size="10.00" fill="#000000"> &lt; ConcreteLinOp, Polymorphic</text>
<text text-anchor="middle" x="1162.5" y="-379" font-family="Helvetica,sans-Serif" font-size="10.00" fill="#000000">Base &gt;</text>
</g>
<!-- Node14&#45;&gt;Node13 -->
<g id="edge10" class="edge">
<title>Node14&#45;&gt;Node13</title>
<path fill="none" stroke="#191970" d="M740.4863,-402C779.8889,-402 824.0386,-402 862.7256,-402"/>
<polygon fill="#191970" stroke="#191970" points="740.3111,-398.5001 730.3111,-402 740.311,-405.5001 740.3111,-398.5001"/>
</g>
<!-- Node15 -->
<g id="node11" class="node">
<title>Node15</title>
<g id="a_node11"><a xlink:href="classgko_1_1EnablePolymorphicAssignment.html" target="_top" xlink:title=" ">
<polygon fill="#ffffff" stroke="#000000" points="1261.5,-280 1261.5,-310 1453.5,-310 1453.5,-280 1261.5,-280"/>
<text text-anchor="start" x="1269.5" y="-298" font-family="Helvetica,sans-Serif" font-size="10.00" fill="#000000">gko::EnablePolymorphicAssignment</text>
<text text-anchor="middle" x="1357.5" y="-287" font-family="Helvetica,sans-Serif" font-size="10.00" fill="#000000">&lt; Fft3 &gt;</text>
</a>
</g>
</g>
<!-- Node15&#45;&gt;Node2 -->
<g id="edge13" class="edge">
<title>Node15&#45;&gt;Node2</title>
<path fill="none" stroke="#191970" d="M1443.5337,-311.716C1460.5362,-314.5385 1478.2891,-317.149 1495,-319 1608.3335,-331.5532 1740.7738,-335.8169 1820.4299,-337.2624"/>
<polygon fill="#191970" stroke="#191970" points="1444.0679,-308.2567 1433.6232,-310.0338 1442.8965,-315.158 1444.0679,-308.2567"/>
</g>
<!-- Node16 -->
<g id="node12" class="node">
<title>Node16</title>
<g id="a_node12"><a xlink:href="classgko_1_1ConvertibleTo.html" target="_top" xlink:title=" ">
<polygon fill="#ffffff" stroke="#000000" points="912,-283 912,-313 1019,-313 1019,-283 912,-283"/>
<text text-anchor="start" x="920" y="-301" font-family="Helvetica,sans-Serif" font-size="10.00" fill="#000000">gko::ConvertibleTo</text>
<text text-anchor="middle" x="965.5" y="-290" font-family="Helvetica,sans-Serif" font-size="10.00" fill="#000000">&lt; Fft3 &gt;</text>
</a>
</g>
</g>
<!-- Node16&#45;&gt;Node15 -->
<g id="edge14" class="edge">
<title>Node16&#45;&gt;Node15</title>
<path fill="none" stroke="#191970" d="M1029.3555,-297.5113C1092.2083,-297.0303 1188.9963,-296.2896 1261.1913,-295.7371"/>
<polygon fill="#191970" stroke="#191970" points="1029.1569,-294.0126 1019.184,-297.5892 1029.2105,-301.0124 1029.1569,-294.0126"/>
</g>
<!-- Node17 -->
<g id="node13" class="node">
<title>Node17</title>
<g id="a_node13"><a xlink:href="classgko_1_1ConvertibleTo.html" target="_top" xlink:title="ConvertibleTo interface is used to mark that the implementer can be converted to the object of Result...">
<polygon fill="#ffffff" stroke="#000000" points="576,-234 576,-264 683,-264 683,-234 576,-234"/>
<text text-anchor="start" x="584" y="-252" font-family="Helvetica,sans-Serif" font-size="10.00" fill="#000000">gko::ConvertibleTo</text>
<text text-anchor="middle" x="629.5" y="-241" font-family="Helvetica,sans-Serif" font-size="10.00" fill="#000000">&lt; ResultType &gt;</text>
</a>
</g>
</g>
<!-- Node17&#45;&gt;Node16 -->
<g id="edge15" class="edge">
<title>Node17&#45;&gt;Node16</title>
<path fill="none" stroke="#ffa500" stroke-dasharray="5,2" d="M693.3597,-258.3129C756.602,-267.5357 852.357,-281.5 911.8014,-290.169"/>
<polygon fill="#ffa500" stroke="#ffa500" points="693.5122,-254.7982 683.1117,-256.8184 692.502,-261.7249 693.5122,-254.7982"/>
<text text-anchor="middle" x="796.5" y="-282" font-family="Helvetica,sans-Serif" font-size="10.00" fill="#000000"> &lt; Fft3 &gt;</text>
</g>
<!-- Node18 -->
<g id="node14" class="node">
<title>Node18</title>
<g id="a_node14"><a xlink:href="classgko_1_1EnablePolymorphicAssignment.html" target="_top" xlink:title="This mixin is used to enable a default PolymorphicObject::copy_from() implementation for objects that...">
<polygon fill="#ffffff" stroke="#000000" points="869.5,-234 869.5,-264 1061.5,-264 1061.5,-234 869.5,-234"/>
<text text-anchor="start" x="877.5" y="-252" font-family="Helvetica,sans-Serif" font-size="10.00" fill="#000000">gko::EnablePolymorphicAssignment</text>
<text text-anchor="middle" x="965.5" y="-241" font-family="Helvetica,sans-Serif" font-size="10.00" fill="#000000">&lt; ConcreteType, ResultType &gt;</text>
</a>
</g>
</g>
<!-- Node17&#45;&gt;Node18 -->
<g id="edge17" class="edge">
<title>Node17&#45;&gt;Node18</title>
<path fill="none" stroke="#191970" d="M693.4065,-249C743.1354,-249 812.9464,-249 869.4039,-249"/>
<polygon fill="#191970" stroke="#191970" points="693.1118,-245.5001 683.1117,-249 693.1117,-252.5001 693.1118,-245.5001"/>
</g>
<!-- Node23 -->
<g id="node19" class="node">
<title>Node23</title>
<g id="a_node19"><a xlink:href="classgko_1_1ConvertibleTo.html" target="_top" xlink:title=" ">
<polygon fill="#ffffff" stroke="#000000" points="910.5,-185 910.5,-215 1020.5,-215 1020.5,-185 910.5,-185"/>
<text text-anchor="start" x="918.5" y="-203" font-family="Helvetica,sans-Serif" font-size="10.00" fill="#000000">gko::ConvertibleTo</text>
<text text-anchor="middle" x="965.5" y="-192" font-family="Helvetica,sans-Serif" font-size="10.00" fill="#000000">&lt; ConcreteLinOp &gt;</text>
</a>
</g>
</g>
<!-- Node17&#45;&gt;Node23 -->
<g id="edge26" class="edge">
<title>Node17&#45;&gt;Node23</title>
<path fill="none" stroke="#ffa500" stroke-dasharray="5,2" d="M693.2817,-239.6985C756.0304,-230.5477 850.8411,-216.7211 910.4044,-208.0348"/>
<polygon fill="#ffa500" stroke="#ffa500" points="692.502,-236.2751 683.1117,-241.1816 693.5122,-243.2018 692.502,-236.2751"/>
<text text-anchor="middle" x="796.5" y="-233" font-family="Helvetica,sans-Serif" font-size="10.00" fill="#000000"> &lt; ConcreteLinOp &gt;</text>
</g>
<!-- Node18&#45;&gt;Node15 -->
<g id="edge16" class="edge">
<title>Node18&#45;&gt;Node15</title>
<path fill="none" stroke="#ffa500" stroke-dasharray="5,2" d="M1071.7161,-260.713C1122.3823,-266.3837 1183.8434,-273.3835 1239,-280 1246.3093,-280.8768 1253.8701,-281.7989 1261.4722,-282.7368"/>
<polygon fill="#ffa500" stroke="#ffa500" points="1072.0588,-257.2296 1061.7319,-259.5971 1071.2812,-264.1863 1072.0588,-257.2296"/>
<text text-anchor="middle" x="1162.5" y="-283" font-family="Helvetica,sans-Serif" font-size="10.00" fill="#000000"> &lt; Fft3 &gt;</text>
</g>
<!-- Node22 -->
<g id="node18" class="node">
<title>Node22</title>
<g id="a_node18"><a xlink:href="classgko_1_1EnablePolymorphicAssignment.html" target="_top" xlink:title=" ">
<polygon fill="#ffffff" stroke="#000000" points="1261.5,-223 1261.5,-253 1453.5,-253 1453.5,-223 1261.5,-223"/>
<text text-anchor="start" x="1269.5" y="-241" font-family="Helvetica,sans-Serif" font-size="10.00" fill="#000000">gko::EnablePolymorphicAssignment</text>
<text text-anchor="middle" x="1357.5" y="-230" font-family="Helvetica,sans-Serif" font-size="10.00" fill="#000000">&lt; ConcreteLinOp &gt;</text>
</a>
</g>
</g>
<!-- Node18&#45;&gt;Node22 -->
<g id="edge27" class="edge">
<title>Node18&#45;&gt;Node22</title>
<path fill="none" stroke="#ffa500" stroke-dasharray="5,2" d="M1072.126,-239.6975C1076.8124,-239.4319 1081.4532,-239.1967 1086,-239 1144.1582,-236.4836 1209.3893,-236.1624 1261.3338,-236.5041"/>
<polygon fill="#ffa500" stroke="#ffa500" points="1071.5817,-236.224 1061.8126,-240.3245 1072.0066,-243.2111 1071.5817,-236.224"/>
<text text-anchor="middle" x="1162.5" y="-242" font-family="Helvetica,sans-Serif" font-size="10.00" fill="#000000"> &lt; ConcreteLinOp &gt;</text>
</g>
<!-- Node19 -->
<g id="node15" class="node">
<title>Node19</title>
<g id="a_node15"><a xlink:href="classgko_1_1EnableLinOp.html" target="_top" xlink:title="The EnableLinOp mixin can be used to provide sensible default implementations of the majority of the ...">
<polygon fill="#ffffff" stroke="#000000" points="1500,-279 1500,-309 1656,-309 1656,-279 1500,-279"/>
<text text-anchor="start" x="1508" y="-297" font-family="Helvetica,sans-Serif" font-size="10.00" fill="#000000">gko::EnableLinOp&lt; Concrete</text>
<text text-anchor="middle" x="1578" y="-286" font-family="Helvetica,sans-Serif" font-size="10.00" fill="#000000">LinOp, PolymorphicBase &gt;</text>
</a>
</g>
</g>
<!-- Node19&#45;&gt;Node2 -->
<g id="edge18" class="edge">
<title>Node19&#45;&gt;Node2</title>
<path fill="none" stroke="#ffa500" stroke-dasharray="5,2" d="M1666.0863,-296.6978C1707.3799,-299.1848 1757.0549,-303.9374 1801,-313 1809.2589,-314.7032 1810.915,-316.6033 1819,-319 1830.0491,-322.2754 1842.1279,-325.5441 1853.2229,-328.4236"/>
<polygon fill="#ffa500" stroke="#ffa500" points="1666.2334,-293.2006 1656.0509,-296.1277 1665.8363,-300.1893 1666.2334,-293.2006"/>
<text text-anchor="middle" x="1740" y="-316" font-family="Helvetica,sans-Serif" font-size="10.00" fill="#000000"> &lt; Fft3 &gt;</text>
</g>
<!-- Node20&#45;&gt;Node19 -->
<g id="edge19" class="edge">
<title>Node20&#45;&gt;Node19</title>
<path fill="none" stroke="#191970" d="M1433.594,-326.7451C1458.9369,-320.9984 1486.9515,-314.6459 1511.5086,-309.0774"/>
<polygon fill="#191970" stroke="#191970" points="1432.6357,-323.3735 1423.6573,-328.9984 1434.1837,-330.2002 1432.6357,-323.3735"/>
</g>
<!-- Node21&#45;&gt;Node20 -->
<g id="edge20" class="edge">
<title>Node21&#45;&gt;Node20</title>
<path fill="none" stroke="#191970" d="M738.3999,-342.2992C878.7185,-342.6847 1120.7466,-343.3496 1256.9075,-343.7236"/>
<polygon fill="#191970" stroke="#191970" points="738.0695,-338.7984 728.0599,-342.2708 738.0502,-345.7983 738.0695,-338.7984"/>
</g>
<!-- Node22&#45;&gt;Node19 -->
<g id="edge24" class="edge">
<title>Node22&#45;&gt;Node19</title>
<path fill="none" stroke="#191970" d="M1426.4377,-255.508C1456.0457,-263.0275 1490.301,-271.7272 1518.7469,-278.9516"/>
<polygon fill="#191970" stroke="#191970" points="1427.1438,-252.0763 1416.59,-253.007 1425.4207,-258.8609 1427.1438,-252.0763"/>
</g>
<!-- Node23&#45;&gt;Node22 -->
<g id="edge25" class="edge">
<title>Node23&#45;&gt;Node22</title>
<path fill="none" stroke="#191970" d="M1031.0239,-206.3518C1093.9342,-212.4503 1189.7021,-221.7339 1261.2698,-228.6716"/>
<polygon fill="#191970" stroke="#191970" points="1031.1237,-202.8452 1020.8326,-205.3639 1030.4482,-209.8125 1031.1237,-202.8452"/>
</g>
<!-- Node24 -->
<g id="node20" class="node">
<title>Node24</title>
<g id="a_node20"><a xlink:href="classgko_1_1EnableCreateMethod.html" target="_top" xlink:title="This mixin implements a static create() method on ConcreteType that dynamically allocates the memory,...">
<polygon fill="#ffffff" stroke="#000000" points="1821,-279 1821,-309 1963,-309 1963,-279 1821,-279"/>
<text text-anchor="start" x="1829" y="-297" font-family="Helvetica,sans-Serif" font-size="10.00" fill="#000000">gko::EnableCreateMethod</text>
<text text-anchor="middle" x="1892" y="-286" font-family="Helvetica,sans-Serif" font-size="10.00" fill="#000000">&lt; Fft3 &gt;</text>
</a>
</g>
</g>
<!-- Node24&#45;&gt;Node1 -->
<g id="edge28" class="edge">
<title>Node24&#45;&gt;Node1</title>
<path fill="none" stroke="#191970" d="M1954.9941,-274.6704C1958.4609,-272.9201 1961.8225,-271.0324 1965,-269 2000.1378,-246.5256 2031.1746,-206.7847 2044.3225,-188.5858"/>
<polygon fill="#191970" stroke="#191970" points="1953.2431,-271.6235 1945.6259,-278.9876 1956.1728,-277.9809 1953.2431,-271.6235"/>
</g>
<!-- Node25 -->
<g id="node21" class="node">
<title>Node25</title>
<g id="a_node21"><a xlink:title=" ">
<polygon fill="#ffffff" stroke="#bfbfbf" points="1819,-38.5 1819,-79.5 1965,-79.5 1965,-38.5 1819,-38.5"/>
<text text-anchor="start" x="1827" y="-67.5" font-family="Helvetica,sans-Serif" font-size="10.00" fill="#000000">gko::WritableToMatrixData</text>
<text text-anchor="start" x="1827" y="-56.5" font-family="Helvetica,sans-Serif" font-size="10.00" fill="#000000">&lt; std::complex&lt; float &gt;</text>
<text text-anchor="middle" x="1892" y="-45.5" font-family="Helvetica,sans-Serif" font-size="10.00" fill="#000000">, int32 &gt;</text>
</a>
</g>
</g>
<!-- Node25&#45;&gt;Node1 -->
<g id="edge29" class="edge">
<title>Node25&#45;&gt;Node1</title>
<path fill="none" stroke="#191970" d="M1958.2344,-84.7008C1960.558,-86.0796 1962.8216,-87.5128 1965,-89 1999.2697,-112.3959 2030.5098,-151.3229 2043.9881,-169.3242"/>
<polygon fill="#191970" stroke="#191970" points="1959.4788,-81.3915 1949.0277,-79.6523 1956.1132,-87.5293 1959.4788,-81.3915"/>
</g>
<!-- Node26 -->
<g id="node22" class="node">
<title>Node26</title>
<g id="a_node22"><a xlink:href="classgko_1_1WritableToMatrixData.html" target="_top" xlink:title="A LinOp implementing this interface can write its data to a matrix_data structure.">
<polygon fill="#ffffff" stroke="#000000" points="1505,-127 1505,-157 1651,-157 1651,-127 1505,-127"/>
<text text-anchor="start" x="1513" y="-145" font-family="Helvetica,sans-Serif" font-size="10.00" fill="#000000">gko::WritableToMatrixData</text>
<text text-anchor="middle" x="1578" y="-134" font-family="Helvetica,sans-Serif" font-size="10.00" fill="#000000">&lt; ValueType, IndexType &gt;</text>
</a>
</g>
</g>
<!-- Node26&#45;&gt;Node25 -->
<g id="edge30" class="edge">
<title>Node26&#45;&gt;Node25</title>
<path fill="none" stroke="#ffa500" stroke-dasharray="5,2" d="M1613.4536,-122.1351C1632.3853,-112.3118 1656.3897,-101.075 1679,-94 1724.4216,-79.7872 1777.1977,-71.0623 1818.8525,-65.8783"/>
<polygon fill="#ffa500" stroke="#ffa500" points="1611.7995,-119.0506 1604.5957,-126.8195 1615.0719,-125.2386 1611.7995,-119.0506"/>
<text text-anchor="start" x="1684.5" y="-108" font-family="Helvetica,sans-Serif" font-size="10.00" fill="#000000"> &lt; std::complex&lt; float</text>
<text text-anchor="middle" x="1740" y="-97" font-family="Helvetica,sans-Serif" font-size="10.00" fill="#000000"> &gt;, int32 &gt;</text>
</g>
<!-- Node27 -->
<g id="node23" class="node">
<title>Node27</title>
<g id="a_node23"><a xlink:title=" ">
<polygon fill="#ffffff" stroke="#bfbfbf" points="1819,-218.5 1819,-259.5 1965,-259.5 1965,-218.5 1819,-218.5"/>
<text text-anchor="start" x="1827" y="-247.5" font-family="Helvetica,sans-Serif" font-size="10.00" fill="#000000">gko::WritableToMatrixData</text>
<text text-anchor="start" x="1827" y="-236.5" font-family="Helvetica,sans-Serif" font-size="10.00" fill="#000000">&lt; std::complex&lt; float &gt;</text>
<text text-anchor="middle" x="1892" y="-225.5" font-family="Helvetica,sans-Serif" font-size="10.00" fill="#000000">, int64 &gt;</text>
</a>
</g>
</g>
<!-- Node26&#45;&gt;Node27 -->
<g id="edge32" class="edge">
<title>Node26&#45;&gt;Node27</title>
<path fill="none" stroke="#ffa500" stroke-dasharray="5,2" d="M1611.8142,-162.3014C1630.9642,-173.0501 1655.6864,-185.705 1679,-194 1724.223,-210.0903 1776.9975,-221.2909 1818.7013,-228.4934"/>
<polygon fill="#ffa500" stroke="#ffa500" points="1613.3109,-159.1257 1602.8916,-157.2054 1609.8393,-165.2042 1613.3109,-159.1257"/>
<text text-anchor="start" x="1684.5" y="-238" font-family="Helvetica,sans-Serif" font-size="10.00" fill="#000000"> &lt; std::complex&lt; float</text>
<text text-anchor="middle" x="1740" y="-227" font-family="Helvetica,sans-Serif" font-size="10.00" fill="#000000"> &gt;, int64 &gt;</text>
</g>
<!-- Node28 -->
<g id="node24" class="node">
<title>Node28</title>
<g id="a_node24"><a xlink:title=" ">
<polygon fill="#ffffff" stroke="#bfbfbf" points="1819,-158.5 1819,-199.5 1965,-199.5 1965,-158.5 1819,-158.5"/>
<text text-anchor="start" x="1827" y="-187.5" font-family="Helvetica,sans-Serif" font-size="10.00" fill="#000000">gko::WritableToMatrixData</text>
<text text-anchor="start" x="1827" y="-176.5" font-family="Helvetica,sans-Serif" font-size="10.00" fill="#000000">&lt; std::complex&lt; double</text>
<text text-anchor="middle" x="1892" y="-165.5" font-family="Helvetica,sans-Serif" font-size="10.00" fill="#000000"> &gt;, int32 &gt;</text>
</a>
</g>
</g>
<!-- Node26&#45;&gt;Node28 -->
<g id="edge34" class="edge">
<title>Node26&#45;&gt;Node28</title>
<path fill="none" stroke="#ffa500" stroke-dasharray="5,2" d="M1661.1764,-151.801C1710.236,-157.5819 1771.7477,-164.8301 1818.933,-170.3902"/>
<polygon fill="#ffa500" stroke="#ffa500" points="1661.5637,-148.3225 1651.2228,-150.6282 1660.7444,-155.2744 1661.5637,-148.3225"/>
<text text-anchor="start" x="1679" y="-182" font-family="Helvetica,sans-Serif" font-size="10.00" fill="#000000"> &lt; std::complex&lt; double</text>
<text text-anchor="middle" x="1740" y="-171" font-family="Helvetica,sans-Serif" font-size="10.00" fill="#000000"> &gt;, int32 &gt;</text>
</g>
<!-- Node29 -->
<g id="node25" class="node">
<title>Node29</title>
<g id="a_node25"><a xlink:title=" ">
<polygon fill="#ffffff" stroke="#bfbfbf" points="1819,-98.5 1819,-139.5 1965,-139.5 1965,-98.5 1819,-98.5"/>
<text text-anchor="start" x="1827" y="-127.5" font-family="Helvetica,sans-Serif" font-size="10.00" fill="#000000">gko::WritableToMatrixData</text>
<text text-anchor="start" x="1827" y="-116.5" font-family="Helvetica,sans-Serif" font-size="10.00" fill="#000000">&lt; std::complex&lt; double</text>
<text text-anchor="middle" x="1892" y="-105.5" font-family="Helvetica,sans-Serif" font-size="10.00" fill="#000000"> &gt;, int64 &gt;</text>
</a>
</g>
</g>
<!-- Node26&#45;&gt;Node29 -->
<g id="edge36" class="edge">
<title>Node26&#45;&gt;Node29</title>
<path fill="none" stroke="#ffa500" stroke-dasharray="5,2" d="M1661.3332,-129.8125C1667.3046,-129.1348 1673.2397,-128.5197 1679,-128 1725.4467,-123.8093 1777.7713,-121.5636 1818.9362,-120.3635"/>
<polygon fill="#ffa500" stroke="#ffa500" points="1660.7917,-126.3521 1651.2739,-131.0062 1661.6167,-133.3033 1660.7917,-126.3521"/>
<text text-anchor="start" x="1679" y="-142" font-family="Helvetica,sans-Serif" font-size="10.00" fill="#000000"> &lt; std::complex&lt; double</text>
<text text-anchor="middle" x="1740" y="-131" font-family="Helvetica,sans-Serif" font-size="10.00" fill="#000000"> &gt;, int64 &gt;</text>
</g>
<!-- Node27&#45;&gt;Node1 -->
<g id="edge31" class="edge">
<title>Node27&#45;&gt;Node1</title>
<path fill="none" stroke="#191970" d="M1956.2791,-214.7437C1980.6045,-205.5643 2006.905,-195.6396 2025.6054,-188.5829"/>
<polygon fill="#191970" stroke="#191970" points="1954.8391,-211.5462 1946.7188,-218.3514 1957.3105,-218.0954 1954.8391,-211.5462"/>
</g>
<!-- Node28&#45;&gt;Node1 -->
<g id="edge33" class="edge">
<title>Node28&#45;&gt;Node1</title>
<path fill="none" stroke="#191970" d="M1975.6146,-179C1984.6133,-179 1993.5415,-179 2001.9363,-179"/>
<polygon fill="#191970" stroke="#191970" points="1975.4496,-175.5001 1965.4495,-179 1975.4495,-182.5001 1975.4496,-175.5001"/>
</g>
<!-- Node29&#45;&gt;Node1 -->
<g id="edge35" class="edge">
<title>Node29&#45;&gt;Node1</title>
<path fill="none" stroke="#191970" d="M1956.2791,-143.2563C1980.6045,-152.4357 2006.905,-162.3604 2025.6054,-169.4171"/>
<polygon fill="#191970" stroke="#191970" points="1957.3105,-139.9046 1946.7188,-139.6486 1954.8391,-146.4538 1957.3105,-139.9046"/>
</g>
<!-- Node30 -->
<g id="node26" class="node">
<title>Node30</title>
<g id="a_node26"><a xlink:href="classgko_1_1Transposable.html" target="_top" xlink:title="Linear operators which support transposition should implement the Transposable interface.">
<polygon fill="#ffffff" stroke="#000000" points="1840,-.5 1840,-19.5 1944,-19.5 1944,-.5 1840,-.5"/>
<text text-anchor="middle" x="1892" y="-7.5" font-family="Helvetica,sans-Serif" font-size="10.00" fill="#000000">gko::Transposable</text>
</a>
</g>
</g>
<!-- Node30&#45;&gt;Node1 -->
<g id="edge37" class="edge">
<title>Node30&#45;&gt;Node1</title>
<path fill="none" stroke="#191970" d="M1953.789,-22.1284C1957.7615,-24.0876 1961.5464,-26.3614 1965,-29 2014.6141,-66.9067 2040.3787,-142.2384 2048.2962,-169.1552"/>
<polygon fill="#191970" stroke="#191970" points="1954.8218,-18.7654 1944.2476,-18.1041 1952.1014,-25.2152 1954.8218,-18.7654"/>
</g>
</g>
</svg>
        <g id="navigator" transform="translate(0 0)" fill="#404254">
                <rect fill="#f2f5e9" fill-opacity="0.5" stroke="#606060" stroke-width=".5" x="0" y="0" width="60" height="60"/>
                <use id="zoomplus" xlink:href="#zoomPlus" x="17" y="9" onmousedown="handleZoom(evt,'in')"/>
                <use id="zoomminus" xlink:href="#zoomMin" x="42" y="9" onmousedown="handleZoom(evt,'out')"/>
                <use id="reset" xlink:href="#resetDef" x="30" y="36" onmousedown="handleReset()"/>
                <g id="arrowUp" xlink:href="#dirArrow" transform="translate(30 24)" onmousedown="handlePan(0,-1)">
                  <use xlink:href="#rim" fill="#404040">
                        <set attributeName="fill" to="#808080" begin="arrowUp.mouseover" end="arrowUp.mouseout"/>
                  </use>
                  <path fill="none" stroke="white" stroke-width="1.5" d="M0,-3.0v7 M-2.5,-0.5L0,-3.0L2.5,-0.5"/>
                </g>
                <g id="arrowRight" xlink:href="#dirArrow" transform="rotate(90) translate(36 -43)" onmousedown="handlePan(1,0)">
                  <use xlink:href="#rim" fill="#404040">
                        <set attributeName="fill" to="#808080" begin="arrowRight.mouseover" end="arrowRight.mouseout"/>
                  </use>
                  <path fill="none" stroke="white" stroke-width="1.5" d="M0,-3.0v7 M-2.5,-0.5L0,-3.0L2.5,-0.5"/>
                </g>
                <g id="arrowDown" xlink:href="#dirArrow" transform="rotate(180) translate(-30 -48)" onmousedown="handlePan(0,1)">
                  <use xlink:href="#rim" fill="#404040">
                        <set attributeName="fill" to="#808080" begin="arrowDown.mouseover" end="arrowDown.mouseout"/>
                  </use>
                  <path fill="none" stroke="white" stroke-width="1.5" d="M0,-3.0v7 M-2.5,-0.5L0,-3.0L2.5,-0.5"/>
                </g>
                <g id="arrowLeft" xlink:href="#dirArrow" transform="rotate(270) translate(-36 17)" onmousedown="handlePan(-1,0)">
                  <use xlink:href="#rim" fill="#404040">
                        <set attributeName="fill" to="#808080" begin="arrowLeft.mouseover" end="arrowLeft.mouseout"/>
                  </use>
                  <path fill="none" stroke="white" stroke-width="1.5" d="M0,-3.0v7 M-2.5,-0.5L0,-3.0L2.5,-0.5"/>
                </g>
        </g>
        <svg viewBox="0 0 15 15" width="100%" height="30px" preserveAspectRatio="xMaxYMin meet">
         <g id="arrow_out" transform="scale(0.3 0.3)">
          <a xlink:href="classgko_1_1matrix_1_1Fft3__coll__graph_org.svg" target="_base">
           <rect id="button" ry="5" rx="5" y="6" x="6" height="38" width="38"
                fill="#f2f5e9" fill-opacity="0.5" stroke="#606060" stroke-width="1.0"/>
           <path id="arrow"
             d="M 11.500037,31.436501 C 11.940474,20.09759 22.043105,11.32322 32.158766,21.979434 L 37.068811,17.246167 C 37.068811,17.246167 37.088388,32 37.088388,32 L 22.160133,31.978069 C 22.160133,31.978069 26.997745,27.140456 26.997745,27.140456 C 18.528582,18.264221 13.291696,25.230495 11.500037,31.436501 z"
             style="fill:#404040;"/>
          </a>
         </g>
        </svg>
</svg>
