<?xml version="1.0" encoding="UTF-8" standalone="no"?>
<!DOCTYPE svg PUBLIC "-//W3C//DTD SVG 1.1//EN"
 "http://www.w3.org/Graphics/SVG/1.1/DTD/svg11.dtd">
<!-- Generated by graphviz version 2.40.1 (20161225.0304)
 -->
<!-- Title: gko::matrix::Fft2 Pages: 1 -->
<!--zoomable 544 -->
<svg id="main" version="1.1" xmlns="http://www.w3.org/2000/svg" xmlns:xlink="http://www.w3.org/1999/xlink" xml:space="preserve" onload="init(evt)">
<style type="text/css"><![CDATA[
.edge:hover path { stroke: red; }
.edge:hover polygon { stroke: red; fill: red; }
]]></style>
<script type="text/javascript"><![CDATA[
var edges = document.getElementsByTagName('g');
if (edges && edges.length) {
  for (var i=0;i<edges.length;i++) {
    if (edges[i].id.substr(0,4)=='edge') {
      edges[i].setAttribute('class','edge');
    }
  }
}
]]></script>
        <defs>
                <circle id="rim" cx="0" cy="0" r="7"/>
                <circle id="rim2" cx="0" cy="0" r="3.5"/>
                <g id="zoomPlus">
                        <use xlink:href="#rim" fill="#404040">
                                <set attributeName="fill" to="#808080" begin="zoomplus.mouseover" end="zoomplus.mouseout"/>
                        </use>
                        <path d="M-4,0h8M0,-4v8" fill="none" stroke="white" stroke-width="1.5" pointer-events="none"/>
                </g>
                <g id="zoomMin">
                        <use xlink:href="#rim" fill="#404040">
                                <set attributeName="fill" to="#808080" begin="zoomminus.mouseover" end="zoomminus.mouseout"/>
                        </use>
                        <path d="M-4,0h8" fill="none" stroke="white" stroke-width="1.5" pointer-events="none"/>
                </g>
                <g id="dirArrow">
                        <path fill="none" stroke="white" stroke-width="1.5" d="M0,-3.0v7 M-2.5,-0.5L0,-3.0L2.5,-0.5"/>
                </g>
               <g id="resetDef">
                       <use xlink:href="#rim2" fill="#404040">
                               <set attributeName="fill" to="#808080" begin="reset.mouseover" end="reset.mouseout"/>
                       </use>
               </g>
        </defs>

<script type="text/javascript">
var viewWidth = 2108;
var viewHeight = 544;
var sectionId = 'dynsection-0';
</script>
<script xlink:href="svgpan.js"/>
<svg id="graph" class="graph">
<g id="viewport">
<title>gko::matrix::Fft2</title>
<polygon fill="#ffffff" stroke="transparent" points="-4,4 -4,-540 2104,-540 2104,4 -4,4"/>
<!-- Node1 -->
<g id="node1" class="node">
<title>Node1</title>
<g id="a_node1"><a xlink:title="This LinOp implements a 2D Fourier matrix using the FFT algorithm.">
<polygon fill="#bfbfbf" stroke="#000000" points="2002,-169.5 2002,-188.5 2100,-188.5 2100,-169.5 2002,-169.5"/>
<text text-anchor="middle" x="2051" y="-176.5" font-family="Helvetica,sans-Serif" font-size="10.00" fill="#000000">gko::matrix::Fft2</text>
</a>
</g>
</g>
<!-- Node2 -->
<g id="node2" class="node">
<title>Node2</title>
<g id="a_node2"><a xlink:href="classgko_1_1EnableLinOp.html" target="_top" xlink:title=" ">
<polygon fill="#ffffff" stroke="#000000" points="1820.5,-330.5 1820.5,-349.5 1963.5,-349.5 1963.5,-330.5 1820.5,-330.5"/>
<text text-anchor="middle" x="1892" y="-337.5" font-family="Helvetica,sans-Serif" font-size="10.00" fill="#000000">gko::EnableLinOp&lt; Fft2 &gt;</text>
</a>
</g>
</g>
<!-- Node2&#45;&gt;Node1 -->
<g id="edge1" class="edge">
<title>Node2&#45;&gt;Node1</title>
<path fill="none" stroke="#191970" d="M1952.6222,-326.5339C1957.01,-324.3838 1961.1977,-321.8907 1965,-319 2011.7784,-283.4371 2038.9597,-214.4552 2047.7929,-188.8657"/>
<polygon fill="#191970" stroke="#191970" points="1951.2104,-323.331 1943.3939,-330.4832 1953.9645,-329.7665 1951.2104,-323.331"/>
</g>
<!-- Node3 -->
<g id="node3" class="node">
<title>Node3</title>
<g id="a_node3"><a xlink:href="classgko_1_1EnablePolymorphicObject.html" target="_top" xlink:title=" ">
<polygon fill="#ffffff" stroke="#000000" points="1495,-437 1495,-467 1661,-467 1661,-437 1495,-437"/>
<text text-anchor="start" x="1503" y="-455" font-family="Helvetica,sans-Serif" font-size="10.00" fill="#000000">gko::EnablePolymorphicObject</text>
<text text-anchor="middle" x="1578" y="-444" font-family="Helvetica,sans-Serif" font-size="10.00" fill="#000000">&lt; Fft2, LinOp &gt;</text>
</a>
</g>
</g>
<!-- Node3&#45;&gt;Node2 -->
<g id="edge2" class="edge">
<title>Node3&#45;&gt;Node2</title>
<path fill="none" stroke="#191970" d="M1629.9494,-433.4703C1697.4753,-409.3846 1812.9088,-368.2109 1865.0418,-349.6157"/>
<polygon fill="#191970" stroke="#191970" points="1628.5903,-430.239 1620.3474,-436.8952 1630.9421,-436.8321 1628.5903,-430.239"/>
</g>
<!-- Node4 -->
<g id="node4" class="node">
<title>Node4</title>
<g id="a_node4"><a xlink:href="classgko_1_1EnableAbstractPolymorphicObject.html" target="_top" xlink:title=" ">
<polygon fill="#ffffff" stroke="#000000" points="1270,-482 1270,-512 1445,-512 1445,-482 1270,-482"/>
<text text-anchor="start" x="1278" y="-500" font-family="Helvetica,sans-Serif" font-size="10.00" fill="#000000">gko::EnableAbstractPolymorphic</text>
<text text-anchor="middle" x="1357.5" y="-489" font-family="Helvetica,sans-Serif" font-size="10.00" fill="#000000">Object&lt; Fft2, LinOp &gt;</text>
</a>
</g>
</g>
<!-- Node4&#45;&gt;Node3 -->
<g id="edge3" class="edge">
<title>Node4&#45;&gt;Node3</title>
<path fill="none" stroke="#191970" d="M1441.2942,-479.8992C1462.0412,-475.6651 1484.1167,-471.1599 1504.3396,-467.0327"/>
<polygon fill="#191970" stroke="#191970" points="1440.328,-476.5241 1431.2299,-481.9531 1441.7278,-483.3827 1440.328,-476.5241"/>
</g>
<!-- Node5 -->
<g id="node5" class="node">
<title>Node5</title>
<g id="a_node5"><a xlink:href="classgko_1_1LinOp.html" target="_top" xlink:title=" ">
<polygon fill="#ffffff" stroke="#000000" points="931.5,-487.5 931.5,-506.5 999.5,-506.5 999.5,-487.5 931.5,-487.5"/>
<text text-anchor="middle" x="965.5" y="-494.5" font-family="Helvetica,sans-Serif" font-size="10.00" fill="#000000">gko::LinOp</text>
</a>
</g>
</g>
<!-- Node5&#45;&gt;Node4 -->
<g id="edge4" class="edge">
<title>Node5&#45;&gt;Node4</title>
<path fill="none" stroke="#191970" d="M1009.9667,-497C1072.8762,-497 1189.1665,-497 1269.805,-497"/>
<polygon fill="#191970" stroke="#191970" points="1009.6017,-493.5001 999.6017,-497 1009.6017,-500.5001 1009.6017,-493.5001"/>
</g>
<!-- Node6 -->
<g id="node6" class="node">
<title>Node6</title>
<g id="a_node6"><a xlink:href="classgko_1_1EnableAbstractPolymorphicObject.html" target="_top" xlink:title=" ">
<polygon fill="#ffffff" stroke="#ff0000" points="542,-482 542,-512 717,-512 717,-482 542,-482"/>
<text text-anchor="start" x="550" y="-500" font-family="Helvetica,sans-Serif" font-size="10.00" fill="#000000">gko::EnableAbstractPolymorphic</text>
<text text-anchor="middle" x="629.5" y="-489" font-family="Helvetica,sans-Serif" font-size="10.00" fill="#000000">Object&lt; LinOp &gt;</text>
</a>
</g>
</g>
<!-- Node6&#45;&gt;Node5 -->
<g id="edge5" class="edge">
<title>Node6&#45;&gt;Node5</title>
<path fill="none" stroke="#191970" d="M727.7603,-497C796.4379,-497 884.0201,-497 931.3799,-497"/>
<polygon fill="#191970" stroke="#191970" points="727.3412,-493.5001 717.3412,-497 727.3411,-500.5001 727.3412,-493.5001"/>
</g>
<!-- Node12 -->
<g id="node7" class="node">
<title>Node12</title>
<g id="a_node7"><a xlink:href="classgko_1_1EnableAbstractPolymorphicObject.html" target="_top" xlink:title="This mixin inherits from (a subclass of) PolymorphicObject and provides a base implementation of a ne...">
<polygon fill="#ffffff" stroke="#000000" points="138,-440.5 138,-481.5 336,-481.5 336,-440.5 138,-440.5"/>
<text text-anchor="start" x="146" y="-469.5" font-family="Helvetica,sans-Serif" font-size="10.00" fill="#000000">gko::EnableAbstractPolymorphic</text>
<text text-anchor="start" x="146" y="-458.5" font-family="Helvetica,sans-Serif" font-size="10.00" fill="#000000">Object&lt; AbstractObject, Polymorphic</text>
<text text-anchor="middle" x="237" y="-447.5" font-family="Helvetica,sans-Serif" font-size="10.00" fill="#000000">Base &gt;</text>
</a>
</g>
</g>
<!-- Node12&#45;&gt;Node4 -->
<g id="edge8" class="edge">
<title>Node12&#45;&gt;Node4</title>
<path fill="none" stroke="#ffa500" stroke-dasharray="5,2" d="M289.893,-485.5433C309.6144,-493.6867 332.4501,-501.9531 354,-507 430.0064,-524.8005 451.0084,-518.6636 529,-522 768.3515,-532.2391 828.4957,-521.6271 1068,-516 1144.0115,-514.2141 1163.1723,-516.5769 1239,-511 1249.0202,-510.263 1259.4969,-509.3028 1269.8976,-508.2304"/>
<polygon fill="#ffa500" stroke="#ffa500" points="291.0549,-482.2348 280.481,-481.5701 288.3326,-488.6837 291.0549,-482.2348"/>
<text text-anchor="middle" x="796.5" y="-528" font-family="Helvetica,sans-Serif" font-size="10.00" fill="#000000"> &lt; Fft2, LinOp &gt;</text>
</g>
<!-- Node12&#45;&gt;Node6 -->
<g id="edge6" class="edge">
<title>Node12&#45;&gt;Node6</title>
<path fill="none" stroke="#ffa500" stroke-dasharray="5,2" d="M346.2714,-479.0954C348.8708,-479.4127 351.45,-479.715 354,-480 416.6259,-486.9997 487.6066,-491.2939 541.8344,-493.8151"/>
<polygon fill="#ffa500" stroke="#ffa500" points="346.5267,-475.5996 336.1634,-477.8025 345.6385,-482.543 346.5267,-475.5996"/>
<text text-anchor="middle" x="432.5" y="-495" font-family="Helvetica,sans-Serif" font-size="10.00" fill="#000000"> &lt; LinOp &gt;</text>
</g>
<!-- Node14 -->
<g id="node10" class="node">
<title>Node14</title>
<g id="a_node10"><a xlink:href="classgko_1_1EnableAbstractPolymorphicObject.html" target="_top" xlink:title=" ">
<polygon fill="#ffffff" stroke="#000000" points="529,-421.5 529,-462.5 730,-462.5 730,-421.5 529,-421.5"/>
<text text-anchor="start" x="537" y="-450.5" font-family="Helvetica,sans-Serif" font-size="10.00" fill="#000000">gko::EnableAbstractPolymorphic</text>
<text text-anchor="start" x="537" y="-439.5" font-family="Helvetica,sans-Serif" font-size="10.00" fill="#000000">Object&lt; ConcreteObject, Polymorphic</text>
<text text-anchor="middle" x="629.5" y="-428.5" font-family="Helvetica,sans-Serif" font-size="10.00" fill="#000000">Base &gt;</text>
</a>
</g>
</g>
<!-- Node12&#45;&gt;Node14 -->
<g id="edge12" class="edge">
<title>Node12&#45;&gt;Node14</title>
<path fill="none" stroke="#ffa500" stroke-dasharray="5,2" d="M346.2032,-455.7137C403.3756,-452.9461 472.9091,-449.5802 528.78,-446.8756"/>
<polygon fill="#ffa500" stroke="#ffa500" points="345.8634,-452.226 336.0443,-456.2055 346.2019,-459.2178 345.8634,-452.226"/>
<text text-anchor="start" x="354" y="-468" font-family="Helvetica,sans-Serif" font-size="10.00" fill="#000000"> &lt; ConcreteObject, Polymorphic</text>
<text text-anchor="middle" x="432.5" y="-457" font-family="Helvetica,sans-Serif" font-size="10.00" fill="#000000">Base &gt;</text>
</g>
<!-- Node21 -->
<g id="node17" class="node">
<title>Node21</title>
<g id="a_node17"><a xlink:href="classgko_1_1EnableAbstractPolymorphicObject.html" target="_top" xlink:title=" ">
<polygon fill="#ffffff" stroke="#000000" points="531,-361.5 531,-402.5 728,-402.5 728,-361.5 531,-361.5"/>
<text text-anchor="start" x="539" y="-390.5" font-family="Helvetica,sans-Serif" font-size="10.00" fill="#000000">gko::EnableAbstractPolymorphic</text>
<text text-anchor="start" x="539" y="-379.5" font-family="Helvetica,sans-Serif" font-size="10.00" fill="#000000">Object&lt; ConcreteLinOp, Polymorphic</text>
<text text-anchor="middle" x="629.5" y="-368.5" font-family="Helvetica,sans-Serif" font-size="10.00" fill="#000000">Base &gt;</text>
</a>
</g>
</g>
<!-- Node12&#45;&gt;Node21 -->
<g id="edge22" class="edge">
<title>Node12&#45;&gt;Node21</title>
<path fill="none" stroke="#ffa500" stroke-dasharray="5,2" d="M301.7934,-437.1274C318.6233,-431.5567 336.8463,-426.0702 354,-422 411.9592,-408.2477 477.9681,-398.4658 530.8413,-392.0189"/>
<polygon fill="#ffa500" stroke="#ffa500" points="300.422,-433.8961 292.0639,-440.4071 302.658,-440.5294 300.422,-433.8961"/>
<text text-anchor="start" x="356" y="-436" font-family="Helvetica,sans-Serif" font-size="10.00" fill="#000000"> &lt; ConcreteLinOp, Polymorphic</text>
<text text-anchor="middle" x="432.5" y="-425" font-family="Helvetica,sans-Serif" font-size="10.00" fill="#000000">Base &gt;</text>
</g>
<!-- Node11 -->
<g id="node8" class="node">
<title>Node11</title>
<g id="a_node8"><a xlink:title=" ">
<polygon fill="#ffffff" stroke="#bfbfbf" points="0,-373.5 0,-392.5 101,-392.5 101,-373.5 0,-373.5"/>
<text text-anchor="middle" x="50.5" y="-380.5" font-family="Helvetica,sans-Serif" font-size="10.00" fill="#000000">PolymorphicBase</text>
</a>
</g>
</g>
<!-- Node11&#45;&gt;Node12 -->
<g id="edge7" class="edge">
<title>Node11&#45;&gt;Node12</title>
<path fill="none" stroke="#191970" d="M82.5985,-396.4246C111.5007,-408.5123 154.4214,-426.4631 187.6791,-440.3725"/>
<polygon fill="#191970" stroke="#191970" points="83.9447,-393.1939 73.3686,-392.5643 81.2437,-399.6518 83.9447,-393.1939"/>
</g>
<!-- Node11&#45;&gt;Node14 -->
<g id="edge11" class="edge">
<title>Node11&#45;&gt;Node14</title>
<path fill="none" stroke="#191970" d="M111.3499,-379.9811C219.3143,-375.4262 439.7293,-369.9646 511,-397 520.7367,-400.6935 519.8235,-407.0769 529,-412 535.4984,-415.4863 542.456,-418.6204 549.5648,-421.4264"/>
<polygon fill="#191970" stroke="#191970" points="111.1008,-376.4885 101.2616,-380.4179 111.4037,-383.4819 111.1008,-376.4885"/>
</g>
<!-- Node11&#45;&gt;Node21 -->
<g id="edge21" class="edge">
<title>Node11&#45;&gt;Node21</title>
<path fill="none" stroke="#191970" d="M100.0089,-371.656C106.37,-370.5602 112.8183,-369.6252 119,-369 292.3378,-351.4679 337.0377,-359.4863 511,-369 517.5096,-369.356 524.2114,-369.8212 530.9595,-370.3634"/>
<polygon fill="#191970" stroke="#191970" points="99.3286,-368.2224 90.1355,-373.4889 100.6063,-375.1048 99.3286,-368.2224"/>
</g>
<!-- Node13 -->
<g id="node9" class="node">
<title>Node13</title>
<g id="a_node9"><a xlink:href="classgko_1_1EnablePolymorphicObject.html" target="_top" xlink:title="This mixin inherits from (a subclass of) PolymorphicObject and provides a base implementation of a ne...">
<polygon fill="#ffffff" stroke="#000000" points="863,-427 863,-457 1068,-457 1068,-427 863,-427"/>
<text text-anchor="start" x="871" y="-445" font-family="Helvetica,sans-Serif" font-size="10.00" fill="#000000">gko::EnablePolymorphicObject</text>
<text text-anchor="middle" x="965.5" y="-434" font-family="Helvetica,sans-Serif" font-size="10.00" fill="#000000">&lt; ConcreteObject, PolymorphicBase &gt;</text>
</a>
</g>
</g>
<!-- Node13&#45;&gt;Node3 -->
<g id="edge9" class="edge">
<title>Node13&#45;&gt;Node3</title>
<path fill="none" stroke="#ffa500" stroke-dasharray="5,2" d="M1078.0199,-443.8371C1198.5539,-445.805 1387.0176,-448.8819 1494.8379,-450.6423"/>
<polygon fill="#ffa500" stroke="#ffa500" points="1078.0746,-440.3376 1068.0187,-443.6738 1077.9602,-447.3367 1078.0746,-440.3376"/>
<text text-anchor="middle" x="1357.5" y="-453" font-family="Helvetica,sans-Serif" font-size="10.00" fill="#000000"> &lt; Fft2, LinOp &gt;</text>
</g>
<!-- Node20 -->
<g id="node16" class="node">
<title>Node20</title>
<g id="a_node16"><a xlink:href="classgko_1_1EnablePolymorphicObject.html" target="_top" xlink:title=" ">
<polygon fill="#ffffff" stroke="#000000" points="1257,-370 1257,-400 1458,-400 1458,-370 1257,-370"/>
<text text-anchor="start" x="1265" y="-388" font-family="Helvetica,sans-Serif" font-size="10.00" fill="#000000">gko::EnablePolymorphicObject</text>
<text text-anchor="middle" x="1357.5" y="-377" font-family="Helvetica,sans-Serif" font-size="10.00" fill="#000000">&lt; ConcreteLinOp, PolymorphicBase &gt;</text>
</a>
</g>
</g>
<!-- Node13&#45;&gt;Node20 -->
<g id="edge23" class="edge">
<title>Node13&#45;&gt;Node20</title>
<path fill="none" stroke="#ffa500" stroke-dasharray="5,2" d="M1039.3452,-424.8608C1054.7117,-421.6339 1070.8424,-418.4943 1086,-416 1142.2915,-406.7366 1205.6044,-399.3358 1256.922,-394.0917"/>
<polygon fill="#ffa500" stroke="#ffa500" points="1038.4249,-421.4783 1029.3754,-426.988 1039.8856,-428.3242 1038.4249,-421.4783"/>
<text text-anchor="start" x="1086" y="-430" font-family="Helvetica,sans-Serif" font-size="10.00" fill="#000000"> &lt; ConcreteLinOp, Polymorphic</text>
<text text-anchor="middle" x="1162.5" y="-419" font-family="Helvetica,sans-Serif" font-size="10.00" fill="#000000">Base &gt;</text>
</g>
<!-- Node14&#45;&gt;Node13 -->
<g id="edge10" class="edge">
<title>Node14&#45;&gt;Node13</title>
<path fill="none" stroke="#191970" d="M740.4863,-442C779.8889,-442 824.0386,-442 862.7256,-442"/>
<polygon fill="#191970" stroke="#191970" points="740.3111,-438.5001 730.3111,-442 740.311,-445.5001 740.3111,-438.5001"/>
</g>
<!-- Node15 -->
<g id="node11" class="node">
<title>Node15</title>
<g id="a_node11"><a xlink:href="classgko_1_1EnablePolymorphicAssignment.html" target="_top" xlink:title=" ">
<polygon fill="#ffffff" stroke="#000000" points="1261.5,-263 1261.5,-293 1453.5,-293 1453.5,-263 1261.5,-263"/>
<text text-anchor="start" x="1269.5" y="-281" font-family="Helvetica,sans-Serif" font-size="10.00" fill="#000000">gko::EnablePolymorphicAssignment</text>
<text text-anchor="middle" x="1357.5" y="-270" font-family="Helvetica,sans-Serif" font-size="10.00" fill="#000000">&lt; Fft2 &gt;</text>
</a>
</g>
</g>
<!-- Node15&#45;&gt;Node2 -->
<g id="edge13" class="edge">
<title>Node15&#45;&gt;Node2</title>
<path fill="none" stroke="#191970" d="M1463.7265,-290.3219C1569.3586,-302.5748 1728.504,-321.0351 1820.1226,-331.6625"/>
<polygon fill="#191970" stroke="#191970" points="1464.0119,-286.8316 1453.6752,-289.156 1463.2053,-293.785 1464.0119,-286.8316"/>
</g>
<!-- Node16 -->
<g id="node12" class="node">
<title>Node16</title>
<g id="a_node12"><a xlink:href="classgko_1_1ConvertibleTo.html" target="_top" xlink:title=" ">
<polygon fill="#ffffff" stroke="#000000" points="912,-225 912,-255 1019,-255 1019,-225 912,-225"/>
<text text-anchor="start" x="920" y="-243" font-family="Helvetica,sans-Serif" font-size="10.00" fill="#000000">gko::ConvertibleTo</text>
<text text-anchor="middle" x="965.5" y="-232" font-family="Helvetica,sans-Serif" font-size="10.00" fill="#000000">&lt; Fft2 &gt;</text>
</a>
</g>
</g>
<!-- Node16&#45;&gt;Node15 -->
<g id="edge14" class="edge">
<title>Node16&#45;&gt;Node15</title>
<path fill="none" stroke="#191970" d="M1029.3555,-246.1901C1092.2083,-252.283 1188.9963,-261.6655 1261.1913,-268.664"/>
<polygon fill="#191970" stroke="#191970" points="1029.4751,-242.6853 1019.184,-245.2041 1028.7996,-249.6527 1029.4751,-242.6853"/>
</g>
<!-- Node17 -->
<g id="node13" class="node">
<title>Node17</title>
<g id="a_node13"><a xlink:href="classgko_1_1ConvertibleTo.html" target="_top" xlink:title="ConvertibleTo interface is used to mark that the implementer can be converted to the object of Result...">
<polygon fill="#ffffff" stroke="#000000" points="576,-274 576,-304 683,-304 683,-274 576,-274"/>
<text text-anchor="start" x="584" y="-292" font-family="Helvetica,sans-Serif" font-size="10.00" fill="#000000">gko::ConvertibleTo</text>
<text text-anchor="middle" x="629.5" y="-281" font-family="Helvetica,sans-Serif" font-size="10.00" fill="#000000">&lt; ResultType &gt;</text>
</a>
</g>
</g>
<!-- Node17&#45;&gt;Node16 -->
<g id="edge15" class="edge">
<title>Node17&#45;&gt;Node16</title>
<path fill="none" stroke="#ffa500" stroke-dasharray="5,2" d="M693.3597,-279.6871C756.602,-270.4643 852.357,-256.5 911.8014,-247.831"/>
<polygon fill="#ffa500" stroke="#ffa500" points="692.502,-276.2751 683.1117,-281.1816 693.5122,-283.2018 692.502,-276.2751"/>
<text text-anchor="middle" x="796.5" y="-273" font-family="Helvetica,sans-Serif" font-size="10.00" fill="#000000"> &lt; Fft2 &gt;</text>
</g>
<!-- Node18 -->
<g id="node14" class="node">
<title>Node18</title>
<g id="a_node14"><a xlink:href="classgko_1_1EnablePolymorphicAssignment.html" target="_top" xlink:title="This mixin is used to enable a default PolymorphicObject::copy_from() implementation for objects that...">
<polygon fill="#ffffff" stroke="#000000" points="869.5,-274 869.5,-304 1061.5,-304 1061.5,-274 869.5,-274"/>
<text text-anchor="start" x="877.5" y="-292" font-family="Helvetica,sans-Serif" font-size="10.00" fill="#000000">gko::EnablePolymorphicAssignment</text>
<text text-anchor="middle" x="965.5" y="-281" font-family="Helvetica,sans-Serif" font-size="10.00" fill="#000000">&lt; ConcreteType, ResultType &gt;</text>
</a>
</g>
</g>
<!-- Node17&#45;&gt;Node18 -->
<g id="edge17" class="edge">
<title>Node17&#45;&gt;Node18</title>
<path fill="none" stroke="#191970" d="M693.4065,-289C743.1354,-289 812.9464,-289 869.4039,-289"/>
<polygon fill="#191970" stroke="#191970" points="693.1118,-285.5001 683.1117,-289 693.1117,-292.5001 693.1118,-285.5001"/>
</g>
<!-- Node23 -->
<g id="node19" class="node">
<title>Node23</title>
<g id="a_node19"><a xlink:href="classgko_1_1ConvertibleTo.html" target="_top" xlink:title=" ">
<polygon fill="#ffffff" stroke="#000000" points="910.5,-323 910.5,-353 1020.5,-353 1020.5,-323 910.5,-323"/>
<text text-anchor="start" x="918.5" y="-341" font-family="Helvetica,sans-Serif" font-size="10.00" fill="#000000">gko::ConvertibleTo</text>
<text text-anchor="middle" x="965.5" y="-330" font-family="Helvetica,sans-Serif" font-size="10.00" fill="#000000">&lt; ConcreteLinOp &gt;</text>
</a>
</g>
</g>
<!-- Node17&#45;&gt;Node23 -->
<g id="edge26" class="edge">
<title>Node17&#45;&gt;Node23</title>
<path fill="none" stroke="#ffa500" stroke-dasharray="5,2" d="M693.2817,-298.3015C756.0304,-307.4523 850.8411,-321.2789 910.4044,-329.9652"/>
<polygon fill="#ffa500" stroke="#ffa500" points="693.5122,-294.7982 683.1117,-296.8184 692.502,-301.7249 693.5122,-294.7982"/>
<text text-anchor="middle" x="796.5" y="-322" font-family="Helvetica,sans-Serif" font-size="10.00" fill="#000000"> &lt; ConcreteLinOp &gt;</text>
</g>
<!-- Node18&#45;&gt;Node15 -->
<g id="edge16" class="edge">
<title>Node18&#45;&gt;Node15</title>
<path fill="none" stroke="#ffa500" stroke-dasharray="5,2" d="M1072.126,-279.6975C1076.8124,-279.4319 1081.4532,-279.1967 1086,-279 1144.1582,-276.4836 1209.3893,-276.1624 1261.3338,-276.5041"/>
<polygon fill="#ffa500" stroke="#ffa500" points="1071.5817,-276.224 1061.8126,-280.3245 1072.0066,-283.2111 1071.5817,-276.224"/>
<text text-anchor="middle" x="1162.5" y="-282" font-family="Helvetica,sans-Serif" font-size="10.00" fill="#000000"> &lt; Fft2 &gt;</text>
</g>
<!-- Node22 -->
<g id="node18" class="node">
<title>Node22</title>
<g id="a_node18"><a xlink:href="classgko_1_1EnablePolymorphicAssignment.html" target="_top" xlink:title=" ">
<polygon fill="#ffffff" stroke="#000000" points="1261.5,-321 1261.5,-351 1453.5,-351 1453.5,-321 1261.5,-321"/>
<text text-anchor="start" x="1269.5" y="-339" font-family="Helvetica,sans-Serif" font-size="10.00" fill="#000000">gko::EnablePolymorphicAssignment</text>
<text text-anchor="middle" x="1357.5" y="-328" font-family="Helvetica,sans-Serif" font-size="10.00" fill="#000000">&lt; ConcreteLinOp &gt;</text>
</a>
</g>
</g>
<!-- Node18&#45;&gt;Node22 -->
<g id="edge27" class="edge">
<title>Node18&#45;&gt;Node22</title>
<path fill="none" stroke="#ffa500" stroke-dasharray="5,2" d="M1071.7064,-301.1902C1122.3704,-307.0658 1183.8325,-314.2812 1239,-321 1246.3077,-321.89 1253.8673,-322.8216 1261.4686,-323.7662"/>
<polygon fill="#ffa500" stroke="#ffa500" points="1072.059,-297.7077 1061.7226,-300.0335 1071.2533,-304.6612 1072.059,-297.7077"/>
<text text-anchor="middle" x="1162.5" y="-324" font-family="Helvetica,sans-Serif" font-size="10.00" fill="#000000"> &lt; ConcreteLinOp &gt;</text>
</g>
<!-- Node19 -->
<g id="node15" class="node">
<title>Node19</title>
<g id="a_node15"><a xlink:href="classgko_1_1EnableLinOp.html" target="_top" xlink:title="The EnableLinOp mixin can be used to provide sensible default implementations of the majority of the ...">
<polygon fill="#ffffff" stroke="#000000" points="1500,-337 1500,-367 1656,-367 1656,-337 1500,-337"/>
<text text-anchor="start" x="1508" y="-355" font-family="Helvetica,sans-Serif" font-size="10.00" fill="#000000">gko::EnableLinOp&lt; Concrete</text>
<text text-anchor="middle" x="1578" y="-344" font-family="Helvetica,sans-Serif" font-size="10.00" fill="#000000">LinOp, PolymorphicBase &gt;</text>
</a>
</g>
</g>
<!-- Node19&#45;&gt;Node2 -->
<g id="edge18" class="edge">
<title>Node19&#45;&gt;Node2</title>
<path fill="none" stroke="#ffa500" stroke-dasharray="5,2" d="M1666.2291,-348.6282C1714.8883,-346.7686 1774.5316,-344.4892 1820.2934,-342.7404"/>
<polygon fill="#ffa500" stroke="#ffa500" points="1665.8804,-345.1389 1656.0214,-349.0183 1666.1478,-352.1338 1665.8804,-345.1389"/>
<text text-anchor="middle" x="1740" y="-351" font-family="Helvetica,sans-Serif" font-size="10.00" fill="#000000"> &lt; Fft2 &gt;</text>
</g>
<!-- Node20&#45;&gt;Node19 -->
<g id="edge19" class="edge">
<title>Node20&#45;&gt;Node19</title>
<path fill="none" stroke="#191970" d="M1467.6926,-368.5086C1478.533,-366.8862 1489.3741,-365.2637 1499.7968,-363.7039"/>
<polygon fill="#191970" stroke="#191970" points="1467.1211,-365.0551 1457.7493,-369.9967 1468.1572,-371.978 1467.1211,-365.0551"/>
</g>
<!-- Node21&#45;&gt;Node20 -->
<g id="edge20" class="edge">
<title>Node21&#45;&gt;Node20</title>
<path fill="none" stroke="#191970" d="M738.3999,-382.4488C878.7185,-383.027 1120.7466,-384.0244 1256.9075,-384.5855"/>
<polygon fill="#191970" stroke="#191970" points="738.0742,-378.9475 728.0599,-382.4062 738.0453,-385.9474 738.0742,-378.9475"/>
</g>
<!-- Node22&#45;&gt;Node19 -->
<g id="edge24" class="edge">
<title>Node22&#45;&gt;Node19</title>
<path fill="none" stroke="#191970" d="M1463.7437,-343.7093C1475.8851,-344.5903 1488.0914,-345.476 1499.7726,-346.3236"/>
<polygon fill="#191970" stroke="#191970" points="1463.8002,-340.2043 1453.5731,-342.9713 1463.2935,-347.1859 1463.8002,-340.2043"/>
</g>
<!-- Node23&#45;&gt;Node22 -->
<g id="edge25" class="edge">
<title>Node23&#45;&gt;Node22</title>
<path fill="none" stroke="#191970" d="M1031.0239,-337.6657C1093.9342,-337.3447 1189.7021,-336.8561 1261.2698,-336.491"/>
<polygon fill="#191970" stroke="#191970" points="1030.8146,-334.1666 1020.8326,-337.7177 1030.8504,-341.1665 1030.8146,-334.1666"/>
</g>
<!-- Node24 -->
<g id="node20" class="node">
<title>Node24</title>
<g id="a_node20"><a xlink:href="classgko_1_1EnableCreateMethod.html" target="_top" xlink:title=" ">
<polygon fill="#ffffff" stroke="#000000" points="1821,-279 1821,-309 1963,-309 1963,-279 1821,-279"/>
<text text-anchor="start" x="1829" y="-297" font-family="Helvetica,sans-Serif" font-size="10.00" fill="#000000">gko::EnableCreateMethod</text>
<text text-anchor="middle" x="1892" y="-286" font-family="Helvetica,sans-Serif" font-size="10.00" fill="#000000">&lt; Fft2 &gt;</text>
</a>
</g>
</g>
<!-- Node24&#45;&gt;Node1 -->
<g id="edge28" class="edge">
<title>Node24&#45;&gt;Node1</title>
<path fill="none" stroke="#191970" d="M1954.9941,-274.6704C1958.4609,-272.9201 1961.8225,-271.0324 1965,-269 2000.1378,-246.5256 2031.1746,-206.7847 2044.3225,-188.5858"/>
<polygon fill="#191970" stroke="#191970" points="1953.2431,-271.6235 1945.6259,-278.9876 1956.1728,-277.9809 1953.2431,-271.6235"/>
</g>
<!-- Node25 -->
<g id="node21" class="node">
<title>Node25</title>
<g id="a_node21"><a xlink:href="classgko_1_1EnableCreateMethod.html" target="_top" xlink:title="This mixin implements a static create() method on ConcreteType that dynamically allocates the memory,...">
<polygon fill="#ffffff" stroke="#000000" points="1507,-249 1507,-279 1649,-279 1649,-249 1507,-249"/>
<text text-anchor="start" x="1515" y="-267" font-family="Helvetica,sans-Serif" font-size="10.00" fill="#000000">gko::EnableCreateMethod</text>
<text text-anchor="middle" x="1578" y="-256" font-family="Helvetica,sans-Serif" font-size="10.00" fill="#000000">&lt; ConcreteType &gt;</text>
</a>
</g>
</g>
<!-- Node25&#45;&gt;Node24 -->
<g id="edge29" class="edge">
<title>Node25&#45;&gt;Node24</title>
<path fill="none" stroke="#ffa500" stroke-dasharray="5,2" d="M1659.088,-270.2164C1701.415,-273.6365 1754.0356,-278.1623 1801,-283 1807.4902,-283.6685 1814.2357,-284.4051 1820.9882,-285.1707"/>
<polygon fill="#ffa500" stroke="#ffa500" points="1659.3629,-266.7273 1649.1148,-269.4156 1658.8025,-273.7049 1659.3629,-266.7273"/>
<text text-anchor="middle" x="1740" y="-286" font-family="Helvetica,sans-Serif" font-size="10.00" fill="#000000"> &lt; Fft2 &gt;</text>
</g>
<!-- Node26 -->
<g id="node22" class="node">
<title>Node26</title>
<g id="a_node22"><a xlink:title=" ">
<polygon fill="#ffffff" stroke="#bfbfbf" points="1819,-218.5 1819,-259.5 1965,-259.5 1965,-218.5 1819,-218.5"/>
<text text-anchor="start" x="1827" y="-247.5" font-family="Helvetica,sans-Serif" font-size="10.00" fill="#000000">gko::WritableToMatrixData</text>
<text text-anchor="start" x="1827" y="-236.5" font-family="Helvetica,sans-Serif" font-size="10.00" fill="#000000">&lt; std::complex&lt; float &gt;</text>
<text text-anchor="middle" x="1892" y="-225.5" font-family="Helvetica,sans-Serif" font-size="10.00" fill="#000000">, int32 &gt;</text>
</a>
</g>
</g>
<!-- Node26&#45;&gt;Node1 -->
<g id="edge30" class="edge">
<title>Node26&#45;&gt;Node1</title>
<path fill="none" stroke="#191970" d="M1956.2791,-214.7437C1980.6045,-205.5643 2006.905,-195.6396 2025.6054,-188.5829"/>
<polygon fill="#191970" stroke="#191970" points="1954.8391,-211.5462 1946.7188,-218.3514 1957.3105,-218.0954 1954.8391,-211.5462"/>
</g>
<!-- Node27 -->
<g id="node23" class="node">
<title>Node27</title>
<g id="a_node23"><a xlink:href="classgko_1_1WritableToMatrixData.html" target="_top" xlink:title="A LinOp implementing this interface can write its data to a matrix_data structure.">
<polygon fill="#ffffff" stroke="#000000" points="1505,-132 1505,-162 1651,-162 1651,-132 1505,-132"/>
<text text-anchor="start" x="1513" y="-150" font-family="Helvetica,sans-Serif" font-size="10.00" fill="#000000">gko::WritableToMatrixData</text>
<text text-anchor="middle" x="1578" y="-139" font-family="Helvetica,sans-Serif" font-size="10.00" fill="#000000">&lt; ValueType, IndexType &gt;</text>
</a>
</g>
</g>
<!-- Node27&#45;&gt;Node26 -->
<g id="edge31" class="edge">
<title>Node27&#45;&gt;Node26</title>
<path fill="none" stroke="#ffa500" stroke-dasharray="5,2" d="M1614.2357,-166.8243C1633.0958,-176.4662 1656.7984,-187.5519 1679,-195 1724.4649,-210.2524 1777.2413,-221.2004 1818.8855,-228.361"/>
<polygon fill="#ffa500" stroke="#ffa500" points="1615.6086,-163.5934 1605.1216,-162.0855 1612.3794,-169.804 1615.6086,-163.5934"/>
<text text-anchor="start" x="1684.5" y="-238" font-family="Helvetica,sans-Serif" font-size="10.00" fill="#000000"> &lt; std::complex&lt; float</text>
<text text-anchor="middle" x="1740" y="-227" font-family="Helvetica,sans-Serif" font-size="10.00" fill="#000000"> &gt;, int32 &gt;</text>
</g>
<!-- Node28 -->
<g id="node24" class="node">
<title>Node28</title>
<g id="a_node24"><a xlink:title=" ">
<polygon fill="#ffffff" stroke="#bfbfbf" points="1819,-158.5 1819,-199.5 1965,-199.5 1965,-158.5 1819,-158.5"/>
<text text-anchor="start" x="1827" y="-187.5" font-family="Helvetica,sans-Serif" font-size="10.00" fill="#000000">gko::WritableToMatrixData</text>
<text text-anchor="start" x="1827" y="-176.5" font-family="Helvetica,sans-Serif" font-size="10.00" fill="#000000">&lt; std::complex&lt; float &gt;</text>
<text text-anchor="middle" x="1892" y="-165.5" font-family="Helvetica,sans-Serif" font-size="10.00" fill="#000000">, int64 &gt;</text>
</a>
</g>
</g>
<!-- Node27&#45;&gt;Node28 -->
<g id="edge33" class="edge">
<title>Node27&#45;&gt;Node28</title>
<path fill="none" stroke="#ffa500" stroke-dasharray="5,2" d="M1661.1764,-155.4766C1710.236,-160.4763 1771.7477,-166.745 1818.933,-171.5537"/>
<polygon fill="#ffa500" stroke="#ffa500" points="1661.5261,-151.9942 1651.2228,-154.4622 1660.8164,-158.9581 1661.5261,-151.9942"/>
<text text-anchor="start" x="1684.5" y="-183" font-family="Helvetica,sans-Serif" font-size="10.00" fill="#000000"> &lt; std::complex&lt; float</text>
<text text-anchor="middle" x="1740" y="-172" font-family="Helvetica,sans-Serif" font-size="10.00" fill="#000000"> &gt;, int64 &gt;</text>
</g>
<!-- Node29 -->
<g id="node25" class="node">
<title>Node29</title>
<g id="a_node25"><a xlink:title=" ">
<polygon fill="#ffffff" stroke="#bfbfbf" points="1819,-98.5 1819,-139.5 1965,-139.5 1965,-98.5 1819,-98.5"/>
<text text-anchor="start" x="1827" y="-127.5" font-family="Helvetica,sans-Serif" font-size="10.00" fill="#000000">gko::WritableToMatrixData</text>
<text text-anchor="start" x="1827" y="-116.5" font-family="Helvetica,sans-Serif" font-size="10.00" fill="#000000">&lt; std::complex&lt; double</text>
<text text-anchor="middle" x="1892" y="-105.5" font-family="Helvetica,sans-Serif" font-size="10.00" fill="#000000"> &gt;, int32 &gt;</text>
</a>
</g>
</g>
<!-- Node27&#45;&gt;Node29 -->
<g id="edge35" class="edge">
<title>Node27&#45;&gt;Node29</title>
<path fill="none" stroke="#ffa500" stroke-dasharray="5,2" d="M1656.2592,-130.2425C1663.9183,-128.9824 1671.5933,-127.8669 1679,-127 1725.3105,-121.5795 1777.633,-119.5569 1818.8308,-118.9004"/>
<polygon fill="#ffa500" stroke="#ffa500" points="1655.4832,-126.8246 1646.2237,-131.9735 1656.6731,-133.7227 1655.4832,-126.8246"/>
<text text-anchor="start" x="1679" y="-141" font-family="Helvetica,sans-Serif" font-size="10.00" fill="#000000"> &lt; std::complex&lt; double</text>
<text text-anchor="middle" x="1740" y="-130" font-family="Helvetica,sans-Serif" font-size="10.00" fill="#000000"> &gt;, int32 &gt;</text>
</g>
<!-- Node30 -->
<g id="node26" class="node">
<title>Node30</title>
<g id="a_node26"><a xlink:title=" ">
<polygon fill="#ffffff" stroke="#bfbfbf" points="1819,-38.5 1819,-79.5 1965,-79.5 1965,-38.5 1819,-38.5"/>
<text text-anchor="start" x="1827" y="-67.5" font-family="Helvetica,sans-Serif" font-size="10.00" fill="#000000">gko::WritableToMatrixData</text>
<text text-anchor="start" x="1827" y="-56.5" font-family="Helvetica,sans-Serif" font-size="10.00" fill="#000000">&lt; std::complex&lt; double</text>
<text text-anchor="middle" x="1892" y="-45.5" font-family="Helvetica,sans-Serif" font-size="10.00" fill="#000000"> &gt;, int64 &gt;</text>
</a>
</g>
</g>
<!-- Node27&#45;&gt;Node30 -->
<g id="edge37" class="edge">
<title>Node27&#45;&gt;Node30</title>
<path fill="none" stroke="#ffa500" stroke-dasharray="5,2" d="M1609.7391,-126.4888C1629.0395,-114.9335 1654.5972,-101.2126 1679,-93 1724.074,-77.8307 1776.8473,-69.3444 1818.5877,-64.6437"/>
<polygon fill="#ffa500" stroke="#ffa500" points="1607.7782,-123.5852 1601.0695,-131.7855 1611.4277,-129.5587 1607.7782,-123.5852"/>
<text text-anchor="start" x="1679" y="-107" font-family="Helvetica,sans-Serif" font-size="10.00" fill="#000000"> &lt; std::complex&lt; double</text>
<text text-anchor="middle" x="1740" y="-96" font-family="Helvetica,sans-Serif" font-size="10.00" fill="#000000"> &gt;, int64 &gt;</text>
</g>
<!-- Node28&#45;&gt;Node1 -->
<g id="edge32" class="edge">
<title>Node28&#45;&gt;Node1</title>
<path fill="none" stroke="#191970" d="M1975.6146,-179C1984.6133,-179 1993.5415,-179 2001.9363,-179"/>
<polygon fill="#191970" stroke="#191970" points="1975.4496,-175.5001 1965.4495,-179 1975.4495,-182.5001 1975.4496,-175.5001"/>
</g>
<!-- Node29&#45;&gt;Node1 -->
<g id="edge34" class="edge">
<title>Node29&#45;&gt;Node1</title>
<path fill="none" stroke="#191970" d="M1956.2791,-143.2563C1980.6045,-152.4357 2006.905,-162.3604 2025.6054,-169.4171"/>
<polygon fill="#191970" stroke="#191970" points="1957.3105,-139.9046 1946.7188,-139.6486 1954.8391,-146.4538 1957.3105,-139.9046"/>
</g>
<!-- Node30&#45;&gt;Node1 -->
<g id="edge36" class="edge">
<title>Node30&#45;&gt;Node1</title>
<path fill="none" stroke="#191970" d="M1958.2344,-84.7008C1960.558,-86.0796 1962.8216,-87.5128 1965,-89 1999.2697,-112.3959 2030.5098,-151.3229 2043.9881,-169.3242"/>
<polygon fill="#191970" stroke="#191970" points="1959.4788,-81.3915 1949.0277,-79.6523 1956.1132,-87.5293 1959.4788,-81.3915"/>
</g>
<!-- Node31 -->
<g id="node27" class="node">
<title>Node31</title>
<g id="a_node27"><a xlink:href="classgko_1_1Transposable.html" target="_top" xlink:title="Linear operators which support transposition should implement the Transposable interface.">
<polygon fill="#ffffff" stroke="#000000" points="1840,-.5 1840,-19.5 1944,-19.5 1944,-.5 1840,-.5"/>
<text text-anchor="middle" x="1892" y="-7.5" font-family="Helvetica,sans-Serif" font-size="10.00" fill="#000000">gko::Transposable</text>
</a>
</g>
</g>
<!-- Node31&#45;&gt;Node1 -->
<g id="edge38" class="edge">
<title>Node31&#45;&gt;Node1</title>
<path fill="none" stroke="#191970" d="M1953.789,-22.1284C1957.7615,-24.0876 1961.5464,-26.3614 1965,-29 2014.6141,-66.9067 2040.3787,-142.2384 2048.2962,-169.1552"/>
<polygon fill="#191970" stroke="#191970" points="1954.8218,-18.7654 1944.2476,-18.1041 1952.1014,-25.2152 1954.8218,-18.7654"/>
</g>
</g>
</svg>
        <g id="navigator" transform="translate(0 0)" fill="#404254">
                <rect fill="#f2f5e9" fill-opacity="0.5" stroke="#606060" stroke-width=".5" x="0" y="0" width="60" height="60"/>
                <use id="zoomplus" xlink:href="#zoomPlus" x="17" y="9" onmousedown="handleZoom(evt,'in')"/>
                <use id="zoomminus" xlink:href="#zoomMin" x="42" y="9" onmousedown="handleZoom(evt,'out')"/>
                <use id="reset" xlink:href="#resetDef" x="30" y="36" onmousedown="handleReset()"/>
                <g id="arrowUp" xlink:href="#dirArrow" transform="translate(30 24)" onmousedown="handlePan(0,-1)">
                  <use xlink:href="#rim" fill="#404040">
                        <set attributeName="fill" to="#808080" begin="arrowUp.mouseover" end="arrowUp.mouseout"/>
                  </use>
                  <path fill="none" stroke="white" stroke-width="1.5" d="M0,-3.0v7 M-2.5,-0.5L0,-3.0L2.5,-0.5"/>
                </g>
                <g id="arrowRight" xlink:href="#dirArrow" transform="rotate(90) translate(36 -43)" onmousedown="handlePan(1,0)">
                  <use xlink:href="#rim" fill="#404040">
                        <set attributeName="fill" to="#808080" begin="arrowRight.mouseover" end="arrowRight.mouseout"/>
                  </use>
                  <path fill="none" stroke="white" stroke-width="1.5" d="M0,-3.0v7 M-2.5,-0.5L0,-3.0L2.5,-0.5"/>
                </g>
                <g id="arrowDown" xlink:href="#dirArrow" transform="rotate(180) translate(-30 -48)" onmousedown="handlePan(0,1)">
                  <use xlink:href="#rim" fill="#404040">
                        <set attributeName="fill" to="#808080" begin="arrowDown.mouseover" end="arrowDown.mouseout"/>
                  </use>
                  <path fill="none" stroke="white" stroke-width="1.5" d="M0,-3.0v7 M-2.5,-0.5L0,-3.0L2.5,-0.5"/>
                </g>
                <g id="arrowLeft" xlink:href="#dirArrow" transform="rotate(270) translate(-36 17)" onmousedown="handlePan(-1,0)">
                  <use xlink:href="#rim" fill="#404040">
                        <set attributeName="fill" to="#808080" begin="arrowLeft.mouseover" end="arrowLeft.mouseout"/>
                  </use>
                  <path fill="none" stroke="white" stroke-width="1.5" d="M0,-3.0v7 M-2.5,-0.5L0,-3.0L2.5,-0.5"/>
                </g>
        </g>
        <svg viewBox="0 0 15 15" width="100%" height="30px" preserveAspectRatio="xMaxYMin meet">
         <g id="arrow_out" transform="scale(0.3 0.3)">
          <a xlink:href="classgko_1_1matrix_1_1Fft2__coll__graph_org.svg" target="_base">
           <rect id="button" ry="5" rx="5" y="6" x="6" height="38" width="38"
                fill="#f2f5e9" fill-opacity="0.5" stroke="#606060" stroke-width="1.0"/>
           <path id="arrow"
             d="M 11.500037,31.436501 C 11.940474,20.09759 22.043105,11.32322 32.158766,21.979434 L 37.068811,17.246167 C 37.068811,17.246167 37.088388,32 37.088388,32 L 22.160133,31.978069 C 22.160133,31.978069 26.997745,27.140456 26.997745,27.140456 C 18.528582,18.264221 13.291696,25.230495 11.500037,31.436501 z"
             style="fill:#404040;"/>
          </a>
         </g>
        </svg>
</svg>
