<?xml version="1.0" encoding="UTF-8" standalone="no"?>
<!DOCTYPE svg PUBLIC "-//W3C//DTD SVG 1.1//EN"
 "http://www.w3.org/Graphics/SVG/1.1/DTD/svg11.dtd">
<!-- Generated by graphviz version 2.40.1 (20161225.0304)
 -->
<!-- Title: gko::solver::BatchIdr&lt; ValueType &gt; Pages: 1 -->
<!--zoomable 348 -->
<svg id="main" version="1.1" xmlns="http://www.w3.org/2000/svg" xmlns:xlink="http://www.w3.org/1999/xlink" xml:space="preserve" onload="init(evt)">
<style type="text/css"><![CDATA[
.edge:hover path { stroke: red; }
.edge:hover polygon { stroke: red; fill: red; }
]]></style>
<script type="text/javascript"><![CDATA[
var edges = document.getElementsByTagName('g');
if (edges && edges.length) {
  for (var i=0;i<edges.length;i++) {
    if (edges[i].id.substr(0,4)=='edge') {
      edges[i].setAttribute('class','edge');
    }
  }
}
]]></script>
        <defs>
                <circle id="rim" cx="0" cy="0" r="7"/>
                <circle id="rim2" cx="0" cy="0" r="3.5"/>
                <g id="zoomPlus">
                        <use xlink:href="#rim" fill="#404040">
                                <set attributeName="fill" to="#808080" begin="zoomplus.mouseover" end="zoomplus.mouseout"/>
                        </use>
                        <path d="M-4,0h8M0,-4v8" fill="none" stroke="white" stroke-width="1.5" pointer-events="none"/>
                </g>
                <g id="zoomMin">
                        <use xlink:href="#rim" fill="#404040">
                                <set attributeName="fill" to="#808080" begin="zoomminus.mouseover" end="zoomminus.mouseout"/>
                        </use>
                        <path d="M-4,0h8" fill="none" stroke="white" stroke-width="1.5" pointer-events="none"/>
                </g>
                <g id="dirArrow">
                        <path fill="none" stroke="white" stroke-width="1.5" d="M0,-3.0v7 M-2.5,-0.5L0,-3.0L2.5,-0.5"/>
                </g>
               <g id="resetDef">
                       <use xlink:href="#rim2" fill="#404040">
                               <set attributeName="fill" to="#808080" begin="reset.mouseover" end="reset.mouseout"/>
                       </use>
               </g>
        </defs>

<script type="text/javascript">
var viewWidth = 2183;
var viewHeight = 348;
var sectionId = 'dynsection-0';
</script>
<script xlink:href="svgpan.js"/>
<svg id="graph" class="graph">
<g id="viewport">
<title>gko::solver::BatchIdr&lt; ValueType &gt;</title>
<polygon fill="#ffffff" stroke="transparent" points="-4,4 -4,-344.1433 2179,-344.1433 2179,4 -4,4"/>
<!-- Node1 -->
<g id="node1" class="node">
<title>Node1</title>
<g id="a_node1"><a xlink:title="IDR(s) is an efficient method for solving large nonsymmetric systems of linear equations.">
<polygon fill="#bfbfbf" stroke="#000000" points="2058,-89.6433 2058,-119.6433 2175,-119.6433 2175,-89.6433 2058,-89.6433"/>
<text text-anchor="start" x="2066" y="-107.6433" font-family="Helvetica,sans-Serif" font-size="10.00" fill="#000000">gko::solver::BatchIdr</text>
<text text-anchor="middle" x="2116.5" y="-96.6433" font-family="Helvetica,sans-Serif" font-size="10.00" fill="#000000">&lt; ValueType &gt;</text>
</a>
</g>
</g>
<!-- Node2 -->
<g id="node2" class="node">
<title>Node2</title>
<g id="a_node2"><a xlink:href="classgko_1_1EnableBatchLinOp.html" target="_top" xlink:title=" ">
<polygon fill="#ffffff" stroke="#000000" points="1863,-134.6433 1863,-164.6433 2015,-164.6433 2015,-134.6433 1863,-134.6433"/>
<text text-anchor="start" x="1871" y="-152.6433" font-family="Helvetica,sans-Serif" font-size="10.00" fill="#000000">gko::EnableBatchLinOp</text>
<text text-anchor="middle" x="1939" y="-141.6433" font-family="Helvetica,sans-Serif" font-size="10.00" fill="#000000">&lt; BatchIdr&lt; ValueType &gt; &gt;</text>
</a>
</g>
</g>
<!-- Node2&#45;&gt;Node1 -->
<g id="edge1" class="edge">
<title>Node2&#45;&gt;Node1</title>
<path fill="none" stroke="#191970" d="M2008.6248,-131.992C2024.9491,-127.8534 2042.1798,-123.4851 2057.9629,-119.4837"/>
<polygon fill="#191970" stroke="#191970" points="2007.4319,-128.6836 1998.5987,-134.5338 2009.1522,-135.4689 2007.4319,-128.6836"/>
</g>
<!-- Node3 -->
<g id="node3" class="node">
<title>Node3</title>
<g id="a_node3"><a xlink:href="classgko_1_1EnablePolymorphicObject.html" target="_top" xlink:title=" ">
<polygon fill="#ffffff" stroke="#000000" points="1516,-101.1433 1516,-142.1433 1682,-142.1433 1682,-101.1433 1516,-101.1433"/>
<text text-anchor="start" x="1524" y="-130.1433" font-family="Helvetica,sans-Serif" font-size="10.00" fill="#000000">gko::EnablePolymorphicObject</text>
<text text-anchor="start" x="1524" y="-119.1433" font-family="Helvetica,sans-Serif" font-size="10.00" fill="#000000">&lt; BatchIdr&lt; ValueType &gt;,</text>
<text text-anchor="middle" x="1599" y="-108.1433" font-family="Helvetica,sans-Serif" font-size="10.00" fill="#000000"> BatchLinOp &gt;</text>
</a>
</g>
</g>
<!-- Node3&#45;&gt;Node2 -->
<g id="edge2" class="edge">
<title>Node3&#45;&gt;Node2</title>
<path fill="none" stroke="#191970" d="M1692.3654,-129.3323C1745.947,-133.7449 1812.3739,-139.2153 1862.7859,-143.3669"/>
<polygon fill="#191970" stroke="#191970" points="1692.4269,-125.8256 1682.1734,-128.4929 1691.8523,-132.8019 1692.4269,-125.8256"/>
</g>
<!-- Node4 -->
<g id="node4" class="node">
<title>Node4</title>
<g id="a_node4"><a xlink:href="classgko_1_1EnableAbstractPolymorphicObject.html" target="_top" xlink:title=" ">
<polygon fill="#ffffff" stroke="#000000" points="1294.5,-162.1433 1294.5,-203.1433 1469.5,-203.1433 1469.5,-162.1433 1294.5,-162.1433"/>
<text text-anchor="start" x="1302.5" y="-191.1433" font-family="Helvetica,sans-Serif" font-size="10.00" fill="#000000">gko::EnableAbstractPolymorphic</text>
<text text-anchor="start" x="1302.5" y="-180.1433" font-family="Helvetica,sans-Serif" font-size="10.00" fill="#000000">Object&lt; BatchIdr&lt; ValueType</text>
<text text-anchor="middle" x="1382" y="-169.1433" font-family="Helvetica,sans-Serif" font-size="10.00" fill="#000000"> &gt;, BatchLinOp &gt;</text>
</a>
</g>
</g>
<!-- Node4&#45;&gt;Node3 -->
<g id="edge3" class="edge">
<title>Node4&#45;&gt;Node3</title>
<path fill="none" stroke="#191970" d="M1464.8921,-159.3419C1484.9377,-153.7069 1506.2201,-147.7243 1525.7848,-142.2246"/>
<polygon fill="#191970" stroke="#191970" points="1463.8435,-156.0009 1455.1638,-162.0766 1465.7378,-162.7397 1463.8435,-156.0009"/>
</g>
<!-- Node5 -->
<g id="node5" class="node">
<title>Node5</title>
<g id="a_node5"><a xlink:href="classgko_1_1BatchLinOp.html" target="_top" xlink:title=" ">
<polygon fill="#ffffff" stroke="#000000" points="959.5,-133.1433 959.5,-152.1433 1055.5,-152.1433 1055.5,-133.1433 959.5,-133.1433"/>
<text text-anchor="middle" x="1007.5" y="-140.1433" font-family="Helvetica,sans-Serif" font-size="10.00" fill="#000000">gko::BatchLinOp</text>
</a>
</g>
</g>
<!-- Node5&#45;&gt;Node4 -->
<g id="edge4" class="edge">
<title>Node5&#45;&gt;Node4</title>
<path fill="none" stroke="#191970" d="M1065.9932,-148.1454C1118.6125,-153.1804 1198.0211,-160.9899 1267,-168.6433 1275.8956,-169.6303 1285.1734,-170.6972 1294.4318,-171.7864"/>
<polygon fill="#191970" stroke="#191970" points="1066.1249,-144.6422 1055.8376,-147.1763 1065.4598,-151.6105 1066.1249,-144.6422"/>
</g>
<!-- Node6 -->
<g id="node6" class="node">
<title>Node6</title>
<g id="a_node6"><a xlink:href="classgko_1_1EnableAbstractPolymorphicObject.html" target="_top" xlink:title=" ">
<polygon fill="#ffffff" stroke="#ff0000" points="542,-123.6433 542,-153.6433 717,-153.6433 717,-123.6433 542,-123.6433"/>
<text text-anchor="start" x="550" y="-141.6433" font-family="Helvetica,sans-Serif" font-size="10.00" fill="#000000">gko::EnableAbstractPolymorphic</text>
<text text-anchor="middle" x="629.5" y="-130.6433" font-family="Helvetica,sans-Serif" font-size="10.00" fill="#000000">Object&lt; BatchLinOp &gt;</text>
</a>
</g>
</g>
<!-- Node6&#45;&gt;Node5 -->
<g id="edge5" class="edge">
<title>Node6&#45;&gt;Node5</title>
<path fill="none" stroke="#191970" d="M727.5036,-139.6804C801.9432,-140.4681 901.1188,-141.5176 959.2661,-142.1329"/>
<polygon fill="#191970" stroke="#191970" points="727.2074,-136.1772 717.1709,-139.5711 727.1333,-143.1768 727.2074,-136.1772"/>
</g>
<!-- Node12 -->
<g id="node7" class="node">
<title>Node12</title>
<g id="a_node7"><a xlink:href="classgko_1_1EnableAbstractPolymorphicObject.html" target="_top" xlink:title="This mixin inherits from (a subclass of) PolymorphicObject and provides a base implementation of a ne...">
<polygon fill="#ffffff" stroke="#000000" points="138,-82.1433 138,-123.1433 336,-123.1433 336,-82.1433 138,-82.1433"/>
<text text-anchor="start" x="146" y="-111.1433" font-family="Helvetica,sans-Serif" font-size="10.00" fill="#000000">gko::EnableAbstractPolymorphic</text>
<text text-anchor="start" x="146" y="-100.1433" font-family="Helvetica,sans-Serif" font-size="10.00" fill="#000000">Object&lt; AbstractObject, Polymorphic</text>
<text text-anchor="middle" x="237" y="-89.1433" font-family="Helvetica,sans-Serif" font-size="10.00" fill="#000000">Base &gt;</text>
</a>
</g>
</g>
<!-- Node12&#45;&gt;Node4 -->
<g id="edge8" class="edge">
<title>Node12&#45;&gt;Node4</title>
<path fill="none" stroke="#ffa500" stroke-dasharray="5,2" d="M289.893,-127.1866C309.6144,-135.33 332.4501,-143.5964 354,-148.6433 430.0064,-166.4439 451.0503,-159.4387 529,-163.6433 808.3688,-178.7125 1139.8256,-181.8883 1294.4389,-182.5176"/>
<polygon fill="#ffa500" stroke="#ffa500" points="291.0549,-123.8781 280.481,-123.2135 288.3326,-130.3271 291.0549,-123.8781"/>
<text text-anchor="start" x="759.5" y="-190.6433" font-family="Helvetica,sans-Serif" font-size="10.00" fill="#000000"> &lt; BatchIdr&lt; ValueType</text>
<text text-anchor="middle" x="817.5" y="-179.6433" font-family="Helvetica,sans-Serif" font-size="10.00" fill="#000000"> &gt;, BatchLinOp &gt;</text>
</g>
<!-- Node12&#45;&gt;Node6 -->
<g id="edge6" class="edge">
<title>Node12&#45;&gt;Node6</title>
<path fill="none" stroke="#ffa500" stroke-dasharray="5,2" d="M346.2714,-120.7387C348.8708,-121.056 351.45,-121.3583 354,-121.6433 416.6259,-128.643 487.6066,-132.9372 541.8344,-135.4585"/>
<polygon fill="#ffa500" stroke="#ffa500" points="346.5267,-117.243 336.1634,-119.4459 345.6385,-124.1864 346.5267,-117.243"/>
<text text-anchor="middle" x="432.5" y="-136.6433" font-family="Helvetica,sans-Serif" font-size="10.00" fill="#000000"> &lt; BatchLinOp &gt;</text>
</g>
<!-- Node14 -->
<g id="node10" class="node">
<title>Node14</title>
<g id="a_node10"><a xlink:href="classgko_1_1EnableAbstractPolymorphicObject.html" target="_top" xlink:title=" ">
<polygon fill="#ffffff" stroke="#000000" points="529,-63.1433 529,-104.1433 730,-104.1433 730,-63.1433 529,-63.1433"/>
<text text-anchor="start" x="537" y="-92.1433" font-family="Helvetica,sans-Serif" font-size="10.00" fill="#000000">gko::EnableAbstractPolymorphic</text>
<text text-anchor="start" x="537" y="-81.1433" font-family="Helvetica,sans-Serif" font-size="10.00" fill="#000000">Object&lt; ConcreteObject, Polymorphic</text>
<text text-anchor="middle" x="629.5" y="-70.1433" font-family="Helvetica,sans-Serif" font-size="10.00" fill="#000000">Base &gt;</text>
</a>
</g>
</g>
<!-- Node12&#45;&gt;Node14 -->
<g id="edge12" class="edge">
<title>Node12&#45;&gt;Node14</title>
<path fill="none" stroke="#ffa500" stroke-dasharray="5,2" d="M346.2032,-97.3571C403.3756,-94.5895 472.9091,-91.2235 528.78,-88.519"/>
<polygon fill="#ffa500" stroke="#ffa500" points="345.8634,-93.8693 336.0443,-97.8488 346.2019,-100.8611 345.8634,-93.8693"/>
<text text-anchor="start" x="354" y="-109.6433" font-family="Helvetica,sans-Serif" font-size="10.00" fill="#000000"> &lt; ConcreteObject, Polymorphic</text>
<text text-anchor="middle" x="432.5" y="-98.6433" font-family="Helvetica,sans-Serif" font-size="10.00" fill="#000000">Base &gt;</text>
</g>
<!-- Node21 -->
<g id="node17" class="node">
<title>Node21</title>
<g id="a_node17"><a xlink:href="classgko_1_1EnableAbstractPolymorphicObject.html" target="_top" xlink:title=" ">
<polygon fill="#ffffff" stroke="#000000" points="542,-3.1433 542,-44.1433 717,-44.1433 717,-3.1433 542,-3.1433"/>
<text text-anchor="start" x="550" y="-32.1433" font-family="Helvetica,sans-Serif" font-size="10.00" fill="#000000">gko::EnableAbstractPolymorphic</text>
<text text-anchor="start" x="550" y="-21.1433" font-family="Helvetica,sans-Serif" font-size="10.00" fill="#000000">Object&lt; ConcreteBatchLinOp,</text>
<text text-anchor="middle" x="629.5" y="-10.1433" font-family="Helvetica,sans-Serif" font-size="10.00" fill="#000000"> PolymorphicBase &gt;</text>
</a>
</g>
</g>
<!-- Node12&#45;&gt;Node21 -->
<g id="edge22" class="edge">
<title>Node12&#45;&gt;Node21</title>
<path fill="none" stroke="#ffa500" stroke-dasharray="5,2" d="M301.7934,-78.7708C318.6233,-73.2 336.8463,-67.7135 354,-63.6433 416.074,-48.9147 487.3811,-38.7402 541.8961,-32.3393"/>
<polygon fill="#ffa500" stroke="#ffa500" points="300.422,-75.5395 292.0639,-82.0504 302.658,-82.1728 300.422,-75.5395"/>
<text text-anchor="start" x="374" y="-77.6433" font-family="Helvetica,sans-Serif" font-size="10.00" fill="#000000"> &lt; ConcreteBatchLinOp,</text>
<text text-anchor="middle" x="432.5" y="-66.6433" font-family="Helvetica,sans-Serif" font-size="10.00" fill="#000000"> PolymorphicBase &gt;</text>
</g>
<!-- Node11 -->
<g id="node8" class="node">
<title>Node11</title>
<g id="a_node8"><a xlink:title=" ">
<polygon fill="#ffffff" stroke="#bfbfbf" points="0,-15.1433 0,-34.1433 101,-34.1433 101,-15.1433 0,-15.1433"/>
<text text-anchor="middle" x="50.5" y="-22.1433" font-family="Helvetica,sans-Serif" font-size="10.00" fill="#000000">PolymorphicBase</text>
</a>
</g>
</g>
<!-- Node11&#45;&gt;Node12 -->
<g id="edge7" class="edge">
<title>Node11&#45;&gt;Node12</title>
<path fill="none" stroke="#191970" d="M82.5985,-38.0679C111.5007,-50.1557 154.4214,-68.1064 187.6791,-82.0158"/>
<polygon fill="#191970" stroke="#191970" points="83.9447,-34.8372 73.3686,-34.2077 81.2437,-41.2952 83.9447,-34.8372"/>
</g>
<!-- Node11&#45;&gt;Node14 -->
<g id="edge11" class="edge">
<title>Node11&#45;&gt;Node14</title>
<path fill="none" stroke="#191970" d="M111.3499,-21.6244C219.3143,-17.0695 439.7293,-11.6079 511,-38.6433 520.7367,-42.3368 519.8235,-48.7202 529,-53.6433 535.4984,-57.1297 542.456,-60.2638 549.5648,-63.0698"/>
<polygon fill="#191970" stroke="#191970" points="111.1008,-18.1318 101.2616,-22.0612 111.4037,-25.1253 111.1008,-18.1318"/>
</g>
<!-- Node11&#45;&gt;Node21 -->
<g id="edge21" class="edge">
<title>Node11&#45;&gt;Node21</title>
<path fill="none" stroke="#191970" d="M100.0089,-13.2993C106.37,-12.2035 112.8183,-11.2686 119,-10.6433 292.3378,6.8888 337.0377,-1.1296 511,-10.6433 521.0228,-11.1915 531.5011,-11.9985 541.9026,-12.9467"/>
<polygon fill="#191970" stroke="#191970" points="99.3286,-9.8657 90.1355,-15.1322 100.6063,-16.7481 99.3286,-9.8657"/>
</g>
<!-- Node13 -->
<g id="node9" class="node">
<title>Node13</title>
<g id="a_node9"><a xlink:href="classgko_1_1EnablePolymorphicObject.html" target="_top" xlink:title="This mixin inherits from (a subclass of) PolymorphicObject and provides a base implementation of a ne...">
<polygon fill="#ffffff" stroke="#000000" points="905,-68.6433 905,-98.6433 1110,-98.6433 1110,-68.6433 905,-68.6433"/>
<text text-anchor="start" x="913" y="-86.6433" font-family="Helvetica,sans-Serif" font-size="10.00" fill="#000000">gko::EnablePolymorphicObject</text>
<text text-anchor="middle" x="1007.5" y="-75.6433" font-family="Helvetica,sans-Serif" font-size="10.00" fill="#000000">&lt; ConcreteObject, PolymorphicBase &gt;</text>
</a>
</g>
</g>
<!-- Node13&#45;&gt;Node3 -->
<g id="edge9" class="edge">
<title>Node13&#45;&gt;Node3</title>
<path fill="none" stroke="#ffa500" stroke-dasharray="5,2" d="M1105.292,-100.0381C1112.962,-101.0258 1120.5994,-101.9131 1128,-102.6433 1263.3971,-116.0032 1421.5755,-120.0239 1515.8441,-121.2011"/>
<polygon fill="#ffa500" stroke="#ffa500" points="1105.5835,-96.546 1095.2072,-98.6867 1104.6538,-103.484 1105.5835,-96.546"/>
<text text-anchor="start" x="1324" y="-133.6433" font-family="Helvetica,sans-Serif" font-size="10.00" fill="#000000"> &lt; BatchIdr&lt; ValueType</text>
<text text-anchor="middle" x="1382" y="-122.6433" font-family="Helvetica,sans-Serif" font-size="10.00" fill="#000000"> &gt;, BatchLinOp &gt;</text>
</g>
<!-- Node20 -->
<g id="node16" class="node">
<title>Node20</title>
<g id="a_node16"><a xlink:href="classgko_1_1EnablePolymorphicObject.html" target="_top" xlink:title=" ">
<polygon fill="#ffffff" stroke="#000000" points="1285,-44.1433 1285,-85.1433 1479,-85.1433 1479,-44.1433 1285,-44.1433"/>
<text text-anchor="start" x="1293" y="-73.1433" font-family="Helvetica,sans-Serif" font-size="10.00" fill="#000000">gko::EnablePolymorphicObject</text>
<text text-anchor="start" x="1293" y="-62.1433" font-family="Helvetica,sans-Serif" font-size="10.00" fill="#000000">&lt; ConcreteBatchLinOp, Polymorphic</text>
<text text-anchor="middle" x="1382" y="-51.1433" font-family="Helvetica,sans-Serif" font-size="10.00" fill="#000000">Base &gt;</text>
</a>
</g>
</g>
<!-- Node13&#45;&gt;Node20 -->
<g id="edge23" class="edge">
<title>Node13&#45;&gt;Node20</title>
<path fill="none" stroke="#ffa500" stroke-dasharray="5,2" d="M1120.3481,-77.9181C1172.7945,-75.2572 1234.5405,-72.1246 1284.8761,-69.5709"/>
<polygon fill="#ffa500" stroke="#ffa500" points="1120.1389,-74.4241 1110.3291,-78.4264 1120.4936,-81.4151 1120.1389,-74.4241"/>
<text text-anchor="start" x="1139" y="-90.6433" font-family="Helvetica,sans-Serif" font-size="10.00" fill="#000000"> &lt; ConcreteBatchLinOp,</text>
<text text-anchor="middle" x="1197.5" y="-79.6433" font-family="Helvetica,sans-Serif" font-size="10.00" fill="#000000"> PolymorphicBase &gt;</text>
</g>
<!-- Node14&#45;&gt;Node13 -->
<g id="edge10" class="edge">
<title>Node14&#45;&gt;Node13</title>
<path fill="none" stroke="#191970" d="M740.5475,-83.6433C792.4458,-83.6433 853.8523,-83.6433 904.6784,-83.6433"/>
<polygon fill="#191970" stroke="#191970" points="740.3005,-80.1434 730.3005,-83.6433 740.3005,-87.1434 740.3005,-80.1434"/>
</g>
<!-- Node15 -->
<g id="node11" class="node">
<title>Node15</title>
<g id="a_node11"><a xlink:href="classgko_1_1EnablePolymorphicAssignment.html" target="_top" xlink:title=" ">
<polygon fill="#ffffff" stroke="#000000" points="1286,-278.6433 1286,-308.6433 1478,-308.6433 1478,-278.6433 1286,-278.6433"/>
<text text-anchor="start" x="1294" y="-296.6433" font-family="Helvetica,sans-Serif" font-size="10.00" fill="#000000">gko::EnablePolymorphicAssignment</text>
<text text-anchor="middle" x="1382" y="-285.6433" font-family="Helvetica,sans-Serif" font-size="10.00" fill="#000000">&lt; BatchIdr&lt; ValueType &gt; &gt;</text>
</a>
</g>
</g>
<!-- Node15&#45;&gt;Node2 -->
<g id="edge13" class="edge">
<title>Node15&#45;&gt;Node2</title>
<path fill="none" stroke="#191970" d="M1466.9462,-276.5863C1559.2854,-257.3462 1710.817,-223.7288 1839,-185.6433 1859.5177,-179.5472 1881.9734,-171.5841 1900.3981,-164.6976"/>
<polygon fill="#191970" stroke="#191970" points="1466.1721,-273.1723 1457.0922,-278.6318 1467.5948,-280.0262 1466.1721,-273.1723"/>
</g>
<!-- Node16 -->
<g id="node12" class="node">
<title>Node16</title>
<g id="a_node12"><a xlink:href="classgko_1_1ConvertibleTo.html" target="_top" xlink:title=" ">
<polygon fill="#ffffff" stroke="#000000" points="931.5,-309.6433 931.5,-339.6433 1083.5,-339.6433 1083.5,-309.6433 931.5,-309.6433"/>
<text text-anchor="start" x="939.5" y="-327.6433" font-family="Helvetica,sans-Serif" font-size="10.00" fill="#000000">gko::ConvertibleTo</text>
<text text-anchor="middle" x="1007.5" y="-316.6433" font-family="Helvetica,sans-Serif" font-size="10.00" fill="#000000">&lt; BatchIdr&lt; ValueType &gt; &gt;</text>
</a>
</g>
</g>
<!-- Node16&#45;&gt;Node15 -->
<g id="edge14" class="edge">
<title>Node16&#45;&gt;Node15</title>
<path fill="none" stroke="#191970" d="M1093.8674,-317.4941C1151.2306,-312.7457 1226.601,-306.5068 1285.8676,-301.6009"/>
<polygon fill="#191970" stroke="#191970" points="1093.4142,-314.0196 1083.7371,-318.3327 1093.9917,-320.9957 1093.4142,-314.0196"/>
</g>
<!-- Node17 -->
<g id="node13" class="node">
<title>Node17</title>
<g id="a_node13"><a xlink:href="classgko_1_1ConvertibleTo.html" target="_top" xlink:title="ConvertibleTo interface is used to mark that the implementer can be converted to the object of Result...">
<polygon fill="#ffffff" stroke="#000000" points="576,-260.6433 576,-290.6433 683,-290.6433 683,-260.6433 576,-260.6433"/>
<text text-anchor="start" x="584" y="-278.6433" font-family="Helvetica,sans-Serif" font-size="10.00" fill="#000000">gko::ConvertibleTo</text>
<text text-anchor="middle" x="629.5" y="-267.6433" font-family="Helvetica,sans-Serif" font-size="10.00" fill="#000000">&lt; ResultType &gt;</text>
</a>
</g>
</g>
<!-- Node17&#45;&gt;Node16 -->
<g id="edge15" class="edge">
<title>Node17&#45;&gt;Node16</title>
<path fill="none" stroke="#ffa500" stroke-dasharray="5,2" d="M693.482,-283.9373C759.2162,-292.4584 861.5359,-305.7221 931.3867,-314.7768"/>
<polygon fill="#ffa500" stroke="#ffa500" points="693.6237,-280.4265 683.2567,-282.6118 692.7238,-287.3684 693.6237,-280.4265"/>
<text text-anchor="middle" x="817.5" y="-311.6433" font-family="Helvetica,sans-Serif" font-size="10.00" fill="#000000"> &lt; BatchIdr&lt; ValueType &gt; &gt;</text>
</g>
<!-- Node18 -->
<g id="node14" class="node">
<title>Node18</title>
<g id="a_node14"><a xlink:href="classgko_1_1EnablePolymorphicAssignment.html" target="_top" xlink:title="This mixin is used to enable a default PolymorphicObject::copy_from() implementation for objects that...">
<polygon fill="#ffffff" stroke="#000000" points="911.5,-260.6433 911.5,-290.6433 1103.5,-290.6433 1103.5,-260.6433 911.5,-260.6433"/>
<text text-anchor="start" x="919.5" y="-278.6433" font-family="Helvetica,sans-Serif" font-size="10.00" fill="#000000">gko::EnablePolymorphicAssignment</text>
<text text-anchor="middle" x="1007.5" y="-267.6433" font-family="Helvetica,sans-Serif" font-size="10.00" fill="#000000">&lt; ConcreteType, ResultType &gt;</text>
</a>
</g>
</g>
<!-- Node17&#45;&gt;Node18 -->
<g id="edge17" class="edge">
<title>Node17&#45;&gt;Node18</title>
<path fill="none" stroke="#191970" d="M693.2948,-275.6433C752.9402,-275.6433 842.8255,-275.6433 911.1983,-275.6433"/>
<polygon fill="#191970" stroke="#191970" points="693.2568,-272.1434 683.2567,-275.6433 693.2567,-279.1434 693.2568,-272.1434"/>
</g>
<!-- Node23 -->
<g id="node19" class="node">
<title>Node23</title>
<g id="a_node19"><a xlink:href="classgko_1_1ConvertibleTo.html" target="_top" xlink:title=" ">
<polygon fill="#ffffff" stroke="#000000" points="938.5,-211.6433 938.5,-241.6433 1076.5,-241.6433 1076.5,-211.6433 938.5,-211.6433"/>
<text text-anchor="start" x="946.5" y="-229.6433" font-family="Helvetica,sans-Serif" font-size="10.00" fill="#000000">gko::ConvertibleTo</text>
<text text-anchor="middle" x="1007.5" y="-218.6433" font-family="Helvetica,sans-Serif" font-size="10.00" fill="#000000">&lt; ConcreteBatchLinOp &gt;</text>
</a>
</g>
</g>
<!-- Node17&#45;&gt;Node23 -->
<g id="edge26" class="edge">
<title>Node17&#45;&gt;Node23</title>
<path fill="none" stroke="#ffa500" stroke-dasharray="5,2" d="M693.3947,-267.3607C761.2988,-258.5583 868.3148,-244.6859 938.2089,-235.6255"/>
<polygon fill="#ffa500" stroke="#ffa500" points="692.7238,-263.9183 683.2567,-268.6749 693.6237,-270.8602 692.7238,-263.9183"/>
<text text-anchor="middle" x="817.5" y="-262.6433" font-family="Helvetica,sans-Serif" font-size="10.00" fill="#000000"> &lt; ConcreteBatchLinOp &gt;</text>
</g>
<!-- Node18&#45;&gt;Node15 -->
<g id="edge16" class="edge">
<title>Node18&#45;&gt;Node15</title>
<path fill="none" stroke="#ffa500" stroke-dasharray="5,2" d="M1114.2498,-280.7742C1168.3018,-283.3721 1233.4072,-286.5014 1285.8838,-289.0236"/>
<polygon fill="#ffa500" stroke="#ffa500" points="1114.0996,-277.263 1103.9431,-280.2788 1113.7635,-284.2549 1114.0996,-277.263"/>
<text text-anchor="middle" x="1197.5" y="-290.6433" font-family="Helvetica,sans-Serif" font-size="10.00" fill="#000000"> &lt; BatchIdr&lt; ValueType &gt; &gt;</text>
</g>
<!-- Node22 -->
<g id="node18" class="node">
<title>Node22</title>
<g id="a_node18"><a xlink:href="classgko_1_1EnablePolymorphicAssignment.html" target="_top" xlink:title=" ">
<polygon fill="#ffffff" stroke="#000000" points="1286,-222.6433 1286,-252.6433 1478,-252.6433 1478,-222.6433 1286,-222.6433"/>
<text text-anchor="start" x="1294" y="-240.6433" font-family="Helvetica,sans-Serif" font-size="10.00" fill="#000000">gko::EnablePolymorphicAssignment</text>
<text text-anchor="middle" x="1382" y="-229.6433" font-family="Helvetica,sans-Serif" font-size="10.00" fill="#000000">&lt; ConcreteBatchLinOp &gt;</text>
</a>
</g>
</g>
<!-- Node18&#45;&gt;Node22 -->
<g id="edge27" class="edge">
<title>Node18&#45;&gt;Node22</title>
<path fill="none" stroke="#ffa500" stroke-dasharray="5,2" d="M1113.9128,-264.8458C1168.031,-259.3545 1233.2981,-252.7319 1285.8838,-247.3961"/>
<polygon fill="#ffa500" stroke="#ffa500" points="1113.5386,-261.3657 1103.9431,-265.8574 1114.2453,-268.3299 1113.5386,-261.3657"/>
<text text-anchor="middle" x="1197.5" y="-265.6433" font-family="Helvetica,sans-Serif" font-size="10.00" fill="#000000"> &lt; ConcreteBatchLinOp &gt;</text>
</g>
<!-- Node19 -->
<g id="node15" class="node">
<title>Node19</title>
<g id="a_node15"><a xlink:href="classgko_1_1EnableBatchLinOp.html" target="_top" xlink:title="The EnableBatchLinOp mixin can be used to provide sensible default implementations of the majority of...">
<polygon fill="#ffffff" stroke="#000000" points="1534,-161.1433 1534,-202.1433 1664,-202.1433 1664,-161.1433 1534,-161.1433"/>
<text text-anchor="start" x="1542" y="-190.1433" font-family="Helvetica,sans-Serif" font-size="10.00" fill="#000000">gko::EnableBatchLinOp</text>
<text text-anchor="start" x="1542" y="-179.1433" font-family="Helvetica,sans-Serif" font-size="10.00" fill="#000000">&lt; ConcreteBatchLinOp,</text>
<text text-anchor="middle" x="1599" y="-168.1433" font-family="Helvetica,sans-Serif" font-size="10.00" fill="#000000"> PolymorphicBase &gt;</text>
</a>
</g>
</g>
<!-- Node19&#45;&gt;Node2 -->
<g id="edge18" class="edge">
<title>Node19&#45;&gt;Node2</title>
<path fill="none" stroke="#ffa500" stroke-dasharray="5,2" d="M1674.3713,-174.5496C1730.3995,-169.2763 1806.5521,-162.109 1862.7817,-156.8168"/>
<polygon fill="#ffa500" stroke="#ffa500" points="1673.7811,-171.0896 1664.1531,-175.5113 1674.4371,-178.0588 1673.7811,-171.0896"/>
<text text-anchor="middle" x="1769.5" y="-173.6433" font-family="Helvetica,sans-Serif" font-size="10.00" fill="#000000"> &lt; BatchIdr&lt; ValueType &gt; &gt;</text>
</g>
<!-- Node20&#45;&gt;Node19 -->
<g id="edge19" class="edge">
<title>Node20&#45;&gt;Node19</title>
<path fill="none" stroke="#191970" d="M1463.7168,-89.8336C1469.0933,-92.777 1474.2498,-96.0372 1479,-99.6433 1501.592,-116.7939 1493.4127,-134.4865 1516,-151.6433 1521.4906,-155.8139 1527.6156,-159.4452 1533.9822,-162.598"/>
<polygon fill="#191970" stroke="#191970" points="1464.9975,-86.5594 1454.4935,-85.1743 1461.8411,-92.8074 1464.9975,-86.5594"/>
</g>
<!-- Node21&#45;&gt;Node20 -->
<g id="edge20" class="edge">
<title>Node21&#45;&gt;Node20</title>
<path fill="none" stroke="#191970" d="M727.4861,-28.9821C872.0731,-36.8599 1140.9616,-51.5104 1284.988,-59.3576"/>
<polygon fill="#191970" stroke="#191970" points="727.4697,-25.4761 717.294,-28.4268 727.0888,-32.4658 727.4697,-25.4761"/>
</g>
<!-- Node22&#45;&gt;Node19 -->
<g id="edge24" class="edge">
<title>Node22&#45;&gt;Node19</title>
<path fill="none" stroke="#191970" d="M1450.4046,-220.0184C1460.007,-217.5428 1469.7517,-215.0297 1479,-212.6433 1496.8138,-208.0468 1516.114,-203.0627 1533.9207,-198.4626"/>
<polygon fill="#191970" stroke="#191970" points="1449.2859,-216.6923 1440.4762,-222.5778 1451.0333,-223.4707 1449.2859,-216.6923"/>
</g>
<!-- Node23&#45;&gt;Node22 -->
<g id="edge25" class="edge">
<title>Node23&#45;&gt;Node22</title>
<path fill="none" stroke="#191970" d="M1086.8533,-228.9741C1144.9438,-230.6804 1224.0643,-233.0044 1285.7641,-234.8167"/>
<polygon fill="#191970" stroke="#191970" points="1086.724,-225.4689 1076.6255,-228.6737 1086.5184,-232.4659 1086.724,-225.4689"/>
</g>
<!-- Node24 -->
<g id="node20" class="node">
<title>Node24</title>
<g id="a_node20"><a xlink:href="classgko_1_1BatchTransposable.html" target="_top" xlink:title="Batch Linear operators which support transposition of the distinct batch entries should implement the...">
<polygon fill="#ffffff" stroke="#000000" points="1873,-95.1433 1873,-114.1433 2005,-114.1433 2005,-95.1433 1873,-95.1433"/>
<text text-anchor="middle" x="1939" y="-102.1433" font-family="Helvetica,sans-Serif" font-size="10.00" fill="#000000">gko::BatchTransposable</text>
</a>
</g>
</g>
<!-- Node24&#45;&gt;Node1 -->
<g id="edge28" class="edge">
<title>Node24&#45;&gt;Node1</title>
<path fill="none" stroke="#191970" d="M2015.3791,-104.6433C2029.6385,-104.6433 2044.3324,-104.6433 2057.9495,-104.6433"/>
<polygon fill="#191970" stroke="#191970" points="2015.0945,-101.1434 2005.0944,-104.6433 2015.0944,-108.1434 2015.0945,-101.1434"/>
</g>
<!-- Node25 -->
<g id="node21" class="node">
<title>Node25</title>
<g id="a_node21"><a xlink:href="classgko_1_1EnableBatchScaledSolver.html" target="_top" xlink:title="Provides basic functionality for solvers which need to be composed with batch scaling.">
<polygon fill="#ffffff" stroke="#000000" points="1857,-43.6433 1857,-73.6433 2021,-73.6433 2021,-43.6433 1857,-43.6433"/>
<text text-anchor="start" x="1865" y="-61.6433" font-family="Helvetica,sans-Serif" font-size="10.00" fill="#000000">gko::EnableBatchScaledSolver</text>
<text text-anchor="middle" x="1939" y="-50.6433" font-family="Helvetica,sans-Serif" font-size="10.00" fill="#000000">&lt; ValueType &gt;</text>
</a>
</g>
</g>
<!-- Node25&#45;&gt;Node1 -->
<g id="edge29" class="edge">
<title>Node25&#45;&gt;Node1</title>
<path fill="none" stroke="#191970" d="M2006.9892,-76.2631C2023.9971,-80.6708 2042.0827,-85.3577 2058.5526,-89.626"/>
<polygon fill="#191970" stroke="#191970" points="2007.6784,-72.8261 1997.1201,-73.7055 2005.9223,-79.6023 2007.6784,-72.8261"/>
</g>
<!-- Node26 -->
<g id="node22" class="node">
<title>Node26</title>
<g id="a_node22"><a xlink:href="classgko_1_1EnableBatchScaling.html" target="_top" xlink:title="Default batch scalable interface with some type&#45;checking.">
<polygon fill="#ffffff" stroke="#000000" points="1530.5,-30.6433 1530.5,-60.6433 1667.5,-60.6433 1667.5,-30.6433 1530.5,-30.6433"/>
<text text-anchor="start" x="1538.5" y="-48.6433" font-family="Helvetica,sans-Serif" font-size="10.00" fill="#000000">gko::EnableBatchScaling</text>
<text text-anchor="middle" x="1599" y="-37.6433" font-family="Helvetica,sans-Serif" font-size="10.00" fill="#000000">&lt; ValueType &gt;</text>
</a>
</g>
</g>
<!-- Node26&#45;&gt;Node25 -->
<g id="edge30" class="edge">
<title>Node26&#45;&gt;Node25</title>
<path fill="none" stroke="#191970" d="M1677.9577,-48.6623C1731.6263,-50.7143 1802.4664,-53.4229 1856.8073,-55.5007"/>
<polygon fill="#191970" stroke="#191970" points="1677.9305,-45.1588 1667.8041,-48.2741 1677.663,-52.1537 1677.9305,-45.1588"/>
</g>
<!-- Node27 -->
<g id="node23" class="node">
<title>Node27</title>
<g id="a_node23"><a xlink:href="classgko_1_1BatchScalable.html" target="_top" xlink:title="A batch made up of entities that can scaled from the left and right by scaling vectors.">
<polygon fill="#ffffff" stroke="#000000" points="1327,-6.1433 1327,-25.1433 1437,-25.1433 1437,-6.1433 1327,-6.1433"/>
<text text-anchor="middle" x="1382" y="-13.1433" font-family="Helvetica,sans-Serif" font-size="10.00" fill="#000000">gko::BatchScalable</text>
</a>
</g>
</g>
<!-- Node27&#45;&gt;Node26 -->
<g id="edge31" class="edge">
<title>Node27&#45;&gt;Node26</title>
<path fill="none" stroke="#191970" d="M1447.265,-24.6662C1473.5261,-28.2967 1503.8272,-32.4858 1530.4132,-36.1613"/>
<polygon fill="#191970" stroke="#191970" points="1447.4239,-21.1549 1437.0388,-23.2524 1446.4652,-28.089 1447.4239,-21.1549"/>
</g>
</g>
</svg>
        <g id="navigator" transform="translate(0 0)" fill="#404254">
                <rect fill="#f2f5e9" fill-opacity="0.5" stroke="#606060" stroke-width=".5" x="0" y="0" width="60" height="60"/>
                <use id="zoomplus" xlink:href="#zoomPlus" x="17" y="9" onmousedown="handleZoom(evt,'in')"/>
                <use id="zoomminus" xlink:href="#zoomMin" x="42" y="9" onmousedown="handleZoom(evt,'out')"/>
                <use id="reset" xlink:href="#resetDef" x="30" y="36" onmousedown="handleReset()"/>
                <g id="arrowUp" xlink:href="#dirArrow" transform="translate(30 24)" onmousedown="handlePan(0,-1)">
                  <use xlink:href="#rim" fill="#404040">
                        <set attributeName="fill" to="#808080" begin="arrowUp.mouseover" end="arrowUp.mouseout"/>
                  </use>
                  <path fill="none" stroke="white" stroke-width="1.5" d="M0,-3.0v7 M-2.5,-0.5L0,-3.0L2.5,-0.5"/>
                </g>
                <g id="arrowRight" xlink:href="#dirArrow" transform="rotate(90) translate(36 -43)" onmousedown="handlePan(1,0)">
                  <use xlink:href="#rim" fill="#404040">
                        <set attributeName="fill" to="#808080" begin="arrowRight.mouseover" end="arrowRight.mouseout"/>
                  </use>
                  <path fill="none" stroke="white" stroke-width="1.5" d="M0,-3.0v7 M-2.5,-0.5L0,-3.0L2.5,-0.5"/>
                </g>
                <g id="arrowDown" xlink:href="#dirArrow" transform="rotate(180) translate(-30 -48)" onmousedown="handlePan(0,1)">
                  <use xlink:href="#rim" fill="#404040">
                        <set attributeName="fill" to="#808080" begin="arrowDown.mouseover" end="arrowDown.mouseout"/>
                  </use>
                  <path fill="none" stroke="white" stroke-width="1.5" d="M0,-3.0v7 M-2.5,-0.5L0,-3.0L2.5,-0.5"/>
                </g>
                <g id="arrowLeft" xlink:href="#dirArrow" transform="rotate(270) translate(-36 17)" onmousedown="handlePan(-1,0)">
                  <use xlink:href="#rim" fill="#404040">
                        <set attributeName="fill" to="#808080" begin="arrowLeft.mouseover" end="arrowLeft.mouseout"/>
                  </use>
                  <path fill="none" stroke="white" stroke-width="1.5" d="M0,-3.0v7 M-2.5,-0.5L0,-3.0L2.5,-0.5"/>
                </g>
        </g>
        <svg viewBox="0 0 15 15" width="100%" height="30px" preserveAspectRatio="xMaxYMin meet">
         <g id="arrow_out" transform="scale(0.3 0.3)">
          <a xlink:href="classgko_1_1solver_1_1BatchIdr__coll__graph_org.svg" target="_base">
           <rect id="button" ry="5" rx="5" y="6" x="6" height="38" width="38"
                fill="#f2f5e9" fill-opacity="0.5" stroke="#606060" stroke-width="1.0"/>
           <path id="arrow"
             d="M 11.500037,31.436501 C 11.940474,20.09759 22.043105,11.32322 32.158766,21.979434 L 37.068811,17.246167 C 37.068811,17.246167 37.088388,32 37.088388,32 L 22.160133,31.978069 C 22.160133,31.978069 26.997745,27.140456 26.997745,27.140456 C 18.528582,18.264221 13.291696,25.230495 11.500037,31.436501 z"
             style="fill:#404040;"/>
          </a>
         </g>
        </svg>
</svg>
