<?xml version="1.0" encoding="UTF-8" standalone="no"?>
<!DOCTYPE svg PUBLIC "-//W3C//DTD SVG 1.1//EN"
 "http://www.w3.org/Graphics/SVG/1.1/DTD/svg11.dtd">
<!-- Generated by graphviz version 2.40.1 (20161225.0304)
 -->
<!-- Title: gko::solver::BatchDirect&lt; ValueType &gt; Pages: 1 -->
<!--zoomable 335 -->
<svg id="main" version="1.1" xmlns="http://www.w3.org/2000/svg" xmlns:xlink="http://www.w3.org/1999/xlink" xml:space="preserve" onload="init(evt)">
<style type="text/css"><![CDATA[
.edge:hover path { stroke: red; }
.edge:hover polygon { stroke: red; fill: red; }
]]></style>
<script type="text/javascript"><![CDATA[
var edges = document.getElementsByTagName('g');
if (edges && edges.length) {
  for (var i=0;i<edges.length;i++) {
    if (edges[i].id.substr(0,4)=='edge') {
      edges[i].setAttribute('class','edge');
    }
  }
}
]]></script>
        <defs>
                <circle id="rim" cx="0" cy="0" r="7"/>
                <circle id="rim2" cx="0" cy="0" r="3.5"/>
                <g id="zoomPlus">
                        <use xlink:href="#rim" fill="#404040">
                                <set attributeName="fill" to="#808080" begin="zoomplus.mouseover" end="zoomplus.mouseout"/>
                        </use>
                        <path d="M-4,0h8M0,-4v8" fill="none" stroke="white" stroke-width="1.5" pointer-events="none"/>
                </g>
                <g id="zoomMin">
                        <use xlink:href="#rim" fill="#404040">
                                <set attributeName="fill" to="#808080" begin="zoomminus.mouseover" end="zoomminus.mouseout"/>
                        </use>
                        <path d="M-4,0h8" fill="none" stroke="white" stroke-width="1.5" pointer-events="none"/>
                </g>
                <g id="dirArrow">
                        <path fill="none" stroke="white" stroke-width="1.5" d="M0,-3.0v7 M-2.5,-0.5L0,-3.0L2.5,-0.5"/>
                </g>
               <g id="resetDef">
                       <use xlink:href="#rim2" fill="#404040">
                               <set attributeName="fill" to="#808080" begin="reset.mouseover" end="reset.mouseout"/>
                       </use>
               </g>
        </defs>

<script type="text/javascript">
var viewWidth = 2252;
var viewHeight = 335;
var sectionId = 'dynsection-0';
</script>
<script xlink:href="svgpan.js"/>
<svg id="graph" class="graph">
<g id="viewport">
<title>gko::solver::BatchDirect&lt; ValueType &gt;</title>
<polygon fill="#ffffff" stroke="transparent" points="-4,4 -4,-330.5 2248,-330.5 2248,4 -4,4"/>
<!-- Node1 -->
<g id="node1" class="node">
<title>Node1</title>
<g id="a_node1"><a xlink:title="Solves a batch of linear systems using a vendor&#45;provided dense batched direct solver.">
<polygon fill="#bfbfbf" stroke="#000000" points="2110,-78.5 2110,-108.5 2244,-108.5 2244,-78.5 2110,-78.5"/>
<text text-anchor="start" x="2118" y="-96.5" font-family="Helvetica,sans-Serif" font-size="10.00" fill="#000000">gko::solver::BatchDirect</text>
<text text-anchor="middle" x="2177" y="-85.5" font-family="Helvetica,sans-Serif" font-size="10.00" fill="#000000">&lt; ValueType &gt;</text>
</a>
</g>
</g>
<!-- Node2 -->
<g id="node2" class="node">
<title>Node2</title>
<g id="a_node2"><a xlink:href="classgko_1_1EnableBatchLinOp.html" target="_top" xlink:title=" ">
<polygon fill="#ffffff" stroke="#000000" points="1905,-126.5 1905,-156.5 2073,-156.5 2073,-126.5 1905,-126.5"/>
<text text-anchor="start" x="1913" y="-144.5" font-family="Helvetica,sans-Serif" font-size="10.00" fill="#000000">gko::EnableBatchLinOp</text>
<text text-anchor="middle" x="1989" y="-133.5" font-family="Helvetica,sans-Serif" font-size="10.00" fill="#000000">&lt; BatchDirect&lt; ValueType &gt; &gt;</text>
</a>
</g>
</g>
<!-- Node2&#45;&gt;Node1 -->
<g id="edge1" class="edge">
<title>Node2&#45;&gt;Node1</title>
<path fill="none" stroke="#191970" d="M2057.8556,-123.9198C2077.6714,-118.8605 2099.0962,-113.3903 2118.2407,-108.5024"/>
<polygon fill="#191970" stroke="#191970" points="2056.7919,-120.5791 2047.9686,-126.4442 2058.5236,-127.3615 2056.7919,-120.5791"/>
</g>
<!-- Node3 -->
<g id="node3" class="node">
<title>Node3</title>
<g id="a_node3"><a xlink:href="classgko_1_1EnablePolymorphicObject.html" target="_top" xlink:title=" ">
<polygon fill="#ffffff" stroke="#000000" points="1548,-207 1548,-248 1714,-248 1714,-207 1548,-207"/>
<text text-anchor="start" x="1556" y="-236" font-family="Helvetica,sans-Serif" font-size="10.00" fill="#000000">gko::EnablePolymorphicObject</text>
<text text-anchor="start" x="1556" y="-225" font-family="Helvetica,sans-Serif" font-size="10.00" fill="#000000">&lt; BatchDirect&lt; ValueType</text>
<text text-anchor="middle" x="1631" y="-214" font-family="Helvetica,sans-Serif" font-size="10.00" fill="#000000"> &gt;, BatchLinOp &gt;</text>
</a>
</g>
</g>
<!-- Node3&#45;&gt;Node2 -->
<g id="edge2" class="edge">
<title>Node3&#45;&gt;Node2</title>
<path fill="none" stroke="#191970" d="M1724.0906,-205.1374C1787.8252,-189.8269 1870.6078,-169.9406 1926.5388,-156.5046"/>
<polygon fill="#191970" stroke="#191970" points="1722.9381,-201.8147 1714.0322,-207.5537 1724.5732,-208.621 1722.9381,-201.8147"/>
</g>
<!-- Node4 -->
<g id="node4" class="node">
<title>Node4</title>
<g id="a_node4"><a xlink:href="classgko_1_1EnableAbstractPolymorphicObject.html" target="_top" xlink:title=" ">
<polygon fill="#ffffff" stroke="#000000" points="1325.5,-268 1325.5,-309 1502.5,-309 1502.5,-268 1325.5,-268"/>
<text text-anchor="start" x="1333.5" y="-297" font-family="Helvetica,sans-Serif" font-size="10.00" fill="#000000">gko::EnableAbstractPolymorphic</text>
<text text-anchor="start" x="1333.5" y="-286" font-family="Helvetica,sans-Serif" font-size="10.00" fill="#000000">Object&lt; BatchDirect&lt; ValueType</text>
<text text-anchor="middle" x="1414" y="-275" font-family="Helvetica,sans-Serif" font-size="10.00" fill="#000000"> &gt;, BatchLinOp &gt;</text>
</a>
</g>
</g>
<!-- Node4&#45;&gt;Node3 -->
<g id="edge3" class="edge">
<title>Node4&#45;&gt;Node3</title>
<path fill="none" stroke="#191970" d="M1496.8921,-265.1985C1516.9377,-259.5636 1538.2201,-253.581 1557.7848,-248.0812"/>
<polygon fill="#191970" stroke="#191970" points="1495.8435,-261.8576 1487.1638,-267.9332 1497.7378,-268.5964 1495.8435,-261.8576"/>
</g>
<!-- Node5 -->
<g id="node5" class="node">
<title>Node5</title>
<g id="a_node5"><a xlink:href="classgko_1_1BatchLinOp.html" target="_top" xlink:title=" ">
<polygon fill="#ffffff" stroke="#000000" points="975.5,-275 975.5,-294 1071.5,-294 1071.5,-275 975.5,-275"/>
<text text-anchor="middle" x="1023.5" y="-282" font-family="Helvetica,sans-Serif" font-size="10.00" fill="#000000">gko::BatchLinOp</text>
</a>
</g>
</g>
<!-- Node5&#45;&gt;Node4 -->
<g id="edge4" class="edge">
<title>Node5&#45;&gt;Node4</title>
<path fill="none" stroke="#191970" d="M1082.1604,-285.1009C1146.6357,-285.7613 1250.9301,-286.8296 1325.3843,-287.5923"/>
<polygon fill="#191970" stroke="#191970" points="1081.81,-281.5972 1071.7746,-284.9945 1081.7382,-288.5968 1081.81,-281.5972"/>
</g>
<!-- Node6 -->
<g id="node6" class="node">
<title>Node6</title>
<g id="a_node6"><a xlink:href="classgko_1_1EnableAbstractPolymorphicObject.html" target="_top" xlink:title=" ">
<polygon fill="#ffffff" stroke="#ff0000" points="542,-264.5 542,-294.5 717,-294.5 717,-264.5 542,-264.5"/>
<text text-anchor="start" x="550" y="-282.5" font-family="Helvetica,sans-Serif" font-size="10.00" fill="#000000">gko::EnableAbstractPolymorphic</text>
<text text-anchor="middle" x="629.5" y="-271.5" font-family="Helvetica,sans-Serif" font-size="10.00" fill="#000000">Object&lt; BatchLinOp &gt;</text>
</a>
</g>
</g>
<!-- Node6&#45;&gt;Node5 -->
<g id="edge5" class="edge">
<title>Node6&#45;&gt;Node5</title>
<path fill="none" stroke="#191970" d="M727.8781,-280.7485C806.7672,-281.7496 914.0911,-283.1116 975.355,-283.889"/>
<polygon fill="#191970" stroke="#191970" points="727.4745,-277.2431 717.4309,-280.6159 727.3856,-284.2426 727.4745,-277.2431"/>
</g>
<!-- Node12 -->
<g id="node7" class="node">
<title>Node12</title>
<g id="a_node7"><a xlink:href="classgko_1_1EnableAbstractPolymorphicObject.html" target="_top" xlink:title="This mixin inherits from (a subclass of) PolymorphicObject and provides a base implementation of a ne...">
<polygon fill="#ffffff" stroke="#000000" points="138,-239 138,-280 336,-280 336,-239 138,-239"/>
<text text-anchor="start" x="146" y="-268" font-family="Helvetica,sans-Serif" font-size="10.00" fill="#000000">gko::EnableAbstractPolymorphic</text>
<text text-anchor="start" x="146" y="-257" font-family="Helvetica,sans-Serif" font-size="10.00" fill="#000000">Object&lt; AbstractObject, Polymorphic</text>
<text text-anchor="middle" x="237" y="-246" font-family="Helvetica,sans-Serif" font-size="10.00" fill="#000000">Base &gt;</text>
</a>
</g>
</g>
<!-- Node12&#45;&gt;Node4 -->
<g id="edge8" class="edge">
<title>Node12&#45;&gt;Node4</title>
<path fill="none" stroke="#ffa500" stroke-dasharray="5,2" d="M322.7837,-282.3382C333.2505,-284.6576 343.8353,-286.7858 354,-288.5 431.0147,-301.488 450.979,-300.9407 529,-304.5 566.6054,-306.2155 942.6713,-305.3209 1126,-303.5 1202.8967,-302.7362 1222.241,-305.1616 1299,-300.5 1307.5156,-299.9828 1316.3733,-299.3067 1325.2248,-298.5385"/>
<polygon fill="#ffa500" stroke="#ffa500" points="323.33,-278.873 312.8022,-280.0631 321.7743,-285.698 323.33,-278.873"/>
<text text-anchor="start" x="759" y="-318.5" font-family="Helvetica,sans-Serif" font-size="10.00" fill="#000000"> &lt; BatchDirect&lt; ValueType</text>
<text text-anchor="middle" x="825.5" y="-307.5" font-family="Helvetica,sans-Serif" font-size="10.00" fill="#000000"> &gt;, BatchLinOp &gt;</text>
</g>
<!-- Node12&#45;&gt;Node6 -->
<g id="edge6" class="edge">
<title>Node12&#45;&gt;Node6</title>
<path fill="none" stroke="#ffa500" stroke-dasharray="5,2" d="M346.3159,-266.0838C348.902,-266.2255 351.4664,-266.3644 354,-266.5 416.7568,-269.8579 487.5803,-273.1897 541.703,-275.6396"/>
<polygon fill="#ffa500" stroke="#ffa500" points="346.4309,-262.5848 336.2522,-265.5249 346.0427,-269.5741 346.4309,-262.5848"/>
<text text-anchor="middle" x="432.5" y="-276.5" font-family="Helvetica,sans-Serif" font-size="10.00" fill="#000000"> &lt; BatchLinOp &gt;</text>
</g>
<!-- Node14 -->
<g id="node10" class="node">
<title>Node14</title>
<g id="a_node10"><a xlink:href="classgko_1_1EnableAbstractPolymorphicObject.html" target="_top" xlink:title=" ">
<polygon fill="#ffffff" stroke="#000000" points="529,-202 529,-243 730,-243 730,-202 529,-202"/>
<text text-anchor="start" x="537" y="-231" font-family="Helvetica,sans-Serif" font-size="10.00" fill="#000000">gko::EnableAbstractPolymorphic</text>
<text text-anchor="start" x="537" y="-220" font-family="Helvetica,sans-Serif" font-size="10.00" fill="#000000">Object&lt; ConcreteObject, Polymorphic</text>
<text text-anchor="middle" x="629.5" y="-209" font-family="Helvetica,sans-Serif" font-size="10.00" fill="#000000">Base &gt;</text>
</a>
</g>
</g>
<!-- Node12&#45;&gt;Node14 -->
<g id="edge12" class="edge">
<title>Node12&#45;&gt;Node14</title>
<path fill="none" stroke="#ffa500" stroke-dasharray="5,2" d="M346.2728,-241.4171C348.8718,-241.0961 351.4505,-240.7896 354,-240.5 411.7459,-233.94 476.5935,-229.5562 528.8616,-226.7587"/>
<polygon fill="#ffa500" stroke="#ffa500" points="345.6355,-237.9703 336.1662,-242.7224 346.5322,-244.9126 345.6355,-237.9703"/>
<text text-anchor="start" x="354" y="-254.5" font-family="Helvetica,sans-Serif" font-size="10.00" fill="#000000"> &lt; ConcreteObject, Polymorphic</text>
<text text-anchor="middle" x="432.5" y="-243.5" font-family="Helvetica,sans-Serif" font-size="10.00" fill="#000000">Base &gt;</text>
</g>
<!-- Node21 -->
<g id="node17" class="node">
<title>Node21</title>
<g id="a_node17"><a xlink:href="classgko_1_1EnableAbstractPolymorphicObject.html" target="_top" xlink:title=" ">
<polygon fill="#ffffff" stroke="#000000" points="542,-137 542,-178 717,-178 717,-137 542,-137"/>
<text text-anchor="start" x="550" y="-166" font-family="Helvetica,sans-Serif" font-size="10.00" fill="#000000">gko::EnableAbstractPolymorphic</text>
<text text-anchor="start" x="550" y="-155" font-family="Helvetica,sans-Serif" font-size="10.00" fill="#000000">Object&lt; ConcreteBatchLinOp,</text>
<text text-anchor="middle" x="629.5" y="-144" font-family="Helvetica,sans-Serif" font-size="10.00" fill="#000000"> PolymorphicBase &gt;</text>
</a>
</g>
</g>
<!-- Node12&#45;&gt;Node21 -->
<g id="edge22" class="edge">
<title>Node12&#45;&gt;Node21</title>
<path fill="none" stroke="#ffa500" stroke-dasharray="5,2" d="M280.2978,-234.1151C301.8104,-222.5335 328.5847,-209.6215 354,-201.5 415.1323,-181.965 486.7861,-170.8647 541.6933,-164.7011"/>
<polygon fill="#ffa500" stroke="#ffa500" points="278.5078,-231.1049 271.4196,-238.9793 281.8713,-237.2439 278.5078,-231.1049"/>
<text text-anchor="start" x="374" y="-215.5" font-family="Helvetica,sans-Serif" font-size="10.00" fill="#000000"> &lt; ConcreteBatchLinOp,</text>
<text text-anchor="middle" x="432.5" y="-204.5" font-family="Helvetica,sans-Serif" font-size="10.00" fill="#000000"> PolymorphicBase &gt;</text>
</g>
<!-- Node11 -->
<g id="node8" class="node">
<title>Node11</title>
<g id="a_node8"><a xlink:title=" ">
<polygon fill="#ffffff" stroke="#bfbfbf" points="0,-201 0,-220 101,-220 101,-201 0,-201"/>
<text text-anchor="middle" x="50.5" y="-208" font-family="Helvetica,sans-Serif" font-size="10.00" fill="#000000">PolymorphicBase</text>
</a>
</g>
</g>
<!-- Node11&#45;&gt;Node12 -->
<g id="edge7" class="edge">
<title>Node11&#45;&gt;Node12</title>
<path fill="none" stroke="#191970" d="M96.6373,-222.6219C115.3596,-227.5409 137.5184,-233.3628 158.6324,-238.9101"/>
<polygon fill="#191970" stroke="#191970" points="97.463,-219.2201 86.9018,-220.064 95.6842,-225.9903 97.463,-219.2201"/>
</g>
<!-- Node11&#45;&gt;Node14 -->
<g id="edge11" class="edge">
<title>Node11&#45;&gt;Node14</title>
<path fill="none" stroke="#191970" d="M111.2841,-211.7598C210.5662,-213.8174 408.5048,-217.9198 528.9546,-220.4162"/>
<polygon fill="#191970" stroke="#191970" points="111.1924,-208.2572 101.122,-211.5492 111.0473,-215.2557 111.1924,-208.2572"/>
</g>
<!-- Node11&#45;&gt;Node21 -->
<g id="edge21" class="edge">
<title>Node11&#45;&gt;Node21</title>
<path fill="none" stroke="#191970" d="M110.3244,-199.1707C171.3459,-188.1489 268.8885,-172.0016 354,-164.5 416.6736,-158.976 487.653,-157.2801 541.8682,-156.937"/>
<polygon fill="#191970" stroke="#191970" points="109.6932,-195.728 100.4812,-200.9614 110.9462,-202.6149 109.6932,-195.728"/>
</g>
<!-- Node13 -->
<g id="node9" class="node">
<title>Node13</title>
<g id="a_node9"><a xlink:href="classgko_1_1EnablePolymorphicObject.html" target="_top" xlink:title="This mixin inherits from (a subclass of) PolymorphicObject and provides a base implementation of a ne...">
<polygon fill="#ffffff" stroke="#000000" points="921,-207.5 921,-237.5 1126,-237.5 1126,-207.5 921,-207.5"/>
<text text-anchor="start" x="929" y="-225.5" font-family="Helvetica,sans-Serif" font-size="10.00" fill="#000000">gko::EnablePolymorphicObject</text>
<text text-anchor="middle" x="1023.5" y="-214.5" font-family="Helvetica,sans-Serif" font-size="10.00" fill="#000000">&lt; ConcreteObject, PolymorphicBase &gt;</text>
</a>
</g>
</g>
<!-- Node13&#45;&gt;Node3 -->
<g id="edge9" class="edge">
<title>Node13&#45;&gt;Node3</title>
<path fill="none" stroke="#ffa500" stroke-dasharray="5,2" d="M1136.4755,-223.4298C1255.8406,-224.4123 1441.2429,-225.9382 1547.8773,-226.8159"/>
<polygon fill="#ffa500" stroke="#ffa500" points="1136.2389,-219.9279 1126.2104,-223.3454 1136.1812,-226.9276 1136.2389,-219.9279"/>
<text text-anchor="start" x="1347.5" y="-240.5" font-family="Helvetica,sans-Serif" font-size="10.00" fill="#000000"> &lt; BatchDirect&lt; ValueType</text>
<text text-anchor="middle" x="1414" y="-229.5" font-family="Helvetica,sans-Serif" font-size="10.00" fill="#000000"> &gt;, BatchLinOp &gt;</text>
</g>
<!-- Node20 -->
<g id="node16" class="node">
<title>Node20</title>
<g id="a_node16"><a xlink:href="classgko_1_1EnablePolymorphicObject.html" target="_top" xlink:title=" ">
<polygon fill="#ffffff" stroke="#000000" points="1317,-142 1317,-183 1511,-183 1511,-142 1317,-142"/>
<text text-anchor="start" x="1325" y="-171" font-family="Helvetica,sans-Serif" font-size="10.00" fill="#000000">gko::EnablePolymorphicObject</text>
<text text-anchor="start" x="1325" y="-160" font-family="Helvetica,sans-Serif" font-size="10.00" fill="#000000">&lt; ConcreteBatchLinOp, Polymorphic</text>
<text text-anchor="middle" x="1414" y="-149" font-family="Helvetica,sans-Serif" font-size="10.00" fill="#000000">Base &gt;</text>
</a>
</g>
</g>
<!-- Node13&#45;&gt;Node20 -->
<g id="edge23" class="edge">
<title>Node13&#45;&gt;Node20</title>
<path fill="none" stroke="#ffa500" stroke-dasharray="5,2" d="M1084.7052,-204.9256C1103.5927,-199.9975 1124.5429,-195.0285 1144,-191.5 1200.9413,-181.1738 1265.3532,-174.0828 1316.98,-169.4986"/>
<polygon fill="#ffa500" stroke="#ffa500" points="1083.8033,-201.5437 1075.0352,-207.491 1085.5984,-208.3096 1083.8033,-201.5437"/>
<text text-anchor="start" x="1163" y="-205.5" font-family="Helvetica,sans-Serif" font-size="10.00" fill="#000000"> &lt; ConcreteBatchLinOp,</text>
<text text-anchor="middle" x="1221.5" y="-194.5" font-family="Helvetica,sans-Serif" font-size="10.00" fill="#000000"> PolymorphicBase &gt;</text>
</g>
<!-- Node14&#45;&gt;Node13 -->
<g id="edge10" class="edge">
<title>Node14&#45;&gt;Node13</title>
<path fill="none" stroke="#191970" d="M740.274,-222.5C796.9577,-222.5 865.507,-222.5 920.9683,-222.5"/>
<polygon fill="#191970" stroke="#191970" points="740.1977,-219.0001 730.1976,-222.5 740.1976,-226.0001 740.1977,-219.0001"/>
</g>
<!-- Node15 -->
<g id="node11" class="node">
<title>Node15</title>
<g id="a_node11"><a xlink:href="classgko_1_1EnablePolymorphicAssignment.html" target="_top" xlink:title=" ">
<polygon fill="#ffffff" stroke="#000000" points="1318,-92.5 1318,-122.5 1510,-122.5 1510,-92.5 1318,-92.5"/>
<text text-anchor="start" x="1326" y="-110.5" font-family="Helvetica,sans-Serif" font-size="10.00" fill="#000000">gko::EnablePolymorphicAssignment</text>
<text text-anchor="middle" x="1414" y="-99.5" font-family="Helvetica,sans-Serif" font-size="10.00" fill="#000000">&lt; BatchDirect&lt; ValueType &gt; &gt;</text>
</a>
</g>
</g>
<!-- Node15&#45;&gt;Node2 -->
<g id="edge13" class="edge">
<title>Node15&#45;&gt;Node2</title>
<path fill="none" stroke="#191970" d="M1520.2948,-121.8495C1529.6536,-122.8509 1538.9894,-123.7562 1548,-124.5 1671.8935,-134.7271 1815.887,-138.8192 1904.7355,-140.4449"/>
<polygon fill="#191970" stroke="#191970" points="1520.4687,-118.3475 1510.1449,-120.7283 1519.7001,-125.3052 1520.4687,-118.3475"/>
</g>
<!-- Node16 -->
<g id="node12" class="node">
<title>Node16</title>
<g id="a_node12"><a xlink:href="classgko_1_1ConvertibleTo.html" target="_top" xlink:title=" ">
<polygon fill="#ffffff" stroke="#000000" points="939.5,-98.5 939.5,-128.5 1107.5,-128.5 1107.5,-98.5 939.5,-98.5"/>
<text text-anchor="start" x="947.5" y="-116.5" font-family="Helvetica,sans-Serif" font-size="10.00" fill="#000000">gko::ConvertibleTo</text>
<text text-anchor="middle" x="1023.5" y="-105.5" font-family="Helvetica,sans-Serif" font-size="10.00" fill="#000000">&lt; BatchDirect&lt; ValueType &gt; &gt;</text>
</a>
</g>
</g>
<!-- Node16&#45;&gt;Node15 -->
<g id="edge14" class="edge">
<title>Node16&#45;&gt;Node15</title>
<path fill="none" stroke="#191970" d="M1118.0784,-112.0468C1178.6473,-111.1162 1257.0083,-109.9122 1317.8765,-108.9769"/>
<polygon fill="#191970" stroke="#191970" points="1117.6969,-108.5522 1107.7519,-112.2055 1117.8045,-115.5513 1117.6969,-108.5522"/>
</g>
<!-- Node17 -->
<g id="node13" class="node">
<title>Node17</title>
<g id="a_node13"><a xlink:href="classgko_1_1ConvertibleTo.html" target="_top" xlink:title="ConvertibleTo interface is used to mark that the implementer can be converted to the object of Result...">
<polygon fill="#ffffff" stroke="#000000" points="576,-49.5 576,-79.5 683,-79.5 683,-49.5 576,-49.5"/>
<text text-anchor="start" x="584" y="-67.5" font-family="Helvetica,sans-Serif" font-size="10.00" fill="#000000">gko::ConvertibleTo</text>
<text text-anchor="middle" x="629.5" y="-56.5" font-family="Helvetica,sans-Serif" font-size="10.00" fill="#000000">&lt; ResultType &gt;</text>
</a>
</g>
</g>
<!-- Node17&#45;&gt;Node16 -->
<g id="edge15" class="edge">
<title>Node17&#45;&gt;Node16</title>
<path fill="none" stroke="#ffa500" stroke-dasharray="5,2" d="M693.0346,-72.4015C759.9424,-80.7225 865.6221,-93.8654 939.4043,-103.0414"/>
<polygon fill="#ffa500" stroke="#ffa500" points="693.4022,-68.9203 683.0466,-71.1594 692.5382,-75.8668 693.4022,-68.9203"/>
<text text-anchor="middle" x="825.5" y="-100.5" font-family="Helvetica,sans-Serif" font-size="10.00" fill="#000000"> &lt; BatchDirect&lt; ValueType &gt; &gt;</text>
</g>
<!-- Node18 -->
<g id="node14" class="node">
<title>Node18</title>
<g id="a_node14"><a xlink:href="classgko_1_1EnablePolymorphicAssignment.html" target="_top" xlink:title="This mixin is used to enable a default PolymorphicObject::copy_from() implementation for objects that...">
<polygon fill="#ffffff" stroke="#000000" points="927.5,-49.5 927.5,-79.5 1119.5,-79.5 1119.5,-49.5 927.5,-49.5"/>
<text text-anchor="start" x="935.5" y="-67.5" font-family="Helvetica,sans-Serif" font-size="10.00" fill="#000000">gko::EnablePolymorphicAssignment</text>
<text text-anchor="middle" x="1023.5" y="-56.5" font-family="Helvetica,sans-Serif" font-size="10.00" fill="#000000">&lt; ConcreteType, ResultType &gt;</text>
</a>
</g>
</g>
<!-- Node17&#45;&gt;Node18 -->
<g id="edge17" class="edge">
<title>Node17&#45;&gt;Node18</title>
<path fill="none" stroke="#191970" d="M693.2912,-64.5C756.617,-64.5 854.4912,-64.5 927.263,-64.5"/>
<polygon fill="#191970" stroke="#191970" points="693.0467,-61.0001 683.0466,-64.5 693.0466,-68.0001 693.0467,-61.0001"/>
</g>
<!-- Node23 -->
<g id="node19" class="node">
<title>Node23</title>
<g id="a_node19"><a xlink:href="classgko_1_1ConvertibleTo.html" target="_top" xlink:title=" ">
<polygon fill="#ffffff" stroke="#000000" points="954.5,-.5 954.5,-30.5 1092.5,-30.5 1092.5,-.5 954.5,-.5"/>
<text text-anchor="start" x="962.5" y="-18.5" font-family="Helvetica,sans-Serif" font-size="10.00" fill="#000000">gko::ConvertibleTo</text>
<text text-anchor="middle" x="1023.5" y="-7.5" font-family="Helvetica,sans-Serif" font-size="10.00" fill="#000000">&lt; ConcreteBatchLinOp &gt;</text>
</a>
</g>
</g>
<!-- Node17&#45;&gt;Node23 -->
<g id="edge26" class="edge">
<title>Node17&#45;&gt;Node23</title>
<path fill="none" stroke="#ffa500" stroke-dasharray="5,2" d="M693.392,-56.3753C711.0788,-54.1363 730.2829,-51.7146 748,-49.5 818.2963,-40.7132 898.7015,-30.8068 954.4276,-23.9638"/>
<polygon fill="#ffa500" stroke="#ffa500" points="692.6571,-52.9403 683.1763,-57.6695 693.537,-59.8848 692.6571,-52.9403"/>
<text text-anchor="middle" x="825.5" y="-52.5" font-family="Helvetica,sans-Serif" font-size="10.00" fill="#000000"> &lt; ConcreteBatchLinOp &gt;</text>
</g>
<!-- Node18&#45;&gt;Node15 -->
<g id="edge16" class="edge">
<title>Node18&#45;&gt;Node15</title>
<path fill="none" stroke="#ffa500" stroke-dasharray="5,2" d="M1129.8824,-75.2905C1181.0379,-80.5834 1243.2232,-87.1697 1299,-93.5 1305.0952,-94.1918 1311.3705,-94.9174 1317.6963,-95.6591"/>
<polygon fill="#ffa500" stroke="#ffa500" points="1130.1101,-71.7955 1119.8035,-74.2496 1129.391,-78.7584 1130.1101,-71.7955"/>
<text text-anchor="middle" x="1221.5" y="-96.5" font-family="Helvetica,sans-Serif" font-size="10.00" fill="#000000"> &lt; BatchDirect&lt; ValueType &gt; &gt;</text>
</g>
<!-- Node22 -->
<g id="node18" class="node">
<title>Node22</title>
<g id="a_node18"><a xlink:href="classgko_1_1EnablePolymorphicAssignment.html" target="_top" xlink:title=" ">
<polygon fill="#ffffff" stroke="#000000" points="1318,-38.5 1318,-68.5 1510,-68.5 1510,-38.5 1318,-38.5"/>
<text text-anchor="start" x="1326" y="-56.5" font-family="Helvetica,sans-Serif" font-size="10.00" fill="#000000">gko::EnablePolymorphicAssignment</text>
<text text-anchor="middle" x="1414" y="-45.5" font-family="Helvetica,sans-Serif" font-size="10.00" fill="#000000">&lt; ConcreteBatchLinOp &gt;</text>
</a>
</g>
</g>
<!-- Node18&#45;&gt;Node22 -->
<g id="edge27" class="edge">
<title>Node18&#45;&gt;Node22</title>
<path fill="none" stroke="#ffa500" stroke-dasharray="5,2" d="M1130.126,-55.1976C1134.8124,-54.9319 1139.4532,-54.6968 1144,-54.5 1201.6027,-52.0071 1266.1824,-51.6789 1317.737,-52.0107"/>
<polygon fill="#ffa500" stroke="#ffa500" points="1129.5817,-51.7241 1119.8126,-55.8247 1130.0067,-58.7112 1129.5817,-51.7241"/>
<text text-anchor="middle" x="1221.5" y="-57.5" font-family="Helvetica,sans-Serif" font-size="10.00" fill="#000000"> &lt; ConcreteBatchLinOp &gt;</text>
</g>
<!-- Node19 -->
<g id="node15" class="node">
<title>Node19</title>
<g id="a_node15"><a xlink:href="classgko_1_1EnableBatchLinOp.html" target="_top" xlink:title="The EnableBatchLinOp mixin can be used to provide sensible default implementations of the majority of...">
<polygon fill="#ffffff" stroke="#000000" points="1566,-74 1566,-115 1696,-115 1696,-74 1566,-74"/>
<text text-anchor="start" x="1574" y="-103" font-family="Helvetica,sans-Serif" font-size="10.00" fill="#000000">gko::EnableBatchLinOp</text>
<text text-anchor="start" x="1574" y="-92" font-family="Helvetica,sans-Serif" font-size="10.00" fill="#000000">&lt; ConcreteBatchLinOp,</text>
<text text-anchor="middle" x="1631" y="-81" font-family="Helvetica,sans-Serif" font-size="10.00" fill="#000000"> PolymorphicBase &gt;</text>
</a>
</g>
</g>
<!-- Node19&#45;&gt;Node2 -->
<g id="edge18" class="edge">
<title>Node19&#45;&gt;Node2</title>
<path fill="none" stroke="#ffa500" stroke-dasharray="5,2" d="M1706.2476,-99.0045C1757.4223,-102.6916 1826.5541,-108.8923 1887,-118.5 1900.4459,-120.6372 1914.7681,-123.4962 1928.299,-126.4707"/>
<polygon fill="#ffa500" stroke="#ffa500" points="1706.4814,-95.5124 1696.26,-98.3003 1705.989,-102.495 1706.4814,-95.5124"/>
<text text-anchor="middle" x="1809.5" y="-121.5" font-family="Helvetica,sans-Serif" font-size="10.00" fill="#000000"> &lt; BatchDirect&lt; ValueType &gt; &gt;</text>
</g>
<!-- Node20&#45;&gt;Node19 -->
<g id="edge19" class="edge">
<title>Node20&#45;&gt;Node19</title>
<path fill="none" stroke="#191970" d="M1490.149,-139.002C1497.2,-136.8101 1504.2341,-134.6175 1511,-132.5 1528.9357,-126.8867 1548.3633,-120.7564 1566.2563,-115.0899"/>
<polygon fill="#191970" stroke="#191970" points="1489.0593,-135.6754 1480.547,-141.9833 1491.1351,-142.3606 1489.0593,-135.6754"/>
</g>
<!-- Node21&#45;&gt;Node20 -->
<g id="edge20" class="edge">
<title>Node21&#45;&gt;Node20</title>
<path fill="none" stroke="#191970" d="M727.3937,-158.1239C878.3464,-159.086 1166.2107,-160.9207 1316.7644,-161.8803"/>
<polygon fill="#191970" stroke="#191970" points="727.2307,-154.6229 717.2086,-158.059 727.186,-161.6228 727.2307,-154.6229"/>
</g>
<!-- Node22&#45;&gt;Node19 -->
<g id="edge24" class="edge">
<title>Node22&#45;&gt;Node19</title>
<path fill="none" stroke="#191970" d="M1503.6766,-70.4435C1524.4464,-74.3678 1546.1656,-78.4714 1565.663,-82.1552"/>
<polygon fill="#191970" stroke="#191970" points="1504.0466,-66.9516 1493.5706,-68.5341 1502.7469,-73.8299 1504.0466,-66.9516"/>
</g>
<!-- Node23&#45;&gt;Node22 -->
<g id="edge25" class="edge">
<title>Node23&#45;&gt;Node22</title>
<path fill="none" stroke="#191970" d="M1103.0059,-23.2368C1165.1433,-29.2835 1251.7555,-37.7118 1317.8002,-44.1387"/>
<polygon fill="#191970" stroke="#191970" points="1103.1556,-19.7349 1092.8636,-22.2499 1102.4776,-26.702 1103.1556,-19.7349"/>
</g>
<!-- Node24 -->
<g id="node20" class="node">
<title>Node24</title>
<g id="a_node20"><a xlink:href="classgko_1_1BatchTransposable.html" target="_top" xlink:title="Batch Linear operators which support transposition of the distinct batch entries should implement the...">
<polygon fill="#ffffff" stroke="#000000" points="1923,-84 1923,-103 2055,-103 2055,-84 1923,-84"/>
<text text-anchor="middle" x="1989" y="-91" font-family="Helvetica,sans-Serif" font-size="10.00" fill="#000000">gko::BatchTransposable</text>
</a>
</g>
</g>
<!-- Node24&#45;&gt;Node1 -->
<g id="edge28" class="edge">
<title>Node24&#45;&gt;Node1</title>
<path fill="none" stroke="#191970" d="M2065.1516,-93.5C2079.9588,-93.5 2095.3794,-93.5 2109.87,-93.5"/>
<polygon fill="#191970" stroke="#191970" points="2065.0174,-90.0001 2055.0174,-93.5 2065.0174,-97.0001 2065.0174,-90.0001"/>
</g>
<!-- Node25 -->
<g id="node21" class="node">
<title>Node25</title>
<g id="a_node21"><a xlink:href="classgko_1_1EnableBatchScaling.html" target="_top" xlink:title="Default batch scalable interface with some type&#45;checking.">
<polygon fill="#ffffff" stroke="#000000" points="1920.5,-38 1920.5,-57 2057.5,-57 2057.5,-38 1920.5,-38"/>
<text text-anchor="middle" x="1989" y="-45" font-family="Helvetica,sans-Serif" font-size="10.00" fill="#000000">gko::EnableBatchScaling</text>
</a>
</g>
</g>
<!-- Node25&#45;&gt;Node1 -->
<g id="edge29" class="edge">
<title>Node25&#45;&gt;Node1</title>
<path fill="none" stroke="#191970" d="M2037.7909,-59.4382C2061.5237,-65.2452 2090.3033,-72.287 2115.5211,-78.4573"/>
<polygon fill="#191970" stroke="#191970" points="2038.4991,-56.0083 2027.9537,-57.0312 2036.8353,-62.8077 2038.4991,-56.0083"/>
</g>
<!-- Node26 -->
<g id="node22" class="node">
<title>Node26</title>
<g id="a_node22"><a xlink:href="classgko_1_1BatchScalable.html" target="_top" xlink:title="A batch made up of entities that can scaled from the left and right by scaling vectors.">
<polygon fill="#ffffff" stroke="#000000" points="1576,-36 1576,-55 1686,-55 1686,-36 1576,-36"/>
<text text-anchor="middle" x="1631" y="-43" font-family="Helvetica,sans-Serif" font-size="10.00" fill="#000000">gko::BatchScalable</text>
</a>
</g>
</g>
<!-- Node26&#45;&gt;Node25 -->
<g id="edge30" class="edge">
<title>Node26&#45;&gt;Node25</title>
<path fill="none" stroke="#191970" d="M1696.4369,-45.8656C1759.8846,-46.22 1855.7596,-46.7556 1920.2934,-47.1162"/>
<polygon fill="#191970" stroke="#191970" points="1696.1724,-42.3641 1686.1529,-45.8081 1696.1332,-49.364 1696.1724,-42.3641"/>
</g>
</g>
</svg>
        <g id="navigator" transform="translate(0 0)" fill="#404254">
                <rect fill="#f2f5e9" fill-opacity="0.5" stroke="#606060" stroke-width=".5" x="0" y="0" width="60" height="60"/>
                <use id="zoomplus" xlink:href="#zoomPlus" x="17" y="9" onmousedown="handleZoom(evt,'in')"/>
                <use id="zoomminus" xlink:href="#zoomMin" x="42" y="9" onmousedown="handleZoom(evt,'out')"/>
                <use id="reset" xlink:href="#resetDef" x="30" y="36" onmousedown="handleReset()"/>
                <g id="arrowUp" xlink:href="#dirArrow" transform="translate(30 24)" onmousedown="handlePan(0,-1)">
                  <use xlink:href="#rim" fill="#404040">
                        <set attributeName="fill" to="#808080" begin="arrowUp.mouseover" end="arrowUp.mouseout"/>
                  </use>
                  <path fill="none" stroke="white" stroke-width="1.5" d="M0,-3.0v7 M-2.5,-0.5L0,-3.0L2.5,-0.5"/>
                </g>
                <g id="arrowRight" xlink:href="#dirArrow" transform="rotate(90) translate(36 -43)" onmousedown="handlePan(1,0)">
                  <use xlink:href="#rim" fill="#404040">
                        <set attributeName="fill" to="#808080" begin="arrowRight.mouseover" end="arrowRight.mouseout"/>
                  </use>
                  <path fill="none" stroke="white" stroke-width="1.5" d="M0,-3.0v7 M-2.5,-0.5L0,-3.0L2.5,-0.5"/>
                </g>
                <g id="arrowDown" xlink:href="#dirArrow" transform="rotate(180) translate(-30 -48)" onmousedown="handlePan(0,1)">
                  <use xlink:href="#rim" fill="#404040">
                        <set attributeName="fill" to="#808080" begin="arrowDown.mouseover" end="arrowDown.mouseout"/>
                  </use>
                  <path fill="none" stroke="white" stroke-width="1.5" d="M0,-3.0v7 M-2.5,-0.5L0,-3.0L2.5,-0.5"/>
                </g>
                <g id="arrowLeft" xlink:href="#dirArrow" transform="rotate(270) translate(-36 17)" onmousedown="handlePan(-1,0)">
                  <use xlink:href="#rim" fill="#404040">
                        <set attributeName="fill" to="#808080" begin="arrowLeft.mouseover" end="arrowLeft.mouseout"/>
                  </use>
                  <path fill="none" stroke="white" stroke-width="1.5" d="M0,-3.0v7 M-2.5,-0.5L0,-3.0L2.5,-0.5"/>
                </g>
        </g>
        <svg viewBox="0 0 15 15" width="100%" height="30px" preserveAspectRatio="xMaxYMin meet">
         <g id="arrow_out" transform="scale(0.3 0.3)">
          <a xlink:href="classgko_1_1solver_1_1BatchDirect__coll__graph_org.svg" target="_base">
           <rect id="button" ry="5" rx="5" y="6" x="6" height="38" width="38"
                fill="#f2f5e9" fill-opacity="0.5" stroke="#606060" stroke-width="1.0"/>
           <path id="arrow"
             d="M 11.500037,31.436501 C 11.940474,20.09759 22.043105,11.32322 32.158766,21.979434 L 37.068811,17.246167 C 37.068811,17.246167 37.088388,32 37.088388,32 L 22.160133,31.978069 C 22.160133,31.978069 26.997745,27.140456 26.997745,27.140456 C 18.528582,18.264221 13.291696,25.230495 11.500037,31.436501 z"
             style="fill:#404040;"/>
          </a>
         </g>
        </svg>
</svg>
