<?xml version="1.0" encoding="UTF-8" standalone="no"?>
<!DOCTYPE svg PUBLIC "-//W3C//DTD SVG 1.1//EN"
 "http://www.w3.org/Graphics/SVG/1.1/DTD/svg11.dtd">
<!-- Generated by graphviz version 2.40.1 (20161225.0304)
 -->
<!-- Title: gko::matrix::BatchDense&lt; ValueType &gt; Pages: 1 -->
<!--zoomable 681 -->
<svg id="main" version="1.1" xmlns="http://www.w3.org/2000/svg" xmlns:xlink="http://www.w3.org/1999/xlink" xml:space="preserve" onload="init(evt)">
<style type="text/css"><![CDATA[
.edge:hover path { stroke: red; }
.edge:hover polygon { stroke: red; fill: red; }
]]></style>
<script type="text/javascript"><![CDATA[
var edges = document.getElementsByTagName('g');
if (edges && edges.length) {
  for (var i=0;i<edges.length;i++) {
    if (edges[i].id.substr(0,4)=='edge') {
      edges[i].setAttribute('class','edge');
    }
  }
}
]]></script>
        <defs>
                <circle id="rim" cx="0" cy="0" r="7"/>
                <circle id="rim2" cx="0" cy="0" r="3.5"/>
                <g id="zoomPlus">
                        <use xlink:href="#rim" fill="#404040">
                                <set attributeName="fill" to="#808080" begin="zoomplus.mouseover" end="zoomplus.mouseout"/>
                        </use>
                        <path d="M-4,0h8M0,-4v8" fill="none" stroke="white" stroke-width="1.5" pointer-events="none"/>
                </g>
                <g id="zoomMin">
                        <use xlink:href="#rim" fill="#404040">
                                <set attributeName="fill" to="#808080" begin="zoomminus.mouseover" end="zoomminus.mouseout"/>
                        </use>
                        <path d="M-4,0h8" fill="none" stroke="white" stroke-width="1.5" pointer-events="none"/>
                </g>
                <g id="dirArrow">
                        <path fill="none" stroke="white" stroke-width="1.5" d="M0,-3.0v7 M-2.5,-0.5L0,-3.0L2.5,-0.5"/>
                </g>
               <g id="resetDef">
                       <use xlink:href="#rim2" fill="#404040">
                               <set attributeName="fill" to="#808080" begin="reset.mouseover" end="reset.mouseout"/>
                       </use>
               </g>
        </defs>

<script type="text/javascript">
var viewWidth = 2411;
var viewHeight = 681;
var sectionId = 'dynsection-0';
</script>
<script xlink:href="svgpan.js"/>
<svg id="graph" class="graph">
<g id="viewport">
<title>gko::matrix::BatchDense&lt; ValueType &gt;</title>
<polygon fill="#ffffff" stroke="transparent" points="-4,4 -4,-676.5 2407,-676.5 2407,4 -4,4"/>
<!-- Node1 -->
<g id="node1" class="node">
<title>Node1</title>
<g id="a_node1"><a xlink:title="BatchDense is a batch matrix format which explicitly stores all values of the matrix in each of the b...">
<polygon fill="#bfbfbf" stroke="#000000" points="2266,-186 2266,-216 2403,-216 2403,-186 2266,-186"/>
<text text-anchor="start" x="2274" y="-204" font-family="Helvetica,sans-Serif" font-size="10.00" fill="#000000">gko::matrix::BatchDense</text>
<text text-anchor="middle" x="2334.5" y="-193" font-family="Helvetica,sans-Serif" font-size="10.00" fill="#000000">&lt; ValueType &gt;</text>
</a>
</g>
</g>
<!-- Node2 -->
<g id="node2" class="node">
<title>Node2</title>
<g id="a_node2"><a xlink:href="classgko_1_1EnableBatchLinOp.html" target="_top" xlink:title=" ">
<polygon fill="#ffffff" stroke="#000000" points="2059,-396 2059,-426 2229,-426 2229,-396 2059,-396"/>
<text text-anchor="start" x="2067" y="-414" font-family="Helvetica,sans-Serif" font-size="10.00" fill="#000000">gko::EnableBatchLinOp</text>
<text text-anchor="middle" x="2144" y="-403" font-family="Helvetica,sans-Serif" font-size="10.00" fill="#000000">&lt; BatchDense&lt; ValueType &gt; &gt;</text>
</a>
</g>
</g>
<!-- Node2&#45;&gt;Node1 -->
<g id="edge1" class="edge">
<title>Node2&#45;&gt;Node1</title>
<path fill="none" stroke="#191970" d="M2186.3775,-391.0316C2206.6729,-380.0328 2230.3402,-364.9589 2248,-347 2287.6615,-306.6668 2316.487,-244.7084 2328.4209,-216.25"/>
<polygon fill="#191970" stroke="#191970" points="2184.5445,-388.0411 2177.3236,-395.7941 2187.8033,-394.2363 2184.5445,-388.0411"/>
</g>
<!-- Node3 -->
<g id="node3" class="node">
<title>Node3</title>
<g id="a_node3"><a xlink:href="classgko_1_1EnablePolymorphicObject.html" target="_top" xlink:title=" ">
<polygon fill="#ffffff" stroke="#000000" points="1699,-538.5 1699,-579.5 1865,-579.5 1865,-538.5 1699,-538.5"/>
<text text-anchor="start" x="1707" y="-567.5" font-family="Helvetica,sans-Serif" font-size="10.00" fill="#000000">gko::EnablePolymorphicObject</text>
<text text-anchor="start" x="1707" y="-556.5" font-family="Helvetica,sans-Serif" font-size="10.00" fill="#000000">&lt; BatchDense&lt; ValueType &gt;</text>
<text text-anchor="middle" x="1782" y="-545.5" font-family="Helvetica,sans-Serif" font-size="10.00" fill="#000000">, BatchLinOp &gt;</text>
</a>
</g>
</g>
<!-- Node3&#45;&gt;Node2 -->
<g id="edge2" class="edge">
<title>Node3&#45;&gt;Node2</title>
<path fill="none" stroke="#191970" d="M1841.7225,-534.583C1917.1889,-503.7294 2044.7517,-451.5767 2107.2554,-426.0227"/>
<polygon fill="#191970" stroke="#191970" points="1840.2663,-531.3971 1832.3345,-538.4212 1842.9154,-537.8765 1840.2663,-531.3971"/>
</g>
<!-- Node4 -->
<g id="node4" class="node">
<title>Node4</title>
<g id="a_node4"><a xlink:href="classgko_1_1EnableAbstractPolymorphicObject.html" target="_top" xlink:title=" ">
<polygon fill="#ffffff" stroke="#000000" points="1340.5,-599.5 1340.5,-640.5 1519.5,-640.5 1519.5,-599.5 1340.5,-599.5"/>
<text text-anchor="start" x="1348.5" y="-628.5" font-family="Helvetica,sans-Serif" font-size="10.00" fill="#000000">gko::EnableAbstractPolymorphic</text>
<text text-anchor="start" x="1348.5" y="-617.5" font-family="Helvetica,sans-Serif" font-size="10.00" fill="#000000">Object&lt; BatchDense&lt; ValueType</text>
<text text-anchor="middle" x="1430" y="-606.5" font-family="Helvetica,sans-Serif" font-size="10.00" fill="#000000"> &gt;, BatchLinOp &gt;</text>
</a>
</g>
</g>
<!-- Node4&#45;&gt;Node3 -->
<g id="edge3" class="edge">
<title>Node4&#45;&gt;Node3</title>
<path fill="none" stroke="#191970" d="M1529.9011,-602.6876C1583.2603,-593.4407 1648.1771,-582.1909 1698.7717,-573.4231"/>
<polygon fill="#191970" stroke="#191970" points="1528.9907,-599.2931 1519.7352,-604.4493 1530.186,-606.1903 1528.9907,-599.2931"/>
</g>
<!-- Node5 -->
<g id="node5" class="node">
<title>Node5</title>
<g id="a_node5"><a xlink:href="classgko_1_1BatchLinOp.html" target="_top" xlink:title=" ">
<polygon fill="#ffffff" stroke="#000000" points="977.5,-644.5 977.5,-663.5 1073.5,-663.5 1073.5,-644.5 977.5,-644.5"/>
<text text-anchor="middle" x="1025.5" y="-651.5" font-family="Helvetica,sans-Serif" font-size="10.00" fill="#000000">gko::BatchLinOp</text>
</a>
</g>
</g>
<!-- Node5&#45;&gt;Node4 -->
<g id="edge4" class="edge">
<title>Node5&#45;&gt;Node4</title>
<path fill="none" stroke="#191970" d="M1083.8726,-649.0935C1151.01,-643.4503 1262.0112,-634.1202 1340.1764,-627.5501"/>
<polygon fill="#191970" stroke="#191970" points="1083.562,-645.6072 1073.8904,-649.9326 1084.1484,-652.5826 1083.562,-645.6072"/>
</g>
<!-- Node6 -->
<g id="node6" class="node">
<title>Node6</title>
<g id="a_node6"><a xlink:href="classgko_1_1EnableAbstractPolymorphicObject.html" target="_top" xlink:title=" ">
<polygon fill="#ffffff" stroke="#ff0000" points="542,-642 542,-672 717,-672 717,-642 542,-642"/>
<text text-anchor="start" x="550" y="-660" font-family="Helvetica,sans-Serif" font-size="10.00" fill="#000000">gko::EnableAbstractPolymorphic</text>
<text text-anchor="middle" x="629.5" y="-649" font-family="Helvetica,sans-Serif" font-size="10.00" fill="#000000">Object&lt; BatchLinOp &gt;</text>
</a>
</g>
</g>
<!-- Node6&#45;&gt;Node5 -->
<g id="edge5" class="edge">
<title>Node6&#45;&gt;Node5</title>
<path fill="none" stroke="#191970" d="M727.4124,-656.2582C806.8543,-655.6564 915.462,-654.8336 977.2613,-654.3654"/>
<polygon fill="#191970" stroke="#191970" points="727.3584,-652.7584 717.3852,-656.3342 727.4115,-659.7582 727.3584,-652.7584"/>
</g>
<!-- Node12 -->
<g id="node7" class="node">
<title>Node12</title>
<g id="a_node7"><a xlink:href="classgko_1_1EnableAbstractPolymorphicObject.html" target="_top" xlink:title="This mixin inherits from (a subclass of) PolymorphicObject and provides a base implementation of a ne...">
<polygon fill="#ffffff" stroke="#000000" points="138,-571.5 138,-612.5 336,-612.5 336,-571.5 138,-571.5"/>
<text text-anchor="start" x="146" y="-600.5" font-family="Helvetica,sans-Serif" font-size="10.00" fill="#000000">gko::EnableAbstractPolymorphic</text>
<text text-anchor="start" x="146" y="-589.5" font-family="Helvetica,sans-Serif" font-size="10.00" fill="#000000">Object&lt; AbstractObject, Polymorphic</text>
<text text-anchor="middle" x="237" y="-578.5" font-family="Helvetica,sans-Serif" font-size="10.00" fill="#000000">Base &gt;</text>
</a>
</g>
</g>
<!-- Node12&#45;&gt;Node4 -->
<g id="edge8" class="edge">
<title>Node12&#45;&gt;Node4</title>
<path fill="none" stroke="#ffa500" stroke-dasharray="5,2" d="M346.3115,-598.6788C348.8989,-598.7921 351.4647,-598.8995 354,-599 719.6876,-613.502 1155.7004,-618.1061 1340.3356,-619.4688"/>
<polygon fill="#ffa500" stroke="#ffa500" points="346.394,-595.179 336.2433,-598.2146 346.0715,-602.1716 346.394,-595.179"/>
<text text-anchor="start" x="759.5" y="-627" font-family="Helvetica,sans-Serif" font-size="10.00" fill="#000000"> &lt; BatchDense&lt; ValueType</text>
<text text-anchor="middle" x="826.5" y="-616" font-family="Helvetica,sans-Serif" font-size="10.00" fill="#000000"> &gt;, BatchLinOp &gt;</text>
</g>
<!-- Node12&#45;&gt;Node6 -->
<g id="edge6" class="edge">
<title>Node12&#45;&gt;Node6</title>
<path fill="none" stroke="#ffa500" stroke-dasharray="5,2" d="M307.8795,-615.4538C322.9743,-619.8131 338.9134,-623.9486 354,-627 416.1302,-639.5665 487.2798,-647.1443 541.7091,-651.5397"/>
<polygon fill="#ffa500" stroke="#ffa500" points="308.6812,-612.0412 298.0994,-612.566 306.6988,-618.7547 308.6812,-612.0412"/>
<text text-anchor="middle" x="432.5" y="-651" font-family="Helvetica,sans-Serif" font-size="10.00" fill="#000000"> &lt; BatchLinOp &gt;</text>
</g>
<!-- Node14 -->
<g id="node10" class="node">
<title>Node14</title>
<g id="a_node10"><a xlink:href="classgko_1_1EnableAbstractPolymorphicObject.html" target="_top" xlink:title=" ">
<polygon fill="#ffffff" stroke="#000000" points="529,-533.5 529,-574.5 730,-574.5 730,-533.5 529,-533.5"/>
<text text-anchor="start" x="537" y="-562.5" font-family="Helvetica,sans-Serif" font-size="10.00" fill="#000000">gko::EnableAbstractPolymorphic</text>
<text text-anchor="start" x="537" y="-551.5" font-family="Helvetica,sans-Serif" font-size="10.00" fill="#000000">Object&lt; ConcreteObject, Polymorphic</text>
<text text-anchor="middle" x="629.5" y="-540.5" font-family="Helvetica,sans-Serif" font-size="10.00" fill="#000000">Base &gt;</text>
</a>
</g>
</g>
<!-- Node12&#45;&gt;Node14 -->
<g id="edge12" class="edge">
<title>Node12&#45;&gt;Node14</title>
<path fill="none" stroke="#ffa500" stroke-dasharray="5,2" d="M346.3005,-577.8326C348.8913,-577.5467 351.4607,-577.2686 354,-577 411.8725,-570.8775 476.7267,-565.3951 528.9667,-561.3199"/>
<polygon fill="#ffa500" stroke="#ffa500" points="345.7655,-574.3707 336.2216,-578.9711 346.5512,-581.3265 345.7655,-574.3707"/>
<text text-anchor="start" x="354" y="-591" font-family="Helvetica,sans-Serif" font-size="10.00" fill="#000000"> &lt; ConcreteObject, Polymorphic</text>
<text text-anchor="middle" x="432.5" y="-580" font-family="Helvetica,sans-Serif" font-size="10.00" fill="#000000">Base &gt;</text>
</g>
<!-- Node21 -->
<g id="node17" class="node">
<title>Node21</title>
<g id="a_node17"><a xlink:href="classgko_1_1EnableAbstractPolymorphicObject.html" target="_top" xlink:title=" ">
<polygon fill="#ffffff" stroke="#000000" points="542,-468.5 542,-509.5 717,-509.5 717,-468.5 542,-468.5"/>
<text text-anchor="start" x="550" y="-497.5" font-family="Helvetica,sans-Serif" font-size="10.00" fill="#000000">gko::EnableAbstractPolymorphic</text>
<text text-anchor="start" x="550" y="-486.5" font-family="Helvetica,sans-Serif" font-size="10.00" fill="#000000">Object&lt; ConcreteBatchLinOp,</text>
<text text-anchor="middle" x="629.5" y="-475.5" font-family="Helvetica,sans-Serif" font-size="10.00" fill="#000000"> PolymorphicBase &gt;</text>
</a>
</g>
</g>
<!-- Node12&#45;&gt;Node21 -->
<g id="edge22" class="edge">
<title>Node12&#45;&gt;Node21</title>
<path fill="none" stroke="#ffa500" stroke-dasharray="5,2" d="M282.413,-566.6335C303.6047,-555.7541 329.5093,-543.7827 354,-536 415.2708,-516.5292 486.9197,-504.623 541.79,-497.6669"/>
<polygon fill="#ffa500" stroke="#ffa500" points="280.5784,-563.643 273.3344,-571.3746 283.8187,-569.8479 280.5784,-563.643"/>
<text text-anchor="start" x="374" y="-550" font-family="Helvetica,sans-Serif" font-size="10.00" fill="#000000"> &lt; ConcreteBatchLinOp,</text>
<text text-anchor="middle" x="432.5" y="-539" font-family="Helvetica,sans-Serif" font-size="10.00" fill="#000000"> PolymorphicBase &gt;</text>
</g>
<!-- Node11 -->
<g id="node8" class="node">
<title>Node11</title>
<g id="a_node8"><a xlink:title=" ">
<polygon fill="#ffffff" stroke="#bfbfbf" points="0,-533.5 0,-552.5 101,-552.5 101,-533.5 0,-533.5"/>
<text text-anchor="middle" x="50.5" y="-540.5" font-family="Helvetica,sans-Serif" font-size="10.00" fill="#000000">PolymorphicBase</text>
</a>
</g>
</g>
<!-- Node11&#45;&gt;Node12 -->
<g id="edge7" class="edge">
<title>Node11&#45;&gt;Node12</title>
<path fill="none" stroke="#191970" d="M96.6373,-555.1219C115.3596,-560.0409 137.5184,-565.8628 158.6324,-571.4101"/>
<polygon fill="#191970" stroke="#191970" points="97.463,-551.7201 86.9018,-552.564 95.6842,-558.4903 97.463,-551.7201"/>
</g>
<!-- Node11&#45;&gt;Node14 -->
<g id="edge11" class="edge">
<title>Node11&#45;&gt;Node14</title>
<path fill="none" stroke="#191970" d="M111.2841,-544.1548C210.5662,-546.041 408.5048,-549.8015 528.9546,-552.0898"/>
<polygon fill="#191970" stroke="#191970" points="111.1867,-540.6524 101.122,-543.9617 111.0537,-547.6511 111.1867,-540.6524"/>
</g>
<!-- Node11&#45;&gt;Node21 -->
<g id="edge21" class="edge">
<title>Node11&#45;&gt;Node21</title>
<path fill="none" stroke="#191970" d="M110.89,-531.9609C171.9644,-521.2894 269.1962,-505.6468 354,-498 416.6755,-492.3485 487.6549,-490.1283 541.8696,-489.3055"/>
<polygon fill="#191970" stroke="#191970" points="110.2768,-528.5149 101.0345,-533.6947 111.4897,-535.4091 110.2768,-528.5149"/>
</g>
<!-- Node13 -->
<g id="node9" class="node">
<title>Node13</title>
<g id="a_node9"><a xlink:href="classgko_1_1EnablePolymorphicObject.html" target="_top" xlink:title="This mixin inherits from (a subclass of) PolymorphicObject and provides a base implementation of a ne...">
<polygon fill="#ffffff" stroke="#000000" points="923,-539 923,-569 1128,-569 1128,-539 923,-539"/>
<text text-anchor="start" x="931" y="-557" font-family="Helvetica,sans-Serif" font-size="10.00" fill="#000000">gko::EnablePolymorphicObject</text>
<text text-anchor="middle" x="1025.5" y="-546" font-family="Helvetica,sans-Serif" font-size="10.00" fill="#000000">&lt; ConcreteObject, PolymorphicBase &gt;</text>
</a>
</g>
</g>
<!-- Node13&#45;&gt;Node3 -->
<g id="edge9" class="edge">
<title>Node13&#45;&gt;Node3</title>
<path fill="none" stroke="#ffa500" stroke-dasharray="5,2" d="M1138.7052,-554.7482C1292.212,-555.7628 1562.8046,-557.5513 1698.9003,-558.4508"/>
<polygon fill="#ffa500" stroke="#ffa500" points="1138.3352,-551.2458 1128.3123,-554.6795 1138.2889,-558.2456 1138.3352,-551.2458"/>
<text text-anchor="start" x="1363" y="-571" font-family="Helvetica,sans-Serif" font-size="10.00" fill="#000000"> &lt; BatchDense&lt; ValueType</text>
<text text-anchor="middle" x="1430" y="-560" font-family="Helvetica,sans-Serif" font-size="10.00" fill="#000000"> &gt;, BatchLinOp &gt;</text>
</g>
<!-- Node20 -->
<g id="node16" class="node">
<title>Node20</title>
<g id="a_node16"><a xlink:href="classgko_1_1EnablePolymorphicObject.html" target="_top" xlink:title=" ">
<polygon fill="#ffffff" stroke="#000000" points="1333,-468.5 1333,-509.5 1527,-509.5 1527,-468.5 1333,-468.5"/>
<text text-anchor="start" x="1341" y="-497.5" font-family="Helvetica,sans-Serif" font-size="10.00" fill="#000000">gko::EnablePolymorphicObject</text>
<text text-anchor="start" x="1341" y="-486.5" font-family="Helvetica,sans-Serif" font-size="10.00" fill="#000000">&lt; ConcreteBatchLinOp, Polymorphic</text>
<text text-anchor="middle" x="1430" y="-475.5" font-family="Helvetica,sans-Serif" font-size="10.00" fill="#000000">Base &gt;</text>
</a>
</g>
</g>
<!-- Node13&#45;&gt;Node20 -->
<g id="edge23" class="edge">
<title>Node13&#45;&gt;Node20</title>
<path fill="none" stroke="#ffa500" stroke-dasharray="5,2" d="M1087.518,-536.3674C1106.2004,-531.5111 1126.8338,-526.5962 1146,-523 1180.8352,-516.4638 1265.1271,-506.6451 1332.8883,-499.2371"/>
<polygon fill="#ffa500" stroke="#ffa500" points="1086.429,-533.0349 1077.654,-538.972 1088.2162,-539.8029 1086.429,-533.0349"/>
<text text-anchor="start" x="1172" y="-537" font-family="Helvetica,sans-Serif" font-size="10.00" fill="#000000"> &lt; ConcreteBatchLinOp,</text>
<text text-anchor="middle" x="1230.5" y="-526" font-family="Helvetica,sans-Serif" font-size="10.00" fill="#000000"> PolymorphicBase &gt;</text>
</g>
<!-- Node14&#45;&gt;Node13 -->
<g id="edge10" class="edge">
<title>Node14&#45;&gt;Node13</title>
<path fill="none" stroke="#191970" d="M740.3641,-554C797.5746,-554 866.9092,-554 922.8821,-554"/>
<polygon fill="#191970" stroke="#191970" points="740.1957,-550.5001 730.1957,-554 740.1957,-557.5001 740.1957,-550.5001"/>
</g>
<!-- Node15 -->
<g id="node11" class="node">
<title>Node15</title>
<g id="a_node11"><a xlink:href="classgko_1_1EnablePolymorphicAssignment.html" target="_top" xlink:title=" ">
<polygon fill="#ffffff" stroke="#000000" points="1334,-419 1334,-449 1526,-449 1526,-419 1334,-419"/>
<text text-anchor="start" x="1342" y="-437" font-family="Helvetica,sans-Serif" font-size="10.00" fill="#000000">gko::EnablePolymorphicAssignment</text>
<text text-anchor="middle" x="1430" y="-426" font-family="Helvetica,sans-Serif" font-size="10.00" fill="#000000">&lt; BatchDense&lt; ValueType &gt; &gt;</text>
</a>
</g>
</g>
<!-- Node15&#45;&gt;Node2 -->
<g id="edge13" class="edge">
<title>Node15&#45;&gt;Node2</title>
<path fill="none" stroke="#191970" d="M1536.1625,-432.5608C1658.076,-430.5966 1864.0595,-426.3257 2041,-418 2046.8186,-417.7262 2052.8199,-417.4091 2058.8637,-417.0641"/>
<polygon fill="#191970" stroke="#191970" points="1536.0255,-429.0624 1526.0824,-432.721 1536.1368,-436.0615 1536.0255,-429.0624"/>
</g>
<!-- Node16 -->
<g id="node12" class="node">
<title>Node16</title>
<g id="a_node12"><a xlink:href="classgko_1_1ConvertibleTo.html" target="_top" xlink:title=" ">
<polygon fill="#ffffff" stroke="#000000" points="940.5,-430 940.5,-460 1110.5,-460 1110.5,-430 940.5,-430"/>
<text text-anchor="start" x="948.5" y="-448" font-family="Helvetica,sans-Serif" font-size="10.00" fill="#000000">gko::ConvertibleTo</text>
<text text-anchor="middle" x="1025.5" y="-437" font-family="Helvetica,sans-Serif" font-size="10.00" fill="#000000">&lt; BatchDense&lt; ValueType &gt; &gt;</text>
</a>
</g>
</g>
<!-- Node16&#45;&gt;Node15 -->
<g id="edge14" class="edge">
<title>Node16&#45;&gt;Node15</title>
<path fill="none" stroke="#191970" d="M1120.9153,-442.4053C1185.1209,-440.6593 1269.4746,-438.3653 1333.8361,-436.6151"/>
<polygon fill="#191970" stroke="#191970" points="1120.6909,-438.91 1110.7898,-442.6806 1120.8813,-445.9074 1120.6909,-438.91"/>
</g>
<!-- Node17 -->
<g id="node13" class="node">
<title>Node17</title>
<g id="a_node13"><a xlink:href="classgko_1_1ConvertibleTo.html" target="_top" xlink:title="ConvertibleTo interface is used to mark that the implementer can be converted to the object of Result...">
<polygon fill="#ffffff" stroke="#000000" points="576,-332 576,-362 683,-362 683,-332 576,-332"/>
<text text-anchor="start" x="584" y="-350" font-family="Helvetica,sans-Serif" font-size="10.00" fill="#000000">gko::ConvertibleTo</text>
<text text-anchor="middle" x="629.5" y="-339" font-family="Helvetica,sans-Serif" font-size="10.00" fill="#000000">&lt; ResultType &gt;</text>
</a>
</g>
</g>
<!-- Node17&#45;&gt;Node16 -->
<g id="edge15" class="edge">
<title>Node17&#45;&gt;Node16</title>
<path fill="none" stroke="#ffa500" stroke-dasharray="5,2" d="M682.5261,-365.2206C702.8712,-371.8902 726.3885,-379.2132 748,-385 814.1821,-402.7212 890.3058,-418.8872 946.0636,-429.9623"/>
<polygon fill="#ffa500" stroke="#ffa500" points="683.4089,-361.8262 672.8156,-362.0086 681.2105,-368.472 683.4089,-361.8262"/>
<text text-anchor="middle" x="826.5" y="-423" font-family="Helvetica,sans-Serif" font-size="10.00" fill="#000000"> &lt; BatchDense&lt; ValueType &gt; &gt;</text>
</g>
<!-- Node18 -->
<g id="node14" class="node">
<title>Node18</title>
<g id="a_node14"><a xlink:href="classgko_1_1EnablePolymorphicAssignment.html" target="_top" xlink:title="This mixin is used to enable a default PolymorphicObject::copy_from() implementation for objects that...">
<polygon fill="#ffffff" stroke="#000000" points="929.5,-381 929.5,-411 1121.5,-411 1121.5,-381 929.5,-381"/>
<text text-anchor="start" x="937.5" y="-399" font-family="Helvetica,sans-Serif" font-size="10.00" fill="#000000">gko::EnablePolymorphicAssignment</text>
<text text-anchor="middle" x="1025.5" y="-388" font-family="Helvetica,sans-Serif" font-size="10.00" fill="#000000">&lt; ConcreteType, ResultType &gt;</text>
</a>
</g>
</g>
<!-- Node17&#45;&gt;Node18 -->
<g id="edge17" class="edge">
<title>Node17&#45;&gt;Node18</title>
<path fill="none" stroke="#191970" d="M693.3907,-355.135C711.0775,-357.374 730.282,-359.7932 748,-362 808.3269,-369.5138 876.049,-377.8139 929.4894,-384.3324"/>
<polygon fill="#191970" stroke="#191970" points="693.5358,-351.6254 683.1751,-353.8404 692.6557,-358.5699 693.5358,-351.6254"/>
</g>
<!-- Node23 -->
<g id="node19" class="node">
<title>Node23</title>
<g id="a_node19"><a xlink:href="classgko_1_1ConvertibleTo.html" target="_top" xlink:title=" ">
<polygon fill="#ffffff" stroke="#000000" points="956.5,-332 956.5,-362 1094.5,-362 1094.5,-332 956.5,-332"/>
<text text-anchor="start" x="964.5" y="-350" font-family="Helvetica,sans-Serif" font-size="10.00" fill="#000000">gko::ConvertibleTo</text>
<text text-anchor="middle" x="1025.5" y="-339" font-family="Helvetica,sans-Serif" font-size="10.00" fill="#000000">&lt; ConcreteBatchLinOp &gt;</text>
</a>
</g>
</g>
<!-- Node17&#45;&gt;Node23 -->
<g id="edge26" class="edge">
<title>Node17&#45;&gt;Node23</title>
<path fill="none" stroke="#ffa500" stroke-dasharray="5,2" d="M693.6249,-347C765.7423,-347 882.4316,-347 956.4911,-347"/>
<polygon fill="#ffa500" stroke="#ffa500" points="693.3185,-343.5001 683.3184,-347 693.3184,-350.5001 693.3185,-343.5001"/>
<text text-anchor="middle" x="826.5" y="-350" font-family="Helvetica,sans-Serif" font-size="10.00" fill="#000000"> &lt; ConcreteBatchLinOp &gt;</text>
</g>
<!-- Node26 -->
<g id="node22" class="node">
<title>Node26</title>
<g id="a_node22"><a xlink:href="classgko_1_1ConvertibleTo.html" target="_top" xlink:title=" ">
<polygon fill="#ffffff" stroke="#000000" points="1146,-224.5 1146,-265.5 1315,-265.5 1315,-224.5 1146,-224.5"/>
<text text-anchor="start" x="1154" y="-253.5" font-family="Helvetica,sans-Serif" font-size="10.00" fill="#000000">gko::ConvertibleTo</text>
<text text-anchor="start" x="1154" y="-242.5" font-family="Helvetica,sans-Serif" font-size="10.00" fill="#000000">&lt; BatchDense&lt; next_precision</text>
<text text-anchor="middle" x="1230.5" y="-231.5" font-family="Helvetica,sans-Serif" font-size="10.00" fill="#000000">&lt; ValueType &gt; &gt; &gt;</text>
</a>
</g>
</g>
<!-- Node17&#45;&gt;Node26 -->
<g id="edge31" class="edge">
<title>Node17&#45;&gt;Node26</title>
<path fill="none" stroke="#ffa500" stroke-dasharray="5,2" d="M649.6471,-324.5583C671.38,-302.1512 708.2503,-269.0808 748,-255 880.6807,-207.9996 1047.0134,-218.3806 1145.689,-231.0713"/>
<polygon fill="#ffa500" stroke="#ffa500" points="646.9442,-322.3224 642.6113,-331.9907 652.0277,-327.1347 646.9442,-322.3224"/>
<text text-anchor="start" x="754" y="-269" font-family="Helvetica,sans-Serif" font-size="10.00" fill="#000000"> &lt; BatchDense&lt; next</text>
<text text-anchor="middle" x="826.5" y="-258" font-family="Helvetica,sans-Serif" font-size="10.00" fill="#000000">_precision&lt; ValueType &gt; &gt; &gt;</text>
</g>
<!-- Node27 -->
<g id="node23" class="node">
<title>Node27</title>
<g id="a_node23"><a xlink:href="classgko_1_1ConvertibleTo.html" target="_top" xlink:title=" ">
<polygon fill="#ffffff" stroke="#000000" points="1545,-291.5 1545,-332.5 1680,-332.5 1680,-291.5 1545,-291.5"/>
<text text-anchor="start" x="1553" y="-320.5" font-family="Helvetica,sans-Serif" font-size="10.00" fill="#000000">gko::ConvertibleTo</text>
<text text-anchor="start" x="1553" y="-309.5" font-family="Helvetica,sans-Serif" font-size="10.00" fill="#000000">&lt; BatchCsr&lt; ValueType,</text>
<text text-anchor="middle" x="1612.5" y="-298.5" font-family="Helvetica,sans-Serif" font-size="10.00" fill="#000000"> int32 &gt; &gt;</text>
</a>
</g>
</g>
<!-- Node17&#45;&gt;Node27 -->
<g id="edge33" class="edge">
<title>Node17&#45;&gt;Node27</title>
<path fill="none" stroke="#ffa500" stroke-dasharray="5,2" d="M692.9812,-334.1268C752.2012,-322.8155 843.1596,-307.2187 923,-301 1150.3781,-283.2897 1421.161,-298.0285 1544.8406,-306.73"/>
<polygon fill="#ffa500" stroke="#ffa500" points="692.1874,-330.7153 683.0303,-336.0443 693.512,-337.5889 692.1874,-330.7153"/>
<text text-anchor="start" x="964.5" y="-315" font-family="Helvetica,sans-Serif" font-size="10.00" fill="#000000"> &lt; BatchCsr&lt; ValueType,</text>
<text text-anchor="middle" x="1025.5" y="-304" font-family="Helvetica,sans-Serif" font-size="10.00" fill="#000000"> int32 &gt; &gt;</text>
</g>
<!-- Node18&#45;&gt;Node15 -->
<g id="edge16" class="edge">
<title>Node18&#45;&gt;Node15</title>
<path fill="none" stroke="#ffa500" stroke-dasharray="5,2" d="M1131.7697,-405.1752C1186.5242,-409.9961 1254.3587,-416.1133 1315,-422 1321.0938,-422.5916 1327.368,-423.2125 1333.693,-423.8474"/>
<polygon fill="#ffa500" stroke="#ffa500" points="1131.9708,-401.6794 1121.7027,-404.2904 1131.3579,-408.6525 1131.9708,-401.6794"/>
<text text-anchor="middle" x="1230.5" y="-425" font-family="Helvetica,sans-Serif" font-size="10.00" fill="#000000"> &lt; BatchDense&lt; ValueType &gt; &gt;</text>
</g>
<!-- Node22 -->
<g id="node18" class="node">
<title>Node22</title>
<g id="a_node18"><a xlink:href="classgko_1_1EnablePolymorphicAssignment.html" target="_top" xlink:title=" ">
<polygon fill="#ffffff" stroke="#000000" points="1334,-370 1334,-400 1526,-400 1526,-370 1334,-370"/>
<text text-anchor="start" x="1342" y="-388" font-family="Helvetica,sans-Serif" font-size="10.00" fill="#000000">gko::EnablePolymorphicAssignment</text>
<text text-anchor="middle" x="1430" y="-377" font-family="Helvetica,sans-Serif" font-size="10.00" fill="#000000">&lt; ConcreteBatchLinOp &gt;</text>
</a>
</g>
</g>
<!-- Node18&#45;&gt;Node22 -->
<g id="edge27" class="edge">
<title>Node18&#45;&gt;Node22</title>
<path fill="none" stroke="#ffa500" stroke-dasharray="5,2" d="M1132.1259,-386.6965C1136.8124,-386.4312 1141.4532,-386.1964 1146,-386 1208.5601,-383.2983 1278.9438,-383.031 1333.9921,-383.4478"/>
<polygon fill="#ffa500" stroke="#ffa500" points="1131.5818,-383.223 1121.8125,-387.3232 1132.0064,-390.2102 1131.5818,-383.223"/>
<text text-anchor="middle" x="1230.5" y="-389" font-family="Helvetica,sans-Serif" font-size="10.00" fill="#000000"> &lt; ConcreteBatchLinOp &gt;</text>
</g>
<!-- Node19 -->
<g id="node15" class="node">
<title>Node19</title>
<g id="a_node15"><a xlink:href="classgko_1_1EnableBatchLinOp.html" target="_top" xlink:title="The EnableBatchLinOp mixin can be used to provide sensible default implementations of the majority of...">
<polygon fill="#ffffff" stroke="#000000" points="1717,-365.5 1717,-406.5 1847,-406.5 1847,-365.5 1717,-365.5"/>
<text text-anchor="start" x="1725" y="-394.5" font-family="Helvetica,sans-Serif" font-size="10.00" fill="#000000">gko::EnableBatchLinOp</text>
<text text-anchor="start" x="1725" y="-383.5" font-family="Helvetica,sans-Serif" font-size="10.00" fill="#000000">&lt; ConcreteBatchLinOp,</text>
<text text-anchor="middle" x="1782" y="-372.5" font-family="Helvetica,sans-Serif" font-size="10.00" fill="#000000"> PolymorphicBase &gt;</text>
</a>
</g>
</g>
<!-- Node19&#45;&gt;Node2 -->
<g id="edge18" class="edge">
<title>Node19&#45;&gt;Node2</title>
<path fill="none" stroke="#ffa500" stroke-dasharray="5,2" d="M1857.4674,-391.2118C1916.244,-395.271 1997.8379,-400.9059 2058.9279,-405.1249"/>
<polygon fill="#ffa500" stroke="#ffa500" points="1857.3538,-387.6957 1847.1364,-390.4984 1856.8715,-394.6791 1857.3538,-387.6957"/>
<text text-anchor="middle" x="1962.5" y="-406" font-family="Helvetica,sans-Serif" font-size="10.00" fill="#000000"> &lt; BatchDense&lt; ValueType &gt; &gt;</text>
</g>
<!-- Node20&#45;&gt;Node19 -->
<g id="edge19" class="edge">
<title>Node20&#45;&gt;Node19</title>
<path fill="none" stroke="#191970" d="M1510.2136,-465.5284C1572.7335,-447.2342 1658.4432,-422.1544 1716.7844,-405.083"/>
<polygon fill="#191970" stroke="#191970" points="1509.001,-462.2364 1500.3864,-468.404 1510.967,-468.9547 1509.001,-462.2364"/>
</g>
<!-- Node21&#45;&gt;Node20 -->
<g id="edge20" class="edge">
<title>Node21&#45;&gt;Node20</title>
<path fill="none" stroke="#191970" d="M727.4702,-489C881.6318,-489 1179.0719,-489 1332.7722,-489"/>
<polygon fill="#191970" stroke="#191970" points="727.0741,-485.5001 717.074,-489 727.074,-492.5001 727.0741,-485.5001"/>
</g>
<!-- Node22&#45;&gt;Node19 -->
<g id="edge24" class="edge">
<title>Node22&#45;&gt;Node19</title>
<path fill="none" stroke="#191970" d="M1536.258,-385.3019C1595.0475,-385.4689 1666.2222,-385.6711 1716.8093,-385.8148"/>
<polygon fill="#191970" stroke="#191970" points="1536.1955,-381.8018 1526.1855,-385.2733 1536.1755,-388.8017 1536.1955,-381.8018"/>
</g>
<!-- Node23&#45;&gt;Node22 -->
<g id="edge25" class="edge">
<title>Node23&#45;&gt;Node22</title>
<path fill="none" stroke="#191970" d="M1104.8688,-354.4562C1170.5364,-360.6252 1264.0367,-369.4089 1333.9268,-375.9746"/>
<polygon fill="#191970" stroke="#191970" points="1104.86,-350.94 1094.5764,-353.4893 1104.2052,-357.9093 1104.86,-350.94"/>
</g>
<!-- Node24 -->
<g id="node20" class="node">
<title>Node24</title>
<g id="a_node20"><a xlink:href="classgko_1_1EnableCreateMethod.html" target="_top" xlink:title=" ">
<polygon fill="#ffffff" stroke="#000000" points="2059,-274 2059,-304 2229,-304 2229,-274 2059,-274"/>
<text text-anchor="start" x="2067" y="-292" font-family="Helvetica,sans-Serif" font-size="10.00" fill="#000000">gko::EnableCreateMethod</text>
<text text-anchor="middle" x="2144" y="-281" font-family="Helvetica,sans-Serif" font-size="10.00" fill="#000000">&lt; BatchDense&lt; ValueType &gt; &gt;</text>
</a>
</g>
</g>
<!-- Node24&#45;&gt;Node1 -->
<g id="edge28" class="edge">
<title>Node24&#45;&gt;Node1</title>
<path fill="none" stroke="#191970" d="M2217.4159,-270.9324C2227.8747,-267.468 2238.3482,-263.4939 2248,-259 2272.9146,-247.3997 2298.7378,-229.1275 2315.6072,-216.1958"/>
<polygon fill="#191970" stroke="#191970" points="2216.3122,-267.6106 2207.839,-273.971 2218.4292,-274.2828 2216.3122,-267.6106"/>
</g>
<!-- Node25 -->
<g id="node21" class="node">
<title>Node25</title>
<g id="a_node21"><a xlink:href="classgko_1_1EnableCreateMethod.html" target="_top" xlink:title="This mixin implements a static create() method on ConcreteType that dynamically allocates the memory,...">
<polygon fill="#ffffff" stroke="#000000" points="1711,-274 1711,-304 1853,-304 1853,-274 1711,-274"/>
<text text-anchor="start" x="1719" y="-292" font-family="Helvetica,sans-Serif" font-size="10.00" fill="#000000">gko::EnableCreateMethod</text>
<text text-anchor="middle" x="1782" y="-281" font-family="Helvetica,sans-Serif" font-size="10.00" fill="#000000">&lt; ConcreteType &gt;</text>
</a>
</g>
</g>
<!-- Node25&#45;&gt;Node24 -->
<g id="edge29" class="edge">
<title>Node25&#45;&gt;Node24</title>
<path fill="none" stroke="#ffa500" stroke-dasharray="5,2" d="M1863.3445,-289C1921.5336,-289 1999.6875,-289 2058.745,-289"/>
<polygon fill="#ffa500" stroke="#ffa500" points="1863.0877,-285.5001 1853.0876,-289 1863.0876,-292.5001 1863.0877,-285.5001"/>
<text text-anchor="middle" x="1962.5" y="-292" font-family="Helvetica,sans-Serif" font-size="10.00" fill="#000000"> &lt; BatchDense&lt; ValueType &gt; &gt;</text>
</g>
<!-- Node26&#45;&gt;Node1 -->
<g id="edge30" class="edge">
<title>Node26&#45;&gt;Node1</title>
<path fill="none" stroke="#191970" d="M1325.2844,-245C1402.5819,-245 1514.5979,-245 1612.5,-245 1612.5,-245 1612.5,-245 2144,-245 2196.7824,-245 2255.7295,-228.7657 2293.8776,-216.0192"/>
<polygon fill="#191970" stroke="#191970" points="1325.0873,-241.5001 1315.0873,-245 1325.0873,-248.5001 1325.0873,-241.5001"/>
</g>
<!-- Node27&#45;&gt;Node1 -->
<g id="edge32" class="edge">
<title>Node27&#45;&gt;Node1</title>
<path fill="none" stroke="#191970" d="M1690.2989,-319.9096C1833.9027,-333.2605 2134.5715,-355.0253 2229,-314 2275.5249,-293.7869 2310.8566,-241.828 2326.1638,-216.0153"/>
<polygon fill="#191970" stroke="#191970" points="1690.5195,-316.415 1680.2359,-318.9639 1689.8645,-323.3843 1690.5195,-316.415"/>
</g>
<!-- Node28 -->
<g id="node24" class="node">
<title>Node28</title>
<g id="a_node24"><a xlink:href="classgko_1_1BatchReadableFromMatrixData.html" target="_top" xlink:title=" ">
<polygon fill="#ffffff" stroke="#000000" points="2060,-186 2060,-216 2228,-216 2228,-186 2060,-186"/>
<text text-anchor="start" x="2068" y="-204" font-family="Helvetica,sans-Serif" font-size="10.00" fill="#000000">gko::BatchReadableFromMatrix</text>
<text text-anchor="middle" x="2144" y="-193" font-family="Helvetica,sans-Serif" font-size="10.00" fill="#000000">Data&lt; ValueType, int32 &gt;</text>
</a>
</g>
</g>
<!-- Node28&#45;&gt;Node1 -->
<g id="edge34" class="edge">
<title>Node28&#45;&gt;Node1</title>
<path fill="none" stroke="#191970" d="M2238.237,-201C2247.5897,-201 2256.9553,-201 2265.9732,-201"/>
<polygon fill="#191970" stroke="#191970" points="2238.1106,-197.5001 2228.1106,-201 2238.1106,-204.5001 2238.1106,-197.5001"/>
</g>
<!-- Node29 -->
<g id="node25" class="node">
<title>Node29</title>
<g id="a_node25"><a xlink:href="classgko_1_1BatchReadableFromMatrixData.html" target="_top" xlink:title="A BatchLinOp implementing this interface can read its data from a matrix_data structure.">
<polygon fill="#ffffff" stroke="#000000" points="1698,-155 1698,-185 1866,-185 1866,-155 1698,-155"/>
<text text-anchor="start" x="1706" y="-173" font-family="Helvetica,sans-Serif" font-size="10.00" fill="#000000">gko::BatchReadableFromMatrix</text>
<text text-anchor="middle" x="1782" y="-162" font-family="Helvetica,sans-Serif" font-size="10.00" fill="#000000">Data&lt; ValueType, IndexType &gt;</text>
</a>
</g>
</g>
<!-- Node29&#45;&gt;Node28 -->
<g id="edge35" class="edge">
<title>Node29&#45;&gt;Node28</title>
<path fill="none" stroke="#ffa500" stroke-dasharray="5,2" d="M1876.4773,-178.0906C1933.2649,-182.9536 2004.911,-189.0891 2059.7635,-193.7864"/>
<polygon fill="#ffa500" stroke="#ffa500" points="1876.6782,-174.5951 1866.4161,-177.229 1876.0809,-181.5696 1876.6782,-174.5951"/>
<text text-anchor="middle" x="1962.5" y="-194" font-family="Helvetica,sans-Serif" font-size="10.00" fill="#000000"> &lt; ValueType, int32 &gt;</text>
</g>
<!-- Node30 -->
<g id="node26" class="node">
<title>Node30</title>
<g id="a_node26"><a xlink:href="classgko_1_1BatchReadableFromMatrixData.html" target="_top" xlink:title=" ">
<polygon fill="#ffffff" stroke="#000000" points="2060,-137 2060,-167 2228,-167 2228,-137 2060,-137"/>
<text text-anchor="start" x="2068" y="-155" font-family="Helvetica,sans-Serif" font-size="10.00" fill="#000000">gko::BatchReadableFromMatrix</text>
<text text-anchor="middle" x="2144" y="-144" font-family="Helvetica,sans-Serif" font-size="10.00" fill="#000000">Data&lt; ValueType, int64 &gt;</text>
</a>
</g>
</g>
<!-- Node29&#45;&gt;Node30 -->
<g id="edge37" class="edge">
<title>Node29&#45;&gt;Node30</title>
<path fill="none" stroke="#ffa500" stroke-dasharray="5,2" d="M1876.2205,-161.5027C1878.841,-161.3254 1881.4382,-161.1572 1884,-161 1942.7181,-157.3958 2008.9912,-155.1294 2059.9313,-153.7724"/>
<polygon fill="#ffa500" stroke="#ffa500" points="1875.7492,-158.0273 1866.0228,-162.2283 1876.2461,-165.0096 1875.7492,-158.0273"/>
<text text-anchor="middle" x="1962.5" y="-164" font-family="Helvetica,sans-Serif" font-size="10.00" fill="#000000"> &lt; ValueType, int64 &gt;</text>
</g>
<!-- Node30&#45;&gt;Node1 -->
<g id="edge36" class="edge">
<title>Node30&#45;&gt;Node1</title>
<path fill="none" stroke="#191970" d="M2212.2293,-169.5498C2233.1486,-174.9306 2255.9636,-180.799 2276.1596,-185.9938"/>
<polygon fill="#191970" stroke="#191970" points="2213.0076,-166.1361 2202.4509,-167.0346 2211.2638,-172.9154 2213.0076,-166.1361"/>
</g>
<!-- Node31 -->
<g id="node27" class="node">
<title>Node31</title>
<g id="a_node27"><a xlink:href="classgko_1_1BatchWritableToMatrixData.html" target="_top" xlink:title=" ">
<polygon fill="#ffffff" stroke="#000000" points="2069,-88 2069,-118 2219,-118 2219,-88 2069,-88"/>
<text text-anchor="start" x="2077" y="-106" font-family="Helvetica,sans-Serif" font-size="10.00" fill="#000000">gko::BatchWritableToMatrix</text>
<text text-anchor="middle" x="2144" y="-95" font-family="Helvetica,sans-Serif" font-size="10.00" fill="#000000">Data&lt; ValueType, int32 &gt;</text>
</a>
</g>
</g>
<!-- Node31&#45;&gt;Node1 -->
<g id="edge38" class="edge">
<title>Node31&#45;&gt;Node1</title>
<path fill="none" stroke="#191970" d="M2213.8071,-121.5373C2219.0239,-123.5258 2224.1422,-125.6793 2229,-128 2262.161,-143.842 2296.4022,-169.5884 2316.5555,-185.8907"/>
<polygon fill="#191970" stroke="#191970" points="2214.9399,-118.2253 2204.3455,-118.1355 2212.5715,-124.8125 2214.9399,-118.2253"/>
</g>
<!-- Node32 -->
<g id="node28" class="node">
<title>Node32</title>
<g id="a_node28"><a xlink:href="classgko_1_1BatchWritableToMatrixData.html" target="_top" xlink:title="A BatchLinOp implementing this interface can write its data to a std::vector of matrix_data objects.">
<polygon fill="#ffffff" stroke="#000000" points="1698.5,-62 1698.5,-92 1865.5,-92 1865.5,-62 1698.5,-62"/>
<text text-anchor="start" x="1706.5" y="-80" font-family="Helvetica,sans-Serif" font-size="10.00" fill="#000000">gko::BatchWritableToMatrix</text>
<text text-anchor="middle" x="1782" y="-69" font-family="Helvetica,sans-Serif" font-size="10.00" fill="#000000">Data&lt; ValueType, IndexType &gt;</text>
</a>
</g>
</g>
<!-- Node32&#45;&gt;Node31 -->
<g id="edge39" class="edge">
<title>Node32&#45;&gt;Node31</title>
<path fill="none" stroke="#ffa500" stroke-dasharray="5,2" d="M1875.7602,-83.7342C1935.8698,-88.0514 2012.8514,-93.5805 2068.9161,-97.6072"/>
<polygon fill="#ffa500" stroke="#ffa500" points="1875.7297,-80.223 1865.5046,-82.9976 1875.2282,-87.2051 1875.7297,-80.223"/>
<text text-anchor="middle" x="1962.5" y="-98" font-family="Helvetica,sans-Serif" font-size="10.00" fill="#000000"> &lt; ValueType, int32 &gt;</text>
</g>
<!-- Node33 -->
<g id="node29" class="node">
<title>Node33</title>
<g id="a_node29"><a xlink:href="classgko_1_1BatchWritableToMatrixData.html" target="_top" xlink:title=" ">
<polygon fill="#ffffff" stroke="#000000" points="2069,-39 2069,-69 2219,-69 2219,-39 2069,-39"/>
<text text-anchor="start" x="2077" y="-57" font-family="Helvetica,sans-Serif" font-size="10.00" fill="#000000">gko::BatchWritableToMatrix</text>
<text text-anchor="middle" x="2144" y="-46" font-family="Helvetica,sans-Serif" font-size="10.00" fill="#000000">Data&lt; ValueType, int64 &gt;</text>
</a>
</g>
</g>
<!-- Node32&#45;&gt;Node33 -->
<g id="edge41" class="edge">
<title>Node32&#45;&gt;Node33</title>
<path fill="none" stroke="#ffa500" stroke-dasharray="5,2" d="M1875.7898,-63.757C1878.5552,-63.4852 1881.2966,-63.2317 1884,-63 1946.1013,-57.6772 2016.8026,-55.4778 2068.7861,-54.5811"/>
<polygon fill="#ffa500" stroke="#ffa500" points="1875.2772,-60.2914 1865.6968,-64.8153 1876.0073,-67.2533 1875.2772,-60.2914"/>
<text text-anchor="middle" x="1962.5" y="-66" font-family="Helvetica,sans-Serif" font-size="10.00" fill="#000000"> &lt; ValueType, int64 &gt;</text>
</g>
<!-- Node33&#45;&gt;Node1 -->
<g id="edge40" class="edge">
<title>Node33&#45;&gt;Node1</title>
<path fill="none" stroke="#191970" d="M2219.0658,-73.3661C2222.5073,-75.0915 2225.8392,-76.9654 2229,-79 2273.2655,-107.4931 2309.4129,-159.9324 2325.493,-185.7804"/>
<polygon fill="#191970" stroke="#191970" points="2220.2949,-70.0804 2209.7421,-69.1373 2217.4035,-76.4553 2220.2949,-70.0804"/>
</g>
<!-- Node34 -->
<g id="node30" class="node">
<title>Node34</title>
<g id="a_node30"><a xlink:href="classgko_1_1BatchTransposable.html" target="_top" xlink:title="Batch Linear operators which support transposition of the distinct batch entries should implement the...">
<polygon fill="#ffffff" stroke="#000000" points="2078,-.5 2078,-19.5 2210,-19.5 2210,-.5 2078,-.5"/>
<text text-anchor="middle" x="2144" y="-7.5" font-family="Helvetica,sans-Serif" font-size="10.00" fill="#000000">gko::BatchTransposable</text>
</a>
</g>
</g>
<!-- Node34&#45;&gt;Node1 -->
<g id="edge42" class="edge">
<title>Node34&#45;&gt;Node1</title>
<path fill="none" stroke="#191970" d="M2218.4758,-23.6761C2222.1675,-25.5274 2225.7045,-27.6246 2229,-30 2285.5962,-70.7942 2318.1529,-152.2176 2329.6883,-185.8882"/>
<polygon fill="#191970" stroke="#191970" points="2219.5956,-20.3463 2209.0298,-19.5625 2216.8007,-26.7641 2219.5956,-20.3463"/>
</g>
</g>
</svg>
        <g id="navigator" transform="translate(0 0)" fill="#404254">
                <rect fill="#f2f5e9" fill-opacity="0.5" stroke="#606060" stroke-width=".5" x="0" y="0" width="60" height="60"/>
                <use id="zoomplus" xlink:href="#zoomPlus" x="17" y="9" onmousedown="handleZoom(evt,'in')"/>
                <use id="zoomminus" xlink:href="#zoomMin" x="42" y="9" onmousedown="handleZoom(evt,'out')"/>
                <use id="reset" xlink:href="#resetDef" x="30" y="36" onmousedown="handleReset()"/>
                <g id="arrowUp" xlink:href="#dirArrow" transform="translate(30 24)" onmousedown="handlePan(0,-1)">
                  <use xlink:href="#rim" fill="#404040">
                        <set attributeName="fill" to="#808080" begin="arrowUp.mouseover" end="arrowUp.mouseout"/>
                  </use>
                  <path fill="none" stroke="white" stroke-width="1.5" d="M0,-3.0v7 M-2.5,-0.5L0,-3.0L2.5,-0.5"/>
                </g>
                <g id="arrowRight" xlink:href="#dirArrow" transform="rotate(90) translate(36 -43)" onmousedown="handlePan(1,0)">
                  <use xlink:href="#rim" fill="#404040">
                        <set attributeName="fill" to="#808080" begin="arrowRight.mouseover" end="arrowRight.mouseout"/>
                  </use>
                  <path fill="none" stroke="white" stroke-width="1.5" d="M0,-3.0v7 M-2.5,-0.5L0,-3.0L2.5,-0.5"/>
                </g>
                <g id="arrowDown" xlink:href="#dirArrow" transform="rotate(180) translate(-30 -48)" onmousedown="handlePan(0,1)">
                  <use xlink:href="#rim" fill="#404040">
                        <set attributeName="fill" to="#808080" begin="arrowDown.mouseover" end="arrowDown.mouseout"/>
                  </use>
                  <path fill="none" stroke="white" stroke-width="1.5" d="M0,-3.0v7 M-2.5,-0.5L0,-3.0L2.5,-0.5"/>
                </g>
                <g id="arrowLeft" xlink:href="#dirArrow" transform="rotate(270) translate(-36 17)" onmousedown="handlePan(-1,0)">
                  <use xlink:href="#rim" fill="#404040">
                        <set attributeName="fill" to="#808080" begin="arrowLeft.mouseover" end="arrowLeft.mouseout"/>
                  </use>
                  <path fill="none" stroke="white" stroke-width="1.5" d="M0,-3.0v7 M-2.5,-0.5L0,-3.0L2.5,-0.5"/>
                </g>
        </g>
        <svg viewBox="0 0 15 15" width="100%" height="30px" preserveAspectRatio="xMaxYMin meet">
         <g id="arrow_out" transform="scale(0.3 0.3)">
          <a xlink:href="classgko_1_1matrix_1_1BatchDense__coll__graph_org.svg" target="_base">
           <rect id="button" ry="5" rx="5" y="6" x="6" height="38" width="38"
                fill="#f2f5e9" fill-opacity="0.5" stroke="#606060" stroke-width="1.0"/>
           <path id="arrow"
             d="M 11.500037,31.436501 C 11.940474,20.09759 22.043105,11.32322 32.158766,21.979434 L 37.068811,17.246167 C 37.068811,17.246167 37.088388,32 37.088388,32 L 22.160133,31.978069 C 22.160133,31.978069 26.997745,27.140456 26.997745,27.140456 C 18.528582,18.264221 13.291696,25.230495 11.500037,31.436501 z"
             style="fill:#404040;"/>
          </a>
         </g>
        </svg>
</svg>
