<?xml version="1.0" encoding="UTF-8" standalone="no"?>
<!DOCTYPE svg PUBLIC "-//W3C//DTD SVG 1.1//EN"
 "http://www.w3.org/Graphics/SVG/1.1/DTD/svg11.dtd">
<!-- Generated by graphviz version 2.40.1 (20161225.0304)
 -->
<!-- Title: gko::matrix::BatchCsr&lt; ValueType, IndexType &gt; Pages: 1 -->
<svg width="2444pt" height="621pt"
 viewBox="0.00 0.00 2444.00 621.00" xmlns="http://www.w3.org/2000/svg" xmlns:xlink="http://www.w3.org/1999/xlink">
<g id="graph0" class="graph" transform="scale(1 1) rotate(0) translate(4 617)">
<title>gko::matrix::BatchCsr&lt; ValueType, IndexType &gt;</title>
<polygon fill="#ffffff" stroke="transparent" points="-4,4 -4,-617 2440,-617 2440,4 -4,4"/>
<!-- Node1 -->
<g id="node1" class="node">
<title>Node1</title>
<g id="a_node1"><a xlink:title="BatchCsr is a matrix format which stores only the nonzero coefficients by compressing each row of the...">
<polygon fill="#bfbfbf" stroke="#000000" points="2292,-148 2292,-178 2436,-178 2436,-148 2292,-148"/>
<text text-anchor="start" x="2300" y="-166" font-family="Helvetica,sans-Serif" font-size="10.00" fill="#000000">gko::matrix::BatchCsr</text>
<text text-anchor="middle" x="2364" y="-155" font-family="Helvetica,sans-Serif" font-size="10.00" fill="#000000">&lt; ValueType, IndexType &gt;</text>
</a>
</g>
</g>
<!-- Node2 -->
<g id="node2" class="node">
<title>Node2</title>
<g id="a_node2"><a xlink:href="classgko_1_1EnableBatchLinOp.html" target="_top" xlink:title=" ">
<polygon fill="#ffffff" stroke="#000000" points="2103.5,-346.5 2103.5,-387.5 2238.5,-387.5 2238.5,-346.5 2103.5,-346.5"/>
<text text-anchor="start" x="2111.5" y="-375.5" font-family="Helvetica,sans-Serif" font-size="10.00" fill="#000000">gko::EnableBatchLinOp</text>
<text text-anchor="start" x="2111.5" y="-364.5" font-family="Helvetica,sans-Serif" font-size="10.00" fill="#000000">&lt; BatchCsr&lt; ValueType,</text>
<text text-anchor="middle" x="2171" y="-353.5" font-family="Helvetica,sans-Serif" font-size="10.00" fill="#000000"> IndexType &gt; &gt;</text>
</a>
</g>
</g>
<!-- Node2&#45;&gt;Node1 -->
<g id="edge1" class="edge">
<title>Node2&#45;&gt;Node1</title>
<path fill="none" stroke="#191970" d="M2217.1148,-341.0015C2235.9948,-329.0574 2257.2845,-313.8072 2274,-297 2311.3497,-259.4454 2342.6055,-204.3046 2356.4077,-178.0142"/>
<polygon fill="#191970" stroke="#191970" points="2215.0171,-338.1835 2208.3537,-346.4206 2218.6994,-344.1368 2215.0171,-338.1835"/>
</g>
<!-- Node3 -->
<g id="node3" class="node">
<title>Node3</title>
<g id="a_node3"><a xlink:href="classgko_1_1EnablePolymorphicObject.html" target="_top" xlink:title=" ">
<polygon fill="#ffffff" stroke="#000000" points="1741,-493.5 1741,-534.5 1929,-534.5 1929,-493.5 1741,-493.5"/>
<text text-anchor="start" x="1749" y="-522.5" font-family="Helvetica,sans-Serif" font-size="10.00" fill="#000000">gko::EnablePolymorphicObject</text>
<text text-anchor="start" x="1749" y="-511.5" font-family="Helvetica,sans-Serif" font-size="10.00" fill="#000000">&lt; BatchCsr&lt; ValueType, IndexType</text>
<text text-anchor="middle" x="1835" y="-500.5" font-family="Helvetica,sans-Serif" font-size="10.00" fill="#000000"> &gt;, BatchLinOp &gt;</text>
</a>
</g>
</g>
<!-- Node3&#45;&gt;Node2 -->
<g id="edge2" class="edge">
<title>Node3&#45;&gt;Node2</title>
<path fill="none" stroke="#191970" d="M1891.3951,-489.3271C1956.6653,-460.7714 2062.974,-414.2614 2123.9749,-387.5735"/>
<polygon fill="#191970" stroke="#191970" points="1889.8318,-486.1907 1882.0731,-493.4055 1892.6376,-492.6038 1889.8318,-486.1907"/>
</g>
<!-- Node4 -->
<g id="node4" class="node">
<title>Node4</title>
<g id="a_node4"><a xlink:href="classgko_1_1EnableAbstractPolymorphicObject.html" target="_top" xlink:title=" ">
<polygon fill="#ffffff" stroke="#000000" points="1342.5,-554.5 1342.5,-595.5 1517.5,-595.5 1517.5,-554.5 1342.5,-554.5"/>
<text text-anchor="start" x="1350.5" y="-583.5" font-family="Helvetica,sans-Serif" font-size="10.00" fill="#000000">gko::EnableAbstractPolymorphic</text>
<text text-anchor="start" x="1350.5" y="-572.5" font-family="Helvetica,sans-Serif" font-size="10.00" fill="#000000">Object&lt; BatchCsr&lt; ValueType,</text>
<text text-anchor="middle" x="1430" y="-561.5" font-family="Helvetica,sans-Serif" font-size="10.00" fill="#000000"> IndexType &gt;, BatchLinOp &gt;</text>
</a>
</g>
</g>
<!-- Node4&#45;&gt;Node3 -->
<g id="edge3" class="edge">
<title>Node4&#45;&gt;Node3</title>
<path fill="none" stroke="#191970" d="M1528.0894,-560.226C1592.7935,-550.4805 1677.0755,-537.7862 1740.9434,-528.1666"/>
<polygon fill="#191970" stroke="#191970" points="1527.2461,-556.8135 1517.879,-561.7639 1528.2887,-563.7354 1527.2461,-556.8135"/>
</g>
<!-- Node5 -->
<g id="node5" class="node">
<title>Node5</title>
<g id="a_node5"><a xlink:href="classgko_1_1BatchLinOp.html" target="_top" xlink:title=" ">
<polygon fill="#ffffff" stroke="#000000" points="971.5,-561.5 971.5,-580.5 1067.5,-580.5 1067.5,-561.5 971.5,-561.5"/>
<text text-anchor="middle" x="1019.5" y="-568.5" font-family="Helvetica,sans-Serif" font-size="10.00" fill="#000000">gko::BatchLinOp</text>
</a>
</g>
</g>
<!-- Node5&#45;&gt;Node4 -->
<g id="edge4" class="edge">
<title>Node5&#45;&gt;Node4</title>
<path fill="none" stroke="#191970" d="M1078.0586,-571.5706C1147.1495,-572.2438 1262.6868,-573.3697 1342.4311,-574.1467"/>
<polygon fill="#191970" stroke="#191970" points="1077.8303,-568.0683 1067.7967,-571.4706 1077.7621,-575.068 1077.8303,-568.0683"/>
</g>
<!-- Node6 -->
<g id="node6" class="node">
<title>Node6</title>
<g id="a_node6"><a xlink:href="classgko_1_1EnableAbstractPolymorphicObject.html" target="_top" xlink:title=" ">
<polygon fill="#ffffff" stroke="#ff0000" points="542,-551 542,-581 717,-581 717,-551 542,-551"/>
<text text-anchor="start" x="550" y="-569" font-family="Helvetica,sans-Serif" font-size="10.00" fill="#000000">gko::EnableAbstractPolymorphic</text>
<text text-anchor="middle" x="629.5" y="-558" font-family="Helvetica,sans-Serif" font-size="10.00" fill="#000000">Object&lt; BatchLinOp &gt;</text>
</a>
</g>
</g>
<!-- Node6&#45;&gt;Node5 -->
<g id="edge5" class="edge">
<title>Node6&#45;&gt;Node5</title>
<path fill="none" stroke="#191970" d="M727.3371,-567.2543C805.2025,-568.2526 910.8324,-569.6068 971.4248,-570.3837"/>
<polygon fill="#191970" stroke="#191970" points="727.0677,-563.7507 717.0236,-567.1221 726.9779,-570.7501 727.0677,-563.7507"/>
</g>
<!-- Node12 -->
<g id="node7" class="node">
<title>Node12</title>
<g id="a_node7"><a xlink:href="classgko_1_1EnableAbstractPolymorphicObject.html" target="_top" xlink:title="This mixin inherits from (a subclass of) PolymorphicObject and provides a base implementation of a ne...">
<polygon fill="#ffffff" stroke="#000000" points="138,-509.5 138,-550.5 336,-550.5 336,-509.5 138,-509.5"/>
<text text-anchor="start" x="146" y="-538.5" font-family="Helvetica,sans-Serif" font-size="10.00" fill="#000000">gko::EnableAbstractPolymorphic</text>
<text text-anchor="start" x="146" y="-527.5" font-family="Helvetica,sans-Serif" font-size="10.00" fill="#000000">Object&lt; AbstractObject, Polymorphic</text>
<text text-anchor="middle" x="237" y="-516.5" font-family="Helvetica,sans-Serif" font-size="10.00" fill="#000000">Base &gt;</text>
</a>
</g>
</g>
<!-- Node12&#45;&gt;Node4 -->
<g id="edge8" class="edge">
<title>Node12&#45;&gt;Node4</title>
<path fill="none" stroke="#ffa500" stroke-dasharray="5,2" d="M289.893,-554.5433C309.6144,-562.6867 332.4501,-570.9531 354,-576 430.0064,-593.8005 451.0084,-587.6636 529,-591 571.8785,-592.8343 955.1764,-592.0161 1122,-590 1204.2354,-589.0062 1224.8848,-590.5543 1307,-586 1318.4525,-585.3648 1330.4901,-584.5147 1342.3682,-583.5672"/>
<polygon fill="#ffa500" stroke="#ffa500" points="291.0549,-551.2348 280.481,-550.5701 288.3326,-557.6837 291.0549,-551.2348"/>
<text text-anchor="start" x="755" y="-605" font-family="Helvetica,sans-Serif" font-size="10.00" fill="#000000"> &lt; BatchCsr&lt; ValueType,</text>
<text text-anchor="middle" x="823.5" y="-594" font-family="Helvetica,sans-Serif" font-size="10.00" fill="#000000"> IndexType &gt;, BatchLinOp &gt;</text>
</g>
<!-- Node12&#45;&gt;Node6 -->
<g id="edge6" class="edge">
<title>Node12&#45;&gt;Node6</title>
<path fill="none" stroke="#ffa500" stroke-dasharray="5,2" d="M346.2714,-548.0954C348.8708,-548.4127 351.45,-548.715 354,-549 416.6259,-555.9997 487.6066,-560.2939 541.8344,-562.8151"/>
<polygon fill="#ffa500" stroke="#ffa500" points="346.5267,-544.5996 336.1634,-546.8025 345.6385,-551.543 346.5267,-544.5996"/>
<text text-anchor="middle" x="432.5" y="-564" font-family="Helvetica,sans-Serif" font-size="10.00" fill="#000000"> &lt; BatchLinOp &gt;</text>
</g>
<!-- Node14 -->
<g id="node10" class="node">
<title>Node14</title>
<g id="a_node10"><a xlink:href="classgko_1_1EnableAbstractPolymorphicObject.html" target="_top" xlink:title=" ">
<polygon fill="#ffffff" stroke="#000000" points="529,-488.5 529,-529.5 730,-529.5 730,-488.5 529,-488.5"/>
<text text-anchor="start" x="537" y="-517.5" font-family="Helvetica,sans-Serif" font-size="10.00" fill="#000000">gko::EnableAbstractPolymorphic</text>
<text text-anchor="start" x="537" y="-506.5" font-family="Helvetica,sans-Serif" font-size="10.00" fill="#000000">Object&lt; ConcreteObject, Polymorphic</text>
<text text-anchor="middle" x="629.5" y="-495.5" font-family="Helvetica,sans-Serif" font-size="10.00" fill="#000000">Base &gt;</text>
</a>
</g>
</g>
<!-- Node12&#45;&gt;Node14 -->
<g id="edge12" class="edge">
<title>Node12&#45;&gt;Node14</title>
<path fill="none" stroke="#ffa500" stroke-dasharray="5,2" d="M346.2032,-524.1573C403.3756,-521.0984 472.9091,-517.3781 528.78,-514.3888"/>
<polygon fill="#ffa500" stroke="#ffa500" points="345.843,-520.6715 336.0443,-524.7008 346.2171,-527.6615 345.843,-520.6715"/>
<text text-anchor="start" x="354" y="-537" font-family="Helvetica,sans-Serif" font-size="10.00" fill="#000000"> &lt; ConcreteObject, Polymorphic</text>
<text text-anchor="middle" x="432.5" y="-526" font-family="Helvetica,sans-Serif" font-size="10.00" fill="#000000">Base &gt;</text>
</g>
<!-- Node21 -->
<g id="node17" class="node">
<title>Node21</title>
<g id="a_node17"><a xlink:href="classgko_1_1EnableAbstractPolymorphicObject.html" target="_top" xlink:title=" ">
<polygon fill="#ffffff" stroke="#000000" points="542,-423.5 542,-464.5 717,-464.5 717,-423.5 542,-423.5"/>
<text text-anchor="start" x="550" y="-452.5" font-family="Helvetica,sans-Serif" font-size="10.00" fill="#000000">gko::EnableAbstractPolymorphic</text>
<text text-anchor="start" x="550" y="-441.5" font-family="Helvetica,sans-Serif" font-size="10.00" fill="#000000">Object&lt; ConcreteBatchLinOp,</text>
<text text-anchor="middle" x="629.5" y="-430.5" font-family="Helvetica,sans-Serif" font-size="10.00" fill="#000000"> PolymorphicBase &gt;</text>
</a>
</g>
</g>
<!-- Node12&#45;&gt;Node21 -->
<g id="edge22" class="edge">
<title>Node12&#45;&gt;Node21</title>
<path fill="none" stroke="#ffa500" stroke-dasharray="5,2" d="M298.9789,-506.0119C316.5708,-499.8262 335.8738,-493.6184 354,-489 415.9915,-473.2051 487.3012,-461.7346 541.8381,-454.3283"/>
<polygon fill="#ffa500" stroke="#ffa500" points="297.6384,-502.7741 289.4001,-509.436 299.9947,-509.3657 297.6384,-502.7741"/>
<text text-anchor="start" x="374" y="-503" font-family="Helvetica,sans-Serif" font-size="10.00" fill="#000000"> &lt; ConcreteBatchLinOp,</text>
<text text-anchor="middle" x="432.5" y="-492" font-family="Helvetica,sans-Serif" font-size="10.00" fill="#000000"> PolymorphicBase &gt;</text>
</g>
<!-- Node11 -->
<g id="node8" class="node">
<title>Node11</title>
<g id="a_node8"><a xlink:title=" ">
<polygon fill="#ffffff" stroke="#bfbfbf" points="0,-442.5 0,-461.5 101,-461.5 101,-442.5 0,-442.5"/>
<text text-anchor="middle" x="50.5" y="-449.5" font-family="Helvetica,sans-Serif" font-size="10.00" fill="#000000">PolymorphicBase</text>
</a>
</g>
</g>
<!-- Node11&#45;&gt;Node12 -->
<g id="edge7" class="edge">
<title>Node11&#45;&gt;Node12</title>
<path fill="none" stroke="#191970" d="M82.5985,-465.4246C111.5007,-477.5123 154.4214,-495.4631 187.6791,-509.3725"/>
<polygon fill="#191970" stroke="#191970" points="83.9447,-462.1939 73.3686,-461.5643 81.2437,-468.6518 83.9447,-462.1939"/>
</g>
<!-- Node11&#45;&gt;Node14 -->
<g id="edge11" class="edge">
<title>Node11&#45;&gt;Node14</title>
<path fill="none" stroke="#191970" d="M111.2279,-446.4886C200.225,-440.056 370.7292,-433.9976 511,-466 519.5352,-467.9473 520.8592,-470.7798 529,-474 541.4558,-478.927 554.9171,-483.8705 567.8153,-488.4259"/>
<polygon fill="#191970" stroke="#191970" points="110.7572,-443.014 101.047,-447.2521 111.2807,-449.9944 110.7572,-443.014"/>
</g>
<!-- Node11&#45;&gt;Node21 -->
<g id="edge21" class="edge">
<title>Node11&#45;&gt;Node21</title>
<path fill="none" stroke="#191970" d="M100.0089,-440.656C106.37,-439.5602 112.8183,-438.6252 119,-438 292.3378,-420.4679 336.8335,-433.5935 511,-438 520.9875,-438.2527 531.4439,-438.625 541.833,-439.0625"/>
<polygon fill="#191970" stroke="#191970" points="99.3286,-437.2224 90.1355,-442.4889 100.6063,-444.1048 99.3286,-437.2224"/>
</g>
<!-- Node13 -->
<g id="node9" class="node">
<title>Node13</title>
<g id="a_node9"><a xlink:href="classgko_1_1EnablePolymorphicObject.html" target="_top" xlink:title="This mixin inherits from (a subclass of) PolymorphicObject and provides a base implementation of a ne...">
<polygon fill="#ffffff" stroke="#000000" points="917,-494 917,-524 1122,-524 1122,-494 917,-494"/>
<text text-anchor="start" x="925" y="-512" font-family="Helvetica,sans-Serif" font-size="10.00" fill="#000000">gko::EnablePolymorphicObject</text>
<text text-anchor="middle" x="1019.5" y="-501" font-family="Helvetica,sans-Serif" font-size="10.00" fill="#000000">&lt; ConcreteObject, PolymorphicBase &gt;</text>
</a>
</g>
</g>
<!-- Node13&#45;&gt;Node3 -->
<g id="edge9" class="edge">
<title>Node13&#45;&gt;Node3</title>
<path fill="none" stroke="#ffa500" stroke-dasharray="5,2" d="M1132.3709,-509.692C1294.4215,-510.6856 1590.0584,-512.4982 1740.9532,-513.4234"/>
<polygon fill="#ffa500" stroke="#ffa500" points="1132.3918,-506.1922 1122.3704,-509.6307 1132.3488,-513.1921 1132.3918,-506.1922"/>
<text text-anchor="start" x="1361.5" y="-526" font-family="Helvetica,sans-Serif" font-size="10.00" fill="#000000"> &lt; BatchCsr&lt; ValueType,</text>
<text text-anchor="middle" x="1430" y="-515" font-family="Helvetica,sans-Serif" font-size="10.00" fill="#000000"> IndexType &gt;, BatchLinOp &gt;</text>
</g>
<!-- Node20 -->
<g id="node16" class="node">
<title>Node20</title>
<g id="a_node16"><a xlink:href="classgko_1_1EnablePolymorphicObject.html" target="_top" xlink:title=" ">
<polygon fill="#ffffff" stroke="#000000" points="1333,-423.5 1333,-464.5 1527,-464.5 1527,-423.5 1333,-423.5"/>
<text text-anchor="start" x="1341" y="-452.5" font-family="Helvetica,sans-Serif" font-size="10.00" fill="#000000">gko::EnablePolymorphicObject</text>
<text text-anchor="start" x="1341" y="-441.5" font-family="Helvetica,sans-Serif" font-size="10.00" fill="#000000">&lt; ConcreteBatchLinOp, Polymorphic</text>
<text text-anchor="middle" x="1430" y="-430.5" font-family="Helvetica,sans-Serif" font-size="10.00" fill="#000000">Base &gt;</text>
</a>
</g>
</g>
<!-- Node13&#45;&gt;Node20 -->
<g id="edge23" class="edge">
<title>Node13&#45;&gt;Node20</title>
<path fill="none" stroke="#ffa500" stroke-dasharray="5,2" d="M1081.5125,-491.3379C1100.1947,-486.4808 1120.8294,-481.5728 1140,-478 1175.8805,-471.313 1263.1532,-461.3911 1332.6491,-453.9893"/>
<polygon fill="#ffa500" stroke="#ffa500" points="1080.423,-488.0056 1071.6487,-493.9438 1082.211,-494.7734 1080.423,-488.0056"/>
<text text-anchor="start" x="1165" y="-492" font-family="Helvetica,sans-Serif" font-size="10.00" fill="#000000"> &lt; ConcreteBatchLinOp,</text>
<text text-anchor="middle" x="1223.5" y="-481" font-family="Helvetica,sans-Serif" font-size="10.00" fill="#000000"> PolymorphicBase &gt;</text>
</g>
<!-- Node14&#45;&gt;Node13 -->
<g id="edge10" class="edge">
<title>Node14&#45;&gt;Node13</title>
<path fill="none" stroke="#191970" d="M740.4069,-509C795.8628,-509 862.5426,-509 916.818,-509"/>
<polygon fill="#191970" stroke="#191970" points="740.1882,-505.5001 730.1882,-509 740.1882,-512.5001 740.1882,-505.5001"/>
</g>
<!-- Node15 -->
<g id="node11" class="node">
<title>Node15</title>
<g id="a_node11"><a xlink:href="classgko_1_1EnablePolymorphicAssignment.html" target="_top" xlink:title=" ">
<polygon fill="#ffffff" stroke="#000000" points="1325,-371 1325,-401 1535,-401 1535,-371 1325,-371"/>
<text text-anchor="start" x="1333" y="-389" font-family="Helvetica,sans-Serif" font-size="10.00" fill="#000000">gko::EnablePolymorphicAssignment</text>
<text text-anchor="middle" x="1430" y="-378" font-family="Helvetica,sans-Serif" font-size="10.00" fill="#000000">&lt; BatchCsr&lt; ValueType, IndexType &gt; &gt;</text>
</a>
</g>
</g>
<!-- Node15&#45;&gt;Node2 -->
<g id="edge13" class="edge">
<title>Node15&#45;&gt;Node2</title>
<path fill="none" stroke="#191970" d="M1545.3923,-384.4111C1673.3827,-382.4299 1885.9901,-378.4892 2069,-372 2080.074,-371.6073 2091.8205,-371.1084 2103.251,-370.5784"/>
<polygon fill="#191970" stroke="#191970" points="1545.1274,-380.9147 1535.1823,-384.5678 1545.2349,-387.9139 1545.1274,-380.9147"/>
</g>
<!-- Node16 -->
<g id="node12" class="node">
<title>Node16</title>
<g id="a_node12"><a xlink:href="classgko_1_1ConvertibleTo.html" target="_top" xlink:title=" ">
<polygon fill="#ffffff" stroke="#000000" points="952,-374.5 952,-415.5 1087,-415.5 1087,-374.5 952,-374.5"/>
<text text-anchor="start" x="960" y="-403.5" font-family="Helvetica,sans-Serif" font-size="10.00" fill="#000000">gko::ConvertibleTo</text>
<text text-anchor="start" x="960" y="-392.5" font-family="Helvetica,sans-Serif" font-size="10.00" fill="#000000">&lt; BatchCsr&lt; ValueType,</text>
<text text-anchor="middle" x="1019.5" y="-381.5" font-family="Helvetica,sans-Serif" font-size="10.00" fill="#000000"> IndexType &gt; &gt;</text>
</a>
</g>
</g>
<!-- Node16&#45;&gt;Node15 -->
<g id="edge14" class="edge">
<title>Node16&#45;&gt;Node15</title>
<path fill="none" stroke="#191970" d="M1097.3732,-393.2927C1161.7518,-391.8812 1253.7799,-389.8635 1324.7234,-388.3081"/>
<polygon fill="#191970" stroke="#191970" points="1097.2066,-389.7954 1087.2857,-393.5138 1097.3601,-396.7937 1097.2066,-389.7954"/>
</g>
<!-- Node17 -->
<g id="node13" class="node">
<title>Node17</title>
<g id="a_node13"><a xlink:href="classgko_1_1ConvertibleTo.html" target="_top" xlink:title="ConvertibleTo interface is used to mark that the implementer can be converted to the object of Result...">
<polygon fill="#ffffff" stroke="#000000" points="576,-277 576,-307 683,-307 683,-277 576,-277"/>
<text text-anchor="start" x="584" y="-295" font-family="Helvetica,sans-Serif" font-size="10.00" fill="#000000">gko::ConvertibleTo</text>
<text text-anchor="middle" x="629.5" y="-284" font-family="Helvetica,sans-Serif" font-size="10.00" fill="#000000">&lt; ResultType &gt;</text>
</a>
</g>
</g>
<!-- Node17&#45;&gt;Node16 -->
<g id="edge15" class="edge">
<title>Node17&#45;&gt;Node16</title>
<path fill="none" stroke="#ffa500" stroke-dasharray="5,2" d="M683.3569,-310.2158C703.5336,-316.7901 726.7219,-324.0503 748,-330 816.9654,-349.2837 896.761,-367.9598 951.9131,-380.3063"/>
<polygon fill="#ffa500" stroke="#ffa500" points="684.3083,-306.8444 673.7155,-307.0523 682.1259,-313.4956 684.3083,-306.8444"/>
<text text-anchor="start" x="762.5" y="-381" font-family="Helvetica,sans-Serif" font-size="10.00" fill="#000000"> &lt; BatchCsr&lt; ValueType,</text>
<text text-anchor="middle" x="823.5" y="-370" font-family="Helvetica,sans-Serif" font-size="10.00" fill="#000000"> IndexType &gt; &gt;</text>
</g>
<!-- Node18 -->
<g id="node14" class="node">
<title>Node18</title>
<g id="a_node14"><a xlink:href="classgko_1_1EnablePolymorphicAssignment.html" target="_top" xlink:title="This mixin is used to enable a default PolymorphicObject::copy_from() implementation for objects that...">
<polygon fill="#ffffff" stroke="#000000" points="923.5,-325 923.5,-355 1115.5,-355 1115.5,-325 923.5,-325"/>
<text text-anchor="start" x="931.5" y="-343" font-family="Helvetica,sans-Serif" font-size="10.00" fill="#000000">gko::EnablePolymorphicAssignment</text>
<text text-anchor="middle" x="1019.5" y="-332" font-family="Helvetica,sans-Serif" font-size="10.00" fill="#000000">&lt; ConcreteType, ResultType &gt;</text>
</a>
</g>
</g>
<!-- Node17&#45;&gt;Node18 -->
<g id="edge17" class="edge">
<title>Node17&#45;&gt;Node18</title>
<path fill="none" stroke="#191970" d="M693.4167,-299.8667C755.797,-307.5442 851.5077,-319.324 923.1263,-328.1386"/>
<polygon fill="#191970" stroke="#191970" points="693.6711,-296.3716 683.3184,-298.6238 692.8159,-303.3192 693.6711,-296.3716"/>
</g>
<!-- Node23 -->
<g id="node19" class="node">
<title>Node23</title>
<g id="a_node19"><a xlink:href="classgko_1_1ConvertibleTo.html" target="_top" xlink:title=" ">
<polygon fill="#ffffff" stroke="#000000" points="950.5,-276 950.5,-306 1088.5,-306 1088.5,-276 950.5,-276"/>
<text text-anchor="start" x="958.5" y="-294" font-family="Helvetica,sans-Serif" font-size="10.00" fill="#000000">gko::ConvertibleTo</text>
<text text-anchor="middle" x="1019.5" y="-283" font-family="Helvetica,sans-Serif" font-size="10.00" fill="#000000">&lt; ConcreteBatchLinOp &gt;</text>
</a>
</g>
</g>
<!-- Node17&#45;&gt;Node23 -->
<g id="edge26" class="edge">
<title>Node17&#45;&gt;Node23</title>
<path fill="none" stroke="#ffa500" stroke-dasharray="5,2" d="M693.4343,-291.8361C764.1728,-291.6547 877.7563,-291.3634 950.4749,-291.177"/>
<polygon fill="#ffa500" stroke="#ffa500" points="693.3093,-288.3363 683.3184,-291.862 693.3273,-295.3363 693.3093,-288.3363"/>
<text text-anchor="middle" x="823.5" y="-294" font-family="Helvetica,sans-Serif" font-size="10.00" fill="#000000"> &lt; ConcreteBatchLinOp &gt;</text>
</g>
<!-- Node26 -->
<g id="node22" class="node">
<title>Node26</title>
<g id="a_node22"><a xlink:href="classgko_1_1ConvertibleTo.html" target="_top" xlink:title=" ">
<polygon fill="#ffffff" stroke="#000000" points="1140,-230.5 1140,-271.5 1307,-271.5 1307,-230.5 1140,-230.5"/>
<text text-anchor="start" x="1148" y="-259.5" font-family="Helvetica,sans-Serif" font-size="10.00" fill="#000000">gko::ConvertibleTo</text>
<text text-anchor="start" x="1148" y="-248.5" font-family="Helvetica,sans-Serif" font-size="10.00" fill="#000000">&lt; BatchCsr&lt; next_precision</text>
<text text-anchor="middle" x="1223.5" y="-237.5" font-family="Helvetica,sans-Serif" font-size="10.00" fill="#000000">&lt; ValueType &gt;, IndexType &gt; &gt;</text>
</a>
</g>
</g>
<!-- Node17&#45;&gt;Node26 -->
<g id="edge31" class="edge">
<title>Node17&#45;&gt;Node26</title>
<path fill="none" stroke="#ffa500" stroke-dasharray="5,2" d="M693.2469,-275.0836C710.8616,-271.0652 730.0656,-267.2851 748,-265 884.406,-247.6203 1044.518,-246.9257 1139.7987,-248.5642"/>
<polygon fill="#ffa500" stroke="#ffa500" points="692.0177,-271.7768 683.0809,-277.4676 693.6159,-278.5919 692.0177,-271.7768"/>
<text text-anchor="start" x="748" y="-279" font-family="Helvetica,sans-Serif" font-size="10.00" fill="#000000"> &lt; BatchCsr&lt; next_precision</text>
<text text-anchor="middle" x="823.5" y="-268" font-family="Helvetica,sans-Serif" font-size="10.00" fill="#000000">&lt; ValueType &gt;, IndexType &gt; &gt;</text>
</g>
<!-- Node27 -->
<g id="node23" class="node">
<title>Node27</title>
<g id="a_node23"><a xlink:href="classgko_1_1ConvertibleTo.html" target="_top" xlink:title=" ">
<polygon fill="#ffffff" stroke="#000000" points="1553,-178 1553,-208 1723,-208 1723,-178 1553,-178"/>
<text text-anchor="start" x="1561" y="-196" font-family="Helvetica,sans-Serif" font-size="10.00" fill="#000000">gko::ConvertibleTo</text>
<text text-anchor="middle" x="1638" y="-185" font-family="Helvetica,sans-Serif" font-size="10.00" fill="#000000">&lt; BatchDense&lt; ValueType &gt; &gt;</text>
</a>
</g>
</g>
<!-- Node17&#45;&gt;Node27 -->
<g id="edge33" class="edge">
<title>Node17&#45;&gt;Node27</title>
<path fill="none" stroke="#ffa500" stroke-dasharray="5,2" d="M672.2054,-273.0593C694.3892,-264.0177 722.1909,-253.906 748,-248 821.5459,-231.1701 841.7607,-237.5942 917,-232 1146.5524,-214.9322 1417.7488,-202.2839 1552.7437,-196.4964"/>
<polygon fill="#ffa500" stroke="#ffa500" points="670.6435,-269.9181 662.7507,-276.9859 673.3283,-276.3828 670.6435,-269.9181"/>
<text text-anchor="middle" x="1019.5" y="-235" font-family="Helvetica,sans-Serif" font-size="10.00" fill="#000000"> &lt; BatchDense&lt; ValueType &gt; &gt;</text>
</g>
<!-- Node18&#45;&gt;Node15 -->
<g id="edge16" class="edge">
<title>Node18&#45;&gt;Node15</title>
<path fill="none" stroke="#ffa500" stroke-dasharray="5,2" d="M1125.63,-345.1655C1180.0224,-348.5606 1247.2239,-353.909 1307,-362 1324.356,-364.3492 1342.9591,-367.5941 1360.3087,-370.9391"/>
<polygon fill="#ffa500" stroke="#ffa500" points="1125.8225,-341.6708 1115.6275,-344.5541 1125.3953,-348.6578 1125.8225,-341.6708"/>
<text text-anchor="start" x="1162.5" y="-376" font-family="Helvetica,sans-Serif" font-size="10.00" fill="#000000"> &lt; BatchCsr&lt; ValueType,</text>
<text text-anchor="middle" x="1223.5" y="-365" font-family="Helvetica,sans-Serif" font-size="10.00" fill="#000000"> IndexType &gt; &gt;</text>
</g>
<!-- Node22 -->
<g id="node18" class="node">
<title>Node22</title>
<g id="a_node18"><a xlink:href="classgko_1_1EnablePolymorphicAssignment.html" target="_top" xlink:title=" ">
<polygon fill="#ffffff" stroke="#000000" points="1334,-312 1334,-342 1526,-342 1526,-312 1334,-312"/>
<text text-anchor="start" x="1342" y="-330" font-family="Helvetica,sans-Serif" font-size="10.00" fill="#000000">gko::EnablePolymorphicAssignment</text>
<text text-anchor="middle" x="1430" y="-319" font-family="Helvetica,sans-Serif" font-size="10.00" fill="#000000">&lt; ConcreteBatchLinOp &gt;</text>
</a>
</g>
</g>
<!-- Node18&#45;&gt;Node22 -->
<g id="edge27" class="edge">
<title>Node18&#45;&gt;Node22</title>
<path fill="none" stroke="#ffa500" stroke-dasharray="5,2" d="M1126.1049,-327.8797C1130.797,-327.5417 1135.4448,-327.245 1140,-327 1204.6028,-323.5253 1277.418,-323.5389 1333.9239,-324.4143"/>
<polygon fill="#ffa500" stroke="#ffa500" points="1125.4799,-324.4176 1115.7809,-328.6813 1126.0218,-331.3966 1125.4799,-324.4176"/>
<text text-anchor="middle" x="1223.5" y="-330" font-family="Helvetica,sans-Serif" font-size="10.00" fill="#000000"> &lt; ConcreteBatchLinOp &gt;</text>
</g>
<!-- Node19 -->
<g id="node15" class="node">
<title>Node19</title>
<g id="a_node15"><a xlink:href="classgko_1_1EnableBatchLinOp.html" target="_top" xlink:title="The EnableBatchLinOp mixin can be used to provide sensible default implementations of the majority of...">
<polygon fill="#ffffff" stroke="#000000" points="1770,-316.5 1770,-357.5 1900,-357.5 1900,-316.5 1770,-316.5"/>
<text text-anchor="start" x="1778" y="-345.5" font-family="Helvetica,sans-Serif" font-size="10.00" fill="#000000">gko::EnableBatchLinOp</text>
<text text-anchor="start" x="1778" y="-334.5" font-family="Helvetica,sans-Serif" font-size="10.00" fill="#000000">&lt; ConcreteBatchLinOp,</text>
<text text-anchor="middle" x="1835" y="-323.5" font-family="Helvetica,sans-Serif" font-size="10.00" fill="#000000"> PolymorphicBase &gt;</text>
</a>
</g>
</g>
<!-- Node19&#45;&gt;Node2 -->
<g id="edge18" class="edge">
<title>Node19&#45;&gt;Node2</title>
<path fill="none" stroke="#ffa500" stroke-dasharray="5,2" d="M1910.395,-339.0897C1956.3378,-340.8839 2016.1765,-344.1486 2069,-350 2080.1522,-351.2354 2091.9386,-352.8808 2103.3849,-354.6624"/>
<polygon fill="#ffa500" stroke="#ffa500" points="1910.3429,-335.5854 1900.2185,-338.7073 1910.08,-342.5804 1910.3429,-335.5854"/>
<text text-anchor="start" x="1947" y="-364" font-family="Helvetica,sans-Serif" font-size="10.00" fill="#000000"> &lt; BatchCsr&lt; ValueType,</text>
<text text-anchor="middle" x="2008" y="-353" font-family="Helvetica,sans-Serif" font-size="10.00" fill="#000000"> IndexType &gt; &gt;</text>
</g>
<!-- Node20&#45;&gt;Node19 -->
<g id="edge19" class="edge">
<title>Node20&#45;&gt;Node19</title>
<path fill="none" stroke="#191970" d="M1517.616,-420.8521C1593.3998,-400.8302 1701.2639,-372.3327 1769.6864,-354.2557"/>
<polygon fill="#191970" stroke="#191970" points="1516.3831,-417.5576 1507.6089,-423.4959 1518.1712,-424.3254 1516.3831,-417.5576"/>
</g>
<!-- Node21&#45;&gt;Node20 -->
<g id="edge20" class="edge">
<title>Node21&#45;&gt;Node20</title>
<path fill="none" stroke="#191970" d="M727.4702,-444C881.6318,-444 1179.0719,-444 1332.7722,-444"/>
<polygon fill="#191970" stroke="#191970" points="727.0741,-440.5001 717.074,-444 727.074,-447.5001 727.0741,-440.5001"/>
</g>
<!-- Node22&#45;&gt;Node19 -->
<g id="edge24" class="edge">
<title>Node22&#45;&gt;Node19</title>
<path fill="none" stroke="#191970" d="M1536.5315,-329.6304C1610.5831,-331.4588 1706.9072,-333.8372 1769.8114,-335.3904"/>
<polygon fill="#191970" stroke="#191970" points="1536.3195,-326.1242 1526.2361,-329.3762 1536.1466,-333.1221 1536.3195,-326.1242"/>
</g>
<!-- Node23&#45;&gt;Node22 -->
<g id="edge25" class="edge">
<title>Node23&#45;&gt;Node22</title>
<path fill="none" stroke="#191970" d="M1098.7754,-297.9523C1165.9373,-303.8423 1262.4437,-312.3057 1333.9752,-318.5788"/>
<polygon fill="#191970" stroke="#191970" points="1098.9391,-294.4533 1088.6715,-297.0662 1098.3275,-301.4265 1098.9391,-294.4533"/>
</g>
<!-- Node24 -->
<g id="node20" class="node">
<title>Node24</title>
<g id="a_node20"><a xlink:href="classgko_1_1EnableCreateMethod.html" target="_top" xlink:title=" ">
<polygon fill="#ffffff" stroke="#000000" points="2100,-213.5 2100,-254.5 2242,-254.5 2242,-213.5 2100,-213.5"/>
<text text-anchor="start" x="2108" y="-242.5" font-family="Helvetica,sans-Serif" font-size="10.00" fill="#000000">gko::EnableCreateMethod</text>
<text text-anchor="start" x="2108" y="-231.5" font-family="Helvetica,sans-Serif" font-size="10.00" fill="#000000">&lt; BatchCsr&lt; ValueType,</text>
<text text-anchor="middle" x="2171" y="-220.5" font-family="Helvetica,sans-Serif" font-size="10.00" fill="#000000"> IndexType &gt; &gt;</text>
</a>
</g>
</g>
<!-- Node24&#45;&gt;Node1 -->
<g id="edge28" class="edge">
<title>Node24&#45;&gt;Node1</title>
<path fill="none" stroke="#191970" d="M2242.8412,-210.1321C2253.3244,-206.4915 2263.9634,-202.7096 2274,-199 2291.6791,-192.4656 2311.1156,-184.7582 2327.3878,-178.1549"/>
<polygon fill="#191970" stroke="#191970" points="2241.5919,-206.8605 2233.2793,-213.4295 2243.874,-213.4781 2241.5919,-206.8605"/>
</g>
<!-- Node25 -->
<g id="node21" class="node">
<title>Node25</title>
<g id="a_node21"><a xlink:href="classgko_1_1EnableCreateMethod.html" target="_top" xlink:title="This mixin implements a static create() method on ConcreteType that dynamically allocates the memory,...">
<polygon fill="#ffffff" stroke="#000000" points="1764,-219 1764,-249 1906,-249 1906,-219 1764,-219"/>
<text text-anchor="start" x="1772" y="-237" font-family="Helvetica,sans-Serif" font-size="10.00" fill="#000000">gko::EnableCreateMethod</text>
<text text-anchor="middle" x="1835" y="-226" font-family="Helvetica,sans-Serif" font-size="10.00" fill="#000000">&lt; ConcreteType &gt;</text>
</a>
</g>
</g>
<!-- Node25&#45;&gt;Node24 -->
<g id="edge29" class="edge">
<title>Node25&#45;&gt;Node24</title>
<path fill="none" stroke="#ffa500" stroke-dasharray="5,2" d="M1916.5033,-234C1972.525,-234 2046.192,-234 2099.8458,-234"/>
<polygon fill="#ffa500" stroke="#ffa500" points="1916.257,-230.5001 1906.257,-234 1916.2569,-237.5001 1916.257,-230.5001"/>
<text text-anchor="start" x="1947" y="-248" font-family="Helvetica,sans-Serif" font-size="10.00" fill="#000000"> &lt; BatchCsr&lt; ValueType,</text>
<text text-anchor="middle" x="2008" y="-237" font-family="Helvetica,sans-Serif" font-size="10.00" fill="#000000"> IndexType &gt; &gt;</text>
</g>
<!-- Node26&#45;&gt;Node1 -->
<g id="edge30" class="edge">
<title>Node26&#45;&gt;Node1</title>
<path fill="none" stroke="#191970" d="M1317.1271,-262.3668C1401.0341,-271.5654 1527.5497,-283 1638,-283 1638,-283 1638,-283 2171,-283 2209.2764,-283 2221.1357,-281.8409 2255,-264 2296.3129,-242.2349 2333.6951,-200.7578 2352.0529,-178.3229"/>
<polygon fill="#191970" stroke="#191970" points="1317.4343,-258.8795 1307.1097,-261.257 1316.6635,-265.837 1317.4343,-258.8795"/>
</g>
<!-- Node27&#45;&gt;Node1 -->
<g id="edge32" class="edge">
<title>Node27&#45;&gt;Node1</title>
<path fill="none" stroke="#191970" d="M1733.4312,-189.0566C1880.7152,-182.9704 2160.1459,-171.4237 2291.8666,-165.9807"/>
<polygon fill="#191970" stroke="#191970" points="1732.9059,-185.5752 1723.059,-189.4852 1733.195,-192.5692 1732.9059,-185.5752"/>
</g>
<!-- Node28 -->
<g id="node24" class="node">
<title>Node28</title>
<g id="a_node24"><a xlink:href="classgko_1_1BatchReadableFromMatrixData.html" target="_top" xlink:title="A BatchLinOp implementing this interface can read its data from a matrix_data structure.">
<polygon fill="#ffffff" stroke="#000000" points="2087,-126 2087,-156 2255,-156 2255,-126 2087,-126"/>
<text text-anchor="start" x="2095" y="-144" font-family="Helvetica,sans-Serif" font-size="10.00" fill="#000000">gko::BatchReadableFromMatrix</text>
<text text-anchor="middle" x="2171" y="-133" font-family="Helvetica,sans-Serif" font-size="10.00" fill="#000000">Data&lt; ValueType, IndexType &gt;</text>
</a>
</g>
</g>
<!-- Node28&#45;&gt;Node1 -->
<g id="edge34" class="edge">
<title>Node28&#45;&gt;Node1</title>
<path fill="none" stroke="#191970" d="M2265.2185,-151.7399C2274.2131,-152.7652 2283.2341,-153.7935 2291.9688,-154.7892"/>
<polygon fill="#191970" stroke="#191970" points="2265.4233,-148.2407 2255.0912,-150.5855 2264.6304,-155.1957 2265.4233,-148.2407"/>
</g>
<!-- Node29 -->
<g id="node25" class="node">
<title>Node29</title>
<g id="a_node25"><a xlink:href="classgko_1_1BatchWritableToMatrixData.html" target="_top" xlink:title="A BatchLinOp implementing this interface can write its data to a std::vector of matrix_data objects.">
<polygon fill="#ffffff" stroke="#000000" points="2087.5,-77 2087.5,-107 2254.5,-107 2254.5,-77 2087.5,-77"/>
<text text-anchor="start" x="2095.5" y="-95" font-family="Helvetica,sans-Serif" font-size="10.00" fill="#000000">gko::BatchWritableToMatrix</text>
<text text-anchor="middle" x="2171" y="-84" font-family="Helvetica,sans-Serif" font-size="10.00" fill="#000000">Data&lt; ValueType, IndexType &gt;</text>
</a>
</g>
</g>
<!-- Node29&#45;&gt;Node1 -->
<g id="edge35" class="edge">
<title>Node29&#45;&gt;Node1</title>
<path fill="none" stroke="#191970" d="M2234.9836,-110.2417C2241.7754,-112.4161 2248.5526,-114.688 2255,-117 2280.9079,-126.2903 2309.558,-138.4582 2330.9812,-147.9458"/>
<polygon fill="#191970" stroke="#191970" points="2235.6483,-106.7823 2225.0593,-107.1324 2233.5554,-113.4621 2235.6483,-106.7823"/>
</g>
<!-- Node30 -->
<g id="node26" class="node">
<title>Node30</title>
<g id="a_node26"><a xlink:href="classgko_1_1BatchTransposable.html" target="_top" xlink:title="Batch Linear operators which support transposition of the distinct batch entries should implement the...">
<polygon fill="#ffffff" stroke="#000000" points="2105,-38.5 2105,-57.5 2237,-57.5 2237,-38.5 2105,-38.5"/>
<text text-anchor="middle" x="2171" y="-45.5" font-family="Helvetica,sans-Serif" font-size="10.00" fill="#000000">gko::BatchTransposable</text>
</a>
</g>
</g>
<!-- Node30&#45;&gt;Node1 -->
<g id="edge36" class="edge">
<title>Node30&#45;&gt;Node1</title>
<path fill="none" stroke="#191970" d="M2237.5113,-60.6213C2243.5675,-62.722 2249.4892,-65.1638 2255,-68 2294.9523,-88.562 2332.3246,-126.8155 2351.192,-147.9671"/>
<polygon fill="#191970" stroke="#191970" points="2238.5134,-57.2674 2227.9236,-57.5931 2236.4051,-63.9424 2238.5134,-57.2674"/>
</g>
<!-- Node31 -->
<g id="node27" class="node">
<title>Node31</title>
<g id="a_node27"><a xlink:href="classgko_1_1EnableBatchScaling.html" target="_top" xlink:title="Default batch scalable interface with some type&#45;checking.">
<polygon fill="#ffffff" stroke="#000000" points="2102.5,-.5 2102.5,-19.5 2239.5,-19.5 2239.5,-.5 2102.5,-.5"/>
<text text-anchor="middle" x="2171" y="-7.5" font-family="Helvetica,sans-Serif" font-size="10.00" fill="#000000">gko::EnableBatchScaling</text>
</a>
</g>
</g>
<!-- Node31&#45;&gt;Node1 -->
<g id="edge37" class="edge">
<title>Node31&#45;&gt;Node1</title>
<path fill="none" stroke="#191970" d="M2244.2436,-23.3404C2247.9828,-25.0102 2251.5952,-26.8881 2255,-29 2303.93,-59.3493 2340.7775,-119.5496 2356.1431,-147.753"/>
<polygon fill="#191970" stroke="#191970" points="2245.321,-20.0033 2234.7337,-19.6036 2242.7609,-26.5184 2245.321,-20.0033"/>
</g>
<!-- Node32 -->
<g id="node28" class="node">
<title>Node32</title>
<g id="a_node28"><a xlink:href="classgko_1_1BatchScalable.html" target="_top" xlink:title="A batch made up of entities that can scaled from the left and right by scaling vectors.">
<polygon fill="#ffffff" stroke="#000000" points="1780,-.5 1780,-19.5 1890,-19.5 1890,-.5 1780,-.5"/>
<text text-anchor="middle" x="1835" y="-7.5" font-family="Helvetica,sans-Serif" font-size="10.00" fill="#000000">gko::BatchScalable</text>
</a>
</g>
</g>
<!-- Node32&#45;&gt;Node31 -->
<g id="edge38" class="edge">
<title>Node32&#45;&gt;Node31</title>
<path fill="none" stroke="#191970" d="M1900.2888,-10C1958.4781,-10 2043.3452,-10 2102.4927,-10"/>
<polygon fill="#191970" stroke="#191970" points="1900.1074,-6.5001 1890.1073,-10 1900.1073,-13.5001 1900.1074,-6.5001"/>
</g>
</g>
</svg>
