<?xml version="1.0" encoding="UTF-8" standalone="no"?>
<!DOCTYPE svg PUBLIC "-//W3C//DTD SVG 1.1//EN"
 "http://www.w3.org/Graphics/SVG/1.1/DTD/svg11.dtd">
<!-- Generated by graphviz version 2.40.1 (20161225.0304)
 -->
<!-- Title: gko::solver::EnableBatchSolver&lt; ConcreteSolver, PolymorphicBase &gt; Pages: 1 -->
<svg width="2202pt" height="337pt"
 viewBox="0.00 0.00 2202.00 337.00" xmlns="http://www.w3.org/2000/svg" xmlns:xlink="http://www.w3.org/1999/xlink">
<g id="graph0" class="graph" transform="scale(1 1) rotate(0) translate(4 333.0005)">
<title>gko::solver::EnableBatchSolver&lt; ConcreteSolver, PolymorphicBase &gt;</title>
<polygon fill="#ffffff" stroke="transparent" points="-4,4 -4,-333.0005 2198,-333.0005 2198,4 -4,4"/>
<!-- Node1 -->
<g id="node1" class="node">
<title>Node1</title>
<g id="a_node1"><a xlink:title=" ">
<polygon fill="#bfbfbf" stroke="#000000" points="2057,-108.0005 2057,-149.0005 2194,-149.0005 2194,-108.0005 2057,-108.0005"/>
<text text-anchor="start" x="2065" y="-137.0005" font-family="Helvetica,sans-Serif" font-size="10.00" fill="#000000">gko::solver::EnableBatch</text>
<text text-anchor="start" x="2065" y="-126.0005" font-family="Helvetica,sans-Serif" font-size="10.00" fill="#000000">Solver&lt; ConcreteSolver,</text>
<text text-anchor="middle" x="2125.5" y="-115.0005" font-family="Helvetica,sans-Serif" font-size="10.00" fill="#000000"> PolymorphicBase &gt;</text>
</a>
</g>
</g>
<!-- Node2 -->
<g id="node2" class="node">
<title>Node2</title>
<g id="a_node2"><a xlink:href="classgko_1_1EnableBatchLinOp.html" target="_top" xlink:title=" ">
<polygon fill="#ffffff" stroke="#000000" points="1851,-142.0005 1851,-183.0005 2020,-183.0005 2020,-142.0005 1851,-142.0005"/>
<text text-anchor="start" x="1859" y="-171.0005" font-family="Helvetica,sans-Serif" font-size="10.00" fill="#000000">gko::EnableBatchLinOp</text>
<text text-anchor="start" x="1859" y="-160.0005" font-family="Helvetica,sans-Serif" font-size="10.00" fill="#000000">&lt; ConcreteSolver, Polymorphic</text>
<text text-anchor="middle" x="1935.5" y="-149.0005" font-family="Helvetica,sans-Serif" font-size="10.00" fill="#000000">Base &gt;</text>
</a>
</g>
</g>
<!-- Node2&#45;&gt;Node1 -->
<g id="edge1" class="edge">
<title>Node2&#45;&gt;Node1</title>
<path fill="none" stroke="#191970" d="M2030.3209,-145.5325C2039.2832,-143.9287 2048.2477,-142.3246 2056.8951,-140.7771"/>
<polygon fill="#191970" stroke="#191970" points="2029.4472,-142.1332 2020.2201,-147.34 2030.6803,-149.0237 2029.4472,-142.1332"/>
</g>
<!-- Node3 -->
<g id="node3" class="node">
<title>Node3</title>
<g id="a_node3"><a xlink:href="classgko_1_1EnablePolymorphicObject.html" target="_top" xlink:title=" ">
<polygon fill="#ffffff" stroke="#000000" points="1288,-74.5005 1288,-104.5005 1492,-104.5005 1492,-74.5005 1288,-74.5005"/>
<text text-anchor="start" x="1296" y="-92.5005" font-family="Helvetica,sans-Serif" font-size="10.00" fill="#000000">gko::EnablePolymorphicObject</text>
<text text-anchor="middle" x="1390" y="-81.5005" font-family="Helvetica,sans-Serif" font-size="10.00" fill="#000000">&lt; ConcreteSolver, PolymorphicBase &gt;</text>
</a>
</g>
</g>
<!-- Node3&#45;&gt;Node2 -->
<g id="edge2" class="edge">
<title>Node3&#45;&gt;Node2</title>
<path fill="none" stroke="#191970" d="M1502.4573,-104.5497C1605.9173,-118.395 1757.0717,-138.6228 1850.7027,-151.1527"/>
<polygon fill="#191970" stroke="#191970" points="1502.6602,-101.0458 1492.2842,-103.1884 1501.7316,-107.9839 1502.6602,-101.0458"/>
</g>
<!-- Node4 -->
<g id="node4" class="node">
<title>Node4</title>
<g id="a_node4"><a xlink:href="classgko_1_1EnableAbstractPolymorphicObject.html" target="_top" xlink:title=" ">
<polygon fill="#ffffff" stroke="#000000" points="529.5,-33.0005 529.5,-74.0005 729.5,-74.0005 729.5,-33.0005 529.5,-33.0005"/>
<text text-anchor="start" x="537.5" y="-62.0005" font-family="Helvetica,sans-Serif" font-size="10.00" fill="#000000">gko::EnableAbstractPolymorphic</text>
<text text-anchor="start" x="537.5" y="-51.0005" font-family="Helvetica,sans-Serif" font-size="10.00" fill="#000000">Object&lt; ConcreteSolver, Polymorphic</text>
<text text-anchor="middle" x="629.5" y="-40.0005" font-family="Helvetica,sans-Serif" font-size="10.00" fill="#000000">Base &gt;</text>
</a>
</g>
</g>
<!-- Node4&#45;&gt;Node3 -->
<g id="edge3" class="edge">
<title>Node4&#45;&gt;Node3</title>
<path fill="none" stroke="#191970" d="M739.8326,-57.5564C867.499,-62.4275 1084.0232,-71.2375 1270,-81.5005 1275.8374,-81.8226 1281.8334,-82.17 1287.8835,-82.5332"/>
<polygon fill="#191970" stroke="#191970" points="739.7842,-54.0521 729.6583,-57.1693 739.518,-61.047 739.7842,-54.0521"/>
</g>
<!-- Node5 -->
<g id="node5" class="node">
<title>Node5</title>
<g id="a_node5"><a xlink:title=" ">
<polygon fill="#ffffff" stroke="#bfbfbf" points="0,-73.0005 0,-92.0005 101,-92.0005 101,-73.0005 0,-73.0005"/>
<text text-anchor="middle" x="50.5" y="-80.0005" font-family="Helvetica,sans-Serif" font-size="10.00" fill="#000000">PolymorphicBase</text>
</a>
</g>
</g>
<!-- Node5&#45;&gt;Node4 -->
<g id="edge4" class="edge">
<title>Node5&#45;&gt;Node4</title>
<path fill="none" stroke="#191970" d="M66.1323,-65.4202C78.9337,-52.7836 98.2617,-36.5866 119,-29.5005 283.8636,26.8323 337.6467,-12.1221 511,-29.5005 519.5632,-30.3589 528.4231,-31.558 537.2649,-32.9666"/>
<polygon fill="#191970" stroke="#191970" points="63.5049,-63.1018 59.0508,-72.7149 68.5276,-67.9776 63.5049,-63.1018"/>
</g>
<!-- Node6 -->
<g id="node6" class="node">
<title>Node6</title>
<g id="a_node6"><a xlink:href="classgko_1_1EnableAbstractPolymorphicObject.html" target="_top" xlink:title="This mixin inherits from (a subclass of) PolymorphicObject and provides a base implementation of a ne...">
<polygon fill="#ffffff" stroke="#000000" points="138,-91.0005 138,-132.0005 336,-132.0005 336,-91.0005 138,-91.0005"/>
<text text-anchor="start" x="146" y="-120.0005" font-family="Helvetica,sans-Serif" font-size="10.00" fill="#000000">gko::EnableAbstractPolymorphic</text>
<text text-anchor="start" x="146" y="-109.0005" font-family="Helvetica,sans-Serif" font-size="10.00" fill="#000000">Object&lt; AbstractObject, Polymorphic</text>
<text text-anchor="middle" x="237" y="-98.0005" font-family="Helvetica,sans-Serif" font-size="10.00" fill="#000000">Base &gt;</text>
</a>
</g>
</g>
<!-- Node5&#45;&gt;Node6 -->
<g id="edge6" class="edge">
<title>Node5&#45;&gt;Node6</title>
<path fill="none" stroke="#191970" d="M111.5248,-91.9896C119.9555,-93.3005 128.7869,-94.6738 137.6923,-96.0585"/>
<polygon fill="#191970" stroke="#191970" points="111.881,-88.503 101.4619,-90.4248 110.8054,-95.4199 111.881,-88.503"/>
</g>
<!-- Node8 -->
<g id="node8" class="node">
<title>Node8</title>
<g id="a_node8"><a xlink:href="classgko_1_1EnableAbstractPolymorphicObject.html" target="_top" xlink:title=" ">
<polygon fill="#ffffff" stroke="#000000" points="529,-93.0005 529,-134.0005 730,-134.0005 730,-93.0005 529,-93.0005"/>
<text text-anchor="start" x="537" y="-122.0005" font-family="Helvetica,sans-Serif" font-size="10.00" fill="#000000">gko::EnableAbstractPolymorphic</text>
<text text-anchor="start" x="537" y="-111.0005" font-family="Helvetica,sans-Serif" font-size="10.00" fill="#000000">Object&lt; ConcreteObject, Polymorphic</text>
<text text-anchor="middle" x="629.5" y="-100.0005" font-family="Helvetica,sans-Serif" font-size="10.00" fill="#000000">Base &gt;</text>
</a>
</g>
</g>
<!-- Node5&#45;&gt;Node8 -->
<g id="edge9" class="edge">
<title>Node5&#45;&gt;Node8</title>
<path fill="none" stroke="#191970" d="M111.3958,-72.7566C219.9505,-56.5244 441.9894,-28.7978 511,-61.5005 522.4165,-66.9105 518.4853,-76.4972 529,-83.5005 534.3042,-87.0333 540.0366,-90.161 545.9809,-92.9281"/>
<polygon fill="#191970" stroke="#191970" points="110.6185,-69.3342 101.2537,-74.2891 111.6644,-76.2556 110.6185,-69.3342"/>
</g>
<!-- Node15 -->
<g id="node15" class="node">
<title>Node15</title>
<g id="a_node15"><a xlink:href="classgko_1_1EnableAbstractPolymorphicObject.html" target="_top" xlink:title=" ">
<polygon fill="#ffffff" stroke="#000000" points="542,-153.0005 542,-194.0005 717,-194.0005 717,-153.0005 542,-153.0005"/>
<text text-anchor="start" x="550" y="-182.0005" font-family="Helvetica,sans-Serif" font-size="10.00" fill="#000000">gko::EnableAbstractPolymorphic</text>
<text text-anchor="start" x="550" y="-171.0005" font-family="Helvetica,sans-Serif" font-size="10.00" fill="#000000">Object&lt; ConcreteBatchLinOp,</text>
<text text-anchor="middle" x="629.5" y="-160.0005" font-family="Helvetica,sans-Serif" font-size="10.00" fill="#000000"> PolymorphicBase &gt;</text>
</a>
</g>
</g>
<!-- Node5&#45;&gt;Node15 -->
<g id="edge19" class="edge">
<title>Node5&#45;&gt;Node15</title>
<path fill="none" stroke="#191970" d="M69.5389,-98.5238C86.4698,-111.9611 112.4373,-130.6462 138,-141.5005 291.7476,-206.7838 344.255,-197.3163 511,-187.5005 521.0299,-186.91 531.5127,-186.0408 541.9167,-185.0197"/>
<polygon fill="#191970" stroke="#191970" points="71.5283,-95.6307 61.5588,-92.0446 67.116,-101.065 71.5283,-95.6307"/>
</g>
<!-- Node6&#45;&gt;Node4 -->
<g id="edge5" class="edge">
<title>Node6&#45;&gt;Node4</title>
<path fill="none" stroke="#ffa500" stroke-dasharray="5,2" d="M339.3382,-89.0706C344.2877,-88.1628 349.1946,-87.3 354,-86.5005 411.8539,-76.8752 476.9919,-68.9412 529.4001,-63.2669"/>
<polygon fill="#ffa500" stroke="#ffa500" points="338.3173,-85.7013 329.1378,-90.9915 339.6128,-92.5804 338.3173,-85.7013"/>
<text text-anchor="start" x="354.5" y="-100.5005" font-family="Helvetica,sans-Serif" font-size="10.00" fill="#000000"> &lt; ConcreteSolver, Polymorphic</text>
<text text-anchor="middle" x="432.5" y="-89.5005" font-family="Helvetica,sans-Serif" font-size="10.00" fill="#000000">Base &gt;</text>
</g>
<!-- Node6&#45;&gt;Node8 -->
<g id="edge10" class="edge">
<title>Node6&#45;&gt;Node8</title>
<path fill="none" stroke="#ffa500" stroke-dasharray="5,2" d="M346.2032,-112.0569C403.3756,-112.3482 472.9091,-112.7026 528.78,-112.9872"/>
<polygon fill="#ffa500" stroke="#ffa500" points="346.0621,-108.5563 336.0443,-112.0052 346.0263,-115.5562 346.0621,-108.5563"/>
<text text-anchor="start" x="354" y="-127.5005" font-family="Helvetica,sans-Serif" font-size="10.00" fill="#000000"> &lt; ConcreteObject, Polymorphic</text>
<text text-anchor="middle" x="432.5" y="-116.5005" font-family="Helvetica,sans-Serif" font-size="10.00" fill="#000000">Base &gt;</text>
</g>
<!-- Node6&#45;&gt;Node15 -->
<g id="edge20" class="edge">
<title>Node6&#45;&gt;Node15</title>
<path fill="none" stroke="#ffa500" stroke-dasharray="5,2" d="M327.6313,-134.2459C336.5136,-136.1569 345.4135,-137.9482 354,-139.5005 416.4812,-150.7956 487.6204,-159.47 541.9571,-165.2296"/>
<polygon fill="#ffa500" stroke="#ffa500" points="328.1465,-130.7756 317.6279,-132.0439 326.6416,-137.612 328.1465,-130.7756"/>
<text text-anchor="start" x="374" y="-175.5005" font-family="Helvetica,sans-Serif" font-size="10.00" fill="#000000"> &lt; ConcreteBatchLinOp,</text>
<text text-anchor="middle" x="432.5" y="-164.5005" font-family="Helvetica,sans-Serif" font-size="10.00" fill="#000000"> PolymorphicBase &gt;</text>
</g>
<!-- Node7 -->
<g id="node7" class="node">
<title>Node7</title>
<g id="a_node7"><a xlink:href="classgko_1_1EnablePolymorphicObject.html" target="_top" xlink:title="This mixin inherits from (a subclass of) PolymorphicObject and provides a base implementation of a ne...">
<polygon fill="#ffffff" stroke="#000000" points="891,-98.5005 891,-128.5005 1096,-128.5005 1096,-98.5005 891,-98.5005"/>
<text text-anchor="start" x="899" y="-116.5005" font-family="Helvetica,sans-Serif" font-size="10.00" fill="#000000">gko::EnablePolymorphicObject</text>
<text text-anchor="middle" x="993.5" y="-105.5005" font-family="Helvetica,sans-Serif" font-size="10.00" fill="#000000">&lt; ConcreteObject, PolymorphicBase &gt;</text>
</a>
</g>
</g>
<!-- Node7&#45;&gt;Node3 -->
<g id="edge7" class="edge">
<title>Node7&#45;&gt;Node3</title>
<path fill="none" stroke="#ffa500" stroke-dasharray="5,2" d="M1070.3131,-96.6448C1084.7595,-94.0999 1099.7897,-91.8705 1114,-90.5005 1171.3542,-84.9709 1235.7243,-84.4155 1287.8644,-85.3813"/>
<polygon fill="#ffa500" stroke="#ffa500" points="1069.6311,-93.2114 1060.4222,-98.4504 1070.8882,-100.0976 1069.6311,-93.2114"/>
<text text-anchor="start" x="1114" y="-104.5005" font-family="Helvetica,sans-Serif" font-size="10.00" fill="#000000"> &lt; ConcreteSolver, Polymorphic</text>
<text text-anchor="middle" x="1192" y="-93.5005" font-family="Helvetica,sans-Serif" font-size="10.00" fill="#000000">Base &gt;</text>
</g>
<!-- Node14 -->
<g id="node14" class="node">
<title>Node14</title>
<g id="a_node14"><a xlink:href="classgko_1_1EnablePolymorphicObject.html" target="_top" xlink:title=" ">
<polygon fill="#ffffff" stroke="#000000" points="1293,-145.0005 1293,-186.0005 1487,-186.0005 1487,-145.0005 1293,-145.0005"/>
<text text-anchor="start" x="1301" y="-174.0005" font-family="Helvetica,sans-Serif" font-size="10.00" fill="#000000">gko::EnablePolymorphicObject</text>
<text text-anchor="start" x="1301" y="-163.0005" font-family="Helvetica,sans-Serif" font-size="10.00" fill="#000000">&lt; ConcreteBatchLinOp, Polymorphic</text>
<text text-anchor="middle" x="1390" y="-152.0005" font-family="Helvetica,sans-Serif" font-size="10.00" fill="#000000">Base &gt;</text>
</a>
</g>
</g>
<!-- Node7&#45;&gt;Node14 -->
<g id="edge21" class="edge">
<title>Node7&#45;&gt;Node14</title>
<path fill="none" stroke="#ffa500" stroke-dasharray="5,2" d="M1106.3429,-118.2426C1156.6654,-121.4445 1216.5366,-126.7525 1270,-135.5005 1284.9408,-137.9452 1300.7533,-141.3186 1315.8243,-144.9238"/>
<polygon fill="#ffa500" stroke="#ffa500" points="1106.2798,-114.7321 1096.0834,-117.6103 1105.8491,-121.7189 1106.2798,-114.7321"/>
<text text-anchor="start" x="1133.5" y="-149.5005" font-family="Helvetica,sans-Serif" font-size="10.00" fill="#000000"> &lt; ConcreteBatchLinOp,</text>
<text text-anchor="middle" x="1192" y="-138.5005" font-family="Helvetica,sans-Serif" font-size="10.00" fill="#000000"> PolymorphicBase &gt;</text>
</g>
<!-- Node8&#45;&gt;Node7 -->
<g id="edge8" class="edge">
<title>Node8&#45;&gt;Node7</title>
<path fill="none" stroke="#191970" d="M740.4955,-113.5005C788.3344,-113.5005 843.9354,-113.5005 890.8106,-113.5005"/>
<polygon fill="#191970" stroke="#191970" points="740.4109,-110.0006 730.4109,-113.5005 740.4109,-117.0006 740.4109,-110.0006"/>
</g>
<!-- Node9 -->
<g id="node9" class="node">
<title>Node9</title>
<g id="a_node9"><a xlink:href="classgko_1_1EnablePolymorphicAssignment.html" target="_top" xlink:title=" ">
<polygon fill="#ffffff" stroke="#000000" points="1294,-267.5005 1294,-297.5005 1486,-297.5005 1486,-267.5005 1294,-267.5005"/>
<text text-anchor="start" x="1302" y="-285.5005" font-family="Helvetica,sans-Serif" font-size="10.00" fill="#000000">gko::EnablePolymorphicAssignment</text>
<text text-anchor="middle" x="1390" y="-274.5005" font-family="Helvetica,sans-Serif" font-size="10.00" fill="#000000">&lt; ConcreteSolver &gt;</text>
</a>
</g>
</g>
<!-- Node9&#45;&gt;Node2 -->
<g id="edge11" class="edge">
<title>Node9&#45;&gt;Node2</title>
<path fill="none" stroke="#191970" d="M1493.1607,-265.7806C1583.4394,-250.3093 1717.7926,-225.2488 1833,-195.5005 1846.9377,-191.9015 1861.7642,-187.4821 1875.6837,-183.0613"/>
<polygon fill="#191970" stroke="#191970" points="1492.4661,-262.3484 1483.1969,-267.4799 1493.643,-269.2488 1492.4661,-262.3484"/>
</g>
<!-- Node10 -->
<g id="node10" class="node">
<title>Node10</title>
<g id="a_node10"><a xlink:href="classgko_1_1ConvertibleTo.html" target="_top" xlink:title=" ">
<polygon fill="#ffffff" stroke="#000000" points="937,-298.5005 937,-328.5005 1050,-328.5005 1050,-298.5005 937,-298.5005"/>
<text text-anchor="start" x="945" y="-316.5005" font-family="Helvetica,sans-Serif" font-size="10.00" fill="#000000">gko::ConvertibleTo</text>
<text text-anchor="middle" x="993.5" y="-305.5005" font-family="Helvetica,sans-Serif" font-size="10.00" fill="#000000">&lt; ConcreteSolver &gt;</text>
</a>
</g>
</g>
<!-- Node10&#45;&gt;Node9 -->
<g id="edge12" class="edge">
<title>Node10&#45;&gt;Node9</title>
<path fill="none" stroke="#191970" d="M1060.2846,-308.279C1124.2774,-303.2758 1221.5422,-295.6712 1293.8662,-290.0166"/>
<polygon fill="#191970" stroke="#191970" points="1060.0055,-304.79 1050.3088,-309.0589 1060.5512,-311.7687 1060.0055,-304.79"/>
</g>
<!-- Node11 -->
<g id="node11" class="node">
<title>Node11</title>
<g id="a_node11"><a xlink:href="classgko_1_1ConvertibleTo.html" target="_top" xlink:title="ConvertibleTo interface is used to mark that the implementer can be converted to the object of Result...">
<polygon fill="#ffffff" stroke="#000000" points="576,-249.5005 576,-279.5005 683,-279.5005 683,-249.5005 576,-249.5005"/>
<text text-anchor="start" x="584" y="-267.5005" font-family="Helvetica,sans-Serif" font-size="10.00" fill="#000000">gko::ConvertibleTo</text>
<text text-anchor="middle" x="629.5" y="-256.5005" font-family="Helvetica,sans-Serif" font-size="10.00" fill="#000000">&lt; ResultType &gt;</text>
</a>
</g>
</g>
<!-- Node11&#45;&gt;Node10 -->
<g id="edge13" class="edge">
<title>Node11&#45;&gt;Node10</title>
<path fill="none" stroke="#ffa500" stroke-dasharray="5,2" d="M693.496,-273.1153C762.3989,-282.3907 870.9678,-297.0057 936.8716,-305.8774"/>
<polygon fill="#ffa500" stroke="#ffa500" points="693.587,-269.5961 683.2095,-271.7306 692.6531,-276.5335 693.587,-269.5961"/>
<text text-anchor="middle" x="810.5" y="-298.5005" font-family="Helvetica,sans-Serif" font-size="10.00" fill="#000000"> &lt; ConcreteSolver &gt;</text>
</g>
<!-- Node12 -->
<g id="node12" class="node">
<title>Node12</title>
<g id="a_node12"><a xlink:href="classgko_1_1EnablePolymorphicAssignment.html" target="_top" xlink:title="This mixin is used to enable a default PolymorphicObject::copy_from() implementation for objects that...">
<polygon fill="#ffffff" stroke="#000000" points="897.5,-249.5005 897.5,-279.5005 1089.5,-279.5005 1089.5,-249.5005 897.5,-249.5005"/>
<text text-anchor="start" x="905.5" y="-267.5005" font-family="Helvetica,sans-Serif" font-size="10.00" fill="#000000">gko::EnablePolymorphicAssignment</text>
<text text-anchor="middle" x="993.5" y="-256.5005" font-family="Helvetica,sans-Serif" font-size="10.00" fill="#000000">&lt; ConcreteType, ResultType &gt;</text>
</a>
</g>
</g>
<!-- Node11&#45;&gt;Node12 -->
<g id="edge15" class="edge">
<title>Node11&#45;&gt;Node12</title>
<path fill="none" stroke="#191970" d="M693.4312,-264.5005C749.8928,-264.5005 833.0261,-264.5005 897.4802,-264.5005"/>
<polygon fill="#191970" stroke="#191970" points="693.2095,-261.0006 683.2095,-264.5005 693.2094,-268.0006 693.2095,-261.0006"/>
</g>
<!-- Node17 -->
<g id="node17" class="node">
<title>Node17</title>
<g id="a_node17"><a xlink:href="classgko_1_1ConvertibleTo.html" target="_top" xlink:title=" ">
<polygon fill="#ffffff" stroke="#000000" points="924.5,-200.5005 924.5,-230.5005 1062.5,-230.5005 1062.5,-200.5005 924.5,-200.5005"/>
<text text-anchor="start" x="932.5" y="-218.5005" font-family="Helvetica,sans-Serif" font-size="10.00" fill="#000000">gko::ConvertibleTo</text>
<text text-anchor="middle" x="993.5" y="-207.5005" font-family="Helvetica,sans-Serif" font-size="10.00" fill="#000000">&lt; ConcreteBatchLinOp &gt;</text>
</a>
</g>
</g>
<!-- Node11&#45;&gt;Node17 -->
<g id="edge24" class="edge">
<title>Node11&#45;&gt;Node17</title>
<path fill="none" stroke="#ffa500" stroke-dasharray="5,2" d="M693.2781,-255.915C757.9571,-247.2082 857.75,-233.7745 924.3084,-224.8147"/>
<polygon fill="#ffa500" stroke="#ffa500" points="692.6531,-252.4674 683.2095,-257.2704 693.587,-259.4049 692.6531,-252.4674"/>
<text text-anchor="middle" x="810.5" y="-249.5005" font-family="Helvetica,sans-Serif" font-size="10.00" fill="#000000"> &lt; ConcreteBatchLinOp &gt;</text>
</g>
<!-- Node12&#45;&gt;Node9 -->
<g id="edge14" class="edge">
<title>Node12&#45;&gt;Node9</title>
<path fill="none" stroke="#ffa500" stroke-dasharray="5,2" d="M1100.0648,-269.3382C1160.4637,-272.0802 1235.4231,-275.4831 1293.9915,-278.142"/>
<polygon fill="#ffa500" stroke="#ffa500" points="1099.8831,-265.8265 1089.7346,-268.8693 1099.5655,-272.8193 1099.8831,-265.8265"/>
<text text-anchor="middle" x="1192" y="-279.5005" font-family="Helvetica,sans-Serif" font-size="10.00" fill="#000000"> &lt; ConcreteSolver &gt;</text>
</g>
<!-- Node16 -->
<g id="node16" class="node">
<title>Node16</title>
<g id="a_node16"><a xlink:href="classgko_1_1EnablePolymorphicAssignment.html" target="_top" xlink:title=" ">
<polygon fill="#ffffff" stroke="#000000" points="1294,-205.5005 1294,-235.5005 1486,-235.5005 1486,-205.5005 1294,-205.5005"/>
<text text-anchor="start" x="1302" y="-223.5005" font-family="Helvetica,sans-Serif" font-size="10.00" fill="#000000">gko::EnablePolymorphicAssignment</text>
<text text-anchor="middle" x="1390" y="-212.5005" font-family="Helvetica,sans-Serif" font-size="10.00" fill="#000000">&lt; ConcreteBatchLinOp &gt;</text>
</a>
</g>
</g>
<!-- Node12&#45;&gt;Node16 -->
<g id="edge25" class="edge">
<title>Node12&#45;&gt;Node16</title>
<path fill="none" stroke="#ffa500" stroke-dasharray="5,2" d="M1099.6907,-252.7164C1160.1538,-246.0067 1235.3021,-237.6675 1293.9915,-231.1546"/>
<polygon fill="#ffa500" stroke="#ffa500" points="1099.2875,-249.2395 1089.7346,-253.8212 1100.0596,-256.1968 1099.2875,-249.2395"/>
<text text-anchor="middle" x="1192" y="-252.5005" font-family="Helvetica,sans-Serif" font-size="10.00" fill="#000000"> &lt; ConcreteBatchLinOp &gt;</text>
</g>
<!-- Node13 -->
<g id="node13" class="node">
<title>Node13</title>
<g id="a_node13"><a xlink:href="classgko_1_1EnableBatchLinOp.html" target="_top" xlink:title="The EnableBatchLinOp mixin can be used to provide sensible default implementations of the majority of...">
<polygon fill="#ffffff" stroke="#000000" points="1529,-152.0005 1529,-193.0005 1659,-193.0005 1659,-152.0005 1529,-152.0005"/>
<text text-anchor="start" x="1537" y="-181.0005" font-family="Helvetica,sans-Serif" font-size="10.00" fill="#000000">gko::EnableBatchLinOp</text>
<text text-anchor="start" x="1537" y="-170.0005" font-family="Helvetica,sans-Serif" font-size="10.00" fill="#000000">&lt; ConcreteBatchLinOp,</text>
<text text-anchor="middle" x="1594" y="-159.0005" font-family="Helvetica,sans-Serif" font-size="10.00" fill="#000000"> PolymorphicBase &gt;</text>
</a>
</g>
</g>
<!-- Node13&#45;&gt;Node2 -->
<g id="edge16" class="edge">
<title>Node13&#45;&gt;Node2</title>
<path fill="none" stroke="#ffa500" stroke-dasharray="5,2" d="M1669.1833,-170.2989C1722.9075,-168.7257 1795.2495,-166.6074 1850.9772,-164.9755"/>
<polygon fill="#ffa500" stroke="#ffa500" points="1668.9306,-166.8047 1659.0374,-170.596 1669.1356,-173.8017 1668.9306,-166.8047"/>
<text text-anchor="start" x="1677" y="-183.5005" font-family="Helvetica,sans-Serif" font-size="10.00" fill="#000000"> &lt; ConcreteSolver, Polymorphic</text>
<text text-anchor="middle" x="1755" y="-172.5005" font-family="Helvetica,sans-Serif" font-size="10.00" fill="#000000">Base &gt;</text>
</g>
<!-- Node14&#45;&gt;Node13 -->
<g id="edge17" class="edge">
<title>Node14&#45;&gt;Node13</title>
<path fill="none" stroke="#191970" d="M1497.5159,-169.1897C1508.2444,-169.5579 1518.8913,-169.9232 1528.98,-170.2694"/>
<polygon fill="#191970" stroke="#191970" points="1497.3345,-165.6816 1487.2203,-168.8365 1497.0944,-172.6774 1497.3345,-165.6816"/>
</g>
<!-- Node15&#45;&gt;Node14 -->
<g id="edge18" class="edge">
<title>Node15&#45;&gt;Node14</title>
<path fill="none" stroke="#191970" d="M727.4092,-172.4705C873.5584,-170.9331 1147.139,-168.0552 1292.8472,-166.5225"/>
<polygon fill="#191970" stroke="#191970" points="727.0728,-168.9738 717.1102,-172.5789 727.1465,-175.9734 727.0728,-168.9738"/>
</g>
<!-- Node16&#45;&gt;Node13 -->
<g id="edge22" class="edge">
<title>Node16&#45;&gt;Node13</title>
<path fill="none" stroke="#191970" d="M1463.9291,-203.1054C1485.1676,-198.1081 1508.1669,-192.6965 1528.8352,-187.8334"/>
<polygon fill="#191970" stroke="#191970" points="1462.9197,-199.7472 1453.9872,-205.4447 1464.523,-206.5612 1462.9197,-199.7472"/>
</g>
<!-- Node17&#45;&gt;Node16 -->
<g id="edge23" class="edge">
<title>Node17&#45;&gt;Node16</title>
<path fill="none" stroke="#191970" d="M1072.949,-216.5024C1136.6159,-217.3052 1226.1811,-218.4347 1293.884,-219.2884"/>
<polygon fill="#191970" stroke="#191970" points="1072.6084,-212.9979 1062.565,-216.3714 1072.5201,-219.9973 1072.6084,-212.9979"/>
</g>
<!-- Node18 -->
<g id="node18" class="node">
<title>Node18</title>
<g id="a_node18"><a xlink:href="classgko_1_1EnableBatchScaling.html" target="_top" xlink:title="Default batch scalable interface with some type&#45;checking.">
<polygon fill="#ffffff" stroke="#000000" points="1867,-95.0005 1867,-114.0005 2004,-114.0005 2004,-95.0005 1867,-95.0005"/>
<text text-anchor="middle" x="1935.5" y="-102.0005" font-family="Helvetica,sans-Serif" font-size="10.00" fill="#000000">gko::EnableBatchScaling</text>
</a>
</g>
</g>
<!-- Node18&#45;&gt;Node1 -->
<g id="edge26" class="edge">
<title>Node18&#45;&gt;Node1</title>
<path fill="none" stroke="#191970" d="M2014.2455,-114.4473C2028.331,-116.2265 2042.9079,-118.0678 2056.6874,-119.8084"/>
<polygon fill="#191970" stroke="#191970" points="2014.4542,-110.9459 2004.0944,-113.165 2013.5769,-117.8907 2014.4542,-110.9459"/>
</g>
<!-- Node19 -->
<g id="node19" class="node">
<title>Node19</title>
<g id="a_node19"><a xlink:href="classgko_1_1BatchScalable.html" target="_top" xlink:title="A batch made up of entities that can scaled from the left and right by scaling vectors.">
<polygon fill="#ffffff" stroke="#000000" points="1539,-76.0005 1539,-95.0005 1649,-95.0005 1649,-76.0005 1539,-76.0005"/>
<text text-anchor="middle" x="1594" y="-83.0005" font-family="Helvetica,sans-Serif" font-size="10.00" fill="#000000">gko::BatchScalable</text>
</a>
</g>
</g>
<!-- Node19&#45;&gt;Node18 -->
<g id="edge27" class="edge">
<title>Node19&#45;&gt;Node18</title>
<path fill="none" stroke="#191970" d="M1659.2752,-89.1322C1718.7387,-92.4405 1806.2574,-97.3098 1866.7759,-100.6769"/>
<polygon fill="#191970" stroke="#191970" points="1659.4264,-85.6353 1649.2474,-88.5743 1659.0375,-92.6245 1659.4264,-85.6353"/>
</g>
</g>
</svg>
