<?xml version="1.0" encoding="UTF-8" standalone="no"?>
<!DOCTYPE svg PUBLIC "-//W3C//DTD SVG 1.1//EN"
 "http://www.w3.org/Graphics/SVG/1.1/DTD/svg11.dtd">
<!-- Generated by graphviz version 2.40.1 (20161225.0304)
 -->
<!-- Title: gko::matrix::BatchDense&lt; ValueType &gt; Pages: 1 -->
<!--zoomable 586 -->
<svg id="main" version="1.1" xmlns="http://www.w3.org/2000/svg" xmlns:xlink="http://www.w3.org/1999/xlink" xml:space="preserve" onload="init(evt)">
<style type="text/css"><![CDATA[
.edge:hover path { stroke: red; }
.edge:hover polygon { stroke: red; fill: red; }
]]></style>
<script type="text/javascript"><![CDATA[
var edges = document.getElementsByTagName('g');
if (edges && edges.length) {
  for (var i=0;i<edges.length;i++) {
    if (edges[i].id.substr(0,4)=='edge') {
      edges[i].setAttribute('class','edge');
    }
  }
}
]]></script>
        <defs>
                <circle id="rim" cx="0" cy="0" r="7"/>
                <circle id="rim2" cx="0" cy="0" r="3.5"/>
                <g id="zoomPlus">
                        <use xlink:href="#rim" fill="#404040">
                                <set attributeName="fill" to="#808080" begin="zoomplus.mouseover" end="zoomplus.mouseout"/>
                        </use>
                        <path d="M-4,0h8M0,-4v8" fill="none" stroke="white" stroke-width="1.5" pointer-events="none"/>
                </g>
                <g id="zoomMin">
                        <use xlink:href="#rim" fill="#404040">
                                <set attributeName="fill" to="#808080" begin="zoomminus.mouseover" end="zoomminus.mouseout"/>
                        </use>
                        <path d="M-4,0h8" fill="none" stroke="white" stroke-width="1.5" pointer-events="none"/>
                </g>
                <g id="dirArrow">
                        <path fill="none" stroke="white" stroke-width="1.5" d="M0,-3.0v7 M-2.5,-0.5L0,-3.0L2.5,-0.5"/>
                </g>
               <g id="resetDef">
                       <use xlink:href="#rim2" fill="#404040">
                               <set attributeName="fill" to="#808080" begin="reset.mouseover" end="reset.mouseout"/>
                       </use>
               </g>
        </defs>

<script type="text/javascript">
var viewWidth = 2436;
var viewHeight = 586;
var sectionId = 'dynsection-0';
</script>
<script xlink:href="svgpan.js"/>
<svg id="graph" class="graph">
<g id="viewport">
<title>gko::matrix::BatchDense&lt; ValueType &gt;</title>
<polygon fill="#ffffff" stroke="transparent" points="-4,4 -4,-581.5 2432,-581.5 2432,4 -4,4"/>
<!-- Node1 -->
<g id="node1" class="node">
<title>Node1</title>
<g id="a_node1"><a xlink:title="BatchDense is a batch matrix format which explicitly stores all values of the matrix in each of the b...">
<polygon fill="#bfbfbf" stroke="#000000" points="2291,-235.5 2291,-265.5 2428,-265.5 2428,-235.5 2291,-235.5"/>
<text text-anchor="start" x="2299" y="-253.5" font-family="Helvetica,sans-Serif" font-size="10.00" fill="#000000">gko::matrix::BatchDense</text>
<text text-anchor="middle" x="2359.5" y="-242.5" font-family="Helvetica,sans-Serif" font-size="10.00" fill="#000000">&lt; ValueType &gt;</text>
</a>
</g>
</g>
<!-- Node2 -->
<g id="node2" class="node">
<title>Node2</title>
<g id="a_node2"><a xlink:href="classgko_1_1EnableBatchLinOp.html" target="_top" xlink:title=" ">
<polygon fill="#ffffff" stroke="#000000" points="2084,-333.5 2084,-363.5 2254,-363.5 2254,-333.5 2084,-333.5"/>
<text text-anchor="start" x="2092" y="-351.5" font-family="Helvetica,sans-Serif" font-size="10.00" fill="#000000">gko::EnableBatchLinOp</text>
<text text-anchor="middle" x="2169" y="-340.5" font-family="Helvetica,sans-Serif" font-size="10.00" fill="#000000">&lt; BatchDense&lt; ValueType &gt; &gt;</text>
</a>
</g>
</g>
<!-- Node2&#45;&gt;Node1 -->
<g id="edge1" class="edge">
<title>Node2&#45;&gt;Node1</title>
<path fill="none" stroke="#191970" d="M2241.2852,-329.9377C2245.6455,-328.251 2249.9162,-326.4398 2254,-324.5 2287.5464,-308.566 2321.947,-282.1816 2341.9887,-265.5994"/>
<polygon fill="#191970" stroke="#191970" points="2239.8451,-326.7368 2231.6344,-333.4327 2242.2286,-333.3185 2239.8451,-326.7368"/>
</g>
<!-- Node3 -->
<g id="node3" class="node">
<title>Node3</title>
<g id="a_node3"><a xlink:href="classgko_1_1EnablePolymorphicObject.html" target="_top" xlink:title=" ">
<polygon fill="#ffffff" stroke="#000000" points="1699,-279 1699,-320 1865,-320 1865,-279 1699,-279"/>
<text text-anchor="start" x="1707" y="-308" font-family="Helvetica,sans-Serif" font-size="10.00" fill="#000000">gko::EnablePolymorphicObject</text>
<text text-anchor="start" x="1707" y="-297" font-family="Helvetica,sans-Serif" font-size="10.00" fill="#000000">&lt; BatchDense&lt; ValueType &gt;</text>
<text text-anchor="middle" x="1782" y="-286" font-family="Helvetica,sans-Serif" font-size="10.00" fill="#000000">, BatchLinOp &gt;</text>
</a>
</g>
</g>
<!-- Node3&#45;&gt;Node2 -->
<g id="edge2" class="edge">
<title>Node3&#45;&gt;Node2</title>
<path fill="none" stroke="#191970" d="M1875.4475,-310.719C1930.8591,-317.4458 2002.4594,-326.2667 2066,-334.5 2071.8164,-335.2537 2077.8161,-336.0416 2083.8588,-336.843"/>
<polygon fill="#191970" stroke="#191970" points="1875.6436,-307.2173 1865.295,-309.488 1874.8009,-314.1664 1875.6436,-307.2173"/>
</g>
<!-- Node4 -->
<g id="node4" class="node">
<title>Node4</title>
<g id="a_node4"><a xlink:href="classgko_1_1EnableAbstractPolymorphicObject.html" target="_top" xlink:title=" ">
<polygon fill="#ffffff" stroke="#000000" points="1340.5,-128 1340.5,-169 1519.5,-169 1519.5,-128 1340.5,-128"/>
<text text-anchor="start" x="1348.5" y="-157" font-family="Helvetica,sans-Serif" font-size="10.00" fill="#000000">gko::EnableAbstractPolymorphic</text>
<text text-anchor="start" x="1348.5" y="-146" font-family="Helvetica,sans-Serif" font-size="10.00" fill="#000000">Object&lt; BatchDense&lt; ValueType</text>
<text text-anchor="middle" x="1430" y="-135" font-family="Helvetica,sans-Serif" font-size="10.00" fill="#000000"> &gt;, BatchLinOp &gt;</text>
</a>
</g>
</g>
<!-- Node4&#45;&gt;Node3 -->
<g id="edge3" class="edge">
<title>Node4&#45;&gt;Node3</title>
<path fill="none" stroke="#191970" d="M1529.8013,-141.1093C1580.8829,-142.8181 1640.4654,-154.1371 1680,-191.5 1705.8574,-215.9371 1674.3463,-242.9241 1698,-269.5 1701.0886,-272.9702 1704.6069,-276.0391 1708.4118,-278.753"/>
<polygon fill="#191970" stroke="#191970" points="1529.7802,-137.6081 1519.7068,-140.8908 1529.6287,-144.6065 1529.7802,-137.6081"/>
</g>
<!-- Node5 -->
<g id="node5" class="node">
<title>Node5</title>
<g id="a_node5"><a xlink:href="classgko_1_1BatchLinOp.html" target="_top" xlink:title=" ">
<polygon fill="#ffffff" stroke="#000000" points="977.5,-144 977.5,-163 1073.5,-163 1073.5,-144 977.5,-144"/>
<text text-anchor="middle" x="1025.5" y="-151" font-family="Helvetica,sans-Serif" font-size="10.00" fill="#000000">gko::BatchLinOp</text>
</a>
</g>
</g>
<!-- Node5&#45;&gt;Node4 -->
<g id="edge4" class="edge">
<title>Node5&#45;&gt;Node4</title>
<path fill="none" stroke="#191970" d="M1084.2868,-152.7733C1151.4657,-151.9429 1262.1717,-150.5745 1340.1764,-149.6103"/>
<polygon fill="#191970" stroke="#191970" points="1083.8463,-149.2784 1073.8904,-152.9018 1083.9329,-156.2779 1083.8463,-149.2784"/>
</g>
<!-- Node6 -->
<g id="node6" class="node">
<title>Node6</title>
<g id="a_node6"><a xlink:href="classgko_1_1EnableAbstractPolymorphicObject.html" target="_top" xlink:title=" ">
<polygon fill="#ffffff" stroke="#ff0000" points="542,-141.5 542,-171.5 717,-171.5 717,-141.5 542,-141.5"/>
<text text-anchor="start" x="550" y="-159.5" font-family="Helvetica,sans-Serif" font-size="10.00" fill="#000000">gko::EnableAbstractPolymorphic</text>
<text text-anchor="middle" x="629.5" y="-148.5" font-family="Helvetica,sans-Serif" font-size="10.00" fill="#000000">Object&lt; BatchLinOp &gt;</text>
</a>
</g>
</g>
<!-- Node6&#45;&gt;Node5 -->
<g id="edge5" class="edge">
<title>Node6&#45;&gt;Node5</title>
<path fill="none" stroke="#191970" d="M727.4124,-155.7582C806.8543,-155.1564 915.462,-154.3336 977.2613,-153.8654"/>
<polygon fill="#191970" stroke="#191970" points="727.3584,-152.2584 717.3852,-155.8342 727.4115,-159.2582 727.3584,-152.2584"/>
</g>
<!-- Node12 -->
<g id="node7" class="node">
<title>Node12</title>
<g id="a_node7"><a xlink:href="classgko_1_1EnableAbstractPolymorphicObject.html" target="_top" xlink:title="This mixin inherits from (a subclass of) PolymorphicObject and provides a base implementation of a ne...">
<polygon fill="#ffffff" stroke="#000000" points="138,-164 138,-205 336,-205 336,-164 138,-164"/>
<text text-anchor="start" x="146" y="-193" font-family="Helvetica,sans-Serif" font-size="10.00" fill="#000000">gko::EnableAbstractPolymorphic</text>
<text text-anchor="start" x="146" y="-182" font-family="Helvetica,sans-Serif" font-size="10.00" fill="#000000">Object&lt; AbstractObject, Polymorphic</text>
<text text-anchor="middle" x="237" y="-171" font-family="Helvetica,sans-Serif" font-size="10.00" fill="#000000">Base &gt;</text>
</a>
</g>
</g>
<!-- Node12&#45;&gt;Node4 -->
<g id="edge8" class="edge">
<title>Node12&#45;&gt;Node4</title>
<path fill="none" stroke="#ffa500" stroke-dasharray="5,2" d="M290.8916,-160.1908C310.3807,-152.4903 332.8093,-144.855 354,-140.5 430.265,-124.8262 451.1867,-135.1665 529,-132.5 795.0675,-123.3823 861.9772,-124.1592 1128,-134.5 1199.4594,-137.2777 1280.3997,-141.0644 1340.4869,-143.9992"/>
<polygon fill="#ffa500" stroke="#ffa500" points="289.5338,-156.9645 281.5787,-163.9621 292.1613,-163.4527 289.5338,-156.9645"/>
<text text-anchor="start" x="759.5" y="-140.5" font-family="Helvetica,sans-Serif" font-size="10.00" fill="#000000"> &lt; BatchDense&lt; ValueType</text>
<text text-anchor="middle" x="826.5" y="-129.5" font-family="Helvetica,sans-Serif" font-size="10.00" fill="#000000"> &gt;, BatchLinOp &gt;</text>
</g>
<!-- Node12&#45;&gt;Node6 -->
<g id="edge6" class="edge">
<title>Node12&#45;&gt;Node6</title>
<path fill="none" stroke="#ffa500" stroke-dasharray="5,2" d="M307.484,-161.2573C322.6639,-157.2023 338.737,-153.6113 354,-151.5 416.4318,-142.864 487.5725,-144.4413 541.9222,-148.0068"/>
<polygon fill="#ffa500" stroke="#ffa500" points="306.3589,-157.937 297.6551,-163.9781 308.2265,-164.6833 306.3589,-157.937"/>
<text text-anchor="middle" x="432.5" y="-154.5" font-family="Helvetica,sans-Serif" font-size="10.00" fill="#000000"> &lt; BatchLinOp &gt;</text>
</g>
<!-- Node14 -->
<g id="node10" class="node">
<title>Node14</title>
<g id="a_node10"><a xlink:href="classgko_1_1EnableAbstractPolymorphicObject.html" target="_top" xlink:title=" ">
<polygon fill="#ffffff" stroke="#000000" points="529,-194 529,-235 730,-235 730,-194 529,-194"/>
<text text-anchor="start" x="537" y="-223" font-family="Helvetica,sans-Serif" font-size="10.00" fill="#000000">gko::EnableAbstractPolymorphic</text>
<text text-anchor="start" x="537" y="-212" font-family="Helvetica,sans-Serif" font-size="10.00" fill="#000000">Object&lt; ConcreteObject, Polymorphic</text>
<text text-anchor="middle" x="629.5" y="-201" font-family="Helvetica,sans-Serif" font-size="10.00" fill="#000000">Base &gt;</text>
</a>
</g>
</g>
<!-- Node12&#45;&gt;Node14 -->
<g id="edge12" class="edge">
<title>Node12&#45;&gt;Node14</title>
<path fill="none" stroke="#ffa500" stroke-dasharray="5,2" d="M346.5215,-179.0022C396.8055,-177.9883 457.1079,-178.9017 511,-185.5 526.1366,-187.3533 542.1324,-190.458 557.3067,-193.9637"/>
<polygon fill="#ffa500" stroke="#ffa500" points="346.1936,-175.5087 336.2768,-179.2379 346.3547,-182.5068 346.1936,-175.5087"/>
<text text-anchor="start" x="354" y="-199.5" font-family="Helvetica,sans-Serif" font-size="10.00" fill="#000000"> &lt; ConcreteObject, Polymorphic</text>
<text text-anchor="middle" x="432.5" y="-188.5" font-family="Helvetica,sans-Serif" font-size="10.00" fill="#000000">Base &gt;</text>
</g>
<!-- Node21 -->
<g id="node17" class="node">
<title>Node21</title>
<g id="a_node17"><a xlink:href="classgko_1_1EnableAbstractPolymorphicObject.html" target="_top" xlink:title=" ">
<polygon fill="#ffffff" stroke="#000000" points="542,-255 542,-296 717,-296 717,-255 542,-255"/>
<text text-anchor="start" x="550" y="-284" font-family="Helvetica,sans-Serif" font-size="10.00" fill="#000000">gko::EnableAbstractPolymorphic</text>
<text text-anchor="start" x="550" y="-273" font-family="Helvetica,sans-Serif" font-size="10.00" fill="#000000">Object&lt; ConcreteBatchLinOp,</text>
<text text-anchor="middle" x="629.5" y="-262" font-family="Helvetica,sans-Serif" font-size="10.00" fill="#000000"> PolymorphicBase &gt;</text>
</a>
</g>
</g>
<!-- Node12&#45;&gt;Node21 -->
<g id="edge22" class="edge">
<title>Node12&#45;&gt;Node21</title>
<path fill="none" stroke="#ffa500" stroke-dasharray="5,2" d="M335.5942,-207.3588C399.042,-222.069 480.766,-241.0165 541.9248,-255.196"/>
<polygon fill="#ffa500" stroke="#ffa500" points="336.1062,-203.8847 325.5741,-205.0356 334.5251,-210.7038 336.1062,-203.8847"/>
<text text-anchor="start" x="374" y="-259.5" font-family="Helvetica,sans-Serif" font-size="10.00" fill="#000000"> &lt; ConcreteBatchLinOp,</text>
<text text-anchor="middle" x="432.5" y="-248.5" font-family="Helvetica,sans-Serif" font-size="10.00" fill="#000000"> PolymorphicBase &gt;</text>
</g>
<!-- Node11 -->
<g id="node8" class="node">
<title>Node11</title>
<g id="a_node8"><a xlink:title=" ">
<polygon fill="#ffffff" stroke="#bfbfbf" points="0,-257 0,-276 101,-276 101,-257 0,-257"/>
<text text-anchor="middle" x="50.5" y="-264" font-family="Helvetica,sans-Serif" font-size="10.00" fill="#000000">PolymorphicBase</text>
</a>
</g>
</g>
<!-- Node11&#45;&gt;Node12 -->
<g id="edge7" class="edge">
<title>Node11&#45;&gt;Node12</title>
<path fill="none" stroke="#191970" d="M81.6749,-252.7931C111.2807,-239.7761 156.181,-220.0344 190.1047,-205.1189"/>
<polygon fill="#191970" stroke="#191970" points="80.0044,-249.7041 72.2589,-256.9331 82.8219,-256.1121 80.0044,-249.7041"/>
</g>
<!-- Node11&#45;&gt;Node14 -->
<g id="edge11" class="edge">
<title>Node11&#45;&gt;Node14</title>
<path fill="none" stroke="#191970" d="M111.3939,-271.1499C200.253,-276.4771 370.1997,-281.1357 511,-252.5 519.4115,-250.7893 520.8936,-248.3224 529,-245.5 539.1739,-241.9578 549.9963,-238.4017 560.6281,-235.0263"/>
<polygon fill="#191970" stroke="#191970" points="111.4257,-267.6452 101.2272,-270.516 110.99,-274.6316 111.4257,-267.6452"/>
</g>
<!-- Node11&#45;&gt;Node21 -->
<g id="edge21" class="edge">
<title>Node11&#45;&gt;Node21</title>
<path fill="none" stroke="#191970" d="M100.0089,-277.844C106.37,-278.9398 112.8183,-279.8748 119,-280.5 292.3378,-298.0321 336.8165,-284.1731 511,-280.5 520.9845,-280.2894 531.4391,-279.9792 541.8273,-279.6146"/>
<polygon fill="#191970" stroke="#191970" points="100.6063,-274.3952 90.1355,-276.0111 99.3286,-281.2776 100.6063,-274.3952"/>
</g>
<!-- Node13 -->
<g id="node9" class="node">
<title>Node13</title>
<g id="a_node9"><a xlink:href="classgko_1_1EnablePolymorphicObject.html" target="_top" xlink:title="This mixin inherits from (a subclass of) PolymorphicObject and provides a base implementation of a ne...">
<polygon fill="#ffffff" stroke="#000000" points="923,-199.5 923,-229.5 1128,-229.5 1128,-199.5 923,-199.5"/>
<text text-anchor="start" x="931" y="-217.5" font-family="Helvetica,sans-Serif" font-size="10.00" fill="#000000">gko::EnablePolymorphicObject</text>
<text text-anchor="middle" x="1025.5" y="-206.5" font-family="Helvetica,sans-Serif" font-size="10.00" fill="#000000">&lt; ConcreteObject, PolymorphicBase &gt;</text>
</a>
</g>
</g>
<!-- Node13&#45;&gt;Node3 -->
<g id="edge9" class="edge">
<title>Node13&#45;&gt;Node3</title>
<path fill="none" stroke="#ffa500" stroke-dasharray="5,2" d="M1138.038,-207.8248C1240.1729,-203.822 1394.596,-202.9116 1527,-223.5 1564.202,-229.2848 1657.4094,-258.5142 1720.2206,-278.9878"/>
<polygon fill="#ffa500" stroke="#ffa500" points="1137.8603,-204.329 1128.0115,-208.2343 1138.146,-211.3232 1137.8603,-204.329"/>
<text text-anchor="start" x="1363" y="-237.5" font-family="Helvetica,sans-Serif" font-size="10.00" fill="#000000"> &lt; BatchDense&lt; ValueType</text>
<text text-anchor="middle" x="1430" y="-226.5" font-family="Helvetica,sans-Serif" font-size="10.00" fill="#000000"> &gt;, BatchLinOp &gt;</text>
</g>
<!-- Node20 -->
<g id="node16" class="node">
<title>Node20</title>
<g id="a_node16"><a xlink:href="classgko_1_1EnablePolymorphicObject.html" target="_top" xlink:title=" ">
<polygon fill="#ffffff" stroke="#000000" points="1333,-255 1333,-296 1527,-296 1527,-255 1333,-255"/>
<text text-anchor="start" x="1341" y="-284" font-family="Helvetica,sans-Serif" font-size="10.00" fill="#000000">gko::EnablePolymorphicObject</text>
<text text-anchor="start" x="1341" y="-273" font-family="Helvetica,sans-Serif" font-size="10.00" fill="#000000">&lt; ConcreteBatchLinOp, Polymorphic</text>
<text text-anchor="middle" x="1430" y="-262" font-family="Helvetica,sans-Serif" font-size="10.00" fill="#000000">Base &gt;</text>
</a>
</g>
</g>
<!-- Node13&#45;&gt;Node20 -->
<g id="edge23" class="edge">
<title>Node13&#45;&gt;Node20</title>
<path fill="none" stroke="#ffa500" stroke-dasharray="5,2" d="M1138.3509,-218.5484C1192.2138,-221.9274 1257.3437,-228.1266 1315,-239.5 1334.191,-243.2856 1354.7042,-249.1083 1373.0136,-254.9749"/>
<polygon fill="#ffa500" stroke="#ffa500" points="1138.2745,-215.0376 1128.082,-217.9296 1137.8534,-222.0249 1138.2745,-215.0376"/>
<text text-anchor="start" x="1172" y="-253.5" font-family="Helvetica,sans-Serif" font-size="10.00" fill="#000000"> &lt; ConcreteBatchLinOp,</text>
<text text-anchor="middle" x="1230.5" y="-242.5" font-family="Helvetica,sans-Serif" font-size="10.00" fill="#000000"> PolymorphicBase &gt;</text>
</g>
<!-- Node14&#45;&gt;Node13 -->
<g id="edge10" class="edge">
<title>Node14&#45;&gt;Node13</title>
<path fill="none" stroke="#191970" d="M740.3641,-214.5C797.5746,-214.5 866.9092,-214.5 922.8821,-214.5"/>
<polygon fill="#191970" stroke="#191970" points="740.1957,-211.0001 730.1957,-214.5 740.1957,-218.0001 740.1957,-211.0001"/>
</g>
<!-- Node15 -->
<g id="node11" class="node">
<title>Node15</title>
<g id="a_node11"><a xlink:href="classgko_1_1EnablePolymorphicAssignment.html" target="_top" xlink:title=" ">
<polygon fill="#ffffff" stroke="#000000" points="1334,-333.5 1334,-363.5 1526,-363.5 1526,-333.5 1334,-333.5"/>
<text text-anchor="start" x="1342" y="-351.5" font-family="Helvetica,sans-Serif" font-size="10.00" fill="#000000">gko::EnablePolymorphicAssignment</text>
<text text-anchor="middle" x="1430" y="-340.5" font-family="Helvetica,sans-Serif" font-size="10.00" fill="#000000">&lt; BatchDense&lt; ValueType &gt; &gt;</text>
</a>
</g>
</g>
<!-- Node15&#45;&gt;Node2 -->
<g id="edge13" class="edge">
<title>Node15&#45;&gt;Node2</title>
<path fill="none" stroke="#191970" d="M1536.664,-348.5C1684.3859,-348.5 1948.3163,-348.5 2083.7228,-348.5"/>
<polygon fill="#191970" stroke="#191970" points="1536.2323,-345.0001 1526.2322,-348.5 1536.2322,-352.0001 1536.2323,-345.0001"/>
</g>
<!-- Node16 -->
<g id="node12" class="node">
<title>Node16</title>
<g id="a_node12"><a xlink:href="classgko_1_1ConvertibleTo.html" target="_top" xlink:title=" ">
<polygon fill="#ffffff" stroke="#000000" points="940.5,-304.5 940.5,-334.5 1110.5,-334.5 1110.5,-304.5 940.5,-304.5"/>
<text text-anchor="start" x="948.5" y="-322.5" font-family="Helvetica,sans-Serif" font-size="10.00" fill="#000000">gko::ConvertibleTo</text>
<text text-anchor="middle" x="1025.5" y="-311.5" font-family="Helvetica,sans-Serif" font-size="10.00" fill="#000000">&lt; BatchDense&lt; ValueType &gt; &gt;</text>
</a>
</g>
</g>
<!-- Node16&#45;&gt;Node15 -->
<g id="edge14" class="edge">
<title>Node16&#45;&gt;Node15</title>
<path fill="none" stroke="#191970" d="M1120.9153,-326.3406C1185.1209,-330.9438 1269.4746,-336.9914 1333.8361,-341.6057"/>
<polygon fill="#191970" stroke="#191970" points="1121.0145,-322.8389 1110.7898,-325.6147 1120.5139,-329.8209 1121.0145,-322.8389"/>
</g>
<!-- Node17 -->
<g id="node13" class="node">
<title>Node17</title>
<g id="a_node13"><a xlink:href="classgko_1_1ConvertibleTo.html" target="_top" xlink:title="ConvertibleTo interface is used to mark that the implementer can be converted to the object of Result...">
<polygon fill="#ffffff" stroke="#000000" points="576,-424.5 576,-454.5 683,-454.5 683,-424.5 576,-424.5"/>
<text text-anchor="start" x="584" y="-442.5" font-family="Helvetica,sans-Serif" font-size="10.00" fill="#000000">gko::ConvertibleTo</text>
<text text-anchor="middle" x="629.5" y="-431.5" font-family="Helvetica,sans-Serif" font-size="10.00" fill="#000000">&lt; ResultType &gt;</text>
</a>
</g>
</g>
<!-- Node17&#45;&gt;Node16 -->
<g id="edge15" class="edge">
<title>Node17&#45;&gt;Node16</title>
<path fill="none" stroke="#ffa500" stroke-dasharray="5,2" d="M661.2998,-418.958C684.4935,-404.8287 717.1378,-386.6665 748,-375.5 810.5074,-352.8838 884.4234,-338.5339 940.246,-330.0286"/>
<polygon fill="#ffa500" stroke="#ffa500" points="659.2528,-416.1086 652.5893,-424.3456 662.9351,-422.0619 659.2528,-416.1086"/>
<text text-anchor="middle" x="826.5" y="-378.5" font-family="Helvetica,sans-Serif" font-size="10.00" fill="#000000"> &lt; BatchDense&lt; ValueType &gt; &gt;</text>
</g>
<!-- Node18 -->
<g id="node14" class="node">
<title>Node18</title>
<g id="a_node14"><a xlink:href="classgko_1_1EnablePolymorphicAssignment.html" target="_top" xlink:title="This mixin is used to enable a default PolymorphicObject::copy_from() implementation for objects that...">
<polygon fill="#ffffff" stroke="#000000" points="929.5,-353.5 929.5,-383.5 1121.5,-383.5 1121.5,-353.5 929.5,-353.5"/>
<text text-anchor="start" x="937.5" y="-371.5" font-family="Helvetica,sans-Serif" font-size="10.00" fill="#000000">gko::EnablePolymorphicAssignment</text>
<text text-anchor="middle" x="1025.5" y="-360.5" font-family="Helvetica,sans-Serif" font-size="10.00" fill="#000000">&lt; ConcreteType, ResultType &gt;</text>
</a>
</g>
</g>
<!-- Node17&#45;&gt;Node18 -->
<g id="edge17" class="edge">
<title>Node17&#45;&gt;Node18</title>
<path fill="none" stroke="#191970" d="M693.3902,-428.0449C760.8649,-415.9472 867.5456,-396.8201 941.7224,-383.5207"/>
<polygon fill="#191970" stroke="#191970" points="692.5438,-424.6408 683.3184,-429.8507 693.7792,-431.5309 692.5438,-424.6408"/>
</g>
<!-- Node23 -->
<g id="node19" class="node">
<title>Node23</title>
<g id="a_node19"><a xlink:href="classgko_1_1ConvertibleTo.html" target="_top" xlink:title=" ">
<polygon fill="#ffffff" stroke="#000000" points="956.5,-402.5 956.5,-432.5 1094.5,-432.5 1094.5,-402.5 956.5,-402.5"/>
<text text-anchor="start" x="964.5" y="-420.5" font-family="Helvetica,sans-Serif" font-size="10.00" fill="#000000">gko::ConvertibleTo</text>
<text text-anchor="middle" x="1025.5" y="-409.5" font-family="Helvetica,sans-Serif" font-size="10.00" fill="#000000">&lt; ConcreteBatchLinOp &gt;</text>
</a>
</g>
</g>
<!-- Node17&#45;&gt;Node23 -->
<g id="edge26" class="edge">
<title>Node17&#45;&gt;Node23</title>
<path fill="none" stroke="#ffa500" stroke-dasharray="5,2" d="M693.6249,-435.9375C765.7423,-431.931 882.4316,-425.4482 956.4911,-421.3338"/>
<polygon fill="#ffa500" stroke="#ffa500" points="693.1089,-432.4607 683.3184,-436.5101 693.4972,-439.4499 693.1089,-432.4607"/>
<text text-anchor="middle" x="826.5" y="-434.5" font-family="Helvetica,sans-Serif" font-size="10.00" fill="#000000"> &lt; ConcreteBatchLinOp &gt;</text>
</g>
<!-- Node26 -->
<g id="node22" class="node">
<title>Node26</title>
<g id="a_node22"><a xlink:href="classgko_1_1ConvertibleTo.html" target="_top" xlink:title=" ">
<polygon fill="#ffffff" stroke="#000000" points="1146,-534 1146,-575 1315,-575 1315,-534 1146,-534"/>
<text text-anchor="start" x="1154" y="-563" font-family="Helvetica,sans-Serif" font-size="10.00" fill="#000000">gko::ConvertibleTo</text>
<text text-anchor="start" x="1154" y="-552" font-family="Helvetica,sans-Serif" font-size="10.00" fill="#000000">&lt; BatchDense&lt; next_precision</text>
<text text-anchor="middle" x="1230.5" y="-541" font-family="Helvetica,sans-Serif" font-size="10.00" fill="#000000">&lt; ValueType &gt; &gt; &gt;</text>
</a>
</g>
</g>
<!-- Node17&#45;&gt;Node26 -->
<g id="edge31" class="edge">
<title>Node17&#45;&gt;Node26</title>
<path fill="none" stroke="#ffa500" stroke-dasharray="5,2" d="M652.818,-461.4088C675.2843,-481.0211 711.1987,-508.6105 748,-521.5 881.1285,-568.1278 1047.3212,-567.7685 1145.8478,-562.0118"/>
<polygon fill="#ffa500" stroke="#ffa500" points="654.9642,-458.6331 645.1726,-454.5862 650.3034,-463.8559 654.9642,-458.6331"/>
<text text-anchor="start" x="754" y="-569.5" font-family="Helvetica,sans-Serif" font-size="10.00" fill="#000000"> &lt; BatchDense&lt; next</text>
<text text-anchor="middle" x="826.5" y="-558.5" font-family="Helvetica,sans-Serif" font-size="10.00" fill="#000000">_precision&lt; ValueType &gt; &gt; &gt;</text>
</g>
<!-- Node27 -->
<g id="node23" class="node">
<title>Node27</title>
<g id="a_node23"><a xlink:href="classgko_1_1ConvertibleTo.html" target="_top" xlink:title=" ">
<polygon fill="#ffffff" stroke="#000000" points="1545,-485 1545,-526 1680,-526 1680,-485 1545,-485"/>
<text text-anchor="start" x="1553" y="-514" font-family="Helvetica,sans-Serif" font-size="10.00" fill="#000000">gko::ConvertibleTo</text>
<text text-anchor="start" x="1553" y="-503" font-family="Helvetica,sans-Serif" font-size="10.00" fill="#000000">&lt; BatchCsr&lt; ValueType,</text>
<text text-anchor="middle" x="1612.5" y="-492" font-family="Helvetica,sans-Serif" font-size="10.00" fill="#000000"> int32 &gt; &gt;</text>
</a>
</g>
</g>
<!-- Node17&#45;&gt;Node27 -->
<g id="edge33" class="edge">
<title>Node17&#45;&gt;Node27</title>
<path fill="none" stroke="#ffa500" stroke-dasharray="5,2" d="M679.3574,-457.7995C700.2674,-464.6432 725.0207,-471.6781 748,-475.5 1041.5066,-524.3164 1398.5104,-515.5411 1544.9282,-509.0784"/>
<polygon fill="#ffa500" stroke="#ffa500" points="680.3282,-454.4336 669.7343,-454.5759 678.1046,-461.0711 680.3282,-454.4336"/>
<text text-anchor="start" x="964.5" y="-524.5" font-family="Helvetica,sans-Serif" font-size="10.00" fill="#000000"> &lt; BatchCsr&lt; ValueType,</text>
<text text-anchor="middle" x="1025.5" y="-513.5" font-family="Helvetica,sans-Serif" font-size="10.00" fill="#000000"> int32 &gt; &gt;</text>
</g>
<!-- Node28 -->
<g id="node24" class="node">
<title>Node28</title>
<g id="a_node24"><a xlink:href="classgko_1_1ConvertibleTo.html" target="_top" xlink:title=" ">
<polygon fill="#ffffff" stroke="#000000" points="1884,-431.5 1884,-461.5 2066,-461.5 2066,-431.5 1884,-431.5"/>
<text text-anchor="start" x="1892" y="-449.5" font-family="Helvetica,sans-Serif" font-size="10.00" fill="#000000">gko::ConvertibleTo</text>
<text text-anchor="middle" x="1975" y="-438.5" font-family="Helvetica,sans-Serif" font-size="10.00" fill="#000000">&lt; BatchDiagonal&lt; ValueType &gt; &gt;</text>
</a>
</g>
</g>
<!-- Node17&#45;&gt;Node28 -->
<g id="edge35" class="edge">
<title>Node17&#45;&gt;Node28</title>
<path fill="none" stroke="#ffa500" stroke-dasharray="5,2" d="M693.4288,-445.2398C771.6623,-451.7583 908.2027,-461.5 1025.5,-461.5 1025.5,-461.5 1025.5,-461.5 1612.5,-461.5 1704.9347,-461.5 1810.5144,-456.5709 1883.7938,-452.3638"/>
<polygon fill="#ffa500" stroke="#ffa500" points="693.5093,-441.7343 683.2508,-444.3825 692.9217,-448.7096 693.5093,-441.7343"/>
<text text-anchor="middle" x="1230.5" y="-464.5" font-family="Helvetica,sans-Serif" font-size="10.00" fill="#000000"> &lt; BatchDiagonal&lt; ValueType &gt; &gt;</text>
</g>
<!-- Node18&#45;&gt;Node15 -->
<g id="edge16" class="edge">
<title>Node18&#45;&gt;Node15</title>
<path fill="none" stroke="#ffa500" stroke-dasharray="5,2" d="M1132.1286,-358.4252C1136.8143,-358.0901 1141.4543,-357.7793 1146,-357.5 1208.5316,-353.6584 1278.9151,-351.4134 1333.9703,-350.1264"/>
<polygon fill="#ffa500" stroke="#ffa500" points="1131.5284,-354.9602 1121.8166,-359.1946 1132.0493,-361.9408 1131.5284,-354.9602"/>
<text text-anchor="middle" x="1230.5" y="-360.5" font-family="Helvetica,sans-Serif" font-size="10.00" fill="#000000"> &lt; BatchDense&lt; ValueType &gt; &gt;</text>
</g>
<!-- Node22 -->
<g id="node18" class="node">
<title>Node22</title>
<g id="a_node18"><a xlink:href="classgko_1_1EnablePolymorphicAssignment.html" target="_top" xlink:title=" ">
<polygon fill="#ffffff" stroke="#000000" points="1334,-383.5 1334,-413.5 1526,-413.5 1526,-383.5 1334,-383.5"/>
<text text-anchor="start" x="1342" y="-401.5" font-family="Helvetica,sans-Serif" font-size="10.00" fill="#000000">gko::EnablePolymorphicAssignment</text>
<text text-anchor="middle" x="1430" y="-390.5" font-family="Helvetica,sans-Serif" font-size="10.00" fill="#000000">&lt; ConcreteBatchLinOp &gt;</text>
</a>
</g>
</g>
<!-- Node18&#45;&gt;Node22 -->
<g id="edge27" class="edge">
<title>Node18&#45;&gt;Node22</title>
<path fill="none" stroke="#ffa500" stroke-dasharray="5,2" d="M1131.7462,-376.0616C1186.4946,-379.995 1254.3307,-384.9256 1315,-389.5 1321.1906,-389.9668 1327.5682,-390.4525 1333.9968,-390.9457"/>
<polygon fill="#ffa500" stroke="#ffa500" points="1131.9054,-372.5641 1121.6805,-375.3391 1131.4042,-379.5462 1131.9054,-372.5641"/>
<text text-anchor="middle" x="1230.5" y="-392.5" font-family="Helvetica,sans-Serif" font-size="10.00" fill="#000000"> &lt; ConcreteBatchLinOp &gt;</text>
</g>
<!-- Node19 -->
<g id="node15" class="node">
<title>Node19</title>
<g id="a_node15"><a xlink:href="classgko_1_1EnableBatchLinOp.html" target="_top" xlink:title="The EnableBatchLinOp mixin can be used to provide sensible default implementations of the majority of...">
<polygon fill="#ffffff" stroke="#000000" points="1717,-377 1717,-418 1847,-418 1847,-377 1717,-377"/>
<text text-anchor="start" x="1725" y="-406" font-family="Helvetica,sans-Serif" font-size="10.00" fill="#000000">gko::EnableBatchLinOp</text>
<text text-anchor="start" x="1725" y="-395" font-family="Helvetica,sans-Serif" font-size="10.00" fill="#000000">&lt; ConcreteBatchLinOp,</text>
<text text-anchor="middle" x="1782" y="-384" font-family="Helvetica,sans-Serif" font-size="10.00" fill="#000000"> PolymorphicBase &gt;</text>
</a>
</g>
</g>
<!-- Node19&#45;&gt;Node2 -->
<g id="edge18" class="edge">
<title>Node19&#45;&gt;Node2</title>
<path fill="none" stroke="#ffa500" stroke-dasharray="5,2" d="M1857.2226,-388.4888C1914.4847,-381.5663 1995.24,-371.6688 2066,-362.5 2071.8164,-361.7463 2077.8161,-360.9584 2083.8588,-360.157"/>
<polygon fill="#ffa500" stroke="#ffa500" points="1856.6779,-385.029 1847.1696,-389.7027 1857.5171,-391.9786 1856.6779,-385.029"/>
<text text-anchor="middle" x="1975" y="-386.5" font-family="Helvetica,sans-Serif" font-size="10.00" fill="#000000"> &lt; BatchDense&lt; ValueType &gt; &gt;</text>
</g>
<!-- Node20&#45;&gt;Node19 -->
<g id="edge19" class="edge">
<title>Node20&#45;&gt;Node19</title>
<path fill="none" stroke="#191970" d="M1499.0954,-299.4478C1564.2848,-322.0419 1660.976,-355.5542 1722.7369,-376.9599"/>
<polygon fill="#191970" stroke="#191970" points="1499.9088,-296.0255 1489.314,-296.0577 1497.6164,-302.6395 1499.9088,-296.0255"/>
</g>
<!-- Node21&#45;&gt;Node20 -->
<g id="edge20" class="edge">
<title>Node21&#45;&gt;Node20</title>
<path fill="none" stroke="#191970" d="M727.4702,-275.5C881.6318,-275.5 1179.0719,-275.5 1332.7722,-275.5"/>
<polygon fill="#191970" stroke="#191970" points="727.0741,-272.0001 717.074,-275.5 727.074,-279.0001 727.0741,-272.0001"/>
</g>
<!-- Node22&#45;&gt;Node19 -->
<g id="edge24" class="edge">
<title>Node22&#45;&gt;Node19</title>
<path fill="none" stroke="#191970" d="M1536.258,-398.1981C1595.0475,-398.0311 1666.2222,-397.8289 1716.8093,-397.6852"/>
<polygon fill="#191970" stroke="#191970" points="1536.1755,-394.6983 1526.1855,-398.2267 1536.1955,-401.6982 1536.1755,-394.6983"/>
</g>
<!-- Node23&#45;&gt;Node22 -->
<g id="edge25" class="edge">
<title>Node23&#45;&gt;Node22</title>
<path fill="none" stroke="#191970" d="M1104.8688,-413.7719C1170.5364,-410.6874 1264.0367,-406.2956 1333.9268,-403.0127"/>
<polygon fill="#191970" stroke="#191970" points="1104.4012,-410.2899 1094.5764,-414.2554 1104.7297,-417.2822 1104.4012,-410.2899"/>
</g>
<!-- Node24 -->
<g id="node20" class="node">
<title>Node24</title>
<g id="a_node20"><a xlink:href="classgko_1_1EnableCreateMethod.html" target="_top" xlink:title=" ">
<polygon fill="#ffffff" stroke="#000000" points="2084,-284.5 2084,-314.5 2254,-314.5 2254,-284.5 2084,-284.5"/>
<text text-anchor="start" x="2092" y="-302.5" font-family="Helvetica,sans-Serif" font-size="10.00" fill="#000000">gko::EnableCreateMethod</text>
<text text-anchor="middle" x="2169" y="-291.5" font-family="Helvetica,sans-Serif" font-size="10.00" fill="#000000">&lt; BatchDense&lt; ValueType &gt; &gt;</text>
</a>
</g>
</g>
<!-- Node24&#45;&gt;Node1 -->
<g id="edge28" class="edge">
<title>Node24&#45;&gt;Node1</title>
<path fill="none" stroke="#191970" d="M2237.2293,-281.9502C2258.1486,-276.5694 2280.9636,-270.701 2301.1596,-265.5062"/>
<polygon fill="#191970" stroke="#191970" points="2236.2638,-278.5846 2227.4509,-284.4654 2238.0076,-285.3639 2236.2638,-278.5846"/>
</g>
<!-- Node25 -->
<g id="node21" class="node">
<title>Node25</title>
<g id="a_node21"><a xlink:href="classgko_1_1EnableCreateMethod.html" target="_top" xlink:title="This mixin implements a static create() method on ConcreteType that dynamically allocates the memory,...">
<polygon fill="#ffffff" stroke="#000000" points="1711,-229.5 1711,-259.5 1853,-259.5 1853,-229.5 1711,-229.5"/>
<text text-anchor="start" x="1719" y="-247.5" font-family="Helvetica,sans-Serif" font-size="10.00" fill="#000000">gko::EnableCreateMethod</text>
<text text-anchor="middle" x="1782" y="-236.5" font-family="Helvetica,sans-Serif" font-size="10.00" fill="#000000">&lt; ConcreteType &gt;</text>
</a>
</g>
</g>
<!-- Node25&#45;&gt;Node24 -->
<g id="edge29" class="edge">
<title>Node25&#45;&gt;Node24</title>
<path fill="none" stroke="#ffa500" stroke-dasharray="5,2" d="M1863.5811,-256.0942C1928.219,-265.2805 2018.2476,-278.0752 2083.8074,-287.3925"/>
<polygon fill="#ffa500" stroke="#ffa500" points="1863.8258,-252.5939 1853.4328,-254.6519 1862.8408,-259.5243 1863.8258,-252.5939"/>
<text text-anchor="middle" x="1975" y="-287.5" font-family="Helvetica,sans-Serif" font-size="10.00" fill="#000000"> &lt; BatchDense&lt; ValueType &gt; &gt;</text>
</g>
<!-- Node26&#45;&gt;Node1 -->
<g id="edge30" class="edge">
<title>Node26&#45;&gt;Node1</title>
<path fill="none" stroke="#191970" d="M1325.2828,-553.3422C1402.5794,-552.4976 1514.5948,-551.5 1612.5,-551.5 1612.5,-551.5 1612.5,-551.5 2169,-551.5 2305.6739,-551.5 2348.3428,-327.1784 2357.4553,-265.8405"/>
<polygon fill="#191970" stroke="#191970" points="1325.0464,-549.8445 1315.0858,-553.455 1325.1239,-556.8441 1325.0464,-549.8445"/>
</g>
<!-- Node27&#45;&gt;Node1 -->
<g id="edge32" class="edge">
<title>Node27&#45;&gt;Node1</title>
<path fill="none" stroke="#191970" d="M1690.69,-517.1396C1821.285,-532.1045 2085.9912,-542.8036 2254,-416.5 2308.0434,-375.8719 2341.5991,-298.7883 2354.0299,-265.9452"/>
<polygon fill="#191970" stroke="#191970" points="1690.7222,-513.6189 1680.3796,-515.917 1689.8979,-520.5702 1690.7222,-513.6189"/>
</g>
<!-- Node28&#45;&gt;Node1 -->
<g id="edge34" class="edge">
<title>Node28&#45;&gt;Node1</title>
<path fill="none" stroke="#191970" d="M2076.1592,-435.0632C2131.9001,-425.2072 2200.4385,-406.9963 2254,-373.5 2299.0818,-345.3067 2335.1012,-291.7003 2350.8672,-265.5718"/>
<polygon fill="#191970" stroke="#191970" points="2075.5332,-431.6193 2066.2633,-436.7496 2076.7092,-438.5198 2075.5332,-431.6193"/>
</g>
<!-- Node29 -->
<g id="node25" class="node">
<title>Node29</title>
<g id="a_node25"><a xlink:href="classgko_1_1BatchReadableFromMatrixData.html" target="_top" xlink:title=" ">
<polygon fill="#ffffff" stroke="#000000" points="2085,-186.5 2085,-216.5 2253,-216.5 2253,-186.5 2085,-186.5"/>
<text text-anchor="start" x="2093" y="-204.5" font-family="Helvetica,sans-Serif" font-size="10.00" fill="#000000">gko::BatchReadableFromMatrix</text>
<text text-anchor="middle" x="2169" y="-193.5" font-family="Helvetica,sans-Serif" font-size="10.00" fill="#000000">Data&lt; ValueType, int32 &gt;</text>
</a>
</g>
</g>
<!-- Node29&#45;&gt;Node1 -->
<g id="edge36" class="edge">
<title>Node29&#45;&gt;Node1</title>
<path fill="none" stroke="#191970" d="M2237.2293,-219.0498C2258.1486,-224.4306 2280.9636,-230.299 2301.1596,-235.4938"/>
<polygon fill="#191970" stroke="#191970" points="2238.0076,-215.6361 2227.4509,-216.5346 2236.2638,-222.4154 2238.0076,-215.6361"/>
</g>
<!-- Node30 -->
<g id="node26" class="node">
<title>Node30</title>
<g id="a_node26"><a xlink:href="classgko_1_1BatchReadableFromMatrixData.html" target="_top" xlink:title="A BatchLinOp implementing this interface can read its data from a matrix_data structure.">
<polygon fill="#ffffff" stroke="#000000" points="1698,-180.5 1698,-210.5 1866,-210.5 1866,-180.5 1698,-180.5"/>
<text text-anchor="start" x="1706" y="-198.5" font-family="Helvetica,sans-Serif" font-size="10.00" fill="#000000">gko::BatchReadableFromMatrix</text>
<text text-anchor="middle" x="1782" y="-187.5" font-family="Helvetica,sans-Serif" font-size="10.00" fill="#000000">Data&lt; ValueType, IndexType &gt;</text>
</a>
</g>
</g>
<!-- Node30&#45;&gt;Node29 -->
<g id="edge37" class="edge">
<title>Node30&#45;&gt;Node29</title>
<path fill="none" stroke="#ffa500" stroke-dasharray="5,2" d="M1876.3375,-194.7698C1931.6141,-194.6074 2002.7784,-194.855 2066,-196.5 2072.1744,-196.6607 2078.5553,-196.8688 2084.9749,-197.1088"/>
<polygon fill="#ffa500" stroke="#ffa500" points="1876.1944,-191.2702 1866.2065,-194.8047 1876.2186,-198.2702 1876.1944,-191.2702"/>
<text text-anchor="middle" x="1975" y="-199.5" font-family="Helvetica,sans-Serif" font-size="10.00" fill="#000000"> &lt; ValueType, int32 &gt;</text>
</g>
<!-- Node31 -->
<g id="node27" class="node">
<title>Node31</title>
<g id="a_node27"><a xlink:href="classgko_1_1BatchReadableFromMatrixData.html" target="_top" xlink:title=" ">
<polygon fill="#ffffff" stroke="#000000" points="2085,-235.5 2085,-265.5 2253,-265.5 2253,-235.5 2085,-235.5"/>
<text text-anchor="start" x="2093" y="-253.5" font-family="Helvetica,sans-Serif" font-size="10.00" fill="#000000">gko::BatchReadableFromMatrix</text>
<text text-anchor="middle" x="2169" y="-242.5" font-family="Helvetica,sans-Serif" font-size="10.00" fill="#000000">Data&lt; ValueType, int64 &gt;</text>
</a>
</g>
</g>
<!-- Node30&#45;&gt;Node31 -->
<g id="edge39" class="edge">
<title>Node30&#45;&gt;Node31</title>
<path fill="none" stroke="#ffa500" stroke-dasharray="5,2" d="M1876.4908,-208.9289C1940.1349,-217.974 2023.3392,-229.7988 2084.7295,-238.5236"/>
<polygon fill="#ffa500" stroke="#ffa500" points="1876.8436,-205.444 1866.4506,-207.502 1875.8586,-212.3743 1876.8436,-205.444"/>
<text text-anchor="middle" x="1975" y="-238.5" font-family="Helvetica,sans-Serif" font-size="10.00" fill="#000000"> &lt; ValueType, int64 &gt;</text>
</g>
<!-- Node31&#45;&gt;Node1 -->
<g id="edge38" class="edge">
<title>Node31&#45;&gt;Node1</title>
<path fill="none" stroke="#191970" d="M2263.237,-250.5C2272.5897,-250.5 2281.9553,-250.5 2290.9732,-250.5"/>
<polygon fill="#191970" stroke="#191970" points="2263.1106,-247.0001 2253.1106,-250.5 2263.1106,-254.0001 2263.1106,-247.0001"/>
</g>
<!-- Node32 -->
<g id="node28" class="node">
<title>Node32</title>
<g id="a_node28"><a xlink:href="classgko_1_1BatchWritableToMatrixData.html" target="_top" xlink:title=" ">
<polygon fill="#ffffff" stroke="#000000" points="2094,-88.5 2094,-118.5 2244,-118.5 2244,-88.5 2094,-88.5"/>
<text text-anchor="start" x="2102" y="-106.5" font-family="Helvetica,sans-Serif" font-size="10.00" fill="#000000">gko::BatchWritableToMatrix</text>
<text text-anchor="middle" x="2169" y="-95.5" font-family="Helvetica,sans-Serif" font-size="10.00" fill="#000000">Data&lt; ValueType, int32 &gt;</text>
</a>
</g>
</g>
<!-- Node32&#45;&gt;Node1 -->
<g id="edge40" class="edge">
<title>Node32&#45;&gt;Node1</title>
<path fill="none" stroke="#191970" d="M2244.0658,-122.8661C2247.5073,-124.5915 2250.8392,-126.4654 2254,-128.5 2298.2655,-156.9931 2334.4129,-209.4324 2350.493,-235.2804"/>
<polygon fill="#191970" stroke="#191970" points="2245.2949,-119.5804 2234.7421,-118.6373 2242.4035,-125.9553 2245.2949,-119.5804"/>
</g>
<!-- Node33 -->
<g id="node29" class="node">
<title>Node33</title>
<g id="a_node29"><a xlink:href="classgko_1_1BatchWritableToMatrixData.html" target="_top" xlink:title="A BatchLinOp implementing this interface can write its data to a std::vector of matrix_data objects.">
<polygon fill="#ffffff" stroke="#000000" points="1698.5,-113.5 1698.5,-143.5 1865.5,-143.5 1865.5,-113.5 1698.5,-113.5"/>
<text text-anchor="start" x="1706.5" y="-131.5" font-family="Helvetica,sans-Serif" font-size="10.00" fill="#000000">gko::BatchWritableToMatrix</text>
<text text-anchor="middle" x="1782" y="-120.5" font-family="Helvetica,sans-Serif" font-size="10.00" fill="#000000">Data&lt; ValueType, IndexType &gt;</text>
</a>
</g>
</g>
<!-- Node33&#45;&gt;Node32 -->
<g id="edge41" class="edge">
<title>Node33&#45;&gt;Node32</title>
<path fill="none" stroke="#ffa500" stroke-dasharray="5,2" d="M1875.8213,-120.1069C1878.5775,-119.8971 1881.3085,-119.6942 1884,-119.5 1955.1771,-114.3632 2036.4557,-109.9428 2093.9508,-107.0582"/>
<polygon fill="#ffa500" stroke="#ffa500" points="1875.4529,-116.6249 1865.7561,-120.8935 1875.9984,-123.6036 1875.4529,-116.6249"/>
<text text-anchor="middle" x="1975" y="-122.5" font-family="Helvetica,sans-Serif" font-size="10.00" fill="#000000"> &lt; ValueType, int32 &gt;</text>
</g>
<!-- Node34 -->
<g id="node30" class="node">
<title>Node34</title>
<g id="a_node30"><a xlink:href="classgko_1_1BatchWritableToMatrixData.html" target="_top" xlink:title=" ">
<polygon fill="#ffffff" stroke="#000000" points="2094,-137.5 2094,-167.5 2244,-167.5 2244,-137.5 2094,-137.5"/>
<text text-anchor="start" x="2102" y="-155.5" font-family="Helvetica,sans-Serif" font-size="10.00" fill="#000000">gko::BatchWritableToMatrix</text>
<text text-anchor="middle" x="2169" y="-144.5" font-family="Helvetica,sans-Serif" font-size="10.00" fill="#000000">Data&lt; ValueType, int64 &gt;</text>
</a>
</g>
</g>
<!-- Node33&#45;&gt;Node34 -->
<g id="edge43" class="edge">
<title>Node33&#45;&gt;Node34</title>
<path fill="none" stroke="#ffa500" stroke-dasharray="5,2" d="M1876.0901,-134.335C1942.9404,-138.4808 2031.523,-143.9743 2093.7046,-147.8305"/>
<polygon fill="#ffa500" stroke="#ffa500" points="1876.1707,-130.8334 1865.9732,-133.7076 1875.7374,-137.82 1876.1707,-130.8334"/>
<text text-anchor="middle" x="1975" y="-148.5" font-family="Helvetica,sans-Serif" font-size="10.00" fill="#000000"> &lt; ValueType, int64 &gt;</text>
</g>
<!-- Node34&#45;&gt;Node1 -->
<g id="edge42" class="edge">
<title>Node34&#45;&gt;Node1</title>
<path fill="none" stroke="#191970" d="M2238.8071,-171.0373C2244.0239,-173.0258 2249.1422,-175.1793 2254,-177.5 2287.161,-193.342 2321.4022,-219.0884 2341.5555,-235.3907"/>
<polygon fill="#191970" stroke="#191970" points="2239.9399,-167.7253 2229.3455,-167.6355 2237.5715,-174.3125 2239.9399,-167.7253"/>
</g>
<!-- Node35 -->
<g id="node31" class="node">
<title>Node35</title>
<g id="a_node31"><a xlink:href="classgko_1_1BatchTransposable.html" target="_top" xlink:title="Batch Linear operators which support transposition of the distinct batch entries should implement the...">
<polygon fill="#ffffff" stroke="#000000" points="2103,-50 2103,-69 2235,-69 2235,-50 2103,-50"/>
<text text-anchor="middle" x="2169" y="-57" font-family="Helvetica,sans-Serif" font-size="10.00" fill="#000000">gko::BatchTransposable</text>
</a>
</g>
</g>
<!-- Node35&#45;&gt;Node1 -->
<g id="edge44" class="edge">
<title>Node35&#45;&gt;Node1</title>
<path fill="none" stroke="#191970" d="M2243.4758,-73.1761C2247.1675,-75.0274 2250.7045,-77.1246 2254,-79.5 2310.5962,-120.2942 2343.1529,-201.7176 2354.6883,-235.3882"/>
<polygon fill="#191970" stroke="#191970" points="2244.5956,-69.8463 2234.0298,-69.0625 2241.8007,-76.2641 2244.5956,-69.8463"/>
</g>
<!-- Node36 -->
<g id="node32" class="node">
<title>Node36</title>
<g id="a_node32"><a xlink:href="classgko_1_1BatchScaledIdentityAddable.html" target="_top" xlink:title="Adds the operation M &lt;&#45; a I + b M for batch matrix M, batch identity operator I and batch scalars a a...">
<polygon fill="#ffffff" stroke="#000000" points="2100,-.5 2100,-30.5 2238,-30.5 2238,-.5 2100,-.5"/>
<text text-anchor="start" x="2108" y="-18.5" font-family="Helvetica,sans-Serif" font-size="10.00" fill="#000000">gko::BatchScaledIdentity</text>
<text text-anchor="middle" x="2169" y="-7.5" font-family="Helvetica,sans-Serif" font-size="10.00" fill="#000000">Addable</text>
</a>
</g>
</g>
<!-- Node36&#45;&gt;Node1 -->
<g id="edge45" class="edge">
<title>Node36&#45;&gt;Node1</title>
<path fill="none" stroke="#191970" d="M2247.4822,-35.6734C2249.7526,-37.1687 2251.9336,-38.7748 2254,-40.5 2318.3627,-94.235 2347.3755,-197.0204 2356.3173,-235.4815"/>
<polygon fill="#191970" stroke="#191970" points="2248.7531,-32.3681 2238.3355,-30.438 2245.2757,-38.4433 2248.7531,-32.3681"/>
</g>
</g>
</svg>
        <g id="navigator" transform="translate(0 0)" fill="#404254">
                <rect fill="#f2f5e9" fill-opacity="0.5" stroke="#606060" stroke-width=".5" x="0" y="0" width="60" height="60"/>
                <use id="zoomplus" xlink:href="#zoomPlus" x="17" y="9" onmousedown="handleZoom(evt,'in')"/>
                <use id="zoomminus" xlink:href="#zoomMin" x="42" y="9" onmousedown="handleZoom(evt,'out')"/>
                <use id="reset" xlink:href="#resetDef" x="30" y="36" onmousedown="handleReset()"/>
                <g id="arrowUp" xlink:href="#dirArrow" transform="translate(30 24)" onmousedown="handlePan(0,-1)">
                  <use xlink:href="#rim" fill="#404040">
                        <set attributeName="fill" to="#808080" begin="arrowUp.mouseover" end="arrowUp.mouseout"/>
                  </use>
                  <path fill="none" stroke="white" stroke-width="1.5" d="M0,-3.0v7 M-2.5,-0.5L0,-3.0L2.5,-0.5"/>
                </g>
                <g id="arrowRight" xlink:href="#dirArrow" transform="rotate(90) translate(36 -43)" onmousedown="handlePan(1,0)">
                  <use xlink:href="#rim" fill="#404040">
                        <set attributeName="fill" to="#808080" begin="arrowRight.mouseover" end="arrowRight.mouseout"/>
                  </use>
                  <path fill="none" stroke="white" stroke-width="1.5" d="M0,-3.0v7 M-2.5,-0.5L0,-3.0L2.5,-0.5"/>
                </g>
                <g id="arrowDown" xlink:href="#dirArrow" transform="rotate(180) translate(-30 -48)" onmousedown="handlePan(0,1)">
                  <use xlink:href="#rim" fill="#404040">
                        <set attributeName="fill" to="#808080" begin="arrowDown.mouseover" end="arrowDown.mouseout"/>
                  </use>
                  <path fill="none" stroke="white" stroke-width="1.5" d="M0,-3.0v7 M-2.5,-0.5L0,-3.0L2.5,-0.5"/>
                </g>
                <g id="arrowLeft" xlink:href="#dirArrow" transform="rotate(270) translate(-36 17)" onmousedown="handlePan(-1,0)">
                  <use xlink:href="#rim" fill="#404040">
                        <set attributeName="fill" to="#808080" begin="arrowLeft.mouseover" end="arrowLeft.mouseout"/>
                  </use>
                  <path fill="none" stroke="white" stroke-width="1.5" d="M0,-3.0v7 M-2.5,-0.5L0,-3.0L2.5,-0.5"/>
                </g>
        </g>
        <svg viewBox="0 0 15 15" width="100%" height="30px" preserveAspectRatio="xMaxYMin meet">
         <g id="arrow_out" transform="scale(0.3 0.3)">
          <a xlink:href="classgko_1_1matrix_1_1BatchDense__coll__graph_org.svg" target="_base">
           <rect id="button" ry="5" rx="5" y="6" x="6" height="38" width="38"
                fill="#f2f5e9" fill-opacity="0.5" stroke="#606060" stroke-width="1.0"/>
           <path id="arrow"
             d="M 11.500037,31.436501 C 11.940474,20.09759 22.043105,11.32322 32.158766,21.979434 L 37.068811,17.246167 C 37.068811,17.246167 37.088388,32 37.088388,32 L 22.160133,31.978069 C 22.160133,31.978069 26.997745,27.140456 26.997745,27.140456 C 18.528582,18.264221 13.291696,25.230495 11.500037,31.436501 z"
             style="fill:#404040;"/>
          </a>
         </g>
        </svg>
</svg>
