<?xml version="1.0" encoding="UTF-8" standalone="no"?>
<!DOCTYPE svg PUBLIC "-//W3C//DTD SVG 1.1//EN"
 "http://www.w3.org/Graphics/SVG/1.1/DTD/svg11.dtd">
<!-- Generated by graphviz version 2.40.1 (20161225.0304)
 -->
<!-- Title: gko::solver::BatchRichardson&lt; ValueType &gt; Pages: 1 -->
<!--zoomable 424 -->
<svg id="main" version="1.1" xmlns="http://www.w3.org/2000/svg" xmlns:xlink="http://www.w3.org/1999/xlink" xml:space="preserve" onload="init(evt)">
<style type="text/css"><![CDATA[
.edge:hover path { stroke: red; }
.edge:hover polygon { stroke: red; fill: red; }
]]></style>
<script type="text/javascript"><![CDATA[
var edges = document.getElementsByTagName('g');
if (edges && edges.length) {
  for (var i=0;i<edges.length;i++) {
    if (edges[i].id.substr(0,4)=='edge') {
      edges[i].setAttribute('class','edge');
    }
  }
}
]]></script>
        <defs>
                <circle id="rim" cx="0" cy="0" r="7"/>
                <circle id="rim2" cx="0" cy="0" r="3.5"/>
                <g id="zoomPlus">
                        <use xlink:href="#rim" fill="#404040">
                                <set attributeName="fill" to="#808080" begin="zoomplus.mouseover" end="zoomplus.mouseout"/>
                        </use>
                        <path d="M-4,0h8M0,-4v8" fill="none" stroke="white" stroke-width="1.5" pointer-events="none"/>
                </g>
                <g id="zoomMin">
                        <use xlink:href="#rim" fill="#404040">
                                <set attributeName="fill" to="#808080" begin="zoomminus.mouseover" end="zoomminus.mouseout"/>
                        </use>
                        <path d="M-4,0h8" fill="none" stroke="white" stroke-width="1.5" pointer-events="none"/>
                </g>
                <g id="dirArrow">
                        <path fill="none" stroke="white" stroke-width="1.5" d="M0,-3.0v7 M-2.5,-0.5L0,-3.0L2.5,-0.5"/>
                </g>
               <g id="resetDef">
                       <use xlink:href="#rim2" fill="#404040">
                               <set attributeName="fill" to="#808080" begin="reset.mouseover" end="reset.mouseout"/>
                       </use>
               </g>
        </defs>

<script type="text/javascript">
var viewWidth = 2616;
var viewHeight = 424;
var sectionId = 'dynsection-0';
</script>
<script xlink:href="svgpan.js"/>
<svg id="graph" class="graph">
<g id="viewport">
<title>gko::solver::BatchRichardson&lt; ValueType &gt;</title>
<polygon fill="#ffffff" stroke="transparent" points="-4,4 -4,-419.5 2612,-419.5 2612,4 -4,4"/>
<!-- Node1 -->
<g id="node1" class="node">
<title>Node1</title>
<g id="a_node1"><a xlink:title="The (preconditioned) Richardson solver is an iterative method that uses a preconditioner to approxima...">
<polygon fill="#bfbfbf" stroke="#000000" points="2450,-190.5 2450,-220.5 2608,-220.5 2608,-190.5 2450,-190.5"/>
<text text-anchor="start" x="2458" y="-208.5" font-family="Helvetica,sans-Serif" font-size="10.00" fill="#000000">gko::solver::BatchRichardson</text>
<text text-anchor="middle" x="2529" y="-197.5" font-family="Helvetica,sans-Serif" font-size="10.00" fill="#000000">&lt; ValueType &gt;</text>
</a>
</g>
</g>
<!-- Node2 -->
<g id="node2" class="node">
<title>Node2</title>
<g id="a_node2"><a xlink:href="classgko_1_1solver_1_1EnableBatchSolver.html" target="_top" xlink:title=" ">
<polygon fill="#ffffff" stroke="#000000" points="2273,-222 2273,-263 2413,-263 2413,-222 2273,-222"/>
<text text-anchor="start" x="2281" y="-251" font-family="Helvetica,sans-Serif" font-size="10.00" fill="#000000">gko::solver::EnableBatch</text>
<text text-anchor="start" x="2281" y="-240" font-family="Helvetica,sans-Serif" font-size="10.00" fill="#000000">Solver&lt; BatchRichardson</text>
<text text-anchor="middle" x="2343" y="-229" font-family="Helvetica,sans-Serif" font-size="10.00" fill="#000000">&lt; ValueType &gt; &gt;</text>
</a>
</g>
</g>
<!-- Node2&#45;&gt;Node1 -->
<g id="edge1" class="edge">
<title>Node2&#45;&gt;Node1</title>
<path fill="none" stroke="#191970" d="M2423.0446,-226.5772C2433.1226,-224.5724 2443.4076,-222.5264 2453.4137,-220.536"/>
<polygon fill="#191970" stroke="#191970" points="2422.1785,-223.1808 2413.0536,-228.5646 2423.5443,-230.0463 2422.1785,-223.1808"/>
</g>
<!-- Node3 -->
<g id="node3" class="node">
<title>Node3</title>
<g id="a_node3"><a xlink:href="classgko_1_1EnableBatchLinOp.html" target="_top" xlink:title=" ">
<polygon fill="#ffffff" stroke="#000000" points="1788,-286 1788,-327 1958,-327 1958,-286 1788,-286"/>
<text text-anchor="start" x="1796" y="-315" font-family="Helvetica,sans-Serif" font-size="10.00" fill="#000000">gko::EnableBatchLinOp</text>
<text text-anchor="start" x="1796" y="-304" font-family="Helvetica,sans-Serif" font-size="10.00" fill="#000000">&lt; BatchRichardson&lt; ValueType</text>
<text text-anchor="middle" x="1873" y="-293" font-family="Helvetica,sans-Serif" font-size="10.00" fill="#000000"> &gt;, BatchLinOp &gt;</text>
</a>
</g>
</g>
<!-- Node3&#45;&gt;Node2 -->
<g id="edge2" class="edge">
<title>Node3&#45;&gt;Node2</title>
<path fill="none" stroke="#191970" d="M1968.509,-301.9923C2046.2229,-297.1314 2158.4454,-287.3915 2255,-268.5 2262.6608,-267.0011 2270.6129,-265.1235 2278.4642,-263.067"/>
<polygon fill="#191970" stroke="#191970" points="1968.0229,-298.5154 1958.2546,-302.618 1968.4492,-305.5024 1968.0229,-298.5154"/>
</g>
<!-- Node4 -->
<g id="node4" class="node">
<title>Node4</title>
<g id="a_node4"><a xlink:href="classgko_1_1EnablePolymorphicObject.html" target="_top" xlink:title=" ">
<polygon fill="#ffffff" stroke="#000000" points="1242,-342 1242,-383 1412,-383 1412,-342 1242,-342"/>
<text text-anchor="start" x="1250" y="-371" font-family="Helvetica,sans-Serif" font-size="10.00" fill="#000000">gko::EnablePolymorphicObject</text>
<text text-anchor="start" x="1250" y="-360" font-family="Helvetica,sans-Serif" font-size="10.00" fill="#000000">&lt; BatchRichardson&lt; ValueType</text>
<text text-anchor="middle" x="1327" y="-349" font-family="Helvetica,sans-Serif" font-size="10.00" fill="#000000"> &gt;, BatchLinOp &gt;</text>
</a>
</g>
</g>
<!-- Node4&#45;&gt;Node3 -->
<g id="edge3" class="edge">
<title>Node4&#45;&gt;Node3</title>
<path fill="none" stroke="#191970" d="M1422.3003,-356.2067C1512.1642,-349.7765 1650.5159,-338.5978 1770,-323.5 1775.8438,-322.7616 1781.8639,-321.9367 1787.9213,-321.0591"/>
<polygon fill="#191970" stroke="#191970" points="1421.8571,-352.7292 1412.1302,-356.9289 1422.3531,-359.7116 1421.8571,-352.7292"/>
</g>
<!-- Node5 -->
<g id="node5" class="node">
<title>Node5</title>
<g id="a_node5"><a xlink:href="classgko_1_1EnableAbstractPolymorphicObject.html" target="_top" xlink:title=" ">
<polygon fill="#ffffff" stroke="#000000" points="404,-374 404,-415 579,-415 579,-374 404,-374"/>
<text text-anchor="start" x="412" y="-403" font-family="Helvetica,sans-Serif" font-size="10.00" fill="#000000">gko::EnableAbstractPolymorphic</text>
<text text-anchor="start" x="412" y="-392" font-family="Helvetica,sans-Serif" font-size="10.00" fill="#000000">Object&lt; BatchRichardson&lt;</text>
<text text-anchor="middle" x="491.5" y="-381" font-family="Helvetica,sans-Serif" font-size="10.00" fill="#000000"> ValueType &gt;, BatchLinOp &gt;</text>
</a>
</g>
</g>
<!-- Node5&#45;&gt;Node4 -->
<g id="edge4" class="edge">
<title>Node5&#45;&gt;Node4</title>
<path fill="none" stroke="#191970" d="M589.2778,-393.9853C727.1498,-392.7546 986.5018,-388.5884 1207,-374.5 1218.2831,-373.7791 1230.1455,-372.8284 1241.8408,-371.7769"/>
<polygon fill="#191970" stroke="#191970" points="589.1273,-390.4864 579.1578,-394.0723 589.1875,-397.4861 589.1273,-390.4864"/>
</g>
<!-- Node6 -->
<g id="node6" class="node">
<title>Node6</title>
<g id="a_node6"><a xlink:href="classgko_1_1BatchLinOp.html" target="_top" xlink:title=" ">
<polygon fill="#ffffff" stroke="#ff0000" points="51,-385 51,-404 147,-404 147,-385 51,-385"/>
<text text-anchor="middle" x="99" y="-392" font-family="Helvetica,sans-Serif" font-size="10.00" fill="#000000">gko::BatchLinOp</text>
</a>
</g>
</g>
<!-- Node6&#45;&gt;Node5 -->
<g id="edge5" class="edge">
<title>Node6&#45;&gt;Node5</title>
<path fill="none" stroke="#191970" d="M157.2173,-394.5C222.347,-394.5 328.5616,-394.5 403.7666,-394.5"/>
<polygon fill="#191970" stroke="#191970" points="157.1282,-391.0001 147.1282,-394.5 157.1282,-398.0001 157.1282,-391.0001"/>
</g>
<!-- Node13 -->
<g id="node7" class="node">
<title>Node13</title>
<g id="a_node7"><a xlink:href="classgko_1_1EnableAbstractPolymorphicObject.html" target="_top" xlink:title="This mixin inherits from (a subclass of) PolymorphicObject and provides a base implementation of a ne...">
<polygon fill="#ffffff" stroke="#ff0000" points="0,-267 0,-308 198,-308 198,-267 0,-267"/>
<text text-anchor="start" x="8" y="-296" font-family="Helvetica,sans-Serif" font-size="10.00" fill="#000000">gko::EnableAbstractPolymorphic</text>
<text text-anchor="start" x="8" y="-285" font-family="Helvetica,sans-Serif" font-size="10.00" fill="#000000">Object&lt; AbstractObject, Polymorphic</text>
<text text-anchor="middle" x="99" y="-274" font-family="Helvetica,sans-Serif" font-size="10.00" fill="#000000">Base &gt;</text>
</a>
</g>
</g>
<!-- Node13&#45;&gt;Node5 -->
<g id="edge6" class="edge">
<title>Node13&#45;&gt;Node5</title>
<path fill="none" stroke="#ffa500" stroke-dasharray="5,2" d="M158.5204,-311.6557C176.7867,-318.5872 197.0648,-325.8029 216,-331.5 234.0888,-336.9425 330.1118,-358.6352 403.7584,-375.0577"/>
<polygon fill="#ffa500" stroke="#ffa500" points="159.7596,-308.3824 149.1695,-308.0664 157.2511,-314.9175 159.7596,-308.3824"/>
<text text-anchor="start" x="226" y="-381.5" font-family="Helvetica,sans-Serif" font-size="10.00" fill="#000000"> &lt; BatchRichardson&lt;</text>
<text text-anchor="middle" x="294.5" y="-370.5" font-family="Helvetica,sans-Serif" font-size="10.00" fill="#000000"> ValueType &gt;, BatchLinOp &gt;</text>
</g>
<!-- Node15 -->
<g id="node9" class="node">
<title>Node15</title>
<g id="a_node9"><a xlink:href="classgko_1_1EnableAbstractPolymorphicObject.html" target="_top" xlink:title=" ">
<polygon fill="#ffffff" stroke="#ff0000" points="391,-294 391,-335 592,-335 592,-294 391,-294"/>
<text text-anchor="start" x="399" y="-323" font-family="Helvetica,sans-Serif" font-size="10.00" fill="#000000">gko::EnableAbstractPolymorphic</text>
<text text-anchor="start" x="399" y="-312" font-family="Helvetica,sans-Serif" font-size="10.00" fill="#000000">Object&lt; ConcreteObject, Polymorphic</text>
<text text-anchor="middle" x="491.5" y="-301" font-family="Helvetica,sans-Serif" font-size="10.00" fill="#000000">Base &gt;</text>
</a>
</g>
</g>
<!-- Node13&#45;&gt;Node15 -->
<g id="edge9" class="edge">
<title>Node13&#45;&gt;Node15</title>
<path fill="none" stroke="#ffa500" stroke-dasharray="5,2" d="M208.2032,-295.0121C265.3756,-298.9449 334.9091,-303.7281 390.78,-307.5715"/>
<polygon fill="#ffa500" stroke="#ffa500" points="208.261,-291.5079 198.0443,-294.3132 207.7805,-298.4914 208.261,-291.5079"/>
<text text-anchor="start" x="216" y="-319.5" font-family="Helvetica,sans-Serif" font-size="10.00" fill="#000000"> &lt; ConcreteObject, Polymorphic</text>
<text text-anchor="middle" x="294.5" y="-308.5" font-family="Helvetica,sans-Serif" font-size="10.00" fill="#000000">Base &gt;</text>
</g>
<!-- Node22 -->
<g id="node16" class="node">
<title>Node22</title>
<g id="a_node16"><a xlink:href="classgko_1_1EnableAbstractPolymorphicObject.html" target="_top" xlink:title=" ">
<polygon fill="#ffffff" stroke="#ff0000" points="622.5,-240 622.5,-281 797.5,-281 797.5,-240 622.5,-240"/>
<text text-anchor="start" x="630.5" y="-269" font-family="Helvetica,sans-Serif" font-size="10.00" fill="#000000">gko::EnableAbstractPolymorphic</text>
<text text-anchor="start" x="630.5" y="-258" font-family="Helvetica,sans-Serif" font-size="10.00" fill="#000000">Object&lt; ConcreteBatchLinOp,</text>
<text text-anchor="middle" x="710" y="-247" font-family="Helvetica,sans-Serif" font-size="10.00" fill="#000000"> PolymorphicBase &gt;</text>
</a>
</g>
</g>
<!-- Node13&#45;&gt;Node22 -->
<g id="edge18" class="edge">
<title>Node13&#45;&gt;Node22</title>
<path fill="none" stroke="#ffa500" stroke-dasharray="5,2" d="M208.2628,-270.2176C210.8648,-269.9587 213.4468,-269.7187 216,-269.5 357.8724,-257.3498 523.4668,-257.1727 622.3655,-258.5498"/>
<polygon fill="#ffa500" stroke="#ffa500" points="207.7155,-266.7561 198.1463,-271.3037 208.4628,-273.7161 207.7155,-266.7561"/>
<text text-anchor="start" x="236" y="-283.5" font-family="Helvetica,sans-Serif" font-size="10.00" fill="#000000"> &lt; ConcreteBatchLinOp,</text>
<text text-anchor="middle" x="294.5" y="-272.5" font-family="Helvetica,sans-Serif" font-size="10.00" fill="#000000"> PolymorphicBase &gt;</text>
</g>
<!-- Node30 -->
<g id="node24" class="node">
<title>Node30</title>
<g id="a_node24"><a xlink:href="classgko_1_1EnableAbstractPolymorphicObject.html" target="_top" xlink:title=" ">
<polygon fill="#ffffff" stroke="#ff0000" points="610,-190 610,-231 810,-231 810,-190 610,-190"/>
<text text-anchor="start" x="618" y="-219" font-family="Helvetica,sans-Serif" font-size="10.00" fill="#000000">gko::EnableAbstractPolymorphic</text>
<text text-anchor="start" x="618" y="-208" font-family="Helvetica,sans-Serif" font-size="10.00" fill="#000000">Object&lt; ConcreteSolver, Polymorphic</text>
<text text-anchor="middle" x="710" y="-197" font-family="Helvetica,sans-Serif" font-size="10.00" fill="#000000">Base &gt;</text>
</a>
</g>
</g>
<!-- Node13&#45;&gt;Node30 -->
<g id="edge30" class="edge">
<title>Node13&#45;&gt;Node30</title>
<path fill="none" stroke="#ffa500" stroke-dasharray="5,2" d="M144.7313,-262.4775C165.7996,-252.1954 191.5165,-241.3463 216,-235.5 349.4319,-203.6387 508.7007,-201.8067 609.6017,-204.9329"/>
<polygon fill="#ffa500" stroke="#ffa500" points="143.085,-259.3874 135.7026,-266.9868 146.2128,-265.6498 143.085,-259.3874"/>
<text text-anchor="start" x="216.5" y="-249.5" font-family="Helvetica,sans-Serif" font-size="10.00" fill="#000000"> &lt; ConcreteSolver, Polymorphic</text>
<text text-anchor="middle" x="294.5" y="-238.5" font-family="Helvetica,sans-Serif" font-size="10.00" fill="#000000">Base &gt;</text>
</g>
<!-- Node14 -->
<g id="node8" class="node">
<title>Node14</title>
<g id="a_node8"><a xlink:href="classgko_1_1EnablePolymorphicObject.html" target="_top" xlink:title="This mixin inherits from (a subclass of) PolymorphicObject and provides a base implementation of a ne...">
<polygon fill="#ffffff" stroke="#000000" points="828,-301.5 828,-331.5 1033,-331.5 1033,-301.5 828,-301.5"/>
<text text-anchor="start" x="836" y="-319.5" font-family="Helvetica,sans-Serif" font-size="10.00" fill="#000000">gko::EnablePolymorphicObject</text>
<text text-anchor="middle" x="930.5" y="-308.5" font-family="Helvetica,sans-Serif" font-size="10.00" fill="#000000">&lt; ConcreteObject, PolymorphicBase &gt;</text>
</a>
</g>
</g>
<!-- Node14&#45;&gt;Node4 -->
<g id="edge7" class="edge">
<title>Node14&#45;&gt;Node4</title>
<path fill="none" stroke="#ffa500" stroke-dasharray="5,2" d="M1043.2182,-331.5509C1045.8366,-331.8733 1048.4334,-332.1902 1051,-332.5 1114.8817,-340.2118 1187.1939,-348.0389 1241.7714,-353.7637"/>
<polygon fill="#ffa500" stroke="#ffa500" points="1043.3866,-328.0449 1033.0307,-330.2824 1042.5216,-334.9913 1043.3866,-328.0449"/>
<text text-anchor="start" x="1060.5" y="-362.5" font-family="Helvetica,sans-Serif" font-size="10.00" fill="#000000"> &lt; BatchRichardson&lt;</text>
<text text-anchor="middle" x="1129" y="-351.5" font-family="Helvetica,sans-Serif" font-size="10.00" fill="#000000"> ValueType &gt;, BatchLinOp &gt;</text>
</g>
<!-- Node21 -->
<g id="node15" class="node">
<title>Node21</title>
<g id="a_node15"><a xlink:href="classgko_1_1EnablePolymorphicObject.html" target="_top" xlink:title=" ">
<polygon fill="#ffffff" stroke="#000000" points="1230,-265 1230,-306 1424,-306 1424,-265 1230,-265"/>
<text text-anchor="start" x="1238" y="-294" font-family="Helvetica,sans-Serif" font-size="10.00" fill="#000000">gko::EnablePolymorphicObject</text>
<text text-anchor="start" x="1238" y="-283" font-family="Helvetica,sans-Serif" font-size="10.00" fill="#000000">&lt; ConcreteBatchLinOp, Polymorphic</text>
<text text-anchor="middle" x="1327" y="-272" font-family="Helvetica,sans-Serif" font-size="10.00" fill="#000000">Base &gt;</text>
</a>
</g>
</g>
<!-- Node14&#45;&gt;Node21 -->
<g id="edge19" class="edge">
<title>Node14&#45;&gt;Node21</title>
<path fill="none" stroke="#ffa500" stroke-dasharray="5,2" d="M1043.4752,-308.1079C1093.5753,-304.3377 1153.2362,-299.7818 1207,-295.5 1214.398,-294.9108 1222.0519,-294.2927 1229.7483,-293.6651"/>
<polygon fill="#ffa500" stroke="#ffa500" points="1042.9711,-304.6358 1033.2616,-308.8756 1043.4959,-311.6161 1042.9711,-304.6358"/>
<text text-anchor="start" x="1070.5" y="-320.5" font-family="Helvetica,sans-Serif" font-size="10.00" fill="#000000"> &lt; ConcreteBatchLinOp,</text>
<text text-anchor="middle" x="1129" y="-309.5" font-family="Helvetica,sans-Serif" font-size="10.00" fill="#000000"> PolymorphicBase &gt;</text>
</g>
<!-- Node29 -->
<g id="node23" class="node">
<title>Node29</title>
<g id="a_node23"><a xlink:href="classgko_1_1EnablePolymorphicObject.html" target="_top" xlink:title=" ">
<polygon fill="#ffffff" stroke="#000000" points="1225,-215.5 1225,-245.5 1429,-245.5 1429,-215.5 1225,-215.5"/>
<text text-anchor="start" x="1233" y="-233.5" font-family="Helvetica,sans-Serif" font-size="10.00" fill="#000000">gko::EnablePolymorphicObject</text>
<text text-anchor="middle" x="1327" y="-222.5" font-family="Helvetica,sans-Serif" font-size="10.00" fill="#000000">&lt; ConcreteSolver, PolymorphicBase &gt;</text>
</a>
</g>
</g>
<!-- Node14&#45;&gt;Node29 -->
<g id="edge31" class="edge">
<title>Node14&#45;&gt;Node29</title>
<path fill="none" stroke="#ffa500" stroke-dasharray="5,2" d="M972.4351,-297.3781C995.2441,-287.6884 1024.1998,-276.5186 1051,-269.5 1107.6449,-254.6655 1172.4021,-245.1415 1224.9483,-239.222"/>
<polygon fill="#ffa500" stroke="#ffa500" points="970.8551,-294.2479 963.0604,-301.4238 973.6287,-300.675 970.8551,-294.2479"/>
<text text-anchor="start" x="1051" y="-283.5" font-family="Helvetica,sans-Serif" font-size="10.00" fill="#000000"> &lt; ConcreteSolver, Polymorphic</text>
<text text-anchor="middle" x="1129" y="-272.5" font-family="Helvetica,sans-Serif" font-size="10.00" fill="#000000">Base &gt;</text>
</g>
<!-- Node15&#45;&gt;Node14 -->
<g id="edge8" class="edge">
<title>Node15&#45;&gt;Node14</title>
<path fill="none" stroke="#191970" d="M602.2972,-315.0048C671.6132,-315.3206 760.2757,-315.7245 827.9702,-316.0329"/>
<polygon fill="#191970" stroke="#191970" points="602.2313,-311.5045 592.2155,-314.9588 602.1994,-318.5045 602.2313,-311.5045"/>
</g>
<!-- Node16 -->
<g id="node10" class="node">
<title>Node16</title>
<g id="a_node10"><a xlink:href="classgko_1_1EnablePolymorphicAssignment.html" target="_top" xlink:title=" ">
<polygon fill="#ffffff" stroke="#000000" points="1230.5,-146.5 1230.5,-176.5 1423.5,-176.5 1423.5,-146.5 1230.5,-146.5"/>
<text text-anchor="start" x="1238.5" y="-164.5" font-family="Helvetica,sans-Serif" font-size="10.00" fill="#000000">gko::EnablePolymorphicAssignment</text>
<text text-anchor="middle" x="1327" y="-153.5" font-family="Helvetica,sans-Serif" font-size="10.00" fill="#000000">&lt; BatchRichardson&lt; ValueType &gt; &gt;</text>
</a>
</g>
</g>
<!-- Node16&#45;&gt;Node3 -->
<g id="edge10" class="edge">
<title>Node16&#45;&gt;Node3</title>
<path fill="none" stroke="#191970" d="M1433.983,-153.1176C1532.422,-151.3146 1676.8555,-164.4139 1770,-243.5 1781.853,-253.564 1776.1108,-263.4788 1788,-273.5 1793.5678,-278.193 1799.8791,-282.265 1806.487,-285.7876"/>
<polygon fill="#191970" stroke="#191970" points="1433.6227,-149.6251 1423.7091,-153.3628 1433.7897,-156.6231 1433.6227,-149.6251"/>
</g>
<!-- Node17 -->
<g id="node11" class="node">
<title>Node17</title>
<g id="a_node11"><a xlink:href="classgko_1_1ConvertibleTo.html" target="_top" xlink:title=" ">
<polygon fill="#ffffff" stroke="#000000" points="834,-148.5 834,-178.5 1027,-178.5 1027,-148.5 834,-148.5"/>
<text text-anchor="start" x="842" y="-166.5" font-family="Helvetica,sans-Serif" font-size="10.00" fill="#000000">gko::ConvertibleTo</text>
<text text-anchor="middle" x="930.5" y="-155.5" font-family="Helvetica,sans-Serif" font-size="10.00" fill="#000000">&lt; BatchRichardson&lt; ValueType &gt; &gt;</text>
</a>
</g>
</g>
<!-- Node17&#45;&gt;Node16 -->
<g id="edge11" class="edge">
<title>Node17&#45;&gt;Node16</title>
<path fill="none" stroke="#191970" d="M1037.3311,-169.1005C1041.949,-169.2538 1046.5209,-169.3886 1051,-169.5 1120.3119,-171.2245 1137.7051,-171.8073 1207,-169.5 1214.6168,-169.2464 1222.5011,-168.9025 1230.4217,-168.4991"/>
<polygon fill="#191970" stroke="#191970" points="1037.2851,-165.5967 1027.1663,-168.737 1037.0348,-172.5923 1037.2851,-165.5967"/>
</g>
<!-- Node18 -->
<g id="node12" class="node">
<title>Node18</title>
<g id="a_node12"><a xlink:href="classgko_1_1ConvertibleTo.html" target="_top" xlink:title="ConvertibleTo interface is used to mark that the implementer can be converted to the object of Result...">
<polygon fill="#ffffff" stroke="#000000" points="438,-76.5 438,-106.5 545,-106.5 545,-76.5 438,-76.5"/>
<text text-anchor="start" x="446" y="-94.5" font-family="Helvetica,sans-Serif" font-size="10.00" fill="#000000">gko::ConvertibleTo</text>
<text text-anchor="middle" x="491.5" y="-83.5" font-family="Helvetica,sans-Serif" font-size="10.00" fill="#000000">&lt; ResultType &gt;</text>
</a>
</g>
</g>
<!-- Node18&#45;&gt;Node17 -->
<g id="edge12" class="edge">
<title>Node18&#45;&gt;Node17</title>
<path fill="none" stroke="#ffa500" stroke-dasharray="5,2" d="M555.2541,-105.7118C572.9403,-109.4465 592.1786,-113.3166 610,-116.5 684.876,-129.875 770.0937,-142.2362 833.826,-150.9215"/>
<polygon fill="#ffa500" stroke="#ffa500" points="555.5526,-102.1969 545.0426,-103.5347 554.093,-109.043 555.5526,-102.1969"/>
<text text-anchor="start" x="657.5" y="-161.5" font-family="Helvetica,sans-Serif" font-size="10.00" fill="#000000"> &lt; BatchRichardson&lt;</text>
<text text-anchor="middle" x="710" y="-150.5" font-family="Helvetica,sans-Serif" font-size="10.00" fill="#000000"> ValueType &gt; &gt;</text>
</g>
<!-- Node19 -->
<g id="node13" class="node">
<title>Node19</title>
<g id="a_node13"><a xlink:href="classgko_1_1EnablePolymorphicAssignment.html" target="_top" xlink:title="This mixin is used to enable a default PolymorphicObject::copy_from() implementation for objects that...">
<polygon fill="#ffffff" stroke="#000000" points="834.5,-98.5 834.5,-128.5 1026.5,-128.5 1026.5,-98.5 834.5,-98.5"/>
<text text-anchor="start" x="842.5" y="-116.5" font-family="Helvetica,sans-Serif" font-size="10.00" fill="#000000">gko::EnablePolymorphicAssignment</text>
<text text-anchor="middle" x="930.5" y="-105.5" font-family="Helvetica,sans-Serif" font-size="10.00" fill="#000000">&lt; ConcreteType, ResultType &gt;</text>
</a>
</g>
</g>
<!-- Node18&#45;&gt;Node19 -->
<g id="edge14" class="edge">
<title>Node18&#45;&gt;Node19</title>
<path fill="none" stroke="#191970" d="M555.3531,-94.6999C628.6939,-98.3753 749.7864,-104.4437 834.4987,-108.689"/>
<polygon fill="#191970" stroke="#191970" points="555.4927,-91.2026 545.33,-94.1976 555.1423,-98.1939 555.4927,-91.2026"/>
</g>
<!-- Node24 -->
<g id="node18" class="node">
<title>Node24</title>
<g id="a_node18"><a xlink:href="classgko_1_1ConvertibleTo.html" target="_top" xlink:title=" ">
<polygon fill="#ffffff" stroke="#000000" points="861.5,-49.5 861.5,-79.5 999.5,-79.5 999.5,-49.5 861.5,-49.5"/>
<text text-anchor="start" x="869.5" y="-67.5" font-family="Helvetica,sans-Serif" font-size="10.00" fill="#000000">gko::ConvertibleTo</text>
<text text-anchor="middle" x="930.5" y="-56.5" font-family="Helvetica,sans-Serif" font-size="10.00" fill="#000000">&lt; ConcreteBatchLinOp &gt;</text>
</a>
</g>
</g>
<!-- Node18&#45;&gt;Node24 -->
<g id="edge22" class="edge">
<title>Node18&#45;&gt;Node24</title>
<path fill="none" stroke="#ffa500" stroke-dasharray="5,2" d="M555.3903,-87.0904C573.0771,-85.8959 592.2816,-84.6233 610,-83.5 696.6412,-78.0073 796.4903,-72.1653 861.4059,-68.4321"/>
<polygon fill="#ffa500" stroke="#ffa500" points="554.9151,-83.6145 545.1747,-87.7829 555.3886,-90.5984 554.9151,-83.6145"/>
<text text-anchor="middle" x="710" y="-86.5" font-family="Helvetica,sans-Serif" font-size="10.00" fill="#000000"> &lt; ConcreteBatchLinOp &gt;</text>
</g>
<!-- Node32 -->
<g id="node26" class="node">
<title>Node32</title>
<g id="a_node26"><a xlink:href="classgko_1_1ConvertibleTo.html" target="_top" xlink:title=" ">
<polygon fill="#ffffff" stroke="#000000" points="874,-.5 874,-30.5 987,-30.5 987,-.5 874,-.5"/>
<text text-anchor="start" x="882" y="-18.5" font-family="Helvetica,sans-Serif" font-size="10.00" fill="#000000">gko::ConvertibleTo</text>
<text text-anchor="middle" x="930.5" y="-7.5" font-family="Helvetica,sans-Serif" font-size="10.00" fill="#000000">&lt; ConcreteSolver &gt;</text>
</a>
</g>
</g>
<!-- Node18&#45;&gt;Node32 -->
<g id="edge34" class="edge">
<title>Node18&#45;&gt;Node32</title>
<path fill="none" stroke="#ffa500" stroke-dasharray="5,2" d="M547.5038,-73.5757C567.1133,-67.7958 589.3843,-61.7834 610,-57.5 701.4829,-38.4923 809.5406,-26.4431 873.9149,-20.3414"/>
<polygon fill="#ffa500" stroke="#ffa500" points="546.3901,-70.2556 537.8135,-76.4759 548.3972,-76.9617 546.3901,-70.2556"/>
<text text-anchor="middle" x="710" y="-60.5" font-family="Helvetica,sans-Serif" font-size="10.00" fill="#000000"> &lt; ConcreteSolver &gt;</text>
</g>
<!-- Node19&#45;&gt;Node16 -->
<g id="edge13" class="edge">
<title>Node19&#45;&gt;Node16</title>
<path fill="none" stroke="#ffa500" stroke-dasharray="5,2" d="M1036.7265,-124.0011C1088.2019,-129.351 1150.8822,-136.2499 1207,-143.5 1214.6259,-144.4852 1222.5166,-145.5554 1230.4416,-146.6663"/>
<polygon fill="#ffa500" stroke="#ffa500" points="1036.8932,-120.4997 1026.5861,-122.9521 1036.1729,-127.4626 1036.8932,-120.4997"/>
<text text-anchor="start" x="1076.5" y="-157.5" font-family="Helvetica,sans-Serif" font-size="10.00" fill="#000000"> &lt; BatchRichardson&lt;</text>
<text text-anchor="middle" x="1129" y="-146.5" font-family="Helvetica,sans-Serif" font-size="10.00" fill="#000000"> ValueType &gt; &gt;</text>
</g>
<!-- Node23 -->
<g id="node17" class="node">
<title>Node23</title>
<g id="a_node17"><a xlink:href="classgko_1_1EnablePolymorphicAssignment.html" target="_top" xlink:title=" ">
<polygon fill="#ffffff" stroke="#000000" points="1231,-97.5 1231,-127.5 1423,-127.5 1423,-97.5 1231,-97.5"/>
<text text-anchor="start" x="1239" y="-115.5" font-family="Helvetica,sans-Serif" font-size="10.00" fill="#000000">gko::EnablePolymorphicAssignment</text>
<text text-anchor="middle" x="1327" y="-104.5" font-family="Helvetica,sans-Serif" font-size="10.00" fill="#000000">&lt; ConcreteBatchLinOp &gt;</text>
</a>
</g>
</g>
<!-- Node19&#45;&gt;Node23 -->
<g id="edge23" class="edge">
<title>Node19&#45;&gt;Node23</title>
<path fill="none" stroke="#ffa500" stroke-dasharray="5,2" d="M1037.0648,-113.2312C1097.4637,-113.0789 1172.4231,-112.8899 1230.9915,-112.7421"/>
<polygon fill="#ffa500" stroke="#ffa500" points="1036.7257,-109.732 1026.7346,-113.2573 1036.7434,-116.732 1036.7257,-109.732"/>
<text text-anchor="middle" x="1129" y="-116.5" font-family="Helvetica,sans-Serif" font-size="10.00" fill="#000000"> &lt; ConcreteBatchLinOp &gt;</text>
</g>
<!-- Node31 -->
<g id="node25" class="node">
<title>Node31</title>
<g id="a_node25"><a xlink:href="classgko_1_1EnablePolymorphicAssignment.html" target="_top" xlink:title=" ">
<polygon fill="#ffffff" stroke="#000000" points="1231,-48.5 1231,-78.5 1423,-78.5 1423,-48.5 1231,-48.5"/>
<text text-anchor="start" x="1239" y="-66.5" font-family="Helvetica,sans-Serif" font-size="10.00" fill="#000000">gko::EnablePolymorphicAssignment</text>
<text text-anchor="middle" x="1327" y="-55.5" font-family="Helvetica,sans-Serif" font-size="10.00" fill="#000000">&lt; ConcreteSolver &gt;</text>
</a>
</g>
</g>
<!-- Node19&#45;&gt;Node31 -->
<g id="edge35" class="edge">
<title>Node19&#45;&gt;Node31</title>
<path fill="none" stroke="#ffa500" stroke-dasharray="5,2" d="M1036.6907,-100.109C1097.1538,-92.4844 1172.3021,-83.0079 1230.9915,-75.607"/>
<polygon fill="#ffa500" stroke="#ffa500" points="1036.2181,-96.6408 1026.7346,-101.3645 1037.0939,-103.5858 1036.2181,-96.6408"/>
<text text-anchor="middle" x="1129" y="-100.5" font-family="Helvetica,sans-Serif" font-size="10.00" fill="#000000"> &lt; ConcreteSolver &gt;</text>
</g>
<!-- Node20 -->
<g id="node14" class="node">
<title>Node20</title>
<g id="a_node14"><a xlink:href="classgko_1_1EnableBatchLinOp.html" target="_top" xlink:title="The EnableBatchLinOp mixin can be used to provide sensible default implementations of the majority of...">
<polygon fill="#ffffff" stroke="#000000" points="1466,-261 1466,-302 1596,-302 1596,-261 1466,-261"/>
<text text-anchor="start" x="1474" y="-290" font-family="Helvetica,sans-Serif" font-size="10.00" fill="#000000">gko::EnableBatchLinOp</text>
<text text-anchor="start" x="1474" y="-279" font-family="Helvetica,sans-Serif" font-size="10.00" fill="#000000">&lt; ConcreteBatchLinOp,</text>
<text text-anchor="middle" x="1531" y="-268" font-family="Helvetica,sans-Serif" font-size="10.00" fill="#000000"> PolymorphicBase &gt;</text>
</a>
</g>
</g>
<!-- Node20&#45;&gt;Node3 -->
<g id="edge15" class="edge">
<title>Node20&#45;&gt;Node3</title>
<path fill="none" stroke="#ffa500" stroke-dasharray="5,2" d="M1606.2565,-287.0012C1659.8596,-290.9196 1731.9837,-296.1918 1787.7196,-300.2661"/>
<polygon fill="#ffa500" stroke="#ffa500" points="1606.3612,-283.4996 1596.1326,-286.2612 1605.8508,-290.481 1606.3612,-283.4996"/>
<text text-anchor="start" x="1623.5" y="-311.5" font-family="Helvetica,sans-Serif" font-size="10.00" fill="#000000"> &lt; BatchRichardson&lt;</text>
<text text-anchor="middle" x="1692" y="-300.5" font-family="Helvetica,sans-Serif" font-size="10.00" fill="#000000"> ValueType &gt;, BatchLinOp &gt;</text>
</g>
<!-- Node28 -->
<g id="node22" class="node">
<title>Node28</title>
<g id="a_node22"><a xlink:href="classgko_1_1EnableBatchLinOp.html" target="_top" xlink:title=" ">
<polygon fill="#ffffff" stroke="#000000" points="1788.5,-223 1788.5,-264 1957.5,-264 1957.5,-223 1788.5,-223"/>
<text text-anchor="start" x="1796.5" y="-252" font-family="Helvetica,sans-Serif" font-size="10.00" fill="#000000">gko::EnableBatchLinOp</text>
<text text-anchor="start" x="1796.5" y="-241" font-family="Helvetica,sans-Serif" font-size="10.00" fill="#000000">&lt; ConcreteSolver, Polymorphic</text>
<text text-anchor="middle" x="1873" y="-230" font-family="Helvetica,sans-Serif" font-size="10.00" fill="#000000">Base &gt;</text>
</a>
</g>
</g>
<!-- Node20&#45;&gt;Node28 -->
<g id="edge36" class="edge">
<title>Node20&#45;&gt;Node28</title>
<path fill="none" stroke="#ffa500" stroke-dasharray="5,2" d="M1605.9332,-262.8466C1608.6496,-262.3608 1611.3448,-261.9092 1614,-261.5 1671.8007,-252.5915 1737.5431,-248.0894 1788.3289,-245.8155"/>
<polygon fill="#ffa500" stroke="#ffa500" points="1605.2027,-259.4228 1596.0394,-264.7411 1606.5192,-266.2979 1605.2027,-259.4228"/>
<text text-anchor="start" x="1614" y="-275.5" font-family="Helvetica,sans-Serif" font-size="10.00" fill="#000000"> &lt; ConcreteSolver, Polymorphic</text>
<text text-anchor="middle" x="1692" y="-264.5" font-family="Helvetica,sans-Serif" font-size="10.00" fill="#000000">Base &gt;</text>
</g>
<!-- Node21&#45;&gt;Node20 -->
<g id="edge16" class="edge">
<title>Node21&#45;&gt;Node20</title>
<path fill="none" stroke="#191970" d="M1434.5159,-283.3918C1445.2444,-283.1815 1455.8913,-282.9727 1465.98,-282.7749"/>
<polygon fill="#191970" stroke="#191970" points="1434.1497,-279.8983 1424.2203,-283.5937 1434.287,-286.8969 1434.1497,-279.8983"/>
</g>
<!-- Node22&#45;&gt;Node21 -->
<g id="edge17" class="edge">
<title>Node22&#45;&gt;Node21</title>
<path fill="none" stroke="#191970" d="M807.6719,-250.8615C908.2421,-242.8682 1069.2698,-235.4513 1207,-253.5 1225.1718,-255.8813 1244.5057,-260.2091 1262.2268,-264.9283"/>
<polygon fill="#191970" stroke="#191970" points="807.211,-247.3873 797.5274,-251.6861 807.7782,-254.3643 807.211,-247.3873"/>
</g>
<!-- Node23&#45;&gt;Node20 -->
<g id="edge20" class="edge">
<title>Node23&#45;&gt;Node20</title>
<path fill="none" stroke="#191970" d="M1424.043,-132.8607C1425.7464,-134.01 1427.4015,-135.222 1429,-136.5 1458.3435,-159.9589 1444.654,-181.5855 1466,-212.5 1478.2498,-230.2409 1494.9834,-247.8932 1508.4041,-260.902"/>
<polygon fill="#191970" stroke="#191970" points="1425.5508,-129.6866 1415.1593,-127.6205 1421.9943,-135.7158 1425.5508,-129.6866"/>
</g>
<!-- Node24&#45;&gt;Node23 -->
<g id="edge21" class="edge">
<title>Node24&#45;&gt;Node23</title>
<path fill="none" stroke="#191970" d="M1009.6028,-54.5365C1079.1381,-47.3075 1174.2155,-41.6013 1207,-59.5 1219.9849,-66.5891 1212.9587,-78.9052 1225,-87.5 1230.4166,-91.3662 1236.3621,-94.6382 1242.5756,-97.4067"/>
<polygon fill="#191970" stroke="#191970" points="1009.1109,-51.0691 999.5393,-55.6115 1009.8545,-58.0295 1009.1109,-51.0691"/>
</g>
<!-- Node25 -->
<g id="node19" class="node">
<title>Node25</title>
<g id="a_node19"><a xlink:href="classgko_1_1EnableBatchScaling.html" target="_top" xlink:title="Default batch scalable interface with some type&#45;checking.">
<polygon fill="#ffffff" stroke="#000000" points="1804.5,-184 1804.5,-203 1941.5,-203 1941.5,-184 1804.5,-184"/>
<text text-anchor="middle" x="1873" y="-191" font-family="Helvetica,sans-Serif" font-size="10.00" fill="#000000">gko::EnableBatchScaling</text>
</a>
</g>
</g>
<!-- Node25&#45;&gt;Node2 -->
<g id="edge24" class="edge">
<title>Node25&#45;&gt;Node2</title>
<path fill="none" stroke="#191970" d="M1951.5966,-197.8723C2003.0057,-201.0754 2071.5884,-205.9971 2132,-212.5 2179.0884,-217.5688 2231.8384,-225.0688 2272.8163,-231.3016"/>
<polygon fill="#191970" stroke="#191970" points="1951.7473,-194.375 1941.5513,-197.2546 1951.3176,-201.3618 1951.7473,-194.375"/>
</g>
<!-- Node27 -->
<g id="node21" class="node">
<title>Node27</title>
<g id="a_node21"><a xlink:href="classgko_1_1solver_1_1EnableBatchSolver.html" target="_top" xlink:title=" ">
<polygon fill="#ffffff" stroke="#000000" points="1995,-222 1995,-263 2132,-263 2132,-222 1995,-222"/>
<text text-anchor="start" x="2003" y="-251" font-family="Helvetica,sans-Serif" font-size="10.00" fill="#000000">gko::solver::EnableBatch</text>
<text text-anchor="start" x="2003" y="-240" font-family="Helvetica,sans-Serif" font-size="10.00" fill="#000000">Solver&lt; ConcreteSolver,</text>
<text text-anchor="middle" x="2063.5" y="-229" font-family="Helvetica,sans-Serif" font-size="10.00" fill="#000000"> PolymorphicBase &gt;</text>
</a>
</g>
</g>
<!-- Node25&#45;&gt;Node27 -->
<g id="edge37" class="edge">
<title>Node25&#45;&gt;Node27</title>
<path fill="none" stroke="#191970" d="M1924.8874,-205.3852C1935.8407,-207.9847 1947.3154,-210.7755 1958,-213.5 1969.9641,-216.5508 1982.6541,-219.9219 1994.9301,-223.2541"/>
<polygon fill="#191970" stroke="#191970" points="1925.5485,-201.9452 1915.0124,-203.0591 1923.9435,-208.7587 1925.5485,-201.9452"/>
</g>
<!-- Node26 -->
<g id="node20" class="node">
<title>Node26</title>
<g id="a_node20"><a xlink:href="classgko_1_1BatchScalable.html" target="_top" xlink:title="A batch made up of entities that can scaled from the left and right by scaling vectors.">
<polygon fill="#ffffff" stroke="#000000" points="1476,-184 1476,-203 1586,-203 1586,-184 1476,-184"/>
<text text-anchor="middle" x="1531" y="-191" font-family="Helvetica,sans-Serif" font-size="10.00" fill="#000000">gko::BatchScalable</text>
</a>
</g>
</g>
<!-- Node26&#45;&gt;Node25 -->
<g id="edge25" class="edge">
<title>Node26&#45;&gt;Node25</title>
<path fill="none" stroke="#191970" d="M1596.3872,-193.5C1656.0378,-193.5 1743.8691,-193.5 1804.4813,-193.5"/>
<polygon fill="#191970" stroke="#191970" points="1596.3283,-190.0001 1586.3283,-193.5 1596.3283,-197.0001 1596.3283,-190.0001"/>
</g>
<!-- Node27&#45;&gt;Node2 -->
<g id="edge26" class="edge">
<title>Node27&#45;&gt;Node2</title>
<path fill="none" stroke="#ffa500" stroke-dasharray="5,2" d="M2142.4415,-242.5C2183.379,-242.5 2232.9645,-242.5 2272.5888,-242.5"/>
<polygon fill="#ffa500" stroke="#ffa500" points="2142.2314,-239.0001 2132.2314,-242.5 2142.2313,-246.0001 2142.2314,-239.0001"/>
<text text-anchor="start" x="2150" y="-256.5" font-family="Helvetica,sans-Serif" font-size="10.00" fill="#000000"> &lt; BatchRichardson&lt;</text>
<text text-anchor="middle" x="2202.5" y="-245.5" font-family="Helvetica,sans-Serif" font-size="10.00" fill="#000000"> ValueType &gt; &gt;</text>
</g>
<!-- Node28&#45;&gt;Node27 -->
<g id="edge27" class="edge">
<title>Node28&#45;&gt;Node27</title>
<path fill="none" stroke="#191970" d="M1967.8918,-243.0019C1976.9666,-242.9542 1986.0458,-242.9066 1994.7998,-242.8606"/>
<polygon fill="#191970" stroke="#191970" points="1967.6469,-239.503 1957.6655,-243.0556 1967.6837,-246.5029 1967.6469,-239.503"/>
</g>
<!-- Node29&#45;&gt;Node28 -->
<g id="edge28" class="edge">
<title>Node29&#45;&gt;Node28</title>
<path fill="none" stroke="#191970" d="M1439.2521,-233.1727C1542.9362,-235.6413 1694.6705,-239.2541 1788.4548,-241.487"/>
<polygon fill="#191970" stroke="#191970" points="1439.1384,-229.6691 1429.0579,-232.93 1438.9717,-236.6671 1439.1384,-229.6691"/>
</g>
<!-- Node30&#45;&gt;Node29 -->
<g id="edge29" class="edge">
<title>Node30&#45;&gt;Node29</title>
<path fill="none" stroke="#191970" d="M820.6279,-213.4754C921.3541,-216.271 1074.1791,-220.7287 1207,-225.5 1212.8346,-225.7096 1218.8285,-225.9332 1224.8769,-226.1651"/>
<polygon fill="#191970" stroke="#191970" points="820.5304,-209.9715 810.4373,-213.1933 820.3366,-216.9688 820.5304,-209.9715"/>
</g>
<!-- Node31&#45;&gt;Node28 -->
<g id="edge32" class="edge">
<title>Node31&#45;&gt;Node28</title>
<path fill="none" stroke="#191970" d="M1433.3387,-61.8808C1531.6528,-65.9646 1676.2967,-86.8878 1770,-167.5 1786.3295,-181.5481 1772.5358,-197.5047 1788,-212.5 1792.0596,-216.4365 1796.6584,-219.8789 1801.5644,-222.8883"/>
<polygon fill="#191970" stroke="#191970" points="1433.1997,-58.3736 1423.0793,-61.5086 1432.9458,-65.369 1433.1997,-58.3736"/>
</g>
<!-- Node32&#45;&gt;Node31 -->
<g id="edge33" class="edge">
<title>Node32&#45;&gt;Node31</title>
<path fill="none" stroke="#191970" d="M997.1578,-21.5013C1053.2342,-26.7871 1135.482,-35.0943 1207,-44.5 1216.2016,-45.7102 1225.7851,-47.0656 1235.3474,-48.4806"/>
<polygon fill="#191970" stroke="#191970" points="997.283,-17.9978 987.0002,-20.5499 996.6302,-24.9673 997.283,-17.9978"/>
</g>
<!-- Node33 -->
<g id="node27" class="node">
<title>Node33</title>
<g id="a_node27"><a xlink:href="classgko_1_1BatchTransposable.html" target="_top" xlink:title="Batch Linear operators which support transposition of the distinct batch entries should implement the...">
<polygon fill="#ffffff" stroke="#000000" points="2277,-184 2277,-203 2409,-203 2409,-184 2277,-184"/>
<text text-anchor="middle" x="2343" y="-191" font-family="Helvetica,sans-Serif" font-size="10.00" fill="#000000">gko::BatchTransposable</text>
</a>
</g>
</g>
<!-- Node33&#45;&gt;Node1 -->
<g id="edge38" class="edge">
<title>Node33&#45;&gt;Node1</title>
<path fill="none" stroke="#191970" d="M2419.0967,-198.4095C2429.2033,-199.0615 2439.5856,-199.7313 2449.7442,-200.3867"/>
<polygon fill="#191970" stroke="#191970" points="2419.305,-194.9157 2409.1004,-197.7645 2418.8542,-201.9012 2419.305,-194.9157"/>
</g>
</g>
</svg>
        <g id="navigator" transform="translate(0 0)" fill="#404254">
                <rect fill="#f2f5e9" fill-opacity="0.5" stroke="#606060" stroke-width=".5" x="0" y="0" width="60" height="60"/>
                <use id="zoomplus" xlink:href="#zoomPlus" x="17" y="9" onmousedown="handleZoom(evt,'in')"/>
                <use id="zoomminus" xlink:href="#zoomMin" x="42" y="9" onmousedown="handleZoom(evt,'out')"/>
                <use id="reset" xlink:href="#resetDef" x="30" y="36" onmousedown="handleReset()"/>
                <g id="arrowUp" xlink:href="#dirArrow" transform="translate(30 24)" onmousedown="handlePan(0,-1)">
                  <use xlink:href="#rim" fill="#404040">
                        <set attributeName="fill" to="#808080" begin="arrowUp.mouseover" end="arrowUp.mouseout"/>
                  </use>
                  <path fill="none" stroke="white" stroke-width="1.5" d="M0,-3.0v7 M-2.5,-0.5L0,-3.0L2.5,-0.5"/>
                </g>
                <g id="arrowRight" xlink:href="#dirArrow" transform="rotate(90) translate(36 -43)" onmousedown="handlePan(1,0)">
                  <use xlink:href="#rim" fill="#404040">
                        <set attributeName="fill" to="#808080" begin="arrowRight.mouseover" end="arrowRight.mouseout"/>
                  </use>
                  <path fill="none" stroke="white" stroke-width="1.5" d="M0,-3.0v7 M-2.5,-0.5L0,-3.0L2.5,-0.5"/>
                </g>
                <g id="arrowDown" xlink:href="#dirArrow" transform="rotate(180) translate(-30 -48)" onmousedown="handlePan(0,1)">
                  <use xlink:href="#rim" fill="#404040">
                        <set attributeName="fill" to="#808080" begin="arrowDown.mouseover" end="arrowDown.mouseout"/>
                  </use>
                  <path fill="none" stroke="white" stroke-width="1.5" d="M0,-3.0v7 M-2.5,-0.5L0,-3.0L2.5,-0.5"/>
                </g>
                <g id="arrowLeft" xlink:href="#dirArrow" transform="rotate(270) translate(-36 17)" onmousedown="handlePan(-1,0)">
                  <use xlink:href="#rim" fill="#404040">
                        <set attributeName="fill" to="#808080" begin="arrowLeft.mouseover" end="arrowLeft.mouseout"/>
                  </use>
                  <path fill="none" stroke="white" stroke-width="1.5" d="M0,-3.0v7 M-2.5,-0.5L0,-3.0L2.5,-0.5"/>
                </g>
        </g>
        <svg viewBox="0 0 15 15" width="100%" height="30px" preserveAspectRatio="xMaxYMin meet">
         <g id="arrow_out" transform="scale(0.3 0.3)">
          <a xlink:href="classgko_1_1solver_1_1BatchRichardson__coll__graph_org.svg" target="_base">
           <rect id="button" ry="5" rx="5" y="6" x="6" height="38" width="38"
                fill="#f2f5e9" fill-opacity="0.5" stroke="#606060" stroke-width="1.0"/>
           <path id="arrow"
             d="M 11.500037,31.436501 C 11.940474,20.09759 22.043105,11.32322 32.158766,21.979434 L 37.068811,17.246167 C 37.068811,17.246167 37.088388,32 37.088388,32 L 22.160133,31.978069 C 22.160133,31.978069 26.997745,27.140456 26.997745,27.140456 C 18.528582,18.264221 13.291696,25.230495 11.500037,31.436501 z"
             style="fill:#404040;"/>
          </a>
         </g>
        </svg>
</svg>
