<?xml version="1.0" encoding="UTF-8" standalone="no"?>
<!DOCTYPE svg PUBLIC "-//W3C//DTD SVG 1.1//EN"
 "http://www.w3.org/Graphics/SVG/1.1/DTD/svg11.dtd">
<!-- Generated by graphviz version 2.40.1 (20161225.0304)
 -->
<!-- Title: gko::solver::BatchDirect&lt; ValueType &gt; Pages: 1 -->
<svg width="2252pt" height="348pt"
 viewBox="0.00 0.00 2252.00 348.14" xmlns="http://www.w3.org/2000/svg" xmlns:xlink="http://www.w3.org/1999/xlink">
<g id="graph0" class="graph" transform="scale(1 1) rotate(0) translate(4 344.1433)">
<title>gko::solver::BatchDirect&lt; ValueType &gt;</title>
<polygon fill="#ffffff" stroke="transparent" points="-4,4 -4,-344.1433 2248,-344.1433 2248,4 -4,4"/>
<!-- Node1 -->
<g id="node1" class="node">
<title>Node1</title>
<g id="a_node1"><a xlink:title="Solves a batch of linear systems using a vendor&#45;provided dense batched direct solver.">
<polygon fill="#bfbfbf" stroke="#000000" points="2110,-89.6433 2110,-119.6433 2244,-119.6433 2244,-89.6433 2110,-89.6433"/>
<text text-anchor="start" x="2118" y="-107.6433" font-family="Helvetica,sans-Serif" font-size="10.00" fill="#000000">gko::solver::BatchDirect</text>
<text text-anchor="middle" x="2177" y="-96.6433" font-family="Helvetica,sans-Serif" font-size="10.00" fill="#000000">&lt; ValueType &gt;</text>
</a>
</g>
</g>
<!-- Node2 -->
<g id="node2" class="node">
<title>Node2</title>
<g id="a_node2"><a xlink:href="classgko_1_1EnableBatchLinOp.html" target="_top" xlink:title=" ">
<polygon fill="#ffffff" stroke="#000000" points="1905,-134.6433 1905,-164.6433 2073,-164.6433 2073,-134.6433 1905,-134.6433"/>
<text text-anchor="start" x="1913" y="-152.6433" font-family="Helvetica,sans-Serif" font-size="10.00" fill="#000000">gko::EnableBatchLinOp</text>
<text text-anchor="middle" x="1989" y="-141.6433" font-family="Helvetica,sans-Serif" font-size="10.00" fill="#000000">&lt; BatchDirect&lt; ValueType &gt; &gt;</text>
</a>
</g>
</g>
<!-- Node2&#45;&gt;Node1 -->
<g id="edge1" class="edge">
<title>Node2&#45;&gt;Node1</title>
<path fill="none" stroke="#191970" d="M2061.8933,-132.1955C2079.1581,-128.0629 2097.4246,-123.6906 2114.1966,-119.6761"/>
<polygon fill="#191970" stroke="#191970" points="2060.7732,-128.8646 2051.8627,-134.5964 2062.4027,-135.6723 2060.7732,-128.8646"/>
</g>
<!-- Node3 -->
<g id="node3" class="node">
<title>Node3</title>
<g id="a_node3"><a xlink:href="classgko_1_1EnablePolymorphicObject.html" target="_top" xlink:title=" ">
<polygon fill="#ffffff" stroke="#000000" points="1548,-101.1433 1548,-142.1433 1714,-142.1433 1714,-101.1433 1548,-101.1433"/>
<text text-anchor="start" x="1556" y="-130.1433" font-family="Helvetica,sans-Serif" font-size="10.00" fill="#000000">gko::EnablePolymorphicObject</text>
<text text-anchor="start" x="1556" y="-119.1433" font-family="Helvetica,sans-Serif" font-size="10.00" fill="#000000">&lt; BatchDirect&lt; ValueType</text>
<text text-anchor="middle" x="1631" y="-108.1433" font-family="Helvetica,sans-Serif" font-size="10.00" fill="#000000"> &gt;, BatchLinOp &gt;</text>
</a>
</g>
</g>
<!-- Node3&#45;&gt;Node2 -->
<g id="edge2" class="edge">
<title>Node3&#45;&gt;Node2</title>
<path fill="none" stroke="#191970" d="M1724.2924,-128.94C1780.1899,-133.3118 1850.6834,-138.8253 1904.867,-143.0631"/>
<polygon fill="#191970" stroke="#191970" points="1724.2747,-125.428 1714.0322,-128.1375 1723.7288,-132.4067 1724.2747,-125.428"/>
</g>
<!-- Node4 -->
<g id="node4" class="node">
<title>Node4</title>
<g id="a_node4"><a xlink:href="classgko_1_1EnableAbstractPolymorphicObject.html" target="_top" xlink:title=" ">
<polygon fill="#ffffff" stroke="#000000" points="1325.5,-162.1433 1325.5,-203.1433 1502.5,-203.1433 1502.5,-162.1433 1325.5,-162.1433"/>
<text text-anchor="start" x="1333.5" y="-191.1433" font-family="Helvetica,sans-Serif" font-size="10.00" fill="#000000">gko::EnableAbstractPolymorphic</text>
<text text-anchor="start" x="1333.5" y="-180.1433" font-family="Helvetica,sans-Serif" font-size="10.00" fill="#000000">Object&lt; BatchDirect&lt; ValueType</text>
<text text-anchor="middle" x="1414" y="-169.1433" font-family="Helvetica,sans-Serif" font-size="10.00" fill="#000000"> &gt;, BatchLinOp &gt;</text>
</a>
</g>
</g>
<!-- Node4&#45;&gt;Node3 -->
<g id="edge3" class="edge">
<title>Node4&#45;&gt;Node3</title>
<path fill="none" stroke="#191970" d="M1496.8921,-159.3419C1516.9377,-153.7069 1538.2201,-147.7243 1557.7848,-142.2246"/>
<polygon fill="#191970" stroke="#191970" points="1495.8435,-156.0009 1487.1638,-162.0766 1497.7378,-162.7397 1495.8435,-156.0009"/>
</g>
<!-- Node5 -->
<g id="node5" class="node">
<title>Node5</title>
<g id="a_node5"><a xlink:href="classgko_1_1BatchLinOp.html" target="_top" xlink:title=" ">
<polygon fill="#ffffff" stroke="#000000" points="975.5,-133.1433 975.5,-152.1433 1071.5,-152.1433 1071.5,-133.1433 975.5,-133.1433"/>
<text text-anchor="middle" x="1023.5" y="-140.1433" font-family="Helvetica,sans-Serif" font-size="10.00" fill="#000000">gko::BatchLinOp</text>
</a>
</g>
</g>
<!-- Node5&#45;&gt;Node4 -->
<g id="edge4" class="edge">
<title>Node5&#45;&gt;Node4</title>
<path fill="none" stroke="#191970" d="M1081.8658,-147.6903C1137.6627,-152.6241 1224.132,-160.5549 1299,-168.6433 1307.4984,-169.5615 1316.3447,-170.5606 1325.189,-171.5886"/>
<polygon fill="#191970" stroke="#191970" points="1082.0827,-144.1959 1071.814,-146.8045 1081.4681,-151.1689 1082.0827,-144.1959"/>
</g>
<!-- Node6 -->
<g id="node6" class="node">
<title>Node6</title>
<g id="a_node6"><a xlink:href="classgko_1_1EnableAbstractPolymorphicObject.html" target="_top" xlink:title=" ">
<polygon fill="#ffffff" stroke="#ff0000" points="542,-123.6433 542,-153.6433 717,-153.6433 717,-123.6433 542,-123.6433"/>
<text text-anchor="start" x="550" y="-141.6433" font-family="Helvetica,sans-Serif" font-size="10.00" fill="#000000">gko::EnableAbstractPolymorphic</text>
<text text-anchor="middle" x="629.5" y="-130.6433" font-family="Helvetica,sans-Serif" font-size="10.00" fill="#000000">Object&lt; BatchLinOp &gt;</text>
</a>
</g>
</g>
<!-- Node6&#45;&gt;Node5 -->
<g id="edge5" class="edge">
<title>Node6&#45;&gt;Node5</title>
<path fill="none" stroke="#191970" d="M727.8781,-139.6421C806.7672,-140.443 914.0911,-141.5326 975.355,-142.1546"/>
<polygon fill="#191970" stroke="#191970" points="727.4659,-136.1378 717.4309,-139.536 727.3948,-143.1375 727.4659,-136.1378"/>
</g>
<!-- Node12 -->
<g id="node7" class="node">
<title>Node12</title>
<g id="a_node7"><a xlink:href="classgko_1_1EnableAbstractPolymorphicObject.html" target="_top" xlink:title="This mixin inherits from (a subclass of) PolymorphicObject and provides a base implementation of a ne...">
<polygon fill="#ffffff" stroke="#000000" points="138,-82.1433 138,-123.1433 336,-123.1433 336,-82.1433 138,-82.1433"/>
<text text-anchor="start" x="146" y="-111.1433" font-family="Helvetica,sans-Serif" font-size="10.00" fill="#000000">gko::EnableAbstractPolymorphic</text>
<text text-anchor="start" x="146" y="-100.1433" font-family="Helvetica,sans-Serif" font-size="10.00" fill="#000000">Object&lt; AbstractObject, Polymorphic</text>
<text text-anchor="middle" x="237" y="-89.1433" font-family="Helvetica,sans-Serif" font-size="10.00" fill="#000000">Base &gt;</text>
</a>
</g>
</g>
<!-- Node12&#45;&gt;Node4 -->
<g id="edge8" class="edge">
<title>Node12&#45;&gt;Node4</title>
<path fill="none" stroke="#ffa500" stroke-dasharray="5,2" d="M289.893,-127.1866C309.6144,-135.33 332.4501,-143.5964 354,-148.6433 430.0064,-166.4439 451.0487,-159.4701 529,-163.6433 820.1931,-179.2328 1165.9286,-182.1506 1325.372,-182.6167"/>
<polygon fill="#ffa500" stroke="#ffa500" points="291.0549,-123.8781 280.481,-123.2135 288.3326,-130.3271 291.0549,-123.8781"/>
<text text-anchor="start" x="759" y="-190.6433" font-family="Helvetica,sans-Serif" font-size="10.00" fill="#000000"> &lt; BatchDirect&lt; ValueType</text>
<text text-anchor="middle" x="825.5" y="-179.6433" font-family="Helvetica,sans-Serif" font-size="10.00" fill="#000000"> &gt;, BatchLinOp &gt;</text>
</g>
<!-- Node12&#45;&gt;Node6 -->
<g id="edge6" class="edge">
<title>Node12&#45;&gt;Node6</title>
<path fill="none" stroke="#ffa500" stroke-dasharray="5,2" d="M346.2714,-120.7387C348.8708,-121.056 351.45,-121.3583 354,-121.6433 416.6259,-128.643 487.6066,-132.9372 541.8344,-135.4585"/>
<polygon fill="#ffa500" stroke="#ffa500" points="346.5267,-117.243 336.1634,-119.4459 345.6385,-124.1864 346.5267,-117.243"/>
<text text-anchor="middle" x="432.5" y="-136.6433" font-family="Helvetica,sans-Serif" font-size="10.00" fill="#000000"> &lt; BatchLinOp &gt;</text>
</g>
<!-- Node14 -->
<g id="node10" class="node">
<title>Node14</title>
<g id="a_node10"><a xlink:href="classgko_1_1EnableAbstractPolymorphicObject.html" target="_top" xlink:title=" ">
<polygon fill="#ffffff" stroke="#000000" points="529,-63.1433 529,-104.1433 730,-104.1433 730,-63.1433 529,-63.1433"/>
<text text-anchor="start" x="537" y="-92.1433" font-family="Helvetica,sans-Serif" font-size="10.00" fill="#000000">gko::EnableAbstractPolymorphic</text>
<text text-anchor="start" x="537" y="-81.1433" font-family="Helvetica,sans-Serif" font-size="10.00" fill="#000000">Object&lt; ConcreteObject, Polymorphic</text>
<text text-anchor="middle" x="629.5" y="-70.1433" font-family="Helvetica,sans-Serif" font-size="10.00" fill="#000000">Base &gt;</text>
</a>
</g>
</g>
<!-- Node12&#45;&gt;Node14 -->
<g id="edge12" class="edge">
<title>Node12&#45;&gt;Node14</title>
<path fill="none" stroke="#ffa500" stroke-dasharray="5,2" d="M346.2032,-97.3571C403.3756,-94.5895 472.9091,-91.2235 528.78,-88.519"/>
<polygon fill="#ffa500" stroke="#ffa500" points="345.8634,-93.8693 336.0443,-97.8488 346.2019,-100.8611 345.8634,-93.8693"/>
<text text-anchor="start" x="354" y="-109.6433" font-family="Helvetica,sans-Serif" font-size="10.00" fill="#000000"> &lt; ConcreteObject, Polymorphic</text>
<text text-anchor="middle" x="432.5" y="-98.6433" font-family="Helvetica,sans-Serif" font-size="10.00" fill="#000000">Base &gt;</text>
</g>
<!-- Node21 -->
<g id="node17" class="node">
<title>Node21</title>
<g id="a_node17"><a xlink:href="classgko_1_1EnableAbstractPolymorphicObject.html" target="_top" xlink:title=" ">
<polygon fill="#ffffff" stroke="#000000" points="542,-3.1433 542,-44.1433 717,-44.1433 717,-3.1433 542,-3.1433"/>
<text text-anchor="start" x="550" y="-32.1433" font-family="Helvetica,sans-Serif" font-size="10.00" fill="#000000">gko::EnableAbstractPolymorphic</text>
<text text-anchor="start" x="550" y="-21.1433" font-family="Helvetica,sans-Serif" font-size="10.00" fill="#000000">Object&lt; ConcreteBatchLinOp,</text>
<text text-anchor="middle" x="629.5" y="-10.1433" font-family="Helvetica,sans-Serif" font-size="10.00" fill="#000000"> PolymorphicBase &gt;</text>
</a>
</g>
</g>
<!-- Node12&#45;&gt;Node21 -->
<g id="edge22" class="edge">
<title>Node12&#45;&gt;Node21</title>
<path fill="none" stroke="#ffa500" stroke-dasharray="5,2" d="M301.7934,-78.7708C318.6233,-73.2 336.8463,-67.7135 354,-63.6433 416.074,-48.9147 487.3811,-38.7402 541.8961,-32.3393"/>
<polygon fill="#ffa500" stroke="#ffa500" points="300.422,-75.5395 292.0639,-82.0504 302.658,-82.1728 300.422,-75.5395"/>
<text text-anchor="start" x="374" y="-77.6433" font-family="Helvetica,sans-Serif" font-size="10.00" fill="#000000"> &lt; ConcreteBatchLinOp,</text>
<text text-anchor="middle" x="432.5" y="-66.6433" font-family="Helvetica,sans-Serif" font-size="10.00" fill="#000000"> PolymorphicBase &gt;</text>
</g>
<!-- Node11 -->
<g id="node8" class="node">
<title>Node11</title>
<g id="a_node8"><a xlink:title=" ">
<polygon fill="#ffffff" stroke="#bfbfbf" points="0,-15.1433 0,-34.1433 101,-34.1433 101,-15.1433 0,-15.1433"/>
<text text-anchor="middle" x="50.5" y="-22.1433" font-family="Helvetica,sans-Serif" font-size="10.00" fill="#000000">PolymorphicBase</text>
</a>
</g>
</g>
<!-- Node11&#45;&gt;Node12 -->
<g id="edge7" class="edge">
<title>Node11&#45;&gt;Node12</title>
<path fill="none" stroke="#191970" d="M82.5985,-38.0679C111.5007,-50.1557 154.4214,-68.1064 187.6791,-82.0158"/>
<polygon fill="#191970" stroke="#191970" points="83.9447,-34.8372 73.3686,-34.2077 81.2437,-41.2952 83.9447,-34.8372"/>
</g>
<!-- Node11&#45;&gt;Node14 -->
<g id="edge11" class="edge">
<title>Node11&#45;&gt;Node14</title>
<path fill="none" stroke="#191970" d="M111.3499,-21.6244C219.3143,-17.0695 439.7293,-11.6079 511,-38.6433 520.7367,-42.3368 519.8235,-48.7202 529,-53.6433 535.4984,-57.1297 542.456,-60.2638 549.5648,-63.0698"/>
<polygon fill="#191970" stroke="#191970" points="111.1008,-18.1318 101.2616,-22.0612 111.4037,-25.1253 111.1008,-18.1318"/>
</g>
<!-- Node11&#45;&gt;Node21 -->
<g id="edge21" class="edge">
<title>Node11&#45;&gt;Node21</title>
<path fill="none" stroke="#191970" d="M100.0089,-13.2993C106.37,-12.2035 112.8183,-11.2686 119,-10.6433 292.3378,6.8888 337.0377,-1.1296 511,-10.6433 521.0228,-11.1915 531.5011,-11.9985 541.9026,-12.9467"/>
<polygon fill="#191970" stroke="#191970" points="99.3286,-9.8657 90.1355,-15.1322 100.6063,-16.7481 99.3286,-9.8657"/>
</g>
<!-- Node13 -->
<g id="node9" class="node">
<title>Node13</title>
<g id="a_node9"><a xlink:href="classgko_1_1EnablePolymorphicObject.html" target="_top" xlink:title="This mixin inherits from (a subclass of) PolymorphicObject and provides a base implementation of a ne...">
<polygon fill="#ffffff" stroke="#000000" points="921,-68.6433 921,-98.6433 1126,-98.6433 1126,-68.6433 921,-68.6433"/>
<text text-anchor="start" x="929" y="-86.6433" font-family="Helvetica,sans-Serif" font-size="10.00" fill="#000000">gko::EnablePolymorphicObject</text>
<text text-anchor="middle" x="1023.5" y="-75.6433" font-family="Helvetica,sans-Serif" font-size="10.00" fill="#000000">&lt; ConcreteObject, PolymorphicBase &gt;</text>
</a>
</g>
</g>
<!-- Node13&#45;&gt;Node3 -->
<g id="edge9" class="edge">
<title>Node13&#45;&gt;Node3</title>
<path fill="none" stroke="#ffa500" stroke-dasharray="5,2" d="M1120.8019,-99.9861C1128.6365,-100.9966 1136.4417,-101.9026 1144,-102.6433 1285.2614,-116.4875 1450.5028,-120.3465 1547.642,-121.3619"/>
<polygon fill="#ffa500" stroke="#ffa500" points="1121.2553,-96.5157 1110.8787,-98.6549 1120.3245,-103.4535 1121.2553,-96.5157"/>
<text text-anchor="start" x="1347.5" y="-134.6433" font-family="Helvetica,sans-Serif" font-size="10.00" fill="#000000"> &lt; BatchDirect&lt; ValueType</text>
<text text-anchor="middle" x="1414" y="-123.6433" font-family="Helvetica,sans-Serif" font-size="10.00" fill="#000000"> &gt;, BatchLinOp &gt;</text>
</g>
<!-- Node20 -->
<g id="node16" class="node">
<title>Node20</title>
<g id="a_node16"><a xlink:href="classgko_1_1EnablePolymorphicObject.html" target="_top" xlink:title=" ">
<polygon fill="#ffffff" stroke="#000000" points="1317,-44.1433 1317,-85.1433 1511,-85.1433 1511,-44.1433 1317,-44.1433"/>
<text text-anchor="start" x="1325" y="-73.1433" font-family="Helvetica,sans-Serif" font-size="10.00" fill="#000000">gko::EnablePolymorphicObject</text>
<text text-anchor="start" x="1325" y="-62.1433" font-family="Helvetica,sans-Serif" font-size="10.00" fill="#000000">&lt; ConcreteBatchLinOp, Polymorphic</text>
<text text-anchor="middle" x="1414" y="-51.1433" font-family="Helvetica,sans-Serif" font-size="10.00" fill="#000000">Base &gt;</text>
</a>
</g>
</g>
<!-- Node13&#45;&gt;Node20 -->
<g id="edge23" class="edge">
<title>Node13&#45;&gt;Node20</title>
<path fill="none" stroke="#ffa500" stroke-dasharray="5,2" d="M1136.2569,-78.1571C1193.3728,-75.3781 1262.0285,-72.0376 1316.7897,-69.3732"/>
<polygon fill="#ffa500" stroke="#ffa500" points="1135.9173,-74.6694 1126.0993,-78.6513 1136.2576,-81.6611 1135.9173,-74.6694"/>
<text text-anchor="start" x="1163" y="-90.6433" font-family="Helvetica,sans-Serif" font-size="10.00" fill="#000000"> &lt; ConcreteBatchLinOp,</text>
<text text-anchor="middle" x="1221.5" y="-79.6433" font-family="Helvetica,sans-Serif" font-size="10.00" fill="#000000"> PolymorphicBase &gt;</text>
</g>
<!-- Node14&#45;&gt;Node13 -->
<g id="edge10" class="edge">
<title>Node14&#45;&gt;Node13</title>
<path fill="none" stroke="#191970" d="M740.274,-83.6433C796.9577,-83.6433 865.507,-83.6433 920.9683,-83.6433"/>
<polygon fill="#191970" stroke="#191970" points="740.1977,-80.1434 730.1976,-83.6433 740.1976,-87.1434 740.1977,-80.1434"/>
</g>
<!-- Node15 -->
<g id="node11" class="node">
<title>Node15</title>
<g id="a_node11"><a xlink:href="classgko_1_1EnablePolymorphicAssignment.html" target="_top" xlink:title=" ">
<polygon fill="#ffffff" stroke="#000000" points="1318,-278.6433 1318,-308.6433 1510,-308.6433 1510,-278.6433 1318,-278.6433"/>
<text text-anchor="start" x="1326" y="-296.6433" font-family="Helvetica,sans-Serif" font-size="10.00" fill="#000000">gko::EnablePolymorphicAssignment</text>
<text text-anchor="middle" x="1414" y="-285.6433" font-family="Helvetica,sans-Serif" font-size="10.00" fill="#000000">&lt; BatchDirect&lt; ValueType &gt; &gt;</text>
</a>
</g>
</g>
<!-- Node15&#45;&gt;Node2 -->
<g id="edge13" class="edge">
<title>Node15&#45;&gt;Node2</title>
<path fill="none" stroke="#191970" d="M1504.6614,-276.6549C1600.5164,-257.8764 1755.7146,-225.1392 1887,-186.6433 1908.5108,-180.3359 1932.0634,-171.8974 1951.1116,-164.6721"/>
<polygon fill="#191970" stroke="#191970" points="1503.8562,-273.2459 1494.7113,-278.5957 1505.1964,-280.1164 1503.8562,-273.2459"/>
</g>
<!-- Node16 -->
<g id="node12" class="node">
<title>Node16</title>
<g id="a_node12"><a xlink:href="classgko_1_1ConvertibleTo.html" target="_top" xlink:title=" ">
<polygon fill="#ffffff" stroke="#000000" points="939.5,-309.6433 939.5,-339.6433 1107.5,-339.6433 1107.5,-309.6433 939.5,-309.6433"/>
<text text-anchor="start" x="947.5" y="-327.6433" font-family="Helvetica,sans-Serif" font-size="10.00" fill="#000000">gko::ConvertibleTo</text>
<text text-anchor="middle" x="1023.5" y="-316.6433" font-family="Helvetica,sans-Serif" font-size="10.00" fill="#000000">&lt; BatchDirect&lt; ValueType &gt; &gt;</text>
</a>
</g>
</g>
<!-- Node16&#45;&gt;Node15 -->
<g id="edge14" class="edge">
<title>Node16&#45;&gt;Node15</title>
<path fill="none" stroke="#191970" d="M1118.0784,-317.1352C1178.6473,-312.3269 1257.0083,-306.1062 1317.8765,-301.2741"/>
<polygon fill="#191970" stroke="#191970" points="1117.4435,-313.6745 1107.7519,-317.955 1117.9976,-320.6525 1117.4435,-313.6745"/>
</g>
<!-- Node17 -->
<g id="node13" class="node">
<title>Node17</title>
<g id="a_node13"><a xlink:href="classgko_1_1ConvertibleTo.html" target="_top" xlink:title="ConvertibleTo interface is used to mark that the implementer can be converted to the object of Result...">
<polygon fill="#ffffff" stroke="#000000" points="576,-260.6433 576,-290.6433 683,-290.6433 683,-260.6433 576,-260.6433"/>
<text text-anchor="start" x="584" y="-278.6433" font-family="Helvetica,sans-Serif" font-size="10.00" fill="#000000">gko::ConvertibleTo</text>
<text text-anchor="middle" x="629.5" y="-267.6433" font-family="Helvetica,sans-Serif" font-size="10.00" fill="#000000">&lt; ResultType &gt;</text>
</a>
</g>
</g>
<!-- Node17&#45;&gt;Node16 -->
<g id="edge15" class="edge">
<title>Node17&#45;&gt;Node16</title>
<path fill="none" stroke="#ffa500" stroke-dasharray="5,2" d="M693.0346,-283.5449C759.9424,-291.8659 865.6221,-305.0088 939.4043,-314.1847"/>
<polygon fill="#ffa500" stroke="#ffa500" points="693.4022,-280.0637 683.0466,-282.3027 692.5382,-287.0102 693.4022,-280.0637"/>
<text text-anchor="middle" x="825.5" y="-311.6433" font-family="Helvetica,sans-Serif" font-size="10.00" fill="#000000"> &lt; BatchDirect&lt; ValueType &gt; &gt;</text>
</g>
<!-- Node18 -->
<g id="node14" class="node">
<title>Node18</title>
<g id="a_node14"><a xlink:href="classgko_1_1EnablePolymorphicAssignment.html" target="_top" xlink:title="This mixin is used to enable a default PolymorphicObject::copy_from() implementation for objects that...">
<polygon fill="#ffffff" stroke="#000000" points="927.5,-260.6433 927.5,-290.6433 1119.5,-290.6433 1119.5,-260.6433 927.5,-260.6433"/>
<text text-anchor="start" x="935.5" y="-278.6433" font-family="Helvetica,sans-Serif" font-size="10.00" fill="#000000">gko::EnablePolymorphicAssignment</text>
<text text-anchor="middle" x="1023.5" y="-267.6433" font-family="Helvetica,sans-Serif" font-size="10.00" fill="#000000">&lt; ConcreteType, ResultType &gt;</text>
</a>
</g>
</g>
<!-- Node17&#45;&gt;Node18 -->
<g id="edge17" class="edge">
<title>Node17&#45;&gt;Node18</title>
<path fill="none" stroke="#191970" d="M693.2912,-275.6433C756.617,-275.6433 854.4912,-275.6433 927.263,-275.6433"/>
<polygon fill="#191970" stroke="#191970" points="693.0467,-272.1434 683.0466,-275.6433 693.0466,-279.1434 693.0467,-272.1434"/>
</g>
<!-- Node23 -->
<g id="node19" class="node">
<title>Node23</title>
<g id="a_node19"><a xlink:href="classgko_1_1ConvertibleTo.html" target="_top" xlink:title=" ">
<polygon fill="#ffffff" stroke="#000000" points="954.5,-211.6433 954.5,-241.6433 1092.5,-241.6433 1092.5,-211.6433 954.5,-211.6433"/>
<text text-anchor="start" x="962.5" y="-229.6433" font-family="Helvetica,sans-Serif" font-size="10.00" fill="#000000">gko::ConvertibleTo</text>
<text text-anchor="middle" x="1023.5" y="-218.6433" font-family="Helvetica,sans-Serif" font-size="10.00" fill="#000000">&lt; ConcreteBatchLinOp &gt;</text>
</a>
</g>
</g>
<!-- Node17&#45;&gt;Node23 -->
<g id="edge26" class="edge">
<title>Node17&#45;&gt;Node23</title>
<path fill="none" stroke="#ffa500" stroke-dasharray="5,2" d="M693.392,-267.5186C711.0788,-265.2796 730.2829,-262.8579 748,-260.6433 818.2963,-251.8565 898.7015,-241.9501 954.4276,-235.1071"/>
<polygon fill="#ffa500" stroke="#ffa500" points="692.6571,-264.0837 683.1763,-268.8129 693.537,-271.0282 692.6571,-264.0837"/>
<text text-anchor="middle" x="825.5" y="-263.6433" font-family="Helvetica,sans-Serif" font-size="10.00" fill="#000000"> &lt; ConcreteBatchLinOp &gt;</text>
</g>
<!-- Node18&#45;&gt;Node15 -->
<g id="edge16" class="edge">
<title>Node18&#45;&gt;Node15</title>
<path fill="none" stroke="#ffa500" stroke-dasharray="5,2" d="M1129.5681,-280.5325C1188.2472,-283.2373 1260.6134,-286.573 1317.6667,-289.2029"/>
<polygon fill="#ffa500" stroke="#ffa500" points="1129.6778,-277.034 1119.5272,-280.0697 1129.3554,-284.0265 1129.6778,-277.034"/>
<text text-anchor="middle" x="1221.5" y="-290.6433" font-family="Helvetica,sans-Serif" font-size="10.00" fill="#000000"> &lt; BatchDirect&lt; ValueType &gt; &gt;</text>
</g>
<!-- Node22 -->
<g id="node18" class="node">
<title>Node22</title>
<g id="a_node18"><a xlink:href="classgko_1_1EnablePolymorphicAssignment.html" target="_top" xlink:title=" ">
<polygon fill="#ffffff" stroke="#000000" points="1318,-222.6433 1318,-252.6433 1510,-252.6433 1510,-222.6433 1318,-222.6433"/>
<text text-anchor="start" x="1326" y="-240.6433" font-family="Helvetica,sans-Serif" font-size="10.00" fill="#000000">gko::EnablePolymorphicAssignment</text>
<text text-anchor="middle" x="1414" y="-229.6433" font-family="Helvetica,sans-Serif" font-size="10.00" fill="#000000">&lt; ConcreteBatchLinOp &gt;</text>
</a>
</g>
</g>
<!-- Node18&#45;&gt;Node22 -->
<g id="edge27" class="edge">
<title>Node18&#45;&gt;Node22</title>
<path fill="none" stroke="#ffa500" stroke-dasharray="5,2" d="M1129.5681,-265.3217C1188.2472,-259.6116 1260.6134,-252.5696 1317.6667,-247.0176"/>
<polygon fill="#ffa500" stroke="#ffa500" points="1129.1412,-261.8467 1119.5272,-266.2988 1129.8192,-268.8137 1129.1412,-261.8467"/>
<text text-anchor="middle" x="1221.5" y="-265.6433" font-family="Helvetica,sans-Serif" font-size="10.00" fill="#000000"> &lt; ConcreteBatchLinOp &gt;</text>
</g>
<!-- Node19 -->
<g id="node15" class="node">
<title>Node19</title>
<g id="a_node15"><a xlink:href="classgko_1_1EnableBatchLinOp.html" target="_top" xlink:title="The EnableBatchLinOp mixin can be used to provide sensible default implementations of the majority of...">
<polygon fill="#ffffff" stroke="#000000" points="1566,-161.1433 1566,-202.1433 1696,-202.1433 1696,-161.1433 1566,-161.1433"/>
<text text-anchor="start" x="1574" y="-190.1433" font-family="Helvetica,sans-Serif" font-size="10.00" fill="#000000">gko::EnableBatchLinOp</text>
<text text-anchor="start" x="1574" y="-179.1433" font-family="Helvetica,sans-Serif" font-size="10.00" fill="#000000">&lt; ConcreteBatchLinOp,</text>
<text text-anchor="middle" x="1631" y="-168.1433" font-family="Helvetica,sans-Serif" font-size="10.00" fill="#000000"> PolymorphicBase &gt;</text>
</a>
</g>
</g>
<!-- Node19&#45;&gt;Node2 -->
<g id="edge18" class="edge">
<title>Node19&#45;&gt;Node2</title>
<path fill="none" stroke="#ffa500" stroke-dasharray="5,2" d="M1706.4598,-174.8983C1764.5433,-169.7065 1844.7933,-162.5333 1904.9293,-157.158"/>
<polygon fill="#ffa500" stroke="#ffa500" points="1705.8951,-171.4348 1696.2464,-175.8113 1706.5184,-178.407 1705.8951,-171.4348"/>
<text text-anchor="middle" x="1809.5" y="-174.6433" font-family="Helvetica,sans-Serif" font-size="10.00" fill="#000000"> &lt; BatchDirect&lt; ValueType &gt; &gt;</text>
</g>
<!-- Node20&#45;&gt;Node19 -->
<g id="edge19" class="edge">
<title>Node20&#45;&gt;Node19</title>
<path fill="none" stroke="#191970" d="M1495.7168,-89.8336C1501.0933,-92.777 1506.2498,-96.0372 1511,-99.6433 1533.592,-116.7939 1525.4127,-134.4865 1548,-151.6433 1553.4906,-155.8139 1559.6156,-159.4452 1565.9822,-162.598"/>
<polygon fill="#191970" stroke="#191970" points="1496.9975,-86.5594 1486.4935,-85.1743 1493.8411,-92.8074 1496.9975,-86.5594"/>
</g>
<!-- Node21&#45;&gt;Node20 -->
<g id="edge20" class="edge">
<title>Node21&#45;&gt;Node20</title>
<path fill="none" stroke="#191970" d="M727.3937,-28.7595C878.3464,-36.6487 1166.2107,-51.6932 1316.7644,-59.5616"/>
<polygon fill="#191970" stroke="#191970" points="727.3777,-25.254 717.2086,-28.2272 727.0123,-32.2445 727.3777,-25.254"/>
</g>
<!-- Node22&#45;&gt;Node19 -->
<g id="edge24" class="edge">
<title>Node22&#45;&gt;Node19</title>
<path fill="none" stroke="#191970" d="M1482.4046,-220.0184C1492.007,-217.5428 1501.7517,-215.0297 1511,-212.6433 1528.8138,-208.0468 1548.114,-203.0627 1565.9207,-198.4626"/>
<polygon fill="#191970" stroke="#191970" points="1481.2859,-216.6923 1472.4762,-222.5778 1483.0333,-223.4707 1481.2859,-216.6923"/>
</g>
<!-- Node23&#45;&gt;Node22 -->
<g id="edge25" class="edge">
<title>Node23&#45;&gt;Node22</title>
<path fill="none" stroke="#191970" d="M1103.0059,-228.8829C1165.1433,-230.6333 1251.7555,-233.0731 1317.8002,-234.9335"/>
<polygon fill="#191970" stroke="#191970" points="1102.9582,-225.3803 1092.8636,-228.5972 1102.7611,-232.3775 1102.9582,-225.3803"/>
</g>
<!-- Node24 -->
<g id="node20" class="node">
<title>Node24</title>
<g id="a_node20"><a xlink:href="classgko_1_1BatchTransposable.html" target="_top" xlink:title="Batch Linear operators which support transposition of the distinct batch entries should implement the...">
<polygon fill="#ffffff" stroke="#000000" points="1923,-95.1433 1923,-114.1433 2055,-114.1433 2055,-95.1433 1923,-95.1433"/>
<text text-anchor="middle" x="1989" y="-102.1433" font-family="Helvetica,sans-Serif" font-size="10.00" fill="#000000">gko::BatchTransposable</text>
</a>
</g>
</g>
<!-- Node24&#45;&gt;Node1 -->
<g id="edge28" class="edge">
<title>Node24&#45;&gt;Node1</title>
<path fill="none" stroke="#191970" d="M2065.1516,-104.6433C2079.9588,-104.6433 2095.3794,-104.6433 2109.87,-104.6433"/>
<polygon fill="#191970" stroke="#191970" points="2065.0174,-101.1434 2055.0174,-104.6433 2065.0174,-108.1434 2065.0174,-101.1434"/>
</g>
<!-- Node25 -->
<g id="node21" class="node">
<title>Node25</title>
<g id="a_node21"><a xlink:href="classgko_1_1EnableBatchScaledSolver.html" target="_top" xlink:title="Provides basic functionality for solvers which need to be composed with batch scaling.">
<polygon fill="#ffffff" stroke="#000000" points="1907,-43.6433 1907,-73.6433 2071,-73.6433 2071,-43.6433 1907,-43.6433"/>
<text text-anchor="start" x="1915" y="-61.6433" font-family="Helvetica,sans-Serif" font-size="10.00" fill="#000000">gko::EnableBatchScaledSolver</text>
<text text-anchor="middle" x="1989" y="-50.6433" font-family="Helvetica,sans-Serif" font-size="10.00" fill="#000000">&lt; ValueType &gt;</text>
</a>
</g>
</g>
<!-- Node25&#45;&gt;Node1 -->
<g id="edge29" class="edge">
<title>Node25&#45;&gt;Node1</title>
<path fill="none" stroke="#191970" d="M2060.5064,-76.1396C2078.6669,-80.5831 2098.0175,-85.3178 2115.6247,-89.626"/>
<polygon fill="#191970" stroke="#191970" points="2061.1036,-72.6825 2050.5582,-73.7055 2059.4398,-79.4819 2061.1036,-72.6825"/>
</g>
<!-- Node26 -->
<g id="node22" class="node">
<title>Node26</title>
<g id="a_node22"><a xlink:href="classgko_1_1EnableBatchScaling.html" target="_top" xlink:title="Default batch scalable interface with some type&#45;checking.">
<polygon fill="#ffffff" stroke="#000000" points="1562.5,-30.6433 1562.5,-60.6433 1699.5,-60.6433 1699.5,-30.6433 1562.5,-30.6433"/>
<text text-anchor="start" x="1570.5" y="-48.6433" font-family="Helvetica,sans-Serif" font-size="10.00" fill="#000000">gko::EnableBatchScaling</text>
<text text-anchor="middle" x="1631" y="-37.6433" font-family="Helvetica,sans-Serif" font-size="10.00" fill="#000000">&lt; ValueType &gt;</text>
</a>
</g>
</g>
<!-- Node26&#45;&gt;Node25 -->
<g id="edge30" class="edge">
<title>Node26&#45;&gt;Node25</title>
<path fill="none" stroke="#191970" d="M1709.8862,-48.5079C1768.2864,-50.6286 1847.644,-53.5103 1906.8141,-55.6589"/>
<polygon fill="#191970" stroke="#191970" points="1709.7229,-44.9998 1699.6024,-48.1345 1709.4688,-51.9952 1709.7229,-44.9998"/>
</g>
<!-- Node27 -->
<g id="node23" class="node">
<title>Node27</title>
<g id="a_node23"><a xlink:href="classgko_1_1BatchScalable.html" target="_top" xlink:title="A batch made up of entities that can scaled from the left and right by scaling vectors.">
<polygon fill="#ffffff" stroke="#000000" points="1359,-6.1433 1359,-25.1433 1469,-25.1433 1469,-6.1433 1359,-6.1433"/>
<text text-anchor="middle" x="1414" y="-13.1433" font-family="Helvetica,sans-Serif" font-size="10.00" fill="#000000">gko::BatchScalable</text>
</a>
</g>
</g>
<!-- Node27&#45;&gt;Node26 -->
<g id="edge31" class="edge">
<title>Node27&#45;&gt;Node26</title>
<path fill="none" stroke="#191970" d="M1479.265,-24.6662C1505.5261,-28.2967 1535.8272,-32.4858 1562.4132,-36.1613"/>
<polygon fill="#191970" stroke="#191970" points="1479.4239,-21.1549 1469.0388,-23.2524 1478.4652,-28.089 1479.4239,-21.1549"/>
</g>
</g>
</svg>
