<?xml version="1.0" encoding="UTF-8" standalone="no"?>
<!DOCTYPE svg PUBLIC "-//W3C//DTD SVG 1.1//EN"
 "http://www.w3.org/Graphics/SVG/1.1/DTD/svg11.dtd">
<!-- Generated by graphviz version 2.40.1 (20161225.0304)
 -->
<!-- Title: gko::solver::BatchBicgstab&lt; ValueType &gt; Pages: 1 -->
<!--zoomable 348 -->
<svg id="main" version="1.1" xmlns="http://www.w3.org/2000/svg" xmlns:xlink="http://www.w3.org/1999/xlink" xml:space="preserve" onload="init(evt)">
<style type="text/css"><![CDATA[
.edge:hover path { stroke: red; }
.edge:hover polygon { stroke: red; fill: red; }
]]></style>
<script type="text/javascript"><![CDATA[
var edges = document.getElementsByTagName('g');
if (edges && edges.length) {
  for (var i=0;i<edges.length;i++) {
    if (edges[i].id.substr(0,4)=='edge') {
      edges[i].setAttribute('class','edge');
    }
  }
}
]]></script>
        <defs>
                <circle id="rim" cx="0" cy="0" r="7"/>
                <circle id="rim2" cx="0" cy="0" r="3.5"/>
                <g id="zoomPlus">
                        <use xlink:href="#rim" fill="#404040">
                                <set attributeName="fill" to="#808080" begin="zoomplus.mouseover" end="zoomplus.mouseout"/>
                        </use>
                        <path d="M-4,0h8M0,-4v8" fill="none" stroke="white" stroke-width="1.5" pointer-events="none"/>
                </g>
                <g id="zoomMin">
                        <use xlink:href="#rim" fill="#404040">
                                <set attributeName="fill" to="#808080" begin="zoomminus.mouseover" end="zoomminus.mouseout"/>
                        </use>
                        <path d="M-4,0h8" fill="none" stroke="white" stroke-width="1.5" pointer-events="none"/>
                </g>
                <g id="dirArrow">
                        <path fill="none" stroke="white" stroke-width="1.5" d="M0,-3.0v7 M-2.5,-0.5L0,-3.0L2.5,-0.5"/>
                </g>
               <g id="resetDef">
                       <use xlink:href="#rim2" fill="#404040">
                               <set attributeName="fill" to="#808080" begin="reset.mouseover" end="reset.mouseout"/>
                       </use>
               </g>
        </defs>

<script type="text/javascript">
var viewWidth = 2316;
var viewHeight = 348;
var sectionId = 'dynsection-0';
</script>
<script xlink:href="svgpan.js"/>
<svg id="graph" class="graph">
<g id="viewport">
<title>gko::solver::BatchBicgstab&lt; ValueType &gt;</title>
<polygon fill="#ffffff" stroke="transparent" points="-4,4 -4,-344.1433 2312,-344.1433 2312,4 -4,4"/>
<!-- Node1 -->
<g id="node1" class="node">
<title>Node1</title>
<g id="a_node1"><a xlink:title="BiCGSTAB or the Bi&#45;Conjugate Gradient&#45;Stabilized is a Krylov subspace solver.">
<polygon fill="#bfbfbf" stroke="#000000" points="2162,-89.6433 2162,-119.6433 2308,-119.6433 2308,-89.6433 2162,-89.6433"/>
<text text-anchor="start" x="2170" y="-107.6433" font-family="Helvetica,sans-Serif" font-size="10.00" fill="#000000">gko::solver::BatchBicgstab</text>
<text text-anchor="middle" x="2235" y="-96.6433" font-family="Helvetica,sans-Serif" font-size="10.00" fill="#000000">&lt; ValueType &gt;</text>
</a>
</g>
</g>
<!-- Node2 -->
<g id="node2" class="node">
<title>Node2</title>
<g id="a_node2"><a xlink:href="classgko_1_1EnableBatchLinOp.html" target="_top" xlink:title=" ">
<polygon fill="#ffffff" stroke="#000000" points="1944,-134.6433 1944,-164.6433 2125,-164.6433 2125,-134.6433 1944,-134.6433"/>
<text text-anchor="start" x="1952" y="-152.6433" font-family="Helvetica,sans-Serif" font-size="10.00" fill="#000000">gko::EnableBatchLinOp</text>
<text text-anchor="middle" x="2034.5" y="-141.6433" font-family="Helvetica,sans-Serif" font-size="10.00" fill="#000000">&lt; BatchBicgstab&lt; ValueType &gt; &gt;</text>
</a>
</g>
</g>
<!-- Node2&#45;&gt;Node1 -->
<g id="edge1" class="edge">
<title>Node2&#45;&gt;Node1</title>
<path fill="none" stroke="#191970" d="M2111.4662,-132.3691C2130.1062,-128.1856 2149.8829,-123.7469 2168.0208,-119.6761"/>
<polygon fill="#191970" stroke="#191970" points="2110.5331,-128.9914 2101.5424,-134.5964 2112.0661,-135.8215 2110.5331,-128.9914"/>
</g>
<!-- Node3 -->
<g id="node3" class="node">
<title>Node3</title>
<g id="a_node3"><a xlink:href="classgko_1_1EnablePolymorphicObject.html" target="_top" xlink:title=" ">
<polygon fill="#ffffff" stroke="#000000" points="1574,-101.1433 1574,-142.1433 1740,-142.1433 1740,-101.1433 1574,-101.1433"/>
<text text-anchor="start" x="1582" y="-130.1433" font-family="Helvetica,sans-Serif" font-size="10.00" fill="#000000">gko::EnablePolymorphicObject</text>
<text text-anchor="start" x="1582" y="-119.1433" font-family="Helvetica,sans-Serif" font-size="10.00" fill="#000000">&lt; BatchBicgstab&lt; ValueType</text>
<text text-anchor="middle" x="1657" y="-108.1433" font-family="Helvetica,sans-Serif" font-size="10.00" fill="#000000"> &gt;, BatchLinOp &gt;</text>
</a>
</g>
</g>
<!-- Node3&#45;&gt;Node2 -->
<g id="edge2" class="edge">
<title>Node3&#45;&gt;Node2</title>
<path fill="none" stroke="#191970" d="M1750.3793,-128.5695C1809.4049,-132.9475 1885.3081,-138.5775 1943.8106,-142.9167"/>
<polygon fill="#191970" stroke="#191970" points="1750.5428,-125.0721 1740.3113,-127.8227 1750.025,-132.0529 1750.5428,-125.0721"/>
</g>
<!-- Node4 -->
<g id="node4" class="node">
<title>Node4</title>
<g id="a_node4"><a xlink:href="classgko_1_1EnableAbstractPolymorphicObject.html" target="_top" xlink:title=" ">
<polygon fill="#ffffff" stroke="#000000" points="1345,-162.1433 1345,-203.1433 1535,-203.1433 1535,-162.1433 1345,-162.1433"/>
<text text-anchor="start" x="1353" y="-191.1433" font-family="Helvetica,sans-Serif" font-size="10.00" fill="#000000">gko::EnableAbstractPolymorphic</text>
<text text-anchor="start" x="1353" y="-180.1433" font-family="Helvetica,sans-Serif" font-size="10.00" fill="#000000">Object&lt; BatchBicgstab&lt; ValueType</text>
<text text-anchor="middle" x="1440" y="-169.1433" font-family="Helvetica,sans-Serif" font-size="10.00" fill="#000000"> &gt;, BatchLinOp &gt;</text>
</a>
</g>
</g>
<!-- Node4&#45;&gt;Node3 -->
<g id="edge3" class="edge">
<title>Node4&#45;&gt;Node3</title>
<path fill="none" stroke="#191970" d="M1522.8921,-159.3419C1542.9377,-153.7069 1564.2201,-147.7243 1583.7848,-142.2246"/>
<polygon fill="#191970" stroke="#191970" points="1521.8435,-156.0009 1513.1638,-162.0766 1523.7378,-162.7397 1521.8435,-156.0009"/>
</g>
<!-- Node5 -->
<g id="node5" class="node">
<title>Node5</title>
<g id="a_node5"><a xlink:href="classgko_1_1BatchLinOp.html" target="_top" xlink:title=" ">
<polygon fill="#ffffff" stroke="#000000" points="988.5,-133.1433 988.5,-152.1433 1084.5,-152.1433 1084.5,-133.1433 988.5,-133.1433"/>
<text text-anchor="middle" x="1036.5" y="-140.1433" font-family="Helvetica,sans-Serif" font-size="10.00" fill="#000000">gko::BatchLinOp</text>
</a>
</g>
</g>
<!-- Node5&#45;&gt;Node4 -->
<g id="edge4" class="edge">
<title>Node5&#45;&gt;Node4</title>
<path fill="none" stroke="#191970" d="M1094.6529,-147.3469C1152.9554,-152.1891 1245.27,-160.1996 1325,-168.6433 1331.5003,-169.3317 1338.2035,-170.071 1344.9535,-170.8371"/>
<polygon fill="#191970" stroke="#191970" points="1094.7836,-143.8459 1084.5291,-146.5096 1094.2065,-150.8221 1094.7836,-143.8459"/>
</g>
<!-- Node6 -->
<g id="node6" class="node">
<title>Node6</title>
<g id="a_node6"><a xlink:href="classgko_1_1EnableAbstractPolymorphicObject.html" target="_top" xlink:title=" ">
<polygon fill="#ffffff" stroke="#ff0000" points="542,-123.6433 542,-153.6433 717,-153.6433 717,-123.6433 542,-123.6433"/>
<text text-anchor="start" x="550" y="-141.6433" font-family="Helvetica,sans-Serif" font-size="10.00" fill="#000000">gko::EnableAbstractPolymorphic</text>
<text text-anchor="middle" x="629.5" y="-130.6433" font-family="Helvetica,sans-Serif" font-size="10.00" fill="#000000">Object&lt; BatchLinOp &gt;</text>
</a>
</g>
</g>
<!-- Node6&#45;&gt;Node5 -->
<g id="edge5" class="edge">
<title>Node6&#45;&gt;Node5</title>
<path fill="none" stroke="#191970" d="M727.218,-139.6037C809.7761,-140.4151 924.5065,-141.5427 988.4892,-142.1715"/>
<polygon fill="#191970" stroke="#191970" points="727.0956,-136.1024 717.0617,-139.5039 727.0268,-143.1021 727.0956,-136.1024"/>
</g>
<!-- Node12 -->
<g id="node7" class="node">
<title>Node12</title>
<g id="a_node7"><a xlink:href="classgko_1_1EnableAbstractPolymorphicObject.html" target="_top" xlink:title="This mixin inherits from (a subclass of) PolymorphicObject and provides a base implementation of a ne...">
<polygon fill="#ffffff" stroke="#000000" points="138,-82.1433 138,-123.1433 336,-123.1433 336,-82.1433 138,-82.1433"/>
<text text-anchor="start" x="146" y="-111.1433" font-family="Helvetica,sans-Serif" font-size="10.00" fill="#000000">gko::EnableAbstractPolymorphic</text>
<text text-anchor="start" x="146" y="-100.1433" font-family="Helvetica,sans-Serif" font-size="10.00" fill="#000000">Object&lt; AbstractObject, Polymorphic</text>
<text text-anchor="middle" x="237" y="-89.1433" font-family="Helvetica,sans-Serif" font-size="10.00" fill="#000000">Base &gt;</text>
</a>
</g>
</g>
<!-- Node12&#45;&gt;Node4 -->
<g id="edge8" class="edge">
<title>Node12&#45;&gt;Node4</title>
<path fill="none" stroke="#ffa500" stroke-dasharray="5,2" d="M289.893,-127.1866C309.6144,-135.33 332.4501,-143.5964 354,-148.6433 430.0064,-166.4439 451.0474,-159.494 529,-163.6433 826.3794,-179.4727 1179.0179,-182.2959 1344.8402,-182.6815"/>
<polygon fill="#ffa500" stroke="#ffa500" points="291.0549,-123.8781 280.481,-123.2135 288.3326,-130.3271 291.0549,-123.8781"/>
<text text-anchor="start" x="759.5" y="-190.6433" font-family="Helvetica,sans-Serif" font-size="10.00" fill="#000000"> &lt; BatchBicgstab&lt; ValueType</text>
<text text-anchor="middle" x="832" y="-179.6433" font-family="Helvetica,sans-Serif" font-size="10.00" fill="#000000"> &gt;, BatchLinOp &gt;</text>
</g>
<!-- Node12&#45;&gt;Node6 -->
<g id="edge6" class="edge">
<title>Node12&#45;&gt;Node6</title>
<path fill="none" stroke="#ffa500" stroke-dasharray="5,2" d="M346.2714,-120.7387C348.8708,-121.056 351.45,-121.3583 354,-121.6433 416.6259,-128.643 487.6066,-132.9372 541.8344,-135.4585"/>
<polygon fill="#ffa500" stroke="#ffa500" points="346.5267,-117.243 336.1634,-119.4459 345.6385,-124.1864 346.5267,-117.243"/>
<text text-anchor="middle" x="432.5" y="-136.6433" font-family="Helvetica,sans-Serif" font-size="10.00" fill="#000000"> &lt; BatchLinOp &gt;</text>
</g>
<!-- Node14 -->
<g id="node10" class="node">
<title>Node14</title>
<g id="a_node10"><a xlink:href="classgko_1_1EnableAbstractPolymorphicObject.html" target="_top" xlink:title=" ">
<polygon fill="#ffffff" stroke="#000000" points="529,-63.1433 529,-104.1433 730,-104.1433 730,-63.1433 529,-63.1433"/>
<text text-anchor="start" x="537" y="-92.1433" font-family="Helvetica,sans-Serif" font-size="10.00" fill="#000000">gko::EnableAbstractPolymorphic</text>
<text text-anchor="start" x="537" y="-81.1433" font-family="Helvetica,sans-Serif" font-size="10.00" fill="#000000">Object&lt; ConcreteObject, Polymorphic</text>
<text text-anchor="middle" x="629.5" y="-70.1433" font-family="Helvetica,sans-Serif" font-size="10.00" fill="#000000">Base &gt;</text>
</a>
</g>
</g>
<!-- Node12&#45;&gt;Node14 -->
<g id="edge12" class="edge">
<title>Node12&#45;&gt;Node14</title>
<path fill="none" stroke="#ffa500" stroke-dasharray="5,2" d="M346.2032,-97.3571C403.3756,-94.5895 472.9091,-91.2235 528.78,-88.519"/>
<polygon fill="#ffa500" stroke="#ffa500" points="345.8634,-93.8693 336.0443,-97.8488 346.2019,-100.8611 345.8634,-93.8693"/>
<text text-anchor="start" x="354" y="-109.6433" font-family="Helvetica,sans-Serif" font-size="10.00" fill="#000000"> &lt; ConcreteObject, Polymorphic</text>
<text text-anchor="middle" x="432.5" y="-98.6433" font-family="Helvetica,sans-Serif" font-size="10.00" fill="#000000">Base &gt;</text>
</g>
<!-- Node21 -->
<g id="node17" class="node">
<title>Node21</title>
<g id="a_node17"><a xlink:href="classgko_1_1EnableAbstractPolymorphicObject.html" target="_top" xlink:title=" ">
<polygon fill="#ffffff" stroke="#000000" points="542,-3.1433 542,-44.1433 717,-44.1433 717,-3.1433 542,-3.1433"/>
<text text-anchor="start" x="550" y="-32.1433" font-family="Helvetica,sans-Serif" font-size="10.00" fill="#000000">gko::EnableAbstractPolymorphic</text>
<text text-anchor="start" x="550" y="-21.1433" font-family="Helvetica,sans-Serif" font-size="10.00" fill="#000000">Object&lt; ConcreteBatchLinOp,</text>
<text text-anchor="middle" x="629.5" y="-10.1433" font-family="Helvetica,sans-Serif" font-size="10.00" fill="#000000"> PolymorphicBase &gt;</text>
</a>
</g>
</g>
<!-- Node12&#45;&gt;Node21 -->
<g id="edge22" class="edge">
<title>Node12&#45;&gt;Node21</title>
<path fill="none" stroke="#ffa500" stroke-dasharray="5,2" d="M301.7934,-78.7708C318.6233,-73.2 336.8463,-67.7135 354,-63.6433 416.074,-48.9147 487.3811,-38.7402 541.8961,-32.3393"/>
<polygon fill="#ffa500" stroke="#ffa500" points="300.422,-75.5395 292.0639,-82.0504 302.658,-82.1728 300.422,-75.5395"/>
<text text-anchor="start" x="374" y="-77.6433" font-family="Helvetica,sans-Serif" font-size="10.00" fill="#000000"> &lt; ConcreteBatchLinOp,</text>
<text text-anchor="middle" x="432.5" y="-66.6433" font-family="Helvetica,sans-Serif" font-size="10.00" fill="#000000"> PolymorphicBase &gt;</text>
</g>
<!-- Node11 -->
<g id="node8" class="node">
<title>Node11</title>
<g id="a_node8"><a xlink:title=" ">
<polygon fill="#ffffff" stroke="#bfbfbf" points="0,-15.1433 0,-34.1433 101,-34.1433 101,-15.1433 0,-15.1433"/>
<text text-anchor="middle" x="50.5" y="-22.1433" font-family="Helvetica,sans-Serif" font-size="10.00" fill="#000000">PolymorphicBase</text>
</a>
</g>
</g>
<!-- Node11&#45;&gt;Node12 -->
<g id="edge7" class="edge">
<title>Node11&#45;&gt;Node12</title>
<path fill="none" stroke="#191970" d="M82.5985,-38.0679C111.5007,-50.1557 154.4214,-68.1064 187.6791,-82.0158"/>
<polygon fill="#191970" stroke="#191970" points="83.9447,-34.8372 73.3686,-34.2077 81.2437,-41.2952 83.9447,-34.8372"/>
</g>
<!-- Node11&#45;&gt;Node14 -->
<g id="edge11" class="edge">
<title>Node11&#45;&gt;Node14</title>
<path fill="none" stroke="#191970" d="M111.3499,-21.6244C219.3143,-17.0695 439.7293,-11.6079 511,-38.6433 520.7367,-42.3368 519.8235,-48.7202 529,-53.6433 535.4984,-57.1297 542.456,-60.2638 549.5648,-63.0698"/>
<polygon fill="#191970" stroke="#191970" points="111.1008,-18.1318 101.2616,-22.0612 111.4037,-25.1253 111.1008,-18.1318"/>
</g>
<!-- Node11&#45;&gt;Node21 -->
<g id="edge21" class="edge">
<title>Node11&#45;&gt;Node21</title>
<path fill="none" stroke="#191970" d="M100.0089,-13.2993C106.37,-12.2035 112.8183,-11.2686 119,-10.6433 292.3378,6.8888 337.0377,-1.1296 511,-10.6433 521.0228,-11.1915 531.5011,-11.9985 541.9026,-12.9467"/>
<polygon fill="#191970" stroke="#191970" points="99.3286,-9.8657 90.1355,-15.1322 100.6063,-16.7481 99.3286,-9.8657"/>
</g>
<!-- Node13 -->
<g id="node9" class="node">
<title>Node13</title>
<g id="a_node9"><a xlink:href="classgko_1_1EnablePolymorphicObject.html" target="_top" xlink:title="This mixin inherits from (a subclass of) PolymorphicObject and provides a base implementation of a ne...">
<polygon fill="#ffffff" stroke="#000000" points="934,-68.6433 934,-98.6433 1139,-98.6433 1139,-68.6433 934,-68.6433"/>
<text text-anchor="start" x="942" y="-86.6433" font-family="Helvetica,sans-Serif" font-size="10.00" fill="#000000">gko::EnablePolymorphicObject</text>
<text text-anchor="middle" x="1036.5" y="-75.6433" font-family="Helvetica,sans-Serif" font-size="10.00" fill="#000000">&lt; ConcreteObject, PolymorphicBase &gt;</text>
</a>
</g>
</g>
<!-- Node13&#45;&gt;Node3 -->
<g id="edge9" class="edge">
<title>Node13&#45;&gt;Node3</title>
<path fill="none" stroke="#ffa500" stroke-dasharray="5,2" d="M1133.8011,-99.9946C1141.6359,-101.0032 1149.4413,-101.9064 1157,-102.6433 1303.1145,-116.8884 1474.2153,-120.6058 1573.6351,-121.4873"/>
<polygon fill="#ffa500" stroke="#ffa500" points="1134.2539,-96.5241 1123.8777,-98.6654 1133.3245,-103.4621 1134.2539,-96.5241"/>
<text text-anchor="start" x="1367.5" y="-134.6433" font-family="Helvetica,sans-Serif" font-size="10.00" fill="#000000"> &lt; BatchBicgstab&lt; ValueType</text>
<text text-anchor="middle" x="1440" y="-123.6433" font-family="Helvetica,sans-Serif" font-size="10.00" fill="#000000"> &gt;, BatchLinOp &gt;</text>
</g>
<!-- Node20 -->
<g id="node16" class="node">
<title>Node20</title>
<g id="a_node16"><a xlink:href="classgko_1_1EnablePolymorphicObject.html" target="_top" xlink:title=" ">
<polygon fill="#ffffff" stroke="#000000" points="1343,-44.1433 1343,-85.1433 1537,-85.1433 1537,-44.1433 1343,-44.1433"/>
<text text-anchor="start" x="1351" y="-73.1433" font-family="Helvetica,sans-Serif" font-size="10.00" fill="#000000">gko::EnablePolymorphicObject</text>
<text text-anchor="start" x="1351" y="-62.1433" font-family="Helvetica,sans-Serif" font-size="10.00" fill="#000000">&lt; ConcreteBatchLinOp, Polymorphic</text>
<text text-anchor="middle" x="1440" y="-51.1433" font-family="Helvetica,sans-Serif" font-size="10.00" fill="#000000">Base &gt;</text>
</a>
</g>
</g>
<!-- Node13&#45;&gt;Node20 -->
<g id="edge23" class="edge">
<title>Node13&#45;&gt;Node20</title>
<path fill="none" stroke="#ffa500" stroke-dasharray="5,2" d="M1149.1384,-78.3394C1210.0125,-75.473 1284.4323,-71.9687 1342.7559,-69.2224"/>
<polygon fill="#ffa500" stroke="#ffa500" points="1148.9271,-74.8454 1139.1028,-78.812 1149.2564,-81.8377 1148.9271,-74.8454"/>
<text text-anchor="start" x="1182.5" y="-90.6433" font-family="Helvetica,sans-Serif" font-size="10.00" fill="#000000"> &lt; ConcreteBatchLinOp,</text>
<text text-anchor="middle" x="1241" y="-79.6433" font-family="Helvetica,sans-Serif" font-size="10.00" fill="#000000"> PolymorphicBase &gt;</text>
</g>
<!-- Node14&#45;&gt;Node13 -->
<g id="edge10" class="edge">
<title>Node14&#45;&gt;Node13</title>
<path fill="none" stroke="#191970" d="M740.4329,-83.6433C800.7611,-83.6433 874.8819,-83.6433 933.8686,-83.6433"/>
<polygon fill="#191970" stroke="#191970" points="740.1068,-80.1434 730.1068,-83.6433 740.1067,-87.1434 740.1068,-80.1434"/>
</g>
<!-- Node15 -->
<g id="node11" class="node">
<title>Node15</title>
<g id="a_node11"><a xlink:href="classgko_1_1EnablePolymorphicAssignment.html" target="_top" xlink:title=" ">
<polygon fill="#ffffff" stroke="#000000" points="1344,-278.6433 1344,-308.6433 1536,-308.6433 1536,-278.6433 1344,-278.6433"/>
<text text-anchor="start" x="1352" y="-296.6433" font-family="Helvetica,sans-Serif" font-size="10.00" fill="#000000">gko::EnablePolymorphicAssignment</text>
<text text-anchor="middle" x="1440" y="-285.6433" font-family="Helvetica,sans-Serif" font-size="10.00" fill="#000000">&lt; BatchBicgstab&lt; ValueType &gt; &gt;</text>
</a>
</g>
</g>
<!-- Node15&#45;&gt;Node2 -->
<g id="edge13" class="edge">
<title>Node15&#45;&gt;Node2</title>
<path fill="none" stroke="#191970" d="M1533.6799,-276.7362C1632.1705,-258.1421 1791.237,-225.7847 1926,-187.6433 1949.2372,-181.0666 1974.7473,-172.2176 1995.1905,-164.7136"/>
<polygon fill="#191970" stroke="#191970" points="1532.9314,-273.3155 1523.7502,-278.6029 1534.2247,-280.195 1532.9314,-273.3155"/>
</g>
<!-- Node16 -->
<g id="node12" class="node">
<title>Node16</title>
<g id="a_node12"><a xlink:href="classgko_1_1ConvertibleTo.html" target="_top" xlink:title=" ">
<polygon fill="#ffffff" stroke="#000000" points="946,-309.6433 946,-339.6433 1127,-339.6433 1127,-309.6433 946,-309.6433"/>
<text text-anchor="start" x="954" y="-327.6433" font-family="Helvetica,sans-Serif" font-size="10.00" fill="#000000">gko::ConvertibleTo</text>
<text text-anchor="middle" x="1036.5" y="-316.6433" font-family="Helvetica,sans-Serif" font-size="10.00" fill="#000000">&lt; BatchBicgstab&lt; ValueType &gt; &gt;</text>
</a>
</g>
</g>
<!-- Node16&#45;&gt;Node15 -->
<g id="edge14" class="edge">
<title>Node16&#45;&gt;Node15</title>
<path fill="none" stroke="#191970" d="M1137.3063,-317.0057C1192.706,-312.7958 1262.6462,-307.4607 1325,-302.6433 1331.1897,-302.1651 1337.5667,-301.6708 1343.9948,-301.1712"/>
<polygon fill="#191970" stroke="#191970" points="1136.8424,-313.5307 1127.1363,-317.7783 1137.3727,-320.5106 1136.8424,-313.5307"/>
</g>
<!-- Node17 -->
<g id="node13" class="node">
<title>Node17</title>
<g id="a_node13"><a xlink:href="classgko_1_1ConvertibleTo.html" target="_top" xlink:title="ConvertibleTo interface is used to mark that the implementer can be converted to the object of Result...">
<polygon fill="#ffffff" stroke="#000000" points="576,-260.6433 576,-290.6433 683,-290.6433 683,-260.6433 576,-260.6433"/>
<text text-anchor="start" x="584" y="-278.6433" font-family="Helvetica,sans-Serif" font-size="10.00" fill="#000000">gko::ConvertibleTo</text>
<text text-anchor="middle" x="629.5" y="-267.6433" font-family="Helvetica,sans-Serif" font-size="10.00" fill="#000000">&lt; ResultType &gt;</text>
</a>
</g>
</g>
<!-- Node17&#45;&gt;Node16 -->
<g id="edge15" class="edge">
<title>Node17&#45;&gt;Node16</title>
<path fill="none" stroke="#ffa500" stroke-dasharray="5,2" d="M693.2491,-283.3183C761.0983,-291.4869 869.0366,-304.4819 945.7454,-313.7171"/>
<polygon fill="#ffa500" stroke="#ffa500" points="693.4734,-279.8201 683.1267,-282.0996 692.6366,-286.7699 693.4734,-279.8201"/>
<text text-anchor="middle" x="832" y="-311.6433" font-family="Helvetica,sans-Serif" font-size="10.00" fill="#000000"> &lt; BatchBicgstab&lt; ValueType &gt; &gt;</text>
</g>
<!-- Node18 -->
<g id="node14" class="node">
<title>Node18</title>
<g id="a_node14"><a xlink:href="classgko_1_1EnablePolymorphicAssignment.html" target="_top" xlink:title="This mixin is used to enable a default PolymorphicObject::copy_from() implementation for objects that...">
<polygon fill="#ffffff" stroke="#000000" points="940.5,-260.6433 940.5,-290.6433 1132.5,-290.6433 1132.5,-260.6433 940.5,-260.6433"/>
<text text-anchor="start" x="948.5" y="-278.6433" font-family="Helvetica,sans-Serif" font-size="10.00" fill="#000000">gko::EnablePolymorphicAssignment</text>
<text text-anchor="middle" x="1036.5" y="-267.6433" font-family="Helvetica,sans-Serif" font-size="10.00" fill="#000000">&lt; ConcreteType, ResultType &gt;</text>
</a>
</g>
</g>
<!-- Node17&#45;&gt;Node18 -->
<g id="edge17" class="edge">
<title>Node17&#45;&gt;Node18</title>
<path fill="none" stroke="#191970" d="M693.4214,-275.6433C759.6659,-275.6433 863.9922,-275.6433 940.2214,-275.6433"/>
<polygon fill="#191970" stroke="#191970" points="693.1267,-272.1434 683.1267,-275.6433 693.1266,-279.1434 693.1267,-272.1434"/>
</g>
<!-- Node23 -->
<g id="node19" class="node">
<title>Node23</title>
<g id="a_node19"><a xlink:href="classgko_1_1ConvertibleTo.html" target="_top" xlink:title=" ">
<polygon fill="#ffffff" stroke="#000000" points="967.5,-211.6433 967.5,-241.6433 1105.5,-241.6433 1105.5,-211.6433 967.5,-211.6433"/>
<text text-anchor="start" x="975.5" y="-229.6433" font-family="Helvetica,sans-Serif" font-size="10.00" fill="#000000">gko::ConvertibleTo</text>
<text text-anchor="middle" x="1036.5" y="-218.6433" font-family="Helvetica,sans-Serif" font-size="10.00" fill="#000000">&lt; ConcreteBatchLinOp &gt;</text>
</a>
</g>
</g>
<!-- Node17&#45;&gt;Node23 -->
<g id="edge26" class="edge">
<title>Node17&#45;&gt;Node23</title>
<path fill="none" stroke="#ffa500" stroke-dasharray="5,2" d="M693.3841,-267.4545C711.0708,-265.2152 730.2769,-262.8094 748,-260.6433 822.9663,-251.4814 908.9466,-241.4041 967.4035,-234.6174"/>
<polygon fill="#ffa500" stroke="#ffa500" points="692.6485,-264.0196 683.1687,-268.7506 693.5297,-270.964 692.6485,-264.0196"/>
<text text-anchor="middle" x="832" y="-263.6433" font-family="Helvetica,sans-Serif" font-size="10.00" fill="#000000"> &lt; ConcreteBatchLinOp &gt;</text>
</g>
<!-- Node18&#45;&gt;Node15 -->
<g id="edge16" class="edge">
<title>Node18&#45;&gt;Node15</title>
<path fill="none" stroke="#ffa500" stroke-dasharray="5,2" d="M1142.8983,-280.3897C1205.2607,-283.1717 1283.4086,-286.6579 1343.9023,-289.3565"/>
<polygon fill="#ffa500" stroke="#ffa500" points="1142.7817,-276.8811 1132.6357,-279.9319 1142.4697,-283.8742 1142.7817,-276.8811"/>
<text text-anchor="middle" x="1241" y="-290.6433" font-family="Helvetica,sans-Serif" font-size="10.00" fill="#000000"> &lt; BatchBicgstab&lt; ValueType &gt; &gt;</text>
</g>
<!-- Node22 -->
<g id="node18" class="node">
<title>Node22</title>
<g id="a_node18"><a xlink:href="classgko_1_1EnablePolymorphicAssignment.html" target="_top" xlink:title=" ">
<polygon fill="#ffffff" stroke="#000000" points="1344,-222.6433 1344,-252.6433 1536,-252.6433 1536,-222.6433 1344,-222.6433"/>
<text text-anchor="start" x="1352" y="-240.6433" font-family="Helvetica,sans-Serif" font-size="10.00" fill="#000000">gko::EnablePolymorphicAssignment</text>
<text text-anchor="middle" x="1440" y="-229.6433" font-family="Helvetica,sans-Serif" font-size="10.00" fill="#000000">&lt; ConcreteBatchLinOp &gt;</text>
</a>
</g>
</g>
<!-- Node18&#45;&gt;Node22 -->
<g id="edge27" class="edge">
<title>Node18&#45;&gt;Node22</title>
<path fill="none" stroke="#ffa500" stroke-dasharray="5,2" d="M1142.8983,-265.6232C1205.2607,-259.7501 1283.4086,-252.3905 1343.9023,-246.6934"/>
<polygon fill="#ffa500" stroke="#ffa500" points="1142.2634,-262.1674 1132.6357,-266.5897 1142.9198,-269.1366 1142.2634,-262.1674"/>
<text text-anchor="middle" x="1241" y="-265.6433" font-family="Helvetica,sans-Serif" font-size="10.00" fill="#000000"> &lt; ConcreteBatchLinOp &gt;</text>
</g>
<!-- Node19 -->
<g id="node15" class="node">
<title>Node19</title>
<g id="a_node15"><a xlink:href="classgko_1_1EnableBatchLinOp.html" target="_top" xlink:title="The EnableBatchLinOp mixin can be used to provide sensible default implementations of the majority of...">
<polygon fill="#ffffff" stroke="#000000" points="1592,-161.1433 1592,-202.1433 1722,-202.1433 1722,-161.1433 1592,-161.1433"/>
<text text-anchor="start" x="1600" y="-190.1433" font-family="Helvetica,sans-Serif" font-size="10.00" fill="#000000">gko::EnableBatchLinOp</text>
<text text-anchor="start" x="1600" y="-179.1433" font-family="Helvetica,sans-Serif" font-size="10.00" fill="#000000">&lt; ConcreteBatchLinOp,</text>
<text text-anchor="middle" x="1657" y="-168.1433" font-family="Helvetica,sans-Serif" font-size="10.00" fill="#000000"> PolymorphicBase &gt;</text>
</a>
</g>
</g>
<!-- Node19&#45;&gt;Node2 -->
<g id="edge18" class="edge">
<title>Node19&#45;&gt;Node2</title>
<path fill="none" stroke="#ffa500" stroke-dasharray="5,2" d="M1732.6324,-175.2321C1793.5162,-170.0711 1879.2801,-162.8011 1943.8411,-157.3283"/>
<polygon fill="#ffa500" stroke="#ffa500" points="1731.9931,-171.7737 1722.3245,-176.1059 1732.5844,-178.7487 1731.9931,-171.7737"/>
<text text-anchor="middle" x="1842" y="-175.6433" font-family="Helvetica,sans-Serif" font-size="10.00" fill="#000000"> &lt; BatchBicgstab&lt; ValueType &gt; &gt;</text>
</g>
<!-- Node20&#45;&gt;Node19 -->
<g id="edge19" class="edge">
<title>Node20&#45;&gt;Node19</title>
<path fill="none" stroke="#191970" d="M1521.7168,-89.8336C1527.0933,-92.777 1532.2498,-96.0372 1537,-99.6433 1559.592,-116.7939 1551.4127,-134.4865 1574,-151.6433 1579.4906,-155.8139 1585.6156,-159.4452 1591.9822,-162.598"/>
<polygon fill="#191970" stroke="#191970" points="1522.9975,-86.5594 1512.4935,-85.1743 1519.8411,-92.8074 1522.9975,-86.5594"/>
</g>
<!-- Node21&#45;&gt;Node20 -->
<g id="edge20" class="edge">
<title>Node21&#45;&gt;Node20</title>
<path fill="none" stroke="#191970" d="M727.0687,-28.579C883.1063,-36.4723 1187.0462,-51.8474 1342.8309,-59.7279"/>
<polygon fill="#191970" stroke="#191970" points="727.1719,-25.0798 717.0078,-28.07 726.8181,-32.0709 727.1719,-25.0798"/>
</g>
<!-- Node22&#45;&gt;Node19 -->
<g id="edge24" class="edge">
<title>Node22&#45;&gt;Node19</title>
<path fill="none" stroke="#191970" d="M1508.4046,-220.0184C1518.007,-217.5428 1527.7517,-215.0297 1537,-212.6433 1554.8138,-208.0468 1574.114,-203.0627 1591.9207,-198.4626"/>
<polygon fill="#191970" stroke="#191970" points="1507.2859,-216.6923 1498.4762,-222.5778 1509.0333,-223.4707 1507.2859,-216.6923"/>
</g>
<!-- Node23&#45;&gt;Node22 -->
<g id="edge25" class="edge">
<title>Node23&#45;&gt;Node22</title>
<path fill="none" stroke="#191970" d="M1116.1039,-228.8135C1181.4193,-230.5941 1274.1243,-233.1213 1343.6301,-235.0162"/>
<polygon fill="#191970" stroke="#191970" points="1115.9558,-225.3082 1105.8641,-228.5343 1115.765,-232.3056 1115.9558,-225.3082"/>
</g>
<!-- Node24 -->
<g id="node20" class="node">
<title>Node24</title>
<g id="a_node20"><a xlink:href="classgko_1_1BatchTransposable.html" target="_top" xlink:title="Batch Linear operators which support transposition of the distinct batch entries should implement the...">
<polygon fill="#ffffff" stroke="#000000" points="1968.5,-95.1433 1968.5,-114.1433 2100.5,-114.1433 2100.5,-95.1433 1968.5,-95.1433"/>
<text text-anchor="middle" x="2034.5" y="-102.1433" font-family="Helvetica,sans-Serif" font-size="10.00" fill="#000000">gko::BatchTransposable</text>
</a>
</g>
</g>
<!-- Node24&#45;&gt;Node1 -->
<g id="edge28" class="edge">
<title>Node24&#45;&gt;Node1</title>
<path fill="none" stroke="#191970" d="M2110.98,-104.6433C2127.7024,-104.6433 2145.3612,-104.6433 2161.9457,-104.6433"/>
<polygon fill="#191970" stroke="#191970" points="2110.7069,-101.1434 2100.7069,-104.6433 2110.7068,-108.1434 2110.7069,-101.1434"/>
</g>
<!-- Node25 -->
<g id="node21" class="node">
<title>Node25</title>
<g id="a_node21"><a xlink:href="classgko_1_1EnableBatchScaledSolver.html" target="_top" xlink:title="Provides basic functionality for solvers which need to be composed with batch scaling.">
<polygon fill="#ffffff" stroke="#000000" points="1952.5,-43.6433 1952.5,-73.6433 2116.5,-73.6433 2116.5,-43.6433 1952.5,-43.6433"/>
<text text-anchor="start" x="1960.5" y="-61.6433" font-family="Helvetica,sans-Serif" font-size="10.00" fill="#000000">gko::EnableBatchScaledSolver</text>
<text text-anchor="middle" x="2034.5" y="-50.6433" font-family="Helvetica,sans-Serif" font-size="10.00" fill="#000000">&lt; ValueType &gt;</text>
</a>
</g>
</g>
<!-- Node25&#45;&gt;Node1 -->
<g id="edge29" class="edge">
<title>Node25&#45;&gt;Node1</title>
<path fill="none" stroke="#191970" d="M2109.9545,-75.9546C2129.5552,-80.4515 2150.5052,-85.258 2169.5439,-89.626"/>
<polygon fill="#191970" stroke="#191970" points="2110.6807,-72.5303 2100.1512,-73.7055 2109.1153,-79.3531 2110.6807,-72.5303"/>
</g>
<!-- Node26 -->
<g id="node22" class="node">
<title>Node26</title>
<g id="a_node22"><a xlink:href="classgko_1_1EnableBatchScaling.html" target="_top" xlink:title="Default batch scalable interface with some type&#45;checking.">
<polygon fill="#ffffff" stroke="#000000" points="1588.5,-30.6433 1588.5,-60.6433 1725.5,-60.6433 1725.5,-30.6433 1588.5,-30.6433"/>
<text text-anchor="start" x="1596.5" y="-48.6433" font-family="Helvetica,sans-Serif" font-size="10.00" fill="#000000">gko::EnableBatchScaling</text>
<text text-anchor="middle" x="1657" y="-37.6433" font-family="Helvetica,sans-Serif" font-size="10.00" fill="#000000">&lt; ValueType &gt;</text>
</a>
</g>
</g>
<!-- Node26&#45;&gt;Node25 -->
<g id="edge30" class="edge">
<title>Node26&#45;&gt;Node25</title>
<path fill="none" stroke="#191970" d="M1736.1455,-48.3689C1799.5452,-50.5522 1888.1904,-53.6049 1952.3663,-55.8149"/>
<polygon fill="#191970" stroke="#191970" points="1735.9149,-44.859 1725.8004,-48.0126 1735.674,-51.8548 1735.9149,-44.859"/>
</g>
<!-- Node27 -->
<g id="node23" class="node">
<title>Node27</title>
<g id="a_node23"><a xlink:href="classgko_1_1BatchScalable.html" target="_top" xlink:title="A batch made up of entities that can scaled from the left and right by scaling vectors.">
<polygon fill="#ffffff" stroke="#000000" points="1385,-6.1433 1385,-25.1433 1495,-25.1433 1495,-6.1433 1385,-6.1433"/>
<text text-anchor="middle" x="1440" y="-13.1433" font-family="Helvetica,sans-Serif" font-size="10.00" fill="#000000">gko::BatchScalable</text>
</a>
</g>
</g>
<!-- Node27&#45;&gt;Node26 -->
<g id="edge31" class="edge">
<title>Node27&#45;&gt;Node26</title>
<path fill="none" stroke="#191970" d="M1505.265,-24.6662C1531.5261,-28.2967 1561.8272,-32.4858 1588.4132,-36.1613"/>
<polygon fill="#191970" stroke="#191970" points="1505.4239,-21.1549 1495.0388,-23.2524 1504.4652,-28.089 1505.4239,-21.1549"/>
</g>
</g>
</svg>
        <g id="navigator" transform="translate(0 0)" fill="#404254">
                <rect fill="#f2f5e9" fill-opacity="0.5" stroke="#606060" stroke-width=".5" x="0" y="0" width="60" height="60"/>
                <use id="zoomplus" xlink:href="#zoomPlus" x="17" y="9" onmousedown="handleZoom(evt,'in')"/>
                <use id="zoomminus" xlink:href="#zoomMin" x="42" y="9" onmousedown="handleZoom(evt,'out')"/>
                <use id="reset" xlink:href="#resetDef" x="30" y="36" onmousedown="handleReset()"/>
                <g id="arrowUp" xlink:href="#dirArrow" transform="translate(30 24)" onmousedown="handlePan(0,-1)">
                  <use xlink:href="#rim" fill="#404040">
                        <set attributeName="fill" to="#808080" begin="arrowUp.mouseover" end="arrowUp.mouseout"/>
                  </use>
                  <path fill="none" stroke="white" stroke-width="1.5" d="M0,-3.0v7 M-2.5,-0.5L0,-3.0L2.5,-0.5"/>
                </g>
                <g id="arrowRight" xlink:href="#dirArrow" transform="rotate(90) translate(36 -43)" onmousedown="handlePan(1,0)">
                  <use xlink:href="#rim" fill="#404040">
                        <set attributeName="fill" to="#808080" begin="arrowRight.mouseover" end="arrowRight.mouseout"/>
                  </use>
                  <path fill="none" stroke="white" stroke-width="1.5" d="M0,-3.0v7 M-2.5,-0.5L0,-3.0L2.5,-0.5"/>
                </g>
                <g id="arrowDown" xlink:href="#dirArrow" transform="rotate(180) translate(-30 -48)" onmousedown="handlePan(0,1)">
                  <use xlink:href="#rim" fill="#404040">
                        <set attributeName="fill" to="#808080" begin="arrowDown.mouseover" end="arrowDown.mouseout"/>
                  </use>
                  <path fill="none" stroke="white" stroke-width="1.5" d="M0,-3.0v7 M-2.5,-0.5L0,-3.0L2.5,-0.5"/>
                </g>
                <g id="arrowLeft" xlink:href="#dirArrow" transform="rotate(270) translate(-36 17)" onmousedown="handlePan(-1,0)">
                  <use xlink:href="#rim" fill="#404040">
                        <set attributeName="fill" to="#808080" begin="arrowLeft.mouseover" end="arrowLeft.mouseout"/>
                  </use>
                  <path fill="none" stroke="white" stroke-width="1.5" d="M0,-3.0v7 M-2.5,-0.5L0,-3.0L2.5,-0.5"/>
                </g>
        </g>
        <svg viewBox="0 0 15 15" width="100%" height="30px" preserveAspectRatio="xMaxYMin meet">
         <g id="arrow_out" transform="scale(0.3 0.3)">
          <a xlink:href="classgko_1_1solver_1_1BatchBicgstab__coll__graph_org.svg" target="_base">
           <rect id="button" ry="5" rx="5" y="6" x="6" height="38" width="38"
                fill="#f2f5e9" fill-opacity="0.5" stroke="#606060" stroke-width="1.0"/>
           <path id="arrow"
             d="M 11.500037,31.436501 C 11.940474,20.09759 22.043105,11.32322 32.158766,21.979434 L 37.068811,17.246167 C 37.068811,17.246167 37.088388,32 37.088388,32 L 22.160133,31.978069 C 22.160133,31.978069 26.997745,27.140456 26.997745,27.140456 C 18.528582,18.264221 13.291696,25.230495 11.500037,31.436501 z"
             style="fill:#404040;"/>
          </a>
         </g>
        </svg>
</svg>
