<?xml version="1.0" encoding="UTF-8" standalone="no"?>
<!DOCTYPE svg PUBLIC "-//W3C//DTD SVG 1.1//EN"
 "http://www.w3.org/Graphics/SVG/1.1/DTD/svg11.dtd">
<!-- Generated by graphviz version 2.40.1 (20161225.0304)
 -->
<!-- Title: gko::matrix::BatchEll&lt; ValueType, IndexType &gt; Pages: 1 -->
<svg width="2432pt" height="621pt"
 viewBox="0.00 0.00 2432.00 621.00" xmlns="http://www.w3.org/2000/svg" xmlns:xlink="http://www.w3.org/1999/xlink">
<g id="graph0" class="graph" transform="scale(1 1) rotate(0) translate(4 617)">
<title>gko::matrix::BatchEll&lt; ValueType, IndexType &gt;</title>
<polygon fill="#ffffff" stroke="transparent" points="-4,4 -4,-617 2428,-617 2428,4 -4,4"/>
<!-- Node1 -->
<g id="node1" class="node">
<title>Node1</title>
<g id="a_node1"><a xlink:title="BatchEll is a matrix format which stores only the nonzero coefficients by compressing each row of the...">
<polygon fill="#bfbfbf" stroke="#000000" points="2280,-148 2280,-178 2424,-178 2424,-148 2280,-148"/>
<text text-anchor="start" x="2288" y="-166" font-family="Helvetica,sans-Serif" font-size="10.00" fill="#000000">gko::matrix::BatchEll</text>
<text text-anchor="middle" x="2352" y="-155" font-family="Helvetica,sans-Serif" font-size="10.00" fill="#000000">&lt; ValueType, IndexType &gt;</text>
</a>
</g>
</g>
<!-- Node2 -->
<g id="node2" class="node">
<title>Node2</title>
<g id="a_node2"><a xlink:href="classgko_1_1EnableBatchLinOp.html" target="_top" xlink:title=" ">
<polygon fill="#ffffff" stroke="#000000" points="2093.5,-346.5 2093.5,-387.5 2224.5,-387.5 2224.5,-346.5 2093.5,-346.5"/>
<text text-anchor="start" x="2101.5" y="-375.5" font-family="Helvetica,sans-Serif" font-size="10.00" fill="#000000">gko::EnableBatchLinOp</text>
<text text-anchor="start" x="2101.5" y="-364.5" font-family="Helvetica,sans-Serif" font-size="10.00" fill="#000000">&lt; BatchEll&lt; ValueType,</text>
<text text-anchor="middle" x="2159" y="-353.5" font-family="Helvetica,sans-Serif" font-size="10.00" fill="#000000"> IndexType &gt; &gt;</text>
</a>
</g>
</g>
<!-- Node2&#45;&gt;Node1 -->
<g id="edge1" class="edge">
<title>Node2&#45;&gt;Node1</title>
<path fill="none" stroke="#191970" d="M2205.1148,-341.0015C2223.9948,-329.0574 2245.2845,-313.8072 2262,-297 2299.3497,-259.4454 2330.6055,-204.3046 2344.4077,-178.0142"/>
<polygon fill="#191970" stroke="#191970" points="2203.0171,-338.1835 2196.3537,-346.4206 2206.6994,-344.1368 2203.0171,-338.1835"/>
</g>
<!-- Node3 -->
<g id="node3" class="node">
<title>Node3</title>
<g id="a_node3"><a xlink:href="classgko_1_1EnablePolymorphicObject.html" target="_top" xlink:title=" ">
<polygon fill="#ffffff" stroke="#000000" points="1737,-493.5 1737,-534.5 1921,-534.5 1921,-493.5 1737,-493.5"/>
<text text-anchor="start" x="1745" y="-522.5" font-family="Helvetica,sans-Serif" font-size="10.00" fill="#000000">gko::EnablePolymorphicObject</text>
<text text-anchor="start" x="1745" y="-511.5" font-family="Helvetica,sans-Serif" font-size="10.00" fill="#000000">&lt; BatchEll&lt; ValueType, IndexType</text>
<text text-anchor="middle" x="1829" y="-500.5" font-family="Helvetica,sans-Serif" font-size="10.00" fill="#000000"> &gt;, BatchLinOp &gt;</text>
</a>
</g>
</g>
<!-- Node3&#45;&gt;Node2 -->
<g id="edge2" class="edge">
<title>Node3&#45;&gt;Node2</title>
<path fill="none" stroke="#191970" d="M1884.3881,-489.3271C1948.4927,-460.7714 2052.903,-414.2614 2112.8147,-387.5735"/>
<polygon fill="#191970" stroke="#191970" points="1882.9431,-486.1392 1875.2326,-493.4055 1885.7915,-492.5335 1882.9431,-486.1392"/>
</g>
<!-- Node4 -->
<g id="node4" class="node">
<title>Node4</title>
<g id="a_node4"><a xlink:href="classgko_1_1EnableAbstractPolymorphicObject.html" target="_top" xlink:title=" ">
<polygon fill="#ffffff" stroke="#000000" points="1340.5,-554.5 1340.5,-595.5 1515.5,-595.5 1515.5,-554.5 1340.5,-554.5"/>
<text text-anchor="start" x="1348.5" y="-583.5" font-family="Helvetica,sans-Serif" font-size="10.00" fill="#000000">gko::EnableAbstractPolymorphic</text>
<text text-anchor="start" x="1348.5" y="-572.5" font-family="Helvetica,sans-Serif" font-size="10.00" fill="#000000">Object&lt; BatchEll&lt; ValueType,</text>
<text text-anchor="middle" x="1428" y="-561.5" font-family="Helvetica,sans-Serif" font-size="10.00" fill="#000000"> IndexType &gt;, BatchLinOp &gt;</text>
</a>
</g>
</g>
<!-- Node4&#45;&gt;Node3 -->
<g id="edge3" class="edge">
<title>Node4&#45;&gt;Node3</title>
<path fill="none" stroke="#191970" d="M1525.6546,-560.1448C1589.9638,-550.3621 1673.6298,-537.6349 1736.802,-528.0251"/>
<polygon fill="#191970" stroke="#191970" points="1524.8655,-556.7245 1515.5056,-561.6887 1525.9183,-563.6449 1524.8655,-556.7245"/>
</g>
<!-- Node5 -->
<g id="node5" class="node">
<title>Node5</title>
<g id="a_node5"><a xlink:href="classgko_1_1BatchLinOp.html" target="_top" xlink:title=" ">
<polygon fill="#ffffff" stroke="#000000" points="971.5,-561.5 971.5,-580.5 1067.5,-580.5 1067.5,-561.5 971.5,-561.5"/>
<text text-anchor="middle" x="1019.5" y="-568.5" font-family="Helvetica,sans-Serif" font-size="10.00" fill="#000000">gko::BatchLinOp</text>
</a>
</g>
</g>
<!-- Node5&#45;&gt;Node4 -->
<g id="edge4" class="edge">
<title>Node5&#45;&gt;Node4</title>
<path fill="none" stroke="#191970" d="M1077.7567,-571.5704C1146.3954,-572.2425 1261.1155,-573.3659 1340.4639,-574.1429"/>
<polygon fill="#191970" stroke="#191970" points="1077.5952,-568.0688 1067.5614,-571.4706 1077.5266,-575.0685 1077.5952,-568.0688"/>
</g>
<!-- Node6 -->
<g id="node6" class="node">
<title>Node6</title>
<g id="a_node6"><a xlink:href="classgko_1_1EnableAbstractPolymorphicObject.html" target="_top" xlink:title=" ">
<polygon fill="#ffffff" stroke="#ff0000" points="542,-551 542,-581 717,-581 717,-551 542,-551"/>
<text text-anchor="start" x="550" y="-569" font-family="Helvetica,sans-Serif" font-size="10.00" fill="#000000">gko::EnableAbstractPolymorphic</text>
<text text-anchor="middle" x="629.5" y="-558" font-family="Helvetica,sans-Serif" font-size="10.00" fill="#000000">Object&lt; BatchLinOp &gt;</text>
</a>
</g>
</g>
<!-- Node6&#45;&gt;Node5 -->
<g id="edge5" class="edge">
<title>Node6&#45;&gt;Node5</title>
<path fill="none" stroke="#191970" d="M727.3371,-567.2543C805.2025,-568.2526 910.8324,-569.6068 971.4248,-570.3837"/>
<polygon fill="#191970" stroke="#191970" points="727.0677,-563.7507 717.0236,-567.1221 726.9779,-570.7501 727.0677,-563.7507"/>
</g>
<!-- Node12 -->
<g id="node7" class="node">
<title>Node12</title>
<g id="a_node7"><a xlink:href="classgko_1_1EnableAbstractPolymorphicObject.html" target="_top" xlink:title="This mixin inherits from (a subclass of) PolymorphicObject and provides a base implementation of a ne...">
<polygon fill="#ffffff" stroke="#000000" points="138,-509.5 138,-550.5 336,-550.5 336,-509.5 138,-509.5"/>
<text text-anchor="start" x="146" y="-538.5" font-family="Helvetica,sans-Serif" font-size="10.00" fill="#000000">gko::EnableAbstractPolymorphic</text>
<text text-anchor="start" x="146" y="-527.5" font-family="Helvetica,sans-Serif" font-size="10.00" fill="#000000">Object&lt; AbstractObject, Polymorphic</text>
<text text-anchor="middle" x="237" y="-516.5" font-family="Helvetica,sans-Serif" font-size="10.00" fill="#000000">Base &gt;</text>
</a>
</g>
</g>
<!-- Node12&#45;&gt;Node4 -->
<g id="edge8" class="edge">
<title>Node12&#45;&gt;Node4</title>
<path fill="none" stroke="#ffa500" stroke-dasharray="5,2" d="M289.893,-554.5433C309.6144,-562.6867 332.4501,-570.9531 354,-576 430.0064,-593.8005 451.0084,-587.6636 529,-591 571.8785,-592.8343 955.1764,-592.0161 1122,-590 1204.2354,-589.0062 1224.8881,-590.6145 1307,-586 1317.8461,-585.3905 1329.2252,-584.581 1340.4839,-583.6767"/>
<polygon fill="#ffa500" stroke="#ffa500" points="291.0549,-551.2348 280.481,-550.5701 288.3326,-557.6837 291.0549,-551.2348"/>
<text text-anchor="start" x="755" y="-605" font-family="Helvetica,sans-Serif" font-size="10.00" fill="#000000"> &lt; BatchEll&lt; ValueType,</text>
<text text-anchor="middle" x="823.5" y="-594" font-family="Helvetica,sans-Serif" font-size="10.00" fill="#000000"> IndexType &gt;, BatchLinOp &gt;</text>
</g>
<!-- Node12&#45;&gt;Node6 -->
<g id="edge6" class="edge">
<title>Node12&#45;&gt;Node6</title>
<path fill="none" stroke="#ffa500" stroke-dasharray="5,2" d="M346.2714,-548.0954C348.8708,-548.4127 351.45,-548.715 354,-549 416.6259,-555.9997 487.6066,-560.2939 541.8344,-562.8151"/>
<polygon fill="#ffa500" stroke="#ffa500" points="346.5267,-544.5996 336.1634,-546.8025 345.6385,-551.543 346.5267,-544.5996"/>
<text text-anchor="middle" x="432.5" y="-564" font-family="Helvetica,sans-Serif" font-size="10.00" fill="#000000"> &lt; BatchLinOp &gt;</text>
</g>
<!-- Node14 -->
<g id="node10" class="node">
<title>Node14</title>
<g id="a_node10"><a xlink:href="classgko_1_1EnableAbstractPolymorphicObject.html" target="_top" xlink:title=" ">
<polygon fill="#ffffff" stroke="#000000" points="529,-488.5 529,-529.5 730,-529.5 730,-488.5 529,-488.5"/>
<text text-anchor="start" x="537" y="-517.5" font-family="Helvetica,sans-Serif" font-size="10.00" fill="#000000">gko::EnableAbstractPolymorphic</text>
<text text-anchor="start" x="537" y="-506.5" font-family="Helvetica,sans-Serif" font-size="10.00" fill="#000000">Object&lt; ConcreteObject, Polymorphic</text>
<text text-anchor="middle" x="629.5" y="-495.5" font-family="Helvetica,sans-Serif" font-size="10.00" fill="#000000">Base &gt;</text>
</a>
</g>
</g>
<!-- Node12&#45;&gt;Node14 -->
<g id="edge12" class="edge">
<title>Node12&#45;&gt;Node14</title>
<path fill="none" stroke="#ffa500" stroke-dasharray="5,2" d="M346.2032,-524.1573C403.3756,-521.0984 472.9091,-517.3781 528.78,-514.3888"/>
<polygon fill="#ffa500" stroke="#ffa500" points="345.843,-520.6715 336.0443,-524.7008 346.2171,-527.6615 345.843,-520.6715"/>
<text text-anchor="start" x="354" y="-537" font-family="Helvetica,sans-Serif" font-size="10.00" fill="#000000"> &lt; ConcreteObject, Polymorphic</text>
<text text-anchor="middle" x="432.5" y="-526" font-family="Helvetica,sans-Serif" font-size="10.00" fill="#000000">Base &gt;</text>
</g>
<!-- Node21 -->
<g id="node17" class="node">
<title>Node21</title>
<g id="a_node17"><a xlink:href="classgko_1_1EnableAbstractPolymorphicObject.html" target="_top" xlink:title=" ">
<polygon fill="#ffffff" stroke="#000000" points="542,-423.5 542,-464.5 717,-464.5 717,-423.5 542,-423.5"/>
<text text-anchor="start" x="550" y="-452.5" font-family="Helvetica,sans-Serif" font-size="10.00" fill="#000000">gko::EnableAbstractPolymorphic</text>
<text text-anchor="start" x="550" y="-441.5" font-family="Helvetica,sans-Serif" font-size="10.00" fill="#000000">Object&lt; ConcreteBatchLinOp,</text>
<text text-anchor="middle" x="629.5" y="-430.5" font-family="Helvetica,sans-Serif" font-size="10.00" fill="#000000"> PolymorphicBase &gt;</text>
</a>
</g>
</g>
<!-- Node12&#45;&gt;Node21 -->
<g id="edge22" class="edge">
<title>Node12&#45;&gt;Node21</title>
<path fill="none" stroke="#ffa500" stroke-dasharray="5,2" d="M298.9789,-506.0119C316.5708,-499.8262 335.8738,-493.6184 354,-489 415.9915,-473.2051 487.3012,-461.7346 541.8381,-454.3283"/>
<polygon fill="#ffa500" stroke="#ffa500" points="297.6384,-502.7741 289.4001,-509.436 299.9947,-509.3657 297.6384,-502.7741"/>
<text text-anchor="start" x="374" y="-503" font-family="Helvetica,sans-Serif" font-size="10.00" fill="#000000"> &lt; ConcreteBatchLinOp,</text>
<text text-anchor="middle" x="432.5" y="-492" font-family="Helvetica,sans-Serif" font-size="10.00" fill="#000000"> PolymorphicBase &gt;</text>
</g>
<!-- Node11 -->
<g id="node8" class="node">
<title>Node11</title>
<g id="a_node8"><a xlink:title=" ">
<polygon fill="#ffffff" stroke="#bfbfbf" points="0,-442.5 0,-461.5 101,-461.5 101,-442.5 0,-442.5"/>
<text text-anchor="middle" x="50.5" y="-449.5" font-family="Helvetica,sans-Serif" font-size="10.00" fill="#000000">PolymorphicBase</text>
</a>
</g>
</g>
<!-- Node11&#45;&gt;Node12 -->
<g id="edge7" class="edge">
<title>Node11&#45;&gt;Node12</title>
<path fill="none" stroke="#191970" d="M82.5985,-465.4246C111.5007,-477.5123 154.4214,-495.4631 187.6791,-509.3725"/>
<polygon fill="#191970" stroke="#191970" points="83.9447,-462.1939 73.3686,-461.5643 81.2437,-468.6518 83.9447,-462.1939"/>
</g>
<!-- Node11&#45;&gt;Node14 -->
<g id="edge11" class="edge">
<title>Node11&#45;&gt;Node14</title>
<path fill="none" stroke="#191970" d="M111.2279,-446.4886C200.225,-440.056 370.7292,-433.9976 511,-466 519.5352,-467.9473 520.8592,-470.7798 529,-474 541.4558,-478.927 554.9171,-483.8705 567.8153,-488.4259"/>
<polygon fill="#191970" stroke="#191970" points="110.7572,-443.014 101.047,-447.2521 111.2807,-449.9944 110.7572,-443.014"/>
</g>
<!-- Node11&#45;&gt;Node21 -->
<g id="edge21" class="edge">
<title>Node11&#45;&gt;Node21</title>
<path fill="none" stroke="#191970" d="M100.0089,-440.656C106.37,-439.5602 112.8183,-438.6252 119,-438 292.3378,-420.4679 336.8335,-433.5935 511,-438 520.9875,-438.2527 531.4439,-438.625 541.833,-439.0625"/>
<polygon fill="#191970" stroke="#191970" points="99.3286,-437.2224 90.1355,-442.4889 100.6063,-444.1048 99.3286,-437.2224"/>
</g>
<!-- Node13 -->
<g id="node9" class="node">
<title>Node13</title>
<g id="a_node9"><a xlink:href="classgko_1_1EnablePolymorphicObject.html" target="_top" xlink:title="This mixin inherits from (a subclass of) PolymorphicObject and provides a base implementation of a ne...">
<polygon fill="#ffffff" stroke="#000000" points="917,-494 917,-524 1122,-524 1122,-494 917,-494"/>
<text text-anchor="start" x="925" y="-512" font-family="Helvetica,sans-Serif" font-size="10.00" fill="#000000">gko::EnablePolymorphicObject</text>
<text text-anchor="middle" x="1019.5" y="-501" font-family="Helvetica,sans-Serif" font-size="10.00" fill="#000000">&lt; ConcreteObject, PolymorphicBase &gt;</text>
</a>
</g>
</g>
<!-- Node13&#45;&gt;Node3 -->
<g id="edge9" class="edge">
<title>Node13&#45;&gt;Node3</title>
<path fill="none" stroke="#ffa500" stroke-dasharray="5,2" d="M1132.4696,-509.6978C1294.0069,-510.6955 1587.8951,-512.5108 1736.9789,-513.4316"/>
<polygon fill="#ffa500" stroke="#ffa500" points="1132.0452,-506.1952 1122.0237,-509.6333 1132.0019,-513.195 1132.0452,-506.1952"/>
<text text-anchor="start" x="1359.5" y="-526" font-family="Helvetica,sans-Serif" font-size="10.00" fill="#000000"> &lt; BatchEll&lt; ValueType,</text>
<text text-anchor="middle" x="1428" y="-515" font-family="Helvetica,sans-Serif" font-size="10.00" fill="#000000"> IndexType &gt;, BatchLinOp &gt;</text>
</g>
<!-- Node20 -->
<g id="node16" class="node">
<title>Node20</title>
<g id="a_node16"><a xlink:href="classgko_1_1EnablePolymorphicObject.html" target="_top" xlink:title=" ">
<polygon fill="#ffffff" stroke="#000000" points="1331,-423.5 1331,-464.5 1525,-464.5 1525,-423.5 1331,-423.5"/>
<text text-anchor="start" x="1339" y="-452.5" font-family="Helvetica,sans-Serif" font-size="10.00" fill="#000000">gko::EnablePolymorphicObject</text>
<text text-anchor="start" x="1339" y="-441.5" font-family="Helvetica,sans-Serif" font-size="10.00" fill="#000000">&lt; ConcreteBatchLinOp, Polymorphic</text>
<text text-anchor="middle" x="1428" y="-430.5" font-family="Helvetica,sans-Serif" font-size="10.00" fill="#000000">Base &gt;</text>
</a>
</g>
</g>
<!-- Node13&#45;&gt;Node20 -->
<g id="edge23" class="edge">
<title>Node13&#45;&gt;Node20</title>
<path fill="none" stroke="#ffa500" stroke-dasharray="5,2" d="M1081.5143,-491.3476C1100.1966,-486.4907 1120.8308,-481.5805 1140,-478 1175.5719,-471.3557 1262.0037,-461.4528 1330.9613,-454.0458"/>
<polygon fill="#ffa500" stroke="#ffa500" points="1080.4249,-488.0152 1071.6504,-493.9531 1082.2127,-494.7831 1080.4249,-488.0152"/>
<text text-anchor="start" x="1165" y="-492" font-family="Helvetica,sans-Serif" font-size="10.00" fill="#000000"> &lt; ConcreteBatchLinOp,</text>
<text text-anchor="middle" x="1223.5" y="-481" font-family="Helvetica,sans-Serif" font-size="10.00" fill="#000000"> PolymorphicBase &gt;</text>
</g>
<!-- Node14&#45;&gt;Node13 -->
<g id="edge10" class="edge">
<title>Node14&#45;&gt;Node13</title>
<path fill="none" stroke="#191970" d="M740.4069,-509C795.8628,-509 862.5426,-509 916.818,-509"/>
<polygon fill="#191970" stroke="#191970" points="740.1882,-505.5001 730.1882,-509 740.1882,-512.5001 740.1882,-505.5001"/>
</g>
<!-- Node15 -->
<g id="node11" class="node">
<title>Node15</title>
<g id="a_node11"><a xlink:href="classgko_1_1EnablePolymorphicAssignment.html" target="_top" xlink:title=" ">
<polygon fill="#ffffff" stroke="#000000" points="1325,-371 1325,-401 1531,-401 1531,-371 1325,-371"/>
<text text-anchor="start" x="1333" y="-389" font-family="Helvetica,sans-Serif" font-size="10.00" fill="#000000">gko::EnablePolymorphicAssignment</text>
<text text-anchor="middle" x="1428" y="-378" font-family="Helvetica,sans-Serif" font-size="10.00" fill="#000000">&lt; BatchEll&lt; ValueType, IndexType &gt; &gt;</text>
</a>
</g>
</g>
<!-- Node15&#45;&gt;Node2 -->
<g id="edge13" class="edge">
<title>Node15&#45;&gt;Node2</title>
<path fill="none" stroke="#191970" d="M1541.3078,-384.389C1667.265,-382.3859 1876.721,-378.4237 2057,-372 2068.7827,-371.5802 2081.3267,-371.041 2093.4414,-370.473"/>
<polygon fill="#191970" stroke="#191970" points="1541.204,-380.8901 1531.2605,-384.5474 1541.3145,-387.8892 1541.204,-380.8901"/>
</g>
<!-- Node16 -->
<g id="node12" class="node">
<title>Node16</title>
<g id="a_node12"><a xlink:href="classgko_1_1ConvertibleTo.html" target="_top" xlink:title=" ">
<polygon fill="#ffffff" stroke="#000000" points="954,-374.5 954,-415.5 1085,-415.5 1085,-374.5 954,-374.5"/>
<text text-anchor="start" x="962" y="-403.5" font-family="Helvetica,sans-Serif" font-size="10.00" fill="#000000">gko::ConvertibleTo</text>
<text text-anchor="start" x="962" y="-392.5" font-family="Helvetica,sans-Serif" font-size="10.00" fill="#000000">&lt; BatchEll&lt; ValueType,</text>
<text text-anchor="middle" x="1019.5" y="-381.5" font-family="Helvetica,sans-Serif" font-size="10.00" fill="#000000"> IndexType &gt; &gt;</text>
</a>
</g>
</g>
<!-- Node16&#45;&gt;Node15 -->
<g id="edge14" class="edge">
<title>Node16&#45;&gt;Node15</title>
<path fill="none" stroke="#191970" d="M1095.2397,-393.3313C1159.8069,-391.9088 1253.2295,-389.8505 1324.6604,-388.2768"/>
<polygon fill="#191970" stroke="#191970" points="1095.053,-389.8345 1085.1326,-393.554 1095.2073,-396.8328 1095.053,-389.8345"/>
</g>
<!-- Node17 -->
<g id="node13" class="node">
<title>Node17</title>
<g id="a_node13"><a xlink:href="classgko_1_1ConvertibleTo.html" target="_top" xlink:title="ConvertibleTo interface is used to mark that the implementer can be converted to the object of Result...">
<polygon fill="#ffffff" stroke="#000000" points="576,-277 576,-307 683,-307 683,-277 576,-277"/>
<text text-anchor="start" x="584" y="-295" font-family="Helvetica,sans-Serif" font-size="10.00" fill="#000000">gko::ConvertibleTo</text>
<text text-anchor="middle" x="629.5" y="-284" font-family="Helvetica,sans-Serif" font-size="10.00" fill="#000000">&lt; ResultType &gt;</text>
</a>
</g>
</g>
<!-- Node17&#45;&gt;Node16 -->
<g id="edge15" class="edge">
<title>Node17&#45;&gt;Node16</title>
<path fill="none" stroke="#ffa500" stroke-dasharray="5,2" d="M683.3569,-310.2158C703.5336,-316.7901 726.7219,-324.0503 748,-330 817.7822,-349.5121 898.6527,-368.4022 953.8624,-380.7423"/>
<polygon fill="#ffa500" stroke="#ffa500" points="684.3083,-306.8444 673.7155,-307.0523 682.1259,-313.4956 684.3083,-306.8444"/>
<text text-anchor="start" x="764.5" y="-381" font-family="Helvetica,sans-Serif" font-size="10.00" fill="#000000"> &lt; BatchEll&lt; ValueType,</text>
<text text-anchor="middle" x="823.5" y="-370" font-family="Helvetica,sans-Serif" font-size="10.00" fill="#000000"> IndexType &gt; &gt;</text>
</g>
<!-- Node18 -->
<g id="node14" class="node">
<title>Node18</title>
<g id="a_node14"><a xlink:href="classgko_1_1EnablePolymorphicAssignment.html" target="_top" xlink:title="This mixin is used to enable a default PolymorphicObject::copy_from() implementation for objects that...">
<polygon fill="#ffffff" stroke="#000000" points="923.5,-325 923.5,-355 1115.5,-355 1115.5,-325 923.5,-325"/>
<text text-anchor="start" x="931.5" y="-343" font-family="Helvetica,sans-Serif" font-size="10.00" fill="#000000">gko::EnablePolymorphicAssignment</text>
<text text-anchor="middle" x="1019.5" y="-332" font-family="Helvetica,sans-Serif" font-size="10.00" fill="#000000">&lt; ConcreteType, ResultType &gt;</text>
</a>
</g>
</g>
<!-- Node17&#45;&gt;Node18 -->
<g id="edge17" class="edge">
<title>Node17&#45;&gt;Node18</title>
<path fill="none" stroke="#191970" d="M693.4167,-299.8667C755.797,-307.5442 851.5077,-319.324 923.1263,-328.1386"/>
<polygon fill="#191970" stroke="#191970" points="693.6711,-296.3716 683.3184,-298.6238 692.8159,-303.3192 693.6711,-296.3716"/>
</g>
<!-- Node23 -->
<g id="node19" class="node">
<title>Node23</title>
<g id="a_node19"><a xlink:href="classgko_1_1ConvertibleTo.html" target="_top" xlink:title=" ">
<polygon fill="#ffffff" stroke="#000000" points="950.5,-276 950.5,-306 1088.5,-306 1088.5,-276 950.5,-276"/>
<text text-anchor="start" x="958.5" y="-294" font-family="Helvetica,sans-Serif" font-size="10.00" fill="#000000">gko::ConvertibleTo</text>
<text text-anchor="middle" x="1019.5" y="-283" font-family="Helvetica,sans-Serif" font-size="10.00" fill="#000000">&lt; ConcreteBatchLinOp &gt;</text>
</a>
</g>
</g>
<!-- Node17&#45;&gt;Node23 -->
<g id="edge26" class="edge">
<title>Node17&#45;&gt;Node23</title>
<path fill="none" stroke="#ffa500" stroke-dasharray="5,2" d="M693.4343,-291.8361C764.1728,-291.6547 877.7563,-291.3634 950.4749,-291.177"/>
<polygon fill="#ffa500" stroke="#ffa500" points="693.3093,-288.3363 683.3184,-291.862 693.3273,-295.3363 693.3093,-288.3363"/>
<text text-anchor="middle" x="823.5" y="-294" font-family="Helvetica,sans-Serif" font-size="10.00" fill="#000000"> &lt; ConcreteBatchLinOp &gt;</text>
</g>
<!-- Node26 -->
<g id="node22" class="node">
<title>Node26</title>
<g id="a_node22"><a xlink:href="classgko_1_1ConvertibleTo.html" target="_top" xlink:title=" ">
<polygon fill="#ffffff" stroke="#000000" points="1140,-230.5 1140,-271.5 1307,-271.5 1307,-230.5 1140,-230.5"/>
<text text-anchor="start" x="1148" y="-259.5" font-family="Helvetica,sans-Serif" font-size="10.00" fill="#000000">gko::ConvertibleTo</text>
<text text-anchor="start" x="1148" y="-248.5" font-family="Helvetica,sans-Serif" font-size="10.00" fill="#000000">&lt; BatchEll&lt; next_precision</text>
<text text-anchor="middle" x="1223.5" y="-237.5" font-family="Helvetica,sans-Serif" font-size="10.00" fill="#000000">&lt; ValueType &gt;, IndexType &gt; &gt;</text>
</a>
</g>
</g>
<!-- Node17&#45;&gt;Node26 -->
<g id="edge31" class="edge">
<title>Node17&#45;&gt;Node26</title>
<path fill="none" stroke="#ffa500" stroke-dasharray="5,2" d="M693.2469,-275.0836C710.8616,-271.0652 730.0656,-267.2851 748,-265 884.406,-247.6203 1044.518,-246.9257 1139.7987,-248.5642"/>
<polygon fill="#ffa500" stroke="#ffa500" points="692.0177,-271.7768 683.0809,-277.4676 693.6159,-278.5919 692.0177,-271.7768"/>
<text text-anchor="start" x="748" y="-279" font-family="Helvetica,sans-Serif" font-size="10.00" fill="#000000"> &lt; BatchEll&lt; next_precision</text>
<text text-anchor="middle" x="823.5" y="-268" font-family="Helvetica,sans-Serif" font-size="10.00" fill="#000000">&lt; ValueType &gt;, IndexType &gt; &gt;</text>
</g>
<!-- Node27 -->
<g id="node23" class="node">
<title>Node27</title>
<g id="a_node23"><a xlink:href="classgko_1_1ConvertibleTo.html" target="_top" xlink:title=" ">
<polygon fill="#ffffff" stroke="#000000" points="1549,-178 1549,-208 1719,-208 1719,-178 1549,-178"/>
<text text-anchor="start" x="1557" y="-196" font-family="Helvetica,sans-Serif" font-size="10.00" fill="#000000">gko::ConvertibleTo</text>
<text text-anchor="middle" x="1634" y="-185" font-family="Helvetica,sans-Serif" font-size="10.00" fill="#000000">&lt; BatchDense&lt; ValueType &gt; &gt;</text>
</a>
</g>
</g>
<!-- Node17&#45;&gt;Node27 -->
<g id="edge33" class="edge">
<title>Node17&#45;&gt;Node27</title>
<path fill="none" stroke="#ffa500" stroke-dasharray="5,2" d="M672.2054,-273.0593C694.3892,-264.0177 722.1909,-253.906 748,-248 821.5459,-231.1701 841.7615,-237.6056 917,-232 1145.1247,-215.0038 1414.6042,-202.3351 1548.9426,-196.5227"/>
<polygon fill="#ffa500" stroke="#ffa500" points="670.6435,-269.9181 662.7507,-276.9859 673.3283,-276.3828 670.6435,-269.9181"/>
<text text-anchor="middle" x="1019.5" y="-235" font-family="Helvetica,sans-Serif" font-size="10.00" fill="#000000"> &lt; BatchDense&lt; ValueType &gt; &gt;</text>
</g>
<!-- Node18&#45;&gt;Node15 -->
<g id="edge16" class="edge">
<title>Node18&#45;&gt;Node15</title>
<path fill="none" stroke="#ffa500" stroke-dasharray="5,2" d="M1125.6406,-345.0875C1180.0358,-348.4624 1247.2365,-353.8162 1307,-362 1324.1867,-364.3535 1342.6111,-367.6204 1359.7694,-370.987"/>
<polygon fill="#ffa500" stroke="#ffa500" points="1125.8313,-341.5927 1115.6376,-344.4802 1125.407,-348.5799 1125.8313,-341.5927"/>
<text text-anchor="start" x="1164.5" y="-376" font-family="Helvetica,sans-Serif" font-size="10.00" fill="#000000"> &lt; BatchEll&lt; ValueType,</text>
<text text-anchor="middle" x="1223.5" y="-365" font-family="Helvetica,sans-Serif" font-size="10.00" fill="#000000"> IndexType &gt; &gt;</text>
</g>
<!-- Node22 -->
<g id="node18" class="node">
<title>Node22</title>
<g id="a_node18"><a xlink:href="classgko_1_1EnablePolymorphicAssignment.html" target="_top" xlink:title=" ">
<polygon fill="#ffffff" stroke="#000000" points="1332,-312 1332,-342 1524,-342 1524,-312 1332,-312"/>
<text text-anchor="start" x="1340" y="-330" font-family="Helvetica,sans-Serif" font-size="10.00" fill="#000000">gko::EnablePolymorphicAssignment</text>
<text text-anchor="middle" x="1428" y="-319" font-family="Helvetica,sans-Serif" font-size="10.00" fill="#000000">&lt; ConcreteBatchLinOp &gt;</text>
</a>
</g>
</g>
<!-- Node18&#45;&gt;Node22 -->
<g id="edge27" class="edge">
<title>Node18&#45;&gt;Node22</title>
<path fill="none" stroke="#ffa500" stroke-dasharray="5,2" d="M1126.1049,-327.8797C1130.797,-327.5417 1135.4448,-327.245 1140,-327 1203.9076,-323.5627 1275.9076,-323.5627 1331.9307,-324.422"/>
<polygon fill="#ffa500" stroke="#ffa500" points="1125.4799,-324.4176 1115.7809,-328.6813 1126.0218,-331.3966 1125.4799,-324.4176"/>
<text text-anchor="middle" x="1223.5" y="-330" font-family="Helvetica,sans-Serif" font-size="10.00" fill="#000000"> &lt; ConcreteBatchLinOp &gt;</text>
</g>
<!-- Node19 -->
<g id="node15" class="node">
<title>Node19</title>
<g id="a_node15"><a xlink:href="classgko_1_1EnableBatchLinOp.html" target="_top" xlink:title="The EnableBatchLinOp mixin can be used to provide sensible default implementations of the majority of...">
<polygon fill="#ffffff" stroke="#000000" points="1764,-316.5 1764,-357.5 1894,-357.5 1894,-316.5 1764,-316.5"/>
<text text-anchor="start" x="1772" y="-345.5" font-family="Helvetica,sans-Serif" font-size="10.00" fill="#000000">gko::EnableBatchLinOp</text>
<text text-anchor="start" x="1772" y="-334.5" font-family="Helvetica,sans-Serif" font-size="10.00" fill="#000000">&lt; ConcreteBatchLinOp,</text>
<text text-anchor="middle" x="1829" y="-323.5" font-family="Helvetica,sans-Serif" font-size="10.00" fill="#000000"> PolymorphicBase &gt;</text>
</a>
</g>
</g>
<!-- Node19&#45;&gt;Node2 -->
<g id="edge18" class="edge">
<title>Node19&#45;&gt;Node2</title>
<path fill="none" stroke="#ffa500" stroke-dasharray="5,2" d="M1904.1812,-339.2408C1948.7127,-341.0774 2006.1873,-344.3338 2057,-350 2068.7757,-351.3131 2081.2593,-353.0791 2093.3029,-354.9772"/>
<polygon fill="#ffa500" stroke="#ffa500" points="1904.1509,-335.7369 1894.0197,-338.837 1903.8728,-342.7314 1904.1509,-335.7369"/>
<text text-anchor="start" x="1939" y="-364" font-family="Helvetica,sans-Serif" font-size="10.00" fill="#000000"> &lt; BatchEll&lt; ValueType,</text>
<text text-anchor="middle" x="1998" y="-353" font-family="Helvetica,sans-Serif" font-size="10.00" fill="#000000"> IndexType &gt; &gt;</text>
</g>
<!-- Node20&#45;&gt;Node19 -->
<g id="edge19" class="edge">
<title>Node20&#45;&gt;Node19</title>
<path fill="none" stroke="#191970" d="M1514.7201,-420.8602C1589.5201,-400.9011 1695.9016,-372.515 1763.6887,-354.4272"/>
<polygon fill="#191970" stroke="#191970" points="1513.6019,-417.536 1504.8424,-423.4959 1515.4067,-424.2994 1513.6019,-417.536"/>
</g>
<!-- Node21&#45;&gt;Node20 -->
<g id="edge20" class="edge">
<title>Node21&#45;&gt;Node20</title>
<path fill="none" stroke="#191970" d="M727.6115,-444C881.4287,-444 1177.56,-444 1330.8079,-444"/>
<polygon fill="#191970" stroke="#191970" points="727.2377,-440.5001 717.2376,-444 727.2376,-447.5001 727.2377,-440.5001"/>
</g>
<!-- Node22&#45;&gt;Node19 -->
<g id="edge24" class="edge">
<title>Node22&#45;&gt;Node19</title>
<path fill="none" stroke="#191970" d="M1534.1962,-329.6483C1607.1598,-331.4678 1701.7001,-333.8254 1763.7918,-335.3739"/>
<polygon fill="#191970" stroke="#191970" points="1534.1337,-326.1457 1524.0495,-329.3952 1533.9591,-333.1436 1534.1337,-326.1457"/>
</g>
<!-- Node23&#45;&gt;Node22 -->
<g id="edge25" class="edge">
<title>Node23&#45;&gt;Node22</title>
<path fill="none" stroke="#191970" d="M1098.8252,-297.9907C1165.471,-303.864 1260.9274,-312.2763 1331.9002,-318.531"/>
<polygon fill="#191970" stroke="#191970" points="1099.0651,-294.4984 1088.7965,-297.1069 1098.4506,-301.4714 1099.0651,-294.4984"/>
</g>
<!-- Node24 -->
<g id="node20" class="node">
<title>Node24</title>
<g id="a_node20"><a xlink:href="classgko_1_1EnableCreateMethod.html" target="_top" xlink:title=" ">
<polygon fill="#ffffff" stroke="#000000" points="2088,-213.5 2088,-254.5 2230,-254.5 2230,-213.5 2088,-213.5"/>
<text text-anchor="start" x="2096" y="-242.5" font-family="Helvetica,sans-Serif" font-size="10.00" fill="#000000">gko::EnableCreateMethod</text>
<text text-anchor="start" x="2096" y="-231.5" font-family="Helvetica,sans-Serif" font-size="10.00" fill="#000000">&lt; BatchEll&lt; ValueType,</text>
<text text-anchor="middle" x="2159" y="-220.5" font-family="Helvetica,sans-Serif" font-size="10.00" fill="#000000"> IndexType &gt; &gt;</text>
</a>
</g>
</g>
<!-- Node24&#45;&gt;Node1 -->
<g id="edge28" class="edge">
<title>Node24&#45;&gt;Node1</title>
<path fill="none" stroke="#191970" d="M2230.8412,-210.1321C2241.3244,-206.4915 2251.9634,-202.7096 2262,-199 2279.6791,-192.4656 2299.1156,-184.7582 2315.3878,-178.1549"/>
<polygon fill="#191970" stroke="#191970" points="2229.5919,-206.8605 2221.2793,-213.4295 2231.874,-213.4781 2229.5919,-206.8605"/>
</g>
<!-- Node25 -->
<g id="node21" class="node">
<title>Node25</title>
<g id="a_node21"><a xlink:href="classgko_1_1EnableCreateMethod.html" target="_top" xlink:title="This mixin implements a static create() method on ConcreteType that dynamically allocates the memory,...">
<polygon fill="#ffffff" stroke="#000000" points="1758,-219 1758,-249 1900,-249 1900,-219 1758,-219"/>
<text text-anchor="start" x="1766" y="-237" font-family="Helvetica,sans-Serif" font-size="10.00" fill="#000000">gko::EnableCreateMethod</text>
<text text-anchor="middle" x="1829" y="-226" font-family="Helvetica,sans-Serif" font-size="10.00" fill="#000000">&lt; ConcreteType &gt;</text>
</a>
</g>
</g>
<!-- Node25&#45;&gt;Node24 -->
<g id="edge29" class="edge">
<title>Node25&#45;&gt;Node24</title>
<path fill="none" stroke="#ffa500" stroke-dasharray="5,2" d="M1910.5067,-234C1964.9285,-234 2035.8047,-234 2087.9288,-234"/>
<polygon fill="#ffa500" stroke="#ffa500" points="1910.1988,-230.5001 1900.1988,-234 1910.1988,-237.5001 1910.1988,-230.5001"/>
<text text-anchor="start" x="1939" y="-248" font-family="Helvetica,sans-Serif" font-size="10.00" fill="#000000"> &lt; BatchEll&lt; ValueType,</text>
<text text-anchor="middle" x="1998" y="-237" font-family="Helvetica,sans-Serif" font-size="10.00" fill="#000000"> IndexType &gt; &gt;</text>
</g>
<!-- Node26&#45;&gt;Node1 -->
<g id="edge30" class="edge">
<title>Node26&#45;&gt;Node1</title>
<path fill="none" stroke="#191970" d="M1317.2579,-262.4815C1400.3561,-271.6602 1525.0635,-283 1634,-283 1634,-283 1634,-283 2159,-283 2197.2764,-283 2209.1357,-281.8409 2243,-264 2284.3129,-242.2349 2321.6951,-200.7578 2340.0529,-178.3229"/>
<polygon fill="#191970" stroke="#191970" points="1317.408,-258.9766 1307.0814,-261.3453 1316.6312,-265.9334 1317.408,-258.9766"/>
</g>
<!-- Node27&#45;&gt;Node1 -->
<g id="edge32" class="edge">
<title>Node27&#45;&gt;Node1</title>
<path fill="none" stroke="#191970" d="M1729.4434,-189.0121C1875.0859,-182.9268 2149.591,-171.4572 2279.868,-166.0139"/>
<polygon fill="#191970" stroke="#191970" points="1729.0287,-185.5263 1719.1836,-189.4408 1729.321,-192.5202 1729.0287,-185.5263"/>
</g>
<!-- Node28 -->
<g id="node24" class="node">
<title>Node28</title>
<g id="a_node24"><a xlink:href="classgko_1_1BatchReadableFromMatrixData.html" target="_top" xlink:title="A BatchLinOp implementing this interface can read its data from a matrix_data structure.">
<polygon fill="#ffffff" stroke="#000000" points="2075,-126 2075,-156 2243,-156 2243,-126 2075,-126"/>
<text text-anchor="start" x="2083" y="-144" font-family="Helvetica,sans-Serif" font-size="10.00" fill="#000000">gko::BatchReadableFromMatrix</text>
<text text-anchor="middle" x="2159" y="-133" font-family="Helvetica,sans-Serif" font-size="10.00" fill="#000000">Data&lt; ValueType, IndexType &gt;</text>
</a>
</g>
</g>
<!-- Node28&#45;&gt;Node1 -->
<g id="edge34" class="edge">
<title>Node28&#45;&gt;Node1</title>
<path fill="none" stroke="#191970" d="M2253.2185,-151.7399C2262.2131,-152.7652 2271.2341,-153.7935 2279.9688,-154.7892"/>
<polygon fill="#191970" stroke="#191970" points="2253.4233,-148.2407 2243.0912,-150.5855 2252.6304,-155.1957 2253.4233,-148.2407"/>
</g>
<!-- Node29 -->
<g id="node25" class="node">
<title>Node29</title>
<g id="a_node25"><a xlink:href="classgko_1_1BatchWritableToMatrixData.html" target="_top" xlink:title="A BatchLinOp implementing this interface can write its data to a std::vector of matrix_data objects.">
<polygon fill="#ffffff" stroke="#000000" points="2075.5,-77 2075.5,-107 2242.5,-107 2242.5,-77 2075.5,-77"/>
<text text-anchor="start" x="2083.5" y="-95" font-family="Helvetica,sans-Serif" font-size="10.00" fill="#000000">gko::BatchWritableToMatrix</text>
<text text-anchor="middle" x="2159" y="-84" font-family="Helvetica,sans-Serif" font-size="10.00" fill="#000000">Data&lt; ValueType, IndexType &gt;</text>
</a>
</g>
</g>
<!-- Node29&#45;&gt;Node1 -->
<g id="edge35" class="edge">
<title>Node29&#45;&gt;Node1</title>
<path fill="none" stroke="#191970" d="M2222.9836,-110.2417C2229.7754,-112.4161 2236.5526,-114.688 2243,-117 2268.9079,-126.2903 2297.558,-138.4582 2318.9812,-147.9458"/>
<polygon fill="#191970" stroke="#191970" points="2223.6483,-106.7823 2213.0593,-107.1324 2221.5554,-113.4621 2223.6483,-106.7823"/>
</g>
<!-- Node30 -->
<g id="node26" class="node">
<title>Node30</title>
<g id="a_node26"><a xlink:href="classgko_1_1BatchTransposable.html" target="_top" xlink:title="Batch Linear operators which support transposition of the distinct batch entries should implement the...">
<polygon fill="#ffffff" stroke="#000000" points="2093,-38.5 2093,-57.5 2225,-57.5 2225,-38.5 2093,-38.5"/>
<text text-anchor="middle" x="2159" y="-45.5" font-family="Helvetica,sans-Serif" font-size="10.00" fill="#000000">gko::BatchTransposable</text>
</a>
</g>
</g>
<!-- Node30&#45;&gt;Node1 -->
<g id="edge36" class="edge">
<title>Node30&#45;&gt;Node1</title>
<path fill="none" stroke="#191970" d="M2225.5113,-60.6213C2231.5675,-62.722 2237.4892,-65.1638 2243,-68 2282.9523,-88.562 2320.3246,-126.8155 2339.192,-147.9671"/>
<polygon fill="#191970" stroke="#191970" points="2226.5134,-57.2674 2215.9236,-57.5931 2224.4051,-63.9424 2226.5134,-57.2674"/>
</g>
<!-- Node31 -->
<g id="node27" class="node">
<title>Node31</title>
<g id="a_node27"><a xlink:href="classgko_1_1EnableBatchScaling.html" target="_top" xlink:title="Default batch scalable interface with some type&#45;checking.">
<polygon fill="#ffffff" stroke="#000000" points="2090.5,-.5 2090.5,-19.5 2227.5,-19.5 2227.5,-.5 2090.5,-.5"/>
<text text-anchor="middle" x="2159" y="-7.5" font-family="Helvetica,sans-Serif" font-size="10.00" fill="#000000">gko::EnableBatchScaling</text>
</a>
</g>
</g>
<!-- Node31&#45;&gt;Node1 -->
<g id="edge37" class="edge">
<title>Node31&#45;&gt;Node1</title>
<path fill="none" stroke="#191970" d="M2232.2436,-23.3404C2235.9828,-25.0102 2239.5952,-26.8881 2243,-29 2291.93,-59.3493 2328.7775,-119.5496 2344.1431,-147.753"/>
<polygon fill="#191970" stroke="#191970" points="2233.321,-20.0033 2222.7337,-19.6036 2230.7609,-26.5184 2233.321,-20.0033"/>
</g>
<!-- Node32 -->
<g id="node28" class="node">
<title>Node32</title>
<g id="a_node28"><a xlink:href="classgko_1_1BatchScalable.html" target="_top" xlink:title="A batch made up of entities that can scaled from the left and right by scaling vectors.">
<polygon fill="#ffffff" stroke="#000000" points="1774,-.5 1774,-19.5 1884,-19.5 1884,-.5 1774,-.5"/>
<text text-anchor="middle" x="1829" y="-7.5" font-family="Helvetica,sans-Serif" font-size="10.00" fill="#000000">gko::BatchScalable</text>
</a>
</g>
</g>
<!-- Node32&#45;&gt;Node31 -->
<g id="edge38" class="edge">
<title>Node32&#45;&gt;Node31</title>
<path fill="none" stroke="#191970" d="M1894.5148,-10C1951.1896,-10 2032.8532,-10 2090.4093,-10"/>
<polygon fill="#191970" stroke="#191970" points="1894.2346,-6.5001 1884.2346,-10 1894.2345,-13.5001 1894.2346,-6.5001"/>
</g>
</g>
</svg>
