<?xml version="1.0" encoding="UTF-8" standalone="no"?>
<!DOCTYPE svg PUBLIC "-//W3C//DTD SVG 1.1//EN"
 "http://www.w3.org/Graphics/SVG/1.1/DTD/svg11.dtd">
<!-- Generated by graphviz version 2.40.1 (20161225.0304)
 -->
<!-- Title: gko::BatchLinOpFactory Pages: 1 -->
<svg width="1928pt" height="172pt"
 viewBox="0.00 0.00 1928.00 171.87" xmlns="http://www.w3.org/2000/svg" xmlns:xlink="http://www.w3.org/1999/xlink">
<g id="graph0" class="graph" transform="scale(1 1) rotate(0) translate(4 167.8684)">
<title>gko::BatchLinOpFactory</title>
<polygon fill="#ffffff" stroke="transparent" points="-4,4 -4,-167.8684 1924,-167.8684 1924,4 -4,4"/>
<!-- Node1 -->
<g id="node1" class="node">
<title>Node1</title>
<g id="a_node1"><a xlink:title="A BatchLinOpFactory represents a higher order mapping which transforms one batch linear operator into...">
<polygon fill="#bfbfbf" stroke="#000000" points="1789,-66.3684 1789,-85.3684 1920,-85.3684 1920,-66.3684 1789,-66.3684"/>
<text text-anchor="middle" x="1854.5" y="-73.3684" font-family="Helvetica,sans-Serif" font-size="10.00" fill="#000000">gko::BatchLinOpFactory</text>
</a>
</g>
</g>
<!-- Node2 -->
<g id="node2" class="node">
<title>Node2</title>
<g id="a_node2"><a xlink:title=" ">
<polygon fill="#ffffff" stroke="#bfbfbf" points="1598,-55.3684 1598,-96.3684 1752,-96.3684 1752,-55.3684 1598,-55.3684"/>
<text text-anchor="start" x="1606" y="-84.3684" font-family="Helvetica,sans-Serif" font-size="10.00" fill="#000000">gko::AbstractFactory</text>
<text text-anchor="start" x="1606" y="-73.3684" font-family="Helvetica,sans-Serif" font-size="10.00" fill="#000000">&lt; BatchLinOp, std::shared</text>
<text text-anchor="middle" x="1675" y="-62.3684" font-family="Helvetica,sans-Serif" font-size="10.00" fill="#000000">_ptr&lt; const BatchLinOp &gt; &gt;</text>
</a>
</g>
</g>
<!-- Node2&#45;&gt;Node1 -->
<g id="edge1" class="edge">
<title>Node2&#45;&gt;Node1</title>
<path fill="none" stroke="#191970" d="M1762.2735,-75.8684C1771.2554,-75.8684 1780.2704,-75.8684 1788.9583,-75.8684"/>
<polygon fill="#191970" stroke="#191970" points="1762.1659,-72.3685 1752.1659,-75.8684 1762.1658,-79.3685 1762.1659,-72.3685"/>
</g>
<!-- Node3 -->
<g id="node3" class="node">
<title>Node3</title>
<g id="a_node3"><a xlink:title=" ">
<polygon fill="#ffffff" stroke="#bfbfbf" points="1055.5,-76.8684 1055.5,-128.8684 1230.5,-128.8684 1230.5,-76.8684 1055.5,-76.8684"/>
<text text-anchor="start" x="1063.5" y="-116.8684" font-family="Helvetica,sans-Serif" font-size="10.00" fill="#000000">gko::EnableAbstractPolymorphic</text>
<text text-anchor="start" x="1063.5" y="-105.8684" font-family="Helvetica,sans-Serif" font-size="10.00" fill="#000000">Object&lt; AbstractFactory&lt;</text>
<text text-anchor="start" x="1063.5" y="-94.8684" font-family="Helvetica,sans-Serif" font-size="10.00" fill="#000000"> BatchLinOp, std::shared_ptr</text>
<text text-anchor="middle" x="1143" y="-83.8684" font-family="Helvetica,sans-Serif" font-size="10.00" fill="#000000">&lt; const BatchLinOp &gt; &gt; &gt;</text>
</a>
</g>
</g>
<!-- Node3&#45;&gt;Node2 -->
<g id="edge2" class="edge">
<title>Node3&#45;&gt;Node2</title>
<path fill="none" stroke="#191970" d="M1240.6066,-100.9142C1329.2366,-98.7016 1463.5117,-94.2559 1580,-85.8684 1585.7895,-85.4515 1591.7716,-84.9617 1597.7856,-84.4267"/>
<polygon fill="#191970" stroke="#191970" points="1240.4776,-97.4162 1230.5663,-101.1601 1240.6491,-104.4141 1240.4776,-97.4162"/>
</g>
<!-- Node4 -->
<g id="node4" class="node">
<title>Node4</title>
<g id="a_node4"><a xlink:href="classgko_1_1PolymorphicObject.html" target="_top" xlink:title="A PolymorphicObject is the abstract base for all &quot;heavy&quot; objects in Ginkgo that behave polymorphicall...">
<polygon fill="#ffffff" stroke="#000000" points="676.5,-106.3684 676.5,-125.3684 809.5,-125.3684 809.5,-106.3684 676.5,-106.3684"/>
<text text-anchor="middle" x="743" y="-113.3684" font-family="Helvetica,sans-Serif" font-size="10.00" fill="#000000">gko::PolymorphicObject</text>
</a>
</g>
</g>
<!-- Node4&#45;&gt;Node3 -->
<g id="edge3" class="edge">
<title>Node4&#45;&gt;Node3</title>
<path fill="none" stroke="#191970" d="M819.9234,-119.6243C833.2821,-120.1426 847.0419,-120.5916 860,-120.8684 926.2071,-122.2824 942.9253,-125.2864 1009,-120.8684 1023.9891,-119.8661 1039.8587,-118.24 1055.2317,-116.3646"/>
<polygon fill="#191970" stroke="#191970" points="819.939,-116.1222 809.806,-119.2162 819.6568,-123.1165 819.939,-116.1222"/>
</g>
<!-- Node11 -->
<g id="node11" class="node">
<title>Node11</title>
<g id="a_node11"><a xlink:href="classgko_1_1EnableAbstractPolymorphicObject.html" target="_top" xlink:title=" ">
<polygon fill="#ffffff" stroke="#000000" points="1027,-16.3684 1027,-57.3684 1259,-57.3684 1259,-16.3684 1027,-16.3684"/>
<text text-anchor="start" x="1035" y="-45.3684" font-family="Helvetica,sans-Serif" font-size="10.00" fill="#000000">gko::EnableAbstractPolymorphic</text>
<text text-anchor="start" x="1035" y="-34.3684" font-family="Helvetica,sans-Serif" font-size="10.00" fill="#000000">Object&lt; AbstractFactory&lt;</text>
<text text-anchor="middle" x="1143" y="-23.3684" font-family="Helvetica,sans-Serif" font-size="10.00" fill="#000000"> AbstractProductType, ComponentsType &gt; &gt;</text>
</a>
</g>
</g>
<!-- Node4&#45;&gt;Node11 -->
<g id="edge12" class="edge">
<title>Node4&#45;&gt;Node11</title>
<path fill="none" stroke="#191970" d="M819.7821,-117.562C886.8284,-117.7062 978.11,-114.2696 1009,-95.8684 1021.7098,-88.2971 1015.0486,-76.5878 1027,-67.8684 1032.3889,-63.9368 1038.243,-60.5038 1044.3619,-57.506"/>
<polygon fill="#191970" stroke="#191970" points="819.6766,-114.0616 809.6597,-117.5131 819.6426,-121.0615 819.6766,-114.0616"/>
</g>
<!-- Node5 -->
<g id="node5" class="node">
<title>Node5</title>
<g id="a_node5"><a xlink:href="classgko_1_1log_1_1EnableLogging.html" target="_top" xlink:title=" ">
<polygon fill="#ffffff" stroke="#000000" points="474,-100.8684 474,-130.8684 607,-130.8684 607,-100.8684 474,-100.8684"/>
<text text-anchor="start" x="482" y="-118.8684" font-family="Helvetica,sans-Serif" font-size="10.00" fill="#000000">gko::log::EnableLogging</text>
<text text-anchor="middle" x="540.5" y="-107.8684" font-family="Helvetica,sans-Serif" font-size="10.00" fill="#000000">&lt; PolymorphicObject &gt;</text>
</a>
</g>
</g>
<!-- Node5&#45;&gt;Node4 -->
<g id="edge4" class="edge">
<title>Node5&#45;&gt;Node4</title>
<path fill="none" stroke="#191970" d="M617.1452,-115.8684C636.6376,-115.8684 657.4252,-115.8684 676.3734,-115.8684"/>
<polygon fill="#191970" stroke="#191970" points="617.0866,-112.3685 607.0865,-115.8684 617.0865,-119.3685 617.0866,-112.3685"/>
</g>
<!-- Node6 -->
<g id="node6" class="node">
<title>Node6</title>
<g id="a_node6"><a xlink:href="classgko_1_1log_1_1Loggable.html" target="_top" xlink:title="Loggable class is an interface which should be implemented by classes wanting to support logging.">
<polygon fill="#ffffff" stroke="#000000" points="176,-84.3684 176,-103.3684 282,-103.3684 282,-84.3684 176,-84.3684"/>
<text text-anchor="middle" x="229" y="-91.3684" font-family="Helvetica,sans-Serif" font-size="10.00" fill="#000000">gko::log::Loggable</text>
</a>
</g>
</g>
<!-- Node6&#45;&gt;Node5 -->
<g id="edge5" class="edge">
<title>Node6&#45;&gt;Node5</title>
<path fill="none" stroke="#191970" d="M292.4534,-98.3498C345.2884,-102.0813 420.2902,-107.3784 473.9643,-111.1692"/>
<polygon fill="#191970" stroke="#191970" points="292.4166,-94.8386 282.1948,-97.6253 291.9234,-101.8212 292.4166,-94.8386"/>
</g>
<!-- Node7 -->
<g id="node7" class="node">
<title>Node7</title>
<g id="a_node7"><a xlink:href="classgko_1_1log_1_1EnableLogging.html" target="_top" xlink:title="EnableLogging is a mixin which should be inherited by any class which wants to enable logging.">
<polygon fill="#ffffff" stroke="#000000" points="138,-122.3684 138,-163.3684 320,-163.3684 320,-122.3684 138,-122.3684"/>
<text text-anchor="start" x="146" y="-151.3684" font-family="Helvetica,sans-Serif" font-size="10.00" fill="#000000">gko::log::EnableLogging</text>
<text text-anchor="start" x="146" y="-140.3684" font-family="Helvetica,sans-Serif" font-size="10.00" fill="#000000">&lt; ConcreteLoggable, Polymorphic</text>
<text text-anchor="middle" x="229" y="-129.3684" font-family="Helvetica,sans-Serif" font-size="10.00" fill="#000000">Base &gt;</text>
</a>
</g>
</g>
<!-- Node7&#45;&gt;Node5 -->
<g id="edge6" class="edge">
<title>Node7&#45;&gt;Node5</title>
<path fill="none" stroke="#ffa500" stroke-dasharray="5,2" d="M330.5808,-134.0636C377.6219,-129.9862 432.1938,-125.2561 473.9039,-121.6407"/>
<polygon fill="#ffa500" stroke="#ffa500" points="330.0159,-130.5993 320.3555,-134.9499 330.6204,-137.5732 330.0159,-130.5993"/>
<text text-anchor="middle" x="397" y="-135.8684" font-family="Helvetica,sans-Serif" font-size="10.00" fill="#000000"> &lt; PolymorphicObject &gt;</text>
</g>
<!-- Node8 -->
<g id="node8" class="node">
<title>Node8</title>
<g id="a_node8"><a xlink:title=" ">
<polygon fill="#ffffff" stroke="#bfbfbf" points="0,-58.3684 0,-77.3684 101,-77.3684 101,-58.3684 0,-58.3684"/>
<text text-anchor="middle" x="50.5" y="-65.3684" font-family="Helvetica,sans-Serif" font-size="10.00" fill="#000000">PolymorphicBase</text>
</a>
</g>
</g>
<!-- Node8&#45;&gt;Node7 -->
<g id="edge7" class="edge">
<title>Node8&#45;&gt;Node7</title>
<path fill="none" stroke="#191970" d="M76.0886,-82.3768C93.2707,-91.7802 116.5973,-103.9018 138,-112.8684 145.8249,-116.1466 154.1437,-119.3092 162.449,-122.2723"/>
<polygon fill="#191970" stroke="#191970" points="77.6702,-79.2519 67.2263,-77.4696 74.2793,-85.3757 77.6702,-79.2519"/>
</g>
<!-- Node9 -->
<g id="node9" class="node">
<title>Node9</title>
<g id="a_node9"><a xlink:href="classgko_1_1EnableAbstractPolymorphicObject.html" target="_top" xlink:title="This mixin inherits from (a subclass of) PolymorphicObject and provides a base implementation of a ne...">
<polygon fill="#ffffff" stroke="#000000" points="644,-35.3684 644,-76.3684 842,-76.3684 842,-35.3684 644,-35.3684"/>
<text text-anchor="start" x="652" y="-64.3684" font-family="Helvetica,sans-Serif" font-size="10.00" fill="#000000">gko::EnableAbstractPolymorphic</text>
<text text-anchor="start" x="652" y="-53.3684" font-family="Helvetica,sans-Serif" font-size="10.00" fill="#000000">Object&lt; AbstractObject, Polymorphic</text>
<text text-anchor="middle" x="743" y="-42.3684" font-family="Helvetica,sans-Serif" font-size="10.00" fill="#000000">Base &gt;</text>
</a>
</g>
</g>
<!-- Node8&#45;&gt;Node9 -->
<g id="edge9" class="edge">
<title>Node8&#45;&gt;Node9</title>
<path fill="none" stroke="#191970" d="M111.219,-66.8162C230.8607,-64.743 498.0786,-60.1125 643.7203,-57.5887"/>
<polygon fill="#191970" stroke="#191970" points="111.0784,-63.318 101.1406,-66.9908 111.1998,-70.3169 111.0784,-63.318"/>
</g>
<!-- Node9&#45;&gt;Node3 -->
<g id="edge8" class="edge">
<title>Node9&#45;&gt;Node3</title>
<path fill="none" stroke="#ffa500" stroke-dasharray="5,2" d="M852.3756,-66.4868C900.4641,-71.3863 957.5848,-77.5193 1009,-83.8684 1024.041,-85.7257 1040.0092,-87.8533 1055.4824,-89.997"/>
<polygon fill="#ffa500" stroke="#ffa500" points="852.5586,-62.9875 842.2564,-65.4604 851.8522,-69.9518 852.5586,-62.9875"/>
<text text-anchor="start" x="860" y="-108.8684" font-family="Helvetica,sans-Serif" font-size="10.00" fill="#000000"> &lt; AbstractFactory&lt;</text>
<text text-anchor="start" x="860" y="-97.8684" font-family="Helvetica,sans-Serif" font-size="10.00" fill="#000000"> BatchLinOp, std::shared</text>
<text text-anchor="middle" x="934.5" y="-86.8684" font-family="Helvetica,sans-Serif" font-size="10.00" fill="#000000">_ptr&lt; const BatchLinOp &gt; &gt; &gt;</text>
</g>
<!-- Node9&#45;&gt;Node11 -->
<g id="edge13" class="edge">
<title>Node9&#45;&gt;Node11</title>
<path fill="none" stroke="#ffa500" stroke-dasharray="5,2" d="M790.5095,-30.9257C811.2488,-21.3822 836.2219,-11.6465 860,-6.8684 929.2677,7.0507 1009.454,-3.9412 1066.7474,-16.357"/>
<polygon fill="#ffa500" stroke="#ffa500" points="788.8441,-27.8415 781.2981,-35.2785 791.8349,-34.1705 788.8441,-27.8415"/>
<text text-anchor="start" x="879.5" y="-31.8684" font-family="Helvetica,sans-Serif" font-size="10.00" fill="#000000"> &lt; AbstractFactory&lt;</text>
<text text-anchor="start" x="879.5" y="-20.8684" font-family="Helvetica,sans-Serif" font-size="10.00" fill="#000000"> AbstractProductType,</text>
<text text-anchor="middle" x="934.5" y="-9.8684" font-family="Helvetica,sans-Serif" font-size="10.00" fill="#000000"> ComponentsType &gt; &gt;</text>
</g>
<!-- Node10 -->
<g id="node10" class="node">
<title>Node10</title>
<g id="a_node10"><a xlink:href="classgko_1_1AbstractFactory.html" target="_top" xlink:title="The AbstractFactory is a generic interface template that enables easy implementation of the abstract ...">
<polygon fill="#ffffff" stroke="#000000" points="1296,-28.3684 1296,-69.3684 1427,-69.3684 1427,-28.3684 1296,-28.3684"/>
<text text-anchor="start" x="1304" y="-57.3684" font-family="Helvetica,sans-Serif" font-size="10.00" fill="#000000">gko::AbstractFactory</text>
<text text-anchor="start" x="1304" y="-46.3684" font-family="Helvetica,sans-Serif" font-size="10.00" fill="#000000">&lt; AbstractProductType,</text>
<text text-anchor="middle" x="1361.5" y="-35.3684" font-family="Helvetica,sans-Serif" font-size="10.00" fill="#000000"> ComponentsType &gt;</text>
</a>
</g>
</g>
<!-- Node10&#45;&gt;Node2 -->
<g id="edge10" class="edge">
<title>Node10&#45;&gt;Node2</title>
<path fill="none" stroke="#ffa500" stroke-dasharray="5,2" d="M1437.458,-46.1879C1479.613,-45.7196 1532.8948,-46.8096 1580,-52.8684 1585.8067,-53.6152 1591.7736,-54.5785 1597.7522,-55.6863"/>
<polygon fill="#ffa500" stroke="#ffa500" points="1437.2161,-42.6909 1427.2672,-46.3336 1437.3163,-49.6902 1437.2161,-42.6909"/>
<text text-anchor="start" x="1445" y="-77.8684" font-family="Helvetica,sans-Serif" font-size="10.00" fill="#000000"> &lt; BatchLinOp, std::</text>
<text text-anchor="start" x="1445" y="-66.8684" font-family="Helvetica,sans-Serif" font-size="10.00" fill="#000000">shared_ptr&lt; const BatchLin</text>
<text text-anchor="middle" x="1512.5" y="-55.8684" font-family="Helvetica,sans-Serif" font-size="10.00" fill="#000000">Op &gt; &gt;</text>
</g>
<!-- Node11&#45;&gt;Node10 -->
<g id="edge11" class="edge">
<title>Node11&#45;&gt;Node10</title>
<path fill="none" stroke="#191970" d="M1269.529,-43.8173C1278.5516,-44.3128 1287.413,-44.7995 1295.8583,-45.2633"/>
<polygon fill="#191970" stroke="#191970" points="1269.4641,-40.3086 1259.2872,-43.2548 1269.0802,-47.298 1269.4641,-40.3086"/>
</g>
</g>
</svg>
