<?xml version="1.0" encoding="UTF-8" standalone="no"?>
<!DOCTYPE svg PUBLIC "-//W3C//DTD SVG 1.1//EN"
 "http://www.w3.org/Graphics/SVG/1.1/DTD/svg11.dtd">
<!-- Generated by graphviz version 2.40.1 (20161225.0304)
 -->
<!-- Title: gko::solver::BatchBicgstab&lt; ValueType &gt; Pages: 1 -->
<svg width="2675pt" height="422pt"
 viewBox="0.00 0.00 2675.00 421.50" xmlns="http://www.w3.org/2000/svg" xmlns:xlink="http://www.w3.org/1999/xlink">
<g id="graph0" class="graph" transform="scale(1 1) rotate(0) translate(4 417.5)">
<title>gko::solver::BatchBicgstab&lt; ValueType &gt;</title>
<polygon fill="#ffffff" stroke="transparent" points="-4,4 -4,-417.5 2671,-417.5 2671,4 -4,4"/>
<!-- Node1 -->
<g id="node1" class="node">
<title>Node1</title>
<g id="a_node1"><a xlink:title="BiCGSTAB or the Bi&#45;Conjugate Gradient&#45;Stabilized is a Krylov subspace solver.">
<polygon fill="#bfbfbf" stroke="#000000" points="2521,-182.5 2521,-212.5 2667,-212.5 2667,-182.5 2521,-182.5"/>
<text text-anchor="start" x="2529" y="-200.5" font-family="Helvetica,sans-Serif" font-size="10.00" fill="#000000">gko::solver::BatchBicgstab</text>
<text text-anchor="middle" x="2594" y="-189.5" font-family="Helvetica,sans-Serif" font-size="10.00" fill="#000000">&lt; ValueType &gt;</text>
</a>
</g>
</g>
<!-- Node2 -->
<g id="node2" class="node">
<title>Node2</title>
<g id="a_node2"><a xlink:href="classgko_1_1solver_1_1EnableBatchSolver.html" target="_top" xlink:title=" ">
<polygon fill="#ffffff" stroke="#000000" points="2347,-214 2347,-255 2484,-255 2484,-214 2347,-214"/>
<text text-anchor="start" x="2355" y="-243" font-family="Helvetica,sans-Serif" font-size="10.00" fill="#000000">gko::solver::EnableBatch</text>
<text text-anchor="start" x="2355" y="-232" font-family="Helvetica,sans-Serif" font-size="10.00" fill="#000000">Solver&lt; BatchBicgstab</text>
<text text-anchor="middle" x="2415.5" y="-221" font-family="Helvetica,sans-Serif" font-size="10.00" fill="#000000">&lt; ValueType &gt; &gt;</text>
</a>
</g>
</g>
<!-- Node2&#45;&gt;Node1 -->
<g id="edge1" class="edge">
<title>Node2&#45;&gt;Node1</title>
<path fill="none" stroke="#191970" d="M2493.8943,-218.2502C2503.0842,-216.3453 2512.4299,-214.4081 2521.5339,-212.521"/>
<polygon fill="#191970" stroke="#191970" points="2493.0837,-214.8437 2484.0023,-220.3007 2494.5045,-221.698 2493.0837,-214.8437"/>
</g>
<!-- Node3 -->
<g id="node3" class="node">
<title>Node3</title>
<g id="a_node3"><a xlink:href="classgko_1_1EnableBatchLinOp.html" target="_top" xlink:title=" ">
<polygon fill="#ffffff" stroke="#000000" points="1805.5,-278 1805.5,-319 1963.5,-319 1963.5,-278 1805.5,-278"/>
<text text-anchor="start" x="1813.5" y="-307" font-family="Helvetica,sans-Serif" font-size="10.00" fill="#000000">gko::EnableBatchLinOp</text>
<text text-anchor="start" x="1813.5" y="-296" font-family="Helvetica,sans-Serif" font-size="10.00" fill="#000000">&lt; BatchBicgstab&lt; ValueType</text>
<text text-anchor="middle" x="1884.5" y="-285" font-family="Helvetica,sans-Serif" font-size="10.00" fill="#000000"> &gt;, BatchLinOp &gt;</text>
</a>
</g>
</g>
<!-- Node3&#45;&gt;Node2 -->
<g id="edge2" class="edge">
<title>Node3&#45;&gt;Node2</title>
<path fill="none" stroke="#191970" d="M1973.9319,-290.2827C2063.8392,-281.6361 2206.3163,-266.8824 2329,-249.5 2334.7345,-248.6875 2340.6725,-247.7857 2346.6272,-246.8391"/>
<polygon fill="#191970" stroke="#191970" points="1973.3963,-286.8179 1963.7753,-291.255 1974.0634,-293.786 1973.3963,-286.8179"/>
</g>
<!-- Node4 -->
<g id="node4" class="node">
<title>Node4</title>
<g id="a_node4"><a xlink:href="classgko_1_1EnablePolymorphicObject.html" target="_top" xlink:title=" ">
<polygon fill="#ffffff" stroke="#000000" points="1256,-340 1256,-381 1422,-381 1422,-340 1256,-340"/>
<text text-anchor="start" x="1264" y="-369" font-family="Helvetica,sans-Serif" font-size="10.00" fill="#000000">gko::EnablePolymorphicObject</text>
<text text-anchor="start" x="1264" y="-358" font-family="Helvetica,sans-Serif" font-size="10.00" fill="#000000">&lt; BatchBicgstab&lt; ValueType</text>
<text text-anchor="middle" x="1339" y="-347" font-family="Helvetica,sans-Serif" font-size="10.00" fill="#000000"> &gt;, BatchLinOp &gt;</text>
</a>
</g>
</g>
<!-- Node4&#45;&gt;Node3 -->
<g id="edge3" class="edge">
<title>Node4&#45;&gt;Node3</title>
<path fill="none" stroke="#191970" d="M1432.21,-352.7544C1521.9955,-344.8867 1661.5519,-331.5896 1782,-315.5 1789.5988,-314.4849 1797.4995,-313.3384 1805.3925,-312.132"/>
<polygon fill="#191970" stroke="#191970" points="1431.713,-349.2843 1422.0548,-353.6397 1432.321,-356.2579 1431.713,-349.2843"/>
</g>
<!-- Node5 -->
<g id="node5" class="node">
<title>Node5</title>
<g id="a_node5"><a xlink:href="classgko_1_1EnableAbstractPolymorphicObject.html" target="_top" xlink:title=" ">
<polygon fill="#ffffff" stroke="#000000" points="396.5,-372 396.5,-413 586.5,-413 586.5,-372 396.5,-372"/>
<text text-anchor="start" x="404.5" y="-401" font-family="Helvetica,sans-Serif" font-size="10.00" fill="#000000">gko::EnableAbstractPolymorphic</text>
<text text-anchor="start" x="404.5" y="-390" font-family="Helvetica,sans-Serif" font-size="10.00" fill="#000000">Object&lt; BatchBicgstab&lt; ValueType</text>
<text text-anchor="middle" x="491.5" y="-379" font-family="Helvetica,sans-Serif" font-size="10.00" fill="#000000"> &gt;, BatchLinOp &gt;</text>
</a>
</g>
</g>
<!-- Node5&#45;&gt;Node4 -->
<g id="edge4" class="edge">
<title>Node5&#45;&gt;Node4</title>
<path fill="none" stroke="#191970" d="M597.1239,-393.83C738.8435,-394.7798 998.2758,-393.5895 1219,-376.5 1230.9443,-375.5752 1243.5188,-374.269 1255.8507,-372.7971"/>
<polygon fill="#191970" stroke="#191970" points="596.7329,-390.3271 586.7079,-393.7549 596.6824,-397.327 596.7329,-390.3271"/>
</g>
<!-- Node6 -->
<g id="node6" class="node">
<title>Node6</title>
<g id="a_node6"><a xlink:href="classgko_1_1BatchLinOp.html" target="_top" xlink:title=" ">
<polygon fill="#ffffff" stroke="#ff0000" points="51,-383 51,-402 147,-402 147,-383 51,-383"/>
<text text-anchor="middle" x="99" y="-390" font-family="Helvetica,sans-Serif" font-size="10.00" fill="#000000">gko::BatchLinOp</text>
</a>
</g>
</g>
<!-- Node6&#45;&gt;Node5 -->
<g id="edge5" class="edge">
<title>Node6&#45;&gt;Node5</title>
<path fill="none" stroke="#191970" d="M157.2883,-392.5C220.3306,-392.5 321.8069,-392.5 396.4241,-392.5"/>
<polygon fill="#191970" stroke="#191970" points="157.1282,-389.0001 147.1282,-392.5 157.1282,-396.0001 157.1282,-389.0001"/>
</g>
<!-- Node13 -->
<g id="node7" class="node">
<title>Node13</title>
<g id="a_node7"><a xlink:href="classgko_1_1EnableAbstractPolymorphicObject.html" target="_top" xlink:title="This mixin inherits from (a subclass of) PolymorphicObject and provides a base implementation of a ne...">
<polygon fill="#ffffff" stroke="#ff0000" points="0,-265 0,-306 198,-306 198,-265 0,-265"/>
<text text-anchor="start" x="8" y="-294" font-family="Helvetica,sans-Serif" font-size="10.00" fill="#000000">gko::EnableAbstractPolymorphic</text>
<text text-anchor="start" x="8" y="-283" font-family="Helvetica,sans-Serif" font-size="10.00" fill="#000000">Object&lt; AbstractObject, Polymorphic</text>
<text text-anchor="middle" x="99" y="-272" font-family="Helvetica,sans-Serif" font-size="10.00" fill="#000000">Base &gt;</text>
</a>
</g>
</g>
<!-- Node13&#45;&gt;Node5 -->
<g id="edge6" class="edge">
<title>Node13&#45;&gt;Node5</title>
<path fill="none" stroke="#ffa500" stroke-dasharray="5,2" d="M158.5204,-309.6557C176.7867,-316.5872 197.0648,-323.8029 216,-329.5 233.6777,-334.8188 325.7873,-355.6576 398.7035,-371.93"/>
<polygon fill="#ffa500" stroke="#ffa500" points="159.7596,-306.3824 149.1695,-306.0664 157.2511,-312.9175 159.7596,-306.3824"/>
<text text-anchor="start" x="222" y="-379.5" font-family="Helvetica,sans-Serif" font-size="10.00" fill="#000000"> &lt; BatchBicgstab&lt; ValueType</text>
<text text-anchor="middle" x="294.5" y="-368.5" font-family="Helvetica,sans-Serif" font-size="10.00" fill="#000000"> &gt;, BatchLinOp &gt;</text>
</g>
<!-- Node15 -->
<g id="node9" class="node">
<title>Node15</title>
<g id="a_node9"><a xlink:href="classgko_1_1EnableAbstractPolymorphicObject.html" target="_top" xlink:title=" ">
<polygon fill="#ffffff" stroke="#ff0000" points="391,-292 391,-333 592,-333 592,-292 391,-292"/>
<text text-anchor="start" x="399" y="-321" font-family="Helvetica,sans-Serif" font-size="10.00" fill="#000000">gko::EnableAbstractPolymorphic</text>
<text text-anchor="start" x="399" y="-310" font-family="Helvetica,sans-Serif" font-size="10.00" fill="#000000">Object&lt; ConcreteObject, Polymorphic</text>
<text text-anchor="middle" x="491.5" y="-299" font-family="Helvetica,sans-Serif" font-size="10.00" fill="#000000">Base &gt;</text>
</a>
</g>
</g>
<!-- Node13&#45;&gt;Node15 -->
<g id="edge9" class="edge">
<title>Node13&#45;&gt;Node15</title>
<path fill="none" stroke="#ffa500" stroke-dasharray="5,2" d="M208.2032,-293.0121C265.3756,-296.9449 334.9091,-301.7281 390.78,-305.5715"/>
<polygon fill="#ffa500" stroke="#ffa500" points="208.261,-289.5079 198.0443,-292.3132 207.7805,-296.4914 208.261,-289.5079"/>
<text text-anchor="start" x="216" y="-317.5" font-family="Helvetica,sans-Serif" font-size="10.00" fill="#000000"> &lt; ConcreteObject, Polymorphic</text>
<text text-anchor="middle" x="294.5" y="-306.5" font-family="Helvetica,sans-Serif" font-size="10.00" fill="#000000">Base &gt;</text>
</g>
<!-- Node22 -->
<g id="node16" class="node">
<title>Node22</title>
<g id="a_node16"><a xlink:href="classgko_1_1EnableAbstractPolymorphicObject.html" target="_top" xlink:title=" ">
<polygon fill="#ffffff" stroke="#ff0000" points="622.5,-238 622.5,-279 797.5,-279 797.5,-238 622.5,-238"/>
<text text-anchor="start" x="630.5" y="-267" font-family="Helvetica,sans-Serif" font-size="10.00" fill="#000000">gko::EnableAbstractPolymorphic</text>
<text text-anchor="start" x="630.5" y="-256" font-family="Helvetica,sans-Serif" font-size="10.00" fill="#000000">Object&lt; ConcreteBatchLinOp,</text>
<text text-anchor="middle" x="710" y="-245" font-family="Helvetica,sans-Serif" font-size="10.00" fill="#000000"> PolymorphicBase &gt;</text>
</a>
</g>
</g>
<!-- Node13&#45;&gt;Node22 -->
<g id="edge18" class="edge">
<title>Node13&#45;&gt;Node22</title>
<path fill="none" stroke="#ffa500" stroke-dasharray="5,2" d="M208.2628,-268.2176C210.8648,-267.9587 213.4468,-267.7187 216,-267.5 357.8724,-255.3498 523.4668,-255.1727 622.3655,-256.5498"/>
<polygon fill="#ffa500" stroke="#ffa500" points="207.7155,-264.7561 198.1463,-269.3037 208.4628,-271.7161 207.7155,-264.7561"/>
<text text-anchor="start" x="236" y="-281.5" font-family="Helvetica,sans-Serif" font-size="10.00" fill="#000000"> &lt; ConcreteBatchLinOp,</text>
<text text-anchor="middle" x="294.5" y="-270.5" font-family="Helvetica,sans-Serif" font-size="10.00" fill="#000000"> PolymorphicBase &gt;</text>
</g>
<!-- Node30 -->
<g id="node24" class="node">
<title>Node30</title>
<g id="a_node24"><a xlink:href="classgko_1_1EnableAbstractPolymorphicObject.html" target="_top" xlink:title=" ">
<polygon fill="#ffffff" stroke="#ff0000" points="610,-188 610,-229 810,-229 810,-188 610,-188"/>
<text text-anchor="start" x="618" y="-217" font-family="Helvetica,sans-Serif" font-size="10.00" fill="#000000">gko::EnableAbstractPolymorphic</text>
<text text-anchor="start" x="618" y="-206" font-family="Helvetica,sans-Serif" font-size="10.00" fill="#000000">Object&lt; ConcreteSolver, Polymorphic</text>
<text text-anchor="middle" x="710" y="-195" font-family="Helvetica,sans-Serif" font-size="10.00" fill="#000000">Base &gt;</text>
</a>
</g>
</g>
<!-- Node13&#45;&gt;Node30 -->
<g id="edge30" class="edge">
<title>Node13&#45;&gt;Node30</title>
<path fill="none" stroke="#ffa500" stroke-dasharray="5,2" d="M143.9453,-260.3299C165.1353,-249.7375 191.17,-238.4959 216,-232.5 349.3369,-200.3021 508.6293,-198.943 609.5614,-202.4724"/>
<polygon fill="#ffa500" stroke="#ffa500" points="142.1839,-257.2995 134.876,-264.9706 145.3726,-263.5311 142.1839,-257.2995"/>
<text text-anchor="start" x="216.5" y="-246.5" font-family="Helvetica,sans-Serif" font-size="10.00" fill="#000000"> &lt; ConcreteSolver, Polymorphic</text>
<text text-anchor="middle" x="294.5" y="-235.5" font-family="Helvetica,sans-Serif" font-size="10.00" fill="#000000">Base &gt;</text>
</g>
<!-- Node14 -->
<g id="node8" class="node">
<title>Node14</title>
<g id="a_node8"><a xlink:href="classgko_1_1EnablePolymorphicObject.html" target="_top" xlink:title="This mixin inherits from (a subclass of) PolymorphicObject and provides a base implementation of a ne...">
<polygon fill="#ffffff" stroke="#000000" points="828,-299.5 828,-329.5 1033,-329.5 1033,-299.5 828,-299.5"/>
<text text-anchor="start" x="836" y="-317.5" font-family="Helvetica,sans-Serif" font-size="10.00" fill="#000000">gko::EnablePolymorphicObject</text>
<text text-anchor="middle" x="930.5" y="-306.5" font-family="Helvetica,sans-Serif" font-size="10.00" fill="#000000">&lt; ConcreteObject, PolymorphicBase &gt;</text>
</a>
</g>
</g>
<!-- Node14&#45;&gt;Node4 -->
<g id="edge7" class="edge">
<title>Node14&#45;&gt;Node4</title>
<path fill="none" stroke="#ffa500" stroke-dasharray="5,2" d="M1031.9901,-330.9701C1038.4171,-331.8683 1044.7944,-332.7207 1051,-333.5 1119.887,-342.1513 1198.3636,-349.3329 1255.9819,-354.109"/>
<polygon fill="#ffa500" stroke="#ffa500" points="1032.2617,-327.4735 1021.8674,-329.5249 1031.2723,-334.4032 1032.2617,-327.4735"/>
<text text-anchor="start" x="1062.5" y="-364.5" font-family="Helvetica,sans-Serif" font-size="10.00" fill="#000000"> &lt; BatchBicgstab&lt; ValueType</text>
<text text-anchor="middle" x="1135" y="-353.5" font-family="Helvetica,sans-Serif" font-size="10.00" fill="#000000"> &gt;, BatchLinOp &gt;</text>
</g>
<!-- Node21 -->
<g id="node15" class="node">
<title>Node21</title>
<g id="a_node15"><a xlink:href="classgko_1_1EnablePolymorphicObject.html" target="_top" xlink:title=" ">
<polygon fill="#ffffff" stroke="#000000" points="1242,-254 1242,-295 1436,-295 1436,-254 1242,-254"/>
<text text-anchor="start" x="1250" y="-283" font-family="Helvetica,sans-Serif" font-size="10.00" fill="#000000">gko::EnablePolymorphicObject</text>
<text text-anchor="start" x="1250" y="-272" font-family="Helvetica,sans-Serif" font-size="10.00" fill="#000000">&lt; ConcreteBatchLinOp, Polymorphic</text>
<text text-anchor="middle" x="1339" y="-261" font-family="Helvetica,sans-Serif" font-size="10.00" fill="#000000">Base &gt;</text>
</a>
</g>
</g>
<!-- Node14&#45;&gt;Node21 -->
<g id="edge19" class="edge">
<title>Node14&#45;&gt;Node21</title>
<path fill="none" stroke="#ffa500" stroke-dasharray="5,2" d="M1043.3467,-308.4985C1096.7053,-305.0951 1161.2353,-300.1634 1219,-293.5 1226.4386,-292.6419 1234.1218,-291.6565 1241.8386,-290.5955"/>
<polygon fill="#ffa500" stroke="#ffa500" points="1042.9349,-305.0174 1033.174,-309.1375 1043.3738,-312.0036 1042.9349,-305.0174"/>
<text text-anchor="start" x="1076.5" y="-321.5" font-family="Helvetica,sans-Serif" font-size="10.00" fill="#000000"> &lt; ConcreteBatchLinOp,</text>
<text text-anchor="middle" x="1135" y="-310.5" font-family="Helvetica,sans-Serif" font-size="10.00" fill="#000000"> PolymorphicBase &gt;</text>
</g>
<!-- Node29 -->
<g id="node23" class="node">
<title>Node29</title>
<g id="a_node23"><a xlink:href="classgko_1_1EnablePolymorphicObject.html" target="_top" xlink:title=" ">
<polygon fill="#ffffff" stroke="#000000" points="1237,-204.5 1237,-234.5 1441,-234.5 1441,-204.5 1237,-204.5"/>
<text text-anchor="start" x="1245" y="-222.5" font-family="Helvetica,sans-Serif" font-size="10.00" fill="#000000">gko::EnablePolymorphicObject</text>
<text text-anchor="middle" x="1339" y="-211.5" font-family="Helvetica,sans-Serif" font-size="10.00" fill="#000000">&lt; ConcreteSolver, PolymorphicBase &gt;</text>
</a>
</g>
</g>
<!-- Node14&#45;&gt;Node29 -->
<g id="edge31" class="edge">
<title>Node14&#45;&gt;Node29</title>
<path fill="none" stroke="#ffa500" stroke-dasharray="5,2" d="M972.9934,-295.4402C995.7468,-285.8734 1024.4782,-274.7979 1051,-267.5 1111.7249,-250.7906 1181.347,-238.9939 1236.9251,-231.2773"/>
<polygon fill="#ffa500" stroke="#ffa500" points="971.4574,-292.2902 963.6318,-299.4324 974.2033,-298.7292 971.4574,-292.2902"/>
<text text-anchor="start" x="1057" y="-281.5" font-family="Helvetica,sans-Serif" font-size="10.00" fill="#000000"> &lt; ConcreteSolver, Polymorphic</text>
<text text-anchor="middle" x="1135" y="-270.5" font-family="Helvetica,sans-Serif" font-size="10.00" fill="#000000">Base &gt;</text>
</g>
<!-- Node15&#45;&gt;Node14 -->
<g id="edge8" class="edge">
<title>Node15&#45;&gt;Node14</title>
<path fill="none" stroke="#191970" d="M602.2972,-313.0048C671.6132,-313.3206 760.2757,-313.7245 827.9702,-314.0329"/>
<polygon fill="#191970" stroke="#191970" points="602.2313,-309.5045 592.2155,-312.9588 602.1994,-316.5045 602.2313,-309.5045"/>
</g>
<!-- Node16 -->
<g id="node10" class="node">
<title>Node16</title>
<g id="a_node10"><a xlink:href="classgko_1_1EnablePolymorphicAssignment.html" target="_top" xlink:title=" ">
<polygon fill="#ffffff" stroke="#000000" points="1243,-147.5 1243,-177.5 1435,-177.5 1435,-147.5 1243,-147.5"/>
<text text-anchor="start" x="1251" y="-165.5" font-family="Helvetica,sans-Serif" font-size="10.00" fill="#000000">gko::EnablePolymorphicAssignment</text>
<text text-anchor="middle" x="1339" y="-154.5" font-family="Helvetica,sans-Serif" font-size="10.00" fill="#000000">&lt; BatchBicgstab&lt; ValueType &gt; &gt;</text>
</a>
</g>
</g>
<!-- Node16&#45;&gt;Node3 -->
<g id="edge10" class="edge">
<title>Node16&#45;&gt;Node3</title>
<path fill="none" stroke="#191970" d="M1445.2753,-155.2902C1495.1237,-154.1411 1555.0706,-155.9799 1608,-166.5 1689.5958,-182.7177 1718.5837,-181.6552 1782,-235.5 1793.853,-245.564 1788.1208,-255.4669 1800,-265.5 1805.655,-270.2762 1812.0818,-274.4109 1818.8063,-277.9788"/>
<polygon fill="#191970" stroke="#191970" points="1445.0223,-151.7957 1435.122,-155.5684 1445.2141,-158.7931 1445.0223,-151.7957"/>
</g>
<!-- Node17 -->
<g id="node11" class="node">
<title>Node17</title>
<g id="a_node11"><a xlink:href="classgko_1_1ConvertibleTo.html" target="_top" xlink:title=" ">
<polygon fill="#ffffff" stroke="#000000" points="840,-147.5 840,-177.5 1021,-177.5 1021,-147.5 840,-147.5"/>
<text text-anchor="start" x="848" y="-165.5" font-family="Helvetica,sans-Serif" font-size="10.00" fill="#000000">gko::ConvertibleTo</text>
<text text-anchor="middle" x="930.5" y="-154.5" font-family="Helvetica,sans-Serif" font-size="10.00" fill="#000000">&lt; BatchBicgstab&lt; ValueType &gt; &gt;</text>
</a>
</g>
</g>
<!-- Node17&#45;&gt;Node16 -->
<g id="edge11" class="edge">
<title>Node17&#45;&gt;Node16</title>
<path fill="none" stroke="#191970" d="M1031.3585,-162.5C1095.9456,-162.5 1179.2659,-162.5 1242.9022,-162.5"/>
<polygon fill="#191970" stroke="#191970" points="1031.1594,-159.0001 1021.1594,-162.5 1031.1594,-166.0001 1031.1594,-159.0001"/>
</g>
<!-- Node18 -->
<g id="node12" class="node">
<title>Node18</title>
<g id="a_node12"><a xlink:href="classgko_1_1ConvertibleTo.html" target="_top" xlink:title="ConvertibleTo interface is used to mark that the implementer can be converted to the object of Result...">
<polygon fill="#ffffff" stroke="#000000" points="438,-76.5 438,-106.5 545,-106.5 545,-76.5 438,-76.5"/>
<text text-anchor="start" x="446" y="-94.5" font-family="Helvetica,sans-Serif" font-size="10.00" fill="#000000">gko::ConvertibleTo</text>
<text text-anchor="middle" x="491.5" y="-83.5" font-family="Helvetica,sans-Serif" font-size="10.00" fill="#000000">&lt; ResultType &gt;</text>
</a>
</g>
</g>
<!-- Node18&#45;&gt;Node17 -->
<g id="edge12" class="edge">
<title>Node18&#45;&gt;Node17</title>
<path fill="none" stroke="#ffa500" stroke-dasharray="5,2" d="M555.2477,-105.7478C572.9338,-109.4827 592.1737,-113.3438 610,-116.5 687.2156,-130.1712 775.4475,-142.6022 839.7612,-151.0851"/>
<polygon fill="#ffa500" stroke="#ffa500" points="555.5465,-102.2329 545.0364,-103.5697 554.0862,-109.0789 555.5465,-102.2329"/>
<text text-anchor="middle" x="710" y="-150.5" font-family="Helvetica,sans-Serif" font-size="10.00" fill="#000000"> &lt; BatchBicgstab&lt; ValueType &gt; &gt;</text>
</g>
<!-- Node19 -->
<g id="node13" class="node">
<title>Node19</title>
<g id="a_node13"><a xlink:href="classgko_1_1EnablePolymorphicAssignment.html" target="_top" xlink:title="This mixin is used to enable a default PolymorphicObject::copy_from() implementation for objects that...">
<polygon fill="#ffffff" stroke="#000000" points="834.5,-98.5 834.5,-128.5 1026.5,-128.5 1026.5,-98.5 834.5,-98.5"/>
<text text-anchor="start" x="842.5" y="-116.5" font-family="Helvetica,sans-Serif" font-size="10.00" fill="#000000">gko::EnablePolymorphicAssignment</text>
<text text-anchor="middle" x="930.5" y="-105.5" font-family="Helvetica,sans-Serif" font-size="10.00" fill="#000000">&lt; ConcreteType, ResultType &gt;</text>
</a>
</g>
</g>
<!-- Node18&#45;&gt;Node19 -->
<g id="edge14" class="edge">
<title>Node18&#45;&gt;Node19</title>
<path fill="none" stroke="#191970" d="M555.3531,-94.6999C628.6939,-98.3753 749.7864,-104.4437 834.4987,-108.689"/>
<polygon fill="#191970" stroke="#191970" points="555.4927,-91.2026 545.33,-94.1976 555.1423,-98.1939 555.4927,-91.2026"/>
</g>
<!-- Node24 -->
<g id="node18" class="node">
<title>Node24</title>
<g id="a_node18"><a xlink:href="classgko_1_1ConvertibleTo.html" target="_top" xlink:title=" ">
<polygon fill="#ffffff" stroke="#000000" points="861.5,-49.5 861.5,-79.5 999.5,-79.5 999.5,-49.5 861.5,-49.5"/>
<text text-anchor="start" x="869.5" y="-67.5" font-family="Helvetica,sans-Serif" font-size="10.00" fill="#000000">gko::ConvertibleTo</text>
<text text-anchor="middle" x="930.5" y="-56.5" font-family="Helvetica,sans-Serif" font-size="10.00" fill="#000000">&lt; ConcreteBatchLinOp &gt;</text>
</a>
</g>
</g>
<!-- Node18&#45;&gt;Node24 -->
<g id="edge22" class="edge">
<title>Node18&#45;&gt;Node24</title>
<path fill="none" stroke="#ffa500" stroke-dasharray="5,2" d="M555.3903,-87.0904C573.0771,-85.8959 592.2816,-84.6233 610,-83.5 696.6412,-78.0073 796.4903,-72.1653 861.4059,-68.4321"/>
<polygon fill="#ffa500" stroke="#ffa500" points="554.9151,-83.6145 545.1747,-87.7829 555.3886,-90.5984 554.9151,-83.6145"/>
<text text-anchor="middle" x="710" y="-86.5" font-family="Helvetica,sans-Serif" font-size="10.00" fill="#000000"> &lt; ConcreteBatchLinOp &gt;</text>
</g>
<!-- Node32 -->
<g id="node26" class="node">
<title>Node32</title>
<g id="a_node26"><a xlink:href="classgko_1_1ConvertibleTo.html" target="_top" xlink:title=" ">
<polygon fill="#ffffff" stroke="#000000" points="874,-.5 874,-30.5 987,-30.5 987,-.5 874,-.5"/>
<text text-anchor="start" x="882" y="-18.5" font-family="Helvetica,sans-Serif" font-size="10.00" fill="#000000">gko::ConvertibleTo</text>
<text text-anchor="middle" x="930.5" y="-7.5" font-family="Helvetica,sans-Serif" font-size="10.00" fill="#000000">&lt; ConcreteSolver &gt;</text>
</a>
</g>
</g>
<!-- Node18&#45;&gt;Node32 -->
<g id="edge34" class="edge">
<title>Node18&#45;&gt;Node32</title>
<path fill="none" stroke="#ffa500" stroke-dasharray="5,2" d="M547.5038,-73.5757C567.1133,-67.7958 589.3843,-61.7834 610,-57.5 701.4829,-38.4923 809.5406,-26.4431 873.9149,-20.3414"/>
<polygon fill="#ffa500" stroke="#ffa500" points="546.3901,-70.2556 537.8135,-76.4759 548.3972,-76.9617 546.3901,-70.2556"/>
<text text-anchor="middle" x="710" y="-60.5" font-family="Helvetica,sans-Serif" font-size="10.00" fill="#000000"> &lt; ConcreteSolver &gt;</text>
</g>
<!-- Node19&#45;&gt;Node16 -->
<g id="edge13" class="edge">
<title>Node19&#45;&gt;Node16</title>
<path fill="none" stroke="#ffa500" stroke-dasharray="5,2" d="M1036.7091,-125.8357C1091.2154,-132.2123 1158.6708,-140.1746 1219,-147.5 1226.7117,-148.4364 1234.7009,-149.4154 1242.7264,-150.4053"/>
<polygon fill="#ffa500" stroke="#ffa500" points="1037.0257,-122.3489 1026.6869,-124.664 1036.2128,-129.3016 1037.0257,-122.3489"/>
<text text-anchor="middle" x="1135" y="-150.5" font-family="Helvetica,sans-Serif" font-size="10.00" fill="#000000"> &lt; BatchBicgstab&lt; ValueType &gt; &gt;</text>
</g>
<!-- Node23 -->
<g id="node17" class="node">
<title>Node23</title>
<g id="a_node17"><a xlink:href="classgko_1_1EnablePolymorphicAssignment.html" target="_top" xlink:title=" ">
<polygon fill="#ffffff" stroke="#000000" points="1243,-98.5 1243,-128.5 1435,-128.5 1435,-98.5 1243,-98.5"/>
<text text-anchor="start" x="1251" y="-116.5" font-family="Helvetica,sans-Serif" font-size="10.00" fill="#000000">gko::EnablePolymorphicAssignment</text>
<text text-anchor="middle" x="1339" y="-105.5" font-family="Helvetica,sans-Serif" font-size="10.00" fill="#000000">&lt; ConcreteBatchLinOp &gt;</text>
</a>
</g>
</g>
<!-- Node19&#45;&gt;Node23 -->
<g id="edge23" class="edge">
<title>Node19&#45;&gt;Node23</title>
<path fill="none" stroke="#ffa500" stroke-dasharray="5,2" d="M1036.6226,-113.5C1100.4175,-113.5 1180.9648,-113.5 1242.8828,-113.5"/>
<polygon fill="#ffa500" stroke="#ffa500" points="1036.5332,-110.0001 1026.5332,-113.5 1036.5332,-117.0001 1036.5332,-110.0001"/>
<text text-anchor="middle" x="1135" y="-116.5" font-family="Helvetica,sans-Serif" font-size="10.00" fill="#000000"> &lt; ConcreteBatchLinOp &gt;</text>
</g>
<!-- Node31 -->
<g id="node25" class="node">
<title>Node31</title>
<g id="a_node25"><a xlink:href="classgko_1_1EnablePolymorphicAssignment.html" target="_top" xlink:title=" ">
<polygon fill="#ffffff" stroke="#000000" points="1243,-49.5 1243,-79.5 1435,-79.5 1435,-49.5 1243,-49.5"/>
<text text-anchor="start" x="1251" y="-67.5" font-family="Helvetica,sans-Serif" font-size="10.00" fill="#000000">gko::EnablePolymorphicAssignment</text>
<text text-anchor="middle" x="1339" y="-56.5" font-family="Helvetica,sans-Serif" font-size="10.00" fill="#000000">&lt; ConcreteSolver &gt;</text>
</a>
</g>
</g>
<!-- Node19&#45;&gt;Node31 -->
<g id="edge35" class="edge">
<title>Node19&#45;&gt;Node31</title>
<path fill="none" stroke="#ffa500" stroke-dasharray="5,2" d="M1036.5781,-100.2574C1041.4524,-99.6608 1046.2781,-99.0726 1051,-98.5 1114.9758,-90.7418 1186.9758,-82.2418 1242.9818,-75.6814"/>
<polygon fill="#ffa500" stroke="#ffa500" points="1036.0212,-96.7994 1026.522,-101.4914 1036.8739,-103.7473 1036.0212,-96.7994"/>
<text text-anchor="middle" x="1135" y="-101.5" font-family="Helvetica,sans-Serif" font-size="10.00" fill="#000000"> &lt; ConcreteSolver &gt;</text>
</g>
<!-- Node20 -->
<g id="node14" class="node">
<title>Node20</title>
<g id="a_node14"><a xlink:href="classgko_1_1EnableBatchLinOp.html" target="_top" xlink:title="The EnableBatchLinOp mixin can be used to provide sensible default implementations of the majority of...">
<polygon fill="#ffffff" stroke="#000000" points="1478,-253 1478,-294 1608,-294 1608,-253 1478,-253"/>
<text text-anchor="start" x="1486" y="-282" font-family="Helvetica,sans-Serif" font-size="10.00" fill="#000000">gko::EnableBatchLinOp</text>
<text text-anchor="start" x="1486" y="-271" font-family="Helvetica,sans-Serif" font-size="10.00" fill="#000000">&lt; ConcreteBatchLinOp,</text>
<text text-anchor="middle" x="1543" y="-260" font-family="Helvetica,sans-Serif" font-size="10.00" fill="#000000"> PolymorphicBase &gt;</text>
</a>
</g>
</g>
<!-- Node20&#45;&gt;Node3 -->
<g id="edge15" class="edge">
<title>Node20&#45;&gt;Node3</title>
<path fill="none" stroke="#ffa500" stroke-dasharray="5,2" d="M1618.1518,-279.0016C1673.6057,-283.0612 1748.9084,-288.5738 1805.298,-292.7019"/>
<polygon fill="#ffa500" stroke="#ffa500" points="1618.2662,-275.5007 1608.0374,-278.2612 1617.7551,-282.482 1618.2662,-275.5007"/>
<text text-anchor="start" x="1631.5" y="-303.5" font-family="Helvetica,sans-Serif" font-size="10.00" fill="#000000"> &lt; BatchBicgstab&lt; ValueType</text>
<text text-anchor="middle" x="1704" y="-292.5" font-family="Helvetica,sans-Serif" font-size="10.00" fill="#000000"> &gt;, BatchLinOp &gt;</text>
</g>
<!-- Node28 -->
<g id="node22" class="node">
<title>Node28</title>
<g id="a_node22"><a xlink:href="classgko_1_1EnableBatchLinOp.html" target="_top" xlink:title=" ">
<polygon fill="#ffffff" stroke="#000000" points="1800,-215 1800,-256 1969,-256 1969,-215 1800,-215"/>
<text text-anchor="start" x="1808" y="-244" font-family="Helvetica,sans-Serif" font-size="10.00" fill="#000000">gko::EnableBatchLinOp</text>
<text text-anchor="start" x="1808" y="-233" font-family="Helvetica,sans-Serif" font-size="10.00" fill="#000000">&lt; ConcreteSolver, Polymorphic</text>
<text text-anchor="middle" x="1884.5" y="-222" font-family="Helvetica,sans-Serif" font-size="10.00" fill="#000000">Base &gt;</text>
</a>
</g>
</g>
<!-- Node20&#45;&gt;Node28 -->
<g id="edge36" class="edge">
<title>Node20&#45;&gt;Node28</title>
<path fill="none" stroke="#ffa500" stroke-dasharray="5,2" d="M1617.9333,-254.847C1620.6496,-254.3611 1623.3449,-253.9094 1626,-253.5 1683.6891,-244.6047 1749.3045,-240.1025 1799.9923,-237.8252"/>
<polygon fill="#ffa500" stroke="#ffa500" points="1617.2026,-251.4233 1608.0395,-256.7419 1618.5194,-258.2983 1617.2026,-251.4233"/>
<text text-anchor="start" x="1626" y="-267.5" font-family="Helvetica,sans-Serif" font-size="10.00" fill="#000000"> &lt; ConcreteSolver, Polymorphic</text>
<text text-anchor="middle" x="1704" y="-256.5" font-family="Helvetica,sans-Serif" font-size="10.00" fill="#000000">Base &gt;</text>
</g>
<!-- Node21&#45;&gt;Node20 -->
<g id="edge16" class="edge">
<title>Node21&#45;&gt;Node20</title>
<path fill="none" stroke="#191970" d="M1446.5159,-273.973C1457.2444,-273.9204 1467.8913,-273.8682 1477.98,-273.8187"/>
<polygon fill="#191970" stroke="#191970" points="1446.203,-270.4744 1436.2203,-274.0234 1446.2374,-277.4743 1446.203,-270.4744"/>
</g>
<!-- Node22&#45;&gt;Node21 -->
<g id="edge17" class="edge">
<title>Node22&#45;&gt;Node21</title>
<path fill="none" stroke="#191970" d="M807.6387,-250.8991C910.2916,-244.3709 1076.3817,-237.9557 1219,-251.5 1226.4967,-252.212 1234.2219,-253.1687 1241.9679,-254.2888"/>
<polygon fill="#191970" stroke="#191970" points="807.3502,-247.4104 797.598,-251.5509 807.8037,-254.3957 807.3502,-247.4104"/>
</g>
<!-- Node23&#45;&gt;Node20 -->
<g id="edge20" class="edge">
<title>Node23&#45;&gt;Node20</title>
<path fill="none" stroke="#191970" d="M1435.3322,-133.5777C1437.2813,-134.81 1439.1743,-136.1159 1441,-137.5 1468.1076,-158.0502 1457.9576,-177.0147 1478,-204.5 1490.7995,-222.0526 1507.681,-239.8491 1521.0319,-252.9712"/>
<polygon fill="#191970" stroke="#191970" points="1436.8995,-130.4444 1426.4605,-128.6341 1433.4921,-136.5591 1436.8995,-130.4444"/>
</g>
<!-- Node24&#45;&gt;Node23 -->
<g id="edge21" class="edge">
<title>Node24&#45;&gt;Node23</title>
<path fill="none" stroke="#191970" d="M1009.6053,-54.8627C1082.4276,-47.5104 1184.2525,-41.5295 1219,-60.5 1231.9849,-67.5891 1224.9587,-79.9052 1237,-88.5 1242.4166,-92.3662 1248.3621,-95.6382 1254.5756,-98.4067"/>
<polygon fill="#191970" stroke="#191970" points="1009.1181,-51.3944 999.5322,-55.9068 1009.8398,-58.3571 1009.1181,-51.3944"/>
</g>
<!-- Node25 -->
<g id="node19" class="node">
<title>Node25</title>
<g id="a_node19"><a xlink:href="classgko_1_1EnableBatchScaling.html" target="_top" xlink:title="Default batch scalable interface with some type&#45;checking.">
<polygon fill="#ffffff" stroke="#000000" points="1816,-176 1816,-195 1953,-195 1953,-176 1816,-176"/>
<text text-anchor="middle" x="1884.5" y="-183" font-family="Helvetica,sans-Serif" font-size="10.00" fill="#000000">gko::EnableBatchScaling</text>
</a>
</g>
</g>
<!-- Node25&#45;&gt;Node2 -->
<g id="edge24" class="edge">
<title>Node25&#45;&gt;Node2</title>
<path fill="none" stroke="#191970" d="M1963.1486,-190.537C2014.4026,-194.0031 2082.7149,-198.9679 2143,-204.5 2212.5532,-210.8826 2291.9101,-219.8059 2346.9752,-226.2596"/>
<polygon fill="#191970" stroke="#191970" points="1963.3448,-187.0424 1953.1326,-189.8641 1962.8755,-194.0267 1963.3448,-187.0424"/>
</g>
<!-- Node27 -->
<g id="node21" class="node">
<title>Node27</title>
<g id="a_node21"><a xlink:href="classgko_1_1solver_1_1EnableBatchSolver.html" target="_top" xlink:title=" ">
<polygon fill="#ffffff" stroke="#000000" points="2006,-214 2006,-255 2143,-255 2143,-214 2006,-214"/>
<text text-anchor="start" x="2014" y="-243" font-family="Helvetica,sans-Serif" font-size="10.00" fill="#000000">gko::solver::EnableBatch</text>
<text text-anchor="start" x="2014" y="-232" font-family="Helvetica,sans-Serif" font-size="10.00" fill="#000000">Solver&lt; ConcreteSolver,</text>
<text text-anchor="middle" x="2074.5" y="-221" font-family="Helvetica,sans-Serif" font-size="10.00" fill="#000000"> PolymorphicBase &gt;</text>
</a>
</g>
</g>
<!-- Node25&#45;&gt;Node27 -->
<g id="edge37" class="edge">
<title>Node25&#45;&gt;Node27</title>
<path fill="none" stroke="#191970" d="M1936.0798,-197.3978C1946.9689,-199.9964 1958.3767,-202.7837 1969,-205.5 1980.9621,-208.5587 1993.6511,-211.9337 2005.9268,-215.2672"/>
<polygon fill="#191970" stroke="#191970" points="1936.8005,-193.9717 1926.2629,-195.0717 1935.1865,-200.7831 1936.8005,-193.9717"/>
</g>
<!-- Node26 -->
<g id="node20" class="node">
<title>Node26</title>
<g id="a_node20"><a xlink:href="classgko_1_1BatchScalable.html" target="_top" xlink:title="A batch made up of entities that can scaled from the left and right by scaling vectors.">
<polygon fill="#ffffff" stroke="#000000" points="1488,-176 1488,-195 1598,-195 1598,-176 1488,-176"/>
<text text-anchor="middle" x="1543" y="-183" font-family="Helvetica,sans-Serif" font-size="10.00" fill="#000000">gko::BatchScalable</text>
</a>
</g>
</g>
<!-- Node26&#45;&gt;Node25 -->
<g id="edge25" class="edge">
<title>Node26&#45;&gt;Node25</title>
<path fill="none" stroke="#191970" d="M1608.2752,-185.5C1667.7387,-185.5 1755.2574,-185.5 1815.7759,-185.5"/>
<polygon fill="#191970" stroke="#191970" points="1608.2475,-182.0001 1598.2474,-185.5 1608.2474,-189.0001 1608.2475,-182.0001"/>
</g>
<!-- Node27&#45;&gt;Node2 -->
<g id="edge26" class="edge">
<title>Node27&#45;&gt;Node2</title>
<path fill="none" stroke="#ffa500" stroke-dasharray="5,2" d="M2153.3992,-234.5C2211.8783,-234.5 2290.8045,-234.5 2346.7216,-234.5"/>
<polygon fill="#ffa500" stroke="#ffa500" points="2153.0963,-231.0001 2143.0962,-234.5 2153.0962,-238.0001 2153.0963,-231.0001"/>
<text text-anchor="middle" x="2245" y="-237.5" font-family="Helvetica,sans-Serif" font-size="10.00" fill="#000000"> &lt; BatchBicgstab&lt; ValueType &gt; &gt;</text>
</g>
<!-- Node28&#45;&gt;Node27 -->
<g id="edge27" class="edge">
<title>Node28&#45;&gt;Node27</title>
<path fill="none" stroke="#191970" d="M1979.3209,-235.0009C1988.2832,-234.9538 1997.2477,-234.9066 2005.8951,-234.8611"/>
<polygon fill="#191970" stroke="#191970" points="1979.2015,-231.5014 1969.2201,-235.0541 1979.2384,-238.5013 1979.2015,-231.5014"/>
</g>
<!-- Node29&#45;&gt;Node28 -->
<g id="edge28" class="edge">
<title>Node29&#45;&gt;Node28</title>
<path fill="none" stroke="#191970" d="M1451.4573,-222.7985C1554.9173,-225.833 1706.0717,-230.2665 1799.7027,-233.0128"/>
<polygon fill="#191970" stroke="#191970" points="1451.3826,-219.2949 1441.2842,-222.5001 1451.1773,-226.2919 1451.3826,-219.2949"/>
</g>
<!-- Node30&#45;&gt;Node29 -->
<g id="edge29" class="edge">
<title>Node30&#45;&gt;Node29</title>
<path fill="none" stroke="#191970" d="M820.117,-210.4257C937.6549,-212.4812 1122.375,-215.7116 1236.789,-217.7125"/>
<polygon fill="#191970" stroke="#191970" points="820.0742,-206.9245 810.0145,-210.2491 819.9517,-213.9235 820.0742,-206.9245"/>
</g>
<!-- Node31&#45;&gt;Node28 -->
<g id="edge32" class="edge">
<title>Node31&#45;&gt;Node28</title>
<path fill="none" stroke="#191970" d="M1445.5535,-63.7334C1543.0273,-68.4103 1686.2235,-89.466 1782,-166.5 1796.5621,-178.2124 1786.1999,-191.8987 1800,-204.5 1804.2695,-208.3986 1809.07,-211.8179 1814.1588,-214.8148"/>
<polygon fill="#191970" stroke="#191970" points="1445.5218,-60.2289 1435.3809,-63.2967 1445.2215,-67.2225 1445.5218,-60.2289"/>
</g>
<!-- Node32&#45;&gt;Node31 -->
<g id="edge33" class="edge">
<title>Node32&#45;&gt;Node31</title>
<path fill="none" stroke="#191970" d="M997.2416,-20.9704C1055.807,-26.0659 1143.2162,-34.3867 1219,-44.5 1229.9909,-45.9667 1241.5207,-47.673 1252.9061,-49.4589"/>
<polygon fill="#191970" stroke="#191970" points="997.2772,-17.4606 987.0133,-20.0878 996.6753,-24.4347 997.2772,-17.4606"/>
</g>
<!-- Node33 -->
<g id="node27" class="node">
<title>Node33</title>
<g id="a_node27"><a xlink:href="classgko_1_1BatchTransposable.html" target="_top" xlink:title="Batch Linear operators which support transposition of the distinct batch entries should implement the...">
<polygon fill="#ffffff" stroke="#000000" points="2349.5,-176 2349.5,-195 2481.5,-195 2481.5,-176 2349.5,-176"/>
<text text-anchor="middle" x="2415.5" y="-183" font-family="Helvetica,sans-Serif" font-size="10.00" fill="#000000">gko::BatchTransposable</text>
</a>
</g>
</g>
<!-- Node33&#45;&gt;Node1 -->
<g id="edge38" class="edge">
<title>Node33&#45;&gt;Node1</title>
<path fill="none" stroke="#191970" d="M2491.7279,-190.6246C2501.4299,-191.2768 2511.3417,-191.9431 2520.9914,-192.5919"/>
<polygon fill="#191970" stroke="#191970" points="2491.9254,-187.13 2481.7131,-189.9513 2491.4558,-194.1143 2491.9254,-187.13"/>
</g>
</g>
</svg>
