<?xml version="1.0" encoding="UTF-8" standalone="no"?>
<!DOCTYPE svg PUBLIC "-//W3C//DTD SVG 1.1//EN"
 "http://www.w3.org/Graphics/SVG/1.1/DTD/svg11.dtd">
<!-- Generated by graphviz version 2.40.1 (20161225.0304)
 -->
<!-- Title: gko::solver::BatchGmres&lt; ValueType &gt; Pages: 1 -->
<svg width="2711pt" height="422pt"
 viewBox="0.00 0.00 2711.00 421.50" xmlns="http://www.w3.org/2000/svg" xmlns:xlink="http://www.w3.org/1999/xlink">
<g id="graph0" class="graph" transform="scale(1 1) rotate(0) translate(4 417.5)">
<title>gko::solver::BatchGmres&lt; ValueType &gt;</title>
<polygon fill="#ffffff" stroke="transparent" points="-4,4 -4,-417.5 2707,-417.5 2707,4 -4,4"/>
<!-- Node1 -->
<g id="node1" class="node">
<title>Node1</title>
<g id="a_node1"><a xlink:title="GMRES or the generalized minimal residual method is an iterative type Krylov subspace method which is...">
<polygon fill="#bfbfbf" stroke="#000000" points="2566,-187.5 2566,-217.5 2703,-217.5 2703,-187.5 2566,-187.5"/>
<text text-anchor="start" x="2574" y="-205.5" font-family="Helvetica,sans-Serif" font-size="10.00" fill="#000000">gko::solver::BatchGmres</text>
<text text-anchor="middle" x="2634.5" y="-194.5" font-family="Helvetica,sans-Serif" font-size="10.00" fill="#000000">&lt; ValueType &gt;</text>
</a>
</g>
</g>
<!-- Node2 -->
<g id="node2" class="node">
<title>Node2</title>
<g id="a_node2"><a xlink:href="classgko_1_1solver_1_1EnableBatchSolver.html" target="_top" xlink:title=" ">
<polygon fill="#ffffff" stroke="#000000" points="2327,-219.5 2327,-249.5 2529,-249.5 2529,-219.5 2327,-219.5"/>
<text text-anchor="start" x="2335" y="-237.5" font-family="Helvetica,sans-Serif" font-size="10.00" fill="#000000">gko::solver::EnableBatch</text>
<text text-anchor="middle" x="2428" y="-226.5" font-family="Helvetica,sans-Serif" font-size="10.00" fill="#000000">Solver&lt; BatchGmres&lt; ValueType &gt; &gt;</text>
</a>
</g>
</g>
<!-- Node2&#45;&gt;Node1 -->
<g id="edge1" class="edge">
<title>Node2&#45;&gt;Node1</title>
<path fill="none" stroke="#191970" d="M2534.9639,-217.9245C2545.4577,-216.2983 2555.9003,-214.6801 2565.8573,-213.1371"/>
<polygon fill="#191970" stroke="#191970" points="2534.2473,-214.4937 2524.9013,-219.4838 2535.3193,-221.4111 2534.2473,-214.4937"/>
</g>
<!-- Node3 -->
<g id="node3" class="node">
<title>Node3</title>
<g id="a_node3"><a xlink:href="classgko_1_1EnableBatchLinOp.html" target="_top" xlink:title=" ">
<polygon fill="#ffffff" stroke="#000000" points="1800,-278 1800,-319 1949,-319 1949,-278 1800,-278"/>
<text text-anchor="start" x="1808" y="-307" font-family="Helvetica,sans-Serif" font-size="10.00" fill="#000000">gko::EnableBatchLinOp</text>
<text text-anchor="start" x="1808" y="-296" font-family="Helvetica,sans-Serif" font-size="10.00" fill="#000000">&lt; BatchGmres&lt; ValueType</text>
<text text-anchor="middle" x="1874.5" y="-285" font-family="Helvetica,sans-Serif" font-size="10.00" fill="#000000"> &gt;, BatchLinOp &gt;</text>
</a>
</g>
</g>
<!-- Node3&#45;&gt;Node2 -->
<g id="edge2" class="edge">
<title>Node3&#45;&gt;Node2</title>
<path fill="none" stroke="#191970" d="M1959.2637,-289.2729C2046.8653,-279.6589 2187.5526,-264.0016 2309,-249.5 2314.7894,-248.8087 2320.7359,-248.0892 2326.736,-247.3559"/>
<polygon fill="#191970" stroke="#191970" points="1958.6713,-285.8168 1949.1124,-290.386 1959.4343,-292.7751 1958.6713,-285.8168"/>
</g>
<!-- Node4 -->
<g id="node4" class="node">
<title>Node4</title>
<g id="a_node4"><a xlink:href="classgko_1_1EnablePolymorphicObject.html" target="_top" xlink:title=" ">
<polygon fill="#ffffff" stroke="#000000" points="1246,-340 1246,-381 1412,-381 1412,-340 1246,-340"/>
<text text-anchor="start" x="1254" y="-369" font-family="Helvetica,sans-Serif" font-size="10.00" fill="#000000">gko::EnablePolymorphicObject</text>
<text text-anchor="start" x="1254" y="-358" font-family="Helvetica,sans-Serif" font-size="10.00" fill="#000000">&lt; BatchGmres&lt; ValueType &gt;</text>
<text text-anchor="middle" x="1329" y="-347" font-family="Helvetica,sans-Serif" font-size="10.00" fill="#000000">, BatchLinOp &gt;</text>
</a>
</g>
</g>
<!-- Node4&#45;&gt;Node3 -->
<g id="edge3" class="edge">
<title>Node4&#45;&gt;Node3</title>
<path fill="none" stroke="#191970" d="M1422.21,-352.7544C1511.9955,-344.8867 1651.5519,-331.5896 1772,-315.5 1781.0291,-314.2939 1790.4846,-312.9021 1799.8469,-311.4448"/>
<polygon fill="#191970" stroke="#191970" points="1421.713,-349.2843 1412.0548,-353.6397 1422.321,-356.2579 1421.713,-349.2843"/>
</g>
<!-- Node5 -->
<g id="node5" class="node">
<title>Node5</title>
<g id="a_node5"><a xlink:href="classgko_1_1EnableAbstractPolymorphicObject.html" target="_top" xlink:title=" ">
<polygon fill="#ffffff" stroke="#000000" points="401.5,-372 401.5,-413 581.5,-413 581.5,-372 401.5,-372"/>
<text text-anchor="start" x="409.5" y="-401" font-family="Helvetica,sans-Serif" font-size="10.00" fill="#000000">gko::EnableAbstractPolymorphic</text>
<text text-anchor="start" x="409.5" y="-390" font-family="Helvetica,sans-Serif" font-size="10.00" fill="#000000">Object&lt; BatchGmres&lt; ValueType</text>
<text text-anchor="middle" x="491.5" y="-379" font-family="Helvetica,sans-Serif" font-size="10.00" fill="#000000"> &gt;, BatchLinOp &gt;</text>
</a>
</g>
</g>
<!-- Node5&#45;&gt;Node4 -->
<g id="edge4" class="edge">
<title>Node5&#45;&gt;Node4</title>
<path fill="none" stroke="#191970" d="M591.8716,-392.8606C730.734,-392.7033 989.216,-390.0452 1209,-374.5 1220.9257,-373.6565 1233.4899,-372.4946 1245.817,-371.1978"/>
<polygon fill="#191970" stroke="#191970" points="591.6712,-389.3606 581.6737,-392.8678 591.6762,-396.3606 591.6712,-389.3606"/>
</g>
<!-- Node6 -->
<g id="node6" class="node">
<title>Node6</title>
<g id="a_node6"><a xlink:href="classgko_1_1BatchLinOp.html" target="_top" xlink:title=" ">
<polygon fill="#ffffff" stroke="#ff0000" points="51,-383 51,-402 147,-402 147,-383 51,-383"/>
<text text-anchor="middle" x="99" y="-390" font-family="Helvetica,sans-Serif" font-size="10.00" fill="#000000">gko::BatchLinOp</text>
</a>
</g>
</g>
<!-- Node6&#45;&gt;Node5 -->
<g id="edge5" class="edge">
<title>Node6&#45;&gt;Node5</title>
<path fill="none" stroke="#191970" d="M157.5151,-392.5C222.0083,-392.5 326.526,-392.5 401.468,-392.5"/>
<polygon fill="#191970" stroke="#191970" points="157.1282,-389.0001 147.1282,-392.5 157.1282,-396.0001 157.1282,-389.0001"/>
</g>
<!-- Node13 -->
<g id="node7" class="node">
<title>Node13</title>
<g id="a_node7"><a xlink:href="classgko_1_1EnableAbstractPolymorphicObject.html" target="_top" xlink:title="This mixin inherits from (a subclass of) PolymorphicObject and provides a base implementation of a ne...">
<polygon fill="#ffffff" stroke="#ff0000" points="0,-265 0,-306 198,-306 198,-265 0,-265"/>
<text text-anchor="start" x="8" y="-294" font-family="Helvetica,sans-Serif" font-size="10.00" fill="#000000">gko::EnableAbstractPolymorphic</text>
<text text-anchor="start" x="8" y="-283" font-family="Helvetica,sans-Serif" font-size="10.00" fill="#000000">Object&lt; AbstractObject, Polymorphic</text>
<text text-anchor="middle" x="99" y="-272" font-family="Helvetica,sans-Serif" font-size="10.00" fill="#000000">Base &gt;</text>
</a>
</g>
</g>
<!-- Node13&#45;&gt;Node5 -->
<g id="edge6" class="edge">
<title>Node13&#45;&gt;Node5</title>
<path fill="none" stroke="#ffa500" stroke-dasharray="5,2" d="M158.5204,-309.6557C176.7867,-316.5872 197.0648,-323.8029 216,-329.5 233.8833,-334.8806 327.9395,-356.1443 401.2392,-372.4958"/>
<polygon fill="#ffa500" stroke="#ffa500" points="159.7596,-306.3824 149.1695,-306.0664 157.2511,-312.9175 159.7596,-306.3824"/>
<text text-anchor="start" x="226.5" y="-379.5" font-family="Helvetica,sans-Serif" font-size="10.00" fill="#000000"> &lt; BatchGmres&lt; ValueType</text>
<text text-anchor="middle" x="294.5" y="-368.5" font-family="Helvetica,sans-Serif" font-size="10.00" fill="#000000"> &gt;, BatchLinOp &gt;</text>
</g>
<!-- Node15 -->
<g id="node9" class="node">
<title>Node15</title>
<g id="a_node9"><a xlink:href="classgko_1_1EnableAbstractPolymorphicObject.html" target="_top" xlink:title=" ">
<polygon fill="#ffffff" stroke="#ff0000" points="391,-292 391,-333 592,-333 592,-292 391,-292"/>
<text text-anchor="start" x="399" y="-321" font-family="Helvetica,sans-Serif" font-size="10.00" fill="#000000">gko::EnableAbstractPolymorphic</text>
<text text-anchor="start" x="399" y="-310" font-family="Helvetica,sans-Serif" font-size="10.00" fill="#000000">Object&lt; ConcreteObject, Polymorphic</text>
<text text-anchor="middle" x="491.5" y="-299" font-family="Helvetica,sans-Serif" font-size="10.00" fill="#000000">Base &gt;</text>
</a>
</g>
</g>
<!-- Node13&#45;&gt;Node15 -->
<g id="edge9" class="edge">
<title>Node13&#45;&gt;Node15</title>
<path fill="none" stroke="#ffa500" stroke-dasharray="5,2" d="M208.2032,-293.0121C265.3756,-296.9449 334.9091,-301.7281 390.78,-305.5715"/>
<polygon fill="#ffa500" stroke="#ffa500" points="208.261,-289.5079 198.0443,-292.3132 207.7805,-296.4914 208.261,-289.5079"/>
<text text-anchor="start" x="216" y="-317.5" font-family="Helvetica,sans-Serif" font-size="10.00" fill="#000000"> &lt; ConcreteObject, Polymorphic</text>
<text text-anchor="middle" x="294.5" y="-306.5" font-family="Helvetica,sans-Serif" font-size="10.00" fill="#000000">Base &gt;</text>
</g>
<!-- Node22 -->
<g id="node16" class="node">
<title>Node22</title>
<g id="a_node16"><a xlink:href="classgko_1_1EnableAbstractPolymorphicObject.html" target="_top" xlink:title=" ">
<polygon fill="#ffffff" stroke="#ff0000" points="622.5,-238 622.5,-279 797.5,-279 797.5,-238 622.5,-238"/>
<text text-anchor="start" x="630.5" y="-267" font-family="Helvetica,sans-Serif" font-size="10.00" fill="#000000">gko::EnableAbstractPolymorphic</text>
<text text-anchor="start" x="630.5" y="-256" font-family="Helvetica,sans-Serif" font-size="10.00" fill="#000000">Object&lt; ConcreteBatchLinOp,</text>
<text text-anchor="middle" x="710" y="-245" font-family="Helvetica,sans-Serif" font-size="10.00" fill="#000000"> PolymorphicBase &gt;</text>
</a>
</g>
</g>
<!-- Node13&#45;&gt;Node22 -->
<g id="edge18" class="edge">
<title>Node13&#45;&gt;Node22</title>
<path fill="none" stroke="#ffa500" stroke-dasharray="5,2" d="M208.2628,-268.2176C210.8648,-267.9587 213.4468,-267.7187 216,-267.5 357.8724,-255.3498 523.4668,-255.1727 622.3655,-256.5498"/>
<polygon fill="#ffa500" stroke="#ffa500" points="207.7155,-264.7561 198.1463,-269.3037 208.4628,-271.7161 207.7155,-264.7561"/>
<text text-anchor="start" x="236" y="-281.5" font-family="Helvetica,sans-Serif" font-size="10.00" fill="#000000"> &lt; ConcreteBatchLinOp,</text>
<text text-anchor="middle" x="294.5" y="-270.5" font-family="Helvetica,sans-Serif" font-size="10.00" fill="#000000"> PolymorphicBase &gt;</text>
</g>
<!-- Node30 -->
<g id="node24" class="node">
<title>Node30</title>
<g id="a_node24"><a xlink:href="classgko_1_1EnableAbstractPolymorphicObject.html" target="_top" xlink:title=" ">
<polygon fill="#ffffff" stroke="#ff0000" points="610,-188 610,-229 810,-229 810,-188 610,-188"/>
<text text-anchor="start" x="618" y="-217" font-family="Helvetica,sans-Serif" font-size="10.00" fill="#000000">gko::EnableAbstractPolymorphic</text>
<text text-anchor="start" x="618" y="-206" font-family="Helvetica,sans-Serif" font-size="10.00" fill="#000000">Object&lt; ConcreteSolver, Polymorphic</text>
<text text-anchor="middle" x="710" y="-195" font-family="Helvetica,sans-Serif" font-size="10.00" fill="#000000">Base &gt;</text>
</a>
</g>
</g>
<!-- Node13&#45;&gt;Node30 -->
<g id="edge30" class="edge">
<title>Node13&#45;&gt;Node30</title>
<path fill="none" stroke="#ffa500" stroke-dasharray="5,2" d="M143.9453,-260.3299C165.1353,-249.7375 191.17,-238.4959 216,-232.5 349.3369,-200.3021 508.6293,-198.943 609.5614,-202.4724"/>
<polygon fill="#ffa500" stroke="#ffa500" points="142.1839,-257.2995 134.876,-264.9706 145.3726,-263.5311 142.1839,-257.2995"/>
<text text-anchor="start" x="216.5" y="-246.5" font-family="Helvetica,sans-Serif" font-size="10.00" fill="#000000"> &lt; ConcreteSolver, Polymorphic</text>
<text text-anchor="middle" x="294.5" y="-235.5" font-family="Helvetica,sans-Serif" font-size="10.00" fill="#000000">Base &gt;</text>
</g>
<!-- Node14 -->
<g id="node8" class="node">
<title>Node14</title>
<g id="a_node8"><a xlink:href="classgko_1_1EnablePolymorphicObject.html" target="_top" xlink:title="This mixin inherits from (a subclass of) PolymorphicObject and provides a base implementation of a ne...">
<polygon fill="#ffffff" stroke="#000000" points="828,-299.5 828,-329.5 1033,-329.5 1033,-299.5 828,-299.5"/>
<text text-anchor="start" x="836" y="-317.5" font-family="Helvetica,sans-Serif" font-size="10.00" fill="#000000">gko::EnablePolymorphicObject</text>
<text text-anchor="middle" x="930.5" y="-306.5" font-family="Helvetica,sans-Serif" font-size="10.00" fill="#000000">&lt; ConcreteObject, PolymorphicBase &gt;</text>
</a>
</g>
</g>
<!-- Node14&#45;&gt;Node4 -->
<g id="edge7" class="edge">
<title>Node14&#45;&gt;Node4</title>
<path fill="none" stroke="#ffa500" stroke-dasharray="5,2" d="M1038.4084,-330.8769C1042.6585,-331.4401 1046.8678,-331.9836 1051,-332.5 1116.3414,-340.6661 1190.556,-348.045 1245.86,-353.1753"/>
<polygon fill="#ffa500" stroke="#ffa500" points="1038.813,-327.3998 1028.4345,-329.53 1037.8761,-334.3368 1038.813,-327.3998"/>
<text text-anchor="start" x="1062" y="-362.5" font-family="Helvetica,sans-Serif" font-size="10.00" fill="#000000"> &lt; BatchGmres&lt; ValueType</text>
<text text-anchor="middle" x="1130" y="-351.5" font-family="Helvetica,sans-Serif" font-size="10.00" fill="#000000"> &gt;, BatchLinOp &gt;</text>
</g>
<!-- Node21 -->
<g id="node15" class="node">
<title>Node21</title>
<g id="a_node15"><a xlink:href="classgko_1_1EnablePolymorphicObject.html" target="_top" xlink:title=" ">
<polygon fill="#ffffff" stroke="#000000" points="1232,-254 1232,-295 1426,-295 1426,-254 1232,-254"/>
<text text-anchor="start" x="1240" y="-283" font-family="Helvetica,sans-Serif" font-size="10.00" fill="#000000">gko::EnablePolymorphicObject</text>
<text text-anchor="start" x="1240" y="-272" font-family="Helvetica,sans-Serif" font-size="10.00" fill="#000000">&lt; ConcreteBatchLinOp, Polymorphic</text>
<text text-anchor="middle" x="1329" y="-261" font-family="Helvetica,sans-Serif" font-size="10.00" fill="#000000">Base &gt;</text>
</a>
</g>
</g>
<!-- Node14&#45;&gt;Node21 -->
<g id="edge19" class="edge">
<title>Node14&#45;&gt;Node21</title>
<path fill="none" stroke="#ffa500" stroke-dasharray="5,2" d="M1043.214,-308.1035C1093.9709,-304.6825 1154.5928,-299.8477 1209,-293.5 1216.4375,-292.6323 1224.1199,-291.6398 1231.8361,-290.5739"/>
<polygon fill="#ffa500" stroke="#ffa500" points="1042.9449,-304.6136 1033.1989,-308.7689 1043.409,-311.5982 1042.9449,-304.6136"/>
<text text-anchor="start" x="1071.5" y="-320.5" font-family="Helvetica,sans-Serif" font-size="10.00" fill="#000000"> &lt; ConcreteBatchLinOp,</text>
<text text-anchor="middle" x="1130" y="-309.5" font-family="Helvetica,sans-Serif" font-size="10.00" fill="#000000"> PolymorphicBase &gt;</text>
</g>
<!-- Node29 -->
<g id="node23" class="node">
<title>Node29</title>
<g id="a_node23"><a xlink:href="classgko_1_1EnablePolymorphicObject.html" target="_top" xlink:title=" ">
<polygon fill="#ffffff" stroke="#000000" points="1227,-204.5 1227,-234.5 1431,-234.5 1431,-204.5 1227,-204.5"/>
<text text-anchor="start" x="1235" y="-222.5" font-family="Helvetica,sans-Serif" font-size="10.00" fill="#000000">gko::EnablePolymorphicObject</text>
<text text-anchor="middle" x="1329" y="-211.5" font-family="Helvetica,sans-Serif" font-size="10.00" fill="#000000">&lt; ConcreteSolver, PolymorphicBase &gt;</text>
</a>
</g>
</g>
<!-- Node14&#45;&gt;Node29 -->
<g id="edge31" class="edge">
<title>Node14&#45;&gt;Node29</title>
<path fill="none" stroke="#ffa500" stroke-dasharray="5,2" d="M973.0109,-295.5032C995.7691,-285.954 1024.4996,-274.8751 1051,-267.5 1108.3296,-251.545 1173.8614,-239.9226 1226.8962,-232.1141"/>
<polygon fill="#ffa500" stroke="#ffa500" points="971.4786,-292.3514 963.6469,-299.4868 974.219,-298.7928 971.4786,-292.3514"/>
<text text-anchor="start" x="1052" y="-281.5" font-family="Helvetica,sans-Serif" font-size="10.00" fill="#000000"> &lt; ConcreteSolver, Polymorphic</text>
<text text-anchor="middle" x="1130" y="-270.5" font-family="Helvetica,sans-Serif" font-size="10.00" fill="#000000">Base &gt;</text>
</g>
<!-- Node15&#45;&gt;Node14 -->
<g id="edge8" class="edge">
<title>Node15&#45;&gt;Node14</title>
<path fill="none" stroke="#191970" d="M602.2972,-313.0048C671.6132,-313.3206 760.2757,-313.7245 827.9702,-314.0329"/>
<polygon fill="#191970" stroke="#191970" points="602.2313,-309.5045 592.2155,-312.9588 602.1994,-316.5045 602.2313,-309.5045"/>
</g>
<!-- Node16 -->
<g id="node10" class="node">
<title>Node16</title>
<g id="a_node10"><a xlink:href="classgko_1_1EnablePolymorphicAssignment.html" target="_top" xlink:title=" ">
<polygon fill="#ffffff" stroke="#000000" points="1233,-147.5 1233,-177.5 1425,-177.5 1425,-147.5 1233,-147.5"/>
<text text-anchor="start" x="1241" y="-165.5" font-family="Helvetica,sans-Serif" font-size="10.00" fill="#000000">gko::EnablePolymorphicAssignment</text>
<text text-anchor="middle" x="1329" y="-154.5" font-family="Helvetica,sans-Serif" font-size="10.00" fill="#000000">&lt; BatchGmres&lt; ValueType &gt; &gt;</text>
</a>
</g>
</g>
<!-- Node16&#45;&gt;Node3 -->
<g id="edge10" class="edge">
<title>Node16&#45;&gt;Node3</title>
<path fill="none" stroke="#191970" d="M1435.2753,-155.2902C1485.1237,-154.1411 1545.0706,-155.9799 1598,-166.5 1679.5958,-182.7177 1708.5837,-181.6552 1772,-235.5 1783.853,-245.564 1778.1208,-255.4669 1790,-265.5 1795.655,-270.2762 1802.0818,-274.4109 1808.8063,-277.9788"/>
<polygon fill="#191970" stroke="#191970" points="1435.0223,-151.7957 1425.122,-155.5684 1435.2141,-158.7931 1435.0223,-151.7957"/>
</g>
<!-- Node17 -->
<g id="node11" class="node">
<title>Node17</title>
<g id="a_node11"><a xlink:href="classgko_1_1ConvertibleTo.html" target="_top" xlink:title=" ">
<polygon fill="#ffffff" stroke="#000000" points="845,-147.5 845,-177.5 1016,-177.5 1016,-147.5 845,-147.5"/>
<text text-anchor="start" x="853" y="-165.5" font-family="Helvetica,sans-Serif" font-size="10.00" fill="#000000">gko::ConvertibleTo</text>
<text text-anchor="middle" x="930.5" y="-154.5" font-family="Helvetica,sans-Serif" font-size="10.00" fill="#000000">&lt; BatchGmres&lt; ValueType &gt; &gt;</text>
</a>
</g>
</g>
<!-- Node17&#45;&gt;Node16 -->
<g id="edge11" class="edge">
<title>Node17&#45;&gt;Node16</title>
<path fill="none" stroke="#191970" d="M1026.7269,-162.5C1089.169,-162.5 1170.2327,-162.5 1232.6911,-162.5"/>
<polygon fill="#191970" stroke="#191970" points="1026.478,-159.0001 1016.4779,-162.5 1026.4779,-166.0001 1026.478,-159.0001"/>
</g>
<!-- Node18 -->
<g id="node12" class="node">
<title>Node18</title>
<g id="a_node12"><a xlink:href="classgko_1_1ConvertibleTo.html" target="_top" xlink:title="ConvertibleTo interface is used to mark that the implementer can be converted to the object of Result...">
<polygon fill="#ffffff" stroke="#000000" points="438,-76.5 438,-106.5 545,-106.5 545,-76.5 438,-76.5"/>
<text text-anchor="start" x="446" y="-94.5" font-family="Helvetica,sans-Serif" font-size="10.00" fill="#000000">gko::ConvertibleTo</text>
<text text-anchor="middle" x="491.5" y="-83.5" font-family="Helvetica,sans-Serif" font-size="10.00" fill="#000000">&lt; ResultType &gt;</text>
</a>
</g>
</g>
<!-- Node18&#45;&gt;Node17 -->
<g id="edge12" class="edge">
<title>Node18&#45;&gt;Node17</title>
<path fill="none" stroke="#ffa500" stroke-dasharray="5,2" d="M555.2477,-105.7478C572.9338,-109.4827 592.1737,-113.3438 610,-116.5 689.2913,-130.5387 780.1991,-143.2696 844.8953,-151.7605"/>
<polygon fill="#ffa500" stroke="#ffa500" points="555.5465,-102.2329 545.0364,-103.5697 554.0862,-109.0789 555.5465,-102.2329"/>
<text text-anchor="middle" x="710" y="-150.5" font-family="Helvetica,sans-Serif" font-size="10.00" fill="#000000"> &lt; BatchGmres&lt; ValueType &gt; &gt;</text>
</g>
<!-- Node19 -->
<g id="node13" class="node">
<title>Node19</title>
<g id="a_node13"><a xlink:href="classgko_1_1EnablePolymorphicAssignment.html" target="_top" xlink:title="This mixin is used to enable a default PolymorphicObject::copy_from() implementation for objects that...">
<polygon fill="#ffffff" stroke="#000000" points="834.5,-98.5 834.5,-128.5 1026.5,-128.5 1026.5,-98.5 834.5,-98.5"/>
<text text-anchor="start" x="842.5" y="-116.5" font-family="Helvetica,sans-Serif" font-size="10.00" fill="#000000">gko::EnablePolymorphicAssignment</text>
<text text-anchor="middle" x="930.5" y="-105.5" font-family="Helvetica,sans-Serif" font-size="10.00" fill="#000000">&lt; ConcreteType, ResultType &gt;</text>
</a>
</g>
</g>
<!-- Node18&#45;&gt;Node19 -->
<g id="edge14" class="edge">
<title>Node18&#45;&gt;Node19</title>
<path fill="none" stroke="#191970" d="M555.3531,-94.6999C628.6939,-98.3753 749.7864,-104.4437 834.4987,-108.689"/>
<polygon fill="#191970" stroke="#191970" points="555.4927,-91.2026 545.33,-94.1976 555.1423,-98.1939 555.4927,-91.2026"/>
</g>
<!-- Node24 -->
<g id="node18" class="node">
<title>Node24</title>
<g id="a_node18"><a xlink:href="classgko_1_1ConvertibleTo.html" target="_top" xlink:title=" ">
<polygon fill="#ffffff" stroke="#000000" points="861.5,-49.5 861.5,-79.5 999.5,-79.5 999.5,-49.5 861.5,-49.5"/>
<text text-anchor="start" x="869.5" y="-67.5" font-family="Helvetica,sans-Serif" font-size="10.00" fill="#000000">gko::ConvertibleTo</text>
<text text-anchor="middle" x="930.5" y="-56.5" font-family="Helvetica,sans-Serif" font-size="10.00" fill="#000000">&lt; ConcreteBatchLinOp &gt;</text>
</a>
</g>
</g>
<!-- Node18&#45;&gt;Node24 -->
<g id="edge22" class="edge">
<title>Node18&#45;&gt;Node24</title>
<path fill="none" stroke="#ffa500" stroke-dasharray="5,2" d="M555.3903,-87.0904C573.0771,-85.8959 592.2816,-84.6233 610,-83.5 696.6412,-78.0073 796.4903,-72.1653 861.4059,-68.4321"/>
<polygon fill="#ffa500" stroke="#ffa500" points="554.9151,-83.6145 545.1747,-87.7829 555.3886,-90.5984 554.9151,-83.6145"/>
<text text-anchor="middle" x="710" y="-86.5" font-family="Helvetica,sans-Serif" font-size="10.00" fill="#000000"> &lt; ConcreteBatchLinOp &gt;</text>
</g>
<!-- Node32 -->
<g id="node26" class="node">
<title>Node32</title>
<g id="a_node26"><a xlink:href="classgko_1_1ConvertibleTo.html" target="_top" xlink:title=" ">
<polygon fill="#ffffff" stroke="#000000" points="874,-.5 874,-30.5 987,-30.5 987,-.5 874,-.5"/>
<text text-anchor="start" x="882" y="-18.5" font-family="Helvetica,sans-Serif" font-size="10.00" fill="#000000">gko::ConvertibleTo</text>
<text text-anchor="middle" x="930.5" y="-7.5" font-family="Helvetica,sans-Serif" font-size="10.00" fill="#000000">&lt; ConcreteSolver &gt;</text>
</a>
</g>
</g>
<!-- Node18&#45;&gt;Node32 -->
<g id="edge34" class="edge">
<title>Node18&#45;&gt;Node32</title>
<path fill="none" stroke="#ffa500" stroke-dasharray="5,2" d="M547.5038,-73.5757C567.1133,-67.7958 589.3843,-61.7834 610,-57.5 701.4829,-38.4923 809.5406,-26.4431 873.9149,-20.3414"/>
<polygon fill="#ffa500" stroke="#ffa500" points="546.3901,-70.2556 537.8135,-76.4759 548.3972,-76.9617 546.3901,-70.2556"/>
<text text-anchor="middle" x="710" y="-60.5" font-family="Helvetica,sans-Serif" font-size="10.00" fill="#000000"> &lt; ConcreteSolver &gt;</text>
</g>
<!-- Node19&#45;&gt;Node16 -->
<g id="edge13" class="edge">
<title>Node19&#45;&gt;Node16</title>
<path fill="none" stroke="#ffa500" stroke-dasharray="5,2" d="M1036.7613,-126.4C1088.6993,-132.7237 1152.1224,-140.4733 1209,-147.5 1216.7097,-148.4525 1224.6975,-149.4429 1232.7221,-150.4406"/>
<polygon fill="#ffa500" stroke="#ffa500" points="1036.8819,-122.8889 1026.5322,-125.1549 1036.036,-129.8376 1036.8819,-122.8889"/>
<text text-anchor="middle" x="1130" y="-150.5" font-family="Helvetica,sans-Serif" font-size="10.00" fill="#000000"> &lt; BatchGmres&lt; ValueType &gt; &gt;</text>
</g>
<!-- Node23 -->
<g id="node17" class="node">
<title>Node23</title>
<g id="a_node17"><a xlink:href="classgko_1_1EnablePolymorphicAssignment.html" target="_top" xlink:title=" ">
<polygon fill="#ffffff" stroke="#000000" points="1233,-98.5 1233,-128.5 1425,-128.5 1425,-98.5 1233,-98.5"/>
<text text-anchor="start" x="1241" y="-116.5" font-family="Helvetica,sans-Serif" font-size="10.00" fill="#000000">gko::EnablePolymorphicAssignment</text>
<text text-anchor="middle" x="1329" y="-105.5" font-family="Helvetica,sans-Serif" font-size="10.00" fill="#000000">&lt; ConcreteBatchLinOp &gt;</text>
</a>
</g>
</g>
<!-- Node19&#45;&gt;Node23 -->
<g id="edge23" class="edge">
<title>Node19&#45;&gt;Node23</title>
<path fill="none" stroke="#ffa500" stroke-dasharray="5,2" d="M1036.755,-113.5C1097.7586,-113.5 1173.7551,-113.5 1232.9587,-113.5"/>
<polygon fill="#ffa500" stroke="#ffa500" points="1036.7117,-110.0001 1026.7117,-113.5 1036.7116,-117.0001 1036.7117,-110.0001"/>
<text text-anchor="middle" x="1130" y="-116.5" font-family="Helvetica,sans-Serif" font-size="10.00" fill="#000000"> &lt; ConcreteBatchLinOp &gt;</text>
</g>
<!-- Node31 -->
<g id="node25" class="node">
<title>Node31</title>
<g id="a_node25"><a xlink:href="classgko_1_1EnablePolymorphicAssignment.html" target="_top" xlink:title=" ">
<polygon fill="#ffffff" stroke="#000000" points="1233,-49.5 1233,-79.5 1425,-79.5 1425,-49.5 1233,-49.5"/>
<text text-anchor="start" x="1241" y="-67.5" font-family="Helvetica,sans-Serif" font-size="10.00" fill="#000000">gko::EnablePolymorphicAssignment</text>
<text text-anchor="middle" x="1329" y="-56.5" font-family="Helvetica,sans-Serif" font-size="10.00" fill="#000000">&lt; ConcreteSolver &gt;</text>
</a>
</g>
</g>
<!-- Node19&#45;&gt;Node31 -->
<g id="edge35" class="edge">
<title>Node19&#45;&gt;Node31</title>
<path fill="none" stroke="#ffa500" stroke-dasharray="5,2" d="M1036.5811,-100.2821C1041.4546,-99.6788 1046.2793,-99.0825 1051,-98.5 1111.4426,-91.0419 1179.2869,-82.743 1232.8219,-76.2113"/>
<polygon fill="#ffa500" stroke="#ffa500" points="1036.0203,-96.8247 1026.5265,-101.5276 1036.8809,-103.7716 1036.0203,-96.8247"/>
<text text-anchor="middle" x="1130" y="-101.5" font-family="Helvetica,sans-Serif" font-size="10.00" fill="#000000"> &lt; ConcreteSolver &gt;</text>
</g>
<!-- Node20 -->
<g id="node14" class="node">
<title>Node20</title>
<g id="a_node14"><a xlink:href="classgko_1_1EnableBatchLinOp.html" target="_top" xlink:title="The EnableBatchLinOp mixin can be used to provide sensible default implementations of the majority of...">
<polygon fill="#ffffff" stroke="#000000" points="1468,-253 1468,-294 1598,-294 1598,-253 1468,-253"/>
<text text-anchor="start" x="1476" y="-282" font-family="Helvetica,sans-Serif" font-size="10.00" fill="#000000">gko::EnableBatchLinOp</text>
<text text-anchor="start" x="1476" y="-271" font-family="Helvetica,sans-Serif" font-size="10.00" fill="#000000">&lt; ConcreteBatchLinOp,</text>
<text text-anchor="middle" x="1533" y="-260" font-family="Helvetica,sans-Serif" font-size="10.00" fill="#000000"> PolymorphicBase &gt;</text>
</a>
</g>
</g>
<!-- Node20&#45;&gt;Node3 -->
<g id="edge15" class="edge">
<title>Node20&#45;&gt;Node3</title>
<path fill="none" stroke="#ffa500" stroke-dasharray="5,2" d="M1608.0655,-278.9953C1665.0504,-283.1669 1743.0321,-288.8757 1799.9018,-293.0389"/>
<polygon fill="#ffa500" stroke="#ffa500" points="1608.2662,-275.5007 1598.0374,-278.2612 1607.7551,-282.482 1608.2662,-275.5007"/>
<text text-anchor="start" x="1626" y="-303.5" font-family="Helvetica,sans-Serif" font-size="10.00" fill="#000000"> &lt; BatchGmres&lt; ValueType</text>
<text text-anchor="middle" x="1694" y="-292.5" font-family="Helvetica,sans-Serif" font-size="10.00" fill="#000000"> &gt;, BatchLinOp &gt;</text>
</g>
<!-- Node28 -->
<g id="node22" class="node">
<title>Node28</title>
<g id="a_node22"><a xlink:href="classgko_1_1EnableBatchLinOp.html" target="_top" xlink:title=" ">
<polygon fill="#ffffff" stroke="#000000" points="1790,-215 1790,-256 1959,-256 1959,-215 1790,-215"/>
<text text-anchor="start" x="1798" y="-244" font-family="Helvetica,sans-Serif" font-size="10.00" fill="#000000">gko::EnableBatchLinOp</text>
<text text-anchor="start" x="1798" y="-233" font-family="Helvetica,sans-Serif" font-size="10.00" fill="#000000">&lt; ConcreteSolver, Polymorphic</text>
<text text-anchor="middle" x="1874.5" y="-222" font-family="Helvetica,sans-Serif" font-size="10.00" fill="#000000">Base &gt;</text>
</a>
</g>
</g>
<!-- Node20&#45;&gt;Node28 -->
<g id="edge36" class="edge">
<title>Node20&#45;&gt;Node28</title>
<path fill="none" stroke="#ffa500" stroke-dasharray="5,2" d="M1607.9333,-254.847C1610.6496,-254.3611 1613.3449,-253.9094 1616,-253.5 1673.6891,-244.6047 1739.3045,-240.1025 1789.9923,-237.8252"/>
<polygon fill="#ffa500" stroke="#ffa500" points="1607.2026,-251.4233 1598.0395,-256.7419 1608.5194,-258.2983 1607.2026,-251.4233"/>
<text text-anchor="start" x="1616" y="-267.5" font-family="Helvetica,sans-Serif" font-size="10.00" fill="#000000"> &lt; ConcreteSolver, Polymorphic</text>
<text text-anchor="middle" x="1694" y="-256.5" font-family="Helvetica,sans-Serif" font-size="10.00" fill="#000000">Base &gt;</text>
</g>
<!-- Node21&#45;&gt;Node20 -->
<g id="edge16" class="edge">
<title>Node21&#45;&gt;Node20</title>
<path fill="none" stroke="#191970" d="M1436.5159,-273.973C1447.2444,-273.9204 1457.8913,-273.8682 1467.98,-273.8187"/>
<polygon fill="#191970" stroke="#191970" points="1436.203,-270.4744 1426.2203,-274.0234 1436.2374,-277.4743 1436.203,-270.4744"/>
</g>
<!-- Node22&#45;&gt;Node21 -->
<g id="edge17" class="edge">
<title>Node22&#45;&gt;Node21</title>
<path fill="none" stroke="#191970" d="M807.8345,-250.8718C908.626,-244.4785 1070.1581,-238.3143 1209,-251.5 1216.4967,-252.212 1224.2219,-253.1687 1231.9679,-254.2888"/>
<polygon fill="#191970" stroke="#191970" points="807.421,-247.3911 797.6682,-251.5305 807.8737,-254.3765 807.421,-247.3911"/>
</g>
<!-- Node23&#45;&gt;Node20 -->
<g id="edge20" class="edge">
<title>Node23&#45;&gt;Node20</title>
<path fill="none" stroke="#191970" d="M1425.3322,-133.5777C1427.2813,-134.81 1429.1743,-136.1159 1431,-137.5 1458.1076,-158.0502 1447.9576,-177.0147 1468,-204.5 1480.7995,-222.0526 1497.681,-239.8491 1511.0319,-252.9712"/>
<polygon fill="#191970" stroke="#191970" points="1426.8995,-130.4444 1416.4605,-128.6341 1423.4921,-136.5591 1426.8995,-130.4444"/>
</g>
<!-- Node24&#45;&gt;Node23 -->
<g id="edge21" class="edge">
<title>Node24&#45;&gt;Node23</title>
<path fill="none" stroke="#191970" d="M991.8272,-47.1793C1051.1828,-34.0371 1141.7968,-23.8103 1209,-60.5 1221.9849,-67.5891 1214.9587,-79.9052 1227,-88.5 1232.4166,-92.3662 1238.3621,-95.6382 1244.5756,-98.4067"/>
<polygon fill="#191970" stroke="#191970" points="990.8075,-43.8226 981.8502,-49.481 992.3811,-50.6434 990.8075,-43.8226"/>
</g>
<!-- Node25 -->
<g id="node19" class="node">
<title>Node25</title>
<g id="a_node19"><a xlink:href="classgko_1_1EnableBatchScaling.html" target="_top" xlink:title="Default batch scalable interface with some type&#45;checking.">
<polygon fill="#ffffff" stroke="#000000" points="1806,-176 1806,-195 1943,-195 1943,-176 1806,-176"/>
<text text-anchor="middle" x="1874.5" y="-183" font-family="Helvetica,sans-Serif" font-size="10.00" fill="#000000">gko::EnableBatchScaling</text>
</a>
</g>
</g>
<!-- Node25&#45;&gt;Node2 -->
<g id="edge24" class="edge">
<title>Node25&#45;&gt;Node2</title>
<path fill="none" stroke="#191970" d="M1953.1334,-190.7061C2004.3813,-194.2406 2072.6924,-199.2182 2133,-204.5 2197.4885,-210.1479 2269.8021,-217.4859 2326.693,-223.4907"/>
<polygon fill="#191970" stroke="#191970" points="1953.335,-187.2118 1943.1188,-190.0188 1952.8556,-194.1954 1953.335,-187.2118"/>
</g>
<!-- Node27 -->
<g id="node21" class="node">
<title>Node27</title>
<g id="a_node21"><a xlink:href="classgko_1_1solver_1_1EnableBatchSolver.html" target="_top" xlink:title=" ">
<polygon fill="#ffffff" stroke="#000000" points="1996,-214 1996,-255 2133,-255 2133,-214 1996,-214"/>
<text text-anchor="start" x="2004" y="-243" font-family="Helvetica,sans-Serif" font-size="10.00" fill="#000000">gko::solver::EnableBatch</text>
<text text-anchor="start" x="2004" y="-232" font-family="Helvetica,sans-Serif" font-size="10.00" fill="#000000">Solver&lt; ConcreteSolver,</text>
<text text-anchor="middle" x="2064.5" y="-221" font-family="Helvetica,sans-Serif" font-size="10.00" fill="#000000"> PolymorphicBase &gt;</text>
</a>
</g>
</g>
<!-- Node25&#45;&gt;Node27 -->
<g id="edge37" class="edge">
<title>Node25&#45;&gt;Node27</title>
<path fill="none" stroke="#191970" d="M1926.0798,-197.3978C1936.9689,-199.9964 1948.3767,-202.7837 1959,-205.5 1970.9621,-208.5587 1983.6511,-211.9337 1995.9268,-215.2672"/>
<polygon fill="#191970" stroke="#191970" points="1926.8005,-193.9717 1916.2629,-195.0717 1925.1865,-200.7831 1926.8005,-193.9717"/>
</g>
<!-- Node26 -->
<g id="node20" class="node">
<title>Node26</title>
<g id="a_node20"><a xlink:href="classgko_1_1BatchScalable.html" target="_top" xlink:title="A batch made up of entities that can scaled from the left and right by scaling vectors.">
<polygon fill="#ffffff" stroke="#000000" points="1478,-176 1478,-195 1588,-195 1588,-176 1478,-176"/>
<text text-anchor="middle" x="1533" y="-183" font-family="Helvetica,sans-Serif" font-size="10.00" fill="#000000">gko::BatchScalable</text>
</a>
</g>
</g>
<!-- Node26&#45;&gt;Node25 -->
<g id="edge25" class="edge">
<title>Node26&#45;&gt;Node25</title>
<path fill="none" stroke="#191970" d="M1598.2752,-185.5C1657.7387,-185.5 1745.2574,-185.5 1805.7759,-185.5"/>
<polygon fill="#191970" stroke="#191970" points="1598.2475,-182.0001 1588.2474,-185.5 1598.2474,-189.0001 1598.2475,-182.0001"/>
</g>
<!-- Node27&#45;&gt;Node2 -->
<g id="edge26" class="edge">
<title>Node27&#45;&gt;Node2</title>
<path fill="none" stroke="#ffa500" stroke-dasharray="5,2" d="M2143.4647,-234.5C2197.239,-234.5 2268.8972,-234.5 2326.8473,-234.5"/>
<polygon fill="#ffa500" stroke="#ffa500" points="2143.2989,-231.0001 2133.2989,-234.5 2143.2989,-238.0001 2143.2989,-231.0001"/>
<text text-anchor="middle" x="2230" y="-237.5" font-family="Helvetica,sans-Serif" font-size="10.00" fill="#000000"> &lt; BatchGmres&lt; ValueType &gt; &gt;</text>
</g>
<!-- Node28&#45;&gt;Node27 -->
<g id="edge27" class="edge">
<title>Node28&#45;&gt;Node27</title>
<path fill="none" stroke="#191970" d="M1969.3209,-235.0009C1978.2832,-234.9538 1987.2477,-234.9066 1995.8951,-234.8611"/>
<polygon fill="#191970" stroke="#191970" points="1969.2015,-231.5014 1959.2201,-235.0541 1969.2384,-238.5013 1969.2015,-231.5014"/>
</g>
<!-- Node29&#45;&gt;Node28 -->
<g id="edge28" class="edge">
<title>Node29&#45;&gt;Node28</title>
<path fill="none" stroke="#191970" d="M1441.4573,-222.7985C1544.9173,-225.833 1696.0717,-230.2665 1789.7027,-233.0128"/>
<polygon fill="#191970" stroke="#191970" points="1441.3826,-219.2949 1431.2842,-222.5001 1441.1773,-226.2919 1441.3826,-219.2949"/>
</g>
<!-- Node30&#45;&gt;Node29 -->
<g id="edge29" class="edge">
<title>Node30&#45;&gt;Node29</title>
<path fill="none" stroke="#191970" d="M820.3977,-210.4618C935.6489,-212.5099 1114.9019,-215.6953 1226.9433,-217.6864"/>
<polygon fill="#191970" stroke="#191970" points="820.2017,-206.9579 810.141,-210.2796 820.0772,-213.9568 820.2017,-206.9579"/>
</g>
<!-- Node31&#45;&gt;Node28 -->
<g id="edge32" class="edge">
<title>Node31&#45;&gt;Node28</title>
<path fill="none" stroke="#191970" d="M1435.5535,-63.7334C1533.0273,-68.4103 1676.2235,-89.466 1772,-166.5 1786.5621,-178.2124 1776.1999,-191.8987 1790,-204.5 1794.2695,-208.3986 1799.07,-211.8179 1804.1588,-214.8148"/>
<polygon fill="#191970" stroke="#191970" points="1435.5218,-60.2289 1425.3809,-63.2967 1435.2215,-67.2225 1435.5218,-60.2289"/>
</g>
<!-- Node32&#45;&gt;Node31 -->
<g id="edge33" class="edge">
<title>Node32&#45;&gt;Node31</title>
<path fill="none" stroke="#191970" d="M997.4043,-15.849C1054.0783,-17.0345 1137.3149,-20.8738 1209,-32.5 1233.1565,-36.4178 1259.4811,-43.1518 1281.3029,-49.4347"/>
<polygon fill="#191970" stroke="#191970" points="997.2036,-12.3447 987.14,-15.6573 997.0728,-19.3435 997.2036,-12.3447"/>
</g>
<!-- Node33 -->
<g id="node27" class="node">
<title>Node33</title>
<g id="a_node27"><a xlink:href="classgko_1_1BatchTransposable.html" target="_top" xlink:title="Batch Linear operators which support transposition of the distinct batch entries should implement the...">
<polygon fill="#ffffff" stroke="#000000" points="2362,-181 2362,-200 2494,-200 2494,-181 2362,-181"/>
<text text-anchor="middle" x="2428" y="-188" font-family="Helvetica,sans-Serif" font-size="10.00" fill="#000000">gko::BatchTransposable</text>
</a>
</g>
</g>
<!-- Node33&#45;&gt;Node1 -->
<g id="edge38" class="edge">
<title>Node33&#45;&gt;Node1</title>
<path fill="none" stroke="#191970" d="M2504.2724,-194.9323C2524.4468,-196.1047 2546.0988,-197.3629 2565.8427,-198.5102"/>
<polygon fill="#191970" stroke="#191970" points="2504.3762,-191.4325 2494.19,-194.3464 2503.97,-198.4207 2504.3762,-191.4325"/>
</g>
</g>
</svg>
