<?xml version="1.0" encoding="UTF-8" standalone="no"?>
<!DOCTYPE svg PUBLIC "-//W3C//DTD SVG 1.1//EN"
 "http://www.w3.org/Graphics/SVG/1.1/DTD/svg11.dtd">
<!-- Generated by graphviz version 2.40.1 (20161225.0304)
 -->
<!-- Title: gko::solver::BatchRichardson&lt; ValueType &gt; Pages: 1 -->
<svg width="2207pt" height="348pt"
 viewBox="0.00 0.00 2207.00 348.14" xmlns="http://www.w3.org/2000/svg" xmlns:xlink="http://www.w3.org/1999/xlink">
<g id="graph0" class="graph" transform="scale(1 1) rotate(0) translate(4 344.1433)">
<title>gko::solver::BatchRichardson&lt; ValueType &gt;</title>
<polygon fill="#ffffff" stroke="transparent" points="-4,4 -4,-344.1433 2203,-344.1433 2203,4 -4,4"/>
<!-- Node1 -->
<g id="node1" class="node">
<title>Node1</title>
<g id="a_node1"><a xlink:title="The (preconditioned) Richardson solver is an iterative method that uses a preconditioner to approxima...">
<polygon fill="#bfbfbf" stroke="#000000" points="2041,-104.6433 2041,-134.6433 2199,-134.6433 2199,-104.6433 2041,-104.6433"/>
<text text-anchor="start" x="2049" y="-122.6433" font-family="Helvetica,sans-Serif" font-size="10.00" fill="#000000">gko::solver::BatchRichardson</text>
<text text-anchor="middle" x="2120" y="-111.6433" font-family="Helvetica,sans-Serif" font-size="10.00" fill="#000000">&lt; ValueType &gt;</text>
</a>
</g>
</g>
<!-- Node2 -->
<g id="node2" class="node">
<title>Node2</title>
<g id="a_node2"><a xlink:href="classgko_1_1EnableBatchLinOp.html" target="_top" xlink:title=" ">
<polygon fill="#ffffff" stroke="#000000" points="1811,-150.6433 1811,-180.6433 2004,-180.6433 2004,-150.6433 1811,-150.6433"/>
<text text-anchor="start" x="1819" y="-168.6433" font-family="Helvetica,sans-Serif" font-size="10.00" fill="#000000">gko::EnableBatchLinOp</text>
<text text-anchor="middle" x="1907.5" y="-157.6433" font-family="Helvetica,sans-Serif" font-size="10.00" fill="#000000">&lt; BatchRichardson&lt; ValueType &gt; &gt;</text>
</a>
</g>
</g>
<!-- Node2&#45;&gt;Node1 -->
<g id="edge1" class="edge">
<title>Node2&#45;&gt;Node1</title>
<path fill="none" stroke="#191970" d="M1986.9017,-148.4552C2007.8386,-143.923 2030.2639,-139.0686 2050.6263,-134.6607"/>
<polygon fill="#191970" stroke="#191970" points="1986.1136,-145.0447 1977.0804,-150.5812 1987.5946,-151.8862 1986.1136,-145.0447"/>
</g>
<!-- Node3 -->
<g id="node3" class="node">
<title>Node3</title>
<g id="a_node3"><a xlink:href="classgko_1_1EnablePolymorphicObject.html" target="_top" xlink:title=" ">
<polygon fill="#ffffff" stroke="#000000" points="1500,-109.1433 1500,-150.1433 1670,-150.1433 1670,-109.1433 1500,-109.1433"/>
<text text-anchor="start" x="1508" y="-138.1433" font-family="Helvetica,sans-Serif" font-size="10.00" fill="#000000">gko::EnablePolymorphicObject</text>
<text text-anchor="start" x="1508" y="-127.1433" font-family="Helvetica,sans-Serif" font-size="10.00" fill="#000000">&lt; BatchRichardson&lt; ValueType</text>
<text text-anchor="middle" x="1585" y="-116.1433" font-family="Helvetica,sans-Serif" font-size="10.00" fill="#000000"> &gt;, BatchLinOp &gt;</text>
</a>
</g>
</g>
<!-- Node3&#45;&gt;Node2 -->
<g id="edge2" class="edge">
<title>Node3&#45;&gt;Node2</title>
<path fill="none" stroke="#191970" d="M1680.1841,-140.2685C1721.3325,-144.8619 1769.4206,-150.2298 1810.7432,-154.8426"/>
<polygon fill="#191970" stroke="#191970" points="1680.4815,-136.7801 1670.1549,-139.149 1679.7049,-143.7369 1680.4815,-136.7801"/>
</g>
<!-- Node4 -->
<g id="node4" class="node">
<title>Node4</title>
<g id="a_node4"><a xlink:href="classgko_1_1EnableAbstractPolymorphicObject.html" target="_top" xlink:title=" ">
<polygon fill="#ffffff" stroke="#000000" points="1278.5,-162.1433 1278.5,-203.1433 1453.5,-203.1433 1453.5,-162.1433 1278.5,-162.1433"/>
<text text-anchor="start" x="1286.5" y="-191.1433" font-family="Helvetica,sans-Serif" font-size="10.00" fill="#000000">gko::EnableAbstractPolymorphic</text>
<text text-anchor="start" x="1286.5" y="-180.1433" font-family="Helvetica,sans-Serif" font-size="10.00" fill="#000000">Object&lt; BatchRichardson&lt;</text>
<text text-anchor="middle" x="1366" y="-169.1433" font-family="Helvetica,sans-Serif" font-size="10.00" fill="#000000"> ValueType &gt;, BatchLinOp &gt;</text>
</a>
</g>
</g>
<!-- Node4&#45;&gt;Node3 -->
<g id="edge3" class="edge">
<title>Node4&#45;&gt;Node3</title>
<path fill="none" stroke="#191970" d="M1460.8822,-159.681C1473.9134,-156.5273 1487.2257,-153.3056 1500.0632,-150.1988"/>
<polygon fill="#191970" stroke="#191970" points="1459.8807,-156.3222 1450.9846,-162.0763 1461.5273,-163.1258 1459.8807,-156.3222"/>
</g>
<!-- Node5 -->
<g id="node5" class="node">
<title>Node5</title>
<g id="a_node5"><a xlink:href="classgko_1_1BatchLinOp.html" target="_top" xlink:title=" ">
<polygon fill="#ffffff" stroke="#000000" points="957.5,-133.1433 957.5,-152.1433 1053.5,-152.1433 1053.5,-133.1433 957.5,-133.1433"/>
<text text-anchor="middle" x="1005.5" y="-140.1433" font-family="Helvetica,sans-Serif" font-size="10.00" fill="#000000">gko::BatchLinOp</text>
</a>
</g>
</g>
<!-- Node5&#45;&gt;Node4 -->
<g id="edge4" class="edge">
<title>Node5&#45;&gt;Node4</title>
<path fill="none" stroke="#191970" d="M1063.7534,-148.5539C1113.5141,-153.6647 1186.9912,-161.3581 1251,-168.6433 1259.8927,-169.6555 1269.1687,-170.7388 1278.426,-171.8379"/>
<polygon fill="#191970" stroke="#191970" points="1063.8118,-145.0416 1053.507,-147.5036 1063.0979,-152.0051 1063.8118,-145.0416"/>
</g>
<!-- Node6 -->
<g id="node6" class="node">
<title>Node6</title>
<g id="a_node6"><a xlink:href="classgko_1_1EnableAbstractPolymorphicObject.html" target="_top" xlink:title=" ">
<polygon fill="#ffffff" stroke="#ff0000" points="542,-123.6433 542,-153.6433 717,-153.6433 717,-123.6433 542,-123.6433"/>
<text text-anchor="start" x="550" y="-141.6433" font-family="Helvetica,sans-Serif" font-size="10.00" fill="#000000">gko::EnableAbstractPolymorphic</text>
<text text-anchor="middle" x="629.5" y="-130.6433" font-family="Helvetica,sans-Serif" font-size="10.00" fill="#000000">Object&lt; BatchLinOp &gt;</text>
</a>
</g>
</g>
<!-- Node6&#45;&gt;Node5 -->
<g id="edge5" class="edge">
<title>Node6&#45;&gt;Node5</title>
<path fill="none" stroke="#191970" d="M727.4451,-139.6853C801.3798,-140.4719 899.6444,-141.5172 957.3831,-142.1315"/>
<polygon fill="#191970" stroke="#191970" points="727.2175,-136.1828 717.1808,-139.5761 727.1429,-143.1824 727.2175,-136.1828"/>
</g>
<!-- Node12 -->
<g id="node7" class="node">
<title>Node12</title>
<g id="a_node7"><a xlink:href="classgko_1_1EnableAbstractPolymorphicObject.html" target="_top" xlink:title="This mixin inherits from (a subclass of) PolymorphicObject and provides a base implementation of a ne...">
<polygon fill="#ffffff" stroke="#000000" points="138,-82.1433 138,-123.1433 336,-123.1433 336,-82.1433 138,-82.1433"/>
<text text-anchor="start" x="146" y="-111.1433" font-family="Helvetica,sans-Serif" font-size="10.00" fill="#000000">gko::EnableAbstractPolymorphic</text>
<text text-anchor="start" x="146" y="-100.1433" font-family="Helvetica,sans-Serif" font-size="10.00" fill="#000000">Object&lt; AbstractObject, Polymorphic</text>
<text text-anchor="middle" x="237" y="-89.1433" font-family="Helvetica,sans-Serif" font-size="10.00" fill="#000000">Base &gt;</text>
</a>
</g>
</g>
<!-- Node12&#45;&gt;Node4 -->
<g id="edge8" class="edge">
<title>Node12&#45;&gt;Node4</title>
<path fill="none" stroke="#ffa500" stroke-dasharray="5,2" d="M289.893,-127.1866C309.6144,-135.33 332.4501,-143.5964 354,-148.6433 430.0064,-166.4439 451.0512,-159.4221 529,-163.6433 802.0395,-178.4294 1125.7857,-181.7445 1278.2657,-182.4629"/>
<polygon fill="#ffa500" stroke="#ffa500" points="291.0549,-123.8781 280.481,-123.2135 288.3326,-130.3271 291.0549,-123.8781"/>
<text text-anchor="start" x="748" y="-190.6433" font-family="Helvetica,sans-Serif" font-size="10.00" fill="#000000"> &lt; BatchRichardson&lt;</text>
<text text-anchor="middle" x="816.5" y="-179.6433" font-family="Helvetica,sans-Serif" font-size="10.00" fill="#000000"> ValueType &gt;, BatchLinOp &gt;</text>
</g>
<!-- Node12&#45;&gt;Node6 -->
<g id="edge6" class="edge">
<title>Node12&#45;&gt;Node6</title>
<path fill="none" stroke="#ffa500" stroke-dasharray="5,2" d="M346.2714,-120.7387C348.8708,-121.056 351.45,-121.3583 354,-121.6433 416.6259,-128.643 487.6066,-132.9372 541.8344,-135.4585"/>
<polygon fill="#ffa500" stroke="#ffa500" points="346.5267,-117.243 336.1634,-119.4459 345.6385,-124.1864 346.5267,-117.243"/>
<text text-anchor="middle" x="432.5" y="-136.6433" font-family="Helvetica,sans-Serif" font-size="10.00" fill="#000000"> &lt; BatchLinOp &gt;</text>
</g>
<!-- Node14 -->
<g id="node10" class="node">
<title>Node14</title>
<g id="a_node10"><a xlink:href="classgko_1_1EnableAbstractPolymorphicObject.html" target="_top" xlink:title=" ">
<polygon fill="#ffffff" stroke="#000000" points="529,-63.1433 529,-104.1433 730,-104.1433 730,-63.1433 529,-63.1433"/>
<text text-anchor="start" x="537" y="-92.1433" font-family="Helvetica,sans-Serif" font-size="10.00" fill="#000000">gko::EnableAbstractPolymorphic</text>
<text text-anchor="start" x="537" y="-81.1433" font-family="Helvetica,sans-Serif" font-size="10.00" fill="#000000">Object&lt; ConcreteObject, Polymorphic</text>
<text text-anchor="middle" x="629.5" y="-70.1433" font-family="Helvetica,sans-Serif" font-size="10.00" fill="#000000">Base &gt;</text>
</a>
</g>
</g>
<!-- Node12&#45;&gt;Node14 -->
<g id="edge12" class="edge">
<title>Node12&#45;&gt;Node14</title>
<path fill="none" stroke="#ffa500" stroke-dasharray="5,2" d="M346.2032,-97.3571C403.3756,-94.5895 472.9091,-91.2235 528.78,-88.519"/>
<polygon fill="#ffa500" stroke="#ffa500" points="345.8634,-93.8693 336.0443,-97.8488 346.2019,-100.8611 345.8634,-93.8693"/>
<text text-anchor="start" x="354" y="-109.6433" font-family="Helvetica,sans-Serif" font-size="10.00" fill="#000000"> &lt; ConcreteObject, Polymorphic</text>
<text text-anchor="middle" x="432.5" y="-98.6433" font-family="Helvetica,sans-Serif" font-size="10.00" fill="#000000">Base &gt;</text>
</g>
<!-- Node21 -->
<g id="node17" class="node">
<title>Node21</title>
<g id="a_node17"><a xlink:href="classgko_1_1EnableAbstractPolymorphicObject.html" target="_top" xlink:title=" ">
<polygon fill="#ffffff" stroke="#000000" points="542,-3.1433 542,-44.1433 717,-44.1433 717,-3.1433 542,-3.1433"/>
<text text-anchor="start" x="550" y="-32.1433" font-family="Helvetica,sans-Serif" font-size="10.00" fill="#000000">gko::EnableAbstractPolymorphic</text>
<text text-anchor="start" x="550" y="-21.1433" font-family="Helvetica,sans-Serif" font-size="10.00" fill="#000000">Object&lt; ConcreteBatchLinOp,</text>
<text text-anchor="middle" x="629.5" y="-10.1433" font-family="Helvetica,sans-Serif" font-size="10.00" fill="#000000"> PolymorphicBase &gt;</text>
</a>
</g>
</g>
<!-- Node12&#45;&gt;Node21 -->
<g id="edge22" class="edge">
<title>Node12&#45;&gt;Node21</title>
<path fill="none" stroke="#ffa500" stroke-dasharray="5,2" d="M301.7934,-78.7708C318.6233,-73.2 336.8463,-67.7135 354,-63.6433 416.074,-48.9147 487.3811,-38.7402 541.8961,-32.3393"/>
<polygon fill="#ffa500" stroke="#ffa500" points="300.422,-75.5395 292.0639,-82.0504 302.658,-82.1728 300.422,-75.5395"/>
<text text-anchor="start" x="374" y="-77.6433" font-family="Helvetica,sans-Serif" font-size="10.00" fill="#000000"> &lt; ConcreteBatchLinOp,</text>
<text text-anchor="middle" x="432.5" y="-66.6433" font-family="Helvetica,sans-Serif" font-size="10.00" fill="#000000"> PolymorphicBase &gt;</text>
</g>
<!-- Node11 -->
<g id="node8" class="node">
<title>Node11</title>
<g id="a_node8"><a xlink:title=" ">
<polygon fill="#ffffff" stroke="#bfbfbf" points="0,-15.1433 0,-34.1433 101,-34.1433 101,-15.1433 0,-15.1433"/>
<text text-anchor="middle" x="50.5" y="-22.1433" font-family="Helvetica,sans-Serif" font-size="10.00" fill="#000000">PolymorphicBase</text>
</a>
</g>
</g>
<!-- Node11&#45;&gt;Node12 -->
<g id="edge7" class="edge">
<title>Node11&#45;&gt;Node12</title>
<path fill="none" stroke="#191970" d="M82.5985,-38.0679C111.5007,-50.1557 154.4214,-68.1064 187.6791,-82.0158"/>
<polygon fill="#191970" stroke="#191970" points="83.9447,-34.8372 73.3686,-34.2077 81.2437,-41.2952 83.9447,-34.8372"/>
</g>
<!-- Node11&#45;&gt;Node14 -->
<g id="edge11" class="edge">
<title>Node11&#45;&gt;Node14</title>
<path fill="none" stroke="#191970" d="M111.3499,-21.6244C219.3143,-17.0695 439.7293,-11.6079 511,-38.6433 520.7367,-42.3368 519.8235,-48.7202 529,-53.6433 535.4984,-57.1297 542.456,-60.2638 549.5648,-63.0698"/>
<polygon fill="#191970" stroke="#191970" points="111.1008,-18.1318 101.2616,-22.0612 111.4037,-25.1253 111.1008,-18.1318"/>
</g>
<!-- Node11&#45;&gt;Node21 -->
<g id="edge21" class="edge">
<title>Node11&#45;&gt;Node21</title>
<path fill="none" stroke="#191970" d="M100.0089,-13.2993C106.37,-12.2035 112.8183,-11.2686 119,-10.6433 292.3378,6.8888 337.0377,-1.1296 511,-10.6433 521.0228,-11.1915 531.5011,-11.9985 541.9026,-12.9467"/>
<polygon fill="#191970" stroke="#191970" points="99.3286,-9.8657 90.1355,-15.1322 100.6063,-16.7481 99.3286,-9.8657"/>
</g>
<!-- Node13 -->
<g id="node9" class="node">
<title>Node13</title>
<g id="a_node9"><a xlink:href="classgko_1_1EnablePolymorphicObject.html" target="_top" xlink:title="This mixin inherits from (a subclass of) PolymorphicObject and provides a base implementation of a ne...">
<polygon fill="#ffffff" stroke="#000000" points="903,-68.6433 903,-98.6433 1108,-98.6433 1108,-68.6433 903,-68.6433"/>
<text text-anchor="start" x="911" y="-86.6433" font-family="Helvetica,sans-Serif" font-size="10.00" fill="#000000">gko::EnablePolymorphicObject</text>
<text text-anchor="middle" x="1005.5" y="-75.6433" font-family="Helvetica,sans-Serif" font-size="10.00" fill="#000000">&lt; ConcreteObject, PolymorphicBase &gt;</text>
</a>
</g>
</g>
<!-- Node13&#45;&gt;Node3 -->
<g id="edge9" class="edge">
<title>Node13&#45;&gt;Node3</title>
<path fill="none" stroke="#ffa500" stroke-dasharray="5,2" d="M1104.4665,-100.0397C1111.7428,-101.0022 1118.9791,-101.8852 1126,-102.6433 1255.9583,-116.6774 1407.4612,-123.8048 1499.7744,-127.1192"/>
<polygon fill="#ffa500" stroke="#ffa500" points="1104.9176,-96.5689 1094.5357,-98.6823 1103.9696,-103.5044 1104.9176,-96.5689"/>
<text text-anchor="start" x="1297.5" y="-138.6433" font-family="Helvetica,sans-Serif" font-size="10.00" fill="#000000"> &lt; BatchRichardson&lt;</text>
<text text-anchor="middle" x="1366" y="-127.6433" font-family="Helvetica,sans-Serif" font-size="10.00" fill="#000000"> ValueType &gt;, BatchLinOp &gt;</text>
</g>
<!-- Node20 -->
<g id="node16" class="node">
<title>Node20</title>
<g id="a_node16"><a xlink:href="classgko_1_1EnablePolymorphicObject.html" target="_top" xlink:title=" ">
<polygon fill="#ffffff" stroke="#000000" points="1269,-44.1433 1269,-85.1433 1463,-85.1433 1463,-44.1433 1269,-44.1433"/>
<text text-anchor="start" x="1277" y="-73.1433" font-family="Helvetica,sans-Serif" font-size="10.00" fill="#000000">gko::EnablePolymorphicObject</text>
<text text-anchor="start" x="1277" y="-62.1433" font-family="Helvetica,sans-Serif" font-size="10.00" fill="#000000">&lt; ConcreteBatchLinOp, Polymorphic</text>
<text text-anchor="middle" x="1366" y="-51.1433" font-family="Helvetica,sans-Serif" font-size="10.00" fill="#000000">Base &gt;</text>
</a>
</g>
</g>
<!-- Node13&#45;&gt;Node20 -->
<g id="edge23" class="edge">
<title>Node13&#45;&gt;Node20</title>
<path fill="none" stroke="#ffa500" stroke-dasharray="5,2" d="M1118.5026,-77.6876C1166.7728,-75.1435 1222.554,-72.2036 1268.9272,-69.7595"/>
<polygon fill="#ffa500" stroke="#ffa500" points="1118.1243,-74.2026 1108.3224,-78.2241 1118.4928,-81.1929 1118.1243,-74.2026"/>
<text text-anchor="start" x="1130" y="-90.6433" font-family="Helvetica,sans-Serif" font-size="10.00" fill="#000000"> &lt; ConcreteBatchLinOp,</text>
<text text-anchor="middle" x="1188.5" y="-79.6433" font-family="Helvetica,sans-Serif" font-size="10.00" fill="#000000"> PolymorphicBase &gt;</text>
</g>
<!-- Node14&#45;&gt;Node13 -->
<g id="edge10" class="edge">
<title>Node14&#45;&gt;Node13</title>
<path fill="none" stroke="#191970" d="M740.4099,-83.6433C791.8028,-83.6433 852.4917,-83.6433 902.8243,-83.6433"/>
<polygon fill="#191970" stroke="#191970" points="740.2611,-80.1434 730.2611,-83.6433 740.2611,-87.1434 740.2611,-80.1434"/>
</g>
<!-- Node15 -->
<g id="node11" class="node">
<title>Node15</title>
<g id="a_node11"><a xlink:href="classgko_1_1EnablePolymorphicAssignment.html" target="_top" xlink:title=" ">
<polygon fill="#ffffff" stroke="#000000" points="1269.5,-272.6433 1269.5,-302.6433 1462.5,-302.6433 1462.5,-272.6433 1269.5,-272.6433"/>
<text text-anchor="start" x="1277.5" y="-290.6433" font-family="Helvetica,sans-Serif" font-size="10.00" fill="#000000">gko::EnablePolymorphicAssignment</text>
<text text-anchor="middle" x="1366" y="-279.6433" font-family="Helvetica,sans-Serif" font-size="10.00" fill="#000000">&lt; BatchRichardson&lt; ValueType &gt; &gt;</text>
</a>
</g>
</g>
<!-- Node15&#45;&gt;Node2 -->
<g id="edge13" class="edge">
<title>Node15&#45;&gt;Node2</title>
<path fill="none" stroke="#191970" d="M1472.7484,-272.6935C1559.8072,-259.2983 1685.5147,-237.2045 1793,-207.6433 1819.7444,-200.288 1849.1001,-189.4624 1871.3914,-180.6442"/>
<polygon fill="#191970" stroke="#191970" points="1472.2155,-269.2342 1462.8582,-274.2033 1473.2719,-276.154 1472.2155,-269.2342"/>
</g>
<!-- Node16 -->
<g id="node12" class="node">
<title>Node16</title>
<g id="a_node12"><a xlink:href="classgko_1_1ConvertibleTo.html" target="_top" xlink:title=" ">
<polygon fill="#ffffff" stroke="#000000" points="909,-309.6433 909,-339.6433 1102,-339.6433 1102,-309.6433 909,-309.6433"/>
<text text-anchor="start" x="917" y="-327.6433" font-family="Helvetica,sans-Serif" font-size="10.00" fill="#000000">gko::ConvertibleTo</text>
<text text-anchor="middle" x="1005.5" y="-316.6433" font-family="Helvetica,sans-Serif" font-size="10.00" fill="#000000">&lt; BatchRichardson&lt; ValueType &gt; &gt;</text>
</a>
</g>
</g>
<!-- Node16&#45;&gt;Node15 -->
<g id="edge14" class="edge">
<title>Node16&#45;&gt;Node15</title>
<path fill="none" stroke="#191970" d="M1112.4837,-321.0855C1155.6263,-318.8757 1205.7952,-315.3246 1251,-309.6433 1265.3198,-307.8437 1280.5423,-305.35 1295.0653,-302.6858"/>
<polygon fill="#191970" stroke="#191970" points="1112.0642,-317.6019 1102.2492,-321.5915 1112.4099,-324.5934 1112.0642,-317.6019"/>
</g>
<!-- Node17 -->
<g id="node13" class="node">
<title>Node17</title>
<g id="a_node13"><a xlink:href="classgko_1_1ConvertibleTo.html" target="_top" xlink:title="ConvertibleTo interface is used to mark that the implementer can be converted to the object of Result...">
<polygon fill="#ffffff" stroke="#000000" points="576,-260.6433 576,-290.6433 683,-290.6433 683,-260.6433 576,-260.6433"/>
<text text-anchor="start" x="584" y="-278.6433" font-family="Helvetica,sans-Serif" font-size="10.00" fill="#000000">gko::ConvertibleTo</text>
<text text-anchor="middle" x="629.5" y="-267.6433" font-family="Helvetica,sans-Serif" font-size="10.00" fill="#000000">&lt; ResultType &gt;</text>
</a>
</g>
</g>
<!-- Node17&#45;&gt;Node16 -->
<g id="edge15" class="edge">
<title>Node17&#45;&gt;Node16</title>
<path fill="none" stroke="#ffa500" stroke-dasharray="5,2" d="M693.3162,-283.9598C752.3844,-291.6575 841.044,-303.2116 908.8042,-312.042"/>
<polygon fill="#ffa500" stroke="#ffa500" points="693.7401,-280.4855 683.3716,-282.6638 692.8355,-287.4269 693.7401,-280.4855"/>
<text text-anchor="start" x="764" y="-322.6433" font-family="Helvetica,sans-Serif" font-size="10.00" fill="#000000"> &lt; BatchRichardson&lt;</text>
<text text-anchor="middle" x="816.5" y="-311.6433" font-family="Helvetica,sans-Serif" font-size="10.00" fill="#000000"> ValueType &gt; &gt;</text>
</g>
<!-- Node18 -->
<g id="node14" class="node">
<title>Node18</title>
<g id="a_node14"><a xlink:href="classgko_1_1EnablePolymorphicAssignment.html" target="_top" xlink:title="This mixin is used to enable a default PolymorphicObject::copy_from() implementation for objects that...">
<polygon fill="#ffffff" stroke="#000000" points="909.5,-260.6433 909.5,-290.6433 1101.5,-290.6433 1101.5,-260.6433 909.5,-260.6433"/>
<text text-anchor="start" x="917.5" y="-278.6433" font-family="Helvetica,sans-Serif" font-size="10.00" fill="#000000">gko::EnablePolymorphicAssignment</text>
<text text-anchor="middle" x="1005.5" y="-267.6433" font-family="Helvetica,sans-Serif" font-size="10.00" fill="#000000">&lt; ConcreteType, ResultType &gt;</text>
</a>
</g>
</g>
<!-- Node17&#45;&gt;Node18 -->
<g id="edge17" class="edge">
<title>Node17&#45;&gt;Node18</title>
<path fill="none" stroke="#191970" d="M693.7012,-275.6433C752.8774,-275.6433 841.5155,-275.6433 909.1761,-275.6433"/>
<polygon fill="#191970" stroke="#191970" points="693.3717,-272.1434 683.3716,-275.6433 693.3716,-279.1434 693.3717,-272.1434"/>
</g>
<!-- Node23 -->
<g id="node19" class="node">
<title>Node23</title>
<g id="a_node19"><a xlink:href="classgko_1_1ConvertibleTo.html" target="_top" xlink:title=" ">
<polygon fill="#ffffff" stroke="#000000" points="936.5,-211.6433 936.5,-241.6433 1074.5,-241.6433 1074.5,-211.6433 936.5,-211.6433"/>
<text text-anchor="start" x="944.5" y="-229.6433" font-family="Helvetica,sans-Serif" font-size="10.00" fill="#000000">gko::ConvertibleTo</text>
<text text-anchor="middle" x="1005.5" y="-218.6433" font-family="Helvetica,sans-Serif" font-size="10.00" fill="#000000">&lt; ConcreteBatchLinOp &gt;</text>
</a>
</g>
</g>
<!-- Node17&#45;&gt;Node23 -->
<g id="edge26" class="edge">
<title>Node17&#45;&gt;Node23</title>
<path fill="none" stroke="#ffa500" stroke-dasharray="5,2" d="M693.4531,-267.309C760.9601,-258.5116 867.0071,-244.6916 936.399,-235.6485"/>
<polygon fill="#ffa500" stroke="#ffa500" points="692.8355,-263.8598 683.3716,-268.6228 693.7401,-270.8011 692.8355,-263.8598"/>
<text text-anchor="middle" x="816.5" y="-262.6433" font-family="Helvetica,sans-Serif" font-size="10.00" fill="#000000"> &lt; ConcreteBatchLinOp &gt;</text>
</g>
<!-- Node18&#45;&gt;Node15 -->
<g id="edge16" class="edge">
<title>Node18&#45;&gt;Node15</title>
<path fill="none" stroke="#ffa500" stroke-dasharray="5,2" d="M1111.7987,-279.1817C1161.6401,-280.8408 1220.6075,-282.8036 1269.1949,-284.421"/>
<polygon fill="#ffa500" stroke="#ffa500" points="1111.7448,-275.6781 1101.6338,-278.8434 1111.5118,-282.6742 1111.7448,-275.6781"/>
<text text-anchor="start" x="1136" y="-297.6433" font-family="Helvetica,sans-Serif" font-size="10.00" fill="#000000"> &lt; BatchRichardson&lt;</text>
<text text-anchor="middle" x="1188.5" y="-286.6433" font-family="Helvetica,sans-Serif" font-size="10.00" fill="#000000"> ValueType &gt; &gt;</text>
</g>
<!-- Node22 -->
<g id="node18" class="node">
<title>Node22</title>
<g id="a_node18"><a xlink:href="classgko_1_1EnablePolymorphicAssignment.html" target="_top" xlink:title=" ">
<polygon fill="#ffffff" stroke="#000000" points="1270,-222.6433 1270,-252.6433 1462,-252.6433 1462,-222.6433 1270,-222.6433"/>
<text text-anchor="start" x="1278" y="-240.6433" font-family="Helvetica,sans-Serif" font-size="10.00" fill="#000000">gko::EnablePolymorphicAssignment</text>
<text text-anchor="middle" x="1366" y="-229.6433" font-family="Helvetica,sans-Serif" font-size="10.00" fill="#000000">&lt; ConcreteBatchLinOp &gt;</text>
</a>
</g>
</g>
<!-- Node18&#45;&gt;Node22 -->
<g id="edge27" class="edge">
<title>Node18&#45;&gt;Node22</title>
<path fill="none" stroke="#ffa500" stroke-dasharray="5,2" d="M1111.8402,-264.4341C1161.8872,-259.1587 1221.1284,-252.9141 1269.8213,-247.7815"/>
<polygon fill="#ffa500" stroke="#ffa500" points="1111.2118,-260.9809 1101.6338,-265.51 1111.9457,-267.9423 1111.2118,-260.9809"/>
<text text-anchor="middle" x="1188.5" y="-264.6433" font-family="Helvetica,sans-Serif" font-size="10.00" fill="#000000"> &lt; ConcreteBatchLinOp &gt;</text>
</g>
<!-- Node19 -->
<g id="node15" class="node">
<title>Node19</title>
<g id="a_node15"><a xlink:href="classgko_1_1EnableBatchLinOp.html" target="_top" xlink:title="The EnableBatchLinOp mixin can be used to provide sensible default implementations of the majority of...">
<polygon fill="#ffffff" stroke="#000000" points="1520,-169.1433 1520,-210.1433 1650,-210.1433 1650,-169.1433 1520,-169.1433"/>
<text text-anchor="start" x="1528" y="-198.1433" font-family="Helvetica,sans-Serif" font-size="10.00" fill="#000000">gko::EnableBatchLinOp</text>
<text text-anchor="start" x="1528" y="-187.1433" font-family="Helvetica,sans-Serif" font-size="10.00" fill="#000000">&lt; ConcreteBatchLinOp,</text>
<text text-anchor="middle" x="1585" y="-176.1433" font-family="Helvetica,sans-Serif" font-size="10.00" fill="#000000"> PolymorphicBase &gt;</text>
</a>
</g>
</g>
<!-- Node19&#45;&gt;Node2 -->
<g id="edge18" class="edge">
<title>Node19&#45;&gt;Node2</title>
<path fill="none" stroke="#ffa500" stroke-dasharray="5,2" d="M1660.5058,-184.0243C1705.3551,-180.6867 1762.6838,-176.4204 1810.8179,-172.8383"/>
<polygon fill="#ffa500" stroke="#ffa500" points="1659.9753,-180.554 1650.2627,-184.7866 1660.4949,-187.5347 1659.9753,-180.554"/>
<text text-anchor="start" x="1688" y="-195.6433" font-family="Helvetica,sans-Serif" font-size="10.00" fill="#000000"> &lt; BatchRichardson&lt;</text>
<text text-anchor="middle" x="1740.5" y="-184.6433" font-family="Helvetica,sans-Serif" font-size="10.00" fill="#000000"> ValueType &gt; &gt;</text>
</g>
<!-- Node20&#45;&gt;Node19 -->
<g id="edge19" class="edge">
<title>Node20&#45;&gt;Node19</title>
<path fill="none" stroke="#191970" d="M1448.9759,-90.0491C1453.93,-92.9277 1458.6576,-96.1157 1463,-99.6433 1487.3165,-119.3978 1475.6146,-139.9741 1500,-159.6433 1505.9685,-164.4575 1512.7662,-168.5279 1519.8572,-171.9627"/>
<polygon fill="#191970" stroke="#191970" points="1450.3207,-86.8001 1439.8481,-85.1951 1447.034,-92.9806 1450.3207,-86.8001"/>
</g>
<!-- Node21&#45;&gt;Node20 -->
<g id="edge20" class="edge">
<title>Node21&#45;&gt;Node20</title>
<path fill="none" stroke="#191970" d="M727.6266,-29.1059C868.9418,-36.9728 1128.1944,-51.405 1268.9229,-59.2392"/>
<polygon fill="#191970" stroke="#191970" points="727.4218,-25.5892 717.2427,-28.5279 727.0327,-32.5784 727.4218,-25.5892"/>
</g>
<!-- Node22&#45;&gt;Node19 -->
<g id="edge24" class="edge">
<title>Node22&#45;&gt;Node19</title>
<path fill="none" stroke="#191970" d="M1444.7389,-220.3855C1469.3931,-214.9818 1496.3114,-209.0819 1519.9146,-203.9086"/>
<polygon fill="#191970" stroke="#191970" points="1443.7109,-217.0277 1434.6921,-222.5875 1445.2096,-223.8654 1443.7109,-217.0277"/>
</g>
<!-- Node23&#45;&gt;Node22 -->
<g id="edge25" class="edge">
<title>Node23&#45;&gt;Node22</title>
<path fill="none" stroke="#191970" d="M1084.8893,-229.0658C1139.4182,-230.7296 1212.1081,-232.9476 1269.9096,-234.7113"/>
<polygon fill="#191970" stroke="#191970" points="1084.6836,-225.558 1074.5815,-228.7512 1084.47,-232.5547 1084.6836,-225.558"/>
</g>
<!-- Node24 -->
<g id="node20" class="node">
<title>Node24</title>
<g id="a_node20"><a xlink:href="classgko_1_1BatchTransposable.html" target="_top" xlink:title="Batch Linear operators which support transposition of the distinct batch entries should implement the...">
<polygon fill="#ffffff" stroke="#000000" points="1841.5,-110.1433 1841.5,-129.1433 1973.5,-129.1433 1973.5,-110.1433 1841.5,-110.1433"/>
<text text-anchor="middle" x="1907.5" y="-117.1433" font-family="Helvetica,sans-Serif" font-size="10.00" fill="#000000">gko::BatchTransposable</text>
</a>
</g>
</g>
<!-- Node24&#45;&gt;Node1 -->
<g id="edge28" class="edge">
<title>Node24&#45;&gt;Node1</title>
<path fill="none" stroke="#191970" d="M1983.7351,-119.6433C2002.3054,-119.6433 2022.2084,-119.6433 2040.9082,-119.6433"/>
<polygon fill="#191970" stroke="#191970" points="1983.5715,-116.1434 1973.5715,-119.6433 1983.5715,-123.1434 1983.5715,-116.1434"/>
</g>
<!-- Node25 -->
<g id="node21" class="node">
<title>Node25</title>
<g id="a_node21"><a xlink:href="classgko_1_1EnableBatchScaledSolver.html" target="_top" xlink:title="Provides basic functionality for solvers which need to be composed with batch scaling.">
<polygon fill="#ffffff" stroke="#000000" points="1825.5,-57.6433 1825.5,-87.6433 1989.5,-87.6433 1989.5,-57.6433 1825.5,-57.6433"/>
<text text-anchor="start" x="1833.5" y="-75.6433" font-family="Helvetica,sans-Serif" font-size="10.00" fill="#000000">gko::EnableBatchScaledSolver</text>
<text text-anchor="middle" x="1907.5" y="-64.6433" font-family="Helvetica,sans-Serif" font-size="10.00" fill="#000000">&lt; ValueType &gt;</text>
</a>
</g>
</g>
<!-- Node25&#45;&gt;Node1 -->
<g id="edge29" class="edge">
<title>Node25&#45;&gt;Node1</title>
<path fill="none" stroke="#191970" d="M1985.249,-89.8396C2007.1573,-94.6852 2030.8115,-99.9169 2052.0949,-104.6243"/>
<polygon fill="#191970" stroke="#191970" points="1985.8405,-86.3859 1975.3206,-87.6437 1984.3287,-93.2207 1985.8405,-86.3859"/>
</g>
<!-- Node26 -->
<g id="node22" class="node">
<title>Node26</title>
<g id="a_node22"><a xlink:href="classgko_1_1EnableBatchScaling.html" target="_top" xlink:title="Default batch scalable interface with some type&#45;checking.">
<polygon fill="#ffffff" stroke="#000000" points="1516.5,-37.6433 1516.5,-67.6433 1653.5,-67.6433 1653.5,-37.6433 1516.5,-37.6433"/>
<text text-anchor="start" x="1524.5" y="-55.6433" font-family="Helvetica,sans-Serif" font-size="10.00" fill="#000000">gko::EnableBatchScaling</text>
<text text-anchor="middle" x="1585" y="-44.6433" font-family="Helvetica,sans-Serif" font-size="10.00" fill="#000000">&lt; ValueType &gt;</text>
</a>
</g>
</g>
<!-- Node26&#45;&gt;Node25 -->
<g id="edge30" class="edge">
<title>Node26&#45;&gt;Node25</title>
<path fill="none" stroke="#191970" d="M1664.0239,-57.544C1713.0175,-60.5824 1775.8386,-64.4783 1825.3966,-67.5517"/>
<polygon fill="#191970" stroke="#191970" points="1663.9863,-54.0351 1653.7888,-56.9093 1663.5529,-61.0217 1663.9863,-54.0351"/>
</g>
<!-- Node27 -->
<g id="node23" class="node">
<title>Node27</title>
<g id="a_node23"><a xlink:href="classgko_1_1BatchScalable.html" target="_top" xlink:title="A batch made up of entities that can scaled from the left and right by scaling vectors.">
<polygon fill="#ffffff" stroke="#000000" points="1311,-6.1433 1311,-25.1433 1421,-25.1433 1421,-6.1433 1311,-6.1433"/>
<text text-anchor="middle" x="1366" y="-13.1433" font-family="Helvetica,sans-Serif" font-size="10.00" fill="#000000">gko::BatchScalable</text>
</a>
</g>
</g>
<!-- Node27&#45;&gt;Node26 -->
<g id="edge31" class="edge">
<title>Node27&#45;&gt;Node26</title>
<path fill="none" stroke="#191970" d="M1431.3236,-26.6797C1458.1617,-31.214 1489.2536,-36.467 1516.4204,-41.0568"/>
<polygon fill="#191970" stroke="#191970" points="1431.7063,-23.1949 1421.2629,-24.98 1430.5401,-30.0971 1431.7063,-23.1949"/>
</g>
</g>
</svg>
