<?xml version="1.0" encoding="UTF-8" standalone="no"?>
<!DOCTYPE svg PUBLIC "-//W3C//DTD SVG 1.1//EN"
 "http://www.w3.org/Graphics/SVG/1.1/DTD/svg11.dtd">
<!-- Generated by graphviz version 2.40.1 (20161225.0304)
 -->
<!-- Title: gko::solver::BatchCg&lt; ValueType &gt; Pages: 1 -->
<svg width="2659pt" height="422pt"
 viewBox="0.00 0.00 2659.00 421.50" xmlns="http://www.w3.org/2000/svg" xmlns:xlink="http://www.w3.org/1999/xlink">
<g id="graph0" class="graph" transform="scale(1 1) rotate(0) translate(4 417.5)">
<title>gko::solver::BatchCg&lt; ValueType &gt;</title>
<polygon fill="#ffffff" stroke="transparent" points="-4,4 -4,-417.5 2655,-417.5 2655,4 -4,4"/>
<!-- Node1 -->
<g id="node1" class="node">
<title>Node1</title>
<g id="a_node1"><a xlink:title="CG or the conjugate gradient method is an iterative type Krylov subspace method which is suitable for...">
<polygon fill="#bfbfbf" stroke="#000000" points="2534,-187.5 2534,-217.5 2651,-217.5 2651,-187.5 2534,-187.5"/>
<text text-anchor="start" x="2542" y="-205.5" font-family="Helvetica,sans-Serif" font-size="10.00" fill="#000000">gko::solver::BatchCg</text>
<text text-anchor="middle" x="2592.5" y="-194.5" font-family="Helvetica,sans-Serif" font-size="10.00" fill="#000000">&lt; ValueType &gt;</text>
</a>
</g>
</g>
<!-- Node2 -->
<g id="node2" class="node">
<title>Node2</title>
<g id="a_node2"><a xlink:href="classgko_1_1solver_1_1EnableBatchSolver.html" target="_top" xlink:title=" ">
<polygon fill="#ffffff" stroke="#000000" points="2315,-219.5 2315,-249.5 2497,-249.5 2497,-219.5 2315,-219.5"/>
<text text-anchor="start" x="2323" y="-237.5" font-family="Helvetica,sans-Serif" font-size="10.00" fill="#000000">gko::solver::EnableBatch</text>
<text text-anchor="middle" x="2406" y="-226.5" font-family="Helvetica,sans-Serif" font-size="10.00" fill="#000000">Solver&lt; BatchCg&lt; ValueType &gt; &gt;</text>
</a>
</g>
</g>
<!-- Node2&#45;&gt;Node1 -->
<g id="edge1" class="edge">
<title>Node2&#45;&gt;Node1</title>
<path fill="none" stroke="#191970" d="M2503.4989,-217.771C2513.9061,-215.9853 2524.2426,-214.2117 2533.9885,-212.5395"/>
<polygon fill="#191970" stroke="#191970" points="2502.7802,-214.343 2493.5162,-219.4838 2503.964,-221.2422 2502.7802,-214.343"/>
</g>
<!-- Node3 -->
<g id="node3" class="node">
<title>Node3</title>
<g id="a_node3"><a xlink:href="classgko_1_1EnableBatchLinOp.html" target="_top" xlink:title=" ">
<polygon fill="#ffffff" stroke="#000000" points="1817,-278 1817,-319 1946,-319 1946,-278 1817,-278"/>
<text text-anchor="start" x="1825" y="-307" font-family="Helvetica,sans-Serif" font-size="10.00" fill="#000000">gko::EnableBatchLinOp</text>
<text text-anchor="start" x="1825" y="-296" font-family="Helvetica,sans-Serif" font-size="10.00" fill="#000000">&lt; BatchCg&lt; ValueType</text>
<text text-anchor="middle" x="1881.5" y="-285" font-family="Helvetica,sans-Serif" font-size="10.00" fill="#000000"> &gt;, BatchLinOp &gt;</text>
</a>
</g>
</g>
<!-- Node3&#45;&gt;Node2 -->
<g id="edge2" class="edge">
<title>Node3&#45;&gt;Node2</title>
<path fill="none" stroke="#191970" d="M1956.4433,-290.1041C2039.6853,-280.6755 2178.0364,-264.6988 2297,-249.5 2302.7791,-248.7617 2308.7284,-247.9863 2314.7252,-247.1933"/>
<polygon fill="#191970" stroke="#191970" points="1955.8637,-286.6473 1946.3205,-291.2492 1956.6506,-293.6029 1955.8637,-286.6473"/>
</g>
<!-- Node4 -->
<g id="node4" class="node">
<title>Node4</title>
<g id="a_node4"><a xlink:href="classgko_1_1EnablePolymorphicObject.html" target="_top" xlink:title=" ">
<polygon fill="#ffffff" stroke="#000000" points="1225,-345.5 1225,-375.5 1438,-375.5 1438,-345.5 1225,-345.5"/>
<text text-anchor="start" x="1233" y="-363.5" font-family="Helvetica,sans-Serif" font-size="10.00" fill="#000000">gko::EnablePolymorphicObject</text>
<text text-anchor="middle" x="1331.5" y="-352.5" font-family="Helvetica,sans-Serif" font-size="10.00" fill="#000000">&lt; BatchCg&lt; ValueType &gt;, BatchLinOp &gt;</text>
</a>
</g>
</g>
<!-- Node4&#45;&gt;Node3 -->
<g id="edge3" class="edge">
<title>Node4&#45;&gt;Node3</title>
<path fill="none" stroke="#191970" d="M1448.4245,-350.8096C1538.8547,-342.8153 1667.0942,-330.3909 1779,-315.5 1791.2482,-313.8702 1804.2805,-311.8954 1816.8004,-309.8769"/>
<polygon fill="#191970" stroke="#191970" points="1448.0716,-347.327 1438.4168,-351.6898 1448.6851,-354.3001 1448.0716,-347.327"/>
</g>
<!-- Node5 -->
<g id="node5" class="node">
<title>Node5</title>
<g id="a_node5"><a xlink:href="classgko_1_1EnableAbstractPolymorphicObject.html" target="_top" xlink:title=" ">
<polygon fill="#ffffff" stroke="#000000" points="404,-372 404,-413 579,-413 579,-372 404,-372"/>
<text text-anchor="start" x="412" y="-401" font-family="Helvetica,sans-Serif" font-size="10.00" fill="#000000">gko::EnableAbstractPolymorphic</text>
<text text-anchor="start" x="412" y="-390" font-family="Helvetica,sans-Serif" font-size="10.00" fill="#000000">Object&lt; BatchCg&lt; ValueType</text>
<text text-anchor="middle" x="491.5" y="-379" font-family="Helvetica,sans-Serif" font-size="10.00" fill="#000000"> &gt;, BatchLinOp &gt;</text>
</a>
</g>
</g>
<!-- Node5&#45;&gt;Node4 -->
<g id="edge4" class="edge">
<title>Node5&#45;&gt;Node4</title>
<path fill="none" stroke="#191970" d="M589.3018,-392.7245C727.2023,-392.4301 986.5876,-389.6364 1207,-374.5 1212.8589,-374.0976 1218.8669,-373.6244 1224.9272,-373.0998"/>
<polygon fill="#191970" stroke="#191970" points="589.1736,-389.2246 579.1797,-392.7421 589.1858,-396.2246 589.1736,-389.2246"/>
</g>
<!-- Node6 -->
<g id="node6" class="node">
<title>Node6</title>
<g id="a_node6"><a xlink:href="classgko_1_1BatchLinOp.html" target="_top" xlink:title=" ">
<polygon fill="#ffffff" stroke="#ff0000" points="51,-383 51,-402 147,-402 147,-383 51,-383"/>
<text text-anchor="middle" x="99" y="-390" font-family="Helvetica,sans-Serif" font-size="10.00" fill="#000000">gko::BatchLinOp</text>
</a>
</g>
</g>
<!-- Node6&#45;&gt;Node5 -->
<g id="edge5" class="edge">
<title>Node6&#45;&gt;Node5</title>
<path fill="none" stroke="#191970" d="M157.2173,-392.5C222.347,-392.5 328.5616,-392.5 403.7666,-392.5"/>
<polygon fill="#191970" stroke="#191970" points="157.1282,-389.0001 147.1282,-392.5 157.1282,-396.0001 157.1282,-389.0001"/>
</g>
<!-- Node13 -->
<g id="node7" class="node">
<title>Node13</title>
<g id="a_node7"><a xlink:href="classgko_1_1EnableAbstractPolymorphicObject.html" target="_top" xlink:title="This mixin inherits from (a subclass of) PolymorphicObject and provides a base implementation of a ne...">
<polygon fill="#ffffff" stroke="#ff0000" points="0,-265 0,-306 198,-306 198,-265 0,-265"/>
<text text-anchor="start" x="8" y="-294" font-family="Helvetica,sans-Serif" font-size="10.00" fill="#000000">gko::EnableAbstractPolymorphic</text>
<text text-anchor="start" x="8" y="-283" font-family="Helvetica,sans-Serif" font-size="10.00" fill="#000000">Object&lt; AbstractObject, Polymorphic</text>
<text text-anchor="middle" x="99" y="-272" font-family="Helvetica,sans-Serif" font-size="10.00" fill="#000000">Base &gt;</text>
</a>
</g>
</g>
<!-- Node13&#45;&gt;Node5 -->
<g id="edge6" class="edge">
<title>Node13&#45;&gt;Node5</title>
<path fill="none" stroke="#ffa500" stroke-dasharray="5,2" d="M158.5204,-309.6557C176.7867,-316.5872 197.0648,-323.8029 216,-329.5 234.0888,-334.9425 330.1118,-356.6352 403.7584,-373.0577"/>
<polygon fill="#ffa500" stroke="#ffa500" points="159.7596,-306.3824 149.1695,-306.0664 157.2511,-312.9175 159.7596,-306.3824"/>
<text text-anchor="start" x="236.5" y="-379.5" font-family="Helvetica,sans-Serif" font-size="10.00" fill="#000000"> &lt; BatchCg&lt; ValueType</text>
<text text-anchor="middle" x="294.5" y="-368.5" font-family="Helvetica,sans-Serif" font-size="10.00" fill="#000000"> &gt;, BatchLinOp &gt;</text>
</g>
<!-- Node15 -->
<g id="node9" class="node">
<title>Node15</title>
<g id="a_node9"><a xlink:href="classgko_1_1EnableAbstractPolymorphicObject.html" target="_top" xlink:title=" ">
<polygon fill="#ffffff" stroke="#ff0000" points="391,-292 391,-333 592,-333 592,-292 391,-292"/>
<text text-anchor="start" x="399" y="-321" font-family="Helvetica,sans-Serif" font-size="10.00" fill="#000000">gko::EnableAbstractPolymorphic</text>
<text text-anchor="start" x="399" y="-310" font-family="Helvetica,sans-Serif" font-size="10.00" fill="#000000">Object&lt; ConcreteObject, Polymorphic</text>
<text text-anchor="middle" x="491.5" y="-299" font-family="Helvetica,sans-Serif" font-size="10.00" fill="#000000">Base &gt;</text>
</a>
</g>
</g>
<!-- Node13&#45;&gt;Node15 -->
<g id="edge9" class="edge">
<title>Node13&#45;&gt;Node15</title>
<path fill="none" stroke="#ffa500" stroke-dasharray="5,2" d="M208.2032,-293.0121C265.3756,-296.9449 334.9091,-301.7281 390.78,-305.5715"/>
<polygon fill="#ffa500" stroke="#ffa500" points="208.261,-289.5079 198.0443,-292.3132 207.7805,-296.4914 208.261,-289.5079"/>
<text text-anchor="start" x="216" y="-317.5" font-family="Helvetica,sans-Serif" font-size="10.00" fill="#000000"> &lt; ConcreteObject, Polymorphic</text>
<text text-anchor="middle" x="294.5" y="-306.5" font-family="Helvetica,sans-Serif" font-size="10.00" fill="#000000">Base &gt;</text>
</g>
<!-- Node22 -->
<g id="node16" class="node">
<title>Node22</title>
<g id="a_node16"><a xlink:href="classgko_1_1EnableAbstractPolymorphicObject.html" target="_top" xlink:title=" ">
<polygon fill="#ffffff" stroke="#ff0000" points="622.5,-238 622.5,-279 797.5,-279 797.5,-238 622.5,-238"/>
<text text-anchor="start" x="630.5" y="-267" font-family="Helvetica,sans-Serif" font-size="10.00" fill="#000000">gko::EnableAbstractPolymorphic</text>
<text text-anchor="start" x="630.5" y="-256" font-family="Helvetica,sans-Serif" font-size="10.00" fill="#000000">Object&lt; ConcreteBatchLinOp,</text>
<text text-anchor="middle" x="710" y="-245" font-family="Helvetica,sans-Serif" font-size="10.00" fill="#000000"> PolymorphicBase &gt;</text>
</a>
</g>
</g>
<!-- Node13&#45;&gt;Node22 -->
<g id="edge18" class="edge">
<title>Node13&#45;&gt;Node22</title>
<path fill="none" stroke="#ffa500" stroke-dasharray="5,2" d="M208.2628,-268.2176C210.8648,-267.9587 213.4468,-267.7187 216,-267.5 357.8724,-255.3498 523.4668,-255.1727 622.3655,-256.5498"/>
<polygon fill="#ffa500" stroke="#ffa500" points="207.7155,-264.7561 198.1463,-269.3037 208.4628,-271.7161 207.7155,-264.7561"/>
<text text-anchor="start" x="236" y="-281.5" font-family="Helvetica,sans-Serif" font-size="10.00" fill="#000000"> &lt; ConcreteBatchLinOp,</text>
<text text-anchor="middle" x="294.5" y="-270.5" font-family="Helvetica,sans-Serif" font-size="10.00" fill="#000000"> PolymorphicBase &gt;</text>
</g>
<!-- Node30 -->
<g id="node24" class="node">
<title>Node30</title>
<g id="a_node24"><a xlink:href="classgko_1_1EnableAbstractPolymorphicObject.html" target="_top" xlink:title=" ">
<polygon fill="#ffffff" stroke="#ff0000" points="610,-188 610,-229 810,-229 810,-188 610,-188"/>
<text text-anchor="start" x="618" y="-217" font-family="Helvetica,sans-Serif" font-size="10.00" fill="#000000">gko::EnableAbstractPolymorphic</text>
<text text-anchor="start" x="618" y="-206" font-family="Helvetica,sans-Serif" font-size="10.00" fill="#000000">Object&lt; ConcreteSolver, Polymorphic</text>
<text text-anchor="middle" x="710" y="-195" font-family="Helvetica,sans-Serif" font-size="10.00" fill="#000000">Base &gt;</text>
</a>
</g>
</g>
<!-- Node13&#45;&gt;Node30 -->
<g id="edge30" class="edge">
<title>Node13&#45;&gt;Node30</title>
<path fill="none" stroke="#ffa500" stroke-dasharray="5,2" d="M143.9453,-260.3299C165.1353,-249.7375 191.17,-238.4959 216,-232.5 349.3369,-200.3021 508.6293,-198.943 609.5614,-202.4724"/>
<polygon fill="#ffa500" stroke="#ffa500" points="142.1839,-257.2995 134.876,-264.9706 145.3726,-263.5311 142.1839,-257.2995"/>
<text text-anchor="start" x="216.5" y="-246.5" font-family="Helvetica,sans-Serif" font-size="10.00" fill="#000000"> &lt; ConcreteSolver, Polymorphic</text>
<text text-anchor="middle" x="294.5" y="-235.5" font-family="Helvetica,sans-Serif" font-size="10.00" fill="#000000">Base &gt;</text>
</g>
<!-- Node14 -->
<g id="node8" class="node">
<title>Node14</title>
<g id="a_node8"><a xlink:href="classgko_1_1EnablePolymorphicObject.html" target="_top" xlink:title="This mixin inherits from (a subclass of) PolymorphicObject and provides a base implementation of a ne...">
<polygon fill="#ffffff" stroke="#000000" points="828,-299.5 828,-329.5 1033,-329.5 1033,-299.5 828,-299.5"/>
<text text-anchor="start" x="836" y="-317.5" font-family="Helvetica,sans-Serif" font-size="10.00" fill="#000000">gko::EnablePolymorphicObject</text>
<text text-anchor="middle" x="930.5" y="-306.5" font-family="Helvetica,sans-Serif" font-size="10.00" fill="#000000">&lt; ConcreteObject, PolymorphicBase &gt;</text>
</a>
</g>
</g>
<!-- Node14&#45;&gt;Node4 -->
<g id="edge7" class="edge">
<title>Node14&#45;&gt;Node4</title>
<path fill="none" stroke="#ffa500" stroke-dasharray="5,2" d="M1038.4078,-330.8816C1042.6581,-331.4435 1046.8676,-331.9854 1051,-332.5 1108.3065,-339.6361 1172.3796,-346.1425 1224.8057,-351.0837"/>
<polygon fill="#ffa500" stroke="#ffa500" points="1038.8115,-327.4044 1028.4336,-329.5373 1037.8765,-334.3417 1038.8115,-327.4044"/>
<text text-anchor="start" x="1071" y="-362.5" font-family="Helvetica,sans-Serif" font-size="10.00" fill="#000000"> &lt; BatchCg&lt; ValueType</text>
<text text-anchor="middle" x="1129" y="-351.5" font-family="Helvetica,sans-Serif" font-size="10.00" fill="#000000"> &gt;, BatchLinOp &gt;</text>
</g>
<!-- Node21 -->
<g id="node15" class="node">
<title>Node21</title>
<g id="a_node15"><a xlink:href="classgko_1_1EnablePolymorphicObject.html" target="_top" xlink:title=" ">
<polygon fill="#ffffff" stroke="#000000" points="1234.5,-254 1234.5,-295 1428.5,-295 1428.5,-254 1234.5,-254"/>
<text text-anchor="start" x="1242.5" y="-283" font-family="Helvetica,sans-Serif" font-size="10.00" fill="#000000">gko::EnablePolymorphicObject</text>
<text text-anchor="start" x="1242.5" y="-272" font-family="Helvetica,sans-Serif" font-size="10.00" fill="#000000">&lt; ConcreteBatchLinOp, Polymorphic</text>
<text text-anchor="middle" x="1331.5" y="-261" font-family="Helvetica,sans-Serif" font-size="10.00" fill="#000000">Base &gt;</text>
</a>
</g>
</g>
<!-- Node14&#45;&gt;Node21 -->
<g id="edge19" class="edge">
<title>Node14&#45;&gt;Node21</title>
<path fill="none" stroke="#ffa500" stroke-dasharray="5,2" d="M1043.3298,-307.8688C1093.5259,-304.4196 1153.3019,-299.6277 1207,-293.5 1215.9068,-292.4836 1225.154,-291.3054 1234.4042,-290.0434"/>
<polygon fill="#ffa500" stroke="#ffa500" points="1042.837,-304.3941 1033.0967,-308.5626 1043.3106,-311.378 1042.837,-304.3941"/>
<text text-anchor="start" x="1070.5" y="-320.5" font-family="Helvetica,sans-Serif" font-size="10.00" fill="#000000"> &lt; ConcreteBatchLinOp,</text>
<text text-anchor="middle" x="1129" y="-309.5" font-family="Helvetica,sans-Serif" font-size="10.00" fill="#000000"> PolymorphicBase &gt;</text>
</g>
<!-- Node29 -->
<g id="node23" class="node">
<title>Node29</title>
<g id="a_node23"><a xlink:href="classgko_1_1EnablePolymorphicObject.html" target="_top" xlink:title=" ">
<polygon fill="#ffffff" stroke="#000000" points="1229.5,-204.5 1229.5,-234.5 1433.5,-234.5 1433.5,-204.5 1229.5,-204.5"/>
<text text-anchor="start" x="1237.5" y="-222.5" font-family="Helvetica,sans-Serif" font-size="10.00" fill="#000000">gko::EnablePolymorphicObject</text>
<text text-anchor="middle" x="1331.5" y="-211.5" font-family="Helvetica,sans-Serif" font-size="10.00" fill="#000000">&lt; ConcreteSolver, PolymorphicBase &gt;</text>
</a>
</g>
</g>
<!-- Node14&#45;&gt;Node29 -->
<g id="edge31" class="edge">
<title>Node14&#45;&gt;Node29</title>
<path fill="none" stroke="#ffa500" stroke-dasharray="5,2" d="M973.0064,-295.487C995.7634,-285.9333 1024.4941,-274.8553 1051,-267.5 1109.1993,-251.3498 1175.7799,-239.6782 1229.4651,-231.8908"/>
<polygon fill="#ffa500" stroke="#ffa500" points="971.4732,-292.3357 963.643,-299.4729 974.2149,-298.7765 971.4732,-292.3357"/>
<text text-anchor="start" x="1051" y="-281.5" font-family="Helvetica,sans-Serif" font-size="10.00" fill="#000000"> &lt; ConcreteSolver, Polymorphic</text>
<text text-anchor="middle" x="1129" y="-270.5" font-family="Helvetica,sans-Serif" font-size="10.00" fill="#000000">Base &gt;</text>
</g>
<!-- Node15&#45;&gt;Node14 -->
<g id="edge8" class="edge">
<title>Node15&#45;&gt;Node14</title>
<path fill="none" stroke="#191970" d="M602.2972,-313.0048C671.6132,-313.3206 760.2757,-313.7245 827.9702,-314.0329"/>
<polygon fill="#191970" stroke="#191970" points="602.2313,-309.5045 592.2155,-312.9588 602.1994,-316.5045 602.2313,-309.5045"/>
</g>
<!-- Node16 -->
<g id="node10" class="node">
<title>Node16</title>
<g id="a_node10"><a xlink:href="classgko_1_1EnablePolymorphicAssignment.html" target="_top" xlink:title=" ">
<polygon fill="#ffffff" stroke="#000000" points="1235.5,-147.5 1235.5,-177.5 1427.5,-177.5 1427.5,-147.5 1235.5,-147.5"/>
<text text-anchor="start" x="1243.5" y="-165.5" font-family="Helvetica,sans-Serif" font-size="10.00" fill="#000000">gko::EnablePolymorphicAssignment</text>
<text text-anchor="middle" x="1331.5" y="-154.5" font-family="Helvetica,sans-Serif" font-size="10.00" fill="#000000">&lt; BatchCg&lt; ValueType &gt; &gt;</text>
</a>
</g>
</g>
<!-- Node16&#45;&gt;Node3 -->
<g id="edge10" class="edge">
<title>Node16&#45;&gt;Node3</title>
<path fill="none" stroke="#191970" d="M1437.6972,-155.182C1488.7423,-153.9112 1550.5258,-155.6798 1605,-166.5 1686.5978,-182.7077 1715.5837,-181.6552 1779,-235.5 1790.853,-245.564 1785.1208,-255.4669 1797,-265.5 1802.8957,-270.4794 1809.6301,-274.7617 1816.6664,-278.4312"/>
<polygon fill="#191970" stroke="#191970" points="1437.5306,-151.6852 1427.6367,-155.4749 1437.7343,-158.6823 1437.5306,-151.6852"/>
</g>
<!-- Node17 -->
<g id="node11" class="node">
<title>Node17</title>
<g id="a_node11"><a xlink:href="classgko_1_1ConvertibleTo.html" target="_top" xlink:title=" ">
<polygon fill="#ffffff" stroke="#000000" points="854.5,-147.5 854.5,-177.5 1006.5,-177.5 1006.5,-147.5 854.5,-147.5"/>
<text text-anchor="start" x="862.5" y="-165.5" font-family="Helvetica,sans-Serif" font-size="10.00" fill="#000000">gko::ConvertibleTo</text>
<text text-anchor="middle" x="930.5" y="-154.5" font-family="Helvetica,sans-Serif" font-size="10.00" fill="#000000">&lt; BatchCg&lt; ValueType &gt; &gt;</text>
</a>
</g>
</g>
<!-- Node17&#45;&gt;Node16 -->
<g id="edge11" class="edge">
<title>Node17&#45;&gt;Node16</title>
<path fill="none" stroke="#191970" d="M1016.9668,-162.5C1081.1776,-162.5 1168.764,-162.5 1235.2064,-162.5"/>
<polygon fill="#191970" stroke="#191970" points="1016.8689,-159.0001 1006.8689,-162.5 1016.8689,-166.0001 1016.8689,-159.0001"/>
</g>
<!-- Node18 -->
<g id="node12" class="node">
<title>Node18</title>
<g id="a_node12"><a xlink:href="classgko_1_1ConvertibleTo.html" target="_top" xlink:title="ConvertibleTo interface is used to mark that the implementer can be converted to the object of Result...">
<polygon fill="#ffffff" stroke="#000000" points="438,-76.5 438,-106.5 545,-106.5 545,-76.5 438,-76.5"/>
<text text-anchor="start" x="446" y="-94.5" font-family="Helvetica,sans-Serif" font-size="10.00" fill="#000000">gko::ConvertibleTo</text>
<text text-anchor="middle" x="491.5" y="-83.5" font-family="Helvetica,sans-Serif" font-size="10.00" fill="#000000">&lt; ResultType &gt;</text>
</a>
</g>
</g>
<!-- Node18&#45;&gt;Node17 -->
<g id="edge12" class="edge">
<title>Node18&#45;&gt;Node17</title>
<path fill="none" stroke="#ffa500" stroke-dasharray="5,2" d="M555.2477,-105.7478C572.9338,-109.4827 592.1737,-113.3438 610,-116.5 693.1659,-131.2248 789.1113,-144.5107 854.1874,-152.9746"/>
<polygon fill="#ffa500" stroke="#ffa500" points="555.5465,-102.2329 545.0364,-103.5697 554.0862,-109.0789 555.5465,-102.2329"/>
<text text-anchor="middle" x="710" y="-150.5" font-family="Helvetica,sans-Serif" font-size="10.00" fill="#000000"> &lt; BatchCg&lt; ValueType &gt; &gt;</text>
</g>
<!-- Node19 -->
<g id="node13" class="node">
<title>Node19</title>
<g id="a_node13"><a xlink:href="classgko_1_1EnablePolymorphicAssignment.html" target="_top" xlink:title="This mixin is used to enable a default PolymorphicObject::copy_from() implementation for objects that...">
<polygon fill="#ffffff" stroke="#000000" points="834.5,-98.5 834.5,-128.5 1026.5,-128.5 1026.5,-98.5 834.5,-98.5"/>
<text text-anchor="start" x="842.5" y="-116.5" font-family="Helvetica,sans-Serif" font-size="10.00" fill="#000000">gko::EnablePolymorphicAssignment</text>
<text text-anchor="middle" x="930.5" y="-105.5" font-family="Helvetica,sans-Serif" font-size="10.00" fill="#000000">&lt; ConcreteType, ResultType &gt;</text>
</a>
</g>
</g>
<!-- Node18&#45;&gt;Node19 -->
<g id="edge14" class="edge">
<title>Node18&#45;&gt;Node19</title>
<path fill="none" stroke="#191970" d="M555.3531,-94.6999C628.6939,-98.3753 749.7864,-104.4437 834.4987,-108.689"/>
<polygon fill="#191970" stroke="#191970" points="555.4927,-91.2026 545.33,-94.1976 555.1423,-98.1939 555.4927,-91.2026"/>
</g>
<!-- Node24 -->
<g id="node18" class="node">
<title>Node24</title>
<g id="a_node18"><a xlink:href="classgko_1_1ConvertibleTo.html" target="_top" xlink:title=" ">
<polygon fill="#ffffff" stroke="#000000" points="861.5,-49.5 861.5,-79.5 999.5,-79.5 999.5,-49.5 861.5,-49.5"/>
<text text-anchor="start" x="869.5" y="-67.5" font-family="Helvetica,sans-Serif" font-size="10.00" fill="#000000">gko::ConvertibleTo</text>
<text text-anchor="middle" x="930.5" y="-56.5" font-family="Helvetica,sans-Serif" font-size="10.00" fill="#000000">&lt; ConcreteBatchLinOp &gt;</text>
</a>
</g>
</g>
<!-- Node18&#45;&gt;Node24 -->
<g id="edge22" class="edge">
<title>Node18&#45;&gt;Node24</title>
<path fill="none" stroke="#ffa500" stroke-dasharray="5,2" d="M555.3903,-87.0904C573.0771,-85.8959 592.2816,-84.6233 610,-83.5 696.6412,-78.0073 796.4903,-72.1653 861.4059,-68.4321"/>
<polygon fill="#ffa500" stroke="#ffa500" points="554.9151,-83.6145 545.1747,-87.7829 555.3886,-90.5984 554.9151,-83.6145"/>
<text text-anchor="middle" x="710" y="-86.5" font-family="Helvetica,sans-Serif" font-size="10.00" fill="#000000"> &lt; ConcreteBatchLinOp &gt;</text>
</g>
<!-- Node32 -->
<g id="node26" class="node">
<title>Node32</title>
<g id="a_node26"><a xlink:href="classgko_1_1ConvertibleTo.html" target="_top" xlink:title=" ">
<polygon fill="#ffffff" stroke="#000000" points="874,-.5 874,-30.5 987,-30.5 987,-.5 874,-.5"/>
<text text-anchor="start" x="882" y="-18.5" font-family="Helvetica,sans-Serif" font-size="10.00" fill="#000000">gko::ConvertibleTo</text>
<text text-anchor="middle" x="930.5" y="-7.5" font-family="Helvetica,sans-Serif" font-size="10.00" fill="#000000">&lt; ConcreteSolver &gt;</text>
</a>
</g>
</g>
<!-- Node18&#45;&gt;Node32 -->
<g id="edge34" class="edge">
<title>Node18&#45;&gt;Node32</title>
<path fill="none" stroke="#ffa500" stroke-dasharray="5,2" d="M547.5038,-73.5757C567.1133,-67.7958 589.3843,-61.7834 610,-57.5 701.4829,-38.4923 809.5406,-26.4431 873.9149,-20.3414"/>
<polygon fill="#ffa500" stroke="#ffa500" points="546.3901,-70.2556 537.8135,-76.4759 548.3972,-76.9617 546.3901,-70.2556"/>
<text text-anchor="middle" x="710" y="-60.5" font-family="Helvetica,sans-Serif" font-size="10.00" fill="#000000"> &lt; ConcreteSolver &gt;</text>
</g>
<!-- Node19&#45;&gt;Node16 -->
<g id="edge13" class="edge">
<title>Node19&#45;&gt;Node16</title>
<path fill="none" stroke="#ffa500" stroke-dasharray="5,2" d="M1036.6927,-126.4762C1098.317,-134.0063 1175.3334,-143.4173 1235.1925,-150.7317"/>
<polygon fill="#ffa500" stroke="#ffa500" points="1036.9002,-122.9756 1026.5495,-125.2367 1036.0511,-129.9239 1036.9002,-122.9756"/>
<text text-anchor="middle" x="1129" y="-150.5" font-family="Helvetica,sans-Serif" font-size="10.00" fill="#000000"> &lt; BatchCg&lt; ValueType &gt; &gt;</text>
</g>
<!-- Node23 -->
<g id="node17" class="node">
<title>Node23</title>
<g id="a_node17"><a xlink:href="classgko_1_1EnablePolymorphicAssignment.html" target="_top" xlink:title=" ">
<polygon fill="#ffffff" stroke="#000000" points="1235.5,-98.5 1235.5,-128.5 1427.5,-128.5 1427.5,-98.5 1235.5,-98.5"/>
<text text-anchor="start" x="1243.5" y="-116.5" font-family="Helvetica,sans-Serif" font-size="10.00" fill="#000000">gko::EnablePolymorphicAssignment</text>
<text text-anchor="middle" x="1331.5" y="-105.5" font-family="Helvetica,sans-Serif" font-size="10.00" fill="#000000">&lt; ConcreteBatchLinOp &gt;</text>
</a>
</g>
</g>
<!-- Node19&#45;&gt;Node23 -->
<g id="edge23" class="edge">
<title>Node19&#45;&gt;Node23</title>
<path fill="none" stroke="#ffa500" stroke-dasharray="5,2" d="M1036.6927,-113.5C1098.317,-113.5 1175.3334,-113.5 1235.1925,-113.5"/>
<polygon fill="#ffa500" stroke="#ffa500" points="1036.5495,-110.0001 1026.5495,-113.5 1036.5495,-117.0001 1036.5495,-110.0001"/>
<text text-anchor="middle" x="1129" y="-116.5" font-family="Helvetica,sans-Serif" font-size="10.00" fill="#000000"> &lt; ConcreteBatchLinOp &gt;</text>
</g>
<!-- Node31 -->
<g id="node25" class="node">
<title>Node31</title>
<g id="a_node25"><a xlink:href="classgko_1_1EnablePolymorphicAssignment.html" target="_top" xlink:title=" ">
<polygon fill="#ffffff" stroke="#000000" points="1235.5,-49.5 1235.5,-79.5 1427.5,-79.5 1427.5,-49.5 1235.5,-49.5"/>
<text text-anchor="start" x="1243.5" y="-67.5" font-family="Helvetica,sans-Serif" font-size="10.00" fill="#000000">gko::EnablePolymorphicAssignment</text>
<text text-anchor="middle" x="1331.5" y="-56.5" font-family="Helvetica,sans-Serif" font-size="10.00" fill="#000000">&lt; ConcreteSolver &gt;</text>
</a>
</g>
</g>
<!-- Node19&#45;&gt;Node31 -->
<g id="edge35" class="edge">
<title>Node19&#45;&gt;Node31</title>
<path fill="none" stroke="#ffa500" stroke-dasharray="5,2" d="M1036.5803,-100.2757C1041.4541,-99.6742 1046.279,-99.08 1051,-98.5 1112.3473,-90.9637 1181.2566,-82.6095 1235.4227,-76.0682"/>
<polygon fill="#ffa500" stroke="#ffa500" points="1036.0205,-96.8182 1026.5253,-101.5184 1036.8791,-103.7653 1036.0205,-96.8182"/>
<text text-anchor="middle" x="1129" y="-101.5" font-family="Helvetica,sans-Serif" font-size="10.00" fill="#000000"> &lt; ConcreteSolver &gt;</text>
</g>
<!-- Node20 -->
<g id="node14" class="node">
<title>Node20</title>
<g id="a_node14"><a xlink:href="classgko_1_1EnableBatchLinOp.html" target="_top" xlink:title="The EnableBatchLinOp mixin can be used to provide sensible default implementations of the majority of...">
<polygon fill="#ffffff" stroke="#000000" points="1475,-253 1475,-294 1605,-294 1605,-253 1475,-253"/>
<text text-anchor="start" x="1483" y="-282" font-family="Helvetica,sans-Serif" font-size="10.00" fill="#000000">gko::EnableBatchLinOp</text>
<text text-anchor="start" x="1483" y="-271" font-family="Helvetica,sans-Serif" font-size="10.00" fill="#000000">&lt; ConcreteBatchLinOp,</text>
<text text-anchor="middle" x="1540" y="-260" font-family="Helvetica,sans-Serif" font-size="10.00" fill="#000000"> PolymorphicBase &gt;</text>
</a>
</g>
</g>
<!-- Node20&#45;&gt;Node3 -->
<g id="edge15" class="edge">
<title>Node20&#45;&gt;Node3</title>
<path fill="none" stroke="#ffa500" stroke-dasharray="5,2" d="M1615.278,-279.0108C1675.6991,-283.434 1759.6237,-289.5779 1816.9945,-293.7778"/>
<polygon fill="#ffa500" stroke="#ffa500" points="1615.2662,-275.5007 1605.0374,-278.2612 1614.7551,-282.482 1615.2662,-275.5007"/>
<text text-anchor="start" x="1643" y="-303.5" font-family="Helvetica,sans-Serif" font-size="10.00" fill="#000000"> &lt; BatchCg&lt; ValueType</text>
<text text-anchor="middle" x="1701" y="-292.5" font-family="Helvetica,sans-Serif" font-size="10.00" fill="#000000"> &gt;, BatchLinOp &gt;</text>
</g>
<!-- Node28 -->
<g id="node22" class="node">
<title>Node28</title>
<g id="a_node22"><a xlink:href="classgko_1_1EnableBatchLinOp.html" target="_top" xlink:title=" ">
<polygon fill="#ffffff" stroke="#000000" points="1797,-215 1797,-256 1966,-256 1966,-215 1797,-215"/>
<text text-anchor="start" x="1805" y="-244" font-family="Helvetica,sans-Serif" font-size="10.00" fill="#000000">gko::EnableBatchLinOp</text>
<text text-anchor="start" x="1805" y="-233" font-family="Helvetica,sans-Serif" font-size="10.00" fill="#000000">&lt; ConcreteSolver, Polymorphic</text>
<text text-anchor="middle" x="1881.5" y="-222" font-family="Helvetica,sans-Serif" font-size="10.00" fill="#000000">Base &gt;</text>
</a>
</g>
</g>
<!-- Node20&#45;&gt;Node28 -->
<g id="edge36" class="edge">
<title>Node20&#45;&gt;Node28</title>
<path fill="none" stroke="#ffa500" stroke-dasharray="5,2" d="M1614.9333,-254.847C1617.6496,-254.3611 1620.3449,-253.9094 1623,-253.5 1680.6891,-244.6047 1746.3045,-240.1025 1796.9923,-237.8252"/>
<polygon fill="#ffa500" stroke="#ffa500" points="1614.2026,-251.4233 1605.0395,-256.7419 1615.5194,-258.2983 1614.2026,-251.4233"/>
<text text-anchor="start" x="1623" y="-267.5" font-family="Helvetica,sans-Serif" font-size="10.00" fill="#000000"> &lt; ConcreteSolver, Polymorphic</text>
<text text-anchor="middle" x="1701" y="-256.5" font-family="Helvetica,sans-Serif" font-size="10.00" fill="#000000">Base &gt;</text>
</g>
<!-- Node21&#45;&gt;Node20 -->
<g id="edge16" class="edge">
<title>Node21&#45;&gt;Node20</title>
<path fill="none" stroke="#191970" d="M1438.9872,-273.9845C1451.1991,-273.9259 1463.3516,-273.8676 1474.7737,-273.8128"/>
<polygon fill="#191970" stroke="#191970" points="1438.7131,-270.4857 1428.7301,-274.0337 1438.7468,-277.4856 1438.7131,-270.4857"/>
</g>
<!-- Node22&#45;&gt;Node21 -->
<g id="edge17" class="edge">
<title>Node22&#45;&gt;Node21</title>
<path fill="none" stroke="#191970" d="M807.877,-251.0568C908.2808,-244.8432 1068.879,-238.8489 1207,-251.5 1215.8649,-252.312 1225.0409,-253.4427 1234.2078,-254.771"/>
<polygon fill="#191970" stroke="#191970" points="807.508,-247.5731 797.7487,-251.6971 807.9497,-254.5592 807.508,-247.5731"/>
</g>
<!-- Node23&#45;&gt;Node20 -->
<g id="edge20" class="edge">
<title>Node23&#45;&gt;Node20</title>
<path fill="none" stroke="#191970" d="M1432.272,-133.5684C1434.2399,-134.8041 1436.1527,-136.1132 1438,-137.5 1465.2043,-157.922 1454.9576,-177.0147 1475,-204.5 1487.7995,-222.0526 1504.681,-239.8491 1518.0319,-252.9712"/>
<polygon fill="#191970" stroke="#191970" points="1433.7662,-130.3949 1423.3233,-128.6072 1430.3721,-136.517 1433.7662,-130.3949"/>
</g>
<!-- Node24&#45;&gt;Node23 -->
<g id="edge21" class="edge">
<title>Node24&#45;&gt;Node23</title>
<path fill="none" stroke="#191970" d="M991.9153,-47.1775C1050.8529,-34.1779 1140.4785,-24.1825 1207,-60.5 1219.9849,-67.5891 1212.9167,-79.9643 1225,-88.5 1230.5068,-92.3901 1236.5343,-95.682 1242.8322,-98.4668"/>
<polygon fill="#191970" stroke="#191970" points="990.9667,-43.8042 982.0049,-49.4554 992.5349,-50.6263 990.9667,-43.8042"/>
</g>
<!-- Node25 -->
<g id="node19" class="node">
<title>Node25</title>
<g id="a_node19"><a xlink:href="classgko_1_1EnableBatchScaling.html" target="_top" xlink:title="Default batch scalable interface with some type&#45;checking.">
<polygon fill="#ffffff" stroke="#000000" points="1813,-176 1813,-195 1950,-195 1950,-176 1813,-176"/>
<text text-anchor="middle" x="1881.5" y="-183" font-family="Helvetica,sans-Serif" font-size="10.00" fill="#000000">gko::EnableBatchScaling</text>
</a>
</g>
</g>
<!-- Node25&#45;&gt;Node2 -->
<g id="edge24" class="edge">
<title>Node25&#45;&gt;Node2</title>
<path fill="none" stroke="#191970" d="M1960.1536,-190.483C2011.4097,-193.927 2079.7223,-198.8878 2140,-204.5 2198.3042,-209.9285 2263.6533,-217.2807 2314.9884,-223.348"/>
<polygon fill="#191970" stroke="#191970" points="1960.3481,-186.9882 1950.1372,-189.8146 1959.882,-193.9727 1960.3481,-186.9882"/>
</g>
<!-- Node27 -->
<g id="node21" class="node">
<title>Node27</title>
<g id="a_node21"><a xlink:href="classgko_1_1solver_1_1EnableBatchSolver.html" target="_top" xlink:title=" ">
<polygon fill="#ffffff" stroke="#000000" points="2003,-214 2003,-255 2140,-255 2140,-214 2003,-214"/>
<text text-anchor="start" x="2011" y="-243" font-family="Helvetica,sans-Serif" font-size="10.00" fill="#000000">gko::solver::EnableBatch</text>
<text text-anchor="start" x="2011" y="-232" font-family="Helvetica,sans-Serif" font-size="10.00" fill="#000000">Solver&lt; ConcreteSolver,</text>
<text text-anchor="middle" x="2071.5" y="-221" font-family="Helvetica,sans-Serif" font-size="10.00" fill="#000000"> PolymorphicBase &gt;</text>
</a>
</g>
</g>
<!-- Node25&#45;&gt;Node27 -->
<g id="edge37" class="edge">
<title>Node25&#45;&gt;Node27</title>
<path fill="none" stroke="#191970" d="M1933.0798,-197.3978C1943.9689,-199.9964 1955.3767,-202.7837 1966,-205.5 1977.9621,-208.5587 1990.6511,-211.9337 2002.9268,-215.2672"/>
<polygon fill="#191970" stroke="#191970" points="1933.8005,-193.9717 1923.2629,-195.0717 1932.1865,-200.7831 1933.8005,-193.9717"/>
</g>
<!-- Node26 -->
<g id="node20" class="node">
<title>Node26</title>
<g id="a_node20"><a xlink:href="classgko_1_1BatchScalable.html" target="_top" xlink:title="A batch made up of entities that can scaled from the left and right by scaling vectors.">
<polygon fill="#ffffff" stroke="#000000" points="1485,-176 1485,-195 1595,-195 1595,-176 1485,-176"/>
<text text-anchor="middle" x="1540" y="-183" font-family="Helvetica,sans-Serif" font-size="10.00" fill="#000000">gko::BatchScalable</text>
</a>
</g>
</g>
<!-- Node26&#45;&gt;Node25 -->
<g id="edge25" class="edge">
<title>Node26&#45;&gt;Node25</title>
<path fill="none" stroke="#191970" d="M1605.2752,-185.5C1664.7387,-185.5 1752.2574,-185.5 1812.7759,-185.5"/>
<polygon fill="#191970" stroke="#191970" points="1605.2475,-182.0001 1595.2474,-185.5 1605.2474,-189.0001 1605.2475,-182.0001"/>
</g>
<!-- Node27&#45;&gt;Node2 -->
<g id="edge26" class="edge">
<title>Node27&#45;&gt;Node2</title>
<path fill="none" stroke="#ffa500" stroke-dasharray="5,2" d="M2150.6975,-234.5C2200.0004,-234.5 2263.584,-234.5 2314.9623,-234.5"/>
<polygon fill="#ffa500" stroke="#ffa500" points="2150.4031,-231.0001 2140.403,-234.5 2150.403,-238.0001 2150.4031,-231.0001"/>
<text text-anchor="middle" x="2227.5" y="-237.5" font-family="Helvetica,sans-Serif" font-size="10.00" fill="#000000"> &lt; BatchCg&lt; ValueType &gt; &gt;</text>
</g>
<!-- Node28&#45;&gt;Node27 -->
<g id="edge27" class="edge">
<title>Node28&#45;&gt;Node27</title>
<path fill="none" stroke="#191970" d="M1976.3209,-235.0009C1985.2832,-234.9538 1994.2477,-234.9066 2002.8951,-234.8611"/>
<polygon fill="#191970" stroke="#191970" points="1976.2015,-231.5014 1966.2201,-235.0541 1976.2384,-238.5013 1976.2015,-231.5014"/>
</g>
<!-- Node29&#45;&gt;Node28 -->
<g id="edge28" class="edge">
<title>Node29&#45;&gt;Node28</title>
<path fill="none" stroke="#191970" d="M1443.9389,-222.7709C1548.4816,-225.8122 1701.9199,-230.2759 1796.5646,-233.0292"/>
<polygon fill="#191970" stroke="#191970" points="1443.7594,-219.2643 1433.6618,-222.472 1443.5558,-226.2614 1443.7594,-219.2643"/>
</g>
<!-- Node30&#45;&gt;Node29 -->
<g id="edge29" class="edge">
<title>Node30&#45;&gt;Node29</title>
<path fill="none" stroke="#191970" d="M820.5081,-210.4559C936.3487,-212.5062 1116.8541,-215.701 1229.4297,-217.6934"/>
<polygon fill="#191970" stroke="#191970" points="820.2603,-206.9511 810.1999,-210.2734 820.1363,-213.95 820.2603,-206.9511"/>
</g>
<!-- Node31&#45;&gt;Node28 -->
<g id="edge32" class="edge">
<title>Node31&#45;&gt;Node28</title>
<path fill="none" stroke="#191970" d="M1408.2212,-81.7582C1418.2396,-84.021 1428.3658,-86.3126 1438,-88.5 1589.6112,-122.9226 1657.7837,-69.1476 1779,-166.5 1793.5705,-178.202 1783.1999,-191.8987 1797,-204.5 1801.2695,-208.3986 1806.07,-211.8179 1811.1588,-214.8148"/>
<polygon fill="#191970" stroke="#191970" points="1408.7861,-78.2978 1398.2609,-79.5101 1407.2448,-85.126 1408.7861,-78.2978"/>
</g>
<!-- Node32&#45;&gt;Node31 -->
<g id="edge33" class="edge">
<title>Node32&#45;&gt;Node31</title>
<path fill="none" stroke="#191970" d="M997.4283,-16.0616C1053.6675,-17.3812 1136.0025,-21.2977 1207,-32.5 1232.0204,-36.4478 1259.3274,-43.1852 1281.9752,-49.4626"/>
<polygon fill="#191970" stroke="#191970" points="997.3119,-12.5584 987.2395,-15.8442 997.1626,-19.5568 997.3119,-12.5584"/>
</g>
<!-- Node33 -->
<g id="node27" class="node">
<title>Node33</title>
<g id="a_node27"><a xlink:href="classgko_1_1BatchTransposable.html" target="_top" xlink:title="Batch Linear operators which support transposition of the distinct batch entries should implement the...">
<polygon fill="#ffffff" stroke="#000000" points="2340,-181 2340,-200 2472,-200 2472,-181 2340,-181"/>
<text text-anchor="middle" x="2406" y="-188" font-family="Helvetica,sans-Serif" font-size="10.00" fill="#000000">gko::BatchTransposable</text>
</a>
</g>
</g>
<!-- Node33&#45;&gt;Node1 -->
<g id="edge38" class="edge">
<title>Node33&#45;&gt;Node1</title>
<path fill="none" stroke="#191970" d="M2482.0487,-195.3932C2499.2804,-196.502 2517.3239,-197.6629 2533.7142,-198.7175"/>
<polygon fill="#191970" stroke="#191970" points="2482.2195,-191.8971 2472.0154,-194.7476 2481.77,-198.8826 2482.2195,-191.8971"/>
</g>
</g>
</svg>
