<?xml version="1.0" encoding="UTF-8" standalone="no"?>
<!DOCTYPE svg PUBLIC "-//W3C//DTD SVG 1.1//EN"
 "http://www.w3.org/Graphics/SVG/1.1/DTD/svg11.dtd">
<!-- Generated by graphviz version 2.40.1 (20161225.0304)
 -->
<!-- Title: gko::solver::BatchIdr&lt; ValueType &gt; Pages: 1 -->
<svg width="2650pt" height="422pt"
 viewBox="0.00 0.00 2650.00 421.50" xmlns="http://www.w3.org/2000/svg" xmlns:xlink="http://www.w3.org/1999/xlink">
<g id="graph0" class="graph" transform="scale(1 1) rotate(0) translate(4 417.5)">
<title>gko::solver::BatchIdr&lt; ValueType &gt;</title>
<polygon fill="#ffffff" stroke="transparent" points="-4,4 -4,-417.5 2646,-417.5 2646,4 -4,4"/>
<!-- Node1 -->
<g id="node1" class="node">
<title>Node1</title>
<g id="a_node1"><a xlink:title="IDR(s) is an efficient method for solving large nonsymmetric systems of linear equations.">
<polygon fill="#bfbfbf" stroke="#000000" points="2525,-187.5 2525,-217.5 2642,-217.5 2642,-187.5 2525,-187.5"/>
<text text-anchor="start" x="2533" y="-205.5" font-family="Helvetica,sans-Serif" font-size="10.00" fill="#000000">gko::solver::BatchIdr</text>
<text text-anchor="middle" x="2583.5" y="-194.5" font-family="Helvetica,sans-Serif" font-size="10.00" fill="#000000">&lt; ValueType &gt;</text>
</a>
</g>
</g>
<!-- Node2 -->
<g id="node2" class="node">
<title>Node2</title>
<g id="a_node2"><a xlink:href="classgko_1_1solver_1_1EnableBatchSolver.html" target="_top" xlink:title=" ">
<polygon fill="#ffffff" stroke="#000000" points="2306,-219.5 2306,-249.5 2488,-249.5 2488,-219.5 2306,-219.5"/>
<text text-anchor="start" x="2314" y="-237.5" font-family="Helvetica,sans-Serif" font-size="10.00" fill="#000000">gko::solver::EnableBatch</text>
<text text-anchor="middle" x="2397" y="-226.5" font-family="Helvetica,sans-Serif" font-size="10.00" fill="#000000">Solver&lt; BatchIdr&lt; ValueType &gt; &gt;</text>
</a>
</g>
</g>
<!-- Node2&#45;&gt;Node1 -->
<g id="edge1" class="edge">
<title>Node2&#45;&gt;Node1</title>
<path fill="none" stroke="#191970" d="M2494.4989,-217.771C2504.9061,-215.9853 2515.2426,-214.2117 2524.9885,-212.5395"/>
<polygon fill="#191970" stroke="#191970" points="2493.7802,-214.343 2484.5162,-219.4838 2494.964,-221.2422 2493.7802,-214.343"/>
</g>
<!-- Node3 -->
<g id="node3" class="node">
<title>Node3</title>
<g id="a_node3"><a xlink:href="classgko_1_1EnableBatchLinOp.html" target="_top" xlink:title=" ">
<polygon fill="#ffffff" stroke="#000000" points="1808,-278 1808,-319 1937,-319 1937,-278 1808,-278"/>
<text text-anchor="start" x="1816" y="-307" font-family="Helvetica,sans-Serif" font-size="10.00" fill="#000000">gko::EnableBatchLinOp</text>
<text text-anchor="start" x="1816" y="-296" font-family="Helvetica,sans-Serif" font-size="10.00" fill="#000000">&lt; BatchIdr&lt; ValueType</text>
<text text-anchor="middle" x="1872.5" y="-285" font-family="Helvetica,sans-Serif" font-size="10.00" fill="#000000"> &gt;, BatchLinOp &gt;</text>
</a>
</g>
</g>
<!-- Node3&#45;&gt;Node2 -->
<g id="edge2" class="edge">
<title>Node3&#45;&gt;Node2</title>
<path fill="none" stroke="#191970" d="M1947.4433,-290.1041C2030.6853,-280.6755 2169.0364,-264.6988 2288,-249.5 2293.7791,-248.7617 2299.7284,-247.9863 2305.7252,-247.1933"/>
<polygon fill="#191970" stroke="#191970" points="1946.8637,-286.6473 1937.3205,-291.2492 1947.6506,-293.6029 1946.8637,-286.6473"/>
</g>
<!-- Node4 -->
<g id="node4" class="node">
<title>Node4</title>
<g id="a_node4"><a xlink:href="classgko_1_1EnablePolymorphicObject.html" target="_top" xlink:title=" ">
<polygon fill="#ffffff" stroke="#000000" points="1244,-340 1244,-381 1410,-381 1410,-340 1244,-340"/>
<text text-anchor="start" x="1252" y="-369" font-family="Helvetica,sans-Serif" font-size="10.00" fill="#000000">gko::EnablePolymorphicObject</text>
<text text-anchor="start" x="1252" y="-358" font-family="Helvetica,sans-Serif" font-size="10.00" fill="#000000">&lt; BatchIdr&lt; ValueType &gt;,</text>
<text text-anchor="middle" x="1327" y="-347" font-family="Helvetica,sans-Serif" font-size="10.00" fill="#000000"> BatchLinOp &gt;</text>
</a>
</g>
</g>
<!-- Node4&#45;&gt;Node3 -->
<g id="edge3" class="edge">
<title>Node4&#45;&gt;Node3</title>
<path fill="none" stroke="#191970" d="M1420.21,-352.7544C1509.9955,-344.8867 1649.5519,-331.5896 1770,-315.5 1782.2474,-313.864 1795.2793,-311.8863 1807.799,-309.867"/>
<polygon fill="#191970" stroke="#191970" points="1419.713,-349.2843 1410.0548,-353.6397 1420.321,-356.2579 1419.713,-349.2843"/>
</g>
<!-- Node5 -->
<g id="node5" class="node">
<title>Node5</title>
<g id="a_node5"><a xlink:href="classgko_1_1EnableAbstractPolymorphicObject.html" target="_top" xlink:title=" ">
<polygon fill="#ffffff" stroke="#000000" points="404,-372 404,-413 579,-413 579,-372 404,-372"/>
<text text-anchor="start" x="412" y="-401" font-family="Helvetica,sans-Serif" font-size="10.00" fill="#000000">gko::EnableAbstractPolymorphic</text>
<text text-anchor="start" x="412" y="-390" font-family="Helvetica,sans-Serif" font-size="10.00" fill="#000000">Object&lt; BatchIdr&lt; ValueType</text>
<text text-anchor="middle" x="491.5" y="-379" font-family="Helvetica,sans-Serif" font-size="10.00" fill="#000000"> &gt;, BatchLinOp &gt;</text>
</a>
</g>
</g>
<!-- Node5&#45;&gt;Node4 -->
<g id="edge4" class="edge">
<title>Node5&#45;&gt;Node4</title>
<path fill="none" stroke="#191970" d="M589.3108,-392.8529C727.2218,-392.7104 986.6196,-390.0951 1207,-374.5 1218.9257,-373.6561 1231.4899,-372.4939 1243.8169,-371.197"/>
<polygon fill="#191970" stroke="#191970" points="589.1857,-389.3529 579.1879,-392.8591 589.19,-396.3529 589.1857,-389.3529"/>
</g>
<!-- Node6 -->
<g id="node6" class="node">
<title>Node6</title>
<g id="a_node6"><a xlink:href="classgko_1_1BatchLinOp.html" target="_top" xlink:title=" ">
<polygon fill="#ffffff" stroke="#ff0000" points="51,-383 51,-402 147,-402 147,-383 51,-383"/>
<text text-anchor="middle" x="99" y="-390" font-family="Helvetica,sans-Serif" font-size="10.00" fill="#000000">gko::BatchLinOp</text>
</a>
</g>
</g>
<!-- Node6&#45;&gt;Node5 -->
<g id="edge5" class="edge">
<title>Node6&#45;&gt;Node5</title>
<path fill="none" stroke="#191970" d="M157.2173,-392.5C222.347,-392.5 328.5616,-392.5 403.7666,-392.5"/>
<polygon fill="#191970" stroke="#191970" points="157.1282,-389.0001 147.1282,-392.5 157.1282,-396.0001 157.1282,-389.0001"/>
</g>
<!-- Node13 -->
<g id="node7" class="node">
<title>Node13</title>
<g id="a_node7"><a xlink:href="classgko_1_1EnableAbstractPolymorphicObject.html" target="_top" xlink:title="This mixin inherits from (a subclass of) PolymorphicObject and provides a base implementation of a ne...">
<polygon fill="#ffffff" stroke="#ff0000" points="0,-265 0,-306 198,-306 198,-265 0,-265"/>
<text text-anchor="start" x="8" y="-294" font-family="Helvetica,sans-Serif" font-size="10.00" fill="#000000">gko::EnableAbstractPolymorphic</text>
<text text-anchor="start" x="8" y="-283" font-family="Helvetica,sans-Serif" font-size="10.00" fill="#000000">Object&lt; AbstractObject, Polymorphic</text>
<text text-anchor="middle" x="99" y="-272" font-family="Helvetica,sans-Serif" font-size="10.00" fill="#000000">Base &gt;</text>
</a>
</g>
</g>
<!-- Node13&#45;&gt;Node5 -->
<g id="edge6" class="edge">
<title>Node13&#45;&gt;Node5</title>
<path fill="none" stroke="#ffa500" stroke-dasharray="5,2" d="M158.5204,-309.6557C176.7867,-316.5872 197.0648,-323.8029 216,-329.5 234.0888,-334.9425 330.1118,-356.6352 403.7584,-373.0577"/>
<polygon fill="#ffa500" stroke="#ffa500" points="159.7596,-306.3824 149.1695,-306.0664 157.2511,-312.9175 159.7596,-306.3824"/>
<text text-anchor="start" x="236.5" y="-379.5" font-family="Helvetica,sans-Serif" font-size="10.00" fill="#000000"> &lt; BatchIdr&lt; ValueType</text>
<text text-anchor="middle" x="294.5" y="-368.5" font-family="Helvetica,sans-Serif" font-size="10.00" fill="#000000"> &gt;, BatchLinOp &gt;</text>
</g>
<!-- Node15 -->
<g id="node9" class="node">
<title>Node15</title>
<g id="a_node9"><a xlink:href="classgko_1_1EnableAbstractPolymorphicObject.html" target="_top" xlink:title=" ">
<polygon fill="#ffffff" stroke="#ff0000" points="391,-292 391,-333 592,-333 592,-292 391,-292"/>
<text text-anchor="start" x="399" y="-321" font-family="Helvetica,sans-Serif" font-size="10.00" fill="#000000">gko::EnableAbstractPolymorphic</text>
<text text-anchor="start" x="399" y="-310" font-family="Helvetica,sans-Serif" font-size="10.00" fill="#000000">Object&lt; ConcreteObject, Polymorphic</text>
<text text-anchor="middle" x="491.5" y="-299" font-family="Helvetica,sans-Serif" font-size="10.00" fill="#000000">Base &gt;</text>
</a>
</g>
</g>
<!-- Node13&#45;&gt;Node15 -->
<g id="edge9" class="edge">
<title>Node13&#45;&gt;Node15</title>
<path fill="none" stroke="#ffa500" stroke-dasharray="5,2" d="M208.2032,-293.0121C265.3756,-296.9449 334.9091,-301.7281 390.78,-305.5715"/>
<polygon fill="#ffa500" stroke="#ffa500" points="208.261,-289.5079 198.0443,-292.3132 207.7805,-296.4914 208.261,-289.5079"/>
<text text-anchor="start" x="216" y="-317.5" font-family="Helvetica,sans-Serif" font-size="10.00" fill="#000000"> &lt; ConcreteObject, Polymorphic</text>
<text text-anchor="middle" x="294.5" y="-306.5" font-family="Helvetica,sans-Serif" font-size="10.00" fill="#000000">Base &gt;</text>
</g>
<!-- Node22 -->
<g id="node16" class="node">
<title>Node22</title>
<g id="a_node16"><a xlink:href="classgko_1_1EnableAbstractPolymorphicObject.html" target="_top" xlink:title=" ">
<polygon fill="#ffffff" stroke="#ff0000" points="622.5,-238 622.5,-279 797.5,-279 797.5,-238 622.5,-238"/>
<text text-anchor="start" x="630.5" y="-267" font-family="Helvetica,sans-Serif" font-size="10.00" fill="#000000">gko::EnableAbstractPolymorphic</text>
<text text-anchor="start" x="630.5" y="-256" font-family="Helvetica,sans-Serif" font-size="10.00" fill="#000000">Object&lt; ConcreteBatchLinOp,</text>
<text text-anchor="middle" x="710" y="-245" font-family="Helvetica,sans-Serif" font-size="10.00" fill="#000000"> PolymorphicBase &gt;</text>
</a>
</g>
</g>
<!-- Node13&#45;&gt;Node22 -->
<g id="edge18" class="edge">
<title>Node13&#45;&gt;Node22</title>
<path fill="none" stroke="#ffa500" stroke-dasharray="5,2" d="M208.2628,-268.2176C210.8648,-267.9587 213.4468,-267.7187 216,-267.5 357.8724,-255.3498 523.4668,-255.1727 622.3655,-256.5498"/>
<polygon fill="#ffa500" stroke="#ffa500" points="207.7155,-264.7561 198.1463,-269.3037 208.4628,-271.7161 207.7155,-264.7561"/>
<text text-anchor="start" x="236" y="-281.5" font-family="Helvetica,sans-Serif" font-size="10.00" fill="#000000"> &lt; ConcreteBatchLinOp,</text>
<text text-anchor="middle" x="294.5" y="-270.5" font-family="Helvetica,sans-Serif" font-size="10.00" fill="#000000"> PolymorphicBase &gt;</text>
</g>
<!-- Node30 -->
<g id="node24" class="node">
<title>Node30</title>
<g id="a_node24"><a xlink:href="classgko_1_1EnableAbstractPolymorphicObject.html" target="_top" xlink:title=" ">
<polygon fill="#ffffff" stroke="#ff0000" points="610,-188 610,-229 810,-229 810,-188 610,-188"/>
<text text-anchor="start" x="618" y="-217" font-family="Helvetica,sans-Serif" font-size="10.00" fill="#000000">gko::EnableAbstractPolymorphic</text>
<text text-anchor="start" x="618" y="-206" font-family="Helvetica,sans-Serif" font-size="10.00" fill="#000000">Object&lt; ConcreteSolver, Polymorphic</text>
<text text-anchor="middle" x="710" y="-195" font-family="Helvetica,sans-Serif" font-size="10.00" fill="#000000">Base &gt;</text>
</a>
</g>
</g>
<!-- Node13&#45;&gt;Node30 -->
<g id="edge30" class="edge">
<title>Node13&#45;&gt;Node30</title>
<path fill="none" stroke="#ffa500" stroke-dasharray="5,2" d="M143.9453,-260.3299C165.1353,-249.7375 191.17,-238.4959 216,-232.5 349.3369,-200.3021 508.6293,-198.943 609.5614,-202.4724"/>
<polygon fill="#ffa500" stroke="#ffa500" points="142.1839,-257.2995 134.876,-264.9706 145.3726,-263.5311 142.1839,-257.2995"/>
<text text-anchor="start" x="216.5" y="-246.5" font-family="Helvetica,sans-Serif" font-size="10.00" fill="#000000"> &lt; ConcreteSolver, Polymorphic</text>
<text text-anchor="middle" x="294.5" y="-235.5" font-family="Helvetica,sans-Serif" font-size="10.00" fill="#000000">Base &gt;</text>
</g>
<!-- Node14 -->
<g id="node8" class="node">
<title>Node14</title>
<g id="a_node8"><a xlink:href="classgko_1_1EnablePolymorphicObject.html" target="_top" xlink:title="This mixin inherits from (a subclass of) PolymorphicObject and provides a base implementation of a ne...">
<polygon fill="#ffffff" stroke="#000000" points="828,-299.5 828,-329.5 1033,-329.5 1033,-299.5 828,-299.5"/>
<text text-anchor="start" x="836" y="-317.5" font-family="Helvetica,sans-Serif" font-size="10.00" fill="#000000">gko::EnablePolymorphicObject</text>
<text text-anchor="middle" x="930.5" y="-306.5" font-family="Helvetica,sans-Serif" font-size="10.00" fill="#000000">&lt; ConcreteObject, PolymorphicBase &gt;</text>
</a>
</g>
</g>
<!-- Node14&#45;&gt;Node4 -->
<g id="edge7" class="edge">
<title>Node14&#45;&gt;Node4</title>
<path fill="none" stroke="#ffa500" stroke-dasharray="5,2" d="M1038.4089,-330.873C1042.6588,-331.4374 1046.868,-331.9821 1051,-332.5 1115.6342,-340.6014 1189.011,-347.958 1243.8518,-353.0954"/>
<polygon fill="#ffa500" stroke="#ffa500" points="1038.8141,-327.3961 1028.4352,-329.5241 1037.8759,-334.3329 1038.8141,-327.3961"/>
<text text-anchor="start" x="1071" y="-362.5" font-family="Helvetica,sans-Serif" font-size="10.00" fill="#000000"> &lt; BatchIdr&lt; ValueType</text>
<text text-anchor="middle" x="1129" y="-351.5" font-family="Helvetica,sans-Serif" font-size="10.00" fill="#000000"> &gt;, BatchLinOp &gt;</text>
</g>
<!-- Node21 -->
<g id="node15" class="node">
<title>Node21</title>
<g id="a_node15"><a xlink:href="classgko_1_1EnablePolymorphicObject.html" target="_top" xlink:title=" ">
<polygon fill="#ffffff" stroke="#000000" points="1230,-254 1230,-295 1424,-295 1424,-254 1230,-254"/>
<text text-anchor="start" x="1238" y="-283" font-family="Helvetica,sans-Serif" font-size="10.00" fill="#000000">gko::EnablePolymorphicObject</text>
<text text-anchor="start" x="1238" y="-272" font-family="Helvetica,sans-Serif" font-size="10.00" fill="#000000">&lt; ConcreteBatchLinOp, Polymorphic</text>
<text text-anchor="middle" x="1327" y="-261" font-family="Helvetica,sans-Serif" font-size="10.00" fill="#000000">Base &gt;</text>
</a>
</g>
</g>
<!-- Node14&#45;&gt;Node21 -->
<g id="edge19" class="edge">
<title>Node14&#45;&gt;Node21</title>
<path fill="none" stroke="#ffa500" stroke-dasharray="5,2" d="M1043.3461,-308.0107C1093.5454,-304.588 1153.3192,-299.7777 1207,-293.5 1214.4373,-292.6302 1222.1195,-291.6363 1229.8356,-290.5694"/>
<polygon fill="#ffa500" stroke="#ffa500" points="1042.8552,-304.5357 1033.1124,-308.6983 1043.3246,-311.5199 1042.8552,-304.5357"/>
<text text-anchor="start" x="1070.5" y="-320.5" font-family="Helvetica,sans-Serif" font-size="10.00" fill="#000000"> &lt; ConcreteBatchLinOp,</text>
<text text-anchor="middle" x="1129" y="-309.5" font-family="Helvetica,sans-Serif" font-size="10.00" fill="#000000"> PolymorphicBase &gt;</text>
</g>
<!-- Node29 -->
<g id="node23" class="node">
<title>Node29</title>
<g id="a_node23"><a xlink:href="classgko_1_1EnablePolymorphicObject.html" target="_top" xlink:title=" ">
<polygon fill="#ffffff" stroke="#000000" points="1225,-204.5 1225,-234.5 1429,-234.5 1429,-204.5 1225,-204.5"/>
<text text-anchor="start" x="1233" y="-222.5" font-family="Helvetica,sans-Serif" font-size="10.00" fill="#000000">gko::EnablePolymorphicObject</text>
<text text-anchor="middle" x="1327" y="-211.5" font-family="Helvetica,sans-Serif" font-size="10.00" fill="#000000">&lt; ConcreteSolver, PolymorphicBase &gt;</text>
</a>
</g>
</g>
<!-- Node14&#45;&gt;Node29 -->
<g id="edge31" class="edge">
<title>Node14&#45;&gt;Node29</title>
<path fill="none" stroke="#ffa500" stroke-dasharray="5,2" d="M973.0145,-295.5163C995.7738,-285.9708 1024.5041,-274.8912 1051,-267.5 1107.6852,-251.6872 1172.4447,-240.0991 1224.982,-232.2746"/>
<polygon fill="#ffa500" stroke="#ffa500" points="971.4831,-292.3642 963.65,-299.4982 974.2222,-298.806 971.4831,-292.3642"/>
<text text-anchor="start" x="1051" y="-281.5" font-family="Helvetica,sans-Serif" font-size="10.00" fill="#000000"> &lt; ConcreteSolver, Polymorphic</text>
<text text-anchor="middle" x="1129" y="-270.5" font-family="Helvetica,sans-Serif" font-size="10.00" fill="#000000">Base &gt;</text>
</g>
<!-- Node15&#45;&gt;Node14 -->
<g id="edge8" class="edge">
<title>Node15&#45;&gt;Node14</title>
<path fill="none" stroke="#191970" d="M602.2972,-313.0048C671.6132,-313.3206 760.2757,-313.7245 827.9702,-314.0329"/>
<polygon fill="#191970" stroke="#191970" points="602.2313,-309.5045 592.2155,-312.9588 602.1994,-316.5045 602.2313,-309.5045"/>
</g>
<!-- Node16 -->
<g id="node10" class="node">
<title>Node16</title>
<g id="a_node10"><a xlink:href="classgko_1_1EnablePolymorphicAssignment.html" target="_top" xlink:title=" ">
<polygon fill="#ffffff" stroke="#000000" points="1231,-147.5 1231,-177.5 1423,-177.5 1423,-147.5 1231,-147.5"/>
<text text-anchor="start" x="1239" y="-165.5" font-family="Helvetica,sans-Serif" font-size="10.00" fill="#000000">gko::EnablePolymorphicAssignment</text>
<text text-anchor="middle" x="1327" y="-154.5" font-family="Helvetica,sans-Serif" font-size="10.00" fill="#000000">&lt; BatchIdr&lt; ValueType &gt; &gt;</text>
</a>
</g>
</g>
<!-- Node16&#45;&gt;Node3 -->
<g id="edge10" class="edge">
<title>Node16&#45;&gt;Node3</title>
<path fill="none" stroke="#191970" d="M1433.2753,-155.2902C1483.1237,-154.1411 1543.0706,-155.9799 1596,-166.5 1677.5958,-182.7177 1706.5837,-181.6552 1770,-235.5 1781.853,-245.564 1776.1208,-255.4669 1788,-265.5 1793.8957,-270.4794 1800.6301,-274.7617 1807.6664,-278.4312"/>
<polygon fill="#191970" stroke="#191970" points="1433.0223,-151.7957 1423.122,-155.5684 1433.2141,-158.7931 1433.0223,-151.7957"/>
</g>
<!-- Node17 -->
<g id="node11" class="node">
<title>Node17</title>
<g id="a_node11"><a xlink:href="classgko_1_1ConvertibleTo.html" target="_top" xlink:title=" ">
<polygon fill="#ffffff" stroke="#000000" points="854.5,-147.5 854.5,-177.5 1006.5,-177.5 1006.5,-147.5 854.5,-147.5"/>
<text text-anchor="start" x="862.5" y="-165.5" font-family="Helvetica,sans-Serif" font-size="10.00" fill="#000000">gko::ConvertibleTo</text>
<text text-anchor="middle" x="930.5" y="-154.5" font-family="Helvetica,sans-Serif" font-size="10.00" fill="#000000">&lt; BatchIdr&lt; ValueType &gt; &gt;</text>
</a>
</g>
</g>
<!-- Node17&#45;&gt;Node16 -->
<g id="edge11" class="edge">
<title>Node17&#45;&gt;Node16</title>
<path fill="none" stroke="#191970" d="M1017.2641,-162.5C1080.3107,-162.5 1165.6459,-162.5 1230.7812,-162.5"/>
<polygon fill="#191970" stroke="#191970" points="1016.9492,-159.0001 1006.9492,-162.5 1016.9492,-166.0001 1016.9492,-159.0001"/>
</g>
<!-- Node18 -->
<g id="node12" class="node">
<title>Node18</title>
<g id="a_node12"><a xlink:href="classgko_1_1ConvertibleTo.html" target="_top" xlink:title="ConvertibleTo interface is used to mark that the implementer can be converted to the object of Result...">
<polygon fill="#ffffff" stroke="#000000" points="438,-76.5 438,-106.5 545,-106.5 545,-76.5 438,-76.5"/>
<text text-anchor="start" x="446" y="-94.5" font-family="Helvetica,sans-Serif" font-size="10.00" fill="#000000">gko::ConvertibleTo</text>
<text text-anchor="middle" x="491.5" y="-83.5" font-family="Helvetica,sans-Serif" font-size="10.00" fill="#000000">&lt; ResultType &gt;</text>
</a>
</g>
</g>
<!-- Node18&#45;&gt;Node17 -->
<g id="edge12" class="edge">
<title>Node18&#45;&gt;Node17</title>
<path fill="none" stroke="#ffa500" stroke-dasharray="5,2" d="M555.2477,-105.7478C572.9338,-109.4827 592.1737,-113.3438 610,-116.5 693.1659,-131.2248 789.1113,-144.5107 854.1874,-152.9746"/>
<polygon fill="#ffa500" stroke="#ffa500" points="555.5465,-102.2329 545.0364,-103.5697 554.0862,-109.0789 555.5465,-102.2329"/>
<text text-anchor="middle" x="710" y="-150.5" font-family="Helvetica,sans-Serif" font-size="10.00" fill="#000000"> &lt; BatchIdr&lt; ValueType &gt; &gt;</text>
</g>
<!-- Node19 -->
<g id="node13" class="node">
<title>Node19</title>
<g id="a_node13"><a xlink:href="classgko_1_1EnablePolymorphicAssignment.html" target="_top" xlink:title="This mixin is used to enable a default PolymorphicObject::copy_from() implementation for objects that...">
<polygon fill="#ffffff" stroke="#000000" points="834.5,-98.5 834.5,-128.5 1026.5,-128.5 1026.5,-98.5 834.5,-98.5"/>
<text text-anchor="start" x="842.5" y="-116.5" font-family="Helvetica,sans-Serif" font-size="10.00" fill="#000000">gko::EnablePolymorphicAssignment</text>
<text text-anchor="middle" x="930.5" y="-105.5" font-family="Helvetica,sans-Serif" font-size="10.00" fill="#000000">&lt; ConcreteType, ResultType &gt;</text>
</a>
</g>
</g>
<!-- Node18&#45;&gt;Node19 -->
<g id="edge14" class="edge">
<title>Node18&#45;&gt;Node19</title>
<path fill="none" stroke="#191970" d="M555.3531,-94.6999C628.6939,-98.3753 749.7864,-104.4437 834.4987,-108.689"/>
<polygon fill="#191970" stroke="#191970" points="555.4927,-91.2026 545.33,-94.1976 555.1423,-98.1939 555.4927,-91.2026"/>
</g>
<!-- Node24 -->
<g id="node18" class="node">
<title>Node24</title>
<g id="a_node18"><a xlink:href="classgko_1_1ConvertibleTo.html" target="_top" xlink:title=" ">
<polygon fill="#ffffff" stroke="#000000" points="861.5,-49.5 861.5,-79.5 999.5,-79.5 999.5,-49.5 861.5,-49.5"/>
<text text-anchor="start" x="869.5" y="-67.5" font-family="Helvetica,sans-Serif" font-size="10.00" fill="#000000">gko::ConvertibleTo</text>
<text text-anchor="middle" x="930.5" y="-56.5" font-family="Helvetica,sans-Serif" font-size="10.00" fill="#000000">&lt; ConcreteBatchLinOp &gt;</text>
</a>
</g>
</g>
<!-- Node18&#45;&gt;Node24 -->
<g id="edge22" class="edge">
<title>Node18&#45;&gt;Node24</title>
<path fill="none" stroke="#ffa500" stroke-dasharray="5,2" d="M555.3903,-87.0904C573.0771,-85.8959 592.2816,-84.6233 610,-83.5 696.6412,-78.0073 796.4903,-72.1653 861.4059,-68.4321"/>
<polygon fill="#ffa500" stroke="#ffa500" points="554.9151,-83.6145 545.1747,-87.7829 555.3886,-90.5984 554.9151,-83.6145"/>
<text text-anchor="middle" x="710" y="-86.5" font-family="Helvetica,sans-Serif" font-size="10.00" fill="#000000"> &lt; ConcreteBatchLinOp &gt;</text>
</g>
<!-- Node32 -->
<g id="node26" class="node">
<title>Node32</title>
<g id="a_node26"><a xlink:href="classgko_1_1ConvertibleTo.html" target="_top" xlink:title=" ">
<polygon fill="#ffffff" stroke="#000000" points="874,-.5 874,-30.5 987,-30.5 987,-.5 874,-.5"/>
<text text-anchor="start" x="882" y="-18.5" font-family="Helvetica,sans-Serif" font-size="10.00" fill="#000000">gko::ConvertibleTo</text>
<text text-anchor="middle" x="930.5" y="-7.5" font-family="Helvetica,sans-Serif" font-size="10.00" fill="#000000">&lt; ConcreteSolver &gt;</text>
</a>
</g>
</g>
<!-- Node18&#45;&gt;Node32 -->
<g id="edge34" class="edge">
<title>Node18&#45;&gt;Node32</title>
<path fill="none" stroke="#ffa500" stroke-dasharray="5,2" d="M547.5038,-73.5757C567.1133,-67.7958 589.3843,-61.7834 610,-57.5 701.4829,-38.4923 809.5406,-26.4431 873.9149,-20.3414"/>
<polygon fill="#ffa500" stroke="#ffa500" points="546.3901,-70.2556 537.8135,-76.4759 548.3972,-76.9617 546.3901,-70.2556"/>
<text text-anchor="middle" x="710" y="-60.5" font-family="Helvetica,sans-Serif" font-size="10.00" fill="#000000"> &lt; ConcreteSolver &gt;</text>
</g>
<!-- Node19&#45;&gt;Node16 -->
<g id="edge13" class="edge">
<title>Node19&#45;&gt;Node16</title>
<path fill="none" stroke="#ffa500" stroke-dasharray="5,2" d="M1036.9213,-126.5356C1088.3124,-132.8435 1150.8654,-140.5403 1207,-147.5 1214.7093,-148.4558 1222.6968,-149.4487 1230.7211,-150.4479"/>
<polygon fill="#ffa500" stroke="#ffa500" points="1037.149,-123.0374 1026.7971,-125.2932 1036.2963,-129.9853 1037.149,-123.0374"/>
<text text-anchor="middle" x="1129" y="-150.5" font-family="Helvetica,sans-Serif" font-size="10.00" fill="#000000"> &lt; BatchIdr&lt; ValueType &gt; &gt;</text>
</g>
<!-- Node23 -->
<g id="node17" class="node">
<title>Node23</title>
<g id="a_node17"><a xlink:href="classgko_1_1EnablePolymorphicAssignment.html" target="_top" xlink:title=" ">
<polygon fill="#ffffff" stroke="#000000" points="1231,-98.5 1231,-128.5 1423,-128.5 1423,-98.5 1231,-98.5"/>
<text text-anchor="start" x="1239" y="-116.5" font-family="Helvetica,sans-Serif" font-size="10.00" fill="#000000">gko::EnablePolymorphicAssignment</text>
<text text-anchor="middle" x="1327" y="-105.5" font-family="Helvetica,sans-Serif" font-size="10.00" fill="#000000">&lt; ConcreteBatchLinOp &gt;</text>
</a>
</g>
</g>
<!-- Node19&#45;&gt;Node23 -->
<g id="edge23" class="edge">
<title>Node19&#45;&gt;Node23</title>
<path fill="none" stroke="#ffa500" stroke-dasharray="5,2" d="M1037.0648,-113.5C1097.4637,-113.5 1172.4231,-113.5 1230.9915,-113.5"/>
<polygon fill="#ffa500" stroke="#ffa500" points="1036.7346,-110.0001 1026.7346,-113.5 1036.7346,-117.0001 1036.7346,-110.0001"/>
<text text-anchor="middle" x="1129" y="-116.5" font-family="Helvetica,sans-Serif" font-size="10.00" fill="#000000"> &lt; ConcreteBatchLinOp &gt;</text>
</g>
<!-- Node31 -->
<g id="node25" class="node">
<title>Node31</title>
<g id="a_node25"><a xlink:href="classgko_1_1EnablePolymorphicAssignment.html" target="_top" xlink:title=" ">
<polygon fill="#ffffff" stroke="#000000" points="1231,-49.5 1231,-79.5 1423,-79.5 1423,-49.5 1231,-49.5"/>
<text text-anchor="start" x="1239" y="-67.5" font-family="Helvetica,sans-Serif" font-size="10.00" fill="#000000">gko::EnablePolymorphicAssignment</text>
<text text-anchor="middle" x="1327" y="-56.5" font-family="Helvetica,sans-Serif" font-size="10.00" fill="#000000">&lt; ConcreteSolver &gt;</text>
</a>
</g>
</g>
<!-- Node19&#45;&gt;Node31 -->
<g id="edge35" class="edge">
<title>Node19&#45;&gt;Node31</title>
<path fill="none" stroke="#ffa500" stroke-dasharray="5,2" d="M1036.5817,-100.2872C1041.4551,-99.6826 1046.2795,-99.0846 1051,-98.5 1110.7713,-91.0982 1177.8295,-82.8365 1230.8791,-76.3105"/>
<polygon fill="#ffa500" stroke="#ffa500" points="1036.0201,-96.83 1026.5274,-101.5352 1036.8824,-103.7766 1036.0201,-96.83"/>
<text text-anchor="middle" x="1129" y="-101.5" font-family="Helvetica,sans-Serif" font-size="10.00" fill="#000000"> &lt; ConcreteSolver &gt;</text>
</g>
<!-- Node20 -->
<g id="node14" class="node">
<title>Node20</title>
<g id="a_node14"><a xlink:href="classgko_1_1EnableBatchLinOp.html" target="_top" xlink:title="The EnableBatchLinOp mixin can be used to provide sensible default implementations of the majority of...">
<polygon fill="#ffffff" stroke="#000000" points="1466,-253 1466,-294 1596,-294 1596,-253 1466,-253"/>
<text text-anchor="start" x="1474" y="-282" font-family="Helvetica,sans-Serif" font-size="10.00" fill="#000000">gko::EnableBatchLinOp</text>
<text text-anchor="start" x="1474" y="-271" font-family="Helvetica,sans-Serif" font-size="10.00" fill="#000000">&lt; ConcreteBatchLinOp,</text>
<text text-anchor="middle" x="1531" y="-260" font-family="Helvetica,sans-Serif" font-size="10.00" fill="#000000"> PolymorphicBase &gt;</text>
</a>
</g>
</g>
<!-- Node20&#45;&gt;Node3 -->
<g id="edge15" class="edge">
<title>Node20&#45;&gt;Node3</title>
<path fill="none" stroke="#ffa500" stroke-dasharray="5,2" d="M1606.278,-279.0108C1666.6991,-283.434 1750.6237,-289.5779 1807.9945,-293.7778"/>
<polygon fill="#ffa500" stroke="#ffa500" points="1606.2662,-275.5007 1596.0374,-278.2612 1605.7551,-282.482 1606.2662,-275.5007"/>
<text text-anchor="start" x="1634" y="-303.5" font-family="Helvetica,sans-Serif" font-size="10.00" fill="#000000"> &lt; BatchIdr&lt; ValueType</text>
<text text-anchor="middle" x="1692" y="-292.5" font-family="Helvetica,sans-Serif" font-size="10.00" fill="#000000"> &gt;, BatchLinOp &gt;</text>
</g>
<!-- Node28 -->
<g id="node22" class="node">
<title>Node28</title>
<g id="a_node22"><a xlink:href="classgko_1_1EnableBatchLinOp.html" target="_top" xlink:title=" ">
<polygon fill="#ffffff" stroke="#000000" points="1788,-215 1788,-256 1957,-256 1957,-215 1788,-215"/>
<text text-anchor="start" x="1796" y="-244" font-family="Helvetica,sans-Serif" font-size="10.00" fill="#000000">gko::EnableBatchLinOp</text>
<text text-anchor="start" x="1796" y="-233" font-family="Helvetica,sans-Serif" font-size="10.00" fill="#000000">&lt; ConcreteSolver, Polymorphic</text>
<text text-anchor="middle" x="1872.5" y="-222" font-family="Helvetica,sans-Serif" font-size="10.00" fill="#000000">Base &gt;</text>
</a>
</g>
</g>
<!-- Node20&#45;&gt;Node28 -->
<g id="edge36" class="edge">
<title>Node20&#45;&gt;Node28</title>
<path fill="none" stroke="#ffa500" stroke-dasharray="5,2" d="M1605.9333,-254.847C1608.6496,-254.3611 1611.3449,-253.9094 1614,-253.5 1671.6891,-244.6047 1737.3045,-240.1025 1787.9923,-237.8252"/>
<polygon fill="#ffa500" stroke="#ffa500" points="1605.2026,-251.4233 1596.0395,-256.7419 1606.5194,-258.2983 1605.2026,-251.4233"/>
<text text-anchor="start" x="1614" y="-267.5" font-family="Helvetica,sans-Serif" font-size="10.00" fill="#000000"> &lt; ConcreteSolver, Polymorphic</text>
<text text-anchor="middle" x="1692" y="-256.5" font-family="Helvetica,sans-Serif" font-size="10.00" fill="#000000">Base &gt;</text>
</g>
<!-- Node21&#45;&gt;Node20 -->
<g id="edge16" class="edge">
<title>Node21&#45;&gt;Node20</title>
<path fill="none" stroke="#191970" d="M1434.5159,-273.973C1445.2444,-273.9204 1455.8913,-273.8682 1465.98,-273.8187"/>
<polygon fill="#191970" stroke="#191970" points="1434.203,-270.4744 1424.2203,-274.0234 1434.2374,-277.4743 1434.203,-270.4744"/>
</g>
<!-- Node22&#45;&gt;Node21 -->
<g id="edge17" class="edge">
<title>Node22&#45;&gt;Node21</title>
<path fill="none" stroke="#191970" d="M807.8949,-250.8649C908.3129,-244.4993 1068.9221,-238.3869 1207,-251.5 1214.4967,-252.212 1222.2219,-253.1687 1229.9679,-254.2888"/>
<polygon fill="#191970" stroke="#191970" points="807.5181,-247.3819 797.7652,-251.5209 807.9705,-254.3672 807.5181,-247.3819"/>
</g>
<!-- Node23&#45;&gt;Node20 -->
<g id="edge20" class="edge">
<title>Node23&#45;&gt;Node20</title>
<path fill="none" stroke="#191970" d="M1423.3322,-133.5777C1425.2813,-134.81 1427.1743,-136.1159 1429,-137.5 1456.1076,-158.0502 1445.9576,-177.0147 1466,-204.5 1478.7995,-222.0526 1495.681,-239.8491 1509.0319,-252.9712"/>
<polygon fill="#191970" stroke="#191970" points="1424.8995,-130.4444 1414.4605,-128.6341 1421.4921,-136.5591 1424.8995,-130.4444"/>
</g>
<!-- Node24&#45;&gt;Node23 -->
<g id="edge21" class="edge">
<title>Node24&#45;&gt;Node23</title>
<path fill="none" stroke="#191970" d="M991.9153,-47.1775C1050.8529,-34.1779 1140.4785,-24.1825 1207,-60.5 1219.9849,-67.5891 1212.9587,-79.9052 1225,-88.5 1230.4166,-92.3662 1236.3621,-95.6382 1242.5756,-98.4067"/>
<polygon fill="#191970" stroke="#191970" points="990.9667,-43.8042 982.0049,-49.4554 992.5349,-50.6263 990.9667,-43.8042"/>
</g>
<!-- Node25 -->
<g id="node19" class="node">
<title>Node25</title>
<g id="a_node19"><a xlink:href="classgko_1_1EnableBatchScaling.html" target="_top" xlink:title="Default batch scalable interface with some type&#45;checking.">
<polygon fill="#ffffff" stroke="#000000" points="1804,-176 1804,-195 1941,-195 1941,-176 1804,-176"/>
<text text-anchor="middle" x="1872.5" y="-183" font-family="Helvetica,sans-Serif" font-size="10.00" fill="#000000">gko::EnableBatchScaling</text>
</a>
</g>
</g>
<!-- Node25&#45;&gt;Node2 -->
<g id="edge24" class="edge">
<title>Node25&#45;&gt;Node2</title>
<path fill="none" stroke="#191970" d="M1951.1536,-190.483C2002.4097,-193.927 2070.7223,-198.8878 2131,-204.5 2189.3042,-209.9285 2254.6533,-217.2807 2305.9884,-223.348"/>
<polygon fill="#191970" stroke="#191970" points="1951.3481,-186.9882 1941.1372,-189.8146 1950.882,-193.9727 1951.3481,-186.9882"/>
</g>
<!-- Node27 -->
<g id="node21" class="node">
<title>Node27</title>
<g id="a_node21"><a xlink:href="classgko_1_1solver_1_1EnableBatchSolver.html" target="_top" xlink:title=" ">
<polygon fill="#ffffff" stroke="#000000" points="1994,-214 1994,-255 2131,-255 2131,-214 1994,-214"/>
<text text-anchor="start" x="2002" y="-243" font-family="Helvetica,sans-Serif" font-size="10.00" fill="#000000">gko::solver::EnableBatch</text>
<text text-anchor="start" x="2002" y="-232" font-family="Helvetica,sans-Serif" font-size="10.00" fill="#000000">Solver&lt; ConcreteSolver,</text>
<text text-anchor="middle" x="2062.5" y="-221" font-family="Helvetica,sans-Serif" font-size="10.00" fill="#000000"> PolymorphicBase &gt;</text>
</a>
</g>
</g>
<!-- Node25&#45;&gt;Node27 -->
<g id="edge37" class="edge">
<title>Node25&#45;&gt;Node27</title>
<path fill="none" stroke="#191970" d="M1924.0798,-197.3978C1934.9689,-199.9964 1946.3767,-202.7837 1957,-205.5 1968.9621,-208.5587 1981.6511,-211.9337 1993.9268,-215.2672"/>
<polygon fill="#191970" stroke="#191970" points="1924.8005,-193.9717 1914.2629,-195.0717 1923.1865,-200.7831 1924.8005,-193.9717"/>
</g>
<!-- Node26 -->
<g id="node20" class="node">
<title>Node26</title>
<g id="a_node20"><a xlink:href="classgko_1_1BatchScalable.html" target="_top" xlink:title="A batch made up of entities that can scaled from the left and right by scaling vectors.">
<polygon fill="#ffffff" stroke="#000000" points="1476,-176 1476,-195 1586,-195 1586,-176 1476,-176"/>
<text text-anchor="middle" x="1531" y="-183" font-family="Helvetica,sans-Serif" font-size="10.00" fill="#000000">gko::BatchScalable</text>
</a>
</g>
</g>
<!-- Node26&#45;&gt;Node25 -->
<g id="edge25" class="edge">
<title>Node26&#45;&gt;Node25</title>
<path fill="none" stroke="#191970" d="M1596.2752,-185.5C1655.7387,-185.5 1743.2574,-185.5 1803.7759,-185.5"/>
<polygon fill="#191970" stroke="#191970" points="1596.2475,-182.0001 1586.2474,-185.5 1596.2474,-189.0001 1596.2475,-182.0001"/>
</g>
<!-- Node27&#45;&gt;Node2 -->
<g id="edge26" class="edge">
<title>Node27&#45;&gt;Node2</title>
<path fill="none" stroke="#ffa500" stroke-dasharray="5,2" d="M2141.6975,-234.5C2191.0004,-234.5 2254.584,-234.5 2305.9623,-234.5"/>
<polygon fill="#ffa500" stroke="#ffa500" points="2141.4031,-231.0001 2131.403,-234.5 2141.403,-238.0001 2141.4031,-231.0001"/>
<text text-anchor="middle" x="2218.5" y="-237.5" font-family="Helvetica,sans-Serif" font-size="10.00" fill="#000000"> &lt; BatchIdr&lt; ValueType &gt; &gt;</text>
</g>
<!-- Node28&#45;&gt;Node27 -->
<g id="edge27" class="edge">
<title>Node28&#45;&gt;Node27</title>
<path fill="none" stroke="#191970" d="M1967.3209,-235.0009C1976.2832,-234.9538 1985.2477,-234.9066 1993.8951,-234.8611"/>
<polygon fill="#191970" stroke="#191970" points="1967.2015,-231.5014 1957.2201,-235.0541 1967.2384,-238.5013 1967.2015,-231.5014"/>
</g>
<!-- Node29&#45;&gt;Node28 -->
<g id="edge28" class="edge">
<title>Node29&#45;&gt;Node28</title>
<path fill="none" stroke="#191970" d="M1439.4573,-222.7985C1542.9173,-225.833 1694.0717,-230.2665 1787.7027,-233.0128"/>
<polygon fill="#191970" stroke="#191970" points="1439.3826,-219.2949 1429.2842,-222.5001 1439.1773,-226.2919 1439.3826,-219.2949"/>
</g>
<!-- Node30&#45;&gt;Node29 -->
<g id="edge29" class="edge">
<title>Node30&#45;&gt;Node29</title>
<path fill="none" stroke="#191970" d="M820.3745,-210.4678C935.1296,-212.5137 1113.2802,-215.6898 1224.8774,-217.6793"/>
<polygon fill="#191970" stroke="#191970" points="820.2218,-206.9646 810.161,-210.2857 820.097,-213.9635 820.2218,-206.9646"/>
</g>
<!-- Node31&#45;&gt;Node28 -->
<g id="edge32" class="edge">
<title>Node31&#45;&gt;Node28</title>
<path fill="none" stroke="#191970" d="M1433.5535,-63.7334C1531.0273,-68.4103 1674.2235,-89.466 1770,-166.5 1784.5621,-178.2124 1774.1999,-191.8987 1788,-204.5 1792.2695,-208.3986 1797.07,-211.8179 1802.1588,-214.8148"/>
<polygon fill="#191970" stroke="#191970" points="1433.5218,-60.2289 1423.3809,-63.2967 1433.2215,-67.2225 1433.5218,-60.2289"/>
</g>
<!-- Node32&#45;&gt;Node31 -->
<g id="edge33" class="edge">
<title>Node32&#45;&gt;Node31</title>
<path fill="none" stroke="#191970" d="M997.455,-15.8952C1053.7102,-17.1148 1136.0538,-20.9776 1207,-32.5 1231.1556,-36.4231 1257.4801,-43.1577 1279.3021,-49.4396"/>
<polygon fill="#191970" stroke="#191970" points="997.3293,-12.3922 987.2631,-15.697 997.1931,-19.3909 997.3293,-12.3922"/>
</g>
<!-- Node33 -->
<g id="node27" class="node">
<title>Node33</title>
<g id="a_node27"><a xlink:href="classgko_1_1BatchTransposable.html" target="_top" xlink:title="Batch Linear operators which support transposition of the distinct batch entries should implement the...">
<polygon fill="#ffffff" stroke="#000000" points="2331,-181 2331,-200 2463,-200 2463,-181 2331,-181"/>
<text text-anchor="middle" x="2397" y="-188" font-family="Helvetica,sans-Serif" font-size="10.00" fill="#000000">gko::BatchTransposable</text>
</a>
</g>
</g>
<!-- Node33&#45;&gt;Node1 -->
<g id="edge38" class="edge">
<title>Node33&#45;&gt;Node1</title>
<path fill="none" stroke="#191970" d="M2473.0487,-195.3932C2490.2804,-196.502 2508.3239,-197.6629 2524.7142,-198.7175"/>
<polygon fill="#191970" stroke="#191970" points="2473.2195,-191.8971 2463.0154,-194.7476 2472.77,-198.8826 2473.2195,-191.8971"/>
</g>
</g>
</svg>
