<?xml version="1.0" encoding="UTF-8" standalone="no"?>
<!DOCTYPE svg PUBLIC "-//W3C//DTD SVG 1.1//EN"
 "http://www.w3.org/Graphics/SVG/1.1/DTD/svg11.dtd">
<!-- Generated by graphviz version 2.40.1 (20161225.0304)
 -->
<!-- Title: ExamplesMap Pages: 1 -->
<!--zoomable 412 -->
<svg id="main" version="1.1" xmlns="http://www.w3.org/2000/svg" xmlns:xlink="http://www.w3.org/1999/xlink" xml:space="preserve" onload="init(evt)">
<style type="text/css"><![CDATA[
.edge:hover path { stroke: red; }
.edge:hover polygon { stroke: red; fill: red; }
]]></style>
<script type="text/javascript"><![CDATA[
var edges = document.getElementsByTagName('g');
if (edges && edges.length) {
  for (var i=0;i<edges.length;i++) {
    if (edges[i].id.substr(0,4)=='edge') {
      edges[i].setAttribute('class','edge');
    }
  }
}
]]></script>
        <defs>
                <circle id="rim" cx="0" cy="0" r="7"/>
                <circle id="rim2" cx="0" cy="0" r="3.5"/>
                <g id="zoomPlus">
                        <use xlink:href="#rim" fill="#404040">
                                <set attributeName="fill" to="#808080" begin="zoomplus.mouseover" end="zoomplus.mouseout"/>
                        </use>
                        <path d="M-4,0h8M0,-4v8" fill="none" stroke="white" stroke-width="1.5" pointer-events="none"/>
                </g>
                <g id="zoomMin">
                        <use xlink:href="#rim" fill="#404040">
                                <set attributeName="fill" to="#808080" begin="zoomminus.mouseover" end="zoomminus.mouseout"/>
                        </use>
                        <path d="M-4,0h8" fill="none" stroke="white" stroke-width="1.5" pointer-events="none"/>
                </g>
                <g id="dirArrow">
                        <path fill="none" stroke="white" stroke-width="1.5" d="M0,-3.0v7 M-2.5,-0.5L0,-3.0L2.5,-0.5"/>
                </g>
               <g id="resetDef">
                       <use xlink:href="#rim2" fill="#404040">
                               <set attributeName="fill" to="#808080" begin="reset.mouseover" end="reset.mouseout"/>
                       </use>
               </g>
        </defs>

<script type="text/javascript">
var viewWidth = 2316;
var viewHeight = 412;
</script>
<script xlink:href="svgpan.js"/>
<svg id="graph" class="graph">
<g id="viewport">
<title>ExamplesMap</title>
<polygon fill="#ffffff" stroke="transparent" points="-4,4 -4,-408 2311.5,-408 2311.5,4 -4,4"/>
<!-- adaptiveprecision_blockjacobi -->
<g id="node1" class="node">
<title>adaptiveprecision_blockjacobi</title>
<g id="a_node1"><a xlink:href="adaptiveprecision_blockjacobi.html" target="_top" xlink:title="Use a preconditioner in Ginkgo. Solve a linear system.">
<polygon fill="#7fffd4" stroke="#000000" points="421.5,-157.5 226.5,-157.5 226.5,-136.5 421.5,-136.5 421.5,-157.5"/>
<text text-anchor="middle" x="324" y="-143.9" font-family="Helvetica,sans-Serif" font-size="12.00" fill="#000000">adaptiveprecision_blockjacobi</text>
</a>
</g>
</g>
<!-- batched_solver -->
<g id="node2" class="node">
<title>batched_solver</title>
<g id="a_node2"><a xlink:href="batched_solver.html" target="_top" xlink:title="Solve a batch of small linear systems using a batched solver.">
<polygon fill="#228b22" stroke="#000000" points="1400.5,-396 1293.5,-396 1293.5,-338 1400.5,-338 1400.5,-396"/>
<text text-anchor="middle" x="1347" y="-363.9" font-family="Helvetica,sans-Serif" font-size="12.00" fill="#000000">batched_solver</text>
</a>
</g>
</g>
<!-- batched_solver_from_files -->
<g id="node3" class="node">
<title>batched_solver_from_files</title>
<g id="a_node3"><a xlink:href="batched_solver_from_files.html" target="_top" xlink:title="Solve a batch of small linear systems using a batched solver.">
<polygon fill="#228b22" stroke="#000000" points="1591.5,-396 1418.5,-396 1418.5,-338 1591.5,-338 1591.5,-396"/>
<text text-anchor="middle" x="1505" y="-363.9" font-family="Helvetica,sans-Serif" font-size="12.00" fill="#000000">batched_solver_from_files</text>
</a>
</g>
</g>
<!-- cb_gmres -->
<g id="node4" class="node">
<title>cb_gmres</title>
<g id="a_node4"><a xlink:href="cb_gmres.html" target="_top" xlink:title="Solve a linear system with CB&#45;GMRES, both with and without compression. Benchmark the solve time and validate the result.">
<polygon fill="#ff7f50" stroke="#000000" points="1684.5,-379.5 1609.5,-379.5 1609.5,-354.5 1684.5,-354.5 1684.5,-379.5"/>
<text text-anchor="middle" x="1647" y="-363.9" font-family="Helvetica,sans-Serif" font-size="12.00" fill="#000000">cb_gmres</text>
</a>
</g>
</g>
<!-- custom_logger -->
<g id="node5" class="node">
<title>custom_logger</title>
<g id="a_node5"><a xlink:href="custom_logger.html" target="_top" xlink:title="Creating a custom logger with Ginkgo">
<polygon fill="#ffd700" stroke="#000000" points="513.5,-47.5 408.5,-47.5 408.5,-26.5 513.5,-26.5 513.5,-47.5"/>
<text text-anchor="middle" x="461" y="-33.9" font-family="Helvetica,sans-Serif" font-size="12.00" fill="#000000">custom_logger</text>
</a>
</g>
</g>
<!-- custom_matrix_format -->
<g id="node6" class="node">
<title>custom_matrix_format</title>
<g id="a_node6"><a xlink:href="custom_matrix_format.html" target="_top" xlink:title="Create a custom matrix format. Matrix free iterative solve.">
<polygon fill="#ff7f50" stroke="#000000" points="1011.5,-49.5 858.5,-49.5 858.5,-24.5 1011.5,-24.5 1011.5,-49.5"/>
<text text-anchor="middle" x="935" y="-33.9" font-family="Helvetica,sans-Serif" font-size="12.00" fill="#000000">custom_matrix_format</text>
</a>
</g>
</g>
<!-- custom_stopping_criterion -->
<g id="node7" class="node">
<title>custom_stopping_criterion</title>
<g id="a_node7"><a xlink:href="custom_stopping_criterion.html" target="_top" xlink:title="Create a custom stopping criterion.">
<polygon fill="#00bfff" stroke="#000000" points="893,-157.5 719,-157.5 719,-136.5 893,-136.5 893,-157.5"/>
<text text-anchor="middle" x="806" y="-143.9" font-family="Helvetica,sans-Serif" font-size="12.00" fill="#000000">custom_stopping_criterion</text>
</a>
</g>
</g>
<!-- external_lib_interfacing -->
<g id="node8" class="node">
<title>external_lib_interfacing</title>
<g id="a_node8"><a xlink:href="external_lib_interfacing.html" target="_top" xlink:title="Interface with an external library.">
<polygon fill="#ff7f50" stroke="#000000" points="1859,-379.5 1703,-379.5 1703,-354.5 1859,-354.5 1859,-379.5"/>
<text text-anchor="middle" x="1781" y="-363.9" font-family="Helvetica,sans-Serif" font-size="12.00" fill="#000000">external_lib_interfacing</text>
</a>
</g>
</g>
<!-- ginkgo_overhead -->
<g id="node9" class="node">
<title>ginkgo_overhead</title>
<g id="a_node9"><a xlink:href="ginkgo_overhead.html" target="_top" xlink:title="Measure ginkgo overhead.">
<polygon fill="#ff7f50" stroke="#000000" points="1996.5,-379.5 1877.5,-379.5 1877.5,-354.5 1996.5,-354.5 1996.5,-379.5"/>
<text text-anchor="middle" x="1937" y="-363.9" font-family="Helvetica,sans-Serif" font-size="12.00" fill="#000000">ginkgo_overhead</text>
</a>
</g>
</g>
<!-- ginkgo_ranges -->
<g id="node10" class="node">
<title>ginkgo_ranges</title>
<g id="a_node10"><a xlink:href="ginkgo_ranges.html" target="_top" xlink:title="Use the ranges concept in ginkgo.">
<polygon fill="#ff7f50" stroke="#000000" points="2119,-379.5 2015,-379.5 2015,-354.5 2119,-354.5 2119,-379.5"/>
<text text-anchor="middle" x="2067" y="-363.9" font-family="Helvetica,sans-Serif" font-size="12.00" fill="#000000">ginkgo_ranges</text>
</a>
</g>
</g>
<!-- heat_equation -->
<g id="node11" class="node">
<title>heat_equation</title>
<g id="a_node11"><a xlink:href="heat_equation.html" target="_top" xlink:title="Assemble a 2D finite difference matrix. Use it to build an implicit Euler integrator.">
<polygon fill="#ff7f50" stroke="#000000" points="1335,-49.5 1233,-49.5 1233,-24.5 1335,-24.5 1335,-49.5"/>
<text text-anchor="middle" x="1284" y="-33.9" font-family="Helvetica,sans-Serif" font-size="12.00" fill="#000000">heat_equation</text>
</a>
</g>
</g>
<!-- ilu_preconditioned_solver -->
<g id="node12" class="node">
<title>ilu_preconditioned_solver</title>
<g id="a_node12"><a xlink:href="ilu_preconditioned_solver.html" target="_top" xlink:title="Generate an incomplete factorization. ">
<polygon fill="#dc143c" stroke="#000000" points="1478,-267.5 1310,-267.5 1310,-246.5 1478,-246.5 1478,-267.5"/>
<text text-anchor="middle" x="1394" y="-253.9" font-family="Helvetica,sans-Serif" font-size="12.00" fill="#000000">ilu_preconditioned_solver</text>
</a>
</g>
</g>
<!-- ir_ilu_preconditioned_solver -->
<g id="node14" class="node">
<title>ir_ilu_preconditioned_solver</title>
<g id="a_node14"><a xlink:href="ir_ilu_preconditioned_solver.html" target="_top" xlink:title="Generate an incomplete factorization.">
<polygon fill="#dc143c" stroke="#000000" points="1500,-157.5 1318,-157.5 1318,-136.5 1500,-136.5 1500,-157.5"/>
<text text-anchor="middle" x="1409" y="-143.9" font-family="Helvetica,sans-Serif" font-size="12.00" fill="#000000">ir_ilu_preconditioned_solver</text>
</a>
</g>
</g>
<!-- ilu_preconditioned_solver&#45;&gt;ir_ilu_preconditioned_solver -->
<g id="edge14" class="edge">
<title>ilu_preconditioned_solver&#45;&gt;ir_ilu_preconditioned_solver</title>
<path fill="none" stroke="#000000" d="M1395.4383,-246.4527C1397.9071,-228.3482 1402.9932,-191.0498 1406.187,-167.6289"/>
<polygon fill="#000000" stroke="#000000" points="1409.6607,-168.0582 1407.5441,-157.677 1402.7249,-167.1123 1409.6607,-168.0582"/>
</g>
<!-- inverse_iteration -->
<g id="node13" class="node">
<title>inverse_iteration</title>
<g id="a_node13"><a xlink:href="inverse_iteration.html" target="_top" xlink:title="Compute eigenvalues with inverse iteration method.">
<polygon fill="#ff7f50" stroke="#000000" points="1808,-269.5 1692,-269.5 1692,-244.5 1808,-244.5 1808,-269.5"/>
<text text-anchor="middle" x="1750" y="-253.9" font-family="Helvetica,sans-Serif" font-size="12.00" fill="#000000">inverse_iteration</text>
</a>
</g>
</g>
<!-- iterative_refinement -->
<g id="node15" class="node">
<title>iterative_refinement</title>
<g id="a_node15"><a xlink:href="iterative_refinement.html" target="_top" xlink:title="Use an iterative refinement method in Ginkgo. Solve a linear system.">
<polygon fill="#228b22" stroke="#000000" points="1665.8858,-244.9878 1665.8858,-269.0122 1618.504,-286 1551.496,-286 1504.1142,-269.0122 1504.1142,-244.9878 1551.496,-228 1618.504,-228 1665.8858,-244.9878"/>
<polygon fill="none" stroke="#000000" points="1669.8949,-242.1748 1669.8949,-271.8252 1619.2024,-290 1550.7976,-290 1500.1051,-271.8252 1500.1051,-242.1748 1550.7976,-224 1619.2024,-224 1669.8949,-242.1748"/>
<polygon fill="none" stroke="#000000" points="1673.904,-239.3617 1673.904,-274.6383 1619.9009,-294 1550.0991,-294 1496.096,-274.6383 1496.096,-239.3617 1550.0991,-220 1619.9009,-220 1673.904,-239.3617"/>
<text text-anchor="middle" x="1585" y="-253.9" font-family="Helvetica,sans-Serif" font-size="12.00" fill="#000000">iterative_refinement</text>
</a>
</g>
</g>
<!-- iterative_refinement&#45;&gt;ir_ilu_preconditioned_solver -->
<g id="edge15" class="edge">
<title>iterative_refinement&#45;&gt;ir_ilu_preconditioned_solver</title>
<path fill="none" stroke="#000000" d="M1534.5655,-225.4784C1501.8543,-205.034 1460.618,-179.2612 1434.5211,-162.9507"/>
<polygon fill="#000000" stroke="#000000" points="1436.2955,-159.9323 1425.9605,-157.6003 1432.5855,-165.8683 1436.2955,-159.9323"/>
</g>
<!-- mixed_precision_ir -->
<g id="node18" class="node">
<title>mixed_precision_ir</title>
<g id="a_node18"><a xlink:href="mixed_precision_ir.html" target="_top" xlink:title="Manually implement a Mixed Precision Iterative Refinement (MPIR) method in Ginkgo. Solve a linear system.">
<polygon fill="#7fffd4" stroke="#000000" points="1649,-157.5 1521,-157.5 1521,-136.5 1649,-136.5 1649,-157.5"/>
<text text-anchor="middle" x="1585" y="-143.9" font-family="Helvetica,sans-Serif" font-size="12.00" fill="#000000">mixed_precision_ir</text>
</a>
</g>
</g>
<!-- iterative_refinement&#45;&gt;mixed_precision_ir -->
<g id="edge19" class="edge">
<title>iterative_refinement&#45;&gt;mixed_precision_ir</title>
<path fill="none" stroke="#000000" d="M1585,-219.759C1585,-202.4747 1585,-182.5692 1585,-167.9524"/>
<polygon fill="#000000" stroke="#000000" points="1588.5001,-167.9367 1585,-157.9367 1581.5001,-167.9367 1588.5001,-167.9367"/>
</g>
<!-- minimal_cuda_solver -->
<g id="node16" class="node">
<title>minimal_cuda_solver</title>
<g id="a_node16"><a xlink:href="minimal_cuda_solver.html" target="_top" xlink:title="Use the CUDA executor. Solve a linear system.">
<polygon fill="#228b22" stroke="#000000" points="789.3921,-244.9878 789.3921,-269.0122 741.1279,-286 672.8721,-286 624.6079,-269.0122 624.6079,-244.9878 672.8721,-228 741.1279,-228 789.3921,-244.9878"/>
<polygon fill="none" stroke="#000000" points="793.3896,-242.1546 793.3896,-271.8454 741.8105,-290 672.1895,-290 620.6104,-271.8454 620.6104,-242.1546 672.1895,-224 741.8105,-224 793.3896,-242.1546"/>
<polygon fill="none" stroke="#000000" points="797.3871,-239.3214 797.3871,-274.6786 742.4931,-294 671.5069,-294 616.6129,-274.6786 616.6129,-239.3214 671.5069,-220 742.4931,-220 797.3871,-239.3214"/>
<text text-anchor="middle" x="707" y="-253.9" font-family="Helvetica,sans-Serif" font-size="12.00" fill="#000000">minimal_cuda_solver</text>
</a>
</g>
</g>
<!-- minimal_cuda_solver&#45;&gt;custom_logger -->
<g id="edge4" class="edge">
<title>minimal_cuda_solver&#45;&gt;custom_logger</title>
<path fill="none" stroke="#000000" d="M616.4732,-242.7225C577.8197,-232.3608 535.022,-214.5506 506,-184 472.6017,-148.8426 463.9437,-89.5452 461.7314,-58.0816"/>
<polygon fill="#000000" stroke="#000000" points="465.2126,-57.6403 461.1741,-47.8454 458.223,-58.0209 465.2126,-57.6403"/>
</g>
<!-- minimal_cuda_solver&#45;&gt;custom_stopping_criterion -->
<g id="edge9" class="edge">
<title>minimal_cuda_solver&#45;&gt;custom_stopping_criterion</title>
<path fill="none" stroke="#000000" d="M740.5169,-219.759C756.9878,-201.458 776.1035,-180.2183 789.4135,-165.4294"/>
<polygon fill="#000000" stroke="#000000" points="792.0688,-167.7111 796.157,-157.9367 786.8657,-163.0283 792.0688,-167.7111"/>
</g>
<!-- performance_debugging -->
<g id="node24" class="node">
<title>performance_debugging</title>
<g id="a_node24"><a xlink:href="performance_debugging.html" target="_top" xlink:title="Logging to debug performance within Ginkgo.">
<polygon fill="#ffd700" stroke="#000000" points="806,-47.5 642,-47.5 642,-26.5 806,-26.5 806,-47.5"/>
<text text-anchor="middle" x="724" y="-33.9" font-family="Helvetica,sans-Serif" font-size="12.00" fill="#000000">performance_debugging</text>
</a>
</g>
</g>
<!-- minimal_cuda_solver&#45;&gt;performance_debugging -->
<g id="edge27" class="edge">
<title>minimal_cuda_solver&#45;&gt;performance_debugging</title>
<path fill="none" stroke="#000000" d="M706.027,-219.7361C705.6665,-189.9557 706.0828,-147.1901 710,-110 711.8743,-92.2054 715.8253,-72.2717 719.0535,-57.7362"/>
<polygon fill="#000000" stroke="#000000" points="722.5088,-58.3276 721.335,-47.798 715.6862,-56.7613 722.5088,-58.3276"/>
</g>
<!-- simple_solver_logging -->
<g id="node29" class="node">
<title>simple_solver_logging</title>
<g id="a_node29"><a xlink:href="simple_solver_logging.html" target="_top" xlink:title="Logging within Ginkgo.">
<polygon fill="#ffd700" stroke="#000000" points="662.5,-157.5 515.5,-157.5 515.5,-136.5 662.5,-136.5 662.5,-157.5"/>
<text text-anchor="middle" x="589" y="-143.9" font-family="Helvetica,sans-Serif" font-size="12.00" fill="#000000">simple_solver_logging</text>
</a>
</g>
</g>
<!-- minimal_cuda_solver&#45;&gt;simple_solver_logging -->
<g id="edge32" class="edge">
<title>minimal_cuda_solver&#45;&gt;simple_solver_logging</title>
<path fill="none" stroke="#000000" d="M668.3624,-220.9819C648.2149,-202.2003 624.4565,-180.0527 608.2208,-164.9177"/>
<polygon fill="#000000" stroke="#000000" points="610.1766,-161.956 600.4753,-157.6973 605.4034,-167.0763 610.1766,-161.956"/>
</g>
<!-- mixed_multigrid_solver -->
<g id="node17" class="node">
<title>mixed_multigrid_solver</title>
<g id="a_node17"><a xlink:href="mixed_multigrid_solver.html" target="_top" xlink:title="Use Multigrid in Ginkgo. Solve a linear system.">
<polygon fill="#7fffd4" stroke="#000000" points="1981.5,-267.5 1826.5,-267.5 1826.5,-246.5 1981.5,-246.5 1981.5,-267.5"/>
<text text-anchor="middle" x="1904" y="-253.9" font-family="Helvetica,sans-Serif" font-size="12.00" fill="#000000">mixed_multigrid_solver</text>
</a>
</g>
</g>
<!-- mixed_spmv -->
<g id="node19" class="node">
<title>mixed_spmv</title>
<g id="a_node19"><a xlink:href="mixed_spmv.html" target="_top" xlink:title="Mixed precision apply. Read a matrix from a file and generate right hand side randomly.">
<polygon fill="#7fffd4" stroke="#000000" points="2229,-377.5 2137,-377.5 2137,-356.5 2229,-356.5 2229,-377.5"/>
<text text-anchor="middle" x="2183" y="-363.9" font-family="Helvetica,sans-Serif" font-size="12.00" fill="#000000">mixed_spmv</text>
</a>
</g>
</g>
<!-- multigrid_preconditioned_solver -->
<g id="node20" class="node">
<title>multigrid_preconditioned_solver</title>
<g id="a_node20"><a xlink:href="multigrid_preconditioned_solver.html" target="_top" xlink:title="Use a preconditioner in Ginkgo. Solve a linear system.">
<polygon fill="#dc143c" stroke="#000000" points="208,-157.5 0,-157.5 0,-136.5 208,-136.5 208,-157.5"/>
<text text-anchor="middle" x="104" y="-143.9" font-family="Helvetica,sans-Serif" font-size="12.00" fill="#000000">multigrid_preconditioned_solver</text>
</a>
</g>
</g>
<!-- nine_pt_stencil_solver -->
<g id="node21" class="node">
<title>nine_pt_stencil_solver</title>
<g id="a_node21"><a xlink:href="nine_pt_stencil_solver.html" target="_top" xlink:title="Use array views to generate a nine point 2D stencil matrix. Solve a linear system.">
<polygon fill="#228b22" stroke="#000000" points="1206.5525,-24.9878 1206.5525,-49.0122 1157.0228,-66 1086.9772,-66 1037.4475,-49.0122 1037.4475,-24.9878 1086.9772,-8 1157.0228,-8 1206.5525,-24.9878"/>
<polygon fill="none" stroke="#000000" points="1210.5424,-22.1287 1210.5424,-51.8713 1157.6864,-70 1086.3136,-70 1033.4576,-51.8713 1033.4576,-22.1287 1086.3136,-4 1157.6864,-4 1210.5424,-22.1287"/>
<polygon fill="none" stroke="#000000" points="1214.5324,-19.2695 1214.5324,-54.7305 1158.3501,-74 1085.6499,-74 1029.4676,-54.7305 1029.4676,-19.2695 1085.6499,0 1158.3501,0 1214.5324,-19.2695"/>
<text text-anchor="middle" x="1122" y="-33.9" font-family="Helvetica,sans-Serif" font-size="12.00" fill="#000000">nine_pt_stencil_solver</text>
</a>
</g>
</g>
<!-- papi_logging -->
<g id="node22" class="node">
<title>papi_logging</title>
<g id="a_node22"><a xlink:href="papi_logging.html" target="_top" xlink:title="Logging with PAPI.">
<polygon fill="#ffd700" stroke="#000000" points="624,-47.5 532,-47.5 532,-26.5 624,-26.5 624,-47.5"/>
<text text-anchor="middle" x="578" y="-33.9" font-family="Helvetica,sans-Serif" font-size="12.00" fill="#000000">papi_logging</text>
</a>
</g>
</g>
<!-- par_ilu_convergence -->
<g id="node23" class="node">
<title>par_ilu_convergence</title>
<g id="a_node23"><a xlink:href="par_ilu_convergence.html" target="_top" xlink:title="Compute runtimes and residuals for different ParILU(T)/IC(T) iteration counts.">
<polygon fill="#dc143c" stroke="#000000" points="2140,-267.5 2000,-267.5 2000,-246.5 2140,-246.5 2140,-267.5"/>
<text text-anchor="middle" x="2070" y="-253.9" font-family="Helvetica,sans-Serif" font-size="12.00" fill="#000000">par_ilu_convergence</text>
</a>
</g>
</g>
<!-- poisson_solver -->
<g id="node25" class="node">
<title>poisson_solver</title>
<g id="a_node25"><a xlink:href="poisson_solver.html" target="_top" xlink:title="Solve the poisson problem. Generate the matrix within Ginkgo.">
<polygon fill="#228b22" stroke="#000000" points="1114.2764,-244.9878 1114.2764,-269.0122 1078.9673,-286 1029.0327,-286 993.7236,-269.0122 993.7236,-244.9878 1029.0327,-228 1078.9673,-228 1114.2764,-244.9878"/>
<polygon fill="none" stroke="#000000" points="1118.2695,-242.4715 1118.2695,-271.5285 1079.8765,-290 1028.1235,-290 989.7305,-271.5285 989.7305,-242.4715 1028.1235,-224 1079.8765,-224 1118.2695,-242.4715"/>
<polygon fill="none" stroke="#000000" points="1122.2626,-239.9552 1122.2626,-274.0448 1080.7857,-294 1027.2143,-294 985.7374,-274.0448 985.7374,-239.9552 1027.2143,-220 1080.7857,-220 1122.2626,-239.9552"/>
<text text-anchor="middle" x="1054" y="-253.9" font-family="Helvetica,sans-Serif" font-size="12.00" fill="#000000">poisson_solver</text>
</a>
</g>
</g>
<!-- poisson_solver&#45;&gt;custom_matrix_format -->
<g id="edge6" class="edge">
<title>poisson_solver&#45;&gt;custom_matrix_format</title>
<path fill="none" stroke="#000000" d="M1026.855,-219.8604C1019.084,-208.5849 1010.8659,-195.9999 1004,-184 979.4524,-141.097 956.1642,-88.0094 943.9244,-58.8114"/>
<polygon fill="#000000" stroke="#000000" points="947.14,-57.4285 940.0719,-49.5359 940.6754,-60.1136 947.14,-57.4285"/>
</g>
<!-- poisson_solver&#45;&gt;nine_pt_stencil_solver -->
<g id="edge23" class="edge">
<title>poisson_solver&#45;&gt;nine_pt_stencil_solver</title>
<path fill="none" stroke="#000000" d="M1030.2238,-219.9565C1013.7064,-189.1572 997.6677,-144.8841 1016,-110 1024.1679,-94.4575 1037.3084,-81.5787 1051.5994,-71.1927"/>
<polygon fill="#000000" stroke="#000000" points="1053.8411,-73.8998 1060.1178,-65.3643 1049.8883,-68.1226 1053.8411,-73.8998"/>
</g>
<!-- three_pt_stencil_solver -->
<g id="node30" class="node">
<title>three_pt_stencil_solver</title>
<g id="a_node30"><a xlink:href="three_pt_stencil_solver.html" target="_top" xlink:title="Use array views to generate stencil matrix. Solve a linear system.">
<polygon fill="#228b22" stroke="#000000" points="1210.6743,-134.9878 1210.6743,-159.0122 1158.7301,-176 1085.2699,-176 1033.3257,-159.0122 1033.3257,-134.9878 1085.2699,-118 1158.7301,-118 1210.6743,-134.9878"/>
<polygon fill="none" stroke="#000000" points="1214.6673,-132.0859 1214.6673,-161.9141 1159.3654,-180 1084.6346,-180 1029.3327,-161.9141 1029.3327,-132.0859 1084.6346,-114 1159.3654,-114 1214.6673,-132.0859"/>
<polygon fill="none" stroke="#000000" points="1218.6603,-129.184 1218.6603,-164.816 1160.0007,-184 1083.9993,-184 1025.3397,-164.816 1025.3397,-129.184 1083.9993,-110 1160.0007,-110 1218.6603,-129.184"/>
<text text-anchor="middle" x="1122" y="-143.9" font-family="Helvetica,sans-Serif" font-size="12.00" fill="#000000">three_pt_stencil_solver</text>
</a>
</g>
</g>
<!-- poisson_solver&#45;&gt;three_pt_stencil_solver -->
<g id="edge34" class="edge">
<title>poisson_solver&#45;&gt;three_pt_stencil_solver</title>
<path fill="none" stroke="#000000" d="M1077.0217,-219.759C1082.3388,-211.1578 1088.0572,-201.9074 1093.5743,-192.9827"/>
<polygon fill="#000000" stroke="#000000" points="1096.7208,-194.549 1099.002,-184.2026 1090.7667,-190.8682 1096.7208,-194.549"/>
</g>
<!-- preconditioned_solver -->
<g id="node26" class="node">
<title>preconditioned_solver</title>
<g id="a_node26"><a xlink:href="preconditioned_solver.html" target="_top" xlink:title="Use a preconditioner in Ginkgo. Solve a linear system.">
<polygon fill="#dc143c" stroke="#000000" points="398.5,-267.5 249.5,-267.5 249.5,-246.5 398.5,-246.5 398.5,-267.5"/>
<text text-anchor="middle" x="324" y="-253.9" font-family="Helvetica,sans-Serif" font-size="12.00" fill="#000000">preconditioned_solver</text>
</a>
</g>
</g>
<!-- preconditioned_solver&#45;&gt;adaptiveprecision_blockjacobi -->
<g id="edge1" class="edge">
<title>preconditioned_solver&#45;&gt;adaptiveprecision_blockjacobi</title>
<path fill="none" stroke="#000000" d="M324,-246.4527C324,-228.4302 324,-191.3869 324,-167.9477"/>
<polygon fill="#000000" stroke="#000000" points="327.5001,-167.6769 324,-157.677 320.5001,-167.677 327.5001,-167.6769"/>
</g>
<!-- preconditioned_solver&#45;&gt;multigrid_preconditioned_solver -->
<g id="edge20" class="edge">
<title>preconditioned_solver&#45;&gt;multigrid_preconditioned_solver</title>
<path fill="none" stroke="#000000" d="M302.9055,-246.4527C263.6469,-226.8235 179.262,-184.631 134.0528,-162.0264"/>
<polygon fill="#000000" stroke="#000000" points="135.5402,-158.857 125.0307,-157.5153 132.4097,-165.118 135.5402,-158.857"/>
</g>
<!-- preconditioner_export -->
<g id="node27" class="node">
<title>preconditioner_export</title>
<g id="a_node27"><a xlink:href="preconditioner_export.html" target="_top" xlink:title="Generate and store different preconditioners on the disk.">
<polygon fill="#dc143c" stroke="#000000" points="2307.5,-267.5 2158.5,-267.5 2158.5,-246.5 2307.5,-246.5 2307.5,-267.5"/>
<text text-anchor="middle" x="2233" y="-253.9" font-family="Helvetica,sans-Serif" font-size="12.00" fill="#000000">preconditioner_export</text>
</a>
</g>
</g>
<!-- simple_solver -->
<g id="node28" class="node">
<title>simple_solver</title>
<g id="a_node28"><a xlink:href="simple_solver.html" target="_top" xlink:title="Solve a simple linear system with CG. Read a matrix and right hand side from a file.">
<polygon fill="#228b22" stroke="#000000" points="1267.8081,-354.9878 1267.8081,-379.0122 1234.5307,-396 1187.4693,-396 1154.1919,-379.0122 1154.1919,-354.9878 1187.4693,-338 1234.5307,-338 1267.8081,-354.9878"/>
<polygon fill="none" stroke="#000000" points="1271.8018,-352.537 1271.8018,-381.463 1235.4897,-400 1186.5103,-400 1150.1982,-381.463 1150.1982,-352.537 1186.5103,-334 1235.4897,-334 1271.8018,-352.537"/>
<polygon fill="none" stroke="#000000" points="1275.7955,-350.0861 1275.7955,-383.9139 1236.4488,-404 1185.5512,-404 1146.2045,-383.9139 1146.2045,-350.0861 1185.5512,-330 1236.4488,-330 1275.7955,-350.0861"/>
<text text-anchor="middle" x="1211" y="-363.9" font-family="Helvetica,sans-Serif" font-size="12.00" fill="#000000">simple_solver</text>
</a>
</g>
</g>
<!-- simple_solver&#45;&gt;custom_logger -->
<g id="edge2" class="edge">
<title>simple_solver&#45;&gt;custom_logger</title>
<path fill="none" stroke="#000000" d="M1146.1322,-364.8312C1005.5513,-359.2819 677.4475,-341.5005 578,-294 515.0423,-263.9287 494.08,-247.8707 466,-184 447.592,-142.1292 452.4955,-86.887 457.1011,-57.4824"/>
<polygon fill="#000000" stroke="#000000" points="460.5621,-58.0073 458.8025,-47.5597 453.6628,-56.8243 460.5621,-58.0073"/>
</g>
<!-- simple_solver&#45;&gt;custom_matrix_format -->
<g id="edge5" class="edge">
<title>simple_solver&#45;&gt;custom_matrix_format</title>
<path fill="none" stroke="#000000" d="M1146.0923,-354.6849C1084.8822,-341.7236 999.2905,-319.6625 977,-294 918.1401,-226.2361 925.3146,-109.0068 931.5013,-59.7919"/>
<polygon fill="#000000" stroke="#000000" points="935.0099,-59.9668 932.8974,-49.5847 928.0745,-59.0181 935.0099,-59.9668"/>
</g>
<!-- simple_solver&#45;&gt;custom_stopping_criterion -->
<g id="edge8" class="edge">
<title>simple_solver&#45;&gt;custom_stopping_criterion</title>
<path fill="none" stroke="#000000" d="M1146.038,-357.008C1068.7542,-344.1678 945.3552,-320.3662 907,-294 859.7991,-261.5531 828.0767,-199.2453 814.1086,-167.1715"/>
<polygon fill="#000000" stroke="#000000" points="817.3088,-165.7527 810.2002,-157.8965 810.8581,-168.4709 817.3088,-165.7527"/>
</g>
<!-- simple_solver&#45;&gt;heat_equation -->
<g id="edge10" class="edge">
<title>simple_solver&#45;&gt;heat_equation</title>
<path fill="none" stroke="#000000" d="M1239.0084,-330.8765C1246.3832,-319.6295 1253.5217,-306.8054 1258,-294 1286.8578,-211.4837 1286.8432,-105.6244 1285.1939,-59.8122"/>
<polygon fill="#000000" stroke="#000000" points="1288.688,-59.5946 1284.7679,-49.7517 1281.6942,-59.8908 1288.688,-59.5946"/>
</g>
<!-- simple_solver&#45;&gt;ilu_preconditioned_solver -->
<g id="edge12" class="edge">
<title>simple_solver&#45;&gt;ilu_preconditioned_solver</title>
<path fill="none" stroke="#000000" d="M1256.236,-339.809C1291.1914,-318.7975 1338.3714,-290.438 1367.4614,-272.9521"/>
<polygon fill="#000000" stroke="#000000" points="1369.4646,-275.8318 1376.2322,-267.6801 1365.8582,-269.8322 1369.4646,-275.8318"/>
</g>
<!-- simple_solver&#45;&gt;inverse_iteration -->
<g id="edge13" class="edge">
<title>simple_solver&#45;&gt;inverse_iteration</title>
<path fill="none" stroke="#000000" d="M1257.0503,-340.3857C1265.7683,-336.3001 1274.9864,-332.5875 1284,-330 1455.1417,-280.8714 1512.7559,-346.1541 1683,-294 1697.174,-289.6578 1711.7184,-282.0734 1723.6185,-274.8972"/>
<polygon fill="#000000" stroke="#000000" points="1725.5376,-277.8251 1732.1533,-269.5496 1721.8209,-271.8933 1725.5376,-277.8251"/>
</g>
<!-- simple_solver&#45;&gt;iterative_refinement -->
<g id="edge16" class="edge">
<title>simple_solver&#45;&gt;iterative_refinement</title>
<path fill="none" stroke="#000000" d="M1258.0387,-340.642C1266.4997,-336.6332 1275.3748,-332.8805 1284,-330 1370.9115,-300.9751 1398.6473,-318.2869 1487,-294 1494.7294,-291.8753 1502.7024,-289.3854 1510.606,-286.7189"/>
<polygon fill="#000000" stroke="#000000" points="1511.8919,-289.9775 1520.1911,-283.3917 1509.5963,-283.3646 1511.8919,-289.9775"/>
</g>
<!-- simple_solver&#45;&gt;minimal_cuda_solver -->
<g id="edge17" class="edge">
<title>simple_solver&#45;&gt;minimal_cuda_solver</title>
<path fill="none" stroke="#000000" d="M1145.9995,-355.777C1071.673,-342.5813 946.5095,-319.2543 840,-294 825.0785,-290.462 809.3075,-286.3812 794.0437,-282.2499"/>
<polygon fill="#000000" stroke="#000000" points="794.6695,-278.7927 784.1006,-279.533 792.8244,-285.5451 794.6695,-278.7927"/>
</g>
<!-- simple_solver&#45;&gt;mixed_multigrid_solver -->
<g id="edge18" class="edge">
<title>simple_solver&#45;&gt;mixed_multigrid_solver</title>
<path fill="none" stroke="#000000" d="M1257.003,-340.2175C1265.7259,-336.149 1274.9578,-332.4857 1284,-330 1512.9356,-267.0649 1586.0849,-349.2321 1817,-294 1837.1497,-289.1804 1858.5803,-280.1182 1875.1299,-272.1689"/>
<polygon fill="#000000" stroke="#000000" points="1876.8475,-275.2243 1884.2635,-267.6576 1873.7475,-268.9481 1876.8475,-275.2243"/>
</g>
<!-- simple_solver&#45;&gt;nine_pt_stencil_solver -->
<g id="edge21" class="edge">
<title>simple_solver&#45;&gt;nine_pt_stencil_solver</title>
<path fill="none" stroke="#000000" d="M1225.0849,-329.5859C1242.3442,-277.1838 1265.0266,-180.457 1228,-110 1219.8321,-94.4575 1206.6916,-81.5787 1192.4006,-71.1927"/>
<polygon fill="#000000" stroke="#000000" points="1194.1117,-68.1226 1183.8822,-65.3643 1190.1589,-73.8998 1194.1117,-68.1226"/>
</g>
<!-- simple_solver&#45;&gt;par_ilu_convergence -->
<g id="edge25" class="edge">
<title>simple_solver&#45;&gt;par_ilu_convergence</title>
<path fill="none" stroke="#000000" d="M1256.9695,-340.0936C1265.6958,-336.0378 1274.9375,-332.4108 1284,-330 1588.0551,-249.1168 1685.724,-370.1456 1991,-294 2009.3226,-289.4298 2028.5377,-280.5341 2043.4294,-272.6106"/>
<polygon fill="#000000" stroke="#000000" points="2045.4637,-275.4862 2052.5382,-267.5994 2042.0895,-269.3531 2045.4637,-275.4862"/>
</g>
<!-- simple_solver&#45;&gt;poisson_solver -->
<g id="edge28" class="edge">
<title>simple_solver&#45;&gt;poisson_solver</title>
<path fill="none" stroke="#000000" d="M1169.3391,-337.8108C1149.538,-323.9374 1125.6925,-307.2304 1104.835,-292.6169"/>
<polygon fill="#000000" stroke="#000000" points="1106.6007,-289.5804 1096.4024,-286.7087 1102.5839,-295.3133 1106.6007,-289.5804"/>
</g>
<!-- simple_solver&#45;&gt;preconditioned_solver -->
<g id="edge29" class="edge">
<title>simple_solver&#45;&gt;preconditioned_solver</title>
<path fill="none" stroke="#000000" d="M1146.1244,-365.8722C1011.93,-362.4542 694.6827,-348.7452 435,-294 409.1452,-288.5494 380.9066,-279.0851 359.382,-271.0932"/>
<polygon fill="#000000" stroke="#000000" points="360.589,-267.8078 349.9974,-267.5446 358.1131,-274.3554 360.589,-267.8078"/>
</g>
<!-- simple_solver&#45;&gt;preconditioner_export -->
<g id="edge30" class="edge">
<title>simple_solver&#45;&gt;preconditioner_export</title>
<path fill="none" stroke="#000000" d="M1256.5548,-340.2084C1265.399,-336.0849 1274.789,-332.4046 1284,-330 1656.3005,-232.8102 1774.2024,-381.0648 2149,-294 2168.5384,-289.4613 2189.1713,-280.4405 2205.0986,-272.4426"/>
<polygon fill="#000000" stroke="#000000" points="2207.0882,-275.3536 2214.3556,-267.6442 2203.8668,-269.1389 2207.0882,-275.3536"/>
</g>
<!-- simple_solver&#45;&gt;simple_solver_logging -->
<g id="edge31" class="edge">
<title>simple_solver&#45;&gt;simple_solver_logging</title>
<path fill="none" stroke="#000000" d="M1146.0514,-363.5854C998.0778,-355.1847 645.737,-331.4339 608,-294 574.498,-260.7671 579.2433,-199.7166 584.6315,-167.7538"/>
<polygon fill="#000000" stroke="#000000" points="588.1035,-168.2277 586.5026,-157.7545 581.2229,-166.9402 588.1035,-168.2277"/>
</g>
<!-- simple_solver&#45;&gt;three_pt_stencil_solver -->
<g id="edge33" class="edge">
<title>simple_solver&#45;&gt;three_pt_stencil_solver</title>
<path fill="none" stroke="#000000" d="M1195.9024,-329.68C1180.7051,-292.1138 1157.2268,-234.0775 1140.8237,-193.5304"/>
<polygon fill="#000000" stroke="#000000" points="1144.0177,-192.0929 1137.0229,-184.1353 1137.5286,-194.7181 1144.0177,-192.0929"/>
</g>
<!-- simple_solver_logging&#45;&gt;custom_logger -->
<g id="edge3" class="edge">
<title>simple_solver_logging&#45;&gt;custom_logger</title>
<path fill="none" stroke="#000000" d="M576.7268,-136.4527C554.6112,-117.4471 507.8821,-77.2893 481.0598,-54.2389"/>
<polygon fill="#000000" stroke="#000000" points="483.2895,-51.5402 473.4241,-47.677 478.7271,-56.8491 483.2895,-51.5402"/>
</g>
<!-- simple_solver_logging&#45;&gt;papi_logging -->
<g id="edge24" class="edge">
<title>simple_solver_logging&#45;&gt;papi_logging</title>
<path fill="none" stroke="#000000" d="M587.9453,-136.4527C586.1348,-118.3482 582.405,-81.0498 580.0629,-57.6289"/>
<polygon fill="#000000" stroke="#000000" points="583.5455,-57.279 579.0677,-47.677 576.5802,-57.9756 583.5455,-57.279"/>
</g>
<!-- simple_solver_logging&#45;&gt;performance_debugging -->
<g id="edge26" class="edge">
<title>simple_solver_logging&#45;&gt;performance_debugging</title>
<path fill="none" stroke="#000000" d="M601.9444,-136.4527C625.2695,-117.4471 674.5541,-77.2893 702.8431,-54.2389"/>
<polygon fill="#000000" stroke="#000000" points="705.355,-56.7071 710.8965,-47.677 700.9332,-51.2804 705.355,-56.7071"/>
</g>
<!-- three_pt_stencil_solver&#45;&gt;custom_matrix_format -->
<g id="edge7" class="edge">
<title>three_pt_stencil_solver&#45;&gt;custom_matrix_format</title>
<path fill="none" stroke="#000000" d="M1067.9119,-115.1834C1034.574,-95.573 993.0539,-71.1494 965.3774,-54.869"/>
<polygon fill="#000000" stroke="#000000" points="966.9479,-51.7323 956.554,-49.6788 963.3987,-57.7658 966.9479,-51.7323"/>
</g>
<!-- three_pt_stencil_solver&#45;&gt;heat_equation -->
<g id="edge11" class="edge">
<title>three_pt_stencil_solver&#45;&gt;heat_equation</title>
<path fill="none" stroke="#000000" d="M1171.4856,-113.3987C1199.7035,-94.2384 1233.9667,-70.9732 1257.2146,-55.1876"/>
<polygon fill="#000000" stroke="#000000" points="1259.2427,-58.0411 1265.5497,-49.528 1255.3104,-52.25 1259.2427,-58.0411"/>
</g>
<!-- three_pt_stencil_solver&#45;&gt;nine_pt_stencil_solver -->
<g id="edge22" class="edge">
<title>three_pt_stencil_solver&#45;&gt;nine_pt_stencil_solver</title>
<path fill="none" stroke="#000000" d="M1122,-109.759C1122,-101.6058 1122,-92.8692 1122,-84.3797"/>
<polygon fill="#000000" stroke="#000000" points="1125.5001,-84.2026 1122,-74.2026 1118.5001,-84.2027 1125.5001,-84.2026"/>
</g>
</g>
</svg>
        <g id="navigator" transform="translate(0 0)" fill="#404254">
                <rect fill="#f2f5e9" fill-opacity="0.5" stroke="#606060" stroke-width=".5" x="0" y="0" width="60" height="60"/>
                <use id="zoomplus" xlink:href="#zoomPlus" x="17" y="9" onmousedown="handleZoom(evt,'in')"/>
                <use id="zoomminus" xlink:href="#zoomMin" x="42" y="9" onmousedown="handleZoom(evt,'out')"/>
                <use id="reset" xlink:href="#resetDef" x="30" y="36" onmousedown="handleReset()"/>
                <g id="arrowUp" xlink:href="#dirArrow" transform="translate(30 24)" onmousedown="handlePan(0,-1)">
                  <use xlink:href="#rim" fill="#404040">
                        <set attributeName="fill" to="#808080" begin="arrowUp.mouseover" end="arrowUp.mouseout"/>
                  </use>
                  <path fill="none" stroke="white" stroke-width="1.5" d="M0,-3.0v7 M-2.5,-0.5L0,-3.0L2.5,-0.5"/>
                </g>
                <g id="arrowRight" xlink:href="#dirArrow" transform="rotate(90) translate(36 -43)" onmousedown="handlePan(1,0)">
                  <use xlink:href="#rim" fill="#404040">
                        <set attributeName="fill" to="#808080" begin="arrowRight.mouseover" end="arrowRight.mouseout"/>
                  </use>
                  <path fill="none" stroke="white" stroke-width="1.5" d="M0,-3.0v7 M-2.5,-0.5L0,-3.0L2.5,-0.5"/>
                </g>
                <g id="arrowDown" xlink:href="#dirArrow" transform="rotate(180) translate(-30 -48)" onmousedown="handlePan(0,1)">
                  <use xlink:href="#rim" fill="#404040">
                        <set attributeName="fill" to="#808080" begin="arrowDown.mouseover" end="arrowDown.mouseout"/>
                  </use>
                  <path fill="none" stroke="white" stroke-width="1.5" d="M0,-3.0v7 M-2.5,-0.5L0,-3.0L2.5,-0.5"/>
                </g>
                <g id="arrowLeft" xlink:href="#dirArrow" transform="rotate(270) translate(-36 17)" onmousedown="handlePan(-1,0)">
                  <use xlink:href="#rim" fill="#404040">
                        <set attributeName="fill" to="#808080" begin="arrowLeft.mouseover" end="arrowLeft.mouseout"/>
                  </use>
                  <path fill="none" stroke="white" stroke-width="1.5" d="M0,-3.0v7 M-2.5,-0.5L0,-3.0L2.5,-0.5"/>
                </g>
        </g>
        <svg viewBox="0 0 15 15" width="100%" height="30px" preserveAspectRatio="xMaxYMin meet">
         <g id="arrow_out" transform="scale(0.3 0.3)">
          <a xlink:href="dot_inline_dotgraph_1_org.svg" target="_base">
           <rect id="button" ry="5" rx="5" y="6" x="6" height="38" width="38"
                fill="#f2f5e9" fill-opacity="0.5" stroke="#606060" stroke-width="1.0"/>
           <path id="arrow"
             d="M 11.500037,31.436501 C 11.940474,20.09759 22.043105,11.32322 32.158766,21.979434 L 37.068811,17.246167 C 37.068811,17.246167 37.088388,32 37.088388,32 L 22.160133,31.978069 C 22.160133,31.978069 26.997745,27.140456 26.997745,27.140456 C 18.528582,18.264221 13.291696,25.230495 11.500037,31.436501 z"
             style="fill:#404040;"/>
          </a>
         </g>
        </svg>
</svg>
