<?xml version="1.0" encoding="UTF-8" standalone="no"?>
<!DOCTYPE svg PUBLIC "-//W3C//DTD SVG 1.1//EN"
 "http://www.w3.org/Graphics/SVG/1.1/DTD/svg11.dtd">
<!-- Generated by graphviz version 2.40.1 (20161225.0304)
 -->
<!-- Title: ExamplesDescription Pages: 1 -->
<!--zoomable 137 -->
<svg id="main" version="1.1" xmlns="http://www.w3.org/2000/svg" xmlns:xlink="http://www.w3.org/1999/xlink" xml:space="preserve" onload="init(evt)">
<style type="text/css"><![CDATA[
.edge:hover path { stroke: red; }
.edge:hover polygon { stroke: red; fill: red; }
]]></style>
<script type="text/javascript"><![CDATA[
var edges = document.getElementsByTagName('g');
if (edges && edges.length) {
  for (var i=0;i<edges.length;i++) {
    if (edges[i].id.substr(0,4)=='edge') {
      edges[i].setAttribute('class','edge');
    }
  }
}
]]></script>
        <defs>
                <circle id="rim" cx="0" cy="0" r="7"/>
                <circle id="rim2" cx="0" cy="0" r="3.5"/>
                <g id="zoomPlus">
                        <use xlink:href="#rim" fill="#404040">
                                <set attributeName="fill" to="#808080" begin="zoomplus.mouseover" end="zoomplus.mouseout"/>
                        </use>
                        <path d="M-4,0h8M0,-4v8" fill="none" stroke="white" stroke-width="1.5" pointer-events="none"/>
                </g>
                <g id="zoomMin">
                        <use xlink:href="#rim" fill="#404040">
                                <set attributeName="fill" to="#808080" begin="zoomminus.mouseover" end="zoomminus.mouseout"/>
                        </use>
                        <path d="M-4,0h8" fill="none" stroke="white" stroke-width="1.5" pointer-events="none"/>
                </g>
                <g id="dirArrow">
                        <path fill="none" stroke="white" stroke-width="1.5" d="M0,-3.0v7 M-2.5,-0.5L0,-3.0L2.5,-0.5"/>
                </g>
               <g id="resetDef">
                       <use xlink:href="#rim2" fill="#404040">
                               <set attributeName="fill" to="#808080" begin="reset.mouseover" end="reset.mouseout"/>
                       </use>
               </g>
        </defs>

<script type="text/javascript">
var viewWidth = 886;
var viewHeight = 137;
</script>
<script xlink:href="svgpan.js"/>
<svg id="graph" class="graph">
<g id="viewport">
<title>ExamplesDescription</title>
<polygon fill="#ffffff" stroke="transparent" points="-4,4 -4,-133 882,-133 882,4 -4,4"/>
<!-- batched_functionality -->
<g id="node1" class="node">
<title>batched_functionality</title>
<polygon fill="#228b22" stroke="#000000" points="58,-121 0,-121 0,-63 58,-63 58,-121"/>
</g>
<!-- fake_batched_functionality -->
<g id="node2" class="node">
<title>fake_batched_functionality</title>
<polygon fill="#ffffff" stroke="transparent" points="43.5,-16.5 14.5,-16.5 14.5,-2.5 43.5,-2.5 43.5,-16.5"/>
</g>
<!-- batched_functionality&#45;&#45;fake_batched_functionality -->
<g id="edge1" class="edge">
<title>batched_functionality&#45;&#45;fake_batched_functionality</title>
<path fill="none" stroke="#000000" stroke-dasharray="1,5" d="M29,-62.6813C29,-46.1934 29,-26.923 29,-16.7107"/>
</g>
<!-- unfinished -->
<g id="node3" class="node">
<title>unfinished</title>
<polygon fill="none" stroke="#000000" stroke-dasharray="5,2" points="797,-101 779,-101 779,-83 797,-83 797,-101"/>
</g>
<!-- fake_unfinished -->
<g id="node4" class="node">
<title>fake_unfinished</title>
<polygon fill="#ffffff" stroke="transparent" points="878,-19 778,-19 778,0 878,0 878,-19"/>
<text text-anchor="middle" x="828" y="-7" font-family="Helvetica,sans-Serif" font-size="10.00" fill="#000000">Unfinished codes</text>
</g>
<!-- unfinished&#45;&#45;fake_unfinished -->
<g id="edge2" class="edge">
<title>unfinished&#45;&#45;fake_unfinished</title>
<path fill="none" stroke="#000000" stroke-dasharray="1,5" d="M792.4335,-82.8558C800.041,-67.1655 815.5121,-35.2562 823.2994,-19.195"/>
</g>
<!-- stopping_criteria -->
<g id="node5" class="node">
<title>stopping_criteria</title>
<polygon fill="#00bfff" stroke="#000000" points="498,-101 480,-101 480,-83 498,-83 498,-101"/>
</g>
<!-- fake_stopping_criteria -->
<g id="node6" class="node">
<title>fake_stopping_criteria</title>
<polygon fill="#ffffff" stroke="transparent" points="537.5,-19 440.5,-19 440.5,0 537.5,0 537.5,-19"/>
<text text-anchor="middle" x="489" y="-7" font-family="Helvetica,sans-Serif" font-size="10.00" fill="#000000">Stopping criteria</text>
</g>
<!-- stopping_criteria&#45;&#45;fake_stopping_criteria -->
<g id="edge3" class="edge">
<title>stopping_criteria&#45;&#45;fake_stopping_criteria</title>
<path fill="none" stroke="#000000" stroke-dasharray="1,5" d="M489,-82.8558C489,-67.1655 489,-35.2562 489,-19.195"/>
</g>
<!-- preconditioners -->
<g id="node7" class="node">
<title>preconditioners</title>
<polygon fill="#dc143c" stroke="#000000" points="611,-101 593,-101 593,-83 611,-83 611,-101"/>
</g>
<!-- stopping_criteria&#45;&#45;preconditioners -->
<g id="edge12" class="edge">
<title>stopping_criteria&#45;&#45;preconditioners</title>
<path fill="none" stroke="#000000" d="M498.2695,-92C529.7398,-92 561.2102,-92 592.6805,-92"/>
</g>
<!-- fake_preconditioners -->
<g id="node8" class="node">
<title>fake_preconditioners</title>
<polygon fill="#ffffff" stroke="transparent" points="648,-19 556,-19 556,0 648,0 648,-19"/>
<text text-anchor="middle" x="602" y="-7" font-family="Helvetica,sans-Serif" font-size="10.00" fill="#000000">Preconditioners</text>
</g>
<!-- preconditioners&#45;&#45;fake_preconditioners -->
<g id="edge4" class="edge">
<title>preconditioners&#45;&#45;fake_preconditioners</title>
<path fill="none" stroke="#000000" stroke-dasharray="1,5" d="M602,-82.8558C602,-67.1655 602,-35.2562 602,-19.195"/>
</g>
<!-- mixed_precision -->
<g id="node15" class="node">
<title>mixed_precision</title>
<polygon fill="#7fffd4" stroke="#000000" points="722,-101 704,-101 704,-83 722,-83 722,-101"/>
</g>
<!-- preconditioners&#45;&#45;mixed_precision -->
<g id="edge13" class="edge">
<title>preconditioners&#45;&#45;mixed_precision</title>
<path fill="none" stroke="#000000" d="M611.1055,-92C642.0188,-92 672.9321,-92 703.8454,-92"/>
</g>
<!-- techniques -->
<g id="node9" class="node">
<title>techniques</title>
<polygon fill="#ff7f50" stroke="#000000" points="251.5,-104.5 226.5,-104.5 226.5,-79.5 251.5,-79.5 251.5,-104.5"/>
</g>
<!-- fake_techniques -->
<g id="node10" class="node">
<title>fake_techniques</title>
<polygon fill="#ffffff" stroke="transparent" points="299.5,-19 178.5,-19 178.5,0 299.5,0 299.5,-19"/>
<text text-anchor="middle" x="239" y="-7" font-family="Helvetica,sans-Serif" font-size="10.00" fill="#000000">Advanced techniques</text>
</g>
<!-- techniques&#45;&#45;fake_techniques -->
<g id="edge5" class="edge">
<title>techniques&#45;&#45;fake_techniques</title>
<path fill="none" stroke="#000000" stroke-dasharray="1,5" d="M239,-79.47C239,-62.8819 239,-33.9926 239,-19.0545"/>
</g>
<!-- logging -->
<g id="node11" class="node">
<title>logging</title>
<polygon fill="#ffd700" stroke="#000000" points="379,-101 361,-101 361,-83 379,-83 379,-101"/>
</g>
<!-- techniques&#45;&#45;logging -->
<g id="edge10" class="edge">
<title>techniques&#45;&#45;logging</title>
<path fill="none" stroke="#000000" d="M251.5371,-92C287.9398,-92 324.3424,-92 360.7451,-92"/>
</g>
<!-- logging&#45;&#45;stopping_criteria -->
<g id="edge11" class="edge">
<title>logging&#45;&#45;stopping_criteria</title>
<path fill="none" stroke="#000000" d="M379.2969,-92C412.722,-92 446.1472,-92 479.5724,-92"/>
</g>
<!-- fake_logging -->
<g id="node12" class="node">
<title>fake_logging</title>
<polygon fill="#ffffff" stroke="transparent" points="422,-19 318,-19 318,0 422,0 422,-19"/>
<text text-anchor="middle" x="370" y="-7" font-family="Helvetica,sans-Serif" font-size="10.00" fill="#000000">Logging in Ginkgo</text>
</g>
<!-- logging&#45;&#45;fake_logging -->
<g id="edge6" class="edge">
<title>logging&#45;&#45;fake_logging</title>
<path fill="none" stroke="#000000" stroke-dasharray="1,5" d="M370,-82.8558C370,-67.1655 370,-35.2562 370,-19.195"/>
</g>
<!-- basic -->
<g id="node13" class="node">
<title>basic</title>
<polygon fill="#228b22" stroke="#000000" points="171,-79.9878 171,-104.0122 154.0122,-121 129.9878,-121 113,-104.0122 113,-79.9878 129.9878,-63 154.0122,-63 171,-79.9878"/>
<polygon fill="none" stroke="#000000" points="175,-78.331 175,-105.669 155.669,-125 128.331,-125 109,-105.669 109,-78.331 128.331,-59 155.669,-59 175,-78.331"/>
<polygon fill="none" stroke="#000000" points="179,-76.6741 179,-107.3259 157.3259,-129 126.6741,-129 105,-107.3259 105,-76.6741 126.6741,-55 157.3259,-55 179,-76.6741"/>
</g>
<!-- basic&#45;&#45;techniques -->
<g id="edge9" class="edge">
<title>basic&#45;&#45;techniques</title>
<path fill="none" stroke="#000000" d="M179.1328,-92C194.8791,-92 210.6254,-92 226.3718,-92"/>
</g>
<!-- fake_basic -->
<g id="node14" class="node">
<title>fake_basic</title>
<polygon fill="#ffffff" stroke="transparent" points="160.5,-19 61.5,-19 61.5,0 160.5,0 160.5,-19"/>
<text text-anchor="middle" x="111" y="-7" font-family="Helvetica,sans-Serif" font-size="10.00" fill="#000000">Basic techniques</text>
</g>
<!-- basic&#45;&#45;fake_basic -->
<g id="edge7" class="edge">
<title>basic&#45;&#45;fake_basic</title>
<path fill="none" stroke="#000000" stroke-dasharray="1,5" d="M127.9512,-54.6122C123.0171,-41.481 117.8851,-27.8232 114.5788,-19.0242"/>
</g>
<!-- mixed_precision&#45;&#45;unfinished -->
<g id="edge14" class="edge">
<title>mixed_precision&#45;&#45;unfinished</title>
<path fill="none" stroke="#000000" d="M722.082,-92C741.0506,-92 760.0192,-92 778.9878,-92"/>
</g>
<!-- fake_mixed_precision -->
<g id="node16" class="node">
<title>fake_mixed_precision</title>
<polygon fill="#ffffff" stroke="transparent" points="759.5,-19 666.5,-19 666.5,0 759.5,0 759.5,-19"/>
<text text-anchor="middle" x="713" y="-7" font-family="Helvetica,sans-Serif" font-size="10.00" fill="#000000">Mixed Precision</text>
</g>
<!-- mixed_precision&#45;&#45;fake_mixed_precision -->
<g id="edge8" class="edge">
<title>mixed_precision&#45;&#45;fake_mixed_precision</title>
<path fill="none" stroke="#000000" stroke-dasharray="1,5" d="M713,-82.8558C713,-67.1655 713,-35.2562 713,-19.195"/>
</g>
</g>
</svg>
        <g id="navigator" transform="translate(0 0)" fill="#404254">
                <rect fill="#f2f5e9" fill-opacity="0.5" stroke="#606060" stroke-width=".5" x="0" y="0" width="60" height="60"/>
                <use id="zoomplus" xlink:href="#zoomPlus" x="17" y="9" onmousedown="handleZoom(evt,'in')"/>
                <use id="zoomminus" xlink:href="#zoomMin" x="42" y="9" onmousedown="handleZoom(evt,'out')"/>
                <use id="reset" xlink:href="#resetDef" x="30" y="36" onmousedown="handleReset()"/>
                <g id="arrowUp" xlink:href="#dirArrow" transform="translate(30 24)" onmousedown="handlePan(0,-1)">
                  <use xlink:href="#rim" fill="#404040">
                        <set attributeName="fill" to="#808080" begin="arrowUp.mouseover" end="arrowUp.mouseout"/>
                  </use>
                  <path fill="none" stroke="white" stroke-width="1.5" d="M0,-3.0v7 M-2.5,-0.5L0,-3.0L2.5,-0.5"/>
                </g>
                <g id="arrowRight" xlink:href="#dirArrow" transform="rotate(90) translate(36 -43)" onmousedown="handlePan(1,0)">
                  <use xlink:href="#rim" fill="#404040">
                        <set attributeName="fill" to="#808080" begin="arrowRight.mouseover" end="arrowRight.mouseout"/>
                  </use>
                  <path fill="none" stroke="white" stroke-width="1.5" d="M0,-3.0v7 M-2.5,-0.5L0,-3.0L2.5,-0.5"/>
                </g>
                <g id="arrowDown" xlink:href="#dirArrow" transform="rotate(180) translate(-30 -48)" onmousedown="handlePan(0,1)">
                  <use xlink:href="#rim" fill="#404040">
                        <set attributeName="fill" to="#808080" begin="arrowDown.mouseover" end="arrowDown.mouseout"/>
                  </use>
                  <path fill="none" stroke="white" stroke-width="1.5" d="M0,-3.0v7 M-2.5,-0.5L0,-3.0L2.5,-0.5"/>
                </g>
                <g id="arrowLeft" xlink:href="#dirArrow" transform="rotate(270) translate(-36 17)" onmousedown="handlePan(-1,0)">
                  <use xlink:href="#rim" fill="#404040">
                        <set attributeName="fill" to="#808080" begin="arrowLeft.mouseover" end="arrowLeft.mouseout"/>
                  </use>
                  <path fill="none" stroke="white" stroke-width="1.5" d="M0,-3.0v7 M-2.5,-0.5L0,-3.0L2.5,-0.5"/>
                </g>
        </g>
        <svg viewBox="0 0 15 15" width="100%" height="30px" preserveAspectRatio="xMaxYMin meet">
         <g id="arrow_out" transform="scale(0.3 0.3)">
          <a xlink:href="dot_inline_dotgraph_2_org.svg" target="_base">
           <rect id="button" ry="5" rx="5" y="6" x="6" height="38" width="38"
                fill="#f2f5e9" fill-opacity="0.5" stroke="#606060" stroke-width="1.0"/>
           <path id="arrow"
             d="M 11.500037,31.436501 C 11.940474,20.09759 22.043105,11.32322 32.158766,21.979434 L 37.068811,17.246167 C 37.068811,17.246167 37.088388,32 37.088388,32 L 22.160133,31.978069 C 22.160133,31.978069 26.997745,27.140456 26.997745,27.140456 C 18.528582,18.264221 13.291696,25.230495 11.500037,31.436501 z"
             style="fill:#404040;"/>
          </a>
         </g>
        </svg>
</svg>
