<?xml version="1.0" encoding="UTF-8" standalone="no"?>
<!DOCTYPE svg PUBLIC "-//W3C//DTD SVG 1.1//EN"
 "http://www.w3.org/Graphics/SVG/1.1/DTD/svg11.dtd">
<!-- Generated by graphviz version 2.40.1 (20161225.0304)
 -->
<!-- Title: Linear Operators Pages: 1 -->
<svg width="398pt" height="666pt"
 viewBox="0.00 0.00 398.00 666.09" xmlns="http://www.w3.org/2000/svg" xmlns:xlink="http://www.w3.org/1999/xlink">
<g id="graph0" class="graph" transform="scale(1 1) rotate(0) translate(4 662.0937)">
<title>Linear Operators</title>
<polygon fill="#ffffff" stroke="transparent" points="-4,4 -4,-662.0937 394,-662.0937 394,4 -4,4"/>
<!-- Node2 -->
<g id="node1" class="node">
<title>Node2</title>
<g id="a_node1"><a xlink:href="group__factor.html" target="_top" xlink:title="A module dedicated to the implementation and usage of the Factorizations in Ginkgo.">
<polygon fill="#ffffff" stroke="#000000" points="360.5,-601.5752 276.5,-601.5752 276.5,-582.5752 360.5,-582.5752 360.5,-601.5752"/>
<text text-anchor="middle" x="318.5" y="-589.5752" font-family="Helvetica,sans-Serif" font-size="10.00" fill="#000000">Factorizations</text>
</a>
</g>
</g>
<!-- Node4 -->
<g id="node2" class="node">
<title>Node4</title>
<g id="a_node2"><a xlink:href="group__precond.html" target="_top" xlink:title="A module dedicated to the implementation and usage of the Preconditioners in Ginkgo.">
<polygon fill="#ffffff" stroke="#000000" points="364.5,-460.5752 272.5,-460.5752 272.5,-441.5752 364.5,-441.5752 364.5,-460.5752"/>
<text text-anchor="middle" x="318.5" y="-448.5752" font-family="Helvetica,sans-Serif" font-size="10.00" fill="#000000">Preconditioners</text>
</a>
</g>
</g>
<!-- Node3 -->
<g id="node3" class="node">
<title>Node3</title>
<g id="a_node3"><a xlink:href="group__mat__formats.html" target="_top" xlink:title="A module dedicated to the implementation and usage of the various Matrix Formats in Ginkgo.">
<polygon fill="#ffffff" stroke="#000000" points="390,-319.0752 247,-319.0752 247,-289.0752 390,-289.0752 390,-319.0752"/>
<text text-anchor="start" x="255" y="-307.0752" font-family="Helvetica,sans-Serif" font-size="10.00" fill="#000000">SpMV employing different</text>
<text text-anchor="middle" x="318.5" y="-296.0752" font-family="Helvetica,sans-Serif" font-size="10.00" fill="#000000"> Matrix formats</text>
</a>
</g>
</g>
<!-- Node6 -->
<g id="node4" class="node">
<title>Node6</title>
<g id="a_node4"><a xlink:href="group__jacobi.html" target="_top" xlink:title="A module dedicated to the implementation and usage of the Jacobi Preconditioner in Ginkgo.">
<polygon fill="#ffffff" stroke="#000000" points="378,-200.5752 259,-200.5752 259,-181.5752 378,-181.5752 378,-200.5752"/>
<text text-anchor="middle" x="318.5" y="-188.5752" font-family="Helvetica,sans-Serif" font-size="10.00" fill="#000000">Jacobi Preconditioner</text>
</a>
</g>
</g>
<!-- Node1 -->
<g id="node5" class="node">
<title>Node1</title>
<g id="a_node5"><a xlink:title="A module dedicated to the implementation and usage of the Linear operators in Ginkgo.">
<polygon fill="#bfbfbf" stroke="#000000" points="98,-381.5752 0,-381.5752 0,-362.5752 98,-362.5752 98,-381.5752"/>
<text text-anchor="middle" x="49" y="-369.5752" font-family="Helvetica,sans-Serif" font-size="10.00" fill="#000000">Linear Operators</text>
</a>
</g>
</g>
<!-- Node1&#45;&gt;Node2 -->
<g id="edge1" class="edge">
<title>Node1&#45;&gt;Node2</title>
<path fill="none" stroke="#000000" d="M50.853,-391.9713C56.5996,-448.8326 76.1762,-609.9537 116,-641.0752 175.1382,-687.2905 271.4475,-626.3941 305.8171,-601.6613"/>
<polygon fill="#000000" stroke="#000000" points="54.3134,-391.3938 49.8601,-381.7803 47.3464,-392.0726 54.3134,-391.3938"/>
</g>
<!-- Node1&#45;&gt;Node2 -->
<g id="edge6" class="edge">
<title>Node1&#45;&gt;Node2</title>
<path fill="none" stroke="#ffa500" stroke-dasharray="5,2" d="M50.9277,-381.9033C56.3374,-406.7105 74.0891,-472.1514 116,-504.0752 156.7713,-535.131 182.0874,-506.436 229,-527.0752 260.9915,-541.1498 292.7312,-568.0652 308.4077,-582.4496"/>
<text text-anchor="middle" x="172.5" y="-629.0752" font-family="Helvetica,sans-Serif" font-size="10.00" fill="#000000">gko::factorization::Ic</text>
<text text-anchor="middle" x="172.5" y="-618.0752" font-family="Helvetica,sans-Serif" font-size="10.00" fill="#000000">gko::factorization::Ilu</text>
<text text-anchor="start" x="120.5" y="-607.0752" font-family="Helvetica,sans-Serif" font-size="10.00" fill="#000000">gko::factorization</text>
<text text-anchor="middle" x="172.5" y="-596.0752" font-family="Helvetica,sans-Serif" font-size="10.00" fill="#000000">::ParIc</text>
<text text-anchor="start" x="120.5" y="-585.0752" font-family="Helvetica,sans-Serif" font-size="10.00" fill="#000000">gko::factorization</text>
<text text-anchor="middle" x="172.5" y="-574.0752" font-family="Helvetica,sans-Serif" font-size="10.00" fill="#000000">::ParIct</text>
<text text-anchor="start" x="120.5" y="-563.0752" font-family="Helvetica,sans-Serif" font-size="10.00" fill="#000000">gko::factorization</text>
<text text-anchor="middle" x="172.5" y="-552.0752" font-family="Helvetica,sans-Serif" font-size="10.00" fill="#000000">::ParIlu</text>
<text text-anchor="start" x="120.5" y="-541.0752" font-family="Helvetica,sans-Serif" font-size="10.00" fill="#000000">gko::factorization</text>
<text text-anchor="middle" x="172.5" y="-530.0752" font-family="Helvetica,sans-Serif" font-size="10.00" fill="#000000">::ParIlut</text>
</g>
<!-- Node1&#45;&gt;Node4 -->
<g id="edge3" class="edge">
<title>Node1&#45;&gt;Node4</title>
<path fill="none" stroke="#000000" d="M54.2158,-391.4285C62.4432,-417.6477 81.1984,-463.4316 116,-483.0752 177.3716,-517.7161 264.9456,-479.6292 301.4774,-460.593"/>
<polygon fill="#000000" stroke="#000000" points="57.5723,-390.4363 51.4003,-381.8249 50.8551,-392.4057 57.5723,-390.4363"/>
</g>
<!-- Node1&#45;&gt;Node4 -->
<g id="edge5" class="edge">
<title>Node1&#45;&gt;Node4</title>
<path fill="none" stroke="#ffa500" stroke-dasharray="5,2" d="M98.3926,-378.4171C143.1212,-384.5037 205.4968,-393.9451 229,-402.0752 257.46,-411.9199 287.5892,-430.2976 304.6204,-441.534"/>
<text text-anchor="middle" x="172.5" y="-471.0752" font-family="Helvetica,sans-Serif" font-size="10.00" fill="#000000">gko::Preconditionable</text>
<text text-anchor="middle" x="172.5" y="-460.0752" font-family="Helvetica,sans-Serif" font-size="10.00" fill="#000000">gko::preconditioner::Ic</text>
<text text-anchor="middle" x="172.5" y="-449.0752" font-family="Helvetica,sans-Serif" font-size="10.00" fill="#000000">gko::preconditioner::Ilu</text>
<text text-anchor="start" x="116" y="-438.0752" font-family="Helvetica,sans-Serif" font-size="10.00" fill="#000000">gko::preconditioner</text>
<text text-anchor="middle" x="172.5" y="-427.0752" font-family="Helvetica,sans-Serif" font-size="10.00" fill="#000000">::Isai</text>
<text text-anchor="start" x="116" y="-416.0752" font-family="Helvetica,sans-Serif" font-size="10.00" fill="#000000">gko::preconditioner</text>
<text text-anchor="middle" x="172.5" y="-405.0752" font-family="Helvetica,sans-Serif" font-size="10.00" fill="#000000">::Jacobi</text>
</g>
<!-- Node1&#45;&gt;Node3 -->
<g id="edge2" class="edge">
<title>Node1&#45;&gt;Node3</title>
<path fill="none" stroke="#000000" d="M108.566,-374.2813C144.2794,-373.9392 190.1523,-370.5299 229,-358.0752 255.4398,-349.5985 282.2446,-331.9656 299.5339,-319.149"/>
<polygon fill="#000000" stroke="#000000" points="108.2974,-370.7816 98.3034,-374.2987 108.3093,-377.7816 108.2974,-370.7816"/>
</g>
<!-- Node1&#45;&gt;Node3 -->
<g id="edge7" class="edge">
<title>Node1&#45;&gt;Node3</title>
<path fill="none" stroke="#ffa500" stroke-dasharray="5,2" d="M50.2065,-362.3733C54.0749,-335.9508 68.8142,-262.7122 116,-233.0752 158.5291,-206.3629 181.5749,-216.5485 229,-233.0752 260.6521,-244.1053 289.5182,-271.5145 305.4825,-288.8702"/>
<text text-anchor="middle" x="172.5" y="-346.0752" font-family="Helvetica,sans-Serif" font-size="10.00" fill="#000000">gko::matrix::Coo</text>
<text text-anchor="middle" x="172.5" y="-335.0752" font-family="Helvetica,sans-Serif" font-size="10.00" fill="#000000">gko::matrix::Csr</text>
<text text-anchor="middle" x="172.5" y="-324.0752" font-family="Helvetica,sans-Serif" font-size="10.00" fill="#000000">gko::matrix::Dense</text>
<text text-anchor="middle" x="172.5" y="-313.0752" font-family="Helvetica,sans-Serif" font-size="10.00" fill="#000000">gko::matrix::Diagonal</text>
<text text-anchor="middle" x="172.5" y="-302.0752" font-family="Helvetica,sans-Serif" font-size="10.00" fill="#000000">gko::matrix::Ell</text>
<text text-anchor="middle" x="172.5" y="-291.0752" font-family="Helvetica,sans-Serif" font-size="10.00" fill="#000000">gko::matrix::Fbcsr</text>
<text text-anchor="middle" x="172.5" y="-280.0752" font-family="Helvetica,sans-Serif" font-size="10.00" fill="#000000">gko::matrix::Fft</text>
<text text-anchor="middle" x="172.5" y="-269.0752" font-family="Helvetica,sans-Serif" font-size="10.00" fill="#000000">gko::matrix::Fft2</text>
<text text-anchor="middle" x="172.5" y="-258.0752" font-family="Helvetica,sans-Serif" font-size="10.00" fill="#000000">gko::matrix::Fft3</text>
<text text-anchor="middle" x="172.5" y="-247.0752" font-family="Helvetica,sans-Serif" font-size="10.00" fill="#000000">gko::matrix::Hybrid</text>
<text text-anchor="middle" x="172.5" y="-236.0752" font-family="Helvetica,sans-Serif" font-size="10.00" fill="#000000">...</text>
</g>
<!-- Node1&#45;&gt;Node6 -->
<g id="edge8" class="edge">
<title>Node1&#45;&gt;Node6</title>
<path fill="none" stroke="#ffa500" stroke-dasharray="5,2" d="M51.1049,-362.1454C58.7295,-327.2137 86.0361,-210.9743 116,-190.0752 138.2755,-174.5385 207.4206,-178.1193 258.7488,-183.4012"/>
<text text-anchor="start" x="125" y="-204.0752" font-family="Helvetica,sans-Serif" font-size="10.00" fill="#000000">gko::preconditioner</text>
<text text-anchor="middle" x="172.5" y="-193.0752" font-family="Helvetica,sans-Serif" font-size="10.00" fill="#000000">::Jacobi</text>
</g>
<!-- Node5 -->
<g id="node6" class="node">
<title>Node5</title>
<g id="a_node6"><a xlink:href="group__solvers.html" target="_top" xlink:title="A module dedicated to the implementation and usage of the Solvers in Ginkgo.">
<polygon fill="#ffffff" stroke="#000000" points="345,-97.5752 292,-97.5752 292,-78.5752 345,-78.5752 345,-97.5752"/>
<text text-anchor="middle" x="318.5" y="-85.5752" font-family="Helvetica,sans-Serif" font-size="10.00" fill="#000000">Solvers</text>
</a>
</g>
</g>
<!-- Node1&#45;&gt;Node5 -->
<g id="edge4" class="edge">
<title>Node1&#45;&gt;Node5</title>
<path fill="none" stroke="#000000" d="M53.1287,-352.6314C63.0201,-307.7988 89.2463,-199.0991 116,-174.0752 153.949,-138.5797 181.3301,-164.7544 229,-144.0752 258.2583,-131.3829 289.0904,-110.0736 305.8403,-97.7245"/>
<polygon fill="#000000" stroke="#000000" points="49.6737,-352.0491 50.9755,-362.5636 56.5148,-353.5322 49.6737,-352.0491"/>
</g>
<!-- Node1&#45;&gt;Node5 -->
<g id="edge9" class="edge">
<title>Node1&#45;&gt;Node5</title>
<path fill="none" stroke="#ffa500" stroke-dasharray="5,2" d="M49.2531,-362.3036C50.8282,-310.0741 61.1082,-64.5284 116,-19.0752 154.6821,12.9556 181.4615,-2.8777 229,-19.0752 263.9142,-30.9713 295.8161,-62.6071 310.3006,-78.5743"/>
<text text-anchor="middle" x="172.5" y="-132.0752" font-family="Helvetica,sans-Serif" font-size="10.00" fill="#000000">gko::solver::Bicg</text>
<text text-anchor="middle" x="172.5" y="-121.0752" font-family="Helvetica,sans-Serif" font-size="10.00" fill="#000000">gko::solver::Bicgstab</text>
<text text-anchor="middle" x="172.5" y="-110.0752" font-family="Helvetica,sans-Serif" font-size="10.00" fill="#000000">gko::solver::CbGmres</text>
<text text-anchor="middle" x="172.5" y="-99.0752" font-family="Helvetica,sans-Serif" font-size="10.00" fill="#000000">gko::solver::Cg</text>
<text text-anchor="middle" x="172.5" y="-88.0752" font-family="Helvetica,sans-Serif" font-size="10.00" fill="#000000">gko::solver::Cgs</text>
<text text-anchor="middle" x="172.5" y="-77.0752" font-family="Helvetica,sans-Serif" font-size="10.00" fill="#000000">gko::solver::Fcg</text>
<text text-anchor="middle" x="172.5" y="-66.0752" font-family="Helvetica,sans-Serif" font-size="10.00" fill="#000000">gko::solver::Gmres</text>
<text text-anchor="middle" x="172.5" y="-55.0752" font-family="Helvetica,sans-Serif" font-size="10.00" fill="#000000">gko::solver::Idr</text>
<text text-anchor="middle" x="172.5" y="-44.0752" font-family="Helvetica,sans-Serif" font-size="10.00" fill="#000000">gko::solver::Ir</text>
<text text-anchor="middle" x="172.5" y="-33.0752" font-family="Helvetica,sans-Serif" font-size="10.00" fill="#000000">gko::solver::LowerTrs</text>
<text text-anchor="middle" x="172.5" y="-22.0752" font-family="Helvetica,sans-Serif" font-size="10.00" fill="#000000">...</text>
</g>
</g>
</svg>
