<?xml version="1.0" encoding="UTF-8" standalone="no"?>
<!DOCTYPE svg PUBLIC "-//W3C//DTD SVG 1.1//EN"
 "http://www.w3.org/Graphics/SVG/1.1/DTD/svg11.dtd">
<!-- Generated by graphviz version 2.40.1 (20161225.0304)
 -->
<!-- Title: BatchLinOp Pages: 1 -->
<svg width="401pt" height="131pt"
 viewBox="0.00 0.00 401.00 130.66" xmlns="http://www.w3.org/2000/svg" xmlns:xlink="http://www.w3.org/1999/xlink">
<g id="graph0" class="graph" transform="scale(1 1) rotate(0) translate(4 126.6627)">
<title>BatchLinOp</title>
<polygon fill="#ffffff" stroke="transparent" points="-4,4 -4,-126.6627 397,-126.6627 397,4 -4,4"/>
<!-- Node1 -->
<g id="node1" class="node">
<title>Node1</title>
<g id="a_node1"><a xlink:title=" ">
<polygon fill="#bfbfbf" stroke="#000000" points="72,-68.1627 0,-68.1627 0,-49.1627 72,-49.1627 72,-68.1627"/>
<text text-anchor="middle" x="36" y="-56.1627" font-family="Helvetica,sans-Serif" font-size="10.00" fill="#000000">BatchLinOp</text>
</a>
</g>
</g>
<!-- Node2 -->
<g id="node2" class="node">
<title>Node2</title>
<g id="a_node2"><a xlink:href="group__mat__formats.html" target="_top" xlink:title="A module dedicated to the implementation and usage of the various Matrix Formats in Ginkgo.">
<polygon fill="#ffffff" stroke="#000000" points="393,-118.6627 250,-118.6627 250,-88.6627 393,-88.6627 393,-118.6627"/>
<text text-anchor="start" x="258" y="-106.6627" font-family="Helvetica,sans-Serif" font-size="10.00" fill="#000000">SpMV employing different</text>
<text text-anchor="middle" x="321.5" y="-95.6627" font-family="Helvetica,sans-Serif" font-size="10.00" fill="#000000"> Matrix formats</text>
</a>
</g>
</g>
<!-- Node1&#45;&gt;Node2 -->
<g id="edge1" class="edge">
<title>Node1&#45;&gt;Node2</title>
<path fill="none" stroke="#ffa500" stroke-dasharray="5,2" d="M54.4971,-68.2209C64.7011,-73.0591 77.7532,-78.5525 90,-81.6627 142.5319,-95.0037 203.6317,-100.4025 249.8664,-102.5202"/>
<text text-anchor="middle" x="161" y="-114.6627" font-family="Helvetica,sans-Serif" font-size="10.00" fill="#000000">gko::matrix::BatchCsr</text>
<text text-anchor="middle" x="161" y="-103.6627" font-family="Helvetica,sans-Serif" font-size="10.00" fill="#000000">gko::matrix::BatchDense</text>
</g>
<!-- Node3 -->
<g id="node3" class="node">
<title>Node3</title>
<g id="a_node3"><a xlink:href="group__solvers.html" target="_top" xlink:title="A module dedicated to the implementation and usage of the Solvers in Ginkgo.">
<polygon fill="#ffffff" stroke="#000000" points="348,-24.1627 295,-24.1627 295,-5.1627 348,-5.1627 348,-24.1627"/>
<text text-anchor="middle" x="321.5" y="-12.1627" font-family="Helvetica,sans-Serif" font-size="10.00" fill="#000000">Solvers</text>
</a>
</g>
</g>
<!-- Node1&#45;&gt;Node3 -->
<g id="edge2" class="edge">
<title>Node1&#45;&gt;Node3</title>
<path fill="none" stroke="#ffa500" stroke-dasharray="5,2" d="M44.3717,-48.9044C54.1,-38.3866 71.2345,-22.267 90,-15.6627 160.5163,9.1546 250.7708,-1.5629 294.8564,-9.2795"/>
<text text-anchor="middle" x="161" y="-73.6627" font-family="Helvetica,sans-Serif" font-size="10.00" fill="#000000">gko::solver::BatchBicgstab</text>
<text text-anchor="middle" x="161" y="-62.6627" font-family="Helvetica,sans-Serif" font-size="10.00" fill="#000000">gko::solver::BatchCg</text>
<text text-anchor="middle" x="161" y="-51.6627" font-family="Helvetica,sans-Serif" font-size="10.00" fill="#000000">gko::solver::BatchDirect</text>
<text text-anchor="middle" x="161" y="-40.6627" font-family="Helvetica,sans-Serif" font-size="10.00" fill="#000000">gko::solver::BatchGmres</text>
<text text-anchor="middle" x="161" y="-29.6627" font-family="Helvetica,sans-Serif" font-size="10.00" fill="#000000">gko::solver::BatchIdr</text>
<text text-anchor="middle" x="161" y="-18.6627" font-family="Helvetica,sans-Serif" font-size="10.00" fill="#000000">gko::solver::BatchRichardson</text>
</g>
</g>
</svg>
