<?xml version="1.0" encoding="UTF-8" standalone="no"?>
<!DOCTYPE svg PUBLIC "-//W3C//DTD SVG 1.1//EN"
 "http://www.w3.org/Graphics/SVG/1.1/DTD/svg11.dtd">
<!-- Generated by graphviz version 2.40.1 (20161225.0304)
 -->
<!-- Title: SpMV employing different Matrix formats Pages: 1 -->
<svg width="419pt" height="226pt"
 viewBox="0.00 0.00 419.00 225.50" xmlns="http://www.w3.org/2000/svg" xmlns:xlink="http://www.w3.org/1999/xlink">
<g id="graph0" class="graph" transform="scale(1 1) rotate(0) translate(4 221.5)">
<title>SpMV employing different Matrix formats</title>
<polygon fill="#ffffff" stroke="transparent" points="-4,4 -4,-221.5 415,-221.5 415,4 -4,4"/>
<!-- Node3 -->
<g id="node1" class="node">
<title>Node3</title>
<g id="a_node1"><a xlink:href="group__BatchLinOp.html" target="_top" xlink:title=" ">
<polygon fill="#ffffff" stroke="#000000" points="398,-179 326,-179 326,-160 398,-160 398,-179"/>
<text text-anchor="middle" x="362" y="-167" font-family="Helvetica,sans-Serif" font-size="10.00" fill="#000000">BatchLinOp</text>
</a>
</g>
</g>
<!-- Node1 -->
<g id="node2" class="node">
<title>Node1</title>
<g id="a_node2"><a xlink:title="A module dedicated to the implementation and usage of the various Matrix Formats in Ginkgo.">
<polygon fill="#bfbfbf" stroke="#000000" points="143,-40.5 0,-40.5 0,-10.5 143,-10.5 143,-40.5"/>
<text text-anchor="start" x="8" y="-28.5" font-family="Helvetica,sans-Serif" font-size="10.00" fill="#000000">SpMV employing different</text>
<text text-anchor="middle" x="71.5" y="-17.5" font-family="Helvetica,sans-Serif" font-size="10.00" fill="#000000"> Matrix formats</text>
</a>
</g>
</g>
<!-- Node1&#45;&gt;Node3 -->
<g id="edge2" class="edge">
<title>Node1&#45;&gt;Node3</title>
<path fill="none" stroke="#ffa500" stroke-dasharray="5,2" d="M77.994,-40.656C90.0854,-66.8233 118.7184,-120.0183 161,-144.5 212.4293,-174.2784 283.5529,-175.6352 325.955,-173.1181"/>
<text text-anchor="middle" x="228" y="-209.5" font-family="Helvetica,sans-Serif" font-size="10.00" fill="#000000">gko::matrix::BatchCsr</text>
<text text-anchor="middle" x="228" y="-198.5" font-family="Helvetica,sans-Serif" font-size="10.00" fill="#000000">gko::matrix::BatchDense</text>
<text text-anchor="middle" x="228" y="-187.5" font-family="Helvetica,sans-Serif" font-size="10.00" fill="#000000">gko::matrix::BatchDiagonal</text>
<text text-anchor="middle" x="228" y="-176.5" font-family="Helvetica,sans-Serif" font-size="10.00" fill="#000000">gko::matrix::BatchEll</text>
</g>
<!-- Node2 -->
<g id="node3" class="node">
<title>Node2</title>
<g id="a_node3"><a xlink:href="group__LinOp.html" target="_top" xlink:title="A module dedicated to the implementation and usage of the Linear operators in Ginkgo.">
<polygon fill="#ffffff" stroke="#000000" points="411,-19 313,-19 313,0 411,0 411,-19"/>
<text text-anchor="middle" x="362" y="-7" font-family="Helvetica,sans-Serif" font-size="10.00" fill="#000000">Linear Operators</text>
</a>
</g>
</g>
<!-- Node1&#45;&gt;Node2 -->
<g id="edge3" class="edge">
<title>Node1&#45;&gt;Node2</title>
<path fill="none" stroke="#ffa500" stroke-dasharray="5,2" d="M143.309,-21.5449C196.0668,-18.6392 266.3665,-14.7672 312.849,-12.2071"/>
<text text-anchor="middle" x="228" y="-132.5" font-family="Helvetica,sans-Serif" font-size="10.00" fill="#000000">gko::matrix::Coo</text>
<text text-anchor="middle" x="228" y="-121.5" font-family="Helvetica,sans-Serif" font-size="10.00" fill="#000000">gko::matrix::Csr</text>
<text text-anchor="middle" x="228" y="-110.5" font-family="Helvetica,sans-Serif" font-size="10.00" fill="#000000">gko::matrix::Dense</text>
<text text-anchor="middle" x="228" y="-99.5" font-family="Helvetica,sans-Serif" font-size="10.00" fill="#000000">gko::matrix::Diagonal</text>
<text text-anchor="middle" x="228" y="-88.5" font-family="Helvetica,sans-Serif" font-size="10.00" fill="#000000">gko::matrix::Ell</text>
<text text-anchor="middle" x="228" y="-77.5" font-family="Helvetica,sans-Serif" font-size="10.00" fill="#000000">gko::matrix::Fbcsr</text>
<text text-anchor="middle" x="228" y="-66.5" font-family="Helvetica,sans-Serif" font-size="10.00" fill="#000000">gko::matrix::Fft</text>
<text text-anchor="middle" x="228" y="-55.5" font-family="Helvetica,sans-Serif" font-size="10.00" fill="#000000">gko::matrix::Fft2</text>
<text text-anchor="middle" x="228" y="-44.5" font-family="Helvetica,sans-Serif" font-size="10.00" fill="#000000">gko::matrix::Fft3</text>
<text text-anchor="middle" x="228" y="-33.5" font-family="Helvetica,sans-Serif" font-size="10.00" fill="#000000">gko::matrix::Hybrid</text>
<text text-anchor="middle" x="228" y="-22.5" font-family="Helvetica,sans-Serif" font-size="10.00" fill="#000000">...</text>
</g>
<!-- Node2&#45;&gt;Node1 -->
<g id="edge1" class="edge">
<title>Node2&#45;&gt;Node1</title>
<path fill="none" stroke="#000000" d="M302.7735,-6.7049C300.1468,-6.6261 297.5464,-6.557 295,-6.5 235.4593,-5.1677 220.2301,-.2823 161,-6.5 152.3113,-7.4121 143.2249,-8.8093 134.3127,-10.441"/>
<polygon fill="#000000" stroke="#000000" points="302.8624,-10.2099 312.9756,-7.0516 303.1002,-3.2139 302.8624,-10.2099"/>
</g>
</g>
</svg>
