<?xml version="1.0" encoding="UTF-8" standalone="no"?>
<!DOCTYPE svg PUBLIC "-//W3C//DTD SVG 1.1//EN"
 "http://www.w3.org/Graphics/SVG/1.1/DTD/svg11.dtd">
<!-- Generated by graphviz version 2.40.1 (20161225.0304)
 -->
<!-- Title: Graphical Class Hierarchy Pages: 1 -->
<svg width="308pt" height="165pt"
 viewBox="0.00 0.00 308.00 164.50" xmlns="http://www.w3.org/2000/svg" xmlns:xlink="http://www.w3.org/1999/xlink">
<g id="graph0" class="graph" transform="scale(1 1) rotate(0) translate(4 160.5)">
<title>Graphical Class Hierarchy</title>
<polygon fill="#ffffff" stroke="transparent" points="-4,4 -4,-160.5 304,-160.5 304,4 -4,4"/>
<!-- Node0 -->
<g id="node1" class="node">
<title>Node0</title>
<g id="a_node1"><a xlink:href="classgko_1_1log_1_1Logger.html" target="_top" xlink:title=" ">
<polygon fill="#ffffff" stroke="#000000" points="0,-60.5 0,-79.5 95,-79.5 95,-60.5 0,-60.5"/>
<text text-anchor="middle" x="47.5" y="-67.5" font-family="Helvetica,sans-Serif" font-size="10.00" fill="#000000">gko::log::Logger</text>
</a>
</g>
</g>
<!-- Node1 -->
<g id="node2" class="node">
<title>Node1</title>
<g id="a_node2"><a xlink:href="classgko_1_1log_1_1BatchConvergence.html" target="_top" xlink:title="Logs the final residuals and iteration counts for a batch solver.">
<polygon fill="#ffffff" stroke="#000000" points="139,-126 139,-156 292,-156 292,-126 139,-126"/>
<text text-anchor="start" x="147" y="-144" font-family="Helvetica,sans-Serif" font-size="10.00" fill="#000000">gko::log::BatchConvergence</text>
<text text-anchor="middle" x="215.5" y="-133" font-family="Helvetica,sans-Serif" font-size="10.00" fill="#000000">&lt; ValueType &gt;</text>
</a>
</g>
</g>
<!-- Node0&#45;&gt;Node1 -->
<g id="edge1" class="edge">
<title>Node0&#45;&gt;Node1</title>
<path fill="none" stroke="#191970" d="M70.8851,-85.1405C87.223,-95.2176 109.8193,-108.1769 131,-117 138.8836,-120.284 147.3615,-123.2797 155.7966,-125.9561"/>
<polygon fill="#191970" stroke="#191970" points="72.3774,-81.9448 62.0468,-79.5933 68.6562,-87.8738 72.3774,-81.9448"/>
</g>
<!-- Node2 -->
<g id="node3" class="node">
<title>Node2</title>
<g id="a_node3"><a xlink:href="classgko_1_1log_1_1Convergence.html" target="_top" xlink:title="Convergence is a Logger which logs data strictly from the criterion_check_completed event.">
<polygon fill="#ffffff" stroke="#000000" points="153,-77 153,-107 278,-107 278,-77 153,-77"/>
<text text-anchor="start" x="161" y="-95" font-family="Helvetica,sans-Serif" font-size="10.00" fill="#000000">gko::log::Convergence</text>
<text text-anchor="middle" x="215.5" y="-84" font-family="Helvetica,sans-Serif" font-size="10.00" fill="#000000">&lt; ValueType &gt;</text>
</a>
</g>
</g>
<!-- Node0&#45;&gt;Node2 -->
<g id="edge2" class="edge">
<title>Node0&#45;&gt;Node2</title>
<path fill="none" stroke="#191970" d="M105.5479,-77.6015C120.8402,-79.6041 137.405,-81.7733 152.9243,-83.8056"/>
<polygon fill="#191970" stroke="#191970" points="105.5625,-74.0736 95.1927,-76.2455 104.6535,-81.0144 105.5625,-74.0736"/>
</g>
<!-- Node3 -->
<g id="node4" class="node">
<title>Node3</title>
<g id="a_node4"><a xlink:href="classgko_1_1log_1_1Record.html" target="_top" xlink:title="Record is a Logger which logs every event to an object.">
<polygon fill="#ffffff" stroke="#000000" points="168,-38.5 168,-57.5 263,-57.5 263,-38.5 168,-38.5"/>
<text text-anchor="middle" x="215.5" y="-45.5" font-family="Helvetica,sans-Serif" font-size="10.00" fill="#000000">gko::log::Record</text>
</a>
</g>
</g>
<!-- Node0&#45;&gt;Node3 -->
<g id="edge3" class="edge">
<title>Node0&#45;&gt;Node3</title>
<path fill="none" stroke="#191970" d="M105.3274,-62.4274C125.7636,-59.7512 148.496,-56.7743 167.979,-54.223"/>
<polygon fill="#191970" stroke="#191970" points="104.6535,-58.9856 95.1927,-63.7545 105.5625,-65.9264 104.6535,-58.9856"/>
</g>
<!-- Node4 -->
<g id="node5" class="node">
<title>Node4</title>
<g id="a_node5"><a xlink:href="classgko_1_1log_1_1Stream.html" target="_top" xlink:title="Stream is a Logger which logs every event to a stream.">
<polygon fill="#ffffff" stroke="#000000" points="131,-.5 131,-19.5 300,-19.5 300,-.5 131,-.5"/>
<text text-anchor="middle" x="215.5" y="-7.5" font-family="Helvetica,sans-Serif" font-size="10.00" fill="#000000">gko::log::Stream&lt; ValueType &gt;</text>
</a>
</g>
</g>
<!-- Node0&#45;&gt;Node4 -->
<g id="edge4" class="edge">
<title>Node0&#45;&gt;Node4</title>
<path fill="none" stroke="#191970" d="M72.8066,-55.6277C89.0235,-46.9125 110.7549,-36.1342 131,-29 141.4944,-25.3018 152.9823,-22.1541 164.0125,-19.5476"/>
<polygon fill="#191970" stroke="#191970" points="71.039,-52.6051 63.9484,-60.4775 74.4007,-58.7451 71.039,-52.6051"/>
</g>
</g>
</svg>
