<?xml version="1.0" encoding="UTF-8" standalone="no"?>
<!DOCTYPE svg PUBLIC "-//W3C//DTD SVG 1.1//EN"
 "http://www.w3.org/Graphics/SVG/1.1/DTD/svg11.dtd">
<!-- Generated by graphviz version 2.40.1 (20161225.0304)
 -->
<!-- Title: Graphical Class Hierarchy Pages: 1 -->
<svg width="390pt" height="2010pt"
 viewBox="0.00 0.00 390.00 2010.00" xmlns="http://www.w3.org/2000/svg" xmlns:xlink="http://www.w3.org/1999/xlink">
<g id="graph0" class="graph" transform="scale(1 1) rotate(0) translate(4 2006)">
<title>Graphical Class Hierarchy</title>
<polygon fill="#ffffff" stroke="transparent" points="-4,4 -4,-2006 386,-2006 386,4 -4,4"/>
<!-- Node0 -->
<g id="node1" class="node">
<title>Node0</title>
<g id="a_node1"><a xlink:href="classgko_1_1enable__parameters__type.html" target="_top" xlink:title=" ">
<polygon fill="#ffffff" stroke="#000000" points="0,-914.5 0,-955.5 141,-955.5 141,-914.5 0,-914.5"/>
<text text-anchor="start" x="8" y="-943.5" font-family="Helvetica,sans-Serif" font-size="10.00" fill="#000000">gko::enable_parameters</text>
<text text-anchor="start" x="8" y="-932.5" font-family="Helvetica,sans-Serif" font-size="10.00" fill="#000000">_type&lt; parameters_type,</text>
<text text-anchor="middle" x="70.5" y="-921.5" font-family="Helvetica,sans-Serif" font-size="10.00" fill="#000000"> Factory &gt;</text>
</a>
</g>
</g>
<!-- Node1 -->
<g id="node2" class="node">
<title>Node1</title>
<g id="a_node2"><a xlink:href="structgko_1_1factorization_1_1Ic_1_1parameters__type.html" target="_top" xlink:title=" ">
<polygon fill="#ffffff" stroke="#000000" points="206,-1960.5 206,-2001.5 353,-2001.5 353,-1960.5 206,-1960.5"/>
<text text-anchor="start" x="214" y="-1989.5" font-family="Helvetica,sans-Serif" font-size="10.00" fill="#000000">gko::factorization</text>
<text text-anchor="start" x="214" y="-1978.5" font-family="Helvetica,sans-Serif" font-size="10.00" fill="#000000">::Ic&lt; ValueType, IndexType</text>
<text text-anchor="middle" x="279.5" y="-1967.5" font-family="Helvetica,sans-Serif" font-size="10.00" fill="#000000"> &gt;::parameters_type</text>
</a>
</g>
</g>
<!-- Node0&#45;&gt;Node1 -->
<g id="edge1" class="edge">
<title>Node0&#45;&gt;Node1</title>
<path fill="none" stroke="#191970" d="M71.7184,-965.9947C78.3538,-1128.0427 112.239,-1873.3682 177,-1951 184.6016,-1960.1123 194.8086,-1966.5435 205.8432,-1971.0645"/>
<polygon fill="#191970" stroke="#191970" points="75.2059,-965.6138 71.3041,-955.7636 68.2117,-965.897 75.2059,-965.6138"/>
</g>
<!-- Node2 -->
<g id="node3" class="node">
<title>Node2</title>
<g id="a_node3"><a xlink:href="structgko_1_1factorization_1_1Ilu_1_1parameters__type.html" target="_top" xlink:title=" ">
<polygon fill="#ffffff" stroke="#000000" points="204,-1900.5 204,-1941.5 355,-1941.5 355,-1900.5 204,-1900.5"/>
<text text-anchor="start" x="212" y="-1929.5" font-family="Helvetica,sans-Serif" font-size="10.00" fill="#000000">gko::factorization</text>
<text text-anchor="start" x="212" y="-1918.5" font-family="Helvetica,sans-Serif" font-size="10.00" fill="#000000">::Ilu&lt; ValueType, IndexType</text>
<text text-anchor="middle" x="279.5" y="-1907.5" font-family="Helvetica,sans-Serif" font-size="10.00" fill="#000000"> &gt;::parameters_type</text>
</a>
</g>
</g>
<!-- Node0&#45;&gt;Node2 -->
<g id="edge2" class="edge">
<title>Node0&#45;&gt;Node2</title>
<path fill="none" stroke="#191970" d="M71.9391,-966.1254C79.4379,-1122.5714 116.0411,-1818.407 177,-1891 184.1542,-1899.5196 193.5854,-1905.6936 203.8332,-1910.1534"/>
<polygon fill="#191970" stroke="#191970" points="75.4197,-965.6323 71.4495,-955.8095 68.4276,-965.9642 75.4197,-965.6323"/>
</g>
<!-- Node3 -->
<g id="node4" class="node">
<title>Node3</title>
<g id="a_node4"><a xlink:href="structgko_1_1factorization_1_1ParIc_1_1parameters__type.html" target="_top" xlink:title=" ">
<polygon fill="#ffffff" stroke="#000000" points="194.5,-1840.5 194.5,-1881.5 364.5,-1881.5 364.5,-1840.5 194.5,-1840.5"/>
<text text-anchor="start" x="202.5" y="-1869.5" font-family="Helvetica,sans-Serif" font-size="10.00" fill="#000000">gko::factorization</text>
<text text-anchor="start" x="202.5" y="-1858.5" font-family="Helvetica,sans-Serif" font-size="10.00" fill="#000000">::ParIc&lt; ValueType,</text>
<text text-anchor="middle" x="279.5" y="-1847.5" font-family="Helvetica,sans-Serif" font-size="10.00" fill="#000000"> IndexType &gt;::parameters_type</text>
</a>
</g>
</g>
<!-- Node0&#45;&gt;Node3 -->
<g id="edge3" class="edge">
<title>Node0&#45;&gt;Node3</title>
<path fill="none" stroke="#191970" d="M72.1795,-966.0626C80.5681,-1116.332 119.8107,-1763.403 177,-1831 181.9101,-1836.8037 187.8766,-1841.5179 194.4351,-1845.3427"/>
<polygon fill="#191970" stroke="#191970" points="75.655,-965.5227 71.6078,-955.7314 68.6657,-965.9095 75.655,-965.5227"/>
</g>
<!-- Node4 -->
<g id="node5" class="node">
<title>Node4</title>
<g id="a_node5"><a xlink:href="structgko_1_1factorization_1_1ParIct_1_1parameters__type.html" target="_top" xlink:title=" ">
<polygon fill="#ffffff" stroke="#000000" points="194.5,-1780.5 194.5,-1821.5 364.5,-1821.5 364.5,-1780.5 194.5,-1780.5"/>
<text text-anchor="start" x="202.5" y="-1809.5" font-family="Helvetica,sans-Serif" font-size="10.00" fill="#000000">gko::factorization</text>
<text text-anchor="start" x="202.5" y="-1798.5" font-family="Helvetica,sans-Serif" font-size="10.00" fill="#000000">::ParIct&lt; ValueType,</text>
<text text-anchor="middle" x="279.5" y="-1787.5" font-family="Helvetica,sans-Serif" font-size="10.00" fill="#000000"> IndexType &gt;::parameters_type</text>
</a>
</g>
</g>
<!-- Node0&#45;&gt;Node4 -->
<g id="edge4" class="edge">
<title>Node0&#45;&gt;Node4</title>
<path fill="none" stroke="#191970" d="M72.4401,-965.7952C81.7435,-1109.3303 123.5476,-1708.3556 177,-1771 181.9344,-1776.783 187.9174,-1781.4831 194.4866,-1785.2989"/>
<polygon fill="#191970" stroke="#191970" points="75.9141,-965.2768 71.7795,-955.522 68.9285,-965.726 75.9141,-965.2768"/>
</g>
<!-- Node5 -->
<g id="node6" class="node">
<title>Node5</title>
<g id="a_node6"><a xlink:href="structgko_1_1factorization_1_1ParIlu_1_1parameters__type.html" target="_top" xlink:title=" ">
<polygon fill="#ffffff" stroke="#000000" points="194.5,-1720.5 194.5,-1761.5 364.5,-1761.5 364.5,-1720.5 194.5,-1720.5"/>
<text text-anchor="start" x="202.5" y="-1749.5" font-family="Helvetica,sans-Serif" font-size="10.00" fill="#000000">gko::factorization</text>
<text text-anchor="start" x="202.5" y="-1738.5" font-family="Helvetica,sans-Serif" font-size="10.00" fill="#000000">::ParIlu&lt; ValueType,</text>
<text text-anchor="middle" x="279.5" y="-1727.5" font-family="Helvetica,sans-Serif" font-size="10.00" fill="#000000"> IndexType &gt;::parameters_type</text>
</a>
</g>
</g>
<!-- Node0&#45;&gt;Node5 -->
<g id="edge5" class="edge">
<title>Node0&#45;&gt;Node5</title>
<path fill="none" stroke="#191970" d="M72.7549,-965.7578C83.0591,-1102.7696 127.3052,-1653.3271 177,-1711 181.8413,-1716.6186 187.6722,-1721.2138 194.0652,-1724.9682"/>
<polygon fill="#191970" stroke="#191970" points="76.2281,-965.2659 71.993,-955.5543 69.2475,-965.7872 76.2281,-965.2659"/>
</g>
<!-- Node6 -->
<g id="node7" class="node">
<title>Node6</title>
<g id="a_node7"><a xlink:href="structgko_1_1factorization_1_1ParIlut_1_1parameters__type.html" target="_top" xlink:title=" ">
<polygon fill="#ffffff" stroke="#000000" points="194.5,-1660.5 194.5,-1701.5 364.5,-1701.5 364.5,-1660.5 194.5,-1660.5"/>
<text text-anchor="start" x="202.5" y="-1689.5" font-family="Helvetica,sans-Serif" font-size="10.00" fill="#000000">gko::factorization</text>
<text text-anchor="start" x="202.5" y="-1678.5" font-family="Helvetica,sans-Serif" font-size="10.00" fill="#000000">::ParIlut&lt; ValueType,</text>
<text text-anchor="middle" x="279.5" y="-1667.5" font-family="Helvetica,sans-Serif" font-size="10.00" fill="#000000"> IndexType &gt;::parameters_type</text>
</a>
</g>
</g>
<!-- Node0&#45;&gt;Node6 -->
<g id="edge6" class="edge">
<title>Node0&#45;&gt;Node6</title>
<path fill="none" stroke="#191970" d="M70.8156,-965.8968C72.7015,-1089.455 85.8281,-1546.3891 177,-1651 181.8729,-1656.5912 187.7255,-1661.1676 194.1326,-1664.9098"/>
<polygon fill="#191970" stroke="#191970" points="74.3118,-965.5899 70.6737,-955.6393 67.3125,-965.6868 74.3118,-965.5899"/>
</g>
<!-- Node7 -->
<g id="node8" class="node">
<title>Node7</title>
<g id="a_node8"><a xlink:href="structgko_1_1multigrid_1_1AmgxPgm_1_1parameters__type.html" target="_top" xlink:title=" ">
<polygon fill="#ffffff" stroke="#000000" points="209,-1600.5 209,-1641.5 350,-1641.5 350,-1600.5 209,-1600.5"/>
<text text-anchor="start" x="217" y="-1629.5" font-family="Helvetica,sans-Serif" font-size="10.00" fill="#000000">gko::multigrid::AmgxPgm</text>
<text text-anchor="start" x="217" y="-1618.5" font-family="Helvetica,sans-Serif" font-size="10.00" fill="#000000">&lt; ValueType, IndexType</text>
<text text-anchor="middle" x="279.5" y="-1607.5" font-family="Helvetica,sans-Serif" font-size="10.00" fill="#000000"> &gt;::parameters_type</text>
</a>
</g>
</g>
<!-- Node0&#45;&gt;Node7 -->
<g id="edge7" class="edge">
<title>Node0&#45;&gt;Node7</title>
<path fill="none" stroke="#191970" d="M71.2699,-965.5739C74.8159,-1082.0386 93.2072,-1496.1354 177,-1591 185.4697,-1600.5888 196.82,-1607.188 208.8828,-1611.7127"/>
<polygon fill="#191970" stroke="#191970" points="74.7679,-965.4497 70.9797,-955.5553 67.7709,-965.6525 74.7679,-965.4497"/>
</g>
<!-- Node8 -->
<g id="node9" class="node">
<title>Node8</title>
<g id="a_node9"><a xlink:href="structgko_1_1preconditioner_1_1Ic_1_1parameters__type.html" target="_top" xlink:title=" ">
<polygon fill="#ffffff" stroke="#000000" points="201.5,-1540.5 201.5,-1581.5 357.5,-1581.5 357.5,-1540.5 201.5,-1540.5"/>
<text text-anchor="start" x="209.5" y="-1569.5" font-family="Helvetica,sans-Serif" font-size="10.00" fill="#000000">gko::preconditioner</text>
<text text-anchor="start" x="209.5" y="-1558.5" font-family="Helvetica,sans-Serif" font-size="10.00" fill="#000000">::Ic&lt; LSolverType, IndexType</text>
<text text-anchor="middle" x="279.5" y="-1547.5" font-family="Helvetica,sans-Serif" font-size="10.00" fill="#000000"> &gt;::parameters_type</text>
</a>
</g>
</g>
<!-- Node0&#45;&gt;Node8 -->
<g id="edge8" class="edge">
<title>Node0&#45;&gt;Node8</title>
<path fill="none" stroke="#191970" d="M71.8206,-965.6025C77.1577,-1075.1743 100.6456,-1445.9278 177,-1531 183.6878,-1538.4514 192.1149,-1544.0941 201.2499,-1548.3596"/>
<polygon fill="#191970" stroke="#191970" points="75.3136,-965.3695 71.3465,-955.5454 68.3213,-965.6991 75.3136,-965.3695"/>
</g>
<!-- Node9 -->
<g id="node10" class="node">
<title>Node9</title>
<g id="a_node10"><a xlink:href="structgko_1_1preconditioner_1_1Ilu_1_1parameters__type.html" target="_top" xlink:title=" ">
<polygon fill="#ffffff" stroke="#000000" points="194.5,-1469 194.5,-1521 364.5,-1521 364.5,-1469 194.5,-1469"/>
<text text-anchor="start" x="202.5" y="-1509" font-family="Helvetica,sans-Serif" font-size="10.00" fill="#000000">gko::preconditioner</text>
<text text-anchor="start" x="202.5" y="-1498" font-family="Helvetica,sans-Serif" font-size="10.00" fill="#000000">::Ilu&lt; LSolverType,</text>
<text text-anchor="start" x="202.5" y="-1487" font-family="Helvetica,sans-Serif" font-size="10.00" fill="#000000"> USolverType, ReverseApply,</text>
<text text-anchor="middle" x="279.5" y="-1476" font-family="Helvetica,sans-Serif" font-size="10.00" fill="#000000"> IndexType &gt;::parameters_type</text>
</a>
</g>
</g>
<!-- Node0&#45;&gt;Node9 -->
<g id="edge9" class="edge">
<title>Node0&#45;&gt;Node9</title>
<path fill="none" stroke="#191970" d="M72.8119,-965.6786C80.9733,-1066.2576 111.5376,-1383.8748 177,-1459 181.9563,-1464.6879 187.8662,-1469.4772 194.3107,-1473.5099"/>
<polygon fill="#191970" stroke="#191970" points="76.2899,-965.2619 72.0084,-955.5708 69.3119,-965.8167 76.2899,-965.2619"/>
</g>
<!-- Node10 -->
<g id="node11" class="node">
<title>Node10</title>
<g id="a_node11"><a xlink:href="structgko_1_1preconditioner_1_1Isai_1_1parameters__type.html" target="_top" xlink:title=" ">
<polygon fill="#ffffff" stroke="#000000" points="194.5,-1408.5 194.5,-1449.5 364.5,-1449.5 364.5,-1408.5 194.5,-1408.5"/>
<text text-anchor="start" x="202.5" y="-1437.5" font-family="Helvetica,sans-Serif" font-size="10.00" fill="#000000">gko::preconditioner</text>
<text text-anchor="start" x="202.5" y="-1426.5" font-family="Helvetica,sans-Serif" font-size="10.00" fill="#000000">::Isai&lt; IsaiType, ValueType,</text>
<text text-anchor="middle" x="279.5" y="-1415.5" font-family="Helvetica,sans-Serif" font-size="10.00" fill="#000000"> IndexType &gt;::parameters_type</text>
</a>
</g>
</g>
<!-- Node0&#45;&gt;Node10 -->
<g id="edge10" class="edge">
<title>Node0&#45;&gt;Node10</title>
<path fill="none" stroke="#191970" d="M73.5506,-965.942C83.3508,-1059.2388 116.9479,-1335.2889 177,-1399 181.9599,-1404.2621 187.7875,-1408.6172 194.1033,-1412.2195"/>
<polygon fill="#191970" stroke="#191970" points="77.0063,-965.3319 72.4983,-955.744 70.0433,-966.0505 77.0063,-965.3319"/>
</g>
<!-- Node11 -->
<g id="node12" class="node">
<title>Node11</title>
<g id="a_node12"><a xlink:href="structgko_1_1preconditioner_1_1Jacobi_1_1parameters__type.html" target="_top" xlink:title=" ">
<polygon fill="#ffffff" stroke="#000000" points="194.5,-1348.5 194.5,-1389.5 364.5,-1389.5 364.5,-1348.5 194.5,-1348.5"/>
<text text-anchor="start" x="202.5" y="-1377.5" font-family="Helvetica,sans-Serif" font-size="10.00" fill="#000000">gko::preconditioner</text>
<text text-anchor="start" x="202.5" y="-1366.5" font-family="Helvetica,sans-Serif" font-size="10.00" fill="#000000">::Jacobi&lt; ValueType,</text>
<text text-anchor="middle" x="279.5" y="-1355.5" font-family="Helvetica,sans-Serif" font-size="10.00" fill="#000000"> IndexType &gt;::parameters_type</text>
</a>
</g>
</g>
<!-- Node0&#45;&gt;Node11 -->
<g id="edge11" class="edge">
<title>Node0&#45;&gt;Node11</title>
<path fill="none" stroke="#191970" d="M74.6362,-965.5797C86.6675,-1050.1891 124.1757,-1284.7309 177,-1339 182.0438,-1344.1818 187.9297,-1348.481 194.2841,-1352.0463"/>
<polygon fill="#191970" stroke="#191970" points="78.0877,-964.9893 73.2331,-955.5721 71.1555,-965.9613 78.0877,-964.9893"/>
</g>
<!-- Node12 -->
<g id="node13" class="node">
<title>Node12</title>
<g id="a_node13"><a xlink:href="structgko_1_1reorder_1_1Rcm_1_1parameters__type.html" target="_top" xlink:title=" ">
<polygon fill="#ffffff" stroke="#000000" points="217,-1288.5 217,-1329.5 342,-1329.5 342,-1288.5 217,-1288.5"/>
<text text-anchor="start" x="225" y="-1317.5" font-family="Helvetica,sans-Serif" font-size="10.00" fill="#000000">gko::reorder::Rcm&lt;</text>
<text text-anchor="start" x="225" y="-1306.5" font-family="Helvetica,sans-Serif" font-size="10.00" fill="#000000"> ValueType, IndexType</text>
<text text-anchor="middle" x="279.5" y="-1295.5" font-family="Helvetica,sans-Serif" font-size="10.00" fill="#000000"> &gt;::parameters_type</text>
</a>
</g>
</g>
<!-- Node0&#45;&gt;Node12 -->
<g id="edge12" class="edge">
<title>Node0&#45;&gt;Node12</title>
<path fill="none" stroke="#191970" d="M76.1899,-965.8445C90.7574,-1041.6527 131.474,-1234.1744 177,-1279 187.834,-1289.6673 202.244,-1296.5789 216.8275,-1301.0463"/>
<polygon fill="#191970" stroke="#191970" points="79.6151,-965.1208 74.3101,-955.9497 72.7381,-966.4273 79.6151,-965.1208"/>
</g>
<!-- Node13 -->
<g id="node14" class="node">
<title>Node13</title>
<g id="a_node14"><a xlink:href="structgko_1_1solver_1_1BatchBicgstab_1_1parameters__type.html" target="_top" xlink:title=" ">
<polygon fill="#ffffff" stroke="#000000" points="190.5,-1239 190.5,-1269 368.5,-1269 368.5,-1239 190.5,-1239"/>
<text text-anchor="start" x="198.5" y="-1257" font-family="Helvetica,sans-Serif" font-size="10.00" fill="#000000">gko::solver::BatchBicgstab</text>
<text text-anchor="middle" x="279.5" y="-1246" font-family="Helvetica,sans-Serif" font-size="10.00" fill="#000000">&lt; ValueType &gt;::parameters_type</text>
</a>
</g>
</g>
<!-- Node0&#45;&gt;Node13 -->
<g id="edge13" class="edge">
<title>Node0&#45;&gt;Node13</title>
<path fill="none" stroke="#191970" d="M72.3012,-965.8623C77.5449,-1026.1179 97.9501,-1159.6585 177,-1230 181.0961,-1233.6448 185.6397,-1236.765 190.4699,-1239.4334"/>
<polygon fill="#191970" stroke="#191970" points="75.7856,-965.5253 71.5113,-955.831 68.8072,-966.0749 75.7856,-965.5253"/>
</g>
<!-- Node14 -->
<g id="node15" class="node">
<title>Node14</title>
<g id="a_node15"><a xlink:href="structgko_1_1solver_1_1BatchCg_1_1parameters__type.html" target="_top" xlink:title=" ">
<polygon fill="#ffffff" stroke="#000000" points="190.5,-1190 190.5,-1220 368.5,-1220 368.5,-1190 190.5,-1190"/>
<text text-anchor="start" x="198.5" y="-1208" font-family="Helvetica,sans-Serif" font-size="10.00" fill="#000000">gko::solver::BatchCg</text>
<text text-anchor="middle" x="279.5" y="-1197" font-family="Helvetica,sans-Serif" font-size="10.00" fill="#000000">&lt; ValueType &gt;::parameters_type</text>
</a>
</g>
</g>
<!-- Node0&#45;&gt;Node14 -->
<g id="edge14" class="edge">
<title>Node0&#45;&gt;Node14</title>
<path fill="none" stroke="#191970" d="M74.7663,-965.5456C83.7561,-1017.9446 109.6801,-1124.7427 177,-1181 181.067,-1184.3987 185.5279,-1187.3354 190.2414,-1189.871"/>
<polygon fill="#191970" stroke="#191970" points="78.197,-964.8355 73.1414,-955.5246 71.2872,-965.956 78.197,-964.8355"/>
</g>
<!-- Node15 -->
<g id="node16" class="node">
<title>Node15</title>
<g id="a_node16"><a xlink:href="structgko_1_1solver_1_1BatchDirect_1_1parameters__type.html" target="_top" xlink:title=" ">
<polygon fill="#ffffff" stroke="#000000" points="190.5,-1141 190.5,-1171 368.5,-1171 368.5,-1141 190.5,-1141"/>
<text text-anchor="start" x="198.5" y="-1159" font-family="Helvetica,sans-Serif" font-size="10.00" fill="#000000">gko::solver::BatchDirect</text>
<text text-anchor="middle" x="279.5" y="-1148" font-family="Helvetica,sans-Serif" font-size="10.00" fill="#000000">&lt; ValueType &gt;::parameters_type</text>
</a>
</g>
</g>
<!-- Node0&#45;&gt;Node15 -->
<g id="edge15" class="edge">
<title>Node0&#45;&gt;Node15</title>
<path fill="none" stroke="#191970" d="M78.3706,-965.4951C91.3128,-1009.3161 121.3782,-1089.4876 177,-1132 181.5014,-1135.4405 186.4157,-1138.3997 191.5769,-1140.9437"/>
<polygon fill="#191970" stroke="#191970" points="81.6856,-964.3562 75.5837,-955.6949 74.9525,-966.2709 81.6856,-964.3562"/>
</g>
<!-- Node16 -->
<g id="node17" class="node">
<title>Node16</title>
<g id="a_node17"><a xlink:href="structgko_1_1solver_1_1BatchGmres_1_1parameters__type.html" target="_top" xlink:title=" ">
<polygon fill="#ffffff" stroke="#000000" points="190.5,-1092 190.5,-1122 368.5,-1122 368.5,-1092 190.5,-1092"/>
<text text-anchor="start" x="198.5" y="-1110" font-family="Helvetica,sans-Serif" font-size="10.00" fill="#000000">gko::solver::BatchGmres</text>
<text text-anchor="middle" x="279.5" y="-1099" font-family="Helvetica,sans-Serif" font-size="10.00" fill="#000000">&lt; ValueType &gt;::parameters_type</text>
</a>
</g>
</g>
<!-- Node0&#45;&gt;Node16 -->
<g id="edge16" class="edge">
<title>Node0&#45;&gt;Node16</title>
<path fill="none" stroke="#191970" d="M83.9438,-965.0224C100.7524,-999.0144 132.7859,-1053.4908 177,-1083 182.1686,-1086.4496 187.7722,-1089.4062 193.6043,-1091.94"/>
<polygon fill="#191970" stroke="#191970" points="86.9009,-963.0952 79.4142,-955.5986 80.5919,-966.1278 86.9009,-963.0952"/>
</g>
<!-- Node17 -->
<g id="node18" class="node">
<title>Node17</title>
<g id="a_node18"><a xlink:href="structgko_1_1solver_1_1BatchIdr_1_1parameters__type.html" target="_top" xlink:title=" ">
<polygon fill="#ffffff" stroke="#000000" points="190.5,-1043 190.5,-1073 368.5,-1073 368.5,-1043 190.5,-1043"/>
<text text-anchor="start" x="198.5" y="-1061" font-family="Helvetica,sans-Serif" font-size="10.00" fill="#000000">gko::solver::BatchIdr</text>
<text text-anchor="middle" x="279.5" y="-1050" font-family="Helvetica,sans-Serif" font-size="10.00" fill="#000000">&lt; ValueType &gt;::parameters_type</text>
</a>
</g>
</g>
<!-- Node0&#45;&gt;Node17 -->
<g id="edge17" class="edge">
<title>Node0&#45;&gt;Node17</title>
<path fill="none" stroke="#191970" d="M93.5673,-963.39C113.3797,-985.8885 143.9155,-1016.3761 177,-1034 183.4522,-1037.4371 190.3906,-1040.386 197.5056,-1042.9154"/>
<polygon fill="#191970" stroke="#191970" points="96.2019,-961.0857 87.02,-955.7994 90.9012,-965.6577 96.2019,-961.0857"/>
</g>
<!-- Node18 -->
<g id="node19" class="node">
<title>Node18</title>
<g id="a_node19"><a xlink:href="structgko_1_1solver_1_1BatchRichardson_1_1parameters__type.html" target="_top" xlink:title=" ">
<polygon fill="#ffffff" stroke="#000000" points="190.5,-994 190.5,-1024 368.5,-1024 368.5,-994 190.5,-994"/>
<text text-anchor="start" x="198.5" y="-1012" font-family="Helvetica,sans-Serif" font-size="10.00" fill="#000000">gko::solver::BatchRichardson</text>
<text text-anchor="middle" x="279.5" y="-1001" font-family="Helvetica,sans-Serif" font-size="10.00" fill="#000000">&lt; ValueType &gt;::parameters_type</text>
</a>
</g>
</g>
<!-- Node0&#45;&gt;Node18 -->
<g id="edge18" class="edge">
<title>Node0&#45;&gt;Node18</title>
<path fill="none" stroke="#191970" d="M118.287,-960.0392C136.3387,-968.7996 157.284,-978.1481 177,-985 186.495,-988.2998 196.6413,-991.2895 206.7208,-993.95"/>
<polygon fill="#191970" stroke="#191970" points="119.6498,-956.809 109.1327,-955.5281 116.5556,-963.088 119.6498,-956.809"/>
</g>
<!-- Node19 -->
<g id="node20" class="node">
<title>Node19</title>
<g id="a_node20"><a xlink:href="structgko_1_1solver_1_1Bicg_1_1parameters__type.html" target="_top" xlink:title=" ">
<polygon fill="#ffffff" stroke="#000000" points="194.5,-945 194.5,-975 364.5,-975 364.5,-945 194.5,-945"/>
<text text-anchor="start" x="202.5" y="-963" font-family="Helvetica,sans-Serif" font-size="10.00" fill="#000000">gko::solver::Bicg&lt;</text>
<text text-anchor="middle" x="279.5" y="-952" font-family="Helvetica,sans-Serif" font-size="10.00" fill="#000000"> ValueType &gt;::parameters_type</text>
</a>
</g>
</g>
<!-- Node0&#45;&gt;Node19 -->
<g id="edge19" class="edge">
<title>Node0&#45;&gt;Node19</title>
<path fill="none" stroke="#191970" d="M151.3878,-944.6756C165.4676,-946.3598 180.1508,-948.1161 194.341,-949.8135"/>
<polygon fill="#191970" stroke="#191970" points="151.6028,-941.1764 141.2579,-943.4639 150.7714,-948.1269 151.6028,-941.1764"/>
</g>
<!-- Node20 -->
<g id="node21" class="node">
<title>Node20</title>
<g id="a_node21"><a xlink:href="structgko_1_1solver_1_1Bicgstab_1_1parameters__type.html" target="_top" xlink:title=" ">
<polygon fill="#ffffff" stroke="#000000" points="190.5,-896 190.5,-926 368.5,-926 368.5,-896 190.5,-896"/>
<text text-anchor="start" x="198.5" y="-914" font-family="Helvetica,sans-Serif" font-size="10.00" fill="#000000">gko::solver::Bicgstab</text>
<text text-anchor="middle" x="279.5" y="-903" font-family="Helvetica,sans-Serif" font-size="10.00" fill="#000000">&lt; ValueType &gt;::parameters_type</text>
</a>
</g>
</g>
<!-- Node0&#45;&gt;Node20 -->
<g id="edge20" class="edge">
<title>Node0&#45;&gt;Node20</title>
<path fill="none" stroke="#191970" d="M151.3622,-925.7144C164.1132,-924.2502 177.3598,-922.729 190.2874,-921.2445"/>
<polygon fill="#191970" stroke="#191970" points="150.7933,-922.2566 141.2579,-926.8747 151.5919,-929.2109 150.7933,-922.2566"/>
</g>
<!-- Node21 -->
<g id="node22" class="node">
<title>Node21</title>
<g id="a_node22"><a xlink:href="structgko_1_1solver_1_1CbGmres_1_1parameters__type.html" target="_top" xlink:title=" ">
<polygon fill="#ffffff" stroke="#000000" points="190.5,-847 190.5,-877 368.5,-877 368.5,-847 190.5,-847"/>
<text text-anchor="start" x="198.5" y="-865" font-family="Helvetica,sans-Serif" font-size="10.00" fill="#000000">gko::solver::CbGmres</text>
<text text-anchor="middle" x="279.5" y="-854" font-family="Helvetica,sans-Serif" font-size="10.00" fill="#000000">&lt; ValueType &gt;::parameters_type</text>
</a>
</g>
</g>
<!-- Node0&#45;&gt;Node21 -->
<g id="edge21" class="edge">
<title>Node0&#45;&gt;Node21</title>
<path fill="none" stroke="#191970" d="M120.9447,-909.97C138.4172,-901.9197 158.3108,-893.4294 177,-887 187.6521,-883.3355 199.1018,-879.9888 210.351,-877.0188"/>
<polygon fill="#191970" stroke="#191970" points="119.0861,-906.9753 111.5098,-914.3813 122.0509,-913.3164 119.0861,-906.9753"/>
</g>
<!-- Node22 -->
<g id="node23" class="node">
<title>Node22</title>
<g id="a_node23"><a xlink:href="structgko_1_1solver_1_1Cg_1_1parameters__type.html" target="_top" xlink:title=" ">
<polygon fill="#ffffff" stroke="#000000" points="204.5,-798 204.5,-828 354.5,-828 354.5,-798 204.5,-798"/>
<text text-anchor="start" x="212.5" y="-816" font-family="Helvetica,sans-Serif" font-size="10.00" fill="#000000">gko::solver::Cg&lt; ValueType</text>
<text text-anchor="middle" x="279.5" y="-805" font-family="Helvetica,sans-Serif" font-size="10.00" fill="#000000"> &gt;::parameters_type</text>
</a>
</g>
</g>
<!-- Node0&#45;&gt;Node22 -->
<g id="edge22" class="edge">
<title>Node0&#45;&gt;Node22</title>
<path fill="none" stroke="#191970" d="M94.3484,-906.5907C114.2658,-884.6705 144.5552,-855.2636 177,-838 185.4894,-833.4829 194.8076,-829.7671 204.2577,-826.7139"/>
<polygon fill="#191970" stroke="#191970" points="91.5285,-904.4945 87.4948,-914.2914 96.7576,-909.1482 91.5285,-904.4945"/>
</g>
<!-- Node23 -->
<g id="node24" class="node">
<title>Node23</title>
<g id="a_node24"><a xlink:href="structgko_1_1solver_1_1Cgs_1_1parameters__type.html" target="_top" xlink:title=" ">
<polygon fill="#ffffff" stroke="#000000" points="202,-749 202,-779 357,-779 357,-749 202,-749"/>
<text text-anchor="start" x="210" y="-767" font-family="Helvetica,sans-Serif" font-size="10.00" fill="#000000">gko::solver::Cgs&lt; ValueType</text>
<text text-anchor="middle" x="279.5" y="-756" font-family="Helvetica,sans-Serif" font-size="10.00" fill="#000000"> &gt;::parameters_type</text>
</a>
</g>
</g>
<!-- Node0&#45;&gt;Node23 -->
<g id="edge23" class="edge">
<title>Node0&#45;&gt;Node23</title>
<path fill="none" stroke="#191970" d="M84.2358,-905.1808C101.2249,-871.6956 133.3378,-818.2282 177,-789 184.6106,-783.9054 193.1583,-779.8471 201.9869,-776.6148"/>
<polygon fill="#191970" stroke="#191970" points="80.9382,-903.9541 79.6502,-914.4704 87.2151,-907.0526 80.9382,-903.9541"/>
</g>
<!-- Node24 -->
<g id="node25" class="node">
<title>Node24</title>
<g id="a_node25"><a xlink:href="structgko_1_1solver_1_1Fcg_1_1parameters__type.html" target="_top" xlink:title=" ">
<polygon fill="#ffffff" stroke="#000000" points="202.5,-700 202.5,-730 356.5,-730 356.5,-700 202.5,-700"/>
<text text-anchor="start" x="210.5" y="-718" font-family="Helvetica,sans-Serif" font-size="10.00" fill="#000000">gko::solver::Fcg&lt; ValueType</text>
<text text-anchor="middle" x="279.5" y="-707" font-family="Helvetica,sans-Serif" font-size="10.00" fill="#000000"> &gt;::parameters_type</text>
</a>
</g>
</g>
<!-- Node0&#45;&gt;Node24 -->
<g id="edge24" class="edge">
<title>Node0&#45;&gt;Node24</title>
<path fill="none" stroke="#191970" d="M78.6149,-904.5417C91.7897,-861.1701 122.0607,-782.2064 177,-740 184.5532,-734.1974 193.267,-729.7206 202.3583,-726.2704"/>
<polygon fill="#191970" stroke="#191970" points="75.2237,-903.6687 75.7721,-914.2493 81.9415,-905.636 75.2237,-903.6687"/>
</g>
<!-- Node25 -->
<g id="node26" class="node">
<title>Node25</title>
<g id="a_node26"><a xlink:href="structgko_1_1solver_1_1Gmres_1_1parameters__type.html" target="_top" xlink:title=" ">
<polygon fill="#ffffff" stroke="#000000" points="190.5,-651 190.5,-681 368.5,-681 368.5,-651 190.5,-651"/>
<text text-anchor="start" x="198.5" y="-669" font-family="Helvetica,sans-Serif" font-size="10.00" fill="#000000">gko::solver::Gmres</text>
<text text-anchor="middle" x="279.5" y="-658" font-family="Helvetica,sans-Serif" font-size="10.00" fill="#000000">&lt; ValueType &gt;::parameters_type</text>
</a>
</g>
</g>
<!-- Node0&#45;&gt;Node25 -->
<g id="edge25" class="edge">
<title>Node0&#45;&gt;Node25</title>
<path fill="none" stroke="#191970" d="M74.9675,-904.3741C84.2215,-852.3531 110.481,-746.9417 177,-691 181.6261,-687.1095 186.7627,-683.8066 192.2014,-681.0045"/>
<polygon fill="#191970" stroke="#191970" points="71.5,-903.8893 73.2895,-914.3319 78.4026,-905.0526 71.5,-903.8893"/>
</g>
<!-- Node26 -->
<g id="node27" class="node">
<title>Node26</title>
<g id="a_node27"><a xlink:href="structgko_1_1solver_1_1Idr_1_1parameters__type.html" target="_top" xlink:title=" ">
<polygon fill="#ffffff" stroke="#000000" points="204.5,-602 204.5,-632 354.5,-632 354.5,-602 204.5,-602"/>
<text text-anchor="start" x="212.5" y="-620" font-family="Helvetica,sans-Serif" font-size="10.00" fill="#000000">gko::solver::Idr&lt; ValueType</text>
<text text-anchor="middle" x="279.5" y="-609" font-family="Helvetica,sans-Serif" font-size="10.00" fill="#000000"> &gt;::parameters_type</text>
</a>
</g>
</g>
<!-- Node0&#45;&gt;Node26 -->
<g id="edge26" class="edge">
<title>Node0&#45;&gt;Node26</title>
<path fill="none" stroke="#191970" d="M72.4609,-904.0326C77.9786,-844.1115 98.8332,-712.051 177,-642 184.8434,-634.971 194.3345,-629.8383 204.3373,-626.1046"/>
<polygon fill="#191970" stroke="#191970" points="68.9437,-904.0938 71.5987,-914.3505 75.9194,-904.6767 68.9437,-904.0938"/>
</g>
<!-- Node27 -->
<g id="node28" class="node">
<title>Node27</title>
<g id="a_node28"><a xlink:href="structgko_1_1solver_1_1Ir_1_1parameters__type.html" target="_top" xlink:title=" ">
<polygon fill="#ffffff" stroke="#000000" points="207.5,-553 207.5,-583 351.5,-583 351.5,-553 207.5,-553"/>
<text text-anchor="start" x="215.5" y="-571" font-family="Helvetica,sans-Serif" font-size="10.00" fill="#000000">gko::solver::Ir&lt; ValueType</text>
<text text-anchor="middle" x="279.5" y="-560" font-family="Helvetica,sans-Serif" font-size="10.00" fill="#000000"> &gt;::parameters_type</text>
</a>
</g>
</g>
<!-- Node0&#45;&gt;Node27 -->
<g id="edge27" class="edge">
<title>Node0&#45;&gt;Node27</title>
<path fill="none" stroke="#191970" d="M76.0927,-904.2059C90.436,-828.5412 130.677,-636.5079 177,-593 185.5448,-584.9745 196.2235,-579.3992 207.435,-575.5507"/>
<polygon fill="#191970" stroke="#191970" points="72.6437,-903.6092 74.2427,-914.0827 79.524,-904.898 72.6437,-903.6092"/>
</g>
<!-- Node28 -->
<g id="node29" class="node">
<title>Node28</title>
<g id="a_node29"><a xlink:href="structgko_1_1solver_1_1LowerTrs_1_1parameters__type.html" target="_top" xlink:title=" ">
<polygon fill="#ffffff" stroke="#000000" points="213,-492.5 213,-533.5 346,-533.5 346,-492.5 213,-492.5"/>
<text text-anchor="start" x="221" y="-521.5" font-family="Helvetica,sans-Serif" font-size="10.00" fill="#000000">gko::solver::LowerTrs</text>
<text text-anchor="start" x="221" y="-510.5" font-family="Helvetica,sans-Serif" font-size="10.00" fill="#000000">&lt; ValueType, IndexType</text>
<text text-anchor="middle" x="279.5" y="-499.5" font-family="Helvetica,sans-Serif" font-size="10.00" fill="#000000"> &gt;::parameters_type</text>
</a>
</g>
</g>
<!-- Node0&#45;&gt;Node28 -->
<g id="edge28" class="edge">
<title>Node0&#45;&gt;Node28</title>
<path fill="none" stroke="#191970" d="M74.9683,-904.3145C87.6042,-821.5472 126.0124,-596.4234 177,-544 186.7216,-534.0046 199.5447,-527.2051 212.8174,-522.5869"/>
<polygon fill="#191970" stroke="#191970" points="71.4851,-903.9414 73.4564,-914.3512 78.407,-904.9842 71.4851,-903.9414"/>
</g>
<!-- Node29 -->
<g id="node30" class="node">
<title>Node29</title>
<g id="a_node30"><a xlink:href="structgko_1_1solver_1_1Multigrid_1_1parameters__type.html" target="_top" xlink:title=" ">
<polygon fill="#ffffff" stroke="#000000" points="220,-443 220,-473 339,-473 339,-443 220,-443"/>
<text text-anchor="start" x="228" y="-461" font-family="Helvetica,sans-Serif" font-size="10.00" fill="#000000">gko::solver::Multigrid</text>
<text text-anchor="middle" x="279.5" y="-450" font-family="Helvetica,sans-Serif" font-size="10.00" fill="#000000">::parameters_type</text>
</a>
</g>
</g>
<!-- Node0&#45;&gt;Node29 -->
<g id="edge29" class="edge">
<title>Node0&#45;&gt;Node29</title>
<path fill="none" stroke="#191970" d="M73.5751,-904.4185C83.3926,-812.8658 116.9165,-543.5559 177,-483 188.4175,-471.4927 204.1907,-464.9539 219.9435,-461.3235"/>
<polygon fill="#191970" stroke="#191970" points="70.0871,-904.1217 72.5202,-914.4333 77.0486,-904.855 70.0871,-904.1217"/>
</g>
<!-- Node30 -->
<g id="node31" class="node">
<title>Node30</title>
<g id="a_node31"><a xlink:href="structgko_1_1solver_1_1UpperTrs_1_1parameters__type.html" target="_top" xlink:title=" ">
<polygon fill="#ffffff" stroke="#000000" points="213,-382.5 213,-423.5 346,-423.5 346,-382.5 213,-382.5"/>
<text text-anchor="start" x="221" y="-411.5" font-family="Helvetica,sans-Serif" font-size="10.00" fill="#000000">gko::solver::UpperTrs</text>
<text text-anchor="start" x="221" y="-400.5" font-family="Helvetica,sans-Serif" font-size="10.00" fill="#000000">&lt; ValueType, IndexType</text>
<text text-anchor="middle" x="279.5" y="-389.5" font-family="Helvetica,sans-Serif" font-size="10.00" fill="#000000"> &gt;::parameters_type</text>
</a>
</g>
</g>
<!-- Node0&#45;&gt;Node30 -->
<g id="edge30" class="edge">
<title>Node0&#45;&gt;Node30</title>
<path fill="none" stroke="#191970" d="M72.9914,-904.2662C81.5283,-806.3376 112.6922,-503.9665 177,-434 186.5614,-423.5973 199.4795,-416.639 212.9186,-411.9968"/>
<polygon fill="#191970" stroke="#191970" points="69.4901,-904.1329 72.1261,-914.3945 76.4647,-904.7288 69.4901,-904.1329"/>
</g>
<!-- Node31 -->
<g id="node32" class="node">
<title>Node31</title>
<g id="a_node32"><a xlink:href="structgko_1_1stop_1_1AbsoluteResidualNorm_1_1parameters__type.html" target="_top" xlink:title=" ">
<polygon fill="#ffffff" stroke="#000000" points="177,-333 177,-363 382,-363 382,-333 177,-333"/>
<text text-anchor="start" x="185" y="-351" font-family="Helvetica,sans-Serif" font-size="10.00" fill="#000000">gko::stop::AbsoluteResidual</text>
<text text-anchor="middle" x="279.5" y="-340" font-family="Helvetica,sans-Serif" font-size="10.00" fill="#000000">Norm&lt; ValueType &gt;::parameters_type</text>
</a>
</g>
</g>
<!-- Node0&#45;&gt;Node31 -->
<g id="edge31" class="edge">
<title>Node0&#45;&gt;Node31</title>
<path fill="none" stroke="#191970" d="M72.0527,-904.2951C78.0312,-798.4326 103.0481,-450.8971 177,-373 180.6572,-369.1477 184.8012,-365.8473 189.2748,-363.0233"/>
<polygon fill="#191970" stroke="#191970" points="68.5555,-904.1497 71.5029,-914.3263 75.545,-904.5328 68.5555,-904.1497"/>
</g>
<!-- Node32 -->
<g id="node33" class="node">
<title>Node32</title>
<g id="a_node33"><a xlink:href="structgko_1_1stop_1_1Combined_1_1parameters__type.html" target="_top" xlink:title=" ">
<polygon fill="#ffffff" stroke="#000000" points="221,-284 221,-314 338,-314 338,-284 221,-284"/>
<text text-anchor="start" x="229" y="-302" font-family="Helvetica,sans-Serif" font-size="10.00" fill="#000000">gko::stop::Combined</text>
<text text-anchor="middle" x="279.5" y="-291" font-family="Helvetica,sans-Serif" font-size="10.00" fill="#000000">::parameters_type</text>
</a>
</g>
</g>
<!-- Node0&#45;&gt;Node32 -->
<g id="edge32" class="edge">
<title>Node0&#45;&gt;Node32</title>
<path fill="none" stroke="#191970" d="M71.5585,-903.8874C76.0156,-791.6361 96.9133,-409.6115 177,-324 188.3869,-311.8275 204.6302,-305.15 220.8384,-301.5989"/>
<polygon fill="#191970" stroke="#191970" points="68.0496,-904.0569 71.1664,-914.1829 75.0446,-904.3234 68.0496,-904.0569"/>
</g>
<!-- Node33 -->
<g id="node34" class="node">
<title>Node33</title>
<g id="a_node34"><a xlink:href="structgko_1_1stop_1_1ImplicitResidualNorm_1_1parameters__type.html" target="_top" xlink:title=" ">
<polygon fill="#ffffff" stroke="#000000" points="177,-235 177,-265 382,-265 382,-235 177,-235"/>
<text text-anchor="start" x="185" y="-253" font-family="Helvetica,sans-Serif" font-size="10.00" fill="#000000">gko::stop::ImplicitResidual</text>
<text text-anchor="middle" x="279.5" y="-242" font-family="Helvetica,sans-Serif" font-size="10.00" fill="#000000">Norm&lt; ValueType &gt;::parameters_type</text>
</a>
</g>
</g>
<!-- Node0&#45;&gt;Node33 -->
<g id="edge33" class="edge">
<title>Node0&#45;&gt;Node33</title>
<path fill="none" stroke="#191970" d="M71.1104,-904.1222C74.072,-786.5171 90.6053,-368.5276 177,-275 180.48,-271.2326 184.425,-267.9903 188.6916,-265.2033"/>
<polygon fill="#191970" stroke="#191970" points="67.6086,-904.1593 70.871,-914.2393 74.6067,-904.325 67.6086,-904.1593"/>
</g>
<!-- Node34 -->
<g id="node35" class="node">
<title>Node34</title>
<g id="a_node35"><a xlink:href="structgko_1_1stop_1_1Iteration_1_1parameters__type.html" target="_top" xlink:title=" ">
<polygon fill="#ffffff" stroke="#000000" points="225,-186 225,-216 334,-216 334,-186 225,-186"/>
<text text-anchor="start" x="233" y="-204" font-family="Helvetica,sans-Serif" font-size="10.00" fill="#000000">gko::stop::Iteration</text>
<text text-anchor="middle" x="279.5" y="-193" font-family="Helvetica,sans-Serif" font-size="10.00" fill="#000000">::parameters_type</text>
</a>
</g>
</g>
<!-- Node0&#45;&gt;Node34 -->
<g id="edge34" class="edge">
<title>Node0&#45;&gt;Node34</title>
<path fill="none" stroke="#191970" d="M73.0954,-904.3717C84.3284,-774.9381 130.2984,-277.1129 177,-226 189.2317,-212.6129 207.332,-205.8411 224.9326,-202.5702"/>
<polygon fill="#191970" stroke="#191970" points="69.6031,-904.1326 72.2311,-914.3963 76.5772,-904.7339 69.6031,-904.1326"/>
</g>
<!-- Node35 -->
<g id="node36" class="node">
<title>Node35</title>
<g id="a_node36"><a xlink:href="structgko_1_1stop_1_1RelativeResidualNorm_1_1parameters__type.html" target="_top" xlink:title=" ">
<polygon fill="#ffffff" stroke="#000000" points="177,-137 177,-167 382,-167 382,-137 177,-137"/>
<text text-anchor="start" x="185" y="-155" font-family="Helvetica,sans-Serif" font-size="10.00" fill="#000000">gko::stop::RelativeResidual</text>
<text text-anchor="middle" x="279.5" y="-144" font-family="Helvetica,sans-Serif" font-size="10.00" fill="#000000">Norm&lt; ValueType &gt;::parameters_type</text>
</a>
</g>
</g>
<!-- Node0&#45;&gt;Node35 -->
<g id="edge35" class="edge">
<title>Node0&#45;&gt;Node35</title>
<path fill="none" stroke="#191970" d="M72.8117,-904.0203C83.194,-768.4881 127.1872,-232.0412 177,-177 180.4414,-173.1974 184.3562,-169.9275 188.5997,-167.1193"/>
<polygon fill="#191970" stroke="#191970" points="69.3112,-903.8952 72.0427,-914.1319 76.291,-904.4261 69.3112,-903.8952"/>
</g>
<!-- Node36 -->
<g id="node37" class="node">
<title>Node36</title>
<g id="a_node37"><a xlink:href="structgko_1_1stop_1_1ResidualNorm_1_1parameters__type.html" target="_top" xlink:title=" ">
<polygon fill="#ffffff" stroke="#000000" points="190.5,-88 190.5,-118 368.5,-118 368.5,-88 190.5,-88"/>
<text text-anchor="start" x="198.5" y="-106" font-family="Helvetica,sans-Serif" font-size="10.00" fill="#000000">gko::stop::ResidualNorm</text>
<text text-anchor="middle" x="279.5" y="-95" font-family="Helvetica,sans-Serif" font-size="10.00" fill="#000000">&lt; ValueType &gt;::parameters_type</text>
</a>
</g>
</g>
<!-- Node0&#45;&gt;Node36 -->
<g id="edge36" class="edge">
<title>Node0&#45;&gt;Node36</title>
<path fill="none" stroke="#191970" d="M72.5156,-904.3099C82.0046,-763.9048 123.9903,-187.069 177,-128 180.9148,-123.6377 185.4525,-119.9753 190.3962,-116.9061"/>
<polygon fill="#191970" stroke="#191970" points="69.0175,-904.1662 71.8406,-914.378 76.0018,-904.6346 69.0175,-904.1662"/>
</g>
<!-- Node37 -->
<g id="node38" class="node">
<title>Node37</title>
<g id="a_node38"><a xlink:href="structgko_1_1stop_1_1ResidualNormReduction_1_1parameters__type.html" target="_top" xlink:title=" ">
<polygon fill="#ffffff" stroke="#000000" points="187.5,-39 187.5,-69 371.5,-69 371.5,-39 187.5,-39"/>
<text text-anchor="start" x="195.5" y="-57" font-family="Helvetica,sans-Serif" font-size="10.00" fill="#000000">gko::stop::ResidualNormReduction</text>
<text text-anchor="middle" x="279.5" y="-46" font-family="Helvetica,sans-Serif" font-size="10.00" fill="#000000">&lt; ValueType &gt;::parameters_type</text>
</a>
</g>
</g>
<!-- Node0&#45;&gt;Node37 -->
<g id="edge37" class="edge">
<title>Node0&#45;&gt;Node37</title>
<path fill="none" stroke="#191970" d="M72.2716,-904.3304C80.9479,-758.7734 120.8199,-142.0717 177,-79 180.4113,-75.1703 184.3025,-71.8792 188.528,-69.0548"/>
<polygon fill="#191970" stroke="#191970" points="68.7752,-904.1678 71.6791,-914.3569 75.763,-904.5808 68.7752,-904.1678"/>
</g>
<!-- Node38 -->
<g id="node39" class="node">
<title>Node38</title>
<g id="a_node39"><a xlink:href="structgko_1_1stop_1_1Time_1_1parameters__type.html" target="_top" xlink:title=" ">
<polygon fill="#ffffff" stroke="#000000" points="188.5,-.5 188.5,-19.5 370.5,-19.5 370.5,-.5 188.5,-.5"/>
<text text-anchor="middle" x="279.5" y="-7.5" font-family="Helvetica,sans-Serif" font-size="10.00" fill="#000000">gko::stop::Time::parameters_type</text>
</a>
</g>
</g>
<!-- Node0&#45;&gt;Node38 -->
<g id="edge38" class="edge">
<title>Node0&#45;&gt;Node38</title>
<path fill="none" stroke="#191970" d="M72.0069,-904.0058C79.6466,-752.6303 116.1378,-95.6438 177,-30 180.8214,-25.8784 185.2203,-22.4617 190.0008,-19.6397"/>
<polygon fill="#191970" stroke="#191970" points="68.4909,-904.2411 71.4877,-914.4032 75.4822,-904.5903 68.4909,-904.2411"/>
</g>
</g>
</svg>
