<?xml version="1.0" encoding="UTF-8" standalone="no"?>
<!DOCTYPE svg PUBLIC "-//W3C//DTD SVG 1.1//EN"
 "http://www.w3.org/Graphics/SVG/1.1/DTD/svg11.dtd">
<!-- Generated by graphviz version 2.40.1 (20161225.0304)
 -->
<!-- Title: gko::log::executor_data Pages: 1 -->
<svg width="314pt" height="309pt"
 viewBox="0.00 0.00 314.00 309.00" xmlns="http://www.w3.org/2000/svg" xmlns:xlink="http://www.w3.org/1999/xlink">
<g id="graph0" class="graph" transform="scale(1 1) rotate(0) translate(4 305)">
<title>gko::log::executor_data</title>
<polygon fill="#ffffff" stroke="transparent" points="-4,4 -4,-305 310,-305 310,4 -4,4"/>
<!-- Node1 -->
<g id="node1" class="node">
<title>Node1</title>
<g id="a_node1"><a xlink:title="Struct representing Executor related data.">
<polygon fill="#bfbfbf" stroke="#000000" points="35.5,-.5 35.5,-19.5 166.5,-19.5 166.5,-.5 35.5,-.5"/>
<text text-anchor="middle" x="101" y="-7.5" font-family="Helvetica,sans-Serif" font-size="10.00" fill="#000000">gko::log::executor_data</text>
</a>
</g>
</g>
<!-- Node2 -->
<g id="node2" class="node">
<title>Node2</title>
<g id="a_node2"><a xlink:href="classgko_1_1Executor.html" target="_top" xlink:title="The first step in using the Ginkgo library consists of creating an executor.">
<polygon fill="#ffffff" stroke="#000000" points="59.5,-67.5 59.5,-86.5 142.5,-86.5 142.5,-67.5 59.5,-67.5"/>
<text text-anchor="middle" x="101" y="-74.5" font-family="Helvetica,sans-Serif" font-size="10.00" fill="#000000">gko::Executor</text>
</a>
</g>
</g>
<!-- Node2&#45;&gt;Node1 -->
<g id="edge1" class="edge">
<title>Node2&#45;&gt;Node1</title>
<path fill="none" stroke="#9a32cd" stroke-dasharray="5,2" d="M101,-57.1079C101,-44.714 101,-29.3263 101,-19.5817"/>
<polygon fill="#9a32cd" stroke="#9a32cd" points="97.5001,-57.4005 101,-67.4005 104.5001,-57.4006 97.5001,-57.4005"/>
<text text-anchor="middle" x="114.5" y="-41" font-family="Helvetica,sans-Serif" font-size="10.00" fill="#000000"> exec</text>
</g>
<!-- Node3 -->
<g id="node3" class="node">
<title>Node3</title>
<g id="a_node3"><a xlink:href="classgko_1_1log_1_1EnableLogging.html" target="_top" xlink:title=" ">
<polygon fill="#ffffff" stroke="#000000" points="34.5,-124.5 34.5,-154.5 167.5,-154.5 167.5,-124.5 34.5,-124.5"/>
<text text-anchor="start" x="42.5" y="-142.5" font-family="Helvetica,sans-Serif" font-size="10.00" fill="#000000">gko::log::EnableLogging</text>
<text text-anchor="middle" x="101" y="-131.5" font-family="Helvetica,sans-Serif" font-size="10.00" fill="#000000">&lt; Executor &gt;</text>
</a>
</g>
</g>
<!-- Node3&#45;&gt;Node2 -->
<g id="edge2" class="edge">
<title>Node3&#45;&gt;Node2</title>
<path fill="none" stroke="#191970" d="M101,-114.3498C101,-104.6481 101,-94.1303 101,-86.7356"/>
<polygon fill="#191970" stroke="#191970" points="97.5001,-114.3705 101,-124.3705 104.5001,-114.3705 97.5001,-114.3705"/>
</g>
<!-- Node4 -->
<g id="node4" class="node">
<title>Node4</title>
<g id="a_node4"><a xlink:href="classgko_1_1log_1_1Loggable.html" target="_top" xlink:title="Loggable class is an interface which should be implemented by classes wanting to support logging.">
<polygon fill="#ffffff" stroke="#000000" points="0,-213.5 0,-232.5 106,-232.5 106,-213.5 0,-213.5"/>
<text text-anchor="middle" x="53" y="-220.5" font-family="Helvetica,sans-Serif" font-size="10.00" fill="#000000">gko::log::Loggable</text>
</a>
</g>
</g>
<!-- Node4&#45;&gt;Node3 -->
<g id="edge3" class="edge">
<title>Node4&#45;&gt;Node3</title>
<path fill="none" stroke="#191970" d="M63.6098,-204.5433C72.2377,-189.5345 84.2608,-168.6192 92.3215,-154.597"/>
<polygon fill="#191970" stroke="#191970" points="60.4556,-203.0075 58.5062,-213.4215 66.5244,-206.4962 60.4556,-203.0075"/>
</g>
<!-- Node5 -->
<g id="node5" class="node">
<title>Node5</title>
<g id="a_node5"><a xlink:href="classgko_1_1log_1_1EnableLogging.html" target="_top" xlink:title="EnableLogging is a mixin which should be inherited by any class which wants to enable logging.">
<polygon fill="#ffffff" stroke="#000000" points="124,-202.5 124,-243.5 306,-243.5 306,-202.5 124,-202.5"/>
<text text-anchor="start" x="132" y="-231.5" font-family="Helvetica,sans-Serif" font-size="10.00" fill="#000000">gko::log::EnableLogging</text>
<text text-anchor="start" x="132" y="-220.5" font-family="Helvetica,sans-Serif" font-size="10.00" fill="#000000">&lt; ConcreteLoggable, Polymorphic</text>
<text text-anchor="middle" x="215" y="-209.5" font-family="Helvetica,sans-Serif" font-size="10.00" fill="#000000">Base &gt;</text>
</a>
</g>
</g>
<!-- Node5&#45;&gt;Node3 -->
<g id="edge4" class="edge">
<title>Node5&#45;&gt;Node3</title>
<path fill="none" stroke="#ffa500" stroke-dasharray="5,2" d="M178.724,-196.4294C159.898,-182.6402 137.5804,-166.2936 121.7003,-154.6621"/>
<polygon fill="#ffa500" stroke="#ffa500" points="176.6846,-199.2741 186.8202,-202.3595 180.821,-193.6269 176.6846,-199.2741"/>
<text text-anchor="middle" x="195.5" y="-176" font-family="Helvetica,sans-Serif" font-size="10.00" fill="#000000"> &lt; Executor &gt;</text>
</g>
<!-- Node6 -->
<g id="node6" class="node">
<title>Node6</title>
<g id="a_node6"><a xlink:title=" ">
<polygon fill="#ffffff" stroke="#bfbfbf" points="164.5,-281.5 164.5,-300.5 265.5,-300.5 265.5,-281.5 164.5,-281.5"/>
<text text-anchor="middle" x="215" y="-288.5" font-family="Helvetica,sans-Serif" font-size="10.00" fill="#000000">PolymorphicBase</text>
</a>
</g>
</g>
<!-- Node6&#45;&gt;Node5 -->
<g id="edge5" class="edge">
<title>Node6&#45;&gt;Node5</title>
<path fill="none" stroke="#191970" d="M215,-271.0142C215,-262.4042 215,-252.3409 215,-243.6575"/>
<polygon fill="#191970" stroke="#191970" points="211.5001,-271.2572 215,-281.2573 218.5001,-271.2573 211.5001,-271.2572"/>
</g>
</g>
</svg>
