<?xml version="1.0" encoding="UTF-8" standalone="no"?>
<!DOCTYPE svg PUBLIC "-//W3C//DTD SVG 1.1//EN"
 "http://www.w3.org/Graphics/SVG/1.1/DTD/svg11.dtd">
<!-- Generated by graphviz version 2.40.1 (20161225.0304)
 -->
<!-- Title: gko::DiagonalExtractable&lt; ValueType &gt; Pages: 1 -->
<!--zoomable 340 -->
<svg id="main" version="1.1" xmlns="http://www.w3.org/2000/svg" xmlns:xlink="http://www.w3.org/1999/xlink" xml:space="preserve" onload="init(evt)">
<style type="text/css"><![CDATA[
.edge:hover path { stroke: red; }
.edge:hover polygon { stroke: red; fill: red; }
]]></style>
<script type="text/javascript"><![CDATA[
var edges = document.getElementsByTagName('g');
if (edges && edges.length) {
  for (var i=0;i<edges.length;i++) {
    if (edges[i].id.substr(0,4)=='edge') {
      edges[i].setAttribute('class','edge');
    }
  }
}
]]></script>
        <defs>
                <circle id="rim" cx="0" cy="0" r="7"/>
                <circle id="rim2" cx="0" cy="0" r="3.5"/>
                <g id="zoomPlus">
                        <use xlink:href="#rim" fill="#404040">
                                <set attributeName="fill" to="#808080" begin="zoomplus.mouseover" end="zoomplus.mouseout"/>
                        </use>
                        <path d="M-4,0h8M0,-4v8" fill="none" stroke="white" stroke-width="1.5" pointer-events="none"/>
                </g>
                <g id="zoomMin">
                        <use xlink:href="#rim" fill="#404040">
                                <set attributeName="fill" to="#808080" begin="zoomminus.mouseover" end="zoomminus.mouseout"/>
                        </use>
                        <path d="M-4,0h8" fill="none" stroke="white" stroke-width="1.5" pointer-events="none"/>
                </g>
                <g id="dirArrow">
                        <path fill="none" stroke="white" stroke-width="1.5" d="M0,-3.0v7 M-2.5,-0.5L0,-3.0L2.5,-0.5"/>
                </g>
               <g id="resetDef">
                       <use xlink:href="#rim2" fill="#404040">
                               <set attributeName="fill" to="#808080" begin="reset.mouseover" end="reset.mouseout"/>
                       </use>
               </g>
        </defs>

<script type="text/javascript">
var viewWidth = 785;
var viewHeight = 340;
var sectionId = 'dynsection-0';
</script>
<script xlink:href="svgpan.js"/>
<svg id="graph" class="graph">
<g id="viewport">
<title>gko::DiagonalExtractable&lt; ValueType &gt;</title>
<polygon fill="#ffffff" stroke="transparent" points="-4,4 -4,-335.5 781,-335.5 781,4 -4,4"/>
<!-- Node1 -->
<g id="node1" class="node">
<title>Node1</title>
<g id="a_node1"><a xlink:title="The diagonal of a LinOp implementing this interface can be extracted.">
<polygon fill="#bfbfbf" stroke="#000000" points="204,-164.5 204,-194.5 344,-194.5 344,-164.5 204,-164.5"/>
<text text-anchor="start" x="212" y="-182.5" font-family="Helvetica,sans-Serif" font-size="10.00" fill="#000000">gko::DiagonalExtractable</text>
<text text-anchor="middle" x="274" y="-171.5" font-family="Helvetica,sans-Serif" font-size="10.00" fill="#000000">&lt; ValueType &gt;</text>
</a>
</g>
</g>
<!-- Node3 -->
<g id="node3" class="node">
<title>Node3</title>
<g id="a_node3"><a xlink:href="classgko_1_1matrix_1_1Dense.html" target="_top" xlink:title=" ">
<polygon fill="#ffffff" stroke="#000000" points="404,-312 404,-331 528,-331 528,-312 404,-312"/>
<text text-anchor="middle" x="466" y="-319" font-family="Helvetica,sans-Serif" font-size="10.00" fill="#000000">Dense&lt; value_type &gt;</text>
</a>
</g>
</g>
<!-- Node1&#45;&gt;Node3 -->
<g id="edge2" class="edge">
<title>Node1&#45;&gt;Node3</title>
<path fill="none" stroke="#191970" d="M288.1807,-203.5754C306.1213,-231.8174 339.7136,-277.8983 381,-302.5 388.0145,-306.6798 395.8518,-309.9416 403.8527,-312.4868"/>
<polygon fill="#191970" stroke="#191970" points="290.9488,-201.3974 282.7081,-194.7384 284.9975,-205.0829 290.9488,-201.3974"/>
</g>
<!-- Node4 -->
<g id="node4" class="node">
<title>Node4</title>
<g id="a_node4"><a xlink:href="classgko_1_1matrix_1_1Coo.html" target="_top" xlink:title="COO stores a matrix in the coordinate matrix format.">
<polygon fill="#ffffff" stroke="#000000" points="381,-274 381,-293 551,-293 551,-274 381,-274"/>
<text text-anchor="middle" x="466" y="-281" font-family="Helvetica,sans-Serif" font-size="10.00" fill="#000000">gko::matrix::Coo&lt; ValueType &gt;</text>
</a>
</g>
</g>
<!-- Node1&#45;&gt;Node4 -->
<g id="edge3" class="edge">
<title>Node1&#45;&gt;Node4</title>
<path fill="none" stroke="#191970" d="M295.6081,-201.6196C315.8877,-221.0883 347.9703,-248.7232 381,-264.5 389.0502,-268.3453 397.9047,-271.4273 406.765,-273.8936"/>
<polygon fill="#191970" stroke="#191970" points="298.0309,-199.0935 288.4364,-194.5996 293.1344,-204.0959 298.0309,-199.0935"/>
</g>
<!-- Node5 -->
<g id="node5" class="node">
<title>Node5</title>
<g id="a_node5"><a xlink:href="classgko_1_1matrix_1_1Csr.html" target="_top" xlink:title="CSR is a matrix format which stores only the nonzero coefficients by compressing each row of the matr...">
<polygon fill="#ffffff" stroke="#000000" points="382.5,-236 382.5,-255 549.5,-255 549.5,-236 382.5,-236"/>
<text text-anchor="middle" x="466" y="-243" font-family="Helvetica,sans-Serif" font-size="10.00" fill="#000000">gko::matrix::Csr&lt; ValueType &gt;</text>
</a>
</g>
</g>
<!-- Node1&#45;&gt;Node5 -->
<g id="edge4" class="edge">
<title>Node1&#45;&gt;Node5</title>
<path fill="none" stroke="#191970" d="M313.3552,-198.979C333.2689,-208.2675 358.0321,-218.9677 381,-226.5 392.0635,-230.1283 404.1615,-233.2928 415.6708,-235.9444"/>
<polygon fill="#191970" stroke="#191970" points="314.8217,-195.8009 304.2853,-194.6903 311.8294,-202.1292 314.8217,-195.8009"/>
</g>
<!-- Node6 -->
<g id="node6" class="node">
<title>Node6</title>
<g id="a_node6"><a xlink:href="classgko_1_1matrix_1_1Dense.html" target="_top" xlink:title="Dense is a matrix format which explicitly stores all values of the matrix.">
<polygon fill="#ffffff" stroke="#000000" points="411,-186.5 411,-216.5 521,-216.5 521,-186.5 411,-186.5"/>
<text text-anchor="start" x="419" y="-204.5" font-family="Helvetica,sans-Serif" font-size="10.00" fill="#000000">gko::matrix::Dense</text>
<text text-anchor="middle" x="466" y="-193.5" font-family="Helvetica,sans-Serif" font-size="10.00" fill="#000000">&lt; ValueType &gt;</text>
</a>
</g>
</g>
<!-- Node1&#45;&gt;Node6 -->
<g id="edge5" class="edge">
<title>Node1&#45;&gt;Node6</title>
<path fill="none" stroke="#191970" d="M354.2859,-188.6994C373.3048,-190.8787 393.1695,-193.1548 410.7841,-195.1732"/>
<polygon fill="#191970" stroke="#191970" points="354.4649,-185.1971 344.1314,-187.5359 353.6679,-192.1516 354.4649,-185.1971"/>
</g>
<!-- Node8 -->
<g id="node8" class="node">
<title>Node8</title>
<g id="a_node8"><a xlink:href="classgko_1_1matrix_1_1Ell.html" target="_top" xlink:title="ELL is a matrix format where stride with explicit zeros is used such that all rows have the same numb...">
<polygon fill="#ffffff" stroke="#000000" points="384.5,-148 384.5,-167 547.5,-167 547.5,-148 384.5,-148"/>
<text text-anchor="middle" x="466" y="-155" font-family="Helvetica,sans-Serif" font-size="10.00" fill="#000000">gko::matrix::Ell&lt; ValueType &gt;</text>
</a>
</g>
</g>
<!-- Node1&#45;&gt;Node8 -->
<g id="edge7" class="edge">
<title>Node1&#45;&gt;Node8</title>
<path fill="none" stroke="#191970" d="M354.359,-170.2922C364.2704,-169.1565 374.4104,-167.9946 384.3409,-166.8568"/>
<polygon fill="#191970" stroke="#191970" points="353.6679,-166.8484 344.1314,-171.4641 354.4649,-173.8029 353.6679,-166.8484"/>
</g>
<!-- Node9 -->
<g id="node9" class="node">
<title>Node9</title>
<g id="a_node9"><a xlink:href="classgko_1_1matrix_1_1Fbcsr.html" target="_top" xlink:title="Fixed&#45;block compressed sparse row storage matrix format.">
<polygon fill="#ffffff" stroke="#000000" points="414,-98.5 414,-128.5 518,-128.5 518,-98.5 414,-98.5"/>
<text text-anchor="start" x="422" y="-116.5" font-family="Helvetica,sans-Serif" font-size="10.00" fill="#000000">gko::matrix::Fbcsr</text>
<text text-anchor="middle" x="466" y="-105.5" font-family="Helvetica,sans-Serif" font-size="10.00" fill="#000000">&lt; ValueType &gt;</text>
</a>
</g>
</g>
<!-- Node1&#45;&gt;Node9 -->
<g id="edge8" class="edge">
<title>Node1&#45;&gt;Node9</title>
<path fill="none" stroke="#191970" d="M320.7967,-160.6385C339.412,-153.3803 361.1001,-145.2271 381,-138.5 391.4918,-134.9533 402.8055,-131.4241 413.649,-128.1831"/>
<polygon fill="#191970" stroke="#191970" points="319.3972,-157.4278 311.3679,-164.3402 321.9553,-163.9437 319.3972,-157.4278"/>
</g>
<!-- Node10 -->
<g id="node10" class="node">
<title>Node10</title>
<g id="a_node10"><a xlink:href="classgko_1_1matrix_1_1Hybrid.html" target="_top" xlink:title="HYBRID is a matrix format which splits the matrix into ELLPACK and COO format.">
<polygon fill="#ffffff" stroke="#000000" points="410.5,-49.5 410.5,-79.5 521.5,-79.5 521.5,-49.5 410.5,-49.5"/>
<text text-anchor="start" x="418.5" y="-67.5" font-family="Helvetica,sans-Serif" font-size="10.00" fill="#000000">gko::matrix::Hybrid</text>
<text text-anchor="middle" x="466" y="-56.5" font-family="Helvetica,sans-Serif" font-size="10.00" fill="#000000">&lt; ValueType &gt;</text>
</a>
</g>
</g>
<!-- Node1&#45;&gt;Node10 -->
<g id="edge9" class="edge">
<title>Node1&#45;&gt;Node10</title>
<path fill="none" stroke="#191970" d="M294.8356,-156.9116C315.0172,-136.3023 347.4203,-106.4101 381,-88.5 390.0649,-83.6651 400.2072,-79.7171 410.2419,-76.5229"/>
<polygon fill="#191970" stroke="#191970" points="292.1292,-154.6766 287.7223,-164.3115 297.1757,-159.5277 292.1292,-154.6766"/>
</g>
<!-- Node11 -->
<g id="node11" class="node">
<title>Node11</title>
<g id="a_node11"><a xlink:href="classgko_1_1matrix_1_1Sellp.html" target="_top" xlink:title="SELL&#45;P is a matrix format similar to ELL format.">
<polygon fill="#ffffff" stroke="#000000" points="414.5,-.5 414.5,-30.5 517.5,-30.5 517.5,-.5 414.5,-.5"/>
<text text-anchor="start" x="422.5" y="-18.5" font-family="Helvetica,sans-Serif" font-size="10.00" fill="#000000">gko::matrix::Sellp</text>
<text text-anchor="middle" x="466" y="-7.5" font-family="Helvetica,sans-Serif" font-size="10.00" fill="#000000">&lt; ValueType &gt;</text>
</a>
</g>
</g>
<!-- Node1&#45;&gt;Node11 -->
<g id="edge10" class="edge">
<title>Node1&#45;&gt;Node11</title>
<path fill="none" stroke="#191970" d="M286.0845,-155.3064C303.0116,-123.9003 336.7398,-69.5662 381,-39.5 390.8936,-32.7792 402.6492,-27.9259 414.2137,-24.4259"/>
<polygon fill="#191970" stroke="#191970" points="282.9306,-153.7843 281.3776,-164.2647 289.1273,-157.0402 282.9306,-153.7843"/>
</g>
<!-- Node2 -->
<g id="node2" class="node">
<title>Node2</title>
<g id="a_node2"><a xlink:href="classgko_1_1DiagonalLinOpExtractable.html" target="_top" xlink:title="The diagonal of a LinOp can be extracted.">
<polygon fill="#ffffff" stroke="#000000" points="0,-170 0,-189 167,-189 167,-170 0,-170"/>
<text text-anchor="middle" x="83.5" y="-177" font-family="Helvetica,sans-Serif" font-size="10.00" fill="#000000">gko::DiagonalLinOpExtractable</text>
</a>
</g>
</g>
<!-- Node2&#45;&gt;Node1 -->
<g id="edge1" class="edge">
<title>Node2&#45;&gt;Node1</title>
<path fill="none" stroke="#191970" d="M177.1851,-179.5C186.1786,-179.5 195.1908,-179.5 203.9007,-179.5"/>
<polygon fill="#191970" stroke="#191970" points="177.0561,-176.0001 167.0561,-179.5 177.056,-183.0001 177.0561,-176.0001"/>
</g>
<!-- Node7 -->
<g id="node7" class="node">
<title>Node7</title>
<g id="a_node7"><a xlink:href="classgko_1_1matrix_1_1Dense.html" target="_top" xlink:title=" ">
<polygon fill="#ffffff" stroke="#000000" points="667,-186.5 667,-216.5 777,-216.5 777,-186.5 667,-186.5"/>
<text text-anchor="start" x="675" y="-204.5" font-family="Helvetica,sans-Serif" font-size="10.00" fill="#000000">gko::matrix::Dense</text>
<text text-anchor="middle" x="722" y="-193.5" font-family="Helvetica,sans-Serif" font-size="10.00" fill="#000000">&lt; value_type &gt;</text>
</a>
</g>
</g>
<!-- Node6&#45;&gt;Node7 -->
<g id="edge6" class="edge">
<title>Node6&#45;&gt;Node7</title>
<path fill="none" stroke="#ffa500" stroke-dasharray="5,2" d="M531.3464,-201.5C573.2725,-201.5 627.1028,-201.5 666.866,-201.5"/>
<polygon fill="#ffa500" stroke="#ffa500" points="531.233,-198.0001 521.233,-201.5 531.233,-205.0001 531.233,-198.0001"/>
<text text-anchor="middle" x="609" y="-204.5" font-family="Helvetica,sans-Serif" font-size="10.00" fill="#000000"> &lt; value_type &gt;</text>
</g>
</g>
</svg>
        <g id="navigator" transform="translate(0 0)" fill="#404254">
                <rect fill="#f2f5e9" fill-opacity="0.5" stroke="#606060" stroke-width=".5" x="0" y="0" width="60" height="60"/>
                <use id="zoomplus" xlink:href="#zoomPlus" x="17" y="9" onmousedown="handleZoom(evt,'in')"/>
                <use id="zoomminus" xlink:href="#zoomMin" x="42" y="9" onmousedown="handleZoom(evt,'out')"/>
                <use id="reset" xlink:href="#resetDef" x="30" y="36" onmousedown="handleReset()"/>
                <g id="arrowUp" xlink:href="#dirArrow" transform="translate(30 24)" onmousedown="handlePan(0,-1)">
                  <use xlink:href="#rim" fill="#404040">
                        <set attributeName="fill" to="#808080" begin="arrowUp.mouseover" end="arrowUp.mouseout"/>
                  </use>
                  <path fill="none" stroke="white" stroke-width="1.5" d="M0,-3.0v7 M-2.5,-0.5L0,-3.0L2.5,-0.5"/>
                </g>
                <g id="arrowRight" xlink:href="#dirArrow" transform="rotate(90) translate(36 -43)" onmousedown="handlePan(1,0)">
                  <use xlink:href="#rim" fill="#404040">
                        <set attributeName="fill" to="#808080" begin="arrowRight.mouseover" end="arrowRight.mouseout"/>
                  </use>
                  <path fill="none" stroke="white" stroke-width="1.5" d="M0,-3.0v7 M-2.5,-0.5L0,-3.0L2.5,-0.5"/>
                </g>
                <g id="arrowDown" xlink:href="#dirArrow" transform="rotate(180) translate(-30 -48)" onmousedown="handlePan(0,1)">
                  <use xlink:href="#rim" fill="#404040">
                        <set attributeName="fill" to="#808080" begin="arrowDown.mouseover" end="arrowDown.mouseout"/>
                  </use>
                  <path fill="none" stroke="white" stroke-width="1.5" d="M0,-3.0v7 M-2.5,-0.5L0,-3.0L2.5,-0.5"/>
                </g>
                <g id="arrowLeft" xlink:href="#dirArrow" transform="rotate(270) translate(-36 17)" onmousedown="handlePan(-1,0)">
                  <use xlink:href="#rim" fill="#404040">
                        <set attributeName="fill" to="#808080" begin="arrowLeft.mouseover" end="arrowLeft.mouseout"/>
                  </use>
                  <path fill="none" stroke="white" stroke-width="1.5" d="M0,-3.0v7 M-2.5,-0.5L0,-3.0L2.5,-0.5"/>
                </g>
        </g>
        <svg viewBox="0 0 15 15" width="100%" height="30px" preserveAspectRatio="xMaxYMin meet">
         <g id="arrow_out" transform="scale(0.3 0.3)">
          <a xlink:href="classgko_1_1DiagonalExtractable__inherit__graph_org.svg" target="_base">
           <rect id="button" ry="5" rx="5" y="6" x="6" height="38" width="38"
                fill="#f2f5e9" fill-opacity="0.5" stroke="#606060" stroke-width="1.0"/>
           <path id="arrow"
             d="M 11.500037,31.436501 C 11.940474,20.09759 22.043105,11.32322 32.158766,21.979434 L 37.068811,17.246167 C 37.068811,17.246167 37.088388,32 37.088388,32 L 22.160133,31.978069 C 22.160133,31.978069 26.997745,27.140456 26.997745,27.140456 C 18.528582,18.264221 13.291696,25.230495 11.500037,31.436501 z"
             style="fill:#404040;"/>
          </a>
         </g>
        </svg>
</svg>
