<?xml version="1.0" encoding="UTF-8" standalone="no"?>
<!DOCTYPE svg PUBLIC "-//W3C//DTD SVG 1.1//EN"
 "http://www.w3.org/Graphics/SVG/1.1/DTD/svg11.dtd">
<!-- Generated by graphviz version 2.40.1 (20161225.0304)
 -->
<!-- Title: gko::AbsoluteComputable Pages: 1 -->
<svg width="1230pt" height="683pt"
 viewBox="0.00 0.00 1230.00 683.24" xmlns="http://www.w3.org/2000/svg" xmlns:xlink="http://www.w3.org/1999/xlink">
<g id="graph0" class="graph" transform="scale(1 1) rotate(0) translate(4 679.2378)">
<title>gko::AbsoluteComputable</title>
<polygon fill="#ffffff" stroke="transparent" points="-4,4 -4,-679.2378 1226,-679.2378 1226,4 -4,4"/>
<!-- Node1 -->
<g id="node1" class="node">
<title>Node1</title>
<g id="a_node1"><a xlink:title="The AbsoluteComputable is an interface that allows to get the component wise absolute of a LinOp.">
<polygon fill="#bfbfbf" stroke="#000000" points="0,-286.2378 0,-305.2378 143,-305.2378 143,-286.2378 0,-286.2378"/>
<text text-anchor="middle" x="71.5" y="-293.2378" font-family="Helvetica,sans-Serif" font-size="10.00" fill="#000000">gko::AbsoluteComputable</text>
</a>
</g>
</g>
<!-- Node2 -->
<g id="node2" class="node">
<title>Node2</title>
<g id="a_node2"><a xlink:href="classgko_1_1EnableAbsoluteComputation.html" target="_top" xlink:title=" ">
<polygon fill="#ffffff" stroke="#000000" points="570.5,-511.2378 570.5,-552.2378 776.5,-552.2378 776.5,-511.2378 570.5,-511.2378"/>
<text text-anchor="start" x="578.5" y="-540.2378" font-family="Helvetica,sans-Serif" font-size="10.00" fill="#000000">gko::EnableAbsoluteComputation</text>
<text text-anchor="start" x="578.5" y="-529.2378" font-family="Helvetica,sans-Serif" font-size="10.00" fill="#000000">&lt; remove_complex&lt; Coo&lt; ValueType,</text>
<text text-anchor="middle" x="673.5" y="-518.2378" font-family="Helvetica,sans-Serif" font-size="10.00" fill="#000000"> IndexType &gt; &gt; &gt;</text>
</a>
</g>
</g>
<!-- Node1&#45;&gt;Node2 -->
<g id="edge1" class="edge">
<title>Node1&#45;&gt;Node2</title>
<path fill="none" stroke="#191970" d="M82.0908,-314.1065C99.5136,-343.0867 136.6463,-399.9028 180,-436.7378 255.7697,-501.1147 280.5876,-518.4461 377,-542.7378 439.937,-558.5952 512.7471,-556.1783 570.4651,-549.6343"/>
<polygon fill="#191970" stroke="#191970" points="85.0564,-312.2452 76.9573,-305.4147 79.0291,-315.805 85.0564,-312.2452"/>
</g>
<!-- Node4 -->
<g id="node4" class="node">
<title>Node4</title>
<g id="a_node4"><a xlink:href="classgko_1_1EnableAbsoluteComputation.html" target="_top" xlink:title=" ">
<polygon fill="#ffffff" stroke="#000000" points="572,-433.2378 572,-474.2378 775,-474.2378 775,-433.2378 572,-433.2378"/>
<text text-anchor="start" x="580" y="-462.2378" font-family="Helvetica,sans-Serif" font-size="10.00" fill="#000000">gko::EnableAbsoluteComputation</text>
<text text-anchor="start" x="580" y="-451.2378" font-family="Helvetica,sans-Serif" font-size="10.00" fill="#000000">&lt; remove_complex&lt; Csr&lt; ValueType,</text>
<text text-anchor="middle" x="673.5" y="-440.2378" font-family="Helvetica,sans-Serif" font-size="10.00" fill="#000000"> IndexType &gt; &gt; &gt;</text>
</a>
</g>
</g>
<!-- Node1&#45;&gt;Node4 -->
<g id="edge3" class="edge">
<title>Node1&#45;&gt;Node4</title>
<path fill="none" stroke="#191970" d="M90.594,-311.766C136.3608,-349.0051 257.4254,-440.634 377,-472.7378 444.8757,-490.9613 524.489,-484.4047 584.119,-474.2832"/>
<polygon fill="#191970" stroke="#191970" points="92.6499,-308.9251 82.704,-305.2741 88.2023,-314.3306 92.6499,-308.9251"/>
</g>
<!-- Node6 -->
<g id="node6" class="node">
<title>Node6</title>
<g id="a_node6"><a xlink:href="classgko_1_1EnableAbsoluteComputation.html" target="_top" xlink:title=" ">
<polygon fill="#ffffff" stroke="#000000" points="549,-644.7378 549,-674.7378 798,-674.7378 798,-644.7378 549,-644.7378"/>
<text text-anchor="start" x="557" y="-662.7378" font-family="Helvetica,sans-Serif" font-size="10.00" fill="#000000">gko::EnableAbsoluteComputation</text>
<text text-anchor="middle" x="673.5" y="-651.7378" font-family="Helvetica,sans-Serif" font-size="10.00" fill="#000000">&lt; remove_complex&lt; Dense&lt; ValueType &gt; &gt; &gt;</text>
</a>
</g>
</g>
<!-- Node1&#45;&gt;Node6 -->
<g id="edge5" class="edge">
<title>Node1&#45;&gt;Node6</title>
<path fill="none" stroke="#191970" d="M73.6624,-315.2972C80.1742,-364.8234 104.0843,-496.3068 180,-567.7378 278.1449,-660.0849 437.769,-674.4395 548.7997,-671.327"/>
<polygon fill="#191970" stroke="#191970" points="77.126,-314.7854 72.441,-305.2827 70.1775,-315.6329 77.126,-314.7854"/>
</g>
<!-- Node9 -->
<g id="node9" class="node">
<title>Node9</title>
<g id="a_node9"><a xlink:href="classgko_1_1EnableAbsoluteComputation.html" target="_top" xlink:title=" ">
<polygon fill="#ffffff" stroke="#000000" points="584,-580.2378 584,-621.2378 763,-621.2378 763,-580.2378 584,-580.2378"/>
<text text-anchor="start" x="592" y="-609.2378" font-family="Helvetica,sans-Serif" font-size="10.00" fill="#000000">gko::EnableAbsoluteComputation</text>
<text text-anchor="start" x="592" y="-598.2378" font-family="Helvetica,sans-Serif" font-size="10.00" fill="#000000">&lt; remove_complex&lt; Diagonal</text>
<text text-anchor="middle" x="673.5" y="-587.2378" font-family="Helvetica,sans-Serif" font-size="10.00" fill="#000000">&lt; ValueType &gt; &gt; &gt;</text>
</a>
</g>
</g>
<!-- Node1&#45;&gt;Node9 -->
<g id="edge8" class="edge">
<title>Node1&#45;&gt;Node9</title>
<path fill="none" stroke="#191970" d="M77.6079,-315.142C90.774,-354.3777 125.1494,-444.207 180,-500.7378 250.1349,-573.0212 279.6294,-586.9937 377,-612.7378 444.7367,-630.6469 524.1834,-626.1409 583.781,-617.9814"/>
<polygon fill="#191970" stroke="#191970" points="80.8869,-313.9079 74.4575,-305.4869 74.2322,-316.0793 80.8869,-313.9079"/>
</g>
<!-- Node11 -->
<g id="node11" class="node">
<title>Node11</title>
<g id="a_node11"><a xlink:href="classgko_1_1EnableAbsoluteComputation.html" target="_top" xlink:title=" ">
<polygon fill="#ffffff" stroke="#000000" points="573.5,-302.2378 573.5,-343.2378 773.5,-343.2378 773.5,-302.2378 573.5,-302.2378"/>
<text text-anchor="start" x="581.5" y="-331.2378" font-family="Helvetica,sans-Serif" font-size="10.00" fill="#000000">gko::EnableAbsoluteComputation</text>
<text text-anchor="start" x="581.5" y="-320.2378" font-family="Helvetica,sans-Serif" font-size="10.00" fill="#000000">&lt; remove_complex&lt; Ell&lt; ValueType,</text>
<text text-anchor="middle" x="673.5" y="-309.2378" font-family="Helvetica,sans-Serif" font-size="10.00" fill="#000000"> IndexType &gt; &gt; &gt;</text>
</a>
</g>
</g>
<!-- Node1&#45;&gt;Node11 -->
<g id="edge10" class="edge">
<title>Node1&#45;&gt;Node11</title>
<path fill="none" stroke="#191970" d="M140.6568,-284.726C251.4487,-268.3369 463.1625,-242.5256 531,-272.7378 541.9243,-277.6031 538.7258,-286.6179 549,-292.7378 556.6405,-297.2889 564.933,-301.1503 573.487,-304.4262"/>
<polygon fill="#191970" stroke="#191970" points="139.9559,-281.2918 130.5831,-286.2314 140.9906,-288.2149 139.9559,-281.2918"/>
</g>
<!-- Node13 -->
<g id="node13" class="node">
<title>Node13</title>
<g id="a_node13"><a xlink:href="classgko_1_1EnableAbsoluteComputation.html" target="_top" xlink:title=" ">
<polygon fill="#ffffff" stroke="#000000" points="567,-120.2378 567,-161.2378 780,-161.2378 780,-120.2378 567,-120.2378"/>
<text text-anchor="start" x="575" y="-149.2378" font-family="Helvetica,sans-Serif" font-size="10.00" fill="#000000">gko::EnableAbsoluteComputation</text>
<text text-anchor="start" x="575" y="-138.2378" font-family="Helvetica,sans-Serif" font-size="10.00" fill="#000000">&lt; remove_complex&lt; Fbcsr&lt; ValueType,</text>
<text text-anchor="middle" x="673.5" y="-127.2378" font-family="Helvetica,sans-Serif" font-size="10.00" fill="#000000"> IndexType &gt; &gt; &gt;</text>
</a>
</g>
</g>
<!-- Node1&#45;&gt;Node13 -->
<g id="edge12" class="edge">
<title>Node1&#45;&gt;Node13</title>
<path fill="none" stroke="#191970" d="M79.7314,-276.3229C94.8478,-242.8627 130.1185,-174.1399 180,-134.7378 253.3935,-76.7633 284.9766,-77.4513 377,-60.7378 444.3428,-48.5069 466.2602,-38.5251 531,-60.7378 540.5863,-64.027 540.4907,-69.2325 549,-74.7378 575.0857,-91.6147 605.9301,-107.9897 630.3917,-120.2073"/>
<polygon fill="#191970" stroke="#191970" points="76.3569,-275.3025 75.5387,-285.8657 82.7656,-278.1182 76.3569,-275.3025"/>
</g>
<!-- Node15 -->
<g id="node15" class="node">
<title>Node15</title>
<g id="a_node15"><a xlink:href="classgko_1_1EnableAbsoluteComputation.html" target="_top" xlink:title=" ">
<polygon fill="#ffffff" stroke="#000000" points="584,-24.2378 584,-65.2378 763,-65.2378 763,-24.2378 584,-24.2378"/>
<text text-anchor="start" x="592" y="-53.2378" font-family="Helvetica,sans-Serif" font-size="10.00" fill="#000000">gko::EnableAbsoluteComputation</text>
<text text-anchor="start" x="592" y="-42.2378" font-family="Helvetica,sans-Serif" font-size="10.00" fill="#000000">&lt; remove_complex&lt; Hybrid&lt;</text>
<text text-anchor="middle" x="673.5" y="-31.2378" font-family="Helvetica,sans-Serif" font-size="10.00" fill="#000000"> ValueType, IndexType &gt; &gt; &gt;</text>
</a>
</g>
</g>
<!-- Node1&#45;&gt;Node15 -->
<g id="edge14" class="edge">
<title>Node1&#45;&gt;Node15</title>
<path fill="none" stroke="#191970" d="M73.9487,-276.281C80.9157,-229.9577 105.4239,-113.1014 180,-60.7378 305.4027,27.3137 496.2845,.2033 600.0658,-24.176"/>
<polygon fill="#191970" stroke="#191970" points="70.4767,-275.8382 72.5649,-286.2252 77.4099,-276.8031 70.4767,-275.8382"/>
</g>
<!-- Node17 -->
<g id="node17" class="node">
<title>Node17</title>
<g id="a_node17"><a xlink:href="classgko_1_1EnableAbsoluteComputation.html" target="_top" xlink:title=" ">
<polygon fill="#ffffff" stroke="#000000" points="567.5,-242.2378 567.5,-283.2378 779.5,-283.2378 779.5,-242.2378 567.5,-242.2378"/>
<text text-anchor="start" x="575.5" y="-271.2378" font-family="Helvetica,sans-Serif" font-size="10.00" fill="#000000">gko::EnableAbsoluteComputation</text>
<text text-anchor="start" x="575.5" y="-260.2378" font-family="Helvetica,sans-Serif" font-size="10.00" fill="#000000">&lt; remove_complex&lt; Sellp&lt; ValueType,</text>
<text text-anchor="middle" x="673.5" y="-249.2378" font-family="Helvetica,sans-Serif" font-size="10.00" fill="#000000"> IndexType &gt; &gt; &gt;</text>
</a>
</g>
</g>
<!-- Node1&#45;&gt;Node17 -->
<g id="edge16" class="edge">
<title>Node1&#45;&gt;Node17</title>
<path fill="none" stroke="#191970" d="M95.8297,-280.8865C166.8317,-239.6109 378.3874,-131.4315 531,-207.7378 542.9257,-213.7007 537.8887,-224.3678 549,-231.7378 554.94,-235.6778 561.3402,-239.1171 567.993,-242.1194"/>
<polygon fill="#191970" stroke="#191970" points="93.9671,-277.9216 87.1342,-286.0187 97.5251,-283.9499 93.9671,-277.9216"/>
</g>
<!-- Node19 -->
<g id="node19" class="node">
<title>Node19</title>
<g id="a_node19"><a xlink:href="classgko_1_1EnableAbsoluteComputation.html" target="_top" xlink:title=" ">
<polygon fill="#ffffff" stroke="#000000" points="584,-181.2378 584,-222.2378 763,-222.2378 763,-181.2378 584,-181.2378"/>
<text text-anchor="start" x="592" y="-210.2378" font-family="Helvetica,sans-Serif" font-size="10.00" fill="#000000">gko::EnableAbsoluteComputation</text>
<text text-anchor="start" x="592" y="-199.2378" font-family="Helvetica,sans-Serif" font-size="10.00" fill="#000000">&lt; remove_complex&lt; Vector&lt;</text>
<text text-anchor="middle" x="673.5" y="-188.2378" font-family="Helvetica,sans-Serif" font-size="10.00" fill="#000000"> ValueType &gt; &gt; &gt;</text>
</a>
</g>
</g>
<!-- Node1&#45;&gt;Node19 -->
<g id="edge18" class="edge">
<title>Node1&#45;&gt;Node19</title>
<path fill="none" stroke="#191970" d="M83.5013,-277.5731C101.3763,-252.0321 137.4887,-205.9284 180,-181.7378 258.0578,-137.3199 287.7548,-146.8012 377,-136.7378 445.0134,-129.0686 472.3633,-101.4337 531,-136.7378 545.648,-145.5571 535.5343,-160.2012 549,-170.7378 559.2623,-178.7679 571.3358,-184.7467 583.8567,-189.1925"/>
<polygon fill="#191970" stroke="#191970" points="80.5133,-275.7424 77.7628,-285.974 86.2935,-279.6907 80.5133,-275.7424"/>
</g>
<!-- Node21 -->
<g id="node21" class="node">
<title>Node21</title>
<g id="a_node21"><a xlink:href="classgko_1_1EnableAbsoluteComputation.html" target="_top" xlink:title="The EnableAbsoluteComputation mixin provides the default implementations of compute_absolute_linop an...">
<polygon fill="#ffffff" stroke="#000000" points="180,-319.7378 180,-349.7378 359,-349.7378 359,-319.7378 180,-319.7378"/>
<text text-anchor="start" x="188" y="-337.7378" font-family="Helvetica,sans-Serif" font-size="10.00" fill="#000000">gko::EnableAbsoluteComputation</text>
<text text-anchor="middle" x="269.5" y="-326.7378" font-family="Helvetica,sans-Serif" font-size="10.00" fill="#000000">&lt; AbsoluteLinOp &gt;</text>
</a>
</g>
</g>
<!-- Node1&#45;&gt;Node21 -->
<g id="edge20" class="edge">
<title>Node1&#45;&gt;Node21</title>
<path fill="none" stroke="#191970" d="M130.0042,-307.2614C149.7502,-311.1507 172.0932,-315.5516 193.0189,-319.6733"/>
<polygon fill="#191970" stroke="#191970" points="130.4242,-303.7769 119.9362,-305.2783 129.0713,-310.645 130.4242,-303.7769"/>
</g>
<!-- Node3 -->
<g id="node3" class="node">
<title>Node3</title>
<g id="a_node3"><a xlink:href="classgko_1_1matrix_1_1Coo.html" target="_top" xlink:title="COO stores a matrix in the coordinate matrix format.">
<polygon fill="#ffffff" stroke="#000000" points="835,-516.7378 835,-546.7378 996,-546.7378 996,-516.7378 835,-516.7378"/>
<text text-anchor="start" x="843" y="-534.7378" font-family="Helvetica,sans-Serif" font-size="10.00" fill="#000000">gko::matrix::Coo&lt; ValueType,</text>
<text text-anchor="middle" x="915.5" y="-523.7378" font-family="Helvetica,sans-Serif" font-size="10.00" fill="#000000"> IndexType &gt;</text>
</a>
</g>
</g>
<!-- Node2&#45;&gt;Node3 -->
<g id="edge2" class="edge">
<title>Node2&#45;&gt;Node3</title>
<path fill="none" stroke="#191970" d="M786.8785,-531.7378C803.0689,-531.7378 819.442,-531.7378 834.8321,-531.7378"/>
<polygon fill="#191970" stroke="#191970" points="786.8318,-528.2379 776.8317,-531.7378 786.8317,-535.2379 786.8318,-528.2379"/>
</g>
<!-- Node5 -->
<g id="node5" class="node">
<title>Node5</title>
<g id="a_node5"><a xlink:href="classgko_1_1matrix_1_1Csr.html" target="_top" xlink:title="CSR is a matrix format which stores only the nonzero coefficients by compressing each row of the matr...">
<polygon fill="#ffffff" stroke="#000000" points="836.5,-438.7378 836.5,-468.7378 994.5,-468.7378 994.5,-438.7378 836.5,-438.7378"/>
<text text-anchor="start" x="844.5" y="-456.7378" font-family="Helvetica,sans-Serif" font-size="10.00" fill="#000000">gko::matrix::Csr&lt; ValueType,</text>
<text text-anchor="middle" x="915.5" y="-445.7378" font-family="Helvetica,sans-Serif" font-size="10.00" fill="#000000"> IndexType &gt;</text>
</a>
</g>
</g>
<!-- Node4&#45;&gt;Node5 -->
<g id="edge4" class="edge">
<title>Node4&#45;&gt;Node5</title>
<path fill="none" stroke="#191970" d="M785.1873,-453.7378C802.4252,-453.7378 819.9166,-453.7378 836.251,-453.7378"/>
<polygon fill="#191970" stroke="#191970" points="785.078,-450.2379 775.0779,-453.7378 785.0779,-457.2379 785.078,-450.2379"/>
</g>
<!-- Node7 -->
<g id="node7" class="node">
<title>Node7</title>
<g id="a_node7"><a xlink:href="classgko_1_1matrix_1_1Dense.html" target="_top" xlink:title="Dense is a matrix format which explicitly stores all values of the matrix.">
<polygon fill="#ffffff" stroke="#000000" points="860.5,-644.7378 860.5,-674.7378 970.5,-674.7378 970.5,-644.7378 860.5,-644.7378"/>
<text text-anchor="start" x="868.5" y="-662.7378" font-family="Helvetica,sans-Serif" font-size="10.00" fill="#000000">gko::matrix::Dense</text>
<text text-anchor="middle" x="915.5" y="-651.7378" font-family="Helvetica,sans-Serif" font-size="10.00" fill="#000000">&lt; ValueType &gt;</text>
</a>
</g>
</g>
<!-- Node6&#45;&gt;Node7 -->
<g id="edge6" class="edge">
<title>Node6&#45;&gt;Node7</title>
<path fill="none" stroke="#191970" d="M808.2824,-659.7378C826.6509,-659.7378 844.5901,-659.7378 860.3771,-659.7378"/>
<polygon fill="#191970" stroke="#191970" points="808.0445,-656.2379 798.0445,-659.7378 808.0444,-663.2379 808.0445,-656.2379"/>
</g>
<!-- Node8 -->
<g id="node8" class="node">
<title>Node8</title>
<g id="a_node8"><a xlink:href="classgko_1_1matrix_1_1Dense.html" target="_top" xlink:title=" ">
<polygon fill="#ffffff" stroke="#000000" points="1112,-644.7378 1112,-674.7378 1222,-674.7378 1222,-644.7378 1112,-644.7378"/>
<text text-anchor="start" x="1120" y="-662.7378" font-family="Helvetica,sans-Serif" font-size="10.00" fill="#000000">gko::matrix::Dense</text>
<text text-anchor="middle" x="1167" y="-651.7378" font-family="Helvetica,sans-Serif" font-size="10.00" fill="#000000">&lt; value_type &gt;</text>
</a>
</g>
</g>
<!-- Node7&#45;&gt;Node8 -->
<g id="edge7" class="edge">
<title>Node7&#45;&gt;Node8</title>
<path fill="none" stroke="#ffa500" stroke-dasharray="5,2" d="M980.7894,-659.7378C1021.5011,-659.7378 1073.3084,-659.7378 1111.936,-659.7378"/>
<polygon fill="#ffa500" stroke="#ffa500" points="980.6928,-656.2379 970.6927,-659.7378 980.6927,-663.2379 980.6928,-656.2379"/>
<text text-anchor="middle" x="1054" y="-662.7378" font-family="Helvetica,sans-Serif" font-size="10.00" fill="#000000"> &lt; value_type &gt;</text>
</g>
<!-- Node10 -->
<g id="node10" class="node">
<title>Node10</title>
<g id="a_node10"><a xlink:href="classgko_1_1matrix_1_1Diagonal.html" target="_top" xlink:title="This class is a utility which efficiently implements the diagonal matrix (a linear operator which sca...">
<polygon fill="#ffffff" stroke="#000000" points="854.5,-585.7378 854.5,-615.7378 976.5,-615.7378 976.5,-585.7378 854.5,-585.7378"/>
<text text-anchor="start" x="862.5" y="-603.7378" font-family="Helvetica,sans-Serif" font-size="10.00" fill="#000000">gko::matrix::Diagonal</text>
<text text-anchor="middle" x="915.5" y="-592.7378" font-family="Helvetica,sans-Serif" font-size="10.00" fill="#000000">&lt; ValueType &gt;</text>
</a>
</g>
</g>
<!-- Node9&#45;&gt;Node10 -->
<g id="edge9" class="edge">
<title>Node9&#45;&gt;Node10</title>
<path fill="none" stroke="#191970" d="M773.2884,-600.7378C800.7003,-600.7378 829.6114,-600.7378 854.1552,-600.7378"/>
<polygon fill="#191970" stroke="#191970" points="773.268,-597.2379 763.268,-600.7378 773.2679,-604.2379 773.268,-597.2379"/>
</g>
<!-- Node12 -->
<g id="node12" class="node">
<title>Node12</title>
<g id="a_node12"><a xlink:href="classgko_1_1matrix_1_1Ell.html" target="_top" xlink:title="ELL is a matrix format where stride with explicit zeros is used such that all rows have the same numb...">
<polygon fill="#ffffff" stroke="#000000" points="838,-307.7378 838,-337.7378 993,-337.7378 993,-307.7378 838,-307.7378"/>
<text text-anchor="start" x="846" y="-325.7378" font-family="Helvetica,sans-Serif" font-size="10.00" fill="#000000">gko::matrix::Ell&lt; ValueType,</text>
<text text-anchor="middle" x="915.5" y="-314.7378" font-family="Helvetica,sans-Serif" font-size="10.00" fill="#000000"> IndexType &gt;</text>
</a>
</g>
</g>
<!-- Node11&#45;&gt;Node12 -->
<g id="edge11" class="edge">
<title>Node11&#45;&gt;Node12</title>
<path fill="none" stroke="#191970" d="M783.7898,-322.7378C802.0721,-322.7378 820.6831,-322.7378 837.9357,-322.7378"/>
<polygon fill="#191970" stroke="#191970" points="783.6776,-319.2379 773.6775,-322.7378 783.6775,-326.2379 783.6776,-319.2379"/>
</g>
<!-- Node14 -->
<g id="node14" class="node">
<title>Node14</title>
<g id="a_node14"><a xlink:href="classgko_1_1matrix_1_1Fbcsr.html" target="_top" xlink:title="Fixed&#45;block compressed sparse row storage matrix format.">
<polygon fill="#ffffff" stroke="#000000" points="843.5,-125.7378 843.5,-155.7378 987.5,-155.7378 987.5,-125.7378 843.5,-125.7378"/>
<text text-anchor="start" x="851.5" y="-143.7378" font-family="Helvetica,sans-Serif" font-size="10.00" fill="#000000">gko::matrix::Fbcsr</text>
<text text-anchor="middle" x="915.5" y="-132.7378" font-family="Helvetica,sans-Serif" font-size="10.00" fill="#000000">&lt; ValueType, IndexType &gt;</text>
</a>
</g>
</g>
<!-- Node13&#45;&gt;Node14 -->
<g id="edge13" class="edge">
<title>Node13&#45;&gt;Node14</title>
<path fill="none" stroke="#191970" d="M790.3534,-140.7378C808.4023,-140.7378 826.5744,-140.7378 843.2608,-140.7378"/>
<polygon fill="#191970" stroke="#191970" points="790.3492,-137.2379 780.3492,-140.7378 790.3491,-144.2379 790.3492,-137.2379"/>
</g>
<!-- Node16 -->
<g id="node16" class="node">
<title>Node16</title>
<g id="a_node16"><a xlink:href="classgko_1_1matrix_1_1Hybrid.html" target="_top" xlink:title="HYBRID is a matrix format which splits the matrix into ELLPACK and COO format.">
<polygon fill="#ffffff" stroke="#000000" points="843.5,-29.7378 843.5,-59.7378 987.5,-59.7378 987.5,-29.7378 843.5,-29.7378"/>
<text text-anchor="start" x="851.5" y="-47.7378" font-family="Helvetica,sans-Serif" font-size="10.00" fill="#000000">gko::matrix::Hybrid</text>
<text text-anchor="middle" x="915.5" y="-36.7378" font-family="Helvetica,sans-Serif" font-size="10.00" fill="#000000">&lt; ValueType, IndexType &gt;</text>
</a>
</g>
</g>
<!-- Node15&#45;&gt;Node16 -->
<g id="edge15" class="edge">
<title>Node15&#45;&gt;Node16</title>
<path fill="none" stroke="#191970" d="M773.5577,-44.7378C796.9212,-44.7378 821.3591,-44.7378 843.2429,-44.7378"/>
<polygon fill="#191970" stroke="#191970" points="773.268,-41.2379 763.268,-44.7378 773.2679,-48.2379 773.268,-41.2379"/>
</g>
<!-- Node18 -->
<g id="node18" class="node">
<title>Node18</title>
<g id="a_node18"><a xlink:href="classgko_1_1matrix_1_1Sellp.html" target="_top" xlink:title="SELL&#45;P is a matrix format similar to ELL format.">
<polygon fill="#ffffff" stroke="#000000" points="843.5,-247.7378 843.5,-277.7378 987.5,-277.7378 987.5,-247.7378 843.5,-247.7378"/>
<text text-anchor="start" x="851.5" y="-265.7378" font-family="Helvetica,sans-Serif" font-size="10.00" fill="#000000">gko::matrix::Sellp</text>
<text text-anchor="middle" x="915.5" y="-254.7378" font-family="Helvetica,sans-Serif" font-size="10.00" fill="#000000">&lt; ValueType, IndexType &gt;</text>
</a>
</g>
</g>
<!-- Node17&#45;&gt;Node18 -->
<g id="edge17" class="edge">
<title>Node17&#45;&gt;Node18</title>
<path fill="none" stroke="#191970" d="M789.7411,-262.7378C807.9602,-262.7378 826.3234,-262.7378 843.175,-262.7378"/>
<polygon fill="#191970" stroke="#191970" points="789.6448,-259.2379 779.6447,-262.7378 789.6447,-266.2379 789.6448,-259.2379"/>
</g>
<!-- Node20 -->
<g id="node20" class="node">
<title>Node20</title>
<g id="a_node20"><a xlink:href="classgko_1_1experimental_1_1distributed_1_1Vector.html" target="_top" xlink:title="Vector is a format which explicitly stores (multiple) distributed column vectors in a dense storage f...">
<polygon fill="#ffffff" stroke="#000000" points="859.5,-181.2378 859.5,-222.2378 971.5,-222.2378 971.5,-181.2378 859.5,-181.2378"/>
<text text-anchor="start" x="867.5" y="-210.2378" font-family="Helvetica,sans-Serif" font-size="10.00" fill="#000000">gko::experimental::</text>
<text text-anchor="start" x="867.5" y="-199.2378" font-family="Helvetica,sans-Serif" font-size="10.00" fill="#000000">distributed::Vector</text>
<text text-anchor="middle" x="915.5" y="-188.2378" font-family="Helvetica,sans-Serif" font-size="10.00" fill="#000000">&lt; ValueType &gt;</text>
</a>
</g>
</g>
<!-- Node19&#45;&gt;Node20 -->
<g id="edge19" class="edge">
<title>Node19&#45;&gt;Node20</title>
<path fill="none" stroke="#191970" d="M773.5337,-201.7378C802.7884,-201.7378 833.7297,-201.7378 859.2334,-201.7378"/>
<polygon fill="#191970" stroke="#191970" points="773.268,-198.2379 763.268,-201.7378 773.2679,-205.2379 773.268,-198.2379"/>
</g>
<!-- Node21&#45;&gt;Node2 -->
<g id="edge25" class="edge">
<title>Node21&#45;&gt;Node2</title>
<path fill="none" stroke="#ffa500" stroke-dasharray="5,2" d="M290.1251,-357.2752C310.402,-378.211 343.1531,-408.9084 377,-427.7378 439.6501,-462.5907 463.9083,-450.4701 531,-475.7378 539.1928,-478.8233 540.9132,-480.3843 549,-483.7378 571.5754,-493.0995 596.688,-502.8972 618.4126,-511.1815"/>
<polygon fill="#ffa500" stroke="#ffa500" points="292.4171,-354.6065 282.9883,-349.7743 287.3458,-359.4316 292.4171,-354.6065"/>
<text text-anchor="start" x="378.5" y="-489.7378" font-family="Helvetica,sans-Serif" font-size="10.00" fill="#000000"> &lt; remove_complex&lt; Coo</text>
<text text-anchor="middle" x="454" y="-478.7378" font-family="Helvetica,sans-Serif" font-size="10.00" fill="#000000">&lt; ValueType, IndexType &gt; &gt; &gt;</text>
</g>
<!-- Node21&#45;&gt;Node4 -->
<g id="edge29" class="edge">
<title>Node21&#45;&gt;Node4</title>
<path fill="none" stroke="#ffa500" stroke-dasharray="5,2" d="M311.554,-353.8375C331.1288,-362.133 354.9212,-371.3847 377,-377.7378 443.8539,-396.975 463.6372,-388.3664 531,-405.7378 560.3229,-413.2996 592.3304,-423.8639 618.5689,-433.1572"/>
<polygon fill="#ffa500" stroke="#ffa500" points="312.8785,-350.5972 302.3094,-349.8588 310.1112,-357.027 312.8785,-350.5972"/>
<text text-anchor="start" x="378.5" y="-419.7378" font-family="Helvetica,sans-Serif" font-size="10.00" fill="#000000"> &lt; remove_complex&lt; Csr</text>
<text text-anchor="middle" x="454" y="-408.7378" font-family="Helvetica,sans-Serif" font-size="10.00" fill="#000000">&lt; ValueType, IndexType &gt; &gt; &gt;</text>
</g>
<!-- Node21&#45;&gt;Node6 -->
<g id="edge24" class="edge">
<title>Node21&#45;&gt;Node6</title>
<path fill="none" stroke="#ffa500" stroke-dasharray="5,2" d="M274.4226,-359.9002C284.9358,-407.1491 313.9485,-509.6071 377,-567.7378 409.7902,-597.969 524.1035,-627.5628 600.8287,-644.7086"/>
<polygon fill="#ffa500" stroke="#ffa500" points="277.8015,-358.9626 272.2953,-349.911 270.955,-360.4207 277.8015,-358.9626"/>
<text text-anchor="start" x="383" y="-640.7378" font-family="Helvetica,sans-Serif" font-size="10.00" fill="#000000"> &lt; remove_complex&lt; Dense</text>
<text text-anchor="middle" x="454" y="-629.7378" font-family="Helvetica,sans-Serif" font-size="10.00" fill="#000000">&lt; ValueType &gt; &gt; &gt;</text>
</g>
<!-- Node21&#45;&gt;Node9 -->
<g id="edge26" class="edge">
<title>Node21&#45;&gt;Node9</title>
<path fill="none" stroke="#ffa500" stroke-dasharray="5,2" d="M279.351,-359.4815C294.8237,-395.2194 328.1819,-461.0132 377,-497.7378 434.291,-540.8364 468.5855,-510.4648 531,-545.7378 540.3185,-551.0041 539.6853,-556.4649 549,-561.7378 561.9108,-569.0464 576.3652,-575.1681 590.7281,-580.2319"/>
<polygon fill="#ffa500" stroke="#ffa500" points="282.3967,-357.6952 275.2941,-349.8337 275.944,-360.4086 282.3967,-357.6952"/>
<text text-anchor="start" x="377" y="-559.7378" font-family="Helvetica,sans-Serif" font-size="10.00" fill="#000000"> &lt; remove_complex&lt; Diagonal</text>
<text text-anchor="middle" x="454" y="-548.7378" font-family="Helvetica,sans-Serif" font-size="10.00" fill="#000000">&lt; ValueType &gt; &gt; &gt;</text>
</g>
<!-- Node21&#45;&gt;Node11 -->
<g id="edge30" class="edge">
<title>Node21&#45;&gt;Node11</title>
<path fill="none" stroke="#ffa500" stroke-dasharray="5,2" d="M369.3756,-331.7712C431.5503,-329.9244 511.2406,-327.5574 573.4484,-325.7096"/>
<polygon fill="#ffa500" stroke="#ffa500" points="369.0523,-328.2792 359.1607,-332.0746 369.2602,-335.2761 369.0523,-328.2792"/>
<text text-anchor="start" x="378.5" y="-345.7378" font-family="Helvetica,sans-Serif" font-size="10.00" fill="#000000"> &lt; remove_complex&lt; Ell</text>
<text text-anchor="middle" x="454" y="-334.7378" font-family="Helvetica,sans-Serif" font-size="10.00" fill="#000000">&lt; ValueType, IndexType &gt; &gt; &gt;</text>
</g>
<!-- Node21&#45;&gt;Node13 -->
<g id="edge28" class="edge">
<title>Node21&#45;&gt;Node13</title>
<path fill="none" stroke="#ffa500" stroke-dasharray="5,2" d="M279.7594,-310.1351C295.3542,-276.0706 328.4359,-215.3933 377,-185.7378 433.5441,-151.2093 507.1343,-139.8885 566.8535,-137.2348"/>
<polygon fill="#ffa500" stroke="#ffa500" points="276.5098,-308.8292 275.6543,-319.3895 282.9085,-311.6677 276.5098,-308.8292"/>
<text text-anchor="start" x="378.5" y="-199.7378" font-family="Helvetica,sans-Serif" font-size="10.00" fill="#000000"> &lt; remove_complex&lt; Fbcsr</text>
<text text-anchor="middle" x="454" y="-188.7378" font-family="Helvetica,sans-Serif" font-size="10.00" fill="#000000">&lt; ValueType, IndexType &gt; &gt; &gt;</text>
</g>
<!-- Node21&#45;&gt;Node15 -->
<g id="edge22" class="edge">
<title>Node21&#45;&gt;Node15</title>
<path fill="none" stroke="#ffa500" stroke-dasharray="5,2" d="M274.3989,-309.6534C284.755,-263.5882 313.3516,-165.5857 377,-114.7378 435.4723,-68.025 519.8906,-51.5657 583.7082,-46.187"/>
<polygon fill="#ffa500" stroke="#ffa500" points="270.9234,-309.1687 272.2512,-319.68 277.7681,-310.6349 270.9234,-309.1687"/>
<text text-anchor="start" x="378.5" y="-128.7378" font-family="Helvetica,sans-Serif" font-size="10.00" fill="#000000"> &lt; remove_complex&lt; Hybrid</text>
<text text-anchor="middle" x="454" y="-117.7378" font-family="Helvetica,sans-Serif" font-size="10.00" fill="#000000">&lt; ValueType, IndexType &gt; &gt; &gt;</text>
</g>
<!-- Node21&#45;&gt;Node17 -->
<g id="edge23" class="edge">
<title>Node21&#45;&gt;Node17</title>
<path fill="none" stroke="#ffa500" stroke-dasharray="5,2" d="M322.5966,-316.5144C339.7939,-311.1318 359.0602,-305.6425 377,-301.7378 439.5263,-288.1285 510.5723,-278.5837 567.4414,-272.3442"/>
<polygon fill="#ffa500" stroke="#ffa500" points="321.2,-313.286 312.7358,-319.6585 323.3265,-319.9552 321.2,-313.286"/>
<text text-anchor="start" x="378.5" y="-315.7378" font-family="Helvetica,sans-Serif" font-size="10.00" fill="#000000"> &lt; remove_complex&lt; Sellp</text>
<text text-anchor="middle" x="454" y="-304.7378" font-family="Helvetica,sans-Serif" font-size="10.00" fill="#000000">&lt; ValueType, IndexType &gt; &gt; &gt;</text>
</g>
<!-- Node21&#45;&gt;Node19 -->
<g id="edge27" class="edge">
<title>Node21&#45;&gt;Node19</title>
<path fill="none" stroke="#ffa500" stroke-dasharray="5,2" d="M291.0769,-312.4493C311.3616,-292.9188 343.5368,-265.4229 377,-250.7378 442.6919,-221.9094 523.3525,-209.9132 583.951,-204.9843"/>
<polygon fill="#ffa500" stroke="#ffa500" points="288.5822,-309.9938 283.9069,-319.5013 293.4907,-314.9845 288.5822,-309.9938"/>
<text text-anchor="start" x="383" y="-264.7378" font-family="Helvetica,sans-Serif" font-size="10.00" fill="#000000"> &lt; remove_complex&lt; Vector</text>
<text text-anchor="middle" x="454" y="-253.7378" font-family="Helvetica,sans-Serif" font-size="10.00" fill="#000000">&lt; ValueType &gt; &gt; &gt;</text>
</g>
<!-- Node22 -->
<g id="node22" class="node">
<title>Node22</title>
<g id="a_node22"><a xlink:href="classgko_1_1matrix_1_1Dense.html" target="_top" xlink:title=" ">
<polygon fill="#ffffff" stroke="#000000" points="611.5,-362.2378 611.5,-381.2378 735.5,-381.2378 735.5,-362.2378 611.5,-362.2378"/>
<text text-anchor="middle" x="673.5" y="-369.2378" font-family="Helvetica,sans-Serif" font-size="10.00" fill="#000000">Dense&lt; value_type &gt;</text>
</a>
</g>
</g>
<!-- Node21&#45;&gt;Node22 -->
<g id="edge21" class="edge">
<title>Node21&#45;&gt;Node22</title>
<path fill="none" stroke="#191970" d="M341.3107,-351.7986C353.1768,-354.1282 365.3924,-356.2323 377,-357.7378 457.4904,-368.1773 551.1691,-371.0705 611.3416,-371.7514"/>
<polygon fill="#191970" stroke="#191970" points="341.9428,-348.3556 331.4465,-349.7969 340.5507,-355.2158 341.9428,-348.3556"/>
</g>
</g>
</svg>
