<?xml version="1.0" encoding="UTF-8" standalone="no"?>
<!DOCTYPE svg PUBLIC "-//W3C//DTD SVG 1.1//EN"
 "http://www.w3.org/Graphics/SVG/1.1/DTD/svg11.dtd">
<!-- Generated by graphviz version 2.40.1 (20161225.0304)
 -->
<!-- Title: gko::matrix::RowGatherer&lt; IndexType &gt; Pages: 1 -->
<svg width="2293pt" height="334pt"
 viewBox="0.00 0.00 2293.00 333.50" xmlns="http://www.w3.org/2000/svg" xmlns:xlink="http://www.w3.org/1999/xlink">
<g id="graph0" class="graph" transform="scale(1 1) rotate(0) translate(4 329.5)">
<title>gko::matrix::RowGatherer&lt; IndexType &gt;</title>
<polygon fill="#ffffff" stroke="transparent" points="-4,4 -4,-329.5 2289,-329.5 2289,4 -4,4"/>
<!-- Node1 -->
<g id="node1" class="node">
<title>Node1</title>
<g id="a_node1"><a xlink:title="RowGatherer is a matrix &quot;format&quot; which stores the gather indices arrays which can be used to gather r...">
<polygon fill="#bfbfbf" stroke="#000000" points="2143,-82.5 2143,-112.5 2285,-112.5 2285,-82.5 2143,-82.5"/>
<text text-anchor="start" x="2151" y="-100.5" font-family="Helvetica,sans-Serif" font-size="10.00" fill="#000000">gko::matrix::RowGatherer</text>
<text text-anchor="middle" x="2214" y="-89.5" font-family="Helvetica,sans-Serif" font-size="10.00" fill="#000000">&lt; IndexType &gt;</text>
</a>
</g>
</g>
<!-- Node2 -->
<g id="node2" class="node">
<title>Node2</title>
<g id="a_node2"><a xlink:href="classgko_1_1EnableLinOp.html" target="_top" xlink:title=" ">
<polygon fill="#ffffff" stroke="#000000" points="1930,-116.5 1930,-146.5 2106,-146.5 2106,-116.5 1930,-116.5"/>
<text text-anchor="start" x="1938" y="-134.5" font-family="Helvetica,sans-Serif" font-size="10.00" fill="#000000">gko::EnableLinOp&lt; RowGatherer</text>
<text text-anchor="middle" x="2018" y="-123.5" font-family="Helvetica,sans-Serif" font-size="10.00" fill="#000000">&lt; IndexType &gt; &gt;</text>
</a>
</g>
</g>
<!-- Node2&#45;&gt;Node1 -->
<g id="edge1" class="edge">
<title>Node2&#45;&gt;Node1</title>
<path fill="none" stroke="#191970" d="M2114.4911,-114.7618C2124.0624,-113.1014 2133.653,-111.4377 2142.8974,-109.8341"/>
<polygon fill="#191970" stroke="#191970" points="2113.7936,-111.3304 2104.539,-116.4881 2114.9901,-118.2274 2113.7936,-111.3304"/>
</g>
<!-- Node3 -->
<g id="node3" class="node">
<title>Node3</title>
<g id="a_node3"><a xlink:href="classgko_1_1EnablePolymorphicObject.html" target="_top" xlink:title=" ">
<polygon fill="#ffffff" stroke="#000000" points="1567,-207 1567,-248 1733,-248 1733,-207 1567,-207"/>
<text text-anchor="start" x="1575" y="-236" font-family="Helvetica,sans-Serif" font-size="10.00" fill="#000000">gko::EnablePolymorphicObject</text>
<text text-anchor="start" x="1575" y="-225" font-family="Helvetica,sans-Serif" font-size="10.00" fill="#000000">&lt; RowGatherer&lt; IndexType</text>
<text text-anchor="middle" x="1650" y="-214" font-family="Helvetica,sans-Serif" font-size="10.00" fill="#000000"> &gt;, LinOp &gt;</text>
</a>
</g>
</g>
<!-- Node3&#45;&gt;Node2 -->
<g id="edge2" class="edge">
<title>Node3&#45;&gt;Node2</title>
<path fill="none" stroke="#191970" d="M1741.6987,-204.449C1792.0284,-191.697 1855.5139,-175.4482 1912,-160.5 1928.8764,-156.0339 1947.2304,-151.0556 1963.8497,-146.5018"/>
<polygon fill="#191970" stroke="#191970" points="1740.6493,-201.1042 1731.8141,-206.9514 1742.3673,-207.8901 1740.6493,-201.1042"/>
</g>
<!-- Node4 -->
<g id="node4" class="node">
<title>Node4</title>
<g id="a_node4"><a xlink:href="classgko_1_1EnableAbstractPolymorphicObject.html" target="_top" xlink:title=" ">
<polygon fill="#ffffff" stroke="#000000" points="1338,-268 1338,-309 1521,-309 1521,-268 1338,-268"/>
<text text-anchor="start" x="1346" y="-297" font-family="Helvetica,sans-Serif" font-size="10.00" fill="#000000">gko::EnableAbstractPolymorphic</text>
<text text-anchor="start" x="1346" y="-286" font-family="Helvetica,sans-Serif" font-size="10.00" fill="#000000">Object&lt; RowGatherer&lt; IndexType</text>
<text text-anchor="middle" x="1429.5" y="-275" font-family="Helvetica,sans-Serif" font-size="10.00" fill="#000000"> &gt;, LinOp &gt;</text>
</a>
</g>
</g>
<!-- Node4&#45;&gt;Node3 -->
<g id="edge3" class="edge">
<title>Node4&#45;&gt;Node3</title>
<path fill="none" stroke="#191970" d="M1513.729,-265.1985C1534.098,-259.5636 1555.7236,-253.581 1575.6039,-248.0812"/>
<polygon fill="#191970" stroke="#191970" points="1512.5486,-261.8936 1503.8438,-267.9332 1514.4151,-268.6402 1512.5486,-261.8936"/>
</g>
<!-- Node5 -->
<g id="node5" class="node">
<title>Node5</title>
<g id="a_node5"><a xlink:href="classgko_1_1LinOp.html" target="_top" xlink:title=" ">
<polygon fill="#ffffff" stroke="#000000" points="995.5,-274 995.5,-293 1063.5,-293 1063.5,-274 995.5,-274"/>
<text text-anchor="middle" x="1029.5" y="-281" font-family="Helvetica,sans-Serif" font-size="10.00" fill="#000000">gko::LinOp</text>
</a>
</g>
</g>
<!-- Node5&#45;&gt;Node4 -->
<g id="edge4" class="edge">
<title>Node5&#45;&gt;Node4</title>
<path fill="none" stroke="#191970" d="M1073.6479,-284.0518C1136.9257,-284.8428 1254.884,-286.3173 1337.5908,-287.3511"/>
<polygon fill="#191970" stroke="#191970" points="1073.6468,-280.5517 1063.6038,-283.9263 1073.5592,-287.5511 1073.6468,-280.5517"/>
</g>
<!-- Node6 -->
<g id="node6" class="node">
<title>Node6</title>
<g id="a_node6"><a xlink:href="classgko_1_1EnableAbstractPolymorphicObject.html" target="_top" xlink:title=" ">
<polygon fill="#ffffff" stroke="#ff0000" points="542,-263.5 542,-293.5 717,-293.5 717,-263.5 542,-263.5"/>
<text text-anchor="start" x="550" y="-281.5" font-family="Helvetica,sans-Serif" font-size="10.00" fill="#000000">gko::EnableAbstractPolymorphic</text>
<text text-anchor="middle" x="629.5" y="-270.5" font-family="Helvetica,sans-Serif" font-size="10.00" fill="#000000">Object&lt; LinOp &gt;</text>
</a>
</g>
</g>
<!-- Node6&#45;&gt;Node5 -->
<g id="edge5" class="edge">
<title>Node6&#45;&gt;Node5</title>
<path fill="none" stroke="#191970" d="M727.4445,-279.7243C814.4482,-280.8119 936.6501,-282.3394 995.3692,-283.0734"/>
<polygon fill="#191970" stroke="#191970" points="727.3247,-276.2226 717.2817,-279.5973 727.2371,-283.2221 727.3247,-276.2226"/>
</g>
<!-- Node12 -->
<g id="node7" class="node">
<title>Node12</title>
<g id="a_node7"><a xlink:href="classgko_1_1EnableAbstractPolymorphicObject.html" target="_top" xlink:title="This mixin inherits from (a subclass of) PolymorphicObject and provides a base implementation of a ne...">
<polygon fill="#ffffff" stroke="#000000" points="138,-238 138,-279 336,-279 336,-238 138,-238"/>
<text text-anchor="start" x="146" y="-267" font-family="Helvetica,sans-Serif" font-size="10.00" fill="#000000">gko::EnableAbstractPolymorphic</text>
<text text-anchor="start" x="146" y="-256" font-family="Helvetica,sans-Serif" font-size="10.00" fill="#000000">Object&lt; AbstractObject, Polymorphic</text>
<text text-anchor="middle" x="237" y="-245" font-family="Helvetica,sans-Serif" font-size="10.00" fill="#000000">Base &gt;</text>
</a>
</g>
</g>
<!-- Node12&#45;&gt;Node4 -->
<g id="edge8" class="edge">
<title>Node12&#45;&gt;Node4</title>
<path fill="none" stroke="#ffa500" stroke-dasharray="5,2" d="M322.7837,-281.3382C333.2505,-283.6576 343.8353,-285.7858 354,-287.5 431.0147,-300.488 450.979,-299.9407 529,-303.5 566.4223,-305.2072 938.8408,-304.3588 1132,-302.5 1211.563,-301.7344 1231.5521,-303.847 1311,-299.5 1319.6648,-299.0259 1328.6761,-298.4113 1337.6869,-297.715"/>
<polygon fill="#ffa500" stroke="#ffa500" points="323.33,-277.873 312.8022,-279.0631 321.7743,-284.698 323.33,-277.873"/>
<text text-anchor="start" x="759" y="-317.5" font-family="Helvetica,sans-Serif" font-size="10.00" fill="#000000"> &lt; RowGatherer&lt; IndexType</text>
<text text-anchor="middle" x="828.5" y="-306.5" font-family="Helvetica,sans-Serif" font-size="10.00" fill="#000000"> &gt;, LinOp &gt;</text>
</g>
<!-- Node12&#45;&gt;Node6 -->
<g id="edge6" class="edge">
<title>Node12&#45;&gt;Node6</title>
<path fill="none" stroke="#ffa500" stroke-dasharray="5,2" d="M346.3159,-265.0838C348.902,-265.2255 351.4664,-265.3644 354,-265.5 416.7568,-268.8579 487.5803,-272.1897 541.703,-274.6396"/>
<polygon fill="#ffa500" stroke="#ffa500" points="346.4309,-261.5848 336.2522,-264.5249 346.0427,-268.5741 346.4309,-261.5848"/>
<text text-anchor="middle" x="432.5" y="-275.5" font-family="Helvetica,sans-Serif" font-size="10.00" fill="#000000"> &lt; LinOp &gt;</text>
</g>
<!-- Node14 -->
<g id="node10" class="node">
<title>Node14</title>
<g id="a_node10"><a xlink:href="classgko_1_1EnableAbstractPolymorphicObject.html" target="_top" xlink:title=" ">
<polygon fill="#ffffff" stroke="#000000" points="529,-202 529,-243 730,-243 730,-202 529,-202"/>
<text text-anchor="start" x="537" y="-231" font-family="Helvetica,sans-Serif" font-size="10.00" fill="#000000">gko::EnableAbstractPolymorphic</text>
<text text-anchor="start" x="537" y="-220" font-family="Helvetica,sans-Serif" font-size="10.00" fill="#000000">Object&lt; ConcreteObject, Polymorphic</text>
<text text-anchor="middle" x="629.5" y="-209" font-family="Helvetica,sans-Serif" font-size="10.00" fill="#000000">Base &gt;</text>
</a>
</g>
</g>
<!-- Node12&#45;&gt;Node14 -->
<g id="edge12" class="edge">
<title>Node12&#45;&gt;Node14</title>
<path fill="none" stroke="#ffa500" stroke-dasharray="5,2" d="M346.2714,-240.4046C348.8708,-240.0873 351.45,-239.785 354,-239.5 411.7444,-233.0459 476.5919,-228.892 528.8603,-226.3072"/>
<polygon fill="#ffa500" stroke="#ffa500" points="345.6385,-236.957 336.1634,-241.6975 346.5267,-243.9004 345.6385,-236.957"/>
<text text-anchor="start" x="354" y="-253.5" font-family="Helvetica,sans-Serif" font-size="10.00" fill="#000000"> &lt; ConcreteObject, Polymorphic</text>
<text text-anchor="middle" x="432.5" y="-242.5" font-family="Helvetica,sans-Serif" font-size="10.00" fill="#000000">Base &gt;</text>
</g>
<!-- Node21 -->
<g id="node17" class="node">
<title>Node21</title>
<g id="a_node17"><a xlink:href="classgko_1_1EnableAbstractPolymorphicObject.html" target="_top" xlink:title=" ">
<polygon fill="#ffffff" stroke="#000000" points="531,-137 531,-178 728,-178 728,-137 531,-137"/>
<text text-anchor="start" x="539" y="-166" font-family="Helvetica,sans-Serif" font-size="10.00" fill="#000000">gko::EnableAbstractPolymorphic</text>
<text text-anchor="start" x="539" y="-155" font-family="Helvetica,sans-Serif" font-size="10.00" fill="#000000">Object&lt; ConcreteLinOp, Polymorphic</text>
<text text-anchor="middle" x="629.5" y="-144" font-family="Helvetica,sans-Serif" font-size="10.00" fill="#000000">Base &gt;</text>
</a>
</g>
</g>
<!-- Node12&#45;&gt;Node21 -->
<g id="edge22" class="edge">
<title>Node12&#45;&gt;Node21</title>
<path fill="none" stroke="#ffa500" stroke-dasharray="5,2" d="M280.2852,-233.0757C301.7949,-221.4849 328.5704,-208.5765 354,-200.5 411.2109,-182.3297 477.6363,-171.6732 530.9269,-165.5147"/>
<polygon fill="#ffa500" stroke="#ffa500" points="278.493,-230.0667 271.4085,-237.9446 281.8594,-236.2042 278.493,-230.0667"/>
<text text-anchor="start" x="356" y="-214.5" font-family="Helvetica,sans-Serif" font-size="10.00" fill="#000000"> &lt; ConcreteLinOp, Polymorphic</text>
<text text-anchor="middle" x="432.5" y="-203.5" font-family="Helvetica,sans-Serif" font-size="10.00" fill="#000000">Base &gt;</text>
</g>
<!-- Node11 -->
<g id="node8" class="node">
<title>Node11</title>
<g id="a_node8"><a xlink:title=" ">
<polygon fill="#ffffff" stroke="#bfbfbf" points="0,-200 0,-219 101,-219 101,-200 0,-200"/>
<text text-anchor="middle" x="50.5" y="-207" font-family="Helvetica,sans-Serif" font-size="10.00" fill="#000000">PolymorphicBase</text>
</a>
</g>
</g>
<!-- Node11&#45;&gt;Node12 -->
<g id="edge7" class="edge">
<title>Node11&#45;&gt;Node12</title>
<path fill="none" stroke="#191970" d="M96.6373,-221.6219C115.3596,-226.5409 137.5184,-232.3628 158.6324,-237.9101"/>
<polygon fill="#191970" stroke="#191970" points="97.463,-218.2201 86.9018,-219.064 95.6842,-224.9903 97.463,-218.2201"/>
</g>
<!-- Node11&#45;&gt;Node14 -->
<g id="edge11" class="edge">
<title>Node11&#45;&gt;Node14</title>
<path fill="none" stroke="#191970" d="M111.2841,-210.8648C210.5662,-213.0939 408.5048,-217.5381 528.9546,-220.2425"/>
<polygon fill="#191970" stroke="#191970" points="111.1981,-207.362 101.122,-210.6366 111.0409,-214.3603 111.1981,-207.362"/>
</g>
<!-- Node11&#45;&gt;Node21 -->
<g id="edge21" class="edge">
<title>Node11&#45;&gt;Node21</title>
<path fill="none" stroke="#191970" d="M110.8785,-198.3307C171.944,-187.5583 269.169,-171.8392 354,-164.5 412.5115,-159.4379 478.2524,-157.6208 530.8372,-157.1008"/>
<polygon fill="#191970" stroke="#191970" points="110.258,-194.8861 101.0245,-200.0815 111.4826,-201.7781 110.258,-194.8861"/>
</g>
<!-- Node13 -->
<g id="node9" class="node">
<title>Node13</title>
<g id="a_node9"><a xlink:href="classgko_1_1EnablePolymorphicObject.html" target="_top" xlink:title="This mixin inherits from (a subclass of) PolymorphicObject and provides a base implementation of a ne...">
<polygon fill="#ffffff" stroke="#000000" points="927,-207.5 927,-237.5 1132,-237.5 1132,-207.5 927,-207.5"/>
<text text-anchor="start" x="935" y="-225.5" font-family="Helvetica,sans-Serif" font-size="10.00" fill="#000000">gko::EnablePolymorphicObject</text>
<text text-anchor="middle" x="1029.5" y="-214.5" font-family="Helvetica,sans-Serif" font-size="10.00" fill="#000000">&lt; ConcreteObject, PolymorphicBase &gt;</text>
</a>
</g>
</g>
<!-- Node13&#45;&gt;Node3 -->
<g id="edge9" class="edge">
<title>Node13&#45;&gt;Node3</title>
<path fill="none" stroke="#ffa500" stroke-dasharray="5,2" d="M1142.4714,-223.4103C1264.9561,-224.3973 1457.5446,-225.9492 1566.8842,-226.8303"/>
<polygon fill="#ffa500" stroke="#ffa500" points="1142.3389,-219.9092 1132.311,-223.3285 1142.2824,-226.909 1142.3389,-219.9092"/>
<text text-anchor="start" x="1360" y="-240.5" font-family="Helvetica,sans-Serif" font-size="10.00" fill="#000000"> &lt; RowGatherer&lt; IndexType</text>
<text text-anchor="middle" x="1429.5" y="-229.5" font-family="Helvetica,sans-Serif" font-size="10.00" fill="#000000"> &gt;, LinOp &gt;</text>
</g>
<!-- Node20 -->
<g id="node16" class="node">
<title>Node20</title>
<g id="a_node16"><a xlink:href="classgko_1_1EnablePolymorphicObject.html" target="_top" xlink:title=" ">
<polygon fill="#ffffff" stroke="#000000" points="1329,-145.5 1329,-175.5 1530,-175.5 1530,-145.5 1329,-145.5"/>
<text text-anchor="start" x="1337" y="-163.5" font-family="Helvetica,sans-Serif" font-size="10.00" fill="#000000">gko::EnablePolymorphicObject</text>
<text text-anchor="middle" x="1429.5" y="-152.5" font-family="Helvetica,sans-Serif" font-size="10.00" fill="#000000">&lt; ConcreteLinOp, PolymorphicBase &gt;</text>
</a>
</g>
</g>
<!-- Node13&#45;&gt;Node20 -->
<g id="edge23" class="edge">
<title>Node13&#45;&gt;Node20</title>
<path fill="none" stroke="#ffa500" stroke-dasharray="5,2" d="M1091.2356,-204.831C1109.9866,-199.9491 1130.7283,-195.0294 1150,-191.5 1208.8284,-180.7263 1275.3553,-173.165 1328.7426,-168.2088"/>
<polygon fill="#ffa500" stroke="#ffa500" points="1090.1098,-201.5084 1081.3387,-207.4513 1091.9014,-208.2753 1090.1098,-201.5084"/>
<text text-anchor="start" x="1154" y="-205.5" font-family="Helvetica,sans-Serif" font-size="10.00" fill="#000000"> &lt; ConcreteLinOp, Polymorphic</text>
<text text-anchor="middle" x="1230.5" y="-194.5" font-family="Helvetica,sans-Serif" font-size="10.00" fill="#000000">Base &gt;</text>
</g>
<!-- Node14&#45;&gt;Node13 -->
<g id="edge10" class="edge">
<title>Node14&#45;&gt;Node13</title>
<path fill="none" stroke="#191970" d="M740.5319,-222.5C798.8019,-222.5 869.7266,-222.5 926.7273,-222.5"/>
<polygon fill="#191970" stroke="#191970" points="740.1787,-219.0001 730.1786,-222.5 740.1786,-226.0001 740.1787,-219.0001"/>
</g>
<!-- Node15 -->
<g id="node11" class="node">
<title>Node15</title>
<g id="a_node11"><a xlink:href="classgko_1_1EnablePolymorphicAssignment.html" target="_top" xlink:title=" ">
<polygon fill="#ffffff" stroke="#000000" points="1333.5,-96.5 1333.5,-126.5 1525.5,-126.5 1525.5,-96.5 1333.5,-96.5"/>
<text text-anchor="start" x="1341.5" y="-114.5" font-family="Helvetica,sans-Serif" font-size="10.00" fill="#000000">gko::EnablePolymorphicAssignment</text>
<text text-anchor="middle" x="1429.5" y="-103.5" font-family="Helvetica,sans-Serif" font-size="10.00" fill="#000000">&lt; RowGatherer&lt; IndexType &gt; &gt;</text>
</a>
</g>
</g>
<!-- Node15&#45;&gt;Node2 -->
<g id="edge13" class="edge">
<title>Node15&#45;&gt;Node2</title>
<path fill="none" stroke="#191970" d="M1535.6942,-123.8986C1546.2613,-124.8879 1556.8348,-125.7808 1567,-126.5 1692.7542,-135.3967 1838.7141,-135.0806 1929.726,-133.6209"/>
<polygon fill="#191970" stroke="#191970" points="1535.8682,-120.3992 1525.5783,-122.9231 1535.1962,-127.3669 1535.8682,-120.3992"/>
</g>
<!-- Node16 -->
<g id="node12" class="node">
<title>Node16</title>
<g id="a_node12"><a xlink:href="classgko_1_1ConvertibleTo.html" target="_top" xlink:title=" ">
<polygon fill="#ffffff" stroke="#000000" points="942.5,-98.5 942.5,-128.5 1116.5,-128.5 1116.5,-98.5 942.5,-98.5"/>
<text text-anchor="start" x="950.5" y="-116.5" font-family="Helvetica,sans-Serif" font-size="10.00" fill="#000000">gko::ConvertibleTo</text>
<text text-anchor="middle" x="1029.5" y="-105.5" font-family="Helvetica,sans-Serif" font-size="10.00" fill="#000000">&lt; RowGatherer&lt; IndexType &gt; &gt;</text>
</a>
</g>
</g>
<!-- Node16&#45;&gt;Node15 -->
<g id="edge14" class="edge">
<title>Node16&#45;&gt;Node15</title>
<path fill="none" stroke="#191970" d="M1127.0812,-113.0121C1189.7789,-112.6986 1270.8683,-112.2932 1333.2944,-111.981"/>
<polygon fill="#191970" stroke="#191970" points="1126.7698,-109.5135 1116.7874,-113.0636 1126.8048,-116.5134 1126.7698,-109.5135"/>
</g>
<!-- Node17 -->
<g id="node13" class="node">
<title>Node17</title>
<g id="a_node13"><a xlink:href="classgko_1_1ConvertibleTo.html" target="_top" xlink:title="ConvertibleTo interface is used to mark that the implementer can be converted to the object of Result...">
<polygon fill="#ffffff" stroke="#000000" points="576,-49.5 576,-79.5 683,-79.5 683,-49.5 576,-49.5"/>
<text text-anchor="start" x="584" y="-67.5" font-family="Helvetica,sans-Serif" font-size="10.00" fill="#000000">gko::ConvertibleTo</text>
<text text-anchor="middle" x="629.5" y="-56.5" font-family="Helvetica,sans-Serif" font-size="10.00" fill="#000000">&lt; ResultType &gt;</text>
</a>
</g>
</g>
<!-- Node17&#45;&gt;Node16 -->
<g id="edge15" class="edge">
<title>Node17&#45;&gt;Node16</title>
<path fill="none" stroke="#ffa500" stroke-dasharray="5,2" d="M693.0751,-72.288C760.3808,-80.5329 867.0706,-93.6024 942.2256,-102.8089"/>
<polygon fill="#ffa500" stroke="#ffa500" points="693.3821,-68.7995 683.0307,-71.0575 692.5309,-75.7475 693.3821,-68.7995"/>
<text text-anchor="middle" x="828.5" y="-101.5" font-family="Helvetica,sans-Serif" font-size="10.00" fill="#000000"> &lt; RowGatherer&lt; IndexType &gt; &gt;</text>
</g>
<!-- Node18 -->
<g id="node14" class="node">
<title>Node18</title>
<g id="a_node14"><a xlink:href="classgko_1_1EnablePolymorphicAssignment.html" target="_top" xlink:title="This mixin is used to enable a default PolymorphicObject::copy_from() implementation for objects that...">
<polygon fill="#ffffff" stroke="#000000" points="933.5,-49.5 933.5,-79.5 1125.5,-79.5 1125.5,-49.5 933.5,-49.5"/>
<text text-anchor="start" x="941.5" y="-67.5" font-family="Helvetica,sans-Serif" font-size="10.00" fill="#000000">gko::EnablePolymorphicAssignment</text>
<text text-anchor="middle" x="1029.5" y="-56.5" font-family="Helvetica,sans-Serif" font-size="10.00" fill="#000000">&lt; ConcreteType, ResultType &gt;</text>
</a>
</g>
</g>
<!-- Node17&#45;&gt;Node18 -->
<g id="edge17" class="edge">
<title>Node17&#45;&gt;Node18</title>
<path fill="none" stroke="#191970" d="M693.0918,-64.5C757.7858,-64.5 858.8544,-64.5 933.3362,-64.5"/>
<polygon fill="#191970" stroke="#191970" points="693.0308,-61.0001 683.0307,-64.5 693.0307,-68.0001 693.0308,-61.0001"/>
</g>
<!-- Node23 -->
<g id="node19" class="node">
<title>Node23</title>
<g id="a_node19"><a xlink:href="classgko_1_1ConvertibleTo.html" target="_top" xlink:title=" ">
<polygon fill="#ffffff" stroke="#000000" points="974.5,-.5 974.5,-30.5 1084.5,-30.5 1084.5,-.5 974.5,-.5"/>
<text text-anchor="start" x="982.5" y="-18.5" font-family="Helvetica,sans-Serif" font-size="10.00" fill="#000000">gko::ConvertibleTo</text>
<text text-anchor="middle" x="1029.5" y="-7.5" font-family="Helvetica,sans-Serif" font-size="10.00" fill="#000000">&lt; ConcreteLinOp &gt;</text>
</a>
</g>
</g>
<!-- Node17&#45;&gt;Node23 -->
<g id="edge26" class="edge">
<title>Node17&#45;&gt;Node23</title>
<path fill="none" stroke="#ffa500" stroke-dasharray="5,2" d="M693.3882,-56.3449C711.075,-54.1058 730.2801,-51.6916 748,-49.5 826.6557,-39.7718 917.717,-28.8321 974.4699,-22.0524"/>
<polygon fill="#ffa500" stroke="#ffa500" points="692.653,-52.9101 683.1727,-57.6401 693.5335,-59.8545 692.653,-52.9101"/>
<text text-anchor="middle" x="828.5" y="-52.5" font-family="Helvetica,sans-Serif" font-size="10.00" fill="#000000"> &lt; ConcreteLinOp &gt;</text>
</g>
<!-- Node18&#45;&gt;Node15 -->
<g id="edge16" class="edge">
<title>Node18&#45;&gt;Node15</title>
<path fill="none" stroke="#ffa500" stroke-dasharray="5,2" d="M1135.6308,-76.9187C1188.3604,-83.0946 1253.0385,-90.6787 1311,-97.5 1318.3038,-98.3596 1325.8606,-99.2499 1333.4599,-100.1461"/>
<polygon fill="#ffa500" stroke="#ffa500" points="1135.9289,-73.4298 1125.5896,-75.7428 1135.1146,-80.3823 1135.9289,-73.4298"/>
<text text-anchor="middle" x="1230.5" y="-100.5" font-family="Helvetica,sans-Serif" font-size="10.00" fill="#000000"> &lt; RowGatherer&lt; IndexType &gt; &gt;</text>
</g>
<!-- Node22 -->
<g id="node18" class="node">
<title>Node22</title>
<g id="a_node18"><a xlink:href="classgko_1_1EnablePolymorphicAssignment.html" target="_top" xlink:title=" ">
<polygon fill="#ffffff" stroke="#000000" points="1333.5,-38.5 1333.5,-68.5 1525.5,-68.5 1525.5,-38.5 1333.5,-38.5"/>
<text text-anchor="start" x="1341.5" y="-56.5" font-family="Helvetica,sans-Serif" font-size="10.00" fill="#000000">gko::EnablePolymorphicAssignment</text>
<text text-anchor="middle" x="1429.5" y="-45.5" font-family="Helvetica,sans-Serif" font-size="10.00" fill="#000000">&lt; ConcreteLinOp &gt;</text>
</a>
</g>
</g>
<!-- Node18&#45;&gt;Node22 -->
<g id="edge27" class="edge">
<title>Node18&#45;&gt;Node22</title>
<path fill="none" stroke="#ffa500" stroke-dasharray="5,2" d="M1136.1259,-55.1969C1140.8124,-54.9314 1145.4532,-54.6965 1150,-54.5 1210.9628,-51.8655 1279.4745,-51.5779 1333.4092,-51.9672"/>
<polygon fill="#ffa500" stroke="#ffa500" points="1135.5818,-51.7234 1125.8126,-55.8236 1136.0065,-58.7105 1135.5818,-51.7234"/>
<text text-anchor="middle" x="1230.5" y="-57.5" font-family="Helvetica,sans-Serif" font-size="10.00" fill="#000000"> &lt; ConcreteLinOp &gt;</text>
</g>
<!-- Node19 -->
<g id="node15" class="node">
<title>Node19</title>
<g id="a_node15"><a xlink:href="classgko_1_1EnableLinOp.html" target="_top" xlink:title="The EnableLinOp mixin can be used to provide sensible default implementations of the majority of the ...">
<polygon fill="#ffffff" stroke="#000000" points="1572,-87.5 1572,-117.5 1728,-117.5 1728,-87.5 1572,-87.5"/>
<text text-anchor="start" x="1580" y="-105.5" font-family="Helvetica,sans-Serif" font-size="10.00" fill="#000000">gko::EnableLinOp&lt; Concrete</text>
<text text-anchor="middle" x="1650" y="-94.5" font-family="Helvetica,sans-Serif" font-size="10.00" fill="#000000">LinOp, PolymorphicBase &gt;</text>
</a>
</g>
</g>
<!-- Node19&#45;&gt;Node2 -->
<g id="edge18" class="edge">
<title>Node19&#45;&gt;Node2</title>
<path fill="none" stroke="#ffa500" stroke-dasharray="5,2" d="M1738.5666,-108.4435C1789.3494,-111.9714 1854.2812,-116.6851 1912,-121.5 1917.8025,-121.984 1923.7819,-122.5004 1929.8068,-123.0337"/>
<polygon fill="#ffa500" stroke="#ffa500" points="1738.497,-104.9304 1728.2792,-107.7316 1738.0137,-111.9137 1738.497,-104.9304"/>
<text text-anchor="middle" x="1831.5" y="-124.5" font-family="Helvetica,sans-Serif" font-size="10.00" fill="#000000"> &lt; RowGatherer&lt; IndexType &gt; &gt;</text>
</g>
<!-- Node20&#45;&gt;Node19 -->
<g id="edge19" class="edge">
<title>Node20&#45;&gt;Node19</title>
<path fill="none" stroke="#191970" d="M1500.724,-143.0128C1510.5684,-140.5286 1520.5424,-137.9763 1530,-135.5 1551.7382,-129.8082 1575.6188,-123.2947 1596.3134,-117.5665"/>
<polygon fill="#191970" stroke="#191970" points="1499.7927,-139.6379 1490.9468,-145.469 1501.4982,-146.427 1499.7927,-139.6379"/>
</g>
<!-- Node21&#45;&gt;Node20 -->
<g id="edge20" class="edge">
<title>Node21&#45;&gt;Node20</title>
<path fill="none" stroke="#191970" d="M738.4642,-157.9086C894.1432,-158.4924 1178.0361,-159.557 1328.9413,-160.1229"/>
<polygon fill="#191970" stroke="#191970" points="738.4112,-154.4085 728.3981,-157.8709 738.3848,-161.4084 738.4112,-154.4085"/>
</g>
<!-- Node22&#45;&gt;Node19 -->
<g id="edge24" class="edge">
<title>Node22&#45;&gt;Node19</title>
<path fill="none" stroke="#191970" d="M1507.1615,-70.7581C1531.7308,-76.218 1558.6725,-82.205 1582.4722,-87.4938"/>
<polygon fill="#191970" stroke="#191970" points="1507.6769,-67.2873 1497.1558,-68.5346 1506.1584,-74.1207 1507.6769,-67.2873"/>
</g>
<!-- Node23&#45;&gt;Node22 -->
<g id="edge25" class="edge">
<title>Node23&#45;&gt;Node22</title>
<path fill="none" stroke="#191970" d="M1094.7819,-21.7018C1159.5539,-27.8551 1259.5564,-37.3554 1333.3988,-44.3704"/>
<polygon fill="#191970" stroke="#191970" points="1094.9845,-18.2054 1084.6983,-20.7438 1094.3225,-25.174 1094.9845,-18.2054"/>
</g>
<!-- Node24 -->
<g id="node20" class="node">
<title>Node24</title>
<g id="a_node20"><a xlink:href="classgko_1_1EnableCreateMethod.html" target="_top" xlink:title=" ">
<polygon fill="#ffffff" stroke="#000000" points="1931,-58.5 1931,-88.5 2105,-88.5 2105,-58.5 1931,-58.5"/>
<text text-anchor="start" x="1939" y="-76.5" font-family="Helvetica,sans-Serif" font-size="10.00" fill="#000000">gko::EnableCreateMethod</text>
<text text-anchor="middle" x="2018" y="-65.5" font-family="Helvetica,sans-Serif" font-size="10.00" fill="#000000">&lt; RowGatherer&lt; IndexType &gt; &gt;</text>
</a>
</g>
</g>
<!-- Node24&#45;&gt;Node1 -->
<g id="edge28" class="edge">
<title>Node24&#45;&gt;Node1</title>
<path fill="none" stroke="#191970" d="M2115.1665,-85.3979C2124.4524,-86.535 2133.7484,-87.6733 2142.7208,-88.7719"/>
<polygon fill="#191970" stroke="#191970" points="2115.4612,-81.908 2105.1099,-84.1665 2114.6103,-88.8561 2115.4612,-81.908"/>
</g>
<!-- Node25 -->
<g id="node21" class="node">
<title>Node25</title>
<g id="a_node21"><a xlink:href="classgko_1_1EnableCreateMethod.html" target="_top" xlink:title="This mixin implements a static create() method on ConcreteType that dynamically allocates the memory,...">
<polygon fill="#ffffff" stroke="#000000" points="1579,-38.5 1579,-68.5 1721,-68.5 1721,-38.5 1579,-38.5"/>
<text text-anchor="start" x="1587" y="-56.5" font-family="Helvetica,sans-Serif" font-size="10.00" fill="#000000">gko::EnableCreateMethod</text>
<text text-anchor="middle" x="1650" y="-45.5" font-family="Helvetica,sans-Serif" font-size="10.00" fill="#000000">&lt; ConcreteType &gt;</text>
</a>
</g>
</g>
<!-- Node25&#45;&gt;Node24 -->
<g id="edge29" class="edge">
<title>Node25&#45;&gt;Node24</title>
<path fill="none" stroke="#ffa500" stroke-dasharray="5,2" d="M1731.4392,-57.926C1790.5861,-61.1406 1870.5082,-65.4841 1930.9216,-68.7675"/>
<polygon fill="#ffa500" stroke="#ffa500" points="1731.5657,-54.4278 1721.3904,-57.3799 1731.1857,-61.4175 1731.5657,-54.4278"/>
<text text-anchor="middle" x="1831.5" y="-71.5" font-family="Helvetica,sans-Serif" font-size="10.00" fill="#000000"> &lt; RowGatherer&lt; IndexType &gt; &gt;</text>
</g>
</g>
</svg>
