<?xml version="1.0" encoding="UTF-8" standalone="no"?>
<!DOCTYPE svg PUBLIC "-//W3C//DTD SVG 1.1//EN"
 "http://www.w3.org/Graphics/SVG/1.1/DTD/svg11.dtd">
<!-- Generated by graphviz version 2.40.1 (20161225.0304)
 -->
<!-- Title: gko::solver::Fcg&lt; ValueType &gt; Pages: 1 -->
<!--zoomable 576 -->
<svg id="main" version="1.1" xmlns="http://www.w3.org/2000/svg" xmlns:xlink="http://www.w3.org/1999/xlink" xml:space="preserve" onload="init(evt)">
<style type="text/css"><![CDATA[
.edge:hover path { stroke: red; }
.edge:hover polygon { stroke: red; fill: red; }
]]></style>
<script type="text/javascript"><![CDATA[
var edges = document.getElementsByTagName('g');
if (edges && edges.length) {
  for (var i=0;i<edges.length;i++) {
    if (edges[i].id.substr(0,4)=='edge') {
      edges[i].setAttribute('class','edge');
    }
  }
}
]]></script>
        <defs>
                <circle id="rim" cx="0" cy="0" r="7"/>
                <circle id="rim2" cx="0" cy="0" r="3.5"/>
                <g id="zoomPlus">
                        <use xlink:href="#rim" fill="#404040">
                                <set attributeName="fill" to="#808080" begin="zoomplus.mouseover" end="zoomplus.mouseout"/>
                        </use>
                        <path d="M-4,0h8M0,-4v8" fill="none" stroke="white" stroke-width="1.5" pointer-events="none"/>
                </g>
                <g id="zoomMin">
                        <use xlink:href="#rim" fill="#404040">
                                <set attributeName="fill" to="#808080" begin="zoomminus.mouseover" end="zoomminus.mouseout"/>
                        </use>
                        <path d="M-4,0h8" fill="none" stroke="white" stroke-width="1.5" pointer-events="none"/>
                </g>
                <g id="dirArrow">
                        <path fill="none" stroke="white" stroke-width="1.5" d="M0,-3.0v7 M-2.5,-0.5L0,-3.0L2.5,-0.5"/>
                </g>
               <g id="resetDef">
                       <use xlink:href="#rim2" fill="#404040">
                               <set attributeName="fill" to="#808080" begin="reset.mouseover" end="reset.mouseout"/>
                       </use>
               </g>
        </defs>

<script type="text/javascript">
var viewWidth = 2416;
var viewHeight = 576;
var sectionId = 'dynsection-0';
</script>
<script xlink:href="svgpan.js"/>
<svg id="graph" class="graph">
<g id="viewport">
<title>gko::solver::Fcg&lt; ValueType &gt;</title>
<polygon fill="#ffffff" stroke="transparent" points="-4,4 -4,-572 2412,-572 2412,4 -4,4"/>
<!-- Node1 -->
<g id="node1" class="node">
<title>Node1</title>
<g id="a_node1"><a xlink:title="FCG or the flexible conjugate gradient method is an iterative type Krylov subspace method which is su...">
<polygon fill="#bfbfbf" stroke="#000000" points="2243,-161.5 2243,-180.5 2408,-180.5 2408,-161.5 2243,-161.5"/>
<text text-anchor="middle" x="2325.5" y="-168.5" font-family="Helvetica,sans-Serif" font-size="10.00" fill="#000000">gko::solver::Fcg&lt; ValueType &gt;</text>
</a>
</g>
</g>
<!-- Node2 -->
<g id="node2" class="node">
<title>Node2</title>
<g id="a_node2"><a xlink:href="classgko_1_1EnableLinOp.html" target="_top" xlink:title=" ">
<polygon fill="#ffffff" stroke="#000000" points="2050.5,-316 2050.5,-346 2179.5,-346 2179.5,-316 2050.5,-316"/>
<text text-anchor="start" x="2058.5" y="-334" font-family="Helvetica,sans-Serif" font-size="10.00" fill="#000000">gko::EnableLinOp&lt; Fcg</text>
<text text-anchor="middle" x="2115" y="-323" font-family="Helvetica,sans-Serif" font-size="10.00" fill="#000000">&lt; ValueType &gt; &gt;</text>
</a>
</g>
</g>
<!-- Node2&#45;&gt;Node1 -->
<g id="edge1" class="edge">
<title>Node2&#45;&gt;Node1</title>
<path fill="none" stroke="#191970" d="M2142.8885,-309.8021C2189.084,-274.6891 2279.6825,-205.8257 2312.9029,-180.575"/>
<polygon fill="#191970" stroke="#191970" points="2140.6466,-307.1098 2134.8033,-315.9476 2144.8826,-312.6827 2140.6466,-307.1098"/>
</g>
<!-- Node3 -->
<g id="node3" class="node">
<title>Node3</title>
<g id="a_node3"><a xlink:href="classgko_1_1EnablePolymorphicObject.html" target="_top" xlink:title=" ">
<polygon fill="#ffffff" stroke="#000000" points="1639.5,-454 1639.5,-484 1805.5,-484 1805.5,-454 1639.5,-454"/>
<text text-anchor="start" x="1647.5" y="-472" font-family="Helvetica,sans-Serif" font-size="10.00" fill="#000000">gko::EnablePolymorphicObject</text>
<text text-anchor="middle" x="1722.5" y="-461" font-family="Helvetica,sans-Serif" font-size="10.00" fill="#000000">&lt; Fcg&lt; ValueType &gt;, LinOp &gt;</text>
</a>
</g>
</g>
<!-- Node3&#45;&gt;Node2 -->
<g id="edge2" class="edge">
<title>Node3&#45;&gt;Node2</title>
<path fill="none" stroke="#191970" d="M1774.9373,-450.5635C1853.4206,-422.9693 1999.9331,-371.4567 2072.3012,-346.0126"/>
<polygon fill="#191970" stroke="#191970" points="1773.5245,-447.3501 1765.2516,-453.9689 1775.8464,-453.9538 1773.5245,-447.3501"/>
</g>
<!-- Node4 -->
<g id="node4" class="node">
<title>Node4</title>
<g id="a_node4"><a xlink:href="classgko_1_1EnableAbstractPolymorphicObject.html" target="_top" xlink:title=" ">
<polygon fill="#ffffff" stroke="#000000" points="1288,-509.5 1288,-550.5 1463,-550.5 1463,-509.5 1288,-509.5"/>
<text text-anchor="start" x="1296" y="-538.5" font-family="Helvetica,sans-Serif" font-size="10.00" fill="#000000">gko::EnableAbstractPolymorphic</text>
<text text-anchor="start" x="1296" y="-527.5" font-family="Helvetica,sans-Serif" font-size="10.00" fill="#000000">Object&lt; Fcg&lt; ValueType &gt;,</text>
<text text-anchor="middle" x="1375.5" y="-516.5" font-family="Helvetica,sans-Serif" font-size="10.00" fill="#000000"> LinOp &gt;</text>
</a>
</g>
</g>
<!-- Node4&#45;&gt;Node3 -->
<g id="edge3" class="edge">
<title>Node4&#45;&gt;Node3</title>
<path fill="none" stroke="#191970" d="M1473.0483,-512.8517C1525.472,-503.636 1589.4221,-492.3941 1639.4469,-483.6001"/>
<polygon fill="#191970" stroke="#191970" points="1472.3057,-509.4285 1463.0628,-514.6071 1473.5177,-516.3228 1472.3057,-509.4285"/>
</g>
<!-- Node5 -->
<g id="node5" class="node">
<title>Node5</title>
<g id="a_node5"><a xlink:href="classgko_1_1LinOp.html" target="_top" xlink:title=" ">
<polygon fill="#ffffff" stroke="#000000" points="949.5,-516.5 949.5,-535.5 1017.5,-535.5 1017.5,-516.5 949.5,-516.5"/>
<text text-anchor="middle" x="983.5" y="-523.5" font-family="Helvetica,sans-Serif" font-size="10.00" fill="#000000">gko::LinOp</text>
</a>
</g>
</g>
<!-- Node5&#45;&gt;Node4 -->
<g id="edge4" class="edge">
<title>Node5&#45;&gt;Node4</title>
<path fill="none" stroke="#191970" d="M1027.9667,-526.4537C1090.8762,-527.0957 1207.1665,-528.2823 1287.805,-529.1052"/>
<polygon fill="#191970" stroke="#191970" points="1027.6369,-522.9503 1017.6017,-526.348 1027.5654,-529.9499 1027.6369,-522.9503"/>
</g>
<!-- Node6 -->
<g id="node6" class="node">
<title>Node6</title>
<g id="a_node6"><a xlink:href="classgko_1_1EnableAbstractPolymorphicObject.html" target="_top" xlink:title=" ">
<polygon fill="#ffffff" stroke="#ff0000" points="542,-506 542,-536 717,-536 717,-506 542,-506"/>
<text text-anchor="start" x="550" y="-524" font-family="Helvetica,sans-Serif" font-size="10.00" fill="#000000">gko::EnableAbstractPolymorphic</text>
<text text-anchor="middle" x="629.5" y="-513" font-family="Helvetica,sans-Serif" font-size="10.00" fill="#000000">Object&lt; LinOp &gt;</text>
</a>
</g>
</g>
<!-- Node6&#45;&gt;Node5 -->
<g id="edge5" class="edge">
<title>Node6&#45;&gt;Node5</title>
<path fill="none" stroke="#191970" d="M727.2731,-522.381C801.1818,-523.4249 898.3122,-524.7968 949.1295,-525.5145"/>
<polygon fill="#191970" stroke="#191970" points="727.0541,-518.8776 717.0056,-522.236 726.9552,-525.8769 727.0541,-518.8776"/>
</g>
<!-- Node12 -->
<g id="node7" class="node">
<title>Node12</title>
<g id="a_node7"><a xlink:href="classgko_1_1EnableAbstractPolymorphicObject.html" target="_top" xlink:title="This mixin inherits from (a subclass of) PolymorphicObject and provides a base implementation of a ne...">
<polygon fill="#ffffff" stroke="#000000" points="138,-480.5 138,-521.5 336,-521.5 336,-480.5 138,-480.5"/>
<text text-anchor="start" x="146" y="-509.5" font-family="Helvetica,sans-Serif" font-size="10.00" fill="#000000">gko::EnableAbstractPolymorphic</text>
<text text-anchor="start" x="146" y="-498.5" font-family="Helvetica,sans-Serif" font-size="10.00" fill="#000000">Object&lt; AbstractObject, Polymorphic</text>
<text text-anchor="middle" x="237" y="-487.5" font-family="Helvetica,sans-Serif" font-size="10.00" fill="#000000">Base &gt;</text>
</a>
</g>
</g>
<!-- Node12&#45;&gt;Node4 -->
<g id="edge8" class="edge">
<title>Node12&#45;&gt;Node4</title>
<path fill="none" stroke="#ffa500" stroke-dasharray="5,2" d="M322.7837,-523.8382C333.2505,-526.1576 343.8353,-528.2858 354,-530 431.0147,-542.988 450.979,-542.4407 529,-546 564.6896,-547.6281 958.3062,-546.2994 1086,-545 1162.0078,-544.2266 1181.1216,-546.4997 1257,-542 1267.0113,-541.4063 1277.4825,-540.6069 1287.8801,-539.7009"/>
<polygon fill="#ffa500" stroke="#ffa500" points="323.33,-520.373 312.8022,-521.5631 321.7743,-527.198 323.33,-520.373"/>
<text text-anchor="start" x="752.5" y="-560" font-family="Helvetica,sans-Serif" font-size="10.00" fill="#000000"> &lt; Fcg&lt; ValueType &gt;,</text>
<text text-anchor="middle" x="805.5" y="-549" font-family="Helvetica,sans-Serif" font-size="10.00" fill="#000000"> LinOp &gt;</text>
</g>
<!-- Node12&#45;&gt;Node6 -->
<g id="edge6" class="edge">
<title>Node12&#45;&gt;Node6</title>
<path fill="none" stroke="#ffa500" stroke-dasharray="5,2" d="M346.3159,-507.5838C348.902,-507.7255 351.4664,-507.8644 354,-508 416.7568,-511.3579 487.5803,-514.6897 541.703,-517.1396"/>
<polygon fill="#ffa500" stroke="#ffa500" points="346.4309,-504.0848 336.2522,-507.0249 346.0427,-511.0741 346.4309,-504.0848"/>
<text text-anchor="middle" x="432.5" y="-518" font-family="Helvetica,sans-Serif" font-size="10.00" fill="#000000"> &lt; LinOp &gt;</text>
</g>
<!-- Node14 -->
<g id="node10" class="node">
<title>Node14</title>
<g id="a_node10"><a xlink:href="classgko_1_1EnableAbstractPolymorphicObject.html" target="_top" xlink:title=" ">
<polygon fill="#ffffff" stroke="#000000" points="529,-443.5 529,-484.5 730,-484.5 730,-443.5 529,-443.5"/>
<text text-anchor="start" x="537" y="-472.5" font-family="Helvetica,sans-Serif" font-size="10.00" fill="#000000">gko::EnableAbstractPolymorphic</text>
<text text-anchor="start" x="537" y="-461.5" font-family="Helvetica,sans-Serif" font-size="10.00" fill="#000000">Object&lt; ConcreteObject, Polymorphic</text>
<text text-anchor="middle" x="629.5" y="-450.5" font-family="Helvetica,sans-Serif" font-size="10.00" fill="#000000">Base &gt;</text>
</a>
</g>
</g>
<!-- Node12&#45;&gt;Node14 -->
<g id="edge12" class="edge">
<title>Node12&#45;&gt;Node14</title>
<path fill="none" stroke="#ffa500" stroke-dasharray="5,2" d="M346.2728,-482.9171C348.8718,-482.5961 351.4505,-482.2896 354,-482 411.7459,-475.44 476.5935,-471.0562 528.8616,-468.2587"/>
<polygon fill="#ffa500" stroke="#ffa500" points="345.6355,-479.4703 336.1662,-484.2224 346.5322,-486.4126 345.6355,-479.4703"/>
<text text-anchor="start" x="354" y="-496" font-family="Helvetica,sans-Serif" font-size="10.00" fill="#000000"> &lt; ConcreteObject, Polymorphic</text>
<text text-anchor="middle" x="432.5" y="-485" font-family="Helvetica,sans-Serif" font-size="10.00" fill="#000000">Base &gt;</text>
</g>
<!-- Node21 -->
<g id="node17" class="node">
<title>Node21</title>
<g id="a_node17"><a xlink:href="classgko_1_1EnableAbstractPolymorphicObject.html" target="_top" xlink:title=" ">
<polygon fill="#ffffff" stroke="#000000" points="531,-378.5 531,-419.5 728,-419.5 728,-378.5 531,-378.5"/>
<text text-anchor="start" x="539" y="-407.5" font-family="Helvetica,sans-Serif" font-size="10.00" fill="#000000">gko::EnableAbstractPolymorphic</text>
<text text-anchor="start" x="539" y="-396.5" font-family="Helvetica,sans-Serif" font-size="10.00" fill="#000000">Object&lt; ConcreteLinOp, Polymorphic</text>
<text text-anchor="middle" x="629.5" y="-385.5" font-family="Helvetica,sans-Serif" font-size="10.00" fill="#000000">Base &gt;</text>
</a>
</g>
</g>
<!-- Node12&#45;&gt;Node21 -->
<g id="edge22" class="edge">
<title>Node12&#45;&gt;Node21</title>
<path fill="none" stroke="#ffa500" stroke-dasharray="5,2" d="M280.2978,-475.6151C301.8104,-464.0335 328.5847,-451.1215 354,-443 411.2106,-424.7182 477.6361,-413.8236 530.9267,-407.4492"/>
<polygon fill="#ffa500" stroke="#ffa500" points="278.5078,-472.6049 271.4196,-480.4793 281.8713,-478.7439 278.5078,-472.6049"/>
<text text-anchor="start" x="356" y="-457" font-family="Helvetica,sans-Serif" font-size="10.00" fill="#000000"> &lt; ConcreteLinOp, Polymorphic</text>
<text text-anchor="middle" x="432.5" y="-446" font-family="Helvetica,sans-Serif" font-size="10.00" fill="#000000">Base &gt;</text>
</g>
<!-- Node11 -->
<g id="node8" class="node">
<title>Node11</title>
<g id="a_node8"><a xlink:title=" ">
<polygon fill="#ffffff" stroke="#bfbfbf" points="0,-442.5 0,-461.5 101,-461.5 101,-442.5 0,-442.5"/>
<text text-anchor="middle" x="50.5" y="-449.5" font-family="Helvetica,sans-Serif" font-size="10.00" fill="#000000">PolymorphicBase</text>
</a>
</g>
</g>
<!-- Node11&#45;&gt;Node12 -->
<g id="edge7" class="edge">
<title>Node11&#45;&gt;Node12</title>
<path fill="none" stroke="#191970" d="M96.6373,-464.1219C115.3596,-469.0409 137.5184,-474.8628 158.6324,-480.4101"/>
<polygon fill="#191970" stroke="#191970" points="97.463,-460.7201 86.9018,-461.564 95.6842,-467.4903 97.463,-460.7201"/>
</g>
<!-- Node11&#45;&gt;Node14 -->
<g id="edge11" class="edge">
<title>Node11&#45;&gt;Node14</title>
<path fill="none" stroke="#191970" d="M111.2841,-453.2598C210.5662,-455.3174 408.5048,-459.4198 528.9546,-461.9162"/>
<polygon fill="#191970" stroke="#191970" points="111.1924,-449.7572 101.122,-453.0492 111.0473,-456.7557 111.1924,-449.7572"/>
</g>
<!-- Node11&#45;&gt;Node21 -->
<g id="edge21" class="edge">
<title>Node11&#45;&gt;Node21</title>
<path fill="none" stroke="#191970" d="M110.3244,-440.6707C171.3459,-429.6489 268.8885,-413.5016 354,-406 412.5033,-400.8436 478.2438,-399.0227 530.8305,-398.5242"/>
<polygon fill="#191970" stroke="#191970" points="109.6932,-437.228 100.4812,-442.4614 110.9462,-444.1149 109.6932,-437.228"/>
</g>
<!-- Node13 -->
<g id="node9" class="node">
<title>Node13</title>
<g id="a_node9"><a xlink:href="classgko_1_1EnablePolymorphicObject.html" target="_top" xlink:title="This mixin inherits from (a subclass of) PolymorphicObject and provides a base implementation of a ne...">
<polygon fill="#ffffff" stroke="#000000" points="881,-449 881,-479 1086,-479 1086,-449 881,-449"/>
<text text-anchor="start" x="889" y="-467" font-family="Helvetica,sans-Serif" font-size="10.00" fill="#000000">gko::EnablePolymorphicObject</text>
<text text-anchor="middle" x="983.5" y="-456" font-family="Helvetica,sans-Serif" font-size="10.00" fill="#000000">&lt; ConcreteObject, PolymorphicBase &gt;</text>
</a>
</g>
</g>
<!-- Node13&#45;&gt;Node3 -->
<g id="edge9" class="edge">
<title>Node13&#45;&gt;Node3</title>
<path fill="none" stroke="#ffa500" stroke-dasharray="5,2" d="M1096.3908,-464.7638C1246.0276,-465.7762 1506.5828,-467.5391 1639.4432,-468.438"/>
<polygon fill="#ffa500" stroke="#ffa500" points="1096.2783,-461.2631 1086.2548,-464.6952 1096.2308,-468.2629 1096.2783,-461.2631"/>
<text text-anchor="start" x="1322.5" y="-481" font-family="Helvetica,sans-Serif" font-size="10.00" fill="#000000"> &lt; Fcg&lt; ValueType &gt;,</text>
<text text-anchor="middle" x="1375.5" y="-470" font-family="Helvetica,sans-Serif" font-size="10.00" fill="#000000"> LinOp &gt;</text>
</g>
<!-- Node20 -->
<g id="node16" class="node">
<title>Node20</title>
<g id="a_node16"><a xlink:href="classgko_1_1EnablePolymorphicObject.html" target="_top" xlink:title=" ">
<polygon fill="#ffffff" stroke="#000000" points="1275,-384 1275,-414 1476,-414 1476,-384 1275,-384"/>
<text text-anchor="start" x="1283" y="-402" font-family="Helvetica,sans-Serif" font-size="10.00" fill="#000000">gko::EnablePolymorphicObject</text>
<text text-anchor="middle" x="1375.5" y="-391" font-family="Helvetica,sans-Serif" font-size="10.00" fill="#000000">&lt; ConcreteLinOp, PolymorphicBase &gt;</text>
</a>
</g>
</g>
<!-- Node13&#45;&gt;Node20 -->
<g id="edge23" class="edge">
<title>Node13&#45;&gt;Node20</title>
<path fill="none" stroke="#ffa500" stroke-dasharray="5,2" d="M1045.7937,-446.3644C1064.4068,-441.5322 1084.9335,-436.6311 1104,-433 1160.1145,-422.3133 1223.4166,-414.1644 1274.7727,-408.5271"/>
<polygon fill="#ffa500" stroke="#ffa500" points="1044.7408,-443.0223 1035.963,-448.9553 1046.5248,-449.7911 1044.7408,-443.0223"/>
<text text-anchor="start" x="1104" y="-447" font-family="Helvetica,sans-Serif" font-size="10.00" fill="#000000"> &lt; ConcreteLinOp, Polymorphic</text>
<text text-anchor="middle" x="1180.5" y="-436" font-family="Helvetica,sans-Serif" font-size="10.00" fill="#000000">Base &gt;</text>
</g>
<!-- Node14&#45;&gt;Node13 -->
<g id="edge10" class="edge">
<title>Node14&#45;&gt;Node13</title>
<path fill="none" stroke="#191970" d="M740.5302,-464C785.4023,-464 836.8757,-464 880.8611,-464"/>
<polygon fill="#191970" stroke="#191970" points="740.4685,-460.5001 730.4684,-464 740.4684,-467.5001 740.4685,-460.5001"/>
</g>
<!-- Node15 -->
<g id="node11" class="node">
<title>Node15</title>
<g id="a_node11"><a xlink:href="classgko_1_1EnablePolymorphicAssignment.html" target="_top" xlink:title=" ">
<polygon fill="#ffffff" stroke="#000000" points="1279.5,-334 1279.5,-364 1471.5,-364 1471.5,-334 1279.5,-334"/>
<text text-anchor="start" x="1287.5" y="-352" font-family="Helvetica,sans-Serif" font-size="10.00" fill="#000000">gko::EnablePolymorphicAssignment</text>
<text text-anchor="middle" x="1375.5" y="-341" font-family="Helvetica,sans-Serif" font-size="10.00" fill="#000000">&lt; Fcg&lt; ValueType &gt; &gt;</text>
</a>
</g>
</g>
<!-- Node15&#45;&gt;Node2 -->
<g id="edge13" class="edge">
<title>Node15&#45;&gt;Node2</title>
<path fill="none" stroke="#191970" d="M1482.0063,-347.1051C1607.3746,-344.7658 1821.8436,-340.4233 2006,-335 2020.3854,-334.5764 2035.8361,-334.0517 2050.4518,-333.5234"/>
<polygon fill="#191970" stroke="#191970" points="1481.5802,-343.6124 1471.647,-347.2977 1481.7103,-350.6111 1481.5802,-343.6124"/>
</g>
<!-- Node16 -->
<g id="node12" class="node">
<title>Node16</title>
<g id="a_node12"><a xlink:href="classgko_1_1ConvertibleTo.html" target="_top" xlink:title=" ">
<polygon fill="#ffffff" stroke="#000000" points="919.5,-340 919.5,-370 1047.5,-370 1047.5,-340 919.5,-340"/>
<text text-anchor="start" x="927.5" y="-358" font-family="Helvetica,sans-Serif" font-size="10.00" fill="#000000">gko::ConvertibleTo</text>
<text text-anchor="middle" x="983.5" y="-347" font-family="Helvetica,sans-Serif" font-size="10.00" fill="#000000">&lt; Fcg&lt; ValueType &gt; &gt;</text>
</a>
</g>
</g>
<!-- Node16&#45;&gt;Node15 -->
<g id="edge14" class="edge">
<title>Node16&#45;&gt;Node15</title>
<path fill="none" stroke="#191970" d="M1058.0122,-353.8595C1120.7871,-352.8987 1211.0149,-351.5176 1279.2506,-350.4732"/>
<polygon fill="#191970" stroke="#191970" points="1057.7371,-350.3632 1047.7919,-354.0159 1057.8443,-357.3624 1057.7371,-350.3632"/>
</g>
<!-- Node17 -->
<g id="node13" class="node">
<title>Node17</title>
<g id="a_node13"><a xlink:href="classgko_1_1ConvertibleTo.html" target="_top" xlink:title="ConvertibleTo interface is used to mark that the implementer can be converted to the object of Result...">
<polygon fill="#ffffff" stroke="#000000" points="576,-291 576,-321 683,-321 683,-291 576,-291"/>
<text text-anchor="start" x="584" y="-309" font-family="Helvetica,sans-Serif" font-size="10.00" fill="#000000">gko::ConvertibleTo</text>
<text text-anchor="middle" x="629.5" y="-298" font-family="Helvetica,sans-Serif" font-size="10.00" fill="#000000">&lt; ResultType &gt;</text>
</a>
</g>
</g>
<!-- Node17&#45;&gt;Node16 -->
<g id="edge15" class="edge">
<title>Node17&#45;&gt;Node16</title>
<path fill="none" stroke="#ffa500" stroke-dasharray="5,2" d="M693.2282,-314.8211C757.1919,-323.6749 855.1894,-337.2395 919.3147,-346.1156"/>
<polygon fill="#ffa500" stroke="#ffa500" points="693.6505,-311.3463 683.265,-313.442 692.6906,-318.2802 693.6505,-311.3463"/>
<text text-anchor="middle" x="805.5" y="-340" font-family="Helvetica,sans-Serif" font-size="10.00" fill="#000000"> &lt; Fcg&lt; ValueType &gt; &gt;</text>
</g>
<!-- Node18 -->
<g id="node14" class="node">
<title>Node18</title>
<g id="a_node14"><a xlink:href="classgko_1_1EnablePolymorphicAssignment.html" target="_top" xlink:title="This mixin is used to enable a default PolymorphicObject::copy_from() implementation for objects that...">
<polygon fill="#ffffff" stroke="#000000" points="887.5,-291 887.5,-321 1079.5,-321 1079.5,-291 887.5,-291"/>
<text text-anchor="start" x="895.5" y="-309" font-family="Helvetica,sans-Serif" font-size="10.00" fill="#000000">gko::EnablePolymorphicAssignment</text>
<text text-anchor="middle" x="983.5" y="-298" font-family="Helvetica,sans-Serif" font-size="10.00" fill="#000000">&lt; ConcreteType, ResultType &gt;</text>
</a>
</g>
</g>
<!-- Node17&#45;&gt;Node18 -->
<g id="edge17" class="edge">
<title>Node17&#45;&gt;Node18</title>
<path fill="none" stroke="#191970" d="M693.4085,-306C747.4897,-306 825.8066,-306 887.4381,-306"/>
<polygon fill="#191970" stroke="#191970" points="693.265,-302.5001 683.265,-306 693.2649,-309.5001 693.265,-302.5001"/>
</g>
<!-- Node23 -->
<g id="node19" class="node">
<title>Node23</title>
<g id="a_node19"><a xlink:href="classgko_1_1ConvertibleTo.html" target="_top" xlink:title=" ">
<polygon fill="#ffffff" stroke="#000000" points="928.5,-242 928.5,-272 1038.5,-272 1038.5,-242 928.5,-242"/>
<text text-anchor="start" x="936.5" y="-260" font-family="Helvetica,sans-Serif" font-size="10.00" fill="#000000">gko::ConvertibleTo</text>
<text text-anchor="middle" x="983.5" y="-249" font-family="Helvetica,sans-Serif" font-size="10.00" fill="#000000">&lt; ConcreteLinOp &gt;</text>
</a>
</g>
</g>
<!-- Node17&#45;&gt;Node23 -->
<g id="edge26" class="edge">
<title>Node17&#45;&gt;Node23</title>
<path fill="none" stroke="#ffa500" stroke-dasharray="5,2" d="M693.2854,-297.1709C760.3377,-287.8897 864.7439,-273.438 928.353,-264.6333"/>
<polygon fill="#ffa500" stroke="#ffa500" points="692.6906,-293.7198 683.265,-298.558 693.6505,-300.6537 692.6906,-293.7198"/>
<text text-anchor="middle" x="805.5" y="-291" font-family="Helvetica,sans-Serif" font-size="10.00" fill="#000000"> &lt; ConcreteLinOp &gt;</text>
</g>
<!-- Node18&#45;&gt;Node15 -->
<g id="edge16" class="edge">
<title>Node18&#45;&gt;Node15</title>
<path fill="none" stroke="#ffa500" stroke-dasharray="5,2" d="M1089.7108,-316.9634C1140.3757,-322.2695 1201.8374,-328.8172 1257,-335 1264.3084,-335.8192 1271.8686,-336.6803 1279.4703,-337.5562"/>
<polygon fill="#ffa500" stroke="#ffa500" points="1090.0366,-313.4785 1079.7268,-315.9192 1089.3084,-320.4405 1090.0366,-313.4785"/>
<text text-anchor="middle" x="1180.5" y="-338" font-family="Helvetica,sans-Serif" font-size="10.00" fill="#000000"> &lt; Fcg&lt; ValueType &gt; &gt;</text>
</g>
<!-- Node22 -->
<g id="node18" class="node">
<title>Node22</title>
<g id="a_node18"><a xlink:href="classgko_1_1EnablePolymorphicAssignment.html" target="_top" xlink:title=" ">
<polygon fill="#ffffff" stroke="#000000" points="1279.5,-281 1279.5,-311 1471.5,-311 1471.5,-281 1279.5,-281"/>
<text text-anchor="start" x="1287.5" y="-299" font-family="Helvetica,sans-Serif" font-size="10.00" fill="#000000">gko::EnablePolymorphicAssignment</text>
<text text-anchor="middle" x="1375.5" y="-288" font-family="Helvetica,sans-Serif" font-size="10.00" fill="#000000">&lt; ConcreteLinOp &gt;</text>
</a>
</g>
</g>
<!-- Node18&#45;&gt;Node22 -->
<g id="edge27" class="edge">
<title>Node18&#45;&gt;Node22</title>
<path fill="none" stroke="#ffa500" stroke-dasharray="5,2" d="M1090.1315,-297.6297C1094.8164,-297.3901 1099.4554,-297.1779 1104,-297 1162.1681,-294.7235 1227.3995,-294.4107 1279.3417,-294.6968"/>
<polygon fill="#ffa500" stroke="#ffa500" points="1089.6142,-294.1528 1079.8209,-298.1951 1089.9975,-301.1423 1089.6142,-294.1528"/>
<text text-anchor="middle" x="1180.5" y="-300" font-family="Helvetica,sans-Serif" font-size="10.00" fill="#000000"> &lt; ConcreteLinOp &gt;</text>
</g>
<!-- Node19 -->
<g id="node15" class="node">
<title>Node19</title>
<g id="a_node15"><a xlink:href="classgko_1_1EnableLinOp.html" target="_top" xlink:title="The EnableLinOp mixin can be used to provide sensible default implementations of the majority of the ...">
<polygon fill="#ffffff" stroke="#000000" points="1644.5,-290 1644.5,-320 1800.5,-320 1800.5,-290 1644.5,-290"/>
<text text-anchor="start" x="1652.5" y="-308" font-family="Helvetica,sans-Serif" font-size="10.00" fill="#000000">gko::EnableLinOp&lt; Concrete</text>
<text text-anchor="middle" x="1722.5" y="-297" font-family="Helvetica,sans-Serif" font-size="10.00" fill="#000000">LinOp, PolymorphicBase &gt;</text>
</a>
</g>
</g>
<!-- Node19&#45;&gt;Node2 -->
<g id="edge18" class="edge">
<title>Node19&#45;&gt;Node2</title>
<path fill="none" stroke="#ffa500" stroke-dasharray="5,2" d="M1810.587,-310.8351C1883.3748,-315.6567 1985.0309,-322.3906 2050.443,-326.7236"/>
<polygon fill="#ffa500" stroke="#ffa500" points="1810.7242,-307.3366 1800.5146,-310.1678 1810.2614,-314.3213 1810.7242,-307.3366"/>
<text text-anchor="middle" x="1921" y="-326" font-family="Helvetica,sans-Serif" font-size="10.00" fill="#000000"> &lt; Fcg&lt; ValueType &gt; &gt;</text>
</g>
<!-- Node20&#45;&gt;Node19 -->
<g id="edge19" class="edge">
<title>Node20&#45;&gt;Node19</title>
<path fill="none" stroke="#191970" d="M1446.9383,-381.5014C1456.7148,-379.0272 1466.6133,-376.4807 1476,-374 1543.2403,-356.2299 1620.3913,-334.3997 1670.2065,-320.1146"/>
<polygon fill="#191970" stroke="#191970" points="1446.0688,-378.111 1437.2258,-383.9464 1447.7777,-384.8992 1446.0688,-378.111"/>
</g>
<!-- Node21&#45;&gt;Node20 -->
<g id="edge20" class="edge">
<title>Node21&#45;&gt;Node20</title>
<path fill="none" stroke="#191970" d="M738.3667,-399C882.5124,-399 1134.752,-399 1274.7177,-399"/>
<polygon fill="#191970" stroke="#191970" points="738.1781,-395.5001 728.178,-399 738.178,-402.5001 738.1781,-395.5001"/>
</g>
<!-- Node22&#45;&gt;Node19 -->
<g id="edge24" class="edge">
<title>Node22&#45;&gt;Node19</title>
<path fill="none" stroke="#191970" d="M1481.7047,-298.7546C1534.1173,-300.114 1596.2259,-301.7249 1644.2369,-302.9701"/>
<polygon fill="#191970" stroke="#191970" points="1481.7855,-295.2556 1471.698,-298.495 1481.6039,-302.2532 1481.7855,-295.2556"/>
</g>
<!-- Node23&#45;&gt;Node22 -->
<g id="edge25" class="edge">
<title>Node23&#45;&gt;Node22</title>
<path fill="none" stroke="#191970" d="M1049.0239,-263.519C1111.9342,-269.7779 1207.7021,-279.3058 1279.2698,-286.4261"/>
<polygon fill="#191970" stroke="#191970" points="1049.13,-260.0123 1038.8326,-262.505 1048.437,-266.9779 1049.13,-260.0123"/>
</g>
<!-- Node24 -->
<g id="node20" class="node">
<title>Node24</title>
<g id="a_node20"><a xlink:href="classgko_1_1solver_1_1EnablePreconditionedIterativeSolver.html" target="_top" xlink:title=" ">
<polygon fill="#ffffff" stroke="#000000" points="2024,-150.5 2024,-191.5 2206,-191.5 2206,-150.5 2024,-150.5"/>
<text text-anchor="start" x="2032" y="-179.5" font-family="Helvetica,sans-Serif" font-size="10.00" fill="#000000">gko::solver::EnablePreconditioned</text>
<text text-anchor="start" x="2032" y="-168.5" font-family="Helvetica,sans-Serif" font-size="10.00" fill="#000000">IterativeSolver&lt; ValueType,</text>
<text text-anchor="middle" x="2115" y="-157.5" font-family="Helvetica,sans-Serif" font-size="10.00" fill="#000000"> Fcg&lt; ValueType &gt; &gt;</text>
</a>
</g>
</g>
<!-- Node24&#45;&gt;Node1 -->
<g id="edge28" class="edge">
<title>Node24&#45;&gt;Node1</title>
<path fill="none" stroke="#191970" d="M2216.1747,-171C2225.1214,-171 2234.1074,-171 2242.8736,-171"/>
<polygon fill="#191970" stroke="#191970" points="2216.1041,-167.5001 2206.1041,-171 2216.104,-174.5001 2216.1041,-167.5001"/>
</g>
<!-- Node25 -->
<g id="node21" class="node">
<title>Node25</title>
<g id="a_node21"><a xlink:href="classgko_1_1solver_1_1EnableSolverBase.html" target="_top" xlink:title=" ">
<polygon fill="#ffffff" stroke="#000000" points="1299.5,-212 1299.5,-242 1451.5,-242 1451.5,-212 1299.5,-212"/>
<text text-anchor="start" x="1307.5" y="-230" font-family="Helvetica,sans-Serif" font-size="10.00" fill="#000000">gko::solver::EnableSolver</text>
<text text-anchor="middle" x="1375.5" y="-219" font-family="Helvetica,sans-Serif" font-size="10.00" fill="#000000">Base&lt; Fcg&lt; ValueType &gt; &gt;</text>
</a>
</g>
</g>
<!-- Node25&#45;&gt;Node24 -->
<g id="edge29" class="edge">
<title>Node25&#45;&gt;Node24</title>
<path fill="none" stroke="#191970" d="M1461.8742,-223.7511C1583.5275,-218.6369 1812.1575,-207.0535 2006,-186 2011.792,-185.3709 2017.7511,-184.6788 2023.7553,-183.9476"/>
<polygon fill="#191970" stroke="#191970" points="1461.717,-220.2545 1451.8711,-224.1671 1462.0079,-227.2485 1461.717,-220.2545"/>
</g>
<!-- Node26 -->
<g id="node22" class="node">
<title>Node26</title>
<g id="a_node22"><a xlink:href="classgko_1_1solver_1_1SolverBase.html" target="_top" xlink:title=" ">
<polygon fill="#ffffff" stroke="#000000" points="918,-137 918,-167 1049,-167 1049,-137 918,-137"/>
<text text-anchor="start" x="926" y="-155" font-family="Helvetica,sans-Serif" font-size="10.00" fill="#000000">gko::solver::SolverBase</text>
<text text-anchor="middle" x="983.5" y="-144" font-family="Helvetica,sans-Serif" font-size="10.00" fill="#000000">&lt; LinOp &gt;</text>
</a>
</g>
</g>
<!-- Node26&#45;&gt;Node25 -->
<g id="edge30" class="edge">
<title>Node26&#45;&gt;Node25</title>
<path fill="none" stroke="#191970" d="M1058.7829,-166.7913C1068.1382,-169.6626 1077.4212,-173.0411 1086,-177 1094.9602,-181.1349 1094.8374,-186.3354 1104,-190 1138.4521,-203.7792 1231.734,-214.5045 1299.3534,-220.7811"/>
<polygon fill="#191970" stroke="#191970" points="1059.6124,-163.3879 1049.0341,-163.9797 1057.6726,-170.1138 1059.6124,-163.3879"/>
</g>
<!-- Node36 -->
<g id="node32" class="node">
<title>Node36</title>
<g id="a_node32"><a xlink:href="classgko_1_1solver_1_1EnableSolverBase.html" target="_top" xlink:title=" ">
<polygon fill="#ffffff" stroke="#000000" points="1305.5,-163 1305.5,-193 1445.5,-193 1445.5,-163 1305.5,-163"/>
<text text-anchor="start" x="1313.5" y="-181" font-family="Helvetica,sans-Serif" font-size="10.00" fill="#000000">gko::solver::EnableSolver</text>
<text text-anchor="middle" x="1375.5" y="-170" font-family="Helvetica,sans-Serif" font-size="10.00" fill="#000000">Base&lt; DerivedType &gt;</text>
</a>
</g>
</g>
<!-- Node26&#45;&gt;Node36 -->
<g id="edge44" class="edge">
<title>Node26&#45;&gt;Node36</title>
<path fill="none" stroke="#191970" d="M1059.3551,-157.0312C1130.5298,-161.752 1236.1175,-168.7552 1305.3697,-173.3485"/>
<polygon fill="#191970" stroke="#191970" points="1059.3217,-153.5214 1049.112,-156.3518 1058.8584,-160.506 1059.3217,-153.5214"/>
</g>
<!-- Node27 -->
<g id="node23" class="node">
<title>Node27</title>
<g id="a_node23"><a xlink:href="classgko_1_1solver_1_1SolverBase.html" target="_top" xlink:title="A LinOp implementing this interface stores a system matrix.">
<polygon fill="#ffffff" stroke="#000000" points="564,-159 564,-189 695,-189 695,-159 564,-159"/>
<text text-anchor="start" x="572" y="-177" font-family="Helvetica,sans-Serif" font-size="10.00" fill="#000000">gko::solver::SolverBase</text>
<text text-anchor="middle" x="629.5" y="-166" font-family="Helvetica,sans-Serif" font-size="10.00" fill="#000000">&lt; MatrixType &gt;</text>
</a>
</g>
</g>
<!-- Node27&#45;&gt;Node26 -->
<g id="edge31" class="edge">
<title>Node27&#45;&gt;Node26</title>
<path fill="none" stroke="#ffa500" stroke-dasharray="5,2" d="M705.4764,-167.9957C719.608,-166.9453 734.2495,-165.9016 748,-165 805.306,-161.2425 870.505,-157.7003 917.7486,-155.2652"/>
<polygon fill="#ffa500" stroke="#ffa500" points="705.0066,-164.521 695.2966,-168.7598 705.5305,-171.5014 705.0066,-164.521"/>
<text text-anchor="middle" x="805.5" y="-168" font-family="Helvetica,sans-Serif" font-size="10.00" fill="#000000"> &lt; LinOp &gt;</text>
</g>
<!-- Node28 -->
<g id="node24" class="node">
<title>Node28</title>
<g id="a_node24"><a xlink:href="classgko_1_1solver_1_1EnableSolverBase.html" target="_top" xlink:title="A LinOp deriving from this CRTP class stores a system matrix.">
<polygon fill="#ffffff" stroke="#000000" points="892,-186 892,-216 1075,-216 1075,-186 892,-186"/>
<text text-anchor="start" x="900" y="-204" font-family="Helvetica,sans-Serif" font-size="10.00" fill="#000000">gko::solver::EnableSolver</text>
<text text-anchor="middle" x="983.5" y="-193" font-family="Helvetica,sans-Serif" font-size="10.00" fill="#000000">Base&lt; DerivedType, MatrixType &gt;</text>
</a>
</g>
</g>
<!-- Node27&#45;&gt;Node28 -->
<g id="edge33" class="edge">
<title>Node27&#45;&gt;Node28</title>
<path fill="none" stroke="#191970" d="M705.5556,-179.8009C760.1184,-183.9624 833.9058,-189.5903 891.7417,-194.0015"/>
<polygon fill="#191970" stroke="#191970" points="705.4923,-176.2859 695.2551,-179.0152 704.9599,-183.2657 705.4923,-176.2859"/>
</g>
<!-- Node28&#45;&gt;Node25 -->
<g id="edge32" class="edge">
<title>Node28&#45;&gt;Node25</title>
<path fill="none" stroke="#ffa500" stroke-dasharray="5,2" d="M1085.218,-213.3389C1091.5691,-213.9478 1097.8692,-214.509 1104,-215 1169.8432,-220.2732 1244.8685,-223.3677 1299.3411,-225.0894"/>
<polygon fill="#ffa500" stroke="#ffa500" points="1085.5097,-209.8508 1075.2129,-212.3459 1084.8183,-216.8165 1085.5097,-209.8508"/>
<text text-anchor="middle" x="1180.5" y="-226" font-family="Helvetica,sans-Serif" font-size="10.00" fill="#000000"> &lt; Fcg&lt; ValueType &gt; &gt;</text>
</g>
<!-- Node28&#45;&gt;Node36 -->
<g id="edge45" class="edge">
<title>Node28&#45;&gt;Node36</title>
<path fill="none" stroke="#ffa500" stroke-dasharray="5,2" d="M1085.4475,-195.0184C1154.5474,-190.9641 1244.0898,-185.7103 1305.2937,-182.1192"/>
<polygon fill="#ffa500" stroke="#ffa500" points="1085.1844,-191.5277 1075.4066,-195.6075 1085.5945,-198.5157 1085.1844,-191.5277"/>
<text text-anchor="middle" x="1180.5" y="-196" font-family="Helvetica,sans-Serif" font-size="10.00" fill="#000000"> &lt; DerivedType &gt;</text>
</g>
<!-- Node29 -->
<g id="node25" class="node">
<title>Node29</title>
<g id="a_node25"><a xlink:href="classgko_1_1solver_1_1EnableIterativeBase.html" target="_top" xlink:title=" ">
<polygon fill="#ffffff" stroke="#000000" points="1646.5,-26 1646.5,-56 1798.5,-56 1798.5,-26 1646.5,-26"/>
<text text-anchor="start" x="1654.5" y="-44" font-family="Helvetica,sans-Serif" font-size="10.00" fill="#000000">gko::solver::EnableIterative</text>
<text text-anchor="middle" x="1722.5" y="-33" font-family="Helvetica,sans-Serif" font-size="10.00" fill="#000000">Base&lt; Fcg&lt; ValueType &gt; &gt;</text>
</a>
</g>
</g>
<!-- Node29&#45;&gt;Node24 -->
<g id="edge34" class="edge">
<title>Node29&#45;&gt;Node24</title>
<path fill="none" stroke="#191970" d="M1799.4303,-58.4928C1857.7599,-73.2598 1939.0355,-97.1064 2006,-129 2014.6805,-133.1343 2015.3559,-136.79 2024,-141 2030.8795,-144.3506 2038.2249,-147.4657 2045.6466,-150.3218"/>
<polygon fill="#191970" stroke="#191970" points="1800.0949,-55.0513 1789.5446,-56.0213 1798.397,-61.8423 1800.0949,-55.0513"/>
</g>
<!-- Node30 -->
<g id="node26" class="node">
<title>Node30</title>
<g id="a_node26"><a xlink:href="classgko_1_1solver_1_1IterativeBase.html" target="_top" xlink:title="A LinOp implementing this interface stores a stopping criterion factory.">
<polygon fill="#ffffff" stroke="#000000" points="912.5,-.5 912.5,-19.5 1054.5,-19.5 1054.5,-.5 912.5,-.5"/>
<text text-anchor="middle" x="983.5" y="-7.5" font-family="Helvetica,sans-Serif" font-size="10.00" fill="#000000">gko::solver::IterativeBase</text>
</a>
</g>
</g>
<!-- Node30&#45;&gt;Node29 -->
<g id="edge35" class="edge">
<title>Node30&#45;&gt;Node29</title>
<path fill="none" stroke="#191970" d="M1064.6218,-8.7825C1162.3004,-7.8261 1331.2919,-7.7967 1476,-16 1533.2252,-19.244 1597.6619,-25.8842 1646.2989,-31.5061"/>
<polygon fill="#191970" stroke="#191970" points="1064.4868,-5.2836 1054.5237,-8.8872 1064.5595,-12.2832 1064.4868,-5.2836"/>
</g>
<!-- Node31 -->
<g id="node27" class="node">
<title>Node31</title>
<g id="a_node27"><a xlink:href="classgko_1_1solver_1_1EnableIterativeBase.html" target="_top" xlink:title="A LinOp deriving from this CRTP class stores a stopping criterion factory.">
<polygon fill="#ffffff" stroke="#000000" points="1300,-26 1300,-56 1451,-56 1451,-26 1300,-26"/>
<text text-anchor="start" x="1308" y="-44" font-family="Helvetica,sans-Serif" font-size="10.00" fill="#000000">gko::solver::EnableIterative</text>
<text text-anchor="middle" x="1375.5" y="-33" font-family="Helvetica,sans-Serif" font-size="10.00" fill="#000000">Base&lt; DerivedType &gt;</text>
</a>
</g>
</g>
<!-- Node30&#45;&gt;Node31 -->
<g id="edge37" class="edge">
<title>Node30&#45;&gt;Node31</title>
<path fill="none" stroke="#191970" d="M1064.9211,-16.4389C1134.0397,-21.9049 1232.4556,-29.6878 1299.8695,-35.019"/>
<polygon fill="#191970" stroke="#191970" points="1065.1879,-12.9492 1054.943,-15.6498 1064.636,-19.9274 1065.1879,-12.9492"/>
</g>
<!-- Node31&#45;&gt;Node29 -->
<g id="edge36" class="edge">
<title>Node31&#45;&gt;Node29</title>
<path fill="none" stroke="#ffa500" stroke-dasharray="5,2" d="M1461.2478,-41C1517.9726,-41 1591.6839,-41 1646.341,-41"/>
<polygon fill="#ffa500" stroke="#ffa500" points="1461.2219,-37.5001 1451.2218,-41 1461.2218,-44.5001 1461.2219,-37.5001"/>
<text text-anchor="middle" x="1551.5" y="-44" font-family="Helvetica,sans-Serif" font-size="10.00" fill="#000000"> &lt; Fcg&lt; ValueType &gt; &gt;</text>
</g>
<!-- Node35 -->
<g id="node31" class="node">
<title>Node35</title>
<g id="a_node31"><a xlink:href="classgko_1_1solver_1_1EnablePreconditionedIterativeSolver.html" target="_top" xlink:title="A LinOp implementing this interface stores a system matrix and stopping criterion factory.">
<polygon fill="#ffffff" stroke="#000000" points="1631.5,-150.5 1631.5,-191.5 1813.5,-191.5 1813.5,-150.5 1631.5,-150.5"/>
<text text-anchor="start" x="1639.5" y="-179.5" font-family="Helvetica,sans-Serif" font-size="10.00" fill="#000000">gko::solver::EnablePreconditioned</text>
<text text-anchor="start" x="1639.5" y="-168.5" font-family="Helvetica,sans-Serif" font-size="10.00" fill="#000000">IterativeSolver&lt; ValueType,</text>
<text text-anchor="middle" x="1722.5" y="-157.5" font-family="Helvetica,sans-Serif" font-size="10.00" fill="#000000"> DerivedType &gt;</text>
</a>
</g>
</g>
<!-- Node31&#45;&gt;Node35 -->
<g id="edge46" class="edge">
<title>Node31&#45;&gt;Node35</title>
<path fill="none" stroke="#191970" d="M1415.3288,-60.9971C1434.9349,-72.0208 1458.1332,-86.93 1476,-104 1486.1621,-113.7089 1482.1781,-122.3992 1494,-130 1505.8443,-137.6152 1572.8512,-149.1343 1631.2647,-158.0258"/>
<polygon fill="#191970" stroke="#191970" points="1416.7708,-57.7962 1406.3194,-56.0588 1413.4062,-63.9346 1416.7708,-57.7962"/>
</g>
<!-- Node32 -->
<g id="node28" class="node">
<title>Node32</title>
<g id="a_node28"><a xlink:href="classgko_1_1solver_1_1EnablePreconditionable.html" target="_top" xlink:title=" ">
<polygon fill="#ffffff" stroke="#000000" points="1627,-101 1627,-131 1818,-131 1818,-101 1627,-101"/>
<text text-anchor="start" x="1635" y="-119" font-family="Helvetica,sans-Serif" font-size="10.00" fill="#000000">gko::solver::EnablePreconditionable</text>
<text text-anchor="middle" x="1722.5" y="-108" font-family="Helvetica,sans-Serif" font-size="10.00" fill="#000000">&lt; Fcg&lt; ValueType &gt; &gt;</text>
</a>
</g>
</g>
<!-- Node32&#45;&gt;Node24 -->
<g id="edge38" class="edge">
<title>Node32&#45;&gt;Node24</title>
<path fill="none" stroke="#191970" d="M1828.0735,-130.7937C1889.1745,-139.3557 1965.3068,-150.0239 2023.7923,-158.2193"/>
<polygon fill="#191970" stroke="#191970" points="1828.4034,-127.3058 1818.0144,-129.3842 1827.4319,-134.2381 1828.4034,-127.3058"/>
</g>
<!-- Node33 -->
<g id="node29" class="node">
<title>Node33</title>
<g id="a_node29"><a xlink:href="classgko_1_1Preconditionable.html" target="_top" xlink:title="A LinOp implementing this interface can be preconditioned.">
<polygon fill="#ffffff" stroke="#000000" points="922.5,-83.5 922.5,-102.5 1044.5,-102.5 1044.5,-83.5 922.5,-83.5"/>
<text text-anchor="middle" x="983.5" y="-90.5" font-family="Helvetica,sans-Serif" font-size="10.00" fill="#000000">gko::Preconditionable</text>
</a>
</g>
</g>
<!-- Node33&#45;&gt;Node32 -->
<g id="edge39" class="edge">
<title>Node33&#45;&gt;Node32</title>
<path fill="none" stroke="#191970" d="M1054.7012,-94.0028C1150.4804,-95.4862 1326.1178,-98.6789 1476,-104 1525.7769,-105.7672 1581.1766,-108.4039 1626.828,-110.756"/>
<polygon fill="#191970" stroke="#191970" points="1054.6071,-90.5011 1044.5546,-93.8475 1054.4998,-97.5002 1054.6071,-90.5011"/>
</g>
<!-- Node34 -->
<g id="node30" class="node">
<title>Node34</title>
<g id="a_node30"><a xlink:href="classgko_1_1solver_1_1EnablePreconditionable.html" target="_top" xlink:title="Mixin providing default operation for Preconditionable with correct value semantics.">
<polygon fill="#ffffff" stroke="#000000" points="1280,-114 1280,-144 1471,-144 1471,-114 1280,-114"/>
<text text-anchor="start" x="1288" y="-132" font-family="Helvetica,sans-Serif" font-size="10.00" fill="#000000">gko::solver::EnablePreconditionable</text>
<text text-anchor="middle" x="1375.5" y="-121" font-family="Helvetica,sans-Serif" font-size="10.00" fill="#000000">&lt; DerivedType &gt;</text>
</a>
</g>
</g>
<!-- Node33&#45;&gt;Node34 -->
<g id="edge41" class="edge">
<title>Node33&#45;&gt;Node34</title>
<path fill="none" stroke="#191970" d="M1055.0055,-99.5668C1118.1011,-105.3613 1210.5661,-113.853 1279.982,-120.2279"/>
<polygon fill="#191970" stroke="#191970" points="1055.0282,-96.0543 1044.75,-98.625 1054.388,-103.0249 1055.0282,-96.0543"/>
</g>
<!-- Node34&#45;&gt;Node32 -->
<g id="edge40" class="edge">
<title>Node34&#45;&gt;Node32</title>
<path fill="none" stroke="#ffa500" stroke-dasharray="5,2" d="M1481.3096,-125.036C1527.6543,-123.2997 1581.6409,-121.2771 1626.7738,-119.5863"/>
<polygon fill="#ffa500" stroke="#ffa500" points="1481.0998,-121.5413 1471.2378,-125.4133 1481.3619,-128.5364 1481.0998,-121.5413"/>
<text text-anchor="middle" x="1551.5" y="-128" font-family="Helvetica,sans-Serif" font-size="10.00" fill="#000000"> &lt; Fcg&lt; ValueType &gt; &gt;</text>
</g>
<!-- Node34&#45;&gt;Node35 -->
<g id="edge47" class="edge">
<title>Node34&#45;&gt;Node35</title>
<path fill="none" stroke="#191970" d="M1445.9615,-146.23C1461.6933,-149.5812 1478.3522,-152.7478 1494,-155 1538.9707,-161.4726 1589.3128,-165.3547 1631.2749,-167.6693"/>
<polygon fill="#191970" stroke="#191970" points="1446.2934,-142.7202 1435.7772,-144.0089 1444.8017,-149.5595 1446.2934,-142.7202"/>
</g>
<!-- Node35&#45;&gt;Node24 -->
<g id="edge42" class="edge">
<title>Node35&#45;&gt;Node24</title>
<path fill="none" stroke="#ffa500" stroke-dasharray="5,2" d="M1823.696,-171C1885.502,-171 1963.8915,-171 2023.7807,-171"/>
<polygon fill="#ffa500" stroke="#ffa500" points="1823.534,-167.5001 1813.5339,-171 1823.5339,-174.5001 1823.534,-167.5001"/>
<text text-anchor="middle" x="1921" y="-174" font-family="Helvetica,sans-Serif" font-size="10.00" fill="#000000"> &lt; ValueType, Fcg&lt; ValueType &gt; &gt;</text>
</g>
<!-- Node36&#45;&gt;Node35 -->
<g id="edge43" class="edge">
<title>Node36&#45;&gt;Node35</title>
<path fill="none" stroke="#191970" d="M1455.5299,-180.5871C1500.6223,-181.5677 1557.9711,-182.02 1609,-180 1616.308,-179.7107 1623.8744,-179.317 1631.4719,-178.8552"/>
<polygon fill="#191970" stroke="#191970" points="1455.5951,-177.0878 1445.5171,-180.3564 1455.4338,-184.0859 1455.5951,-177.0878"/>
</g>
<!-- Node37 -->
<g id="node33" class="node">
<title>Node37</title>
<g id="a_node33"><a xlink:href="classgko_1_1Transposable.html" target="_top" xlink:title="Linear operators which support transposition should implement the Transposable interface.">
<polygon fill="#ffffff" stroke="#000000" points="2063,-112.5 2063,-131.5 2167,-131.5 2167,-112.5 2063,-112.5"/>
<text text-anchor="middle" x="2115" y="-119.5" font-family="Helvetica,sans-Serif" font-size="10.00" fill="#000000">gko::Transposable</text>
</a>
</g>
</g>
<!-- Node37&#45;&gt;Node1 -->
<g id="edge48" class="edge">
<title>Node37&#45;&gt;Node1</title>
<path fill="none" stroke="#191970" d="M2172.4033,-133.6201C2183.5648,-135.9826 2195.1616,-138.5091 2206,-141 2234.039,-147.444 2265.6014,-155.3978 2289.2451,-161.4962"/>
<polygon fill="#191970" stroke="#191970" points="2172.8151,-130.1303 2162.3095,-131.5023 2171.3777,-136.9812 2172.8151,-130.1303"/>
</g>
</g>
</svg>
        <g id="navigator" transform="translate(0 0)" fill="#404254">
                <rect fill="#f2f5e9" fill-opacity="0.5" stroke="#606060" stroke-width=".5" x="0" y="0" width="60" height="60"/>
                <use id="zoomplus" xlink:href="#zoomPlus" x="17" y="9" onmousedown="handleZoom(evt,'in')"/>
                <use id="zoomminus" xlink:href="#zoomMin" x="42" y="9" onmousedown="handleZoom(evt,'out')"/>
                <use id="reset" xlink:href="#resetDef" x="30" y="36" onmousedown="handleReset()"/>
                <g id="arrowUp" xlink:href="#dirArrow" transform="translate(30 24)" onmousedown="handlePan(0,-1)">
                  <use xlink:href="#rim" fill="#404040">
                        <set attributeName="fill" to="#808080" begin="arrowUp.mouseover" end="arrowUp.mouseout"/>
                  </use>
                  <path fill="none" stroke="white" stroke-width="1.5" d="M0,-3.0v7 M-2.5,-0.5L0,-3.0L2.5,-0.5"/>
                </g>
                <g id="arrowRight" xlink:href="#dirArrow" transform="rotate(90) translate(36 -43)" onmousedown="handlePan(1,0)">
                  <use xlink:href="#rim" fill="#404040">
                        <set attributeName="fill" to="#808080" begin="arrowRight.mouseover" end="arrowRight.mouseout"/>
                  </use>
                  <path fill="none" stroke="white" stroke-width="1.5" d="M0,-3.0v7 M-2.5,-0.5L0,-3.0L2.5,-0.5"/>
                </g>
                <g id="arrowDown" xlink:href="#dirArrow" transform="rotate(180) translate(-30 -48)" onmousedown="handlePan(0,1)">
                  <use xlink:href="#rim" fill="#404040">
                        <set attributeName="fill" to="#808080" begin="arrowDown.mouseover" end="arrowDown.mouseout"/>
                  </use>
                  <path fill="none" stroke="white" stroke-width="1.5" d="M0,-3.0v7 M-2.5,-0.5L0,-3.0L2.5,-0.5"/>
                </g>
                <g id="arrowLeft" xlink:href="#dirArrow" transform="rotate(270) translate(-36 17)" onmousedown="handlePan(-1,0)">
                  <use xlink:href="#rim" fill="#404040">
                        <set attributeName="fill" to="#808080" begin="arrowLeft.mouseover" end="arrowLeft.mouseout"/>
                  </use>
                  <path fill="none" stroke="white" stroke-width="1.5" d="M0,-3.0v7 M-2.5,-0.5L0,-3.0L2.5,-0.5"/>
                </g>
        </g>
        <svg viewBox="0 0 15 15" width="100%" height="30px" preserveAspectRatio="xMaxYMin meet">
         <g id="arrow_out" transform="scale(0.3 0.3)">
          <a xlink:href="classgko_1_1solver_1_1Fcg__coll__graph_org.svg" target="_base">
           <rect id="button" ry="5" rx="5" y="6" x="6" height="38" width="38"
                fill="#f2f5e9" fill-opacity="0.5" stroke="#606060" stroke-width="1.0"/>
           <path id="arrow"
             d="M 11.500037,31.436501 C 11.940474,20.09759 22.043105,11.32322 32.158766,21.979434 L 37.068811,17.246167 C 37.068811,17.246167 37.088388,32 37.088388,32 L 22.160133,31.978069 C 22.160133,31.978069 26.997745,27.140456 26.997745,27.140456 C 18.528582,18.264221 13.291696,25.230495 11.500037,31.436501 z"
             style="fill:#404040;"/>
          </a>
         </g>
        </svg>
</svg>
