<?xml version="1.0" encoding="UTF-8" standalone="no"?>
<!DOCTYPE svg PUBLIC "-//W3C//DTD SVG 1.1//EN"
 "http://www.w3.org/Graphics/SVG/1.1/DTD/svg11.dtd">
<!-- Generated by graphviz version 2.40.1 (20161225.0304)
 -->
<!-- Title: gko::solver::EnablePreconditionedIterativeSolver&lt; ValueType, DerivedType &gt; Pages: 1 -->
<svg width="945pt" height="183pt"
 viewBox="0.00 0.00 945.00 183.00" xmlns="http://www.w3.org/2000/svg" xmlns:xlink="http://www.w3.org/1999/xlink">
<g id="graph0" class="graph" transform="scale(1 1) rotate(0) translate(4 179)">
<title>gko::solver::EnablePreconditionedIterativeSolver&lt; ValueType, DerivedType &gt;</title>
<polygon fill="#ffffff" stroke="transparent" points="-4,4 -4,-179 941,-179 941,4 -4,4"/>
<!-- Node1 -->
<g id="node1" class="node">
<title>Node1</title>
<g id="a_node1"><a xlink:title="A LinOp implementing this interface stores a system matrix and stopping criterion factory.">
<polygon fill="#bfbfbf" stroke="#000000" points="755,-44 755,-85 937,-85 937,-44 755,-44"/>
<text text-anchor="start" x="763" y="-73" font-family="Helvetica,sans-Serif" font-size="10.00" fill="#000000">gko::solver::EnablePreconditioned</text>
<text text-anchor="start" x="763" y="-62" font-family="Helvetica,sans-Serif" font-size="10.00" fill="#000000">IterativeSolver&lt; ValueType,</text>
<text text-anchor="middle" x="846" y="-51" font-family="Helvetica,sans-Serif" font-size="10.00" fill="#000000"> DerivedType &gt;</text>
</a>
</g>
</g>
<!-- Node2 -->
<g id="node2" class="node">
<title>Node2</title>
<g id="a_node2"><a xlink:href="classgko_1_1solver_1_1EnableSolverBase.html" target="_top" xlink:title=" ">
<polygon fill="#ffffff" stroke="#000000" points="552.5,-98.5 552.5,-128.5 692.5,-128.5 692.5,-98.5 552.5,-98.5"/>
<text text-anchor="start" x="560.5" y="-116.5" font-family="Helvetica,sans-Serif" font-size="10.00" fill="#000000">gko::solver::EnableSolver</text>
<text text-anchor="middle" x="622.5" y="-105.5" font-family="Helvetica,sans-Serif" font-size="10.00" fill="#000000">Base&lt; DerivedType &gt;</text>
</a>
</g>
</g>
<!-- Node2&#45;&gt;Node1 -->
<g id="edge1" class="edge">
<title>Node2&#45;&gt;Node1</title>
<path fill="none" stroke="#191970" d="M701.1561,-96.2555C718.5305,-92.4463 737.0779,-88.38 754.8995,-84.4728"/>
<polygon fill="#191970" stroke="#191970" points="700.0947,-92.905 691.0763,-98.4654 701.5938,-99.7426 700.0947,-92.905"/>
</g>
<!-- Node3 -->
<g id="node3" class="node">
<title>Node3</title>
<g id="a_node3"><a xlink:href="classgko_1_1solver_1_1SolverBase.html" target="_top" xlink:title=" ">
<polygon fill="#ffffff" stroke="#000000" points="247,-144.5 247,-174.5 378,-174.5 378,-144.5 247,-144.5"/>
<text text-anchor="start" x="255" y="-162.5" font-family="Helvetica,sans-Serif" font-size="10.00" fill="#000000">gko::solver::SolverBase</text>
<text text-anchor="middle" x="312.5" y="-151.5" font-family="Helvetica,sans-Serif" font-size="10.00" fill="#000000">&lt; LinOp &gt;</text>
</a>
</g>
</g>
<!-- Node3&#45;&gt;Node2 -->
<g id="edge2" class="edge">
<title>Node3&#45;&gt;Node2</title>
<path fill="none" stroke="#191970" d="M388.3576,-148.2437C438.3808,-140.8209 503.4339,-131.1679 552.2712,-123.921"/>
<polygon fill="#191970" stroke="#191970" points="387.621,-144.8146 378.243,-149.7446 388.6485,-151.7388 387.621,-144.8146"/>
</g>
<!-- Node4 -->
<g id="node4" class="node">
<title>Node4</title>
<g id="a_node4"><a xlink:href="classgko_1_1solver_1_1SolverBase.html" target="_top" xlink:title="A LinOp implementing this interface stores a system matrix.">
<polygon fill="#ffffff" stroke="#000000" points="0,-119.5 0,-149.5 131,-149.5 131,-119.5 0,-119.5"/>
<text text-anchor="start" x="8" y="-137.5" font-family="Helvetica,sans-Serif" font-size="10.00" fill="#000000">gko::solver::SolverBase</text>
<text text-anchor="middle" x="65.5" y="-126.5" font-family="Helvetica,sans-Serif" font-size="10.00" fill="#000000">&lt; MatrixType &gt;</text>
</a>
</g>
</g>
<!-- Node4&#45;&gt;Node3 -->
<g id="edge3" class="edge">
<title>Node4&#45;&gt;Node3</title>
<path fill="none" stroke="#ffa500" stroke-dasharray="5,2" d="M141.299,-142.172C174.9686,-145.5798 214.2273,-149.5534 246.6507,-152.8351"/>
<polygon fill="#ffa500" stroke="#ffa500" points="141.3446,-138.6588 131.043,-141.1339 140.6397,-145.6232 141.3446,-138.6588"/>
<text text-anchor="middle" x="176" y="-150.5" font-family="Helvetica,sans-Serif" font-size="10.00" fill="#000000"> &lt; LinOp &gt;</text>
</g>
<!-- Node5 -->
<g id="node5" class="node">
<title>Node5</title>
<g id="a_node5"><a xlink:href="classgko_1_1solver_1_1EnableSolverBase.html" target="_top" xlink:title="A LinOp deriving from this CRTP class stores a system matrix.">
<polygon fill="#ffffff" stroke="#000000" points="221,-95.5 221,-125.5 404,-125.5 404,-95.5 221,-95.5"/>
<text text-anchor="start" x="229" y="-113.5" font-family="Helvetica,sans-Serif" font-size="10.00" fill="#000000">gko::solver::EnableSolver</text>
<text text-anchor="middle" x="312.5" y="-102.5" font-family="Helvetica,sans-Serif" font-size="10.00" fill="#000000">Base&lt; DerivedType, MatrixType &gt;</text>
</a>
</g>
</g>
<!-- Node4&#45;&gt;Node5 -->
<g id="edge5" class="edge">
<title>Node4&#45;&gt;Node5</title>
<path fill="none" stroke="#191970" d="M141.2154,-127.143C166.2866,-124.707 194.464,-121.9691 220.6141,-119.4282"/>
<polygon fill="#191970" stroke="#191970" points="140.6576,-123.6807 131.043,-128.1315 141.3346,-130.6479 140.6576,-123.6807"/>
</g>
<!-- Node5&#45;&gt;Node2 -->
<g id="edge4" class="edge">
<title>Node5&#45;&gt;Node2</title>
<path fill="none" stroke="#ffa500" stroke-dasharray="5,2" d="M414.3649,-111.4858C459.4881,-111.9225 511.4464,-112.4253 552.1615,-112.8193"/>
<polygon fill="#ffa500" stroke="#ffa500" points="414.2854,-107.985 404.252,-111.3879 414.2176,-114.9846 414.2854,-107.985"/>
<text text-anchor="middle" x="465.5" y="-114.5" font-family="Helvetica,sans-Serif" font-size="10.00" fill="#000000"> &lt; DerivedType &gt;</text>
</g>
<!-- Node6 -->
<g id="node6" class="node">
<title>Node6</title>
<g id="a_node6"><a xlink:href="classgko_1_1solver_1_1EnableIterativeBase.html" target="_top" xlink:title="A LinOp deriving from this CRTP class stores a stopping criterion factory and allows applying with a ...">
<polygon fill="#ffffff" stroke="#000000" points="547,-49.5 547,-79.5 698,-79.5 698,-49.5 547,-49.5"/>
<text text-anchor="start" x="555" y="-67.5" font-family="Helvetica,sans-Serif" font-size="10.00" fill="#000000">gko::solver::EnableIterative</text>
<text text-anchor="middle" x="622.5" y="-56.5" font-family="Helvetica,sans-Serif" font-size="10.00" fill="#000000">Base&lt; DerivedType &gt;</text>
</a>
</g>
</g>
<!-- Node6&#45;&gt;Node1 -->
<g id="edge6" class="edge">
<title>Node6&#45;&gt;Node1</title>
<path fill="none" stroke="#191970" d="M708.5613,-64.5C723.7513,-64.5 739.6108,-64.5 754.9328,-64.5"/>
<polygon fill="#191970" stroke="#191970" points="708.1669,-61.0001 698.1669,-64.5 708.1669,-68.0001 708.1669,-61.0001"/>
</g>
<!-- Node7 -->
<g id="node7" class="node">
<title>Node7</title>
<g id="a_node7"><a xlink:href="classgko_1_1solver_1_1IterativeBase.html" target="_top" xlink:title="A LinOp implementing this interface stores a stopping criterion factory.">
<polygon fill="#ffffff" stroke="#000000" points="241.5,-55 241.5,-74 383.5,-74 383.5,-55 241.5,-55"/>
<text text-anchor="middle" x="312.5" y="-62" font-family="Helvetica,sans-Serif" font-size="10.00" fill="#000000">gko::solver::IterativeBase</text>
</a>
</g>
</g>
<!-- Node7&#45;&gt;Node6 -->
<g id="edge7" class="edge">
<title>Node7&#45;&gt;Node6</title>
<path fill="none" stroke="#191970" d="M393.8408,-64.5C441.1928,-64.5 500.4952,-64.5 546.8405,-64.5"/>
<polygon fill="#191970" stroke="#191970" points="393.6203,-61.0001 383.6203,-64.5 393.6202,-68.0001 393.6203,-61.0001"/>
</g>
<!-- Node8 -->
<g id="node8" class="node">
<title>Node8</title>
<g id="a_node8"><a xlink:href="classgko_1_1solver_1_1EnablePreconditionable.html" target="_top" xlink:title="Mixin providing default operation for Preconditionable with correct value semantics.">
<polygon fill="#ffffff" stroke="#000000" points="527,-.5 527,-30.5 718,-30.5 718,-.5 527,-.5"/>
<text text-anchor="start" x="535" y="-18.5" font-family="Helvetica,sans-Serif" font-size="10.00" fill="#000000">gko::solver::EnablePreconditionable</text>
<text text-anchor="middle" x="622.5" y="-7.5" font-family="Helvetica,sans-Serif" font-size="10.00" fill="#000000">&lt; DerivedType &gt;</text>
</a>
</g>
</g>
<!-- Node8&#45;&gt;Node1 -->
<g id="edge8" class="edge">
<title>Node8&#45;&gt;Node1</title>
<path fill="none" stroke="#191970" d="M701.1561,-32.7445C718.5305,-36.5537 737.0779,-40.62 754.8995,-44.5272"/>
<polygon fill="#191970" stroke="#191970" points="701.5938,-29.2574 691.0763,-30.5346 700.0947,-36.095 701.5938,-29.2574"/>
</g>
<!-- Node9 -->
<g id="node9" class="node">
<title>Node9</title>
<g id="a_node9"><a xlink:href="classgko_1_1Preconditionable.html" target="_top" xlink:title="A LinOp implementing this interface can be preconditioned.">
<polygon fill="#ffffff" stroke="#000000" points="251.5,-6 251.5,-25 373.5,-25 373.5,-6 251.5,-6"/>
<text text-anchor="middle" x="312.5" y="-13" font-family="Helvetica,sans-Serif" font-size="10.00" fill="#000000">gko::Preconditionable</text>
</a>
</g>
</g>
<!-- Node9&#45;&gt;Node8 -->
<g id="edge9" class="edge">
<title>Node9&#45;&gt;Node8</title>
<path fill="none" stroke="#191970" d="M383.9913,-15.5C426.438,-15.5 480.7963,-15.5 526.8958,-15.5"/>
<polygon fill="#191970" stroke="#191970" points="383.7461,-12.0001 373.746,-15.5 383.746,-19.0001 383.7461,-12.0001"/>
</g>
</g>
</svg>
