<?xml version="1.0" encoding="UTF-8" standalone="no"?>
<!DOCTYPE svg PUBLIC "-//W3C//DTD SVG 1.1//EN"
 "http://www.w3.org/Graphics/SVG/1.1/DTD/svg11.dtd">
<!-- Generated by graphviz version 2.40.1 (20161225.0304)
 -->
<!-- Title: gko::CpuAllocatorBase Pages: 1 -->
<svg width="434pt" height="180pt"
 viewBox="0.00 0.00 434.00 180.00" xmlns="http://www.w3.org/2000/svg" xmlns:xlink="http://www.w3.org/1999/xlink">
<g id="graph0" class="graph" transform="scale(1 1) rotate(0) translate(4 176)">
<title>gko::CpuAllocatorBase</title>
<polygon fill="#ffffff" stroke="transparent" points="-4,4 -4,-176 430,-176 430,4 -4,4"/>
<!-- Node1 -->
<g id="node1" class="node">
<title>Node1</title>
<g id="a_node1"><a xlink:title="Implement this interface to provide an allocator for OmpExecutor or ReferenceExecutor.">
<polygon fill="#bfbfbf" stroke="#000000" points="120,-76.5 120,-95.5 247,-95.5 247,-76.5 120,-76.5"/>
<text text-anchor="middle" x="183.5" y="-83.5" font-family="Helvetica,sans-Serif" font-size="10.00" fill="#000000">gko::CpuAllocatorBase</text>
</a>
</g>
</g>
<!-- Node3 -->
<g id="node3" class="node">
<title>Node3</title>
<g id="a_node3"><a xlink:href="classgko_1_1CpuAllocator.html" target="_top" xlink:title="Allocator using new/delete.">
<polygon fill="#ffffff" stroke="#000000" points="303,-152.5 303,-171.5 406,-171.5 406,-152.5 303,-152.5"/>
<text text-anchor="middle" x="354.5" y="-159.5" font-family="Helvetica,sans-Serif" font-size="10.00" fill="#000000">gko::CpuAllocator</text>
</a>
</g>
</g>
<!-- Node1&#45;&gt;Node3 -->
<g id="edge2" class="edge">
<title>Node1&#45;&gt;Node3</title>
<path fill="none" stroke="#191970" d="M205.924,-101.1147C225.5453,-113.7765 255.1823,-131.5661 283,-143 291.9097,-146.6622 301.7358,-149.8093 311.1766,-152.4289"/>
<polygon fill="#191970" stroke="#191970" points="207.6847,-98.084 197.4022,-95.5303 203.8479,-103.9388 207.6847,-98.084"/>
</g>
<!-- Node4 -->
<g id="node4" class="node">
<title>Node4</title>
<g id="a_node4"><a xlink:href="classgko_1_1CudaHostAllocator.html" target="_top" xlink:title=" ">
<polygon fill="#ffffff" stroke="#000000" points="289,-114.5 289,-133.5 420,-133.5 420,-114.5 289,-114.5"/>
<text text-anchor="middle" x="354.5" y="-121.5" font-family="Helvetica,sans-Serif" font-size="10.00" fill="#000000">gko::CudaHostAllocator</text>
</a>
</g>
</g>
<!-- Node1&#45;&gt;Node4 -->
<g id="edge3" class="edge">
<title>Node1&#45;&gt;Node4</title>
<path fill="none" stroke="#191970" d="M236.7092,-97.8243C260.8172,-103.1816 288.9401,-109.4311 311.6598,-114.4799"/>
<polygon fill="#191970" stroke="#191970" points="237.1717,-94.3417 226.6505,-95.589 235.6531,-101.175 237.1717,-94.3417"/>
</g>
<!-- Node5 -->
<g id="node5" class="node">
<title>Node5</title>
<g id="a_node5"><a xlink:href="classgko_1_1CudaUnifiedAllocator.html" target="_top" xlink:title=" ">
<polygon fill="#ffffff" stroke="#000000" points="283,-76.5 283,-95.5 426,-95.5 426,-76.5 283,-76.5"/>
<text text-anchor="middle" x="354.5" y="-83.5" font-family="Helvetica,sans-Serif" font-size="10.00" fill="#000000">gko::CudaUnifiedAllocator</text>
</a>
</g>
</g>
<!-- Node1&#45;&gt;Node5 -->
<g id="edge4" class="edge">
<title>Node1&#45;&gt;Node5</title>
<path fill="none" stroke="#191970" d="M257.3413,-86C265.7575,-86 274.3272,-86 282.7161,-86"/>
<polygon fill="#191970" stroke="#191970" points="257.1741,-82.5001 247.1741,-86 257.1741,-89.5001 257.1741,-82.5001"/>
</g>
<!-- Node6 -->
<g id="node6" class="node">
<title>Node6</title>
<g id="a_node6"><a xlink:href="classgko_1_1HipHostAllocator.html" target="_top" xlink:title=" ">
<polygon fill="#ffffff" stroke="#000000" points="293,-38.5 293,-57.5 416,-57.5 416,-38.5 293,-38.5"/>
<text text-anchor="middle" x="354.5" y="-45.5" font-family="Helvetica,sans-Serif" font-size="10.00" fill="#000000">gko::HipHostAllocator</text>
</a>
</g>
</g>
<!-- Node1&#45;&gt;Node6 -->
<g id="edge5" class="edge">
<title>Node1&#45;&gt;Node6</title>
<path fill="none" stroke="#191970" d="M236.7092,-74.1757C260.8172,-68.8184 288.9401,-62.5689 311.6598,-57.5201"/>
<polygon fill="#191970" stroke="#191970" points="235.6531,-70.825 226.6505,-76.411 237.1717,-77.6583 235.6531,-70.825"/>
</g>
<!-- Node7 -->
<g id="node7" class="node">
<title>Node7</title>
<g id="a_node7"><a xlink:href="classgko_1_1HipUnifiedAllocator.html" target="_top" xlink:title=" ">
<polygon fill="#ffffff" stroke="#000000" points="287,-.5 287,-19.5 422,-19.5 422,-.5 287,-.5"/>
<text text-anchor="middle" x="354.5" y="-7.5" font-family="Helvetica,sans-Serif" font-size="10.00" fill="#000000">gko::HipUnifiedAllocator</text>
</a>
</g>
</g>
<!-- Node1&#45;&gt;Node7 -->
<g id="edge6" class="edge">
<title>Node1&#45;&gt;Node7</title>
<path fill="none" stroke="#191970" d="M205.924,-70.8853C225.5453,-58.2235 255.1823,-40.4339 283,-29 291.9097,-25.3378 301.7358,-22.1907 311.1766,-19.5711"/>
<polygon fill="#191970" stroke="#191970" points="203.8479,-68.0612 197.4022,-76.4697 207.6847,-73.916 203.8479,-68.0612"/>
</g>
<!-- Node2 -->
<g id="node2" class="node">
<title>Node2</title>
<g id="a_node2"><a xlink:href="classgko_1_1Allocator.html" target="_top" xlink:title="Provides generic allocation and deallocation functionality to be used by an Executor.">
<polygon fill="#ffffff" stroke="#000000" points="0,-76.5 0,-95.5 84,-95.5 84,-76.5 0,-76.5"/>
<text text-anchor="middle" x="42" y="-83.5" font-family="Helvetica,sans-Serif" font-size="10.00" fill="#000000">gko::Allocator</text>
</a>
</g>
</g>
<!-- Node2&#45;&gt;Node1 -->
<g id="edge1" class="edge">
<title>Node2&#45;&gt;Node1</title>
<path fill="none" stroke="#191970" d="M94.0773,-86C102.4621,-86 111.2237,-86 119.8434,-86"/>
<polygon fill="#191970" stroke="#191970" points="94.0716,-82.5001 84.0716,-86 94.0715,-89.5001 94.0716,-82.5001"/>
</g>
</g>
</svg>
