<?xml version="1.0" encoding="UTF-8" standalone="no"?>
<!DOCTYPE svg PUBLIC "-//W3C//DTD SVG 1.1//EN"
 "http://www.w3.org/Graphics/SVG/1.1/DTD/svg11.dtd">
<!-- Generated by graphviz version 2.40.1 (20161225.0304)
 -->
<!-- Title: gko::deferred_factory_parameter&lt; FactoryType &gt; Pages: 1 -->
<!--zoomable 460 -->
<svg id="main" version="1.1" xmlns="http://www.w3.org/2000/svg" xmlns:xlink="http://www.w3.org/1999/xlink" xml:space="preserve" onload="init(evt)">
<style type="text/css"><![CDATA[
.edge:hover path { stroke: red; }
.edge:hover polygon { stroke: red; fill: red; }
]]></style>
<script type="text/javascript"><![CDATA[
var edges = document.getElementsByTagName('g');
if (edges && edges.length) {
  for (var i=0;i<edges.length;i++) {
    if (edges[i].id.substr(0,4)=='edge') {
      edges[i].setAttribute('class','edge');
    }
  }
}
]]></script>
        <defs>
                <circle id="rim" cx="0" cy="0" r="7"/>
                <circle id="rim2" cx="0" cy="0" r="3.5"/>
                <g id="zoomPlus">
                        <use xlink:href="#rim" fill="#404040">
                                <set attributeName="fill" to="#808080" begin="zoomplus.mouseover" end="zoomplus.mouseout"/>
                        </use>
                        <path d="M-4,0h8M0,-4v8" fill="none" stroke="white" stroke-width="1.5" pointer-events="none"/>
                </g>
                <g id="zoomMin">
                        <use xlink:href="#rim" fill="#404040">
                                <set attributeName="fill" to="#808080" begin="zoomminus.mouseover" end="zoomminus.mouseout"/>
                        </use>
                        <path d="M-4,0h8" fill="none" stroke="white" stroke-width="1.5" pointer-events="none"/>
                </g>
                <g id="dirArrow">
                        <path fill="none" stroke="white" stroke-width="1.5" d="M0,-3.0v7 M-2.5,-0.5L0,-3.0L2.5,-0.5"/>
                </g>
               <g id="resetDef">
                       <use xlink:href="#rim2" fill="#404040">
                               <set attributeName="fill" to="#808080" begin="reset.mouseover" end="reset.mouseout"/>
                       </use>
               </g>
        </defs>

<script type="text/javascript">
var viewWidth = 502;
var viewHeight = 460;
var sectionId = 'dynsection-0';
</script>
<script xlink:href="svgpan.js"/>
<svg id="graph" class="graph">
<g id="viewport">
<title>gko::deferred_factory_parameter&lt; FactoryType &gt;</title>
<polygon fill="#ffffff" stroke="transparent" points="-4,4 -4,-456 498,-456 498,4 -4,4"/>
<!-- Node1 -->
<g id="node1" class="node">
<title>Node1</title>
<g id="a_node1"><a xlink:title="Represents a factory parameter of factory type that can either initialized by a pre&#45;existing factory ...">
<polygon fill="#bfbfbf" stroke="#000000" points="0,-208 0,-238 153,-238 153,-208 0,-208"/>
<text text-anchor="start" x="8" y="-226" font-family="Helvetica,sans-Serif" font-size="10.00" fill="#000000">gko::deferred_factory</text>
<text text-anchor="middle" x="76.5" y="-215" font-family="Helvetica,sans-Serif" font-size="10.00" fill="#000000">_parameter&lt; FactoryType &gt;</text>
</a>
</g>
</g>
<!-- Node2 -->
<g id="node2" class="node">
<title>Node2</title>
<g id="a_node2"><a xlink:href="classgko_1_1deferred__factory__parameter.html" target="_top" xlink:title=" ">
<polygon fill="#ffffff" stroke="#000000" points="341,-410.5 341,-451.5 484,-451.5 484,-410.5 341,-410.5"/>
<text text-anchor="start" x="349" y="-439.5" font-family="Helvetica,sans-Serif" font-size="10.00" fill="#000000">gko::deferred_factory</text>
<text text-anchor="start" x="349" y="-428.5" font-family="Helvetica,sans-Serif" font-size="10.00" fill="#000000">_parameter&lt; local_solver</text>
<text text-anchor="middle" x="412.5" y="-417.5" font-family="Helvetica,sans-Serif" font-size="10.00" fill="#000000">_type &gt;</text>
</a>
</g>
</g>
<!-- Node1&#45;&gt;Node2 -->
<g id="edge1" class="edge">
<title>Node1&#45;&gt;Node2</title>
<path fill="none" stroke="#ffa500" stroke-dasharray="5,2" d="M85.0927,-247.7973C98.1636,-281.7154 126.3461,-342.007 171,-374 220.639,-409.5647 289.3496,-423.2203 340.7924,-428.3253"/>
<polygon fill="#ffa500" stroke="#ffa500" points="88.2828,-246.3338 81.5198,-238.1782 81.7208,-248.7711 88.2828,-246.3338"/>
<text text-anchor="middle" x="242" y="-426" font-family="Helvetica,sans-Serif" font-size="10.00" fill="#000000"> &lt; local_solver_type &gt;</text>
</g>
<!-- Node3 -->
<g id="node3" class="node">
<title>Node3</title>
<g id="a_node3"><a xlink:href="classgko_1_1deferred__factory__parameter.html" target="_top" xlink:title=" ">
<polygon fill="#ffffff" stroke="#000000" points="347,-350.5 347,-391.5 478,-391.5 478,-350.5 347,-350.5"/>
<text text-anchor="start" x="355" y="-379.5" font-family="Helvetica,sans-Serif" font-size="10.00" fill="#000000">gko::deferred_factory</text>
<text text-anchor="start" x="355" y="-368.5" font-family="Helvetica,sans-Serif" font-size="10.00" fill="#000000">_parameter&lt; const gko</text>
<text text-anchor="middle" x="412.5" y="-357.5" font-family="Helvetica,sans-Serif" font-size="10.00" fill="#000000">::LinOpFactory &gt;</text>
</a>
</g>
</g>
<!-- Node1&#45;&gt;Node3 -->
<g id="edge2" class="edge">
<title>Node1&#45;&gt;Node3</title>
<path fill="none" stroke="#ffa500" stroke-dasharray="5,2" d="M94.0578,-246.2042C111.3246,-267.3594 139.6001,-297.8492 171,-315 225.8642,-344.9672 296.2149,-358.9563 346.8164,-365.4516"/>
<polygon fill="#ffa500" stroke="#ffa500" points="96.7504,-243.9669 87.7821,-238.326 91.2753,-248.3284 96.7504,-243.9669"/>
<text text-anchor="middle" x="242" y="-362" font-family="Helvetica,sans-Serif" font-size="10.00" fill="#000000"> &lt; const gko::LinOpFactory &gt;</text>
</g>
<!-- Node4 -->
<g id="node4" class="node">
<title>Node4</title>
<g id="a_node4"><a xlink:href="classgko_1_1deferred__factory__parameter.html" target="_top" xlink:title=" ">
<polygon fill="#ffffff" stroke="#000000" points="331,-290.5 331,-331.5 494,-331.5 494,-290.5 331,-290.5"/>
<text text-anchor="start" x="339" y="-319.5" font-family="Helvetica,sans-Serif" font-size="10.00" fill="#000000">gko::deferred_factory</text>
<text text-anchor="start" x="339" y="-308.5" font-family="Helvetica,sans-Serif" font-size="10.00" fill="#000000">_parameter&lt; const typename</text>
<text text-anchor="middle" x="412.5" y="-297.5" font-family="Helvetica,sans-Serif" font-size="10.00" fill="#000000"> u_solver_type::Factory &gt;</text>
</a>
</g>
</g>
<!-- Node1&#45;&gt;Node4 -->
<g id="edge3" class="edge">
<title>Node1&#45;&gt;Node4</title>
<path fill="none" stroke="#ffa500" stroke-dasharray="5,2" d="M126.3112,-241.5664C140.633,-246.5844 156.3446,-251.7866 171,-256 223.6915,-271.1486 283.8016,-284.8505 330.8704,-294.7892"/>
<polygon fill="#ffa500" stroke="#ffa500" points="127.243,-238.1832 116.6482,-238.1361 124.9012,-244.7799 127.243,-238.1832"/>
<text text-anchor="start" x="184.5" y="-303" font-family="Helvetica,sans-Serif" font-size="10.00" fill="#000000"> &lt; const typename u</text>
<text text-anchor="middle" x="242" y="-292" font-family="Helvetica,sans-Serif" font-size="10.00" fill="#000000">_solver_type::Factory &gt;</text>
</g>
<!-- Node5 -->
<g id="node5" class="node">
<title>Node5</title>
<g id="a_node5"><a xlink:href="classgko_1_1deferred__factory__parameter.html" target="_top" xlink:title=" ">
<polygon fill="#ffffff" stroke="#000000" points="339.5,-230.5 339.5,-271.5 485.5,-271.5 485.5,-230.5 339.5,-230.5"/>
<text text-anchor="start" x="347.5" y="-259.5" font-family="Helvetica,sans-Serif" font-size="10.00" fill="#000000">gko::deferred_factory</text>
<text text-anchor="start" x="347.5" y="-248.5" font-family="Helvetica,sans-Serif" font-size="10.00" fill="#000000">_parameter&lt; factorization</text>
<text text-anchor="middle" x="412.5" y="-237.5" font-family="Helvetica,sans-Serif" font-size="10.00" fill="#000000">_type &gt;</text>
</a>
</g>
</g>
<!-- Node1&#45;&gt;Node5 -->
<g id="edge4" class="edge">
<title>Node1&#45;&gt;Node5</title>
<path fill="none" stroke="#ffa500" stroke-dasharray="5,2" d="M163.1779,-230.2232C217.791,-234.7742 287.5145,-240.5845 339.3353,-244.9029"/>
<polygon fill="#ffa500" stroke="#ffa500" points="163.4202,-226.7313 153.164,-229.3887 162.8388,-233.7071 163.4202,-226.7313"/>
<text text-anchor="middle" x="242" y="-244" font-family="Helvetica,sans-Serif" font-size="10.00" fill="#000000"> &lt; factorization_type &gt;</text>
</g>
<!-- Node6 -->
<g id="node6" class="node">
<title>Node6</title>
<g id="a_node6"><a xlink:href="classgko_1_1deferred__factory__parameter.html" target="_top" xlink:title=" ">
<polygon fill="#ffffff" stroke="#000000" points="336.5,-181 336.5,-211 488.5,-211 488.5,-181 336.5,-181"/>
<text text-anchor="start" x="344.5" y="-199" font-family="Helvetica,sans-Serif" font-size="10.00" fill="#000000">gko::deferred_factory</text>
<text text-anchor="middle" x="412.5" y="-188" font-family="Helvetica,sans-Serif" font-size="10.00" fill="#000000">_parameter&lt; solver_type &gt;</text>
</a>
</g>
</g>
<!-- Node1&#45;&gt;Node6 -->
<g id="edge5" class="edge">
<title>Node1&#45;&gt;Node6</title>
<path fill="none" stroke="#ffa500" stroke-dasharray="5,2" d="M163.3353,-216.0222C216.9189,-211.7163 285.0028,-206.2453 336.4553,-202.1107"/>
<polygon fill="#ffa500" stroke="#ffa500" points="162.8515,-212.5497 153.164,-216.8395 163.4123,-219.5272 162.8515,-212.5497"/>
<text text-anchor="middle" x="242" y="-218" font-family="Helvetica,sans-Serif" font-size="10.00" fill="#000000"> &lt; solver_type &gt;</text>
</g>
<!-- Node7 -->
<g id="node7" class="node">
<title>Node7</title>
<g id="a_node7"><a xlink:href="classgko_1_1deferred__factory__parameter.html" target="_top" xlink:title=" ">
<polygon fill="#ffffff" stroke="#000000" points="345,-120.5 345,-161.5 480,-161.5 480,-120.5 345,-120.5"/>
<text text-anchor="start" x="353" y="-149.5" font-family="Helvetica,sans-Serif" font-size="10.00" fill="#000000">gko::deferred_factory</text>
<text text-anchor="start" x="353" y="-138.5" font-family="Helvetica,sans-Serif" font-size="10.00" fill="#000000">_parameter&lt; gko::batch</text>
<text text-anchor="middle" x="412.5" y="-127.5" font-family="Helvetica,sans-Serif" font-size="10.00" fill="#000000">::BatchLinOpFactory &gt;</text>
</a>
</g>
</g>
<!-- Node1&#45;&gt;Node7 -->
<g id="edge6" class="edge">
<title>Node1&#45;&gt;Node7</title>
<path fill="none" stroke="#ffa500" stroke-dasharray="5,2" d="M112.1024,-203.0026C129.3991,-194.0877 150.7756,-184.2168 171,-178 228.2685,-160.3962 295.8618,-150.9543 344.9516,-146.0268"/>
<polygon fill="#ffa500" stroke="#ffa500" points="110.1612,-200.0692 102.9461,-207.8277 113.4246,-206.262 110.1612,-200.0692"/>
<text text-anchor="start" x="178.5" y="-192" font-family="Helvetica,sans-Serif" font-size="10.00" fill="#000000"> &lt; gko::batch::BatchLinOp</text>
<text text-anchor="middle" x="242" y="-181" font-family="Helvetica,sans-Serif" font-size="10.00" fill="#000000">Factory &gt;</text>
</g>
<!-- Node8 -->
<g id="node8" class="node">
<title>Node8</title>
<g id="a_node8"><a xlink:href="classgko_1_1deferred__factory__parameter.html" target="_top" xlink:title=" ">
<polygon fill="#ffffff" stroke="#000000" points="331,-60.5 331,-101.5 494,-101.5 494,-60.5 331,-60.5"/>
<text text-anchor="start" x="339" y="-89.5" font-family="Helvetica,sans-Serif" font-size="10.00" fill="#000000">gko::deferred_factory</text>
<text text-anchor="start" x="339" y="-78.5" font-family="Helvetica,sans-Serif" font-size="10.00" fill="#000000">_parameter&lt; const typename</text>
<text text-anchor="middle" x="412.5" y="-67.5" font-family="Helvetica,sans-Serif" font-size="10.00" fill="#000000"> l_solver_type::Factory &gt;</text>
</a>
</g>
</g>
<!-- Node1&#45;&gt;Node8 -->
<g id="edge7" class="edge">
<title>Node1&#45;&gt;Node8</title>
<path fill="none" stroke="#ffa500" stroke-dasharray="5,2" d="M92.1125,-199.4729C108.7838,-176.364 137.3958,-142.029 171,-124 220.0661,-97.6754 282.0091,-87.0241 330.8761,-82.9031"/>
<polygon fill="#ffa500" stroke="#ffa500" points="89.2024,-197.5267 86.3222,-207.7225 94.932,-201.5482 89.2024,-197.5267"/>
<text text-anchor="start" x="184.5" y="-138" font-family="Helvetica,sans-Serif" font-size="10.00" fill="#000000"> &lt; const typename l</text>
<text text-anchor="middle" x="242" y="-127" font-family="Helvetica,sans-Serif" font-size="10.00" fill="#000000">_solver_type::Factory &gt;</text>
</g>
<!-- Node9 -->
<g id="node9" class="node">
<title>Node9</title>
<g id="a_node9"><a xlink:href="classgko_1_1deferred__factory__parameter.html" target="_top" xlink:title=" ">
<polygon fill="#ffffff" stroke="#000000" points="335,-.5 335,-41.5 490,-41.5 490,-.5 335,-.5"/>
<text text-anchor="start" x="343" y="-29.5" font-family="Helvetica,sans-Serif" font-size="10.00" fill="#000000">gko::deferred_factory</text>
<text text-anchor="start" x="343" y="-18.5" font-family="Helvetica,sans-Serif" font-size="10.00" fill="#000000">_parameter&lt; preconditioner</text>
<text text-anchor="middle" x="412.5" y="-7.5" font-family="Helvetica,sans-Serif" font-size="10.00" fill="#000000">_type &gt;</text>
</a>
</g>
</g>
<!-- Node1&#45;&gt;Node9 -->
<g id="edge8" class="edge">
<title>Node1&#45;&gt;Node9</title>
<path fill="none" stroke="#ffa500" stroke-dasharray="5,2" d="M84.6627,-198.2047C97.3672,-163.7048 125.2769,-101.8779 171,-70 218.8157,-36.6631 284.1423,-24.9318 334.7958,-21.2511"/>
<polygon fill="#ffa500" stroke="#ffa500" points="81.2432,-197.3761 81.2051,-207.9709 87.8419,-199.7123 81.2432,-197.3761"/>
<text text-anchor="middle" x="242" y="-73" font-family="Helvetica,sans-Serif" font-size="10.00" fill="#000000"> &lt; preconditioner_type &gt;</text>
</g>
</g>
</svg>
        <g id="navigator" transform="translate(0 0)" fill="#404254">
                <rect fill="#f2f5e9" fill-opacity="0.5" stroke="#606060" stroke-width=".5" x="0" y="0" width="60" height="60"/>
                <use id="zoomplus" xlink:href="#zoomPlus" x="17" y="9" onmousedown="handleZoom(evt,'in')"/>
                <use id="zoomminus" xlink:href="#zoomMin" x="42" y="9" onmousedown="handleZoom(evt,'out')"/>
                <use id="reset" xlink:href="#resetDef" x="30" y="36" onmousedown="handleReset()"/>
                <g id="arrowUp" xlink:href="#dirArrow" transform="translate(30 24)" onmousedown="handlePan(0,-1)">
                  <use xlink:href="#rim" fill="#404040">
                        <set attributeName="fill" to="#808080" begin="arrowUp.mouseover" end="arrowUp.mouseout"/>
                  </use>
                  <path fill="none" stroke="white" stroke-width="1.5" d="M0,-3.0v7 M-2.5,-0.5L0,-3.0L2.5,-0.5"/>
                </g>
                <g id="arrowRight" xlink:href="#dirArrow" transform="rotate(90) translate(36 -43)" onmousedown="handlePan(1,0)">
                  <use xlink:href="#rim" fill="#404040">
                        <set attributeName="fill" to="#808080" begin="arrowRight.mouseover" end="arrowRight.mouseout"/>
                  </use>
                  <path fill="none" stroke="white" stroke-width="1.5" d="M0,-3.0v7 M-2.5,-0.5L0,-3.0L2.5,-0.5"/>
                </g>
                <g id="arrowDown" xlink:href="#dirArrow" transform="rotate(180) translate(-30 -48)" onmousedown="handlePan(0,1)">
                  <use xlink:href="#rim" fill="#404040">
                        <set attributeName="fill" to="#808080" begin="arrowDown.mouseover" end="arrowDown.mouseout"/>
                  </use>
                  <path fill="none" stroke="white" stroke-width="1.5" d="M0,-3.0v7 M-2.5,-0.5L0,-3.0L2.5,-0.5"/>
                </g>
                <g id="arrowLeft" xlink:href="#dirArrow" transform="rotate(270) translate(-36 17)" onmousedown="handlePan(-1,0)">
                  <use xlink:href="#rim" fill="#404040">
                        <set attributeName="fill" to="#808080" begin="arrowLeft.mouseover" end="arrowLeft.mouseout"/>
                  </use>
                  <path fill="none" stroke="white" stroke-width="1.5" d="M0,-3.0v7 M-2.5,-0.5L0,-3.0L2.5,-0.5"/>
                </g>
        </g>
        <svg viewBox="0 0 15 15" width="100%" height="30px" preserveAspectRatio="xMaxYMin meet">
         <g id="arrow_out" transform="scale(0.3 0.3)">
          <a xlink:href="classgko_1_1deferred__factory__parameter__inherit__graph_org.svg" target="_base">
           <rect id="button" ry="5" rx="5" y="6" x="6" height="38" width="38"
                fill="#f2f5e9" fill-opacity="0.5" stroke="#606060" stroke-width="1.0"/>
           <path id="arrow"
             d="M 11.500037,31.436501 C 11.940474,20.09759 22.043105,11.32322 32.158766,21.979434 L 37.068811,17.246167 C 37.068811,17.246167 37.088388,32 37.088388,32 L 22.160133,31.978069 C 22.160133,31.978069 26.997745,27.140456 26.997745,27.140456 C 18.528582,18.264221 13.291696,25.230495 11.500037,31.436501 z"
             style="fill:#404040;"/>
          </a>
         </g>
        </svg>
</svg>
