<?xml version="1.0" encoding="UTF-8" standalone="no"?>
<!DOCTYPE svg PUBLIC "-//W3C//DTD SVG 1.1//EN"
 "http://www.w3.org/Graphics/SVG/1.1/DTD/svg11.dtd">
<!-- Generated by graphviz version 2.40.1 (20161225.0304)
 -->
<!-- Title: gko::stop::ResidualNormBase&lt; ValueType &gt; Pages: 1 -->
<!--zoomable 235 -->
<svg id="main" version="1.1" xmlns="http://www.w3.org/2000/svg" xmlns:xlink="http://www.w3.org/1999/xlink" xml:space="preserve" onload="init(evt)">
<style type="text/css"><![CDATA[
.edge:hover path { stroke: red; }
.edge:hover polygon { stroke: red; fill: red; }
]]></style>
<script type="text/javascript"><![CDATA[
var edges = document.getElementsByTagName('g');
if (edges && edges.length) {
  for (var i=0;i<edges.length;i++) {
    if (edges[i].id.substr(0,4)=='edge') {
      edges[i].setAttribute('class','edge');
    }
  }
}
]]></script>
        <defs>
                <circle id="rim" cx="0" cy="0" r="7"/>
                <circle id="rim2" cx="0" cy="0" r="3.5"/>
                <g id="zoomPlus">
                        <use xlink:href="#rim" fill="#404040">
                                <set attributeName="fill" to="#808080" begin="zoomplus.mouseover" end="zoomplus.mouseout"/>
                        </use>
                        <path d="M-4,0h8M0,-4v8" fill="none" stroke="white" stroke-width="1.5" pointer-events="none"/>
                </g>
                <g id="zoomMin">
                        <use xlink:href="#rim" fill="#404040">
                                <set attributeName="fill" to="#808080" begin="zoomminus.mouseover" end="zoomminus.mouseout"/>
                        </use>
                        <path d="M-4,0h8" fill="none" stroke="white" stroke-width="1.5" pointer-events="none"/>
                </g>
                <g id="dirArrow">
                        <path fill="none" stroke="white" stroke-width="1.5" d="M0,-3.0v7 M-2.5,-0.5L0,-3.0L2.5,-0.5"/>
                </g>
               <g id="resetDef">
                       <use xlink:href="#rim2" fill="#404040">
                               <set attributeName="fill" to="#808080" begin="reset.mouseover" end="reset.mouseout"/>
                       </use>
               </g>
        </defs>

<script type="text/javascript">
var viewWidth = 1747;
var viewHeight = 235;
var sectionId = 'dynsection-0';
</script>
<script xlink:href="svgpan.js"/>
<svg id="graph" class="graph">
<g id="viewport">
<title>gko::stop::ResidualNormBase&lt; ValueType &gt;</title>
<polygon fill="#ffffff" stroke="transparent" points="-4,4 -4,-231 1743,-231 1743,4 -4,4"/>
<!-- Node1 -->
<g id="node1" class="node">
<title>Node1</title>
<g id="a_node1"><a xlink:title="The ResidualNormBase class provides a framework for stopping criteria related to the residual norm.">
<polygon fill="#bfbfbf" stroke="#000000" points="1358,-98.5 1358,-128.5 1518,-128.5 1518,-98.5 1358,-98.5"/>
<text text-anchor="start" x="1366" y="-116.5" font-family="Helvetica,sans-Serif" font-size="10.00" fill="#000000">gko::stop::ResidualNormBase</text>
<text text-anchor="middle" x="1438" y="-105.5" font-family="Helvetica,sans-Serif" font-size="10.00" fill="#000000">&lt; ValueType &gt;</text>
</a>
</g>
</g>
<!-- Node9 -->
<g id="node9" class="node">
<title>Node9</title>
<g id="a_node9"><a xlink:href="classgko_1_1stop_1_1AbsoluteResidualNorm.html" target="_top" xlink:title="The AbsoluteResidualNorm class is a stopping criterion which stops the iteration process when the res...">
<polygon fill="#ffffff" stroke="#000000" points="1571,-196.5 1571,-226.5 1723,-226.5 1723,-196.5 1571,-196.5"/>
<text text-anchor="start" x="1579" y="-214.5" font-family="Helvetica,sans-Serif" font-size="10.00" fill="#000000">gko::stop::AbsoluteResidual</text>
<text text-anchor="middle" x="1647" y="-203.5" font-family="Helvetica,sans-Serif" font-size="10.00" fill="#000000">Norm&lt; ValueType &gt;</text>
</a>
</g>
</g>
<!-- Node1&#45;&gt;Node9 -->
<g id="edge10" class="edge">
<title>Node1&#45;&gt;Node9</title>
<path fill="none" stroke="#191970" d="M1465.8532,-134.6049C1488.7345,-151.0601 1522.5486,-173.4122 1555,-187.5 1562.7222,-190.8524 1571.0188,-193.8215 1579.3546,-196.4271"/>
<polygon fill="#191970" stroke="#191970" points="1467.7862,-131.6827 1457.6447,-128.6165 1463.6606,-137.3378 1467.7862,-131.6827"/>
</g>
<!-- Node10 -->
<g id="node10" class="node">
<title>Node10</title>
<g id="a_node10"><a xlink:href="classgko_1_1stop_1_1ImplicitResidualNorm.html" target="_top" xlink:title="The ImplicitResidualNorm class is a stopping criterion which stops the iteration process when the imp...">
<polygon fill="#ffffff" stroke="#000000" points="1574,-147.5 1574,-177.5 1720,-177.5 1720,-147.5 1574,-147.5"/>
<text text-anchor="start" x="1582" y="-165.5" font-family="Helvetica,sans-Serif" font-size="10.00" fill="#000000">gko::stop::ImplicitResidual</text>
<text text-anchor="middle" x="1647" y="-154.5" font-family="Helvetica,sans-Serif" font-size="10.00" fill="#000000">Norm&lt; ValueType &gt;</text>
</a>
</g>
</g>
<!-- Node1&#45;&gt;Node10 -->
<g id="edge11" class="edge">
<title>Node1&#45;&gt;Node10</title>
<path fill="none" stroke="#191970" d="M1511.9218,-130.8309C1535.126,-136.2712 1560.5359,-142.2285 1582.994,-147.4938"/>
<polygon fill="#191970" stroke="#191970" points="1512.6622,-127.4097 1502.1272,-128.5346 1511.0643,-134.2249 1512.6622,-127.4097"/>
</g>
<!-- Node11 -->
<g id="node11" class="node">
<title>Node11</title>
<g id="a_node11"><a xlink:href="classgko_1_1stop_1_1RelativeResidualNorm.html" target="_top" xlink:title="The RelativeResidualNorm class is a stopping criterion which stops the iteration process when the res...">
<polygon fill="#ffffff" stroke="#000000" points="1572.5,-98.5 1572.5,-128.5 1721.5,-128.5 1721.5,-98.5 1572.5,-98.5"/>
<text text-anchor="start" x="1580.5" y="-116.5" font-family="Helvetica,sans-Serif" font-size="10.00" fill="#000000">gko::stop::RelativeResidual</text>
<text text-anchor="middle" x="1647" y="-105.5" font-family="Helvetica,sans-Serif" font-size="10.00" fill="#000000">Norm&lt; ValueType &gt;</text>
</a>
</g>
</g>
<!-- Node1&#45;&gt;Node11 -->
<g id="edge12" class="edge">
<title>Node1&#45;&gt;Node11</title>
<path fill="none" stroke="#191970" d="M1528.3345,-113.5C1543.0726,-113.5 1558.1937,-113.5 1572.4958,-113.5"/>
<polygon fill="#191970" stroke="#191970" points="1528.2072,-110.0001 1518.2071,-113.5 1528.2071,-117.0001 1528.2072,-110.0001"/>
</g>
<!-- Node12 -->
<g id="node12" class="node">
<title>Node12</title>
<g id="a_node12"><a xlink:href="classgko_1_1stop_1_1ResidualNorm.html" target="_top" xlink:title="The ResidualNorm class is a stopping criterion which stops the iteration process when the actual resi...">
<polygon fill="#ffffff" stroke="#000000" points="1579,-49.5 1579,-79.5 1715,-79.5 1715,-49.5 1579,-49.5"/>
<text text-anchor="start" x="1587" y="-67.5" font-family="Helvetica,sans-Serif" font-size="10.00" fill="#000000">gko::stop::ResidualNorm</text>
<text text-anchor="middle" x="1647" y="-56.5" font-family="Helvetica,sans-Serif" font-size="10.00" fill="#000000">&lt; ValueType &gt;</text>
</a>
</g>
</g>
<!-- Node1&#45;&gt;Node12 -->
<g id="edge13" class="edge">
<title>Node1&#45;&gt;Node12</title>
<path fill="none" stroke="#191970" d="M1511.9218,-96.1691C1535.126,-90.7288 1560.5359,-84.7715 1582.994,-79.5062"/>
<polygon fill="#191970" stroke="#191970" points="1511.0643,-92.7751 1502.1272,-98.4654 1512.6622,-99.5903 1511.0643,-92.7751"/>
</g>
<!-- Node13 -->
<g id="node13" class="node">
<title>Node13</title>
<g id="a_node13"><a xlink:href="classgko_1_1stop_1_1ResidualNormReduction.html" target="_top" xlink:title="The ResidualNormReduction class is a stopping criterion which stops the iteration process when the re...">
<polygon fill="#ffffff" stroke="#000000" points="1555,-.5 1555,-30.5 1739,-30.5 1739,-.5 1555,-.5"/>
<text text-anchor="start" x="1563" y="-18.5" font-family="Helvetica,sans-Serif" font-size="10.00" fill="#000000">gko::stop::ResidualNormReduction</text>
<text text-anchor="middle" x="1647" y="-7.5" font-family="Helvetica,sans-Serif" font-size="10.00" fill="#000000">&lt; ValueType &gt;</text>
</a>
</g>
</g>
<!-- Node1&#45;&gt;Node13 -->
<g id="edge14" class="edge">
<title>Node1&#45;&gt;Node13</title>
<path fill="none" stroke="#191970" d="M1465.8532,-92.3951C1488.7345,-75.9399 1522.5486,-53.5878 1555,-39.5 1562.7222,-36.1476 1571.0188,-33.1785 1579.3546,-30.5729"/>
<polygon fill="#191970" stroke="#191970" points="1463.6606,-89.6622 1457.6447,-98.3835 1467.7862,-95.3173 1463.6606,-89.6622"/>
</g>
<!-- Node2 -->
<g id="node2" class="node">
<title>Node2</title>
<g id="a_node2"><a xlink:href="classgko_1_1EnablePolymorphicObject.html" target="_top" xlink:title=" ">
<polygon fill="#ffffff" stroke="#000000" points="1140,-93 1140,-134 1321,-134 1321,-93 1140,-93"/>
<text text-anchor="start" x="1148" y="-122" font-family="Helvetica,sans-Serif" font-size="10.00" fill="#000000">gko::EnablePolymorphicObject</text>
<text text-anchor="start" x="1148" y="-111" font-family="Helvetica,sans-Serif" font-size="10.00" fill="#000000">&lt; ResidualNormBase&lt; ValueType</text>
<text text-anchor="middle" x="1230.5" y="-100" font-family="Helvetica,sans-Serif" font-size="10.00" fill="#000000"> &gt;, Criterion &gt;</text>
</a>
</g>
</g>
<!-- Node2&#45;&gt;Node1 -->
<g id="edge1" class="edge">
<title>Node2&#45;&gt;Node1</title>
<path fill="none" stroke="#191970" d="M1331.2707,-113.5C1340.2046,-113.5 1349.1681,-113.5 1357.8957,-113.5"/>
<polygon fill="#191970" stroke="#191970" points="1331.2107,-110.0001 1321.2107,-113.5 1331.2106,-117.0001 1331.2107,-110.0001"/>
</g>
<!-- Node3 -->
<g id="node3" class="node">
<title>Node3</title>
<g id="a_node3"><a xlink:href="classgko_1_1EnableAbstractPolymorphicObject.html" target="_top" xlink:title=" ">
<polygon fill="#ffffff" stroke="#000000" points="542,-117 542,-158 717,-158 717,-117 542,-117"/>
<text text-anchor="start" x="550" y="-146" font-family="Helvetica,sans-Serif" font-size="10.00" fill="#000000">gko::EnableAbstractPolymorphic</text>
<text text-anchor="start" x="550" y="-135" font-family="Helvetica,sans-Serif" font-size="10.00" fill="#000000">Object&lt; ResidualNormBase</text>
<text text-anchor="middle" x="629.5" y="-124" font-family="Helvetica,sans-Serif" font-size="10.00" fill="#000000">&lt; ValueType &gt;, Criterion &gt;</text>
</a>
</g>
</g>
<!-- Node3&#45;&gt;Node2 -->
<g id="edge2" class="edge">
<title>Node3&#45;&gt;Node2</title>
<path fill="none" stroke="#191970" d="M727.2067,-135.5094C826.6155,-133.2059 985.1041,-128.7675 1122,-121.5 1127.847,-121.1896 1133.869,-120.8371 1139.9378,-120.4571"/>
<polygon fill="#191970" stroke="#191970" points="727.094,-132.011 717.1769,-135.7392 727.2544,-139.0091 727.094,-132.011"/>
</g>
<!-- Node4 -->
<g id="node4" class="node">
<title>Node4</title>
<g id="a_node4"><a xlink:title=" ">
<polygon fill="#ffffff" stroke="#bfbfbf" points="207.5,-158 207.5,-177 266.5,-177 266.5,-158 207.5,-158"/>
<text text-anchor="middle" x="237" y="-165" font-family="Helvetica,sans-Serif" font-size="10.00" fill="#000000">Criterion</text>
</a>
</g>
</g>
<!-- Node4&#45;&gt;Node3 -->
<g id="edge3" class="edge">
<title>Node4&#45;&gt;Node3</title>
<path fill="none" stroke="#191970" d="M276.7209,-166.5063C330.0892,-164.9345 427.854,-161.2239 511,-153.5 521.0252,-152.5687 531.5051,-151.416 541.9075,-150.1592"/>
<polygon fill="#191970" stroke="#191970" points="276.5531,-163.0095 266.6567,-166.7927 276.7522,-170.0067 276.5531,-163.0095"/>
</g>
<!-- Node5 -->
<g id="node5" class="node">
<title>Node5</title>
<g id="a_node5"><a xlink:href="classgko_1_1EnableAbstractPolymorphicObject.html" target="_top" xlink:title="This mixin inherits from (a subclass of) PolymorphicObject and provides a base implementation of a ne...">
<polygon fill="#ffffff" stroke="#000000" points="138,-81 138,-122 336,-122 336,-81 138,-81"/>
<text text-anchor="start" x="146" y="-110" font-family="Helvetica,sans-Serif" font-size="10.00" fill="#000000">gko::EnableAbstractPolymorphic</text>
<text text-anchor="start" x="146" y="-99" font-family="Helvetica,sans-Serif" font-size="10.00" fill="#000000">Object&lt; AbstractObject, Polymorphic</text>
<text text-anchor="middle" x="237" y="-88" font-family="Helvetica,sans-Serif" font-size="10.00" fill="#000000">Base &gt;</text>
</a>
</g>
</g>
<!-- Node5&#45;&gt;Node3 -->
<g id="edge4" class="edge">
<title>Node5&#45;&gt;Node3</title>
<path fill="none" stroke="#ffa500" stroke-dasharray="5,2" d="M346.2134,-111.517C407.9382,-117.1784 484.0683,-124.161 541.8581,-129.4615"/>
<polygon fill="#ffa500" stroke="#ffa500" points="346.3222,-108.0124 336.0443,-110.5843 345.6828,-114.9831 346.3222,-108.0124"/>
<text text-anchor="start" x="366.5" y="-139.5" font-family="Helvetica,sans-Serif" font-size="10.00" fill="#000000"> &lt; ResidualNormBase</text>
<text text-anchor="middle" x="432.5" y="-128.5" font-family="Helvetica,sans-Serif" font-size="10.00" fill="#000000">&lt; ValueType &gt;, Criterion &gt;</text>
</g>
<!-- Node8 -->
<g id="node8" class="node">
<title>Node8</title>
<g id="a_node8"><a xlink:href="classgko_1_1EnableAbstractPolymorphicObject.html" target="_top" xlink:title=" ">
<polygon fill="#ffffff" stroke="#000000" points="529,-57 529,-98 730,-98 730,-57 529,-57"/>
<text text-anchor="start" x="537" y="-86" font-family="Helvetica,sans-Serif" font-size="10.00" fill="#000000">gko::EnableAbstractPolymorphic</text>
<text text-anchor="start" x="537" y="-75" font-family="Helvetica,sans-Serif" font-size="10.00" fill="#000000">Object&lt; ConcreteObject, Polymorphic</text>
<text text-anchor="middle" x="629.5" y="-64" font-family="Helvetica,sans-Serif" font-size="10.00" fill="#000000">Base &gt;</text>
</a>
</g>
</g>
<!-- Node5&#45;&gt;Node8 -->
<g id="edge9" class="edge">
<title>Node5&#45;&gt;Node8</title>
<path fill="none" stroke="#ffa500" stroke-dasharray="5,2" d="M346.2843,-87.1579C348.8799,-86.9242 351.4547,-86.7043 354,-86.5 411.8387,-81.8582 476.6911,-79.5944 528.9386,-78.4974"/>
<polygon fill="#ffa500" stroke="#ffa500" points="345.8108,-83.6871 336.1891,-88.1225 346.4768,-90.6553 345.8108,-83.6871"/>
<text text-anchor="start" x="354" y="-100.5" font-family="Helvetica,sans-Serif" font-size="10.00" fill="#000000"> &lt; ConcreteObject, Polymorphic</text>
<text text-anchor="middle" x="432.5" y="-89.5" font-family="Helvetica,sans-Serif" font-size="10.00" fill="#000000">Base &gt;</text>
</g>
<!-- Node6 -->
<g id="node6" class="node">
<title>Node6</title>
<g id="a_node6"><a xlink:title=" ">
<polygon fill="#ffffff" stroke="#bfbfbf" points="0,-55 0,-74 101,-74 101,-55 0,-55"/>
<text text-anchor="middle" x="50.5" y="-62" font-family="Helvetica,sans-Serif" font-size="10.00" fill="#000000">PolymorphicBase</text>
</a>
</g>
</g>
<!-- Node6&#45;&gt;Node5 -->
<g id="edge5" class="edge">
<title>Node6&#45;&gt;Node5</title>
<path fill="none" stroke="#191970" d="M108.4222,-75.9913C117.7608,-77.844 127.6541,-79.8067 137.6412,-81.7881"/>
<polygon fill="#191970" stroke="#191970" points="109.0183,-72.5414 98.5284,-74.0284 107.6561,-79.4076 109.0183,-72.5414"/>
</g>
<!-- Node6&#45;&gt;Node8 -->
<g id="edge8" class="edge">
<title>Node6&#45;&gt;Node8</title>
<path fill="none" stroke="#191970" d="M111.3518,-65.7517C199.4802,-67.5804 367.7739,-71.1319 511,-74.5 516.8635,-74.6379 522.8902,-74.7823 528.971,-74.9299"/>
<polygon fill="#191970" stroke="#191970" points="111.3377,-62.2508 101.2673,-65.5427 111.1926,-69.2493 111.3377,-62.2508"/>
</g>
<!-- Node7 -->
<g id="node7" class="node">
<title>Node7</title>
<g id="a_node7"><a xlink:href="classgko_1_1EnablePolymorphicObject.html" target="_top" xlink:title="This mixin inherits from (a subclass of) PolymorphicObject and provides a base implementation of a ne...">
<polygon fill="#ffffff" stroke="#000000" points="767,-74.5 767,-104.5 972,-104.5 972,-74.5 767,-74.5"/>
<text text-anchor="start" x="775" y="-92.5" font-family="Helvetica,sans-Serif" font-size="10.00" fill="#000000">gko::EnablePolymorphicObject</text>
<text text-anchor="middle" x="869.5" y="-81.5" font-family="Helvetica,sans-Serif" font-size="10.00" fill="#000000">&lt; ConcreteObject, PolymorphicBase &gt;</text>
</a>
</g>
</g>
<!-- Node7&#45;&gt;Node2 -->
<g id="edge6" class="edge">
<title>Node7&#45;&gt;Node2</title>
<path fill="none" stroke="#ffa500" stroke-dasharray="5,2" d="M982.2918,-91.8278C1025.9802,-93.2895 1076.3729,-95.6604 1122,-99.5 1127.8671,-99.9937 1133.9042,-100.5732 1139.9843,-101.2103"/>
<polygon fill="#ffa500" stroke="#ffa500" points="982.3176,-88.3269 972.2099,-91.5025 982.0918,-95.3233 982.3176,-88.3269"/>
<text text-anchor="start" x="990" y="-113.5" font-family="Helvetica,sans-Serif" font-size="10.00" fill="#000000"> &lt; ResidualNormBase</text>
<text text-anchor="middle" x="1056" y="-102.5" font-family="Helvetica,sans-Serif" font-size="10.00" fill="#000000">&lt; ValueType &gt;, Criterion &gt;</text>
</g>
<!-- Node8&#45;&gt;Node7 -->
<g id="edge7" class="edge">
<title>Node8&#45;&gt;Node7</title>
<path fill="none" stroke="#191970" d="M740.4645,-83.0482C749.2104,-83.4855 758.0206,-83.926 766.708,-84.3604"/>
<polygon fill="#191970" stroke="#191970" points="740.4008,-79.5408 730.2384,-82.5369 740.0511,-86.532 740.4008,-79.5408"/>
</g>
</g>
</svg>
        <g id="navigator" transform="translate(0 0)" fill="#404254">
                <rect fill="#f2f5e9" fill-opacity="0.5" stroke="#606060" stroke-width=".5" x="0" y="0" width="60" height="60"/>
                <use id="zoomplus" xlink:href="#zoomPlus" x="17" y="9" onmousedown="handleZoom(evt,'in')"/>
                <use id="zoomminus" xlink:href="#zoomMin" x="42" y="9" onmousedown="handleZoom(evt,'out')"/>
                <use id="reset" xlink:href="#resetDef" x="30" y="36" onmousedown="handleReset()"/>
                <g id="arrowUp" xlink:href="#dirArrow" transform="translate(30 24)" onmousedown="handlePan(0,-1)">
                  <use xlink:href="#rim" fill="#404040">
                        <set attributeName="fill" to="#808080" begin="arrowUp.mouseover" end="arrowUp.mouseout"/>
                  </use>
                  <path fill="none" stroke="white" stroke-width="1.5" d="M0,-3.0v7 M-2.5,-0.5L0,-3.0L2.5,-0.5"/>
                </g>
                <g id="arrowRight" xlink:href="#dirArrow" transform="rotate(90) translate(36 -43)" onmousedown="handlePan(1,0)">
                  <use xlink:href="#rim" fill="#404040">
                        <set attributeName="fill" to="#808080" begin="arrowRight.mouseover" end="arrowRight.mouseout"/>
                  </use>
                  <path fill="none" stroke="white" stroke-width="1.5" d="M0,-3.0v7 M-2.5,-0.5L0,-3.0L2.5,-0.5"/>
                </g>
                <g id="arrowDown" xlink:href="#dirArrow" transform="rotate(180) translate(-30 -48)" onmousedown="handlePan(0,1)">
                  <use xlink:href="#rim" fill="#404040">
                        <set attributeName="fill" to="#808080" begin="arrowDown.mouseover" end="arrowDown.mouseout"/>
                  </use>
                  <path fill="none" stroke="white" stroke-width="1.5" d="M0,-3.0v7 M-2.5,-0.5L0,-3.0L2.5,-0.5"/>
                </g>
                <g id="arrowLeft" xlink:href="#dirArrow" transform="rotate(270) translate(-36 17)" onmousedown="handlePan(-1,0)">
                  <use xlink:href="#rim" fill="#404040">
                        <set attributeName="fill" to="#808080" begin="arrowLeft.mouseover" end="arrowLeft.mouseout"/>
                  </use>
                  <path fill="none" stroke="white" stroke-width="1.5" d="M0,-3.0v7 M-2.5,-0.5L0,-3.0L2.5,-0.5"/>
                </g>
        </g>
        <svg viewBox="0 0 15 15" width="100%" height="30px" preserveAspectRatio="xMaxYMin meet">
         <g id="arrow_out" transform="scale(0.3 0.3)">
          <a xlink:href="classgko_1_1stop_1_1ResidualNormBase__inherit__graph_org.svg" target="_base">
           <rect id="button" ry="5" rx="5" y="6" x="6" height="38" width="38"
                fill="#f2f5e9" fill-opacity="0.5" stroke="#606060" stroke-width="1.0"/>
           <path id="arrow"
             d="M 11.500037,31.436501 C 11.940474,20.09759 22.043105,11.32322 32.158766,21.979434 L 37.068811,17.246167 C 37.068811,17.246167 37.088388,32 37.088388,32 L 22.160133,31.978069 C 22.160133,31.978069 26.997745,27.140456 26.997745,27.140456 C 18.528582,18.264221 13.291696,25.230495 11.500037,31.436501 z"
             style="fill:#404040;"/>
          </a>
         </g>
        </svg>
</svg>
