<?xml version="1.0" encoding="UTF-8" standalone="no"?>
<!DOCTYPE svg PUBLIC "-//W3C//DTD SVG 1.1//EN"
 "http://www.w3.org/Graphics/SVG/1.1/DTD/svg11.dtd">
<!-- Generated by graphviz version 2.40.1 (20161225.0304)
 -->
<!-- Title: gko::stop::Combined::Factory Pages: 1 -->
<svg width="178pt" height="173pt"
 viewBox="0.00 0.00 178.00 173.00" xmlns="http://www.w3.org/2000/svg" xmlns:xlink="http://www.w3.org/1999/xlink">
<g id="graph0" class="graph" transform="scale(1 1) rotate(0) translate(4 169)">
<title>gko::stop::Combined::Factory</title>
<polygon fill="#ffffff" stroke="transparent" points="-4,4 -4,-169 174,-169 174,4 -4,4"/>
<!-- Node1 -->
<g id="node1" class="node">
<title>Node1</title>
<g id="a_node1"><a xlink:title=" ">
<polygon fill="#bfbfbf" stroke="#000000" points="26.5,-.5 26.5,-30.5 143.5,-30.5 143.5,-.5 26.5,-.5"/>
<text text-anchor="start" x="34.5" y="-18.5" font-family="Helvetica,sans-Serif" font-size="10.00" fill="#000000">gko::stop::Combined</text>
<text text-anchor="middle" x="85" y="-7.5" font-family="Helvetica,sans-Serif" font-size="10.00" fill="#000000">::Factory</text>
</a>
</g>
</g>
<!-- Node2 -->
<g id="node2" class="node">
<title>Node2</title>
<g id="a_node2"><a xlink:href="classgko_1_1EnableDefaultFactory.html" target="_top" xlink:title="This mixin provides a default implementation of a concrete factory.">
<polygon fill="#ffffff" stroke="#000000" points="0,-67.5 0,-108.5 170,-108.5 170,-67.5 0,-67.5"/>
<text text-anchor="start" x="8" y="-96.5" font-family="Helvetica,sans-Serif" font-size="10.00" fill="#000000">gko::stop::EnableDefault</text>
<text text-anchor="start" x="8" y="-85.5" font-family="Helvetica,sans-Serif" font-size="10.00" fill="#000000">CriterionFactory&lt; Factory,</text>
<text text-anchor="middle" x="85" y="-74.5" font-family="Helvetica,sans-Serif" font-size="10.00" fill="#000000"> Combined, parameters_type &gt;</text>
</a>
</g>
</g>
<!-- Node2&#45;&gt;Node1 -->
<g id="edge1" class="edge">
<title>Node2&#45;&gt;Node1</title>
<path fill="none" stroke="#191970" d="M85,-57.3279C85,-48.0871 85,-38.3508 85,-30.5991"/>
<polygon fill="#191970" stroke="#191970" points="81.5001,-57.4183 85,-67.4183 88.5001,-57.4184 81.5001,-57.4183"/>
</g>
<!-- Node3 -->
<g id="node3" class="node">
<title>Node3</title>
<g id="a_node3"><a xlink:title=" ">
<polygon fill="#ffffff" stroke="#bfbfbf" points="34.5,-145.5 34.5,-164.5 135.5,-164.5 135.5,-145.5 34.5,-145.5"/>
<text text-anchor="middle" x="85" y="-152.5" font-family="Helvetica,sans-Serif" font-size="10.00" fill="#000000">PolymorphicBase</text>
</a>
</g>
</g>
<!-- Node3&#45;&gt;Node2 -->
<g id="edge2" class="edge">
<title>Node3&#45;&gt;Node2</title>
<path fill="none" stroke="#191970" d="M85,-135.3919C85,-126.9817 85,-117.1519 85,-108.6318"/>
<polygon fill="#191970" stroke="#191970" points="81.5001,-135.4005 85,-145.4005 88.5001,-135.4006 81.5001,-135.4005"/>
</g>
</g>
</svg>
