<?xml version="1.0" encoding="UTF-8" standalone="no"?>
<!DOCTYPE svg PUBLIC "-//W3C//DTD SVG 1.1//EN"
 "http://www.w3.org/Graphics/SVG/1.1/DTD/svg11.dtd">
<!-- Generated by graphviz version 2.40.1 (20161225.0304)
 -->
<!-- Title: gko::array&lt; ValueType &gt; Pages: 1 -->
<svg width="497pt" height="776pt"
 viewBox="0.00 0.00 497.00 775.51" xmlns="http://www.w3.org/2000/svg" xmlns:xlink="http://www.w3.org/1999/xlink">
<g id="graph0" class="graph" transform="scale(1 1) rotate(0) translate(4 771.5123)">
<title>gko::array&lt; ValueType &gt;</title>
<polygon fill="#ffffff" stroke="transparent" points="-4,4 -4,-771.5123 493,-771.5123 493,4 -4,4"/>
<!-- Node1 -->
<g id="node1" class="node">
<title>Node1</title>
<g id="a_node1"><a xlink:title="An array is a container which encapsulates fixed&#45;sized arrays, stored on the Executor tied to the arr...">
<polygon fill="#bfbfbf" stroke="#000000" points="0,-357.0123 0,-376.0123 138,-376.0123 138,-357.0123 0,-357.0123"/>
<text text-anchor="middle" x="69" y="-364.0123" font-family="Helvetica,sans-Serif" font-size="10.00" fill="#000000">gko::array&lt; ValueType &gt;</text>
</a>
</g>
</g>
<!-- Node2 -->
<g id="node2" class="node">
<title>Node2</title>
<g id="a_node2"><a xlink:href="classgko_1_1array.html" target="_top" xlink:title=" ">
<polygon fill="#ffffff" stroke="#000000" points="332.5,-726.5123 332.5,-756.5123 475.5,-756.5123 475.5,-726.5123 332.5,-726.5123"/>
<text text-anchor="start" x="340.5" y="-744.5123" font-family="Helvetica,sans-Serif" font-size="10.00" fill="#000000">gko::array&lt; gko::stopping</text>
<text text-anchor="middle" x="404" y="-733.5123" font-family="Helvetica,sans-Serif" font-size="10.00" fill="#000000">_status &gt;</text>
</a>
</g>
</g>
<!-- Node1&#45;&gt;Node2 -->
<g id="edge1" class="edge">
<title>Node1&#45;&gt;Node2</title>
<path fill="none" stroke="#ffa500" stroke-dasharray="5,2" d="M70.9488,-386.2935C78.0235,-453.7764 104.6743,-673.204 156,-717.5123 203.8055,-758.7817 277.7464,-760.7843 332.463,-754.8857"/>
<polygon fill="#ffa500" stroke="#ffa500" points="74.413,-385.7638 69.9165,-376.1705 67.4491,-386.474 74.413,-385.7638"/>
<text text-anchor="middle" x="228.5" y="-759.5123" font-family="Helvetica,sans-Serif" font-size="10.00" fill="#000000"> &lt; gko::stopping_status &gt;</text>
</g>
<!-- Node3 -->
<g id="node3" class="node">
<title>Node3</title>
<g id="a_node3"><a xlink:href="classgko_1_1array.html" target="_top" xlink:title=" ">
<polygon fill="#ffffff" stroke="#000000" points="328,-677.5123 328,-707.5123 480,-707.5123 480,-677.5123 328,-677.5123"/>
<text text-anchor="start" x="336" y="-695.5123" font-family="Helvetica,sans-Serif" font-size="10.00" fill="#000000">gko::array&lt; remove</text>
<text text-anchor="middle" x="404" y="-684.5123" font-family="Helvetica,sans-Serif" font-size="10.00" fill="#000000">_complex&lt; value_type &gt; &gt;</text>
</a>
</g>
</g>
<!-- Node1&#45;&gt;Node3 -->
<g id="edge2" class="edge">
<title>Node1&#45;&gt;Node3</title>
<path fill="none" stroke="#ffa500" stroke-dasharray="5,2" d="M71.9112,-386.3641C81.2183,-446.9632 112.2244,-627.6716 156,-664.5123 181.3194,-685.8206 264.7183,-691.6692 327.8726,-692.9208"/>
<polygon fill="#ffa500" stroke="#ffa500" points="75.3332,-385.5828 70.3845,-376.2147 68.4111,-386.6242 75.3332,-385.5828"/>
<text text-anchor="start" x="159.5" y="-705.5123" font-family="Helvetica,sans-Serif" font-size="10.00" fill="#000000"> &lt; remove_complex&lt; value</text>
<text text-anchor="middle" x="228.5" y="-694.5123" font-family="Helvetica,sans-Serif" font-size="10.00" fill="#000000">_type &gt; &gt;</text>
</g>
<!-- Node4 -->
<g id="node4" class="node">
<title>Node4</title>
<g id="a_node4"><a xlink:href="classgko_1_1array.html" target="_top" xlink:title=" ">
<polygon fill="#ffffff" stroke="#000000" points="335,-639.0123 335,-658.0123 473,-658.0123 473,-639.0123 335,-639.0123"/>
<text text-anchor="middle" x="404" y="-646.0123" font-family="Helvetica,sans-Serif" font-size="10.00" fill="#000000">gko::array&lt; IndexType &gt;</text>
</a>
</g>
</g>
<!-- Node1&#45;&gt;Node4 -->
<g id="edge3" class="edge">
<title>Node1&#45;&gt;Node4</title>
<path fill="none" stroke="#ffa500" stroke-dasharray="5,2" d="M72.7027,-385.9422C83.5623,-440.7616 117.0301,-594.6633 156,-625.5123 182.826,-646.748 271.2537,-650.5183 334.8723,-650.3015"/>
<polygon fill="#ffa500" stroke="#ffa500" points="76.1322,-385.2424 70.7857,-376.0955 69.2612,-386.5801 76.1322,-385.2424"/>
<text text-anchor="middle" x="228.5" y="-652.5123" font-family="Helvetica,sans-Serif" font-size="10.00" fill="#000000"> &lt; IndexType &gt;</text>
</g>
<!-- Node5 -->
<g id="node5" class="node">
<title>Node5</title>
<g id="a_node5"><a xlink:href="classgko_1_1array.html" target="_top" xlink:title=" ">
<polygon fill="#ffffff" stroke="#000000" points="337,-601.0123 337,-620.0123 471,-620.0123 471,-601.0123 337,-601.0123"/>
<text text-anchor="middle" x="404" y="-608.0123" font-family="Helvetica,sans-Serif" font-size="10.00" fill="#000000">gko::array&lt; real_type &gt;</text>
</a>
</g>
</g>
<!-- Node1&#45;&gt;Node5 -->
<g id="edge4" class="edge">
<title>Node1&#45;&gt;Node5</title>
<path fill="none" stroke="#ffa500" stroke-dasharray="5,2" d="M70.3157,-386.5391C74.3893,-430.6786 90.8158,-536.3118 156,-585.5123 183.5884,-606.3357 273.3177,-610.9057 336.89,-611.3985"/>
<polygon fill="#ffa500" stroke="#ffa500" points="73.7979,-386.1757 69.5087,-376.4879 66.8203,-386.736 73.7979,-386.1757"/>
<text text-anchor="middle" x="228.5" y="-613.5123" font-family="Helvetica,sans-Serif" font-size="10.00" fill="#000000"> &lt; real_type &gt;</text>
</g>
<!-- Node6 -->
<g id="node6" class="node">
<title>Node6</title>
<g id="a_node6"><a xlink:href="classgko_1_1array.html" target="_top" xlink:title=" ">
<polygon fill="#ffffff" stroke="#000000" points="332.5,-563.0123 332.5,-582.0123 475.5,-582.0123 475.5,-563.0123 332.5,-563.0123"/>
<text text-anchor="middle" x="404" y="-570.0123" font-family="Helvetica,sans-Serif" font-size="10.00" fill="#000000">gko::array&lt; value_type &gt;</text>
</a>
</g>
</g>
<!-- Node1&#45;&gt;Node6 -->
<g id="edge5" class="edge">
<title>Node1&#45;&gt;Node6</title>
<path fill="none" stroke="#ffa500" stroke-dasharray="5,2" d="M72.1579,-386.3405C79.382,-424.508 100.945,-507.8269 156,-546.5123 183.5844,-565.8949 269.401,-571.3167 332.3828,-572.5907"/>
<polygon fill="#ffa500" stroke="#ffa500" points="75.5968,-385.6875 70.4193,-376.444 68.7024,-386.8988 75.5968,-385.6875"/>
<text text-anchor="middle" x="228.5" y="-573.5123" font-family="Helvetica,sans-Serif" font-size="10.00" fill="#000000"> &lt; value_type &gt;</text>
</g>
<!-- Node7 -->
<g id="node7" class="node">
<title>Node7</title>
<g id="a_node7"><a xlink:href="classgko_1_1array.html" target="_top" xlink:title=" ">
<polygon fill="#ffffff" stroke="#000000" points="334,-513.5123 334,-543.5123 474,-543.5123 474,-513.5123 334,-513.5123"/>
<text text-anchor="start" x="342" y="-531.5123" font-family="Helvetica,sans-Serif" font-size="10.00" fill="#000000">gko::array&lt; comm_index</text>
<text text-anchor="middle" x="404" y="-520.5123" font-family="Helvetica,sans-Serif" font-size="10.00" fill="#000000">_type &gt;</text>
</a>
</g>
</g>
<!-- Node1&#45;&gt;Node7 -->
<g id="edge6" class="edge">
<title>Node1&#45;&gt;Node7</title>
<path fill="none" stroke="#ffa500" stroke-dasharray="5,2" d="M76.3444,-385.7209C88.3254,-414.2109 114.9396,-467.0362 156,-492.5123 209.3279,-525.5997 281.2992,-532.8294 333.9717,-532.8363"/>
<polygon fill="#ffa500" stroke="#ffa500" points="79.4524,-384.0691 72.4694,-376.1011 72.9594,-386.6846 79.4524,-384.0691"/>
<text text-anchor="middle" x="228.5" y="-534.5123" font-family="Helvetica,sans-Serif" font-size="10.00" fill="#000000"> &lt; comm_index_type &gt;</text>
</g>
<!-- Node8 -->
<g id="node8" class="node">
<title>Node8</title>
<g id="a_node8"><a xlink:href="classgko_1_1array.html" target="_top" xlink:title=" ">
<polygon fill="#ffffff" stroke="#000000" points="356.5,-475.0123 356.5,-494.0123 451.5,-494.0123 451.5,-475.0123 356.5,-475.0123"/>
<text text-anchor="middle" x="404" y="-482.0123" font-family="Helvetica,sans-Serif" font-size="10.00" fill="#000000">gko::array&lt; T &gt;</text>
</a>
</g>
</g>
<!-- Node1&#45;&gt;Node8 -->
<g id="edge7" class="edge">
<title>Node1&#45;&gt;Node8</title>
<path fill="none" stroke="#ffa500" stroke-dasharray="5,2" d="M83.9511,-383.72C99.966,-400.9667 127.0181,-426.8608 156,-440.5123 220.8768,-471.0717 304.4095,-480.5345 356.0698,-483.3891"/>
<polygon fill="#ffa500" stroke="#ffa500" points="86.3154,-381.1159 77.0158,-376.0396 81.1201,-385.8072 86.3154,-381.1159"/>
<text text-anchor="middle" x="228.5" y="-480.5123" font-family="Helvetica,sans-Serif" font-size="10.00" fill="#000000"> &lt; T &gt;</text>
</g>
<!-- Node9 -->
<g id="node9" class="node">
<title>Node9</title>
<g id="a_node9"><a xlink:href="classgko_1_1array.html" target="_top" xlink:title=" ">
<polygon fill="#ffffff" stroke="#000000" points="331,-425.5123 331,-455.5123 477,-455.5123 477,-425.5123 331,-425.5123"/>
<text text-anchor="start" x="339" y="-443.5123" font-family="Helvetica,sans-Serif" font-size="10.00" fill="#000000">gko::array&lt; gko::precision</text>
<text text-anchor="middle" x="404" y="-432.5123" font-family="Helvetica,sans-Serif" font-size="10.00" fill="#000000">_reduction &gt;</text>
</a>
</g>
</g>
<!-- Node1&#45;&gt;Node9 -->
<g id="edge8" class="edge">
<title>Node1&#45;&gt;Node9</title>
<path fill="none" stroke="#ffa500" stroke-dasharray="5,2" d="M101.8016,-379.6958C117.924,-385.7891 137.7638,-392.7198 156,-397.5123 214.0058,-412.7562 281.0987,-424.0144 330.8618,-431.179"/>
<polygon fill="#ffa500" stroke="#ffa500" points="102.8811,-376.361 92.2912,-376.0367 100.3674,-382.8942 102.8811,-376.361"/>
<text text-anchor="middle" x="228.5" y="-428.5123" font-family="Helvetica,sans-Serif" font-size="10.00" fill="#000000"> &lt; gko::precision_reduction &gt;</text>
</g>
<!-- Node10 -->
<g id="node10" class="node">
<title>Node10</title>
<g id="a_node10"><a xlink:href="classgko_1_1array.html" target="_top" xlink:title=" ">
<polygon fill="#ffffff" stroke="#000000" points="337.5,-376.5123 337.5,-406.5123 470.5,-406.5123 470.5,-376.5123 337.5,-376.5123"/>
<text text-anchor="start" x="345.5" y="-394.5123" font-family="Helvetica,sans-Serif" font-size="10.00" fill="#000000">gko::array&lt; local_index</text>
<text text-anchor="middle" x="404" y="-383.5123" font-family="Helvetica,sans-Serif" font-size="10.00" fill="#000000">_type &gt;</text>
</a>
</g>
</g>
<!-- Node1&#45;&gt;Node10 -->
<g id="edge9" class="edge">
<title>Node1&#45;&gt;Node10</title>
<path fill="none" stroke="#ffa500" stroke-dasharray="5,2" d="M148.1621,-372.4199C205.7691,-376.7189 282.9043,-382.4753 337.368,-386.5398"/>
<polygon fill="#ffa500" stroke="#ffa500" points="148.2388,-368.916 138.006,-371.662 147.7178,-375.8966 148.2388,-368.916"/>
<text text-anchor="middle" x="228.5" y="-385.5123" font-family="Helvetica,sans-Serif" font-size="10.00" fill="#000000"> &lt; local_index_type &gt;</text>
</g>
<!-- Node11 -->
<g id="node11" class="node">
<title>Node11</title>
<g id="a_node11"><a xlink:href="classgko_1_1array.html" target="_top" xlink:title=" ">
<polygon fill="#ffffff" stroke="#000000" points="343,-327.5123 343,-357.5123 465,-357.5123 465,-327.5123 343,-327.5123"/>
<text text-anchor="start" x="351" y="-345.5123" font-family="Helvetica,sans-Serif" font-size="10.00" fill="#000000">gko::array&lt; unsigned</text>
<text text-anchor="middle" x="404" y="-334.5123" font-family="Helvetica,sans-Serif" font-size="10.00" fill="#000000"> char &gt;</text>
</a>
</g>
</g>
<!-- Node1&#45;&gt;Node11 -->
<g id="edge10" class="edge">
<title>Node1&#45;&gt;Node11</title>
<path fill="none" stroke="#ffa500" stroke-dasharray="5,2" d="M148.3527,-359.1249C150.9316,-358.9138 153.486,-358.7089 156,-358.5123 219.6602,-353.5328 292.602,-348.9632 342.8165,-345.9938"/>
<polygon fill="#ffa500" stroke="#ffa500" points="147.9899,-355.643 138.3175,-359.9666 148.575,-362.6185 147.9899,-355.643"/>
<text text-anchor="middle" x="228.5" y="-361.5123" font-family="Helvetica,sans-Serif" font-size="10.00" fill="#000000"> &lt; unsigned char &gt;</text>
</g>
<!-- Node12 -->
<g id="node12" class="node">
<title>Node12</title>
<g id="a_node12"><a xlink:href="classgko_1_1array.html" target="_top" xlink:title=" ">
<polygon fill="#ffffff" stroke="#000000" points="319,-289.0123 319,-308.0123 489,-308.0123 489,-289.0123 319,-289.0123"/>
<text text-anchor="middle" x="404" y="-296.0123" font-family="Helvetica,sans-Serif" font-size="10.00" fill="#000000">gko::array&lt; GlobalIndexType &gt;</text>
</a>
</g>
</g>
<!-- Node1&#45;&gt;Node12 -->
<g id="edge11" class="edge">
<title>Node1&#45;&gt;Node12</title>
<path fill="none" stroke="#ffa500" stroke-dasharray="5,2" d="M99.9733,-352.8383C116.3476,-346.1052 136.9528,-338.4037 156,-333.5123 209.2763,-319.8306 270.456,-311.1242 318.7196,-305.8167"/>
<polygon fill="#ffa500" stroke="#ffa500" points="98.2392,-349.7704 90.3764,-356.8716 100.9514,-356.2237 98.2392,-349.7704"/>
<text text-anchor="middle" x="228.5" y="-336.5123" font-family="Helvetica,sans-Serif" font-size="10.00" fill="#000000"> &lt; GlobalIndexType &gt;</text>
</g>
<!-- Node13 -->
<g id="node13" class="node">
<title>Node13</title>
<g id="a_node13"><a xlink:href="classgko_1_1array.html" target="_top" xlink:title=" ">
<polygon fill="#ffffff" stroke="#000000" points="347.5,-251.0123 347.5,-270.0123 460.5,-270.0123 460.5,-251.0123 347.5,-251.0123"/>
<text text-anchor="middle" x="404" y="-258.0123" font-family="Helvetica,sans-Serif" font-size="10.00" fill="#000000">gko::array&lt; int64 &gt;</text>
</a>
</g>
</g>
<!-- Node1&#45;&gt;Node13 -->
<g id="edge12" class="edge">
<title>Node1&#45;&gt;Node13</title>
<path fill="none" stroke="#ffa500" stroke-dasharray="5,2" d="M83.8227,-349.0234C99.7339,-331.5498 126.7036,-305.4751 156,-292.5123 217.5348,-265.2849 295.4697,-259.2972 347.387,-258.8107"/>
<polygon fill="#ffa500" stroke="#ffa500" points="80.9366,-347.0039 76.9383,-356.8153 86.1825,-351.6387 80.9366,-347.0039"/>
<text text-anchor="middle" x="228.5" y="-295.5123" font-family="Helvetica,sans-Serif" font-size="10.00" fill="#000000"> &lt; int64 &gt;</text>
</g>
<!-- Node14 -->
<g id="node14" class="node">
<title>Node14</title>
<g id="a_node14"><a xlink:href="classgko_1_1array.html" target="_top" xlink:title=" ">
<polygon fill="#ffffff" stroke="#000000" points="336.5,-213.0123 336.5,-232.0123 471.5,-232.0123 471.5,-213.0123 336.5,-213.0123"/>
<text text-anchor="middle" x="404" y="-220.0123" font-family="Helvetica,sans-Serif" font-size="10.00" fill="#000000">gko::array&lt; size_type &gt;</text>
</a>
</g>
</g>
<!-- Node1&#45;&gt;Node14 -->
<g id="edge13" class="edge">
<title>Node1&#45;&gt;Node14</title>
<path fill="none" stroke="#ffa500" stroke-dasharray="5,2" d="M76.5836,-347.3817C88.728,-319.5711 115.3829,-268.7655 156,-245.5123 210.7877,-214.1464 283.7467,-211.0764 336.3304,-214.2291"/>
<polygon fill="#ffa500" stroke="#ffa500" points="73.2703,-346.233 72.6407,-356.8091 79.7282,-348.934 73.2703,-346.233"/>
<text text-anchor="middle" x="228.5" y="-248.5123" font-family="Helvetica,sans-Serif" font-size="10.00" fill="#000000"> &lt; size_type &gt;</text>
</g>
<!-- Node15 -->
<g id="node15" class="node">
<title>Node15</title>
<g id="a_node15"><a xlink:href="classgko_1_1array.html" target="_top" xlink:title=" ">
<polygon fill="#ffffff" stroke="#000000" points="350.5,-163.5123 350.5,-193.5123 457.5,-193.5123 457.5,-163.5123 350.5,-163.5123"/>
<text text-anchor="start" x="358.5" y="-181.5123" font-family="Helvetica,sans-Serif" font-size="10.00" fill="#000000">gko::array&lt; global</text>
<text text-anchor="middle" x="404" y="-170.5123" font-family="Helvetica,sans-Serif" font-size="10.00" fill="#000000">_index_type &gt;</text>
</a>
</g>
</g>
<!-- Node1&#45;&gt;Node15 -->
<g id="edge14" class="edge">
<title>Node1&#45;&gt;Node15</title>
<path fill="none" stroke="#ffa500" stroke-dasharray="5,2" d="M72.6798,-346.7467C80.6375,-310.1938 103.1743,-232.5711 156,-197.5123 213.7464,-159.1878 296.5657,-161.4503 350.3204,-168.4717"/>
<polygon fill="#ffa500" stroke="#ffa500" points="69.2229,-346.1828 70.6609,-356.6796 76.0827,-347.5771 69.2229,-346.1828"/>
<text text-anchor="middle" x="228.5" y="-200.5123" font-family="Helvetica,sans-Serif" font-size="10.00" fill="#000000"> &lt; global_index_type &gt;</text>
</g>
<!-- Node16 -->
<g id="node16" class="node">
<title>Node16</title>
<g id="a_node16"><a xlink:href="classgko_1_1array.html" target="_top" xlink:title=" ">
<polygon fill="#ffffff" stroke="#000000" points="322,-125.0123 322,-144.0123 486,-144.0123 486,-125.0123 322,-125.0123"/>
<text text-anchor="middle" x="404" y="-132.0123" font-family="Helvetica,sans-Serif" font-size="10.00" fill="#000000">gko::array&lt; LocalIndexType &gt;</text>
</a>
</g>
</g>
<!-- Node1&#45;&gt;Node16 -->
<g id="edge15" class="edge">
<title>Node1&#45;&gt;Node16</title>
<path fill="none" stroke="#ffa500" stroke-dasharray="5,2" d="M70.1407,-346.9734C73.8714,-302.9722 89.667,-196.2432 156,-148.5123 217.9569,-103.9303 312.7936,-114.3042 365.4255,-124.9525"/>
<polygon fill="#ffa500" stroke="#ffa500" points="66.6492,-346.7306 69.4153,-356.958 73.6308,-347.2379 66.6492,-346.7306"/>
<text text-anchor="middle" x="228.5" y="-151.5123" font-family="Helvetica,sans-Serif" font-size="10.00" fill="#000000"> &lt; LocalIndexType &gt;</text>
</g>
<!-- Node17 -->
<g id="node17" class="node">
<title>Node17</title>
<g id="a_node17"><a xlink:href="classgko_1_1array.html" target="_top" xlink:title=" ">
<polygon fill="#ffffff" stroke="#000000" points="349,-87.0123 349,-106.0123 459,-106.0123 459,-87.0123 349,-87.0123"/>
<text text-anchor="middle" x="404" y="-94.0123" font-family="Helvetica,sans-Serif" font-size="10.00" fill="#000000">gko::array&lt; char &gt;</text>
</a>
</g>
</g>
<!-- Node1&#45;&gt;Node17 -->
<g id="edge16" class="edge">
<title>Node1&#45;&gt;Node17</title>
<path fill="none" stroke="#ffa500" stroke-dasharray="5,2" d="M72.4359,-346.7906C82.6913,-290.4346 114.934,-130.7958 156,-100.5123 185.4583,-78.7887 285.1551,-84.1528 348.8144,-90.2085"/>
<polygon fill="#ffa500" stroke="#ffa500" points="68.9447,-346.4322 70.6337,-356.8916 75.8359,-347.6618 68.9447,-346.4322"/>
<text text-anchor="middle" x="228.5" y="-103.5123" font-family="Helvetica,sans-Serif" font-size="10.00" fill="#000000"> &lt; char &gt;</text>
</g>
<!-- Node18 -->
<g id="node18" class="node">
<title>Node18</title>
<g id="a_node18"><a xlink:href="classgko_1_1array.html" target="_top" xlink:title=" ">
<polygon fill="#ffffff" stroke="#000000" points="349,-49.0123 349,-68.0123 459,-68.0123 459,-49.0123 349,-49.0123"/>
<text text-anchor="middle" x="404" y="-56.0123" font-family="Helvetica,sans-Serif" font-size="10.00" fill="#000000">gko::array&lt; bool &gt;</text>
</a>
</g>
</g>
<!-- Node1&#45;&gt;Node18 -->
<g id="edge17" class="edge">
<title>Node1&#45;&gt;Node18</title>
<path fill="none" stroke="#ffa500" stroke-dasharray="5,2" d="M71.8147,-346.5946C80.841,-285.8135 111.1188,-104.7118 156,-69.5123 184.8678,-46.8718 285.0239,-49.4799 348.8817,-53.7673"/>
<polygon fill="#ffa500" stroke="#ffa500" points="68.3097,-346.3766 70.336,-356.7758 75.237,-347.3827 68.3097,-346.3766"/>
<text text-anchor="middle" x="228.5" y="-72.5123" font-family="Helvetica,sans-Serif" font-size="10.00" fill="#000000"> &lt; bool &gt;</text>
</g>
<!-- Node19 -->
<g id="node19" class="node">
<title>Node19</title>
<g id="a_node19"><a xlink:href="classgko_1_1array.html" target="_top" xlink:title=" ">
<polygon fill="#ffffff" stroke="#000000" points="332.5,-11.0123 332.5,-30.0123 475.5,-30.0123 475.5,-11.0123 332.5,-11.0123"/>
<text text-anchor="middle" x="404" y="-18.0123" font-family="Helvetica,sans-Serif" font-size="10.00" fill="#000000">gko::array&lt; index_type &gt;</text>
</a>
</g>
</g>
<!-- Node1&#45;&gt;Node19 -->
<g id="edge18" class="edge">
<title>Node1&#45;&gt;Node19</title>
<path fill="none" stroke="#ffa500" stroke-dasharray="5,2" d="M71.2375,-346.5954C78.9848,-281.5041 106.9137,-76.92 156,-36.5123 216.1253,12.9827 314.7541,.6362 367.7,-10.9514"/>
<polygon fill="#ffa500" stroke="#ffa500" points="67.7357,-346.4089 70.06,-356.7456 74.6891,-347.2155 67.7357,-346.4089"/>
<text text-anchor="middle" x="228.5" y="-39.5123" font-family="Helvetica,sans-Serif" font-size="10.00" fill="#000000"> &lt; index_type &gt;</text>
</g>
</g>
</svg>
