<?xml version="1.0" encoding="UTF-8" standalone="no"?>
<!DOCTYPE svg PUBLIC "-//W3C//DTD SVG 1.1//EN"
 "http://www.w3.org/Graphics/SVG/1.1/DTD/svg11.dtd">
<!-- Generated by graphviz version 2.40.1 (20161225.0304)
 -->
<!-- Title: gko::solver::Multigrid Pages: 1 -->
<!--zoomable 339 -->
<svg id="main" version="1.1" xmlns="http://www.w3.org/2000/svg" xmlns:xlink="http://www.w3.org/1999/xlink" xml:space="preserve" onload="init(evt)">
<style type="text/css"><![CDATA[
.edge:hover path { stroke: red; }
.edge:hover polygon { stroke: red; fill: red; }
]]></style>
<script type="text/javascript"><![CDATA[
var edges = document.getElementsByTagName('g');
if (edges && edges.length) {
  for (var i=0;i<edges.length;i++) {
    if (edges[i].id.substr(0,4)=='edge') {
      edges[i].setAttribute('class','edge');
    }
  }
}
]]></script>
        <defs>
                <circle id="rim" cx="0" cy="0" r="7"/>
                <circle id="rim2" cx="0" cy="0" r="3.5"/>
                <g id="zoomPlus">
                        <use xlink:href="#rim" fill="#404040">
                                <set attributeName="fill" to="#808080" begin="zoomplus.mouseover" end="zoomplus.mouseout"/>
                        </use>
                        <path d="M-4,0h8M0,-4v8" fill="none" stroke="white" stroke-width="1.5" pointer-events="none"/>
                </g>
                <g id="zoomMin">
                        <use xlink:href="#rim" fill="#404040">
                                <set attributeName="fill" to="#808080" begin="zoomminus.mouseover" end="zoomminus.mouseout"/>
                        </use>
                        <path d="M-4,0h8" fill="none" stroke="white" stroke-width="1.5" pointer-events="none"/>
                </g>
                <g id="dirArrow">
                        <path fill="none" stroke="white" stroke-width="1.5" d="M0,-3.0v7 M-2.5,-0.5L0,-3.0L2.5,-0.5"/>
                </g>
               <g id="resetDef">
                       <use xlink:href="#rim2" fill="#404040">
                               <set attributeName="fill" to="#808080" begin="reset.mouseover" end="reset.mouseout"/>
                       </use>
               </g>
        </defs>

<script type="text/javascript">
var viewWidth = 2103;
var viewHeight = 339;
var sectionId = 'dynsection-0';
</script>
<script xlink:href="svgpan.js"/>
<svg id="graph" class="graph">
<g id="viewport">
<title>gko::solver::Multigrid</title>
<polygon fill="#ffffff" stroke="transparent" points="-4,4 -4,-335 2099,-335 2099,4 -4,4"/>
<!-- Node1 -->
<g id="node1" class="node">
<title>Node1</title>
<g id="a_node1"><a xlink:title="Multigrid methods have a hierarchy of many levels, whose corase level is a subset of the fine level,...">
<polygon fill="#bfbfbf" stroke="#000000" points="1976,-128 1976,-147 2095,-147 2095,-128 1976,-128"/>
<text text-anchor="middle" x="2035.5" y="-135" font-family="Helvetica,sans-Serif" font-size="10.00" fill="#000000">gko::solver::Multigrid</text>
</a>
</g>
</g>
<!-- Node2 -->
<g id="node2" class="node">
<title>Node2</title>
<g id="a_node2"><a xlink:href="classgko_1_1EnableLinOp.html" target="_top" xlink:title=" ">
<polygon fill="#ffffff" stroke="#000000" points="1772,-128 1772,-147 1939,-147 1939,-128 1772,-128"/>
<text text-anchor="middle" x="1855.5" y="-135" font-family="Helvetica,sans-Serif" font-size="10.00" fill="#000000">gko::EnableLinOp&lt; Multigrid &gt;</text>
</a>
</g>
</g>
<!-- Node2&#45;&gt;Node1 -->
<g id="edge1" class="edge">
<title>Node2&#45;&gt;Node1</title>
<path fill="none" stroke="#191970" d="M1949.3603,-137.5C1958.3778,-137.5 1967.3436,-137.5 1975.8946,-137.5"/>
<polygon fill="#191970" stroke="#191970" points="1949.1765,-134.0001 1939.1765,-137.5 1949.1765,-141.0001 1949.1765,-134.0001"/>
</g>
<!-- Node3 -->
<g id="node3" class="node">
<title>Node3</title>
<g id="a_node3"><a xlink:href="classgko_1_1EnablePolymorphicObject.html" target="_top" xlink:title=" ">
<polygon fill="#ffffff" stroke="#000000" points="1501,-212.5 1501,-242.5 1667,-242.5 1667,-212.5 1501,-212.5"/>
<text text-anchor="start" x="1509" y="-230.5" font-family="Helvetica,sans-Serif" font-size="10.00" fill="#000000">gko::EnablePolymorphicObject</text>
<text text-anchor="middle" x="1584" y="-219.5" font-family="Helvetica,sans-Serif" font-size="10.00" fill="#000000">&lt; Multigrid, LinOp &gt;</text>
</a>
</g>
</g>
<!-- Node3&#45;&gt;Node2 -->
<g id="edge2" class="edge">
<title>Node3&#45;&gt;Node2</title>
<path fill="none" stroke="#191970" d="M1638.9808,-209.2743C1695.7278,-190.4631 1782.0653,-161.843 1826.6336,-147.069"/>
<polygon fill="#191970" stroke="#191970" points="1637.8338,-205.9672 1629.443,-212.436 1640.0364,-212.6116 1637.8338,-205.9672"/>
</g>
<!-- Node4 -->
<g id="node4" class="node">
<title>Node4</title>
<g id="a_node4"><a xlink:href="classgko_1_1EnableAbstractPolymorphicObject.html" target="_top" xlink:title=" ">
<polygon fill="#ffffff" stroke="#000000" points="1276,-257.5 1276,-287.5 1451,-287.5 1451,-257.5 1276,-257.5"/>
<text text-anchor="start" x="1284" y="-275.5" font-family="Helvetica,sans-Serif" font-size="10.00" fill="#000000">gko::EnableAbstractPolymorphic</text>
<text text-anchor="middle" x="1363.5" y="-264.5" font-family="Helvetica,sans-Serif" font-size="10.00" fill="#000000">Object&lt; Multigrid, LinOp &gt;</text>
</a>
</g>
</g>
<!-- Node4&#45;&gt;Node3 -->
<g id="edge3" class="edge">
<title>Node4&#45;&gt;Node3</title>
<path fill="none" stroke="#191970" d="M1447.2942,-255.3992C1468.0412,-251.1651 1490.1167,-246.6599 1510.3396,-242.5327"/>
<polygon fill="#191970" stroke="#191970" points="1446.328,-252.0241 1437.2299,-257.4531 1447.7278,-258.8827 1446.328,-252.0241"/>
</g>
<!-- Node5 -->
<g id="node5" class="node">
<title>Node5</title>
<g id="a_node5"><a xlink:href="classgko_1_1LinOp.html" target="_top" xlink:title=" ">
<polygon fill="#ffffff" stroke="#000000" points="937.5,-303 937.5,-322 1005.5,-322 1005.5,-303 937.5,-303"/>
<text text-anchor="middle" x="971.5" y="-310" font-family="Helvetica,sans-Serif" font-size="10.00" fill="#000000">gko::LinOp</text>
</a>
</g>
</g>
<!-- Node5&#45;&gt;Node4 -->
<g id="edge4" class="edge">
<title>Node5&#45;&gt;Node4</title>
<path fill="none" stroke="#191970" d="M1015.8959,-308.2667C1070.015,-303.0718 1164.2498,-293.9149 1245,-285.5 1254.9837,-284.4596 1265.4377,-283.3468 1275.8256,-282.2264"/>
<polygon fill="#191970" stroke="#191970" points="1015.2432,-304.8132 1005.6228,-309.2515 1015.9112,-311.7812 1015.2432,-304.8132"/>
</g>
<!-- Node6 -->
<g id="node6" class="node">
<title>Node6</title>
<g id="a_node6"><a xlink:href="classgko_1_1EnableAbstractPolymorphicObject.html" target="_top" xlink:title=" ">
<polygon fill="#ffffff" stroke="#ff0000" points="542,-300.5 542,-330.5 717,-330.5 717,-300.5 542,-300.5"/>
<text text-anchor="start" x="550" y="-318.5" font-family="Helvetica,sans-Serif" font-size="10.00" fill="#000000">gko::EnableAbstractPolymorphic</text>
<text text-anchor="middle" x="629.5" y="-307.5" font-family="Helvetica,sans-Serif" font-size="10.00" fill="#000000">Object&lt; LinOp &gt;</text>
</a>
</g>
</g>
<!-- Node6&#45;&gt;Node5 -->
<g id="edge5" class="edge">
<title>Node6&#45;&gt;Node5</title>
<path fill="none" stroke="#191970" d="M727.3672,-314.6415C797.8105,-314.0236 888.6555,-313.2267 937.2418,-312.8005"/>
<polygon fill="#191970" stroke="#191970" points="727.0983,-311.1436 717.1294,-314.7313 727.1597,-318.1434 727.0983,-311.1436"/>
</g>
<!-- Node12 -->
<g id="node7" class="node">
<title>Node12</title>
<g id="a_node7"><a xlink:href="classgko_1_1EnableAbstractPolymorphicObject.html" target="_top" xlink:title="This mixin inherits from (a subclass of) PolymorphicObject and provides a base implementation of a ne...">
<polygon fill="#ffffff" stroke="#000000" points="138,-214 138,-255 336,-255 336,-214 138,-214"/>
<text text-anchor="start" x="146" y="-243" font-family="Helvetica,sans-Serif" font-size="10.00" fill="#000000">gko::EnableAbstractPolymorphic</text>
<text text-anchor="start" x="146" y="-232" font-family="Helvetica,sans-Serif" font-size="10.00" fill="#000000">Object&lt; AbstractObject, Polymorphic</text>
<text text-anchor="middle" x="237" y="-221" font-family="Helvetica,sans-Serif" font-size="10.00" fill="#000000">Base &gt;</text>
</a>
</g>
</g>
<!-- Node12&#45;&gt;Node4 -->
<g id="edge8" class="edge">
<title>Node12&#45;&gt;Node4</title>
<path fill="none" stroke="#ffa500" stroke-dasharray="5,2" d="M346.2415,-254.6773C348.8498,-254.975 351.439,-255.2502 354,-255.5 693.5381,-288.6134 1100.2827,-281.2034 1275.7976,-275.747"/>
<polygon fill="#ffa500" stroke="#ffa500" points="346.4575,-251.1775 336.1037,-253.4246 345.5989,-258.1246 346.4575,-251.1775"/>
<text text-anchor="middle" x="799.5" y="-282.5" font-family="Helvetica,sans-Serif" font-size="10.00" fill="#000000"> &lt; Multigrid, LinOp &gt;</text>
</g>
<!-- Node12&#45;&gt;Node6 -->
<g id="edge6" class="edge">
<title>Node12&#45;&gt;Node6</title>
<path fill="none" stroke="#ffa500" stroke-dasharray="5,2" d="M285.1891,-259.4291C305.8616,-269.0801 330.6008,-279.2812 354,-285.5 415.4942,-301.8433 486.977,-309.307 541.7169,-312.7038"/>
<polygon fill="#ffa500" stroke="#ffa500" points="286.5297,-256.1909 275.9965,-255.0498 283.5191,-262.5104 286.5297,-256.1909"/>
<text text-anchor="middle" x="432.5" y="-312.5" font-family="Helvetica,sans-Serif" font-size="10.00" fill="#000000"> &lt; LinOp &gt;</text>
</g>
<!-- Node14 -->
<g id="node10" class="node">
<title>Node14</title>
<g id="a_node10"><a xlink:href="classgko_1_1EnableAbstractPolymorphicObject.html" target="_top" xlink:title=" ">
<polygon fill="#ffffff" stroke="#000000" points="529,-199 529,-240 730,-240 730,-199 529,-199"/>
<text text-anchor="start" x="537" y="-228" font-family="Helvetica,sans-Serif" font-size="10.00" fill="#000000">gko::EnableAbstractPolymorphic</text>
<text text-anchor="start" x="537" y="-217" font-family="Helvetica,sans-Serif" font-size="10.00" fill="#000000">Object&lt; ConcreteObject, Polymorphic</text>
<text text-anchor="middle" x="629.5" y="-206" font-family="Helvetica,sans-Serif" font-size="10.00" fill="#000000">Base &gt;</text>
</a>
</g>
</g>
<!-- Node12&#45;&gt;Node14 -->
<g id="edge12" class="edge">
<title>Node12&#45;&gt;Node14</title>
<path fill="none" stroke="#ffa500" stroke-dasharray="5,2" d="M346.2032,-230.3266C403.3756,-228.1417 472.9091,-225.4844 528.78,-223.3492"/>
<polygon fill="#ffa500" stroke="#ffa500" points="345.9033,-226.8354 336.0443,-230.7149 346.1707,-233.8303 345.9033,-226.8354"/>
<text text-anchor="start" x="354" y="-243.5" font-family="Helvetica,sans-Serif" font-size="10.00" fill="#000000"> &lt; ConcreteObject, Polymorphic</text>
<text text-anchor="middle" x="432.5" y="-232.5" font-family="Helvetica,sans-Serif" font-size="10.00" fill="#000000">Base &gt;</text>
</g>
<!-- Node21 -->
<g id="node17" class="node">
<title>Node21</title>
<g id="a_node17"><a xlink:href="classgko_1_1EnableAbstractPolymorphicObject.html" target="_top" xlink:title=" ">
<polygon fill="#ffffff" stroke="#000000" points="531,-137 531,-178 728,-178 728,-137 531,-137"/>
<text text-anchor="start" x="539" y="-166" font-family="Helvetica,sans-Serif" font-size="10.00" fill="#000000">gko::EnableAbstractPolymorphic</text>
<text text-anchor="start" x="539" y="-155" font-family="Helvetica,sans-Serif" font-size="10.00" fill="#000000">Object&lt; ConcreteLinOp, Polymorphic</text>
<text text-anchor="middle" x="629.5" y="-144" font-family="Helvetica,sans-Serif" font-size="10.00" fill="#000000">Base &gt;</text>
</a>
</g>
</g>
<!-- Node12&#45;&gt;Node21 -->
<g id="edge22" class="edge">
<title>Node12&#45;&gt;Node21</title>
<path fill="none" stroke="#ffa500" stroke-dasharray="5,2" d="M305.1506,-210.905C321.0476,-205.9727 338.007,-201.1644 354,-197.5 412.0638,-184.1962 478.0765,-174.431 530.9257,-167.8807"/>
<polygon fill="#ffa500" stroke="#ffa500" points="303.889,-207.6329 295.4079,-213.9829 305.9978,-214.3078 303.889,-207.6329"/>
<text text-anchor="start" x="356" y="-211.5" font-family="Helvetica,sans-Serif" font-size="10.00" fill="#000000"> &lt; ConcreteLinOp, Polymorphic</text>
<text text-anchor="middle" x="432.5" y="-200.5" font-family="Helvetica,sans-Serif" font-size="10.00" fill="#000000">Base &gt;</text>
</g>
<!-- Node11 -->
<g id="node8" class="node">
<title>Node11</title>
<g id="a_node8"><a xlink:title=" ">
<polygon fill="#ffffff" stroke="#bfbfbf" points="0,-147 0,-166 101,-166 101,-147 0,-147"/>
<text text-anchor="middle" x="50.5" y="-154" font-family="Helvetica,sans-Serif" font-size="10.00" fill="#000000">PolymorphicBase</text>
</a>
</g>
</g>
<!-- Node11&#45;&gt;Node12 -->
<g id="edge7" class="edge">
<title>Node11&#45;&gt;Node12</title>
<path fill="none" stroke="#191970" d="M82.5985,-169.9246C111.5007,-182.0123 154.4214,-199.9631 187.6791,-213.8725"/>
<polygon fill="#191970" stroke="#191970" points="83.9447,-166.6939 73.3686,-166.0643 81.2437,-173.1518 83.9447,-166.6939"/>
</g>
<!-- Node11&#45;&gt;Node14 -->
<g id="edge11" class="edge">
<title>Node11&#45;&gt;Node14</title>
<path fill="none" stroke="#191970" d="M111.1089,-153.0705C219.1992,-147.8191 440.5134,-141.228 511,-170.5 521.1624,-174.7203 519.5199,-181.913 529,-187.5 536.3355,-191.8231 544.322,-195.6315 552.4809,-198.9696"/>
<polygon fill="#191970" stroke="#191970" points="110.8245,-149.5802 101.0109,-153.5732 111.1726,-156.5715 110.8245,-149.5802"/>
</g>
<!-- Node11&#45;&gt;Node21 -->
<g id="edge21" class="edge">
<title>Node11&#45;&gt;Node21</title>
<path fill="none" stroke="#191970" d="M100.0089,-145.156C106.37,-144.0602 112.8183,-143.1252 119,-142.5 292.3378,-124.9679 337.1229,-131.5389 511,-142.5 517.5192,-142.911 524.2283,-143.4479 530.9817,-144.0736"/>
<polygon fill="#191970" stroke="#191970" points="99.3286,-141.7224 90.1355,-146.9889 100.6063,-148.6048 99.3286,-141.7224"/>
</g>
<!-- Node13 -->
<g id="node9" class="node">
<title>Node13</title>
<g id="a_node9"><a xlink:href="classgko_1_1EnablePolymorphicObject.html" target="_top" xlink:title="This mixin inherits from (a subclass of) PolymorphicObject and provides a base implementation of a ne...">
<polygon fill="#ffffff" stroke="#000000" points="869,-204.5 869,-234.5 1074,-234.5 1074,-204.5 869,-204.5"/>
<text text-anchor="start" x="877" y="-222.5" font-family="Helvetica,sans-Serif" font-size="10.00" fill="#000000">gko::EnablePolymorphicObject</text>
<text text-anchor="middle" x="971.5" y="-211.5" font-family="Helvetica,sans-Serif" font-size="10.00" fill="#000000">&lt; ConcreteObject, PolymorphicBase &gt;</text>
</a>
</g>
</g>
<!-- Node13&#45;&gt;Node3 -->
<g id="edge9" class="edge">
<title>Node13&#45;&gt;Node3</title>
<path fill="none" stroke="#ffa500" stroke-dasharray="5,2" d="M1084.0199,-220.9696C1204.5539,-222.544 1393.0176,-225.0055 1500.8379,-226.4138"/>
<polygon fill="#ffa500" stroke="#ffa500" points="1084.0636,-217.47 1074.0187,-220.839 1083.9721,-224.4694 1084.0636,-217.47"/>
<text text-anchor="middle" x="1363.5" y="-228.5" font-family="Helvetica,sans-Serif" font-size="10.00" fill="#000000"> &lt; Multigrid, LinOp &gt;</text>
</g>
<!-- Node20 -->
<g id="node16" class="node">
<title>Node20</title>
<g id="a_node16"><a xlink:href="classgko_1_1EnablePolymorphicObject.html" target="_top" xlink:title=" ">
<polygon fill="#ffffff" stroke="#000000" points="1263,-144.5 1263,-174.5 1464,-174.5 1464,-144.5 1263,-144.5"/>
<text text-anchor="start" x="1271" y="-162.5" font-family="Helvetica,sans-Serif" font-size="10.00" fill="#000000">gko::EnablePolymorphicObject</text>
<text text-anchor="middle" x="1363.5" y="-151.5" font-family="Helvetica,sans-Serif" font-size="10.00" fill="#000000">&lt; ConcreteLinOp, PolymorphicBase &gt;</text>
</a>
</g>
</g>
<!-- Node13&#45;&gt;Node20 -->
<g id="edge23" class="edge">
<title>Node13&#45;&gt;Node20</title>
<path fill="none" stroke="#ffa500" stroke-dasharray="5,2" d="M1040.1579,-202.1592C1057.0352,-198.2808 1075.1095,-194.4484 1092,-191.5 1148.2225,-181.6858 1211.5312,-174.031 1262.8638,-168.6724"/>
<polygon fill="#ffa500" stroke="#ffa500" points="1039.3201,-198.7606 1030.3772,-204.4417 1040.9109,-205.5774 1039.3201,-198.7606"/>
<text text-anchor="start" x="1092" y="-205.5" font-family="Helvetica,sans-Serif" font-size="10.00" fill="#000000"> &lt; ConcreteLinOp, Polymorphic</text>
<text text-anchor="middle" x="1168.5" y="-194.5" font-family="Helvetica,sans-Serif" font-size="10.00" fill="#000000">Base &gt;</text>
</g>
<!-- Node14&#45;&gt;Node13 -->
<g id="edge10" class="edge">
<title>Node14&#45;&gt;Node13</title>
<path fill="none" stroke="#191970" d="M740.3568,-219.5C781.6373,-219.5 828.2766,-219.5 868.7946,-219.5"/>
<polygon fill="#191970" stroke="#191970" points="740.2616,-216.0001 730.2615,-219.5 740.2615,-223.0001 740.2616,-216.0001"/>
</g>
<!-- Node15 -->
<g id="node11" class="node">
<title>Node15</title>
<g id="a_node11"><a xlink:href="classgko_1_1EnablePolymorphicAssignment.html" target="_top" xlink:title=" ">
<polygon fill="#ffffff" stroke="#000000" points="1267.5,-38.5 1267.5,-68.5 1459.5,-68.5 1459.5,-38.5 1267.5,-38.5"/>
<text text-anchor="start" x="1275.5" y="-56.5" font-family="Helvetica,sans-Serif" font-size="10.00" fill="#000000">gko::EnablePolymorphicAssignment</text>
<text text-anchor="middle" x="1363.5" y="-45.5" font-family="Helvetica,sans-Serif" font-size="10.00" fill="#000000">&lt; Multigrid &gt;</text>
</a>
</g>
</g>
<!-- Node15&#45;&gt;Node2 -->
<g id="edge13" class="edge">
<title>Node15&#45;&gt;Node2</title>
<path fill="none" stroke="#191970" d="M1461.4003,-70.2147C1562.7313,-87.5151 1717.4658,-113.9332 1799.6561,-127.9657"/>
<polygon fill="#191970" stroke="#191970" points="1461.9062,-66.7505 1451.4597,-68.5175 1460.728,-73.6506 1461.9062,-66.7505"/>
</g>
<!-- Node16 -->
<g id="node12" class="node">
<title>Node16</title>
<g id="a_node12"><a xlink:href="classgko_1_1ConvertibleTo.html" target="_top" xlink:title=" ">
<polygon fill="#ffffff" stroke="#000000" points="918,-.5 918,-30.5 1025,-30.5 1025,-.5 918,-.5"/>
<text text-anchor="start" x="926" y="-18.5" font-family="Helvetica,sans-Serif" font-size="10.00" fill="#000000">gko::ConvertibleTo</text>
<text text-anchor="middle" x="971.5" y="-7.5" font-family="Helvetica,sans-Serif" font-size="10.00" fill="#000000">&lt; Multigrid &gt;</text>
</a>
</g>
</g>
<!-- Node16&#45;&gt;Node15 -->
<g id="edge14" class="edge">
<title>Node16&#45;&gt;Node15</title>
<path fill="none" stroke="#191970" d="M1035.3555,-21.6901C1098.2083,-27.783 1194.9963,-37.1655 1267.1913,-44.164"/>
<polygon fill="#191970" stroke="#191970" points="1035.4751,-18.1853 1025.184,-20.7041 1034.7996,-25.1527 1035.4751,-18.1853"/>
</g>
<!-- Node17 -->
<g id="node13" class="node">
<title>Node17</title>
<g id="a_node13"><a xlink:href="classgko_1_1ConvertibleTo.html" target="_top" xlink:title="ConvertibleTo interface is used to mark that the implementer can be converted to the object of Result...">
<polygon fill="#ffffff" stroke="#000000" points="576,-49.5 576,-79.5 683,-79.5 683,-49.5 576,-49.5"/>
<text text-anchor="start" x="584" y="-67.5" font-family="Helvetica,sans-Serif" font-size="10.00" fill="#000000">gko::ConvertibleTo</text>
<text text-anchor="middle" x="629.5" y="-56.5" font-family="Helvetica,sans-Serif" font-size="10.00" fill="#000000">&lt; ResultType &gt;</text>
</a>
</g>
</g>
<!-- Node17&#45;&gt;Node16 -->
<g id="edge15" class="edge">
<title>Node17&#45;&gt;Node16</title>
<path fill="none" stroke="#ffa500" stroke-dasharray="5,2" d="M693.3874,-55.3465C758.0536,-46.0815 856.9331,-31.9146 917.7183,-23.2056"/>
<polygon fill="#ffa500" stroke="#ffa500" points="692.7162,-51.9069 683.3137,-56.7898 693.7091,-58.8361 692.7162,-51.9069"/>
<text text-anchor="middle" x="799.5" y="-50.5" font-family="Helvetica,sans-Serif" font-size="10.00" fill="#000000"> &lt; Multigrid &gt;</text>
</g>
<!-- Node18 -->
<g id="node14" class="node">
<title>Node18</title>
<g id="a_node14"><a xlink:href="classgko_1_1EnablePolymorphicAssignment.html" target="_top" xlink:title="This mixin is used to enable a default PolymorphicObject::copy_from() implementation for objects that...">
<polygon fill="#ffffff" stroke="#000000" points="875.5,-49.5 875.5,-79.5 1067.5,-79.5 1067.5,-49.5 875.5,-49.5"/>
<text text-anchor="start" x="883.5" y="-67.5" font-family="Helvetica,sans-Serif" font-size="10.00" fill="#000000">gko::EnablePolymorphicAssignment</text>
<text text-anchor="middle" x="971.5" y="-56.5" font-family="Helvetica,sans-Serif" font-size="10.00" fill="#000000">&lt; ConcreteType, ResultType &gt;</text>
</a>
</g>
</g>
<!-- Node17&#45;&gt;Node18 -->
<g id="edge17" class="edge">
<title>Node17&#45;&gt;Node18</title>
<path fill="none" stroke="#191970" d="M693.5704,-64.5C744.7215,-64.5 817.194,-64.5 875.3087,-64.5"/>
<polygon fill="#191970" stroke="#191970" points="693.3138,-61.0001 683.3137,-64.5 693.3137,-68.0001 693.3138,-61.0001"/>
</g>
<!-- Node23 -->
<g id="node19" class="node">
<title>Node23</title>
<g id="a_node19"><a xlink:href="classgko_1_1ConvertibleTo.html" target="_top" xlink:title=" ">
<polygon fill="#ffffff" stroke="#000000" points="916.5,-98.5 916.5,-128.5 1026.5,-128.5 1026.5,-98.5 916.5,-98.5"/>
<text text-anchor="start" x="924.5" y="-116.5" font-family="Helvetica,sans-Serif" font-size="10.00" fill="#000000">gko::ConvertibleTo</text>
<text text-anchor="middle" x="971.5" y="-105.5" font-family="Helvetica,sans-Serif" font-size="10.00" fill="#000000">&lt; ConcreteLinOp &gt;</text>
</a>
</g>
</g>
<!-- Node17&#45;&gt;Node23 -->
<g id="edge26" class="edge">
<title>Node17&#45;&gt;Node23</title>
<path fill="none" stroke="#ffa500" stroke-dasharray="5,2" d="M693.3112,-73.6425C757.476,-82.8357 855.3813,-96.8631 916.301,-105.5914"/>
<polygon fill="#ffa500" stroke="#ffa500" points="693.7091,-70.1639 683.3137,-72.2102 692.7162,-77.0931 693.7091,-70.1639"/>
<text text-anchor="middle" x="799.5" y="-98.5" font-family="Helvetica,sans-Serif" font-size="10.00" fill="#000000"> &lt; ConcreteLinOp &gt;</text>
</g>
<!-- Node18&#45;&gt;Node15 -->
<g id="edge16" class="edge">
<title>Node18&#45;&gt;Node15</title>
<path fill="none" stroke="#ffa500" stroke-dasharray="5,2" d="M1078.126,-55.1975C1082.8124,-54.9319 1087.4532,-54.6967 1092,-54.5 1150.1582,-51.9836 1215.3893,-51.6624 1267.3338,-52.0041"/>
<polygon fill="#ffa500" stroke="#ffa500" points="1077.5817,-51.724 1067.8126,-55.8245 1078.0066,-58.7111 1077.5817,-51.724"/>
<text text-anchor="middle" x="1168.5" y="-57.5" font-family="Helvetica,sans-Serif" font-size="10.00" fill="#000000"> &lt; Multigrid &gt;</text>
</g>
<!-- Node22 -->
<g id="node18" class="node">
<title>Node22</title>
<g id="a_node18"><a xlink:href="classgko_1_1EnablePolymorphicAssignment.html" target="_top" xlink:title=" ">
<polygon fill="#ffffff" stroke="#000000" points="1267.5,-95.5 1267.5,-125.5 1459.5,-125.5 1459.5,-95.5 1267.5,-95.5"/>
<text text-anchor="start" x="1275.5" y="-113.5" font-family="Helvetica,sans-Serif" font-size="10.00" fill="#000000">gko::EnablePolymorphicAssignment</text>
<text text-anchor="middle" x="1363.5" y="-102.5" font-family="Helvetica,sans-Serif" font-size="10.00" fill="#000000">&lt; ConcreteLinOp &gt;</text>
</a>
</g>
</g>
<!-- Node18&#45;&gt;Node22 -->
<g id="edge27" class="edge">
<title>Node18&#45;&gt;Node22</title>
<path fill="none" stroke="#ffa500" stroke-dasharray="5,2" d="M1077.6818,-76.8953C1128.3404,-82.8162 1189.8051,-90.0106 1245,-96.5 1252.3039,-97.3587 1259.8608,-98.2485 1267.4602,-99.1442"/>
<polygon fill="#ffa500" stroke="#ffa500" points="1078.038,-73.4132 1067.6993,-75.7287 1077.2254,-80.3659 1078.038,-73.4132"/>
<text text-anchor="middle" x="1168.5" y="-99.5" font-family="Helvetica,sans-Serif" font-size="10.00" fill="#000000"> &lt; ConcreteLinOp &gt;</text>
</g>
<!-- Node19 -->
<g id="node15" class="node">
<title>Node19</title>
<g id="a_node15"><a xlink:href="classgko_1_1EnableLinOp.html" target="_top" xlink:title="The EnableLinOp mixin can be used to provide sensible default implementations of the majority of the ...">
<polygon fill="#ffffff" stroke="#000000" points="1506,-122.5 1506,-152.5 1662,-152.5 1662,-122.5 1506,-122.5"/>
<text text-anchor="start" x="1514" y="-140.5" font-family="Helvetica,sans-Serif" font-size="10.00" fill="#000000">gko::EnableLinOp&lt; Concrete</text>
<text text-anchor="middle" x="1584" y="-129.5" font-family="Helvetica,sans-Serif" font-size="10.00" fill="#000000">LinOp, PolymorphicBase &gt;</text>
</a>
</g>
</g>
<!-- Node19&#45;&gt;Node2 -->
<g id="edge18" class="edge">
<title>Node19&#45;&gt;Node2</title>
<path fill="none" stroke="#ffa500" stroke-dasharray="5,2" d="M1672.3774,-137.5C1704.2973,-137.5 1740.2129,-137.5 1771.7266,-137.5"/>
<polygon fill="#ffa500" stroke="#ffa500" points="1672.1648,-134.0001 1662.1648,-137.5 1672.1648,-141.0001 1672.1648,-134.0001"/>
<text text-anchor="middle" x="1719.5" y="-140.5" font-family="Helvetica,sans-Serif" font-size="10.00" fill="#000000"> &lt; Multigrid &gt;</text>
</g>
<!-- Node20&#45;&gt;Node19 -->
<g id="edge19" class="edge">
<title>Node20&#45;&gt;Node19</title>
<path fill="none" stroke="#191970" d="M1474.2456,-148.4505C1484.8692,-147.3906 1495.4867,-146.3313 1505.7034,-145.3119"/>
<polygon fill="#191970" stroke="#191970" points="1473.6742,-144.9901 1464.0711,-149.4657 1474.3693,-151.9555 1473.6742,-144.9901"/>
</g>
<!-- Node21&#45;&gt;Node20 -->
<g id="edge20" class="edge">
<title>Node21&#45;&gt;Node20</title>
<path fill="none" stroke="#191970" d="M738.116,-157.796C879.6346,-158.1816 1125.1903,-158.8507 1262.733,-159.2254"/>
<polygon fill="#191970" stroke="#191970" points="738.1189,-154.2961 728.1094,-157.7687 738.0998,-161.296 738.1189,-154.2961"/>
</g>
<!-- Node22&#45;&gt;Node19 -->
<g id="edge24" class="edge">
<title>Node22&#45;&gt;Node19</title>
<path fill="none" stroke="#191970" d="M1469.7437,-123.5094C1481.8851,-124.9961 1494.0914,-126.4908 1505.7726,-127.9211"/>
<polygon fill="#191970" stroke="#191970" points="1469.9244,-120.0055 1459.5731,-122.264 1469.0735,-126.9536 1469.9244,-120.0055"/>
</g>
<!-- Node23&#45;&gt;Node22 -->
<g id="edge25" class="edge">
<title>Node23&#45;&gt;Node22</title>
<path fill="none" stroke="#191970" d="M1037.0239,-112.9985C1099.9342,-112.5171 1195.7021,-111.7842 1267.2698,-111.2365"/>
<polygon fill="#191970" stroke="#191970" points="1036.8055,-109.5 1026.8326,-113.0765 1036.8591,-116.4998 1036.8055,-109.5"/>
</g>
</g>
</svg>
        <g id="navigator" transform="translate(0 0)" fill="#404254">
                <rect fill="#f2f5e9" fill-opacity="0.5" stroke="#606060" stroke-width=".5" x="0" y="0" width="60" height="60"/>
                <use id="zoomplus" xlink:href="#zoomPlus" x="17" y="9" onmousedown="handleZoom(evt,'in')"/>
                <use id="zoomminus" xlink:href="#zoomMin" x="42" y="9" onmousedown="handleZoom(evt,'out')"/>
                <use id="reset" xlink:href="#resetDef" x="30" y="36" onmousedown="handleReset()"/>
                <g id="arrowUp" xlink:href="#dirArrow" transform="translate(30 24)" onmousedown="handlePan(0,-1)">
                  <use xlink:href="#rim" fill="#404040">
                        <set attributeName="fill" to="#808080" begin="arrowUp.mouseover" end="arrowUp.mouseout"/>
                  </use>
                  <path fill="none" stroke="white" stroke-width="1.5" d="M0,-3.0v7 M-2.5,-0.5L0,-3.0L2.5,-0.5"/>
                </g>
                <g id="arrowRight" xlink:href="#dirArrow" transform="rotate(90) translate(36 -43)" onmousedown="handlePan(1,0)">
                  <use xlink:href="#rim" fill="#404040">
                        <set attributeName="fill" to="#808080" begin="arrowRight.mouseover" end="arrowRight.mouseout"/>
                  </use>
                  <path fill="none" stroke="white" stroke-width="1.5" d="M0,-3.0v7 M-2.5,-0.5L0,-3.0L2.5,-0.5"/>
                </g>
                <g id="arrowDown" xlink:href="#dirArrow" transform="rotate(180) translate(-30 -48)" onmousedown="handlePan(0,1)">
                  <use xlink:href="#rim" fill="#404040">
                        <set attributeName="fill" to="#808080" begin="arrowDown.mouseover" end="arrowDown.mouseout"/>
                  </use>
                  <path fill="none" stroke="white" stroke-width="1.5" d="M0,-3.0v7 M-2.5,-0.5L0,-3.0L2.5,-0.5"/>
                </g>
                <g id="arrowLeft" xlink:href="#dirArrow" transform="rotate(270) translate(-36 17)" onmousedown="handlePan(-1,0)">
                  <use xlink:href="#rim" fill="#404040">
                        <set attributeName="fill" to="#808080" begin="arrowLeft.mouseover" end="arrowLeft.mouseout"/>
                  </use>
                  <path fill="none" stroke="white" stroke-width="1.5" d="M0,-3.0v7 M-2.5,-0.5L0,-3.0L2.5,-0.5"/>
                </g>
        </g>
        <svg viewBox="0 0 15 15" width="100%" height="30px" preserveAspectRatio="xMaxYMin meet">
         <g id="arrow_out" transform="scale(0.3 0.3)">
          <a xlink:href="classgko_1_1solver_1_1Multigrid__coll__graph_org.svg" target="_base">
           <rect id="button" ry="5" rx="5" y="6" x="6" height="38" width="38"
                fill="#f2f5e9" fill-opacity="0.5" stroke="#606060" stroke-width="1.0"/>
           <path id="arrow"
             d="M 11.500037,31.436501 C 11.940474,20.09759 22.043105,11.32322 32.158766,21.979434 L 37.068811,17.246167 C 37.068811,17.246167 37.088388,32 37.088388,32 L 22.160133,31.978069 C 22.160133,31.978069 26.997745,27.140456 26.997745,27.140456 C 18.528582,18.264221 13.291696,25.230495 11.500037,31.436501 z"
             style="fill:#404040;"/>
          </a>
         </g>
        </svg>
</svg>
