<?xml version="1.0" encoding="UTF-8" standalone="no"?>
<!DOCTYPE svg PUBLIC "-//W3C//DTD SVG 1.1//EN"
 "http://www.w3.org/Graphics/SVG/1.1/DTD/svg11.dtd">
<!-- Generated by graphviz version 2.40.1 (20161225.0304)
 -->
<!-- Title: gko::experimental::reorder::ScaledReordered&lt; ValueType, IndexType &gt;::Factory Pages: 1 -->
<svg width="181pt" height="195pt"
 viewBox="0.00 0.00 181.00 195.00" xmlns="http://www.w3.org/2000/svg" xmlns:xlink="http://www.w3.org/1999/xlink">
<g id="graph0" class="graph" transform="scale(1 1) rotate(0) translate(4 191)">
<title>gko::experimental::reorder::ScaledReordered&lt; ValueType, IndexType &gt;::Factory</title>
<polygon fill="#ffffff" stroke="transparent" points="-4,4 -4,-191 177,-191 177,4 -4,4"/>
<!-- Node1 -->
<g id="node1" class="node">
<title>Node1</title>
<g id="a_node1"><a xlink:title=" ">
<polygon fill="#bfbfbf" stroke="#000000" points="16.5,-.5 16.5,-52.5 156.5,-52.5 156.5,-.5 16.5,-.5"/>
<text text-anchor="start" x="24.5" y="-40.5" font-family="Helvetica,sans-Serif" font-size="10.00" fill="#000000">gko::experimental::</text>
<text text-anchor="start" x="24.5" y="-29.5" font-family="Helvetica,sans-Serif" font-size="10.00" fill="#000000">reorder::ScaledReordered</text>
<text text-anchor="start" x="24.5" y="-18.5" font-family="Helvetica,sans-Serif" font-size="10.00" fill="#000000">&lt; ValueType, IndexType</text>
<text text-anchor="middle" x="86.5" y="-7.5" font-family="Helvetica,sans-Serif" font-size="10.00" fill="#000000"> &gt;::Factory</text>
</a>
</g>
</g>
<!-- Node2 -->
<g id="node2" class="node">
<title>Node2</title>
<g id="a_node2"><a xlink:href="classgko_1_1EnableDefaultFactory.html" target="_top" xlink:title="This mixin provides a default implementation of a concrete factory.">
<polygon fill="#ffffff" stroke="#000000" points="0,-89.5 0,-130.5 173,-130.5 173,-89.5 0,-89.5"/>
<text text-anchor="start" x="8" y="-118.5" font-family="Helvetica,sans-Serif" font-size="10.00" fill="#000000">gko::EnableDefaultLinOpFactory</text>
<text text-anchor="start" x="8" y="-107.5" font-family="Helvetica,sans-Serif" font-size="10.00" fill="#000000">&lt; Factory, ScaledReordered,</text>
<text text-anchor="middle" x="86.5" y="-96.5" font-family="Helvetica,sans-Serif" font-size="10.00" fill="#000000"> parameters_type &gt;</text>
</a>
</g>
</g>
<!-- Node2&#45;&gt;Node1 -->
<g id="edge1" class="edge">
<title>Node2&#45;&gt;Node1</title>
<path fill="none" stroke="#191970" d="M86.5,-79.1618C86.5,-70.4305 86.5,-61.0145 86.5,-52.5925"/>
<polygon fill="#191970" stroke="#191970" points="83.0001,-79.3595 86.5,-89.3595 90.0001,-79.3596 83.0001,-79.3595"/>
</g>
<!-- Node3 -->
<g id="node3" class="node">
<title>Node3</title>
<g id="a_node3"><a xlink:title=" ">
<polygon fill="#ffffff" stroke="#bfbfbf" points="36,-167.5 36,-186.5 137,-186.5 137,-167.5 36,-167.5"/>
<text text-anchor="middle" x="86.5" y="-174.5" font-family="Helvetica,sans-Serif" font-size="10.00" fill="#000000">PolymorphicBase</text>
</a>
</g>
</g>
<!-- Node3&#45;&gt;Node2 -->
<g id="edge2" class="edge">
<title>Node3&#45;&gt;Node2</title>
<path fill="none" stroke="#191970" d="M86.5,-157.3919C86.5,-148.9817 86.5,-139.1519 86.5,-130.6318"/>
<polygon fill="#191970" stroke="#191970" points="83.0001,-157.4005 86.5,-167.4005 90.0001,-157.4006 83.0001,-157.4005"/>
</g>
</g>
</svg>
