<?xml version="1.0" encoding="UTF-8" standalone="no"?>
<!DOCTYPE svg PUBLIC "-//W3C//DTD SVG 1.1//EN"
 "http://www.w3.org/Graphics/SVG/1.1/DTD/svg11.dtd">
<!-- Generated by graphviz version 2.40.1 (20161225.0304)
 -->
<!-- Title: gko::AbstractFactory&lt; AbstractProductType, ComponentsType &gt; Pages: 1 -->
<svg width="314pt" height="321pt"
 viewBox="0.00 0.00 314.00 321.00" xmlns="http://www.w3.org/2000/svg" xmlns:xlink="http://www.w3.org/1999/xlink">
<g id="graph0" class="graph" transform="scale(1 1) rotate(0) translate(4 317)">
<title>gko::AbstractFactory&lt; AbstractProductType, ComponentsType &gt;</title>
<polygon fill="#ffffff" stroke="transparent" points="-4,4 -4,-317 310,-317 310,4 -4,4"/>
<!-- Node1 -->
<g id="node1" class="node">
<title>Node1</title>
<g id="a_node1"><a xlink:title="The AbstractFactory is a generic interface template that enables easy implementation of the abstract ...">
<polygon fill="#bfbfbf" stroke="#000000" points="35.5,-.5 35.5,-41.5 166.5,-41.5 166.5,-.5 35.5,-.5"/>
<text text-anchor="start" x="43.5" y="-29.5" font-family="Helvetica,sans-Serif" font-size="10.00" fill="#000000">gko::AbstractFactory</text>
<text text-anchor="start" x="43.5" y="-18.5" font-family="Helvetica,sans-Serif" font-size="10.00" fill="#000000">&lt; AbstractProductType,</text>
<text text-anchor="middle" x="101" y="-7.5" font-family="Helvetica,sans-Serif" font-size="10.00" fill="#000000"> ComponentsType &gt;</text>
</a>
</g>
</g>
<!-- Node2 -->
<g id="node2" class="node">
<title>Node2</title>
<g id="a_node2"><a xlink:href="classgko_1_1PolymorphicObject.html" target="_top" xlink:title="A PolymorphicObject is the abstract base for all &quot;heavy&quot; objects in Ginkgo that behave polymorphicall...">
<polygon fill="#ffffff" stroke="#000000" points="34.5,-79.5 34.5,-98.5 167.5,-98.5 167.5,-79.5 34.5,-79.5"/>
<text text-anchor="middle" x="101" y="-86.5" font-family="Helvetica,sans-Serif" font-size="10.00" fill="#000000">gko::PolymorphicObject</text>
</a>
</g>
</g>
<!-- Node2&#45;&gt;Node1 -->
<g id="edge1" class="edge">
<title>Node2&#45;&gt;Node1</title>
<path fill="none" stroke="#191970" d="M101,-69.0142C101,-60.4042 101,-50.3409 101,-41.6575"/>
<polygon fill="#191970" stroke="#191970" points="97.5001,-69.2572 101,-79.2573 104.5001,-69.2573 97.5001,-69.2572"/>
</g>
<!-- Node3 -->
<g id="node3" class="node">
<title>Node3</title>
<g id="a_node3"><a xlink:href="classgko_1_1log_1_1EnableLogging.html" target="_top" xlink:title=" ">
<polygon fill="#ffffff" stroke="#000000" points="34.5,-136.5 34.5,-166.5 167.5,-166.5 167.5,-136.5 34.5,-136.5"/>
<text text-anchor="start" x="42.5" y="-154.5" font-family="Helvetica,sans-Serif" font-size="10.00" fill="#000000">gko::log::EnableLogging</text>
<text text-anchor="middle" x="101" y="-143.5" font-family="Helvetica,sans-Serif" font-size="10.00" fill="#000000">&lt; PolymorphicObject &gt;</text>
</a>
</g>
</g>
<!-- Node3&#45;&gt;Node2 -->
<g id="edge2" class="edge">
<title>Node3&#45;&gt;Node2</title>
<path fill="none" stroke="#191970" d="M101,-126.3498C101,-116.6481 101,-106.1303 101,-98.7356"/>
<polygon fill="#191970" stroke="#191970" points="97.5001,-126.3705 101,-136.3705 104.5001,-126.3705 97.5001,-126.3705"/>
</g>
<!-- Node4 -->
<g id="node4" class="node">
<title>Node4</title>
<g id="a_node4"><a xlink:href="classgko_1_1log_1_1Loggable.html" target="_top" xlink:title="Loggable class is an interface which should be implemented by classes wanting to support logging.">
<polygon fill="#ffffff" stroke="#000000" points="0,-225.5 0,-244.5 106,-244.5 106,-225.5 0,-225.5"/>
<text text-anchor="middle" x="53" y="-232.5" font-family="Helvetica,sans-Serif" font-size="10.00" fill="#000000">gko::log::Loggable</text>
</a>
</g>
</g>
<!-- Node4&#45;&gt;Node3 -->
<g id="edge3" class="edge">
<title>Node4&#45;&gt;Node3</title>
<path fill="none" stroke="#191970" d="M63.6098,-216.5433C72.2377,-201.5345 84.2608,-180.6192 92.3215,-166.597"/>
<polygon fill="#191970" stroke="#191970" points="60.4556,-215.0075 58.5062,-225.4215 66.5244,-218.4962 60.4556,-215.0075"/>
</g>
<!-- Node5 -->
<g id="node5" class="node">
<title>Node5</title>
<g id="a_node5"><a xlink:href="classgko_1_1log_1_1EnableLogging.html" target="_top" xlink:title="EnableLogging is a mixin which should be inherited by any class which wants to enable logging.">
<polygon fill="#ffffff" stroke="#000000" points="124,-214.5 124,-255.5 306,-255.5 306,-214.5 124,-214.5"/>
<text text-anchor="start" x="132" y="-243.5" font-family="Helvetica,sans-Serif" font-size="10.00" fill="#000000">gko::log::EnableLogging</text>
<text text-anchor="start" x="132" y="-232.5" font-family="Helvetica,sans-Serif" font-size="10.00" fill="#000000">&lt; ConcreteLoggable, Polymorphic</text>
<text text-anchor="middle" x="215" y="-221.5" font-family="Helvetica,sans-Serif" font-size="10.00" fill="#000000">Base &gt;</text>
</a>
</g>
</g>
<!-- Node5&#45;&gt;Node3 -->
<g id="edge4" class="edge">
<title>Node5&#45;&gt;Node3</title>
<path fill="none" stroke="#ffa500" stroke-dasharray="5,2" d="M178.724,-208.4294C159.898,-194.6402 137.5804,-178.2936 121.7003,-166.6621"/>
<polygon fill="#ffa500" stroke="#ffa500" points="176.6846,-211.2741 186.8202,-214.3595 180.821,-205.6269 176.6846,-211.2741"/>
<text text-anchor="middle" x="220" y="-188" font-family="Helvetica,sans-Serif" font-size="10.00" fill="#000000"> &lt; PolymorphicObject &gt;</text>
</g>
<!-- Node6 -->
<g id="node6" class="node">
<title>Node6</title>
<g id="a_node6"><a xlink:title=" ">
<polygon fill="#ffffff" stroke="#bfbfbf" points="164.5,-293.5 164.5,-312.5 265.5,-312.5 265.5,-293.5 164.5,-293.5"/>
<text text-anchor="middle" x="215" y="-300.5" font-family="Helvetica,sans-Serif" font-size="10.00" fill="#000000">PolymorphicBase</text>
</a>
</g>
</g>
<!-- Node6&#45;&gt;Node5 -->
<g id="edge5" class="edge">
<title>Node6&#45;&gt;Node5</title>
<path fill="none" stroke="#191970" d="M215,-283.0142C215,-274.4042 215,-264.3409 215,-255.6575"/>
<polygon fill="#191970" stroke="#191970" points="211.5001,-283.2572 215,-293.2573 218.5001,-283.2573 211.5001,-283.2572"/>
</g>
</g>
</svg>
