<?xml version="1.0" encoding="UTF-8" standalone="no"?>
<!DOCTYPE svg PUBLIC "-//W3C//DTD SVG 1.1//EN"
 "http://www.w3.org/Graphics/SVG/1.1/DTD/svg11.dtd">
<!-- Generated by graphviz version 2.40.1 (20161225.0304)
 -->
<!-- Title: gko::AbstractFactory&lt; AbstractProductType, ComponentsType &gt; Pages: 1 -->
<svg width="2447pt" height="148pt"
 viewBox="0.00 0.00 2447.00 148.00" xmlns="http://www.w3.org/2000/svg" xmlns:xlink="http://www.w3.org/1999/xlink">
<g id="graph0" class="graph" transform="scale(1 1) rotate(0) translate(4 144)">
<title>gko::AbstractFactory&lt; AbstractProductType, ComponentsType &gt;</title>
<polygon fill="#ffffff" stroke="transparent" points="-4,4 -4,-144 2443,-144 2443,4 -4,4"/>
<!-- Node1 -->
<g id="node1" class="node">
<title>Node1</title>
<g id="a_node1"><a xlink:title="The AbstractFactory is a generic interface template that enables easy implementation of the abstract ...">
<polygon fill="#bfbfbf" stroke="#000000" points="1272,-29.5 1272,-70.5 1403,-70.5 1403,-29.5 1272,-29.5"/>
<text text-anchor="start" x="1280" y="-58.5" font-family="Helvetica,sans-Serif" font-size="10.00" fill="#000000">gko::AbstractFactory</text>
<text text-anchor="start" x="1280" y="-47.5" font-family="Helvetica,sans-Serif" font-size="10.00" fill="#000000">&lt; AbstractProductType,</text>
<text text-anchor="middle" x="1337.5" y="-36.5" font-family="Helvetica,sans-Serif" font-size="10.00" fill="#000000"> ComponentsType &gt;</text>
</a>
</g>
</g>
<!-- Node9 -->
<g id="node9" class="node">
<title>Node9</title>
<g id="a_node9"><a xlink:title=" ">
<polygon fill="#ffffff" stroke="#bfbfbf" points="1549,-29.5 1549,-70.5 1675,-70.5 1675,-29.5 1549,-29.5"/>
<text text-anchor="start" x="1557" y="-58.5" font-family="Helvetica,sans-Serif" font-size="10.00" fill="#000000">gko::AbstractFactory</text>
<text text-anchor="start" x="1557" y="-47.5" font-family="Helvetica,sans-Serif" font-size="10.00" fill="#000000">&lt; LinOp, std::shared</text>
<text text-anchor="middle" x="1612" y="-36.5" font-family="Helvetica,sans-Serif" font-size="10.00" fill="#000000">_ptr&lt; const LinOp &gt; &gt;</text>
</a>
</g>
</g>
<!-- Node1&#45;&gt;Node9 -->
<g id="edge9" class="edge">
<title>Node1&#45;&gt;Node9</title>
<path fill="none" stroke="#ffa500" stroke-dasharray="5,2" d="M1413.2817,-50C1455.8379,-50 1508.3311,-50 1548.6768,-50"/>
<polygon fill="#ffa500" stroke="#ffa500" points="1413.2496,-46.5001 1403.2496,-50 1413.2496,-53.5001 1413.2496,-46.5001"/>
<text text-anchor="start" x="1421" y="-64" font-family="Helvetica,sans-Serif" font-size="10.00" fill="#000000"> &lt; LinOp, std::shared</text>
<text text-anchor="middle" x="1476" y="-53" font-family="Helvetica,sans-Serif" font-size="10.00" fill="#000000">_ptr&lt; const LinOp &gt; &gt;</text>
</g>
<!-- Node2 -->
<g id="node2" class="node">
<title>Node2</title>
<g id="a_node2"><a xlink:href="classgko_1_1EnableAbstractPolymorphicObject.html" target="_top" xlink:title=" ">
<polygon fill="#ffffff" stroke="#000000" points="1003,-29.5 1003,-70.5 1235,-70.5 1235,-29.5 1003,-29.5"/>
<text text-anchor="start" x="1011" y="-58.5" font-family="Helvetica,sans-Serif" font-size="10.00" fill="#000000">gko::EnableAbstractPolymorphic</text>
<text text-anchor="start" x="1011" y="-47.5" font-family="Helvetica,sans-Serif" font-size="10.00" fill="#000000">Object&lt; AbstractFactory&lt;</text>
<text text-anchor="middle" x="1119" y="-36.5" font-family="Helvetica,sans-Serif" font-size="10.00" fill="#000000"> AbstractProductType, ComponentsType &gt; &gt;</text>
</a>
</g>
</g>
<!-- Node2&#45;&gt;Node1 -->
<g id="edge1" class="edge">
<title>Node2&#45;&gt;Node1</title>
<path fill="none" stroke="#191970" d="M1245.529,-50C1254.5516,-50 1263.413,-50 1271.8583,-50"/>
<polygon fill="#191970" stroke="#191970" points="1245.2872,-46.5001 1235.2872,-50 1245.2871,-53.5001 1245.2872,-46.5001"/>
</g>
<!-- Node3 -->
<g id="node3" class="node">
<title>Node3</title>
<g id="a_node3"><a xlink:href="classgko_1_1PolymorphicObject.html" target="_top" xlink:title="A PolymorphicObject is the abstract base for all &quot;heavy&quot; objects in Ginkgo that behave polymorphicall...">
<polygon fill="#ffffff" stroke="#000000" points="833,-66.5 833,-85.5 966,-85.5 966,-66.5 833,-66.5"/>
<text text-anchor="middle" x="899.5" y="-73.5" font-family="Helvetica,sans-Serif" font-size="10.00" fill="#000000">gko::PolymorphicObject</text>
</a>
</g>
</g>
<!-- Node3&#45;&gt;Node2 -->
<g id="edge2" class="edge">
<title>Node3&#45;&gt;Node2</title>
<path fill="none" stroke="#191970" d="M976.2084,-66.9138C984.8198,-65.8938 993.7305,-64.8383 1002.6997,-63.7759"/>
<polygon fill="#191970" stroke="#191970" points="975.7701,-63.4412 966.2513,-68.0932 976.5936,-70.3926 975.7701,-63.4412"/>
</g>
<!-- Node4 -->
<g id="node4" class="node">
<title>Node4</title>
<g id="a_node4"><a xlink:href="classgko_1_1log_1_1EnableLogging.html" target="_top" xlink:title=" ">
<polygon fill="#ffffff" stroke="#000000" points="554,-66 554,-96 687,-96 687,-66 554,-66"/>
<text text-anchor="start" x="562" y="-84" font-family="Helvetica,sans-Serif" font-size="10.00" fill="#000000">gko::log::EnableLogging</text>
<text text-anchor="middle" x="620.5" y="-73" font-family="Helvetica,sans-Serif" font-size="10.00" fill="#000000">&lt; PolymorphicObject &gt;</text>
</a>
</g>
</g>
<!-- Node4&#45;&gt;Node3 -->
<g id="edge3" class="edge">
<title>Node4&#45;&gt;Node3</title>
<path fill="none" stroke="#191970" d="M697.3369,-79.623C739.7842,-78.8623 792.0026,-77.9265 832.7349,-77.1965"/>
<polygon fill="#191970" stroke="#191970" points="697.2631,-76.1237 687.3275,-79.8024 697.3886,-83.1225 697.2631,-76.1237"/>
</g>
<!-- Node5 -->
<g id="node5" class="node">
<title>Node5</title>
<g id="a_node5"><a xlink:href="classgko_1_1log_1_1Loggable.html" target="_top" xlink:title="Loggable class is an interface which should be implemented by classes wanting to support logging.">
<polygon fill="#ffffff" stroke="#000000" points="176,-120.5 176,-139.5 282,-139.5 282,-120.5 176,-120.5"/>
<text text-anchor="middle" x="229" y="-127.5" font-family="Helvetica,sans-Serif" font-size="10.00" fill="#000000">gko::log::Loggable</text>
</a>
</g>
</g>
<!-- Node5&#45;&gt;Node4 -->
<g id="edge4" class="edge">
<title>Node5&#45;&gt;Node4</title>
<path fill="none" stroke="#191970" d="M292.1473,-124.2241C354.3208,-118.2506 451.9097,-108.1069 536,-96 541.7515,-95.1719 547.7117,-94.248 553.6836,-93.2767"/>
<polygon fill="#191970" stroke="#191970" points="291.7237,-120.7485 282.1014,-125.1825 292.3887,-127.7168 291.7237,-120.7485"/>
</g>
<!-- Node6 -->
<g id="node6" class="node">
<title>Node6</title>
<g id="a_node6"><a xlink:href="classgko_1_1log_1_1EnableLogging.html" target="_top" xlink:title="EnableLogging is a mixin which should be inherited by any class which wants to enable logging.">
<polygon fill="#ffffff" stroke="#000000" points="138,-60.5 138,-101.5 320,-101.5 320,-60.5 138,-60.5"/>
<text text-anchor="start" x="146" y="-89.5" font-family="Helvetica,sans-Serif" font-size="10.00" fill="#000000">gko::log::EnableLogging</text>
<text text-anchor="start" x="146" y="-78.5" font-family="Helvetica,sans-Serif" font-size="10.00" fill="#000000">&lt; ConcreteLoggable, Polymorphic</text>
<text text-anchor="middle" x="229" y="-67.5" font-family="Helvetica,sans-Serif" font-size="10.00" fill="#000000">Base &gt;</text>
</a>
</g>
</g>
<!-- Node6&#45;&gt;Node4 -->
<g id="edge5" class="edge">
<title>Node6&#45;&gt;Node4</title>
<path fill="none" stroke="#ffa500" stroke-dasharray="5,2" d="M330.5189,-81C400.9042,-81 492.6363,-81 553.8964,-81"/>
<polygon fill="#ffa500" stroke="#ffa500" points="330.2953,-77.5001 320.2953,-81 330.2952,-84.5001 330.2953,-77.5001"/>
<text text-anchor="middle" x="437" y="-84" font-family="Helvetica,sans-Serif" font-size="10.00" fill="#000000"> &lt; PolymorphicObject &gt;</text>
</g>
<!-- Node7 -->
<g id="node7" class="node">
<title>Node7</title>
<g id="a_node7"><a xlink:title=" ">
<polygon fill="#ffffff" stroke="#bfbfbf" points="0,-34.5 0,-53.5 101,-53.5 101,-34.5 0,-34.5"/>
<text text-anchor="middle" x="50.5" y="-41.5" font-family="Helvetica,sans-Serif" font-size="10.00" fill="#000000">PolymorphicBase</text>
</a>
</g>
</g>
<!-- Node7&#45;&gt;Node6 -->
<g id="edge6" class="edge">
<title>Node7&#45;&gt;Node6</title>
<path fill="none" stroke="#191970" d="M106.2638,-55.5589C116.3029,-57.6398 127.0031,-59.8578 137.7421,-62.0838"/>
<polygon fill="#191970" stroke="#191970" points="106.9705,-52.131 96.4682,-53.5284 105.5496,-58.9853 106.9705,-52.131"/>
</g>
<!-- Node8 -->
<g id="node8" class="node">
<title>Node8</title>
<g id="a_node8"><a xlink:href="classgko_1_1EnableAbstractPolymorphicObject.html" target="_top" xlink:title="This mixin inherits from (a subclass of) PolymorphicObject and provides a base implementation of a ne...">
<polygon fill="#ffffff" stroke="#000000" points="338,-11.5 338,-52.5 536,-52.5 536,-11.5 338,-11.5"/>
<text text-anchor="start" x="346" y="-40.5" font-family="Helvetica,sans-Serif" font-size="10.00" fill="#000000">gko::EnableAbstractPolymorphic</text>
<text text-anchor="start" x="346" y="-29.5" font-family="Helvetica,sans-Serif" font-size="10.00" fill="#000000">Object&lt; AbstractObject, Polymorphic</text>
<text text-anchor="middle" x="437" y="-18.5" font-family="Helvetica,sans-Serif" font-size="10.00" fill="#000000">Base &gt;</text>
</a>
</g>
</g>
<!-- Node7&#45;&gt;Node8 -->
<g id="edge8" class="edge">
<title>Node7&#45;&gt;Node8</title>
<path fill="none" stroke="#191970" d="M111.2068,-42.1152C171.8632,-40.2319 266.1374,-37.3049 337.6981,-35.0831"/>
<polygon fill="#191970" stroke="#191970" points="110.9147,-38.6225 101.0281,-42.4312 111.132,-45.6191 110.9147,-38.6225"/>
</g>
<!-- Node8&#45;&gt;Node2 -->
<g id="edge7" class="edge">
<title>Node8&#45;&gt;Node2</title>
<path fill="none" stroke="#ffa500" stroke-dasharray="5,2" d="M546.0962,-33.9706C621.605,-35.4175 724.4163,-37.5517 815,-40 877.0248,-41.6764 946.1554,-43.9206 1002.8024,-45.8582"/>
<polygon fill="#ffa500" stroke="#ffa500" points="546.1592,-30.4713 536.0943,-33.7799 546.0257,-37.47 546.1592,-30.4713"/>
<text text-anchor="start" x="705" y="-65" font-family="Helvetica,sans-Serif" font-size="10.00" fill="#000000"> &lt; AbstractFactory&lt;</text>
<text text-anchor="start" x="705" y="-54" font-family="Helvetica,sans-Serif" font-size="10.00" fill="#000000"> AbstractProductType,</text>
<text text-anchor="middle" x="760" y="-43" font-family="Helvetica,sans-Serif" font-size="10.00" fill="#000000"> ComponentsType &gt; &gt;</text>
</g>
<!-- Node10 -->
<g id="node10" class="node">
<title>Node10</title>
<g id="a_node10"><a xlink:href="classgko_1_1LinOpFactory.html" target="_top" xlink:title="A LinOpFactory represents a higher order mapping which transforms one linear operator into another.">
<polygon fill="#ffffff" stroke="#000000" points="1712,-40.5 1712,-59.5 1816,-59.5 1816,-40.5 1712,-40.5"/>
<text text-anchor="middle" x="1764" y="-47.5" font-family="Helvetica,sans-Serif" font-size="10.00" fill="#000000">gko::LinOpFactory</text>
</a>
</g>
</g>
<!-- Node9&#45;&gt;Node10 -->
<g id="edge10" class="edge">
<title>Node9&#45;&gt;Node10</title>
<path fill="none" stroke="#191970" d="M1685.2534,-50C1694.2531,-50 1703.3043,-50 1711.9012,-50"/>
<polygon fill="#191970" stroke="#191970" points="1685.1412,-46.5001 1675.1412,-50 1685.1411,-53.5001 1685.1412,-46.5001"/>
</g>
<!-- Node11 -->
<g id="node11" class="node">
<title>Node11</title>
<g id="a_node11"><a xlink:href="classgko_1_1EnableAbstractPolymorphicObject.html" target="_top" xlink:title=" ">
<polygon fill="#ffffff" stroke="#000000" points="1859,-60.5 1859,-101.5 2034,-101.5 2034,-60.5 1859,-60.5"/>
<text text-anchor="start" x="1867" y="-89.5" font-family="Helvetica,sans-Serif" font-size="10.00" fill="#000000">gko::EnableAbstractPolymorphic</text>
<text text-anchor="start" x="1867" y="-78.5" font-family="Helvetica,sans-Serif" font-size="10.00" fill="#000000">Object&lt; IdentityFactory&lt;</text>
<text text-anchor="middle" x="1946.5" y="-67.5" font-family="Helvetica,sans-Serif" font-size="10.00" fill="#000000"> ValueType &gt;, LinOpFactory &gt;</text>
</a>
</g>
</g>
<!-- Node10&#45;&gt;Node11 -->
<g id="edge11" class="edge">
<title>Node10&#45;&gt;Node11</title>
<path fill="none" stroke="#191970" d="M1826.157,-60.5582C1836.6457,-62.3398 1847.7071,-64.2187 1858.7016,-66.0863"/>
<polygon fill="#191970" stroke="#191970" points="1826.7421,-57.1075 1816.2972,-58.8834 1825.5698,-64.0087 1826.7421,-57.1075"/>
</g>
<!-- Node14 -->
<g id="node14" class="node">
<title>Node14</title>
<g id="a_node14"><a xlink:href="classgko_1_1EnableAbstractPolymorphicObject.html" target="_top" xlink:title=" ">
<polygon fill="#ffffff" stroke="#000000" points="1853,-.5 1853,-41.5 2040,-41.5 2040,-.5 1853,-.5"/>
<text text-anchor="start" x="1861" y="-29.5" font-family="Helvetica,sans-Serif" font-size="10.00" fill="#000000">gko::EnableAbstractPolymorphic</text>
<text text-anchor="start" x="1861" y="-18.5" font-family="Helvetica,sans-Serif" font-size="10.00" fill="#000000">Object&lt; Lu&lt; ValueType, IndexType</text>
<text text-anchor="middle" x="1946.5" y="-7.5" font-family="Helvetica,sans-Serif" font-size="10.00" fill="#000000"> &gt;, LinOpFactory &gt;</text>
</a>
</g>
</g>
<!-- Node10&#45;&gt;Node14 -->
<g id="edge14" class="edge">
<title>Node10&#45;&gt;Node14</title>
<path fill="none" stroke="#191970" d="M1826.2033,-40.1156C1834.8105,-38.7479 1843.8027,-37.319 1852.8265,-35.8851"/>
<polygon fill="#191970" stroke="#191970" points="1825.624,-36.6637 1816.2972,-41.6898 1826.7226,-43.577 1825.624,-36.6637"/>
</g>
<!-- Node12 -->
<g id="node12" class="node">
<title>Node12</title>
<g id="a_node12"><a xlink:href="classgko_1_1EnablePolymorphicObject.html" target="_top" xlink:title=" ">
<polygon fill="#ffffff" stroke="#000000" points="2077,-60.5 2077,-101.5 2243,-101.5 2243,-60.5 2077,-60.5"/>
<text text-anchor="start" x="2085" y="-89.5" font-family="Helvetica,sans-Serif" font-size="10.00" fill="#000000">gko::EnablePolymorphicObject</text>
<text text-anchor="start" x="2085" y="-78.5" font-family="Helvetica,sans-Serif" font-size="10.00" fill="#000000">&lt; IdentityFactory&lt; ValueType</text>
<text text-anchor="middle" x="2160" y="-67.5" font-family="Helvetica,sans-Serif" font-size="10.00" fill="#000000"> &gt;, LinOpFactory &gt;</text>
</a>
</g>
</g>
<!-- Node11&#45;&gt;Node12 -->
<g id="edge12" class="edge">
<title>Node11&#45;&gt;Node12</title>
<path fill="none" stroke="#191970" d="M2044.5228,-81C2055.2771,-81 2066.1502,-81 2076.7018,-81"/>
<polygon fill="#191970" stroke="#191970" points="2044.2629,-77.5001 2034.2629,-81 2044.2628,-84.5001 2044.2629,-77.5001"/>
</g>
<!-- Node13 -->
<g id="node13" class="node">
<title>Node13</title>
<g id="a_node13"><a xlink:href="classgko_1_1matrix_1_1IdentityFactory.html" target="_top" xlink:title="This factory is a utility which can be used to generate Identity operators.">
<polygon fill="#ffffff" stroke="#000000" points="2283.5,-66 2283.5,-96 2435.5,-96 2435.5,-66 2283.5,-66"/>
<text text-anchor="start" x="2291.5" y="-84" font-family="Helvetica,sans-Serif" font-size="10.00" fill="#000000">gko::matrix::IdentityFactory</text>
<text text-anchor="middle" x="2359.5" y="-73" font-family="Helvetica,sans-Serif" font-size="10.00" fill="#000000">&lt; ValueType &gt;</text>
</a>
</g>
</g>
<!-- Node12&#45;&gt;Node13 -->
<g id="edge13" class="edge">
<title>Node12&#45;&gt;Node13</title>
<path fill="none" stroke="#191970" d="M2253.2457,-81C2263.3756,-81 2273.5953,-81 2283.4846,-81"/>
<polygon fill="#191970" stroke="#191970" points="2253.1614,-77.5001 2243.1613,-81 2253.1613,-84.5001 2253.1614,-77.5001"/>
</g>
<!-- Node15 -->
<g id="node15" class="node">
<title>Node15</title>
<g id="a_node15"><a xlink:href="classgko_1_1EnablePolymorphicObject.html" target="_top" xlink:title=" ">
<polygon fill="#ffffff" stroke="#000000" points="2077,-.5 2077,-41.5 2243,-41.5 2243,-.5 2077,-.5"/>
<text text-anchor="start" x="2085" y="-29.5" font-family="Helvetica,sans-Serif" font-size="10.00" fill="#000000">gko::EnablePolymorphicObject</text>
<text text-anchor="start" x="2085" y="-18.5" font-family="Helvetica,sans-Serif" font-size="10.00" fill="#000000">&lt; Lu&lt; ValueType, IndexType</text>
<text text-anchor="middle" x="2160" y="-7.5" font-family="Helvetica,sans-Serif" font-size="10.00" fill="#000000"> &gt;, LinOpFactory &gt;</text>
</a>
</g>
</g>
<!-- Node14&#45;&gt;Node15 -->
<g id="edge15" class="edge">
<title>Node14&#45;&gt;Node15</title>
<path fill="none" stroke="#191970" d="M2050.201,-21C2059.131,-21 2068.0894,-21 2076.8261,-21"/>
<polygon fill="#191970" stroke="#191970" points="2050.1442,-17.5001 2040.1442,-21 2050.1442,-24.5001 2050.1442,-17.5001"/>
</g>
<!-- Node16 -->
<g id="node16" class="node">
<title>Node16</title>
<g id="a_node16"><a xlink:href="classgko_1_1experimental_1_1factorization_1_1Lu.html" target="_top" xlink:title="Computes an LU factorization of a sparse matrix.">
<polygon fill="#ffffff" stroke="#000000" points="2280,-.5 2280,-41.5 2439,-41.5 2439,-.5 2280,-.5"/>
<text text-anchor="start" x="2288" y="-29.5" font-family="Helvetica,sans-Serif" font-size="10.00" fill="#000000">gko::experimental::</text>
<text text-anchor="start" x="2288" y="-18.5" font-family="Helvetica,sans-Serif" font-size="10.00" fill="#000000">factorization::Lu&lt; ValueType,</text>
<text text-anchor="middle" x="2359.5" y="-7.5" font-family="Helvetica,sans-Serif" font-size="10.00" fill="#000000"> IndexType &gt;</text>
</a>
</g>
</g>
<!-- Node15&#45;&gt;Node16 -->
<g id="edge16" class="edge">
<title>Node15&#45;&gt;Node16</title>
<path fill="none" stroke="#191970" d="M2253.2204,-21C2262.17,-21 2271.19,-21 2279.9906,-21"/>
<polygon fill="#191970" stroke="#191970" points="2253.1614,-17.5001 2243.1613,-21 2253.1613,-24.5001 2253.1614,-17.5001"/>
</g>
</g>
</svg>
