<?xml version="1.0" encoding="UTF-8" standalone="no"?>
<!DOCTYPE svg PUBLIC "-//W3C//DTD SVG 1.1//EN"
 "http://www.w3.org/Graphics/SVG/1.1/DTD/svg11.dtd">
<!-- Generated by graphviz version 2.40.1 (20161225.0304)
 -->
<!-- Title: gko::array&lt; ValueType &gt; Pages: 1 -->
<!--zoomable 815 -->
<svg id="main" version="1.1" xmlns="http://www.w3.org/2000/svg" xmlns:xlink="http://www.w3.org/1999/xlink" xml:space="preserve" onload="init(evt)">
<style type="text/css"><![CDATA[
.edge:hover path { stroke: red; }
.edge:hover polygon { stroke: red; fill: red; }
]]></style>
<script type="text/javascript"><![CDATA[
var edges = document.getElementsByTagName('g');
if (edges && edges.length) {
  for (var i=0;i<edges.length;i++) {
    if (edges[i].id.substr(0,4)=='edge') {
      edges[i].setAttribute('class','edge');
    }
  }
}
]]></script>
        <defs>
                <circle id="rim" cx="0" cy="0" r="7"/>
                <circle id="rim2" cx="0" cy="0" r="3.5"/>
                <g id="zoomPlus">
                        <use xlink:href="#rim" fill="#404040">
                                <set attributeName="fill" to="#808080" begin="zoomplus.mouseover" end="zoomplus.mouseout"/>
                        </use>
                        <path d="M-4,0h8M0,-4v8" fill="none" stroke="white" stroke-width="1.5" pointer-events="none"/>
                </g>
                <g id="zoomMin">
                        <use xlink:href="#rim" fill="#404040">
                                <set attributeName="fill" to="#808080" begin="zoomminus.mouseover" end="zoomminus.mouseout"/>
                        </use>
                        <path d="M-4,0h8" fill="none" stroke="white" stroke-width="1.5" pointer-events="none"/>
                </g>
                <g id="dirArrow">
                        <path fill="none" stroke="white" stroke-width="1.5" d="M0,-3.0v7 M-2.5,-0.5L0,-3.0L2.5,-0.5"/>
                </g>
               <g id="resetDef">
                       <use xlink:href="#rim2" fill="#404040">
                               <set attributeName="fill" to="#808080" begin="reset.mouseover" end="reset.mouseout"/>
                       </use>
               </g>
        </defs>

<script type="text/javascript">
var viewWidth = 497;
var viewHeight = 815;
var sectionId = 'dynsection-0';
</script>
<script xlink:href="svgpan.js"/>
<svg id="graph" class="graph">
<g id="viewport">
<title>gko::array&lt; ValueType &gt;</title>
<polygon fill="#ffffff" stroke="transparent" points="-4,4 -4,-810.9163 493,-810.9163 493,4 -4,4"/>
<!-- Node1 -->
<g id="node1" class="node">
<title>Node1</title>
<g id="a_node1"><a xlink:title="An array is a container which encapsulates fixed&#45;sized arrays, stored on the Executor tied to the arr...">
<polygon fill="#bfbfbf" stroke="#000000" points="0,-383.4163 0,-402.4163 138,-402.4163 138,-383.4163 0,-383.4163"/>
<text text-anchor="middle" x="69" y="-390.4163" font-family="Helvetica,sans-Serif" font-size="10.00" fill="#000000">gko::array&lt; ValueType &gt;</text>
</a>
</g>
</g>
<!-- Node2 -->
<g id="node2" class="node">
<title>Node2</title>
<g id="a_node2"><a xlink:href="classgko_1_1array.html" target="_top" xlink:title=" ">
<polygon fill="#ffffff" stroke="#000000" points="332.5,-765.9163 332.5,-795.9163 475.5,-795.9163 475.5,-765.9163 332.5,-765.9163"/>
<text text-anchor="start" x="340.5" y="-783.9163" font-family="Helvetica,sans-Serif" font-size="10.00" fill="#000000">gko::array&lt; gko::stopping</text>
<text text-anchor="middle" x="404" y="-772.9163" font-family="Helvetica,sans-Serif" font-size="10.00" fill="#000000">_status &gt;</text>
</a>
</g>
</g>
<!-- Node1&#45;&gt;Node2 -->
<g id="edge1" class="edge">
<title>Node1&#45;&gt;Node2</title>
<path fill="none" stroke="#ffa500" stroke-dasharray="5,2" d="M70.7879,-412.9639C77.4117,-482.3761 102.9578,-710.738 156,-756.9163 203.6326,-798.3851 277.5979,-800.3597 332.3673,-794.4002"/>
<polygon fill="#ffa500" stroke="#ffa500" points="74.2335,-412.2139 69.8267,-402.5791 67.2633,-412.8591 74.2335,-412.2139"/>
<text text-anchor="middle" x="228.5" y="-798.9163" font-family="Helvetica,sans-Serif" font-size="10.00" fill="#000000"> &lt; gko::stopping_status &gt;</text>
</g>
<!-- Node3 -->
<g id="node3" class="node">
<title>Node3</title>
<g id="a_node3"><a xlink:href="classgko_1_1array.html" target="_top" xlink:title=" ">
<polygon fill="#ffffff" stroke="#000000" points="328,-716.9163 328,-746.9163 480,-746.9163 480,-716.9163 328,-716.9163"/>
<text text-anchor="start" x="336" y="-734.9163" font-family="Helvetica,sans-Serif" font-size="10.00" fill="#000000">gko::array&lt; remove</text>
<text text-anchor="middle" x="404" y="-723.9163" font-family="Helvetica,sans-Serif" font-size="10.00" fill="#000000">_complex&lt; value_type &gt; &gt;</text>
</a>
</g>
</g>
<!-- Node1&#45;&gt;Node3 -->
<g id="edge2" class="edge">
<title>Node1&#45;&gt;Node3</title>
<path fill="none" stroke="#ffa500" stroke-dasharray="5,2" d="M71.6625,-412.8148C80.4334,-475.2092 110.484,-665.1703 156,-703.9163 181.1988,-725.3672 264.621,-731.1882 327.8137,-732.3943"/>
<polygon fill="#ffa500" stroke="#ffa500" points="75.1033,-412.1441 70.2735,-402.7142 68.1686,-413.0978 75.1033,-412.1441"/>
<text text-anchor="start" x="159.5" y="-744.9163" font-family="Helvetica,sans-Serif" font-size="10.00" fill="#000000"> &lt; remove_complex&lt; value</text>
<text text-anchor="middle" x="228.5" y="-733.9163" font-family="Helvetica,sans-Serif" font-size="10.00" fill="#000000">_type &gt; &gt;</text>
</g>
<!-- Node4 -->
<g id="node4" class="node">
<title>Node4</title>
<g id="a_node4"><a xlink:href="classgko_1_1array.html" target="_top" xlink:title=" ">
<polygon fill="#ffffff" stroke="#000000" points="335,-678.4163 335,-697.4163 473,-697.4163 473,-678.4163 335,-678.4163"/>
<text text-anchor="middle" x="404" y="-685.4163" font-family="Helvetica,sans-Serif" font-size="10.00" fill="#000000">gko::array&lt; IndexType &gt;</text>
</a>
</g>
</g>
<!-- Node1&#45;&gt;Node4 -->
<g id="edge3" class="edge">
<title>Node1&#45;&gt;Node4</title>
<path fill="none" stroke="#ffa500" stroke-dasharray="5,2" d="M72.4175,-412.567C82.7273,-469.4418 115.3278,-632.2375 156,-664.9163 182.6714,-686.3459 271.1356,-690.0704 334.8046,-689.7903"/>
<polygon fill="#ffa500" stroke="#ffa500" points="75.855,-411.9063 70.657,-402.6742 68.9633,-413.1328 75.855,-411.9063"/>
<text text-anchor="middle" x="228.5" y="-691.9163" font-family="Helvetica,sans-Serif" font-size="10.00" fill="#000000"> &lt; IndexType &gt;</text>
</g>
<!-- Node5 -->
<g id="node5" class="node">
<title>Node5</title>
<g id="a_node5"><a xlink:href="classgko_1_1array.html" target="_top" xlink:title=" ">
<polygon fill="#ffffff" stroke="#000000" points="337,-640.4163 337,-659.4163 471,-659.4163 471,-640.4163 337,-640.4163"/>
<text text-anchor="middle" x="404" y="-647.4163" font-family="Helvetica,sans-Serif" font-size="10.00" fill="#000000">gko::array&lt; real_type &gt;</text>
</a>
</g>
</g>
<!-- Node1&#45;&gt;Node5 -->
<g id="edge4" class="edge">
<title>Node1&#45;&gt;Node5</title>
<path fill="none" stroke="#ffa500" stroke-dasharray="5,2" d="M73.4959,-412.305C85.6735,-463.0591 120.7555,-597.7742 156,-624.9163 183.3854,-646.006 273.165,-650.5099 336.804,-650.9154"/>
<polygon fill="#ffa500" stroke="#ffa500" points="76.9002,-411.4916 71.1943,-402.5645 70.0878,-413.1014 76.9002,-411.4916"/>
<text text-anchor="middle" x="228.5" y="-652.9163" font-family="Helvetica,sans-Serif" font-size="10.00" fill="#000000"> &lt; real_type &gt;</text>
</g>
<!-- Node6 -->
<g id="node6" class="node">
<title>Node6</title>
<g id="a_node6"><a xlink:href="classgko_1_1array.html" target="_top" xlink:title=" ">
<polygon fill="#ffffff" stroke="#000000" points="332.5,-602.4163 332.5,-621.4163 475.5,-621.4163 475.5,-602.4163 332.5,-602.4163"/>
<text text-anchor="middle" x="404" y="-609.4163" font-family="Helvetica,sans-Serif" font-size="10.00" fill="#000000">gko::array&lt; value_type &gt;</text>
</a>
</g>
</g>
<!-- Node1&#45;&gt;Node6 -->
<g id="edge5" class="edge">
<title>Node1&#45;&gt;Node6</title>
<path fill="none" stroke="#ffa500" stroke-dasharray="5,2" d="M71.5625,-412.4973C77.8891,-452.1948 98.1738,-541.9398 156,-583.9163 183.3065,-603.7384 269.1834,-609.8052 332.255,-611.517"/>
<polygon fill="#ffa500" stroke="#ffa500" points="75.0113,-411.8916 70.1014,-402.5032 68.0849,-412.9043 75.0113,-411.8916"/>
<text text-anchor="middle" x="228.5" y="-612.9163" font-family="Helvetica,sans-Serif" font-size="10.00" fill="#000000"> &lt; value_type &gt;</text>
</g>
<!-- Node7 -->
<g id="node7" class="node">
<title>Node7</title>
<g id="a_node7"><a xlink:href="classgko_1_1array.html" target="_top" xlink:title=" ">
<polygon fill="#ffffff" stroke="#000000" points="353.5,-564.4163 353.5,-583.4163 454.5,-583.4163 454.5,-564.4163 353.5,-564.4163"/>
<text text-anchor="middle" x="404" y="-571.4163" font-family="Helvetica,sans-Serif" font-size="10.00" fill="#000000">gko::array&lt; int &gt;</text>
</a>
</g>
</g>
<!-- Node1&#45;&gt;Node7 -->
<g id="edge6" class="edge">
<title>Node1&#45;&gt;Node7</title>
<path fill="none" stroke="#ffa500" stroke-dasharray="5,2" d="M74.2007,-412.5506C84.0691,-445.5822 108.8644,-511.7112 156,-542.9163 187.4318,-563.725 290.4382,-570.5676 353.3833,-572.8165"/>
<polygon fill="#ffa500" stroke="#ffa500" points="77.5079,-411.3836 71.4155,-402.7157 70.7728,-413.291 77.5079,-411.3836"/>
<text text-anchor="middle" x="228.5" y="-571.9163" font-family="Helvetica,sans-Serif" font-size="10.00" fill="#000000"> &lt; int &gt;</text>
</g>
<!-- Node8 -->
<g id="node8" class="node">
<title>Node8</title>
<g id="a_node8"><a xlink:href="classgko_1_1array.html" target="_top" xlink:title=" ">
<polygon fill="#ffffff" stroke="#000000" points="334,-514.9163 334,-544.9163 474,-544.9163 474,-514.9163 334,-514.9163"/>
<text text-anchor="start" x="342" y="-532.9163" font-family="Helvetica,sans-Serif" font-size="10.00" fill="#000000">gko::array&lt; comm_index</text>
<text text-anchor="middle" x="404" y="-521.9163" font-family="Helvetica,sans-Serif" font-size="10.00" fill="#000000">_type &gt;</text>
</a>
</g>
</g>
<!-- Node1&#45;&gt;Node8 -->
<g id="edge7" class="edge">
<title>Node1&#45;&gt;Node8</title>
<path fill="none" stroke="#ffa500" stroke-dasharray="5,2" d="M79.8296,-411.2234C94.1962,-433.7287 121.7761,-471.2285 156,-489.9163 210.8322,-519.8572 281.9529,-528.8148 333.9641,-530.8973"/>
<polygon fill="#ffa500" stroke="#ffa500" points="82.7332,-409.2639 74.5006,-402.5949 76.7775,-412.9422 82.7332,-409.2639"/>
<text text-anchor="middle" x="228.5" y="-530.9163" font-family="Helvetica,sans-Serif" font-size="10.00" fill="#000000"> &lt; comm_index_type &gt;</text>
</g>
<!-- Node9 -->
<g id="node9" class="node">
<title>Node9</title>
<g id="a_node9"><a xlink:href="classgko_1_1array.html" target="_top" xlink:title=" ">
<polygon fill="#ffffff" stroke="#000000" points="356.5,-476.4163 356.5,-495.4163 451.5,-495.4163 451.5,-476.4163 356.5,-476.4163"/>
<text text-anchor="middle" x="404" y="-483.4163" font-family="Helvetica,sans-Serif" font-size="10.00" fill="#000000">gko::array&lt; T &gt;</text>
</a>
</g>
</g>
<!-- Node1&#45;&gt;Node9 -->
<g id="edge8" class="edge">
<title>Node1&#45;&gt;Node9</title>
<path fill="none" stroke="#ffa500" stroke-dasharray="5,2" d="M90.7387,-408.2931C107.732,-419.5807 132.36,-434.3767 156,-442.9163 222.9908,-467.1158 305.2149,-477.9314 356.1148,-482.5959"/>
<polygon fill="#ffa500" stroke="#ffa500" points="92.3757,-405.1738 82.1382,-402.4452 88.4397,-410.9624 92.3757,-405.1738"/>
<text text-anchor="middle" x="228.5" y="-477.9163" font-family="Helvetica,sans-Serif" font-size="10.00" fill="#000000"> &lt; T &gt;</text>
</g>
<!-- Node10 -->
<g id="node10" class="node">
<title>Node10</title>
<g id="a_node10"><a xlink:href="classgko_1_1array.html" target="_top" xlink:title=" ">
<polygon fill="#ffffff" stroke="#000000" points="331,-426.9163 331,-456.9163 477,-456.9163 477,-426.9163 331,-426.9163"/>
<text text-anchor="start" x="339" y="-444.9163" font-family="Helvetica,sans-Serif" font-size="10.00" fill="#000000">gko::array&lt; gko::precision</text>
<text text-anchor="middle" x="404" y="-433.9163" font-family="Helvetica,sans-Serif" font-size="10.00" fill="#000000">_reduction &gt;</text>
</a>
</g>
</g>
<!-- Node1&#45;&gt;Node10 -->
<g id="edge9" class="edge">
<title>Node1&#45;&gt;Node10</title>
<path fill="none" stroke="#ffa500" stroke-dasharray="5,2" d="M132.6651,-404.1533C140.5175,-405.4625 148.4384,-406.7465 156,-407.9163 214.7305,-417.0024 281.482,-426.0831 330.9266,-432.5715"/>
<polygon fill="#ffa500" stroke="#ffa500" points="133.23,-400.6993 122.7873,-402.4883 132.0664,-407.6019 133.23,-400.6993"/>
<text text-anchor="middle" x="228.5" y="-430.9163" font-family="Helvetica,sans-Serif" font-size="10.00" fill="#000000"> &lt; gko::precision_reduction &gt;</text>
</g>
<!-- Node11 -->
<g id="node11" class="node">
<title>Node11</title>
<g id="a_node11"><a xlink:href="classgko_1_1array.html" target="_top" xlink:title=" ">
<polygon fill="#ffffff" stroke="#000000" points="337.5,-377.9163 337.5,-407.9163 470.5,-407.9163 470.5,-377.9163 337.5,-377.9163"/>
<text text-anchor="start" x="345.5" y="-395.9163" font-family="Helvetica,sans-Serif" font-size="10.00" fill="#000000">gko::array&lt; local_index</text>
<text text-anchor="middle" x="404" y="-384.9163" font-family="Helvetica,sans-Serif" font-size="10.00" fill="#000000">_type &gt;</text>
</a>
</g>
</g>
<!-- Node1&#45;&gt;Node11 -->
<g id="edge10" class="edge">
<title>Node1&#45;&gt;Node11</title>
<path fill="none" stroke="#ffa500" stroke-dasharray="5,2" d="M148.1621,-392.9163C205.7691,-392.9163 282.9043,-392.9163 337.368,-392.9163"/>
<polygon fill="#ffa500" stroke="#ffa500" points="148.0061,-389.4164 138.006,-392.9163 148.006,-396.4164 148.0061,-389.4164"/>
<text text-anchor="middle" x="228.5" y="-395.9163" font-family="Helvetica,sans-Serif" font-size="10.00" fill="#000000"> &lt; local_index_type &gt;</text>
</g>
<!-- Node12 -->
<g id="node12" class="node">
<title>Node12</title>
<g id="a_node12"><a xlink:href="classgko_1_1array.html" target="_top" xlink:title=" ">
<polygon fill="#ffffff" stroke="#000000" points="343,-328.9163 343,-358.9163 465,-358.9163 465,-328.9163 343,-328.9163"/>
<text text-anchor="start" x="351" y="-346.9163" font-family="Helvetica,sans-Serif" font-size="10.00" fill="#000000">gko::array&lt; unsigned</text>
<text text-anchor="middle" x="404" y="-335.9163" font-family="Helvetica,sans-Serif" font-size="10.00" fill="#000000"> char &gt;</text>
</a>
</g>
</g>
<!-- Node1&#45;&gt;Node12 -->
<g id="edge11" class="edge">
<title>Node1&#45;&gt;Node12</title>
<path fill="none" stroke="#ffa500" stroke-dasharray="5,2" d="M132.6651,-381.6793C140.5175,-380.3702 148.4384,-379.0862 156,-377.9163 219.5621,-368.0827 292.5192,-358.2555 342.7641,-351.7139"/>
<polygon fill="#ffa500" stroke="#ffa500" points="132.0664,-378.2307 122.7873,-383.3443 133.23,-385.1334 132.0664,-378.2307"/>
<text text-anchor="middle" x="228.5" y="-380.9163" font-family="Helvetica,sans-Serif" font-size="10.00" fill="#000000"> &lt; unsigned char &gt;</text>
</g>
<!-- Node13 -->
<g id="node13" class="node">
<title>Node13</title>
<g id="a_node13"><a xlink:href="classgko_1_1array.html" target="_top" xlink:title=" ">
<polygon fill="#ffffff" stroke="#000000" points="319,-290.4163 319,-309.4163 489,-309.4163 489,-290.4163 319,-290.4163"/>
<text text-anchor="middle" x="404" y="-297.4163" font-family="Helvetica,sans-Serif" font-size="10.00" fill="#000000">gko::array&lt; GlobalIndexType &gt;</text>
</a>
</g>
</g>
<!-- Node1&#45;&gt;Node13 -->
<g id="edge12" class="edge">
<title>Node1&#45;&gt;Node13</title>
<path fill="none" stroke="#ffa500" stroke-dasharray="5,2" d="M90.3858,-377.3925C107.3584,-365.8322 132.1231,-350.6047 156,-341.9163 208.3212,-322.8775 270.0421,-312.385 318.8215,-306.6485"/>
<polygon fill="#ffa500" stroke="#ffa500" points="88.0123,-374.7808 81.8134,-383.3729 92.0174,-380.5218 88.0123,-374.7808"/>
<text text-anchor="middle" x="228.5" y="-344.9163" font-family="Helvetica,sans-Serif" font-size="10.00" fill="#000000"> &lt; GlobalIndexType &gt;</text>
</g>
<!-- Node14 -->
<g id="node14" class="node">
<title>Node14</title>
<g id="a_node14"><a xlink:href="classgko_1_1array.html" target="_top" xlink:title=" ">
<polygon fill="#ffffff" stroke="#000000" points="347.5,-252.4163 347.5,-271.4163 460.5,-271.4163 460.5,-252.4163 347.5,-252.4163"/>
<text text-anchor="middle" x="404" y="-259.4163" font-family="Helvetica,sans-Serif" font-size="10.00" fill="#000000">gko::array&lt; int64 &gt;</text>
</a>
</g>
</g>
<!-- Node1&#45;&gt;Node14 -->
<g id="edge13" class="edge">
<title>Node1&#45;&gt;Node14</title>
<path fill="none" stroke="#ffa500" stroke-dasharray="5,2" d="M79.4248,-374.4092C93.5306,-351.2985 121.0057,-312.5403 156,-293.9163 215.7842,-262.0992 294.7982,-257.1764 347.4055,-258.1853"/>
<polygon fill="#ffa500" stroke="#ffa500" points="76.2759,-372.8589 74.2151,-383.2514 82.3069,-376.4124 76.2759,-372.8589"/>
<text text-anchor="middle" x="228.5" y="-296.9163" font-family="Helvetica,sans-Serif" font-size="10.00" fill="#000000"> &lt; int64 &gt;</text>
</g>
<!-- Node15 -->
<g id="node15" class="node">
<title>Node15</title>
<g id="a_node15"><a xlink:href="classgko_1_1array.html" target="_top" xlink:title=" ">
<polygon fill="#ffffff" stroke="#000000" points="336.5,-214.4163 336.5,-233.4163 471.5,-233.4163 471.5,-214.4163 336.5,-214.4163"/>
<text text-anchor="middle" x="404" y="-221.4163" font-family="Helvetica,sans-Serif" font-size="10.00" fill="#000000">gko::array&lt; size_type &gt;</text>
</a>
</g>
</g>
<!-- Node1&#45;&gt;Node15 -->
<g id="edge14" class="edge">
<title>Node1&#45;&gt;Node15</title>
<path fill="none" stroke="#ffa500" stroke-dasharray="5,2" d="M74.0987,-373.1885C83.814,-340.0401 108.3858,-273.8602 156,-243.9163 213.4994,-207.7558 293.9334,-208.4728 347.4313,-214.4065"/>
<polygon fill="#ffa500" stroke="#ffa500" points="70.6598,-372.4922 71.3616,-383.0638 77.4055,-374.3619 70.6598,-372.4922"/>
<text text-anchor="middle" x="228.5" y="-246.9163" font-family="Helvetica,sans-Serif" font-size="10.00" fill="#000000"> &lt; size_type &gt;</text>
</g>
<!-- Node16 -->
<g id="node16" class="node">
<title>Node16</title>
<g id="a_node16"><a xlink:href="classgko_1_1array.html" target="_top" xlink:title=" ">
<polygon fill="#ffffff" stroke="#000000" points="350.5,-164.9163 350.5,-194.9163 457.5,-194.9163 457.5,-164.9163 350.5,-164.9163"/>
<text text-anchor="start" x="358.5" y="-182.9163" font-family="Helvetica,sans-Serif" font-size="10.00" fill="#000000">gko::array&lt; global</text>
<text text-anchor="middle" x="404" y="-171.9163" font-family="Helvetica,sans-Serif" font-size="10.00" fill="#000000">_index_type &gt;</text>
</a>
</g>
</g>
<!-- Node1&#45;&gt;Node16 -->
<g id="edge15" class="edge">
<title>Node1&#45;&gt;Node16</title>
<path fill="none" stroke="#ffa500" stroke-dasharray="5,2" d="M71.0744,-373.3412C76.563,-332.4329 95.4815,-238.1849 156,-195.9163 212.9485,-156.1412 296.3562,-160.0674 350.4179,-168.4588"/>
<polygon fill="#ffa500" stroke="#ffa500" points="67.5867,-373.0292 69.8591,-383.3775 74.5359,-373.8708 67.5867,-373.0292"/>
<text text-anchor="middle" x="228.5" y="-198.9163" font-family="Helvetica,sans-Serif" font-size="10.00" fill="#000000"> &lt; global_index_type &gt;</text>
</g>
<!-- Node17 -->
<g id="node17" class="node">
<title>Node17</title>
<g id="a_node17"><a xlink:href="classgko_1_1array.html" target="_top" xlink:title=" ">
<polygon fill="#ffffff" stroke="#000000" points="322,-126.4163 322,-145.4163 486,-145.4163 486,-126.4163 322,-126.4163"/>
<text text-anchor="middle" x="404" y="-133.4163" font-family="Helvetica,sans-Serif" font-size="10.00" fill="#000000">gko::array&lt; LocalIndexType &gt;</text>
</a>
</g>
</g>
<!-- Node1&#45;&gt;Node17 -->
<g id="edge16" class="edge">
<title>Node1&#45;&gt;Node17</title>
<path fill="none" stroke="#ffa500" stroke-dasharray="5,2" d="M73.0233,-373.4054C84.3736,-320.4182 118.2841,-175.9369 156,-147.9163 218.456,-101.5153 316.1288,-114.5814 368.3081,-126.3242"/>
<polygon fill="#ffa500" stroke="#ffa500" points="69.5862,-372.7421 70.9504,-383.2487 76.436,-374.1846 69.5862,-372.7421"/>
<text text-anchor="middle" x="228.5" y="-150.9163" font-family="Helvetica,sans-Serif" font-size="10.00" fill="#000000"> &lt; LocalIndexType &gt;</text>
</g>
<!-- Node18 -->
<g id="node18" class="node">
<title>Node18</title>
<g id="a_node18"><a xlink:href="classgko_1_1array.html" target="_top" xlink:title=" ">
<polygon fill="#ffffff" stroke="#000000" points="349,-88.4163 349,-107.4163 459,-107.4163 459,-88.4163 349,-88.4163"/>
<text text-anchor="middle" x="404" y="-95.4163" font-family="Helvetica,sans-Serif" font-size="10.00" fill="#000000">gko::array&lt; char &gt;</text>
</a>
</g>
</g>
<!-- Node1&#45;&gt;Node18 -->
<g id="edge17" class="edge">
<title>Node1&#45;&gt;Node18</title>
<path fill="none" stroke="#ffa500" stroke-dasharray="5,2" d="M71.8034,-373.1922C80.797,-313.0128 110.9898,-133.7874 156,-99.9163 185.2433,-77.9101 285.0106,-84.2489 348.7416,-90.9913"/>
<polygon fill="#ffa500" stroke="#ffa500" points="68.313,-372.8725 70.3304,-383.2735 75.2395,-373.8846 68.313,-372.8725"/>
<text text-anchor="middle" x="228.5" y="-102.9163" font-family="Helvetica,sans-Serif" font-size="10.00" fill="#000000"> &lt; char &gt;</text>
</g>
<!-- Node19 -->
<g id="node19" class="node">
<title>Node19</title>
<g id="a_node19"><a xlink:href="classgko_1_1array.html" target="_top" xlink:title=" ">
<polygon fill="#ffffff" stroke="#000000" points="349,-50.4163 349,-69.4163 459,-69.4163 459,-50.4163 349,-50.4163"/>
<text text-anchor="middle" x="404" y="-57.4163" font-family="Helvetica,sans-Serif" font-size="10.00" fill="#000000">gko::array&lt; bool &gt;</text>
</a>
</g>
</g>
<!-- Node1&#45;&gt;Node19 -->
<g id="edge18" class="edge">
<title>Node1&#45;&gt;Node19</title>
<path fill="none" stroke="#ffa500" stroke-dasharray="5,2" d="M71.2524,-373.303C79.0464,-309.2124 107.1045,-107.843 156,-68.9163 184.6927,-46.0735 284.9066,-49.6329 348.8227,-54.5804"/>
<polygon fill="#ffa500" stroke="#ffa500" points="67.7692,-372.9552 70.0676,-383.2978 74.7205,-373.7794 67.7692,-372.9552"/>
<text text-anchor="middle" x="228.5" y="-71.9163" font-family="Helvetica,sans-Serif" font-size="10.00" fill="#000000"> &lt; bool &gt;</text>
</g>
<!-- Node20 -->
<g id="node20" class="node">
<title>Node20</title>
<g id="a_node20"><a xlink:href="classgko_1_1array.html" target="_top" xlink:title=" ">
<polygon fill="#ffffff" stroke="#000000" points="332.5,-12.4163 332.5,-31.4163 475.5,-31.4163 475.5,-12.4163 332.5,-12.4163"/>
<text text-anchor="middle" x="404" y="-19.4163" font-family="Helvetica,sans-Serif" font-size="10.00" fill="#000000">gko::array&lt; index_type &gt;</text>
</a>
</g>
</g>
<!-- Node1&#45;&gt;Node20 -->
<g id="edge19" class="edge">
<title>Node1&#45;&gt;Node20</title>
<path fill="none" stroke="#ffa500" stroke-dasharray="5,2" d="M70.7857,-373.1741C77.4019,-304.8306 102.9262,-80.0849 156,-35.9163 216.6593,14.565 317.3232,.0278 369.8005,-12.3677"/>
<polygon fill="#ffa500" stroke="#ffa500" points="67.2758,-373.1163 69.8256,-383.3998 74.2451,-373.7708 67.2758,-373.1163"/>
<text text-anchor="middle" x="228.5" y="-38.9163" font-family="Helvetica,sans-Serif" font-size="10.00" fill="#000000"> &lt; index_type &gt;</text>
</g>
</g>
</svg>
        <g id="navigator" transform="translate(0 0)" fill="#404254">
                <rect fill="#f2f5e9" fill-opacity="0.5" stroke="#606060" stroke-width=".5" x="0" y="0" width="60" height="60"/>
                <use id="zoomplus" xlink:href="#zoomPlus" x="17" y="9" onmousedown="handleZoom(evt,'in')"/>
                <use id="zoomminus" xlink:href="#zoomMin" x="42" y="9" onmousedown="handleZoom(evt,'out')"/>
                <use id="reset" xlink:href="#resetDef" x="30" y="36" onmousedown="handleReset()"/>
                <g id="arrowUp" xlink:href="#dirArrow" transform="translate(30 24)" onmousedown="handlePan(0,-1)">
                  <use xlink:href="#rim" fill="#404040">
                        <set attributeName="fill" to="#808080" begin="arrowUp.mouseover" end="arrowUp.mouseout"/>
                  </use>
                  <path fill="none" stroke="white" stroke-width="1.5" d="M0,-3.0v7 M-2.5,-0.5L0,-3.0L2.5,-0.5"/>
                </g>
                <g id="arrowRight" xlink:href="#dirArrow" transform="rotate(90) translate(36 -43)" onmousedown="handlePan(1,0)">
                  <use xlink:href="#rim" fill="#404040">
                        <set attributeName="fill" to="#808080" begin="arrowRight.mouseover" end="arrowRight.mouseout"/>
                  </use>
                  <path fill="none" stroke="white" stroke-width="1.5" d="M0,-3.0v7 M-2.5,-0.5L0,-3.0L2.5,-0.5"/>
                </g>
                <g id="arrowDown" xlink:href="#dirArrow" transform="rotate(180) translate(-30 -48)" onmousedown="handlePan(0,1)">
                  <use xlink:href="#rim" fill="#404040">
                        <set attributeName="fill" to="#808080" begin="arrowDown.mouseover" end="arrowDown.mouseout"/>
                  </use>
                  <path fill="none" stroke="white" stroke-width="1.5" d="M0,-3.0v7 M-2.5,-0.5L0,-3.0L2.5,-0.5"/>
                </g>
                <g id="arrowLeft" xlink:href="#dirArrow" transform="rotate(270) translate(-36 17)" onmousedown="handlePan(-1,0)">
                  <use xlink:href="#rim" fill="#404040">
                        <set attributeName="fill" to="#808080" begin="arrowLeft.mouseover" end="arrowLeft.mouseout"/>
                  </use>
                  <path fill="none" stroke="white" stroke-width="1.5" d="M0,-3.0v7 M-2.5,-0.5L0,-3.0L2.5,-0.5"/>
                </g>
        </g>
        <svg viewBox="0 0 15 15" width="100%" height="30px" preserveAspectRatio="xMaxYMin meet">
         <g id="arrow_out" transform="scale(0.3 0.3)">
          <a xlink:href="classgko_1_1array__inherit__graph_org.svg" target="_base">
           <rect id="button" ry="5" rx="5" y="6" x="6" height="38" width="38"
                fill="#f2f5e9" fill-opacity="0.5" stroke="#606060" stroke-width="1.0"/>
           <path id="arrow"
             d="M 11.500037,31.436501 C 11.940474,20.09759 22.043105,11.32322 32.158766,21.979434 L 37.068811,17.246167 C 37.068811,17.246167 37.088388,32 37.088388,32 L 22.160133,31.978069 C 22.160133,31.978069 26.997745,27.140456 26.997745,27.140456 C 18.528582,18.264221 13.291696,25.230495 11.500037,31.436501 z"
             style="fill:#404040;"/>
          </a>
         </g>
        </svg>
</svg>
