<?xml version="1.0" encoding="UTF-8" standalone="no"?>
<!DOCTYPE svg PUBLIC "-//W3C//DTD SVG 1.1//EN"
 "http://www.w3.org/Graphics/SVG/1.1/DTD/svg11.dtd">
<!-- Generated by graphviz version 2.40.1 (20161225.0304)
 -->
<!-- Title: gko::experimental::distributed::Matrix&lt; ValueType, LocalIndexType, GlobalIndexType &gt; Pages: 1 -->
<!--zoomable 415 -->
<svg id="main" version="1.1" xmlns="http://www.w3.org/2000/svg" xmlns:xlink="http://www.w3.org/1999/xlink" xml:space="preserve" onload="init(evt)">
<style type="text/css"><![CDATA[
.edge:hover path { stroke: red; }
.edge:hover polygon { stroke: red; fill: red; }
]]></style>
<script type="text/javascript"><![CDATA[
var edges = document.getElementsByTagName('g');
if (edges && edges.length) {
  for (var i=0;i<edges.length;i++) {
    if (edges[i].id.substr(0,4)=='edge') {
      edges[i].setAttribute('class','edge');
    }
  }
}
]]></script>
        <defs>
                <circle id="rim" cx="0" cy="0" r="7"/>
                <circle id="rim2" cx="0" cy="0" r="3.5"/>
                <g id="zoomPlus">
                        <use xlink:href="#rim" fill="#404040">
                                <set attributeName="fill" to="#808080" begin="zoomplus.mouseover" end="zoomplus.mouseout"/>
                        </use>
                        <path d="M-4,0h8M0,-4v8" fill="none" stroke="white" stroke-width="1.5" pointer-events="none"/>
                </g>
                <g id="zoomMin">
                        <use xlink:href="#rim" fill="#404040">
                                <set attributeName="fill" to="#808080" begin="zoomminus.mouseover" end="zoomminus.mouseout"/>
                        </use>
                        <path d="M-4,0h8" fill="none" stroke="white" stroke-width="1.5" pointer-events="none"/>
                </g>
                <g id="dirArrow">
                        <path fill="none" stroke="white" stroke-width="1.5" d="M0,-3.0v7 M-2.5,-0.5L0,-3.0L2.5,-0.5"/>
                </g>
               <g id="resetDef">
                       <use xlink:href="#rim2" fill="#404040">
                               <set attributeName="fill" to="#808080" begin="reset.mouseover" end="reset.mouseout"/>
                       </use>
               </g>
        </defs>

<script type="text/javascript">
var viewWidth = 2318;
var viewHeight = 415;
var sectionId = 'dynsection-1';
</script>
<script xlink:href="svgpan.js"/>
<svg id="graph" class="graph">
<g id="viewport">
<title>gko::experimental::distributed::Matrix&lt; ValueType, LocalIndexType, GlobalIndexType &gt;</title>
<polygon fill="#ffffff" stroke="transparent" points="-4,4 -4,-410.5 2314,-410.5 2314,4 -4,4"/>
<!-- Node1 -->
<g id="node1" class="node">
<title>Node1</title>
<g id="a_node1"><a xlink:title="The Matrix class defines a (MPI&#45;)distributed matrix.">
<polygon fill="#bfbfbf" stroke="#000000" points="2149,-33.5 2149,-85.5 2310,-85.5 2310,-33.5 2149,-33.5"/>
<text text-anchor="start" x="2157" y="-73.5" font-family="Helvetica,sans-Serif" font-size="10.00" fill="#000000">gko::experimental::</text>
<text text-anchor="start" x="2157" y="-62.5" font-family="Helvetica,sans-Serif" font-size="10.00" fill="#000000">distributed::Matrix</text>
<text text-anchor="start" x="2157" y="-51.5" font-family="Helvetica,sans-Serif" font-size="10.00" fill="#000000">&lt; ValueType, LocalIndexType,</text>
<text text-anchor="middle" x="2229.5" y="-40.5" font-family="Helvetica,sans-Serif" font-size="10.00" fill="#000000"> GlobalIndexType &gt;</text>
</a>
</g>
</g>
<!-- Node2 -->
<g id="node2" class="node">
<title>Node2</title>
<g id="a_node2"><a xlink:href="classgko_1_1experimental_1_1EnableDistributedLinOp.html" target="_top" xlink:title=" ">
<polygon fill="#ffffff" stroke="#000000" points="1934,-97.5 1934,-149.5 2112,-149.5 2112,-97.5 1934,-97.5"/>
<text text-anchor="start" x="1942" y="-137.5" font-family="Helvetica,sans-Serif" font-size="10.00" fill="#000000">gko::experimental::</text>
<text text-anchor="start" x="1942" y="-126.5" font-family="Helvetica,sans-Serif" font-size="10.00" fill="#000000">EnableDistributedLinOp</text>
<text text-anchor="start" x="1942" y="-115.5" font-family="Helvetica,sans-Serif" font-size="10.00" fill="#000000">&lt; Matrix&lt; ValueType, LocalIndex</text>
<text text-anchor="middle" x="2023" y="-104.5" font-family="Helvetica,sans-Serif" font-size="10.00" fill="#000000">Type, GlobalIndexType &gt; &gt;</text>
</a>
</g>
</g>
<!-- Node2&#45;&gt;Node1 -->
<g id="edge1" class="edge">
<title>Node2&#45;&gt;Node1</title>
<path fill="none" stroke="#191970" d="M2116.7924,-94.4312C2127.5213,-91.106 2138.3875,-87.7382 2148.9225,-84.4732"/>
<polygon fill="#191970" stroke="#191970" points="2115.5071,-91.1652 2106.9915,-97.4688 2117.5794,-97.8514 2115.5071,-91.1652"/>
</g>
<!-- Node3 -->
<g id="node3" class="node">
<title>Node3</title>
<g id="a_node3"><a xlink:href="classgko_1_1experimental_1_1EnableDistributedPolymorphicObject.html" target="_top" xlink:title=" ">
<polygon fill="#ffffff" stroke="#000000" points="1573,-204 1573,-267 1755,-267 1755,-204 1573,-204"/>
<text text-anchor="start" x="1581" y="-255" font-family="Helvetica,sans-Serif" font-size="10.00" fill="#000000">gko::experimental::</text>
<text text-anchor="start" x="1581" y="-244" font-family="Helvetica,sans-Serif" font-size="10.00" fill="#000000">EnableDistributedPolymorphic</text>
<text text-anchor="start" x="1581" y="-233" font-family="Helvetica,sans-Serif" font-size="10.00" fill="#000000">Object&lt; Matrix&lt; ValueType,</text>
<text text-anchor="start" x="1581" y="-222" font-family="Helvetica,sans-Serif" font-size="10.00" fill="#000000"> LocalIndexType, GlobalIndexType</text>
<text text-anchor="middle" x="1664" y="-211" font-family="Helvetica,sans-Serif" font-size="10.00" fill="#000000"> &gt;, LinOp &gt;</text>
</a>
</g>
</g>
<!-- Node3&#45;&gt;Node2 -->
<g id="edge2" class="edge">
<title>Node3&#45;&gt;Node2</title>
<path fill="none" stroke="#191970" d="M1764.8364,-204.0413C1819.913,-186.8586 1887.3066,-165.8333 1939.4241,-149.5738"/>
<polygon fill="#191970" stroke="#191970" points="1763.5588,-200.7734 1755.0549,-207.0929 1765.6436,-207.4558 1763.5588,-200.7734"/>
</g>
<!-- Node4 -->
<g id="node4" class="node">
<title>Node4</title>
<g id="a_node4"><a xlink:href="classgko_1_1EnableAbstractPolymorphicObject.html" target="_top" xlink:title=" ">
<polygon fill="#ffffff" stroke="#000000" points="1343.5,-209.5 1343.5,-261.5 1525.5,-261.5 1525.5,-209.5 1343.5,-209.5"/>
<text text-anchor="start" x="1351.5" y="-249.5" font-family="Helvetica,sans-Serif" font-size="10.00" fill="#000000">gko::EnableAbstractPolymorphic</text>
<text text-anchor="start" x="1351.5" y="-238.5" font-family="Helvetica,sans-Serif" font-size="10.00" fill="#000000">Object&lt; Matrix&lt; ValueType,</text>
<text text-anchor="start" x="1351.5" y="-227.5" font-family="Helvetica,sans-Serif" font-size="10.00" fill="#000000"> LocalIndexType, GlobalIndexType</text>
<text text-anchor="middle" x="1434.5" y="-216.5" font-family="Helvetica,sans-Serif" font-size="10.00" fill="#000000"> &gt;, LinOp &gt;</text>
</a>
</g>
</g>
<!-- Node4&#45;&gt;Node3 -->
<g id="edge3" class="edge">
<title>Node4&#45;&gt;Node3</title>
<path fill="none" stroke="#191970" d="M1535.7922,-235.5C1548.0776,-235.5 1560.5716,-235.5 1572.7005,-235.5"/>
<polygon fill="#191970" stroke="#191970" points="1535.5341,-232.0001 1525.5341,-235.5 1535.5341,-239.0001 1535.5341,-232.0001"/>
</g>
<!-- Node5 -->
<g id="node5" class="node">
<title>Node5</title>
<g id="a_node5"><a xlink:href="classgko_1_1LinOp.html" target="_top" xlink:title=" ">
<polygon fill="#ffffff" stroke="#000000" points="989.5,-226 989.5,-245 1057.5,-245 1057.5,-226 989.5,-226"/>
<text text-anchor="middle" x="1023.5" y="-233" font-family="Helvetica,sans-Serif" font-size="10.00" fill="#000000">gko::LinOp</text>
</a>
</g>
</g>
<!-- Node5&#45;&gt;Node4 -->
<g id="edge4" class="edge">
<title>Node5&#45;&gt;Node4</title>
<path fill="none" stroke="#191970" d="M1067.8483,-235.5C1133.4793,-235.5 1257.9118,-235.5 1343.4701,-235.5"/>
<polygon fill="#191970" stroke="#191970" points="1067.8347,-232.0001 1057.8347,-235.5 1067.8347,-239.0001 1067.8347,-232.0001"/>
</g>
<!-- Node6 -->
<g id="node6" class="node">
<title>Node6</title>
<g id="a_node6"><a xlink:href="classgko_1_1EnableAbstractPolymorphicObject.html" target="_top" xlink:title=" ">
<polygon fill="#ffffff" stroke="#ff0000" points="542,-214.5 542,-244.5 717,-244.5 717,-214.5 542,-214.5"/>
<text text-anchor="start" x="550" y="-232.5" font-family="Helvetica,sans-Serif" font-size="10.00" fill="#000000">gko::EnableAbstractPolymorphic</text>
<text text-anchor="middle" x="629.5" y="-221.5" font-family="Helvetica,sans-Serif" font-size="10.00" fill="#000000">Object&lt; LinOp &gt;</text>
</a>
</g>
</g>
<!-- Node6&#45;&gt;Node5 -->
<g id="edge5" class="edge">
<title>Node6&#45;&gt;Node5</title>
<path fill="none" stroke="#191970" d="M727.6552,-230.9947C812.9015,-232.2929 931.4772,-234.0986 989.1962,-234.9776"/>
<polygon fill="#191970" stroke="#191970" points="727.4831,-227.4918 717.4309,-230.839 727.3764,-234.491 727.4831,-227.4918"/>
</g>
<!-- Node12 -->
<g id="node7" class="node">
<title>Node12</title>
<g id="a_node7"><a xlink:href="classgko_1_1EnableAbstractPolymorphicObject.html" target="_top" xlink:title="This mixin inherits from (a subclass of) PolymorphicObject and provides a base implementation of a ne...">
<polygon fill="#ffffff" stroke="#000000" points="138,-274 138,-315 336,-315 336,-274 138,-274"/>
<text text-anchor="start" x="146" y="-303" font-family="Helvetica,sans-Serif" font-size="10.00" fill="#000000">gko::EnableAbstractPolymorphic</text>
<text text-anchor="start" x="146" y="-292" font-family="Helvetica,sans-Serif" font-size="10.00" fill="#000000">Object&lt; AbstractObject, Polymorphic</text>
<text text-anchor="middle" x="237" y="-281" font-family="Helvetica,sans-Serif" font-size="10.00" fill="#000000">Base &gt;</text>
</a>
</g>
</g>
<!-- Node12&#45;&gt;Node4 -->
<g id="edge8" class="edge">
<title>Node12&#45;&gt;Node4</title>
<path fill="none" stroke="#ffa500" stroke-dasharray="5,2" d="M346.6068,-292.6349C541.6349,-288.7119 961.6359,-277.535 1315,-249.5 1324.1621,-248.7731 1333.7049,-247.8825 1343.2269,-246.9059"/>
<polygon fill="#ffa500" stroke="#ffa500" points="346.2843,-289.1405 336.3559,-292.8386 346.4234,-296.1391 346.2843,-289.1405"/>
<text text-anchor="start" x="755" y="-305.5" font-family="Helvetica,sans-Serif" font-size="10.00" fill="#000000"> &lt; Matrix&lt; ValueType,</text>
<text text-anchor="start" x="755" y="-294.5" font-family="Helvetica,sans-Serif" font-size="10.00" fill="#000000"> LocalIndexType, GlobalIndex</text>
<text text-anchor="middle" x="826.5" y="-283.5" font-family="Helvetica,sans-Serif" font-size="10.00" fill="#000000">Type &gt;, LinOp &gt;</text>
</g>
<!-- Node12&#45;&gt;Node6 -->
<g id="edge6" class="edge">
<title>Node12&#45;&gt;Node6</title>
<path fill="none" stroke="#ffa500" stroke-dasharray="5,2" d="M289.3472,-269.9678C309.1773,-261.7362 332.2259,-253.4086 354,-248.5 415.853,-234.5562 487.324,-229.9486 541.9684,-228.7521"/>
<polygon fill="#ffa500" stroke="#ffa500" points="287.7257,-266.8539 279.8907,-273.9857 290.4631,-273.2965 287.7257,-266.8539"/>
<text text-anchor="middle" x="432.5" y="-251.5" font-family="Helvetica,sans-Serif" font-size="10.00" fill="#000000"> &lt; LinOp &gt;</text>
</g>
<!-- Node14 -->
<g id="node10" class="node">
<title>Node14</title>
<g id="a_node10"><a xlink:href="classgko_1_1EnableAbstractPolymorphicObject.html" target="_top" xlink:title=" ">
<polygon fill="#ffffff" stroke="#000000" points="529,-305 529,-346 730,-346 730,-305 529,-305"/>
<text text-anchor="start" x="537" y="-334" font-family="Helvetica,sans-Serif" font-size="10.00" fill="#000000">gko::EnableAbstractPolymorphic</text>
<text text-anchor="start" x="537" y="-323" font-family="Helvetica,sans-Serif" font-size="10.00" fill="#000000">Object&lt; ConcreteObject, Polymorphic</text>
<text text-anchor="middle" x="629.5" y="-312" font-family="Helvetica,sans-Serif" font-size="10.00" fill="#000000">Base &gt;</text>
</a>
</g>
</g>
<!-- Node12&#45;&gt;Node14 -->
<g id="edge12" class="edge">
<title>Node12&#45;&gt;Node14</title>
<path fill="none" stroke="#ffa500" stroke-dasharray="5,2" d="M346.3404,-297.0986C396.5876,-298.9569 456.9113,-302.1234 511,-307.5 516.7979,-308.0763 522.7451,-308.7419 528.7397,-309.4704"/>
<polygon fill="#ffa500" stroke="#ffa500" points="346.2227,-293.5923 336.1041,-296.7329 345.9727,-300.5878 346.2227,-293.5923"/>
<text text-anchor="start" x="354" y="-321.5" font-family="Helvetica,sans-Serif" font-size="10.00" fill="#000000"> &lt; ConcreteObject, Polymorphic</text>
<text text-anchor="middle" x="432.5" y="-310.5" font-family="Helvetica,sans-Serif" font-size="10.00" fill="#000000">Base &gt;</text>
</g>
<!-- Node21 -->
<g id="node17" class="node">
<title>Node21</title>
<g id="a_node17"><a xlink:href="classgko_1_1EnableAbstractPolymorphicObject.html" target="_top" xlink:title=" ">
<polygon fill="#ffffff" stroke="#000000" points="531,-365 531,-406 728,-406 728,-365 531,-365"/>
<text text-anchor="start" x="539" y="-394" font-family="Helvetica,sans-Serif" font-size="10.00" fill="#000000">gko::EnableAbstractPolymorphic</text>
<text text-anchor="start" x="539" y="-383" font-family="Helvetica,sans-Serif" font-size="10.00" fill="#000000">Object&lt; ConcreteLinOp, Polymorphic</text>
<text text-anchor="middle" x="629.5" y="-372" font-family="Helvetica,sans-Serif" font-size="10.00" fill="#000000">Base &gt;</text>
</a>
</g>
</g>
<!-- Node12&#45;&gt;Node21 -->
<g id="edge22" class="edge">
<title>Node12&#45;&gt;Node21</title>
<path fill="none" stroke="#ffa500" stroke-dasharray="5,2" d="M302.9445,-318.2121C319.4837,-323.6791 337.2828,-329.1574 354,-333.5 412.0641,-348.5833 478.0768,-361.196 530.9259,-370.221"/>
<polygon fill="#ffa500" stroke="#ffa500" points="303.9636,-314.8624 293.3697,-315.0031 301.7392,-321.4995 303.9636,-314.8624"/>
<text text-anchor="start" x="356" y="-380.5" font-family="Helvetica,sans-Serif" font-size="10.00" fill="#000000"> &lt; ConcreteLinOp, Polymorphic</text>
<text text-anchor="middle" x="432.5" y="-369.5" font-family="Helvetica,sans-Serif" font-size="10.00" fill="#000000">Base &gt;</text>
</g>
<!-- Node11 -->
<g id="node8" class="node">
<title>Node11</title>
<g id="a_node8"><a xlink:title=" ">
<polygon fill="#ffffff" stroke="#bfbfbf" points="0,-334 0,-353 101,-353 101,-334 0,-334"/>
<text text-anchor="middle" x="50.5" y="-341" font-family="Helvetica,sans-Serif" font-size="10.00" fill="#000000">PolymorphicBase</text>
</a>
</g>
</g>
<!-- Node11&#45;&gt;Node12 -->
<g id="edge7" class="edge">
<title>Node11&#45;&gt;Node12</title>
<path fill="none" stroke="#191970" d="M96.6373,-331.3781C115.3596,-326.4591 137.5184,-320.6372 158.6324,-315.0899"/>
<polygon fill="#191970" stroke="#191970" points="95.6842,-328.0097 86.9018,-333.936 97.463,-334.7799 95.6842,-328.0097"/>
</g>
<!-- Node11&#45;&gt;Node14 -->
<g id="edge11" class="edge">
<title>Node11&#45;&gt;Node14</title>
<path fill="none" stroke="#191970" d="M111.3522,-341.7149C199.4812,-339.1149 367.7756,-334.0944 511,-329.5 516.8636,-329.3119 522.8903,-329.1161 528.9712,-328.9167"/>
<polygon fill="#191970" stroke="#191970" points="111.1601,-338.2189 101.2676,-342.0122 111.3665,-345.2159 111.1601,-338.2189"/>
</g>
<!-- Node11&#45;&gt;Node21 -->
<g id="edge21" class="edge">
<title>Node11&#45;&gt;Node21</title>
<path fill="none" stroke="#191970" d="M105.3157,-355.0655C165.8518,-367.2008 266.3646,-385.4712 354,-392.5 423.5544,-398.0787 441.2526,-394.5583 511,-392.5 517.4889,-392.3085 524.1751,-392.0582 530.9118,-391.7663"/>
<polygon fill="#191970" stroke="#191970" points="105.7164,-351.5758 95.2211,-353.0244 104.329,-358.4369 105.7164,-351.5758"/>
</g>
<!-- Node13 -->
<g id="node9" class="node">
<title>Node13</title>
<g id="a_node9"><a xlink:href="classgko_1_1experimental_1_1EnableDistributedPolymorphicObject.html" target="_top" xlink:title="This mixin does the same as EnablePolymorphicObject, but for concrete types that are derived from dis...">
<polygon fill="#ffffff" stroke="#000000" points="923,-302.5 923,-354.5 1124,-354.5 1124,-302.5 923,-302.5"/>
<text text-anchor="start" x="931" y="-342.5" font-family="Helvetica,sans-Serif" font-size="10.00" fill="#000000">gko::experimental::</text>
<text text-anchor="start" x="931" y="-331.5" font-family="Helvetica,sans-Serif" font-size="10.00" fill="#000000">EnableDistributedPolymorphic</text>
<text text-anchor="start" x="931" y="-320.5" font-family="Helvetica,sans-Serif" font-size="10.00" fill="#000000">Object&lt; ConcreteObject, Polymorphic</text>
<text text-anchor="middle" x="1023.5" y="-309.5" font-family="Helvetica,sans-Serif" font-size="10.00" fill="#000000">Base &gt;</text>
</a>
</g>
</g>
<!-- Node13&#45;&gt;Node3 -->
<g id="edge9" class="edge">
<title>Node13&#45;&gt;Node3</title>
<path fill="none" stroke="#ffa500" stroke-dasharray="5,2" d="M1134.6377,-321.4023C1238.9836,-313.4993 1399.0864,-298.1815 1536,-271.5 1548.0088,-269.1597 1560.5316,-266.2455 1572.8407,-263.0952"/>
<polygon fill="#ffa500" stroke="#ffa500" points="1134.1133,-317.9317 1124.402,-322.1673 1134.6351,-324.9122 1134.1133,-317.9317"/>
<text text-anchor="start" x="1363" y="-326.5" font-family="Helvetica,sans-Serif" font-size="10.00" fill="#000000"> &lt; Matrix&lt; ValueType,</text>
<text text-anchor="start" x="1363" y="-315.5" font-family="Helvetica,sans-Serif" font-size="10.00" fill="#000000"> LocalIndexType, GlobalIndex</text>
<text text-anchor="middle" x="1434.5" y="-304.5" font-family="Helvetica,sans-Serif" font-size="10.00" fill="#000000">Type &gt;, LinOp &gt;</text>
</g>
<!-- Node20 -->
<g id="node16" class="node">
<title>Node20</title>
<g id="a_node16"><a xlink:href="classgko_1_1experimental_1_1EnableDistributedPolymorphicObject.html" target="_top" xlink:title=" ">
<polygon fill="#ffffff" stroke="#000000" points="1336,-350.5 1336,-402.5 1533,-402.5 1533,-350.5 1336,-350.5"/>
<text text-anchor="start" x="1344" y="-390.5" font-family="Helvetica,sans-Serif" font-size="10.00" fill="#000000">gko::experimental::</text>
<text text-anchor="start" x="1344" y="-379.5" font-family="Helvetica,sans-Serif" font-size="10.00" fill="#000000">EnableDistributedPolymorphic</text>
<text text-anchor="start" x="1344" y="-368.5" font-family="Helvetica,sans-Serif" font-size="10.00" fill="#000000">Object&lt; ConcreteLinOp, Polymorphic</text>
<text text-anchor="middle" x="1434.5" y="-357.5" font-family="Helvetica,sans-Serif" font-size="10.00" fill="#000000">Base &gt;</text>
</a>
</g>
</g>
<!-- Node13&#45;&gt;Node20 -->
<g id="edge23" class="edge">
<title>Node13&#45;&gt;Node20</title>
<path fill="none" stroke="#ffa500" stroke-dasharray="5,2" d="M1134.1652,-331.8796C1188.8205,-334.6177 1255.6172,-339.5658 1315,-348.5 1321.8482,-349.5303 1328.8835,-350.7503 1335.9482,-352.0952"/>
<polygon fill="#ffa500" stroke="#ffa500" points="1134.263,-328.3803 1124.1057,-331.3935 1133.9251,-335.3721 1134.263,-328.3803"/>
<text text-anchor="start" x="1152" y="-362.5" font-family="Helvetica,sans-Serif" font-size="10.00" fill="#000000"> &lt; ConcreteLinOp, Polymorphic</text>
<text text-anchor="middle" x="1228.5" y="-351.5" font-family="Helvetica,sans-Serif" font-size="10.00" fill="#000000">Base &gt;</text>
</g>
<!-- Node14&#45;&gt;Node13 -->
<g id="edge10" class="edge">
<title>Node14&#45;&gt;Node13</title>
<path fill="none" stroke="#191970" d="M740.3735,-326.3442C797.6238,-326.7801 866.9571,-327.308 922.6831,-327.7324"/>
<polygon fill="#191970" stroke="#191970" points="740.224,-322.8431 730.1976,-326.2667 740.1706,-329.8429 740.224,-322.8431"/>
</g>
<!-- Node15 -->
<g id="node11" class="node">
<title>Node15</title>
<g id="a_node11"><a xlink:href="classgko_1_1EnablePolymorphicAssignment.html" target="_top" xlink:title=" ">
<polygon fill="#ffffff" stroke="#000000" points="1333,-95 1333,-136 1536,-136 1536,-95 1333,-95"/>
<text text-anchor="start" x="1341" y="-124" font-family="Helvetica,sans-Serif" font-size="10.00" fill="#000000">gko::EnablePolymorphicAssignment</text>
<text text-anchor="start" x="1341" y="-113" font-family="Helvetica,sans-Serif" font-size="10.00" fill="#000000">&lt; Matrix&lt; ValueType, LocalIndexType,</text>
<text text-anchor="middle" x="1434.5" y="-102" font-family="Helvetica,sans-Serif" font-size="10.00" fill="#000000"> GlobalIndexType &gt; &gt;</text>
</a>
</g>
</g>
<!-- Node15&#45;&gt;Node2 -->
<g id="edge13" class="edge">
<title>Node15&#45;&gt;Node2</title>
<path fill="none" stroke="#191970" d="M1546.0244,-117.0161C1658.5392,-118.5456 1830.05,-120.8771 1933.8387,-122.288"/>
<polygon fill="#191970" stroke="#191970" points="1546.0484,-113.5162 1536.0017,-116.8798 1545.9532,-120.5155 1546.0484,-113.5162"/>
</g>
<!-- Node16 -->
<g id="node12" class="node">
<title>Node16</title>
<g id="a_node12"><a xlink:href="classgko_1_1ConvertibleTo.html" target="_top" xlink:title=" ">
<polygon fill="#ffffff" stroke="#000000" points="944,-56.5 944,-108.5 1103,-108.5 1103,-56.5 944,-56.5"/>
<text text-anchor="start" x="952" y="-96.5" font-family="Helvetica,sans-Serif" font-size="10.00" fill="#000000">gko::ConvertibleTo</text>
<text text-anchor="start" x="952" y="-85.5" font-family="Helvetica,sans-Serif" font-size="10.00" fill="#000000">&lt; Matrix&lt; ValueType,</text>
<text text-anchor="start" x="952" y="-74.5" font-family="Helvetica,sans-Serif" font-size="10.00" fill="#000000"> LocalIndexType, GlobalIndex</text>
<text text-anchor="middle" x="1023.5" y="-63.5" font-family="Helvetica,sans-Serif" font-size="10.00" fill="#000000">Type &gt; &gt;</text>
</a>
</g>
</g>
<!-- Node16&#45;&gt;Node15 -->
<g id="edge14" class="edge">
<title>Node16&#45;&gt;Node15</title>
<path fill="none" stroke="#191970" d="M1113.4153,-89.7195C1178.1162,-94.9144 1265.4709,-101.9283 1332.7308,-107.3287"/>
<polygon fill="#191970" stroke="#191970" points="1113.4803,-86.2135 1103.2323,-88.9019 1112.92,-93.1911 1113.4803,-86.2135"/>
</g>
<!-- Node17 -->
<g id="node13" class="node">
<title>Node17</title>
<g id="a_node13"><a xlink:href="classgko_1_1ConvertibleTo.html" target="_top" xlink:title="ConvertibleTo interface is used to mark that the implementer can be converted to the object of Result...">
<polygon fill="#ffffff" stroke="#000000" points="576,-97.5 576,-127.5 683,-127.5 683,-97.5 576,-97.5"/>
<text text-anchor="start" x="584" y="-115.5" font-family="Helvetica,sans-Serif" font-size="10.00" fill="#000000">gko::ConvertibleTo</text>
<text text-anchor="middle" x="629.5" y="-104.5" font-family="Helvetica,sans-Serif" font-size="10.00" fill="#000000">&lt; ResultType &gt;</text>
</a>
</g>
</g>
<!-- Node17&#45;&gt;Node16 -->
<g id="edge15" class="edge">
<title>Node17&#45;&gt;Node16</title>
<path fill="none" stroke="#ffa500" stroke-dasharray="5,2" d="M693.3887,-98.7697C711.0036,-95.4956 730.1724,-92.4022 748,-90.5 813.6603,-83.4941 888.5877,-81.7167 943.711,-81.5667"/>
<polygon fill="#ffa500" stroke="#ffa500" points="692.3852,-95.398 683.2187,-100.7107 693.6976,-102.2739 692.3852,-95.398"/>
<text text-anchor="start" x="755" y="-115.5" font-family="Helvetica,sans-Serif" font-size="10.00" fill="#000000"> &lt; Matrix&lt; ValueType,</text>
<text text-anchor="start" x="755" y="-104.5" font-family="Helvetica,sans-Serif" font-size="10.00" fill="#000000"> LocalIndexType, GlobalIndex</text>
<text text-anchor="middle" x="826.5" y="-93.5" font-family="Helvetica,sans-Serif" font-size="10.00" fill="#000000">Type &gt; &gt;</text>
</g>
<!-- Node18 -->
<g id="node14" class="node">
<title>Node18</title>
<g id="a_node14"><a xlink:href="classgko_1_1EnablePolymorphicAssignment.html" target="_top" xlink:title="This mixin is used to enable a default PolymorphicObject::copy_from() implementation for objects that...">
<polygon fill="#ffffff" stroke="#000000" points="927.5,-127.5 927.5,-157.5 1119.5,-157.5 1119.5,-127.5 927.5,-127.5"/>
<text text-anchor="start" x="935.5" y="-145.5" font-family="Helvetica,sans-Serif" font-size="10.00" fill="#000000">gko::EnablePolymorphicAssignment</text>
<text text-anchor="middle" x="1023.5" y="-134.5" font-family="Helvetica,sans-Serif" font-size="10.00" fill="#000000">&lt; ConcreteType, ResultType &gt;</text>
</a>
</g>
</g>
<!-- Node17&#45;&gt;Node18 -->
<g id="edge17" class="edge">
<title>Node17&#45;&gt;Node18</title>
<path fill="none" stroke="#191970" d="M693.3725,-118.7089C711.0592,-120.352 730.2682,-122.0658 748,-123.5 807.4953,-128.3123 874.282,-132.9376 927.1966,-136.4197"/>
<polygon fill="#191970" stroke="#191970" points="693.4402,-115.2 683.1574,-117.7523 692.7875,-122.1695 693.4402,-115.2"/>
</g>
<!-- Node23 -->
<g id="node19" class="node">
<title>Node23</title>
<g id="a_node19"><a xlink:href="classgko_1_1ConvertibleTo.html" target="_top" xlink:title=" ">
<polygon fill="#ffffff" stroke="#000000" points="968.5,-176.5 968.5,-206.5 1078.5,-206.5 1078.5,-176.5 968.5,-176.5"/>
<text text-anchor="start" x="976.5" y="-194.5" font-family="Helvetica,sans-Serif" font-size="10.00" fill="#000000">gko::ConvertibleTo</text>
<text text-anchor="middle" x="1023.5" y="-183.5" font-family="Helvetica,sans-Serif" font-size="10.00" fill="#000000">&lt; ConcreteLinOp &gt;</text>
</a>
</g>
</g>
<!-- Node17&#45;&gt;Node23 -->
<g id="edge26" class="edge">
<title>Node17&#45;&gt;Node23</title>
<path fill="none" stroke="#ffa500" stroke-dasharray="5,2" d="M692.9259,-130.1345C710.6762,-134.7851 730.0291,-139.591 748,-143.5 823.9056,-160.011 912.5464,-174.6332 968.3528,-183.2781"/>
<polygon fill="#ffa500" stroke="#ffa500" points="693.8112,-126.7484 683.2486,-127.5735 692.0203,-133.5154 693.8112,-126.7484"/>
<text text-anchor="middle" x="826.5" y="-175.5" font-family="Helvetica,sans-Serif" font-size="10.00" fill="#000000"> &lt; ConcreteLinOp &gt;</text>
</g>
<!-- Node24 -->
<g id="node20" class="node">
<title>Node24</title>
<g id="a_node20"><a xlink:href="classgko_1_1ConvertibleTo.html" target="_top" xlink:title=" ">
<polygon fill="#ffffff" stroke="#000000" points="1142,-8.5 1142,-60.5 1315,-60.5 1315,-8.5 1142,-8.5"/>
<text text-anchor="start" x="1150" y="-48.5" font-family="Helvetica,sans-Serif" font-size="10.00" fill="#000000">gko::ConvertibleTo</text>
<text text-anchor="start" x="1150" y="-37.5" font-family="Helvetica,sans-Serif" font-size="10.00" fill="#000000">&lt; Matrix&lt; next_precision</text>
<text text-anchor="start" x="1150" y="-26.5" font-family="Helvetica,sans-Serif" font-size="10.00" fill="#000000">&lt; ValueType &gt;, LocalIndexType,</text>
<text text-anchor="middle" x="1228.5" y="-15.5" font-family="Helvetica,sans-Serif" font-size="10.00" fill="#000000"> GlobalIndexType &gt; &gt;</text>
</a>
</g>
</g>
<!-- Node17&#45;&gt;Node24 -->
<g id="edge29" class="edge">
<title>Node17&#45;&gt;Node24</title>
<path fill="none" stroke="#ffa500" stroke-dasharray="5,2" d="M657.3465,-91.4847C680.3141,-75.502 714.4611,-54.7367 748,-45.5 881.5419,-8.7223 1043.9331,-15.0155 1141.6091,-23.986"/>
<polygon fill="#ffa500" stroke="#ffa500" points="655.2339,-88.6923 649.1158,-97.3421 659.2927,-94.3955 655.2339,-88.6923"/>
<text text-anchor="start" x="748" y="-70.5" font-family="Helvetica,sans-Serif" font-size="10.00" fill="#000000"> &lt; Matrix&lt; next_precision</text>
<text text-anchor="start" x="748" y="-59.5" font-family="Helvetica,sans-Serif" font-size="10.00" fill="#000000">&lt; ValueType &gt;, LocalIndexType,</text>
<text text-anchor="middle" x="826.5" y="-48.5" font-family="Helvetica,sans-Serif" font-size="10.00" fill="#000000"> GlobalIndexType &gt; &gt;</text>
</g>
<!-- Node18&#45;&gt;Node15 -->
<g id="edge16" class="edge">
<title>Node18&#45;&gt;Node15</title>
<path fill="none" stroke="#ffa500" stroke-dasharray="5,2" d="M1090.5624,-125.19C1107.252,-121.6021 1125.1828,-118.3523 1142,-116.5 1205.0954,-109.5504 1276.3116,-109.1491 1332.675,-110.5582"/>
<polygon fill="#ffa500" stroke="#ffa500" points="1089.3551,-121.8728 1080.3521,-127.4582 1090.8732,-128.7063 1089.3551,-121.8728"/>
<text text-anchor="start" x="1157" y="-141.5" font-family="Helvetica,sans-Serif" font-size="10.00" fill="#000000"> &lt; Matrix&lt; ValueType,</text>
<text text-anchor="start" x="1157" y="-130.5" font-family="Helvetica,sans-Serif" font-size="10.00" fill="#000000"> LocalIndexType, GlobalIndex</text>
<text text-anchor="middle" x="1228.5" y="-119.5" font-family="Helvetica,sans-Serif" font-size="10.00" fill="#000000">Type &gt; &gt;</text>
</g>
<!-- Node22 -->
<g id="node18" class="node">
<title>Node22</title>
<g id="a_node18"><a xlink:href="classgko_1_1EnablePolymorphicAssignment.html" target="_top" xlink:title=" ">
<polygon fill="#ffffff" stroke="#000000" points="1338.5,-160.5 1338.5,-190.5 1530.5,-190.5 1530.5,-160.5 1338.5,-160.5"/>
<text text-anchor="start" x="1346.5" y="-178.5" font-family="Helvetica,sans-Serif" font-size="10.00" fill="#000000">gko::EnablePolymorphicAssignment</text>
<text text-anchor="middle" x="1434.5" y="-167.5" font-family="Helvetica,sans-Serif" font-size="10.00" fill="#000000">&lt; ConcreteLinOp &gt;</text>
</a>
</g>
</g>
<!-- Node18&#45;&gt;Node22 -->
<g id="edge27" class="edge">
<title>Node18&#45;&gt;Node22</title>
<path fill="none" stroke="#ffa500" stroke-dasharray="5,2" d="M1129.7889,-151.0341C1194.2129,-156.2069 1275.7527,-162.7539 1338.2683,-167.7734"/>
<polygon fill="#ffa500" stroke="#ffa500" points="1129.8499,-147.5279 1119.6018,-150.2162 1129.2895,-154.5054 1129.8499,-147.5279"/>
<text text-anchor="middle" x="1228.5" y="-169.5" font-family="Helvetica,sans-Serif" font-size="10.00" fill="#000000"> &lt; ConcreteLinOp &gt;</text>
</g>
<!-- Node19 -->
<g id="node15" class="node">
<title>Node19</title>
<g id="a_node15"><a xlink:href="classgko_1_1experimental_1_1EnableDistributedLinOp.html" target="_top" xlink:title="This mixin does the same as EnableLinOp, but for concrete types that are derived from distributed::Di...">
<polygon fill="#ffffff" stroke="#000000" points="1581,-297.5 1581,-349.5 1747,-349.5 1747,-297.5 1581,-297.5"/>
<text text-anchor="start" x="1589" y="-337.5" font-family="Helvetica,sans-Serif" font-size="10.00" fill="#000000">gko::experimental::</text>
<text text-anchor="start" x="1589" y="-326.5" font-family="Helvetica,sans-Serif" font-size="10.00" fill="#000000">EnableDistributedLinOp</text>
<text text-anchor="start" x="1589" y="-315.5" font-family="Helvetica,sans-Serif" font-size="10.00" fill="#000000">&lt; ConcreteLinOp, Polymorphic</text>
<text text-anchor="middle" x="1664" y="-304.5" font-family="Helvetica,sans-Serif" font-size="10.00" fill="#000000">Base &gt;</text>
</a>
</g>
</g>
<!-- Node19&#45;&gt;Node2 -->
<g id="edge18" class="edge">
<title>Node19&#45;&gt;Node2</title>
<path fill="none" stroke="#ffa500" stroke-dasharray="5,2" d="M1723.6416,-292.7409C1734.0965,-287.3361 1744.8689,-281.7591 1755,-276.5 1826.6327,-239.3149 1846.2341,-233.0796 1916,-192.5 1939.1193,-179.0526 1964.2878,-162.9023 1984.4035,-149.6084"/>
<polygon fill="#ffa500" stroke="#ffa500" points="1721.837,-289.7337 1714.5597,-297.4338 1725.0505,-295.9525 1721.837,-289.7337"/>
<text text-anchor="start" x="1773" y="-290.5" font-family="Helvetica,sans-Serif" font-size="10.00" fill="#000000"> &lt; Matrix&lt; ValueType,</text>
<text text-anchor="start" x="1773" y="-279.5" font-family="Helvetica,sans-Serif" font-size="10.00" fill="#000000"> LocalIndexType, GlobalIndex</text>
<text text-anchor="middle" x="1844.5" y="-268.5" font-family="Helvetica,sans-Serif" font-size="10.00" fill="#000000">Type &gt; &gt;</text>
</g>
<!-- Node20&#45;&gt;Node19 -->
<g id="edge19" class="edge">
<title>Node20&#45;&gt;Node19</title>
<path fill="none" stroke="#191970" d="M1543.2762,-351.3796C1555.9303,-348.4573 1568.6815,-345.5126 1580.912,-342.6881"/>
<polygon fill="#191970" stroke="#191970" points="1542.1165,-348.0552 1533.1606,-353.7156 1543.6917,-354.8757 1542.1165,-348.0552"/>
</g>
<!-- Node21&#45;&gt;Node20 -->
<g id="edge20" class="edge">
<title>Node21&#45;&gt;Node20</title>
<path fill="none" stroke="#191970" d="M738.3829,-384.2827C895.7708,-382.5231 1184.5235,-379.2948 1335.9297,-377.602"/>
<polygon fill="#191970" stroke="#191970" points="738.169,-380.7848 728.2088,-384.3964 738.2473,-387.7843 738.169,-380.7848"/>
</g>
<!-- Node22&#45;&gt;Node19 -->
<g id="edge24" class="edge">
<title>Node22&#45;&gt;Node19</title>
<path fill="none" stroke="#191970" d="M1529.4233,-195.741C1531.7018,-197.2195 1533.9003,-198.8034 1536,-200.5 1565.221,-224.1113 1546.7518,-249.6227 1573,-276.5 1580.8269,-284.5144 1590.3126,-291.4307 1600.1667,-297.3039"/>
<polygon fill="#191970" stroke="#191970" points="1530.7006,-192.4413 1520.2768,-190.5452 1527.243,-198.5278 1530.7006,-192.4413"/>
</g>
<!-- Node23&#45;&gt;Node22 -->
<g id="edge25" class="edge">
<title>Node23&#45;&gt;Node22</title>
<path fill="none" stroke="#191970" d="M1088.9022,-190.4414C1147.9985,-189.3097 1237.3583,-187.1629 1315,-183.5 1322.581,-183.1424 1330.4295,-182.7241 1338.3151,-182.2697"/>
<polygon fill="#191970" stroke="#191970" points="1088.5266,-186.9478 1078.5939,-190.6344 1088.6577,-193.9465 1088.5266,-186.9478"/>
</g>
<!-- Node24&#45;&gt;Node1 -->
<g id="edge28" class="edge">
<title>Node24&#45;&gt;Node1</title>
<path fill="none" stroke="#191970" d="M1325.386,-45.8332C1390.1521,-52.4469 1477.3156,-59.5 1554.5,-59.5 1554.5,-59.5 1554.5,-59.5 2023,-59.5 2064.4076,-59.5 2110.4856,-59.5 2148.591,-59.5"/>
<polygon fill="#191970" stroke="#191970" points="1325.4962,-42.326 1315.1887,-44.7767 1324.7748,-49.2887 1325.4962,-42.326"/>
</g>
<!-- Node25 -->
<g id="node21" class="node">
<title>Node25</title>
<g id="a_node21"><a xlink:href="classgko_1_1experimental_1_1distributed_1_1DistributedBase.html" target="_top" xlink:title="A base class for distributed objects.">
<polygon fill="#ffffff" stroke="#000000" points="1946.5,-.5 1946.5,-30.5 2099.5,-30.5 2099.5,-.5 1946.5,-.5"/>
<text text-anchor="start" x="1954.5" y="-18.5" font-family="Helvetica,sans-Serif" font-size="10.00" fill="#000000">gko::experimental::</text>
<text text-anchor="middle" x="2023" y="-7.5" font-family="Helvetica,sans-Serif" font-size="10.00" fill="#000000">distributed::DistributedBase</text>
</a>
</g>
</g>
<!-- Node25&#45;&gt;Node1 -->
<g id="edge30" class="edge">
<title>Node25&#45;&gt;Node1</title>
<path fill="none" stroke="#191970" d="M2103.6139,-32.6768C2118.4139,-35.8303 2133.8665,-39.1229 2148.6727,-42.2777"/>
<polygon fill="#191970" stroke="#191970" points="2103.9979,-29.1801 2093.488,-30.5192 2102.5391,-36.0264 2103.9979,-29.1801"/>
</g>
</g>
</svg>
        <g id="navigator" transform="translate(0 0)" fill="#404254">
                <rect fill="#f2f5e9" fill-opacity="0.5" stroke="#606060" stroke-width=".5" x="0" y="0" width="60" height="60"/>
                <use id="zoomplus" xlink:href="#zoomPlus" x="17" y="9" onmousedown="handleZoom(evt,'in')"/>
                <use id="zoomminus" xlink:href="#zoomMin" x="42" y="9" onmousedown="handleZoom(evt,'out')"/>
                <use id="reset" xlink:href="#resetDef" x="30" y="36" onmousedown="handleReset()"/>
                <g id="arrowUp" xlink:href="#dirArrow" transform="translate(30 24)" onmousedown="handlePan(0,-1)">
                  <use xlink:href="#rim" fill="#404040">
                        <set attributeName="fill" to="#808080" begin="arrowUp.mouseover" end="arrowUp.mouseout"/>
                  </use>
                  <path fill="none" stroke="white" stroke-width="1.5" d="M0,-3.0v7 M-2.5,-0.5L0,-3.0L2.5,-0.5"/>
                </g>
                <g id="arrowRight" xlink:href="#dirArrow" transform="rotate(90) translate(36 -43)" onmousedown="handlePan(1,0)">
                  <use xlink:href="#rim" fill="#404040">
                        <set attributeName="fill" to="#808080" begin="arrowRight.mouseover" end="arrowRight.mouseout"/>
                  </use>
                  <path fill="none" stroke="white" stroke-width="1.5" d="M0,-3.0v7 M-2.5,-0.5L0,-3.0L2.5,-0.5"/>
                </g>
                <g id="arrowDown" xlink:href="#dirArrow" transform="rotate(180) translate(-30 -48)" onmousedown="handlePan(0,1)">
                  <use xlink:href="#rim" fill="#404040">
                        <set attributeName="fill" to="#808080" begin="arrowDown.mouseover" end="arrowDown.mouseout"/>
                  </use>
                  <path fill="none" stroke="white" stroke-width="1.5" d="M0,-3.0v7 M-2.5,-0.5L0,-3.0L2.5,-0.5"/>
                </g>
                <g id="arrowLeft" xlink:href="#dirArrow" transform="rotate(270) translate(-36 17)" onmousedown="handlePan(-1,0)">
                  <use xlink:href="#rim" fill="#404040">
                        <set attributeName="fill" to="#808080" begin="arrowLeft.mouseover" end="arrowLeft.mouseout"/>
                  </use>
                  <path fill="none" stroke="white" stroke-width="1.5" d="M0,-3.0v7 M-2.5,-0.5L0,-3.0L2.5,-0.5"/>
                </g>
        </g>
        <svg viewBox="0 0 15 15" width="100%" height="30px" preserveAspectRatio="xMaxYMin meet">
         <g id="arrow_out" transform="scale(0.3 0.3)">
          <a xlink:href="classgko_1_1experimental_1_1distributed_1_1Matrix__coll__graph_org.svg" target="_base">
           <rect id="button" ry="5" rx="5" y="6" x="6" height="38" width="38"
                fill="#f2f5e9" fill-opacity="0.5" stroke="#606060" stroke-width="1.0"/>
           <path id="arrow"
             d="M 11.500037,31.436501 C 11.940474,20.09759 22.043105,11.32322 32.158766,21.979434 L 37.068811,17.246167 C 37.068811,17.246167 37.088388,32 37.088388,32 L 22.160133,31.978069 C 22.160133,31.978069 26.997745,27.140456 26.997745,27.140456 C 18.528582,18.264221 13.291696,25.230495 11.500037,31.436501 z"
             style="fill:#404040;"/>
          </a>
         </g>
        </svg>
</svg>
