<?xml version="1.0" encoding="UTF-8" standalone="no"?>
<!DOCTYPE svg PUBLIC "-//W3C//DTD SVG 1.1//EN"
 "http://www.w3.org/Graphics/SVG/1.1/DTD/svg11.dtd">
<!-- Generated by graphviz version 2.40.1 (20161225.0304)
 -->
<!-- Title: gko::batch::matrix::Identity&lt; ValueType &gt; Pages: 1 -->
<!--zoomable 342 -->
<svg id="main" version="1.1" xmlns="http://www.w3.org/2000/svg" xmlns:xlink="http://www.w3.org/1999/xlink" xml:space="preserve" onload="init(evt)">
<style type="text/css"><![CDATA[
.edge:hover path { stroke: red; }
.edge:hover polygon { stroke: red; fill: red; }
]]></style>
<script type="text/javascript"><![CDATA[
var edges = document.getElementsByTagName('g');
if (edges && edges.length) {
  for (var i=0;i<edges.length;i++) {
    if (edges[i].id.substr(0,4)=='edge') {
      edges[i].setAttribute('class','edge');
    }
  }
}
]]></script>
        <defs>
                <circle id="rim" cx="0" cy="0" r="7"/>
                <circle id="rim2" cx="0" cy="0" r="3.5"/>
                <g id="zoomPlus">
                        <use xlink:href="#rim" fill="#404040">
                                <set attributeName="fill" to="#808080" begin="zoomplus.mouseover" end="zoomplus.mouseout"/>
                        </use>
                        <path d="M-4,0h8M0,-4v8" fill="none" stroke="white" stroke-width="1.5" pointer-events="none"/>
                </g>
                <g id="zoomMin">
                        <use xlink:href="#rim" fill="#404040">
                                <set attributeName="fill" to="#808080" begin="zoomminus.mouseover" end="zoomminus.mouseout"/>
                        </use>
                        <path d="M-4,0h8" fill="none" stroke="white" stroke-width="1.5" pointer-events="none"/>
                </g>
                <g id="dirArrow">
                        <path fill="none" stroke="white" stroke-width="1.5" d="M0,-3.0v7 M-2.5,-0.5L0,-3.0L2.5,-0.5"/>
                </g>
               <g id="resetDef">
                       <use xlink:href="#rim2" fill="#404040">
                               <set attributeName="fill" to="#808080" begin="reset.mouseover" end="reset.mouseout"/>
                       </use>
               </g>
        </defs>

<script type="text/javascript">
var viewWidth = 2170;
var viewHeight = 342;
var sectionId = 'dynsection-0';
</script>
<script xlink:href="svgpan.js"/>
<svg id="graph" class="graph">
<g id="viewport">
<title>gko::batch::matrix::Identity&lt; ValueType &gt;</title>
<polygon fill="#ffffff" stroke="transparent" points="-4,4 -4,-337.5 2166,-337.5 2166,4 -4,4"/>
<!-- Node1 -->
<g id="node1" class="node">
<title>Node1</title>
<g id="a_node1"><a xlink:title="The batch Identity matrix, which represents a batch of Identity matrices.">
<polygon fill="#bfbfbf" stroke="#000000" points="2030,-115 2030,-145 2162,-145 2162,-115 2030,-115"/>
<text text-anchor="start" x="2038" y="-133" font-family="Helvetica,sans-Serif" font-size="10.00" fill="#000000">gko::batch::matrix</text>
<text text-anchor="middle" x="2096" y="-122" font-family="Helvetica,sans-Serif" font-size="10.00" fill="#000000">::Identity&lt; ValueType &gt;</text>
</a>
</g>
</g>
<!-- Node2 -->
<g id="node2" class="node">
<title>Node2</title>
<g id="a_node2"><a xlink:href="classgko_1_1batch_1_1EnableBatchLinOp.html" target="_top" xlink:title=" ">
<polygon fill="#ffffff" stroke="#000000" points="1831,-151 1831,-181 1993,-181 1993,-151 1831,-151"/>
<text text-anchor="start" x="1839" y="-169" font-family="Helvetica,sans-Serif" font-size="10.00" fill="#000000">gko::batch::EnableBatchLin</text>
<text text-anchor="middle" x="1912" y="-158" font-family="Helvetica,sans-Serif" font-size="10.00" fill="#000000">Op&lt; Identity&lt; ValueType &gt; &gt;</text>
</a>
</g>
</g>
<!-- Node2&#45;&gt;Node1 -->
<g id="edge1" class="edge">
<title>Node2&#45;&gt;Node1</title>
<path fill="none" stroke="#191970" d="M1998.7229,-149.0325C2009.2249,-146.9777 2019.8189,-144.905 2029.955,-142.9218"/>
<polygon fill="#191970" stroke="#191970" points="1997.842,-145.6384 1988.7002,-150.9934 1999.1862,-152.5081 1997.842,-145.6384"/>
</g>
<!-- Node3 -->
<g id="node3" class="node">
<title>Node3</title>
<g id="a_node3"><a xlink:href="classgko_1_1EnablePolymorphicObject.html" target="_top" xlink:title=" ">
<polygon fill="#ffffff" stroke="#000000" points="1293,-73.5 1293,-114.5 1459,-114.5 1459,-73.5 1293,-73.5"/>
<text text-anchor="start" x="1301" y="-102.5" font-family="Helvetica,sans-Serif" font-size="10.00" fill="#000000">gko::EnablePolymorphicObject</text>
<text text-anchor="start" x="1301" y="-91.5" font-family="Helvetica,sans-Serif" font-size="10.00" fill="#000000">&lt; Identity&lt; ValueType &gt;,</text>
<text text-anchor="middle" x="1376" y="-80.5" font-family="Helvetica,sans-Serif" font-size="10.00" fill="#000000"> BatchLinOp &gt;</text>
</a>
</g>
</g>
<!-- Node3&#45;&gt;Node2 -->
<g id="edge2" class="edge">
<title>Node3&#45;&gt;Node2</title>
<path fill="none" stroke="#191970" d="M1469.1649,-106.5147C1571.3457,-120.2405 1733.6899,-142.0479 1830.8394,-155.0978"/>
<polygon fill="#191970" stroke="#191970" points="1469.5389,-103.0336 1459.1619,-105.171 1468.6069,-109.9713 1469.5389,-103.0336"/>
</g>
<!-- Node4 -->
<g id="node4" class="node">
<title>Node4</title>
<g id="a_node4"><a xlink:href="classgko_1_1EnableAbstractPolymorphicObject.html" target="_top" xlink:title=" ">
<polygon fill="#ffffff" stroke="#000000" points="542,-37.5 542,-78.5 717,-78.5 717,-37.5 542,-37.5"/>
<text text-anchor="start" x="550" y="-66.5" font-family="Helvetica,sans-Serif" font-size="10.00" fill="#000000">gko::EnableAbstractPolymorphic</text>
<text text-anchor="start" x="550" y="-55.5" font-family="Helvetica,sans-Serif" font-size="10.00" fill="#000000">Object&lt; Identity&lt; ValueType</text>
<text text-anchor="middle" x="629.5" y="-44.5" font-family="Helvetica,sans-Serif" font-size="10.00" fill="#000000"> &gt;, BatchLinOp &gt;</text>
</a>
</g>
</g>
<!-- Node4&#45;&gt;Node3 -->
<g id="edge3" class="edge">
<title>Node4&#45;&gt;Node3</title>
<path fill="none" stroke="#191970" d="M727.3743,-61.5763C851.5368,-66.2888 1072.2384,-75.2513 1261,-86 1271.2903,-86.586 1282.0944,-87.2599 1292.7892,-87.9628"/>
<polygon fill="#191970" stroke="#191970" points="727.2597,-58.0696 717.1345,-61.189 726.995,-65.0646 727.2597,-58.0696"/>
</g>
<!-- Node5 -->
<g id="node5" class="node">
<title>Node5</title>
<g id="a_node5"><a xlink:title=" ">
<polygon fill="#ffffff" stroke="#bfbfbf" points="201,-.5 201,-19.5 273,-19.5 273,-.5 201,-.5"/>
<text text-anchor="middle" x="237" y="-7.5" font-family="Helvetica,sans-Serif" font-size="10.00" fill="#000000">BatchLinOp</text>
</a>
</g>
</g>
<!-- Node5&#45;&gt;Node4 -->
<g id="edge4" class="edge">
<title>Node5&#45;&gt;Node4</title>
<path fill="none" stroke="#191970" d="M283.1107,-12.4515C337.7115,-15.7207 431.3044,-22.4765 511,-34 520.9718,-35.4419 531.3702,-37.1868 541.6846,-39.0704"/>
<polygon fill="#191970" stroke="#191970" points="283.2414,-8.9533 273.0539,-11.8626 282.8321,-15.9413 283.2414,-8.9533"/>
</g>
<!-- Node6 -->
<g id="node6" class="node">
<title>Node6</title>
<g id="a_node6"><a xlink:href="classgko_1_1EnableAbstractPolymorphicObject.html" target="_top" xlink:title="This mixin inherits from (a subclass of) PolymorphicObject and provides a base implementation of a ne...">
<polygon fill="#ffffff" stroke="#000000" points="138,-105.5 138,-146.5 336,-146.5 336,-105.5 138,-105.5"/>
<text text-anchor="start" x="146" y="-134.5" font-family="Helvetica,sans-Serif" font-size="10.00" fill="#000000">gko::EnableAbstractPolymorphic</text>
<text text-anchor="start" x="146" y="-123.5" font-family="Helvetica,sans-Serif" font-size="10.00" fill="#000000">Object&lt; AbstractObject, Polymorphic</text>
<text text-anchor="middle" x="237" y="-112.5" font-family="Helvetica,sans-Serif" font-size="10.00" fill="#000000">Base &gt;</text>
</a>
</g>
</g>
<!-- Node6&#45;&gt;Node4 -->
<g id="edge5" class="edge">
<title>Node6&#45;&gt;Node4</title>
<path fill="none" stroke="#ffa500" stroke-dasharray="5,2" d="M318.6094,-102.9807C330.4283,-100.0548 342.4874,-97.2889 354,-95 416.3611,-82.6018 487.5039,-73.1651 541.8722,-66.9255"/>
<polygon fill="#ffa500" stroke="#ffa500" points="317.594,-99.6272 308.7553,-105.4691 319.3079,-106.4141 317.594,-99.6272"/>
<text text-anchor="start" x="376" y="-109" font-family="Helvetica,sans-Serif" font-size="10.00" fill="#000000"> &lt; Identity&lt; ValueType</text>
<text text-anchor="middle" x="432.5" y="-98" font-family="Helvetica,sans-Serif" font-size="10.00" fill="#000000"> &gt;, BatchLinOp &gt;</text>
</g>
<!-- Node9 -->
<g id="node9" class="node">
<title>Node9</title>
<g id="a_node9"><a xlink:href="classgko_1_1EnableAbstractPolymorphicObject.html" target="_top" xlink:title=" ">
<polygon fill="#ffffff" stroke="#000000" points="529,-97.5 529,-138.5 730,-138.5 730,-97.5 529,-97.5"/>
<text text-anchor="start" x="537" y="-126.5" font-family="Helvetica,sans-Serif" font-size="10.00" fill="#000000">gko::EnableAbstractPolymorphic</text>
<text text-anchor="start" x="537" y="-115.5" font-family="Helvetica,sans-Serif" font-size="10.00" fill="#000000">Object&lt; ConcreteObject, Polymorphic</text>
<text text-anchor="middle" x="629.5" y="-104.5" font-family="Helvetica,sans-Serif" font-size="10.00" fill="#000000">Base &gt;</text>
</a>
</g>
</g>
<!-- Node6&#45;&gt;Node9 -->
<g id="edge10" class="edge">
<title>Node6&#45;&gt;Node9</title>
<path fill="none" stroke="#ffa500" stroke-dasharray="5,2" d="M346.2032,-123.7742C403.3756,-122.6089 472.9091,-121.1917 528.78,-120.0529"/>
<polygon fill="#ffa500" stroke="#ffa500" points="345.9709,-120.2781 336.0443,-123.9813 346.1136,-127.2767 345.9709,-120.2781"/>
<text text-anchor="start" x="354" y="-138" font-family="Helvetica,sans-Serif" font-size="10.00" fill="#000000"> &lt; ConcreteObject, Polymorphic</text>
<text text-anchor="middle" x="432.5" y="-127" font-family="Helvetica,sans-Serif" font-size="10.00" fill="#000000">Base &gt;</text>
</g>
<!-- Node16 -->
<g id="node16" class="node">
<title>Node16</title>
<g id="a_node16"><a xlink:href="classgko_1_1EnableAbstractPolymorphicObject.html" target="_top" xlink:title=" ">
<polygon fill="#ffffff" stroke="#000000" points="542,-157.5 542,-198.5 717,-198.5 717,-157.5 542,-157.5"/>
<text text-anchor="start" x="550" y="-186.5" font-family="Helvetica,sans-Serif" font-size="10.00" fill="#000000">gko::EnableAbstractPolymorphic</text>
<text text-anchor="start" x="550" y="-175.5" font-family="Helvetica,sans-Serif" font-size="10.00" fill="#000000">Object&lt; ConcreteBatchLinOp,</text>
<text text-anchor="middle" x="629.5" y="-164.5" font-family="Helvetica,sans-Serif" font-size="10.00" fill="#000000"> PolymorphicBase &gt;</text>
</a>
</g>
</g>
<!-- Node6&#45;&gt;Node16 -->
<g id="edge20" class="edge">
<title>Node6&#45;&gt;Node16</title>
<path fill="none" stroke="#ffa500" stroke-dasharray="5,2" d="M346.2649,-147.7979C348.8663,-148.214 351.4476,-148.6156 354,-149 416.5384,-158.4192 487.5215,-165.8136 541.7723,-170.7779"/>
<polygon fill="#ffa500" stroke="#ffa500" points="346.5873,-144.3038 336.1505,-146.1265 345.446,-151.2102 346.5873,-144.3038"/>
<text text-anchor="start" x="374" y="-181" font-family="Helvetica,sans-Serif" font-size="10.00" fill="#000000"> &lt; ConcreteBatchLinOp,</text>
<text text-anchor="middle" x="432.5" y="-170" font-family="Helvetica,sans-Serif" font-size="10.00" fill="#000000"> PolymorphicBase &gt;</text>
</g>
<!-- Node7 -->
<g id="node7" class="node">
<title>Node7</title>
<g id="a_node7"><a xlink:title=" ">
<polygon fill="#ffffff" stroke="#bfbfbf" points="0,-116.5 0,-135.5 101,-135.5 101,-116.5 0,-116.5"/>
<text text-anchor="middle" x="50.5" y="-123.5" font-family="Helvetica,sans-Serif" font-size="10.00" fill="#000000">PolymorphicBase</text>
</a>
</g>
</g>
<!-- Node7&#45;&gt;Node6 -->
<g id="edge6" class="edge">
<title>Node7&#45;&gt;Node6</title>
<path fill="none" stroke="#191970" d="M111.5248,-126C119.9555,-126 128.7869,-126 137.6923,-126"/>
<polygon fill="#191970" stroke="#191970" points="111.462,-122.5001 101.4619,-126 111.4619,-129.5001 111.462,-122.5001"/>
</g>
<!-- Node7&#45;&gt;Node9 -->
<g id="edge9" class="edge">
<title>Node7&#45;&gt;Node9</title>
<path fill="none" stroke="#191970" d="M79.335,-112.0687C154.368,-77.9161 360.326,2.3002 511,-67 522.1681,-72.1366 518.6916,-81.3032 529,-88 534.4206,-91.5215 540.2705,-94.6433 546.3263,-97.4084"/>
<polygon fill="#191970" stroke="#191970" points="77.6418,-108.9956 70.0371,-116.3726 80.5823,-115.3481 77.6418,-108.9956"/>
</g>
<!-- Node7&#45;&gt;Node16 -->
<g id="edge19" class="edge">
<title>Node7&#45;&gt;Node16</title>
<path fill="none" stroke="#191970" d="M84.5615,-139.103C100.5944,-144.9011 120.0891,-151.4271 138,-156 299.4136,-197.2111 344.7386,-203.4811 511,-193 521.0376,-192.3672 531.5251,-191.4358 541.9318,-190.3417"/>
<polygon fill="#191970" stroke="#191970" points="85.6648,-135.7796 75.0713,-135.6109 83.2474,-142.349 85.6648,-135.7796"/>
</g>
<!-- Node8 -->
<g id="node8" class="node">
<title>Node8</title>
<g id="a_node8"><a xlink:href="classgko_1_1EnablePolymorphicObject.html" target="_top" xlink:title="This mixin inherits from (a subclass of) PolymorphicObject and provides a base implementation of a ne...">
<polygon fill="#ffffff" stroke="#000000" points="902,-103 902,-133 1107,-133 1107,-103 902,-103"/>
<text text-anchor="start" x="910" y="-121" font-family="Helvetica,sans-Serif" font-size="10.00" fill="#000000">gko::EnablePolymorphicObject</text>
<text text-anchor="middle" x="1004.5" y="-110" font-family="Helvetica,sans-Serif" font-size="10.00" fill="#000000">&lt; ConcreteObject, PolymorphicBase &gt;</text>
</a>
</g>
</g>
<!-- Node8&#45;&gt;Node3 -->
<g id="edge7" class="edge">
<title>Node8&#45;&gt;Node3</title>
<path fill="none" stroke="#ffa500" stroke-dasharray="5,2" d="M1081.3135,-101.1486C1095.7599,-98.6033 1110.7899,-96.3726 1125,-95 1180.8451,-89.6058 1244.0054,-89.3845 1292.9975,-90.4972"/>
<polygon fill="#ffa500" stroke="#ffa500" points="1080.6314,-97.7151 1071.4226,-102.9543 1081.8887,-104.6013 1080.6314,-97.7151"/>
<text text-anchor="start" x="1136.5" y="-109" font-family="Helvetica,sans-Serif" font-size="10.00" fill="#000000"> &lt; Identity&lt; ValueType</text>
<text text-anchor="middle" x="1193" y="-98" font-family="Helvetica,sans-Serif" font-size="10.00" fill="#000000"> &gt;, BatchLinOp &gt;</text>
</g>
<!-- Node15 -->
<g id="node15" class="node">
<title>Node15</title>
<g id="a_node15"><a xlink:href="classgko_1_1EnablePolymorphicObject.html" target="_top" xlink:title=" ">
<polygon fill="#ffffff" stroke="#000000" points="1279,-149.5 1279,-190.5 1473,-190.5 1473,-149.5 1279,-149.5"/>
<text text-anchor="start" x="1287" y="-178.5" font-family="Helvetica,sans-Serif" font-size="10.00" fill="#000000">gko::EnablePolymorphicObject</text>
<text text-anchor="start" x="1287" y="-167.5" font-family="Helvetica,sans-Serif" font-size="10.00" fill="#000000">&lt; ConcreteBatchLinOp, Polymorphic</text>
<text text-anchor="middle" x="1376" y="-156.5" font-family="Helvetica,sans-Serif" font-size="10.00" fill="#000000">Base &gt;</text>
</a>
</g>
</g>
<!-- Node8&#45;&gt;Node15 -->
<g id="edge21" class="edge">
<title>Node8&#45;&gt;Node15</title>
<path fill="none" stroke="#ffa500" stroke-dasharray="5,2" d="M1117.1237,-123.5146C1162.0955,-126.7939 1214.214,-131.951 1261,-140 1275.336,-142.4664 1290.4976,-145.8495 1304.9428,-149.4574"/>
<polygon fill="#ffa500" stroke="#ffa500" points="1117.27,-120.0163 1107.048,-122.8023 1116.7763,-126.9989 1117.27,-120.0163"/>
<text text-anchor="start" x="1134.5" y="-154" font-family="Helvetica,sans-Serif" font-size="10.00" fill="#000000"> &lt; ConcreteBatchLinOp,</text>
<text text-anchor="middle" x="1193" y="-143" font-family="Helvetica,sans-Serif" font-size="10.00" fill="#000000"> PolymorphicBase &gt;</text>
</g>
<!-- Node9&#45;&gt;Node8 -->
<g id="edge8" class="edge">
<title>Node9&#45;&gt;Node8</title>
<path fill="none" stroke="#191970" d="M740.5643,-118C791.5899,-118 851.7277,-118 901.7018,-118"/>
<polygon fill="#191970" stroke="#191970" points="740.4865,-114.5001 730.4864,-118 740.4864,-121.5001 740.4865,-114.5001"/>
</g>
<!-- Node10 -->
<g id="node10" class="node">
<title>Node10</title>
<g id="a_node10"><a xlink:href="classgko_1_1EnablePolymorphicAssignment.html" target="_top" xlink:title=" ">
<polygon fill="#ffffff" stroke="#000000" points="1280,-272 1280,-302 1472,-302 1472,-272 1280,-272"/>
<text text-anchor="start" x="1288" y="-290" font-family="Helvetica,sans-Serif" font-size="10.00" fill="#000000">gko::EnablePolymorphicAssignment</text>
<text text-anchor="middle" x="1376" y="-279" font-family="Helvetica,sans-Serif" font-size="10.00" fill="#000000">&lt; Identity&lt; ValueType &gt; &gt;</text>
</a>
</g>
</g>
<!-- Node10&#45;&gt;Node2 -->
<g id="edge11" class="edge">
<title>Node10&#45;&gt;Node2</title>
<path fill="none" stroke="#191970" d="M1452.4601,-269.7394C1557.785,-245.9627 1745.7768,-203.5243 1845.5455,-181.0019"/>
<polygon fill="#191970" stroke="#191970" points="1451.5149,-266.3646 1442.5312,-271.9808 1453.0564,-273.1928 1451.5149,-266.3646"/>
</g>
<!-- Node11 -->
<g id="node11" class="node">
<title>Node11</title>
<g id="a_node11"><a xlink:href="classgko_1_1ConvertibleTo.html" target="_top" xlink:title=" ">
<polygon fill="#ffffff" stroke="#000000" points="930,-303 930,-333 1079,-333 1079,-303 930,-303"/>
<text text-anchor="start" x="938" y="-321" font-family="Helvetica,sans-Serif" font-size="10.00" fill="#000000">gko::ConvertibleTo</text>
<text text-anchor="middle" x="1004.5" y="-310" font-family="Helvetica,sans-Serif" font-size="10.00" fill="#000000">&lt; Identity&lt; ValueType &gt; &gt;</text>
</a>
</g>
</g>
<!-- Node11&#45;&gt;Node10 -->
<g id="edge12" class="edge">
<title>Node11&#45;&gt;Node10</title>
<path fill="none" stroke="#191970" d="M1089.2529,-310.9278C1146.014,-306.1913 1220.8543,-299.9462 1279.8431,-295.0239"/>
<polygon fill="#191970" stroke="#191970" points="1088.906,-307.4444 1079.2317,-311.764 1089.4881,-314.4202 1088.906,-307.4444"/>
</g>
<!-- Node12 -->
<g id="node12" class="node">
<title>Node12</title>
<g id="a_node12"><a xlink:href="classgko_1_1ConvertibleTo.html" target="_top" xlink:title="ConvertibleTo interface is used to mark that the implementer can be converted to the object of Result...">
<polygon fill="#ffffff" stroke="#000000" points="576,-254 576,-284 683,-284 683,-254 576,-254"/>
<text text-anchor="start" x="584" y="-272" font-family="Helvetica,sans-Serif" font-size="10.00" fill="#000000">gko::ConvertibleTo</text>
<text text-anchor="middle" x="629.5" y="-261" font-family="Helvetica,sans-Serif" font-size="10.00" fill="#000000">&lt; ResultType &gt;</text>
</a>
</g>
</g>
<!-- Node12&#45;&gt;Node11 -->
<g id="edge13" class="edge">
<title>Node12&#45;&gt;Node11</title>
<path fill="none" stroke="#ffa500" stroke-dasharray="5,2" d="M693.4184,-277.352C758.9164,-285.9104 860.6885,-299.2086 929.8462,-308.2452"/>
<polygon fill="#ffa500" stroke="#ffa500" points="693.5976,-273.8457 683.2284,-276.0205 692.6906,-280.7867 693.5976,-273.8457"/>
<text text-anchor="middle" x="816" y="-305" font-family="Helvetica,sans-Serif" font-size="10.00" fill="#000000"> &lt; Identity&lt; ValueType &gt; &gt;</text>
</g>
<!-- Node13 -->
<g id="node13" class="node">
<title>Node13</title>
<g id="a_node13"><a xlink:href="classgko_1_1EnablePolymorphicAssignment.html" target="_top" xlink:title="This mixin is used to enable a default PolymorphicObject::copy_from() implementation for objects that...">
<polygon fill="#ffffff" stroke="#000000" points="908.5,-254 908.5,-284 1100.5,-284 1100.5,-254 908.5,-254"/>
<text text-anchor="start" x="916.5" y="-272" font-family="Helvetica,sans-Serif" font-size="10.00" fill="#000000">gko::EnablePolymorphicAssignment</text>
<text text-anchor="middle" x="1004.5" y="-261" font-family="Helvetica,sans-Serif" font-size="10.00" fill="#000000">&lt; ConcreteType, ResultType &gt;</text>
</a>
</g>
</g>
<!-- Node12&#45;&gt;Node13 -->
<g id="edge15" class="edge">
<title>Node12&#45;&gt;Node13</title>
<path fill="none" stroke="#191970" d="M693.5304,-269C752.5493,-269 840.9516,-269 908.4323,-269"/>
<polygon fill="#191970" stroke="#191970" points="693.2284,-265.5001 683.2284,-269 693.2283,-272.5001 693.2284,-265.5001"/>
</g>
<!-- Node18 -->
<g id="node18" class="node">
<title>Node18</title>
<g id="a_node18"><a xlink:href="classgko_1_1ConvertibleTo.html" target="_top" xlink:title=" ">
<polygon fill="#ffffff" stroke="#000000" points="935.5,-205 935.5,-235 1073.5,-235 1073.5,-205 935.5,-205"/>
<text text-anchor="start" x="943.5" y="-223" font-family="Helvetica,sans-Serif" font-size="10.00" fill="#000000">gko::ConvertibleTo</text>
<text text-anchor="middle" x="1004.5" y="-212" font-family="Helvetica,sans-Serif" font-size="10.00" fill="#000000">&lt; ConcreteBatchLinOp &gt;</text>
</a>
</g>
</g>
<!-- Node12&#45;&gt;Node18 -->
<g id="edge24" class="edge">
<title>Node12&#45;&gt;Node18</title>
<path fill="none" stroke="#ffa500" stroke-dasharray="5,2" d="M693.2672,-260.6677C760.486,-251.8845 866.0311,-238.0933 935.2497,-229.0487"/>
<polygon fill="#ffa500" stroke="#ffa500" points="692.6906,-257.2133 683.2284,-261.9795 693.5976,-264.1543 692.6906,-257.2133"/>
<text text-anchor="middle" x="816" y="-256" font-family="Helvetica,sans-Serif" font-size="10.00" fill="#000000"> &lt; ConcreteBatchLinOp &gt;</text>
</g>
<!-- Node13&#45;&gt;Node10 -->
<g id="edge14" class="edge">
<title>Node13&#45;&gt;Node10</title>
<path fill="none" stroke="#ffa500" stroke-dasharray="5,2" d="M1110.8163,-274.1513C1164.1025,-276.7331 1228.1342,-279.8356 1279.9271,-282.3451"/>
<polygon fill="#ffa500" stroke="#ffa500" points="1110.8113,-270.647 1100.6536,-273.6589 1110.4725,-277.6388 1110.8113,-270.647"/>
<text text-anchor="middle" x="1193" y="-284" font-family="Helvetica,sans-Serif" font-size="10.00" fill="#000000"> &lt; Identity&lt; ValueType &gt; &gt;</text>
</g>
<!-- Node17 -->
<g id="node17" class="node">
<title>Node17</title>
<g id="a_node17"><a xlink:href="classgko_1_1EnablePolymorphicAssignment.html" target="_top" xlink:title=" ">
<polygon fill="#ffffff" stroke="#000000" points="1280,-210 1280,-240 1472,-240 1472,-210 1280,-210"/>
<text text-anchor="start" x="1288" y="-228" font-family="Helvetica,sans-Serif" font-size="10.00" fill="#000000">gko::EnablePolymorphicAssignment</text>
<text text-anchor="middle" x="1376" y="-217" font-family="Helvetica,sans-Serif" font-size="10.00" fill="#000000">&lt; ConcreteBatchLinOp &gt;</text>
</a>
</g>
</g>
<!-- Node13&#45;&gt;Node17 -->
<g id="edge25" class="edge">
<title>Node13&#45;&gt;Node17</title>
<path fill="none" stroke="#ffa500" stroke-dasharray="5,2" d="M1110.8163,-256.408C1164.1025,-250.0969 1228.1342,-242.513 1279.9271,-236.3788"/>
<polygon fill="#ffa500" stroke="#ffa500" points="1110.1725,-252.9597 1100.6536,-257.6117 1110.9959,-259.9111 1110.1725,-252.9597"/>
<text text-anchor="middle" x="1193" y="-256" font-family="Helvetica,sans-Serif" font-size="10.00" fill="#000000"> &lt; ConcreteBatchLinOp &gt;</text>
</g>
<!-- Node14 -->
<g id="node14" class="node">
<title>Node14</title>
<g id="a_node14"><a xlink:href="classgko_1_1batch_1_1EnableBatchLinOp.html" target="_top" xlink:title="The EnableBatchLinOp mixin can be used to provide sensible default implementations of the majority of...">
<polygon fill="#ffffff" stroke="#000000" points="1510,-156.5 1510,-197.5 1659,-197.5 1659,-156.5 1510,-156.5"/>
<text text-anchor="start" x="1518" y="-185.5" font-family="Helvetica,sans-Serif" font-size="10.00" fill="#000000">gko::batch::EnableBatchLin</text>
<text text-anchor="start" x="1518" y="-174.5" font-family="Helvetica,sans-Serif" font-size="10.00" fill="#000000">Op&lt; ConcreteBatchLinOp,</text>
<text text-anchor="middle" x="1584.5" y="-163.5" font-family="Helvetica,sans-Serif" font-size="10.00" fill="#000000"> PolymorphicBase &gt;</text>
</a>
</g>
</g>
<!-- Node14&#45;&gt;Node2 -->
<g id="edge16" class="edge">
<title>Node14&#45;&gt;Node2</title>
<path fill="none" stroke="#ffa500" stroke-dasharray="5,2" d="M1669.3161,-174.1512C1719.0642,-172.4803 1781.5886,-170.3802 1830.7138,-168.7302"/>
<polygon fill="#ffa500" stroke="#ffa500" points="1669.1015,-170.6564 1659.2246,-174.4902 1669.3365,-177.6524 1669.1015,-170.6564"/>
<text text-anchor="middle" x="1745" y="-176" font-family="Helvetica,sans-Serif" font-size="10.00" fill="#000000"> &lt; Identity&lt; ValueType &gt; &gt;</text>
</g>
<!-- Node15&#45;&gt;Node14 -->
<g id="edge17" class="edge">
<title>Node15&#45;&gt;Node14</title>
<path fill="none" stroke="#191970" d="M1483.3477,-173.604C1492.31,-173.9049 1501.2417,-174.2048 1509.8777,-174.4947"/>
<polygon fill="#191970" stroke="#191970" points="1483.3419,-170.1019 1473.2301,-173.2643 1483.107,-177.098 1483.3419,-170.1019"/>
</g>
<!-- Node16&#45;&gt;Node15 -->
<g id="edge18" class="edge">
<title>Node16&#45;&gt;Node15</title>
<path fill="none" stroke="#191970" d="M727.4301,-176.9505C870.7074,-175.4151 1135.9049,-172.573 1278.7788,-171.0419"/>
<polygon fill="#191970" stroke="#191970" points="727.2901,-173.4517 717.3282,-177.0588 727.3652,-180.4513 727.2901,-173.4517"/>
</g>
<!-- Node17&#45;&gt;Node14 -->
<g id="edge22" class="edge">
<title>Node17&#45;&gt;Node14</title>
<path fill="none" stroke="#191970" d="M1451.2365,-207.6794C1470.3238,-203.2852 1490.821,-198.5664 1509.8777,-194.1792"/>
<polygon fill="#191970" stroke="#191970" points="1450.3585,-204.2899 1441.3986,-209.9442 1451.929,-211.1114 1450.3585,-204.2899"/>
</g>
<!-- Node18&#45;&gt;Node17 -->
<g id="edge23" class="edge">
<title>Node18&#45;&gt;Node17</title>
<path fill="none" stroke="#191970" d="M1083.6022,-221.0646C1140.9313,-221.8362 1218.7582,-222.8837 1279.7057,-223.704"/>
<polygon fill="#191970" stroke="#191970" points="1083.5519,-217.5637 1073.5057,-220.9287 1083.4576,-224.5631 1083.5519,-217.5637"/>
</g>
<!-- Node19 -->
<g id="node19" class="node">
<title>Node19</title>
<g id="a_node19"><a xlink:href="classgko_1_1EnableCreateMethod.html" target="_top" xlink:title=" ">
<polygon fill="#ffffff" stroke="#000000" points="1837.5,-91 1837.5,-121 1986.5,-121 1986.5,-91 1837.5,-91"/>
<text text-anchor="start" x="1845.5" y="-109" font-family="Helvetica,sans-Serif" font-size="10.00" fill="#000000">gko::EnableCreateMethod</text>
<text text-anchor="middle" x="1912" y="-98" font-family="Helvetica,sans-Serif" font-size="10.00" fill="#000000">&lt; Identity&lt; ValueType &gt; &gt;</text>
</a>
</g>
</g>
<!-- Node19&#45;&gt;Node1 -->
<g id="edge26" class="edge">
<title>Node19&#45;&gt;Node1</title>
<path fill="none" stroke="#191970" d="M1996.7387,-117.0529C2007.8705,-118.5049 2019.145,-119.9754 2029.9048,-121.3789"/>
<polygon fill="#191970" stroke="#191970" points="1996.9433,-113.55 1986.5746,-115.7271 1996.0379,-120.4912 1996.9433,-113.55"/>
</g>
<!-- Node20 -->
<g id="node20" class="node">
<title>Node20</title>
<g id="a_node20"><a xlink:href="classgko_1_1EnableCreateMethod.html" target="_top" xlink:title="This mixin implements a static create() method on ConcreteType that dynamically allocates the memory,...">
<polygon fill="#ffffff" stroke="#000000" points="1513.5,-69 1513.5,-99 1655.5,-99 1655.5,-69 1513.5,-69"/>
<text text-anchor="start" x="1521.5" y="-87" font-family="Helvetica,sans-Serif" font-size="10.00" fill="#000000">gko::EnableCreateMethod</text>
<text text-anchor="middle" x="1584.5" y="-76" font-family="Helvetica,sans-Serif" font-size="10.00" fill="#000000">&lt; ConcreteType &gt;</text>
</a>
</g>
</g>
<!-- Node20&#45;&gt;Node19 -->
<g id="edge27" class="edge">
<title>Node20&#45;&gt;Node19</title>
<path fill="none" stroke="#ffa500" stroke-dasharray="5,2" d="M1665.8562,-89.4652C1718.3917,-92.9943 1786.2292,-97.5513 1837.3795,-100.9873"/>
<polygon fill="#ffa500" stroke="#ffa500" points="1665.7748,-85.9519 1655.5626,-88.7737 1665.3055,-92.9361 1665.7748,-85.9519"/>
<text text-anchor="middle" x="1745" y="-102" font-family="Helvetica,sans-Serif" font-size="10.00" fill="#000000"> &lt; Identity&lt; ValueType &gt; &gt;</text>
</g>
</g>
</svg>
        <g id="navigator" transform="translate(0 0)" fill="#404254">
                <rect fill="#f2f5e9" fill-opacity="0.5" stroke="#606060" stroke-width=".5" x="0" y="0" width="60" height="60"/>
                <use id="zoomplus" xlink:href="#zoomPlus" x="17" y="9" onmousedown="handleZoom(evt,'in')"/>
                <use id="zoomminus" xlink:href="#zoomMin" x="42" y="9" onmousedown="handleZoom(evt,'out')"/>
                <use id="reset" xlink:href="#resetDef" x="30" y="36" onmousedown="handleReset()"/>
                <g id="arrowUp" xlink:href="#dirArrow" transform="translate(30 24)" onmousedown="handlePan(0,-1)">
                  <use xlink:href="#rim" fill="#404040">
                        <set attributeName="fill" to="#808080" begin="arrowUp.mouseover" end="arrowUp.mouseout"/>
                  </use>
                  <path fill="none" stroke="white" stroke-width="1.5" d="M0,-3.0v7 M-2.5,-0.5L0,-3.0L2.5,-0.5"/>
                </g>
                <g id="arrowRight" xlink:href="#dirArrow" transform="rotate(90) translate(36 -43)" onmousedown="handlePan(1,0)">
                  <use xlink:href="#rim" fill="#404040">
                        <set attributeName="fill" to="#808080" begin="arrowRight.mouseover" end="arrowRight.mouseout"/>
                  </use>
                  <path fill="none" stroke="white" stroke-width="1.5" d="M0,-3.0v7 M-2.5,-0.5L0,-3.0L2.5,-0.5"/>
                </g>
                <g id="arrowDown" xlink:href="#dirArrow" transform="rotate(180) translate(-30 -48)" onmousedown="handlePan(0,1)">
                  <use xlink:href="#rim" fill="#404040">
                        <set attributeName="fill" to="#808080" begin="arrowDown.mouseover" end="arrowDown.mouseout"/>
                  </use>
                  <path fill="none" stroke="white" stroke-width="1.5" d="M0,-3.0v7 M-2.5,-0.5L0,-3.0L2.5,-0.5"/>
                </g>
                <g id="arrowLeft" xlink:href="#dirArrow" transform="rotate(270) translate(-36 17)" onmousedown="handlePan(-1,0)">
                  <use xlink:href="#rim" fill="#404040">
                        <set attributeName="fill" to="#808080" begin="arrowLeft.mouseover" end="arrowLeft.mouseout"/>
                  </use>
                  <path fill="none" stroke="white" stroke-width="1.5" d="M0,-3.0v7 M-2.5,-0.5L0,-3.0L2.5,-0.5"/>
                </g>
        </g>
        <svg viewBox="0 0 15 15" width="100%" height="30px" preserveAspectRatio="xMaxYMin meet">
         <g id="arrow_out" transform="scale(0.3 0.3)">
          <a xlink:href="classgko_1_1batch_1_1matrix_1_1Identity__inherit__graph_org.svg" target="_base">
           <rect id="button" ry="5" rx="5" y="6" x="6" height="38" width="38"
                fill="#f2f5e9" fill-opacity="0.5" stroke="#606060" stroke-width="1.0"/>
           <path id="arrow"
             d="M 11.500037,31.436501 C 11.940474,20.09759 22.043105,11.32322 32.158766,21.979434 L 37.068811,17.246167 C 37.068811,17.246167 37.088388,32 37.088388,32 L 22.160133,31.978069 C 22.160133,31.978069 26.997745,27.140456 26.997745,27.140456 C 18.528582,18.264221 13.291696,25.230495 11.500037,31.436501 z"
             style="fill:#404040;"/>
          </a>
         </g>
        </svg>
</svg>
