<?xml version="1.0" encoding="UTF-8" standalone="no"?>
<!DOCTYPE svg PUBLIC "-//W3C//DTD SVG 1.1//EN"
 "http://www.w3.org/Graphics/SVG/1.1/DTD/svg11.dtd">
<!-- Generated by graphviz version 2.40.1 (20161225.0304)
 -->
<!-- Title: gko::solver::ApplyWithInitialGuess Pages: 1 -->
<svg width="850pt" height="67pt"
 viewBox="0.00 0.00 850.00 66.50" xmlns="http://www.w3.org/2000/svg" xmlns:xlink="http://www.w3.org/1999/xlink">
<g id="graph0" class="graph" transform="scale(1 1) rotate(0) translate(4 62.5)">
<title>gko::solver::ApplyWithInitialGuess</title>
<polygon fill="#ffffff" stroke="transparent" points="-4,4 -4,-62.5 846,-62.5 846,4 -4,4"/>
<!-- Node1 -->
<g id="node1" class="node">
<title>Node1</title>
<g id="a_node1"><a xlink:title="ApplyWithInitialGuess provides a way to give the input guess for apply function.">
<polygon fill="#bfbfbf" stroke="#000000" points="0,-22.5 0,-52.5 155,-52.5 155,-22.5 0,-22.5"/>
<text text-anchor="start" x="8" y="-40.5" font-family="Helvetica,sans-Serif" font-size="10.00" fill="#000000">gko::solver::ApplyWithInitial</text>
<text text-anchor="middle" x="77.5" y="-29.5" font-family="Helvetica,sans-Serif" font-size="10.00" fill="#000000">Guess</text>
</a>
</g>
</g>
<!-- Node2 -->
<g id="node2" class="node">
<title>Node2</title>
<g id="a_node2"><a xlink:href="classgko_1_1solver_1_1EnableApplyWithInitialGuess.html" target="_top" xlink:title=" ">
<polygon fill="#ffffff" stroke="#000000" points="513,-17 513,-58 650,-58 650,-17 513,-17"/>
<text text-anchor="start" x="521" y="-46" font-family="Helvetica,sans-Serif" font-size="10.00" fill="#000000">gko::solver::EnableApply</text>
<text text-anchor="start" x="521" y="-35" font-family="Helvetica,sans-Serif" font-size="10.00" fill="#000000">WithInitialGuess&lt; Ir&lt;</text>
<text text-anchor="middle" x="581.5" y="-24" font-family="Helvetica,sans-Serif" font-size="10.00" fill="#000000"> ValueType &gt; &gt;</text>
</a>
</g>
</g>
<!-- Node1&#45;&gt;Node2 -->
<g id="edge1" class="edge">
<title>Node1&#45;&gt;Node2</title>
<path fill="none" stroke="#191970" d="M165.2805,-41.2557C167.8824,-41.3417 170.4601,-41.4234 173,-41.5 316.0571,-45.8139 352.03,-52.0973 495,-45.5 500.7249,-45.2358 506.6561,-44.8738 512.6062,-44.4488"/>
<polygon fill="#191970" stroke="#191970" points="165.2686,-37.7533 155.1533,-40.9047 165.0261,-44.7491 165.2686,-37.7533"/>
</g>
<!-- Node4 -->
<g id="node4" class="node">
<title>Node4</title>
<g id="a_node4"><a xlink:href="classgko_1_1solver_1_1EnableApplyWithInitialGuess.html" target="_top" xlink:title="EnableApplyWithInitialGuess providing default operation for ApplyWithInitialGuess with correct valida...">
<polygon fill="#ffffff" stroke="#000000" points="192,-.5 192,-30.5 372,-30.5 372,-.5 192,-.5"/>
<text text-anchor="start" x="200" y="-18.5" font-family="Helvetica,sans-Serif" font-size="10.00" fill="#000000">gko::solver::EnableApply</text>
<text text-anchor="middle" x="282" y="-7.5" font-family="Helvetica,sans-Serif" font-size="10.00" fill="#000000">WithInitialGuess&lt; DerivedType &gt;</text>
</a>
</g>
</g>
<!-- Node1&#45;&gt;Node4 -->
<g id="edge3" class="edge">
<title>Node1&#45;&gt;Node4</title>
<path fill="none" stroke="#191970" d="M165.3079,-28.0537C174.0699,-27.1111 182.9763,-26.1529 191.7627,-25.2077"/>
<polygon fill="#191970" stroke="#191970" points="164.6725,-24.6017 155.1043,-29.1514 165.4213,-31.5616 164.6725,-24.6017"/>
</g>
<!-- Node3 -->
<g id="node3" class="node">
<title>Node3</title>
<g id="a_node3"><a xlink:href="classgko_1_1solver_1_1Ir.html" target="_top" xlink:title="Iterative refinement (IR) is an iterative method that uses another coarse method to approximate the e...">
<polygon fill="#ffffff" stroke="#000000" points="687,-28 687,-47 842,-47 842,-28 687,-28"/>
<text text-anchor="middle" x="764.5" y="-35" font-family="Helvetica,sans-Serif" font-size="10.00" fill="#000000">gko::solver::Ir&lt; ValueType &gt;</text>
</a>
</g>
</g>
<!-- Node2&#45;&gt;Node3 -->
<g id="edge2" class="edge">
<title>Node2&#45;&gt;Node3</title>
<path fill="none" stroke="#191970" d="M660.373,-37.5C669.1491,-37.5 678.0831,-37.5 686.8439,-37.5"/>
<polygon fill="#191970" stroke="#191970" points="660.1631,-34.0001 650.1631,-37.5 660.1631,-41.0001 660.1631,-34.0001"/>
</g>
<!-- Node4&#45;&gt;Node2 -->
<g id="edge4" class="edge">
<title>Node4&#45;&gt;Node2</title>
<path fill="none" stroke="#ffa500" stroke-dasharray="5,2" d="M382.4474,-22.8784C425.3018,-26.0263 474.2197,-29.6196 512.8371,-32.4563"/>
<polygon fill="#ffa500" stroke="#ffa500" points="382.4956,-19.3726 372.266,-22.1306 381.9827,-26.3538 382.4956,-19.3726"/>
<text text-anchor="middle" x="442.5" y="-34.5" font-family="Helvetica,sans-Serif" font-size="10.00" fill="#000000"> &lt; Ir&lt; ValueType &gt; &gt;</text>
</g>
</g>
</svg>
