<?xml version="1.0" encoding="UTF-8" standalone="no"?>
<!DOCTYPE svg PUBLIC "-//W3C//DTD SVG 1.1//EN"
 "http://www.w3.org/Graphics/SVG/1.1/DTD/svg11.dtd">
<!-- Generated by graphviz version 2.40.1 (20161225.0304)
 -->
<!-- Title: gko::matrix::Fft2 Pages: 1 -->
<svg width="2108pt" height="465pt"
 viewBox="0.00 0.00 2108.00 465.00" xmlns="http://www.w3.org/2000/svg" xmlns:xlink="http://www.w3.org/1999/xlink">
<g id="graph0" class="graph" transform="scale(1 1) rotate(0) translate(4 461)">
<title>gko::matrix::Fft2</title>
<polygon fill="#ffffff" stroke="transparent" points="-4,4 -4,-461 2104,-461 2104,4 -4,4"/>
<!-- Node1 -->
<g id="node1" class="node">
<title>Node1</title>
<g id="a_node1"><a xlink:title="This LinOp implements a 2D Fourier matrix using the FFT algorithm.">
<polygon fill="#bfbfbf" stroke="#000000" points="2002,-130.5 2002,-149.5 2100,-149.5 2100,-130.5 2002,-130.5"/>
<text text-anchor="middle" x="2051" y="-137.5" font-family="Helvetica,sans-Serif" font-size="10.00" fill="#000000">gko::matrix::Fft2</text>
</a>
</g>
</g>
<!-- Node2 -->
<g id="node2" class="node">
<title>Node2</title>
<g id="a_node2"><a xlink:href="classgko_1_1EnableLinOp.html" target="_top" xlink:title=" ">
<polygon fill="#ffffff" stroke="#000000" points="1820.5,-278.5 1820.5,-297.5 1963.5,-297.5 1963.5,-278.5 1820.5,-278.5"/>
<text text-anchor="middle" x="1892" y="-285.5" font-family="Helvetica,sans-Serif" font-size="10.00" fill="#000000">gko::EnableLinOp&lt; Fft2 &gt;</text>
</a>
</g>
</g>
<!-- Node2&#45;&gt;Node1 -->
<g id="edge1" class="edge">
<title>Node2&#45;&gt;Node1</title>
<path fill="none" stroke="#191970" d="M1956.3551,-274.2386C1959.3768,-272.6763 1962.2796,-270.9368 1965,-269 2009.9501,-236.9972 2038.0574,-173.5276 2047.4724,-149.509"/>
<polygon fill="#191970" stroke="#191970" points="1954.7025,-271.1432 1946.9959,-278.4137 1957.5543,-277.536 1954.7025,-271.1432"/>
</g>
<!-- Node3 -->
<g id="node3" class="node">
<title>Node3</title>
<g id="a_node3"><a xlink:href="classgko_1_1EnablePolymorphicObject.html" target="_top" xlink:title=" ">
<polygon fill="#ffffff" stroke="#000000" points="1495,-357 1495,-387 1661,-387 1661,-357 1495,-357"/>
<text text-anchor="start" x="1503" y="-375" font-family="Helvetica,sans-Serif" font-size="10.00" fill="#000000">gko::EnablePolymorphicObject</text>
<text text-anchor="middle" x="1578" y="-364" font-family="Helvetica,sans-Serif" font-size="10.00" fill="#000000">&lt; Fft2, LinOp &gt;</text>
</a>
</g>
</g>
<!-- Node3&#45;&gt;Node2 -->
<g id="edge2" class="edge">
<title>Node3&#45;&gt;Node2</title>
<path fill="none" stroke="#191970" d="M1643.8389,-354.387C1708.5262,-337.0822 1804.8048,-311.3261 1856.3598,-297.5343"/>
<polygon fill="#191970" stroke="#191970" points="1642.8927,-351.017 1634.1369,-356.9825 1644.7017,-357.7792 1642.8927,-351.017"/>
</g>
<!-- Node4 -->
<g id="node4" class="node">
<title>Node4</title>
<g id="a_node4"><a xlink:href="classgko_1_1EnableAbstractPolymorphicObject.html" target="_top" xlink:title=" ">
<polygon fill="#ffffff" stroke="#000000" points="1270,-402 1270,-432 1445,-432 1445,-402 1270,-402"/>
<text text-anchor="start" x="1278" y="-420" font-family="Helvetica,sans-Serif" font-size="10.00" fill="#000000">gko::EnableAbstractPolymorphic</text>
<text text-anchor="middle" x="1357.5" y="-409" font-family="Helvetica,sans-Serif" font-size="10.00" fill="#000000">Object&lt; Fft2, LinOp &gt;</text>
</a>
</g>
</g>
<!-- Node4&#45;&gt;Node3 -->
<g id="edge3" class="edge">
<title>Node4&#45;&gt;Node3</title>
<path fill="none" stroke="#191970" d="M1441.2942,-399.8992C1462.0412,-395.6651 1484.1167,-391.1599 1504.3396,-387.0327"/>
<polygon fill="#191970" stroke="#191970" points="1440.328,-396.5241 1431.2299,-401.9531 1441.7278,-403.3827 1440.328,-396.5241"/>
</g>
<!-- Node5 -->
<g id="node5" class="node">
<title>Node5</title>
<g id="a_node5"><a xlink:href="classgko_1_1LinOp.html" target="_top" xlink:title=" ">
<polygon fill="#ffffff" stroke="#000000" points="931.5,-407.5 931.5,-426.5 999.5,-426.5 999.5,-407.5 931.5,-407.5"/>
<text text-anchor="middle" x="965.5" y="-414.5" font-family="Helvetica,sans-Serif" font-size="10.00" fill="#000000">gko::LinOp</text>
</a>
</g>
</g>
<!-- Node5&#45;&gt;Node4 -->
<g id="edge4" class="edge">
<title>Node5&#45;&gt;Node4</title>
<path fill="none" stroke="#191970" d="M1009.9667,-417C1072.8762,-417 1189.1665,-417 1269.805,-417"/>
<polygon fill="#191970" stroke="#191970" points="1009.6017,-413.5001 999.6017,-417 1009.6017,-420.5001 1009.6017,-413.5001"/>
</g>
<!-- Node6 -->
<g id="node6" class="node">
<title>Node6</title>
<g id="a_node6"><a xlink:href="classgko_1_1EnableAbstractPolymorphicObject.html" target="_top" xlink:title=" ">
<polygon fill="#ffffff" stroke="#ff0000" points="542,-402 542,-432 717,-432 717,-402 542,-402"/>
<text text-anchor="start" x="550" y="-420" font-family="Helvetica,sans-Serif" font-size="10.00" fill="#000000">gko::EnableAbstractPolymorphic</text>
<text text-anchor="middle" x="629.5" y="-409" font-family="Helvetica,sans-Serif" font-size="10.00" fill="#000000">Object&lt; LinOp &gt;</text>
</a>
</g>
</g>
<!-- Node6&#45;&gt;Node5 -->
<g id="edge5" class="edge">
<title>Node6&#45;&gt;Node5</title>
<path fill="none" stroke="#191970" d="M727.7603,-417C796.4379,-417 884.0201,-417 931.3799,-417"/>
<polygon fill="#191970" stroke="#191970" points="727.3412,-413.5001 717.3412,-417 727.3411,-420.5001 727.3412,-413.5001"/>
</g>
<!-- Node12 -->
<g id="node7" class="node">
<title>Node12</title>
<g id="a_node7"><a xlink:href="classgko_1_1EnableAbstractPolymorphicObject.html" target="_top" xlink:title="This mixin inherits from (a subclass of) PolymorphicObject and provides a base implementation of a ne...">
<polygon fill="#ffffff" stroke="#000000" points="138,-376.5 138,-417.5 336,-417.5 336,-376.5 138,-376.5"/>
<text text-anchor="start" x="146" y="-405.5" font-family="Helvetica,sans-Serif" font-size="10.00" fill="#000000">gko::EnableAbstractPolymorphic</text>
<text text-anchor="start" x="146" y="-394.5" font-family="Helvetica,sans-Serif" font-size="10.00" fill="#000000">Object&lt; AbstractObject, Polymorphic</text>
<text text-anchor="middle" x="237" y="-383.5" font-family="Helvetica,sans-Serif" font-size="10.00" fill="#000000">Base &gt;</text>
</a>
</g>
</g>
<!-- Node12&#45;&gt;Node4 -->
<g id="edge8" class="edge">
<title>Node12&#45;&gt;Node4</title>
<path fill="none" stroke="#ffa500" stroke-dasharray="5,2" d="M322.7837,-419.8382C333.2505,-422.1576 343.8353,-424.2858 354,-426 431.0147,-438.988 450.979,-438.4407 529,-442 768.3215,-452.9176 828.4957,-441.6271 1068,-436 1144.0115,-434.2141 1163.1723,-436.5769 1239,-431 1249.0202,-430.263 1259.4969,-429.3028 1269.8976,-428.2304"/>
<polygon fill="#ffa500" stroke="#ffa500" points="323.33,-416.373 312.8022,-417.5631 321.7743,-423.198 323.33,-416.373"/>
<text text-anchor="middle" x="796.5" y="-449" font-family="Helvetica,sans-Serif" font-size="10.00" fill="#000000"> &lt; Fft2, LinOp &gt;</text>
</g>
<!-- Node12&#45;&gt;Node6 -->
<g id="edge6" class="edge">
<title>Node12&#45;&gt;Node6</title>
<path fill="none" stroke="#ffa500" stroke-dasharray="5,2" d="M346.3159,-403.5838C348.902,-403.7255 351.4664,-403.8644 354,-404 416.7568,-407.3579 487.5803,-410.6897 541.703,-413.1396"/>
<polygon fill="#ffa500" stroke="#ffa500" points="346.4309,-400.0848 336.2522,-403.0249 346.0427,-407.0741 346.4309,-400.0848"/>
<text text-anchor="middle" x="432.5" y="-414" font-family="Helvetica,sans-Serif" font-size="10.00" fill="#000000"> &lt; LinOp &gt;</text>
</g>
<!-- Node14 -->
<g id="node10" class="node">
<title>Node14</title>
<g id="a_node10"><a xlink:href="classgko_1_1EnableAbstractPolymorphicObject.html" target="_top" xlink:title=" ">
<polygon fill="#ffffff" stroke="#000000" points="529,-341.5 529,-382.5 730,-382.5 730,-341.5 529,-341.5"/>
<text text-anchor="start" x="537" y="-370.5" font-family="Helvetica,sans-Serif" font-size="10.00" fill="#000000">gko::EnableAbstractPolymorphic</text>
<text text-anchor="start" x="537" y="-359.5" font-family="Helvetica,sans-Serif" font-size="10.00" fill="#000000">Object&lt; ConcreteObject, Polymorphic</text>
<text text-anchor="middle" x="629.5" y="-348.5" font-family="Helvetica,sans-Serif" font-size="10.00" fill="#000000">Base &gt;</text>
</a>
</g>
</g>
<!-- Node12&#45;&gt;Node14 -->
<g id="edge12" class="edge">
<title>Node12&#45;&gt;Node14</title>
<path fill="none" stroke="#ffa500" stroke-dasharray="5,2" d="M346.27,-378.8921C348.8698,-378.5786 351.4495,-378.2804 354,-378 411.7435,-371.6517 476.591,-367.7277 528.8595,-365.3556"/>
<polygon fill="#ffa500" stroke="#ffa500" points="345.6416,-375.4436 336.1606,-380.1725 346.5212,-382.3882 345.6416,-375.4436"/>
<text text-anchor="start" x="354" y="-392" font-family="Helvetica,sans-Serif" font-size="10.00" fill="#000000"> &lt; ConcreteObject, Polymorphic</text>
<text text-anchor="middle" x="432.5" y="-381" font-family="Helvetica,sans-Serif" font-size="10.00" fill="#000000">Base &gt;</text>
</g>
<!-- Node21 -->
<g id="node17" class="node">
<title>Node21</title>
<g id="a_node17"><a xlink:href="classgko_1_1EnableAbstractPolymorphicObject.html" target="_top" xlink:title=" ">
<polygon fill="#ffffff" stroke="#000000" points="531,-281.5 531,-322.5 728,-322.5 728,-281.5 531,-281.5"/>
<text text-anchor="start" x="539" y="-310.5" font-family="Helvetica,sans-Serif" font-size="10.00" fill="#000000">gko::EnableAbstractPolymorphic</text>
<text text-anchor="start" x="539" y="-299.5" font-family="Helvetica,sans-Serif" font-size="10.00" fill="#000000">Object&lt; ConcreteLinOp, Polymorphic</text>
<text text-anchor="middle" x="629.5" y="-288.5" font-family="Helvetica,sans-Serif" font-size="10.00" fill="#000000">Base &gt;</text>
</a>
</g>
</g>
<!-- Node12&#45;&gt;Node21 -->
<g id="edge22" class="edge">
<title>Node12&#45;&gt;Node21</title>
<path fill="none" stroke="#ffa500" stroke-dasharray="5,2" d="M280.7558,-371.5829C302.1807,-360.2178 328.7481,-347.6788 354,-340 411.2807,-322.5817 477.7083,-313.1218 530.9826,-307.9973"/>
<polygon fill="#ffa500" stroke="#ffa500" points="279.0413,-368.5309 271.9075,-376.3641 282.3691,-374.6894 279.0413,-368.5309"/>
<text text-anchor="start" x="356" y="-354" font-family="Helvetica,sans-Serif" font-size="10.00" fill="#000000"> &lt; ConcreteLinOp, Polymorphic</text>
<text text-anchor="middle" x="432.5" y="-343" font-family="Helvetica,sans-Serif" font-size="10.00" fill="#000000">Base &gt;</text>
</g>
<!-- Node11 -->
<g id="node8" class="node">
<title>Node11</title>
<g id="a_node8"><a xlink:title=" ">
<polygon fill="#ffffff" stroke="#bfbfbf" points="0,-338.5 0,-357.5 101,-357.5 101,-338.5 0,-338.5"/>
<text text-anchor="middle" x="50.5" y="-345.5" font-family="Helvetica,sans-Serif" font-size="10.00" fill="#000000">PolymorphicBase</text>
</a>
</g>
</g>
<!-- Node11&#45;&gt;Node12 -->
<g id="edge7" class="edge">
<title>Node11&#45;&gt;Node12</title>
<path fill="none" stroke="#191970" d="M96.6373,-360.1219C115.3596,-365.0409 137.5184,-370.8628 158.6324,-376.4101"/>
<polygon fill="#191970" stroke="#191970" points="97.463,-356.7201 86.9018,-357.564 95.6842,-363.4903 97.463,-356.7201"/>
</g>
<!-- Node11&#45;&gt;Node14 -->
<g id="edge11" class="edge">
<title>Node11&#45;&gt;Node14</title>
<path fill="none" stroke="#191970" d="M111.2841,-349.4697C210.5662,-351.8703 408.5048,-356.6564 528.9546,-359.5689"/>
<polygon fill="#191970" stroke="#191970" points="111.2037,-345.9669 101.122,-349.224 111.0344,-352.9648 111.2037,-345.9669"/>
</g>
<!-- Node11&#45;&gt;Node21 -->
<g id="edge21" class="edge">
<title>Node11&#45;&gt;Node21</title>
<path fill="none" stroke="#191970" d="M111.2765,-337.3462C172.38,-327.1654 269.3906,-312.444 354,-306 412.5478,-301.5409 478.2901,-300.4383 530.8667,-300.4987"/>
<polygon fill="#191970" stroke="#191970" points="110.3239,-333.9571 101.0417,-339.065 111.4833,-340.8604 110.3239,-333.9571"/>
</g>
<!-- Node13 -->
<g id="node9" class="node">
<title>Node13</title>
<g id="a_node9"><a xlink:href="classgko_1_1EnablePolymorphicObject.html" target="_top" xlink:title="This mixin inherits from (a subclass of) PolymorphicObject and provides a base implementation of a ne...">
<polygon fill="#ffffff" stroke="#000000" points="863,-347 863,-377 1068,-377 1068,-347 863,-347"/>
<text text-anchor="start" x="871" y="-365" font-family="Helvetica,sans-Serif" font-size="10.00" fill="#000000">gko::EnablePolymorphicObject</text>
<text text-anchor="middle" x="965.5" y="-354" font-family="Helvetica,sans-Serif" font-size="10.00" fill="#000000">&lt; ConcreteObject, PolymorphicBase &gt;</text>
</a>
</g>
</g>
<!-- Node13&#45;&gt;Node3 -->
<g id="edge9" class="edge">
<title>Node13&#45;&gt;Node3</title>
<path fill="none" stroke="#ffa500" stroke-dasharray="5,2" d="M1078.0199,-363.8371C1198.5539,-365.805 1387.0176,-368.8819 1494.8379,-370.6423"/>
<polygon fill="#ffa500" stroke="#ffa500" points="1078.0746,-360.3376 1068.0187,-363.6738 1077.9602,-367.3367 1078.0746,-360.3376"/>
<text text-anchor="middle" x="1357.5" y="-373" font-family="Helvetica,sans-Serif" font-size="10.00" fill="#000000"> &lt; Fft2, LinOp &gt;</text>
</g>
<!-- Node20 -->
<g id="node16" class="node">
<title>Node20</title>
<g id="a_node16"><a xlink:href="classgko_1_1EnablePolymorphicObject.html" target="_top" xlink:title=" ">
<polygon fill="#ffffff" stroke="#000000" points="1257,-289 1257,-319 1458,-319 1458,-289 1257,-289"/>
<text text-anchor="start" x="1265" y="-307" font-family="Helvetica,sans-Serif" font-size="10.00" fill="#000000">gko::EnablePolymorphicObject</text>
<text text-anchor="middle" x="1357.5" y="-296" font-family="Helvetica,sans-Serif" font-size="10.00" fill="#000000">&lt; ConcreteLinOp, PolymorphicBase &gt;</text>
</a>
</g>
</g>
<!-- Node13&#45;&gt;Node20 -->
<g id="edge23" class="edge">
<title>Node13&#45;&gt;Node20</title>
<path fill="none" stroke="#ffa500" stroke-dasharray="5,2" d="M1039.6157,-344.8482C1054.9025,-341.6375 1070.9335,-338.5075 1086,-336 1142.2983,-326.6304 1205.6116,-319.0025 1256.9278,-313.5474"/>
<polygon fill="#ffa500" stroke="#ffa500" points="1038.7452,-341.4551 1029.6952,-346.964 1040.2053,-348.3011 1038.7452,-341.4551"/>
<text text-anchor="start" x="1086" y="-350" font-family="Helvetica,sans-Serif" font-size="10.00" fill="#000000"> &lt; ConcreteLinOp, Polymorphic</text>
<text text-anchor="middle" x="1162.5" y="-339" font-family="Helvetica,sans-Serif" font-size="10.00" fill="#000000">Base &gt;</text>
</g>
<!-- Node14&#45;&gt;Node13 -->
<g id="edge10" class="edge">
<title>Node14&#45;&gt;Node13</title>
<path fill="none" stroke="#191970" d="M740.4863,-362C779.8889,-362 824.0386,-362 862.7256,-362"/>
<polygon fill="#191970" stroke="#191970" points="740.3111,-358.5001 730.3111,-362 740.311,-365.5001 740.3111,-358.5001"/>
</g>
<!-- Node15 -->
<g id="node11" class="node">
<title>Node15</title>
<g id="a_node11"><a xlink:href="classgko_1_1EnablePolymorphicAssignment.html" target="_top" xlink:title=" ">
<polygon fill="#ffffff" stroke="#000000" points="1261.5,-240 1261.5,-270 1453.5,-270 1453.5,-240 1261.5,-240"/>
<text text-anchor="start" x="1269.5" y="-258" font-family="Helvetica,sans-Serif" font-size="10.00" fill="#000000">gko::EnablePolymorphicAssignment</text>
<text text-anchor="middle" x="1357.5" y="-247" font-family="Helvetica,sans-Serif" font-size="10.00" fill="#000000">&lt; Fft2 &gt;</text>
</a>
</g>
</g>
<!-- Node15&#45;&gt;Node2 -->
<g id="edge13" class="edge">
<title>Node15&#45;&gt;Node2</title>
<path fill="none" stroke="#191970" d="M1463.7165,-266.3879C1474.2791,-267.3483 1484.8455,-268.2406 1495,-269 1608.5371,-277.4908 1740.6397,-282.9294 1820.2101,-285.7231"/>
<polygon fill="#191970" stroke="#191970" points="1463.885,-262.8886 1453.6041,-265.4484 1463.2375,-269.8586 1463.885,-262.8886"/>
</g>
<!-- Node16 -->
<g id="node12" class="node">
<title>Node16</title>
<g id="a_node12"><a xlink:href="classgko_1_1ConvertibleTo.html" target="_top" xlink:title=" ">
<polygon fill="#ffffff" stroke="#000000" points="912,-243 912,-273 1019,-273 1019,-243 912,-243"/>
<text text-anchor="start" x="920" y="-261" font-family="Helvetica,sans-Serif" font-size="10.00" fill="#000000">gko::ConvertibleTo</text>
<text text-anchor="middle" x="965.5" y="-250" font-family="Helvetica,sans-Serif" font-size="10.00" fill="#000000">&lt; Fft2 &gt;</text>
</a>
</g>
</g>
<!-- Node16&#45;&gt;Node15 -->
<g id="edge14" class="edge">
<title>Node16&#45;&gt;Node15</title>
<path fill="none" stroke="#191970" d="M1029.3555,-257.5113C1092.2083,-257.0303 1188.9963,-256.2896 1261.1913,-255.7371"/>
<polygon fill="#191970" stroke="#191970" points="1029.1569,-254.0126 1019.184,-257.5892 1029.2105,-261.0124 1029.1569,-254.0126"/>
</g>
<!-- Node17 -->
<g id="node13" class="node">
<title>Node17</title>
<g id="a_node13"><a xlink:href="classgko_1_1ConvertibleTo.html" target="_top" xlink:title="ConvertibleTo interface is used to mark that the implementer can be converted to the object of Result...">
<polygon fill="#ffffff" stroke="#000000" points="576,-194 576,-224 683,-224 683,-194 576,-194"/>
<text text-anchor="start" x="584" y="-212" font-family="Helvetica,sans-Serif" font-size="10.00" fill="#000000">gko::ConvertibleTo</text>
<text text-anchor="middle" x="629.5" y="-201" font-family="Helvetica,sans-Serif" font-size="10.00" fill="#000000">&lt; ResultType &gt;</text>
</a>
</g>
</g>
<!-- Node17&#45;&gt;Node16 -->
<g id="edge15" class="edge">
<title>Node17&#45;&gt;Node16</title>
<path fill="none" stroke="#ffa500" stroke-dasharray="5,2" d="M693.3597,-218.3129C756.602,-227.5357 852.357,-241.5 911.8014,-250.169"/>
<polygon fill="#ffa500" stroke="#ffa500" points="693.5122,-214.7982 683.1117,-216.8184 692.502,-221.7249 693.5122,-214.7982"/>
<text text-anchor="middle" x="796.5" y="-242" font-family="Helvetica,sans-Serif" font-size="10.00" fill="#000000"> &lt; Fft2 &gt;</text>
</g>
<!-- Node18 -->
<g id="node14" class="node">
<title>Node18</title>
<g id="a_node14"><a xlink:href="classgko_1_1EnablePolymorphicAssignment.html" target="_top" xlink:title="This mixin is used to enable a default PolymorphicObject::copy_from() implementation for objects that...">
<polygon fill="#ffffff" stroke="#000000" points="869.5,-194 869.5,-224 1061.5,-224 1061.5,-194 869.5,-194"/>
<text text-anchor="start" x="877.5" y="-212" font-family="Helvetica,sans-Serif" font-size="10.00" fill="#000000">gko::EnablePolymorphicAssignment</text>
<text text-anchor="middle" x="965.5" y="-201" font-family="Helvetica,sans-Serif" font-size="10.00" fill="#000000">&lt; ConcreteType, ResultType &gt;</text>
</a>
</g>
</g>
<!-- Node17&#45;&gt;Node18 -->
<g id="edge17" class="edge">
<title>Node17&#45;&gt;Node18</title>
<path fill="none" stroke="#191970" d="M693.4065,-209C743.1354,-209 812.9464,-209 869.4039,-209"/>
<polygon fill="#191970" stroke="#191970" points="693.1118,-205.5001 683.1117,-209 693.1117,-212.5001 693.1118,-205.5001"/>
</g>
<!-- Node23 -->
<g id="node19" class="node">
<title>Node23</title>
<g id="a_node19"><a xlink:href="classgko_1_1ConvertibleTo.html" target="_top" xlink:title=" ">
<polygon fill="#ffffff" stroke="#000000" points="910.5,-145 910.5,-175 1020.5,-175 1020.5,-145 910.5,-145"/>
<text text-anchor="start" x="918.5" y="-163" font-family="Helvetica,sans-Serif" font-size="10.00" fill="#000000">gko::ConvertibleTo</text>
<text text-anchor="middle" x="965.5" y="-152" font-family="Helvetica,sans-Serif" font-size="10.00" fill="#000000">&lt; ConcreteLinOp &gt;</text>
</a>
</g>
</g>
<!-- Node17&#45;&gt;Node23 -->
<g id="edge26" class="edge">
<title>Node17&#45;&gt;Node23</title>
<path fill="none" stroke="#ffa500" stroke-dasharray="5,2" d="M693.2817,-199.6985C756.0304,-190.5477 850.8411,-176.7211 910.4044,-168.0348"/>
<polygon fill="#ffa500" stroke="#ffa500" points="692.502,-196.2751 683.1117,-201.1816 693.5122,-203.2018 692.502,-196.2751"/>
<text text-anchor="middle" x="796.5" y="-193" font-family="Helvetica,sans-Serif" font-size="10.00" fill="#000000"> &lt; ConcreteLinOp &gt;</text>
</g>
<!-- Node18&#45;&gt;Node15 -->
<g id="edge16" class="edge">
<title>Node18&#45;&gt;Node15</title>
<path fill="none" stroke="#ffa500" stroke-dasharray="5,2" d="M1071.7161,-220.713C1122.3823,-226.3837 1183.8434,-233.3835 1239,-240 1246.3093,-240.8768 1253.8701,-241.7989 1261.4722,-242.7368"/>
<polygon fill="#ffa500" stroke="#ffa500" points="1072.0588,-217.2296 1061.7319,-219.5971 1071.2812,-224.1863 1072.0588,-217.2296"/>
<text text-anchor="middle" x="1162.5" y="-243" font-family="Helvetica,sans-Serif" font-size="10.00" fill="#000000"> &lt; Fft2 &gt;</text>
</g>
<!-- Node22 -->
<g id="node18" class="node">
<title>Node22</title>
<g id="a_node18"><a xlink:href="classgko_1_1EnablePolymorphicAssignment.html" target="_top" xlink:title=" ">
<polygon fill="#ffffff" stroke="#000000" points="1261.5,-183 1261.5,-213 1453.5,-213 1453.5,-183 1261.5,-183"/>
<text text-anchor="start" x="1269.5" y="-201" font-family="Helvetica,sans-Serif" font-size="10.00" fill="#000000">gko::EnablePolymorphicAssignment</text>
<text text-anchor="middle" x="1357.5" y="-190" font-family="Helvetica,sans-Serif" font-size="10.00" fill="#000000">&lt; ConcreteLinOp &gt;</text>
</a>
</g>
</g>
<!-- Node18&#45;&gt;Node22 -->
<g id="edge27" class="edge">
<title>Node18&#45;&gt;Node22</title>
<path fill="none" stroke="#ffa500" stroke-dasharray="5,2" d="M1072.126,-199.6975C1076.8124,-199.4319 1081.4532,-199.1967 1086,-199 1144.1582,-196.4836 1209.3893,-196.1624 1261.3338,-196.5041"/>
<polygon fill="#ffa500" stroke="#ffa500" points="1071.5817,-196.224 1061.8126,-200.3245 1072.0066,-203.2111 1071.5817,-196.224"/>
<text text-anchor="middle" x="1162.5" y="-202" font-family="Helvetica,sans-Serif" font-size="10.00" fill="#000000"> &lt; ConcreteLinOp &gt;</text>
</g>
<!-- Node19 -->
<g id="node15" class="node">
<title>Node19</title>
<g id="a_node15"><a xlink:href="classgko_1_1EnableLinOp.html" target="_top" xlink:title="The EnableLinOp mixin can be used to provide sensible default implementations of the majority of the ...">
<polygon fill="#ffffff" stroke="#000000" points="1500,-229 1500,-259 1656,-259 1656,-229 1500,-229"/>
<text text-anchor="start" x="1508" y="-247" font-family="Helvetica,sans-Serif" font-size="10.00" fill="#000000">gko::EnableLinOp&lt; Concrete</text>
<text text-anchor="middle" x="1578" y="-236" font-family="Helvetica,sans-Serif" font-size="10.00" fill="#000000">LinOp, PolymorphicBase &gt;</text>
</a>
</g>
</g>
<!-- Node19&#45;&gt;Node2 -->
<g id="edge18" class="edge">
<title>Node19&#45;&gt;Node2</title>
<path fill="none" stroke="#ffa500" stroke-dasharray="5,2" d="M1666.0863,-246.6978C1707.3799,-249.1848 1757.0549,-253.9374 1801,-263 1809.2589,-264.7032 1810.915,-266.6033 1819,-269 1830.0491,-272.2754 1842.1279,-275.5441 1853.2229,-278.4236"/>
<polygon fill="#ffa500" stroke="#ffa500" points="1666.2334,-243.2006 1656.0509,-246.1277 1665.8363,-250.1893 1666.2334,-243.2006"/>
<text text-anchor="middle" x="1740" y="-266" font-family="Helvetica,sans-Serif" font-size="10.00" fill="#000000"> &lt; Fft2 &gt;</text>
</g>
<!-- Node20&#45;&gt;Node19 -->
<g id="edge19" class="edge">
<title>Node20&#45;&gt;Node19</title>
<path fill="none" stroke="#191970" d="M1432.7597,-286.5222C1441.2908,-284.3944 1449.8451,-282.195 1458,-280 1481.8385,-273.5834 1508.1271,-265.7801 1530.0073,-259.081"/>
<polygon fill="#191970" stroke="#191970" points="1431.6523,-283.1904 1422.781,-288.9828 1433.3282,-289.9868 1431.6523,-283.1904"/>
</g>
<!-- Node21&#45;&gt;Node20 -->
<g id="edge20" class="edge">
<title>Node21&#45;&gt;Node20</title>
<path fill="none" stroke="#191970" d="M738.3999,-302.2992C878.7185,-302.6847 1120.7466,-303.3496 1256.9075,-303.7236"/>
<polygon fill="#191970" stroke="#191970" points="738.0695,-298.7984 728.0599,-302.2708 738.0502,-305.7983 738.0695,-298.7984"/>
</g>
<!-- Node22&#45;&gt;Node19 -->
<g id="edge24" class="edge">
<title>Node22&#45;&gt;Node19</title>
<path fill="none" stroke="#191970" d="M1439.5962,-215.1266C1461.4054,-219.6764 1484.79,-224.5548 1506.0146,-228.9826"/>
<polygon fill="#191970" stroke="#191970" points="1440.204,-211.6782 1429.6999,-213.0621 1438.7744,-218.5306 1440.204,-211.6782"/>
</g>
<!-- Node23&#45;&gt;Node22 -->
<g id="edge25" class="edge">
<title>Node23&#45;&gt;Node22</title>
<path fill="none" stroke="#191970" d="M1031.0239,-166.3518C1093.9342,-172.4503 1189.7021,-181.7339 1261.2698,-188.6716"/>
<polygon fill="#191970" stroke="#191970" points="1031.1237,-162.8452 1020.8326,-165.3639 1030.4482,-169.8125 1031.1237,-162.8452"/>
</g>
<!-- Node24 -->
<g id="node20" class="node">
<title>Node24</title>
<g id="a_node20"><a xlink:title=" ">
<polygon fill="#ffffff" stroke="#bfbfbf" points="1819,-38.5 1819,-79.5 1965,-79.5 1965,-38.5 1819,-38.5"/>
<text text-anchor="start" x="1827" y="-67.5" font-family="Helvetica,sans-Serif" font-size="10.00" fill="#000000">gko::WritableToMatrixData</text>
<text text-anchor="start" x="1827" y="-56.5" font-family="Helvetica,sans-Serif" font-size="10.00" fill="#000000">&lt; std::complex&lt; float &gt;</text>
<text text-anchor="middle" x="1892" y="-45.5" font-family="Helvetica,sans-Serif" font-size="10.00" fill="#000000">, int32 &gt;</text>
</a>
</g>
</g>
<!-- Node24&#45;&gt;Node1 -->
<g id="edge28" class="edge">
<title>Node24&#45;&gt;Node1</title>
<path fill="none" stroke="#191970" d="M1954.0201,-83.7522C1957.7609,-85.4721 1961.4459,-87.2276 1965,-89 1990.9419,-101.9369 2019.6352,-119.6983 2036.4506,-130.4845"/>
<polygon fill="#191970" stroke="#191970" points="1955.207,-80.4489 1944.6494,-79.5613 1952.3491,-86.839 1955.207,-80.4489"/>
</g>
<!-- Node25 -->
<g id="node21" class="node">
<title>Node25</title>
<g id="a_node21"><a xlink:href="classgko_1_1WritableToMatrixData.html" target="_top" xlink:title="A LinOp implementing this interface can write its data to a matrix_data structure.">
<polygon fill="#ffffff" stroke="#000000" points="1505,-130 1505,-160 1651,-160 1651,-130 1505,-130"/>
<text text-anchor="start" x="1513" y="-148" font-family="Helvetica,sans-Serif" font-size="10.00" fill="#000000">gko::WritableToMatrixData</text>
<text text-anchor="middle" x="1578" y="-137" font-family="Helvetica,sans-Serif" font-size="10.00" fill="#000000">&lt; ValueType, IndexType &gt;</text>
</a>
</g>
</g>
<!-- Node25&#45;&gt;Node24 -->
<g id="edge29" class="edge">
<title>Node25&#45;&gt;Node24</title>
<path fill="none" stroke="#ffa500" stroke-dasharray="5,2" d="M1610.1627,-124.6185C1629.4295,-113.3171 1654.8094,-99.9757 1679,-92 1724.134,-77.1192 1776.9078,-68.8813 1818.6334,-64.3577"/>
<polygon fill="#ffa500" stroke="#ffa500" points="1608.2806,-121.6659 1601.4978,-129.805 1611.8757,-127.6722 1608.2806,-121.6659"/>
<text text-anchor="start" x="1684.5" y="-106" font-family="Helvetica,sans-Serif" font-size="10.00" fill="#000000"> &lt; std::complex&lt; float</text>
<text text-anchor="middle" x="1740" y="-95" font-family="Helvetica,sans-Serif" font-size="10.00" fill="#000000"> &gt;, int32 &gt;</text>
</g>
<!-- Node26 -->
<g id="node22" class="node">
<title>Node26</title>
<g id="a_node22"><a xlink:title=" ">
<polygon fill="#ffffff" stroke="#bfbfbf" points="1819,-218.5 1819,-259.5 1965,-259.5 1965,-218.5 1819,-218.5"/>
<text text-anchor="start" x="1827" y="-247.5" font-family="Helvetica,sans-Serif" font-size="10.00" fill="#000000">gko::WritableToMatrixData</text>
<text text-anchor="start" x="1827" y="-236.5" font-family="Helvetica,sans-Serif" font-size="10.00" fill="#000000">&lt; std::complex&lt; float &gt;</text>
<text text-anchor="middle" x="1892" y="-225.5" font-family="Helvetica,sans-Serif" font-size="10.00" fill="#000000">, int64 &gt;</text>
</a>
</g>
</g>
<!-- Node25&#45;&gt;Node26 -->
<g id="edge31" class="edge">
<title>Node25&#45;&gt;Node26</title>
<path fill="none" stroke="#ffa500" stroke-dasharray="5,2" d="M1613.5441,-164.8817C1632.5006,-174.8009 1656.4998,-186.2944 1679,-194 1692.3417,-198.5691 1762.5251,-213.106 1818.737,-224.435"/>
<polygon fill="#ffa500" stroke="#ffa500" points="1615.1443,-161.7685 1604.6719,-160.1622 1611.8568,-167.9486 1615.1443,-161.7685"/>
<text text-anchor="start" x="1684.5" y="-234" font-family="Helvetica,sans-Serif" font-size="10.00" fill="#000000"> &lt; std::complex&lt; float</text>
<text text-anchor="middle" x="1740" y="-223" font-family="Helvetica,sans-Serif" font-size="10.00" fill="#000000"> &gt;, int64 &gt;</text>
</g>
<!-- Node27 -->
<g id="node23" class="node">
<title>Node27</title>
<g id="a_node23"><a xlink:title=" ">
<polygon fill="#ffffff" stroke="#bfbfbf" points="1819,-158.5 1819,-199.5 1965,-199.5 1965,-158.5 1819,-158.5"/>
<text text-anchor="start" x="1827" y="-187.5" font-family="Helvetica,sans-Serif" font-size="10.00" fill="#000000">gko::WritableToMatrixData</text>
<text text-anchor="start" x="1827" y="-176.5" font-family="Helvetica,sans-Serif" font-size="10.00" fill="#000000">&lt; std::complex&lt; double</text>
<text text-anchor="middle" x="1892" y="-165.5" font-family="Helvetica,sans-Serif" font-size="10.00" fill="#000000"> &gt;, int32 &gt;</text>
</a>
</g>
</g>
<!-- Node25&#45;&gt;Node27 -->
<g id="edge33" class="edge">
<title>Node25&#45;&gt;Node27</title>
<path fill="none" stroke="#ffa500" stroke-dasharray="5,2" d="M1661.1764,-154.0064C1710.236,-159.3185 1771.7477,-165.9791 1818.933,-171.0883"/>
<polygon fill="#ffa500" stroke="#ffa500" points="1661.5415,-150.5255 1651.2228,-152.9286 1660.7878,-157.4848 1661.5415,-150.5255"/>
<text text-anchor="start" x="1679" y="-182" font-family="Helvetica,sans-Serif" font-size="10.00" fill="#000000"> &lt; std::complex&lt; double</text>
<text text-anchor="middle" x="1740" y="-171" font-family="Helvetica,sans-Serif" font-size="10.00" fill="#000000"> &gt;, int32 &gt;</text>
</g>
<!-- Node28 -->
<g id="node24" class="node">
<title>Node28</title>
<g id="a_node24"><a xlink:title=" ">
<polygon fill="#ffffff" stroke="#bfbfbf" points="1819,-98.5 1819,-139.5 1965,-139.5 1965,-98.5 1819,-98.5"/>
<text text-anchor="start" x="1827" y="-127.5" font-family="Helvetica,sans-Serif" font-size="10.00" fill="#000000">gko::WritableToMatrixData</text>
<text text-anchor="start" x="1827" y="-116.5" font-family="Helvetica,sans-Serif" font-size="10.00" fill="#000000">&lt; std::complex&lt; double</text>
<text text-anchor="middle" x="1892" y="-105.5" font-family="Helvetica,sans-Serif" font-size="10.00" fill="#000000"> &gt;, int64 &gt;</text>
</a>
</g>
</g>
<!-- Node25&#45;&gt;Node28 -->
<g id="edge35" class="edge">
<title>Node25&#45;&gt;Node28</title>
<path fill="none" stroke="#ffa500" stroke-dasharray="5,2" d="M1655.6053,-128.2748C1663.4801,-126.9858 1671.3811,-125.8556 1679,-125 1725.3211,-119.7984 1777.6438,-118.2636 1818.8391,-118.0462"/>
<polygon fill="#ffa500" stroke="#ffa500" points="1654.9301,-124.8394 1645.6679,-129.9835 1656.1164,-131.7382 1654.9301,-124.8394"/>
<text text-anchor="start" x="1679" y="-139" font-family="Helvetica,sans-Serif" font-size="10.00" fill="#000000"> &lt; std::complex&lt; double</text>
<text text-anchor="middle" x="1740" y="-128" font-family="Helvetica,sans-Serif" font-size="10.00" fill="#000000"> &gt;, int64 &gt;</text>
</g>
<!-- Node26&#45;&gt;Node1 -->
<g id="edge30" class="edge">
<title>Node26&#45;&gt;Node1</title>
<path fill="none" stroke="#191970" d="M1956.2171,-213.8588C1959.2249,-212.2925 1962.1677,-210.6711 1965,-209 1995.0055,-191.2966 2025.8141,-163.8904 2041.1181,-149.5255"/>
<polygon fill="#191970" stroke="#191970" points="1954.4619,-210.822 1947.0447,-218.3875 1957.5609,-217.0987 1954.4619,-210.822"/>
</g>
<!-- Node27&#45;&gt;Node1 -->
<g id="edge32" class="edge">
<title>Node27&#45;&gt;Node1</title>
<path fill="none" stroke="#191970" d="M1975.2861,-158.5713C1988.1448,-155.4173 2000.8711,-152.2958 2012.1154,-149.5377"/>
<polygon fill="#191970" stroke="#191970" points="1974.3279,-155.2025 1965.4495,-160.9841 1975.9955,-162.001 1974.3279,-155.2025"/>
</g>
<!-- Node28&#45;&gt;Node1 -->
<g id="edge34" class="edge">
<title>Node28&#45;&gt;Node1</title>
<path fill="none" stroke="#191970" d="M1975.6146,-130.0434C1984.6133,-131.2319 1993.5415,-132.4111 2001.9363,-133.5199"/>
<polygon fill="#191970" stroke="#191970" points="1975.8218,-126.5405 1965.4495,-128.7009 1974.9051,-133.4802 1975.8218,-126.5405"/>
</g>
<!-- Node29 -->
<g id="node25" class="node">
<title>Node29</title>
<g id="a_node25"><a xlink:href="classgko_1_1Transposable.html" target="_top" xlink:title="Linear operators which support transposition should implement the Transposable interface.">
<polygon fill="#ffffff" stroke="#000000" points="1840,-.5 1840,-19.5 1944,-19.5 1944,-.5 1840,-.5"/>
<text text-anchor="middle" x="1892" y="-7.5" font-family="Helvetica,sans-Serif" font-size="10.00" fill="#000000">gko::Transposable</text>
</a>
</g>
</g>
<!-- Node29&#45;&gt;Node1 -->
<g id="edge36" class="edge">
<title>Node29&#45;&gt;Node1</title>
<path fill="none" stroke="#191970" d="M1953.5993,-22.7794C1957.5905,-24.5858 1961.4335,-26.6474 1965,-29 2005.6988,-55.8468 2035.296,-108.4945 2046.2972,-130.2432"/>
<polygon fill="#191970" stroke="#191970" points="1954.6642,-19.4367 1944.078,-19.0103 1952.0877,-25.9453 1954.6642,-19.4367"/>
</g>
</g>
</svg>
