<?xml version="1.0" encoding="UTF-8" standalone="no"?>
<!DOCTYPE svg PUBLIC "-//W3C//DTD SVG 1.1//EN"
 "http://www.w3.org/Graphics/SVG/1.1/DTD/svg11.dtd">
<!-- Generated by graphviz version 2.40.1 (20161225.0304)
 -->
<!-- Title: gko::experimental::reorder::ScaledReordered&lt; ValueType, IndexType &gt; Pages: 1 -->
<svg width="2203pt" height="358pt"
 viewBox="0.00 0.00 2203.00 357.50" xmlns="http://www.w3.org/2000/svg" xmlns:xlink="http://www.w3.org/1999/xlink">
<g id="graph0" class="graph" transform="scale(1 1) rotate(0) translate(4 353.5)">
<title>gko::experimental::reorder::ScaledReordered&lt; ValueType, IndexType &gt;</title>
<polygon fill="#ffffff" stroke="transparent" points="-4,4 -4,-353.5 2199,-353.5 2199,4 -4,4"/>
<!-- Node1 -->
<g id="node1" class="node">
<title>Node1</title>
<g id="a_node1"><a xlink:title="Provides an interface to wrap reorderings like Rcm and diagonal scaling like equilibration around a L...">
<polygon fill="#bfbfbf" stroke="#000000" points="2051,-122.5 2051,-163.5 2195,-163.5 2195,-122.5 2051,-122.5"/>
<text text-anchor="start" x="2059" y="-151.5" font-family="Helvetica,sans-Serif" font-size="10.00" fill="#000000">gko::experimental::</text>
<text text-anchor="start" x="2059" y="-140.5" font-family="Helvetica,sans-Serif" font-size="10.00" fill="#000000">reorder::ScaledReordered</text>
<text text-anchor="middle" x="2123" y="-129.5" font-family="Helvetica,sans-Serif" font-size="10.00" fill="#000000">&lt; ValueType, IndexType &gt;</text>
</a>
</g>
</g>
<!-- Node2 -->
<g id="node2" class="node">
<title>Node2</title>
<g id="a_node2"><a xlink:href="classgko_1_1EnableLinOp.html" target="_top" xlink:title=" ">
<polygon fill="#ffffff" stroke="#000000" points="1869,-122.5 1869,-163.5 2014,-163.5 2014,-122.5 1869,-122.5"/>
<text text-anchor="start" x="1877" y="-151.5" font-family="Helvetica,sans-Serif" font-size="10.00" fill="#000000">gko::EnableLinOp&lt; Scaled</text>
<text text-anchor="start" x="1877" y="-140.5" font-family="Helvetica,sans-Serif" font-size="10.00" fill="#000000">Reordered&lt; ValueType,</text>
<text text-anchor="middle" x="1941.5" y="-129.5" font-family="Helvetica,sans-Serif" font-size="10.00" fill="#000000"> IndexType &gt; &gt;</text>
</a>
</g>
</g>
<!-- Node2&#45;&gt;Node1 -->
<g id="edge1" class="edge">
<title>Node2&#45;&gt;Node1</title>
<path fill="none" stroke="#191970" d="M2024.0619,-143C2033.0167,-143 2042.0786,-143 2050.8952,-143"/>
<polygon fill="#191970" stroke="#191970" points="2024.0161,-139.5001 2014.0161,-143 2024.0161,-146.5001 2024.0161,-139.5001"/>
</g>
<!-- Node3 -->
<g id="node3" class="node">
<title>Node3</title>
<g id="a_node3"><a xlink:href="classgko_1_1EnablePolymorphicObject.html" target="_top" xlink:title=" ">
<polygon fill="#ffffff" stroke="#000000" points="1529,-218.5 1529,-259.5 1702,-259.5 1702,-218.5 1529,-218.5"/>
<text text-anchor="start" x="1537" y="-247.5" font-family="Helvetica,sans-Serif" font-size="10.00" fill="#000000">gko::EnablePolymorphicObject</text>
<text text-anchor="start" x="1537" y="-236.5" font-family="Helvetica,sans-Serif" font-size="10.00" fill="#000000">&lt; ScaledReordered&lt; ValueType,</text>
<text text-anchor="middle" x="1615.5" y="-225.5" font-family="Helvetica,sans-Serif" font-size="10.00" fill="#000000"> IndexType &gt;, LinOp &gt;</text>
</a>
</g>
</g>
<!-- Node3&#45;&gt;Node2 -->
<g id="edge2" class="edge">
<title>Node3&#45;&gt;Node2</title>
<path fill="none" stroke="#191970" d="M1695.3143,-215.4964C1749.3037,-199.5977 1819.9273,-178.8005 1871.6805,-163.5603"/>
<polygon fill="#191970" stroke="#191970" points="1694.0392,-212.2232 1685.4352,-218.4056 1696.0166,-218.9381 1694.0392,-212.2232"/>
</g>
<!-- Node4 -->
<g id="node4" class="node">
<title>Node4</title>
<g id="a_node4"><a xlink:href="classgko_1_1EnableAbstractPolymorphicObject.html" target="_top" xlink:title=" ">
<polygon fill="#ffffff" stroke="#000000" points="1301,-290.5 1301,-331.5 1482,-331.5 1482,-290.5 1301,-290.5"/>
<text text-anchor="start" x="1309" y="-319.5" font-family="Helvetica,sans-Serif" font-size="10.00" fill="#000000">gko::EnableAbstractPolymorphic</text>
<text text-anchor="start" x="1309" y="-308.5" font-family="Helvetica,sans-Serif" font-size="10.00" fill="#000000">Object&lt; ScaledReordered&lt;</text>
<text text-anchor="middle" x="1391.5" y="-297.5" font-family="Helvetica,sans-Serif" font-size="10.00" fill="#000000"> ValueType, IndexType &gt;, LinOp &gt;</text>
</a>
</g>
</g>
<!-- Node4&#45;&gt;Node3 -->
<g id="edge3" class="edge">
<title>Node4&#45;&gt;Node3</title>
<path fill="none" stroke="#191970" d="M1465.1009,-287.3426C1493.0212,-278.3682 1524.5637,-268.2295 1551.5255,-259.5632"/>
<polygon fill="#191970" stroke="#191970" points="1463.8389,-284.0718 1455.3896,-290.464 1465.981,-290.736 1463.8389,-284.0718"/>
</g>
<!-- Node5 -->
<g id="node5" class="node">
<title>Node5</title>
<g id="a_node5"><a xlink:href="classgko_1_1LinOp.html" target="_top" xlink:title=" ">
<polygon fill="#ffffff" stroke="#000000" points="965.5,-321.5 965.5,-340.5 1033.5,-340.5 1033.5,-321.5 965.5,-321.5"/>
<text text-anchor="middle" x="999.5" y="-328.5" font-family="Helvetica,sans-Serif" font-size="10.00" fill="#000000">gko::LinOp</text>
</a>
</g>
</g>
<!-- Node5&#45;&gt;Node4 -->
<g id="edge4" class="edge">
<title>Node5&#45;&gt;Node4</title>
<path fill="none" stroke="#191970" d="M1043.8475,-328.7374C1106.0033,-325.5662 1220.4353,-319.7278 1300.9962,-315.6175"/>
<polygon fill="#191970" stroke="#191970" points="1043.4103,-325.255 1033.6017,-329.2601 1043.7671,-332.2459 1043.4103,-325.255"/>
</g>
<!-- Node6 -->
<g id="node6" class="node">
<title>Node6</title>
<g id="a_node6"><a xlink:href="classgko_1_1EnableAbstractPolymorphicObject.html" target="_top" xlink:title=" ">
<polygon fill="#ffffff" stroke="#ff0000" points="542,-319 542,-349 717,-349 717,-319 542,-319"/>
<text text-anchor="start" x="550" y="-337" font-family="Helvetica,sans-Serif" font-size="10.00" fill="#000000">gko::EnableAbstractPolymorphic</text>
<text text-anchor="middle" x="629.5" y="-326" font-family="Helvetica,sans-Serif" font-size="10.00" fill="#000000">Object&lt; LinOp &gt;</text>
</a>
</g>
</g>
<!-- Node6&#45;&gt;Node5 -->
<g id="edge5" class="edge">
<title>Node6&#45;&gt;Node5</title>
<path fill="none" stroke="#191970" d="M727.5823,-333.2047C806.0408,-332.5686 911.491,-331.7136 965.0986,-331.2789"/>
<polygon fill="#191970" stroke="#191970" points="727.1561,-329.708 717.1848,-333.289 727.2129,-336.7078 727.1561,-329.708"/>
</g>
<!-- Node12 -->
<g id="node7" class="node">
<title>Node12</title>
<g id="a_node7"><a xlink:href="classgko_1_1EnableAbstractPolymorphicObject.html" target="_top" xlink:title="This mixin inherits from (a subclass of) PolymorphicObject and provides a base implementation of a ne...">
<polygon fill="#ffffff" stroke="#000000" points="138,-230.5 138,-271.5 336,-271.5 336,-230.5 138,-230.5"/>
<text text-anchor="start" x="146" y="-259.5" font-family="Helvetica,sans-Serif" font-size="10.00" fill="#000000">gko::EnableAbstractPolymorphic</text>
<text text-anchor="start" x="146" y="-248.5" font-family="Helvetica,sans-Serif" font-size="10.00" fill="#000000">Object&lt; AbstractObject, Polymorphic</text>
<text text-anchor="middle" x="237" y="-237.5" font-family="Helvetica,sans-Serif" font-size="10.00" fill="#000000">Base &gt;</text>
</a>
</g>
</g>
<!-- Node12&#45;&gt;Node4 -->
<g id="edge8" class="edge">
<title>Node12&#45;&gt;Node4</title>
<path fill="none" stroke="#ffa500" stroke-dasharray="5,2" d="M346.2562,-270.1387C348.8602,-270.4454 351.4444,-270.7335 354,-271 446.6108,-280.6589 1065.6106,-300.7841 1300.9399,-308.188"/>
<polygon fill="#ffa500" stroke="#ffa500" points="346.4912,-266.6408 336.1332,-268.8682 345.6195,-273.5863 346.4912,-266.6408"/>
<text text-anchor="start" x="759" y="-318" font-family="Helvetica,sans-Serif" font-size="10.00" fill="#000000"> &lt; ScaledReordered&lt;</text>
<text text-anchor="start" x="759" y="-307" font-family="Helvetica,sans-Serif" font-size="10.00" fill="#000000"> ValueType, IndexType</text>
<text text-anchor="middle" x="813.5" y="-296" font-family="Helvetica,sans-Serif" font-size="10.00" fill="#000000"> &gt;, LinOp &gt;</text>
</g>
<!-- Node12&#45;&gt;Node6 -->
<g id="edge6" class="edge">
<title>Node12&#45;&gt;Node6</title>
<path fill="none" stroke="#ffa500" stroke-dasharray="5,2" d="M285.4575,-275.9612C306.0837,-285.565 330.716,-295.7224 354,-302 415.4848,-318.577 486.968,-326.5666 541.7103,-330.4174"/>
<polygon fill="#ffa500" stroke="#ffa500" points="286.8164,-272.7319 276.2818,-271.6035 283.8134,-279.0551 286.8164,-272.7319"/>
<text text-anchor="middle" x="432.5" y="-330" font-family="Helvetica,sans-Serif" font-size="10.00" fill="#000000"> &lt; LinOp &gt;</text>
</g>
<!-- Node14 -->
<g id="node10" class="node">
<title>Node14</title>
<g id="a_node10"><a xlink:href="classgko_1_1EnableAbstractPolymorphicObject.html" target="_top" xlink:title=" ">
<polygon fill="#ffffff" stroke="#000000" points="529,-213.5 529,-254.5 730,-254.5 730,-213.5 529,-213.5"/>
<text text-anchor="start" x="537" y="-242.5" font-family="Helvetica,sans-Serif" font-size="10.00" fill="#000000">gko::EnableAbstractPolymorphic</text>
<text text-anchor="start" x="537" y="-231.5" font-family="Helvetica,sans-Serif" font-size="10.00" fill="#000000">Object&lt; ConcreteObject, Polymorphic</text>
<text text-anchor="middle" x="629.5" y="-220.5" font-family="Helvetica,sans-Serif" font-size="10.00" fill="#000000">Base &gt;</text>
</a>
</g>
</g>
<!-- Node12&#45;&gt;Node14 -->
<g id="edge12" class="edge">
<title>Node12&#45;&gt;Node14</title>
<path fill="none" stroke="#ffa500" stroke-dasharray="5,2" d="M346.2032,-246.2702C403.3756,-243.7939 472.9091,-240.7823 528.78,-238.3624"/>
<polygon fill="#ffa500" stroke="#ffa500" points="345.8835,-242.7807 336.0443,-246.7102 346.1864,-249.7741 345.8835,-242.7807"/>
<text text-anchor="start" x="354" y="-259" font-family="Helvetica,sans-Serif" font-size="10.00" fill="#000000"> &lt; ConcreteObject, Polymorphic</text>
<text text-anchor="middle" x="432.5" y="-248" font-family="Helvetica,sans-Serif" font-size="10.00" fill="#000000">Base &gt;</text>
</g>
<!-- Node21 -->
<g id="node17" class="node">
<title>Node21</title>
<g id="a_node17"><a xlink:href="classgko_1_1EnableAbstractPolymorphicObject.html" target="_top" xlink:title=" ">
<polygon fill="#ffffff" stroke="#000000" points="531,-148.5 531,-189.5 728,-189.5 728,-148.5 531,-148.5"/>
<text text-anchor="start" x="539" y="-177.5" font-family="Helvetica,sans-Serif" font-size="10.00" fill="#000000">gko::EnableAbstractPolymorphic</text>
<text text-anchor="start" x="539" y="-166.5" font-family="Helvetica,sans-Serif" font-size="10.00" fill="#000000">Object&lt; ConcreteLinOp, Polymorphic</text>
<text text-anchor="middle" x="629.5" y="-155.5" font-family="Helvetica,sans-Serif" font-size="10.00" fill="#000000">Base &gt;</text>
</a>
</g>
</g>
<!-- Node12&#45;&gt;Node21 -->
<g id="edge22" class="edge">
<title>Node12&#45;&gt;Node21</title>
<path fill="none" stroke="#ffa500" stroke-dasharray="5,2" d="M304.1287,-227.2203C320.3198,-222.0359 337.6646,-216.9319 354,-213 412.0398,-199.0299 478.0516,-188.3127 530.9063,-180.9544"/>
<polygon fill="#ffa500" stroke="#ffa500" points="302.6403,-224.024 294.2158,-230.4489 304.8081,-230.6799 302.6403,-224.024"/>
<text text-anchor="start" x="356" y="-227" font-family="Helvetica,sans-Serif" font-size="10.00" fill="#000000"> &lt; ConcreteLinOp, Polymorphic</text>
<text text-anchor="middle" x="432.5" y="-216" font-family="Helvetica,sans-Serif" font-size="10.00" fill="#000000">Base &gt;</text>
</g>
<!-- Node11 -->
<g id="node8" class="node">
<title>Node11</title>
<g id="a_node8"><a xlink:title=" ">
<polygon fill="#ffffff" stroke="#bfbfbf" points="0,-163.5 0,-182.5 101,-182.5 101,-163.5 0,-163.5"/>
<text text-anchor="middle" x="50.5" y="-170.5" font-family="Helvetica,sans-Serif" font-size="10.00" fill="#000000">PolymorphicBase</text>
</a>
</g>
</g>
<!-- Node11&#45;&gt;Node12 -->
<g id="edge7" class="edge">
<title>Node11&#45;&gt;Node12</title>
<path fill="none" stroke="#191970" d="M82.5985,-186.4246C111.5007,-198.5123 154.4214,-216.4631 187.6791,-230.3725"/>
<polygon fill="#191970" stroke="#191970" points="83.9447,-183.1939 73.3686,-182.5643 81.2437,-189.6518 83.9447,-183.1939"/>
</g>
<!-- Node11&#45;&gt;Node14 -->
<g id="edge11" class="edge">
<title>Node11&#45;&gt;Node14</title>
<path fill="none" stroke="#191970" d="M111.0875,-170.7329C218.6293,-167.3883 438.3886,-163.8048 511,-187 520.1589,-189.9257 520.3913,-194.7181 529,-199 539.6698,-204.3071 551.3429,-209.1618 562.8362,-213.4551"/>
<polygon fill="#191970" stroke="#191970" points="110.9219,-167.2363 101.0392,-171.0549 111.1462,-174.2327 110.9219,-167.2363"/>
</g>
<!-- Node11&#45;&gt;Node21 -->
<g id="edge21" class="edge">
<title>Node11&#45;&gt;Node21</title>
<path fill="none" stroke="#191970" d="M100.0089,-161.656C106.37,-160.5602 112.8183,-159.6252 119,-159 292.3378,-141.4679 336.9321,-151.6684 511,-159 517.4977,-159.2737 524.1906,-159.6314 530.9321,-160.0484"/>
<polygon fill="#191970" stroke="#191970" points="99.3286,-158.2224 90.1355,-163.4889 100.6063,-165.1048 99.3286,-158.2224"/>
</g>
<!-- Node13 -->
<g id="node9" class="node">
<title>Node13</title>
<g id="a_node9"><a xlink:href="classgko_1_1EnablePolymorphicObject.html" target="_top" xlink:title="This mixin inherits from (a subclass of) PolymorphicObject and provides a base implementation of a ne...">
<polygon fill="#ffffff" stroke="#000000" points="897,-219 897,-249 1102,-249 1102,-219 897,-219"/>
<text text-anchor="start" x="905" y="-237" font-family="Helvetica,sans-Serif" font-size="10.00" fill="#000000">gko::EnablePolymorphicObject</text>
<text text-anchor="middle" x="999.5" y="-226" font-family="Helvetica,sans-Serif" font-size="10.00" fill="#000000">&lt; ConcreteObject, PolymorphicBase &gt;</text>
</a>
</g>
</g>
<!-- Node13&#45;&gt;Node3 -->
<g id="edge9" class="edge">
<title>Node13&#45;&gt;Node3</title>
<path fill="none" stroke="#ffa500" stroke-dasharray="5,2" d="M1112.5859,-234.9179C1232.7055,-235.8929 1419.968,-237.4129 1528.8901,-238.297"/>
<polygon fill="#ffa500" stroke="#ffa500" points="1112.2859,-231.4155 1102.2577,-234.8341 1112.229,-238.4152 1112.2859,-231.4155"/>
<text text-anchor="start" x="1337" y="-262" font-family="Helvetica,sans-Serif" font-size="10.00" fill="#000000"> &lt; ScaledReordered&lt;</text>
<text text-anchor="start" x="1337" y="-251" font-family="Helvetica,sans-Serif" font-size="10.00" fill="#000000"> ValueType, IndexType</text>
<text text-anchor="middle" x="1391.5" y="-240" font-family="Helvetica,sans-Serif" font-size="10.00" fill="#000000"> &gt;, LinOp &gt;</text>
</g>
<!-- Node20 -->
<g id="node16" class="node">
<title>Node20</title>
<g id="a_node16"><a xlink:href="classgko_1_1EnablePolymorphicObject.html" target="_top" xlink:title=" ">
<polygon fill="#ffffff" stroke="#000000" points="1291,-156 1291,-186 1492,-186 1492,-156 1291,-156"/>
<text text-anchor="start" x="1299" y="-174" font-family="Helvetica,sans-Serif" font-size="10.00" fill="#000000">gko::EnablePolymorphicObject</text>
<text text-anchor="middle" x="1391.5" y="-163" font-family="Helvetica,sans-Serif" font-size="10.00" fill="#000000">&lt; ConcreteLinOp, PolymorphicBase &gt;</text>
</a>
</g>
</g>
<!-- Node13&#45;&gt;Node20 -->
<g id="edge23" class="edge">
<title>Node13&#45;&gt;Node20</title>
<path fill="none" stroke="#ffa500" stroke-dasharray="5,2" d="M1061.5139,-216.3453C1080.1962,-211.4884 1100.8305,-206.5787 1120,-203 1176.1034,-192.5263 1239.4049,-184.8315 1290.7633,-179.616"/>
<polygon fill="#ffa500" stroke="#ffa500" points="1060.4245,-213.013 1051.65,-218.9509 1062.2123,-219.7808 1060.4245,-213.013"/>
<text text-anchor="start" x="1120" y="-217" font-family="Helvetica,sans-Serif" font-size="10.00" fill="#000000"> &lt; ConcreteLinOp, Polymorphic</text>
<text text-anchor="middle" x="1196.5" y="-206" font-family="Helvetica,sans-Serif" font-size="10.00" fill="#000000">Base &gt;</text>
</g>
<!-- Node14&#45;&gt;Node13 -->
<g id="edge10" class="edge">
<title>Node14&#45;&gt;Node13</title>
<path fill="none" stroke="#191970" d="M740.2627,-234C789.979,-234 848.2706,-234 896.9737,-234"/>
<polygon fill="#191970" stroke="#191970" points="740.1154,-230.5001 730.1154,-234 740.1154,-237.5001 740.1154,-230.5001"/>
</g>
<!-- Node15 -->
<g id="node11" class="node">
<title>Node15</title>
<g id="a_node11"><a xlink:href="classgko_1_1EnablePolymorphicAssignment.html" target="_top" xlink:title=" ">
<polygon fill="#ffffff" stroke="#000000" points="1295.5,-33.5 1295.5,-74.5 1487.5,-74.5 1487.5,-33.5 1295.5,-33.5"/>
<text text-anchor="start" x="1303.5" y="-62.5" font-family="Helvetica,sans-Serif" font-size="10.00" fill="#000000">gko::EnablePolymorphicAssignment</text>
<text text-anchor="start" x="1303.5" y="-51.5" font-family="Helvetica,sans-Serif" font-size="10.00" fill="#000000">&lt; ScaledReordered&lt; ValueType,</text>
<text text-anchor="middle" x="1391.5" y="-40.5" font-family="Helvetica,sans-Serif" font-size="10.00" fill="#000000"> IndexType &gt; &gt;</text>
</a>
</g>
</g>
<!-- Node15&#45;&gt;Node2 -->
<g id="edge13" class="edge">
<title>Node15&#45;&gt;Node2</title>
<path fill="none" stroke="#191970" d="M1497.6663,-71.1796C1606.8144,-88.8418 1773.845,-115.8704 1868.8184,-131.2388"/>
<polygon fill="#191970" stroke="#191970" points="1498.0479,-67.6959 1487.6172,-69.5535 1496.9297,-74.6061 1498.0479,-67.6959"/>
</g>
<!-- Node16 -->
<g id="node12" class="node">
<title>Node16</title>
<g id="a_node12"><a xlink:href="classgko_1_1ConvertibleTo.html" target="_top" xlink:title=" ">
<polygon fill="#ffffff" stroke="#000000" points="913,-.5 913,-41.5 1086,-41.5 1086,-.5 913,-.5"/>
<text text-anchor="start" x="921" y="-29.5" font-family="Helvetica,sans-Serif" font-size="10.00" fill="#000000">gko::ConvertibleTo</text>
<text text-anchor="start" x="921" y="-18.5" font-family="Helvetica,sans-Serif" font-size="10.00" fill="#000000">&lt; ScaledReordered&lt; ValueType,</text>
<text text-anchor="middle" x="999.5" y="-7.5" font-family="Helvetica,sans-Serif" font-size="10.00" fill="#000000"> IndexType &gt; &gt;</text>
</a>
</g>
</g>
<!-- Node16&#45;&gt;Node15 -->
<g id="edge14" class="edge">
<title>Node16&#45;&gt;Node15</title>
<path fill="none" stroke="#191970" d="M1096.3511,-29.1533C1156.9595,-34.2555 1234.7388,-40.8033 1295.2359,-45.8961"/>
<polygon fill="#191970" stroke="#191970" points="1096.2697,-25.6341 1086.0113,-28.2828 1095.6825,-32.6095 1096.2697,-25.6341"/>
</g>
<!-- Node17 -->
<g id="node13" class="node">
<title>Node17</title>
<g id="a_node13"><a xlink:href="classgko_1_1ConvertibleTo.html" target="_top" xlink:title="ConvertibleTo interface is used to mark that the implementer can be converted to the object of Result...">
<polygon fill="#ffffff" stroke="#000000" points="576,-61 576,-91 683,-91 683,-61 576,-61"/>
<text text-anchor="start" x="584" y="-79" font-family="Helvetica,sans-Serif" font-size="10.00" fill="#000000">gko::ConvertibleTo</text>
<text text-anchor="middle" x="629.5" y="-68" font-family="Helvetica,sans-Serif" font-size="10.00" fill="#000000">&lt; ResultType &gt;</text>
</a>
</g>
</g>
<!-- Node17&#45;&gt;Node16 -->
<g id="edge15" class="edge">
<title>Node17&#45;&gt;Node16</title>
<path fill="none" stroke="#ffa500" stroke-dasharray="5,2" d="M693.4245,-60.7337C711.0395,-56.8662 730.1993,-52.9713 748,-50 802.516,-40.9002 864.1583,-33.7429 912.7718,-28.8154"/>
<polygon fill="#ffa500" stroke="#ffa500" points="692.2527,-57.4089 683.2535,-63.0004 693.7754,-64.2413 692.2527,-57.4089"/>
<text text-anchor="start" x="748" y="-64" font-family="Helvetica,sans-Serif" font-size="10.00" fill="#000000"> &lt; ScaledReordered&lt;</text>
<text text-anchor="middle" x="813.5" y="-53" font-family="Helvetica,sans-Serif" font-size="10.00" fill="#000000"> ValueType, IndexType &gt; &gt;</text>
</g>
<!-- Node18 -->
<g id="node14" class="node">
<title>Node18</title>
<g id="a_node14"><a xlink:href="classgko_1_1EnablePolymorphicAssignment.html" target="_top" xlink:title="This mixin is used to enable a default PolymorphicObject::copy_from() implementation for objects that...">
<polygon fill="#ffffff" stroke="#000000" points="903.5,-61 903.5,-91 1095.5,-91 1095.5,-61 903.5,-61"/>
<text text-anchor="start" x="911.5" y="-79" font-family="Helvetica,sans-Serif" font-size="10.00" fill="#000000">gko::EnablePolymorphicAssignment</text>
<text text-anchor="middle" x="999.5" y="-68" font-family="Helvetica,sans-Serif" font-size="10.00" fill="#000000">&lt; ConcreteType, ResultType &gt;</text>
</a>
</g>
</g>
<!-- Node17&#45;&gt;Node18 -->
<g id="edge17" class="edge">
<title>Node17&#45;&gt;Node18</title>
<path fill="none" stroke="#191970" d="M693.4007,-76C751.218,-76 837.1819,-76 903.3036,-76"/>
<polygon fill="#191970" stroke="#191970" points="693.3012,-72.5001 683.3012,-76 693.3011,-79.5001 693.3012,-72.5001"/>
</g>
<!-- Node23 -->
<g id="node19" class="node">
<title>Node23</title>
<g id="a_node19"><a xlink:href="classgko_1_1ConvertibleTo.html" target="_top" xlink:title=" ">
<polygon fill="#ffffff" stroke="#000000" points="944.5,-110 944.5,-140 1054.5,-140 1054.5,-110 944.5,-110"/>
<text text-anchor="start" x="952.5" y="-128" font-family="Helvetica,sans-Serif" font-size="10.00" fill="#000000">gko::ConvertibleTo</text>
<text text-anchor="middle" x="999.5" y="-117" font-family="Helvetica,sans-Serif" font-size="10.00" fill="#000000">&lt; ConcreteLinOp &gt;</text>
</a>
</g>
</g>
<!-- Node17&#45;&gt;Node23 -->
<g id="edge26" class="edge">
<title>Node17&#45;&gt;Node23</title>
<path fill="none" stroke="#ffa500" stroke-dasharray="5,2" d="M693.437,-84.4673C764.2832,-93.8497 877.3582,-108.8245 944.4257,-117.7064"/>
<polygon fill="#ffa500" stroke="#ffa500" points="693.6742,-80.9683 683.3012,-83.125 692.7551,-87.9077 693.6742,-80.9683"/>
<text text-anchor="middle" x="813.5" y="-111" font-family="Helvetica,sans-Serif" font-size="10.00" fill="#000000"> &lt; ConcreteLinOp &gt;</text>
</g>
<!-- Node18&#45;&gt;Node15 -->
<g id="edge16" class="edge">
<title>Node18&#45;&gt;Node15</title>
<path fill="none" stroke="#ffa500" stroke-dasharray="5,2" d="M1084.1364,-59.3999C1096.134,-57.5877 1108.3493,-56.0292 1120,-55 1177.9868,-49.8774 1243.2118,-49.4646 1295.196,-50.4095"/>
<polygon fill="#ffa500" stroke="#ffa500" points="1083.4607,-55.9631 1074.1268,-60.9759 1084.5495,-62.8779 1083.4607,-55.9631"/>
<text text-anchor="start" x="1131" y="-69" font-family="Helvetica,sans-Serif" font-size="10.00" fill="#000000"> &lt; ScaledReordered&lt;</text>
<text text-anchor="middle" x="1196.5" y="-58" font-family="Helvetica,sans-Serif" font-size="10.00" fill="#000000"> ValueType, IndexType &gt; &gt;</text>
</g>
<!-- Node22 -->
<g id="node18" class="node">
<title>Node22</title>
<g id="a_node18"><a xlink:href="classgko_1_1EnablePolymorphicAssignment.html" target="_top" xlink:title=" ">
<polygon fill="#ffffff" stroke="#000000" points="1295.5,-107 1295.5,-137 1487.5,-137 1487.5,-107 1295.5,-107"/>
<text text-anchor="start" x="1303.5" y="-125" font-family="Helvetica,sans-Serif" font-size="10.00" fill="#000000">gko::EnablePolymorphicAssignment</text>
<text text-anchor="middle" x="1391.5" y="-114" font-family="Helvetica,sans-Serif" font-size="10.00" fill="#000000">&lt; ConcreteLinOp &gt;</text>
</a>
</g>
</g>
<!-- Node18&#45;&gt;Node22 -->
<g id="edge27" class="edge">
<title>Node18&#45;&gt;Node22</title>
<path fill="none" stroke="#ffa500" stroke-dasharray="5,2" d="M1105.6818,-88.3953C1156.3404,-94.3162 1217.8051,-101.5106 1273,-108 1280.3039,-108.8587 1287.8608,-109.7485 1295.4602,-110.6442"/>
<polygon fill="#ffa500" stroke="#ffa500" points="1106.038,-84.9132 1095.6993,-87.2287 1105.2254,-91.8659 1106.038,-84.9132"/>
<text text-anchor="middle" x="1196.5" y="-111" font-family="Helvetica,sans-Serif" font-size="10.00" fill="#000000"> &lt; ConcreteLinOp &gt;</text>
</g>
<!-- Node19 -->
<g id="node15" class="node">
<title>Node19</title>
<g id="a_node15"><a xlink:href="classgko_1_1EnableLinOp.html" target="_top" xlink:title="The EnableLinOp mixin can be used to provide sensible default implementations of the majority of the ...">
<polygon fill="#ffffff" stroke="#000000" points="1537.5,-128 1537.5,-158 1693.5,-158 1693.5,-128 1537.5,-128"/>
<text text-anchor="start" x="1545.5" y="-146" font-family="Helvetica,sans-Serif" font-size="10.00" fill="#000000">gko::EnableLinOp&lt; Concrete</text>
<text text-anchor="middle" x="1615.5" y="-135" font-family="Helvetica,sans-Serif" font-size="10.00" fill="#000000">LinOp, PolymorphicBase &gt;</text>
</a>
</g>
</g>
<!-- Node19&#45;&gt;Node2 -->
<g id="edge18" class="edge">
<title>Node19&#45;&gt;Node2</title>
<path fill="none" stroke="#ffa500" stroke-dasharray="5,2" d="M1703.7506,-143C1755.4747,-143 1820.0169,-143 1868.7965,-143"/>
<polygon fill="#ffa500" stroke="#ffa500" points="1703.5852,-139.5001 1693.5851,-143 1703.5851,-146.5001 1703.5852,-139.5001"/>
<text text-anchor="start" x="1720" y="-157" font-family="Helvetica,sans-Serif" font-size="10.00" fill="#000000"> &lt; ScaledReordered&lt;</text>
<text text-anchor="middle" x="1785.5" y="-146" font-family="Helvetica,sans-Serif" font-size="10.00" fill="#000000"> ValueType, IndexType &gt; &gt;</text>
</g>
<!-- Node20&#45;&gt;Node19 -->
<g id="edge19" class="edge">
<title>Node20&#45;&gt;Node19</title>
<path fill="none" stroke="#191970" d="M1502.0613,-157.1798C1514.0194,-155.6851 1525.9995,-154.1876 1537.456,-152.7555"/>
<polygon fill="#191970" stroke="#191970" points="1501.5221,-153.7199 1492.0335,-158.4333 1502.3904,-160.6658 1501.5221,-153.7199"/>
</g>
<!-- Node21&#45;&gt;Node20 -->
<g id="edge20" class="edge">
<title>Node21&#45;&gt;Node20</title>
<path fill="none" stroke="#191970" d="M738.7681,-169.2868C886.4134,-169.6743 1147.5749,-170.3598 1290.7167,-170.7355"/>
<polygon fill="#191970" stroke="#191970" points="738.3462,-165.7858 728.337,-169.2594 738.3277,-172.7857 738.3462,-165.7858"/>
</g>
<!-- Node22&#45;&gt;Node19 -->
<g id="edge24" class="edge">
<title>Node22&#45;&gt;Node19</title>
<path fill="none" stroke="#191970" d="M1497.885,-131.9736C1511.121,-133.2145 1524.4618,-134.4652 1537.1655,-135.6561"/>
<polygon fill="#191970" stroke="#191970" points="1498.0792,-128.4765 1487.7961,-131.0278 1497.4258,-135.446 1498.0792,-128.4765"/>
</g>
<!-- Node23&#45;&gt;Node22 -->
<g id="edge25" class="edge">
<title>Node23&#45;&gt;Node22</title>
<path fill="none" stroke="#191970" d="M1065.0239,-124.4985C1127.9342,-124.0171 1223.7021,-123.2842 1295.2698,-122.7365"/>
<polygon fill="#191970" stroke="#191970" points="1064.8055,-121 1054.8326,-124.5765 1064.8591,-127.9998 1064.8055,-121"/>
</g>
</g>
</svg>
