<?xml version="1.0" encoding="UTF-8" standalone="no"?>
<!DOCTYPE svg PUBLIC "-//W3C//DTD SVG 1.1//EN"
 "http://www.w3.org/Graphics/SVG/1.1/DTD/svg11.dtd">
<!-- Generated by graphviz version 2.40.1 (20161225.0304)
 -->
<!-- Title: gko::solver::Bicg&lt; ValueType &gt; Pages: 1 -->
<!--zoomable 576 -->
<svg id="main" version="1.1" xmlns="http://www.w3.org/2000/svg" xmlns:xlink="http://www.w3.org/1999/xlink" xml:space="preserve" onload="init(evt)">
<style type="text/css"><![CDATA[
.edge:hover path { stroke: red; }
.edge:hover polygon { stroke: red; fill: red; }
]]></style>
<script type="text/javascript"><![CDATA[
var edges = document.getElementsByTagName('g');
if (edges && edges.length) {
  for (var i=0;i<edges.length;i++) {
    if (edges[i].id.substr(0,4)=='edge') {
      edges[i].setAttribute('class','edge');
    }
  }
}
]]></script>
        <defs>
                <circle id="rim" cx="0" cy="0" r="7"/>
                <circle id="rim2" cx="0" cy="0" r="3.5"/>
                <g id="zoomPlus">
                        <use xlink:href="#rim" fill="#404040">
                                <set attributeName="fill" to="#808080" begin="zoomplus.mouseover" end="zoomplus.mouseout"/>
                        </use>
                        <path d="M-4,0h8M0,-4v8" fill="none" stroke="white" stroke-width="1.5" pointer-events="none"/>
                </g>
                <g id="zoomMin">
                        <use xlink:href="#rim" fill="#404040">
                                <set attributeName="fill" to="#808080" begin="zoomminus.mouseover" end="zoomminus.mouseout"/>
                        </use>
                        <path d="M-4,0h8" fill="none" stroke="white" stroke-width="1.5" pointer-events="none"/>
                </g>
                <g id="dirArrow">
                        <path fill="none" stroke="white" stroke-width="1.5" d="M0,-3.0v7 M-2.5,-0.5L0,-3.0L2.5,-0.5"/>
                </g>
               <g id="resetDef">
                       <use xlink:href="#rim2" fill="#404040">
                               <set attributeName="fill" to="#808080" begin="reset.mouseover" end="reset.mouseout"/>
                       </use>
               </g>
        </defs>

<script type="text/javascript">
var viewWidth = 2314;
var viewHeight = 576;
var sectionId = 'dynsection-0';
</script>
<script xlink:href="svgpan.js"/>
<svg id="graph" class="graph">
<g id="viewport">
<title>gko::solver::Bicg&lt; ValueType &gt;</title>
<polygon fill="#ffffff" stroke="transparent" points="-4,4 -4,-572 2310,-572 2310,4 -4,4"/>
<!-- Node1 -->
<g id="node1" class="node">
<title>Node1</title>
<g id="a_node1"><a xlink:title="BICG or the Biconjugate gradient method is a Krylov subspace solver.">
<polygon fill="#bfbfbf" stroke="#000000" points="2200,-156 2200,-186 2306,-186 2306,-156 2200,-156"/>
<text text-anchor="start" x="2208" y="-174" font-family="Helvetica,sans-Serif" font-size="10.00" fill="#000000">gko::solver::Bicg&lt;</text>
<text text-anchor="middle" x="2253" y="-163" font-family="Helvetica,sans-Serif" font-size="10.00" fill="#000000"> ValueType &gt;</text>
</a>
</g>
</g>
<!-- Node2 -->
<g id="node2" class="node">
<title>Node2</title>
<g id="a_node2"><a xlink:href="classgko_1_1EnableLinOp.html" target="_top" xlink:title=" ">
<polygon fill="#ffffff" stroke="#000000" points="2005,-316 2005,-346 2139,-346 2139,-316 2005,-316"/>
<text text-anchor="start" x="2013" y="-334" font-family="Helvetica,sans-Serif" font-size="10.00" fill="#000000">gko::EnableLinOp&lt; Bicg</text>
<text text-anchor="middle" x="2072" y="-323" font-family="Helvetica,sans-Serif" font-size="10.00" fill="#000000">&lt; ValueType &gt; &gt;</text>
</a>
</g>
</g>
<!-- Node2&#45;&gt;Node1 -->
<g id="edge1" class="edge">
<title>Node2&#45;&gt;Node1</title>
<path fill="none" stroke="#191970" d="M2096.9168,-308.9741C2134.2508,-275.9717 2203.7466,-214.5389 2235.8854,-186.129"/>
<polygon fill="#191970" stroke="#191970" points="2094.2023,-306.7022 2089.028,-315.9476 2098.8385,-311.9468 2094.2023,-306.7022"/>
</g>
<!-- Node3 -->
<g id="node3" class="node">
<title>Node3</title>
<g id="a_node3"><a xlink:href="classgko_1_1EnablePolymorphicObject.html" target="_top" xlink:title=" ">
<polygon fill="#ffffff" stroke="#000000" points="1647.5,-454 1647.5,-484 1813.5,-484 1813.5,-454 1647.5,-454"/>
<text text-anchor="start" x="1655.5" y="-472" font-family="Helvetica,sans-Serif" font-size="10.00" fill="#000000">gko::EnablePolymorphicObject</text>
<text text-anchor="middle" x="1730.5" y="-461" font-family="Helvetica,sans-Serif" font-size="10.00" fill="#000000">&lt; Bicg&lt; ValueType &gt;, LinOp &gt;</text>
</a>
</g>
</g>
<!-- Node3&#45;&gt;Node2 -->
<g id="edge2" class="edge">
<title>Node3&#45;&gt;Node2</title>
<path fill="none" stroke="#191970" d="M1777.382,-450.055C1845.9646,-422.3408 1972.2691,-371.3012 2034.8493,-346.0126"/>
<polygon fill="#191970" stroke="#191970" points="1775.6568,-446.9771 1767.6966,-453.9689 1778.2795,-453.4672 1775.6568,-446.9771"/>
</g>
<!-- Node4 -->
<g id="node4" class="node">
<title>Node4</title>
<g id="a_node4"><a xlink:href="classgko_1_1EnableAbstractPolymorphicObject.html" target="_top" xlink:title=" ">
<polygon fill="#ffffff" stroke="#000000" points="1292,-509.5 1292,-550.5 1467,-550.5 1467,-509.5 1292,-509.5"/>
<text text-anchor="start" x="1300" y="-538.5" font-family="Helvetica,sans-Serif" font-size="10.00" fill="#000000">gko::EnableAbstractPolymorphic</text>
<text text-anchor="start" x="1300" y="-527.5" font-family="Helvetica,sans-Serif" font-size="10.00" fill="#000000">Object&lt; Bicg&lt; ValueType &gt;</text>
<text text-anchor="middle" x="1379.5" y="-516.5" font-family="Helvetica,sans-Serif" font-size="10.00" fill="#000000">, LinOp &gt;</text>
</a>
</g>
</g>
<!-- Node4&#45;&gt;Node3 -->
<g id="edge3" class="edge">
<title>Node4&#45;&gt;Node3</title>
<path fill="none" stroke="#191970" d="M1477.3446,-512.9957C1530.798,-503.706 1596.2902,-492.3242 1647.2684,-483.4648"/>
<polygon fill="#191970" stroke="#191970" points="1476.4197,-509.6039 1467.1667,-514.7645 1477.6183,-516.5005 1476.4197,-509.6039"/>
</g>
<!-- Node5 -->
<g id="node5" class="node">
<title>Node5</title>
<g id="a_node5"><a xlink:href="classgko_1_1LinOp.html" target="_top" xlink:title=" ">
<polygon fill="#ffffff" stroke="#000000" points="953.5,-516.5 953.5,-535.5 1021.5,-535.5 1021.5,-516.5 953.5,-516.5"/>
<text text-anchor="middle" x="987.5" y="-523.5" font-family="Helvetica,sans-Serif" font-size="10.00" fill="#000000">gko::LinOp</text>
</a>
</g>
</g>
<!-- Node5&#45;&gt;Node4 -->
<g id="edge4" class="edge">
<title>Node5&#45;&gt;Node4</title>
<path fill="none" stroke="#191970" d="M1031.9667,-526.4537C1094.8762,-527.0957 1211.1665,-528.2823 1291.805,-529.1052"/>
<polygon fill="#191970" stroke="#191970" points="1031.6369,-522.9503 1021.6017,-526.348 1031.5654,-529.9499 1031.6369,-522.9503"/>
</g>
<!-- Node6 -->
<g id="node6" class="node">
<title>Node6</title>
<g id="a_node6"><a xlink:href="classgko_1_1EnableAbstractPolymorphicObject.html" target="_top" xlink:title=" ">
<polygon fill="#ffffff" stroke="#ff0000" points="542,-506 542,-536 717,-536 717,-506 542,-506"/>
<text text-anchor="start" x="550" y="-524" font-family="Helvetica,sans-Serif" font-size="10.00" fill="#000000">gko::EnableAbstractPolymorphic</text>
<text text-anchor="middle" x="629.5" y="-513" font-family="Helvetica,sans-Serif" font-size="10.00" fill="#000000">Object&lt; LinOp &gt;</text>
</a>
</g>
</g>
<!-- Node6&#45;&gt;Node5 -->
<g id="edge5" class="edge">
<title>Node6&#45;&gt;Node5</title>
<path fill="none" stroke="#191970" d="M727.518,-522.369C802.7046,-523.4191 902.0446,-524.8065 953.4368,-525.5243"/>
<polygon fill="#191970" stroke="#191970" points="727.1246,-518.8632 717.0767,-522.2231 727.0268,-525.8625 727.1246,-518.8632"/>
</g>
<!-- Node12 -->
<g id="node7" class="node">
<title>Node12</title>
<g id="a_node7"><a xlink:href="classgko_1_1EnableAbstractPolymorphicObject.html" target="_top" xlink:title="This mixin inherits from (a subclass of) PolymorphicObject and provides a base implementation of a ne...">
<polygon fill="#ffffff" stroke="#000000" points="138,-480.5 138,-521.5 336,-521.5 336,-480.5 138,-480.5"/>
<text text-anchor="start" x="146" y="-509.5" font-family="Helvetica,sans-Serif" font-size="10.00" fill="#000000">gko::EnableAbstractPolymorphic</text>
<text text-anchor="start" x="146" y="-498.5" font-family="Helvetica,sans-Serif" font-size="10.00" fill="#000000">Object&lt; AbstractObject, Polymorphic</text>
<text text-anchor="middle" x="237" y="-487.5" font-family="Helvetica,sans-Serif" font-size="10.00" fill="#000000">Base &gt;</text>
</a>
</g>
</g>
<!-- Node12&#45;&gt;Node4 -->
<g id="edge8" class="edge">
<title>Node12&#45;&gt;Node4</title>
<path fill="none" stroke="#ffa500" stroke-dasharray="5,2" d="M322.7837,-523.8382C333.2505,-526.1576 343.8353,-528.2858 354,-530 431.0147,-542.988 450.979,-542.4407 529,-546 564.8893,-547.6372 957.0413,-546.3509 1090,-545 1166.0078,-544.2277 1185.1216,-546.4997 1261,-542 1271.0113,-541.4063 1281.4825,-540.6069 1291.8801,-539.7009"/>
<polygon fill="#ffa500" stroke="#ffa500" points="323.33,-520.373 312.8022,-521.5631 321.7743,-527.198 323.33,-520.373"/>
<text text-anchor="start" x="753.5" y="-560" font-family="Helvetica,sans-Serif" font-size="10.00" fill="#000000"> &lt; Bicg&lt; ValueType &gt;</text>
<text text-anchor="middle" x="807.5" y="-549" font-family="Helvetica,sans-Serif" font-size="10.00" fill="#000000">, LinOp &gt;</text>
</g>
<!-- Node12&#45;&gt;Node6 -->
<g id="edge6" class="edge">
<title>Node12&#45;&gt;Node6</title>
<path fill="none" stroke="#ffa500" stroke-dasharray="5,2" d="M346.3159,-507.5838C348.902,-507.7255 351.4664,-507.8644 354,-508 416.7568,-511.3579 487.5803,-514.6897 541.703,-517.1396"/>
<polygon fill="#ffa500" stroke="#ffa500" points="346.4309,-504.0848 336.2522,-507.0249 346.0427,-511.0741 346.4309,-504.0848"/>
<text text-anchor="middle" x="432.5" y="-518" font-family="Helvetica,sans-Serif" font-size="10.00" fill="#000000"> &lt; LinOp &gt;</text>
</g>
<!-- Node14 -->
<g id="node10" class="node">
<title>Node14</title>
<g id="a_node10"><a xlink:href="classgko_1_1EnableAbstractPolymorphicObject.html" target="_top" xlink:title=" ">
<polygon fill="#ffffff" stroke="#000000" points="529,-443.5 529,-484.5 730,-484.5 730,-443.5 529,-443.5"/>
<text text-anchor="start" x="537" y="-472.5" font-family="Helvetica,sans-Serif" font-size="10.00" fill="#000000">gko::EnableAbstractPolymorphic</text>
<text text-anchor="start" x="537" y="-461.5" font-family="Helvetica,sans-Serif" font-size="10.00" fill="#000000">Object&lt; ConcreteObject, Polymorphic</text>
<text text-anchor="middle" x="629.5" y="-450.5" font-family="Helvetica,sans-Serif" font-size="10.00" fill="#000000">Base &gt;</text>
</a>
</g>
</g>
<!-- Node12&#45;&gt;Node14 -->
<g id="edge12" class="edge">
<title>Node12&#45;&gt;Node14</title>
<path fill="none" stroke="#ffa500" stroke-dasharray="5,2" d="M346.2728,-482.9171C348.8718,-482.5961 351.4505,-482.2896 354,-482 411.7459,-475.44 476.5935,-471.0562 528.8616,-468.2587"/>
<polygon fill="#ffa500" stroke="#ffa500" points="345.6355,-479.4703 336.1662,-484.2224 346.5322,-486.4126 345.6355,-479.4703"/>
<text text-anchor="start" x="354" y="-496" font-family="Helvetica,sans-Serif" font-size="10.00" fill="#000000"> &lt; ConcreteObject, Polymorphic</text>
<text text-anchor="middle" x="432.5" y="-485" font-family="Helvetica,sans-Serif" font-size="10.00" fill="#000000">Base &gt;</text>
</g>
<!-- Node21 -->
<g id="node17" class="node">
<title>Node21</title>
<g id="a_node17"><a xlink:href="classgko_1_1EnableAbstractPolymorphicObject.html" target="_top" xlink:title=" ">
<polygon fill="#ffffff" stroke="#000000" points="531,-378.5 531,-419.5 728,-419.5 728,-378.5 531,-378.5"/>
<text text-anchor="start" x="539" y="-407.5" font-family="Helvetica,sans-Serif" font-size="10.00" fill="#000000">gko::EnableAbstractPolymorphic</text>
<text text-anchor="start" x="539" y="-396.5" font-family="Helvetica,sans-Serif" font-size="10.00" fill="#000000">Object&lt; ConcreteLinOp, Polymorphic</text>
<text text-anchor="middle" x="629.5" y="-385.5" font-family="Helvetica,sans-Serif" font-size="10.00" fill="#000000">Base &gt;</text>
</a>
</g>
</g>
<!-- Node12&#45;&gt;Node21 -->
<g id="edge22" class="edge">
<title>Node12&#45;&gt;Node21</title>
<path fill="none" stroke="#ffa500" stroke-dasharray="5,2" d="M280.2978,-475.6151C301.8104,-464.0335 328.5847,-451.1215 354,-443 411.2106,-424.7182 477.6361,-413.8236 530.9267,-407.4492"/>
<polygon fill="#ffa500" stroke="#ffa500" points="278.5078,-472.6049 271.4196,-480.4793 281.8713,-478.7439 278.5078,-472.6049"/>
<text text-anchor="start" x="356" y="-457" font-family="Helvetica,sans-Serif" font-size="10.00" fill="#000000"> &lt; ConcreteLinOp, Polymorphic</text>
<text text-anchor="middle" x="432.5" y="-446" font-family="Helvetica,sans-Serif" font-size="10.00" fill="#000000">Base &gt;</text>
</g>
<!-- Node11 -->
<g id="node8" class="node">
<title>Node11</title>
<g id="a_node8"><a xlink:title=" ">
<polygon fill="#ffffff" stroke="#bfbfbf" points="0,-442.5 0,-461.5 101,-461.5 101,-442.5 0,-442.5"/>
<text text-anchor="middle" x="50.5" y="-449.5" font-family="Helvetica,sans-Serif" font-size="10.00" fill="#000000">PolymorphicBase</text>
</a>
</g>
</g>
<!-- Node11&#45;&gt;Node12 -->
<g id="edge7" class="edge">
<title>Node11&#45;&gt;Node12</title>
<path fill="none" stroke="#191970" d="M96.6373,-464.1219C115.3596,-469.0409 137.5184,-474.8628 158.6324,-480.4101"/>
<polygon fill="#191970" stroke="#191970" points="97.463,-460.7201 86.9018,-461.564 95.6842,-467.4903 97.463,-460.7201"/>
</g>
<!-- Node11&#45;&gt;Node14 -->
<g id="edge11" class="edge">
<title>Node11&#45;&gt;Node14</title>
<path fill="none" stroke="#191970" d="M111.2841,-453.2598C210.5662,-455.3174 408.5048,-459.4198 528.9546,-461.9162"/>
<polygon fill="#191970" stroke="#191970" points="111.1924,-449.7572 101.122,-453.0492 111.0473,-456.7557 111.1924,-449.7572"/>
</g>
<!-- Node11&#45;&gt;Node21 -->
<g id="edge21" class="edge">
<title>Node11&#45;&gt;Node21</title>
<path fill="none" stroke="#191970" d="M110.3244,-440.6707C171.3459,-429.6489 268.8885,-413.5016 354,-406 412.5033,-400.8436 478.2438,-399.0227 530.8305,-398.5242"/>
<polygon fill="#191970" stroke="#191970" points="109.6932,-437.228 100.4812,-442.4614 110.9462,-444.1149 109.6932,-437.228"/>
</g>
<!-- Node13 -->
<g id="node9" class="node">
<title>Node13</title>
<g id="a_node9"><a xlink:href="classgko_1_1EnablePolymorphicObject.html" target="_top" xlink:title="This mixin inherits from (a subclass of) PolymorphicObject and provides a base implementation of a ne...">
<polygon fill="#ffffff" stroke="#000000" points="885,-449 885,-479 1090,-479 1090,-449 885,-449"/>
<text text-anchor="start" x="893" y="-467" font-family="Helvetica,sans-Serif" font-size="10.00" fill="#000000">gko::EnablePolymorphicObject</text>
<text text-anchor="middle" x="987.5" y="-456" font-family="Helvetica,sans-Serif" font-size="10.00" fill="#000000">&lt; ConcreteObject, PolymorphicBase &gt;</text>
</a>
</g>
</g>
<!-- Node13&#45;&gt;Node3 -->
<g id="edge9" class="edge">
<title>Node13&#45;&gt;Node3</title>
<path fill="none" stroke="#ffa500" stroke-dasharray="5,2" d="M1100.2206,-464.7586C1250.6731,-465.771 1513.6474,-467.5407 1647.3485,-468.4404"/>
<polygon fill="#ffa500" stroke="#ffa500" points="1100.0542,-461.2574 1090.0309,-464.69 1100.0071,-468.2573 1100.0542,-461.2574"/>
<text text-anchor="start" x="1325.5" y="-481" font-family="Helvetica,sans-Serif" font-size="10.00" fill="#000000"> &lt; Bicg&lt; ValueType &gt;</text>
<text text-anchor="middle" x="1379.5" y="-470" font-family="Helvetica,sans-Serif" font-size="10.00" fill="#000000">, LinOp &gt;</text>
</g>
<!-- Node20 -->
<g id="node16" class="node">
<title>Node20</title>
<g id="a_node16"><a xlink:href="classgko_1_1EnablePolymorphicObject.html" target="_top" xlink:title=" ">
<polygon fill="#ffffff" stroke="#000000" points="1279,-384 1279,-414 1480,-414 1480,-384 1279,-384"/>
<text text-anchor="start" x="1287" y="-402" font-family="Helvetica,sans-Serif" font-size="10.00" fill="#000000">gko::EnablePolymorphicObject</text>
<text text-anchor="middle" x="1379.5" y="-391" font-family="Helvetica,sans-Serif" font-size="10.00" fill="#000000">&lt; ConcreteLinOp, PolymorphicBase &gt;</text>
</a>
</g>
</g>
<!-- Node13&#45;&gt;Node20 -->
<g id="edge23" class="edge">
<title>Node13&#45;&gt;Node20</title>
<path fill="none" stroke="#ffa500" stroke-dasharray="5,2" d="M1049.7937,-446.3644C1068.4068,-441.5322 1088.9335,-436.6311 1108,-433 1164.1145,-422.3133 1227.4166,-414.1644 1278.7727,-408.5271"/>
<polygon fill="#ffa500" stroke="#ffa500" points="1048.7408,-443.0223 1039.963,-448.9553 1050.5248,-449.7911 1048.7408,-443.0223"/>
<text text-anchor="start" x="1108" y="-447" font-family="Helvetica,sans-Serif" font-size="10.00" fill="#000000"> &lt; ConcreteLinOp, Polymorphic</text>
<text text-anchor="middle" x="1184.5" y="-436" font-family="Helvetica,sans-Serif" font-size="10.00" fill="#000000">Base &gt;</text>
</g>
<!-- Node14&#45;&gt;Node13 -->
<g id="edge10" class="edge">
<title>Node14&#45;&gt;Node13</title>
<path fill="none" stroke="#191970" d="M740.2058,-464C786.3205,-464 839.5493,-464 884.7833,-464"/>
<polygon fill="#191970" stroke="#191970" points="740.1757,-460.5001 730.1757,-464 740.1756,-467.5001 740.1757,-460.5001"/>
</g>
<!-- Node15 -->
<g id="node11" class="node">
<title>Node15</title>
<g id="a_node11"><a xlink:href="classgko_1_1EnablePolymorphicAssignment.html" target="_top" xlink:title=" ">
<polygon fill="#ffffff" stroke="#000000" points="1283.5,-334 1283.5,-364 1475.5,-364 1475.5,-334 1283.5,-334"/>
<text text-anchor="start" x="1291.5" y="-352" font-family="Helvetica,sans-Serif" font-size="10.00" fill="#000000">gko::EnablePolymorphicAssignment</text>
<text text-anchor="middle" x="1379.5" y="-341" font-family="Helvetica,sans-Serif" font-size="10.00" fill="#000000">&lt; Bicg&lt; ValueType &gt; &gt;</text>
</a>
</g>
</g>
<!-- Node15&#45;&gt;Node2 -->
<g id="edge13" class="edge">
<title>Node15&#45;&gt;Node2</title>
<path fill="none" stroke="#191970" d="M1485.5605,-346.8595C1602.4969,-344.4053 1796.1845,-340.0618 1963,-335 1976.5333,-334.5893 1991.0097,-334.0961 2004.8467,-333.5983"/>
<polygon fill="#191970" stroke="#191970" points="1485.4587,-343.3608 1475.5341,-347.0693 1485.6051,-350.3593 1485.4587,-343.3608"/>
</g>
<!-- Node16 -->
<g id="node12" class="node">
<title>Node16</title>
<g id="a_node12"><a xlink:href="classgko_1_1ConvertibleTo.html" target="_top" xlink:title=" ">
<polygon fill="#ffffff" stroke="#000000" points="921.5,-340 921.5,-370 1053.5,-370 1053.5,-340 921.5,-340"/>
<text text-anchor="start" x="929.5" y="-358" font-family="Helvetica,sans-Serif" font-size="10.00" fill="#000000">gko::ConvertibleTo</text>
<text text-anchor="middle" x="987.5" y="-347" font-family="Helvetica,sans-Serif" font-size="10.00" fill="#000000">&lt; Bicg&lt; ValueType &gt; &gt;</text>
</a>
</g>
</g>
<!-- Node16&#45;&gt;Node15 -->
<g id="edge14" class="edge">
<title>Node16&#45;&gt;Node15</title>
<path fill="none" stroke="#191970" d="M1063.7763,-353.8325C1126.5091,-352.8723 1215.7662,-351.5061 1283.3811,-350.4712"/>
<polygon fill="#191970" stroke="#191970" points="1063.4994,-350.3362 1053.5542,-353.989 1063.6066,-357.3354 1063.4994,-350.3362"/>
</g>
<!-- Node17 -->
<g id="node13" class="node">
<title>Node17</title>
<g id="a_node13"><a xlink:href="classgko_1_1ConvertibleTo.html" target="_top" xlink:title="ConvertibleTo interface is used to mark that the implementer can be converted to the object of Result...">
<polygon fill="#ffffff" stroke="#000000" points="576,-291 576,-321 683,-321 683,-291 576,-291"/>
<text text-anchor="start" x="584" y="-309" font-family="Helvetica,sans-Serif" font-size="10.00" fill="#000000">gko::ConvertibleTo</text>
<text text-anchor="middle" x="629.5" y="-298" font-family="Helvetica,sans-Serif" font-size="10.00" fill="#000000">&lt; ResultType &gt;</text>
</a>
</g>
</g>
<!-- Node17&#45;&gt;Node16 -->
<g id="edge15" class="edge">
<title>Node17&#45;&gt;Node16</title>
<path fill="none" stroke="#ffa500" stroke-dasharray="5,2" d="M693.1014,-314.7052C757.3567,-323.4999 856.1918,-337.0277 921.345,-345.9453"/>
<polygon fill="#ffa500" stroke="#ffa500" points="693.4785,-311.2243 683.0962,-313.3358 692.5292,-318.1596 693.4785,-311.2243"/>
<text text-anchor="middle" x="807.5" y="-340" font-family="Helvetica,sans-Serif" font-size="10.00" fill="#000000"> &lt; Bicg&lt; ValueType &gt; &gt;</text>
</g>
<!-- Node18 -->
<g id="node14" class="node">
<title>Node18</title>
<g id="a_node14"><a xlink:href="classgko_1_1EnablePolymorphicAssignment.html" target="_top" xlink:title="This mixin is used to enable a default PolymorphicObject::copy_from() implementation for objects that...">
<polygon fill="#ffffff" stroke="#000000" points="891.5,-291 891.5,-321 1083.5,-321 1083.5,-291 891.5,-291"/>
<text text-anchor="start" x="899.5" y="-309" font-family="Helvetica,sans-Serif" font-size="10.00" fill="#000000">gko::EnablePolymorphicAssignment</text>
<text text-anchor="middle" x="987.5" y="-298" font-family="Helvetica,sans-Serif" font-size="10.00" fill="#000000">&lt; ConcreteType, ResultType &gt;</text>
</a>
</g>
</g>
<!-- Node17&#45;&gt;Node18 -->
<g id="edge17" class="edge">
<title>Node17&#45;&gt;Node18</title>
<path fill="none" stroke="#191970" d="M693.4065,-306C748.4132,-306 828.5969,-306 891.3502,-306"/>
<polygon fill="#191970" stroke="#191970" points="693.0963,-302.5001 683.0962,-306 693.0962,-309.5001 693.0963,-302.5001"/>
</g>
<!-- Node23 -->
<g id="node19" class="node">
<title>Node23</title>
<g id="a_node19"><a xlink:href="classgko_1_1ConvertibleTo.html" target="_top" xlink:title=" ">
<polygon fill="#ffffff" stroke="#000000" points="932.5,-242 932.5,-272 1042.5,-272 1042.5,-242 932.5,-242"/>
<text text-anchor="start" x="940.5" y="-260" font-family="Helvetica,sans-Serif" font-size="10.00" fill="#000000">gko::ConvertibleTo</text>
<text text-anchor="middle" x="987.5" y="-249" font-family="Helvetica,sans-Serif" font-size="10.00" fill="#000000">&lt; ConcreteLinOp &gt;</text>
</a>
</g>
</g>
<!-- Node17&#45;&gt;Node23 -->
<g id="edge26" class="edge">
<title>Node17&#45;&gt;Node23</title>
<path fill="none" stroke="#ffa500" stroke-dasharray="5,2" d="M693.2524,-297.2741C761.2521,-287.9669 867.8548,-273.376 932.3593,-264.5472"/>
<polygon fill="#ffa500" stroke="#ffa500" points="692.5292,-293.8404 683.0962,-298.6642 693.4785,-300.7757 692.5292,-293.8404"/>
<text text-anchor="middle" x="807.5" y="-291" font-family="Helvetica,sans-Serif" font-size="10.00" fill="#000000"> &lt; ConcreteLinOp &gt;</text>
</g>
<!-- Node18&#45;&gt;Node15 -->
<g id="edge16" class="edge">
<title>Node18&#45;&gt;Node15</title>
<path fill="none" stroke="#ffa500" stroke-dasharray="5,2" d="M1093.7108,-316.9634C1144.3757,-322.2695 1205.8374,-328.8172 1261,-335 1268.3084,-335.8192 1275.8686,-336.6803 1283.4703,-337.5562"/>
<polygon fill="#ffa500" stroke="#ffa500" points="1094.0366,-313.4785 1083.7268,-315.9192 1093.3084,-320.4405 1094.0366,-313.4785"/>
<text text-anchor="middle" x="1184.5" y="-338" font-family="Helvetica,sans-Serif" font-size="10.00" fill="#000000"> &lt; Bicg&lt; ValueType &gt; &gt;</text>
</g>
<!-- Node22 -->
<g id="node18" class="node">
<title>Node22</title>
<g id="a_node18"><a xlink:href="classgko_1_1EnablePolymorphicAssignment.html" target="_top" xlink:title=" ">
<polygon fill="#ffffff" stroke="#000000" points="1283.5,-281 1283.5,-311 1475.5,-311 1475.5,-281 1283.5,-281"/>
<text text-anchor="start" x="1291.5" y="-299" font-family="Helvetica,sans-Serif" font-size="10.00" fill="#000000">gko::EnablePolymorphicAssignment</text>
<text text-anchor="middle" x="1379.5" y="-288" font-family="Helvetica,sans-Serif" font-size="10.00" fill="#000000">&lt; ConcreteLinOp &gt;</text>
</a>
</g>
</g>
<!-- Node18&#45;&gt;Node22 -->
<g id="edge27" class="edge">
<title>Node18&#45;&gt;Node22</title>
<path fill="none" stroke="#ffa500" stroke-dasharray="5,2" d="M1094.1315,-297.6297C1098.8164,-297.3901 1103.4554,-297.1779 1108,-297 1166.1681,-294.7235 1231.3995,-294.4107 1283.3417,-294.6968"/>
<polygon fill="#ffa500" stroke="#ffa500" points="1093.6142,-294.1528 1083.8209,-298.1951 1093.9975,-301.1423 1093.6142,-294.1528"/>
<text text-anchor="middle" x="1184.5" y="-300" font-family="Helvetica,sans-Serif" font-size="10.00" fill="#000000"> &lt; ConcreteLinOp &gt;</text>
</g>
<!-- Node19 -->
<g id="node15" class="node">
<title>Node19</title>
<g id="a_node15"><a xlink:href="classgko_1_1EnableLinOp.html" target="_top" xlink:title="The EnableLinOp mixin can be used to provide sensible default implementations of the majority of the ...">
<polygon fill="#ffffff" stroke="#000000" points="1652.5,-290 1652.5,-320 1808.5,-320 1808.5,-290 1652.5,-290"/>
<text text-anchor="start" x="1660.5" y="-308" font-family="Helvetica,sans-Serif" font-size="10.00" fill="#000000">gko::EnableLinOp&lt; Concrete</text>
<text text-anchor="middle" x="1730.5" y="-297" font-family="Helvetica,sans-Serif" font-size="10.00" fill="#000000">LinOp, PolymorphicBase &gt;</text>
</a>
</g>
</g>
<!-- Node19&#45;&gt;Node2 -->
<g id="edge18" class="edge">
<title>Node19&#45;&gt;Node2</title>
<path fill="none" stroke="#ffa500" stroke-dasharray="5,2" d="M1819.115,-311.7467C1877.1645,-316.1663 1951.8396,-321.8516 2004.9587,-325.8958"/>
<polygon fill="#ffa500" stroke="#ffa500" points="1819.0839,-308.2343 1808.847,-310.9649 1818.5524,-315.2141 1819.0839,-308.2343"/>
<text text-anchor="middle" x="1903.5" y="-325" font-family="Helvetica,sans-Serif" font-size="10.00" fill="#000000"> &lt; Bicg&lt; ValueType &gt; &gt;</text>
</g>
<!-- Node20&#45;&gt;Node19 -->
<g id="edge19" class="edge">
<title>Node20&#45;&gt;Node19</title>
<path fill="none" stroke="#191970" d="M1450.725,-381.5165C1460.5692,-379.0317 1470.5429,-376.4783 1480,-374 1548.29,-356.104 1626.7022,-334.3018 1677.3391,-320.0575"/>
<polygon fill="#191970" stroke="#191970" points="1449.7935,-378.1416 1440.9479,-383.973 1451.4993,-384.9306 1449.7935,-378.1416"/>
</g>
<!-- Node21&#45;&gt;Node20 -->
<g id="edge20" class="edge">
<title>Node21&#45;&gt;Node20</title>
<path fill="none" stroke="#191970" d="M738.5775,-399C883.7034,-399 1138.2868,-399 1278.9633,-399"/>
<polygon fill="#191970" stroke="#191970" points="738.3207,-395.5001 728.3206,-399 738.3206,-402.5001 738.3207,-395.5001"/>
</g>
<!-- Node22&#45;&gt;Node19 -->
<g id="edge24" class="edge">
<title>Node22&#45;&gt;Node19</title>
<path fill="none" stroke="#191970" d="M1486.099,-298.7333C1539.6605,-300.1067 1603.4001,-301.741 1652.3552,-302.9963"/>
<polygon fill="#191970" stroke="#191970" points="1485.963,-295.2288 1475.8766,-298.4712 1485.7835,-302.2265 1485.963,-295.2288"/>
</g>
<!-- Node23&#45;&gt;Node22 -->
<g id="edge25" class="edge">
<title>Node23&#45;&gt;Node22</title>
<path fill="none" stroke="#191970" d="M1053.0239,-263.519C1115.9342,-269.7779 1211.7021,-279.3058 1283.2698,-286.4261"/>
<polygon fill="#191970" stroke="#191970" points="1053.13,-260.0123 1042.8326,-262.505 1052.437,-266.9779 1053.13,-260.0123"/>
</g>
<!-- Node24 -->
<g id="node20" class="node">
<title>Node24</title>
<g id="a_node20"><a xlink:href="classgko_1_1solver_1_1EnablePreconditionedIterativeSolver.html" target="_top" xlink:title=" ">
<polygon fill="#ffffff" stroke="#000000" points="1981,-150.5 1981,-191.5 2163,-191.5 2163,-150.5 1981,-150.5"/>
<text text-anchor="start" x="1989" y="-179.5" font-family="Helvetica,sans-Serif" font-size="10.00" fill="#000000">gko::solver::EnablePreconditioned</text>
<text text-anchor="start" x="1989" y="-168.5" font-family="Helvetica,sans-Serif" font-size="10.00" fill="#000000">IterativeSolver&lt; ValueType,</text>
<text text-anchor="middle" x="2072" y="-157.5" font-family="Helvetica,sans-Serif" font-size="10.00" fill="#000000"> Bicg&lt; ValueType &gt; &gt;</text>
</a>
</g>
</g>
<!-- Node24&#45;&gt;Node1 -->
<g id="edge28" class="edge">
<title>Node24&#45;&gt;Node1</title>
<path fill="none" stroke="#191970" d="M2173.2621,-171C2182.2874,-171 2191.1678,-171 2199.5375,-171"/>
<polygon fill="#191970" stroke="#191970" points="2173.0303,-167.5001 2163.0303,-171 2173.0302,-174.5001 2173.0303,-167.5001"/>
</g>
<!-- Node25 -->
<g id="node21" class="node">
<title>Node25</title>
<g id="a_node21"><a xlink:href="classgko_1_1solver_1_1EnableSolverBase.html" target="_top" xlink:title=" ">
<polygon fill="#ffffff" stroke="#000000" points="1301.5,-212 1301.5,-242 1457.5,-242 1457.5,-212 1301.5,-212"/>
<text text-anchor="start" x="1309.5" y="-230" font-family="Helvetica,sans-Serif" font-size="10.00" fill="#000000">gko::solver::EnableSolver</text>
<text text-anchor="middle" x="1379.5" y="-219" font-family="Helvetica,sans-Serif" font-size="10.00" fill="#000000">Base&lt; Bicg&lt; ValueType &gt; &gt;</text>
</a>
</g>
</g>
<!-- Node25&#45;&gt;Node24 -->
<g id="edge29" class="edge">
<title>Node25&#45;&gt;Node24</title>
<path fill="none" stroke="#191970" d="M1467.939,-227.4628C1582.6753,-226.9193 1788.7859,-222.0416 1963,-197 1972.9171,-195.5745 1983.2554,-193.6703 1993.4441,-191.5377"/>
<polygon fill="#191970" stroke="#191970" points="1467.7904,-223.9632 1457.8035,-227.5006 1467.8166,-230.9632 1467.7904,-223.9632"/>
</g>
<!-- Node26 -->
<g id="node22" class="node">
<title>Node26</title>
<g id="a_node22"><a xlink:href="classgko_1_1solver_1_1SolverBase.html" target="_top" xlink:title=" ">
<polygon fill="#ffffff" stroke="#000000" points="922,-137 922,-167 1053,-167 1053,-137 922,-137"/>
<text text-anchor="start" x="930" y="-155" font-family="Helvetica,sans-Serif" font-size="10.00" fill="#000000">gko::solver::SolverBase</text>
<text text-anchor="middle" x="987.5" y="-144" font-family="Helvetica,sans-Serif" font-size="10.00" fill="#000000">&lt; LinOp &gt;</text>
</a>
</g>
</g>
<!-- Node26&#45;&gt;Node25 -->
<g id="edge30" class="edge">
<title>Node26&#45;&gt;Node25</title>
<path fill="none" stroke="#191970" d="M1062.7829,-166.7913C1072.1382,-169.6626 1081.4212,-173.0411 1090,-177 1098.9602,-181.1349 1098.8374,-186.3354 1108,-190 1142.1209,-203.6467 1233.9455,-214.298 1301.3958,-220.5988"/>
<polygon fill="#191970" stroke="#191970" points="1063.6124,-163.3879 1053.0341,-163.9797 1061.6726,-170.1138 1063.6124,-163.3879"/>
</g>
<!-- Node36 -->
<g id="node32" class="node">
<title>Node36</title>
<g id="a_node32"><a xlink:href="classgko_1_1solver_1_1EnableSolverBase.html" target="_top" xlink:title=" ">
<polygon fill="#ffffff" stroke="#000000" points="1309.5,-163 1309.5,-193 1449.5,-193 1449.5,-163 1309.5,-163"/>
<text text-anchor="start" x="1317.5" y="-181" font-family="Helvetica,sans-Serif" font-size="10.00" fill="#000000">gko::solver::EnableSolver</text>
<text text-anchor="middle" x="1379.5" y="-170" font-family="Helvetica,sans-Serif" font-size="10.00" fill="#000000">Base&lt; DerivedType &gt;</text>
</a>
</g>
</g>
<!-- Node26&#45;&gt;Node36 -->
<g id="edge44" class="edge">
<title>Node26&#45;&gt;Node36</title>
<path fill="none" stroke="#191970" d="M1063.3551,-157.0312C1134.5298,-161.752 1240.1175,-168.7552 1309.3697,-173.3485"/>
<polygon fill="#191970" stroke="#191970" points="1063.3217,-153.5214 1053.112,-156.3518 1062.8584,-160.506 1063.3217,-153.5214"/>
</g>
<!-- Node27 -->
<g id="node23" class="node">
<title>Node27</title>
<g id="a_node23"><a xlink:href="classgko_1_1solver_1_1SolverBase.html" target="_top" xlink:title="A LinOp implementing this interface stores a system matrix.">
<polygon fill="#ffffff" stroke="#000000" points="564,-159 564,-189 695,-189 695,-159 564,-159"/>
<text text-anchor="start" x="572" y="-177" font-family="Helvetica,sans-Serif" font-size="10.00" fill="#000000">gko::solver::SolverBase</text>
<text text-anchor="middle" x="629.5" y="-166" font-family="Helvetica,sans-Serif" font-size="10.00" fill="#000000">&lt; MatrixType &gt;</text>
</a>
</g>
</g>
<!-- Node27&#45;&gt;Node26 -->
<g id="edge31" class="edge">
<title>Node27&#45;&gt;Node26</title>
<path fill="none" stroke="#ffa500" stroke-dasharray="5,2" d="M705.4758,-167.9854C719.6074,-166.936 734.2491,-165.8953 748,-165 806.7976,-161.1719 873.7672,-157.6039 921.9114,-155.1781"/>
<polygon fill="#ffa500" stroke="#ffa500" points="705.006,-164.5107 695.2959,-168.749 705.5297,-171.491 705.006,-164.5107"/>
<text text-anchor="middle" x="807.5" y="-168" font-family="Helvetica,sans-Serif" font-size="10.00" fill="#000000"> &lt; LinOp &gt;</text>
</g>
<!-- Node28 -->
<g id="node24" class="node">
<title>Node28</title>
<g id="a_node24"><a xlink:href="classgko_1_1solver_1_1EnableSolverBase.html" target="_top" xlink:title="A LinOp deriving from this CRTP class stores a system matrix.">
<polygon fill="#ffffff" stroke="#000000" points="896,-186 896,-216 1079,-216 1079,-186 896,-186"/>
<text text-anchor="start" x="904" y="-204" font-family="Helvetica,sans-Serif" font-size="10.00" fill="#000000">gko::solver::EnableSolver</text>
<text text-anchor="middle" x="987.5" y="-193" font-family="Helvetica,sans-Serif" font-size="10.00" fill="#000000">Base&lt; DerivedType, MatrixType &gt;</text>
</a>
</g>
</g>
<!-- Node27&#45;&gt;Node28 -->
<g id="edge33" class="edge">
<title>Node27&#45;&gt;Node28</title>
<path fill="none" stroke="#191970" d="M705.3154,-179.7179C760.9957,-183.9173 836.9041,-189.6422 895.9669,-194.0967"/>
<polygon fill="#191970" stroke="#191970" points="705.3976,-176.2143 695.1627,-178.9522 704.8711,-183.1944 705.3976,-176.2143"/>
</g>
<!-- Node28&#45;&gt;Node25 -->
<g id="edge32" class="edge">
<title>Node28&#45;&gt;Node25</title>
<path fill="none" stroke="#ffa500" stroke-dasharray="5,2" d="M1089.218,-213.3389C1095.5691,-213.9478 1101.8692,-214.509 1108,-215 1173.0201,-220.2073 1246.9943,-223.29 1301.2888,-225.0242"/>
<polygon fill="#ffa500" stroke="#ffa500" points="1089.5097,-209.8508 1079.2129,-212.3459 1088.8183,-216.8165 1089.5097,-209.8508"/>
<text text-anchor="middle" x="1184.5" y="-226" font-family="Helvetica,sans-Serif" font-size="10.00" fill="#000000"> &lt; Bicg&lt; ValueType &gt; &gt;</text>
</g>
<!-- Node28&#45;&gt;Node36 -->
<g id="edge45" class="edge">
<title>Node28&#45;&gt;Node36</title>
<path fill="none" stroke="#ffa500" stroke-dasharray="5,2" d="M1089.4475,-195.0184C1158.5474,-190.9641 1248.0898,-185.7103 1309.2937,-182.1192"/>
<polygon fill="#ffa500" stroke="#ffa500" points="1089.1844,-191.5277 1079.4066,-195.6075 1089.5945,-198.5157 1089.1844,-191.5277"/>
<text text-anchor="middle" x="1184.5" y="-196" font-family="Helvetica,sans-Serif" font-size="10.00" fill="#000000"> &lt; DerivedType &gt;</text>
</g>
<!-- Node29 -->
<g id="node25" class="node">
<title>Node29</title>
<g id="a_node25"><a xlink:href="classgko_1_1solver_1_1EnableIterativeBase.html" target="_top" xlink:title=" ">
<polygon fill="#ffffff" stroke="#000000" points="1652.5,-26 1652.5,-56 1808.5,-56 1808.5,-26 1652.5,-26"/>
<text text-anchor="start" x="1660.5" y="-44" font-family="Helvetica,sans-Serif" font-size="10.00" fill="#000000">gko::solver::EnableIterative</text>
<text text-anchor="middle" x="1730.5" y="-33" font-family="Helvetica,sans-Serif" font-size="10.00" fill="#000000">Base&lt; Bicg&lt; ValueType &gt; &gt;</text>
</a>
</g>
</g>
<!-- Node29&#45;&gt;Node24 -->
<g id="edge34" class="edge">
<title>Node29&#45;&gt;Node24</title>
<path fill="none" stroke="#191970" d="M1781.9988,-59.6278C1829.4806,-77.1619 1901.6739,-104.7341 1963,-132 1971.1729,-135.6337 1972.7309,-137.5908 1981,-141 1988.9972,-144.2971 1997.5002,-147.4925 2005.9735,-150.4916"/>
<polygon fill="#191970" stroke="#191970" points="1783.1422,-56.3192 1772.5487,-56.1502 1780.7247,-62.8885 1783.1422,-56.3192"/>
</g>
<!-- Node30 -->
<g id="node26" class="node">
<title>Node30</title>
<g id="a_node26"><a xlink:href="classgko_1_1solver_1_1IterativeBase.html" target="_top" xlink:title="A LinOp implementing this interface stores a stopping criterion factory.">
<polygon fill="#ffffff" stroke="#000000" points="916.5,-.5 916.5,-19.5 1058.5,-19.5 1058.5,-.5 916.5,-.5"/>
<text text-anchor="middle" x="987.5" y="-7.5" font-family="Helvetica,sans-Serif" font-size="10.00" fill="#000000">gko::solver::IterativeBase</text>
</a>
</g>
</g>
<!-- Node30&#45;&gt;Node29 -->
<g id="edge35" class="edge">
<title>Node30&#45;&gt;Node29</title>
<path fill="none" stroke="#191970" d="M1068.6196,-8.8222C1166.296,-7.9045 1335.2854,-7.9127 1480,-16 1537.8197,-19.2312 1602.8927,-25.8148 1652.2216,-31.4149"/>
<polygon fill="#191970" stroke="#191970" points="1068.4863,-5.3232 1058.5217,-8.9228 1068.5561,-12.3229 1068.4863,-5.3232"/>
</g>
<!-- Node31 -->
<g id="node27" class="node">
<title>Node31</title>
<g id="a_node27"><a xlink:href="classgko_1_1solver_1_1EnableIterativeBase.html" target="_top" xlink:title="A LinOp deriving from this CRTP class stores a stopping criterion factory and allows applying with a ...">
<polygon fill="#ffffff" stroke="#000000" points="1304,-26 1304,-56 1455,-56 1455,-26 1304,-26"/>
<text text-anchor="start" x="1312" y="-44" font-family="Helvetica,sans-Serif" font-size="10.00" fill="#000000">gko::solver::EnableIterative</text>
<text text-anchor="middle" x="1379.5" y="-33" font-family="Helvetica,sans-Serif" font-size="10.00" fill="#000000">Base&lt; DerivedType &gt;</text>
</a>
</g>
</g>
<!-- Node30&#45;&gt;Node31 -->
<g id="edge37" class="edge">
<title>Node30&#45;&gt;Node31</title>
<path fill="none" stroke="#191970" d="M1068.9211,-16.4389C1138.0397,-21.9049 1236.4556,-29.6878 1303.8695,-35.019"/>
<polygon fill="#191970" stroke="#191970" points="1069.1879,-12.9492 1058.943,-15.6498 1068.636,-19.9274 1069.1879,-12.9492"/>
</g>
<!-- Node31&#45;&gt;Node29 -->
<g id="edge36" class="edge">
<title>Node31&#45;&gt;Node29</title>
<path fill="none" stroke="#ffa500" stroke-dasharray="5,2" d="M1465.3298,-41C1522.4884,-41 1596.9987,-41 1652.4766,-41"/>
<polygon fill="#ffa500" stroke="#ffa500" points="1465.2297,-37.5001 1455.2296,-41 1465.2296,-44.5001 1465.2297,-37.5001"/>
<text text-anchor="middle" x="1557.5" y="-44" font-family="Helvetica,sans-Serif" font-size="10.00" fill="#000000"> &lt; Bicg&lt; ValueType &gt; &gt;</text>
</g>
<!-- Node35 -->
<g id="node31" class="node">
<title>Node35</title>
<g id="a_node31"><a xlink:href="classgko_1_1solver_1_1EnablePreconditionedIterativeSolver.html" target="_top" xlink:title="A LinOp implementing this interface stores a system matrix and stopping criterion factory.">
<polygon fill="#ffffff" stroke="#000000" points="1639.5,-150.5 1639.5,-191.5 1821.5,-191.5 1821.5,-150.5 1639.5,-150.5"/>
<text text-anchor="start" x="1647.5" y="-179.5" font-family="Helvetica,sans-Serif" font-size="10.00" fill="#000000">gko::solver::EnablePreconditioned</text>
<text text-anchor="start" x="1647.5" y="-168.5" font-family="Helvetica,sans-Serif" font-size="10.00" fill="#000000">IterativeSolver&lt; ValueType,</text>
<text text-anchor="middle" x="1730.5" y="-157.5" font-family="Helvetica,sans-Serif" font-size="10.00" fill="#000000"> DerivedType &gt;</text>
</a>
</g>
</g>
<!-- Node31&#45;&gt;Node35 -->
<g id="edge46" class="edge">
<title>Node31&#45;&gt;Node35</title>
<path fill="none" stroke="#191970" d="M1419.3288,-60.9971C1438.9349,-72.0208 1462.1332,-86.93 1480,-104 1490.1621,-113.7089 1486.1667,-122.4169 1498,-130 1510.1646,-137.7954 1579.4603,-149.4415 1639.2634,-158.3316"/>
<polygon fill="#191970" stroke="#191970" points="1420.7708,-57.7962 1410.3194,-56.0588 1417.4062,-63.9346 1420.7708,-57.7962"/>
</g>
<!-- Node32 -->
<g id="node28" class="node">
<title>Node32</title>
<g id="a_node28"><a xlink:href="classgko_1_1solver_1_1EnablePreconditionable.html" target="_top" xlink:title=" ">
<polygon fill="#ffffff" stroke="#000000" points="1635,-101 1635,-131 1826,-131 1826,-101 1635,-101"/>
<text text-anchor="start" x="1643" y="-119" font-family="Helvetica,sans-Serif" font-size="10.00" fill="#000000">gko::solver::EnablePreconditionable</text>
<text text-anchor="middle" x="1730.5" y="-108" font-family="Helvetica,sans-Serif" font-size="10.00" fill="#000000">&lt; Bicg&lt; ValueType &gt; &gt;</text>
</a>
</g>
</g>
<!-- Node32&#45;&gt;Node24 -->
<g id="edge38" class="edge">
<title>Node32&#45;&gt;Node24</title>
<path fill="none" stroke="#191970" d="M1833.6893,-132.6191C1880.5628,-140.1682 1935.5348,-149.0217 1980.8628,-156.322"/>
<polygon fill="#191970" stroke="#191970" points="1834.2457,-129.1637 1823.8164,-131.029 1833.1326,-136.0746 1834.2457,-129.1637"/>
</g>
<!-- Node33 -->
<g id="node29" class="node">
<title>Node33</title>
<g id="a_node29"><a xlink:href="classgko_1_1Preconditionable.html" target="_top" xlink:title="A LinOp implementing this interface can be preconditioned.">
<polygon fill="#ffffff" stroke="#000000" points="926.5,-83.5 926.5,-102.5 1048.5,-102.5 1048.5,-83.5 926.5,-83.5"/>
<text text-anchor="middle" x="987.5" y="-90.5" font-family="Helvetica,sans-Serif" font-size="10.00" fill="#000000">gko::Preconditionable</text>
</a>
</g>
</g>
<!-- Node33&#45;&gt;Node32 -->
<g id="edge39" class="edge">
<title>Node33&#45;&gt;Node32</title>
<path fill="none" stroke="#191970" d="M1058.7006,-94.0201C1154.4791,-95.5228 1330.1158,-98.737 1480,-104 1531.1273,-105.7953 1588.0934,-108.4705 1634.7676,-110.8398"/>
<polygon fill="#191970" stroke="#191970" points="1058.6072,-90.5183 1048.5541,-93.8627 1058.4986,-97.5175 1058.6072,-90.5183"/>
</g>
<!-- Node34 -->
<g id="node30" class="node">
<title>Node34</title>
<g id="a_node30"><a xlink:href="classgko_1_1solver_1_1EnablePreconditionable.html" target="_top" xlink:title="Mixin providing default operation for Preconditionable with correct value semantics.">
<polygon fill="#ffffff" stroke="#000000" points="1284,-114 1284,-144 1475,-144 1475,-114 1284,-114"/>
<text text-anchor="start" x="1292" y="-132" font-family="Helvetica,sans-Serif" font-size="10.00" fill="#000000">gko::solver::EnablePreconditionable</text>
<text text-anchor="middle" x="1379.5" y="-121" font-family="Helvetica,sans-Serif" font-size="10.00" fill="#000000">&lt; DerivedType &gt;</text>
</a>
</g>
</g>
<!-- Node33&#45;&gt;Node34 -->
<g id="edge41" class="edge">
<title>Node33&#45;&gt;Node34</title>
<path fill="none" stroke="#191970" d="M1059.0055,-99.5668C1122.1011,-105.3613 1214.5661,-113.853 1283.982,-120.2279"/>
<polygon fill="#191970" stroke="#191970" points="1059.0282,-96.0543 1048.75,-98.625 1058.388,-103.0249 1059.0282,-96.0543"/>
</g>
<!-- Node34&#45;&gt;Node32 -->
<g id="edge40" class="edge">
<title>Node34&#45;&gt;Node32</title>
<path fill="none" stroke="#ffa500" stroke-dasharray="5,2" d="M1485.4146,-125.0772C1532.8941,-123.3187 1588.4816,-121.2599 1634.7037,-119.548"/>
<polygon fill="#ffa500" stroke="#ffa500" points="1485.2759,-121.5799 1475.4123,-125.4477 1485.535,-128.5751 1485.2759,-121.5799"/>
<text text-anchor="middle" x="1557.5" y="-128" font-family="Helvetica,sans-Serif" font-size="10.00" fill="#000000"> &lt; Bicg&lt; ValueType &gt; &gt;</text>
</g>
<!-- Node34&#45;&gt;Node35 -->
<g id="edge47" class="edge">
<title>Node34&#45;&gt;Node35</title>
<path fill="none" stroke="#191970" d="M1449.9595,-146.2441C1465.6914,-149.5945 1482.3508,-152.7572 1498,-155 1544.3588,-161.644 1596.3274,-165.5509 1639.3553,-167.8375"/>
<polygon fill="#191970" stroke="#191970" points="1450.2913,-142.7343 1439.7752,-144.0231 1448.7998,-149.5735 1450.2913,-142.7343"/>
</g>
<!-- Node35&#45;&gt;Node24 -->
<g id="edge42" class="edge">
<title>Node35&#45;&gt;Node24</title>
<path fill="none" stroke="#ffa500" stroke-dasharray="5,2" d="M1831.8299,-171C1879.1134,-171 1934.9564,-171 1980.8904,-171"/>
<polygon fill="#ffa500" stroke="#ffa500" points="1831.5672,-167.5001 1821.5671,-171 1831.5671,-174.5001 1831.5672,-167.5001"/>
<text text-anchor="start" x="1853.5" y="-185" font-family="Helvetica,sans-Serif" font-size="10.00" fill="#000000"> &lt; ValueType, Bicg&lt;</text>
<text text-anchor="middle" x="1903.5" y="-174" font-family="Helvetica,sans-Serif" font-size="10.00" fill="#000000"> ValueType &gt; &gt;</text>
</g>
<!-- Node36&#45;&gt;Node35 -->
<g id="edge43" class="edge">
<title>Node36&#45;&gt;Node35</title>
<path fill="none" stroke="#191970" d="M1459.8874,-180.5919C1505.9045,-181.5961 1564.7139,-182.0698 1617,-180 1624.308,-179.7107 1631.8744,-179.317 1639.4719,-178.8552"/>
<polygon fill="#191970" stroke="#191970" points="1459.7527,-177.088 1449.6745,-180.3559 1459.5909,-184.0861 1459.7527,-177.088"/>
</g>
<!-- Node37 -->
<g id="node33" class="node">
<title>Node37</title>
<g id="a_node33"><a xlink:href="classgko_1_1Transposable.html" target="_top" xlink:title="Linear operators which support transposition should implement the Transposable interface.">
<polygon fill="#ffffff" stroke="#000000" points="2020,-112.5 2020,-131.5 2124,-131.5 2124,-112.5 2020,-112.5"/>
<text text-anchor="middle" x="2072" y="-119.5" font-family="Helvetica,sans-Serif" font-size="10.00" fill="#000000">gko::Transposable</text>
</a>
</g>
</g>
<!-- Node37&#45;&gt;Node1 -->
<g id="edge48" class="edge">
<title>Node37&#45;&gt;Node1</title>
<path fill="none" stroke="#191970" d="M2132.8076,-133.6745C2142.9379,-135.9113 2153.3008,-138.3804 2163,-141 2178.9005,-145.2945 2196.1116,-150.8116 2211.1832,-155.9408"/>
<polygon fill="#191970" stroke="#191970" points="2133.3005,-130.2005 2122.7879,-131.5181 2131.8276,-137.0438 2133.3005,-130.2005"/>
</g>
</g>
</svg>
        <g id="navigator" transform="translate(0 0)" fill="#404254">
                <rect fill="#f2f5e9" fill-opacity="0.5" stroke="#606060" stroke-width=".5" x="0" y="0" width="60" height="60"/>
                <use id="zoomplus" xlink:href="#zoomPlus" x="17" y="9" onmousedown="handleZoom(evt,'in')"/>
                <use id="zoomminus" xlink:href="#zoomMin" x="42" y="9" onmousedown="handleZoom(evt,'out')"/>
                <use id="reset" xlink:href="#resetDef" x="30" y="36" onmousedown="handleReset()"/>
                <g id="arrowUp" xlink:href="#dirArrow" transform="translate(30 24)" onmousedown="handlePan(0,-1)">
                  <use xlink:href="#rim" fill="#404040">
                        <set attributeName="fill" to="#808080" begin="arrowUp.mouseover" end="arrowUp.mouseout"/>
                  </use>
                  <path fill="none" stroke="white" stroke-width="1.5" d="M0,-3.0v7 M-2.5,-0.5L0,-3.0L2.5,-0.5"/>
                </g>
                <g id="arrowRight" xlink:href="#dirArrow" transform="rotate(90) translate(36 -43)" onmousedown="handlePan(1,0)">
                  <use xlink:href="#rim" fill="#404040">
                        <set attributeName="fill" to="#808080" begin="arrowRight.mouseover" end="arrowRight.mouseout"/>
                  </use>
                  <path fill="none" stroke="white" stroke-width="1.5" d="M0,-3.0v7 M-2.5,-0.5L0,-3.0L2.5,-0.5"/>
                </g>
                <g id="arrowDown" xlink:href="#dirArrow" transform="rotate(180) translate(-30 -48)" onmousedown="handlePan(0,1)">
                  <use xlink:href="#rim" fill="#404040">
                        <set attributeName="fill" to="#808080" begin="arrowDown.mouseover" end="arrowDown.mouseout"/>
                  </use>
                  <path fill="none" stroke="white" stroke-width="1.5" d="M0,-3.0v7 M-2.5,-0.5L0,-3.0L2.5,-0.5"/>
                </g>
                <g id="arrowLeft" xlink:href="#dirArrow" transform="rotate(270) translate(-36 17)" onmousedown="handlePan(-1,0)">
                  <use xlink:href="#rim" fill="#404040">
                        <set attributeName="fill" to="#808080" begin="arrowLeft.mouseover" end="arrowLeft.mouseout"/>
                  </use>
                  <path fill="none" stroke="white" stroke-width="1.5" d="M0,-3.0v7 M-2.5,-0.5L0,-3.0L2.5,-0.5"/>
                </g>
        </g>
        <svg viewBox="0 0 15 15" width="100%" height="30px" preserveAspectRatio="xMaxYMin meet">
         <g id="arrow_out" transform="scale(0.3 0.3)">
          <a xlink:href="classgko_1_1solver_1_1Bicg__inherit__graph_org.svg" target="_base">
           <rect id="button" ry="5" rx="5" y="6" x="6" height="38" width="38"
                fill="#f2f5e9" fill-opacity="0.5" stroke="#606060" stroke-width="1.0"/>
           <path id="arrow"
             d="M 11.500037,31.436501 C 11.940474,20.09759 22.043105,11.32322 32.158766,21.979434 L 37.068811,17.246167 C 37.068811,17.246167 37.088388,32 37.088388,32 L 22.160133,31.978069 C 22.160133,31.978069 26.997745,27.140456 26.997745,27.140456 C 18.528582,18.264221 13.291696,25.230495 11.500037,31.436501 z"
             style="fill:#404040;"/>
          </a>
         </g>
        </svg>
</svg>
