<?xml version="1.0" encoding="UTF-8" standalone="no"?>
<!DOCTYPE svg PUBLIC "-//W3C//DTD SVG 1.1//EN"
 "http://www.w3.org/Graphics/SVG/1.1/DTD/svg11.dtd">
<!-- Generated by graphviz version 2.40.1 (20161225.0304)
 -->
<!-- Title: gko::solver::EnableSolverBase&lt; DerivedType, MatrixType &gt; Pages: 1 -->
<svg width="1706pt" height="748pt"
 viewBox="0.00 0.00 1706.00 747.50" xmlns="http://www.w3.org/2000/svg" xmlns:xlink="http://www.w3.org/1999/xlink">
<g id="graph0" class="graph" transform="scale(1 1) rotate(0) translate(4 743.5)">
<title>gko::solver::EnableSolverBase&lt; DerivedType, MatrixType &gt;</title>
<polygon fill="#ffffff" stroke="transparent" points="-4,4 -4,-743.5 1702,-743.5 1702,4 -4,4"/>
<!-- Node1 -->
<g id="node1" class="node">
<title>Node1</title>
<g id="a_node1"><a xlink:title="A LinOp deriving from this CRTP class stores a system matrix.">
<polygon fill="#bfbfbf" stroke="#000000" points="168,-317.5 168,-347.5 351,-347.5 351,-317.5 168,-317.5"/>
<text text-anchor="start" x="176" y="-335.5" font-family="Helvetica,sans-Serif" font-size="10.00" fill="#000000">gko::solver::EnableSolver</text>
<text text-anchor="middle" x="259.5" y="-324.5" font-family="Helvetica,sans-Serif" font-size="10.00" fill="#000000">Base&lt; DerivedType, MatrixType &gt;</text>
</a>
</g>
</g>
<!-- Node3 -->
<g id="node3" class="node">
<title>Node3</title>
<g id="a_node3"><a xlink:href="classgko_1_1solver_1_1EnableSolverBase.html" target="_top" xlink:title=" ">
<polygon fill="#ffffff" stroke="#000000" points="552.5,-656 552.5,-719 701.5,-719 701.5,-656 552.5,-656"/>
<text text-anchor="start" x="560.5" y="-707" font-family="Helvetica,sans-Serif" font-size="10.00" fill="#000000">gko::solver::EnableSolver</text>
<text text-anchor="start" x="560.5" y="-696" font-family="Helvetica,sans-Serif" font-size="10.00" fill="#000000">Base&lt; Direct&lt; ValueType,</text>
<text text-anchor="start" x="560.5" y="-685" font-family="Helvetica,sans-Serif" font-size="10.00" fill="#000000"> IndexType &gt;, factorization</text>
<text text-anchor="start" x="560.5" y="-674" font-family="Helvetica,sans-Serif" font-size="10.00" fill="#000000">::Factorization&lt; ValueType,</text>
<text text-anchor="middle" x="627" y="-663" font-family="Helvetica,sans-Serif" font-size="10.00" fill="#000000"> IndexType &gt; &gt;</text>
</a>
</g>
</g>
<!-- Node1&#45;&gt;Node3 -->
<g id="edge2" class="edge">
<title>Node1&#45;&gt;Node3</title>
<path fill="none" stroke="#ffa500" stroke-dasharray="5,2" d="M264.7337,-357.709C279.3516,-425.6284 322.5958,-609.9172 369,-648.5 419.595,-690.5673 495.8327,-697.4531 552.327,-695.5377"/>
<polygon fill="#ffa500" stroke="#ffa500" points="268.1403,-356.9013 262.6373,-347.8477 261.2933,-358.3569 268.1403,-356.9013"/>
<text text-anchor="start" x="383" y="-731.5" font-family="Helvetica,sans-Serif" font-size="10.00" fill="#000000"> &lt; Direct&lt; ValueType,</text>
<text text-anchor="start" x="383" y="-720.5" font-family="Helvetica,sans-Serif" font-size="10.00" fill="#000000"> IndexType &gt;, factorization</text>
<text text-anchor="start" x="383" y="-709.5" font-family="Helvetica,sans-Serif" font-size="10.00" fill="#000000">::Factorization&lt; ValueType,</text>
<text text-anchor="middle" x="449.5" y="-698.5" font-family="Helvetica,sans-Serif" font-size="10.00" fill="#000000"> IndexType &gt; &gt;</text>
</g>
<!-- Node5 -->
<g id="node5" class="node">
<title>Node5</title>
<g id="a_node5"><a xlink:href="classgko_1_1solver_1_1EnableSolverBase.html" target="_top" xlink:title=" ">
<polygon fill="#ffffff" stroke="#000000" points="548,-583.5 548,-635.5 706,-635.5 706,-583.5 548,-583.5"/>
<text text-anchor="start" x="556" y="-623.5" font-family="Helvetica,sans-Serif" font-size="10.00" fill="#000000">gko::solver::EnableSolver</text>
<text text-anchor="start" x="556" y="-612.5" font-family="Helvetica,sans-Serif" font-size="10.00" fill="#000000">Base&lt; LowerTrs&lt; ValueType,</text>
<text text-anchor="start" x="556" y="-601.5" font-family="Helvetica,sans-Serif" font-size="10.00" fill="#000000"> IndexType &gt;, matrix::Csr</text>
<text text-anchor="middle" x="627" y="-590.5" font-family="Helvetica,sans-Serif" font-size="10.00" fill="#000000">&lt; ValueType, IndexType &gt; &gt;</text>
</a>
</g>
</g>
<!-- Node1&#45;&gt;Node5 -->
<g id="edge4" class="edge">
<title>Node1&#45;&gt;Node5</title>
<path fill="none" stroke="#ffa500" stroke-dasharray="5,2" d="M263.3125,-357.7962C272.1663,-407.0454 298.9736,-515.5979 369,-568.5 419.844,-606.9106 492.5916,-615.5093 547.8852,-615.4495"/>
<polygon fill="#ffa500" stroke="#ffa500" points="266.7216,-356.9645 261.6008,-347.6894 259.8198,-358.1335 266.7216,-356.9645"/>
<text text-anchor="start" x="369" y="-639.5" font-family="Helvetica,sans-Serif" font-size="10.00" fill="#000000"> &lt; LowerTrs&lt; ValueType,</text>
<text text-anchor="start" x="369" y="-628.5" font-family="Helvetica,sans-Serif" font-size="10.00" fill="#000000"> IndexType &gt;, matrix</text>
<text text-anchor="middle" x="449.5" y="-617.5" font-family="Helvetica,sans-Serif" font-size="10.00" fill="#000000">::Csr&lt; ValueType, IndexType &gt; &gt;</text>
</g>
<!-- Node7 -->
<g id="node7" class="node">
<title>Node7</title>
<g id="a_node7"><a xlink:href="classgko_1_1solver_1_1EnableSolverBase.html" target="_top" xlink:title=" ">
<polygon fill="#ffffff" stroke="#000000" points="557,-317.5 557,-347.5 697,-347.5 697,-317.5 557,-317.5"/>
<text text-anchor="start" x="565" y="-335.5" font-family="Helvetica,sans-Serif" font-size="10.00" fill="#000000">gko::solver::EnableSolver</text>
<text text-anchor="middle" x="627" y="-324.5" font-family="Helvetica,sans-Serif" font-size="10.00" fill="#000000">Base&lt; DerivedType &gt;</text>
</a>
</g>
</g>
<!-- Node1&#45;&gt;Node7 -->
<g id="edge6" class="edge">
<title>Node1&#45;&gt;Node7</title>
<path fill="none" stroke="#ffa500" stroke-dasharray="5,2" d="M361.5201,-332.5C423.7005,-332.5 501.5625,-332.5 556.8476,-332.5"/>
<polygon fill="#ffa500" stroke="#ffa500" points="361.2878,-329.0001 351.2878,-332.5 361.2877,-336.0001 361.2878,-329.0001"/>
<text text-anchor="middle" x="449.5" y="-335.5" font-family="Helvetica,sans-Serif" font-size="10.00" fill="#000000"> &lt; DerivedType &gt;</text>
</g>
<!-- Node25 -->
<g id="node25" class="node">
<title>Node25</title>
<g id="a_node25"><a xlink:href="classgko_1_1solver_1_1EnableSolverBase.html" target="_top" xlink:title=" ">
<polygon fill="#ffffff" stroke="#000000" points="924.5,-251.5 924.5,-281.5 1101.5,-281.5 1101.5,-251.5 924.5,-251.5"/>
<text text-anchor="start" x="932.5" y="-269.5" font-family="Helvetica,sans-Serif" font-size="10.00" fill="#000000">gko::solver::EnableSolver</text>
<text text-anchor="middle" x="1013" y="-258.5" font-family="Helvetica,sans-Serif" font-size="10.00" fill="#000000">Base&lt; Bicgstab&lt; ValueType &gt; &gt;</text>
</a>
</g>
</g>
<!-- Node1&#45;&gt;Node25 -->
<g id="edge24" class="edge">
<title>Node1&#45;&gt;Node25</title>
<path fill="none" stroke="#ffa500" stroke-dasharray="5,2" d="M361.3988,-318.2782C416.5484,-310.9616 485.91,-302.3715 548,-296.5 678.6724,-284.143 830.4925,-275.3988 924.1644,-270.6516"/>
<polygon fill="#ffa500" stroke="#ffa500" points="360.7211,-314.8375 351.2714,-319.6286 361.6463,-321.7761 360.7211,-314.8375"/>
<text text-anchor="middle" x="627" y="-299.5" font-family="Helvetica,sans-Serif" font-size="10.00" fill="#000000"> &lt; Bicgstab&lt; ValueType &gt; &gt;</text>
</g>
<!-- Node26 -->
<g id="node26" class="node">
<title>Node26</title>
<g id="a_node26"><a xlink:href="classgko_1_1solver_1_1EnableSolverBase.html" target="_top" xlink:title=" ">
<polygon fill="#ffffff" stroke="#000000" points="730.5,-86.5 730.5,-116.5 897.5,-116.5 897.5,-86.5 730.5,-86.5"/>
<text text-anchor="start" x="738.5" y="-104.5" font-family="Helvetica,sans-Serif" font-size="10.00" fill="#000000">gko::solver::EnableSolver</text>
<text text-anchor="middle" x="814" y="-93.5" font-family="Helvetica,sans-Serif" font-size="10.00" fill="#000000">Base&lt; Gmres&lt; ValueType &gt; &gt;</text>
</a>
</g>
</g>
<!-- Node1&#45;&gt;Node26 -->
<g id="edge26" class="edge">
<title>Node1&#45;&gt;Node26</title>
<path fill="none" stroke="#ffa500" stroke-dasharray="5,2" d="M268.1577,-307.8354C282.6723,-270.4618 315.6791,-200.2706 369,-166.5 432.9057,-126.0256 631.1912,-129.7147 706,-118.5 713.8839,-117.3181 722.0878,-116.0665 730.2946,-114.7997"/>
<polygon fill="#ffa500" stroke="#ffa500" points="264.7868,-306.8566 264.5527,-317.4489 271.3411,-309.3145 264.7868,-306.8566"/>
<text text-anchor="middle" x="449.5" y="-169.5" font-family="Helvetica,sans-Serif" font-size="10.00" fill="#000000"> &lt; Gmres&lt; ValueType &gt; &gt;</text>
</g>
<!-- Node27 -->
<g id="node27" class="node">
<title>Node27</title>
<g id="a_node27"><a xlink:href="classgko_1_1solver_1_1EnableSolverBase.html" target="_top" xlink:title=" ">
<polygon fill="#ffffff" stroke="#000000" points="724,-428.5 724,-458.5 904,-458.5 904,-428.5 724,-428.5"/>
<text text-anchor="start" x="732" y="-446.5" font-family="Helvetica,sans-Serif" font-size="10.00" fill="#000000">gko::solver::EnableSolver</text>
<text text-anchor="middle" x="814" y="-435.5" font-family="Helvetica,sans-Serif" font-size="10.00" fill="#000000">Base&lt; CbGmres&lt; ValueType &gt; &gt;</text>
</a>
</g>
</g>
<!-- Node1&#45;&gt;Node27 -->
<g id="edge28" class="edge">
<title>Node1&#45;&gt;Node27</title>
<path fill="none" stroke="#ffa500" stroke-dasharray="5,2" d="M344.4228,-349.4999C452.0482,-371.0444 635.8943,-407.8467 738.7185,-428.4301"/>
<polygon fill="#ffa500" stroke="#ffa500" points="345.0632,-346.0587 334.5707,-347.5277 343.6891,-352.9225 345.0632,-346.0587"/>
<text text-anchor="middle" x="449.5" y="-388.5" font-family="Helvetica,sans-Serif" font-size="10.00" fill="#000000"> &lt; CbGmres&lt; ValueType &gt; &gt;</text>
</g>
<!-- Node28 -->
<g id="node28" class="node">
<title>Node28</title>
<g id="a_node28"><a xlink:href="classgko_1_1solver_1_1EnableSolverBase.html" target="_top" xlink:title=" ">
<polygon fill="#ffffff" stroke="#000000" points="556,-79.5 556,-109.5 698,-109.5 698,-79.5 556,-79.5"/>
<text text-anchor="start" x="564" y="-97.5" font-family="Helvetica,sans-Serif" font-size="10.00" fill="#000000">gko::solver::EnableSolver</text>
<text text-anchor="middle" x="627" y="-86.5" font-family="Helvetica,sans-Serif" font-size="10.00" fill="#000000">Base&lt; Ir&lt; ValueType &gt; &gt;</text>
</a>
</g>
</g>
<!-- Node1&#45;&gt;Node28 -->
<g id="edge30" class="edge">
<title>Node1&#45;&gt;Node28</title>
<path fill="none" stroke="#ffa500" stroke-dasharray="5,2" d="M263.7522,-307.5128C273.2261,-260.4181 300.8544,-159.1598 369,-113.5 423.6617,-76.8748 500.2533,-75.946 555.7743,-81.8523"/>
<polygon fill="#ffa500" stroke="#ffa500" points="260.2865,-307.0027 261.8581,-317.4804 267.1635,-308.3095 260.2865,-307.0027"/>
<text text-anchor="middle" x="449.5" y="-116.5" font-family="Helvetica,sans-Serif" font-size="10.00" fill="#000000"> &lt; Ir&lt; ValueType &gt; &gt;</text>
</g>
<!-- Node30 -->
<g id="node30" class="node">
<title>Node30</title>
<g id="a_node30"><a xlink:href="classgko_1_1solver_1_1EnableSolverBase.html" target="_top" xlink:title=" ">
<polygon fill="#ffffff" stroke="#000000" points="738,-550.5 738,-580.5 890,-580.5 890,-550.5 738,-550.5"/>
<text text-anchor="start" x="746" y="-568.5" font-family="Helvetica,sans-Serif" font-size="10.00" fill="#000000">gko::solver::EnableSolver</text>
<text text-anchor="middle" x="814" y="-557.5" font-family="Helvetica,sans-Serif" font-size="10.00" fill="#000000">Base&lt; Fcg&lt; ValueType &gt; &gt;</text>
</a>
</g>
</g>
<!-- Node1&#45;&gt;Node30 -->
<g id="edge32" class="edge">
<title>Node1&#45;&gt;Node30</title>
<path fill="none" stroke="#ffa500" stroke-dasharray="5,2" d="M265.1788,-357.5625C276.5204,-401.1786 306.4511,-490.2261 369,-530.5 384.2305,-540.3066 614.6553,-554.4618 737.7623,-561.38"/>
<polygon fill="#ffa500" stroke="#ffa500" points="268.5501,-356.6158 262.7446,-347.7532 261.7561,-358.3018 268.5501,-356.6158"/>
<text text-anchor="middle" x="449.5" y="-550.5" font-family="Helvetica,sans-Serif" font-size="10.00" fill="#000000"> &lt; Fcg&lt; ValueType &gt; &gt;</text>
</g>
<!-- Node31 -->
<g id="node31" class="node">
<title>Node31</title>
<g id="a_node31"><a xlink:href="classgko_1_1solver_1_1EnableSolverBase.html" target="_top" xlink:title=" ">
<polygon fill="#ffffff" stroke="#000000" points="740,-477.5 740,-507.5 888,-507.5 888,-477.5 740,-477.5"/>
<text text-anchor="start" x="748" y="-495.5" font-family="Helvetica,sans-Serif" font-size="10.00" fill="#000000">gko::solver::EnableSolver</text>
<text text-anchor="middle" x="814" y="-484.5" font-family="Helvetica,sans-Serif" font-size="10.00" fill="#000000">Base&lt; Idr&lt; ValueType &gt; &gt;</text>
</a>
</g>
</g>
<!-- Node1&#45;&gt;Node31 -->
<g id="edge34" class="edge">
<title>Node1&#45;&gt;Node31</title>
<path fill="none" stroke="#ffa500" stroke-dasharray="5,2" d="M287.1813,-353.533C308.4836,-368.7363 339.2256,-388.6148 369,-400.5 493.7405,-450.2933 649.3796,-474.5471 739.65,-485.2085"/>
<polygon fill="#ffa500" stroke="#ffa500" points="289.0892,-350.5929 278.9412,-347.5483 284.9756,-356.2568 289.0892,-350.5929"/>
<text text-anchor="middle" x="449.5" y="-449.5" font-family="Helvetica,sans-Serif" font-size="10.00" fill="#000000"> &lt; Idr&lt; ValueType &gt; &gt;</text>
</g>
<!-- Node32 -->
<g id="node32" class="node">
<title>Node32</title>
<g id="a_node32"><a xlink:href="classgko_1_1solver_1_1EnableSolverBase.html" target="_top" xlink:title=" ">
<polygon fill="#ffffff" stroke="#000000" points="737.5,-514.5 737.5,-544.5 890.5,-544.5 890.5,-514.5 737.5,-514.5"/>
<text text-anchor="start" x="745.5" y="-532.5" font-family="Helvetica,sans-Serif" font-size="10.00" fill="#000000">gko::solver::EnableSolver</text>
<text text-anchor="middle" x="814" y="-521.5" font-family="Helvetica,sans-Serif" font-size="10.00" fill="#000000">Base&lt; Cgs&lt; ValueType &gt; &gt;</text>
</a>
</g>
</g>
<!-- Node1&#45;&gt;Node32 -->
<g id="edge36" class="edge">
<title>Node1&#45;&gt;Node32</title>
<path fill="none" stroke="#ffa500" stroke-dasharray="5,2" d="M272.7752,-356.9132C290.4813,-386.8989 324.7963,-436.8145 369,-461.5 485.3401,-526.47 644.1032,-535.0612 737.1748,-533.5527"/>
<polygon fill="#ffa500" stroke="#ffa500" points="275.6342,-354.8634 267.6186,-347.9351 269.5641,-358.3498 275.6342,-354.8634"/>
<text text-anchor="middle" x="449.5" y="-518.5" font-family="Helvetica,sans-Serif" font-size="10.00" fill="#000000"> &lt; Cgs&lt; ValueType &gt; &gt;</text>
</g>
<!-- Node33 -->
<g id="node33" class="node">
<title>Node33</title>
<g id="a_node33"><a xlink:href="classgko_1_1solver_1_1EnableSolverBase.html" target="_top" xlink:title=" ">
<polygon fill="#ffffff" stroke="#000000" points="548,-4.5 548,-56.5 706,-56.5 706,-4.5 548,-4.5"/>
<text text-anchor="start" x="556" y="-44.5" font-family="Helvetica,sans-Serif" font-size="10.00" fill="#000000">gko::solver::EnableSolver</text>
<text text-anchor="start" x="556" y="-33.5" font-family="Helvetica,sans-Serif" font-size="10.00" fill="#000000">Base&lt; UpperTrs&lt; ValueType,</text>
<text text-anchor="start" x="556" y="-22.5" font-family="Helvetica,sans-Serif" font-size="10.00" fill="#000000"> IndexType &gt;, matrix::Csr</text>
<text text-anchor="middle" x="627" y="-11.5" font-family="Helvetica,sans-Serif" font-size="10.00" fill="#000000">&lt; ValueType, IndexType &gt; &gt;</text>
</a>
</g>
</g>
<!-- Node1&#45;&gt;Node33 -->
<g id="edge38" class="edge">
<title>Node1&#45;&gt;Node33</title>
<path fill="none" stroke="#ffa500" stroke-dasharray="5,2" d="M265.26,-307.3895C280.5635,-243.0544 324.1421,-75.0775 369,-42.5 419.9757,-5.4795 492.7104,-5.4802 547.9657,-13.0166"/>
<polygon fill="#ffa500" stroke="#ffa500" points="261.8517,-306.5938 262.9717,-317.1293 268.6662,-308.1948 261.8517,-306.5938"/>
<text text-anchor="start" x="369" y="-67.5" font-family="Helvetica,sans-Serif" font-size="10.00" fill="#000000"> &lt; UpperTrs&lt; ValueType,</text>
<text text-anchor="start" x="369" y="-56.5" font-family="Helvetica,sans-Serif" font-size="10.00" fill="#000000"> IndexType &gt;, matrix</text>
<text text-anchor="middle" x="449.5" y="-45.5" font-family="Helvetica,sans-Serif" font-size="10.00" fill="#000000">::Csr&lt; ValueType, IndexType &gt; &gt;</text>
</g>
<!-- Node35 -->
<g id="node35" class="node">
<title>Node35</title>
<g id="a_node35"><a xlink:href="classgko_1_1solver_1_1EnableSolverBase.html" target="_top" xlink:title=" ">
<polygon fill="#ffffff" stroke="#000000" points="553,-179.5 553,-209.5 701,-209.5 701,-179.5 553,-179.5"/>
<text text-anchor="start" x="561" y="-197.5" font-family="Helvetica,sans-Serif" font-size="10.00" fill="#000000">gko::solver::EnableSolver</text>
<text text-anchor="middle" x="627" y="-186.5" font-family="Helvetica,sans-Serif" font-size="10.00" fill="#000000">Base&lt; Cg&lt; ValueType &gt; &gt;</text>
</a>
</g>
</g>
<!-- Node1&#45;&gt;Node35 -->
<g id="edge40" class="edge">
<title>Node1&#45;&gt;Node35</title>
<path fill="none" stroke="#ffa500" stroke-dasharray="5,2" d="M272.3251,-308.5886C289.7646,-278.8308 324.0116,-229.2803 369,-207.5 426.2197,-179.7981 499.1748,-178.7882 552.8962,-183.4042"/>
<polygon fill="#ffa500" stroke="#ffa500" points="269.1615,-307.0715 267.2611,-317.4945 275.2466,-310.5315 269.1615,-307.0715"/>
<text text-anchor="middle" x="449.5" y="-210.5" font-family="Helvetica,sans-Serif" font-size="10.00" fill="#000000"> &lt; Cg&lt; ValueType &gt; &gt;</text>
</g>
<!-- Node36 -->
<g id="node36" class="node">
<title>Node36</title>
<g id="a_node36"><a xlink:href="classgko_1_1solver_1_1EnableSolverBase.html" target="_top" xlink:title=" ">
<polygon fill="#ffffff" stroke="#000000" points="736,-202.5 736,-232.5 892,-232.5 892,-202.5 736,-202.5"/>
<text text-anchor="start" x="744" y="-220.5" font-family="Helvetica,sans-Serif" font-size="10.00" fill="#000000">gko::solver::EnableSolver</text>
<text text-anchor="middle" x="814" y="-209.5" font-family="Helvetica,sans-Serif" font-size="10.00" fill="#000000">Base&lt; Bicg&lt; ValueType &gt; &gt;</text>
</a>
</g>
</g>
<!-- Node1&#45;&gt;Node36 -->
<g id="edge42" class="edge">
<title>Node1&#45;&gt;Node36</title>
<path fill="none" stroke="#ffa500" stroke-dasharray="5,2" d="M285.2078,-311.0886C306.3141,-294.7961 337.7214,-273.3813 369,-262.5 434.7308,-239.6334 626.5845,-226.7266 735.7137,-221.043"/>
<polygon fill="#ffa500" stroke="#ffa500" points="282.7786,-308.5471 277.0978,-317.4902 287.1157,-314.0416 282.7786,-308.5471"/>
<text text-anchor="middle" x="449.5" y="-265.5" font-family="Helvetica,sans-Serif" font-size="10.00" fill="#000000"> &lt; Bicg&lt; ValueType &gt; &gt;</text>
</g>
<!-- Node2 -->
<g id="node2" class="node">
<title>Node2</title>
<g id="a_node2"><a xlink:href="classgko_1_1solver_1_1SolverBase.html" target="_top" xlink:title="A LinOp implementing this interface stores a system matrix.">
<polygon fill="#ffffff" stroke="#000000" points="0,-317.5 0,-347.5 131,-347.5 131,-317.5 0,-317.5"/>
<text text-anchor="start" x="8" y="-335.5" font-family="Helvetica,sans-Serif" font-size="10.00" fill="#000000">gko::solver::SolverBase</text>
<text text-anchor="middle" x="65.5" y="-324.5" font-family="Helvetica,sans-Serif" font-size="10.00" fill="#000000">&lt; MatrixType &gt;</text>
</a>
</g>
</g>
<!-- Node2&#45;&gt;Node1 -->
<g id="edge1" class="edge">
<title>Node2&#45;&gt;Node1</title>
<path fill="none" stroke="#191970" d="M141.2491,-332.5C149.9356,-332.5 158.8612,-332.5 167.7284,-332.5"/>
<polygon fill="#191970" stroke="#191970" points="141.1796,-329.0001 131.1796,-332.5 141.1795,-336.0001 141.1796,-329.0001"/>
</g>
<!-- Node4 -->
<g id="node4" class="node">
<title>Node4</title>
<g id="a_node4"><a xlink:href="classgko_1_1experimental_1_1solver_1_1Direct.html" target="_top" xlink:title="A direct solver based on a factorization into lower and upper triangular factors (with an optional di...">
<polygon fill="#ffffff" stroke="#000000" points="940,-667 940,-708 1086,-708 1086,-667 940,-667"/>
<text text-anchor="start" x="948" y="-696" font-family="Helvetica,sans-Serif" font-size="10.00" fill="#000000">gko::experimental::</text>
<text text-anchor="start" x="948" y="-685" font-family="Helvetica,sans-Serif" font-size="10.00" fill="#000000">solver::Direct&lt; ValueType,</text>
<text text-anchor="middle" x="1013" y="-674" font-family="Helvetica,sans-Serif" font-size="10.00" fill="#000000"> IndexType &gt;</text>
</a>
</g>
</g>
<!-- Node3&#45;&gt;Node4 -->
<g id="edge3" class="edge">
<title>Node3&#45;&gt;Node4</title>
<path fill="none" stroke="#191970" d="M712.1751,-687.5C780.4187,-687.5 875.1469,-687.5 939.9625,-687.5"/>
<polygon fill="#191970" stroke="#191970" points="711.8824,-684.0001 701.8824,-687.5 711.8823,-691.0001 711.8824,-684.0001"/>
</g>
<!-- Node6 -->
<g id="node6" class="node">
<title>Node6</title>
<g id="a_node6"><a xlink:href="classgko_1_1solver_1_1LowerTrs.html" target="_top" xlink:title="LowerTrs is the triangular solver which solves the system L x = b, when L is a lower triangular matri...">
<polygon fill="#ffffff" stroke="#000000" points="941,-617.5 941,-647.5 1085,-647.5 1085,-617.5 941,-617.5"/>
<text text-anchor="start" x="949" y="-635.5" font-family="Helvetica,sans-Serif" font-size="10.00" fill="#000000">gko::solver::LowerTrs</text>
<text text-anchor="middle" x="1013" y="-624.5" font-family="Helvetica,sans-Serif" font-size="10.00" fill="#000000">&lt; ValueType, IndexType &gt;</text>
</a>
</g>
</g>
<!-- Node5&#45;&gt;Node6 -->
<g id="edge5" class="edge">
<title>Node5&#45;&gt;Node6</title>
<path fill="none" stroke="#191970" d="M716.3498,-614.824C784.5752,-618.8892 877.3699,-624.4184 940.9013,-628.204"/>
<polygon fill="#191970" stroke="#191970" points="716.2348,-611.311 706.0443,-614.2099 715.8184,-618.2986 716.2348,-611.311"/>
</g>
<!-- Node8 -->
<g id="node8" class="node">
<title>Node8</title>
<g id="a_node8"><a xlink:href="classgko_1_1solver_1_1EnablePreconditionedIterativeSolver.html" target="_top" xlink:title="A LinOp implementing this interface stores a system matrix and stopping criterion factory.">
<polygon fill="#ffffff" stroke="#000000" points="922,-312 922,-353 1104,-353 1104,-312 922,-312"/>
<text text-anchor="start" x="930" y="-341" font-family="Helvetica,sans-Serif" font-size="10.00" fill="#000000">gko::solver::EnablePreconditioned</text>
<text text-anchor="start" x="930" y="-330" font-family="Helvetica,sans-Serif" font-size="10.00" fill="#000000">IterativeSolver&lt; ValueType,</text>
<text text-anchor="middle" x="1013" y="-319" font-family="Helvetica,sans-Serif" font-size="10.00" fill="#000000"> DerivedType &gt;</text>
</a>
</g>
</g>
<!-- Node7&#45;&gt;Node8 -->
<g id="edge7" class="edge">
<title>Node7&#45;&gt;Node8</title>
<path fill="none" stroke="#191970" d="M707.5669,-332.5C770.1405,-332.5 856.9239,-332.5 921.9988,-332.5"/>
<polygon fill="#191970" stroke="#191970" points="707.3496,-329.0001 697.3495,-332.5 707.3495,-336.0001 707.3496,-329.0001"/>
</g>
<!-- Node9 -->
<g id="node9" class="node">
<title>Node9</title>
<g id="a_node9"><a xlink:href="classgko_1_1solver_1_1EnablePreconditionedIterativeSolver.html" target="_top" xlink:title=" ">
<polygon fill="#ffffff" stroke="#000000" points="1312,-501 1312,-542 1494,-542 1494,-501 1312,-501"/>
<text text-anchor="start" x="1320" y="-530" font-family="Helvetica,sans-Serif" font-size="10.00" fill="#000000">gko::solver::EnablePreconditioned</text>
<text text-anchor="start" x="1320" y="-519" font-family="Helvetica,sans-Serif" font-size="10.00" fill="#000000">IterativeSolver&lt; ValueType,</text>
<text text-anchor="middle" x="1403" y="-508" font-family="Helvetica,sans-Serif" font-size="10.00" fill="#000000"> Cgs&lt; ValueType &gt; &gt;</text>
</a>
</g>
</g>
<!-- Node8&#45;&gt;Node9 -->
<g id="edge8" class="edge">
<title>Node8&#45;&gt;Node9</title>
<path fill="none" stroke="#ffa500" stroke-dasharray="5,2" d="M1031.5239,-361.6367C1050.7655,-389.4788 1083.4291,-430.5115 1122,-453.5 1153.8518,-472.4838 1242.5384,-492.2055 1311.8456,-505.4898"/>
<polygon fill="#ffa500" stroke="#ffa500" points="1034.2555,-359.4278 1025.7577,-353.1002 1028.4548,-363.346 1034.2555,-359.4278"/>
<text text-anchor="middle" x="1208" y="-503.5" font-family="Helvetica,sans-Serif" font-size="10.00" fill="#000000"> &lt; ValueType, Cgs&lt; ValueType &gt; &gt;</text>
</g>
<!-- Node11 -->
<g id="node11" class="node">
<title>Node11</title>
<g id="a_node11"><a xlink:href="classgko_1_1solver_1_1EnablePreconditionedIterativeSolver.html" target="_top" xlink:title=" ">
<polygon fill="#ffffff" stroke="#000000" points="1312,-433 1312,-474 1494,-474 1494,-433 1312,-433"/>
<text text-anchor="start" x="1320" y="-462" font-family="Helvetica,sans-Serif" font-size="10.00" fill="#000000">gko::solver::EnablePreconditioned</text>
<text text-anchor="start" x="1320" y="-451" font-family="Helvetica,sans-Serif" font-size="10.00" fill="#000000">IterativeSolver&lt; ValueType,</text>
<text text-anchor="middle" x="1403" y="-440" font-family="Helvetica,sans-Serif" font-size="10.00" fill="#000000"> Idr&lt; ValueType &gt; &gt;</text>
</a>
</g>
</g>
<!-- Node8&#45;&gt;Node11 -->
<g id="edge10" class="edge">
<title>Node8&#45;&gt;Node11</title>
<path fill="none" stroke="#ffa500" stroke-dasharray="5,2" d="M1051.811,-358.5019C1072.0021,-370.9951 1097.5259,-385.2302 1122,-394.5 1183.301,-417.7183 1255.7691,-432.6511 1311.7571,-441.6841"/>
<polygon fill="#ffa500" stroke="#ffa500" points="1053.5455,-355.458 1043.2183,-353.0917 1049.8158,-361.3817 1053.5455,-355.458"/>
<text text-anchor="middle" x="1208" y="-441.5" font-family="Helvetica,sans-Serif" font-size="10.00" fill="#000000"> &lt; ValueType, Idr&lt; ValueType &gt; &gt;</text>
</g>
<!-- Node13 -->
<g id="node13" class="node">
<title>Node13</title>
<g id="a_node13"><a xlink:href="classgko_1_1solver_1_1EnablePreconditionedIterativeSolver.html" target="_top" xlink:title=" ">
<polygon fill="#ffffff" stroke="#000000" points="1312,-565 1312,-606 1494,-606 1494,-565 1312,-565"/>
<text text-anchor="start" x="1320" y="-594" font-family="Helvetica,sans-Serif" font-size="10.00" fill="#000000">gko::solver::EnablePreconditioned</text>
<text text-anchor="start" x="1320" y="-583" font-family="Helvetica,sans-Serif" font-size="10.00" fill="#000000">IterativeSolver&lt; ValueType,</text>
<text text-anchor="middle" x="1403" y="-572" font-family="Helvetica,sans-Serif" font-size="10.00" fill="#000000"> Fcg&lt; ValueType &gt; &gt;</text>
</a>
</g>
</g>
<!-- Node8&#45;&gt;Node13 -->
<g id="edge12" class="edge">
<title>Node8&#45;&gt;Node13</title>
<path fill="none" stroke="#ffa500" stroke-dasharray="5,2" d="M1022.6289,-362.6147C1037.3281,-403.6222 1069.3443,-476.388 1122,-515.5 1137.5133,-527.0231 1235.7501,-549.9542 1311.7496,-566.4339"/>
<polygon fill="#ffa500" stroke="#ffa500" points="1025.931,-361.4541 1019.3442,-353.1556 1019.3183,-363.7504 1025.931,-361.4541"/>
<text text-anchor="middle" x="1208" y="-563.5" font-family="Helvetica,sans-Serif" font-size="10.00" fill="#000000"> &lt; ValueType, Fcg&lt; ValueType &gt; &gt;</text>
</g>
<!-- Node15 -->
<g id="node15" class="node">
<title>Node15</title>
<g id="a_node15"><a xlink:href="classgko_1_1solver_1_1EnablePreconditionedIterativeSolver.html" target="_top" xlink:title=" ">
<polygon fill="#ffffff" stroke="#000000" points="1312,-356 1312,-397 1494,-397 1494,-356 1312,-356"/>
<text text-anchor="start" x="1320" y="-385" font-family="Helvetica,sans-Serif" font-size="10.00" fill="#000000">gko::solver::EnablePreconditioned</text>
<text text-anchor="start" x="1320" y="-374" font-family="Helvetica,sans-Serif" font-size="10.00" fill="#000000">IterativeSolver&lt; ValueType,</text>
<text text-anchor="middle" x="1403" y="-363" font-family="Helvetica,sans-Serif" font-size="10.00" fill="#000000"> CbGmres&lt; ValueType &gt; &gt;</text>
</a>
</g>
</g>
<!-- Node8&#45;&gt;Node15 -->
<g id="edge14" class="edge">
<title>Node8&#45;&gt;Node15</title>
<path fill="none" stroke="#ffa500" stroke-dasharray="5,2" d="M1114.284,-351.4227C1116.8801,-351.7987 1119.4555,-352.1587 1122,-352.5 1185.2074,-360.9781 1256.8378,-367.0418 1311.9578,-370.9533"/>
<polygon fill="#ffa500" stroke="#ffa500" points="1114.5992,-347.9308 1104.189,-349.9001 1113.5551,-354.8525 1114.5992,-347.9308"/>
<text text-anchor="start" x="1150.5" y="-382.5" font-family="Helvetica,sans-Serif" font-size="10.00" fill="#000000"> &lt; ValueType, CbGmres</text>
<text text-anchor="middle" x="1208" y="-371.5" font-family="Helvetica,sans-Serif" font-size="10.00" fill="#000000">&lt; ValueType &gt; &gt;</text>
</g>
<!-- Node17 -->
<g id="node17" class="node">
<title>Node17</title>
<g id="a_node17"><a xlink:href="classgko_1_1solver_1_1EnablePreconditionedIterativeSolver.html" target="_top" xlink:title=" ">
<polygon fill="#ffffff" stroke="#000000" points="1312,-229 1312,-270 1494,-270 1494,-229 1312,-229"/>
<text text-anchor="start" x="1320" y="-258" font-family="Helvetica,sans-Serif" font-size="10.00" fill="#000000">gko::solver::EnablePreconditioned</text>
<text text-anchor="start" x="1320" y="-247" font-family="Helvetica,sans-Serif" font-size="10.00" fill="#000000">IterativeSolver&lt; ValueType,</text>
<text text-anchor="middle" x="1403" y="-236" font-family="Helvetica,sans-Serif" font-size="10.00" fill="#000000"> Bicg&lt; ValueType &gt; &gt;</text>
</a>
</g>
</g>
<!-- Node8&#45;&gt;Node17 -->
<g id="edge16" class="edge">
<title>Node8&#45;&gt;Node17</title>
<path fill="none" stroke="#ffa500" stroke-dasharray="5,2" d="M1075.6306,-308.5464C1090.6638,-303.3889 1106.7772,-298.3404 1122,-294.5 1184.5165,-278.7285 1256.3164,-267.3428 1311.6894,-259.9698"/>
<polygon fill="#ffa500" stroke="#ffa500" points="1074.2117,-305.3347 1065.9277,-311.9398 1076.5226,-311.9422 1074.2117,-305.3347"/>
<text text-anchor="start" x="1158" y="-308.5" font-family="Helvetica,sans-Serif" font-size="10.00" fill="#000000"> &lt; ValueType, Bicg&lt;</text>
<text text-anchor="middle" x="1208" y="-297.5" font-family="Helvetica,sans-Serif" font-size="10.00" fill="#000000"> ValueType &gt; &gt;</text>
</g>
<!-- Node19 -->
<g id="node19" class="node">
<title>Node19</title>
<g id="a_node19"><a xlink:href="classgko_1_1solver_1_1EnablePreconditionedIterativeSolver.html" target="_top" xlink:title=" ">
<polygon fill="#ffffff" stroke="#000000" points="1312,-82 1312,-123 1494,-123 1494,-82 1312,-82"/>
<text text-anchor="start" x="1320" y="-111" font-family="Helvetica,sans-Serif" font-size="10.00" fill="#000000">gko::solver::EnablePreconditioned</text>
<text text-anchor="start" x="1320" y="-100" font-family="Helvetica,sans-Serif" font-size="10.00" fill="#000000">IterativeSolver&lt; ValueType,</text>
<text text-anchor="middle" x="1403" y="-89" font-family="Helvetica,sans-Serif" font-size="10.00" fill="#000000"> Gmres&lt; ValueType &gt; &gt;</text>
</a>
</g>
</g>
<!-- Node8&#45;&gt;Node19 -->
<g id="edge18" class="edge">
<title>Node8&#45;&gt;Node19</title>
<path fill="none" stroke="#ffa500" stroke-dasharray="5,2" d="M1087.7851,-306.2457C1093.9472,-301.7694 1099.5177,-296.5586 1104,-290.5 1139.2151,-242.9009 1081.4327,-201.6285 1122,-158.5 1135.1642,-144.5047 1234.7877,-127.0052 1311.7167,-115.3287"/>
<polygon fill="#ffa500" stroke="#ffa500" points="1085.5461,-303.5262 1079.0621,-311.9053 1089.3561,-309.3985 1085.5461,-303.5262"/>
<text text-anchor="start" x="1156.5" y="-172.5" font-family="Helvetica,sans-Serif" font-size="10.00" fill="#000000"> &lt; ValueType, Gmres</text>
<text text-anchor="middle" x="1208" y="-161.5" font-family="Helvetica,sans-Serif" font-size="10.00" fill="#000000">&lt; ValueType &gt; &gt;</text>
</g>
<!-- Node21 -->
<g id="node21" class="node">
<title>Node21</title>
<g id="a_node21"><a xlink:href="classgko_1_1solver_1_1EnablePreconditionedIterativeSolver.html" target="_top" xlink:title=" ">
<polygon fill="#ffffff" stroke="#000000" points="1312,-294 1312,-335 1494,-335 1494,-294 1312,-294"/>
<text text-anchor="start" x="1320" y="-323" font-family="Helvetica,sans-Serif" font-size="10.00" fill="#000000">gko::solver::EnablePreconditioned</text>
<text text-anchor="start" x="1320" y="-312" font-family="Helvetica,sans-Serif" font-size="10.00" fill="#000000">IterativeSolver&lt; ValueType,</text>
<text text-anchor="middle" x="1403" y="-301" font-family="Helvetica,sans-Serif" font-size="10.00" fill="#000000"> Bicgstab&lt; ValueType &gt; &gt;</text>
</a>
</g>
</g>
<!-- Node8&#45;&gt;Node21 -->
<g id="edge20" class="edge">
<title>Node8&#45;&gt;Node21</title>
<path fill="none" stroke="#ffa500" stroke-dasharray="5,2" d="M1114.4825,-327.8162C1175.5553,-324.9974 1252.6636,-321.4386 1311.798,-318.7093"/>
<polygon fill="#ffa500" stroke="#ffa500" points="1114.2656,-324.3224 1104.4377,-328.2798 1114.5884,-331.3149 1114.2656,-324.3224"/>
<text text-anchor="start" x="1152" y="-341.5" font-family="Helvetica,sans-Serif" font-size="10.00" fill="#000000"> &lt; ValueType, Bicgstab</text>
<text text-anchor="middle" x="1208" y="-330.5" font-family="Helvetica,sans-Serif" font-size="10.00" fill="#000000">&lt; ValueType &gt; &gt;</text>
</g>
<!-- Node23 -->
<g id="node23" class="node">
<title>Node23</title>
<g id="a_node23"><a xlink:href="classgko_1_1solver_1_1EnablePreconditionedIterativeSolver.html" target="_top" xlink:title=" ">
<polygon fill="#ffffff" stroke="#000000" points="1312,-160 1312,-201 1494,-201 1494,-160 1312,-160"/>
<text text-anchor="start" x="1320" y="-189" font-family="Helvetica,sans-Serif" font-size="10.00" fill="#000000">gko::solver::EnablePreconditioned</text>
<text text-anchor="start" x="1320" y="-178" font-family="Helvetica,sans-Serif" font-size="10.00" fill="#000000">IterativeSolver&lt; ValueType,</text>
<text text-anchor="middle" x="1403" y="-167" font-family="Helvetica,sans-Serif" font-size="10.00" fill="#000000"> Cg&lt; ValueType &gt; &gt;</text>
</a>
</g>
</g>
<!-- Node8&#45;&gt;Node23 -->
<g id="edge22" class="edge">
<title>Node8&#45;&gt;Node23</title>
<path fill="none" stroke="#ffa500" stroke-dasharray="5,2" d="M1083.3424,-306.6807C1090.8815,-302.0503 1097.9826,-296.6853 1104,-290.5 1118.1615,-275.9434 1106.4889,-261.6091 1122,-248.5 1174.7115,-203.9513 1251.864,-187.6406 1311.996,-182.0858"/>
<polygon fill="#ffa500" stroke="#ffa500" points="1081.3068,-303.8112 1074.3295,-311.7842 1084.7559,-309.9024 1081.3068,-303.8112"/>
<text text-anchor="middle" x="1208" y="-251.5" font-family="Helvetica,sans-Serif" font-size="10.00" fill="#000000"> &lt; ValueType, Cg&lt; ValueType &gt; &gt;</text>
</g>
<!-- Node10 -->
<g id="node10" class="node">
<title>Node10</title>
<g id="a_node10"><a xlink:href="classgko_1_1solver_1_1Cgs.html" target="_top" xlink:title="CGS or the conjugate gradient square method is an iterative type Krylov subspace method which is suit...">
<polygon fill="#ffffff" stroke="#000000" points="1531,-512 1531,-531 1698,-531 1698,-512 1531,-512"/>
<text text-anchor="middle" x="1614.5" y="-519" font-family="Helvetica,sans-Serif" font-size="10.00" fill="#000000">gko::solver::Cgs&lt; ValueType &gt;</text>
</a>
</g>
</g>
<!-- Node9&#45;&gt;Node10 -->
<g id="edge9" class="edge">
<title>Node9&#45;&gt;Node10</title>
<path fill="none" stroke="#191970" d="M1504.2715,-521.5C1513.1937,-521.5 1522.1586,-521.5 1530.9114,-521.5"/>
<polygon fill="#191970" stroke="#191970" points="1504.2297,-518.0001 1494.2296,-521.5 1504.2296,-525.0001 1504.2297,-518.0001"/>
</g>
<!-- Node12 -->
<g id="node12" class="node">
<title>Node12</title>
<g id="a_node12"><a xlink:href="classgko_1_1solver_1_1Idr.html" target="_top" xlink:title="IDR(s) is an efficient method for solving large nonsymmetric systems of linear equations.">
<polygon fill="#ffffff" stroke="#000000" points="1534,-444 1534,-463 1695,-463 1695,-444 1534,-444"/>
<text text-anchor="middle" x="1614.5" y="-451" font-family="Helvetica,sans-Serif" font-size="10.00" fill="#000000">gko::solver::Idr&lt; ValueType &gt;</text>
</a>
</g>
</g>
<!-- Node11&#45;&gt;Node12 -->
<g id="edge11" class="edge">
<title>Node11&#45;&gt;Node12</title>
<path fill="none" stroke="#191970" d="M1504.4801,-453.5C1514.3475,-453.5 1524.2645,-453.5 1533.8869,-453.5"/>
<polygon fill="#191970" stroke="#191970" points="1504.2297,-450.0001 1494.2296,-453.5 1504.2296,-457.0001 1504.2297,-450.0001"/>
</g>
<!-- Node14 -->
<g id="node14" class="node">
<title>Node14</title>
<g id="a_node14"><a xlink:href="classgko_1_1solver_1_1Fcg.html" target="_top" xlink:title="FCG or the flexible conjugate gradient method is an iterative type Krylov subspace method which is su...">
<polygon fill="#ffffff" stroke="#000000" points="1532,-576 1532,-595 1697,-595 1697,-576 1532,-576"/>
<text text-anchor="middle" x="1614.5" y="-583" font-family="Helvetica,sans-Serif" font-size="10.00" fill="#000000">gko::solver::Fcg&lt; ValueType &gt;</text>
</a>
</g>
</g>
<!-- Node13&#45;&gt;Node14 -->
<g id="edge13" class="edge">
<title>Node13&#45;&gt;Node14</title>
<path fill="none" stroke="#191970" d="M1504.253,-585.5C1513.5193,-585.5 1522.8318,-585.5 1531.9051,-585.5"/>
<polygon fill="#191970" stroke="#191970" points="1504.2297,-582.0001 1494.2296,-585.5 1504.2296,-589.0001 1504.2297,-582.0001"/>
</g>
<!-- Node16 -->
<g id="node16" class="node">
<title>Node16</title>
<g id="a_node16"><a xlink:href="classgko_1_1solver_1_1CbGmres.html" target="_top" xlink:title="CB&#45;GMRES or the compressed basis generalized minimal residual method is an iterative type Krylov subs...">
<polygon fill="#ffffff" stroke="#000000" points="1553.5,-361.5 1553.5,-391.5 1675.5,-391.5 1675.5,-361.5 1553.5,-361.5"/>
<text text-anchor="start" x="1561.5" y="-379.5" font-family="Helvetica,sans-Serif" font-size="10.00" fill="#000000">gko::solver::CbGmres</text>
<text text-anchor="middle" x="1614.5" y="-368.5" font-family="Helvetica,sans-Serif" font-size="10.00" fill="#000000">&lt; ValueType &gt;</text>
</a>
</g>
</g>
<!-- Node15&#45;&gt;Node16 -->
<g id="edge15" class="edge">
<title>Node15&#45;&gt;Node16</title>
<path fill="none" stroke="#191970" d="M1504.5963,-376.5C1521.2985,-376.5 1538.139,-376.5 1553.448,-376.5"/>
<polygon fill="#191970" stroke="#191970" points="1504.2297,-373.0001 1494.2296,-376.5 1504.2296,-380.0001 1504.2297,-373.0001"/>
</g>
<!-- Node18 -->
<g id="node18" class="node">
<title>Node18</title>
<g id="a_node18"><a xlink:href="classgko_1_1solver_1_1Bicg.html" target="_top" xlink:title="BICG or the Biconjugate gradient method is a Krylov subspace solver.">
<polygon fill="#ffffff" stroke="#000000" points="1561.5,-234.5 1561.5,-264.5 1667.5,-264.5 1667.5,-234.5 1561.5,-234.5"/>
<text text-anchor="start" x="1569.5" y="-252.5" font-family="Helvetica,sans-Serif" font-size="10.00" fill="#000000">gko::solver::Bicg&lt;</text>
<text text-anchor="middle" x="1614.5" y="-241.5" font-family="Helvetica,sans-Serif" font-size="10.00" fill="#000000"> ValueType &gt;</text>
</a>
</g>
</g>
<!-- Node17&#45;&gt;Node18 -->
<g id="edge17" class="edge">
<title>Node17&#45;&gt;Node18</title>
<path fill="none" stroke="#191970" d="M1504.4827,-249.5C1524.1515,-249.5 1544.0175,-249.5 1561.3531,-249.5"/>
<polygon fill="#191970" stroke="#191970" points="1504.2297,-246.0001 1494.2296,-249.5 1504.2296,-253.0001 1504.2297,-246.0001"/>
</g>
<!-- Node20 -->
<g id="node20" class="node">
<title>Node20</title>
<g id="a_node20"><a xlink:href="classgko_1_1solver_1_1Gmres.html" target="_top" xlink:title="GMRES or the generalized minimal residual method is an iterative type Krylov subspace method which is...">
<polygon fill="#ffffff" stroke="#000000" points="1560,-87.5 1560,-117.5 1669,-117.5 1669,-87.5 1560,-87.5"/>
<text text-anchor="start" x="1568" y="-105.5" font-family="Helvetica,sans-Serif" font-size="10.00" fill="#000000">gko::solver::Gmres</text>
<text text-anchor="middle" x="1614.5" y="-94.5" font-family="Helvetica,sans-Serif" font-size="10.00" fill="#000000">&lt; ValueType &gt;</text>
</a>
</g>
</g>
<!-- Node19&#45;&gt;Node20 -->
<g id="edge19" class="edge">
<title>Node19&#45;&gt;Node20</title>
<path fill="none" stroke="#191970" d="M1504.2319,-102.5C1523.4193,-102.5 1542.8054,-102.5 1559.8573,-102.5"/>
<polygon fill="#191970" stroke="#191970" points="1504.2297,-99.0001 1494.2296,-102.5 1504.2296,-106.0001 1504.2297,-99.0001"/>
</g>
<!-- Node22 -->
<g id="node22" class="node">
<title>Node22</title>
<g id="a_node22"><a xlink:href="classgko_1_1solver_1_1Bicgstab.html" target="_top" xlink:title="BiCGSTAB or the Bi&#45;Conjugate Gradient&#45;Stabilized is a Krylov subspace solver.">
<polygon fill="#ffffff" stroke="#000000" points="1555,-299.5 1555,-329.5 1674,-329.5 1674,-299.5 1555,-299.5"/>
<text text-anchor="start" x="1563" y="-317.5" font-family="Helvetica,sans-Serif" font-size="10.00" fill="#000000">gko::solver::Bicgstab</text>
<text text-anchor="middle" x="1614.5" y="-306.5" font-family="Helvetica,sans-Serif" font-size="10.00" fill="#000000">&lt; ValueType &gt;</text>
</a>
</g>
</g>
<!-- Node21&#45;&gt;Node22 -->
<g id="edge21" class="edge">
<title>Node21&#45;&gt;Node22</title>
<path fill="none" stroke="#191970" d="M1504.4009,-314.5C1521.7304,-314.5 1539.216,-314.5 1554.9918,-314.5"/>
<polygon fill="#191970" stroke="#191970" points="1504.2297,-311.0001 1494.2296,-314.5 1504.2296,-318.0001 1504.2297,-311.0001"/>
</g>
<!-- Node24 -->
<g id="node24" class="node">
<title>Node24</title>
<g id="a_node24"><a xlink:href="classgko_1_1solver_1_1Cg.html" target="_top" xlink:title="CG or the conjugate gradient method is an iterative type Krylov subspace method which is suitable for...">
<polygon fill="#ffffff" stroke="#000000" points="1534,-171 1534,-190 1695,-190 1695,-171 1534,-171"/>
<text text-anchor="middle" x="1614.5" y="-178" font-family="Helvetica,sans-Serif" font-size="10.00" fill="#000000">gko::solver::Cg&lt; ValueType &gt;</text>
</a>
</g>
</g>
<!-- Node23&#45;&gt;Node24 -->
<g id="edge23" class="edge">
<title>Node23&#45;&gt;Node24</title>
<path fill="none" stroke="#191970" d="M1504.4801,-180.5C1514.3475,-180.5 1524.2645,-180.5 1533.8869,-180.5"/>
<polygon fill="#191970" stroke="#191970" points="1504.2297,-177.0001 1494.2296,-180.5 1504.2296,-184.0001 1504.2297,-177.0001"/>
</g>
<!-- Node25&#45;&gt;Node21 -->
<g id="edge25" class="edge">
<title>Node25&#45;&gt;Node21</title>
<path fill="none" stroke="#191970" d="M1111.9268,-250.5449C1166.9728,-245.4817 1235.8981,-245.5648 1294,-265.5 1303.5863,-268.7891 1303.1752,-274.5161 1312,-279.5 1321.4328,-284.8273 1331.8367,-289.6785 1342.1366,-293.9586"/>
<polygon fill="#191970" stroke="#191970" points="1111.422,-247.0776 1101.8158,-251.5465 1112.1121,-254.0435 1111.422,-247.0776"/>
</g>
<!-- Node26&#45;&gt;Node19 -->
<g id="edge27" class="edge">
<title>Node26&#45;&gt;Node19</title>
<path fill="none" stroke="#191970" d="M907.9355,-101.6595C1018.848,-101.8478 1202.0677,-102.1589 1311.7826,-102.3451"/>
<polygon fill="#191970" stroke="#191970" points="907.7698,-98.1593 897.7638,-101.6422 907.7578,-105.1593 907.7698,-98.1593"/>
</g>
<!-- Node27&#45;&gt;Node15 -->
<g id="edge29" class="edge">
<title>Node27&#45;&gt;Node15</title>
<path fill="none" stroke="#191970" d="M914.2761,-453.6281C1012.5952,-460.6279 1165.9433,-463.674 1294,-431.5 1297.8031,-430.5445 1333.6398,-412.3112 1363.2001,-397.097"/>
<polygon fill="#191970" stroke="#191970" points="914.2791,-450.1189 904.0481,-452.8715 913.7626,-457.0998 914.2791,-450.1189"/>
</g>
<!-- Node29 -->
<g id="node29" class="node">
<title>Node29</title>
<g id="a_node29"><a xlink:href="classgko_1_1solver_1_1Ir.html" target="_top" xlink:title="Iterative refinement (IR) is an iterative method that uses another coarse method to approximate the e...">
<polygon fill="#ffffff" stroke="#000000" points="935.5,-50 935.5,-69 1090.5,-69 1090.5,-50 935.5,-50"/>
<text text-anchor="middle" x="1013" y="-57" font-family="Helvetica,sans-Serif" font-size="10.00" fill="#000000">gko::solver::Ir&lt; ValueType &gt;</text>
</a>
</g>
</g>
<!-- Node28&#45;&gt;Node29 -->
<g id="edge31" class="edge">
<title>Node28&#45;&gt;Node29</title>
<path fill="none" stroke="#191970" d="M708.3037,-78.6482C713.6047,-77.8512 718.8714,-77.1242 724,-76.5 795.3458,-67.8162 877.1607,-63.5294 935.487,-61.4369"/>
<polygon fill="#191970" stroke="#191970" points="707.4269,-75.2431 698.0943,-80.2582 708.5174,-82.1576 707.4269,-75.2431"/>
</g>
<!-- Node30&#45;&gt;Node13 -->
<g id="edge33" class="edge">
<title>Node30&#45;&gt;Node13</title>
<path fill="none" stroke="#191970" d="M900.1601,-568.4256C1010.1456,-572.1603 1199.5969,-578.5933 1311.9018,-582.4067"/>
<polygon fill="#191970" stroke="#191970" points="900.2095,-564.9254 890.0964,-568.0839 899.9718,-571.9214 900.2095,-564.9254"/>
</g>
<!-- Node31&#45;&gt;Node11 -->
<g id="edge35" class="edge">
<title>Node31&#45;&gt;Node11</title>
<path fill="none" stroke="#191970" d="M898.2041,-500.286C994.5958,-507.3237 1156.8654,-513.4343 1294,-490.5 1314.0061,-487.1542 1335.2827,-480.6451 1353.6775,-474.0071"/>
<polygon fill="#191970" stroke="#191970" points="898.456,-496.7951 888.222,-499.5366 897.9319,-503.7755 898.456,-496.7951"/>
</g>
<!-- Node32&#45;&gt;Node9 -->
<g id="edge37" class="edge">
<title>Node32&#45;&gt;Node9</title>
<path fill="none" stroke="#191970" d="M900.8076,-541.7934C997.2306,-553.4346 1157.3384,-566.7725 1294,-549.5 1306.9871,-547.8586 1320.6425,-545.1584 1333.7266,-542.0662"/>
<polygon fill="#191970" stroke="#191970" points="901.166,-538.3112 890.8137,-540.5653 900.3121,-545.2589 901.166,-538.3112"/>
</g>
<!-- Node34 -->
<g id="node34" class="node">
<title>Node34</title>
<g id="a_node34"><a xlink:href="classgko_1_1solver_1_1UpperTrs.html" target="_top" xlink:title="UpperTrs is the triangular solver which solves the system U x = b, when U is an upper triangular matr...">
<polygon fill="#ffffff" stroke="#000000" points="941,-.5 941,-30.5 1085,-30.5 1085,-.5 941,-.5"/>
<text text-anchor="start" x="949" y="-18.5" font-family="Helvetica,sans-Serif" font-size="10.00" fill="#000000">gko::solver::UpperTrs</text>
<text text-anchor="middle" x="1013" y="-7.5" font-family="Helvetica,sans-Serif" font-size="10.00" fill="#000000">&lt; ValueType, IndexType &gt;</text>
</a>
</g>
</g>
<!-- Node33&#45;&gt;Node34 -->
<g id="edge39" class="edge">
<title>Node33&#45;&gt;Node34</title>
<path fill="none" stroke="#191970" d="M716.3498,-27.0279C784.5752,-24.3766 877.3699,-20.7706 940.9013,-18.3018"/>
<polygon fill="#191970" stroke="#191970" points="715.9008,-23.5426 706.0443,-27.4283 716.1727,-30.5373 715.9008,-23.5426"/>
</g>
<!-- Node35&#45;&gt;Node23 -->
<g id="edge41" class="edge">
<title>Node35&#45;&gt;Node23</title>
<path fill="none" stroke="#191970" d="M691.7757,-177.054C811.6881,-147.362 1075.9176,-94.1438 1294,-136.5 1317.6388,-141.0912 1342.6441,-150.7982 1362.7338,-159.9295"/>
<polygon fill="#191970" stroke="#191970" points="690.8593,-173.6754 682.009,-179.4997 692.5597,-180.4657 690.8593,-173.6754"/>
</g>
<!-- Node36&#45;&gt;Node17 -->
<g id="edge43" class="edge">
<title>Node36&#45;&gt;Node17</title>
<path fill="none" stroke="#191970" d="M902.1951,-204.5106C999.1759,-192.7596 1159.1524,-180.863 1294,-206.5 1317.1825,-210.9074 1341.736,-220.1495 1361.6581,-228.9398"/>
<polygon fill="#191970" stroke="#191970" points="901.6334,-201.0533 892.1394,-205.7559 902.4938,-208.0002 901.6334,-201.0533"/>
</g>
</g>
</svg>
