<?xml version="1.0" encoding="UTF-8" standalone="no"?>
<!DOCTYPE svg PUBLIC "-//W3C//DTD SVG 1.1//EN"
 "http://www.w3.org/Graphics/SVG/1.1/DTD/svg11.dtd">
<!-- Generated by graphviz version 2.40.1 (20161225.0304)
 -->
<!-- Title: gko::multigrid::MultigridLevel Pages: 1 -->
<!--zoomable 235 -->
<svg id="main" version="1.1" xmlns="http://www.w3.org/2000/svg" xmlns:xlink="http://www.w3.org/1999/xlink" xml:space="preserve" onload="init(evt)">
<style type="text/css"><![CDATA[
.edge:hover path { stroke: red; }
.edge:hover polygon { stroke: red; fill: red; }
]]></style>
<script type="text/javascript"><![CDATA[
var edges = document.getElementsByTagName('g');
if (edges && edges.length) {
  for (var i=0;i<edges.length;i++) {
    if (edges[i].id.substr(0,4)=='edge') {
      edges[i].setAttribute('class','edge');
    }
  }
}
]]></script>
        <defs>
                <circle id="rim" cx="0" cy="0" r="7"/>
                <circle id="rim2" cx="0" cy="0" r="3.5"/>
                <g id="zoomPlus">
                        <use xlink:href="#rim" fill="#404040">
                                <set attributeName="fill" to="#808080" begin="zoomplus.mouseover" end="zoomplus.mouseout"/>
                        </use>
                        <path d="M-4,0h8M0,-4v8" fill="none" stroke="white" stroke-width="1.5" pointer-events="none"/>
                </g>
                <g id="zoomMin">
                        <use xlink:href="#rim" fill="#404040">
                                <set attributeName="fill" to="#808080" begin="zoomminus.mouseover" end="zoomminus.mouseout"/>
                        </use>
                        <path d="M-4,0h8" fill="none" stroke="white" stroke-width="1.5" pointer-events="none"/>
                </g>
                <g id="dirArrow">
                        <path fill="none" stroke="white" stroke-width="1.5" d="M0,-3.0v7 M-2.5,-0.5L0,-3.0L2.5,-0.5"/>
                </g>
               <g id="resetDef">
                       <use xlink:href="#rim2" fill="#404040">
                               <set attributeName="fill" to="#808080" begin="reset.mouseover" end="reset.mouseout"/>
                       </use>
               </g>
        </defs>

<script type="text/javascript">
var viewWidth = 566;
var viewHeight = 235;
var sectionId = 'dynsection-0';
</script>
<script xlink:href="svgpan.js"/>
<svg id="graph" class="graph">
<g id="viewport">
<title>gko::multigrid::MultigridLevel</title>
<polygon fill="#ffffff" stroke="transparent" points="-4,4 -4,-231 562,-231 562,4 -4,4"/>
<!-- Node1 -->
<g id="node1" class="node">
<title>Node1</title>
<g id="a_node1"><a xlink:title="This class represents two levels in a multigrid hierarchy.">
<polygon fill="#bfbfbf" stroke="#000000" points="0,-98.5 0,-128.5 134,-128.5 134,-98.5 0,-98.5"/>
<text text-anchor="start" x="8" y="-116.5" font-family="Helvetica,sans-Serif" font-size="10.00" fill="#000000">gko::multigrid::Multigrid</text>
<text text-anchor="middle" x="67" y="-105.5" font-family="Helvetica,sans-Serif" font-size="10.00" fill="#000000">Level</text>
</a>
</g>
</g>
<!-- Node2 -->
<g id="node2" class="node">
<title>Node2</title>
<g id="a_node2"><a xlink:href="classgko_1_1multigrid_1_1EnableMultigridLevel.html" target="_top" xlink:title="The EnableMultigridLevel gives the default implementation of MultigridLevel with composition and prov...">
<polygon fill="#ffffff" stroke="#000000" points="170,-98.5 170,-128.5 337,-128.5 337,-98.5 170,-98.5"/>
<text text-anchor="start" x="178" y="-116.5" font-family="Helvetica,sans-Serif" font-size="10.00" fill="#000000">gko::multigrid::EnableMultigrid</text>
<text text-anchor="middle" x="253.5" y="-105.5" font-family="Helvetica,sans-Serif" font-size="10.00" fill="#000000">Level&lt; ValueType &gt;</text>
</a>
</g>
</g>
<!-- Node1&#45;&gt;Node2 -->
<g id="edge1" class="edge">
<title>Node1&#45;&gt;Node2</title>
<path fill="none" stroke="#191970" d="M144.2473,-113.5C152.6822,-113.5 161.2971,-113.5 169.8048,-113.5"/>
<polygon fill="#191970" stroke="#191970" points="144.0673,-110.0001 134.0673,-113.5 144.0673,-117.0001 144.0673,-110.0001"/>
</g>
<!-- Node3 -->
<g id="node3" class="node">
<title>Node3</title>
<g id="a_node3"><a xlink:href="classgko_1_1multigrid_1_1FixedCoarsening.html" target="_top" xlink:title="FixedCoarsening is a very simple coarse grid generation algorithm.">
<polygon fill="#ffffff" stroke="#000000" points="380,-196.5 380,-226.5 551,-226.5 551,-196.5 380,-196.5"/>
<text text-anchor="start" x="388" y="-214.5" font-family="Helvetica,sans-Serif" font-size="10.00" fill="#000000">gko::multigrid::FixedCoarsening</text>
<text text-anchor="middle" x="465.5" y="-203.5" font-family="Helvetica,sans-Serif" font-size="10.00" fill="#000000">&lt; ValueType &gt;</text>
</a>
</g>
</g>
<!-- Node2&#45;&gt;Node3 -->
<g id="edge2" class="edge">
<title>Node2&#45;&gt;Node3</title>
<path fill="none" stroke="#191970" d="M282.0133,-134.5848C305.4203,-151.0286 339.9749,-173.3751 373,-187.5 380.7796,-190.8273 389.1307,-193.7815 397.5167,-196.379"/>
<polygon fill="#191970" stroke="#191970" points="283.7898,-131.5531 273.6145,-128.6011 279.728,-137.2542 283.7898,-131.5531"/>
</g>
<!-- Node4 -->
<g id="node4" class="node">
<title>Node4</title>
<g id="a_node4"><a xlink:href="classgko_1_1multigrid_1_1Pgm.html" target="_top" xlink:title="Parallel graph match (Pgm) is the aggregate method introduced in the paper M.">
<polygon fill="#ffffff" stroke="#000000" points="409,-147.5 409,-177.5 522,-177.5 522,-147.5 409,-147.5"/>
<text text-anchor="start" x="417" y="-165.5" font-family="Helvetica,sans-Serif" font-size="10.00" fill="#000000">gko::multigrid::Pgm</text>
<text text-anchor="middle" x="465.5" y="-154.5" font-family="Helvetica,sans-Serif" font-size="10.00" fill="#000000">&lt; ValueType &gt;</text>
</a>
</g>
</g>
<!-- Node2&#45;&gt;Node4 -->
<g id="edge3" class="edge">
<title>Node2&#45;&gt;Node4</title>
<path fill="none" stroke="#191970" d="M328.5197,-130.8395C354.9384,-136.9457 384.1718,-143.7025 408.8245,-149.4005"/>
<polygon fill="#191970" stroke="#191970" points="329.0791,-127.3765 318.5477,-128.5346 327.5027,-134.1967 329.0791,-127.3765"/>
</g>
<!-- Node5 -->
<g id="node5" class="node">
<title>Node5</title>
<g id="a_node5"><a xlink:href="classgko_1_1multigrid_1_1Pmis.html" target="_top" xlink:title="Parallel modified independent set (Pmis) is the classical coarsening method introduced in the paper H...">
<polygon fill="#ffffff" stroke="#000000" points="408,-98.5 408,-128.5 523,-128.5 523,-98.5 408,-98.5"/>
<text text-anchor="start" x="416" y="-116.5" font-family="Helvetica,sans-Serif" font-size="10.00" fill="#000000">gko::multigrid::Pmis</text>
<text text-anchor="middle" x="465.5" y="-105.5" font-family="Helvetica,sans-Serif" font-size="10.00" fill="#000000">&lt; ValueType &gt;</text>
</a>
</g>
</g>
<!-- Node2&#45;&gt;Node5 -->
<g id="edge4" class="edge">
<title>Node2&#45;&gt;Node5</title>
<path fill="none" stroke="#191970" d="M347.3262,-113.5C367.9039,-113.5 389.1019,-113.5 407.7626,-113.5"/>
<polygon fill="#191970" stroke="#191970" points="347.288,-110.0001 337.288,-113.5 347.288,-117.0001 347.288,-110.0001"/>
</g>
<!-- Node6 -->
<g id="node6" class="node">
<title>Node6</title>
<g id="a_node6"><a xlink:href="classgko_1_1multigrid_1_1Rs.html" target="_top" xlink:title="Rs implements the Ruge–Stueben (classical) Algebraic Multigrid (AMG) coarsening strategy for M&#45;matric...">
<polygon fill="#ffffff" stroke="#000000" points="414,-49.5 414,-79.5 517,-79.5 517,-49.5 414,-49.5"/>
<text text-anchor="start" x="422" y="-67.5" font-family="Helvetica,sans-Serif" font-size="10.00" fill="#000000">gko::multigrid::Rs</text>
<text text-anchor="middle" x="465.5" y="-56.5" font-family="Helvetica,sans-Serif" font-size="10.00" fill="#000000">&lt; ValueType &gt;</text>
</a>
</g>
</g>
<!-- Node2&#45;&gt;Node6 -->
<g id="edge5" class="edge">
<title>Node2&#45;&gt;Node6</title>
<path fill="none" stroke="#191970" d="M328.3783,-96.1932C356.5934,-89.6718 388.0365,-82.4043 413.6882,-76.4754"/>
<polygon fill="#191970" stroke="#191970" points="327.5027,-92.8033 318.5477,-98.4654 329.0791,-99.6235 327.5027,-92.8033"/>
</g>
<!-- Node7 -->
<g id="node7" class="node">
<title>Node7</title>
<g id="a_node7"><a xlink:href="classgko_1_1multigrid_1_1UniformCoarsening.html" target="_top" xlink:title="UniformCoarsening is a simple coarse grid generation algorithm.">
<polygon fill="#ffffff" stroke="#000000" points="373,-.5 373,-30.5 558,-30.5 558,-.5 373,-.5"/>
<text text-anchor="start" x="381" y="-18.5" font-family="Helvetica,sans-Serif" font-size="10.00" fill="#000000">gko::multigrid::UniformCoarsening</text>
<text text-anchor="middle" x="465.5" y="-7.5" font-family="Helvetica,sans-Serif" font-size="10.00" fill="#000000">&lt; ValueType &gt;</text>
</a>
</g>
</g>
<!-- Node2&#45;&gt;Node7 -->
<g id="edge6" class="edge">
<title>Node2&#45;&gt;Node7</title>
<path fill="none" stroke="#191970" d="M282.5204,-92.5183C305.9656,-76.3874 340.3244,-54.5534 373,-40.5 381.7106,-36.7537 391.128,-33.4362 400.5057,-30.5424"/>
<polygon fill="#191970" stroke="#191970" points="280.2961,-89.8024 274.0955,-98.3932 284.3001,-95.5442 280.2961,-89.8024"/>
</g>
</g>
</svg>
        <g id="navigator" transform="translate(0 0)" fill="#404254">
                <rect fill="#f2f5e9" fill-opacity="0.5" stroke="#606060" stroke-width=".5" x="0" y="0" width="60" height="60"/>
                <use id="zoomplus" xlink:href="#zoomPlus" x="17" y="9" onmousedown="handleZoom(evt,'in')"/>
                <use id="zoomminus" xlink:href="#zoomMin" x="42" y="9" onmousedown="handleZoom(evt,'out')"/>
                <use id="reset" xlink:href="#resetDef" x="30" y="36" onmousedown="handleReset()"/>
                <g id="arrowUp" xlink:href="#dirArrow" transform="translate(30 24)" onmousedown="handlePan(0,-1)">
                  <use xlink:href="#rim" fill="#404040">
                        <set attributeName="fill" to="#808080" begin="arrowUp.mouseover" end="arrowUp.mouseout"/>
                  </use>
                  <path fill="none" stroke="white" stroke-width="1.5" d="M0,-3.0v7 M-2.5,-0.5L0,-3.0L2.5,-0.5"/>
                </g>
                <g id="arrowRight" xlink:href="#dirArrow" transform="rotate(90) translate(36 -43)" onmousedown="handlePan(1,0)">
                  <use xlink:href="#rim" fill="#404040">
                        <set attributeName="fill" to="#808080" begin="arrowRight.mouseover" end="arrowRight.mouseout"/>
                  </use>
                  <path fill="none" stroke="white" stroke-width="1.5" d="M0,-3.0v7 M-2.5,-0.5L0,-3.0L2.5,-0.5"/>
                </g>
                <g id="arrowDown" xlink:href="#dirArrow" transform="rotate(180) translate(-30 -48)" onmousedown="handlePan(0,1)">
                  <use xlink:href="#rim" fill="#404040">
                        <set attributeName="fill" to="#808080" begin="arrowDown.mouseover" end="arrowDown.mouseout"/>
                  </use>
                  <path fill="none" stroke="white" stroke-width="1.5" d="M0,-3.0v7 M-2.5,-0.5L0,-3.0L2.5,-0.5"/>
                </g>
                <g id="arrowLeft" xlink:href="#dirArrow" transform="rotate(270) translate(-36 17)" onmousedown="handlePan(-1,0)">
                  <use xlink:href="#rim" fill="#404040">
                        <set attributeName="fill" to="#808080" begin="arrowLeft.mouseover" end="arrowLeft.mouseout"/>
                  </use>
                  <path fill="none" stroke="white" stroke-width="1.5" d="M0,-3.0v7 M-2.5,-0.5L0,-3.0L2.5,-0.5"/>
                </g>
        </g>
        <svg viewBox="0 0 15 15" width="100%" height="30px" preserveAspectRatio="xMaxYMin meet">
         <g id="arrow_out" transform="scale(0.3 0.3)">
          <a xlink:href="classgko_1_1multigrid_1_1MultigridLevel__inherit__graph_org.svg" target="_base">
           <rect id="button" ry="5" rx="5" y="6" x="6" height="38" width="38"
                fill="#f2f5e9" fill-opacity="0.5" stroke="#606060" stroke-width="1.0"/>
           <path id="arrow"
             d="M 11.500037,31.436501 C 11.940474,20.09759 22.043105,11.32322 32.158766,21.979434 L 37.068811,17.246167 C 37.068811,17.246167 37.088388,32 37.088388,32 L 22.160133,31.978069 C 22.160133,31.978069 26.997745,27.140456 26.997745,27.140456 C 18.528582,18.264221 13.291696,25.230495 11.500037,31.436501 z"
             style="fill:#404040;"/>
          </a>
         </g>
        </svg>
</svg>
