<?xml version="1.0" encoding="UTF-8" standalone="no"?>
<!DOCTYPE svg PUBLIC "-//W3C//DTD SVG 1.1//EN"
 "http://www.w3.org/Graphics/SVG/1.1/DTD/svg11.dtd">
<!-- Generated by graphviz version 2.40.1 (20161225.0304)
 -->
<!-- Title: gko::solver::Gcr&lt; ValueType &gt; Pages: 1 -->
<!--zoomable 308 -->
<svg id="main" version="1.1" xmlns="http://www.w3.org/2000/svg" xmlns:xlink="http://www.w3.org/1999/xlink" xml:space="preserve" onload="init(evt)">
<style type="text/css"><![CDATA[
.edge:hover path { stroke: red; }
.edge:hover polygon { stroke: red; fill: red; }
]]></style>
<script type="text/javascript"><![CDATA[
var edges = document.getElementsByTagName('g');
if (edges && edges.length) {
  for (var i=0;i<edges.length;i++) {
    if (edges[i].id.substr(0,4)=='edge') {
      edges[i].setAttribute('class','edge');
    }
  }
}
]]></script>
        <defs>
                <circle id="rim" cx="0" cy="0" r="7"/>
                <circle id="rim2" cx="0" cy="0" r="3.5"/>
                <g id="zoomPlus">
                        <use xlink:href="#rim" fill="#404040">
                                <set attributeName="fill" to="#808080" begin="zoomplus.mouseover" end="zoomplus.mouseout"/>
                        </use>
                        <path d="M-4,0h8M0,-4v8" fill="none" stroke="white" stroke-width="1.5" pointer-events="none"/>
                </g>
                <g id="zoomMin">
                        <use xlink:href="#rim" fill="#404040">
                                <set attributeName="fill" to="#808080" begin="zoomminus.mouseover" end="zoomminus.mouseout"/>
                        </use>
                        <path d="M-4,0h8" fill="none" stroke="white" stroke-width="1.5" pointer-events="none"/>
                </g>
                <g id="dirArrow">
                        <path fill="none" stroke="white" stroke-width="1.5" d="M0,-3.0v7 M-2.5,-0.5L0,-3.0L2.5,-0.5"/>
                </g>
               <g id="resetDef">
                       <use xlink:href="#rim2" fill="#404040">
                               <set attributeName="fill" to="#808080" begin="reset.mouseover" end="reset.mouseout"/>
                       </use>
               </g>
        </defs>

<script type="text/javascript">
var viewWidth = 1831;
var viewHeight = 308;
var sectionId = 'dynsection-1';
</script>
<script xlink:href="svgpan.js"/>
<svg id="graph" class="graph">
<g id="viewport">
<title>gko::solver::Gcr&lt; ValueType &gt;</title>
<polygon fill="#ffffff" stroke="transparent" points="-4,4 -4,-304 1827,-304 1827,4 -4,4"/>
<!-- Node1 -->
<g id="node1" class="node">
<title>Node1</title>
<g id="a_node1"><a xlink:title="GCR or the generalized conjugate residual method is an iterative type Krylov subspace method similar ...">
<polygon fill="#bfbfbf" stroke="#000000" points="1658,-124.5 1658,-143.5 1823,-143.5 1823,-124.5 1658,-124.5"/>
<text text-anchor="middle" x="1740.5" y="-131.5" font-family="Helvetica,sans-Serif" font-size="10.00" fill="#000000">gko::solver::Gcr&lt; ValueType &gt;</text>
</a>
</g>
</g>
<!-- Node2 -->
<g id="node2" class="node">
<title>Node2</title>
<g id="a_node2"><a xlink:href="classgko_1_1LinOp.html" target="_top" xlink:title=" ">
<polygon fill="#ffffff" stroke="#000000" points="1496,-173.5 1496,-192.5 1564,-192.5 1564,-173.5 1496,-173.5"/>
<text text-anchor="middle" x="1530" y="-180.5" font-family="Helvetica,sans-Serif" font-size="10.00" fill="#000000">gko::LinOp</text>
</a>
</g>
</g>
<!-- Node2&#45;&gt;Node1 -->
<g id="edge1" class="edge">
<title>Node2&#45;&gt;Node1</title>
<path fill="none" stroke="#191970" d="M1574.1936,-174.1444C1589.0906,-171.0605 1605.7918,-167.4952 1621,-164 1649.039,-157.556 1680.6014,-149.6022 1704.2451,-143.5038"/>
<polygon fill="#191970" stroke="#191970" points="1573.3,-170.7547 1564.209,-176.1957 1574.7088,-177.6115 1573.3,-170.7547"/>
</g>
<!-- Node3 -->
<g id="node3" class="node">
<title>Node3</title>
<g id="a_node3"><a xlink:href="classgko_1_1PolymorphicObject.html" target="_top" xlink:title="A PolymorphicObject is the abstract base for all &quot;heavy&quot; objects in Ginkgo that behave polymorphicall...">
<polygon fill="#ffffff" stroke="#000000" points="1071,-234.5 1071,-253.5 1204,-253.5 1204,-234.5 1071,-234.5"/>
<text text-anchor="middle" x="1137.5" y="-241.5" font-family="Helvetica,sans-Serif" font-size="10.00" fill="#000000">gko::PolymorphicObject</text>
</a>
</g>
</g>
<!-- Node3&#45;&gt;Node2 -->
<g id="edge2" class="edge">
<title>Node3&#45;&gt;Node2</title>
<path fill="none" stroke="#191970" d="M1208.9131,-232.9014C1293.8487,-219.7012 1432.1247,-198.2112 1495.8548,-188.3066"/>
<polygon fill="#191970" stroke="#191970" points="1208.172,-229.4745 1198.8281,-234.4688 1209.247,-236.3914 1208.172,-229.4745"/>
</g>
<!-- Node4 -->
<g id="node4" class="node">
<title>Node4</title>
<g id="a_node4"><a xlink:href="classgko_1_1log_1_1EnableLogging.html" target="_top" xlink:title=" ">
<polygon fill="#ffffff" stroke="#000000" points="729,-256 729,-286 862,-286 862,-256 729,-256"/>
<text text-anchor="start" x="737" y="-274" font-family="Helvetica,sans-Serif" font-size="10.00" fill="#000000">gko::log::EnableLogging</text>
<text text-anchor="middle" x="795.5" y="-263" font-family="Helvetica,sans-Serif" font-size="10.00" fill="#000000">&lt; PolymorphicObject &gt;</text>
</a>
</g>
</g>
<!-- Node4&#45;&gt;Node3 -->
<g id="edge3" class="edge">
<title>Node4&#45;&gt;Node3</title>
<path fill="none" stroke="#191970" d="M872.381,-264.9304C932.0765,-260.2176 1013.999,-253.7501 1070.9154,-249.2567"/>
<polygon fill="#191970" stroke="#191970" points="871.9464,-261.4538 862.2529,-265.73 872.4974,-268.4321 871.9464,-261.4538"/>
</g>
<!-- Node5 -->
<g id="node5" class="node">
<title>Node5</title>
<g id="a_node5"><a xlink:href="classgko_1_1log_1_1Loggable.html" target="_top" xlink:title="Loggable class is an interface which should be implemented by classes wanting to support logging.">
<polygon fill="#ffffff" stroke="#000000" points="401.5,-280.5 401.5,-299.5 507.5,-299.5 507.5,-280.5 401.5,-280.5"/>
<text text-anchor="middle" x="454.5" y="-287.5" font-family="Helvetica,sans-Serif" font-size="10.00" fill="#000000">gko::log::Loggable</text>
</a>
</g>
</g>
<!-- Node5&#45;&gt;Node4 -->
<g id="edge4" class="edge">
<title>Node5&#45;&gt;Node4</title>
<path fill="none" stroke="#191970" d="M517.8909,-286.468C577.9301,-283.1227 667.7493,-278.1181 728.8408,-274.7141"/>
<polygon fill="#191970" stroke="#191970" points="517.571,-282.9803 507.7813,-287.0313 517.9605,-289.9694 517.571,-282.9803"/>
</g>
<!-- Node6 -->
<g id="node6" class="node">
<title>Node6</title>
<g id="a_node6"><a xlink:href="classgko_1_1log_1_1EnableLogging.html" target="_top" xlink:title="EnableLogging is a mixin which should be inherited by any class which wants to enable logging.">
<polygon fill="#ffffff" stroke="#000000" points="363.5,-220.5 363.5,-261.5 545.5,-261.5 545.5,-220.5 363.5,-220.5"/>
<text text-anchor="start" x="371.5" y="-249.5" font-family="Helvetica,sans-Serif" font-size="10.00" fill="#000000">gko::log::EnableLogging</text>
<text text-anchor="start" x="371.5" y="-238.5" font-family="Helvetica,sans-Serif" font-size="10.00" fill="#000000">&lt; ConcreteLoggable, Polymorphic</text>
<text text-anchor="middle" x="454.5" y="-227.5" font-family="Helvetica,sans-Serif" font-size="10.00" fill="#000000">Base &gt;</text>
</a>
</g>
</g>
<!-- Node6&#45;&gt;Node4 -->
<g id="edge5" class="edge">
<title>Node6&#45;&gt;Node4</title>
<path fill="none" stroke="#ffa500" stroke-dasharray="5,2" d="M556.16,-249.9437C611.9814,-254.8547 679.6342,-260.8065 728.752,-265.1277"/>
<polygon fill="#ffa500" stroke="#ffa500" points="556.15,-246.4294 545.8817,-249.0394 555.5365,-253.4025 556.15,-246.4294"/>
<text text-anchor="middle" x="623" y="-263" font-family="Helvetica,sans-Serif" font-size="10.00" fill="#000000"> &lt; PolymorphicObject &gt;</text>
</g>
<!-- Node7 -->
<g id="node7" class="node">
<title>Node7</title>
<g id="a_node7"><a xlink:title=" ">
<polygon fill="#ffffff" stroke="#bfbfbf" points="157,-231.5 157,-250.5 258,-250.5 258,-231.5 157,-231.5"/>
<text text-anchor="middle" x="207.5" y="-238.5" font-family="Helvetica,sans-Serif" font-size="10.00" fill="#000000">PolymorphicBase</text>
</a>
</g>
</g>
<!-- Node7&#45;&gt;Node6 -->
<g id="edge6" class="edge">
<title>Node7&#45;&gt;Node6</title>
<path fill="none" stroke="#191970" d="M268.2993,-241C296.8287,-241 331.434,-241 363.0336,-241"/>
<polygon fill="#191970" stroke="#191970" points="268.0802,-237.5001 258.0802,-241 268.0801,-244.5001 268.0802,-237.5001"/>
</g>
<!-- Node8 -->
<g id="node8" class="node">
<title>Node8</title>
<g id="a_node8"><a xlink:href="classgko_1_1solver_1_1EnablePreconditionedIterativeSolver.html" target="_top" xlink:title=" ">
<polygon fill="#ffffff" stroke="#000000" points="1439,-113.5 1439,-154.5 1621,-154.5 1621,-113.5 1439,-113.5"/>
<text text-anchor="start" x="1447" y="-142.5" font-family="Helvetica,sans-Serif" font-size="10.00" fill="#000000">gko::solver::EnablePreconditioned</text>
<text text-anchor="start" x="1447" y="-131.5" font-family="Helvetica,sans-Serif" font-size="10.00" fill="#000000">IterativeSolver&lt; ValueType,</text>
<text text-anchor="middle" x="1530" y="-120.5" font-family="Helvetica,sans-Serif" font-size="10.00" fill="#000000"> Gcr&lt; ValueType &gt; &gt;</text>
</a>
</g>
</g>
<!-- Node8&#45;&gt;Node1 -->
<g id="edge7" class="edge">
<title>Node8&#45;&gt;Node1</title>
<path fill="none" stroke="#191970" d="M1631.1747,-134C1640.1214,-134 1649.1074,-134 1657.8736,-134"/>
<polygon fill="#191970" stroke="#191970" points="1631.1041,-130.5001 1621.1041,-134 1631.104,-137.5001 1631.1041,-130.5001"/>
</g>
<!-- Node9 -->
<g id="node9" class="node">
<title>Node9</title>
<g id="a_node9"><a xlink:href="classgko_1_1solver_1_1EnableSolverBase.html" target="_top" xlink:title=" ">
<polygon fill="#ffffff" stroke="#000000" points="719.5,-119 719.5,-149 871.5,-149 871.5,-119 719.5,-119"/>
<text text-anchor="start" x="727.5" y="-137" font-family="Helvetica,sans-Serif" font-size="10.00" fill="#000000">gko::solver::EnableSolver</text>
<text text-anchor="middle" x="795.5" y="-126" font-family="Helvetica,sans-Serif" font-size="10.00" fill="#000000">Base&lt; Gcr&lt; ValueType &gt; &gt;</text>
</a>
</g>
</g>
<!-- Node9&#45;&gt;Node8 -->
<g id="edge8" class="edge">
<title>Node9&#45;&gt;Node8</title>
<path fill="none" stroke="#191970" d="M881.9216,-134C1021.7461,-134 1296.281,-134 1438.9907,-134"/>
<polygon fill="#191970" stroke="#191970" points="881.6816,-130.5001 871.6815,-134 881.6815,-137.5001 881.6816,-130.5001"/>
</g>
<!-- Node10 -->
<g id="node10" class="node">
<title>Node10</title>
<g id="a_node10"><a xlink:href="classgko_1_1solver_1_1SolverBase.html" target="_top" xlink:title=" ">
<polygon fill="#ffffff" stroke="#000000" points="389,-119 389,-149 520,-149 520,-119 389,-119"/>
<text text-anchor="start" x="397" y="-137" font-family="Helvetica,sans-Serif" font-size="10.00" fill="#000000">gko::solver::SolverBase</text>
<text text-anchor="middle" x="454.5" y="-126" font-family="Helvetica,sans-Serif" font-size="10.00" fill="#000000">&lt; LinOp &gt;</text>
</a>
</g>
</g>
<!-- Node10&#45;&gt;Node9 -->
<g id="edge9" class="edge">
<title>Node10&#45;&gt;Node9</title>
<path fill="none" stroke="#191970" d="M530.4433,-138.7006C541.6903,-139.2402 553.1444,-139.7028 564,-140 616.4248,-141.4352 629.5738,-141.3847 682,-140 694.0326,-139.6822 706.7751,-139.1752 719.2062,-138.5871"/>
<polygon fill="#191970" stroke="#191970" points="530.3587,-135.192 520.1957,-138.186 530.0075,-142.1832 530.3587,-135.192"/>
</g>
<!-- Node21 -->
<g id="node21" class="node">
<title>Node21</title>
<g id="a_node21"><a xlink:href="classgko_1_1solver_1_1EnableSolverBase.html" target="_top" xlink:title=" ">
<polygon fill="#ffffff" stroke="#000000" points="725.5,-70 725.5,-100 865.5,-100 865.5,-70 725.5,-70"/>
<text text-anchor="start" x="733.5" y="-88" font-family="Helvetica,sans-Serif" font-size="10.00" fill="#000000">gko::solver::EnableSolver</text>
<text text-anchor="middle" x="795.5" y="-77" font-family="Helvetica,sans-Serif" font-size="10.00" fill="#000000">Base&lt; DerivedType &gt;</text>
</a>
</g>
</g>
<!-- Node10&#45;&gt;Node21 -->
<g id="edge25" class="edge">
<title>Node10&#45;&gt;Node21</title>
<path fill="none" stroke="#191970" d="M530.4679,-132.1789C574.9938,-129.9913 632.1147,-125.2441 682,-115 690.2604,-113.3037 691.905,-111.3627 700,-109 710.5849,-105.9106 721.8984,-102.8544 732.9014,-100.0109"/>
<polygon fill="#191970" stroke="#191970" points="530.1307,-128.6906 520.3015,-132.6449 530.4513,-135.6832 530.1307,-128.6906"/>
</g>
<!-- Node11 -->
<g id="node11" class="node">
<title>Node11</title>
<g id="a_node11"><a xlink:title="A LinOp implementing this interface stores a system matrix.">
<polygon fill="#ffffff" stroke="#bfbfbf" points="0,-102 0,-132 105,-132 105,-102 0,-102"/>
<text text-anchor="start" x="8" y="-120" font-family="Helvetica,sans-Serif" font-size="10.00" fill="#000000">gko::solver::detail</text>
<text text-anchor="middle" x="52.5" y="-109" font-family="Helvetica,sans-Serif" font-size="10.00" fill="#000000">::SolverBaseLinOp</text>
</a>
</g>
</g>
<!-- Node11&#45;&gt;Node10 -->
<g id="edge10" class="edge">
<title>Node11&#45;&gt;Node10</title>
<path fill="none" stroke="#191970" d="M115.3195,-120.6202C117.9138,-120.752 120.4821,-120.8792 123,-121 215.1921,-125.4227 321.8612,-129.4024 388.7576,-131.7607"/>
<polygon fill="#191970" stroke="#191970" points="115.4048,-117.12 105.2357,-120.093 115.0392,-124.1104 115.4048,-117.12"/>
</g>
<!-- Node12 -->
<g id="node12" class="node">
<title>Node12</title>
<g id="a_node12"><a xlink:href="classgko_1_1solver_1_1SolverBase.html" target="_top" xlink:title=" ">
<polygon fill="#ffffff" stroke="#000000" points="142,-80 142,-110 273,-110 273,-80 142,-80"/>
<text text-anchor="start" x="150" y="-98" font-family="Helvetica,sans-Serif" font-size="10.00" fill="#000000">gko::solver::SolverBase</text>
<text text-anchor="middle" x="207.5" y="-87" font-family="Helvetica,sans-Serif" font-size="10.00" fill="#000000">&lt; MatrixType &gt;</text>
</a>
</g>
</g>
<!-- Node11&#45;&gt;Node12 -->
<g id="edge12" class="edge">
<title>Node11&#45;&gt;Node12</title>
<path fill="none" stroke="#191970" d="M115.4963,-108.0586C124.2123,-106.8215 133.1821,-105.5483 141.9433,-104.3048"/>
<polygon fill="#191970" stroke="#191970" points="114.8176,-104.6198 105.4087,-109.4904 115.8013,-111.5503 114.8176,-104.6198"/>
</g>
<!-- Node12&#45;&gt;Node10 -->
<g id="edge11" class="edge">
<title>Node12&#45;&gt;Node10</title>
<path fill="none" stroke="#ffa500" stroke-dasharray="5,2" d="M283.353,-104.8818C303.4226,-107.6603 325.0517,-110.8015 345,-114 359.2155,-116.2793 374.4307,-118.9258 388.8598,-121.5327"/>
<polygon fill="#ffa500" stroke="#ffa500" points="283.7129,-101.3985 273.3298,-103.5061 282.761,-108.3335 283.7129,-101.3985"/>
<text text-anchor="middle" x="318" y="-117" font-family="Helvetica,sans-Serif" font-size="10.00" fill="#000000"> &lt; LinOp &gt;</text>
</g>
<!-- Node13 -->
<g id="node13" class="node">
<title>Node13</title>
<g id="a_node13"><a xlink:href="classgko_1_1solver_1_1EnableSolverBase.html" target="_top" xlink:title="A LinOp deriving from this CRTP class stores a system matrix.">
<polygon fill="#ffffff" stroke="#000000" points="363,-65 363,-95 546,-95 546,-65 363,-65"/>
<text text-anchor="start" x="371" y="-83" font-family="Helvetica,sans-Serif" font-size="10.00" fill="#000000">gko::solver::EnableSolver</text>
<text text-anchor="middle" x="454.5" y="-72" font-family="Helvetica,sans-Serif" font-size="10.00" fill="#000000">Base&lt; DerivedType, MatrixType &gt;</text>
</a>
</g>
</g>
<!-- Node12&#45;&gt;Node13 -->
<g id="edge14" class="edge">
<title>Node12&#45;&gt;Node13</title>
<path fill="none" stroke="#191970" d="M283.2154,-90.4019C308.2866,-88.8794 336.464,-87.1682 362.6141,-85.5801"/>
<polygon fill="#191970" stroke="#191970" points="282.8124,-86.9198 273.043,-91.0197 283.2368,-93.907 282.8124,-86.9198"/>
</g>
<!-- Node13&#45;&gt;Node9 -->
<g id="edge13" class="edge">
<title>Node13&#45;&gt;Node9</title>
<path fill="none" stroke="#ffa500" stroke-dasharray="5,2" d="M556.3084,-96.1222C608.6176,-104.4057 671.2849,-114.3296 719.3506,-121.9411"/>
<polygon fill="#ffa500" stroke="#ffa500" points="556.7547,-92.6493 546.3303,-94.542 555.6598,-99.5631 556.7547,-92.6493"/>
<text text-anchor="middle" x="623" y="-118" font-family="Helvetica,sans-Serif" font-size="10.00" fill="#000000"> &lt; Gcr&lt; ValueType &gt; &gt;</text>
</g>
<!-- Node13&#45;&gt;Node21 -->
<g id="edge26" class="edge">
<title>Node13&#45;&gt;Node21</title>
<path fill="none" stroke="#ffa500" stroke-dasharray="5,2" d="M556.2797,-70.3912C558.8785,-70.247 561.4554,-70.116 564,-70 616.3901,-67.6127 629.6687,-66.557 682,-70 696.0817,-70.9265 711.0828,-72.4928 725.4102,-74.2729"/>
<polygon fill="#ffa500" stroke="#ffa500" points="555.9366,-66.9056 546.1687,-71.0089 556.3636,-73.8925 555.9366,-66.9056"/>
<text text-anchor="middle" x="623" y="-73" font-family="Helvetica,sans-Serif" font-size="10.00" fill="#000000"> &lt; DerivedType &gt;</text>
</g>
<!-- Node14 -->
<g id="node14" class="node">
<title>Node14</title>
<g id="a_node14"><a xlink:href="classgko_1_1solver_1_1EnableIterativeBase.html" target="_top" xlink:title=" ">
<polygon fill="#ffffff" stroke="#000000" points="1061.5,-15 1061.5,-45 1213.5,-45 1213.5,-15 1061.5,-15"/>
<text text-anchor="start" x="1069.5" y="-33" font-family="Helvetica,sans-Serif" font-size="10.00" fill="#000000">gko::solver::EnableIterative</text>
<text text-anchor="middle" x="1137.5" y="-22" font-family="Helvetica,sans-Serif" font-size="10.00" fill="#000000">Base&lt; Gcr&lt; ValueType &gt; &gt;</text>
</a>
</g>
</g>
<!-- Node14&#45;&gt;Node8 -->
<g id="edge15" class="edge">
<title>Node14&#45;&gt;Node8</title>
<path fill="none" stroke="#191970" d="M1223.8009,-35.8977C1282.0373,-42.6365 1359.2353,-57.0733 1421,-88 1430.5709,-92.7923 1429.7247,-98.6579 1439,-104 1445.0543,-107.487 1451.5715,-110.6373 1458.2366,-113.4675"/>
<polygon fill="#191970" stroke="#191970" points="1223.8469,-32.3816 1213.5237,-34.7652 1223.0801,-39.3395 1223.8469,-32.3816"/>
</g>
<!-- Node15 -->
<g id="node15" class="node">
<title>Node15</title>
<g id="a_node15"><a xlink:href="classgko_1_1solver_1_1IterativeBase.html" target="_top" xlink:title="A LinOp implementing this interface stores a stopping criterion factory.">
<polygon fill="#ffffff" stroke="#000000" points="383.5,-.5 383.5,-19.5 525.5,-19.5 525.5,-.5 383.5,-.5"/>
<text text-anchor="middle" x="454.5" y="-7.5" font-family="Helvetica,sans-Serif" font-size="10.00" fill="#000000">gko::solver::IterativeBase</text>
</a>
</g>
</g>
<!-- Node15&#45;&gt;Node14 -->
<g id="edge16" class="edge">
<title>Node15&#45;&gt;Node14</title>
<path fill="none" stroke="#191970" d="M535.7503,-8.3762C623.4374,-7.0468 767.1753,-6.0929 891,-11 948.1488,-13.2648 1012.5887,-18.3195 1061.2462,-22.6463"/>
<polygon fill="#191970" stroke="#191970" points="535.5468,-4.8789 525.603,-8.5356 535.6568,-11.878 535.5468,-4.8789"/>
</g>
<!-- Node16 -->
<g id="node16" class="node">
<title>Node16</title>
<g id="a_node16"><a xlink:href="classgko_1_1solver_1_1EnableIterativeBase.html" target="_top" xlink:title="A LinOp deriving from this CRTP class stores a stopping criterion factory and allows applying with a ...">
<polygon fill="#ffffff" stroke="#000000" points="720,-21 720,-51 871,-51 871,-21 720,-21"/>
<text text-anchor="start" x="728" y="-39" font-family="Helvetica,sans-Serif" font-size="10.00" fill="#000000">gko::solver::EnableIterative</text>
<text text-anchor="middle" x="795.5" y="-28" font-family="Helvetica,sans-Serif" font-size="10.00" fill="#000000">Base&lt; DerivedType &gt;</text>
</a>
</g>
</g>
<!-- Node15&#45;&gt;Node16 -->
<g id="edge18" class="edge">
<title>Node15&#45;&gt;Node16</title>
<path fill="none" stroke="#191970" d="M535.7783,-16.1972C591.6046,-20.4537 665.1983,-26.065 719.7888,-30.2273"/>
<polygon fill="#191970" stroke="#191970" points="535.8069,-12.6893 525.5697,-15.4188 535.2746,-19.669 535.8069,-12.6893"/>
</g>
<!-- Node16&#45;&gt;Node14 -->
<g id="edge17" class="edge">
<title>Node16&#45;&gt;Node14</title>
<path fill="none" stroke="#ffa500" stroke-dasharray="5,2" d="M881.3133,-34.4868C890.6573,-34.3224 900.0281,-34.1576 909,-34 959.7777,-33.1082 1016.9027,-32.1082 1061.3333,-31.3311"/>
<polygon fill="#ffa500" stroke="#ffa500" points="881.1415,-30.9892 871.2047,-34.6648 881.2648,-37.9881 881.1415,-30.9892"/>
<text text-anchor="middle" x="966.5" y="-37" font-family="Helvetica,sans-Serif" font-size="10.00" fill="#000000"> &lt; Gcr&lt; ValueType &gt; &gt;</text>
</g>
<!-- Node20 -->
<g id="node20" class="node">
<title>Node20</title>
<g id="a_node20"><a xlink:href="classgko_1_1solver_1_1EnablePreconditionedIterativeSolver.html" target="_top" xlink:title="A LinOp implementing this interface stores a system matrix and stopping criterion factory.">
<polygon fill="#ffffff" stroke="#000000" points="1046.5,-64.5 1046.5,-105.5 1228.5,-105.5 1228.5,-64.5 1046.5,-64.5"/>
<text text-anchor="start" x="1054.5" y="-93.5" font-family="Helvetica,sans-Serif" font-size="10.00" fill="#000000">gko::solver::EnablePreconditioned</text>
<text text-anchor="start" x="1054.5" y="-82.5" font-family="Helvetica,sans-Serif" font-size="10.00" fill="#000000">IterativeSolver&lt; ValueType,</text>
<text text-anchor="middle" x="1137.5" y="-71.5" font-family="Helvetica,sans-Serif" font-size="10.00" fill="#000000"> DerivedType &gt;</text>
</a>
</g>
</g>
<!-- Node16&#45;&gt;Node20 -->
<g id="edge27" class="edge">
<title>Node16&#45;&gt;Node20</title>
<path fill="none" stroke="#191970" d="M881.5926,-48.3349C931.8472,-55.5351 995.213,-64.6139 1046.3171,-71.9358"/>
<polygon fill="#191970" stroke="#191970" points="881.7962,-44.8284 871.4009,-46.8747 880.8034,-51.7577 881.7962,-44.8284"/>
</g>
<!-- Node17 -->
<g id="node17" class="node">
<title>Node17</title>
<g id="a_node17"><a xlink:href="classgko_1_1solver_1_1EnablePreconditionable.html" target="_top" xlink:title=" ">
<polygon fill="#ffffff" stroke="#000000" points="1042,-177 1042,-207 1233,-207 1233,-177 1042,-177"/>
<text text-anchor="start" x="1050" y="-195" font-family="Helvetica,sans-Serif" font-size="10.00" fill="#000000">gko::solver::EnablePreconditionable</text>
<text text-anchor="middle" x="1137.5" y="-184" font-family="Helvetica,sans-Serif" font-size="10.00" fill="#000000">&lt; Gcr&lt; ValueType &gt; &gt;</text>
</a>
</g>
</g>
<!-- Node17&#45;&gt;Node8 -->
<g id="edge19" class="edge">
<title>Node17&#45;&gt;Node8</title>
<path fill="none" stroke="#191970" d="M1243.0735,-176.3993C1304.1745,-167.3704 1380.3068,-156.1203 1438.7923,-147.4778"/>
<polygon fill="#191970" stroke="#191970" points="1242.3953,-172.9615 1233.0144,-177.8858 1243.4186,-179.8863 1242.3953,-172.9615"/>
</g>
<!-- Node18 -->
<g id="node18" class="node">
<title>Node18</title>
<g id="a_node18"><a xlink:href="classgko_1_1Preconditionable.html" target="_top" xlink:title="A LinOp implementing this interface can be preconditioned.">
<polygon fill="#ffffff" stroke="#000000" points="393.5,-178.5 393.5,-197.5 515.5,-197.5 515.5,-178.5 393.5,-178.5"/>
<text text-anchor="middle" x="454.5" y="-185.5" font-family="Helvetica,sans-Serif" font-size="10.00" fill="#000000">gko::Preconditionable</text>
</a>
</g>
</g>
<!-- Node18&#45;&gt;Node17 -->
<g id="edge20" class="edge">
<title>Node18&#45;&gt;Node17</title>
<path fill="none" stroke="#191970" d="M525.6575,-196.4011C538.4119,-197.7349 551.5907,-199.0015 564,-200 767.7935,-216.3977 819.9657,-217.0646 1024,-204 1029.8334,-203.6265 1035.8295,-203.1797 1041.8734,-202.6815"/>
<polygon fill="#191970" stroke="#191970" points="525.8576,-192.9026 515.5424,-195.3208 525.1141,-199.863 525.8576,-192.9026"/>
</g>
<!-- Node19 -->
<g id="node19" class="node">
<title>Node19</title>
<g id="a_node19"><a xlink:href="classgko_1_1solver_1_1EnablePreconditionable.html" target="_top" xlink:title="Mixin providing default operation for Preconditionable with correct value semantics.">
<polygon fill="#ffffff" stroke="#000000" points="700,-168 700,-198 891,-198 891,-168 700,-168"/>
<text text-anchor="start" x="708" y="-186" font-family="Helvetica,sans-Serif" font-size="10.00" fill="#000000">gko::solver::EnablePreconditionable</text>
<text text-anchor="middle" x="795.5" y="-175" font-family="Helvetica,sans-Serif" font-size="10.00" fill="#000000">&lt; DerivedType &gt;</text>
</a>
</g>
</g>
<!-- Node18&#45;&gt;Node19 -->
<g id="edge22" class="edge">
<title>Node18&#45;&gt;Node19</title>
<path fill="none" stroke="#191970" d="M526.0295,-186.9512C576.5126,-186.211 644.7024,-185.2111 699.8543,-184.4024"/>
<polygon fill="#191970" stroke="#191970" points="525.8054,-183.454 515.8578,-187.1003 525.9081,-190.4532 525.8054,-183.454"/>
</g>
<!-- Node19&#45;&gt;Node17 -->
<g id="edge21" class="edge">
<title>Node19&#45;&gt;Node17</title>
<path fill="none" stroke="#ffa500" stroke-dasharray="5,2" d="M901.2756,-185.7836C946.1533,-186.9646 998.0811,-188.3311 1041.8023,-189.4816"/>
<polygon fill="#ffa500" stroke="#ffa500" points="901.3095,-182.2833 891.2208,-185.519 901.1253,-189.2809 901.3095,-182.2833"/>
<text text-anchor="middle" x="966.5" y="-192" font-family="Helvetica,sans-Serif" font-size="10.00" fill="#000000"> &lt; Gcr&lt; ValueType &gt; &gt;</text>
</g>
<!-- Node19&#45;&gt;Node20 -->
<g id="edge28" class="edge">
<title>Node19&#45;&gt;Node20</title>
<path fill="none" stroke="#191970" d="M863.9744,-165.3568C873.0739,-162.9296 882.2711,-160.4344 891,-158 951.8333,-141.0344 1020.7268,-120.5211 1070.1847,-105.5653"/>
<polygon fill="#191970" stroke="#191970" points="862.9343,-162.0115 854.1654,-167.9577 864.7284,-168.7777 862.9343,-162.0115"/>
</g>
<!-- Node20&#45;&gt;Node8 -->
<g id="edge23" class="edge">
<title>Node20&#45;&gt;Node8</title>
<path fill="none" stroke="#ffa500" stroke-dasharray="5,2" d="M1238.8543,-90.104C1293.1061,-93.7099 1360.939,-99.6179 1421,-109 1429.1525,-110.2735 1437.6023,-111.8132 1446.0259,-113.4956"/>
<polygon fill="#ffa500" stroke="#ffa500" points="1238.7454,-86.5896 1228.5399,-89.4351 1238.2924,-93.575 1238.7454,-86.5896"/>
<text text-anchor="middle" x="1336" y="-112" font-family="Helvetica,sans-Serif" font-size="10.00" fill="#000000"> &lt; ValueType, Gcr&lt; ValueType &gt; &gt;</text>
</g>
<!-- Node21&#45;&gt;Node20 -->
<g id="edge24" class="edge">
<title>Node21&#45;&gt;Node20</title>
<path fill="none" stroke="#191970" d="M875.5571,-85C926.7367,-85 993.2449,-85 1046.4372,-85"/>
<polygon fill="#191970" stroke="#191970" points="875.5341,-81.5001 865.5341,-85 875.534,-88.5001 875.5341,-81.5001"/>
</g>
<!-- Node22 -->
<g id="node22" class="node">
<title>Node22</title>
<g id="a_node22"><a xlink:href="classgko_1_1Transposable.html" target="_top" xlink:title="Linear operators which support transposition should implement the Transposable interface.">
<polygon fill="#ffffff" stroke="#000000" points="1478,-75.5 1478,-94.5 1582,-94.5 1582,-75.5 1478,-75.5"/>
<text text-anchor="middle" x="1530" y="-82.5" font-family="Helvetica,sans-Serif" font-size="10.00" fill="#000000">gko::Transposable</text>
</a>
</g>
</g>
<!-- Node22&#45;&gt;Node1 -->
<g id="edge29" class="edge">
<title>Node22&#45;&gt;Node1</title>
<path fill="none" stroke="#191970" d="M1587.4033,-96.6201C1598.5648,-98.9826 1610.1616,-101.5091 1621,-104 1649.039,-110.444 1680.6014,-118.3978 1704.2451,-124.4962"/>
<polygon fill="#191970" stroke="#191970" points="1587.8151,-93.1303 1577.3095,-94.5023 1586.3777,-99.9812 1587.8151,-93.1303"/>
</g>
</g>
</svg>
        <g id="navigator" transform="translate(0 0)" fill="#404254">
                <rect fill="#f2f5e9" fill-opacity="0.5" stroke="#606060" stroke-width=".5" x="0" y="0" width="60" height="60"/>
                <use id="zoomplus" xlink:href="#zoomPlus" x="17" y="9" onmousedown="handleZoom(evt,'in')"/>
                <use id="zoomminus" xlink:href="#zoomMin" x="42" y="9" onmousedown="handleZoom(evt,'out')"/>
                <use id="reset" xlink:href="#resetDef" x="30" y="36" onmousedown="handleReset()"/>
                <g id="arrowUp" xlink:href="#dirArrow" transform="translate(30 24)" onmousedown="handlePan(0,-1)">
                  <use xlink:href="#rim" fill="#404040">
                        <set attributeName="fill" to="#808080" begin="arrowUp.mouseover" end="arrowUp.mouseout"/>
                  </use>
                  <path fill="none" stroke="white" stroke-width="1.5" d="M0,-3.0v7 M-2.5,-0.5L0,-3.0L2.5,-0.5"/>
                </g>
                <g id="arrowRight" xlink:href="#dirArrow" transform="rotate(90) translate(36 -43)" onmousedown="handlePan(1,0)">
                  <use xlink:href="#rim" fill="#404040">
                        <set attributeName="fill" to="#808080" begin="arrowRight.mouseover" end="arrowRight.mouseout"/>
                  </use>
                  <path fill="none" stroke="white" stroke-width="1.5" d="M0,-3.0v7 M-2.5,-0.5L0,-3.0L2.5,-0.5"/>
                </g>
                <g id="arrowDown" xlink:href="#dirArrow" transform="rotate(180) translate(-30 -48)" onmousedown="handlePan(0,1)">
                  <use xlink:href="#rim" fill="#404040">
                        <set attributeName="fill" to="#808080" begin="arrowDown.mouseover" end="arrowDown.mouseout"/>
                  </use>
                  <path fill="none" stroke="white" stroke-width="1.5" d="M0,-3.0v7 M-2.5,-0.5L0,-3.0L2.5,-0.5"/>
                </g>
                <g id="arrowLeft" xlink:href="#dirArrow" transform="rotate(270) translate(-36 17)" onmousedown="handlePan(-1,0)">
                  <use xlink:href="#rim" fill="#404040">
                        <set attributeName="fill" to="#808080" begin="arrowLeft.mouseover" end="arrowLeft.mouseout"/>
                  </use>
                  <path fill="none" stroke="white" stroke-width="1.5" d="M0,-3.0v7 M-2.5,-0.5L0,-3.0L2.5,-0.5"/>
                </g>
        </g>
        <svg viewBox="0 0 15 15" width="100%" height="30px" preserveAspectRatio="xMaxYMin meet">
         <g id="arrow_out" transform="scale(0.3 0.3)">
          <a xlink:href="classgko_1_1solver_1_1Gcr__coll__graph_org.svg" target="_base">
           <rect id="button" ry="5" rx="5" y="6" x="6" height="38" width="38"
                fill="#f2f5e9" fill-opacity="0.5" stroke="#606060" stroke-width="1.0"/>
           <path id="arrow"
             d="M 11.500037,31.436501 C 11.940474,20.09759 22.043105,11.32322 32.158766,21.979434 L 37.068811,17.246167 C 37.068811,17.246167 37.088388,32 37.088388,32 L 22.160133,31.978069 C 22.160133,31.978069 26.997745,27.140456 26.997745,27.140456 C 18.528582,18.264221 13.291696,25.230495 11.500037,31.436501 z"
             style="fill:#404040;"/>
          </a>
         </g>
        </svg>
</svg>
