<?xml version="1.0" encoding="UTF-8" standalone="no"?>
<!DOCTYPE svg PUBLIC "-//W3C//DTD SVG 1.1//EN"
 "http://www.w3.org/Graphics/SVG/1.1/DTD/svg11.dtd">
<!-- Generated by graphviz version 2.40.1 (20161225.0304)
 -->
<!-- Title: gko::deferred_factory_parameter&lt; FactoryType &gt; Pages: 1 -->
<svg width="502pt" height="400pt"
 viewBox="0.00 0.00 502.00 400.00" xmlns="http://www.w3.org/2000/svg" xmlns:xlink="http://www.w3.org/1999/xlink">
<g id="graph0" class="graph" transform="scale(1 1) rotate(0) translate(4 396)">
<title>gko::deferred_factory_parameter&lt; FactoryType &gt;</title>
<polygon fill="#ffffff" stroke="transparent" points="-4,4 -4,-396 498,-396 498,4 -4,4"/>
<!-- Node1 -->
<g id="node1" class="node">
<title>Node1</title>
<g id="a_node1"><a xlink:title="Represents a factory parameter of factory type that can either initialized by a pre&#45;existing factory ...">
<polygon fill="#bfbfbf" stroke="#000000" points="0,-176 0,-206 153,-206 153,-176 0,-176"/>
<text text-anchor="start" x="8" y="-194" font-family="Helvetica,sans-Serif" font-size="10.00" fill="#000000">gko::deferred_factory</text>
<text text-anchor="middle" x="76.5" y="-183" font-family="Helvetica,sans-Serif" font-size="10.00" fill="#000000">_parameter&lt; FactoryType &gt;</text>
</a>
</g>
</g>
<!-- Node2 -->
<g id="node2" class="node">
<title>Node2</title>
<g id="a_node2"><a xlink:href="classgko_1_1deferred__factory__parameter.html" target="_top" xlink:title=" ">
<polygon fill="#ffffff" stroke="#000000" points="341,-350.5 341,-391.5 484,-391.5 484,-350.5 341,-350.5"/>
<text text-anchor="start" x="349" y="-379.5" font-family="Helvetica,sans-Serif" font-size="10.00" fill="#000000">gko::deferred_factory</text>
<text text-anchor="start" x="349" y="-368.5" font-family="Helvetica,sans-Serif" font-size="10.00" fill="#000000">_parameter&lt; local_solver</text>
<text text-anchor="middle" x="412.5" y="-357.5" font-family="Helvetica,sans-Serif" font-size="10.00" fill="#000000">_type &gt;</text>
</a>
</g>
</g>
<!-- Node1&#45;&gt;Node2 -->
<g id="edge1" class="edge">
<title>Node1&#45;&gt;Node2</title>
<path fill="none" stroke="#ffa500" stroke-dasharray="5,2" d="M88.9425,-215.3635C104.3858,-243.0902 133.351,-287.6721 171,-312 222.0227,-344.9697 289.9422,-359.5204 340.7553,-365.9396"/>
<polygon fill="#ffa500" stroke="#ffa500" points="91.8874,-213.4512 84.0519,-206.32 85.7301,-216.781 91.8874,-213.4512"/>
<text text-anchor="middle" x="242" y="-364" font-family="Helvetica,sans-Serif" font-size="10.00" fill="#000000"> &lt; local_solver_type &gt;</text>
</g>
<!-- Node3 -->
<g id="node3" class="node">
<title>Node3</title>
<g id="a_node3"><a xlink:href="classgko_1_1deferred__factory__parameter.html" target="_top" xlink:title=" ">
<polygon fill="#ffffff" stroke="#000000" points="347,-290.5 347,-331.5 478,-331.5 478,-290.5 347,-290.5"/>
<text text-anchor="start" x="355" y="-319.5" font-family="Helvetica,sans-Serif" font-size="10.00" fill="#000000">gko::deferred_factory</text>
<text text-anchor="start" x="355" y="-308.5" font-family="Helvetica,sans-Serif" font-size="10.00" fill="#000000">_parameter&lt; const gko</text>
<text text-anchor="middle" x="412.5" y="-297.5" font-family="Helvetica,sans-Serif" font-size="10.00" fill="#000000">::LinOpFactory &gt;</text>
</a>
</g>
</g>
<!-- Node1&#45;&gt;Node3 -->
<g id="edge2" class="edge">
<title>Node1&#45;&gt;Node3</title>
<path fill="none" stroke="#ffa500" stroke-dasharray="5,2" d="M101.4808,-212.5379C119.6429,-227.1307 145.4302,-245.7397 171,-257 227.6189,-281.9336 296.9537,-295.9029 346.7844,-303.3535"/>
<polygon fill="#ffa500" stroke="#ffa500" points="103.6523,-209.7923 93.7008,-206.1566 99.213,-215.2046 103.6523,-209.7923"/>
<text text-anchor="middle" x="242" y="-300" font-family="Helvetica,sans-Serif" font-size="10.00" fill="#000000"> &lt; const gko::LinOpFactory &gt;</text>
</g>
<!-- Node4 -->
<g id="node4" class="node">
<title>Node4</title>
<g id="a_node4"><a xlink:href="classgko_1_1deferred__factory__parameter.html" target="_top" xlink:title=" ">
<polygon fill="#ffffff" stroke="#000000" points="331,-230.5 331,-271.5 494,-271.5 494,-230.5 331,-230.5"/>
<text text-anchor="start" x="339" y="-259.5" font-family="Helvetica,sans-Serif" font-size="10.00" fill="#000000">gko::deferred_factory</text>
<text text-anchor="start" x="339" y="-248.5" font-family="Helvetica,sans-Serif" font-size="10.00" fill="#000000">_parameter&lt; const typename</text>
<text text-anchor="middle" x="412.5" y="-237.5" font-family="Helvetica,sans-Serif" font-size="10.00" fill="#000000"> u_solver_type::Factory &gt;</text>
</a>
</g>
</g>
<!-- Node1&#45;&gt;Node4 -->
<g id="edge3" class="edge">
<title>Node1&#45;&gt;Node4</title>
<path fill="none" stroke="#ffa500" stroke-dasharray="5,2" d="M163.3111,-206.502C214.9873,-215.7299 280.1563,-227.3672 330.8874,-236.4263"/>
<polygon fill="#ffa500" stroke="#ffa500" points="163.6236,-203.0025 153.164,-204.69 162.393,-209.8935 163.6236,-203.0025"/>
<text text-anchor="start" x="184.5" y="-245" font-family="Helvetica,sans-Serif" font-size="10.00" fill="#000000"> &lt; const typename u</text>
<text text-anchor="middle" x="242" y="-234" font-family="Helvetica,sans-Serif" font-size="10.00" fill="#000000">_solver_type::Factory &gt;</text>
</g>
<!-- Node5 -->
<g id="node5" class="node">
<title>Node5</title>
<g id="a_node5"><a xlink:href="classgko_1_1deferred__factory__parameter.html" target="_top" xlink:title=" ">
<polygon fill="#ffffff" stroke="#000000" points="339.5,-170.5 339.5,-211.5 485.5,-211.5 485.5,-170.5 339.5,-170.5"/>
<text text-anchor="start" x="347.5" y="-199.5" font-family="Helvetica,sans-Serif" font-size="10.00" fill="#000000">gko::deferred_factory</text>
<text text-anchor="start" x="347.5" y="-188.5" font-family="Helvetica,sans-Serif" font-size="10.00" fill="#000000">_parameter&lt; factorization</text>
<text text-anchor="middle" x="412.5" y="-177.5" font-family="Helvetica,sans-Serif" font-size="10.00" fill="#000000">_type &gt;</text>
</a>
</g>
</g>
<!-- Node1&#45;&gt;Node5 -->
<g id="edge4" class="edge">
<title>Node1&#45;&gt;Node5</title>
<path fill="none" stroke="#ffa500" stroke-dasharray="5,2" d="M163.1779,-191C217.791,-191 287.5145,-191 339.3353,-191"/>
<polygon fill="#ffa500" stroke="#ffa500" points="163.1641,-187.5001 153.164,-191 163.164,-194.5001 163.1641,-187.5001"/>
<text text-anchor="middle" x="242" y="-194" font-family="Helvetica,sans-Serif" font-size="10.00" fill="#000000"> &lt; factorization_type &gt;</text>
</g>
<!-- Node6 -->
<g id="node6" class="node">
<title>Node6</title>
<g id="a_node6"><a xlink:href="classgko_1_1deferred__factory__parameter.html" target="_top" xlink:title=" ">
<polygon fill="#ffffff" stroke="#000000" points="336.5,-121 336.5,-151 488.5,-151 488.5,-121 336.5,-121"/>
<text text-anchor="start" x="344.5" y="-139" font-family="Helvetica,sans-Serif" font-size="10.00" fill="#000000">gko::deferred_factory</text>
<text text-anchor="middle" x="412.5" y="-128" font-family="Helvetica,sans-Serif" font-size="10.00" fill="#000000">_parameter&lt; solver_type &gt;</text>
</a>
</g>
</g>
<!-- Node1&#45;&gt;Node6 -->
<g id="edge5" class="edge">
<title>Node1&#45;&gt;Node6</title>
<path fill="none" stroke="#ffa500" stroke-dasharray="5,2" d="M163.3353,-176.7859C216.9189,-168.0148 285.0028,-156.8701 336.4553,-148.4478"/>
<polygon fill="#ffa500" stroke="#ffa500" points="162.4673,-173.3813 153.164,-178.4508 163.5981,-180.2894 162.4673,-173.3813"/>
<text text-anchor="middle" x="242" y="-177" font-family="Helvetica,sans-Serif" font-size="10.00" fill="#000000"> &lt; solver_type &gt;</text>
</g>
<!-- Node7 -->
<g id="node7" class="node">
<title>Node7</title>
<g id="a_node7"><a xlink:href="classgko_1_1deferred__factory__parameter.html" target="_top" xlink:title=" ">
<polygon fill="#ffffff" stroke="#000000" points="331,-60.5 331,-101.5 494,-101.5 494,-60.5 331,-60.5"/>
<text text-anchor="start" x="339" y="-89.5" font-family="Helvetica,sans-Serif" font-size="10.00" fill="#000000">gko::deferred_factory</text>
<text text-anchor="start" x="339" y="-78.5" font-family="Helvetica,sans-Serif" font-size="10.00" fill="#000000">_parameter&lt; const typename</text>
<text text-anchor="middle" x="412.5" y="-67.5" font-family="Helvetica,sans-Serif" font-size="10.00" fill="#000000"> l_solver_type::Factory &gt;</text>
</a>
</g>
</g>
<!-- Node1&#45;&gt;Node7 -->
<g id="edge6" class="edge">
<title>Node1&#45;&gt;Node7</title>
<path fill="none" stroke="#ffa500" stroke-dasharray="5,2" d="M102.3129,-169.2428C120.4258,-155.0936 145.8189,-137.4026 171,-127 221.8871,-105.978 282.8116,-94.4618 330.7363,-88.2094"/>
<polygon fill="#ffa500" stroke="#ffa500" points="99.6646,-166.8789 94.0388,-175.8567 104.0353,-172.3467 99.6646,-166.8789"/>
<text text-anchor="start" x="184.5" y="-141" font-family="Helvetica,sans-Serif" font-size="10.00" fill="#000000"> &lt; const typename l</text>
<text text-anchor="middle" x="242" y="-130" font-family="Helvetica,sans-Serif" font-size="10.00" fill="#000000">_solver_type::Factory &gt;</text>
</g>
<!-- Node8 -->
<g id="node8" class="node">
<title>Node8</title>
<g id="a_node8"><a xlink:href="classgko_1_1deferred__factory__parameter.html" target="_top" xlink:title=" ">
<polygon fill="#ffffff" stroke="#000000" points="335,-.5 335,-41.5 490,-41.5 490,-.5 335,-.5"/>
<text text-anchor="start" x="343" y="-29.5" font-family="Helvetica,sans-Serif" font-size="10.00" fill="#000000">gko::deferred_factory</text>
<text text-anchor="start" x="343" y="-18.5" font-family="Helvetica,sans-Serif" font-size="10.00" fill="#000000">_parameter&lt; preconditioner</text>
<text text-anchor="middle" x="412.5" y="-7.5" font-family="Helvetica,sans-Serif" font-size="10.00" fill="#000000">_type &gt;</text>
</a>
</g>
</g>
<!-- Node1&#45;&gt;Node8 -->
<g id="edge7" class="edge">
<title>Node1&#45;&gt;Node8</title>
<path fill="none" stroke="#ffa500" stroke-dasharray="5,2" d="M89.3655,-167.09C105.0316,-140.3625 134.0381,-97.8442 171,-75 220.4282,-44.4511 285.0366,-31.1088 334.9887,-25.3188"/>
<polygon fill="#ffa500" stroke="#ffa500" points="86.2971,-165.4055 84.3894,-175.8272 92.3798,-168.8698 86.2971,-165.4055"/>
<text text-anchor="middle" x="242" y="-78" font-family="Helvetica,sans-Serif" font-size="10.00" fill="#000000"> &lt; preconditioner_type &gt;</text>
</g>
</g>
</svg>
