<?xml version="1.0" encoding="UTF-8" standalone="no"?>
<!DOCTYPE svg PUBLIC "-//W3C//DTD SVG 1.1//EN"
 "http://www.w3.org/Graphics/SVG/1.1/DTD/svg11.dtd">
<!-- Generated by graphviz version 2.40.1 (20161225.0304)
 -->
<!-- Title: gko::solver::Cg&lt; ValueType &gt; Pages: 1 -->
<svg width="2400pt" height="576pt"
 viewBox="0.00 0.00 2400.00 576.00" xmlns="http://www.w3.org/2000/svg" xmlns:xlink="http://www.w3.org/1999/xlink">
<g id="graph0" class="graph" transform="scale(1 1) rotate(0) translate(4 572)">
<title>gko::solver::Cg&lt; ValueType &gt;</title>
<polygon fill="#ffffff" stroke="transparent" points="-4,4 -4,-572 2396,-572 2396,4 -4,4"/>
<!-- Node1 -->
<g id="node1" class="node">
<title>Node1</title>
<g id="a_node1"><a xlink:title="CG or the conjugate gradient method is an iterative type Krylov subspace method which is suitable for...">
<polygon fill="#bfbfbf" stroke="#000000" points="2231,-161.5 2231,-180.5 2392,-180.5 2392,-161.5 2231,-161.5"/>
<text text-anchor="middle" x="2311.5" y="-168.5" font-family="Helvetica,sans-Serif" font-size="10.00" fill="#000000">gko::solver::Cg&lt; ValueType &gt;</text>
</a>
</g>
</g>
<!-- Node2 -->
<g id="node2" class="node">
<title>Node2</title>
<g id="a_node2"><a xlink:href="classgko_1_1EnableLinOp.html" target="_top" xlink:title=" ">
<polygon fill="#ffffff" stroke="#000000" points="2040.5,-316 2040.5,-346 2165.5,-346 2165.5,-316 2040.5,-316"/>
<text text-anchor="start" x="2048.5" y="-334" font-family="Helvetica,sans-Serif" font-size="10.00" fill="#000000">gko::EnableLinOp&lt; Cg</text>
<text text-anchor="middle" x="2103" y="-323" font-family="Helvetica,sans-Serif" font-size="10.00" fill="#000000">&lt; ValueType &gt; &gt;</text>
</a>
</g>
</g>
<!-- Node2&#45;&gt;Node1 -->
<g id="edge1" class="edge">
<title>Node2&#45;&gt;Node1</title>
<path fill="none" stroke="#191970" d="M2130.6235,-309.8021C2176.3801,-274.6891 2266.1178,-205.8257 2299.0226,-180.575"/>
<polygon fill="#191970" stroke="#191970" points="2128.4177,-307.083 2122.6152,-315.9476 2132.6793,-312.6363 2128.4177,-307.083"/>
</g>
<!-- Node3 -->
<g id="node3" class="node">
<title>Node3</title>
<g id="a_node3"><a xlink:href="classgko_1_1EnablePolymorphicObject.html" target="_top" xlink:title=" ">
<polygon fill="#ffffff" stroke="#000000" points="1631.5,-454 1631.5,-484 1797.5,-484 1797.5,-454 1631.5,-454"/>
<text text-anchor="start" x="1639.5" y="-472" font-family="Helvetica,sans-Serif" font-size="10.00" fill="#000000">gko::EnablePolymorphicObject</text>
<text text-anchor="middle" x="1714.5" y="-461" font-family="Helvetica,sans-Serif" font-size="10.00" fill="#000000">&lt; Cg&lt; ValueType &gt;, LinOp &gt;</text>
</a>
</g>
</g>
<!-- Node3&#45;&gt;Node2 -->
<g id="edge2" class="edge">
<title>Node3&#45;&gt;Node2</title>
<path fill="none" stroke="#191970" d="M1766.4029,-450.5635C1844.0864,-422.9693 1989.1057,-371.4567 2060.7363,-346.0126"/>
<polygon fill="#191970" stroke="#191970" points="1765.0675,-447.3235 1756.8159,-453.9689 1767.4106,-453.9197 1765.0675,-447.3235"/>
</g>
<!-- Node4 -->
<g id="node4" class="node">
<title>Node4</title>
<g id="a_node4"><a xlink:href="classgko_1_1EnableAbstractPolymorphicObject.html" target="_top" xlink:title=" ">
<polygon fill="#ffffff" stroke="#000000" points="1284,-509.5 1284,-550.5 1459,-550.5 1459,-509.5 1284,-509.5"/>
<text text-anchor="start" x="1292" y="-538.5" font-family="Helvetica,sans-Serif" font-size="10.00" fill="#000000">gko::EnableAbstractPolymorphic</text>
<text text-anchor="start" x="1292" y="-527.5" font-family="Helvetica,sans-Serif" font-size="10.00" fill="#000000">Object&lt; Cg&lt; ValueType &gt;,</text>
<text text-anchor="middle" x="1371.5" y="-516.5" font-family="Helvetica,sans-Serif" font-size="10.00" fill="#000000"> LinOp &gt;</text>
</a>
</g>
</g>
<!-- Node4&#45;&gt;Node3 -->
<g id="edge3" class="edge">
<title>Node4&#45;&gt;Node3</title>
<path fill="none" stroke="#191970" d="M1469.4614,-512.5783C1520.5931,-503.4849 1582.4834,-492.4782 1631.2714,-483.8016"/>
<polygon fill="#191970" stroke="#191970" points="1468.6183,-509.1732 1459.3856,-514.3702 1469.844,-516.0651 1468.6183,-509.1732"/>
</g>
<!-- Node5 -->
<g id="node5" class="node">
<title>Node5</title>
<g id="a_node5"><a xlink:href="classgko_1_1LinOp.html" target="_top" xlink:title=" ">
<polygon fill="#ffffff" stroke="#000000" points="945.5,-516.5 945.5,-535.5 1013.5,-535.5 1013.5,-516.5 945.5,-516.5"/>
<text text-anchor="middle" x="979.5" y="-523.5" font-family="Helvetica,sans-Serif" font-size="10.00" fill="#000000">gko::LinOp</text>
</a>
</g>
</g>
<!-- Node5&#45;&gt;Node4 -->
<g id="edge4" class="edge">
<title>Node5&#45;&gt;Node4</title>
<path fill="none" stroke="#191970" d="M1023.9667,-526.4537C1086.8762,-527.0957 1203.1665,-528.2823 1283.805,-529.1052"/>
<polygon fill="#191970" stroke="#191970" points="1023.6369,-522.9503 1013.6017,-526.348 1023.5654,-529.9499 1023.6369,-522.9503"/>
</g>
<!-- Node6 -->
<g id="node6" class="node">
<title>Node6</title>
<g id="a_node6"><a xlink:href="classgko_1_1EnableAbstractPolymorphicObject.html" target="_top" xlink:title=" ">
<polygon fill="#ffffff" stroke="#ff0000" points="542,-506 542,-536 717,-536 717,-506 542,-506"/>
<text text-anchor="start" x="550" y="-524" font-family="Helvetica,sans-Serif" font-size="10.00" fill="#000000">gko::EnableAbstractPolymorphic</text>
<text text-anchor="middle" x="629.5" y="-513" font-family="Helvetica,sans-Serif" font-size="10.00" fill="#000000">Object&lt; LinOp &gt;</text>
</a>
</g>
</g>
<!-- Node6&#45;&gt;Node5 -->
<g id="edge5" class="edge">
<title>Node6&#45;&gt;Node5</title>
<path fill="none" stroke="#191970" d="M727.4901,-522.3999C800.32,-523.4403 895.3785,-524.7983 945.3613,-525.5123"/>
<polygon fill="#191970" stroke="#191970" points="727.417,-518.8986 717.368,-522.2553 727.317,-525.8978 727.417,-518.8986"/>
</g>
<!-- Node12 -->
<g id="node7" class="node">
<title>Node12</title>
<g id="a_node7"><a xlink:href="classgko_1_1EnableAbstractPolymorphicObject.html" target="_top" xlink:title="This mixin inherits from (a subclass of) PolymorphicObject and provides a base implementation of a ne...">
<polygon fill="#ffffff" stroke="#000000" points="138,-480.5 138,-521.5 336,-521.5 336,-480.5 138,-480.5"/>
<text text-anchor="start" x="146" y="-509.5" font-family="Helvetica,sans-Serif" font-size="10.00" fill="#000000">gko::EnableAbstractPolymorphic</text>
<text text-anchor="start" x="146" y="-498.5" font-family="Helvetica,sans-Serif" font-size="10.00" fill="#000000">Object&lt; AbstractObject, Polymorphic</text>
<text text-anchor="middle" x="237" y="-487.5" font-family="Helvetica,sans-Serif" font-size="10.00" fill="#000000">Base &gt;</text>
</a>
</g>
</g>
<!-- Node12&#45;&gt;Node4 -->
<g id="edge8" class="edge">
<title>Node12&#45;&gt;Node4</title>
<path fill="none" stroke="#ffa500" stroke-dasharray="5,2" d="M322.7837,-523.8382C333.2505,-526.1576 343.8353,-528.2858 354,-530 431.0147,-542.988 450.979,-542.4407 529,-546 564.4922,-547.6191 959.5123,-546.2484 1082,-545 1158.0077,-544.2253 1177.1216,-546.4997 1253,-542 1263.0113,-541.4063 1273.4825,-540.6069 1283.8801,-539.7009"/>
<polygon fill="#ffa500" stroke="#ffa500" points="323.33,-520.373 312.8022,-521.5631 321.7743,-527.198 323.33,-520.373"/>
<text text-anchor="start" x="752" y="-560" font-family="Helvetica,sans-Serif" font-size="10.00" fill="#000000"> &lt; Cg&lt; ValueType &gt;,</text>
<text text-anchor="middle" x="803.5" y="-549" font-family="Helvetica,sans-Serif" font-size="10.00" fill="#000000"> LinOp &gt;</text>
</g>
<!-- Node12&#45;&gt;Node6 -->
<g id="edge6" class="edge">
<title>Node12&#45;&gt;Node6</title>
<path fill="none" stroke="#ffa500" stroke-dasharray="5,2" d="M346.3159,-507.5838C348.902,-507.7255 351.4664,-507.8644 354,-508 416.7568,-511.3579 487.5803,-514.6897 541.703,-517.1396"/>
<polygon fill="#ffa500" stroke="#ffa500" points="346.4309,-504.0848 336.2522,-507.0249 346.0427,-511.0741 346.4309,-504.0848"/>
<text text-anchor="middle" x="432.5" y="-518" font-family="Helvetica,sans-Serif" font-size="10.00" fill="#000000"> &lt; LinOp &gt;</text>
</g>
<!-- Node14 -->
<g id="node10" class="node">
<title>Node14</title>
<g id="a_node10"><a xlink:href="classgko_1_1EnableAbstractPolymorphicObject.html" target="_top" xlink:title=" ">
<polygon fill="#ffffff" stroke="#000000" points="529,-443.5 529,-484.5 730,-484.5 730,-443.5 529,-443.5"/>
<text text-anchor="start" x="537" y="-472.5" font-family="Helvetica,sans-Serif" font-size="10.00" fill="#000000">gko::EnableAbstractPolymorphic</text>
<text text-anchor="start" x="537" y="-461.5" font-family="Helvetica,sans-Serif" font-size="10.00" fill="#000000">Object&lt; ConcreteObject, Polymorphic</text>
<text text-anchor="middle" x="629.5" y="-450.5" font-family="Helvetica,sans-Serif" font-size="10.00" fill="#000000">Base &gt;</text>
</a>
</g>
</g>
<!-- Node12&#45;&gt;Node14 -->
<g id="edge12" class="edge">
<title>Node12&#45;&gt;Node14</title>
<path fill="none" stroke="#ffa500" stroke-dasharray="5,2" d="M346.2728,-482.9171C348.8718,-482.5961 351.4505,-482.2896 354,-482 411.7459,-475.44 476.5935,-471.0562 528.8616,-468.2587"/>
<polygon fill="#ffa500" stroke="#ffa500" points="345.6355,-479.4703 336.1662,-484.2224 346.5322,-486.4126 345.6355,-479.4703"/>
<text text-anchor="start" x="354" y="-496" font-family="Helvetica,sans-Serif" font-size="10.00" fill="#000000"> &lt; ConcreteObject, Polymorphic</text>
<text text-anchor="middle" x="432.5" y="-485" font-family="Helvetica,sans-Serif" font-size="10.00" fill="#000000">Base &gt;</text>
</g>
<!-- Node21 -->
<g id="node17" class="node">
<title>Node21</title>
<g id="a_node17"><a xlink:href="classgko_1_1EnableAbstractPolymorphicObject.html" target="_top" xlink:title=" ">
<polygon fill="#ffffff" stroke="#000000" points="531,-378.5 531,-419.5 728,-419.5 728,-378.5 531,-378.5"/>
<text text-anchor="start" x="539" y="-407.5" font-family="Helvetica,sans-Serif" font-size="10.00" fill="#000000">gko::EnableAbstractPolymorphic</text>
<text text-anchor="start" x="539" y="-396.5" font-family="Helvetica,sans-Serif" font-size="10.00" fill="#000000">Object&lt; ConcreteLinOp, Polymorphic</text>
<text text-anchor="middle" x="629.5" y="-385.5" font-family="Helvetica,sans-Serif" font-size="10.00" fill="#000000">Base &gt;</text>
</a>
</g>
</g>
<!-- Node12&#45;&gt;Node21 -->
<g id="edge22" class="edge">
<title>Node12&#45;&gt;Node21</title>
<path fill="none" stroke="#ffa500" stroke-dasharray="5,2" d="M280.2978,-475.6151C301.8104,-464.0335 328.5847,-451.1215 354,-443 411.2106,-424.7182 477.6361,-413.8236 530.9267,-407.4492"/>
<polygon fill="#ffa500" stroke="#ffa500" points="278.5078,-472.6049 271.4196,-480.4793 281.8713,-478.7439 278.5078,-472.6049"/>
<text text-anchor="start" x="356" y="-457" font-family="Helvetica,sans-Serif" font-size="10.00" fill="#000000"> &lt; ConcreteLinOp, Polymorphic</text>
<text text-anchor="middle" x="432.5" y="-446" font-family="Helvetica,sans-Serif" font-size="10.00" fill="#000000">Base &gt;</text>
</g>
<!-- Node11 -->
<g id="node8" class="node">
<title>Node11</title>
<g id="a_node8"><a xlink:title=" ">
<polygon fill="#ffffff" stroke="#bfbfbf" points="0,-442.5 0,-461.5 101,-461.5 101,-442.5 0,-442.5"/>
<text text-anchor="middle" x="50.5" y="-449.5" font-family="Helvetica,sans-Serif" font-size="10.00" fill="#000000">PolymorphicBase</text>
</a>
</g>
</g>
<!-- Node11&#45;&gt;Node12 -->
<g id="edge7" class="edge">
<title>Node11&#45;&gt;Node12</title>
<path fill="none" stroke="#191970" d="M96.6373,-464.1219C115.3596,-469.0409 137.5184,-474.8628 158.6324,-480.4101"/>
<polygon fill="#191970" stroke="#191970" points="97.463,-460.7201 86.9018,-461.564 95.6842,-467.4903 97.463,-460.7201"/>
</g>
<!-- Node11&#45;&gt;Node14 -->
<g id="edge11" class="edge">
<title>Node11&#45;&gt;Node14</title>
<path fill="none" stroke="#191970" d="M111.2841,-453.2598C210.5662,-455.3174 408.5048,-459.4198 528.9546,-461.9162"/>
<polygon fill="#191970" stroke="#191970" points="111.1924,-449.7572 101.122,-453.0492 111.0473,-456.7557 111.1924,-449.7572"/>
</g>
<!-- Node11&#45;&gt;Node21 -->
<g id="edge21" class="edge">
<title>Node11&#45;&gt;Node21</title>
<path fill="none" stroke="#191970" d="M110.3244,-440.6707C171.3459,-429.6489 268.8885,-413.5016 354,-406 412.5033,-400.8436 478.2438,-399.0227 530.8305,-398.5242"/>
<polygon fill="#191970" stroke="#191970" points="109.6932,-437.228 100.4812,-442.4614 110.9462,-444.1149 109.6932,-437.228"/>
</g>
<!-- Node13 -->
<g id="node9" class="node">
<title>Node13</title>
<g id="a_node9"><a xlink:href="classgko_1_1EnablePolymorphicObject.html" target="_top" xlink:title="This mixin inherits from (a subclass of) PolymorphicObject and provides a base implementation of a ne...">
<polygon fill="#ffffff" stroke="#000000" points="877,-449 877,-479 1082,-479 1082,-449 877,-449"/>
<text text-anchor="start" x="885" y="-467" font-family="Helvetica,sans-Serif" font-size="10.00" fill="#000000">gko::EnablePolymorphicObject</text>
<text text-anchor="middle" x="979.5" y="-456" font-family="Helvetica,sans-Serif" font-size="10.00" fill="#000000">&lt; ConcreteObject, PolymorphicBase &gt;</text>
</a>
</g>
</g>
<!-- Node13&#45;&gt;Node3 -->
<g id="edge9" class="edge">
<title>Node13&#45;&gt;Node3</title>
<path fill="none" stroke="#ffa500" stroke-dasharray="5,2" d="M1092.1601,-464.7664C1240.8797,-465.7781 1499.2798,-467.5359 1631.4452,-468.435"/>
<polygon fill="#ffa500" stroke="#ffa500" points="1092.1089,-461.2661 1082.0853,-464.6979 1092.0612,-468.2659 1092.1089,-461.2661"/>
<text text-anchor="start" x="1320" y="-481" font-family="Helvetica,sans-Serif" font-size="10.00" fill="#000000"> &lt; Cg&lt; ValueType &gt;,</text>
<text text-anchor="middle" x="1371.5" y="-470" font-family="Helvetica,sans-Serif" font-size="10.00" fill="#000000"> LinOp &gt;</text>
</g>
<!-- Node20 -->
<g id="node16" class="node">
<title>Node20</title>
<g id="a_node16"><a xlink:href="classgko_1_1EnablePolymorphicObject.html" target="_top" xlink:title=" ">
<polygon fill="#ffffff" stroke="#000000" points="1271,-384 1271,-414 1472,-414 1472,-384 1271,-384"/>
<text text-anchor="start" x="1279" y="-402" font-family="Helvetica,sans-Serif" font-size="10.00" fill="#000000">gko::EnablePolymorphicObject</text>
<text text-anchor="middle" x="1371.5" y="-391" font-family="Helvetica,sans-Serif" font-size="10.00" fill="#000000">&lt; ConcreteLinOp, PolymorphicBase &gt;</text>
</a>
</g>
</g>
<!-- Node13&#45;&gt;Node20 -->
<g id="edge23" class="edge">
<title>Node13&#45;&gt;Node20</title>
<path fill="none" stroke="#ffa500" stroke-dasharray="5,2" d="M1041.7937,-446.3644C1060.4068,-441.5322 1080.9335,-436.6311 1100,-433 1156.1145,-422.3133 1219.4166,-414.1644 1270.7727,-408.5271"/>
<polygon fill="#ffa500" stroke="#ffa500" points="1040.7408,-443.0223 1031.963,-448.9553 1042.5248,-449.7911 1040.7408,-443.0223"/>
<text text-anchor="start" x="1100" y="-447" font-family="Helvetica,sans-Serif" font-size="10.00" fill="#000000"> &lt; ConcreteLinOp, Polymorphic</text>
<text text-anchor="middle" x="1176.5" y="-436" font-family="Helvetica,sans-Serif" font-size="10.00" fill="#000000">Base &gt;</text>
</g>
<!-- Node14&#45;&gt;Node13 -->
<g id="edge10" class="edge">
<title>Node14&#45;&gt;Node13</title>
<path fill="none" stroke="#191970" d="M740.3503,-464C784.0167,-464 833.8678,-464 876.7147,-464"/>
<polygon fill="#191970" stroke="#191970" points="740.265,-460.5001 730.2649,-464 740.2649,-467.5001 740.265,-460.5001"/>
</g>
<!-- Node15 -->
<g id="node11" class="node">
<title>Node15</title>
<g id="a_node11"><a xlink:href="classgko_1_1EnablePolymorphicAssignment.html" target="_top" xlink:title=" ">
<polygon fill="#ffffff" stroke="#000000" points="1275.5,-334 1275.5,-364 1467.5,-364 1467.5,-334 1275.5,-334"/>
<text text-anchor="start" x="1283.5" y="-352" font-family="Helvetica,sans-Serif" font-size="10.00" fill="#000000">gko::EnablePolymorphicAssignment</text>
<text text-anchor="middle" x="1371.5" y="-341" font-family="Helvetica,sans-Serif" font-size="10.00" fill="#000000">&lt; Cg&lt; ValueType &gt; &gt;</text>
</a>
</g>
</g>
<!-- Node15&#45;&gt;Node2 -->
<g id="edge13" class="edge">
<title>Node15&#45;&gt;Node2</title>
<path fill="none" stroke="#191970" d="M1477.9998,-347.0644C1601.9618,-344.7049 1812.8367,-340.361 1994,-335 2009.0478,-334.5547 2025.2614,-334.0002 2040.4655,-333.4473"/>
<polygon fill="#191970" stroke="#191970" points="1477.6856,-343.5697 1467.7538,-347.2587 1477.8184,-350.5684 1477.6856,-343.5697"/>
</g>
<!-- Node16 -->
<g id="node12" class="node">
<title>Node16</title>
<g id="a_node12"><a xlink:href="classgko_1_1ConvertibleTo.html" target="_top" xlink:title=" ">
<polygon fill="#ffffff" stroke="#000000" points="917.5,-340 917.5,-370 1041.5,-370 1041.5,-340 917.5,-340"/>
<text text-anchor="start" x="925.5" y="-358" font-family="Helvetica,sans-Serif" font-size="10.00" fill="#000000">gko::ConvertibleTo</text>
<text text-anchor="middle" x="979.5" y="-347" font-family="Helvetica,sans-Serif" font-size="10.00" fill="#000000">&lt; Cg&lt; ValueType &gt; &gt;</text>
</a>
</g>
</g>
<!-- Node16&#45;&gt;Node15 -->
<g id="edge14" class="edge">
<title>Node16&#45;&gt;Node15</title>
<path fill="none" stroke="#191970" d="M1051.8367,-353.8928C1114.6997,-352.9306 1206.2542,-351.5293 1275.2864,-350.4727"/>
<polygon fill="#191970" stroke="#191970" points="1051.5588,-350.3966 1041.6136,-354.0493 1051.666,-357.3957 1051.5588,-350.3966"/>
</g>
<!-- Node17 -->
<g id="node13" class="node">
<title>Node17</title>
<g id="a_node13"><a xlink:href="classgko_1_1ConvertibleTo.html" target="_top" xlink:title="ConvertibleTo interface is used to mark that the implementer can be converted to the object of Result...">
<polygon fill="#ffffff" stroke="#000000" points="576,-291 576,-321 683,-321 683,-291 576,-291"/>
<text text-anchor="start" x="584" y="-309" font-family="Helvetica,sans-Serif" font-size="10.00" fill="#000000">gko::ConvertibleTo</text>
<text text-anchor="middle" x="629.5" y="-298" font-family="Helvetica,sans-Serif" font-size="10.00" fill="#000000">&lt; ResultType &gt;</text>
</a>
</g>
</g>
<!-- Node17&#45;&gt;Node16 -->
<g id="edge15" class="edge">
<title>Node17&#45;&gt;Node16</title>
<path fill="none" stroke="#ffa500" stroke-dasharray="5,2" d="M692.9621,-314.8847C756.6682,-323.8035 854.1855,-337.456 917.4031,-346.3064"/>
<polygon fill="#ffa500" stroke="#ffa500" points="693.4272,-311.4158 683.0385,-313.4954 692.4566,-318.3481 693.4272,-311.4158"/>
<text text-anchor="middle" x="803.5" y="-340" font-family="Helvetica,sans-Serif" font-size="10.00" fill="#000000"> &lt; Cg&lt; ValueType &gt; &gt;</text>
</g>
<!-- Node18 -->
<g id="node14" class="node">
<title>Node18</title>
<g id="a_node14"><a xlink:href="classgko_1_1EnablePolymorphicAssignment.html" target="_top" xlink:title="This mixin is used to enable a default PolymorphicObject::copy_from() implementation for objects that...">
<polygon fill="#ffffff" stroke="#000000" points="883.5,-291 883.5,-321 1075.5,-321 1075.5,-291 883.5,-291"/>
<text text-anchor="start" x="891.5" y="-309" font-family="Helvetica,sans-Serif" font-size="10.00" fill="#000000">gko::EnablePolymorphicAssignment</text>
<text text-anchor="middle" x="979.5" y="-298" font-family="Helvetica,sans-Serif" font-size="10.00" fill="#000000">&lt; ConcreteType, ResultType &gt;</text>
</a>
</g>
</g>
<!-- Node17&#45;&gt;Node18 -->
<g id="edge17" class="edge">
<title>Node17&#45;&gt;Node18</title>
<path fill="none" stroke="#191970" d="M693.3361,-306C746.4357,-306 822.8362,-306 883.3406,-306"/>
<polygon fill="#191970" stroke="#191970" points="693.0385,-302.5001 683.0385,-306 693.0384,-309.5001 693.0385,-302.5001"/>
</g>
<!-- Node23 -->
<g id="node19" class="node">
<title>Node23</title>
<g id="a_node19"><a xlink:href="classgko_1_1ConvertibleTo.html" target="_top" xlink:title=" ">
<polygon fill="#ffffff" stroke="#000000" points="924.5,-242 924.5,-272 1034.5,-272 1034.5,-242 924.5,-242"/>
<text text-anchor="start" x="932.5" y="-260" font-family="Helvetica,sans-Serif" font-size="10.00" fill="#000000">gko::ConvertibleTo</text>
<text text-anchor="middle" x="979.5" y="-249" font-family="Helvetica,sans-Serif" font-size="10.00" fill="#000000">&lt; ConcreteLinOp &gt;</text>
</a>
</g>
</g>
<!-- Node17&#45;&gt;Node23 -->
<g id="edge26" class="edge">
<title>Node17&#45;&gt;Node23</title>
<path fill="none" stroke="#ffa500" stroke-dasharray="5,2" d="M693.3193,-297.0653C759.3792,-287.8169 861.5155,-273.5178 924.2338,-264.7373"/>
<polygon fill="#ffa500" stroke="#ffa500" points="692.4566,-293.6519 683.0385,-298.5046 693.4272,-300.5843 692.4566,-293.6519"/>
<text text-anchor="middle" x="803.5" y="-291" font-family="Helvetica,sans-Serif" font-size="10.00" fill="#000000"> &lt; ConcreteLinOp &gt;</text>
</g>
<!-- Node18&#45;&gt;Node15 -->
<g id="edge16" class="edge">
<title>Node18&#45;&gt;Node15</title>
<path fill="none" stroke="#ffa500" stroke-dasharray="5,2" d="M1085.7108,-316.9634C1136.3757,-322.2695 1197.8374,-328.8172 1253,-335 1260.3084,-335.8192 1267.8686,-336.6803 1275.4703,-337.5562"/>
<polygon fill="#ffa500" stroke="#ffa500" points="1086.0366,-313.4785 1075.7268,-315.9192 1085.3084,-320.4405 1086.0366,-313.4785"/>
<text text-anchor="middle" x="1176.5" y="-338" font-family="Helvetica,sans-Serif" font-size="10.00" fill="#000000"> &lt; Cg&lt; ValueType &gt; &gt;</text>
</g>
<!-- Node22 -->
<g id="node18" class="node">
<title>Node22</title>
<g id="a_node18"><a xlink:href="classgko_1_1EnablePolymorphicAssignment.html" target="_top" xlink:title=" ">
<polygon fill="#ffffff" stroke="#000000" points="1275.5,-281 1275.5,-311 1467.5,-311 1467.5,-281 1275.5,-281"/>
<text text-anchor="start" x="1283.5" y="-299" font-family="Helvetica,sans-Serif" font-size="10.00" fill="#000000">gko::EnablePolymorphicAssignment</text>
<text text-anchor="middle" x="1371.5" y="-288" font-family="Helvetica,sans-Serif" font-size="10.00" fill="#000000">&lt; ConcreteLinOp &gt;</text>
</a>
</g>
</g>
<!-- Node18&#45;&gt;Node22 -->
<g id="edge27" class="edge">
<title>Node18&#45;&gt;Node22</title>
<path fill="none" stroke="#ffa500" stroke-dasharray="5,2" d="M1086.1315,-297.6297C1090.8164,-297.3901 1095.4554,-297.1779 1100,-297 1158.1681,-294.7235 1223.3995,-294.4107 1275.3417,-294.6968"/>
<polygon fill="#ffa500" stroke="#ffa500" points="1085.6142,-294.1528 1075.8209,-298.1951 1085.9975,-301.1423 1085.6142,-294.1528"/>
<text text-anchor="middle" x="1176.5" y="-300" font-family="Helvetica,sans-Serif" font-size="10.00" fill="#000000"> &lt; ConcreteLinOp &gt;</text>
</g>
<!-- Node19 -->
<g id="node15" class="node">
<title>Node19</title>
<g id="a_node15"><a xlink:href="classgko_1_1EnableLinOp.html" target="_top" xlink:title="The EnableLinOp mixin can be used to provide sensible default implementations of the majority of the ...">
<polygon fill="#ffffff" stroke="#000000" points="1636.5,-290 1636.5,-320 1792.5,-320 1792.5,-290 1636.5,-290"/>
<text text-anchor="start" x="1644.5" y="-308" font-family="Helvetica,sans-Serif" font-size="10.00" fill="#000000">gko::EnableLinOp&lt; Concrete</text>
<text text-anchor="middle" x="1714.5" y="-297" font-family="Helvetica,sans-Serif" font-size="10.00" fill="#000000">LinOp, PolymorphicBase &gt;</text>
</a>
</g>
</g>
<!-- Node19&#45;&gt;Node2 -->
<g id="edge18" class="edge">
<title>Node19&#45;&gt;Node2</title>
<path fill="none" stroke="#ffa500" stroke-dasharray="5,2" d="M1802.6776,-310.9012C1875.1157,-315.7491 1975.9372,-322.4964 2040.3389,-326.8065"/>
<polygon fill="#ffa500" stroke="#ffa500" points="1802.8629,-307.4059 1792.6514,-310.2302 1802.3954,-314.3902 1802.8629,-307.4059"/>
<text text-anchor="middle" x="1911" y="-326" font-family="Helvetica,sans-Serif" font-size="10.00" fill="#000000"> &lt; Cg&lt; ValueType &gt; &gt;</text>
</g>
<!-- Node20&#45;&gt;Node19 -->
<g id="edge19" class="edge">
<title>Node20&#45;&gt;Node19</title>
<path fill="none" stroke="#191970" d="M1442.9482,-381.5389C1452.7232,-379.0589 1462.6186,-376.5008 1472,-374 1538.403,-356.2992 1614.5662,-334.3577 1663.543,-320.0345"/>
<polygon fill="#191970" stroke="#191970" points="1442.0774,-378.1489 1433.2368,-383.9879 1443.7891,-384.9364 1442.0774,-378.1489"/>
</g>
<!-- Node21&#45;&gt;Node20 -->
<g id="edge20" class="edge">
<title>Node21&#45;&gt;Node20</title>
<path fill="none" stroke="#191970" d="M738.1596,-399C881.4298,-399 1131.5884,-399 1270.7777,-399"/>
<polygon fill="#191970" stroke="#191970" points="738.0319,-395.5001 728.0319,-399 738.0318,-402.5001 738.0319,-395.5001"/>
</g>
<!-- Node22&#45;&gt;Node19 -->
<g id="edge24" class="edge">
<title>Node22&#45;&gt;Node19</title>
<path fill="none" stroke="#191970" d="M1477.6326,-298.7848C1528.9372,-300.131 1589.4199,-301.718 1636.4258,-302.9514"/>
<polygon fill="#191970" stroke="#191970" points="1477.5891,-295.2826 1467.5007,-298.519 1477.4054,-302.2802 1477.5891,-295.2826"/>
</g>
<!-- Node23&#45;&gt;Node22 -->
<g id="edge25" class="edge">
<title>Node23&#45;&gt;Node22</title>
<path fill="none" stroke="#191970" d="M1045.0239,-263.519C1107.9342,-269.7779 1203.7021,-279.3058 1275.2698,-286.4261"/>
<polygon fill="#191970" stroke="#191970" points="1045.13,-260.0123 1034.8326,-262.505 1044.437,-266.9779 1045.13,-260.0123"/>
</g>
<!-- Node24 -->
<g id="node20" class="node">
<title>Node24</title>
<g id="a_node20"><a xlink:href="classgko_1_1solver_1_1EnablePreconditionedIterativeSolver.html" target="_top" xlink:title=" ">
<polygon fill="#ffffff" stroke="#000000" points="2012,-150.5 2012,-191.5 2194,-191.5 2194,-150.5 2012,-150.5"/>
<text text-anchor="start" x="2020" y="-179.5" font-family="Helvetica,sans-Serif" font-size="10.00" fill="#000000">gko::solver::EnablePreconditioned</text>
<text text-anchor="start" x="2020" y="-168.5" font-family="Helvetica,sans-Serif" font-size="10.00" fill="#000000">IterativeSolver&lt; ValueType,</text>
<text text-anchor="middle" x="2103" y="-157.5" font-family="Helvetica,sans-Serif" font-size="10.00" fill="#000000"> Cg&lt; ValueType &gt; &gt;</text>
</a>
</g>
</g>
<!-- Node24&#45;&gt;Node1 -->
<g id="edge28" class="edge">
<title>Node24&#45;&gt;Node1</title>
<path fill="none" stroke="#191970" d="M2204.1658,-171C2213.0625,-171 2221.9891,-171 2230.6862,-171"/>
<polygon fill="#191970" stroke="#191970" points="2204.1479,-167.5001 2194.1478,-171 2204.1478,-174.5001 2204.1479,-167.5001"/>
</g>
<!-- Node25 -->
<g id="node21" class="node">
<title>Node25</title>
<g id="a_node21"><a xlink:href="classgko_1_1solver_1_1EnableSolverBase.html" target="_top" xlink:title=" ">
<polygon fill="#ffffff" stroke="#000000" points="1297.5,-212 1297.5,-242 1445.5,-242 1445.5,-212 1297.5,-212"/>
<text text-anchor="start" x="1305.5" y="-230" font-family="Helvetica,sans-Serif" font-size="10.00" fill="#000000">gko::solver::EnableSolver</text>
<text text-anchor="middle" x="1371.5" y="-219" font-family="Helvetica,sans-Serif" font-size="10.00" fill="#000000">Base&lt; Cg&lt; ValueType &gt; &gt;</text>
</a>
</g>
</g>
<!-- Node25&#45;&gt;Node24 -->
<g id="edge29" class="edge">
<title>Node25&#45;&gt;Node24</title>
<path fill="none" stroke="#191970" d="M1456.1582,-223.7494C1576.1118,-218.6153 1802.2936,-206.9886 1994,-186 1999.7915,-185.3659 2005.7502,-184.67 2011.754,-183.936"/>
<polygon fill="#191970" stroke="#191970" points="1455.787,-220.2619 1445.944,-224.1818 1456.0831,-227.2556 1455.787,-220.2619"/>
</g>
<!-- Node26 -->
<g id="node22" class="node">
<title>Node26</title>
<g id="a_node22"><a xlink:href="classgko_1_1solver_1_1SolverBase.html" target="_top" xlink:title=" ">
<polygon fill="#ffffff" stroke="#000000" points="914,-137 914,-167 1045,-167 1045,-137 914,-137"/>
<text text-anchor="start" x="922" y="-155" font-family="Helvetica,sans-Serif" font-size="10.00" fill="#000000">gko::solver::SolverBase</text>
<text text-anchor="middle" x="979.5" y="-144" font-family="Helvetica,sans-Serif" font-size="10.00" fill="#000000">&lt; LinOp &gt;</text>
</a>
</g>
</g>
<!-- Node26&#45;&gt;Node25 -->
<g id="edge30" class="edge">
<title>Node26&#45;&gt;Node25</title>
<path fill="none" stroke="#191970" d="M1054.7829,-166.7913C1064.1382,-169.6626 1073.4212,-173.0411 1082,-177 1090.9602,-181.1349 1090.8374,-186.3354 1100,-190 1134.7834,-203.9117 1229.5333,-214.7105 1297.2968,-220.9609"/>
<polygon fill="#191970" stroke="#191970" points="1055.6124,-163.3879 1045.0341,-163.9797 1053.6726,-170.1138 1055.6124,-163.3879"/>
</g>
<!-- Node36 -->
<g id="node32" class="node">
<title>Node36</title>
<g id="a_node32"><a xlink:href="classgko_1_1solver_1_1EnableSolverBase.html" target="_top" xlink:title=" ">
<polygon fill="#ffffff" stroke="#000000" points="1301.5,-163 1301.5,-193 1441.5,-193 1441.5,-163 1301.5,-163"/>
<text text-anchor="start" x="1309.5" y="-181" font-family="Helvetica,sans-Serif" font-size="10.00" fill="#000000">gko::solver::EnableSolver</text>
<text text-anchor="middle" x="1371.5" y="-170" font-family="Helvetica,sans-Serif" font-size="10.00" fill="#000000">Base&lt; DerivedType &gt;</text>
</a>
</g>
</g>
<!-- Node26&#45;&gt;Node36 -->
<g id="edge44" class="edge">
<title>Node26&#45;&gt;Node36</title>
<path fill="none" stroke="#191970" d="M1055.3551,-157.0312C1126.5298,-161.752 1232.1175,-168.7552 1301.3697,-173.3485"/>
<polygon fill="#191970" stroke="#191970" points="1055.3217,-153.5214 1045.112,-156.3518 1054.8584,-160.506 1055.3217,-153.5214"/>
</g>
<!-- Node27 -->
<g id="node23" class="node">
<title>Node27</title>
<g id="a_node23"><a xlink:href="classgko_1_1solver_1_1SolverBase.html" target="_top" xlink:title="A LinOp implementing this interface stores a system matrix.">
<polygon fill="#ffffff" stroke="#000000" points="564,-159 564,-189 695,-189 695,-159 564,-159"/>
<text text-anchor="start" x="572" y="-177" font-family="Helvetica,sans-Serif" font-size="10.00" fill="#000000">gko::solver::SolverBase</text>
<text text-anchor="middle" x="629.5" y="-166" font-family="Helvetica,sans-Serif" font-size="10.00" fill="#000000">&lt; MatrixType &gt;</text>
</a>
</g>
</g>
<!-- Node27&#45;&gt;Node26 -->
<g id="edge31" class="edge">
<title>Node27&#45;&gt;Node26</title>
<path fill="none" stroke="#ffa500" stroke-dasharray="5,2" d="M705.4771,-168.0064C719.6087,-166.955 734.2499,-165.9081 748,-165 803.8318,-161.3125 867.2835,-157.7968 913.6202,-155.3535"/>
<polygon fill="#ffa500" stroke="#ffa500" points="705.0071,-164.5318 695.2973,-168.7709 705.5314,-171.5121 705.0071,-164.5318"/>
<text text-anchor="middle" x="803.5" y="-168" font-family="Helvetica,sans-Serif" font-size="10.00" fill="#000000"> &lt; LinOp &gt;</text>
</g>
<!-- Node28 -->
<g id="node24" class="node">
<title>Node28</title>
<g id="a_node24"><a xlink:href="classgko_1_1solver_1_1EnableSolverBase.html" target="_top" xlink:title="A LinOp deriving from this CRTP class stores a system matrix.">
<polygon fill="#ffffff" stroke="#000000" points="888,-186 888,-216 1071,-216 1071,-186 888,-186"/>
<text text-anchor="start" x="896" y="-204" font-family="Helvetica,sans-Serif" font-size="10.00" fill="#000000">gko::solver::EnableSolver</text>
<text text-anchor="middle" x="979.5" y="-193" font-family="Helvetica,sans-Serif" font-size="10.00" fill="#000000">Base&lt; DerivedType, MatrixType &gt;</text>
</a>
</g>
</g>
<!-- Node27&#45;&gt;Node28 -->
<g id="edge33" class="edge">
<title>Node27&#45;&gt;Node28</title>
<path fill="none" stroke="#191970" d="M705.454,-179.8593C759.0408,-183.9931 831.1008,-189.5521 887.8792,-193.9321"/>
<polygon fill="#191970" stroke="#191970" points="705.5719,-176.3581 695.3323,-179.0785 705.0335,-183.3374 705.5719,-176.3581"/>
</g>
<!-- Node28&#45;&gt;Node25 -->
<g id="edge32" class="edge">
<title>Node28&#45;&gt;Node25</title>
<path fill="none" stroke="#ffa500" stroke-dasharray="5,2" d="M1081.218,-213.3389C1087.5691,-213.9478 1093.8692,-214.509 1100,-215 1166.6662,-220.3391 1242.7456,-223.4448 1297.3742,-225.1533"/>
<polygon fill="#ffa500" stroke="#ffa500" points="1081.5097,-209.8508 1071.2129,-212.3459 1080.8183,-216.8165 1081.5097,-209.8508"/>
<text text-anchor="middle" x="1176.5" y="-226" font-family="Helvetica,sans-Serif" font-size="10.00" fill="#000000"> &lt; Cg&lt; ValueType &gt; &gt;</text>
</g>
<!-- Node28&#45;&gt;Node36 -->
<g id="edge45" class="edge">
<title>Node28&#45;&gt;Node36</title>
<path fill="none" stroke="#ffa500" stroke-dasharray="5,2" d="M1081.4475,-195.0184C1150.5474,-190.9641 1240.0898,-185.7103 1301.2937,-182.1192"/>
<polygon fill="#ffa500" stroke="#ffa500" points="1081.1844,-191.5277 1071.4066,-195.6075 1081.5945,-198.5157 1081.1844,-191.5277"/>
<text text-anchor="middle" x="1176.5" y="-196" font-family="Helvetica,sans-Serif" font-size="10.00" fill="#000000"> &lt; DerivedType &gt;</text>
</g>
<!-- Node29 -->
<g id="node25" class="node">
<title>Node29</title>
<g id="a_node25"><a xlink:href="classgko_1_1solver_1_1EnableIterativeBase.html" target="_top" xlink:title=" ">
<polygon fill="#ffffff" stroke="#000000" points="1639,-26 1639,-56 1790,-56 1790,-26 1639,-26"/>
<text text-anchor="start" x="1647" y="-44" font-family="Helvetica,sans-Serif" font-size="10.00" fill="#000000">gko::solver::EnableIterative</text>
<text text-anchor="middle" x="1714.5" y="-33" font-family="Helvetica,sans-Serif" font-size="10.00" fill="#000000">Base&lt; Cg&lt; ValueType &gt; &gt;</text>
</a>
</g>
</g>
<!-- Node29&#45;&gt;Node24 -->
<g id="edge34" class="edge">
<title>Node29&#45;&gt;Node24</title>
<path fill="none" stroke="#191970" d="M1789.7677,-58.5058C1847.3078,-73.3452 1927.7437,-97.2791 1994,-129 2002.6722,-133.1519 2003.3559,-136.79 2012,-141 2018.8795,-144.3506 2026.2249,-147.4657 2033.6466,-150.3218"/>
<polygon fill="#191970" stroke="#191970" points="1790.5731,-55.0992 1780.0185,-56.0219 1788.8448,-61.8825 1790.5731,-55.0992"/>
</g>
<!-- Node30 -->
<g id="node26" class="node">
<title>Node30</title>
<g id="a_node26"><a xlink:href="classgko_1_1solver_1_1IterativeBase.html" target="_top" xlink:title="A LinOp implementing this interface stores a stopping criterion factory.">
<polygon fill="#ffffff" stroke="#000000" points="908.5,-.5 908.5,-19.5 1050.5,-19.5 1050.5,-.5 908.5,-.5"/>
<text text-anchor="middle" x="979.5" y="-7.5" font-family="Helvetica,sans-Serif" font-size="10.00" fill="#000000">gko::solver::IterativeBase</text>
</a>
</g>
</g>
<!-- Node30&#45;&gt;Node29 -->
<g id="edge35" class="edge">
<title>Node30&#45;&gt;Node29</title>
<path fill="none" stroke="#191970" d="M1060.6242,-8.7414C1158.3051,-7.7451 1327.2988,-7.6769 1472,-16 1527.9865,-19.2203 1590.9809,-25.8043 1638.7308,-31.4073"/>
<polygon fill="#191970" stroke="#191970" points="1060.4874,-5.2426 1050.5258,-8.8504 1060.563,-12.2422 1060.4874,-5.2426"/>
</g>
<!-- Node31 -->
<g id="node27" class="node">
<title>Node31</title>
<g id="a_node27"><a xlink:href="classgko_1_1solver_1_1EnableIterativeBase.html" target="_top" xlink:title="A LinOp deriving from this CRTP class stores a stopping criterion factory.">
<polygon fill="#ffffff" stroke="#000000" points="1296,-26 1296,-56 1447,-56 1447,-26 1296,-26"/>
<text text-anchor="start" x="1304" y="-44" font-family="Helvetica,sans-Serif" font-size="10.00" fill="#000000">gko::solver::EnableIterative</text>
<text text-anchor="middle" x="1371.5" y="-33" font-family="Helvetica,sans-Serif" font-size="10.00" fill="#000000">Base&lt; DerivedType &gt;</text>
</a>
</g>
</g>
<!-- Node30&#45;&gt;Node31 -->
<g id="edge37" class="edge">
<title>Node30&#45;&gt;Node31</title>
<path fill="none" stroke="#191970" d="M1060.9211,-16.4389C1130.0397,-21.9049 1228.4556,-29.6878 1295.8695,-35.019"/>
<polygon fill="#191970" stroke="#191970" points="1061.1879,-12.9492 1050.943,-15.6498 1060.636,-19.9274 1061.1879,-12.9492"/>
</g>
<!-- Node31&#45;&gt;Node29 -->
<g id="edge36" class="edge">
<title>Node31&#45;&gt;Node29</title>
<path fill="none" stroke="#ffa500" stroke-dasharray="5,2" d="M1457.4255,-41C1513.2601,-41 1585.3657,-41 1638.9959,-41"/>
<polygon fill="#ffa500" stroke="#ffa500" points="1457.1975,-37.5001 1447.1974,-41 1457.1974,-44.5001 1457.1975,-37.5001"/>
<text text-anchor="middle" x="1545.5" y="-44" font-family="Helvetica,sans-Serif" font-size="10.00" fill="#000000"> &lt; Cg&lt; ValueType &gt; &gt;</text>
</g>
<!-- Node35 -->
<g id="node31" class="node">
<title>Node35</title>
<g id="a_node31"><a xlink:href="classgko_1_1solver_1_1EnablePreconditionedIterativeSolver.html" target="_top" xlink:title="A LinOp implementing this interface stores a system matrix and stopping criterion factory.">
<polygon fill="#ffffff" stroke="#000000" points="1623.5,-150.5 1623.5,-191.5 1805.5,-191.5 1805.5,-150.5 1623.5,-150.5"/>
<text text-anchor="start" x="1631.5" y="-179.5" font-family="Helvetica,sans-Serif" font-size="10.00" fill="#000000">gko::solver::EnablePreconditioned</text>
<text text-anchor="start" x="1631.5" y="-168.5" font-family="Helvetica,sans-Serif" font-size="10.00" fill="#000000">IterativeSolver&lt; ValueType,</text>
<text text-anchor="middle" x="1714.5" y="-157.5" font-family="Helvetica,sans-Serif" font-size="10.00" fill="#000000"> DerivedType &gt;</text>
</a>
</g>
</g>
<!-- Node31&#45;&gt;Node35 -->
<g id="edge46" class="edge">
<title>Node31&#45;&gt;Node35</title>
<path fill="none" stroke="#191970" d="M1411.3288,-60.9971C1430.9349,-72.0208 1454.1332,-86.93 1472,-104 1482.1621,-113.7089 1478.1898,-122.3809 1490,-130 1501.5278,-137.4369 1566.2928,-148.8275 1623.3166,-157.7169"/>
<polygon fill="#191970" stroke="#191970" points="1412.7708,-57.7962 1402.3194,-56.0588 1409.4062,-63.9346 1412.7708,-57.7962"/>
</g>
<!-- Node32 -->
<g id="node28" class="node">
<title>Node32</title>
<g id="a_node28"><a xlink:href="classgko_1_1solver_1_1EnablePreconditionable.html" target="_top" xlink:title=" ">
<polygon fill="#ffffff" stroke="#000000" points="1619,-101 1619,-131 1810,-131 1810,-101 1619,-101"/>
<text text-anchor="start" x="1627" y="-119" font-family="Helvetica,sans-Serif" font-size="10.00" fill="#000000">gko::solver::EnablePreconditionable</text>
<text text-anchor="middle" x="1714.5" y="-108" font-family="Helvetica,sans-Serif" font-size="10.00" fill="#000000">&lt; Cg&lt; ValueType &gt; &gt;</text>
</a>
</g>
</g>
<!-- Node32&#45;&gt;Node24 -->
<g id="edge38" class="edge">
<title>Node32&#45;&gt;Node24</title>
<path fill="none" stroke="#191970" d="M1820.2906,-130.9768C1880.242,-139.4641 1954.4877,-149.9751 2011.8469,-158.0954"/>
<polygon fill="#191970" stroke="#191970" points="1820.4273,-127.4613 1810.0354,-129.525 1819.446,-134.3922 1820.4273,-127.4613"/>
</g>
<!-- Node33 -->
<g id="node29" class="node">
<title>Node33</title>
<g id="a_node29"><a xlink:href="classgko_1_1Preconditionable.html" target="_top" xlink:title="A LinOp implementing this interface can be preconditioned.">
<polygon fill="#ffffff" stroke="#000000" points="918.5,-83.5 918.5,-102.5 1040.5,-102.5 1040.5,-83.5 918.5,-83.5"/>
<text text-anchor="middle" x="979.5" y="-90.5" font-family="Helvetica,sans-Serif" font-size="10.00" fill="#000000">gko::Preconditionable</text>
</a>
</g>
</g>
<!-- Node33&#45;&gt;Node32 -->
<g id="edge39" class="edge">
<title>Node33&#45;&gt;Node32</title>
<path fill="none" stroke="#191970" d="M1050.7019,-93.985C1146.4818,-95.4484 1322.12,-98.6188 1472,-104 1520.4438,-105.7393 1574.2998,-108.3375 1618.9296,-110.672"/>
<polygon fill="#191970" stroke="#191970" points="1050.6069,-90.4832 1040.5552,-93.8318 1050.5012,-97.4824 1050.6069,-90.4832"/>
</g>
<!-- Node34 -->
<g id="node30" class="node">
<title>Node34</title>
<g id="a_node30"><a xlink:href="classgko_1_1solver_1_1EnablePreconditionable.html" target="_top" xlink:title="Mixin providing default operation for Preconditionable with correct value semantics.">
<polygon fill="#ffffff" stroke="#000000" points="1276,-114 1276,-144 1467,-144 1467,-114 1276,-114"/>
<text text-anchor="start" x="1284" y="-132" font-family="Helvetica,sans-Serif" font-size="10.00" fill="#000000">gko::solver::EnablePreconditionable</text>
<text text-anchor="middle" x="1371.5" y="-121" font-family="Helvetica,sans-Serif" font-size="10.00" fill="#000000">&lt; DerivedType &gt;</text>
</a>
</g>
</g>
<!-- Node33&#45;&gt;Node34 -->
<g id="edge41" class="edge">
<title>Node33&#45;&gt;Node34</title>
<path fill="none" stroke="#191970" d="M1051.0055,-99.5668C1114.1011,-105.3613 1206.5661,-113.853 1275.982,-120.2279"/>
<polygon fill="#191970" stroke="#191970" points="1051.0282,-96.0543 1040.75,-98.625 1050.388,-103.0249 1051.0282,-96.0543"/>
</g>
<!-- Node34&#45;&gt;Node32 -->
<g id="edge40" class="edge">
<title>Node34&#45;&gt;Node32</title>
<path fill="none" stroke="#ffa500" stroke-dasharray="5,2" d="M1477.1749,-124.9948C1522.3974,-123.2809 1574.8185,-121.294 1618.8735,-119.6243"/>
<polygon fill="#ffa500" stroke="#ffa500" points="1476.9049,-121.5025 1467.0446,-125.3788 1477.17,-128.4974 1476.9049,-121.5025"/>
<text text-anchor="middle" x="1545.5" y="-128" font-family="Helvetica,sans-Serif" font-size="10.00" fill="#000000"> &lt; Cg&lt; ValueType &gt; &gt;</text>
</g>
<!-- Node34&#45;&gt;Node35 -->
<g id="edge47" class="edge">
<title>Node34&#45;&gt;Node35</title>
<path fill="none" stroke="#191970" d="M1442.2216,-146.2704C1457.8773,-149.6021 1474.4391,-152.7505 1490,-155 1533.6033,-161.3034 1582.3464,-165.1581 1623.2437,-167.4982"/>
<polygon fill="#191970" stroke="#191970" points="1442.5998,-142.7708 1432.0839,-144.0621 1441.1098,-149.6104 1442.5998,-142.7708"/>
</g>
<!-- Node35&#45;&gt;Node24 -->
<g id="edge42" class="edge">
<title>Node35&#45;&gt;Node24</title>
<path fill="none" stroke="#ffa500" stroke-dasharray="5,2" d="M1815.9497,-171C1876.6149,-171 1953.0652,-171 2011.8124,-171"/>
<polygon fill="#ffa500" stroke="#ffa500" points="1815.586,-167.5001 1805.586,-171 1815.586,-174.5001 1815.586,-167.5001"/>
<text text-anchor="middle" x="1911" y="-174" font-family="Helvetica,sans-Serif" font-size="10.00" fill="#000000"> &lt; ValueType, Cg&lt; ValueType &gt; &gt;</text>
</g>
<!-- Node36&#45;&gt;Node35 -->
<g id="edge43" class="edge">
<title>Node36&#45;&gt;Node35</title>
<path fill="none" stroke="#191970" d="M1451.6668,-180.5931C1495.7527,-181.5425 1551.4122,-181.963 1601,-180 1608.308,-179.7107 1615.8744,-179.317 1623.4719,-178.8552"/>
<polygon fill="#191970" stroke="#191970" points="1451.661,-177.0922 1441.5836,-180.3625 1451.5009,-184.0903 1451.661,-177.0922"/>
</g>
<!-- Node37 -->
<g id="node33" class="node">
<title>Node37</title>
<g id="a_node33"><a xlink:href="classgko_1_1Transposable.html" target="_top" xlink:title="Linear operators which support transposition should implement the Transposable interface.">
<polygon fill="#ffffff" stroke="#000000" points="2051,-112.5 2051,-131.5 2155,-131.5 2155,-112.5 2051,-112.5"/>
<text text-anchor="middle" x="2103" y="-119.5" font-family="Helvetica,sans-Serif" font-size="10.00" fill="#000000">gko::Transposable</text>
</a>
</g>
</g>
<!-- Node37&#45;&gt;Node1 -->
<g id="edge48" class="edge">
<title>Node37&#45;&gt;Node1</title>
<path fill="none" stroke="#191970" d="M2160.7835,-133.6641C2171.8298,-136.0071 2183.287,-138.5153 2194,-141 2221.585,-147.398 2252.6183,-155.3541 2275.8621,-161.4651"/>
<polygon fill="#191970" stroke="#191970" points="2161.2937,-130.195 2150.7877,-131.5642 2159.8545,-137.0454 2161.2937,-130.195"/>
</g>
</g>
</svg>
