<?xml version="1.0" encoding="UTF-8" standalone="no"?>
<!DOCTYPE svg PUBLIC "-//W3C//DTD SVG 1.1//EN"
 "http://www.w3.org/Graphics/SVG/1.1/DTD/svg11.dtd">
<!-- Generated by graphviz version 2.40.1 (20161225.0304)
 -->
<!-- Title: gko::AbstractFactory&lt; AbstractProductType, ComponentsType &gt; Pages: 1 -->
<svg width="2597pt" height="230pt"
 viewBox="0.00 0.00 2597.00 230.00" xmlns="http://www.w3.org/2000/svg" xmlns:xlink="http://www.w3.org/1999/xlink">
<g id="graph0" class="graph" transform="scale(1 1) rotate(0) translate(4 226)">
<title>gko::AbstractFactory&lt; AbstractProductType, ComponentsType &gt;</title>
<polygon fill="#ffffff" stroke="transparent" points="-4,4 -4,-226 2593,-226 2593,4 -4,4"/>
<!-- Node1 -->
<g id="node1" class="node">
<title>Node1</title>
<g id="a_node1"><a xlink:title="The AbstractFactory is a generic interface template that enables easy implementation of the abstract ...">
<polygon fill="#bfbfbf" stroke="#000000" points="1272,-110.5 1272,-151.5 1403,-151.5 1403,-110.5 1272,-110.5"/>
<text text-anchor="start" x="1280" y="-139.5" font-family="Helvetica,sans-Serif" font-size="10.00" fill="#000000">gko::AbstractFactory</text>
<text text-anchor="start" x="1280" y="-128.5" font-family="Helvetica,sans-Serif" font-size="10.00" fill="#000000">&lt; AbstractProductType,</text>
<text text-anchor="middle" x="1337.5" y="-117.5" font-family="Helvetica,sans-Serif" font-size="10.00" fill="#000000"> ComponentsType &gt;</text>
</a>
</g>
</g>
<!-- Node9 -->
<g id="node9" class="node">
<title>Node9</title>
<g id="a_node9"><a xlink:title=" ">
<polygon fill="#ffffff" stroke="#bfbfbf" points="1574,-141.5 1574,-182.5 1728,-182.5 1728,-141.5 1574,-141.5"/>
<text text-anchor="start" x="1582" y="-170.5" font-family="Helvetica,sans-Serif" font-size="10.00" fill="#000000">gko::AbstractFactory</text>
<text text-anchor="start" x="1582" y="-159.5" font-family="Helvetica,sans-Serif" font-size="10.00" fill="#000000">&lt; BatchLinOp, std::shared</text>
<text text-anchor="middle" x="1651" y="-148.5" font-family="Helvetica,sans-Serif" font-size="10.00" fill="#000000">_ptr&lt; const BatchLinOp &gt; &gt;</text>
</a>
</g>
</g>
<!-- Node1&#45;&gt;Node9 -->
<g id="edge9" class="edge">
<title>Node1&#45;&gt;Node9</title>
<path fill="none" stroke="#ffa500" stroke-dasharray="5,2" d="M1413.3653,-138.5018C1461.9739,-143.3084 1524.876,-149.5284 1573.7523,-154.3615"/>
<polygon fill="#ffa500" stroke="#ffa500" points="1413.5158,-134.9997 1403.2199,-137.4986 1412.8269,-141.9658 1413.5158,-134.9997"/>
<text text-anchor="start" x="1421" y="-176" font-family="Helvetica,sans-Serif" font-size="10.00" fill="#000000"> &lt; BatchLinOp, std::</text>
<text text-anchor="start" x="1421" y="-165" font-family="Helvetica,sans-Serif" font-size="10.00" fill="#000000">shared_ptr&lt; const BatchLin</text>
<text text-anchor="middle" x="1488.5" y="-154" font-family="Helvetica,sans-Serif" font-size="10.00" fill="#000000">Op &gt; &gt;</text>
</g>
<!-- Node11 -->
<g id="node11" class="node">
<title>Node11</title>
<g id="a_node11"><a xlink:title=" ">
<polygon fill="#ffffff" stroke="#bfbfbf" points="1588,-81.5 1588,-122.5 1714,-122.5 1714,-81.5 1588,-81.5"/>
<text text-anchor="start" x="1596" y="-110.5" font-family="Helvetica,sans-Serif" font-size="10.00" fill="#000000">gko::AbstractFactory</text>
<text text-anchor="start" x="1596" y="-99.5" font-family="Helvetica,sans-Serif" font-size="10.00" fill="#000000">&lt; LinOp, std::shared</text>
<text text-anchor="middle" x="1651" y="-88.5" font-family="Helvetica,sans-Serif" font-size="10.00" fill="#000000">_ptr&lt; const LinOp &gt; &gt;</text>
</a>
</g>
</g>
<!-- Node1&#45;&gt;Node11 -->
<g id="edge11" class="edge">
<title>Node1&#45;&gt;Node11</title>
<path fill="none" stroke="#ffa500" stroke-dasharray="5,2" d="M1413.3925,-115.0487C1415.9548,-114.6699 1418.496,-114.3184 1421,-114 1477.1266,-106.8626 1541.4755,-103.9492 1587.8097,-102.7709"/>
<polygon fill="#ffa500" stroke="#ffa500" points="1412.765,-111.6044 1403.4393,-116.6323 1413.865,-118.5174 1412.765,-111.6044"/>
<text text-anchor="start" x="1433.5" y="-128" font-family="Helvetica,sans-Serif" font-size="10.00" fill="#000000"> &lt; LinOp, std::shared</text>
<text text-anchor="middle" x="1488.5" y="-117" font-family="Helvetica,sans-Serif" font-size="10.00" fill="#000000">_ptr&lt; const LinOp &gt; &gt;</text>
</g>
<!-- Node2 -->
<g id="node2" class="node">
<title>Node2</title>
<g id="a_node2"><a xlink:href="classgko_1_1EnableAbstractPolymorphicObject.html" target="_top" xlink:title=" ">
<polygon fill="#ffffff" stroke="#000000" points="1003,-110.5 1003,-151.5 1235,-151.5 1235,-110.5 1003,-110.5"/>
<text text-anchor="start" x="1011" y="-139.5" font-family="Helvetica,sans-Serif" font-size="10.00" fill="#000000">gko::EnableAbstractPolymorphic</text>
<text text-anchor="start" x="1011" y="-128.5" font-family="Helvetica,sans-Serif" font-size="10.00" fill="#000000">Object&lt; AbstractFactory&lt;</text>
<text text-anchor="middle" x="1119" y="-117.5" font-family="Helvetica,sans-Serif" font-size="10.00" fill="#000000"> AbstractProductType, ComponentsType &gt; &gt;</text>
</a>
</g>
</g>
<!-- Node2&#45;&gt;Node1 -->
<g id="edge1" class="edge">
<title>Node2&#45;&gt;Node1</title>
<path fill="none" stroke="#191970" d="M1245.529,-131C1254.5516,-131 1263.413,-131 1271.8583,-131"/>
<polygon fill="#191970" stroke="#191970" points="1245.2872,-127.5001 1235.2872,-131 1245.2871,-134.5001 1245.2872,-127.5001"/>
</g>
<!-- Node3 -->
<g id="node3" class="node">
<title>Node3</title>
<g id="a_node3"><a xlink:href="classgko_1_1PolymorphicObject.html" target="_top" xlink:title="A PolymorphicObject is the abstract base for all &quot;heavy&quot; objects in Ginkgo that behave polymorphicall...">
<polygon fill="#ffffff" stroke="#000000" points="833,-147.5 833,-166.5 966,-166.5 966,-147.5 833,-147.5"/>
<text text-anchor="middle" x="899.5" y="-154.5" font-family="Helvetica,sans-Serif" font-size="10.00" fill="#000000">gko::PolymorphicObject</text>
</a>
</g>
</g>
<!-- Node3&#45;&gt;Node2 -->
<g id="edge2" class="edge">
<title>Node3&#45;&gt;Node2</title>
<path fill="none" stroke="#191970" d="M976.2084,-147.9138C984.8198,-146.8938 993.7305,-145.8383 1002.6997,-144.7759"/>
<polygon fill="#191970" stroke="#191970" points="975.7701,-144.4412 966.2513,-149.0932 976.5936,-151.3926 975.7701,-144.4412"/>
</g>
<!-- Node4 -->
<g id="node4" class="node">
<title>Node4</title>
<g id="a_node4"><a xlink:href="classgko_1_1log_1_1EnableLogging.html" target="_top" xlink:title=" ">
<polygon fill="#ffffff" stroke="#000000" points="554,-147 554,-177 687,-177 687,-147 554,-147"/>
<text text-anchor="start" x="562" y="-165" font-family="Helvetica,sans-Serif" font-size="10.00" fill="#000000">gko::log::EnableLogging</text>
<text text-anchor="middle" x="620.5" y="-154" font-family="Helvetica,sans-Serif" font-size="10.00" fill="#000000">&lt; PolymorphicObject &gt;</text>
</a>
</g>
</g>
<!-- Node4&#45;&gt;Node3 -->
<g id="edge3" class="edge">
<title>Node4&#45;&gt;Node3</title>
<path fill="none" stroke="#191970" d="M697.3369,-160.623C739.7842,-159.8623 792.0026,-158.9265 832.7349,-158.1965"/>
<polygon fill="#191970" stroke="#191970" points="697.2631,-157.1237 687.3275,-160.8024 697.3886,-164.1225 697.2631,-157.1237"/>
</g>
<!-- Node5 -->
<g id="node5" class="node">
<title>Node5</title>
<g id="a_node5"><a xlink:href="classgko_1_1log_1_1Loggable.html" target="_top" xlink:title="Loggable class is an interface which should be implemented by classes wanting to support logging.">
<polygon fill="#ffffff" stroke="#000000" points="176,-201.5 176,-220.5 282,-220.5 282,-201.5 176,-201.5"/>
<text text-anchor="middle" x="229" y="-208.5" font-family="Helvetica,sans-Serif" font-size="10.00" fill="#000000">gko::log::Loggable</text>
</a>
</g>
</g>
<!-- Node5&#45;&gt;Node4 -->
<g id="edge4" class="edge">
<title>Node5&#45;&gt;Node4</title>
<path fill="none" stroke="#191970" d="M292.1473,-205.2241C354.3208,-199.2506 451.9097,-189.1069 536,-177 541.7515,-176.1719 547.7117,-175.248 553.6836,-174.2767"/>
<polygon fill="#191970" stroke="#191970" points="291.7237,-201.7485 282.1014,-206.1825 292.3887,-208.7168 291.7237,-201.7485"/>
</g>
<!-- Node6 -->
<g id="node6" class="node">
<title>Node6</title>
<g id="a_node6"><a xlink:href="classgko_1_1log_1_1EnableLogging.html" target="_top" xlink:title="EnableLogging is a mixin which should be inherited by any class which wants to enable logging.">
<polygon fill="#ffffff" stroke="#000000" points="138,-141.5 138,-182.5 320,-182.5 320,-141.5 138,-141.5"/>
<text text-anchor="start" x="146" y="-170.5" font-family="Helvetica,sans-Serif" font-size="10.00" fill="#000000">gko::log::EnableLogging</text>
<text text-anchor="start" x="146" y="-159.5" font-family="Helvetica,sans-Serif" font-size="10.00" fill="#000000">&lt; ConcreteLoggable, Polymorphic</text>
<text text-anchor="middle" x="229" y="-148.5" font-family="Helvetica,sans-Serif" font-size="10.00" fill="#000000">Base &gt;</text>
</a>
</g>
</g>
<!-- Node6&#45;&gt;Node4 -->
<g id="edge5" class="edge">
<title>Node6&#45;&gt;Node4</title>
<path fill="none" stroke="#ffa500" stroke-dasharray="5,2" d="M330.5189,-162C400.9042,-162 492.6363,-162 553.8964,-162"/>
<polygon fill="#ffa500" stroke="#ffa500" points="330.2953,-158.5001 320.2953,-162 330.2952,-165.5001 330.2953,-158.5001"/>
<text text-anchor="middle" x="437" y="-165" font-family="Helvetica,sans-Serif" font-size="10.00" fill="#000000"> &lt; PolymorphicObject &gt;</text>
</g>
<!-- Node7 -->
<g id="node7" class="node">
<title>Node7</title>
<g id="a_node7"><a xlink:title=" ">
<polygon fill="#ffffff" stroke="#bfbfbf" points="0,-115.5 0,-134.5 101,-134.5 101,-115.5 0,-115.5"/>
<text text-anchor="middle" x="50.5" y="-122.5" font-family="Helvetica,sans-Serif" font-size="10.00" fill="#000000">PolymorphicBase</text>
</a>
</g>
</g>
<!-- Node7&#45;&gt;Node6 -->
<g id="edge6" class="edge">
<title>Node7&#45;&gt;Node6</title>
<path fill="none" stroke="#191970" d="M106.2638,-136.5589C116.3029,-138.6398 127.0031,-140.8578 137.7421,-143.0838"/>
<polygon fill="#191970" stroke="#191970" points="106.9705,-133.131 96.4682,-134.5284 105.5496,-139.9853 106.9705,-133.131"/>
</g>
<!-- Node8 -->
<g id="node8" class="node">
<title>Node8</title>
<g id="a_node8"><a xlink:href="classgko_1_1EnableAbstractPolymorphicObject.html" target="_top" xlink:title="This mixin inherits from (a subclass of) PolymorphicObject and provides a base implementation of a ne...">
<polygon fill="#ffffff" stroke="#000000" points="338,-92.5 338,-133.5 536,-133.5 536,-92.5 338,-92.5"/>
<text text-anchor="start" x="346" y="-121.5" font-family="Helvetica,sans-Serif" font-size="10.00" fill="#000000">gko::EnableAbstractPolymorphic</text>
<text text-anchor="start" x="346" y="-110.5" font-family="Helvetica,sans-Serif" font-size="10.00" fill="#000000">Object&lt; AbstractObject, Polymorphic</text>
<text text-anchor="middle" x="437" y="-99.5" font-family="Helvetica,sans-Serif" font-size="10.00" fill="#000000">Base &gt;</text>
</a>
</g>
</g>
<!-- Node7&#45;&gt;Node8 -->
<g id="edge8" class="edge">
<title>Node7&#45;&gt;Node8</title>
<path fill="none" stroke="#191970" d="M111.2068,-123.1152C171.8632,-121.2319 266.1374,-118.3049 337.6981,-116.0831"/>
<polygon fill="#191970" stroke="#191970" points="110.9147,-119.6225 101.0281,-123.4312 111.132,-126.6191 110.9147,-119.6225"/>
</g>
<!-- Node8&#45;&gt;Node2 -->
<g id="edge7" class="edge">
<title>Node8&#45;&gt;Node2</title>
<path fill="none" stroke="#ffa500" stroke-dasharray="5,2" d="M546.0962,-114.9706C621.605,-116.4175 724.4163,-118.5517 815,-121 877.0248,-122.6764 946.1554,-124.9206 1002.8024,-126.8582"/>
<polygon fill="#ffa500" stroke="#ffa500" points="546.1592,-111.4713 536.0943,-114.7799 546.0257,-118.47 546.1592,-111.4713"/>
<text text-anchor="start" x="705" y="-146" font-family="Helvetica,sans-Serif" font-size="10.00" fill="#000000"> &lt; AbstractFactory&lt;</text>
<text text-anchor="start" x="705" y="-135" font-family="Helvetica,sans-Serif" font-size="10.00" fill="#000000"> AbstractProductType,</text>
<text text-anchor="middle" x="760" y="-124" font-family="Helvetica,sans-Serif" font-size="10.00" fill="#000000"> ComponentsType &gt; &gt;</text>
</g>
<!-- Node10 -->
<g id="node10" class="node">
<title>Node10</title>
<g id="a_node10"><a xlink:href="classgko_1_1batch_1_1BatchLinOpFactory.html" target="_top" xlink:title="A BatchLinOpFactory represents a higher order mapping which transforms one batch linear operator into...">
<polygon fill="#ffffff" stroke="#000000" points="1765,-152.5 1765,-171.5 1929,-171.5 1929,-152.5 1765,-152.5"/>
<text text-anchor="middle" x="1847" y="-159.5" font-family="Helvetica,sans-Serif" font-size="10.00" fill="#000000">gko::batch::BatchLinOpFactory</text>
</a>
</g>
</g>
<!-- Node9&#45;&gt;Node10 -->
<g id="edge10" class="edge">
<title>Node9&#45;&gt;Node10</title>
<path fill="none" stroke="#191970" d="M1738.3929,-162C1747.1495,-162 1756.0203,-162 1764.7214,-162"/>
<polygon fill="#191970" stroke="#191970" points="1738.1831,-158.5001 1728.183,-162 1738.183,-165.5001 1738.1831,-158.5001"/>
</g>
<!-- Node12 -->
<g id="node12" class="node">
<title>Node12</title>
<g id="a_node12"><a xlink:href="classgko_1_1LinOpFactory.html" target="_top" xlink:title="A LinOpFactory represents a higher order mapping which transforms one linear operator into another.">
<polygon fill="#ffffff" stroke="#000000" points="1795,-92.5 1795,-111.5 1899,-111.5 1899,-92.5 1795,-92.5"/>
<text text-anchor="middle" x="1847" y="-99.5" font-family="Helvetica,sans-Serif" font-size="10.00" fill="#000000">gko::LinOpFactory</text>
</a>
</g>
</g>
<!-- Node11&#45;&gt;Node12 -->
<g id="edge12" class="edge">
<title>Node11&#45;&gt;Node12</title>
<path fill="none" stroke="#191970" d="M1724.3481,-102C1747.7851,-102 1773.2338,-102 1794.8436,-102"/>
<polygon fill="#191970" stroke="#191970" points="1724.0945,-98.5001 1714.0945,-102 1724.0945,-105.5001 1724.0945,-98.5001"/>
</g>
<!-- Node13 -->
<g id="node13" class="node">
<title>Node13</title>
<g id="a_node13"><a xlink:href="classgko_1_1EnableAbstractPolymorphicObject.html" target="_top" xlink:title=" ">
<polygon fill="#ffffff" stroke="#000000" points="1972,-180.5 1972,-221.5 2147,-221.5 2147,-180.5 1972,-180.5"/>
<text text-anchor="start" x="1980" y="-209.5" font-family="Helvetica,sans-Serif" font-size="10.00" fill="#000000">gko::EnableAbstractPolymorphic</text>
<text text-anchor="start" x="1980" y="-198.5" font-family="Helvetica,sans-Serif" font-size="10.00" fill="#000000">Object&lt; Amd&lt; IndexType &gt;,</text>
<text text-anchor="middle" x="2059.5" y="-187.5" font-family="Helvetica,sans-Serif" font-size="10.00" fill="#000000"> LinOpFactory &gt;</text>
</a>
</g>
</g>
<!-- Node12&#45;&gt;Node13 -->
<g id="edge13" class="edge">
<title>Node12&#45;&gt;Node13</title>
<path fill="none" stroke="#191970" d="M1878.0704,-115.8735C1893.718,-123.2726 1912.7639,-132.9171 1929,-143 1946.5191,-153.8796 1947.6999,-161.4926 1966,-171 1972.6563,-174.4581 1979.7866,-177.6137 1987.0313,-180.4687"/>
<polygon fill="#191970" stroke="#191970" points="1879.3655,-112.6159 1868.8221,-111.5729 1876.4139,-118.9632 1879.3655,-112.6159"/>
</g>
<!-- Node16 -->
<g id="node16" class="node">
<title>Node16</title>
<g id="a_node16"><a xlink:href="classgko_1_1EnableAbstractPolymorphicObject.html" target="_top" xlink:title=" ">
<polygon fill="#ffffff" stroke="#000000" points="1972,-120.5 1972,-161.5 2147,-161.5 2147,-120.5 1972,-120.5"/>
<text text-anchor="start" x="1980" y="-149.5" font-family="Helvetica,sans-Serif" font-size="10.00" fill="#000000">gko::EnableAbstractPolymorphic</text>
<text text-anchor="start" x="1980" y="-138.5" font-family="Helvetica,sans-Serif" font-size="10.00" fill="#000000">Object&lt; Cholesky&lt; ValueType,</text>
<text text-anchor="middle" x="2059.5" y="-127.5" font-family="Helvetica,sans-Serif" font-size="10.00" fill="#000000"> IndexType &gt;, LinOpFactory &gt;</text>
</a>
</g>
</g>
<!-- Node12&#45;&gt;Node16 -->
<g id="edge16" class="edge">
<title>Node12&#45;&gt;Node16</title>
<path fill="none" stroke="#191970" d="M1908.9819,-113.3755C1928.5624,-116.9691 1950.5855,-121.011 1971.6182,-124.8711"/>
<polygon fill="#191970" stroke="#191970" points="1909.4509,-109.9032 1898.9833,-111.5405 1908.1872,-116.7882 1909.4509,-109.9032"/>
</g>
<!-- Node19 -->
<g id="node19" class="node">
<title>Node19</title>
<g id="a_node19"><a xlink:href="classgko_1_1EnableAbstractPolymorphicObject.html" target="_top" xlink:title=" ">
<polygon fill="#ffffff" stroke="#000000" points="1972,-60.5 1972,-101.5 2147,-101.5 2147,-60.5 1972,-60.5"/>
<text text-anchor="start" x="1980" y="-89.5" font-family="Helvetica,sans-Serif" font-size="10.00" fill="#000000">gko::EnableAbstractPolymorphic</text>
<text text-anchor="start" x="1980" y="-78.5" font-family="Helvetica,sans-Serif" font-size="10.00" fill="#000000">Object&lt; IdentityFactory&lt;</text>
<text text-anchor="middle" x="2059.5" y="-67.5" font-family="Helvetica,sans-Serif" font-size="10.00" fill="#000000"> ValueType &gt;, LinOpFactory &gt;</text>
</a>
</g>
</g>
<!-- Node12&#45;&gt;Node19 -->
<g id="edge19" class="edge">
<title>Node12&#45;&gt;Node19</title>
<path fill="none" stroke="#191970" d="M1909.2532,-95.8479C1928.8279,-93.9135 1950.8224,-91.7399 1971.8185,-89.665"/>
<polygon fill="#191970" stroke="#191970" points="1908.8628,-92.3694 1899.2555,-96.8359 1909.5513,-99.3354 1908.8628,-92.3694"/>
</g>
<!-- Node22 -->
<g id="node22" class="node">
<title>Node22</title>
<g id="a_node22"><a xlink:href="classgko_1_1EnableAbstractPolymorphicObject.html" target="_top" xlink:title=" ">
<polygon fill="#ffffff" stroke="#000000" points="1966,-.5 1966,-41.5 2153,-41.5 2153,-.5 1966,-.5"/>
<text text-anchor="start" x="1974" y="-29.5" font-family="Helvetica,sans-Serif" font-size="10.00" fill="#000000">gko::EnableAbstractPolymorphic</text>
<text text-anchor="start" x="1974" y="-18.5" font-family="Helvetica,sans-Serif" font-size="10.00" fill="#000000">Object&lt; Lu&lt; ValueType, IndexType</text>
<text text-anchor="middle" x="2059.5" y="-7.5" font-family="Helvetica,sans-Serif" font-size="10.00" fill="#000000"> &gt;, LinOpFactory &gt;</text>
</a>
</g>
</g>
<!-- Node12&#45;&gt;Node22 -->
<g id="edge22" class="edge">
<title>Node12&#45;&gt;Node22</title>
<path fill="none" stroke="#191970" d="M1877.0553,-88.1849C1900.9255,-77.4409 1935.2818,-62.4813 1966,-51 1974.6231,-47.777 1983.7686,-44.5789 1992.8324,-41.5385"/>
<polygon fill="#191970" stroke="#191970" points="1875.4888,-85.052 1867.8231,-92.3655 1878.3764,-91.4287 1875.4888,-85.052"/>
</g>
<!-- Node14 -->
<g id="node14" class="node">
<title>Node14</title>
<g id="a_node14"><a xlink:href="classgko_1_1EnablePolymorphicObject.html" target="_top" xlink:title=" ">
<polygon fill="#ffffff" stroke="#000000" points="2190,-186 2190,-216 2393,-216 2393,-186 2190,-186"/>
<text text-anchor="start" x="2198" y="-204" font-family="Helvetica,sans-Serif" font-size="10.00" fill="#000000">gko::EnablePolymorphicObject</text>
<text text-anchor="middle" x="2291.5" y="-193" font-family="Helvetica,sans-Serif" font-size="10.00" fill="#000000">&lt; Amd&lt; IndexType &gt;, LinOpFactory &gt;</text>
</a>
</g>
</g>
<!-- Node13&#45;&gt;Node14 -->
<g id="edge14" class="edge">
<title>Node13&#45;&gt;Node14</title>
<path fill="none" stroke="#191970" d="M2157.3669,-201C2168.0413,-201 2178.9257,-201 2189.6465,-201"/>
<polygon fill="#191970" stroke="#191970" points="2157.2093,-197.5001 2147.2093,-201 2157.2092,-204.5001 2157.2093,-197.5001"/>
</g>
<!-- Node15 -->
<g id="node15" class="node">
<title>Node15</title>
<g id="a_node15"><a xlink:href="classgko_1_1experimental_1_1reorder_1_1Amd.html" target="_top" xlink:title="Computes a Approximate Minimum Degree (AMD) reordering of an input matrix.">
<polygon fill="#ffffff" stroke="#000000" points="2433.5,-186 2433.5,-216 2585.5,-216 2585.5,-186 2433.5,-186"/>
<text text-anchor="start" x="2441.5" y="-204" font-family="Helvetica,sans-Serif" font-size="10.00" fill="#000000">gko::experimental::</text>
<text text-anchor="middle" x="2509.5" y="-193" font-family="Helvetica,sans-Serif" font-size="10.00" fill="#000000">reorder::Amd&lt; IndexType &gt;</text>
</a>
</g>
</g>
<!-- Node14&#45;&gt;Node15 -->
<g id="edge15" class="edge">
<title>Node14&#45;&gt;Node15</title>
<path fill="none" stroke="#191970" d="M2403.3323,-201C2413.5065,-201 2423.6478,-201 2433.4013,-201"/>
<polygon fill="#191970" stroke="#191970" points="2403.1602,-197.5001 2393.1602,-201 2403.1602,-204.5001 2403.1602,-197.5001"/>
</g>
<!-- Node17 -->
<g id="node17" class="node">
<title>Node17</title>
<g id="a_node17"><a xlink:href="classgko_1_1EnablePolymorphicObject.html" target="_top" xlink:title=" ">
<polygon fill="#ffffff" stroke="#000000" points="2197,-120.5 2197,-161.5 2386,-161.5 2386,-120.5 2197,-120.5"/>
<text text-anchor="start" x="2205" y="-149.5" font-family="Helvetica,sans-Serif" font-size="10.00" fill="#000000">gko::EnablePolymorphicObject</text>
<text text-anchor="start" x="2205" y="-138.5" font-family="Helvetica,sans-Serif" font-size="10.00" fill="#000000">&lt; Cholesky&lt; ValueType, IndexType</text>
<text text-anchor="middle" x="2291.5" y="-127.5" font-family="Helvetica,sans-Serif" font-size="10.00" fill="#000000"> &gt;, LinOpFactory &gt;</text>
</a>
</g>
</g>
<!-- Node16&#45;&gt;Node17 -->
<g id="edge17" class="edge">
<title>Node16&#45;&gt;Node17</title>
<path fill="none" stroke="#191970" d="M2157.532,-141C2170.5016,-141 2183.7783,-141 2196.6923,-141"/>
<polygon fill="#191970" stroke="#191970" points="2157.2093,-137.5001 2147.2093,-141 2157.2092,-144.5001 2157.2093,-137.5001"/>
</g>
<!-- Node18 -->
<g id="node18" class="node">
<title>Node18</title>
<g id="a_node18"><a xlink:href="classgko_1_1experimental_1_1factorization_1_1Cholesky.html" target="_top" xlink:title="Computes a Cholesky factorization of a symmetric, positive&#45;definite sparse matrix.">
<polygon fill="#ffffff" stroke="#000000" points="2437.5,-120.5 2437.5,-161.5 2581.5,-161.5 2581.5,-120.5 2437.5,-120.5"/>
<text text-anchor="start" x="2445.5" y="-149.5" font-family="Helvetica,sans-Serif" font-size="10.00" fill="#000000">gko::experimental::</text>
<text text-anchor="start" x="2445.5" y="-138.5" font-family="Helvetica,sans-Serif" font-size="10.00" fill="#000000">factorization::Cholesky</text>
<text text-anchor="middle" x="2509.5" y="-127.5" font-family="Helvetica,sans-Serif" font-size="10.00" fill="#000000">&lt; ValueType, IndexType &gt;</text>
</a>
</g>
</g>
<!-- Node17&#45;&gt;Node18 -->
<g id="edge18" class="edge">
<title>Node17&#45;&gt;Node18</title>
<path fill="none" stroke="#191970" d="M2396.2408,-141C2410.1157,-141 2424.0828,-141 2437.2409,-141"/>
<polygon fill="#191970" stroke="#191970" points="2396.1669,-137.5001 2386.1669,-141 2396.1668,-144.5001 2396.1669,-137.5001"/>
</g>
<!-- Node20 -->
<g id="node20" class="node">
<title>Node20</title>
<g id="a_node20"><a xlink:href="classgko_1_1EnablePolymorphicObject.html" target="_top" xlink:title=" ">
<polygon fill="#ffffff" stroke="#000000" points="2208.5,-60.5 2208.5,-101.5 2374.5,-101.5 2374.5,-60.5 2208.5,-60.5"/>
<text text-anchor="start" x="2216.5" y="-89.5" font-family="Helvetica,sans-Serif" font-size="10.00" fill="#000000">gko::EnablePolymorphicObject</text>
<text text-anchor="start" x="2216.5" y="-78.5" font-family="Helvetica,sans-Serif" font-size="10.00" fill="#000000">&lt; IdentityFactory&lt; ValueType</text>
<text text-anchor="middle" x="2291.5" y="-67.5" font-family="Helvetica,sans-Serif" font-size="10.00" fill="#000000"> &gt;, LinOpFactory &gt;</text>
</a>
</g>
</g>
<!-- Node19&#45;&gt;Node20 -->
<g id="edge20" class="edge">
<title>Node19&#45;&gt;Node20</title>
<path fill="none" stroke="#191970" d="M2157.6237,-81C2174.4781,-81 2191.8484,-81 2208.2649,-81"/>
<polygon fill="#191970" stroke="#191970" points="2157.2093,-77.5001 2147.2093,-81 2157.2092,-84.5001 2157.2093,-77.5001"/>
</g>
<!-- Node21 -->
<g id="node21" class="node">
<title>Node21</title>
<g id="a_node21"><a xlink:href="classgko_1_1matrix_1_1IdentityFactory.html" target="_top" xlink:title="This factory is a utility which can be used to generate Identity operators.">
<polygon fill="#ffffff" stroke="#000000" points="2433.5,-66 2433.5,-96 2585.5,-96 2585.5,-66 2433.5,-66"/>
<text text-anchor="start" x="2441.5" y="-84" font-family="Helvetica,sans-Serif" font-size="10.00" fill="#000000">gko::matrix::IdentityFactory</text>
<text text-anchor="middle" x="2509.5" y="-73" font-family="Helvetica,sans-Serif" font-size="10.00" fill="#000000">&lt; ValueType &gt;</text>
</a>
</g>
</g>
<!-- Node20&#45;&gt;Node21 -->
<g id="edge21" class="edge">
<title>Node20&#45;&gt;Node21</title>
<path fill="none" stroke="#191970" d="M2384.6168,-81C2400.9255,-81 2417.719,-81 2433.4945,-81"/>
<polygon fill="#191970" stroke="#191970" points="2384.5384,-77.5001 2374.5383,-81 2384.5383,-84.5001 2384.5384,-77.5001"/>
</g>
<!-- Node23 -->
<g id="node23" class="node">
<title>Node23</title>
<g id="a_node23"><a xlink:href="classgko_1_1EnablePolymorphicObject.html" target="_top" xlink:title=" ">
<polygon fill="#ffffff" stroke="#000000" points="2208.5,-.5 2208.5,-41.5 2374.5,-41.5 2374.5,-.5 2208.5,-.5"/>
<text text-anchor="start" x="2216.5" y="-29.5" font-family="Helvetica,sans-Serif" font-size="10.00" fill="#000000">gko::EnablePolymorphicObject</text>
<text text-anchor="start" x="2216.5" y="-18.5" font-family="Helvetica,sans-Serif" font-size="10.00" fill="#000000">&lt; Lu&lt; ValueType, IndexType</text>
<text text-anchor="middle" x="2291.5" y="-7.5" font-family="Helvetica,sans-Serif" font-size="10.00" fill="#000000"> &gt;, LinOpFactory &gt;</text>
</a>
</g>
</g>
<!-- Node22&#45;&gt;Node23 -->
<g id="edge23" class="edge">
<title>Node22&#45;&gt;Node23</title>
<path fill="none" stroke="#191970" d="M2163.5199,-21C2178.5145,-21 2193.7791,-21 2208.2969,-21"/>
<polygon fill="#191970" stroke="#191970" points="2163.1946,-17.5001 2153.1945,-21 2163.1945,-24.5001 2163.1946,-17.5001"/>
</g>
<!-- Node24 -->
<g id="node24" class="node">
<title>Node24</title>
<g id="a_node24"><a xlink:href="classgko_1_1experimental_1_1factorization_1_1Lu.html" target="_top" xlink:title="Computes an LU factorization of a sparse matrix.">
<polygon fill="#ffffff" stroke="#000000" points="2430,-.5 2430,-41.5 2589,-41.5 2589,-.5 2430,-.5"/>
<text text-anchor="start" x="2438" y="-29.5" font-family="Helvetica,sans-Serif" font-size="10.00" fill="#000000">gko::experimental::</text>
<text text-anchor="start" x="2438" y="-18.5" font-family="Helvetica,sans-Serif" font-size="10.00" fill="#000000">factorization::Lu&lt; ValueType,</text>
<text text-anchor="middle" x="2509.5" y="-7.5" font-family="Helvetica,sans-Serif" font-size="10.00" fill="#000000"> IndexType &gt;</text>
</a>
</g>
</g>
<!-- Node23&#45;&gt;Node24 -->
<g id="edge24" class="edge">
<title>Node23&#45;&gt;Node24</title>
<path fill="none" stroke="#191970" d="M2384.8519,-21C2399.8633,-21 2415.2791,-21 2429.9283,-21"/>
<polygon fill="#191970" stroke="#191970" points="2384.5384,-17.5001 2374.5383,-21 2384.5383,-24.5001 2384.5384,-17.5001"/>
</g>
</g>
</svg>
