<?xml version="1.0" encoding="UTF-8" standalone="no"?>
<!DOCTYPE svg PUBLIC "-//W3C//DTD SVG 1.1//EN"
 "http://www.w3.org/Graphics/SVG/1.1/DTD/svg11.dtd">
<!-- Generated by graphviz version 2.40.1 (20161225.0304)
 -->
<!-- Title: gko::matrix::Fbcsr&lt; ValueType, IndexType &gt; Pages: 1 -->
<!--zoomable 576 -->
<svg id="main" version="1.1" xmlns="http://www.w3.org/2000/svg" xmlns:xlink="http://www.w3.org/1999/xlink" xml:space="preserve" onload="init(evt)">
<style type="text/css"><![CDATA[
.edge:hover path { stroke: red; }
.edge:hover polygon { stroke: red; fill: red; }
]]></style>
<script type="text/javascript"><![CDATA[
var edges = document.getElementsByTagName('g');
if (edges && edges.length) {
  for (var i=0;i<edges.length;i++) {
    if (edges[i].id.substr(0,4)=='edge') {
      edges[i].setAttribute('class','edge');
    }
  }
}
]]></script>
        <defs>
                <circle id="rim" cx="0" cy="0" r="7"/>
                <circle id="rim2" cx="0" cy="0" r="3.5"/>
                <g id="zoomPlus">
                        <use xlink:href="#rim" fill="#404040">
                                <set attributeName="fill" to="#808080" begin="zoomplus.mouseover" end="zoomplus.mouseout"/>
                        </use>
                        <path d="M-4,0h8M0,-4v8" fill="none" stroke="white" stroke-width="1.5" pointer-events="none"/>
                </g>
                <g id="zoomMin">
                        <use xlink:href="#rim" fill="#404040">
                                <set attributeName="fill" to="#808080" begin="zoomminus.mouseover" end="zoomminus.mouseout"/>
                        </use>
                        <path d="M-4,0h8" fill="none" stroke="white" stroke-width="1.5" pointer-events="none"/>
                </g>
                <g id="dirArrow">
                        <path fill="none" stroke="white" stroke-width="1.5" d="M0,-3.0v7 M-2.5,-0.5L0,-3.0L2.5,-0.5"/>
                </g>
               <g id="resetDef">
                       <use xlink:href="#rim2" fill="#404040">
                               <set attributeName="fill" to="#808080" begin="reset.mouseover" end="reset.mouseout"/>
                       </use>
               </g>
        </defs>

<script type="text/javascript">
var viewWidth = 2505;
var viewHeight = 576;
var sectionId = 'dynsection-0';
</script>
<script xlink:href="svgpan.js"/>
<svg id="graph" class="graph">
<g id="viewport">
<title>gko::matrix::Fbcsr&lt; ValueType, IndexType &gt;</title>
<polygon fill="#ffffff" stroke="transparent" points="-4,4 -4,-571.5 2501,-571.5 2501,4 -4,4"/>
<!-- Node1 -->
<g id="node1" class="node">
<title>Node1</title>
<g id="a_node1"><a xlink:title="Fixed&#45;block compressed sparse row storage matrix format.">
<polygon fill="#bfbfbf" stroke="#000000" points="2353,-282.5 2353,-312.5 2497,-312.5 2497,-282.5 2353,-282.5"/>
<text text-anchor="start" x="2361" y="-300.5" font-family="Helvetica,sans-Serif" font-size="10.00" fill="#000000">gko::matrix::Fbcsr</text>
<text text-anchor="middle" x="2425" y="-289.5" font-family="Helvetica,sans-Serif" font-size="10.00" fill="#000000">&lt; ValueType, IndexType &gt;</text>
</a>
</g>
</g>
<!-- Node2 -->
<g id="node2" class="node">
<title>Node2</title>
<g id="a_node2"><a xlink:href="classgko_1_1EnableLinOp.html" target="_top" xlink:title=" ">
<polygon fill="#ffffff" stroke="#000000" points="2132,-331.5 2132,-361.5 2287,-361.5 2287,-331.5 2132,-331.5"/>
<text text-anchor="start" x="2140" y="-349.5" font-family="Helvetica,sans-Serif" font-size="10.00" fill="#000000">gko::EnableLinOp&lt; Fbcsr</text>
<text text-anchor="middle" x="2209.5" y="-338.5" font-family="Helvetica,sans-Serif" font-size="10.00" fill="#000000">&lt; ValueType, IndexType &gt; &gt;</text>
</a>
</g>
</g>
<!-- Node2&#45;&gt;Node1 -->
<g id="edge1" class="edge">
<title>Node2&#45;&gt;Node1</title>
<path fill="none" stroke="#191970" d="M2286.2224,-329.2471C2296.2406,-326.9835 2306.3665,-324.6902 2316,-322.5 2330.1042,-319.2933 2345.2306,-315.8358 2359.5896,-312.545"/>
<polygon fill="#191970" stroke="#191970" points="2285.2458,-325.8794 2276.2622,-331.4959 2286.7875,-332.7076 2285.2458,-325.8794"/>
</g>
<!-- Node3 -->
<g id="node3" class="node">
<title>Node3</title>
<g id="a_node3"><a xlink:href="classgko_1_1EnablePolymorphicObject.html" target="_top" xlink:title=" ">
<polygon fill="#ffffff" stroke="#000000" points="1710.5,-232 1710.5,-273 1880.5,-273 1880.5,-232 1710.5,-232"/>
<text text-anchor="start" x="1718.5" y="-261" font-family="Helvetica,sans-Serif" font-size="10.00" fill="#000000">gko::EnablePolymorphicObject</text>
<text text-anchor="start" x="1718.5" y="-250" font-family="Helvetica,sans-Serif" font-size="10.00" fill="#000000">&lt; Fbcsr&lt; ValueType, IndexType</text>
<text text-anchor="middle" x="1795.5" y="-239" font-family="Helvetica,sans-Serif" font-size="10.00" fill="#000000"> &gt;, LinOp &gt;</text>
</a>
</g>
</g>
<!-- Node3&#45;&gt;Node2 -->
<g id="edge2" class="edge">
<title>Node3&#45;&gt;Node2</title>
<path fill="none" stroke="#191970" d="M1890.8683,-242.3964C1951.5296,-240.8647 2028.9279,-248.4727 2085,-287.5 2099.3569,-297.4927 2089.1676,-311.793 2103,-322.5 2111.5431,-329.1128 2121.5616,-333.9706 2131.9751,-337.5272"/>
<polygon fill="#191970" stroke="#191970" points="1890.3904,-238.9106 1880.5157,-242.7497 1890.6292,-245.9065 1890.3904,-238.9106"/>
</g>
<!-- Node4 -->
<g id="node4" class="node">
<title>Node4</title>
<g id="a_node4"><a xlink:href="classgko_1_1EnableAbstractPolymorphicObject.html" target="_top" xlink:title=" ">
<polygon fill="#ffffff" stroke="#000000" points="1340,-69 1340,-110 1515,-110 1515,-69 1340,-69"/>
<text text-anchor="start" x="1348" y="-98" font-family="Helvetica,sans-Serif" font-size="10.00" fill="#000000">gko::EnableAbstractPolymorphic</text>
<text text-anchor="start" x="1348" y="-87" font-family="Helvetica,sans-Serif" font-size="10.00" fill="#000000">Object&lt; Fbcsr&lt; ValueType,</text>
<text text-anchor="middle" x="1427.5" y="-76" font-family="Helvetica,sans-Serif" font-size="10.00" fill="#000000"> IndexType &gt;, LinOp &gt;</text>
</a>
</g>
</g>
<!-- Node4&#45;&gt;Node3 -->
<g id="edge3" class="edge">
<title>Node4&#45;&gt;Node3</title>
<path fill="none" stroke="#191970" d="M1525.1708,-80.4061C1579.9412,-80.8467 1645.5742,-91.4847 1688,-132.5 1717.3278,-160.8528 1679.0293,-191.8964 1706,-222.5 1709.1422,-226.0655 1712.7211,-229.2081 1716.5973,-231.978"/>
<polygon fill="#191970" stroke="#191970" points="1525.0675,-76.9063 1515.0784,-80.4375 1525.0893,-83.9063 1525.0675,-76.9063"/>
</g>
<!-- Node5 -->
<g id="node5" class="node">
<title>Node5</title>
<g id="a_node5"><a xlink:href="classgko_1_1LinOp.html" target="_top" xlink:title=" ">
<polygon fill="#ffffff" stroke="#000000" points="985.5,-45 985.5,-64 1053.5,-64 1053.5,-45 985.5,-45"/>
<text text-anchor="middle" x="1019.5" y="-52" font-family="Helvetica,sans-Serif" font-size="10.00" fill="#000000">gko::LinOp</text>
</a>
</g>
</g>
<!-- Node5&#45;&gt;Node4 -->
<g id="edge4" class="edge">
<title>Node5&#45;&gt;Node4</title>
<path fill="none" stroke="#191970" d="M1063.6219,-58.285C1129.4386,-63.931 1254.6694,-74.6738 1339.6204,-81.9613"/>
<polygon fill="#191970" stroke="#191970" points="1063.8467,-54.7915 1053.5841,-57.4239 1063.2483,-61.7659 1063.8467,-54.7915"/>
</g>
<!-- Node6 -->
<g id="node6" class="node">
<title>Node6</title>
<g id="a_node6"><a xlink:href="classgko_1_1EnableAbstractPolymorphicObject.html" target="_top" xlink:title=" ">
<polygon fill="#ffffff" stroke="#ff0000" points="542,-35.5 542,-65.5 717,-65.5 717,-35.5 542,-35.5"/>
<text text-anchor="start" x="550" y="-53.5" font-family="Helvetica,sans-Serif" font-size="10.00" fill="#000000">gko::EnableAbstractPolymorphic</text>
<text text-anchor="middle" x="629.5" y="-42.5" font-family="Helvetica,sans-Serif" font-size="10.00" fill="#000000">Object&lt; LinOp &gt;</text>
</a>
</g>
</g>
<!-- Node6&#45;&gt;Node5 -->
<g id="edge5" class="edge">
<title>Node6&#45;&gt;Node5</title>
<path fill="none" stroke="#191970" d="M727.1193,-51.5012C811.2777,-52.3644 927.9924,-53.5615 985.1613,-54.1478"/>
<polygon fill="#191970" stroke="#191970" points="727.059,-48.0005 717.0236,-51.3977 726.9872,-55.0002 727.059,-48.0005"/>
</g>
<!-- Node11 -->
<g id="node7" class="node">
<title>Node11</title>
<g id="a_node7"><a xlink:href="classgko_1_1EnableAbstractPolymorphicObject.html" target="_top" xlink:title="This mixin inherits from (a subclass of) PolymorphicObject and provides a base implementation of a ne...">
<polygon fill="#ffffff" stroke="#000000" points="138,-107 138,-148 336,-148 336,-107 138,-107"/>
<text text-anchor="start" x="146" y="-136" font-family="Helvetica,sans-Serif" font-size="10.00" fill="#000000">gko::EnableAbstractPolymorphic</text>
<text text-anchor="start" x="146" y="-125" font-family="Helvetica,sans-Serif" font-size="10.00" fill="#000000">Object&lt; AbstractObject, Polymorphic</text>
<text text-anchor="middle" x="237" y="-114" font-family="Helvetica,sans-Serif" font-size="10.00" fill="#000000">Base &gt;</text>
</a>
</g>
</g>
<!-- Node11&#45;&gt;Node4 -->
<g id="edge8" class="edge">
<title>Node11&#45;&gt;Node4</title>
<path fill="none" stroke="#ffa500" stroke-dasharray="5,2" d="M346.3073,-118.9197C348.896,-118.772 351.4632,-118.6318 354,-118.5 719.8606,-99.4985 1156.5486,-92.5812 1339.7766,-90.3921"/>
<polygon fill="#ffa500" stroke="#ffa500" points="346.0078,-115.4312 336.2351,-119.5233 346.4266,-122.4187 346.0078,-115.4312"/>
<text text-anchor="start" x="769" y="-116.5" font-family="Helvetica,sans-Serif" font-size="10.00" fill="#000000"> &lt; Fbcsr&lt; ValueType,</text>
<text text-anchor="middle" x="823.5" y="-105.5" font-family="Helvetica,sans-Serif" font-size="10.00" fill="#000000"> IndexType &gt;, LinOp &gt;</text>
</g>
<!-- Node11&#45;&gt;Node6 -->
<g id="edge6" class="edge">
<title>Node11&#45;&gt;Node6</title>
<path fill="none" stroke="#ffa500" stroke-dasharray="5,2" d="M278.8117,-101.77C300.4485,-89.7746 327.7681,-76.6059 354,-69.5 415.3152,-52.8904 486.9625,-48.3845 541.821,-47.9025"/>
<polygon fill="#ffa500" stroke="#ffa500" points="276.88,-98.8417 269.9065,-106.8179 280.332,-104.9314 276.88,-98.8417"/>
<text text-anchor="middle" x="432.5" y="-72.5" font-family="Helvetica,sans-Serif" font-size="10.00" fill="#000000"> &lt; LinOp &gt;</text>
</g>
<!-- Node14 -->
<g id="node10" class="node">
<title>Node14</title>
<g id="a_node10"><a xlink:href="classgko_1_1EnableAbstractPolymorphicObject.html" target="_top" xlink:title=" ">
<polygon fill="#ffffff" stroke="#000000" points="529,-132 529,-173 730,-173 730,-132 529,-132"/>
<text text-anchor="start" x="537" y="-161" font-family="Helvetica,sans-Serif" font-size="10.00" fill="#000000">gko::EnableAbstractPolymorphic</text>
<text text-anchor="start" x="537" y="-150" font-family="Helvetica,sans-Serif" font-size="10.00" fill="#000000">Object&lt; ConcreteObject, Polymorphic</text>
<text text-anchor="middle" x="629.5" y="-139" font-family="Helvetica,sans-Serif" font-size="10.00" fill="#000000">Base &gt;</text>
</a>
</g>
</g>
<!-- Node11&#45;&gt;Node14 -->
<g id="edge12" class="edge">
<title>Node11&#45;&gt;Node14</title>
<path fill="none" stroke="#ffa500" stroke-dasharray="5,2" d="M346.4094,-123.0008C396.6706,-122.1896 456.9862,-122.9856 511,-128.5 519.5617,-129.3741 528.4204,-130.5838 537.2615,-131.9992"/>
<polygon fill="#ffa500" stroke="#ffa500" points="346.1033,-119.5057 336.1699,-123.1903 346.233,-126.5045 346.1033,-119.5057"/>
<text text-anchor="start" x="354" y="-142.5" font-family="Helvetica,sans-Serif" font-size="10.00" fill="#000000"> &lt; ConcreteObject, Polymorphic</text>
<text text-anchor="middle" x="432.5" y="-131.5" font-family="Helvetica,sans-Serif" font-size="10.00" fill="#000000">Base &gt;</text>
</g>
<!-- Node21 -->
<g id="node17" class="node">
<title>Node21</title>
<g id="a_node17"><a xlink:href="classgko_1_1EnableAbstractPolymorphicObject.html" target="_top" xlink:title=" ">
<polygon fill="#ffffff" stroke="#000000" points="531,-196 531,-237 728,-237 728,-196 531,-196"/>
<text text-anchor="start" x="539" y="-225" font-family="Helvetica,sans-Serif" font-size="10.00" fill="#000000">gko::EnableAbstractPolymorphic</text>
<text text-anchor="start" x="539" y="-214" font-family="Helvetica,sans-Serif" font-size="10.00" fill="#000000">Object&lt; ConcreteLinOp, Polymorphic</text>
<text text-anchor="middle" x="629.5" y="-203" font-family="Helvetica,sans-Serif" font-size="10.00" fill="#000000">Base &gt;</text>
</a>
</g>
</g>
<!-- Node11&#45;&gt;Node21 -->
<g id="edge22" class="edge">
<title>Node11&#45;&gt;Node21</title>
<path fill="none" stroke="#ffa500" stroke-dasharray="5,2" d="M337.372,-150.2595C399.5774,-164.3647 478.8209,-182.3333 539.0758,-195.9962"/>
<polygon fill="#ffa500" stroke="#ffa500" points="338.0667,-146.8283 327.5403,-148.0301 336.5187,-153.655 338.0667,-146.8283"/>
<text text-anchor="start" x="356" y="-201.5" font-family="Helvetica,sans-Serif" font-size="10.00" fill="#000000"> &lt; ConcreteLinOp, Polymorphic</text>
<text text-anchor="middle" x="432.5" y="-190.5" font-family="Helvetica,sans-Serif" font-size="10.00" fill="#000000">Base &gt;</text>
</g>
<!-- Node12 -->
<g id="node8" class="node">
<title>Node12</title>
<g id="a_node8"><a xlink:title=" ">
<polygon fill="#ffffff" stroke="#bfbfbf" points="0,-200 0,-219 101,-219 101,-200 0,-200"/>
<text text-anchor="middle" x="50.5" y="-207" font-family="Helvetica,sans-Serif" font-size="10.00" fill="#000000">PolymorphicBase</text>
</a>
</g>
</g>
<!-- Node12&#45;&gt;Node11 -->
<g id="edge7" class="edge">
<title>Node12&#45;&gt;Node11</title>
<path fill="none" stroke="#191970" d="M81.6749,-195.7931C111.2807,-182.7761 156.181,-163.0344 190.1047,-148.1189"/>
<polygon fill="#191970" stroke="#191970" points="80.0044,-192.7041 72.2589,-199.9331 82.8219,-199.1121 80.0044,-192.7041"/>
</g>
<!-- Node12&#45;&gt;Node14 -->
<g id="edge11" class="edge">
<title>Node12&#45;&gt;Node14</title>
<path fill="none" stroke="#191970" d="M111.4303,-215.8542C200.6787,-223.3335 371.4922,-230.6797 511,-195.5 519.6728,-193.313 520.7442,-189.9413 529,-186.5 540.306,-181.7873 552.5197,-177.2287 564.4067,-173.0622"/>
<polygon fill="#191970" stroke="#191970" points="111.4851,-212.3458 101.2198,-214.9678 110.8796,-219.3196 111.4851,-212.3458"/>
</g>
<!-- Node12&#45;&gt;Node21 -->
<g id="edge21" class="edge">
<title>Node12&#45;&gt;Node21</title>
<path fill="none" stroke="#191970" d="M100.0089,-220.844C106.37,-221.9398 112.8183,-222.8748 119,-223.5 292.3378,-241.0321 336.8536,-228.6391 511,-223.5 517.4889,-223.3085 524.1751,-223.0582 530.9118,-222.7663"/>
<polygon fill="#191970" stroke="#191970" points="100.6063,-217.3952 90.1355,-219.0111 99.3286,-224.2776 100.6063,-217.3952"/>
</g>
<!-- Node13 -->
<g id="node9" class="node">
<title>Node13</title>
<g id="a_node9"><a xlink:href="classgko_1_1EnablePolymorphicObject.html" target="_top" xlink:title="This mixin inherits from (a subclass of) PolymorphicObject and provides a base implementation of a ne...">
<polygon fill="#ffffff" stroke="#000000" points="917,-137.5 917,-167.5 1122,-167.5 1122,-137.5 917,-137.5"/>
<text text-anchor="start" x="925" y="-155.5" font-family="Helvetica,sans-Serif" font-size="10.00" fill="#000000">gko::EnablePolymorphicObject</text>
<text text-anchor="middle" x="1019.5" y="-144.5" font-family="Helvetica,sans-Serif" font-size="10.00" fill="#000000">&lt; ConcreteObject, PolymorphicBase &gt;</text>
</a>
</g>
</g>
<!-- Node13&#45;&gt;Node3 -->
<g id="edge9" class="edge">
<title>Node13&#45;&gt;Node3</title>
<path fill="none" stroke="#ffa500" stroke-dasharray="5,2" d="M1132.2975,-147.7627C1235.9451,-145.4678 1393.4345,-147.1876 1528,-170.5 1548.2811,-174.0135 1658.9746,-208.8223 1731.4637,-231.9442"/>
<polygon fill="#ffa500" stroke="#ffa500" points="1132.039,-144.2677 1122.1251,-148.0046 1132.2055,-151.2658 1132.039,-144.2677"/>
<text text-anchor="start" x="1373" y="-184.5" font-family="Helvetica,sans-Serif" font-size="10.00" fill="#000000"> &lt; Fbcsr&lt; ValueType,</text>
<text text-anchor="middle" x="1427.5" y="-173.5" font-family="Helvetica,sans-Serif" font-size="10.00" fill="#000000"> IndexType &gt;, LinOp &gt;</text>
</g>
<!-- Node20 -->
<g id="node16" class="node">
<title>Node20</title>
<g id="a_node16"><a xlink:href="classgko_1_1EnablePolymorphicObject.html" target="_top" xlink:title=" ">
<polygon fill="#ffffff" stroke="#000000" points="1327,-201.5 1327,-231.5 1528,-231.5 1528,-201.5 1327,-201.5"/>
<text text-anchor="start" x="1335" y="-219.5" font-family="Helvetica,sans-Serif" font-size="10.00" fill="#000000">gko::EnablePolymorphicObject</text>
<text text-anchor="middle" x="1427.5" y="-208.5" font-family="Helvetica,sans-Serif" font-size="10.00" fill="#000000">&lt; ConcreteLinOp, PolymorphicBase &gt;</text>
</a>
</g>
</g>
<!-- Node13&#45;&gt;Node20 -->
<g id="edge23" class="edge">
<title>Node13&#45;&gt;Node20</title>
<path fill="none" stroke="#ffa500" stroke-dasharray="5,2" d="M1132.3118,-158.1935C1186.1661,-162.2369 1251.2999,-169.063 1309,-180.5 1334.731,-185.6003 1362.8499,-194.0154 1385.2369,-201.4275"/>
<polygon fill="#ffa500" stroke="#ffa500" points="1132.2726,-154.6815 1122.0448,-157.4459 1131.7642,-161.663 1132.2726,-154.6815"/>
<text text-anchor="start" x="1148" y="-194.5" font-family="Helvetica,sans-Serif" font-size="10.00" fill="#000000"> &lt; ConcreteLinOp, Polymorphic</text>
<text text-anchor="middle" x="1224.5" y="-183.5" font-family="Helvetica,sans-Serif" font-size="10.00" fill="#000000">Base &gt;</text>
</g>
<!-- Node14&#45;&gt;Node13 -->
<g id="edge10" class="edge">
<title>Node14&#45;&gt;Node13</title>
<path fill="none" stroke="#191970" d="M740.4069,-152.5C795.8628,-152.5 862.5426,-152.5 916.818,-152.5"/>
<polygon fill="#191970" stroke="#191970" points="740.1882,-149.0001 730.1882,-152.5 740.1882,-156.0001 740.1882,-149.0001"/>
</g>
<!-- Node15 -->
<g id="node11" class="node">
<title>Node15</title>
<g id="a_node11"><a xlink:href="classgko_1_1EnablePolymorphicAssignment.html" target="_top" xlink:title=" ">
<polygon fill="#ffffff" stroke="#000000" points="1331.5,-283.5 1331.5,-313.5 1523.5,-313.5 1523.5,-283.5 1331.5,-283.5"/>
<text text-anchor="start" x="1339.5" y="-301.5" font-family="Helvetica,sans-Serif" font-size="10.00" fill="#000000">gko::EnablePolymorphicAssignment</text>
<text text-anchor="middle" x="1427.5" y="-290.5" font-family="Helvetica,sans-Serif" font-size="10.00" fill="#000000">&lt; Fbcsr&lt; ValueType, IndexType &gt; &gt;</text>
</a>
</g>
</g>
<!-- Node15&#45;&gt;Node2 -->
<g id="edge13" class="edge">
<title>Node15&#45;&gt;Node2</title>
<path fill="none" stroke="#191970" d="M1534.1643,-303.4483C1626.9089,-307.9055 1764.8797,-314.9081 1885,-322.5 1969.4263,-327.8359 2066.1176,-335.1415 2131.8359,-340.2866"/>
<polygon fill="#191970" stroke="#191970" points="1534.0842,-299.9405 1523.9281,-302.9578 1533.7491,-306.9325 1534.0842,-299.9405"/>
</g>
<!-- Node16 -->
<g id="node12" class="node">
<title>Node16</title>
<g id="a_node12"><a xlink:href="classgko_1_1ConvertibleTo.html" target="_top" xlink:title=" ">
<polygon fill="#ffffff" stroke="#000000" points="961,-245 961,-286 1078,-286 1078,-245 961,-245"/>
<text text-anchor="start" x="969" y="-274" font-family="Helvetica,sans-Serif" font-size="10.00" fill="#000000">gko::ConvertibleTo</text>
<text text-anchor="start" x="969" y="-263" font-family="Helvetica,sans-Serif" font-size="10.00" fill="#000000">&lt; Fbcsr&lt; ValueType,</text>
<text text-anchor="middle" x="1019.5" y="-252" font-family="Helvetica,sans-Serif" font-size="10.00" fill="#000000"> IndexType &gt; &gt;</text>
</a>
</g>
</g>
<!-- Node16&#45;&gt;Node15 -->
<g id="edge14" class="edge">
<title>Node16&#45;&gt;Node15</title>
<path fill="none" stroke="#191970" d="M1088.3656,-271.07C1154.9824,-276.4581 1256.5422,-284.6725 1331.1635,-290.7081"/>
<polygon fill="#191970" stroke="#191970" points="1088.6406,-267.5809 1078.391,-270.2632 1088.0762,-274.5581 1088.6406,-267.5809"/>
</g>
<!-- Node17 -->
<g id="node13" class="node">
<title>Node17</title>
<g id="a_node13"><a xlink:href="classgko_1_1ConvertibleTo.html" target="_top" xlink:title="ConvertibleTo interface is used to mark that the implementer can be converted to the object of Result...">
<polygon fill="#ffffff" stroke="#000000" points="576,-398.5 576,-428.5 683,-428.5 683,-398.5 576,-398.5"/>
<text text-anchor="start" x="584" y="-416.5" font-family="Helvetica,sans-Serif" font-size="10.00" fill="#000000">gko::ConvertibleTo</text>
<text text-anchor="middle" x="629.5" y="-405.5" font-family="Helvetica,sans-Serif" font-size="10.00" fill="#000000">&lt; ResultType &gt;</text>
</a>
</g>
</g>
<!-- Node17&#45;&gt;Node16 -->
<g id="edge15" class="edge">
<title>Node17&#45;&gt;Node16</title>
<path fill="none" stroke="#ffa500" stroke-dasharray="5,2" d="M648.1067,-390.6088C669.4732,-366.0284 706.909,-327.8987 748,-308.5 816.2937,-276.2592 903.9014,-267.4471 960.8478,-265.4183"/>
<polygon fill="#ffa500" stroke="#ffa500" points="645.31,-388.4947 641.4946,-398.3787 650.641,-393.0313 645.31,-388.4947"/>
<text text-anchor="start" x="771.5" y="-322.5" font-family="Helvetica,sans-Serif" font-size="10.00" fill="#000000"> &lt; Fbcsr&lt; ValueType,</text>
<text text-anchor="middle" x="823.5" y="-311.5" font-family="Helvetica,sans-Serif" font-size="10.00" fill="#000000"> IndexType &gt; &gt;</text>
</g>
<!-- Node18 -->
<g id="node14" class="node">
<title>Node18</title>
<g id="a_node14"><a xlink:href="classgko_1_1EnablePolymorphicAssignment.html" target="_top" xlink:title="This mixin is used to enable a default PolymorphicObject::copy_from() implementation for objects that...">
<polygon fill="#ffffff" stroke="#000000" points="923.5,-305.5 923.5,-335.5 1115.5,-335.5 1115.5,-305.5 923.5,-305.5"/>
<text text-anchor="start" x="931.5" y="-323.5" font-family="Helvetica,sans-Serif" font-size="10.00" fill="#000000">gko::EnablePolymorphicAssignment</text>
<text text-anchor="middle" x="1019.5" y="-312.5" font-family="Helvetica,sans-Serif" font-size="10.00" fill="#000000">&lt; ConcreteType, ResultType &gt;</text>
</a>
</g>
</g>
<!-- Node17&#45;&gt;Node18 -->
<g id="edge17" class="edge">
<title>Node17&#45;&gt;Node18</title>
<path fill="none" stroke="#191970" d="M669.7339,-394.1345C692.2903,-383.9777 721.2013,-372.1011 748,-364.5 805.1931,-348.2779 870.9708,-337.4276 923.4563,-330.5611"/>
<polygon fill="#191970" stroke="#191970" points="668.1201,-391.0238 660.4806,-398.3646 671.0305,-397.3901 668.1201,-391.0238"/>
</g>
<!-- Node23 -->
<g id="node19" class="node">
<title>Node23</title>
<g id="a_node19"><a xlink:href="classgko_1_1ConvertibleTo.html" target="_top" xlink:title=" ">
<polygon fill="#ffffff" stroke="#000000" points="964.5,-354.5 964.5,-384.5 1074.5,-384.5 1074.5,-354.5 964.5,-354.5"/>
<text text-anchor="start" x="972.5" y="-372.5" font-family="Helvetica,sans-Serif" font-size="10.00" fill="#000000">gko::ConvertibleTo</text>
<text text-anchor="middle" x="1019.5" y="-361.5" font-family="Helvetica,sans-Serif" font-size="10.00" fill="#000000">&lt; ConcreteLinOp &gt;</text>
</a>
</g>
</g>
<!-- Node17&#45;&gt;Node23 -->
<g id="edge26" class="edge">
<title>Node17&#45;&gt;Node23</title>
<path fill="none" stroke="#ffa500" stroke-dasharray="5,2" d="M683.8183,-395.5339C703.778,-389.6896 726.7043,-383.8504 748,-380.5 822.2119,-368.8246 909.1565,-367.4183 964.2747,-368.023"/>
<polygon fill="#ffa500" stroke="#ffa500" points="682.5512,-392.2598 673.9779,-398.4845 684.5618,-398.9648 682.5512,-392.2598"/>
<text text-anchor="middle" x="823.5" y="-383.5" font-family="Helvetica,sans-Serif" font-size="10.00" fill="#000000"> &lt; ConcreteLinOp &gt;</text>
</g>
<!-- Node26 -->
<g id="node22" class="node">
<title>Node26</title>
<g id="a_node22"><a xlink:href="classgko_1_1ConvertibleTo.html" target="_top" xlink:title=" ">
<polygon fill="#ffffff" stroke="#000000" points="1141,-515 1141,-556 1308,-556 1308,-515 1141,-515"/>
<text text-anchor="start" x="1149" y="-544" font-family="Helvetica,sans-Serif" font-size="10.00" fill="#000000">gko::ConvertibleTo</text>
<text text-anchor="start" x="1149" y="-533" font-family="Helvetica,sans-Serif" font-size="10.00" fill="#000000">&lt; Fbcsr&lt; next_precision</text>
<text text-anchor="middle" x="1224.5" y="-522" font-family="Helvetica,sans-Serif" font-size="10.00" fill="#000000">&lt; ValueType &gt;, IndexType &gt; &gt;</text>
</a>
</g>
</g>
<!-- Node17&#45;&gt;Node26 -->
<g id="edge31" class="edge">
<title>Node17&#45;&gt;Node26</title>
<path fill="none" stroke="#ffa500" stroke-dasharray="5,2" d="M648.4393,-436.0495C669.8482,-459.7012 707.0876,-495.6006 748,-511.5 877.8982,-561.9811 1042.8739,-556.4739 1140.7103,-546.7672"/>
<polygon fill="#ffa500" stroke="#ffa500" points="651.0494,-433.7177 641.8033,-428.5447 645.8054,-438.3546 651.0494,-433.7177"/>
<text text-anchor="start" x="748" y="-559.5" font-family="Helvetica,sans-Serif" font-size="10.00" fill="#000000"> &lt; Fbcsr&lt; next_precision</text>
<text text-anchor="middle" x="823.5" y="-548.5" font-family="Helvetica,sans-Serif" font-size="10.00" fill="#000000">&lt; ValueType &gt;, IndexType &gt; &gt;</text>
</g>
<!-- Node27 -->
<g id="node23" class="node">
<title>Node27</title>
<g id="a_node23"><a xlink:href="classgko_1_1ConvertibleTo.html" target="_top" xlink:title=" ">
<polygon fill="#ffffff" stroke="#000000" points="1546,-480.5 1546,-510.5 1688,-510.5 1688,-480.5 1546,-480.5"/>
<text text-anchor="start" x="1554" y="-498.5" font-family="Helvetica,sans-Serif" font-size="10.00" fill="#000000">gko::ConvertibleTo</text>
<text text-anchor="middle" x="1617" y="-487.5" font-family="Helvetica,sans-Serif" font-size="10.00" fill="#000000">&lt; Dense&lt; ValueType &gt; &gt;</text>
</a>
</g>
</g>
<!-- Node17&#45;&gt;Node27 -->
<g id="edge33" class="edge">
<title>Node17&#45;&gt;Node27</title>
<path fill="none" stroke="#ffa500" stroke-dasharray="5,2" d="M664.7969,-433.2237C687.744,-444.9629 718.736,-458.8326 748,-465.5 899.0497,-499.9146 1366.4956,-498.4293 1545.8943,-496.4879"/>
<polygon fill="#ffa500" stroke="#ffa500" points="666.2793,-430.0493 655.7958,-428.5172 663.0358,-436.2525 666.2793,-430.0493"/>
<text text-anchor="middle" x="1019.5" y="-496.5" font-family="Helvetica,sans-Serif" font-size="10.00" fill="#000000"> &lt; Dense&lt; ValueType &gt; &gt;</text>
</g>
<!-- Node28 -->
<g id="node24" class="node">
<title>Node28</title>
<g id="a_node24"><a xlink:href="classgko_1_1ConvertibleTo.html" target="_top" xlink:title=" ">
<polygon fill="#ffffff" stroke="#000000" points="1903,-435.5 1903,-465.5 2085,-465.5 2085,-435.5 1903,-435.5"/>
<text text-anchor="start" x="1911" y="-453.5" font-family="Helvetica,sans-Serif" font-size="10.00" fill="#000000">gko::ConvertibleTo</text>
<text text-anchor="middle" x="1994" y="-442.5" font-family="Helvetica,sans-Serif" font-size="10.00" fill="#000000">&lt; Csr&lt; ValueType, IndexType &gt; &gt;</text>
</a>
</g>
</g>
<!-- Node17&#45;&gt;Node28 -->
<g id="edge35" class="edge">
<title>Node17&#45;&gt;Node28</title>
<path fill="none" stroke="#ffa500" stroke-dasharray="5,2" d="M693.3674,-428.2404C710.9823,-431.8117 730.1563,-435.2456 748,-437.5 867.8741,-452.6449 898.673,-451.5 1019.5,-451.5 1019.5,-451.5 1019.5,-451.5 1617,-451.5 1714.6865,-451.5 1826.6106,-451.1601 1902.9676,-450.8766"/>
<polygon fill="#ffa500" stroke="#ffa500" points="693.7006,-424.7351 683.198,-426.1297 692.278,-431.589 693.7006,-424.7351"/>
<text text-anchor="middle" x="1224.5" y="-454.5" font-family="Helvetica,sans-Serif" font-size="10.00" fill="#000000"> &lt; Csr&lt; ValueType, IndexType &gt; &gt;</text>
</g>
<!-- Node29 -->
<g id="node25" class="node">
<title>Node29</title>
<g id="a_node25"><a xlink:href="classgko_1_1ConvertibleTo.html" target="_top" xlink:title=" ">
<polygon fill="#ffffff" stroke="#000000" points="1151,-386 1151,-427 1298,-427 1298,-386 1151,-386"/>
<text text-anchor="start" x="1159" y="-415" font-family="Helvetica,sans-Serif" font-size="10.00" fill="#000000">gko::ConvertibleTo</text>
<text text-anchor="start" x="1159" y="-404" font-family="Helvetica,sans-Serif" font-size="10.00" fill="#000000">&lt; SparsityCsr&lt; ValueType,</text>
<text text-anchor="middle" x="1224.5" y="-393" font-family="Helvetica,sans-Serif" font-size="10.00" fill="#000000"> IndexType &gt; &gt;</text>
</a>
</g>
</g>
<!-- Node17&#45;&gt;Node29 -->
<g id="edge37" class="edge">
<title>Node17&#45;&gt;Node29</title>
<path fill="none" stroke="#ffa500" stroke-dasharray="5,2" d="M693.1494,-412.7512C804.3242,-411.4432 1033.2436,-408.7501 1150.9901,-407.3648"/>
<polygon fill="#ffa500" stroke="#ffa500" points="693.0466,-409.2521 683.0885,-412.8695 693.1291,-416.2516 693.0466,-409.2521"/>
<text text-anchor="start" x="756.5" y="-425.5" font-family="Helvetica,sans-Serif" font-size="10.00" fill="#000000"> &lt; SparsityCsr&lt; ValueType,</text>
<text text-anchor="middle" x="823.5" y="-414.5" font-family="Helvetica,sans-Serif" font-size="10.00" fill="#000000"> IndexType &gt; &gt;</text>
</g>
<!-- Node18&#45;&gt;Node15 -->
<g id="edge16" class="edge">
<title>Node18&#45;&gt;Node15</title>
<path fill="none" stroke="#ffa500" stroke-dasharray="5,2" d="M1104.1362,-303.8977C1116.1339,-302.0858 1128.3492,-300.528 1140,-299.5 1203.642,-293.8844 1275.517,-293.6344 1331.4815,-294.7883"/>
<polygon fill="#ffa500" stroke="#ffa500" points="1103.4606,-300.4609 1094.1266,-305.4735 1104.5493,-307.3757 1103.4606,-300.4609"/>
<text text-anchor="start" x="1172.5" y="-313.5" font-family="Helvetica,sans-Serif" font-size="10.00" fill="#000000"> &lt; Fbcsr&lt; ValueType,</text>
<text text-anchor="middle" x="1224.5" y="-302.5" font-family="Helvetica,sans-Serif" font-size="10.00" fill="#000000"> IndexType &gt; &gt;</text>
</g>
<!-- Node22 -->
<g id="node18" class="node">
<title>Node22</title>
<g id="a_node18"><a xlink:href="classgko_1_1EnablePolymorphicAssignment.html" target="_top" xlink:title=" ">
<polygon fill="#ffffff" stroke="#000000" points="1331.5,-336.5 1331.5,-366.5 1523.5,-366.5 1523.5,-336.5 1331.5,-336.5"/>
<text text-anchor="start" x="1339.5" y="-354.5" font-family="Helvetica,sans-Serif" font-size="10.00" fill="#000000">gko::EnablePolymorphicAssignment</text>
<text text-anchor="middle" x="1427.5" y="-343.5" font-family="Helvetica,sans-Serif" font-size="10.00" fill="#000000">&lt; ConcreteLinOp &gt;</text>
</a>
</g>
</g>
<!-- Node18&#45;&gt;Node22 -->
<g id="edge27" class="edge">
<title>Node18&#45;&gt;Node22</title>
<path fill="none" stroke="#ffa500" stroke-dasharray="5,2" d="M1125.7328,-328.5716C1189.3309,-333.4038 1269.5326,-339.4976 1331.2658,-344.1881"/>
<polygon fill="#ffa500" stroke="#ffa500" points="1125.9101,-325.0751 1115.6737,-327.8073 1125.3797,-332.055 1125.9101,-325.0751"/>
<text text-anchor="middle" x="1224.5" y="-344.5" font-family="Helvetica,sans-Serif" font-size="10.00" fill="#000000"> &lt; ConcreteLinOp &gt;</text>
</g>
<!-- Node19 -->
<g id="node15" class="node">
<title>Node19</title>
<g id="a_node15"><a xlink:href="classgko_1_1EnableLinOp.html" target="_top" xlink:title="The EnableLinOp mixin can be used to provide sensible default implementations of the majority of the ...">
<polygon fill="#ffffff" stroke="#000000" points="1717.5,-331.5 1717.5,-361.5 1873.5,-361.5 1873.5,-331.5 1717.5,-331.5"/>
<text text-anchor="start" x="1725.5" y="-349.5" font-family="Helvetica,sans-Serif" font-size="10.00" fill="#000000">gko::EnableLinOp&lt; Concrete</text>
<text text-anchor="middle" x="1795.5" y="-338.5" font-family="Helvetica,sans-Serif" font-size="10.00" fill="#000000">LinOp, PolymorphicBase &gt;</text>
</a>
</g>
</g>
<!-- Node19&#45;&gt;Node2 -->
<g id="edge18" class="edge">
<title>Node19&#45;&gt;Node2</title>
<path fill="none" stroke="#ffa500" stroke-dasharray="5,2" d="M1884.0373,-346.5C1957.6488,-346.5 2061.3881,-346.5 2131.8144,-346.5"/>
<polygon fill="#ffa500" stroke="#ffa500" points="1883.857,-343.0001 1873.8569,-346.5 1883.8569,-350.0001 1883.857,-343.0001"/>
<text text-anchor="start" x="1942" y="-360.5" font-family="Helvetica,sans-Serif" font-size="10.00" fill="#000000"> &lt; Fbcsr&lt; ValueType,</text>
<text text-anchor="middle" x="1994" y="-349.5" font-family="Helvetica,sans-Serif" font-size="10.00" fill="#000000"> IndexType &gt; &gt;</text>
</g>
<!-- Node20&#45;&gt;Node19 -->
<g id="edge19" class="edge">
<title>Node20&#45;&gt;Node19</title>
<path fill="none" stroke="#191970" d="M1479.5864,-234.9001C1552.9417,-260.8136 1685.279,-307.5632 1753.0257,-331.4955"/>
<polygon fill="#191970" stroke="#191970" points="1480.6686,-231.5705 1470.0738,-231.5397 1478.3369,-238.1707 1480.6686,-231.5705"/>
</g>
<!-- Node21&#45;&gt;Node20 -->
<g id="edge20" class="edge">
<title>Node21&#45;&gt;Node20</title>
<path fill="none" stroke="#191970" d="M738.1848,-216.5C893.3648,-216.5 1176.2677,-216.5 1326.8777,-216.5"/>
<polygon fill="#191970" stroke="#191970" points="738.1509,-213.0001 728.1508,-216.5 738.1508,-220.0001 738.1509,-213.0001"/>
</g>
<!-- Node22&#45;&gt;Node19 -->
<g id="edge24" class="edge">
<title>Node22&#45;&gt;Node19</title>
<path fill="none" stroke="#191970" d="M1533.7539,-350.0563C1592.4252,-349.2592 1664.0194,-348.2864 1717.4914,-347.5599"/>
<polygon fill="#191970" stroke="#191970" points="1533.6585,-346.5572 1523.707,-350.1928 1533.7537,-353.5566 1533.6585,-346.5572"/>
</g>
<!-- Node23&#45;&gt;Node22 -->
<g id="edge25" class="edge">
<title>Node23&#45;&gt;Node22</title>
<path fill="none" stroke="#191970" d="M1084.8725,-366.6159C1151.4073,-363.6806 1255.2785,-359.098 1331.2215,-355.7476"/>
<polygon fill="#191970" stroke="#191970" points="1084.3607,-363.135 1074.5247,-367.0724 1084.6693,-370.1282 1084.3607,-363.135"/>
</g>
<!-- Node24 -->
<g id="node20" class="node">
<title>Node24</title>
<g id="a_node20"><a xlink:href="classgko_1_1EnableCreateMethod.html" target="_top" xlink:title=" ">
<polygon fill="#ffffff" stroke="#000000" points="2113.5,-282.5 2113.5,-312.5 2305.5,-312.5 2305.5,-282.5 2113.5,-282.5"/>
<text text-anchor="start" x="2121.5" y="-300.5" font-family="Helvetica,sans-Serif" font-size="10.00" fill="#000000">gko::EnableCreateMethod</text>
<text text-anchor="middle" x="2209.5" y="-289.5" font-family="Helvetica,sans-Serif" font-size="10.00" fill="#000000">&lt; Fbcsr&lt; ValueType, IndexType &gt; &gt;</text>
</a>
</g>
</g>
<!-- Node24&#45;&gt;Node1 -->
<g id="edge28" class="edge">
<title>Node24&#45;&gt;Node1</title>
<path fill="none" stroke="#191970" d="M2315.6374,-297.5C2328.1893,-297.5 2340.7703,-297.5 2352.699,-297.5"/>
<polygon fill="#191970" stroke="#191970" points="2315.5904,-294.0001 2305.5904,-297.5 2315.5904,-301.0001 2315.5904,-294.0001"/>
</g>
<!-- Node25 -->
<g id="node21" class="node">
<title>Node25</title>
<g id="a_node21"><a xlink:href="classgko_1_1EnableCreateMethod.html" target="_top" xlink:title="This mixin implements a static create() method on ConcreteType that dynamically allocates the memory,...">
<polygon fill="#ffffff" stroke="#000000" points="1724.5,-182.5 1724.5,-212.5 1866.5,-212.5 1866.5,-182.5 1724.5,-182.5"/>
<text text-anchor="start" x="1732.5" y="-200.5" font-family="Helvetica,sans-Serif" font-size="10.00" fill="#000000">gko::EnableCreateMethod</text>
<text text-anchor="middle" x="1795.5" y="-189.5" font-family="Helvetica,sans-Serif" font-size="10.00" fill="#000000">&lt; ConcreteType &gt;</text>
</a>
</g>
</g>
<!-- Node25&#45;&gt;Node24 -->
<g id="edge29" class="edge">
<title>Node25&#45;&gt;Node24</title>
<path fill="none" stroke="#ffa500" stroke-dasharray="5,2" d="M1868.8835,-180.7912C1932.7689,-170.7679 2024.393,-167.8786 2085,-215.5 2106.2229,-232.1757 2083.1735,-255.186 2103,-273.5 2106.6199,-276.8437 2110.603,-279.7558 2114.8382,-282.2894"/>
<polygon fill="#ffa500" stroke="#ffa500" points="1868.1682,-177.362 1858.8775,-182.4546 1869.3161,-184.2673 1868.1682,-177.362"/>
<text text-anchor="start" x="1942" y="-229.5" font-family="Helvetica,sans-Serif" font-size="10.00" fill="#000000"> &lt; Fbcsr&lt; ValueType,</text>
<text text-anchor="middle" x="1994" y="-218.5" font-family="Helvetica,sans-Serif" font-size="10.00" fill="#000000"> IndexType &gt; &gt;</text>
</g>
<!-- Node26&#45;&gt;Node1 -->
<g id="edge30" class="edge">
<title>Node26&#45;&gt;Node1</title>
<path fill="none" stroke="#191970" d="M1318.8185,-535.5C1398.3249,-535.5 1515.1025,-535.5 1617,-535.5 1617,-535.5 1617,-535.5 2209.5,-535.5 2260.5459,-535.5 2277.7048,-526.2514 2316,-492.5 2374.92,-440.5709 2408.8286,-348.7827 2420.4281,-312.686"/>
<polygon fill="#191970" stroke="#191970" points="1318.3396,-532.0001 1308.3396,-535.5 1318.3395,-539.0001 1318.3396,-532.0001"/>
</g>
<!-- Node27&#45;&gt;Node1 -->
<g id="edge32" class="edge">
<title>Node27&#45;&gt;Node1</title>
<path fill="none" stroke="#191970" d="M1698.5481,-500.1223C1859.9156,-507.8218 2213.2381,-517.0581 2316,-457.5 2374.0147,-423.8762 2407.8041,-345.4897 2419.8931,-312.5272"/>
<polygon fill="#191970" stroke="#191970" points="1698.36,-496.6091 1688.2014,-499.6181 1698.0192,-503.6008 1698.36,-496.6091"/>
</g>
<!-- Node28&#45;&gt;Node1 -->
<g id="edge34" class="edge">
<title>Node28&#45;&gt;Node1</title>
<path fill="none" stroke="#191970" d="M2095.6554,-460.5352C2166.9974,-462.8875 2262.2588,-456.2596 2335,-415.5 2377.4809,-391.6964 2406.2914,-338.7233 2418.4621,-312.6257"/>
<polygon fill="#191970" stroke="#191970" points="2095.4391,-457.024 2085.3086,-460.126 2095.1624,-464.0186 2095.4391,-457.024"/>
</g>
<!-- Node29&#45;&gt;Node1 -->
<g id="edge36" class="edge">
<title>Node29&#45;&gt;Node1</title>
<path fill="none" stroke="#191970" d="M1308.7234,-404.8071C1388.2008,-403.3566 1510.692,-401.5 1617,-401.5 1617,-401.5 1617,-401.5 2209.5,-401.5 2290.2995,-401.5 2372.7177,-341.4666 2407.6539,-312.6225"/>
<polygon fill="#191970" stroke="#191970" points="1308.2174,-401.3158 1298.2838,-404.9998 1308.3467,-408.3146 1308.2174,-401.3158"/>
</g>
<!-- Node30 -->
<g id="node26" class="node">
<title>Node30</title>
<g id="a_node26"><a xlink:href="classgko_1_1DiagonalExtractable.html" target="_top" xlink:title="The diagonal of a LinOp implementing this interface can be extracted.">
<polygon fill="#ffffff" stroke="#000000" points="2139.5,-233.5 2139.5,-263.5 2279.5,-263.5 2279.5,-233.5 2139.5,-233.5"/>
<text text-anchor="start" x="2147.5" y="-251.5" font-family="Helvetica,sans-Serif" font-size="10.00" fill="#000000">gko::DiagonalExtractable</text>
<text text-anchor="middle" x="2209.5" y="-240.5" font-family="Helvetica,sans-Serif" font-size="10.00" fill="#000000">&lt; ValueType &gt;</text>
</a>
</g>
</g>
<!-- Node30&#45;&gt;Node1 -->
<g id="edge38" class="edge">
<title>Node30&#45;&gt;Node1</title>
<path fill="none" stroke="#191970" d="M2285.4005,-265.7581C2309.4127,-271.218 2335.7435,-277.205 2359.0034,-282.4938"/>
<polygon fill="#191970" stroke="#191970" points="2286.1488,-262.339 2275.6216,-263.5346 2284.5967,-269.1648 2286.1488,-262.339"/>
</g>
<!-- Node31 -->
<g id="node27" class="node">
<title>Node31</title>
<g id="a_node27"><a xlink:href="classgko_1_1DiagonalLinOpExtractable.html" target="_top" xlink:title="The diagonal of a LinOp can be extracted.">
<polygon fill="#ffffff" stroke="#000000" points="1712,-144 1712,-163 1879,-163 1879,-144 1712,-144"/>
<text text-anchor="middle" x="1795.5" y="-151" font-family="Helvetica,sans-Serif" font-size="10.00" fill="#000000">gko::DiagonalLinOpExtractable</text>
</a>
</g>
</g>
<!-- Node31&#45;&gt;Node30 -->
<g id="edge39" class="edge">
<title>Node31&#45;&gt;Node30</title>
<path fill="none" stroke="#191970" d="M1846.2926,-142.1512C1909.0177,-131.2525 2015.869,-123.2403 2085,-175.5 2103.5075,-189.4908 2085.5607,-209.1983 2103,-224.5 2113.2576,-233.5002 2126.1696,-239.3363 2139.4315,-243.0761"/>
<polygon fill="#191970" stroke="#191970" points="1845.449,-138.7473 1836.2413,-143.9883 1846.7077,-145.6332 1845.449,-138.7473"/>
</g>
<!-- Node32 -->
<g id="node28" class="node">
<title>Node32</title>
<g id="a_node28"><a xlink:href="classgko_1_1ReadableFromMatrixData.html" target="_top" xlink:title="A LinOp implementing this interface can read its data from a matrix_data structure.">
<polygon fill="#ffffff" stroke="#000000" points="2127.5,-184.5 2127.5,-214.5 2291.5,-214.5 2291.5,-184.5 2127.5,-184.5"/>
<text text-anchor="start" x="2135.5" y="-202.5" font-family="Helvetica,sans-Serif" font-size="10.00" fill="#000000">gko::ReadableFromMatrixData</text>
<text text-anchor="middle" x="2209.5" y="-191.5" font-family="Helvetica,sans-Serif" font-size="10.00" fill="#000000">&lt; ValueType, IndexType &gt;</text>
</a>
</g>
</g>
<!-- Node32&#45;&gt;Node1 -->
<g id="edge40" class="edge">
<title>Node32&#45;&gt;Node1</title>
<path fill="none" stroke="#191970" d="M2297.9857,-217.643C2304.1663,-219.7094 2310.2284,-221.9891 2316,-224.5 2350.6687,-239.5822 2386.2078,-265.7991 2406.9113,-282.3687"/>
<polygon fill="#191970" stroke="#191970" points="2298.7897,-214.227 2288.2004,-214.5689 2296.6917,-220.9052 2298.7897,-214.227"/>
</g>
<!-- Node33 -->
<g id="node29" class="node">
<title>Node33</title>
<g id="a_node29"><a xlink:href="classgko_1_1WritableToMatrixData.html" target="_top" xlink:title="A LinOp implementing this interface can write its data to a matrix_data structure.">
<polygon fill="#ffffff" stroke="#000000" points="2136.5,-135.5 2136.5,-165.5 2282.5,-165.5 2282.5,-135.5 2136.5,-135.5"/>
<text text-anchor="start" x="2144.5" y="-153.5" font-family="Helvetica,sans-Serif" font-size="10.00" fill="#000000">gko::WritableToMatrixData</text>
<text text-anchor="middle" x="2209.5" y="-142.5" font-family="Helvetica,sans-Serif" font-size="10.00" fill="#000000">&lt; ValueType, IndexType &gt;</text>
</a>
</g>
</g>
<!-- Node33&#45;&gt;Node1 -->
<g id="edge41" class="edge">
<title>Node33&#45;&gt;Node1</title>
<path fill="none" stroke="#191970" d="M2292.0837,-164.4763C2300.4504,-167.4659 2308.5855,-171.0948 2316,-175.5 2362.1504,-202.9193 2399.5683,-256.3495 2415.9931,-282.4388"/>
<polygon fill="#191970" stroke="#191970" points="2293.1576,-161.1452 2282.565,-161.3654 2290.983,-167.7988 2293.1576,-161.1452"/>
</g>
<!-- Node34 -->
<g id="node30" class="node">
<title>Node34</title>
<g id="a_node30"><a xlink:href="classgko_1_1Transposable.html" target="_top" xlink:title="Linear operators which support transposition should implement the Transposable interface.">
<polygon fill="#ffffff" stroke="#000000" points="2157.5,-97 2157.5,-116 2261.5,-116 2261.5,-97 2157.5,-97"/>
<text text-anchor="middle" x="2209.5" y="-104" font-family="Helvetica,sans-Serif" font-size="10.00" fill="#000000">gko::Transposable</text>
</a>
</g>
</g>
<!-- Node34&#45;&gt;Node1 -->
<g id="edge42" class="edge">
<title>Node34&#45;&gt;Node1</title>
<path fill="none" stroke="#191970" d="M2271.8061,-109.5464C2287.222,-112.5452 2303.0234,-117.7271 2316,-126.5 2374.478,-166.0341 2408.2171,-248.5344 2420.0976,-282.4478"/>
<polygon fill="#191970" stroke="#191970" points="2272.2038,-106.0646 2261.7649,-107.8753 2271.0546,-112.9696 2272.2038,-106.0646"/>
</g>
<!-- Node35 -->
<g id="node31" class="node">
<title>Node35</title>
<g id="a_node31"><a xlink:href="classgko_1_1EnableAbsoluteComputation.html" target="_top" xlink:title=" ">
<polygon fill="#ffffff" stroke="#000000" points="2103,-37 2103,-78 2316,-78 2316,-37 2103,-37"/>
<text text-anchor="start" x="2111" y="-66" font-family="Helvetica,sans-Serif" font-size="10.00" fill="#000000">gko::EnableAbsoluteComputation</text>
<text text-anchor="start" x="2111" y="-55" font-family="Helvetica,sans-Serif" font-size="10.00" fill="#000000">&lt; remove_complex&lt; Fbcsr&lt; ValueType,</text>
<text text-anchor="middle" x="2209.5" y="-44" font-family="Helvetica,sans-Serif" font-size="10.00" fill="#000000"> IndexType &gt; &gt; &gt;</text>
</a>
</g>
</g>
<!-- Node35&#45;&gt;Node1 -->
<g id="edge43" class="edge">
<title>Node35&#45;&gt;Node1</title>
<path fill="none" stroke="#191970" d="M2310.5525,-83.4143C2312.426,-84.7104 2314.245,-86.0712 2316,-87.5 2381.4617,-140.7947 2412.0644,-243.8468 2421.5907,-282.4301"/>
<polygon fill="#191970" stroke="#191970" points="2312.3653,-80.4201 2302.0195,-78.1362 2308.6829,-86.3733 2312.3653,-80.4201"/>
</g>
<!-- Node36 -->
<g id="node32" class="node">
<title>Node36</title>
<g id="a_node32"><a xlink:href="classgko_1_1AbsoluteComputable.html" target="_top" xlink:title="The AbsoluteComputable is an interface that allows to get the component wise absolute of a LinOp.">
<polygon fill="#ffffff" stroke="#000000" points="1356,-26 1356,-45 1499,-45 1499,-26 1356,-26"/>
<text text-anchor="middle" x="1427.5" y="-33" font-family="Helvetica,sans-Serif" font-size="10.00" fill="#000000">gko::AbsoluteComputable</text>
</a>
</g>
</g>
<!-- Node36&#45;&gt;Node35 -->
<g id="edge44" class="edge">
<title>Node36&#45;&gt;Node35</title>
<path fill="none" stroke="#191970" d="M1509.4619,-38.3373C1521.7089,-38.7408 1534.1854,-39.1403 1546,-39.5 1742.5259,-45.4826 1971.8261,-51.4864 2102.9101,-54.8256"/>
<polygon fill="#191970" stroke="#191970" points="1509.3585,-34.832 1499.2479,-37.9983 1509.1262,-41.8282 1509.3585,-34.832"/>
</g>
<!-- Node37 -->
<g id="node33" class="node">
<title>Node37</title>
<g id="a_node33"><a xlink:href="classgko_1_1EnableAbsoluteComputation.html" target="_top" xlink:title="The EnableAbsoluteComputation mixin provides the default implementations of compute_absolute_linop an...">
<polygon fill="#ffffff" stroke="#000000" points="1706,-.5 1706,-30.5 1885,-30.5 1885,-.5 1706,-.5"/>
<text text-anchor="start" x="1714" y="-18.5" font-family="Helvetica,sans-Serif" font-size="10.00" fill="#000000">gko::EnableAbsoluteComputation</text>
<text text-anchor="middle" x="1795.5" y="-7.5" font-family="Helvetica,sans-Serif" font-size="10.00" fill="#000000">&lt; AbsoluteLinOp &gt;</text>
</a>
</g>
</g>
<!-- Node36&#45;&gt;Node37 -->
<g id="edge46" class="edge">
<title>Node36&#45;&gt;Node37</title>
<path fill="none" stroke="#191970" d="M1509.6004,-31.038C1567.8732,-27.871 1646.0623,-23.6216 1705.9431,-20.3672"/>
<polygon fill="#191970" stroke="#191970" points="1509.123,-27.5587 1499.3277,-31.5963 1509.5029,-34.5484 1509.123,-27.5587"/>
</g>
<!-- Node37&#45;&gt;Node35 -->
<g id="edge45" class="edge">
<title>Node37&#45;&gt;Node35</title>
<path fill="none" stroke="#ffa500" stroke-dasharray="5,2" d="M1895.5915,-12.4077C1951.5855,-12.1415 2022.4923,-14.2376 2085,-23.5 2105.0585,-26.4723 2126.4942,-31.5921 2145.8266,-36.9697"/>
<polygon fill="#ffa500" stroke="#ffa500" points="1895.2889,-8.9097 1885.3151,-12.4837 1895.3407,-15.9096 1895.2889,-8.9097"/>
<text text-anchor="start" x="1918.5" y="-37.5" font-family="Helvetica,sans-Serif" font-size="10.00" fill="#000000"> &lt; remove_complex&lt; Fbcsr</text>
<text text-anchor="middle" x="1994" y="-26.5" font-family="Helvetica,sans-Serif" font-size="10.00" fill="#000000">&lt; ValueType, IndexType &gt; &gt; &gt;</text>
</g>
</g>
</svg>
        <g id="navigator" transform="translate(0 0)" fill="#404254">
                <rect fill="#f2f5e9" fill-opacity="0.5" stroke="#606060" stroke-width=".5" x="0" y="0" width="60" height="60"/>
                <use id="zoomplus" xlink:href="#zoomPlus" x="17" y="9" onmousedown="handleZoom(evt,'in')"/>
                <use id="zoomminus" xlink:href="#zoomMin" x="42" y="9" onmousedown="handleZoom(evt,'out')"/>
                <use id="reset" xlink:href="#resetDef" x="30" y="36" onmousedown="handleReset()"/>
                <g id="arrowUp" xlink:href="#dirArrow" transform="translate(30 24)" onmousedown="handlePan(0,-1)">
                  <use xlink:href="#rim" fill="#404040">
                        <set attributeName="fill" to="#808080" begin="arrowUp.mouseover" end="arrowUp.mouseout"/>
                  </use>
                  <path fill="none" stroke="white" stroke-width="1.5" d="M0,-3.0v7 M-2.5,-0.5L0,-3.0L2.5,-0.5"/>
                </g>
                <g id="arrowRight" xlink:href="#dirArrow" transform="rotate(90) translate(36 -43)" onmousedown="handlePan(1,0)">
                  <use xlink:href="#rim" fill="#404040">
                        <set attributeName="fill" to="#808080" begin="arrowRight.mouseover" end="arrowRight.mouseout"/>
                  </use>
                  <path fill="none" stroke="white" stroke-width="1.5" d="M0,-3.0v7 M-2.5,-0.5L0,-3.0L2.5,-0.5"/>
                </g>
                <g id="arrowDown" xlink:href="#dirArrow" transform="rotate(180) translate(-30 -48)" onmousedown="handlePan(0,1)">
                  <use xlink:href="#rim" fill="#404040">
                        <set attributeName="fill" to="#808080" begin="arrowDown.mouseover" end="arrowDown.mouseout"/>
                  </use>
                  <path fill="none" stroke="white" stroke-width="1.5" d="M0,-3.0v7 M-2.5,-0.5L0,-3.0L2.5,-0.5"/>
                </g>
                <g id="arrowLeft" xlink:href="#dirArrow" transform="rotate(270) translate(-36 17)" onmousedown="handlePan(-1,0)">
                  <use xlink:href="#rim" fill="#404040">
                        <set attributeName="fill" to="#808080" begin="arrowLeft.mouseover" end="arrowLeft.mouseout"/>
                  </use>
                  <path fill="none" stroke="white" stroke-width="1.5" d="M0,-3.0v7 M-2.5,-0.5L0,-3.0L2.5,-0.5"/>
                </g>
        </g>
        <svg viewBox="0 0 15 15" width="100%" height="30px" preserveAspectRatio="xMaxYMin meet">
         <g id="arrow_out" transform="scale(0.3 0.3)">
          <a xlink:href="classgko_1_1matrix_1_1Fbcsr__coll__graph_org.svg" target="_base">
           <rect id="button" ry="5" rx="5" y="6" x="6" height="38" width="38"
                fill="#f2f5e9" fill-opacity="0.5" stroke="#606060" stroke-width="1.0"/>
           <path id="arrow"
             d="M 11.500037,31.436501 C 11.940474,20.09759 22.043105,11.32322 32.158766,21.979434 L 37.068811,17.246167 C 37.068811,17.246167 37.088388,32 37.088388,32 L 22.160133,31.978069 C 22.160133,31.978069 26.997745,27.140456 26.997745,27.140456 C 18.528582,18.264221 13.291696,25.230495 11.500037,31.436501 z"
             style="fill:#404040;"/>
          </a>
         </g>
        </svg>
</svg>
