<?xml version="1.0" encoding="UTF-8" standalone="no"?>
<!DOCTYPE svg PUBLIC "-//W3C//DTD SVG 1.1//EN"
 "http://www.w3.org/Graphics/SVG/1.1/DTD/svg11.dtd">
<!-- Generated by graphviz version 2.40.1 (20161225.0304)
 -->
<!-- Title: gko::batch::matrix::Csr&lt; ValueType, IndexType &gt; Pages: 1 -->
<!--zoomable 353 -->
<svg id="main" version="1.1" xmlns="http://www.w3.org/2000/svg" xmlns:xlink="http://www.w3.org/1999/xlink" xml:space="preserve" onload="init(evt)">
<style type="text/css"><![CDATA[
.edge:hover path { stroke: red; }
.edge:hover polygon { stroke: red; fill: red; }
]]></style>
<script type="text/javascript"><![CDATA[
var edges = document.getElementsByTagName('g');
if (edges && edges.length) {
  for (var i=0;i<edges.length;i++) {
    if (edges[i].id.substr(0,4)=='edge') {
      edges[i].setAttribute('class','edge');
    }
  }
}
]]></script>
        <defs>
                <circle id="rim" cx="0" cy="0" r="7"/>
                <circle id="rim2" cx="0" cy="0" r="3.5"/>
                <g id="zoomPlus">
                        <use xlink:href="#rim" fill="#404040">
                                <set attributeName="fill" to="#808080" begin="zoomplus.mouseover" end="zoomplus.mouseout"/>
                        </use>
                        <path d="M-4,0h8M0,-4v8" fill="none" stroke="white" stroke-width="1.5" pointer-events="none"/>
                </g>
                <g id="zoomMin">
                        <use xlink:href="#rim" fill="#404040">
                                <set attributeName="fill" to="#808080" begin="zoomminus.mouseover" end="zoomminus.mouseout"/>
                        </use>
                        <path d="M-4,0h8" fill="none" stroke="white" stroke-width="1.5" pointer-events="none"/>
                </g>
                <g id="dirArrow">
                        <path fill="none" stroke="white" stroke-width="1.5" d="M0,-3.0v7 M-2.5,-0.5L0,-3.0L2.5,-0.5"/>
                </g>
               <g id="resetDef">
                       <use xlink:href="#rim2" fill="#404040">
                               <set attributeName="fill" to="#808080" begin="reset.mouseover" end="reset.mouseout"/>
                       </use>
               </g>
        </defs>

<script type="text/javascript">
var viewWidth = 2337;
var viewHeight = 353;
var sectionId = 'dynsection-1';
</script>
<script xlink:href="svgpan.js"/>
<svg id="graph" class="graph">
<g id="viewport">
<title>gko::batch::matrix::Csr&lt; ValueType, IndexType &gt;</title>
<polygon fill="#ffffff" stroke="transparent" points="-4,4 -4,-348.7202 2333,-348.7202 2333,4 -4,4"/>
<!-- Node1 -->
<g id="node1" class="node">
<title>Node1</title>
<g id="a_node1"><a xlink:title="Csr is a general sparse matrix format that stores the column indices for each nonzero entry and a cum...">
<polygon fill="#bfbfbf" stroke="#000000" points="2163,-39 2163,-69 2329,-69 2329,-39 2163,-39"/>
<text text-anchor="start" x="2171" y="-57" font-family="Helvetica,sans-Serif" font-size="10.00" fill="#000000">gko::batch::matrix</text>
<text text-anchor="middle" x="2246" y="-46" font-family="Helvetica,sans-Serif" font-size="10.00" fill="#000000">::Csr&lt; ValueType, IndexType &gt;</text>
</a>
</g>
</g>
<!-- Node2 -->
<g id="node2" class="node">
<title>Node2</title>
<g id="a_node2"><a xlink:href="classgko_1_1batch_1_1EnableBatchLinOp.html" target="_top" xlink:title=" ">
<polygon fill="#ffffff" stroke="#000000" points="1930,-94 1930,-124 2126,-124 2126,-94 1930,-94"/>
<text text-anchor="start" x="1938" y="-112" font-family="Helvetica,sans-Serif" font-size="10.00" fill="#000000">gko::batch::EnableBatchLin</text>
<text text-anchor="middle" x="2028" y="-101" font-family="Helvetica,sans-Serif" font-size="10.00" fill="#000000">Op&lt; Csr&lt; ValueType, IndexType &gt; &gt;</text>
</a>
</g>
</g>
<!-- Node2&#45;&gt;Node1 -->
<g id="edge1" class="edge">
<title>Node2&#45;&gt;Node1</title>
<path fill="none" stroke="#191970" d="M2097.5089,-91.4634C2126.1493,-84.2376 2158.996,-75.9505 2186.5026,-69.0108"/>
<polygon fill="#191970" stroke="#191970" points="2096.4094,-88.131 2087.5695,-93.971 2098.1219,-94.9183 2096.4094,-88.131"/>
</g>
<!-- Node3 -->
<g id="node3" class="node">
<title>Node3</title>
<g id="a_node3"><a xlink:href="classgko_1_1EnablePolymorphicObject.html" target="_top" xlink:title=" ">
<polygon fill="#ffffff" stroke="#000000" points="1359,-187.5 1359,-228.5 1525,-228.5 1525,-187.5 1359,-187.5"/>
<text text-anchor="start" x="1367" y="-216.5" font-family="Helvetica,sans-Serif" font-size="10.00" fill="#000000">gko::EnablePolymorphicObject</text>
<text text-anchor="start" x="1367" y="-205.5" font-family="Helvetica,sans-Serif" font-size="10.00" fill="#000000">&lt; Csr&lt; ValueType, IndexType</text>
<text text-anchor="middle" x="1442" y="-194.5" font-family="Helvetica,sans-Serif" font-size="10.00" fill="#000000"> &gt;, BatchLinOp &gt;</text>
</a>
</g>
</g>
<!-- Node3&#45;&gt;Node2 -->
<g id="edge2" class="edge">
<title>Node3&#45;&gt;Node2</title>
<path fill="none" stroke="#191970" d="M1525.7526,-183.4778C1530.3057,-181.4533 1534.7516,-179.2951 1539,-177 1557.6264,-166.9374 1556.3599,-154.9035 1576,-147 1607.9162,-134.1565 1806.876,-121.1406 1929.9539,-114.1724"/>
<polygon fill="#191970" stroke="#191970" points="1524.1548,-180.3524 1516.2855,-187.4464 1526.8611,-186.8082 1524.1548,-180.3524"/>
</g>
<!-- Node4 -->
<g id="node4" class="node">
<title>Node4</title>
<g id="a_node4"><a xlink:href="classgko_1_1EnableAbstractPolymorphicObject.html" target="_top" xlink:title=" ">
<polygon fill="#ffffff" stroke="#000000" points="534,-180.5 534,-221.5 725,-221.5 725,-180.5 534,-180.5"/>
<text text-anchor="start" x="542" y="-209.5" font-family="Helvetica,sans-Serif" font-size="10.00" fill="#000000">gko::EnableAbstractPolymorphic</text>
<text text-anchor="start" x="542" y="-198.5" font-family="Helvetica,sans-Serif" font-size="10.00" fill="#000000">Object&lt; Csr&lt; ValueType, IndexType</text>
<text text-anchor="middle" x="629.5" y="-187.5" font-family="Helvetica,sans-Serif" font-size="10.00" fill="#000000"> &gt;, BatchLinOp &gt;</text>
</a>
</g>
</g>
<!-- Node4&#45;&gt;Node3 -->
<g id="edge3" class="edge">
<title>Node4&#45;&gt;Node3</title>
<path fill="none" stroke="#191970" d="M735.1712,-201.9104C898.753,-203.3197 1209.911,-206.0005 1358.7036,-207.2824"/>
<polygon fill="#191970" stroke="#191970" points="735.1231,-198.41 725.0933,-201.8236 735.0628,-205.4097 735.1231,-198.41"/>
</g>
<!-- Node5 -->
<g id="node5" class="node">
<title>Node5</title>
<g id="a_node5"><a xlink:title=" ">
<polygon fill="#ffffff" stroke="#bfbfbf" points="201,-160.5 201,-179.5 273,-179.5 273,-160.5 201,-160.5"/>
<text text-anchor="middle" x="237" y="-167.5" font-family="Helvetica,sans-Serif" font-size="10.00" fill="#000000">BatchLinOp</text>
</a>
</g>
</g>
<!-- Node5&#45;&gt;Node4 -->
<g id="edge4" class="edge">
<title>Node5&#45;&gt;Node4</title>
<path fill="none" stroke="#191970" d="M283.4797,-171.0803C338.0613,-172.6483 431.2766,-176.2611 511,-184 518.4471,-184.7229 526.143,-185.5787 533.8706,-186.5156"/>
<polygon fill="#191970" stroke="#191970" points="283.5148,-167.58 273.4218,-170.802 283.3212,-174.5773 283.5148,-167.58"/>
</g>
<!-- Node6 -->
<g id="node6" class="node">
<title>Node6</title>
<g id="a_node6"><a xlink:href="classgko_1_1EnableAbstractPolymorphicObject.html" target="_top" xlink:title="This mixin inherits from (a subclass of) PolymorphicObject and provides a base implementation of a ne...">
<polygon fill="#ffffff" stroke="#000000" points="138,-268.5 138,-309.5 336,-309.5 336,-268.5 138,-268.5"/>
<text text-anchor="start" x="146" y="-297.5" font-family="Helvetica,sans-Serif" font-size="10.00" fill="#000000">gko::EnableAbstractPolymorphic</text>
<text text-anchor="start" x="146" y="-286.5" font-family="Helvetica,sans-Serif" font-size="10.00" fill="#000000">Object&lt; AbstractObject, Polymorphic</text>
<text text-anchor="middle" x="237" y="-275.5" font-family="Helvetica,sans-Serif" font-size="10.00" fill="#000000">Base &gt;</text>
</a>
</g>
</g>
<!-- Node6&#45;&gt;Node4 -->
<g id="edge5" class="edge">
<title>Node6&#45;&gt;Node4</title>
<path fill="none" stroke="#ffa500" stroke-dasharray="5,2" d="M285.7609,-264.1304C306.3454,-254.5928 330.8655,-244.4596 354,-238 412.5665,-221.6472 480.2211,-212.4285 533.83,-207.2827"/>
<polygon fill="#ffa500" stroke="#ffa500" points="284.1481,-261.0213 276.5992,-268.4553 287.1364,-267.3514 284.1481,-261.0213"/>
<text text-anchor="start" x="359" y="-252" font-family="Helvetica,sans-Serif" font-size="10.00" fill="#000000"> &lt; Csr&lt; ValueType, IndexType</text>
<text text-anchor="middle" x="432.5" y="-241" font-family="Helvetica,sans-Serif" font-size="10.00" fill="#000000"> &gt;, BatchLinOp &gt;</text>
</g>
<!-- Node9 -->
<g id="node9" class="node">
<title>Node9</title>
<g id="a_node9"><a xlink:href="classgko_1_1EnableAbstractPolymorphicObject.html" target="_top" xlink:title=" ">
<polygon fill="#ffffff" stroke="#000000" points="529,-240.5 529,-281.5 730,-281.5 730,-240.5 529,-240.5"/>
<text text-anchor="start" x="537" y="-269.5" font-family="Helvetica,sans-Serif" font-size="10.00" fill="#000000">gko::EnableAbstractPolymorphic</text>
<text text-anchor="start" x="537" y="-258.5" font-family="Helvetica,sans-Serif" font-size="10.00" fill="#000000">Object&lt; ConcreteObject, Polymorphic</text>
<text text-anchor="middle" x="629.5" y="-247.5" font-family="Helvetica,sans-Serif" font-size="10.00" fill="#000000">Base &gt;</text>
</a>
</g>
</g>
<!-- Node6&#45;&gt;Node9 -->
<g id="edge10" class="edge">
<title>Node6&#45;&gt;Node9</title>
<path fill="none" stroke="#ffa500" stroke-dasharray="5,2" d="M346.2885,-274.7079C348.8828,-274.4593 351.4563,-274.2227 354,-274 411.837,-268.9362 476.6894,-265.7529 528.9372,-263.8047"/>
<polygon fill="#ffa500" stroke="#ffa500" points="345.7972,-271.2396 336.1975,-275.7224 346.4975,-278.2045 345.7972,-271.2396"/>
<text text-anchor="start" x="354" y="-288" font-family="Helvetica,sans-Serif" font-size="10.00" fill="#000000"> &lt; ConcreteObject, Polymorphic</text>
<text text-anchor="middle" x="432.5" y="-277" font-family="Helvetica,sans-Serif" font-size="10.00" fill="#000000">Base &gt;</text>
</g>
<!-- Node16 -->
<g id="node16" class="node">
<title>Node16</title>
<g id="a_node16"><a xlink:href="classgko_1_1EnableAbstractPolymorphicObject.html" target="_top" xlink:title=" ">
<polygon fill="#ffffff" stroke="#000000" points="542,-300.5 542,-341.5 717,-341.5 717,-300.5 542,-300.5"/>
<text text-anchor="start" x="550" y="-329.5" font-family="Helvetica,sans-Serif" font-size="10.00" fill="#000000">gko::EnableAbstractPolymorphic</text>
<text text-anchor="start" x="550" y="-318.5" font-family="Helvetica,sans-Serif" font-size="10.00" fill="#000000">Object&lt; ConcreteBatchLinOp,</text>
<text text-anchor="middle" x="629.5" y="-307.5" font-family="Helvetica,sans-Serif" font-size="10.00" fill="#000000"> PolymorphicBase &gt;</text>
</a>
</g>
</g>
<!-- Node6&#45;&gt;Node16 -->
<g id="edge20" class="edge">
<title>Node6&#45;&gt;Node16</title>
<path fill="none" stroke="#ffa500" stroke-dasharray="5,2" d="M346.2134,-297.904C407.9382,-302.9364 484.0683,-309.1432 541.8581,-313.8547"/>
<polygon fill="#ffa500" stroke="#ffa500" points="346.2957,-294.3992 336.0443,-297.075 345.7268,-301.3761 346.2957,-294.3992"/>
<text text-anchor="start" x="374" y="-324" font-family="Helvetica,sans-Serif" font-size="10.00" fill="#000000"> &lt; ConcreteBatchLinOp,</text>
<text text-anchor="middle" x="432.5" y="-313" font-family="Helvetica,sans-Serif" font-size="10.00" fill="#000000"> PolymorphicBase &gt;</text>
</g>
<!-- Node7 -->
<g id="node7" class="node">
<title>Node7</title>
<g id="a_node7"><a xlink:title=" ">
<polygon fill="#ffffff" stroke="#bfbfbf" points="0,-279.5 0,-298.5 101,-298.5 101,-279.5 0,-279.5"/>
<text text-anchor="middle" x="50.5" y="-286.5" font-family="Helvetica,sans-Serif" font-size="10.00" fill="#000000">PolymorphicBase</text>
</a>
</g>
</g>
<!-- Node7&#45;&gt;Node6 -->
<g id="edge6" class="edge">
<title>Node7&#45;&gt;Node6</title>
<path fill="none" stroke="#191970" d="M111.5248,-289C119.9555,-289 128.7869,-289 137.6923,-289"/>
<polygon fill="#191970" stroke="#191970" points="111.462,-285.5001 101.4619,-289 111.4619,-292.5001 111.462,-285.5001"/>
</g>
<!-- Node7&#45;&gt;Node9 -->
<g id="edge9" class="edge">
<title>Node7&#45;&gt;Node9</title>
<path fill="none" stroke="#191970" d="M81.5467,-275.5517C97.9869,-269.1549 118.7166,-262.2139 138,-259 301.5228,-231.7462 345.2258,-258.8269 511,-260 516.8633,-260.0415 522.8899,-260.0861 528.9705,-260.1327"/>
<polygon fill="#191970" stroke="#191970" points="79.8872,-272.4466 71.916,-279.426 82.4998,-278.9408 79.8872,-272.4466"/>
</g>
<!-- Node7&#45;&gt;Node16 -->
<g id="edge19" class="edge">
<title>Node7&#45;&gt;Node16</title>
<path fill="none" stroke="#191970" d="M82.6769,-302.2078C98.98,-308.3371 119.2483,-315.1125 138,-319 300.4946,-352.6876 345.3789,-346.4407 511,-336 521.0376,-335.3672 531.5251,-334.4358 541.9318,-333.3417"/>
<polygon fill="#191970" stroke="#191970" points="83.6768,-298.8422 73.0873,-298.5066 81.1562,-305.3726 83.6768,-298.8422"/>
</g>
<!-- Node8 -->
<g id="node8" class="node">
<title>Node8</title>
<g id="a_node8"><a xlink:href="classgko_1_1EnablePolymorphicObject.html" target="_top" xlink:title="This mixin inherits from (a subclass of) PolymorphicObject and provides a base implementation of a ne...">
<polygon fill="#ffffff" stroke="#000000" points="935,-246 935,-276 1140,-276 1140,-246 935,-246"/>
<text text-anchor="start" x="943" y="-264" font-family="Helvetica,sans-Serif" font-size="10.00" fill="#000000">gko::EnablePolymorphicObject</text>
<text text-anchor="middle" x="1037.5" y="-253" font-family="Helvetica,sans-Serif" font-size="10.00" fill="#000000">&lt; ConcreteObject, PolymorphicBase &gt;</text>
</a>
</g>
</g>
<!-- Node8&#45;&gt;Node3 -->
<g id="edge7" class="edge">
<title>Node8&#45;&gt;Node3</title>
<path fill="none" stroke="#ffa500" stroke-dasharray="5,2" d="M1134.8647,-244.4227C1142.6852,-243.2184 1150.47,-242.0617 1158,-241 1225.4599,-231.4881 1302.2174,-222.69 1358.9124,-216.5744"/>
<polygon fill="#ffa500" stroke="#ffa500" points="1134.2965,-240.9689 1124.9562,-245.9699 1135.3765,-247.8851 1134.2965,-240.9689"/>
<text text-anchor="start" x="1169" y="-255" font-family="Helvetica,sans-Serif" font-size="10.00" fill="#000000"> &lt; Csr&lt; ValueType, IndexType</text>
<text text-anchor="middle" x="1242.5" y="-244" font-family="Helvetica,sans-Serif" font-size="10.00" fill="#000000"> &gt;, BatchLinOp &gt;</text>
</g>
<!-- Node15 -->
<g id="node15" class="node">
<title>Node15</title>
<g id="a_node15"><a xlink:href="classgko_1_1EnablePolymorphicObject.html" target="_top" xlink:title=" ">
<polygon fill="#ffffff" stroke="#000000" points="1345,-260.5 1345,-301.5 1539,-301.5 1539,-260.5 1345,-260.5"/>
<text text-anchor="start" x="1353" y="-289.5" font-family="Helvetica,sans-Serif" font-size="10.00" fill="#000000">gko::EnablePolymorphicObject</text>
<text text-anchor="start" x="1353" y="-278.5" font-family="Helvetica,sans-Serif" font-size="10.00" fill="#000000">&lt; ConcreteBatchLinOp, Polymorphic</text>
<text text-anchor="middle" x="1442" y="-267.5" font-family="Helvetica,sans-Serif" font-size="10.00" fill="#000000">Base &gt;</text>
</a>
</g>
</g>
<!-- Node8&#45;&gt;Node15 -->
<g id="edge21" class="edge">
<title>Node8&#45;&gt;Node15</title>
<path fill="none" stroke="#ffa500" stroke-dasharray="5,2" d="M1150.1751,-266.5711C1211.3224,-269.5944 1286.1591,-273.2946 1344.7378,-276.191"/>
<polygon fill="#ffa500" stroke="#ffa500" points="1150.256,-263.0709 1140.0953,-266.0727 1149.9103,-270.0624 1150.256,-263.0709"/>
<text text-anchor="start" x="1184" y="-289" font-family="Helvetica,sans-Serif" font-size="10.00" fill="#000000"> &lt; ConcreteBatchLinOp,</text>
<text text-anchor="middle" x="1242.5" y="-278" font-family="Helvetica,sans-Serif" font-size="10.00" fill="#000000"> PolymorphicBase &gt;</text>
</g>
<!-- Node9&#45;&gt;Node8 -->
<g id="edge8" class="edge">
<title>Node9&#45;&gt;Node8</title>
<path fill="none" stroke="#191970" d="M740.4636,-261C801.0615,-261 875.5974,-261 934.8448,-261"/>
<polygon fill="#191970" stroke="#191970" points="740.0922,-257.5001 730.0922,-261 740.0921,-264.5001 740.0922,-257.5001"/>
</g>
<!-- Node10 -->
<g id="node10" class="node">
<title>Node10</title>
<g id="a_node10"><a xlink:href="classgko_1_1EnablePolymorphicAssignment.html" target="_top" xlink:title=" ">
<polygon fill="#ffffff" stroke="#000000" points="1346,-75 1346,-105 1538,-105 1538,-75 1346,-75"/>
<text text-anchor="start" x="1354" y="-93" font-family="Helvetica,sans-Serif" font-size="10.00" fill="#000000">gko::EnablePolymorphicAssignment</text>
<text text-anchor="middle" x="1442" y="-82" font-family="Helvetica,sans-Serif" font-size="10.00" fill="#000000">&lt; Csr&lt; ValueType, IndexType &gt; &gt;</text>
</a>
</g>
</g>
<!-- Node10&#45;&gt;Node2 -->
<g id="edge11" class="edge">
<title>Node10&#45;&gt;Node2</title>
<path fill="none" stroke="#191970" d="M1548.1091,-93.4404C1656.7526,-96.963 1824.2385,-102.3934 1929.882,-105.8187"/>
<polygon fill="#191970" stroke="#191970" points="1548.218,-89.9422 1538.1098,-93.1162 1547.9911,-96.9385 1548.218,-89.9422"/>
</g>
<!-- Node11 -->
<g id="node11" class="node">
<title>Node11</title>
<g id="a_node11"><a xlink:href="classgko_1_1ConvertibleTo.html" target="_top" xlink:title=" ">
<polygon fill="#ffffff" stroke="#000000" points="946.5,-46 946.5,-76 1128.5,-76 1128.5,-46 946.5,-46"/>
<text text-anchor="start" x="954.5" y="-64" font-family="Helvetica,sans-Serif" font-size="10.00" fill="#000000">gko::ConvertibleTo</text>
<text text-anchor="middle" x="1037.5" y="-53" font-family="Helvetica,sans-Serif" font-size="10.00" fill="#000000">&lt; Csr&lt; ValueType, IndexType &gt; &gt;</text>
</a>
</g>
</g>
<!-- Node11&#45;&gt;Node10 -->
<g id="edge12" class="edge">
<title>Node11&#45;&gt;Node10</title>
<path fill="none" stroke="#191970" d="M1138.5434,-68.2441C1201.9266,-72.7883 1283.1758,-78.6133 1345.6484,-83.0922"/>
<polygon fill="#191970" stroke="#191970" points="1138.7545,-64.7504 1128.5298,-67.5262 1138.2538,-71.7325 1138.7545,-64.7504"/>
</g>
<!-- Node12 -->
<g id="node12" class="node">
<title>Node12</title>
<g id="a_node12"><a xlink:href="classgko_1_1ConvertibleTo.html" target="_top" xlink:title="ConvertibleTo interface is used to mark that the implementer can be converted to the object of Result...">
<polygon fill="#ffffff" stroke="#000000" points="576,-74 576,-104 683,-104 683,-74 576,-74"/>
<text text-anchor="start" x="584" y="-92" font-family="Helvetica,sans-Serif" font-size="10.00" fill="#000000">gko::ConvertibleTo</text>
<text text-anchor="middle" x="629.5" y="-81" font-family="Helvetica,sans-Serif" font-size="10.00" fill="#000000">&lt; ResultType &gt;</text>
</a>
</g>
</g>
<!-- Node12&#45;&gt;Node11 -->
<g id="edge13" class="edge">
<title>Node12&#45;&gt;Node11</title>
<path fill="none" stroke="#ffa500" stroke-dasharray="5,2" d="M693.3888,-84.6155C761.2881,-79.9557 869.2513,-72.5465 946.1304,-67.2705"/>
<polygon fill="#ffa500" stroke="#ffa500" points="692.9953,-81.1342 683.2584,-85.3107 693.4746,-88.1177 692.9953,-81.1342"/>
<text text-anchor="middle" x="832.5" y="-84" font-family="Helvetica,sans-Serif" font-size="10.00" fill="#000000"> &lt; Csr&lt; ValueType, IndexType &gt; &gt;</text>
</g>
<!-- Node13 -->
<g id="node13" class="node">
<title>Node13</title>
<g id="a_node13"><a xlink:href="classgko_1_1EnablePolymorphicAssignment.html" target="_top" xlink:title="This mixin is used to enable a default PolymorphicObject::copy_from() implementation for objects that...">
<polygon fill="#ffffff" stroke="#000000" points="941.5,-95 941.5,-125 1133.5,-125 1133.5,-95 941.5,-95"/>
<text text-anchor="start" x="949.5" y="-113" font-family="Helvetica,sans-Serif" font-size="10.00" fill="#000000">gko::EnablePolymorphicAssignment</text>
<text text-anchor="middle" x="1037.5" y="-102" font-family="Helvetica,sans-Serif" font-size="10.00" fill="#000000">&lt; ConcreteType, ResultType &gt;</text>
</a>
</g>
</g>
<!-- Node12&#45;&gt;Node13 -->
<g id="edge15" class="edge">
<title>Node12&#45;&gt;Node13</title>
<path fill="none" stroke="#191970" d="M693.5961,-92.2991C760.1199,-95.7231 864.9394,-101.1182 941.3838,-105.0528"/>
<polygon fill="#191970" stroke="#191970" points="693.4251,-88.7857 683.2584,-91.767 693.0653,-95.7765 693.4251,-88.7857"/>
</g>
<!-- Node18 -->
<g id="node18" class="node">
<title>Node18</title>
<g id="a_node18"><a xlink:href="classgko_1_1ConvertibleTo.html" target="_top" xlink:title=" ">
<polygon fill="#ffffff" stroke="#000000" points="968.5,-144 968.5,-174 1106.5,-174 1106.5,-144 968.5,-144"/>
<text text-anchor="start" x="976.5" y="-162" font-family="Helvetica,sans-Serif" font-size="10.00" fill="#000000">gko::ConvertibleTo</text>
<text text-anchor="middle" x="1037.5" y="-151" font-family="Helvetica,sans-Serif" font-size="10.00" fill="#000000">&lt; ConcreteBatchLinOp &gt;</text>
</a>
</g>
</g>
<!-- Node12&#45;&gt;Node18 -->
<g id="edge24" class="edge">
<title>Node12&#45;&gt;Node18</title>
<path fill="none" stroke="#ffa500" stroke-dasharray="5,2" d="M693.2724,-103.1106C710.9586,-106.8449 730.1924,-110.74 748,-114 823.0487,-127.7391 909.5417,-140.8272 968.3017,-149.3103"/>
<polygon fill="#ffa500" stroke="#ffa500" points="693.57,-99.5956 683.0603,-100.9366 692.1123,-106.4422 693.57,-99.5956"/>
<text text-anchor="middle" x="832.5" y="-145" font-family="Helvetica,sans-Serif" font-size="10.00" fill="#000000"> &lt; ConcreteBatchLinOp &gt;</text>
</g>
<!-- Node19 -->
<g id="node19" class="node">
<title>Node19</title>
<g id="a_node19"><a xlink:href="classgko_1_1ConvertibleTo.html" target="_top" xlink:title=" ">
<polygon fill="#ffffff" stroke="#000000" points="1159,-.5 1159,-41.5 1326,-41.5 1326,-.5 1159,-.5"/>
<text text-anchor="start" x="1167" y="-29.5" font-family="Helvetica,sans-Serif" font-size="10.00" fill="#000000">gko::ConvertibleTo</text>
<text text-anchor="start" x="1167" y="-18.5" font-family="Helvetica,sans-Serif" font-size="10.00" fill="#000000">&lt; Csr&lt; next_precision</text>
<text text-anchor="middle" x="1242.5" y="-7.5" font-family="Helvetica,sans-Serif" font-size="10.00" fill="#000000">&lt; ValueType &gt;, IndexType &gt; &gt;</text>
</a>
</g>
</g>
<!-- Node12&#45;&gt;Node19 -->
<g id="edge27" class="edge">
<title>Node12&#45;&gt;Node19</title>
<path fill="none" stroke="#ffa500" stroke-dasharray="5,2" d="M670.0803,-69.9279C692.529,-60.3215 721.228,-49.5581 748,-44 890.0017,-14.519 1059.6632,-13.9107 1158.8167,-16.9204"/>
<polygon fill="#ffa500" stroke="#ffa500" points="668.6269,-66.7434 660.8658,-73.9556 671.4306,-73.1574 668.6269,-66.7434"/>
<text text-anchor="start" x="757" y="-58" font-family="Helvetica,sans-Serif" font-size="10.00" fill="#000000"> &lt; Csr&lt; next_precision</text>
<text text-anchor="middle" x="832.5" y="-47" font-family="Helvetica,sans-Serif" font-size="10.00" fill="#000000">&lt; ValueType &gt;, IndexType &gt; &gt;</text>
</g>
<!-- Node13&#45;&gt;Node10 -->
<g id="edge14" class="edge">
<title>Node13&#45;&gt;Node10</title>
<path fill="none" stroke="#ffa500" stroke-dasharray="5,2" d="M1144.1213,-98.973C1148.809,-98.6173 1153.4514,-98.2902 1158,-98 1220.5158,-94.0117 1290.8992,-92.0117 1345.9583,-91.0088"/>
<polygon fill="#ffa500" stroke="#ffa500" points="1143.4964,-95.5115 1133.8056,-99.794 1144.0518,-102.4895 1143.4964,-95.5115"/>
<text text-anchor="middle" x="1242.5" y="-101" font-family="Helvetica,sans-Serif" font-size="10.00" fill="#000000"> &lt; Csr&lt; ValueType, IndexType &gt; &gt;</text>
</g>
<!-- Node17 -->
<g id="node17" class="node">
<title>Node17</title>
<g id="a_node17"><a xlink:href="classgko_1_1EnablePolymorphicAssignment.html" target="_top" xlink:title=" ">
<polygon fill="#ffffff" stroke="#000000" points="1346,-138 1346,-168 1538,-168 1538,-138 1346,-138"/>
<text text-anchor="start" x="1354" y="-156" font-family="Helvetica,sans-Serif" font-size="10.00" fill="#000000">gko::EnablePolymorphicAssignment</text>
<text text-anchor="middle" x="1442" y="-145" font-family="Helvetica,sans-Serif" font-size="10.00" fill="#000000">&lt; ConcreteBatchLinOp &gt;</text>
</a>
</g>
</g>
<!-- Node13&#45;&gt;Node17 -->
<g id="edge25" class="edge">
<title>Node13&#45;&gt;Node17</title>
<path fill="none" stroke="#ffa500" stroke-dasharray="5,2" d="M1143.7606,-120.7724C1198.5127,-126.3836 1266.3478,-133.4294 1327,-140 1333.0925,-140.66 1339.3657,-141.3473 1345.69,-142.046"/>
<polygon fill="#ffa500" stroke="#ffa500" points="1143.9986,-117.2786 1133.6941,-119.7418 1143.2856,-124.2422 1143.9986,-117.2786"/>
<text text-anchor="middle" x="1242.5" y="-143" font-family="Helvetica,sans-Serif" font-size="10.00" fill="#000000"> &lt; ConcreteBatchLinOp &gt;</text>
</g>
<!-- Node14 -->
<g id="node14" class="node">
<title>Node14</title>
<g id="a_node14"><a xlink:href="classgko_1_1batch_1_1EnableBatchLinOp.html" target="_top" xlink:title="The EnableBatchLinOp mixin can be used to provide sensible default implementations of the majority of...">
<polygon fill="#ffffff" stroke="#000000" points="1576,-156.5 1576,-197.5 1725,-197.5 1725,-156.5 1576,-156.5"/>
<text text-anchor="start" x="1584" y="-185.5" font-family="Helvetica,sans-Serif" font-size="10.00" fill="#000000">gko::batch::EnableBatchLin</text>
<text text-anchor="start" x="1584" y="-174.5" font-family="Helvetica,sans-Serif" font-size="10.00" fill="#000000">Op&lt; ConcreteBatchLinOp,</text>
<text text-anchor="middle" x="1650.5" y="-163.5" font-family="Helvetica,sans-Serif" font-size="10.00" fill="#000000"> PolymorphicBase &gt;</text>
</a>
</g>
</g>
<!-- Node14&#45;&gt;Node2 -->
<g id="edge16" class="edge">
<title>Node14&#45;&gt;Node2</title>
<path fill="none" stroke="#ffa500" stroke-dasharray="5,2" d="M1735.1711,-168.7964C1786.6199,-163.0381 1853.4575,-154.1787 1912,-142 1934.959,-137.2238 1960.032,-130.3104 1980.9747,-124.044"/>
<polygon fill="#ffa500" stroke="#ffa500" points="1734.6501,-165.3325 1725.0936,-169.9068 1735.4168,-172.2904 1734.6501,-165.3325"/>
<text text-anchor="middle" x="1827.5" y="-171" font-family="Helvetica,sans-Serif" font-size="10.00" fill="#000000"> &lt; Csr&lt; ValueType, IndexType &gt; &gt;</text>
</g>
<!-- Node15&#45;&gt;Node14 -->
<g id="edge17" class="edge">
<title>Node15&#45;&gt;Node14</title>
<path fill="none" stroke="#191970" d="M1499.9978,-256.235C1512.9299,-250.4514 1526.5082,-244.1725 1539,-238 1564.7166,-225.2928 1593.0677,-209.7611 1614.7459,-197.5503"/>
<polygon fill="#191970" stroke="#191970" points="1498.4421,-253.0962 1490.7201,-260.3503 1501.2804,-259.4949 1498.4421,-253.0962"/>
</g>
<!-- Node16&#45;&gt;Node15 -->
<g id="edge18" class="edge">
<title>Node16&#45;&gt;Node15</title>
<path fill="none" stroke="#191970" d="M727.351,-322.6083C862.5471,-323.8257 1113.9339,-322.4701 1327,-301 1332.8472,-300.4108 1338.8454,-299.6984 1344.8854,-298.8984"/>
<polygon fill="#191970" stroke="#191970" points="727.0573,-319.1053 717.0239,-322.5082 726.9894,-326.105 727.0573,-319.1053"/>
</g>
<!-- Node17&#45;&gt;Node14 -->
<g id="edge22" class="edge">
<title>Node17&#45;&gt;Node14</title>
<path fill="none" stroke="#191970" d="M1548.1668,-165.2206C1557.5315,-166.2986 1566.8756,-167.3742 1575.8966,-168.4126"/>
<polygon fill="#191970" stroke="#191970" points="1548.346,-161.7182 1538.0113,-164.0517 1547.5454,-168.6723 1548.346,-161.7182"/>
</g>
<!-- Node18&#45;&gt;Node17 -->
<g id="edge23" class="edge">
<title>Node18&#45;&gt;Node17</title>
<path fill="none" stroke="#191970" d="M1116.8688,-157.8227C1182.5364,-156.8487 1276.0367,-155.4618 1345.9268,-154.4251"/>
<polygon fill="#191970" stroke="#191970" points="1116.5234,-154.3274 1106.5764,-157.9754 1116.6273,-161.3266 1116.5234,-154.3274"/>
</g>
<!-- Node19&#45;&gt;Node1 -->
<g id="edge26" class="edge">
<title>Node19&#45;&gt;Node1</title>
<path fill="none" stroke="#191970" d="M1336.2785,-26.8965C1398.8962,-30.3347 1483.0986,-34 1557.5,-34 1557.5,-34 1557.5,-34 2028,-34 2072.6572,-34 2122.2459,-38.2133 2162.8312,-42.7723"/>
<polygon fill="#191970" stroke="#191970" points="1336.2061,-23.3872 1326.0268,-26.3251 1335.8165,-30.3763 1336.2061,-23.3872"/>
</g>
</g>
</svg>
        <g id="navigator" transform="translate(0 0)" fill="#404254">
                <rect fill="#f2f5e9" fill-opacity="0.5" stroke="#606060" stroke-width=".5" x="0" y="0" width="60" height="60"/>
                <use id="zoomplus" xlink:href="#zoomPlus" x="17" y="9" onmousedown="handleZoom(evt,'in')"/>
                <use id="zoomminus" xlink:href="#zoomMin" x="42" y="9" onmousedown="handleZoom(evt,'out')"/>
                <use id="reset" xlink:href="#resetDef" x="30" y="36" onmousedown="handleReset()"/>
                <g id="arrowUp" xlink:href="#dirArrow" transform="translate(30 24)" onmousedown="handlePan(0,-1)">
                  <use xlink:href="#rim" fill="#404040">
                        <set attributeName="fill" to="#808080" begin="arrowUp.mouseover" end="arrowUp.mouseout"/>
                  </use>
                  <path fill="none" stroke="white" stroke-width="1.5" d="M0,-3.0v7 M-2.5,-0.5L0,-3.0L2.5,-0.5"/>
                </g>
                <g id="arrowRight" xlink:href="#dirArrow" transform="rotate(90) translate(36 -43)" onmousedown="handlePan(1,0)">
                  <use xlink:href="#rim" fill="#404040">
                        <set attributeName="fill" to="#808080" begin="arrowRight.mouseover" end="arrowRight.mouseout"/>
                  </use>
                  <path fill="none" stroke="white" stroke-width="1.5" d="M0,-3.0v7 M-2.5,-0.5L0,-3.0L2.5,-0.5"/>
                </g>
                <g id="arrowDown" xlink:href="#dirArrow" transform="rotate(180) translate(-30 -48)" onmousedown="handlePan(0,1)">
                  <use xlink:href="#rim" fill="#404040">
                        <set attributeName="fill" to="#808080" begin="arrowDown.mouseover" end="arrowDown.mouseout"/>
                  </use>
                  <path fill="none" stroke="white" stroke-width="1.5" d="M0,-3.0v7 M-2.5,-0.5L0,-3.0L2.5,-0.5"/>
                </g>
                <g id="arrowLeft" xlink:href="#dirArrow" transform="rotate(270) translate(-36 17)" onmousedown="handlePan(-1,0)">
                  <use xlink:href="#rim" fill="#404040">
                        <set attributeName="fill" to="#808080" begin="arrowLeft.mouseover" end="arrowLeft.mouseout"/>
                  </use>
                  <path fill="none" stroke="white" stroke-width="1.5" d="M0,-3.0v7 M-2.5,-0.5L0,-3.0L2.5,-0.5"/>
                </g>
        </g>
        <svg viewBox="0 0 15 15" width="100%" height="30px" preserveAspectRatio="xMaxYMin meet">
         <g id="arrow_out" transform="scale(0.3 0.3)">
          <a xlink:href="classgko_1_1batch_1_1matrix_1_1Csr__coll__graph_org.svg" target="_base">
           <rect id="button" ry="5" rx="5" y="6" x="6" height="38" width="38"
                fill="#f2f5e9" fill-opacity="0.5" stroke="#606060" stroke-width="1.0"/>
           <path id="arrow"
             d="M 11.500037,31.436501 C 11.940474,20.09759 22.043105,11.32322 32.158766,21.979434 L 37.068811,17.246167 C 37.068811,17.246167 37.088388,32 37.088388,32 L 22.160133,31.978069 C 22.160133,31.978069 26.997745,27.140456 26.997745,27.140456 C 18.528582,18.264221 13.291696,25.230495 11.500037,31.436501 z"
             style="fill:#404040;"/>
          </a>
         </g>
        </svg>
</svg>
