<?xml version="1.0" encoding="UTF-8" standalone="no"?>
<!DOCTYPE svg PUBLIC "-//W3C//DTD SVG 1.1//EN"
 "http://www.w3.org/Graphics/SVG/1.1/DTD/svg11.dtd">
<!-- Generated by graphviz version 2.40.1 (20161225.0304)
 -->
<!-- Title: gko::deferred_factory_parameter&lt; FactoryType &gt; Pages: 1 -->
<!--zoomable 220 -->
<svg id="main" version="1.1" xmlns="http://www.w3.org/2000/svg" xmlns:xlink="http://www.w3.org/1999/xlink" xml:space="preserve" onload="init(evt)">
<style type="text/css"><![CDATA[
.edge:hover path { stroke: red; }
.edge:hover polygon { stroke: red; fill: red; }
]]></style>
<script type="text/javascript"><![CDATA[
var edges = document.getElementsByTagName('g');
if (edges && edges.length) {
  for (var i=0;i<edges.length;i++) {
    if (edges[i].id.substr(0,4)=='edge') {
      edges[i].setAttribute('class','edge');
    }
  }
}
]]></script>
        <defs>
                <circle id="rim" cx="0" cy="0" r="7"/>
                <circle id="rim2" cx="0" cy="0" r="3.5"/>
                <g id="zoomPlus">
                        <use xlink:href="#rim" fill="#404040">
                                <set attributeName="fill" to="#808080" begin="zoomplus.mouseover" end="zoomplus.mouseout"/>
                        </use>
                        <path d="M-4,0h8M0,-4v8" fill="none" stroke="white" stroke-width="1.5" pointer-events="none"/>
                </g>
                <g id="zoomMin">
                        <use xlink:href="#rim" fill="#404040">
                                <set attributeName="fill" to="#808080" begin="zoomminus.mouseover" end="zoomminus.mouseout"/>
                        </use>
                        <path d="M-4,0h8" fill="none" stroke="white" stroke-width="1.5" pointer-events="none"/>
                </g>
                <g id="dirArrow">
                        <path fill="none" stroke="white" stroke-width="1.5" d="M0,-3.0v7 M-2.5,-0.5L0,-3.0L2.5,-0.5"/>
                </g>
               <g id="resetDef">
                       <use xlink:href="#rim2" fill="#404040">
                               <set attributeName="fill" to="#808080" begin="reset.mouseover" end="reset.mouseout"/>
                       </use>
               </g>
        </defs>

<script type="text/javascript">
var viewWidth = 506;
var viewHeight = 220;
var sectionId = 'dynsection-0';
</script>
<script xlink:href="svgpan.js"/>
<svg id="graph" class="graph">
<g id="viewport">
<title>gko::deferred_factory_parameter&lt; FactoryType &gt;</title>
<polygon fill="#ffffff" stroke="transparent" points="-4,4 -4,-215.5 502,-215.5 502,4 -4,4"/>
<!-- Node1 -->
<g id="node1" class="node">
<title>Node1</title>
<g id="a_node1"><a xlink:title="Represents a factory parameter of factory type that can either initialized by a pre&#45;existing factory ...">
<polygon fill="#bfbfbf" stroke="#000000" points="0,-85.5 0,-115.5 153,-115.5 153,-85.5 0,-85.5"/>
<text text-anchor="start" x="8" y="-103.5" font-family="Helvetica,sans-Serif" font-size="10.00" fill="#000000">gko::deferred_factory</text>
<text text-anchor="middle" x="76.5" y="-92.5" font-family="Helvetica,sans-Serif" font-size="10.00" fill="#000000">_parameter&lt; FactoryType &gt;</text>
</a>
</g>
</g>
<!-- Node2 -->
<g id="node2" class="node">
<title>Node2</title>
<g id="a_node2"><a xlink:href="classgko_1_1deferred__factory__parameter.html" target="_top" xlink:title=" ">
<polygon fill="#ffffff" stroke="#000000" points="337,-170 337,-211 477,-211 477,-170 337,-170"/>
<text text-anchor="start" x="345" y="-199" font-family="Helvetica,sans-Serif" font-size="10.00" fill="#000000">gko::deferred_factory</text>
<text text-anchor="start" x="345" y="-188" font-family="Helvetica,sans-Serif" font-size="10.00" fill="#000000">_parameter&lt; typename</text>
<text text-anchor="middle" x="407" y="-177" font-family="Helvetica,sans-Serif" font-size="10.00" fill="#000000"> u_solver_type::Factory &gt;</text>
</a>
</g>
</g>
<!-- Node1&#45;&gt;Node2 -->
<g id="edge1" class="edge">
<title>Node1&#45;&gt;Node2</title>
<path fill="none" stroke="#ffa500" stroke-dasharray="5,2" d="M112.5834,-120.3626C129.8356,-129.1556 151.0378,-138.964 171,-145.5 225.4055,-163.3134 289.3094,-174.9608 336.8885,-181.9336"/>
<polygon fill="#ffa500" stroke="#ffa500" points="113.9254,-117.1156 103.4382,-115.6094 110.6971,-123.3268 113.9254,-117.1156"/>
<text text-anchor="start" x="180" y="-189.5" font-family="Helvetica,sans-Serif" font-size="10.00" fill="#000000"> &lt; typename u_solver</text>
<text text-anchor="middle" x="234.5" y="-178.5" font-family="Helvetica,sans-Serif" font-size="10.00" fill="#000000">_type::Factory &gt;</text>
</g>
<!-- Node3 -->
<g id="node3" class="node">
<title>Node3</title>
<g id="a_node3"><a xlink:href="classgko_1_1deferred__factory__parameter.html" target="_top" xlink:title=" ">
<polygon fill="#ffffff" stroke="#000000" points="339.5,-110 339.5,-151 474.5,-151 474.5,-110 339.5,-110"/>
<text text-anchor="start" x="347.5" y="-139" font-family="Helvetica,sans-Serif" font-size="10.00" fill="#000000">gko::deferred_factory</text>
<text text-anchor="start" x="347.5" y="-128" font-family="Helvetica,sans-Serif" font-size="10.00" fill="#000000">_parameter&lt; gko::batch</text>
<text text-anchor="middle" x="407" y="-117" font-family="Helvetica,sans-Serif" font-size="10.00" fill="#000000">::BatchLinOpFactory &gt;</text>
</a>
</g>
</g>
<!-- Node1&#45;&gt;Node3 -->
<g id="edge2" class="edge">
<title>Node1&#45;&gt;Node3</title>
<path fill="none" stroke="#ffa500" stroke-dasharray="5,2" d="M163.2518,-108.3746C218.3181,-113.373 288.5334,-119.7466 339.4457,-124.368"/>
<polygon fill="#ffa500" stroke="#ffa500" points="163.4295,-104.8764 153.1541,-107.458 162.7967,-111.8478 163.4295,-104.8764"/>
<text text-anchor="start" x="171" y="-133.5" font-family="Helvetica,sans-Serif" font-size="10.00" fill="#000000"> &lt; gko::batch::BatchLinOp</text>
<text text-anchor="middle" x="234.5" y="-122.5" font-family="Helvetica,sans-Serif" font-size="10.00" fill="#000000">Factory &gt;</text>
</g>
<!-- Node4 -->
<g id="node4" class="node">
<title>Node4</title>
<g id="a_node4"><a xlink:href="classgko_1_1deferred__factory__parameter.html" target="_top" xlink:title=" ">
<polygon fill="#ffffff" stroke="#000000" points="338.5,-50 338.5,-91 475.5,-91 475.5,-50 338.5,-50"/>
<text text-anchor="start" x="346.5" y="-79" font-family="Helvetica,sans-Serif" font-size="10.00" fill="#000000">gko::deferred_factory</text>
<text text-anchor="start" x="346.5" y="-68" font-family="Helvetica,sans-Serif" font-size="10.00" fill="#000000">_parameter&lt; typename</text>
<text text-anchor="middle" x="407" y="-57" font-family="Helvetica,sans-Serif" font-size="10.00" fill="#000000"> l_solver_type::Factory &gt;</text>
</a>
</g>
</g>
<!-- Node1&#45;&gt;Node4 -->
<g id="edge3" class="edge">
<title>Node1&#45;&gt;Node4</title>
<path fill="none" stroke="#ffa500" stroke-dasharray="5,2" d="M160.3217,-83.9109C163.9234,-83.3952 167.4944,-82.921 171,-82.5 227.109,-75.7622 291.1657,-72.8009 338.3714,-71.5029"/>
<polygon fill="#ffa500" stroke="#ffa500" points="159.4776,-80.499 150.1186,-85.4648 160.5316,-87.4192 159.4776,-80.499"/>
<text text-anchor="start" x="181.5" y="-96.5" font-family="Helvetica,sans-Serif" font-size="10.00" fill="#000000"> &lt; typename l_solver</text>
<text text-anchor="middle" x="234.5" y="-85.5" font-family="Helvetica,sans-Serif" font-size="10.00" fill="#000000">_type::Factory &gt;</text>
</g>
<!-- Node5 -->
<g id="node5" class="node">
<title>Node5</title>
<g id="a_node5"><a xlink:href="classgko_1_1deferred__factory__parameter.html" target="_top" xlink:title=" ">
<polygon fill="#ffffff" stroke="#000000" points="316,-.5 316,-30.5 498,-30.5 498,-.5 316,-.5"/>
<text text-anchor="start" x="324" y="-18.5" font-family="Helvetica,sans-Serif" font-size="10.00" fill="#000000">gko::deferred_factory</text>
<text text-anchor="middle" x="407" y="-7.5" font-family="Helvetica,sans-Serif" font-size="10.00" fill="#000000">_parameter&lt; gko::LinOpFactory &gt;</text>
</a>
</g>
</g>
<!-- Node1&#45;&gt;Node5 -->
<g id="edge4" class="edge">
<title>Node1&#45;&gt;Node5</title>
<path fill="none" stroke="#ffa500" stroke-dasharray="5,2" d="M113.7836,-80.9148C130.8367,-72.6469 151.5404,-63.5531 171,-57.5 217.7913,-42.945 271.4674,-32.8938 315.7955,-26.2825"/>
<polygon fill="#ffa500" stroke="#ffa500" points="112.1288,-77.8285 104.7163,-85.3986 115.2317,-84.1033 112.1288,-77.8285"/>
<text text-anchor="middle" x="234.5" y="-60.5" font-family="Helvetica,sans-Serif" font-size="10.00" fill="#000000"> &lt; gko::LinOpFactory &gt;</text>
</g>
</g>
</svg>
        <g id="navigator" transform="translate(0 0)" fill="#404254">
                <rect fill="#f2f5e9" fill-opacity="0.5" stroke="#606060" stroke-width=".5" x="0" y="0" width="60" height="60"/>
                <use id="zoomplus" xlink:href="#zoomPlus" x="17" y="9" onmousedown="handleZoom(evt,'in')"/>
                <use id="zoomminus" xlink:href="#zoomMin" x="42" y="9" onmousedown="handleZoom(evt,'out')"/>
                <use id="reset" xlink:href="#resetDef" x="30" y="36" onmousedown="handleReset()"/>
                <g id="arrowUp" xlink:href="#dirArrow" transform="translate(30 24)" onmousedown="handlePan(0,-1)">
                  <use xlink:href="#rim" fill="#404040">
                        <set attributeName="fill" to="#808080" begin="arrowUp.mouseover" end="arrowUp.mouseout"/>
                  </use>
                  <path fill="none" stroke="white" stroke-width="1.5" d="M0,-3.0v7 M-2.5,-0.5L0,-3.0L2.5,-0.5"/>
                </g>
                <g id="arrowRight" xlink:href="#dirArrow" transform="rotate(90) translate(36 -43)" onmousedown="handlePan(1,0)">
                  <use xlink:href="#rim" fill="#404040">
                        <set attributeName="fill" to="#808080" begin="arrowRight.mouseover" end="arrowRight.mouseout"/>
                  </use>
                  <path fill="none" stroke="white" stroke-width="1.5" d="M0,-3.0v7 M-2.5,-0.5L0,-3.0L2.5,-0.5"/>
                </g>
                <g id="arrowDown" xlink:href="#dirArrow" transform="rotate(180) translate(-30 -48)" onmousedown="handlePan(0,1)">
                  <use xlink:href="#rim" fill="#404040">
                        <set attributeName="fill" to="#808080" begin="arrowDown.mouseover" end="arrowDown.mouseout"/>
                  </use>
                  <path fill="none" stroke="white" stroke-width="1.5" d="M0,-3.0v7 M-2.5,-0.5L0,-3.0L2.5,-0.5"/>
                </g>
                <g id="arrowLeft" xlink:href="#dirArrow" transform="rotate(270) translate(-36 17)" onmousedown="handlePan(-1,0)">
                  <use xlink:href="#rim" fill="#404040">
                        <set attributeName="fill" to="#808080" begin="arrowLeft.mouseover" end="arrowLeft.mouseout"/>
                  </use>
                  <path fill="none" stroke="white" stroke-width="1.5" d="M0,-3.0v7 M-2.5,-0.5L0,-3.0L2.5,-0.5"/>
                </g>
        </g>
        <svg viewBox="0 0 15 15" width="100%" height="30px" preserveAspectRatio="xMaxYMin meet">
         <g id="arrow_out" transform="scale(0.3 0.3)">
          <a xlink:href="classgko_1_1deferred__factory__parameter__inherit__graph_org.svg" target="_base">
           <rect id="button" ry="5" rx="5" y="6" x="6" height="38" width="38"
                fill="#f2f5e9" fill-opacity="0.5" stroke="#606060" stroke-width="1.0"/>
           <path id="arrow"
             d="M 11.500037,31.436501 C 11.940474,20.09759 22.043105,11.32322 32.158766,21.979434 L 37.068811,17.246167 C 37.068811,17.246167 37.088388,32 37.088388,32 L 22.160133,31.978069 C 22.160133,31.978069 26.997745,27.140456 26.997745,27.140456 C 18.528582,18.264221 13.291696,25.230495 11.500037,31.436501 z"
             style="fill:#404040;"/>
          </a>
         </g>
        </svg>
</svg>
