<?xml version="1.0" encoding="UTF-8" standalone="no"?>
<!DOCTYPE svg PUBLIC "-//W3C//DTD SVG 1.1//EN"
 "http://www.w3.org/Graphics/SVG/1.1/DTD/svg11.dtd">
<!-- Generated by graphviz version 2.40.1 (20161225.0304)
 -->
<!-- Title: gko::solver::IterativeBase Pages: 1 -->
<svg width="1293pt" height="660pt"
 viewBox="0.00 0.00 1293.00 660.04" xmlns="http://www.w3.org/2000/svg" xmlns:xlink="http://www.w3.org/1999/xlink">
<g id="graph0" class="graph" transform="scale(1 1) rotate(0) translate(4 656.0424)">
<title>gko::solver::IterativeBase</title>
<polygon fill="#ffffff" stroke="transparent" points="-4,4 -4,-656.0424 1289,-656.0424 1289,4 -4,4"/>
<!-- Node1 -->
<g id="node1" class="node">
<title>Node1</title>
<g id="a_node1"><a xlink:title="A LinOp implementing this interface stores a stopping criterion factory.">
<polygon fill="#bfbfbf" stroke="#000000" points="0,-319.0424 0,-338.0424 142,-338.0424 142,-319.0424 0,-319.0424"/>
<text text-anchor="middle" x="71" y="-326.0424" font-family="Helvetica,sans-Serif" font-size="10.00" fill="#000000">gko::solver::IterativeBase</text>
</a>
</g>
</g>
<!-- Node2 -->
<g id="node2" class="node">
<title>Node2</title>
<g id="a_node2"><a xlink:href="classgko_1_1solver_1_1EnableIterativeBase.html" target="_top" xlink:title=" ">
<polygon fill="#ffffff" stroke="#000000" points="522,-454.5424 522,-484.5424 678,-484.5424 678,-454.5424 522,-454.5424"/>
<text text-anchor="start" x="530" y="-472.5424" font-family="Helvetica,sans-Serif" font-size="10.00" fill="#000000">gko::solver::EnableIterative</text>
<text text-anchor="middle" x="600" y="-461.5424" font-family="Helvetica,sans-Serif" font-size="10.00" fill="#000000">Base&lt; Bicg&lt; ValueType &gt; &gt;</text>
</a>
</g>
</g>
<!-- Node1&#45;&gt;Node2 -->
<g id="edge1" class="edge">
<title>Node1&#45;&gt;Node2</title>
<path fill="none" stroke="#191970" d="M91.6315,-344.2608C112.7753,-359.8888 146.9966,-383.8745 179,-400.5424 250.5175,-437.7898 268.8477,-451.1465 348,-466.5424 405.4432,-477.7157 471.65,-478.0326 521.7832,-475.7874"/>
<polygon fill="#191970" stroke="#191970" points="93.5206,-341.3032 83.4151,-338.1204 89.3301,-346.9104 93.5206,-341.3032"/>
</g>
<!-- Node5 -->
<g id="node5" class="node">
<title>Node5</title>
<g id="a_node5"><a xlink:href="classgko_1_1solver_1_1EnableIterativeBase.html" target="_top" xlink:title=" ">
<polygon fill="#ffffff" stroke="#000000" points="511.5,-395.5424 511.5,-425.5424 688.5,-425.5424 688.5,-395.5424 511.5,-395.5424"/>
<text text-anchor="start" x="519.5" y="-413.5424" font-family="Helvetica,sans-Serif" font-size="10.00" fill="#000000">gko::solver::EnableIterative</text>
<text text-anchor="middle" x="600" y="-402.5424" font-family="Helvetica,sans-Serif" font-size="10.00" fill="#000000">Base&lt; Bicgstab&lt; ValueType &gt; &gt;</text>
</a>
</g>
</g>
<!-- Node1&#45;&gt;Node5 -->
<g id="edge4" class="edge">
<title>Node1&#45;&gt;Node5</title>
<path fill="none" stroke="#191970" d="M105.7887,-341.7131C157.6445,-360.5946 258.6968,-394.5143 348,-407.5424 401.7938,-415.3901 462.7325,-416.3267 511.2084,-415.2122"/>
<polygon fill="#191970" stroke="#191970" points="106.6851,-338.3137 96.0915,-338.1479 104.2696,-344.8837 106.6851,-338.3137"/>
</g>
<!-- Node8 -->
<g id="node8" class="node">
<title>Node8</title>
<g id="a_node8"><a xlink:href="classgko_1_1solver_1_1EnableIterativeBase.html" target="_top" xlink:title=" ">
<polygon fill="#ffffff" stroke="#000000" points="510,-572.5424 510,-602.5424 690,-602.5424 690,-572.5424 510,-572.5424"/>
<text text-anchor="start" x="518" y="-590.5424" font-family="Helvetica,sans-Serif" font-size="10.00" fill="#000000">gko::solver::EnableIterative</text>
<text text-anchor="middle" x="600" y="-579.5424" font-family="Helvetica,sans-Serif" font-size="10.00" fill="#000000">Base&lt; CbGmres&lt; ValueType &gt; &gt;</text>
</a>
</g>
</g>
<!-- Node1&#45;&gt;Node8 -->
<g id="edge7" class="edge">
<title>Node1&#45;&gt;Node8</title>
<path fill="none" stroke="#191970" d="M79.0558,-347.2627C94.3004,-380.8679 130.2595,-452.0586 179,-496.5424 241.5496,-553.6292 265.8654,-563.9204 348,-584.5424 400.5145,-597.7275 461.144,-598.8663 509.7717,-596.5241"/>
<polygon fill="#191970" stroke="#191970" points="82.2512,-345.8346 74.9985,-338.1114 75.852,-348.6718 82.2512,-345.8346"/>
</g>
<!-- Node11 -->
<g id="node11" class="node">
<title>Node11</title>
<g id="a_node11"><a xlink:href="classgko_1_1solver_1_1EnableIterativeBase.html" target="_top" xlink:title=" ">
<polygon fill="#ffffff" stroke="#000000" points="524.5,-523.5424 524.5,-553.5424 675.5,-553.5424 675.5,-523.5424 524.5,-523.5424"/>
<text text-anchor="start" x="532.5" y="-541.5424" font-family="Helvetica,sans-Serif" font-size="10.00" fill="#000000">gko::solver::EnableIterative</text>
<text text-anchor="middle" x="600" y="-530.5424" font-family="Helvetica,sans-Serif" font-size="10.00" fill="#000000">Base&lt; Cg&lt; ValueType &gt; &gt;</text>
</a>
</g>
</g>
<!-- Node1&#45;&gt;Node11 -->
<g id="edge10" class="edge">
<title>Node1&#45;&gt;Node11</title>
<path fill="none" stroke="#191970" d="M83.8866,-346.3412C102.5729,-371.1582 139.3218,-416.384 179,-445.5424 245.9644,-494.7526 267.4171,-505.238 348,-525.5424 405.9858,-540.153 473.7802,-542.8787 524.4375,-542.2398"/>
<polygon fill="#191970" stroke="#191970" points="86.6124,-344.1409 77.8474,-338.189 80.9877,-348.3078 86.6124,-344.1409"/>
</g>
<!-- Node14 -->
<g id="node14" class="node">
<title>Node14</title>
<g id="a_node14"><a xlink:href="classgko_1_1solver_1_1EnableIterativeBase.html" target="_top" xlink:title=" ">
<polygon fill="#ffffff" stroke="#000000" points="523.5,-169.5424 523.5,-199.5424 676.5,-199.5424 676.5,-169.5424 523.5,-169.5424"/>
<text text-anchor="start" x="531.5" y="-187.5424" font-family="Helvetica,sans-Serif" font-size="10.00" fill="#000000">gko::solver::EnableIterative</text>
<text text-anchor="middle" x="600" y="-176.5424" font-family="Helvetica,sans-Serif" font-size="10.00" fill="#000000">Base&lt; Cgs&lt; ValueType &gt; &gt;</text>
</a>
</g>
</g>
<!-- Node1&#45;&gt;Node14 -->
<g id="edge13" class="edge">
<title>Node1&#45;&gt;Node14</title>
<path fill="none" stroke="#191970" d="M89.6173,-312.2453C110.284,-294.8182 145.1992,-267.2993 179,-249.5424 249.4296,-212.5429 269.7263,-204.7732 348,-190.5424 406.1264,-179.9745 473.0266,-178.8839 523.2826,-180.2138"/>
<polygon fill="#191970" stroke="#191970" points="87.2521,-309.6627 81.9267,-318.8219 91.8015,-314.9828 87.2521,-309.6627"/>
</g>
<!-- Node17 -->
<g id="node17" class="node">
<title>Node17</title>
<g id="a_node17"><a xlink:href="classgko_1_1solver_1_1EnableIterativeBase.html" target="_top" xlink:title=" ">
<polygon fill="#ffffff" stroke="#000000" points="524,-120.5424 524,-150.5424 676,-150.5424 676,-120.5424 524,-120.5424"/>
<text text-anchor="start" x="532" y="-138.5424" font-family="Helvetica,sans-Serif" font-size="10.00" fill="#000000">gko::solver::EnableIterative</text>
<text text-anchor="middle" x="600" y="-127.5424" font-family="Helvetica,sans-Serif" font-size="10.00" fill="#000000">Base&lt; Fcg&lt; ValueType &gt; &gt;</text>
</a>
</g>
</g>
<!-- Node1&#45;&gt;Node17 -->
<g id="edge16" class="edge">
<title>Node1&#45;&gt;Node17</title>
<path fill="none" stroke="#191970" d="M80.7327,-310.1831C97.1837,-280.8319 133.2165,-223.3187 179,-190.5424 280.8906,-117.599 433.1099,-117.2797 523.8835,-125.2971"/>
<polygon fill="#191970" stroke="#191970" points="77.6485,-308.5282 75.9185,-318.9809 83.7892,-311.8885 77.6485,-308.5282"/>
</g>
<!-- Node20 -->
<g id="node20" class="node">
<title>Node20</title>
<g id="a_node20"><a xlink:href="classgko_1_1solver_1_1EnableIterativeBase.html" target="_top" xlink:title=" ">
<polygon fill="#ffffff" stroke="#000000" points="516.5,-621.5424 516.5,-651.5424 683.5,-651.5424 683.5,-621.5424 516.5,-621.5424"/>
<text text-anchor="start" x="524.5" y="-639.5424" font-family="Helvetica,sans-Serif" font-size="10.00" fill="#000000">gko::solver::EnableIterative</text>
<text text-anchor="middle" x="600" y="-628.5424" font-family="Helvetica,sans-Serif" font-size="10.00" fill="#000000">Base&lt; Gmres&lt; ValueType &gt; &gt;</text>
</a>
</g>
</g>
<!-- Node1&#45;&gt;Node20 -->
<g id="edge19" class="edge">
<title>Node1&#45;&gt;Node20</title>
<path fill="none" stroke="#191970" d="M74.9466,-348.0628C84.6933,-391.2405 113.9816,-495.4489 179,-551.5424 273.1435,-632.7629 423.2645,-644.2384 516.4962,-642.3679"/>
<polygon fill="#191970" stroke="#191970" points="78.3598,-347.2867 72.8349,-338.2465 71.5164,-348.759 78.3598,-347.2867"/>
</g>
<!-- Node23 -->
<g id="node23" class="node">
<title>Node23</title>
<g id="a_node23"><a xlink:href="classgko_1_1solver_1_1EnableIterativeBase.html" target="_top" xlink:title=" ">
<polygon fill="#ffffff" stroke="#000000" points="524.5,-220.5424 524.5,-250.5424 675.5,-250.5424 675.5,-220.5424 524.5,-220.5424"/>
<text text-anchor="start" x="532.5" y="-238.5424" font-family="Helvetica,sans-Serif" font-size="10.00" fill="#000000">gko::solver::EnableIterative</text>
<text text-anchor="middle" x="600" y="-227.5424" font-family="Helvetica,sans-Serif" font-size="10.00" fill="#000000">Base&lt; Idr&lt; ValueType &gt; &gt;</text>
</a>
</g>
</g>
<!-- Node1&#45;&gt;Node23 -->
<g id="edge22" class="edge">
<title>Node1&#45;&gt;Node23</title>
<path fill="none" stroke="#191970" d="M106.7656,-315.5644C158.9827,-297.2582 259.5115,-264.428 348,-249.5424 406.658,-239.6749 473.9663,-236.3356 524.2568,-235.3758"/>
<polygon fill="#191970" stroke="#191970" points="105.5498,-312.2818 97.2877,-318.9142 107.8825,-318.8817 105.5498,-312.2818"/>
</g>
<!-- Node26 -->
<g id="node26" class="node">
<title>Node26</title>
<g id="a_node26"><a xlink:href="classgko_1_1solver_1_1EnableIterativeBase.html" target="_top" xlink:title=" ">
<polygon fill="#ffffff" stroke="#000000" points="524.5,-8.5424 524.5,-38.5424 675.5,-38.5424 675.5,-8.5424 524.5,-8.5424"/>
<text text-anchor="start" x="532.5" y="-26.5424" font-family="Helvetica,sans-Serif" font-size="10.00" fill="#000000">gko::solver::EnableIterative</text>
<text text-anchor="middle" x="600" y="-15.5424" font-family="Helvetica,sans-Serif" font-size="10.00" fill="#000000">Base&lt; Ir&lt; ValueType &gt; &gt;</text>
</a>
</g>
</g>
<!-- Node1&#45;&gt;Node26 -->
<g id="edge25" class="edge">
<title>Node1&#45;&gt;Node26</title>
<path fill="none" stroke="#191970" d="M72.3506,-308.6967C76.9652,-258.031 96.7714,-123.6048 179,-62.5424 279.4781,12.072 432.862,4.5972 524.1099,-8.7187"/>
<polygon fill="#191970" stroke="#191970" points="68.84,-308.689 71.5265,-318.9376 75.8175,-309.2506 68.84,-308.689"/>
</g>
<!-- Node28 -->
<g id="node28" class="node">
<title>Node28</title>
<g id="a_node28"><a xlink:href="classgko_1_1solver_1_1EnableIterativeBase.html" target="_top" xlink:title=" ">
<polygon fill="#ffffff" stroke="#000000" points="524.5,-66.5424 524.5,-96.5424 675.5,-96.5424 675.5,-66.5424 524.5,-66.5424"/>
<text text-anchor="start" x="532.5" y="-84.5424" font-family="Helvetica,sans-Serif" font-size="10.00" fill="#000000">gko::solver::EnableIterative</text>
<text text-anchor="middle" x="600" y="-73.5424" font-family="Helvetica,sans-Serif" font-size="10.00" fill="#000000">Base&lt; Multigrid &gt;</text>
</a>
</g>
</g>
<!-- Node1&#45;&gt;Node28 -->
<g id="edge27" class="edge">
<title>Node1&#45;&gt;Node28</title>
<path fill="none" stroke="#191970" d="M76.1574,-309.2413C87.7423,-269.5598 119.5771,-178.3724 179,-128.5424 275.6454,-47.4988 431.7439,-53.9475 524.2636,-67.0346"/>
<polygon fill="#191970" stroke="#191970" points="72.7537,-308.4167 73.4208,-318.9905 79.4932,-310.3085 72.7537,-308.4167"/>
</g>
<!-- Node30 -->
<g id="node30" class="node">
<title>Node30</title>
<g id="a_node30"><a xlink:href="classgko_1_1solver_1_1EnableIterativeBase.html" target="_top" xlink:title="A LinOp deriving from this CRTP class stores a stopping criterion factory and allows applying with a ...">
<polygon fill="#ffffff" stroke="#000000" points="179,-313.5424 179,-343.5424 330,-343.5424 330,-313.5424 179,-313.5424"/>
<text text-anchor="start" x="187" y="-331.5424" font-family="Helvetica,sans-Serif" font-size="10.00" fill="#000000">gko::solver::EnableIterative</text>
<text text-anchor="middle" x="254.5" y="-320.5424" font-family="Helvetica,sans-Serif" font-size="10.00" fill="#000000">Base&lt; DerivedType &gt;</text>
</a>
</g>
</g>
<!-- Node1&#45;&gt;Node30 -->
<g id="edge29" class="edge">
<title>Node1&#45;&gt;Node30</title>
<path fill="none" stroke="#191970" d="M152.4213,-328.5424C161.1876,-328.5424 170.0812,-328.5424 178.7767,-328.5424"/>
<polygon fill="#191970" stroke="#191970" points="152.2086,-325.0425 142.2085,-328.5424 152.2085,-332.0425 152.2086,-325.0425"/>
</g>
<!-- Node3 -->
<g id="node3" class="node">
<title>Node3</title>
<g id="a_node3"><a xlink:href="classgko_1_1solver_1_1EnablePreconditionedIterativeSolver.html" target="_top" xlink:title=" ">
<polygon fill="#ffffff" stroke="#000000" points="899,-384.0424 899,-425.0424 1081,-425.0424 1081,-384.0424 899,-384.0424"/>
<text text-anchor="start" x="907" y="-413.0424" font-family="Helvetica,sans-Serif" font-size="10.00" fill="#000000">gko::solver::EnablePreconditioned</text>
<text text-anchor="start" x="907" y="-402.0424" font-family="Helvetica,sans-Serif" font-size="10.00" fill="#000000">IterativeSolver&lt; ValueType,</text>
<text text-anchor="middle" x="990" y="-391.0424" font-family="Helvetica,sans-Serif" font-size="10.00" fill="#000000"> Bicg&lt; ValueType &gt; &gt;</text>
</a>
</g>
</g>
<!-- Node2&#45;&gt;Node3 -->
<g id="edge2" class="edge">
<title>Node2&#45;&gt;Node3</title>
<path fill="none" stroke="#191970" d="M688.2171,-472.634C757.7232,-473.6978 848.1877,-471.635 881,-455.5424 892.0368,-450.1294 888.7876,-441.3847 899,-434.5424 904.2515,-431.0238 909.9491,-427.8888 915.8445,-425.1011"/>
<polygon fill="#191970" stroke="#191970" points="688.1839,-469.133 678.1236,-472.4557 688.0601,-476.1319 688.1839,-469.133"/>
</g>
<!-- Node4 -->
<g id="node4" class="node">
<title>Node4</title>
<g id="a_node4"><a xlink:href="classgko_1_1solver_1_1Bicg.html" target="_top" xlink:title="BICG or the Biconjugate gradient method is a Krylov subspace solver.">
<polygon fill="#ffffff" stroke="#000000" points="1148.5,-389.5424 1148.5,-419.5424 1254.5,-419.5424 1254.5,-389.5424 1148.5,-389.5424"/>
<text text-anchor="start" x="1156.5" y="-407.5424" font-family="Helvetica,sans-Serif" font-size="10.00" fill="#000000">gko::solver::Bicg&lt;</text>
<text text-anchor="middle" x="1201.5" y="-396.5424" font-family="Helvetica,sans-Serif" font-size="10.00" fill="#000000"> ValueType &gt;</text>
</a>
</g>
</g>
<!-- Node3&#45;&gt;Node4 -->
<g id="edge3" class="edge">
<title>Node3&#45;&gt;Node4</title>
<path fill="none" stroke="#191970" d="M1091.4827,-404.5424C1111.1515,-404.5424 1131.0175,-404.5424 1148.3531,-404.5424"/>
<polygon fill="#191970" stroke="#191970" points="1091.2297,-401.0425 1081.2296,-404.5424 1091.2296,-408.0425 1091.2297,-401.0425"/>
</g>
<!-- Node6 -->
<g id="node6" class="node">
<title>Node6</title>
<g id="a_node6"><a xlink:href="classgko_1_1solver_1_1EnablePreconditionedIterativeSolver.html" target="_top" xlink:title=" ">
<polygon fill="#ffffff" stroke="#000000" points="899,-323.0424 899,-364.0424 1081,-364.0424 1081,-323.0424 899,-323.0424"/>
<text text-anchor="start" x="907" y="-352.0424" font-family="Helvetica,sans-Serif" font-size="10.00" fill="#000000">gko::solver::EnablePreconditioned</text>
<text text-anchor="start" x="907" y="-341.0424" font-family="Helvetica,sans-Serif" font-size="10.00" fill="#000000">IterativeSolver&lt; ValueType,</text>
<text text-anchor="middle" x="990" y="-330.0424" font-family="Helvetica,sans-Serif" font-size="10.00" fill="#000000"> Bicgstab&lt; ValueType &gt; &gt;</text>
</a>
</g>
</g>
<!-- Node5&#45;&gt;Node6 -->
<g id="edge5" class="edge">
<title>Node5&#45;&gt;Node6</title>
<path fill="none" stroke="#191970" d="M698.8358,-413.9792C766.7343,-414.7745 849.9963,-412.1908 881,-396.5424 892.2783,-390.8499 888.6211,-381.7455 899,-374.5424 904.6217,-370.6408 910.7769,-367.1938 917.1505,-364.1558"/>
<polygon fill="#191970" stroke="#191970" points="698.5589,-410.475 688.5098,-413.8313 698.4586,-417.4743 698.5589,-410.475"/>
</g>
<!-- Node7 -->
<g id="node7" class="node">
<title>Node7</title>
<g id="a_node7"><a xlink:href="classgko_1_1solver_1_1Bicgstab.html" target="_top" xlink:title="BiCGSTAB or the Bi&#45;Conjugate Gradient&#45;Stabilized is a Krylov subspace solver.">
<polygon fill="#ffffff" stroke="#000000" points="1142,-328.5424 1142,-358.5424 1261,-358.5424 1261,-328.5424 1142,-328.5424"/>
<text text-anchor="start" x="1150" y="-346.5424" font-family="Helvetica,sans-Serif" font-size="10.00" fill="#000000">gko::solver::Bicgstab</text>
<text text-anchor="middle" x="1201.5" y="-335.5424" font-family="Helvetica,sans-Serif" font-size="10.00" fill="#000000">&lt; ValueType &gt;</text>
</a>
</g>
</g>
<!-- Node6&#45;&gt;Node7 -->
<g id="edge6" class="edge">
<title>Node6&#45;&gt;Node7</title>
<path fill="none" stroke="#191970" d="M1091.4009,-343.5424C1108.7304,-343.5424 1126.216,-343.5424 1141.9918,-343.5424"/>
<polygon fill="#191970" stroke="#191970" points="1091.2297,-340.0425 1081.2296,-343.5424 1091.2296,-347.0425 1091.2297,-340.0425"/>
</g>
<!-- Node9 -->
<g id="node9" class="node">
<title>Node9</title>
<g id="a_node9"><a xlink:href="classgko_1_1solver_1_1EnablePreconditionedIterativeSolver.html" target="_top" xlink:title=" ">
<polygon fill="#ffffff" stroke="#000000" points="899,-504.0424 899,-545.0424 1081,-545.0424 1081,-504.0424 899,-504.0424"/>
<text text-anchor="start" x="907" y="-533.0424" font-family="Helvetica,sans-Serif" font-size="10.00" fill="#000000">gko::solver::EnablePreconditioned</text>
<text text-anchor="start" x="907" y="-522.0424" font-family="Helvetica,sans-Serif" font-size="10.00" fill="#000000">IterativeSolver&lt; ValueType,</text>
<text text-anchor="middle" x="990" y="-511.0424" font-family="Helvetica,sans-Serif" font-size="10.00" fill="#000000"> CbGmres&lt; ValueType &gt; &gt;</text>
</a>
</g>
</g>
<!-- Node8&#45;&gt;Node9 -->
<g id="edge8" class="edge">
<title>Node8&#45;&gt;Node9</title>
<path fill="none" stroke="#191970" d="M700.2591,-602.1584C768.6854,-609.9553 851.9849,-614.4922 881,-595.5424 897.6622,-584.6602 884.274,-567.9287 899,-554.5424 902.8159,-551.0736 907.042,-548.0051 911.5231,-545.2906"/>
<polygon fill="#191970" stroke="#191970" points="700.6195,-598.6767 690.2796,-600.9867 699.8032,-605.629 700.6195,-598.6767"/>
</g>
<!-- Node10 -->
<g id="node10" class="node">
<title>Node10</title>
<g id="a_node10"><a xlink:href="classgko_1_1solver_1_1CbGmres.html" target="_top" xlink:title="CB&#45;GMRES or the compressed basis generalized minimal residual method is an iterative type Krylov subs...">
<polygon fill="#ffffff" stroke="#000000" points="1140.5,-509.5424 1140.5,-539.5424 1262.5,-539.5424 1262.5,-509.5424 1140.5,-509.5424"/>
<text text-anchor="start" x="1148.5" y="-527.5424" font-family="Helvetica,sans-Serif" font-size="10.00" fill="#000000">gko::solver::CbGmres</text>
<text text-anchor="middle" x="1201.5" y="-516.5424" font-family="Helvetica,sans-Serif" font-size="10.00" fill="#000000">&lt; ValueType &gt;</text>
</a>
</g>
</g>
<!-- Node9&#45;&gt;Node10 -->
<g id="edge9" class="edge">
<title>Node9&#45;&gt;Node10</title>
<path fill="none" stroke="#191970" d="M1091.5963,-524.5424C1108.2985,-524.5424 1125.139,-524.5424 1140.448,-524.5424"/>
<polygon fill="#191970" stroke="#191970" points="1091.2297,-521.0425 1081.2296,-524.5424 1091.2296,-528.0425 1091.2297,-521.0425"/>
</g>
<!-- Node12 -->
<g id="node12" class="node">
<title>Node12</title>
<g id="a_node12"><a xlink:href="classgko_1_1solver_1_1EnablePreconditionedIterativeSolver.html" target="_top" xlink:title=" ">
<polygon fill="#ffffff" stroke="#000000" points="899,-444.0424 899,-485.0424 1081,-485.0424 1081,-444.0424 899,-444.0424"/>
<text text-anchor="start" x="907" y="-473.0424" font-family="Helvetica,sans-Serif" font-size="10.00" fill="#000000">gko::solver::EnablePreconditioned</text>
<text text-anchor="start" x="907" y="-462.0424" font-family="Helvetica,sans-Serif" font-size="10.00" fill="#000000">IterativeSolver&lt; ValueType,</text>
<text text-anchor="middle" x="990" y="-451.0424" font-family="Helvetica,sans-Serif" font-size="10.00" fill="#000000"> Cg&lt; ValueType &gt; &gt;</text>
</a>
</g>
</g>
<!-- Node11&#45;&gt;Node12 -->
<g id="edge11" class="edge">
<title>Node11&#45;&gt;Node12</title>
<path fill="none" stroke="#191970" d="M686.0363,-543.3936C756.4192,-545.7688 849.3151,-544.772 881,-525.5424 894.6199,-517.2764 886.6277,-504.58 899,-494.5424 903.3922,-490.979 908.2229,-487.833 913.2981,-485.0563"/>
<polygon fill="#191970" stroke="#191970" points="685.9464,-539.8881 675.8252,-543.0204 685.6907,-546.8834 685.9464,-539.8881"/>
</g>
<!-- Node13 -->
<g id="node13" class="node">
<title>Node13</title>
<g id="a_node13"><a xlink:href="classgko_1_1solver_1_1Cg.html" target="_top" xlink:title="CG or the conjugate gradient method is an iterative type Krylov subspace method which is suitable for...">
<polygon fill="#ffffff" stroke="#000000" points="1121,-455.0424 1121,-474.0424 1282,-474.0424 1282,-455.0424 1121,-455.0424"/>
<text text-anchor="middle" x="1201.5" y="-462.0424" font-family="Helvetica,sans-Serif" font-size="10.00" fill="#000000">gko::solver::Cg&lt; ValueType &gt;</text>
</a>
</g>
</g>
<!-- Node12&#45;&gt;Node13 -->
<g id="edge12" class="edge">
<title>Node12&#45;&gt;Node13</title>
<path fill="none" stroke="#191970" d="M1091.4801,-464.5424C1101.3475,-464.5424 1111.2645,-464.5424 1120.8869,-464.5424"/>
<polygon fill="#191970" stroke="#191970" points="1091.2297,-461.0425 1081.2296,-464.5424 1091.2296,-468.0425 1091.2297,-461.0425"/>
</g>
<!-- Node15 -->
<g id="node15" class="node">
<title>Node15</title>
<g id="a_node15"><a xlink:href="classgko_1_1solver_1_1EnablePreconditionedIterativeSolver.html" target="_top" xlink:title=" ">
<polygon fill="#ffffff" stroke="#000000" points="899,-197.0424 899,-238.0424 1081,-238.0424 1081,-197.0424 899,-197.0424"/>
<text text-anchor="start" x="907" y="-226.0424" font-family="Helvetica,sans-Serif" font-size="10.00" fill="#000000">gko::solver::EnablePreconditioned</text>
<text text-anchor="start" x="907" y="-215.0424" font-family="Helvetica,sans-Serif" font-size="10.00" fill="#000000">IterativeSolver&lt; ValueType,</text>
<text text-anchor="middle" x="990" y="-204.0424" font-family="Helvetica,sans-Serif" font-size="10.00" fill="#000000"> Cgs&lt; ValueType &gt; &gt;</text>
</a>
</g>
</g>
<!-- Node14&#45;&gt;Node15 -->
<g id="edge14" class="edge">
<title>Node14&#45;&gt;Node15</title>
<path fill="none" stroke="#191970" d="M686.7299,-176.7147C742.545,-173.4482 816.455,-172.4338 881,-182.5424 899.7523,-185.4792 919.6825,-191.0956 937.3021,-196.9837"/>
<polygon fill="#191970" stroke="#191970" points="686.2886,-173.2353 676.5249,-177.3487 686.7227,-180.2218 686.2886,-173.2353"/>
</g>
<!-- Node16 -->
<g id="node16" class="node">
<title>Node16</title>
<g id="a_node16"><a xlink:href="classgko_1_1solver_1_1Cgs.html" target="_top" xlink:title="CGS or the conjugate gradient square method is an iterative type Krylov subspace method which is suit...">
<polygon fill="#ffffff" stroke="#000000" points="1118,-208.0424 1118,-227.0424 1285,-227.0424 1285,-208.0424 1118,-208.0424"/>
<text text-anchor="middle" x="1201.5" y="-215.0424" font-family="Helvetica,sans-Serif" font-size="10.00" fill="#000000">gko::solver::Cgs&lt; ValueType &gt;</text>
</a>
</g>
</g>
<!-- Node15&#45;&gt;Node16 -->
<g id="edge15" class="edge">
<title>Node15&#45;&gt;Node16</title>
<path fill="none" stroke="#191970" d="M1091.2715,-217.5424C1100.1937,-217.5424 1109.1586,-217.5424 1117.9114,-217.5424"/>
<polygon fill="#191970" stroke="#191970" points="1091.2297,-214.0425 1081.2296,-217.5424 1091.2296,-221.0425 1091.2297,-214.0425"/>
</g>
<!-- Node18 -->
<g id="node18" class="node">
<title>Node18</title>
<g id="a_node18"><a xlink:href="classgko_1_1solver_1_1EnablePreconditionedIterativeSolver.html" target="_top" xlink:title=" ">
<polygon fill="#ffffff" stroke="#000000" points="899,-130.0424 899,-171.0424 1081,-171.0424 1081,-130.0424 899,-130.0424"/>
<text text-anchor="start" x="907" y="-159.0424" font-family="Helvetica,sans-Serif" font-size="10.00" fill="#000000">gko::solver::EnablePreconditioned</text>
<text text-anchor="start" x="907" y="-148.0424" font-family="Helvetica,sans-Serif" font-size="10.00" fill="#000000">IterativeSolver&lt; ValueType,</text>
<text text-anchor="middle" x="990" y="-137.0424" font-family="Helvetica,sans-Serif" font-size="10.00" fill="#000000"> Fcg&lt; ValueType &gt; &gt;</text>
</a>
</g>
</g>
<!-- Node17&#45;&gt;Node18 -->
<g id="edge17" class="edge">
<title>Node17&#45;&gt;Node18</title>
<path fill="none" stroke="#191970" d="M686.4436,-138.8671C749.5309,-141.2936 834.8666,-144.5757 898.993,-147.0421"/>
<polygon fill="#191970" stroke="#191970" points="686.2489,-135.3571 676.1218,-138.4701 685.9798,-142.352 686.2489,-135.3571"/>
</g>
<!-- Node19 -->
<g id="node19" class="node">
<title>Node19</title>
<g id="a_node19"><a xlink:href="classgko_1_1solver_1_1Fcg.html" target="_top" xlink:title="FCG or the flexible conjugate gradient method is an iterative type Krylov subspace method which is su...">
<polygon fill="#ffffff" stroke="#000000" points="1119,-141.0424 1119,-160.0424 1284,-160.0424 1284,-141.0424 1119,-141.0424"/>
<text text-anchor="middle" x="1201.5" y="-148.0424" font-family="Helvetica,sans-Serif" font-size="10.00" fill="#000000">gko::solver::Fcg&lt; ValueType &gt;</text>
</a>
</g>
</g>
<!-- Node18&#45;&gt;Node19 -->
<g id="edge18" class="edge">
<title>Node18&#45;&gt;Node19</title>
<path fill="none" stroke="#191970" d="M1091.253,-150.5424C1100.5193,-150.5424 1109.8318,-150.5424 1118.9051,-150.5424"/>
<polygon fill="#191970" stroke="#191970" points="1091.2297,-147.0425 1081.2296,-150.5424 1091.2296,-154.0425 1091.2297,-147.0425"/>
</g>
<!-- Node21 -->
<g id="node21" class="node">
<title>Node21</title>
<g id="a_node21"><a xlink:href="classgko_1_1solver_1_1EnablePreconditionedIterativeSolver.html" target="_top" xlink:title=" ">
<polygon fill="#ffffff" stroke="#000000" points="899,-564.0424 899,-605.0424 1081,-605.0424 1081,-564.0424 899,-564.0424"/>
<text text-anchor="start" x="907" y="-593.0424" font-family="Helvetica,sans-Serif" font-size="10.00" fill="#000000">gko::solver::EnablePreconditioned</text>
<text text-anchor="start" x="907" y="-582.0424" font-family="Helvetica,sans-Serif" font-size="10.00" fill="#000000">IterativeSolver&lt; ValueType,</text>
<text text-anchor="middle" x="990" y="-571.0424" font-family="Helvetica,sans-Serif" font-size="10.00" fill="#000000"> Gmres&lt; ValueType &gt; &gt;</text>
</a>
</g>
</g>
<!-- Node20&#45;&gt;Node21 -->
<g id="edge20" class="edge">
<title>Node20&#45;&gt;Node21</title>
<path fill="none" stroke="#191970" d="M693.8014,-637.9223C748.7943,-637.1493 819.3546,-633.4164 881,-621.5424 900.3291,-617.8192 920.9207,-611.4835 938.9417,-605.0969"/>
<polygon fill="#191970" stroke="#191970" points="693.6806,-634.4233 683.7198,-638.0335 693.7579,-641.4229 693.6806,-634.4233"/>
</g>
<!-- Node22 -->
<g id="node22" class="node">
<title>Node22</title>
<g id="a_node22"><a xlink:href="classgko_1_1solver_1_1Gmres.html" target="_top" xlink:title="GMRES or the generalized minimal residual method is an iterative type Krylov subspace method which is...">
<polygon fill="#ffffff" stroke="#000000" points="1147,-569.5424 1147,-599.5424 1256,-599.5424 1256,-569.5424 1147,-569.5424"/>
<text text-anchor="start" x="1155" y="-587.5424" font-family="Helvetica,sans-Serif" font-size="10.00" fill="#000000">gko::solver::Gmres</text>
<text text-anchor="middle" x="1201.5" y="-576.5424" font-family="Helvetica,sans-Serif" font-size="10.00" fill="#000000">&lt; ValueType &gt;</text>
</a>
</g>
</g>
<!-- Node21&#45;&gt;Node22 -->
<g id="edge21" class="edge">
<title>Node21&#45;&gt;Node22</title>
<path fill="none" stroke="#191970" d="M1091.2319,-584.5424C1110.4193,-584.5424 1129.8054,-584.5424 1146.8573,-584.5424"/>
<polygon fill="#191970" stroke="#191970" points="1091.2297,-581.0425 1081.2296,-584.5424 1091.2296,-588.0425 1091.2297,-581.0425"/>
</g>
<!-- Node24 -->
<g id="node24" class="node">
<title>Node24</title>
<g id="a_node24"><a xlink:href="classgko_1_1solver_1_1EnablePreconditionedIterativeSolver.html" target="_top" xlink:title=" ">
<polygon fill="#ffffff" stroke="#000000" points="899,-261.0424 899,-302.0424 1081,-302.0424 1081,-261.0424 899,-261.0424"/>
<text text-anchor="start" x="907" y="-290.0424" font-family="Helvetica,sans-Serif" font-size="10.00" fill="#000000">gko::solver::EnablePreconditioned</text>
<text text-anchor="start" x="907" y="-279.0424" font-family="Helvetica,sans-Serif" font-size="10.00" fill="#000000">IterativeSolver&lt; ValueType,</text>
<text text-anchor="middle" x="990" y="-268.0424" font-family="Helvetica,sans-Serif" font-size="10.00" fill="#000000"> Idr&lt; ValueType &gt; &gt;</text>
</a>
</g>
</g>
<!-- Node23&#45;&gt;Node24 -->
<g id="edge23" class="edge">
<title>Node23&#45;&gt;Node24</title>
<path fill="none" stroke="#191970" d="M685.7811,-230.1032C741.8233,-228.3275 816.3371,-229.3388 881,-241.5424 884.0578,-242.1195 909.533,-251.449 935.0846,-260.9519"/>
<polygon fill="#191970" stroke="#191970" points="685.4084,-226.6141 675.5383,-230.4651 685.6556,-233.6097 685.4084,-226.6141"/>
</g>
<!-- Node25 -->
<g id="node25" class="node">
<title>Node25</title>
<g id="a_node25"><a xlink:href="classgko_1_1solver_1_1Idr.html" target="_top" xlink:title="IDR(s) is an efficient method for solving large nonsymmetric systems of linear equations.">
<polygon fill="#ffffff" stroke="#000000" points="1121,-272.0424 1121,-291.0424 1282,-291.0424 1282,-272.0424 1121,-272.0424"/>
<text text-anchor="middle" x="1201.5" y="-279.0424" font-family="Helvetica,sans-Serif" font-size="10.00" fill="#000000">gko::solver::Idr&lt; ValueType &gt;</text>
</a>
</g>
</g>
<!-- Node24&#45;&gt;Node25 -->
<g id="edge24" class="edge">
<title>Node24&#45;&gt;Node25</title>
<path fill="none" stroke="#191970" d="M1091.4801,-281.5424C1101.3475,-281.5424 1111.2645,-281.5424 1120.8869,-281.5424"/>
<polygon fill="#191970" stroke="#191970" points="1091.2297,-278.0425 1081.2296,-281.5424 1091.2296,-285.0425 1091.2297,-278.0425"/>
</g>
<!-- Node27 -->
<g id="node27" class="node">
<title>Node27</title>
<g id="a_node27"><a xlink:href="classgko_1_1solver_1_1Ir.html" target="_top" xlink:title="Iterative refinement (IR) is an iterative method that uses another coarse method to approximate the e...">
<polygon fill="#ffffff" stroke="#000000" points="912.5,-14.0424 912.5,-33.0424 1067.5,-33.0424 1067.5,-14.0424 912.5,-14.0424"/>
<text text-anchor="middle" x="990" y="-21.0424" font-family="Helvetica,sans-Serif" font-size="10.00" fill="#000000">gko::solver::Ir&lt; ValueType &gt;</text>
</a>
</g>
</g>
<!-- Node26&#45;&gt;Node27 -->
<g id="edge26" class="edge">
<title>Node26&#45;&gt;Node27</title>
<path fill="none" stroke="#191970" d="M685.8546,-23.5424C753.4341,-23.5424 846.8121,-23.5424 912.2164,-23.5424"/>
<polygon fill="#191970" stroke="#191970" points="685.6584,-20.0425 675.6584,-23.5424 685.6583,-27.0425 685.6584,-20.0425"/>
</g>
<!-- Node29 -->
<g id="node29" class="node">
<title>Node29</title>
<g id="a_node29"><a xlink:href="classgko_1_1solver_1_1Multigrid.html" target="_top" xlink:title="Multigrid methods have a hierarchy of many levels, whose corase level is a subset of the fine level,...">
<polygon fill="#ffffff" stroke="#000000" points="930.5,-72.0424 930.5,-91.0424 1049.5,-91.0424 1049.5,-72.0424 930.5,-72.0424"/>
<text text-anchor="middle" x="990" y="-79.0424" font-family="Helvetica,sans-Serif" font-size="10.00" fill="#000000">gko::solver::Multigrid</text>
</a>
</g>
</g>
<!-- Node28&#45;&gt;Node29 -->
<g id="edge28" class="edge">
<title>Node28&#45;&gt;Node29</title>
<path fill="none" stroke="#191970" d="M685.9095,-81.5424C760.0709,-81.5424 865.2708,-81.5424 930.4889,-81.5424"/>
<polygon fill="#191970" stroke="#191970" points="685.6584,-78.0425 675.6584,-81.5424 685.6583,-85.0425 685.6584,-78.0425"/>
</g>
<!-- Node30&#45;&gt;Node2 -->
<g id="edge48" class="edge">
<title>Node30&#45;&gt;Node2</title>
<path fill="none" stroke="#ffa500" stroke-dasharray="5,2" d="M292.511,-348.165C309.3025,-356.4857 329.4138,-365.9848 348,-373.5424 410.1026,-398.7949 431.3712,-390.9021 491,-421.5424 499.7773,-426.0526 500.3225,-429.8431 509,-434.5424 523.1402,-442.1999 539.3174,-448.994 554.0725,-454.511"/>
<polygon fill="#ffa500" stroke="#ffa500" points="294.0638,-345.0284 283.5547,-343.6835 290.9314,-351.2884 294.0638,-345.0284"/>
<text text-anchor="middle" x="419.5" y="-424.5424" font-family="Helvetica,sans-Serif" font-size="10.00" fill="#000000"> &lt; Bicg&lt; ValueType &gt; &gt;</text>
</g>
<!-- Node30&#45;&gt;Node5 -->
<g id="edge39" class="edge">
<title>Node30&#45;&gt;Node5</title>
<path fill="none" stroke="#ffa500" stroke-dasharray="5,2" d="M340.3623,-339.7327C401.9346,-347.9542 476.4797,-358.3859 491,-362.5424 519.4267,-370.6797 550.1064,-384.7034 571.6521,-395.4982"/>
<polygon fill="#ffa500" stroke="#ffa500" points="340.5867,-336.2318 330.2123,-338.3817 339.663,-343.1706 340.5867,-336.2318"/>
<text text-anchor="middle" x="419.5" y="-365.5424" font-family="Helvetica,sans-Serif" font-size="10.00" fill="#000000"> &lt; Bicgstab&lt; ValueType &gt; &gt;</text>
</g>
<!-- Node30&#45;&gt;Node8 -->
<g id="edge42" class="edge">
<title>Node30&#45;&gt;Node8</title>
<path fill="none" stroke="#ffa500" stroke-dasharray="5,2" d="M262.2799,-353.1392C274.751,-388.6931 302.5423,-454.259 348,-491.5424 399.8357,-534.0568 436.6551,-500.2862 491,-539.5424 501.8084,-547.3498 497.94,-556.0957 509,-563.5424 514.1502,-567.01 519.7765,-569.977 525.624,-572.5155"/>
<polygon fill="#ffa500" stroke="#ffa500" points="265.5536,-351.8938 259.0324,-343.5437 258.923,-354.138 265.5536,-351.8938"/>
<text text-anchor="middle" x="419.5" y="-542.5424" font-family="Helvetica,sans-Serif" font-size="10.00" fill="#000000"> &lt; CbGmres&lt; ValueType &gt; &gt;</text>
</g>
<!-- Node30&#45;&gt;Node11 -->
<g id="edge47" class="edge">
<title>Node30&#45;&gt;Node11</title>
<path fill="none" stroke="#ffa500" stroke-dasharray="5,2" d="M270.2306,-352.233C286.9485,-375.7026 315.43,-411.1486 348,-432.5424 404.0334,-469.3483 431.9253,-448.8469 491,-480.5424 499.9307,-485.334 500.3901,-489.1958 509,-494.5424 526.5913,-505.4664 547.2998,-515.6682 564.5143,-523.4926"/>
<polygon fill="#ffa500" stroke="#ffa500" points="273.001,-350.0866 264.4153,-343.8788 267.2558,-354.0857 273.001,-350.0866"/>
<text text-anchor="middle" x="419.5" y="-483.5424" font-family="Helvetica,sans-Serif" font-size="10.00" fill="#000000"> &lt; Cg&lt; ValueType &gt; &gt;</text>
</g>
<!-- Node30&#45;&gt;Node14 -->
<g id="edge46" class="edge">
<title>Node30&#45;&gt;Node14</title>
<path fill="none" stroke="#ffa500" stroke-dasharray="5,2" d="M282.2406,-307.4122C300.2258,-294.4966 324.5881,-278.4239 348,-267.5424 408.1837,-239.5698 432.0283,-254.9871 491,-224.5424 500.0056,-219.8931 499.9625,-215.1294 509,-210.5424 517.3514,-206.3036 526.4953,-202.6634 535.6646,-199.5654"/>
<polygon fill="#ffa500" stroke="#ffa500" points="279.9675,-304.7382 273.9559,-313.4624 284.0959,-310.3913 279.9675,-304.7382"/>
<text text-anchor="middle" x="419.5" y="-270.5424" font-family="Helvetica,sans-Serif" font-size="10.00" fill="#000000"> &lt; Cgs&lt; ValueType &gt; &gt;</text>
</g>
<!-- Node30&#45;&gt;Node17 -->
<g id="edge44" class="edge">
<title>Node30&#45;&gt;Node17</title>
<path fill="none" stroke="#ffa500" stroke-dasharray="5,2" d="M267.3513,-304.5335C282.9642,-277.5945 311.7675,-234.4189 348,-209.5424 402.8191,-171.9046 427.6761,-185.8355 491,-165.5424 499.0305,-162.9689 500.9189,-161.9522 509,-159.5424 519.1774,-156.5075 530.0532,-153.4665 540.6166,-150.6181"/>
<polygon fill="#ffa500" stroke="#ffa500" points="264.2547,-302.8993 262.3883,-313.3284 270.351,-306.3394 264.2547,-302.8993"/>
<text text-anchor="middle" x="419.5" y="-212.5424" font-family="Helvetica,sans-Serif" font-size="10.00" fill="#000000"> &lt; Fcg&lt; ValueType &gt; &gt;</text>
</g>
<!-- Node30&#45;&gt;Node20 -->
<g id="edge41" class="edge">
<title>Node30&#45;&gt;Node20</title>
<path fill="none" stroke="#ffa500" stroke-dasharray="5,2" d="M258.4686,-353.6634C266.9011,-399.0222 290.7355,-495.0279 348,-550.5424 375.2581,-576.9675 471.275,-604.8859 536.5983,-621.5035"/>
<polygon fill="#ffa500" stroke="#ffa500" points="261.9091,-353.0194 256.7282,-343.7778 255.0152,-354.2332 261.9091,-353.0194"/>
<text text-anchor="middle" x="419.5" y="-611.5424" font-family="Helvetica,sans-Serif" font-size="10.00" fill="#000000"> &lt; Gmres&lt; ValueType &gt; &gt;</text>
</g>
<!-- Node30&#45;&gt;Node23 -->
<g id="edge45" class="edge">
<title>Node30&#45;&gt;Node23</title>
<path fill="none" stroke="#ffa500" stroke-dasharray="5,2" d="M339.9161,-312.9818C395.6763,-302.4823 463.1183,-289.0416 491,-280.5424 517.6332,-272.4237 546.7313,-260.2309 568.1588,-250.5841"/>
<polygon fill="#ffa500" stroke="#ffa500" points="339.1933,-309.5562 330.0098,-314.8395 340.4836,-316.4363 339.1933,-309.5562"/>
<text text-anchor="middle" x="419.5" y="-313.5424" font-family="Helvetica,sans-Serif" font-size="10.00" fill="#000000"> &lt; Idr&lt; ValueType &gt; &gt;</text>
</g>
<!-- Node30&#45;&gt;Node26 -->
<g id="edge43" class="edge">
<title>Node30&#45;&gt;Node26</title>
<path fill="none" stroke="#ffa500" stroke-dasharray="5,2" d="M257.146,-303.334C263.5792,-255.0819 284.5,-149.4177 348,-92.5424 374.0173,-69.2394 459.9256,-49.0032 524.2535,-36.577"/>
<polygon fill="#ffa500" stroke="#ffa500" points="253.6408,-303.1619 255.8931,-313.5145 260.5884,-304.017 253.6408,-303.1619"/>
<text text-anchor="middle" x="419.5" y="-95.5424" font-family="Helvetica,sans-Serif" font-size="10.00" fill="#000000"> &lt; Ir&lt; ValueType &gt; &gt;</text>
</g>
<!-- Node30&#45;&gt;Node28 -->
<g id="edge40" class="edge">
<title>Node30&#45;&gt;Node28</title>
<path fill="none" stroke="#ffa500" stroke-dasharray="5,2" d="M260.698,-303.6003C271.6201,-264.915 298.019,-190.7286 348,-150.5424 362.7148,-138.7112 464.8869,-113.0823 534.529,-96.6081"/>
<polygon fill="#ffa500" stroke="#ffa500" points="257.2495,-302.9457 258.0211,-313.5124 264.0074,-304.7708 257.2495,-302.9457"/>
<text text-anchor="middle" x="419.5" y="-153.5424" font-family="Helvetica,sans-Serif" font-size="10.00" fill="#000000"> &lt; Multigrid &gt;</text>
</g>
<!-- Node31 -->
<g id="node31" class="node">
<title>Node31</title>
<g id="a_node31"><a xlink:href="classgko_1_1solver_1_1EnablePreconditionedIterativeSolver.html" target="_top" xlink:title="A LinOp implementing this interface stores a system matrix and stopping criterion factory.">
<polygon fill="#ffffff" stroke="#000000" points="509,-313.5424 509,-343.5424 691,-343.5424 691,-313.5424 509,-313.5424"/>
<text text-anchor="start" x="517" y="-331.5424" font-family="Helvetica,sans-Serif" font-size="10.00" fill="#000000">gko::solver::EnablePreconditioned</text>
<text text-anchor="middle" x="600" y="-320.5424" font-family="Helvetica,sans-Serif" font-size="10.00" fill="#000000">IterativeSolver&lt; DerivedType &gt;</text>
</a>
</g>
</g>
<!-- Node30&#45;&gt;Node31 -->
<g id="edge30" class="edge">
<title>Node30&#45;&gt;Node31</title>
<path fill="none" stroke="#191970" d="M340.3721,-328.5424C391.5829,-328.5424 456.5643,-328.5424 508.7057,-328.5424"/>
<polygon fill="#191970" stroke="#191970" points="340.3215,-325.0425 330.3214,-328.5424 340.3214,-332.0425 340.3215,-325.0425"/>
</g>
<!-- Node31&#45;&gt;Node3 -->
<g id="edge35" class="edge">
<title>Node31&#45;&gt;Node3</title>
<path fill="none" stroke="#ffa500" stroke-dasharray="5,2" d="M680.1103,-345.6517C689.8368,-347.6684 699.6395,-349.6723 709,-351.5424 772.2877,-364.1864 843.7613,-377.6561 898.7867,-387.8524"/>
<polygon fill="#ffa500" stroke="#ffa500" points="680.5273,-342.1635 670.0236,-343.5507 679.0997,-349.0164 680.5273,-342.1635"/>
<text text-anchor="start" x="745" y="-398.5424" font-family="Helvetica,sans-Serif" font-size="10.00" fill="#000000"> &lt; ValueType, Bicg&lt;</text>
<text text-anchor="middle" x="795" y="-387.5424" font-family="Helvetica,sans-Serif" font-size="10.00" fill="#000000"> ValueType &gt; &gt;</text>
</g>
<!-- Node31&#45;&gt;Node6 -->
<g id="edge37" class="edge">
<title>Node31&#45;&gt;Node6</title>
<path fill="none" stroke="#ffa500" stroke-dasharray="5,2" d="M701.3864,-325.8702C754.8674,-325.2269 821.5477,-325.6337 881,-329.5424 886.8066,-329.9241 892.7768,-330.4136 898.7891,-330.9798"/>
<polygon fill="#ffa500" stroke="#ffa500" points="701.168,-322.3727 691.216,-326.007 701.2622,-329.3721 701.168,-322.3727"/>
<text text-anchor="start" x="739" y="-343.5424" font-family="Helvetica,sans-Serif" font-size="10.00" fill="#000000"> &lt; ValueType, Bicgstab</text>
<text text-anchor="middle" x="795" y="-332.5424" font-family="Helvetica,sans-Serif" font-size="10.00" fill="#000000">&lt; ValueType &gt; &gt;</text>
</g>
<!-- Node31&#45;&gt;Node9 -->
<g id="edge34" class="edge">
<title>Node31&#45;&gt;Node9</title>
<path fill="none" stroke="#ffa500" stroke-dasharray="5,2" d="M647.0172,-348.3583C663.2685,-357.4296 680.1134,-369.7398 691,-385.5424 714.3894,-419.4936 679.4695,-447.7726 709,-476.5424 735.5427,-502.4013 827.1849,-514.4319 898.6829,-519.9638"/>
<polygon fill="#ffa500" stroke="#ffa500" points="648.5693,-345.22 638.0914,-343.6503 645.3035,-351.4115 648.5693,-345.22"/>
<text text-anchor="start" x="737.5" y="-531.5424" font-family="Helvetica,sans-Serif" font-size="10.00" fill="#000000"> &lt; ValueType, CbGmres</text>
<text text-anchor="middle" x="795" y="-520.5424" font-family="Helvetica,sans-Serif" font-size="10.00" fill="#000000">&lt; ValueType &gt; &gt;</text>
</g>
<!-- Node31&#45;&gt;Node12 -->
<g id="edge38" class="edge">
<title>Node31&#45;&gt;Node12</title>
<path fill="none" stroke="#ffa500" stroke-dasharray="5,2" d="M639.4296,-348.7458C656.371,-358.5171 675.7386,-371.234 691,-385.5424 700.9882,-394.9068 697.4607,-403.1734 709,-410.5424 765.5225,-446.6373 840.5751,-459.6803 898.896,-463.9462"/>
<polygon fill="#ffa500" stroke="#ffa500" points="640.7426,-345.4693 630.3088,-343.629 637.3176,-351.5742 640.7426,-345.4693"/>
<text text-anchor="middle" x="795" y="-464.5424" font-family="Helvetica,sans-Serif" font-size="10.00" fill="#000000"> &lt; ValueType, Cg&lt; ValueType &gt; &gt;</text>
</g>
<!-- Node31&#45;&gt;Node15 -->
<g id="edge31" class="edge">
<title>Node31&#45;&gt;Node15</title>
<path fill="none" stroke="#ffa500" stroke-dasharray="5,2" d="M636.5992,-308.8636C657.3597,-298.3576 684.0961,-285.9059 709,-277.5424 770.9485,-256.7381 843.0782,-241.5143 898.7476,-231.6075"/>
<polygon fill="#ffa500" stroke="#ffa500" points="634.8056,-305.8501 627.5091,-313.5321 638.0036,-312.0769 634.8056,-305.8501"/>
<text text-anchor="middle" x="795" y="-280.5424" font-family="Helvetica,sans-Serif" font-size="10.00" fill="#000000"> &lt; ValueType, Cgs&lt; ValueType &gt; &gt;</text>
</g>
<!-- Node31&#45;&gt;Node18 -->
<g id="edge33" class="edge">
<title>Node31&#45;&gt;Node18</title>
<path fill="none" stroke="#ffa500" stroke-dasharray="5,2" d="M634.746,-307.9929C653.2495,-295.728 675.3519,-278.8058 691,-259.5424 702.7828,-245.0372 694.5628,-233.4084 709,-221.5424 737.9603,-197.7398 828.4007,-177.5929 898.9438,-164.9096"/>
<polygon fill="#ffa500" stroke="#ffa500" points="632.7736,-305.1001 626.2654,-313.4605 636.5667,-310.9834 632.7736,-305.1001"/>
<text text-anchor="middle" x="795" y="-224.5424" font-family="Helvetica,sans-Serif" font-size="10.00" fill="#000000"> &lt; ValueType, Fcg&lt; ValueType &gt; &gt;</text>
</g>
<!-- Node31&#45;&gt;Node21 -->
<g id="edge36" class="edge">
<title>Node31&#45;&gt;Node21</title>
<path fill="none" stroke="#ffa500" stroke-dasharray="5,2" d="M648.5239,-348.3411C664.5989,-357.3203 680.9367,-369.5738 691,-385.5424 709.8407,-415.4392 684.4081,-518.1646 709,-543.5424 734.7745,-570.1405 827.0897,-579.6402 898.9598,-582.9499"/>
<polygon fill="#ffa500" stroke="#ffa500" points="650.1425,-345.2379 639.6619,-343.6867 646.8877,-351.4352 650.1425,-345.2379"/>
<text text-anchor="start" x="743.5" y="-595.5424" font-family="Helvetica,sans-Serif" font-size="10.00" fill="#000000"> &lt; ValueType, Gmres</text>
<text text-anchor="middle" x="795" y="-584.5424" font-family="Helvetica,sans-Serif" font-size="10.00" fill="#000000">&lt; ValueType &gt; &gt;</text>
</g>
<!-- Node31&#45;&gt;Node24 -->
<g id="edge32" class="edge">
<title>Node31&#45;&gt;Node24</title>
<path fill="none" stroke="#ffa500" stroke-dasharray="5,2" d="M701.3125,-312.5728C703.9002,-312.2192 706.4661,-311.875 709,-311.5424 772.2379,-303.2402 843.7123,-295.6337 898.7506,-290.1573"/>
<polygon fill="#ffa500" stroke="#ffa500" points="700.6651,-309.1291 691.2453,-313.9787 701.6333,-316.0619 700.6651,-309.1291"/>
<text text-anchor="middle" x="795" y="-314.5424" font-family="Helvetica,sans-Serif" font-size="10.00" fill="#000000"> &lt; ValueType, Idr&lt; ValueType &gt; &gt;</text>
</g>
</g>
</svg>
