<?xml version="1.0" encoding="UTF-8" standalone="no"?>
<!DOCTYPE svg PUBLIC "-//W3C//DTD SVG 1.1//EN"
 "http://www.w3.org/Graphics/SVG/1.1/DTD/svg11.dtd">
<!-- Generated by graphviz version 2.40.1 (20161225.0304)
 -->
<!-- Title: gko::batch::EnableBatchLinOp&lt; ConcreteBatchLinOp, PolymorphicBase &gt; Pages: 1 -->
<svg width="2954pt" height="342pt"
 viewBox="0.00 0.00 2954.00 341.50" xmlns="http://www.w3.org/2000/svg" xmlns:xlink="http://www.w3.org/1999/xlink">
<g id="graph0" class="graph" transform="scale(1 1) rotate(0) translate(4 337.5)">
<title>gko::batch::EnableBatchLinOp&lt; ConcreteBatchLinOp, PolymorphicBase &gt;</title>
<polygon fill="#ffffff" stroke="transparent" points="-4,4 -4,-337.5 2950,-337.5 2950,4 -4,4"/>
<!-- Node1 -->
<g id="node1" class="node">
<title>Node1</title>
<g id="a_node1"><a xlink:title="The EnableBatchLinOp mixin can be used to provide sensible default implementations of the majority of...">
<polygon fill="#bfbfbf" stroke="#000000" points="1488,-146 1488,-187 1637,-187 1637,-146 1488,-146"/>
<text text-anchor="start" x="1496" y="-175" font-family="Helvetica,sans-Serif" font-size="10.00" fill="#000000">gko::batch::EnableBatchLin</text>
<text text-anchor="start" x="1496" y="-164" font-family="Helvetica,sans-Serif" font-size="10.00" fill="#000000">Op&lt; ConcreteBatchLinOp,</text>
<text text-anchor="middle" x="1562.5" y="-153" font-family="Helvetica,sans-Serif" font-size="10.00" fill="#000000"> PolymorphicBase &gt;</text>
</a>
</g>
</g>
<!-- Node12 -->
<g id="node12" class="node">
<title>Node12</title>
<g id="a_node12"><a xlink:href="classgko_1_1batch_1_1EnableBatchLinOp.html" target="_top" xlink:title=" ">
<polygon fill="#ffffff" stroke="#000000" points="1862.5,-301.5 1862.5,-331.5 2017.5,-331.5 2017.5,-301.5 1862.5,-301.5"/>
<text text-anchor="start" x="1870.5" y="-319.5" font-family="Helvetica,sans-Serif" font-size="10.00" fill="#000000">gko::batch::EnableBatchLin</text>
<text text-anchor="middle" x="1940" y="-308.5" font-family="Helvetica,sans-Serif" font-size="10.00" fill="#000000">Op&lt; Dense&lt; ValueType &gt; &gt;</text>
</a>
</g>
</g>
<!-- Node1&#45;&gt;Node12 -->
<g id="edge15" class="edge">
<title>Node1&#45;&gt;Node12</title>
<path fill="none" stroke="#ffa500" stroke-dasharray="5,2" d="M1576.9616,-196.2623C1592.2239,-224.1465 1619.0551,-264.4467 1655,-284.5 1718.3738,-319.8557 1801.9665,-325.3255 1862.2132,-323.4792"/>
<polygon fill="#ffa500" stroke="#ffa500" points="1580.0046,-194.5296 1572.2327,-187.329 1573.8179,-197.8046 1580.0046,-194.5296"/>
<text text-anchor="middle" x="1739.5" y="-325.5" font-family="Helvetica,sans-Serif" font-size="10.00" fill="#000000"> &lt; Dense&lt; ValueType &gt; &gt;</text>
</g>
<!-- Node14 -->
<g id="node14" class="node">
<title>Node14</title>
<g id="a_node14"><a xlink:href="classgko_1_1batch_1_1EnableBatchLinOp.html" target="_top" xlink:title=" ">
<polygon fill="#ffffff" stroke="#000000" points="1859,-249.5 1859,-279.5 2021,-279.5 2021,-249.5 1859,-249.5"/>
<text text-anchor="start" x="1867" y="-267.5" font-family="Helvetica,sans-Serif" font-size="10.00" fill="#000000">gko::batch::EnableBatchLin</text>
<text text-anchor="middle" x="1940" y="-256.5" font-family="Helvetica,sans-Serif" font-size="10.00" fill="#000000">Op&lt; Identity&lt; ValueType &gt; &gt;</text>
</a>
</g>
</g>
<!-- Node1&#45;&gt;Node14 -->
<g id="edge17" class="edge">
<title>Node1&#45;&gt;Node14</title>
<path fill="none" stroke="#ffa500" stroke-dasharray="5,2" d="M1588.5697,-194.4369C1605.7337,-210.8867 1629.6538,-230.3947 1655,-240.5 1720.1497,-266.4745 1800.1701,-271.0922 1858.8173,-270.0131"/>
<polygon fill="#ffa500" stroke="#ffa500" points="1590.7532,-191.6742 1581.1781,-187.1388 1585.835,-196.6554 1590.7532,-191.6742"/>
<text text-anchor="middle" x="1739.5" y="-272.5" font-family="Helvetica,sans-Serif" font-size="10.00" fill="#000000"> &lt; Identity&lt; ValueType &gt; &gt;</text>
</g>
<!-- Node16 -->
<g id="node16" class="node">
<title>Node16</title>
<g id="a_node16"><a xlink:href="classgko_1_1batch_1_1EnableBatchLinOp.html" target="_top" xlink:title=" ">
<polygon fill="#ffffff" stroke="#000000" points="1849,-146 1849,-187 2031,-187 2031,-146 1849,-146"/>
<text text-anchor="start" x="1857" y="-175" font-family="Helvetica,sans-Serif" font-size="10.00" fill="#000000">gko::batch::EnableBatchLin</text>
<text text-anchor="start" x="1857" y="-164" font-family="Helvetica,sans-Serif" font-size="10.00" fill="#000000">Op&lt; ConcreteSolver, Polymorphic</text>
<text text-anchor="middle" x="1940" y="-153" font-family="Helvetica,sans-Serif" font-size="10.00" fill="#000000">Base &gt;</text>
</a>
</g>
</g>
<!-- Node1&#45;&gt;Node16 -->
<g id="edge19" class="edge">
<title>Node1&#45;&gt;Node16</title>
<path fill="none" stroke="#ffa500" stroke-dasharray="5,2" d="M1647.2779,-166.5C1707.2482,-166.5 1787.5719,-166.5 1848.9073,-166.5"/>
<polygon fill="#ffa500" stroke="#ffa500" points="1647.0819,-163.0001 1637.0819,-166.5 1647.0818,-170.0001 1647.0819,-163.0001"/>
<text text-anchor="start" x="1661.5" y="-180.5" font-family="Helvetica,sans-Serif" font-size="10.00" fill="#000000"> &lt; ConcreteSolver, Polymorphic</text>
<text text-anchor="middle" x="1739.5" y="-169.5" font-family="Helvetica,sans-Serif" font-size="10.00" fill="#000000">Base &gt;</text>
</g>
<!-- Node22 -->
<g id="node22" class="node">
<title>Node22</title>
<g id="a_node22"><a xlink:href="classgko_1_1batch_1_1EnableBatchLinOp.html" target="_top" xlink:title=" ">
<polygon fill="#ffffff" stroke="#000000" points="2081,-92 2081,-133 2230,-133 2230,-92 2081,-92"/>
<text text-anchor="start" x="2089" y="-121" font-family="Helvetica,sans-Serif" font-size="10.00" fill="#000000">gko::batch::EnableBatchLin</text>
<text text-anchor="start" x="2089" y="-110" font-family="Helvetica,sans-Serif" font-size="10.00" fill="#000000">Op&lt; Bicgstab&lt; ValueType</text>
<text text-anchor="middle" x="2155.5" y="-99" font-family="Helvetica,sans-Serif" font-size="10.00" fill="#000000"> &gt;, BatchLinOp &gt;</text>
</a>
</g>
</g>
<!-- Node1&#45;&gt;Node22 -->
<g id="edge25" class="edge">
<title>Node1&#45;&gt;Node22</title>
<path fill="none" stroke="#ffa500" stroke-dasharray="5,2" d="M1638.6775,-143.6863C1644.1713,-142.4734 1649.6521,-141.3902 1655,-140.5 1804.5884,-115.5994 1982.4213,-111.6242 2080.7439,-111.6246"/>
<polygon fill="#ffa500" stroke="#ffa500" points="1637.7408,-140.3108 1628.8004,-145.9959 1639.3346,-147.127 1637.7408,-140.3108"/>
<text text-anchor="start" x="1680.5" y="-154.5" font-family="Helvetica,sans-Serif" font-size="10.00" fill="#000000"> &lt; Bicgstab&lt; ValueType</text>
<text text-anchor="middle" x="1739.5" y="-143.5" font-family="Helvetica,sans-Serif" font-size="10.00" fill="#000000"> &gt;, BatchLinOp &gt;</text>
</g>
<!-- Node23 -->
<g id="node23" class="node">
<title>Node23</title>
<g id="a_node23"><a xlink:href="classgko_1_1batch_1_1EnableBatchLinOp.html" target="_top" xlink:title=" ">
<polygon fill="#ffffff" stroke="#000000" points="2056,-204.5 2056,-234.5 2255,-234.5 2255,-204.5 2056,-204.5"/>
<text text-anchor="start" x="2064" y="-222.5" font-family="Helvetica,sans-Serif" font-size="10.00" fill="#000000">gko::batch::EnableBatchLin</text>
<text text-anchor="middle" x="2155.5" y="-211.5" font-family="Helvetica,sans-Serif" font-size="10.00" fill="#000000">Op&lt; Cg&lt; ValueType &gt;, BatchLinOp &gt;</text>
</a>
</g>
</g>
<!-- Node1&#45;&gt;Node23 -->
<g id="edge27" class="edge">
<title>Node1&#45;&gt;Node23</title>
<path fill="none" stroke="#ffa500" stroke-dasharray="5,2" d="M1638.6754,-189.3259C1644.1698,-190.5359 1649.6513,-191.6151 1655,-192.5 1792.5775,-215.2605 1954.0336,-220.1057 2055.5642,-220.5462"/>
<polygon fill="#ffa500" stroke="#ffa500" points="1639.3315,-185.885 1628.7977,-187.0204 1637.7404,-192.7018 1639.3315,-185.885"/>
<text text-anchor="start" x="1688" y="-225.5" font-family="Helvetica,sans-Serif" font-size="10.00" fill="#000000"> &lt; Cg&lt; ValueType &gt;,</text>
<text text-anchor="middle" x="1739.5" y="-214.5" font-family="Helvetica,sans-Serif" font-size="10.00" fill="#000000"> BatchLinOp &gt;</text>
</g>
<!-- Node24 -->
<g id="node24" class="node">
<title>Node24</title>
<g id="a_node24"><a xlink:href="classgko_1_1batch_1_1EnableBatchLinOp.html" target="_top" xlink:title=" ">
<polygon fill="#ffffff" stroke="#000000" points="1842,-55.5 1842,-85.5 2038,-85.5 2038,-55.5 1842,-55.5"/>
<text text-anchor="start" x="1850" y="-73.5" font-family="Helvetica,sans-Serif" font-size="10.00" fill="#000000">gko::batch::EnableBatchLin</text>
<text text-anchor="middle" x="1940" y="-62.5" font-family="Helvetica,sans-Serif" font-size="10.00" fill="#000000">Op&lt; Csr&lt; ValueType, IndexType &gt; &gt;</text>
</a>
</g>
</g>
<!-- Node1&#45;&gt;Node24 -->
<g id="edge29" class="edge">
<title>Node1&#45;&gt;Node24</title>
<path fill="none" stroke="#ffa500" stroke-dasharray="5,2" d="M1584.8185,-138.1226C1601.777,-118.9037 1626.919,-94.992 1655,-83.5 1713.7903,-59.4403 1785.2041,-56.2246 1841.8382,-59.0066"/>
<polygon fill="#ffa500" stroke="#ffa500" points="1582.1304,-135.8806 1578.2887,-145.7545 1587.4493,-140.4315 1582.1304,-135.8806"/>
<text text-anchor="middle" x="1739.5" y="-86.5" font-family="Helvetica,sans-Serif" font-size="10.00" fill="#000000"> &lt; Csr&lt; ValueType, IndexType &gt; &gt;</text>
</g>
<!-- Node26 -->
<g id="node26" class="node">
<title>Node26</title>
<g id="a_node26"><a xlink:href="classgko_1_1batch_1_1EnableBatchLinOp.html" target="_top" xlink:title=" ">
<polygon fill="#ffffff" stroke="#000000" points="1844,-2.5 1844,-32.5 2036,-32.5 2036,-2.5 1844,-2.5"/>
<text text-anchor="start" x="1852" y="-20.5" font-family="Helvetica,sans-Serif" font-size="10.00" fill="#000000">gko::batch::EnableBatchLin</text>
<text text-anchor="middle" x="1940" y="-9.5" font-family="Helvetica,sans-Serif" font-size="10.00" fill="#000000">Op&lt; Ell&lt; ValueType, IndexType &gt; &gt;</text>
</a>
</g>
</g>
<!-- Node1&#45;&gt;Node26 -->
<g id="edge31" class="edge">
<title>Node1&#45;&gt;Node26</title>
<path fill="none" stroke="#ffa500" stroke-dasharray="5,2" d="M1576.0359,-136.3198C1590.8873,-107.1149 1617.6768,-64.3029 1655,-43.5 1712.0692,-11.6912 1785.7085,-5.7006 1843.8365,-7.3971"/>
<polygon fill="#ffa500" stroke="#ffa500" points="1572.7205,-135.1314 1571.4591,-145.6509 1579.0052,-138.2141 1572.7205,-135.1314"/>
<text text-anchor="middle" x="1739.5" y="-46.5" font-family="Helvetica,sans-Serif" font-size="10.00" fill="#000000"> &lt; Ell&lt; ValueType, IndexType &gt; &gt;</text>
</g>
<!-- Node2 -->
<g id="node2" class="node">
<title>Node2</title>
<g id="a_node2"><a xlink:href="classgko_1_1EnablePolymorphicObject.html" target="_top" xlink:title=" ">
<polygon fill="#ffffff" stroke="#000000" points="1257,-174 1257,-215 1451,-215 1451,-174 1257,-174"/>
<text text-anchor="start" x="1265" y="-203" font-family="Helvetica,sans-Serif" font-size="10.00" fill="#000000">gko::EnablePolymorphicObject</text>
<text text-anchor="start" x="1265" y="-192" font-family="Helvetica,sans-Serif" font-size="10.00" fill="#000000">&lt; ConcreteBatchLinOp, Polymorphic</text>
<text text-anchor="middle" x="1354" y="-181" font-family="Helvetica,sans-Serif" font-size="10.00" fill="#000000">Base &gt;</text>
</a>
</g>
</g>
<!-- Node2&#45;&gt;Node1 -->
<g id="edge1" class="edge">
<title>Node2&#45;&gt;Node1</title>
<path fill="none" stroke="#191970" d="M1461.3477,-180.084C1470.31,-178.8804 1479.2417,-177.681 1487.8777,-176.5212"/>
<polygon fill="#191970" stroke="#191970" points="1460.6752,-176.6428 1451.2301,-181.4427 1461.607,-183.5805 1460.6752,-176.6428"/>
</g>
<!-- Node3 -->
<g id="node3" class="node">
<title>Node3</title>
<g id="a_node3"><a xlink:href="classgko_1_1EnableAbstractPolymorphicObject.html" target="_top" xlink:title=" ">
<polygon fill="#ffffff" stroke="#000000" points="542,-223 542,-264 717,-264 717,-223 542,-223"/>
<text text-anchor="start" x="550" y="-252" font-family="Helvetica,sans-Serif" font-size="10.00" fill="#000000">gko::EnableAbstractPolymorphic</text>
<text text-anchor="start" x="550" y="-241" font-family="Helvetica,sans-Serif" font-size="10.00" fill="#000000">Object&lt; ConcreteBatchLinOp,</text>
<text text-anchor="middle" x="629.5" y="-230" font-family="Helvetica,sans-Serif" font-size="10.00" fill="#000000"> PolymorphicBase &gt;</text>
</a>
</g>
</g>
<!-- Node3&#45;&gt;Node2 -->
<g id="edge2" class="edge">
<title>Node3&#45;&gt;Node2</title>
<path fill="none" stroke="#191970" d="M727.5322,-244.8899C848.3263,-245.3965 1059.605,-242.3533 1239,-219.5 1248.2219,-218.3252 1257.7984,-216.7783 1267.3123,-215.0286"/>
<polygon fill="#191970" stroke="#191970" points="727.2217,-241.3883 717.2039,-244.8369 727.1858,-248.3882 727.2217,-241.3883"/>
</g>
<!-- Node4 -->
<g id="node4" class="node">
<title>Node4</title>
<g id="a_node4"><a xlink:title=" ">
<polygon fill="#ffffff" stroke="#bfbfbf" points="0,-205 0,-224 101,-224 101,-205 0,-205"/>
<text text-anchor="middle" x="50.5" y="-212" font-family="Helvetica,sans-Serif" font-size="10.00" fill="#000000">PolymorphicBase</text>
</a>
</g>
</g>
<!-- Node4&#45;&gt;Node3 -->
<g id="edge3" class="edge">
<title>Node4&#45;&gt;Node3</title>
<path fill="none" stroke="#191970" d="M82.6542,-227.8188C98.9518,-233.9756 119.2219,-240.7421 138,-244.5 300.6692,-277.0533 345.4341,-268.9372 511,-258.5 521.0376,-257.8672 531.5251,-256.9358 541.9318,-255.8417"/>
<polygon fill="#191970" stroke="#191970" points="83.6578,-224.4539 73.069,-224.0965 81.1237,-230.9791 83.6578,-224.4539"/>
</g>
<!-- Node5 -->
<g id="node5" class="node">
<title>Node5</title>
<g id="a_node5"><a xlink:href="classgko_1_1EnableAbstractPolymorphicObject.html" target="_top" xlink:title="This mixin inherits from (a subclass of) PolymorphicObject and provides a base implementation of a ne...">
<polygon fill="#ffffff" stroke="#000000" points="138,-194 138,-235 336,-235 336,-194 138,-194"/>
<text text-anchor="start" x="146" y="-223" font-family="Helvetica,sans-Serif" font-size="10.00" fill="#000000">gko::EnableAbstractPolymorphic</text>
<text text-anchor="start" x="146" y="-212" font-family="Helvetica,sans-Serif" font-size="10.00" fill="#000000">Object&lt; AbstractObject, Polymorphic</text>
<text text-anchor="middle" x="237" y="-201" font-family="Helvetica,sans-Serif" font-size="10.00" fill="#000000">Base &gt;</text>
</a>
</g>
</g>
<!-- Node4&#45;&gt;Node5 -->
<g id="edge5" class="edge">
<title>Node4&#45;&gt;Node5</title>
<path fill="none" stroke="#191970" d="M111.5248,-214.5C119.9555,-214.5 128.7869,-214.5 137.6923,-214.5"/>
<polygon fill="#191970" stroke="#191970" points="111.462,-211.0001 101.4619,-214.5 111.4619,-218.0001 111.462,-211.0001"/>
</g>
<!-- Node7 -->
<g id="node7" class="node">
<title>Node7</title>
<g id="a_node7"><a xlink:href="classgko_1_1EnableAbstractPolymorphicObject.html" target="_top" xlink:title=" ">
<polygon fill="#ffffff" stroke="#000000" points="529,-163 529,-204 730,-204 730,-163 529,-163"/>
<text text-anchor="start" x="537" y="-192" font-family="Helvetica,sans-Serif" font-size="10.00" fill="#000000">gko::EnableAbstractPolymorphic</text>
<text text-anchor="start" x="537" y="-181" font-family="Helvetica,sans-Serif" font-size="10.00" fill="#000000">Object&lt; ConcreteObject, Polymorphic</text>
<text text-anchor="middle" x="629.5" y="-170" font-family="Helvetica,sans-Serif" font-size="10.00" fill="#000000">Base &gt;</text>
</a>
</g>
</g>
<!-- Node4&#45;&gt;Node7 -->
<g id="edge8" class="edge">
<title>Node4&#45;&gt;Node7</title>
<path fill="none" stroke="#191970" d="M81.5592,-201.1253C98.0027,-194.7485 118.7317,-187.8031 138,-184.5 301.3966,-156.4892 345.2213,-181.8005 511,-182.5 516.8634,-182.5247 522.89,-182.5564 528.9708,-182.593"/>
<polygon fill="#191970" stroke="#191970" points="79.9071,-198.0167 71.9259,-204.9846 82.5103,-204.5146 79.9071,-198.0167"/>
</g>
<!-- Node5&#45;&gt;Node3 -->
<g id="edge4" class="edge">
<title>Node5&#45;&gt;Node3</title>
<path fill="none" stroke="#ffa500" stroke-dasharray="5,2" d="M346.2134,-222.5693C407.9382,-227.1298 484.0683,-232.7547 541.8581,-237.0245"/>
<polygon fill="#ffa500" stroke="#ffa500" points="346.2751,-219.0644 336.0443,-221.8179 345.7592,-226.0453 346.2751,-219.0644"/>
<text text-anchor="start" x="374" y="-247.5" font-family="Helvetica,sans-Serif" font-size="10.00" fill="#000000"> &lt; ConcreteBatchLinOp,</text>
<text text-anchor="middle" x="432.5" y="-236.5" font-family="Helvetica,sans-Serif" font-size="10.00" fill="#000000"> PolymorphicBase &gt;</text>
</g>
<!-- Node5&#45;&gt;Node7 -->
<g id="edge9" class="edge">
<title>Node5&#45;&gt;Node7</title>
<path fill="none" stroke="#ffa500" stroke-dasharray="5,2" d="M346.2792,-198.2937C348.8763,-198.0145 351.4529,-197.7492 354,-197.5 411.7926,-191.8455 476.6426,-188.4067 528.9003,-186.3532"/>
<polygon fill="#ffa500" stroke="#ffa500" points="345.7227,-194.8342 336.1789,-199.4348 346.5087,-201.7899 345.7227,-194.8342"/>
<text text-anchor="start" x="354" y="-211.5" font-family="Helvetica,sans-Serif" font-size="10.00" fill="#000000"> &lt; ConcreteObject, Polymorphic</text>
<text text-anchor="middle" x="432.5" y="-200.5" font-family="Helvetica,sans-Serif" font-size="10.00" fill="#000000">Base &gt;</text>
</g>
<!-- Node6 -->
<g id="node6" class="node">
<title>Node6</title>
<g id="a_node6"><a xlink:href="classgko_1_1EnablePolymorphicObject.html" target="_top" xlink:title="This mixin inherits from (a subclass of) PolymorphicObject and provides a base implementation of a ne...">
<polygon fill="#ffffff" stroke="#000000" points="891,-178.5 891,-208.5 1096,-208.5 1096,-178.5 891,-178.5"/>
<text text-anchor="start" x="899" y="-196.5" font-family="Helvetica,sans-Serif" font-size="10.00" fill="#000000">gko::EnablePolymorphicObject</text>
<text text-anchor="middle" x="993.5" y="-185.5" font-family="Helvetica,sans-Serif" font-size="10.00" fill="#000000">&lt; ConcreteObject, PolymorphicBase &gt;</text>
</a>
</g>
</g>
<!-- Node6&#45;&gt;Node2 -->
<g id="edge6" class="edge">
<title>Node6&#45;&gt;Node2</title>
<path fill="none" stroke="#ffa500" stroke-dasharray="5,2" d="M1106.5026,-193.8135C1154.7728,-193.9474 1210.554,-194.1021 1256.9272,-194.2307"/>
<polygon fill="#ffa500" stroke="#ffa500" points="1106.3321,-190.3131 1096.3224,-193.7852 1106.3126,-197.313 1106.3321,-190.3131"/>
<text text-anchor="start" x="1118" y="-207.5" font-family="Helvetica,sans-Serif" font-size="10.00" fill="#000000"> &lt; ConcreteBatchLinOp,</text>
<text text-anchor="middle" x="1176.5" y="-196.5" font-family="Helvetica,sans-Serif" font-size="10.00" fill="#000000"> PolymorphicBase &gt;</text>
</g>
<!-- Node7&#45;&gt;Node6 -->
<g id="edge7" class="edge">
<title>Node7&#45;&gt;Node6</title>
<path fill="none" stroke="#191970" d="M740.4955,-186.5493C788.3344,-187.8636 843.9354,-189.3911 890.8106,-190.6789"/>
<polygon fill="#191970" stroke="#191970" points="740.5033,-183.0483 730.4109,-186.2723 740.311,-190.0457 740.5033,-183.0483"/>
</g>
<!-- Node8 -->
<g id="node8" class="node">
<title>Node8</title>
<g id="a_node8"><a xlink:href="classgko_1_1EnablePolymorphicAssignment.html" target="_top" xlink:title=" ">
<polygon fill="#ffffff" stroke="#000000" points="1258,-124.5 1258,-154.5 1450,-154.5 1450,-124.5 1258,-124.5"/>
<text text-anchor="start" x="1266" y="-142.5" font-family="Helvetica,sans-Serif" font-size="10.00" fill="#000000">gko::EnablePolymorphicAssignment</text>
<text text-anchor="middle" x="1354" y="-131.5" font-family="Helvetica,sans-Serif" font-size="10.00" fill="#000000">&lt; ConcreteBatchLinOp &gt;</text>
</a>
</g>
</g>
<!-- Node8&#45;&gt;Node1 -->
<g id="edge10" class="edge">
<title>Node8&#45;&gt;Node1</title>
<path fill="none" stroke="#191970" d="M1460.1668,-153.2482C1469.5315,-154.4609 1478.8756,-155.6709 1487.8966,-156.8391"/>
<polygon fill="#191970" stroke="#191970" points="1460.378,-149.7464 1450.0113,-151.9331 1459.479,-156.6885 1460.378,-149.7464"/>
</g>
<!-- Node9 -->
<g id="node9" class="node">
<title>Node9</title>
<g id="a_node9"><a xlink:href="classgko_1_1ConvertibleTo.html" target="_top" xlink:title=" ">
<polygon fill="#ffffff" stroke="#000000" points="924.5,-128.5 924.5,-158.5 1062.5,-158.5 1062.5,-128.5 924.5,-128.5"/>
<text text-anchor="start" x="932.5" y="-146.5" font-family="Helvetica,sans-Serif" font-size="10.00" fill="#000000">gko::ConvertibleTo</text>
<text text-anchor="middle" x="993.5" y="-135.5" font-family="Helvetica,sans-Serif" font-size="10.00" fill="#000000">&lt; ConcreteBatchLinOp &gt;</text>
</a>
</g>
</g>
<!-- Node9&#45;&gt;Node8 -->
<g id="edge11" class="edge">
<title>Node9&#45;&gt;Node8</title>
<path fill="none" stroke="#191970" d="M1072.8893,-142.6191C1127.4182,-142.0141 1200.1081,-141.2075 1257.9096,-140.5662"/>
<polygon fill="#191970" stroke="#191970" points="1072.542,-139.1227 1062.5815,-142.7335 1072.6197,-146.1222 1072.542,-139.1227"/>
</g>
<!-- Node10 -->
<g id="node10" class="node">
<title>Node10</title>
<g id="a_node10"><a xlink:href="classgko_1_1ConvertibleTo.html" target="_top" xlink:title="ConvertibleTo interface is used to mark that the implementer can be converted to the object of Result...">
<polygon fill="#ffffff" stroke="#000000" points="576,-104.5 576,-134.5 683,-134.5 683,-104.5 576,-104.5"/>
<text text-anchor="start" x="584" y="-122.5" font-family="Helvetica,sans-Serif" font-size="10.00" fill="#000000">gko::ConvertibleTo</text>
<text text-anchor="middle" x="629.5" y="-111.5" font-family="Helvetica,sans-Serif" font-size="10.00" fill="#000000">&lt; ResultType &gt;</text>
</a>
</g>
</g>
<!-- Node10&#45;&gt;Node9 -->
<g id="edge12" class="edge">
<title>Node10&#45;&gt;Node9</title>
<path fill="none" stroke="#ffa500" stroke-dasharray="5,2" d="M693.2781,-123.7051C757.9571,-127.9697 857.75,-134.5495 924.3084,-138.9379"/>
<polygon fill="#ffa500" stroke="#ffa500" points="693.4181,-120.2069 683.2095,-123.0413 692.9575,-127.1917 693.4181,-120.2069"/>
<text text-anchor="middle" x="810.5" y="-138.5" font-family="Helvetica,sans-Serif" font-size="10.00" fill="#000000"> &lt; ConcreteBatchLinOp &gt;</text>
</g>
<!-- Node11 -->
<g id="node11" class="node">
<title>Node11</title>
<g id="a_node11"><a xlink:href="classgko_1_1EnablePolymorphicAssignment.html" target="_top" xlink:title="This mixin is used to enable a default PolymorphicObject::copy_from() implementation for objects that...">
<polygon fill="#ffffff" stroke="#000000" points="897.5,-79.5 897.5,-109.5 1089.5,-109.5 1089.5,-79.5 897.5,-79.5"/>
<text text-anchor="start" x="905.5" y="-97.5" font-family="Helvetica,sans-Serif" font-size="10.00" fill="#000000">gko::EnablePolymorphicAssignment</text>
<text text-anchor="middle" x="993.5" y="-86.5" font-family="Helvetica,sans-Serif" font-size="10.00" fill="#000000">&lt; ConcreteType, ResultType &gt;</text>
</a>
</g>
</g>
<!-- Node10&#45;&gt;Node11 -->
<g id="edge14" class="edge">
<title>Node10&#45;&gt;Node11</title>
<path fill="none" stroke="#191970" d="M693.4312,-115.1091C749.8928,-111.2313 833.0261,-105.5216 897.4802,-101.0948"/>
<polygon fill="#191970" stroke="#191970" points="692.9461,-111.6341 683.2095,-115.8112 693.4258,-118.6176 692.9461,-111.6341"/>
</g>
<!-- Node11&#45;&gt;Node8 -->
<g id="edge13" class="edge">
<title>Node11&#45;&gt;Node8</title>
<path fill="none" stroke="#ffa500" stroke-dasharray="5,2" d="M1099.8402,-107.7741C1149.8872,-114.0213 1209.1284,-121.4162 1257.8213,-127.4943"/>
<polygon fill="#ffa500" stroke="#ffa500" points="1099.9904,-104.2658 1089.6338,-106.5001 1099.1233,-111.2118 1099.9904,-104.2658"/>
<text text-anchor="middle" x="1176.5" y="-128.5" font-family="Helvetica,sans-Serif" font-size="10.00" fill="#000000"> &lt; ConcreteBatchLinOp &gt;</text>
</g>
<!-- Node13 -->
<g id="node13" class="node">
<title>Node13</title>
<g id="a_node13"><a xlink:href="classgko_1_1batch_1_1matrix_1_1Dense.html" target="_top" xlink:title="Dense is a batch matrix format which explicitly stores all values of the matrix in each of the batche...">
<polygon fill="#ffffff" stroke="#000000" points="2293.5,-301.5 2293.5,-331.5 2418.5,-331.5 2418.5,-301.5 2293.5,-301.5"/>
<text text-anchor="start" x="2301.5" y="-319.5" font-family="Helvetica,sans-Serif" font-size="10.00" fill="#000000">gko::batch::matrix</text>
<text text-anchor="middle" x="2356" y="-308.5" font-family="Helvetica,sans-Serif" font-size="10.00" fill="#000000">::Dense&lt; ValueType &gt;</text>
</a>
</g>
</g>
<!-- Node12&#45;&gt;Node13 -->
<g id="edge16" class="edge">
<title>Node12&#45;&gt;Node13</title>
<path fill="none" stroke="#191970" d="M2027.7621,-316.5C2107.3043,-316.5 2222.5747,-316.5 2293.2248,-316.5"/>
<polygon fill="#191970" stroke="#191970" points="2027.7584,-313.0001 2017.7584,-316.5 2027.7584,-320.0001 2027.7584,-313.0001"/>
</g>
<!-- Node15 -->
<g id="node15" class="node">
<title>Node15</title>
<g id="a_node15"><a xlink:href="classgko_1_1batch_1_1matrix_1_1Identity.html" target="_top" xlink:title="The batch Identity matrix, which represents a batch of Identity matrices.">
<polygon fill="#ffffff" stroke="#000000" points="2290,-252.5 2290,-282.5 2422,-282.5 2422,-252.5 2290,-252.5"/>
<text text-anchor="start" x="2298" y="-270.5" font-family="Helvetica,sans-Serif" font-size="10.00" fill="#000000">gko::batch::matrix</text>
<text text-anchor="middle" x="2356" y="-259.5" font-family="Helvetica,sans-Serif" font-size="10.00" fill="#000000">::Identity&lt; ValueType &gt;</text>
</a>
</g>
</g>
<!-- Node14&#45;&gt;Node15 -->
<g id="edge18" class="edge">
<title>Node14&#45;&gt;Node15</title>
<path fill="none" stroke="#191970" d="M2031.5093,-265.1599C2109.5735,-265.7229 2219.948,-266.5189 2289.7324,-267.0221"/>
<polygon fill="#191970" stroke="#191970" points="2031.2215,-261.6579 2021.1965,-265.0856 2031.171,-268.6577 2031.2215,-261.6579"/>
</g>
<!-- Node17 -->
<g id="node17" class="node">
<title>Node17</title>
<g id="a_node17"><a xlink:href="classgko_1_1batch_1_1solver_1_1EnableBatchSolver.html" target="_top" xlink:title="This mixin provides apply and common iterative solver functionality to all the batched solvers.">
<polygon fill="#ffffff" stroke="#000000" points="2275.5,-140.5 2275.5,-192.5 2436.5,-192.5 2436.5,-140.5 2275.5,-140.5"/>
<text text-anchor="start" x="2283.5" y="-180.5" font-family="Helvetica,sans-Serif" font-size="10.00" fill="#000000">gko::batch::solver</text>
<text text-anchor="start" x="2283.5" y="-169.5" font-family="Helvetica,sans-Serif" font-size="10.00" fill="#000000">::EnableBatchSolver</text>
<text text-anchor="start" x="2283.5" y="-158.5" font-family="Helvetica,sans-Serif" font-size="10.00" fill="#000000">&lt; ConcreteSolver, ValueType,</text>
<text text-anchor="middle" x="2356" y="-147.5" font-family="Helvetica,sans-Serif" font-size="10.00" fill="#000000"> PolymorphicBase &gt;</text>
</a>
</g>
</g>
<!-- Node16&#45;&gt;Node17 -->
<g id="edge20" class="edge">
<title>Node16&#45;&gt;Node17</title>
<path fill="none" stroke="#191970" d="M2041.4731,-166.5C2113.4014,-166.5 2208.6087,-166.5 2275.3619,-166.5"/>
<polygon fill="#191970" stroke="#191970" points="2041.0359,-163.0001 2031.0358,-166.5 2041.0358,-170.0001 2041.0359,-163.0001"/>
</g>
<!-- Node18 -->
<g id="node18" class="node">
<title>Node18</title>
<g id="a_node18"><a xlink:href="classgko_1_1batch_1_1solver_1_1EnableBatchSolver.html" target="_top" xlink:title=" ">
<polygon fill="#ffffff" stroke="#000000" points="2593,-179 2593,-220 2772,-220 2772,-179 2593,-179"/>
<text text-anchor="start" x="2601" y="-208" font-family="Helvetica,sans-Serif" font-size="10.00" fill="#000000">gko::batch::solver</text>
<text text-anchor="start" x="2601" y="-197" font-family="Helvetica,sans-Serif" font-size="10.00" fill="#000000">::EnableBatchSolver</text>
<text text-anchor="middle" x="2682.5" y="-186" font-family="Helvetica,sans-Serif" font-size="10.00" fill="#000000">&lt; Cg&lt; ValueType &gt;, ValueType &gt;</text>
</a>
</g>
</g>
<!-- Node17&#45;&gt;Node18 -->
<g id="edge21" class="edge">
<title>Node17&#45;&gt;Node18</title>
<path fill="none" stroke="#ffa500" stroke-dasharray="5,2" d="M2446.7588,-174.8836C2486.182,-178.6077 2532.8864,-183.1306 2575,-187.5 2580.7904,-188.1008 2586.7549,-188.732 2592.7662,-189.3775"/>
<polygon fill="#ffa500" stroke="#ffa500" points="2446.9212,-171.3834 2436.6369,-173.9298 2446.2644,-178.3526 2446.9212,-171.3834"/>
<text text-anchor="start" x="2464.5" y="-201.5" font-family="Helvetica,sans-Serif" font-size="10.00" fill="#000000"> &lt; Cg&lt; ValueType &gt;,</text>
<text text-anchor="middle" x="2516" y="-190.5" font-family="Helvetica,sans-Serif" font-size="10.00" fill="#000000"> ValueType &gt;</text>
</g>
<!-- Node20 -->
<g id="node20" class="node">
<title>Node20</title>
<g id="a_node20"><a xlink:href="classgko_1_1batch_1_1solver_1_1EnableBatchSolver.html" target="_top" xlink:title=" ">
<polygon fill="#ffffff" stroke="#000000" points="2617,-101.5 2617,-153.5 2748,-153.5 2748,-101.5 2617,-101.5"/>
<text text-anchor="start" x="2625" y="-141.5" font-family="Helvetica,sans-Serif" font-size="10.00" fill="#000000">gko::batch::solver</text>
<text text-anchor="start" x="2625" y="-130.5" font-family="Helvetica,sans-Serif" font-size="10.00" fill="#000000">::EnableBatchSolver</text>
<text text-anchor="start" x="2625" y="-119.5" font-family="Helvetica,sans-Serif" font-size="10.00" fill="#000000">&lt; Bicgstab&lt; ValueType</text>
<text text-anchor="middle" x="2682.5" y="-108.5" font-family="Helvetica,sans-Serif" font-size="10.00" fill="#000000"> &gt;, ValueType &gt;</text>
</a>
</g>
</g>
<!-- Node17&#45;&gt;Node20 -->
<g id="edge23" class="edge">
<title>Node17&#45;&gt;Node20</title>
<path fill="none" stroke="#ffa500" stroke-dasharray="5,2" d="M2446.6199,-150.9366C2450.1221,-150.4337 2453.5917,-149.9525 2457,-149.5 2510.6153,-142.3812 2571.6898,-136.5628 2616.7433,-132.7016"/>
<polygon fill="#ffa500" stroke="#ffa500" points="2446.0676,-147.4801 2436.6873,-152.4055 2447.0918,-154.4048 2446.0676,-147.4801"/>
<text text-anchor="start" x="2457" y="-163.5" font-family="Helvetica,sans-Serif" font-size="10.00" fill="#000000"> &lt; Bicgstab&lt; ValueType</text>
<text text-anchor="middle" x="2516" y="-152.5" font-family="Helvetica,sans-Serif" font-size="10.00" fill="#000000"> &gt;, ValueType &gt;</text>
</g>
<!-- Node19 -->
<g id="node19" class="node">
<title>Node19</title>
<g id="a_node19"><a xlink:href="classgko_1_1batch_1_1solver_1_1Cg.html" target="_top" xlink:title="Cg or the Conjugate Gradient is a Krylov subspace solver.">
<polygon fill="#ffffff" stroke="#000000" points="2824,-184.5 2824,-214.5 2931,-214.5 2931,-184.5 2824,-184.5"/>
<text text-anchor="start" x="2832" y="-202.5" font-family="Helvetica,sans-Serif" font-size="10.00" fill="#000000">gko::batch::solver</text>
<text text-anchor="middle" x="2877.5" y="-191.5" font-family="Helvetica,sans-Serif" font-size="10.00" fill="#000000">::Cg&lt; ValueType &gt;</text>
</a>
</g>
</g>
<!-- Node18&#45;&gt;Node19 -->
<g id="edge22" class="edge">
<title>Node18&#45;&gt;Node19</title>
<path fill="none" stroke="#191970" d="M2782.4166,-199.5C2796.7157,-199.5 2810.9455,-199.5 2823.8748,-199.5"/>
<polygon fill="#191970" stroke="#191970" points="2782.01,-196.0001 2772.0099,-199.5 2782.0099,-203.0001 2782.01,-196.0001"/>
</g>
<!-- Node21 -->
<g id="node21" class="node">
<title>Node21</title>
<g id="a_node21"><a xlink:href="classgko_1_1batch_1_1solver_1_1Bicgstab.html" target="_top" xlink:title="BiCGSTAB or the Bi&#45;Conjugate Gradient&#45;Stabilized is a Krylov subspace solver.">
<polygon fill="#ffffff" stroke="#000000" points="2809,-112.5 2809,-142.5 2946,-142.5 2946,-112.5 2809,-112.5"/>
<text text-anchor="start" x="2817" y="-130.5" font-family="Helvetica,sans-Serif" font-size="10.00" fill="#000000">gko::batch::solver</text>
<text text-anchor="middle" x="2877.5" y="-119.5" font-family="Helvetica,sans-Serif" font-size="10.00" fill="#000000">::Bicgstab&lt; ValueType &gt;</text>
</a>
</g>
</g>
<!-- Node20&#45;&gt;Node21 -->
<g id="edge24" class="edge">
<title>Node20&#45;&gt;Node21</title>
<path fill="none" stroke="#191970" d="M2758.4299,-127.5C2774.9963,-127.5 2792.4373,-127.5 2808.7074,-127.5"/>
<polygon fill="#191970" stroke="#191970" points="2758.2463,-124.0001 2748.2463,-127.5 2758.2462,-131.0001 2758.2463,-124.0001"/>
</g>
<!-- Node22&#45;&gt;Node20 -->
<g id="edge26" class="edge">
<title>Node22&#45;&gt;Node20</title>
<path fill="none" stroke="#191970" d="M2240.4087,-114.9168C2345.3599,-117.904 2521.7131,-122.9235 2616.8725,-125.632"/>
<polygon fill="#191970" stroke="#191970" points="2240.2629,-111.4113 2230.1673,-114.6253 2240.0637,-118.4084 2240.2629,-111.4113"/>
</g>
<!-- Node23&#45;&gt;Node18 -->
<g id="edge28" class="edge">
<title>Node23&#45;&gt;Node18</title>
<path fill="none" stroke="#191970" d="M2265.3199,-218.9496C2349.9988,-218.0247 2469.9964,-215.6281 2575,-209.5 2580.8007,-209.1615 2586.7729,-208.7583 2592.79,-208.3111"/>
<polygon fill="#191970" stroke="#191970" points="2265.1346,-215.4512 2255.1716,-219.0552 2265.2076,-222.4508 2265.1346,-215.4512"/>
</g>
<!-- Node25 -->
<g id="node25" class="node">
<title>Node25</title>
<g id="a_node25"><a xlink:href="classgko_1_1batch_1_1matrix_1_1Csr.html" target="_top" xlink:title="Csr is a general sparse matrix format that stores the column indices for each nonzero entry and a cum...">
<polygon fill="#ffffff" stroke="#000000" points="2273,-49.5 2273,-79.5 2439,-79.5 2439,-49.5 2273,-49.5"/>
<text text-anchor="start" x="2281" y="-67.5" font-family="Helvetica,sans-Serif" font-size="10.00" fill="#000000">gko::batch::matrix</text>
<text text-anchor="middle" x="2356" y="-56.5" font-family="Helvetica,sans-Serif" font-size="10.00" fill="#000000">::Csr&lt; ValueType, IndexType &gt;</text>
</a>
</g>
</g>
<!-- Node24&#45;&gt;Node25 -->
<g id="edge30" class="edge">
<title>Node24&#45;&gt;Node25</title>
<path fill="none" stroke="#191970" d="M2048.2636,-68.9385C2118.4379,-67.9264 2208.455,-66.6281 2272.9753,-65.6975"/>
<polygon fill="#191970" stroke="#191970" points="2048.0079,-65.4417 2038.0594,-69.0857 2048.1089,-72.441 2048.0079,-65.4417"/>
</g>
<!-- Node27 -->
<g id="node27" class="node">
<title>Node27</title>
<g id="a_node27"><a xlink:href="classgko_1_1batch_1_1matrix_1_1Ell.html" target="_top" xlink:title="Ell is a sparse matrix format that stores the same number of nonzeros in each row,...">
<polygon fill="#ffffff" stroke="#000000" points="2275,-.5 2275,-30.5 2437,-30.5 2437,-.5 2275,-.5"/>
<text text-anchor="start" x="2283" y="-18.5" font-family="Helvetica,sans-Serif" font-size="10.00" fill="#000000">gko::batch::matrix</text>
<text text-anchor="middle" x="2356" y="-7.5" font-family="Helvetica,sans-Serif" font-size="10.00" fill="#000000">::Ell&lt; ValueType, IndexType &gt;</text>
</a>
</g>
</g>
<!-- Node26&#45;&gt;Node27 -->
<g id="edge32" class="edge">
<title>Node26&#45;&gt;Node27</title>
<path fill="none" stroke="#191970" d="M2046.5612,-16.9877C2117.7034,-16.6457 2209.8109,-16.2028 2274.98,-15.8895"/>
<polygon fill="#191970" stroke="#191970" points="2046.2057,-13.4893 2036.2226,-17.0374 2046.2394,-20.4892 2046.2057,-13.4893"/>
</g>
</g>
</svg>
