<?xml version="1.0" encoding="UTF-8" standalone="no"?>
<!DOCTYPE svg PUBLIC "-//W3C//DTD SVG 1.1//EN"
 "http://www.w3.org/Graphics/SVG/1.1/DTD/svg11.dtd">
<!-- Generated by graphviz version 2.40.1 (20161225.0304)
 -->
<!-- Title: gko::experimental::EnableDistributedLinOp&lt; ConcreteLinOp, PolymorphicBase &gt; Pages: 1 -->
<svg width="2216pt" height="214pt"
 viewBox="0.00 0.00 2216.00 213.99" xmlns="http://www.w3.org/2000/svg" xmlns:xlink="http://www.w3.org/1999/xlink">
<g id="graph0" class="graph" transform="scale(1 1) rotate(0) translate(4 209.9892)">
<title>gko::experimental::EnableDistributedLinOp&lt; ConcreteLinOp, PolymorphicBase &gt;</title>
<polygon fill="#ffffff" stroke="transparent" points="-4,4 -4,-209.9892 2212,-209.9892 2212,4 -4,4"/>
<!-- Node1 -->
<g id="node1" class="node">
<title>Node1</title>
<g id="a_node1"><a xlink:title="This mixin does the same as EnableLinOp, but for concrete types that are derived from distributed::Di...">
<polygon fill="#bfbfbf" stroke="#000000" points="1487,-67.5 1487,-119.5 1653,-119.5 1653,-67.5 1487,-67.5"/>
<text text-anchor="start" x="1495" y="-107.5" font-family="Helvetica,sans-Serif" font-size="10.00" fill="#000000">gko::experimental::</text>
<text text-anchor="start" x="1495" y="-96.5" font-family="Helvetica,sans-Serif" font-size="10.00" fill="#000000">EnableDistributedLinOp</text>
<text text-anchor="start" x="1495" y="-85.5" font-family="Helvetica,sans-Serif" font-size="10.00" fill="#000000">&lt; ConcreteLinOp, Polymorphic</text>
<text text-anchor="middle" x="1570" y="-74.5" font-family="Helvetica,sans-Serif" font-size="10.00" fill="#000000">Base &gt;</text>
</a>
</g>
</g>
<!-- Node12 -->
<g id="node12" class="node">
<title>Node12</title>
<g id="a_node12"><a xlink:href="classgko_1_1experimental_1_1EnableDistributedLinOp.html" target="_top" xlink:title=" ">
<polygon fill="#ffffff" stroke="#000000" points="1850,-106 1850,-147 1992,-147 1992,-106 1850,-106"/>
<text text-anchor="start" x="1858" y="-135" font-family="Helvetica,sans-Serif" font-size="10.00" fill="#000000">gko::experimental::</text>
<text text-anchor="start" x="1858" y="-124" font-family="Helvetica,sans-Serif" font-size="10.00" fill="#000000">EnableDistributedLinOp</text>
<text text-anchor="middle" x="1921" y="-113" font-family="Helvetica,sans-Serif" font-size="10.00" fill="#000000">&lt; Vector&lt; ValueType &gt; &gt;</text>
</a>
</g>
</g>
<!-- Node1&#45;&gt;Node12 -->
<g id="edge15" class="edge">
<title>Node1&#45;&gt;Node12</title>
<path fill="none" stroke="#ffa500" stroke-dasharray="5,2" d="M1663.1833,-102.2608C1721.7649,-107.7685 1796.1672,-114.7636 1849.9716,-119.8221"/>
<polygon fill="#ffa500" stroke="#ffa500" points="1663.4658,-98.772 1653.1821,-101.3205 1662.8105,-105.7413 1663.4658,-98.772"/>
<text text-anchor="middle" x="1742.5" y="-118.5" font-family="Helvetica,sans-Serif" font-size="10.00" fill="#000000"> &lt; Vector&lt; ValueType &gt; &gt;</text>
</g>
<!-- Node14 -->
<g id="node14" class="node">
<title>Node14</title>
<g id="a_node14"><a xlink:href="classgko_1_1experimental_1_1EnableDistributedLinOp.html" target="_top" xlink:title=" ">
<polygon fill="#ffffff" stroke="#000000" points="1832,-34.5 1832,-86.5 2010,-86.5 2010,-34.5 1832,-34.5"/>
<text text-anchor="start" x="1840" y="-74.5" font-family="Helvetica,sans-Serif" font-size="10.00" fill="#000000">gko::experimental::</text>
<text text-anchor="start" x="1840" y="-63.5" font-family="Helvetica,sans-Serif" font-size="10.00" fill="#000000">EnableDistributedLinOp</text>
<text text-anchor="start" x="1840" y="-52.5" font-family="Helvetica,sans-Serif" font-size="10.00" fill="#000000">&lt; Matrix&lt; ValueType, LocalIndex</text>
<text text-anchor="middle" x="1921" y="-41.5" font-family="Helvetica,sans-Serif" font-size="10.00" fill="#000000">Type, GlobalIndexType &gt; &gt;</text>
</a>
</g>
</g>
<!-- Node1&#45;&gt;Node14 -->
<g id="edge17" class="edge">
<title>Node1&#45;&gt;Node14</title>
<path fill="none" stroke="#ffa500" stroke-dasharray="5,2" d="M1662.9702,-66.8006C1665.6679,-66.3236 1668.3485,-65.8878 1671,-65.5 1723.9415,-57.7575 1783.8535,-56.3112 1831.7529,-56.8933"/>
<polygon fill="#ffa500" stroke="#ffa500" points="1662.3051,-63.3643 1653.1497,-68.6961 1663.6318,-70.2375 1662.3051,-63.3643"/>
<text text-anchor="start" x="1671" y="-90.5" font-family="Helvetica,sans-Serif" font-size="10.00" fill="#000000"> &lt; Matrix&lt; ValueType,</text>
<text text-anchor="start" x="1671" y="-79.5" font-family="Helvetica,sans-Serif" font-size="10.00" fill="#000000"> LocalIndexType, GlobalIndex</text>
<text text-anchor="middle" x="1742.5" y="-68.5" font-family="Helvetica,sans-Serif" font-size="10.00" fill="#000000">Type &gt; &gt;</text>
</g>
<!-- Node2 -->
<g id="node2" class="node">
<title>Node2</title>
<g id="a_node2"><a xlink:href="classgko_1_1experimental_1_1EnableDistributedPolymorphicObject.html" target="_top" xlink:title=" ">
<polygon fill="#ffffff" stroke="#000000" points="1253,-98.5 1253,-150.5 1450,-150.5 1450,-98.5 1253,-98.5"/>
<text text-anchor="start" x="1261" y="-138.5" font-family="Helvetica,sans-Serif" font-size="10.00" fill="#000000">gko::experimental::</text>
<text text-anchor="start" x="1261" y="-127.5" font-family="Helvetica,sans-Serif" font-size="10.00" fill="#000000">EnableDistributedPolymorphic</text>
<text text-anchor="start" x="1261" y="-116.5" font-family="Helvetica,sans-Serif" font-size="10.00" fill="#000000">Object&lt; ConcreteLinOp, Polymorphic</text>
<text text-anchor="middle" x="1351.5" y="-105.5" font-family="Helvetica,sans-Serif" font-size="10.00" fill="#000000">Base &gt;</text>
</a>
</g>
</g>
<!-- Node2&#45;&gt;Node1 -->
<g id="edge1" class="edge">
<title>Node2&#45;&gt;Node1</title>
<path fill="none" stroke="#191970" d="M1460.249,-109.0711C1469.1603,-107.8068 1478.076,-106.5418 1486.759,-105.3099"/>
<polygon fill="#191970" stroke="#191970" points="1459.6115,-105.6264 1450.2024,-110.4965 1460.5949,-112.557 1459.6115,-105.6264"/>
</g>
<!-- Node3 -->
<g id="node3" class="node">
<title>Node3</title>
<g id="a_node3"><a xlink:href="classgko_1_1EnableAbstractPolymorphicObject.html" target="_top" xlink:title=" ">
<polygon fill="#ffffff" stroke="#000000" points="531,-161 531,-202 728,-202 728,-161 531,-161"/>
<text text-anchor="start" x="539" y="-190" font-family="Helvetica,sans-Serif" font-size="10.00" fill="#000000">gko::EnableAbstractPolymorphic</text>
<text text-anchor="start" x="539" y="-179" font-family="Helvetica,sans-Serif" font-size="10.00" fill="#000000">Object&lt; ConcreteLinOp, Polymorphic</text>
<text text-anchor="middle" x="629.5" y="-168" font-family="Helvetica,sans-Serif" font-size="10.00" fill="#000000">Base &gt;</text>
</a>
</g>
</g>
<!-- Node3&#45;&gt;Node2 -->
<g id="edge2" class="edge">
<title>Node3&#45;&gt;Node2</title>
<path fill="none" stroke="#191970" d="M738.1206,-181.6675C859.7245,-180.5276 1062.3773,-174.6495 1235,-150.5 1240.8492,-149.6817 1246.8399,-148.7234 1252.8681,-147.6663"/>
<polygon fill="#191970" stroke="#191970" points="738.0294,-178.1681 728.0595,-181.7527 738.0888,-185.1678 738.0294,-178.1681"/>
</g>
<!-- Node4 -->
<g id="node4" class="node">
<title>Node4</title>
<g id="a_node4"><a xlink:title=" ">
<polygon fill="#ffffff" stroke="#bfbfbf" points="0,-143 0,-162 101,-162 101,-143 0,-143"/>
<text text-anchor="middle" x="50.5" y="-150" font-family="Helvetica,sans-Serif" font-size="10.00" fill="#000000">PolymorphicBase</text>
</a>
</g>
</g>
<!-- Node4&#45;&gt;Node3 -->
<g id="edge3" class="edge">
<title>Node4&#45;&gt;Node3</title>
<path fill="none" stroke="#191970" d="M82.6542,-165.8188C98.9518,-171.9756 119.2219,-178.7421 138,-182.5 300.6692,-215.0533 345.4341,-206.9372 511,-196.5 517.5192,-196.089 524.2283,-195.5521 530.9817,-194.9264"/>
<polygon fill="#191970" stroke="#191970" points="83.6578,-162.4539 73.069,-162.0965 81.1237,-168.9791 83.6578,-162.4539"/>
</g>
<!-- Node5 -->
<g id="node5" class="node">
<title>Node5</title>
<g id="a_node5"><a xlink:href="classgko_1_1EnableAbstractPolymorphicObject.html" target="_top" xlink:title="This mixin inherits from (a subclass of) PolymorphicObject and provides a base implementation of a ne...">
<polygon fill="#ffffff" stroke="#000000" points="138,-132 138,-173 336,-173 336,-132 138,-132"/>
<text text-anchor="start" x="146" y="-161" font-family="Helvetica,sans-Serif" font-size="10.00" fill="#000000">gko::EnableAbstractPolymorphic</text>
<text text-anchor="start" x="146" y="-150" font-family="Helvetica,sans-Serif" font-size="10.00" fill="#000000">Object&lt; AbstractObject, Polymorphic</text>
<text text-anchor="middle" x="237" y="-139" font-family="Helvetica,sans-Serif" font-size="10.00" fill="#000000">Base &gt;</text>
</a>
</g>
</g>
<!-- Node4&#45;&gt;Node5 -->
<g id="edge5" class="edge">
<title>Node4&#45;&gt;Node5</title>
<path fill="none" stroke="#191970" d="M111.5248,-152.5C119.9555,-152.5 128.7869,-152.5 137.6923,-152.5"/>
<polygon fill="#191970" stroke="#191970" points="111.462,-149.0001 101.4619,-152.5 111.4619,-156.0001 111.462,-149.0001"/>
</g>
<!-- Node7 -->
<g id="node7" class="node">
<title>Node7</title>
<g id="a_node7"><a xlink:href="classgko_1_1EnableAbstractPolymorphicObject.html" target="_top" xlink:title=" ">
<polygon fill="#ffffff" stroke="#000000" points="529,-101 529,-142 730,-142 730,-101 529,-101"/>
<text text-anchor="start" x="537" y="-130" font-family="Helvetica,sans-Serif" font-size="10.00" fill="#000000">gko::EnableAbstractPolymorphic</text>
<text text-anchor="start" x="537" y="-119" font-family="Helvetica,sans-Serif" font-size="10.00" fill="#000000">Object&lt; ConcreteObject, Polymorphic</text>
<text text-anchor="middle" x="629.5" y="-108" font-family="Helvetica,sans-Serif" font-size="10.00" fill="#000000">Base &gt;</text>
</a>
</g>
</g>
<!-- Node4&#45;&gt;Node7 -->
<g id="edge8" class="edge">
<title>Node4&#45;&gt;Node7</title>
<path fill="none" stroke="#191970" d="M81.5592,-139.1253C98.0027,-132.7485 118.7317,-125.8031 138,-122.5 301.3966,-94.4892 345.2213,-119.8005 511,-120.5 516.8634,-120.5247 522.89,-120.5564 528.9708,-120.593"/>
<polygon fill="#191970" stroke="#191970" points="79.9071,-136.0167 71.9259,-142.9846 82.5103,-142.5146 79.9071,-136.0167"/>
</g>
<!-- Node5&#45;&gt;Node3 -->
<g id="edge4" class="edge">
<title>Node5&#45;&gt;Node3</title>
<path fill="none" stroke="#ffa500" stroke-dasharray="5,2" d="M346.3222,-160.5773C404.173,-164.8516 474.6538,-170.0591 530.8278,-174.2096"/>
<polygon fill="#ffa500" stroke="#ffa500" points="346.2751,-157.0644 336.0443,-159.8179 345.7592,-164.0453 346.2751,-157.0644"/>
<text text-anchor="start" x="356" y="-185.5" font-family="Helvetica,sans-Serif" font-size="10.00" fill="#000000"> &lt; ConcreteLinOp, Polymorphic</text>
<text text-anchor="middle" x="432.5" y="-174.5" font-family="Helvetica,sans-Serif" font-size="10.00" fill="#000000">Base &gt;</text>
</g>
<!-- Node5&#45;&gt;Node7 -->
<g id="edge9" class="edge">
<title>Node5&#45;&gt;Node7</title>
<path fill="none" stroke="#ffa500" stroke-dasharray="5,2" d="M346.2792,-136.2937C348.8763,-136.0145 351.4529,-135.7492 354,-135.5 411.7926,-129.8455 476.6426,-126.4067 528.9003,-124.3532"/>
<polygon fill="#ffa500" stroke="#ffa500" points="345.7227,-132.8342 336.1789,-137.4348 346.5087,-139.7899 345.7227,-132.8342"/>
<text text-anchor="start" x="354" y="-149.5" font-family="Helvetica,sans-Serif" font-size="10.00" fill="#000000"> &lt; ConcreteObject, Polymorphic</text>
<text text-anchor="middle" x="432.5" y="-138.5" font-family="Helvetica,sans-Serif" font-size="10.00" fill="#000000">Base &gt;</text>
</g>
<!-- Node6 -->
<g id="node6" class="node">
<title>Node6</title>
<g id="a_node6"><a xlink:href="classgko_1_1experimental_1_1EnableDistributedPolymorphicObject.html" target="_top" xlink:title="This mixin does the same as EnablePolymorphicObject, but for concrete types that are derived from dis...">
<polygon fill="#ffffff" stroke="#000000" points="863,-98.5 863,-150.5 1064,-150.5 1064,-98.5 863,-98.5"/>
<text text-anchor="start" x="871" y="-138.5" font-family="Helvetica,sans-Serif" font-size="10.00" fill="#000000">gko::experimental::</text>
<text text-anchor="start" x="871" y="-127.5" font-family="Helvetica,sans-Serif" font-size="10.00" fill="#000000">EnableDistributedPolymorphic</text>
<text text-anchor="start" x="871" y="-116.5" font-family="Helvetica,sans-Serif" font-size="10.00" fill="#000000">Object&lt; ConcreteObject, Polymorphic</text>
<text text-anchor="middle" x="963.5" y="-105.5" font-family="Helvetica,sans-Serif" font-size="10.00" fill="#000000">Base &gt;</text>
</a>
</g>
</g>
<!-- Node6&#45;&gt;Node2 -->
<g id="edge6" class="edge">
<title>Node6&#45;&gt;Node2</title>
<path fill="none" stroke="#ffa500" stroke-dasharray="5,2" d="M1074.1946,-124.5C1130.5353,-124.5 1198.4478,-124.5 1252.9636,-124.5"/>
<polygon fill="#ffa500" stroke="#ffa500" points="1074.1768,-121.0001 1064.1768,-124.5 1074.1768,-128.0001 1074.1768,-121.0001"/>
<text text-anchor="start" x="1082" y="-138.5" font-family="Helvetica,sans-Serif" font-size="10.00" fill="#000000"> &lt; ConcreteLinOp, Polymorphic</text>
<text text-anchor="middle" x="1158.5" y="-127.5" font-family="Helvetica,sans-Serif" font-size="10.00" fill="#000000">Base &gt;</text>
</g>
<!-- Node7&#45;&gt;Node6 -->
<g id="edge7" class="edge">
<title>Node7&#45;&gt;Node6</title>
<path fill="none" stroke="#191970" d="M740.3679,-122.4958C779.8808,-122.8507 824.138,-123.2482 862.7542,-123.5951"/>
<polygon fill="#191970" stroke="#191970" points="740.195,-118.9942 730.164,-122.4042 740.1321,-125.9939 740.195,-118.9942"/>
</g>
<!-- Node8 -->
<g id="node8" class="node">
<title>Node8</title>
<g id="a_node8"><a xlink:href="classgko_1_1EnablePolymorphicAssignment.html" target="_top" xlink:title=" ">
<polygon fill="#ffffff" stroke="#000000" points="1255.5,-49.5 1255.5,-79.5 1447.5,-79.5 1447.5,-49.5 1255.5,-49.5"/>
<text text-anchor="start" x="1263.5" y="-67.5" font-family="Helvetica,sans-Serif" font-size="10.00" fill="#000000">gko::EnablePolymorphicAssignment</text>
<text text-anchor="middle" x="1351.5" y="-56.5" font-family="Helvetica,sans-Serif" font-size="10.00" fill="#000000">&lt; ConcreteLinOp &gt;</text>
</a>
</g>
</g>
<!-- Node8&#45;&gt;Node1 -->
<g id="edge10" class="edge">
<title>Node8&#45;&gt;Node1</title>
<path fill="none" stroke="#191970" d="M1457.7878,-78.6069C1467.5344,-79.9005 1477.3125,-81.1982 1486.8114,-82.459"/>
<polygon fill="#191970" stroke="#191970" points="1458.0288,-75.1082 1447.6552,-77.262 1457.1078,-82.0474 1458.0288,-75.1082"/>
</g>
<!-- Node9 -->
<g id="node9" class="node">
<title>Node9</title>
<g id="a_node9"><a xlink:href="classgko_1_1ConvertibleTo.html" target="_top" xlink:title=" ">
<polygon fill="#ffffff" stroke="#000000" points="908.5,-49.5 908.5,-79.5 1018.5,-79.5 1018.5,-49.5 908.5,-49.5"/>
<text text-anchor="start" x="916.5" y="-67.5" font-family="Helvetica,sans-Serif" font-size="10.00" fill="#000000">gko::ConvertibleTo</text>
<text text-anchor="middle" x="963.5" y="-56.5" font-family="Helvetica,sans-Serif" font-size="10.00" fill="#000000">&lt; ConcreteLinOp &gt;</text>
</a>
</g>
</g>
<!-- Node9&#45;&gt;Node8 -->
<g id="edge11" class="edge">
<title>Node9&#45;&gt;Node8</title>
<path fill="none" stroke="#191970" d="M1028.7266,-64.5C1090.7278,-64.5 1184.7289,-64.5 1255.3232,-64.5"/>
<polygon fill="#191970" stroke="#191970" points="1028.6789,-61.0001 1018.6789,-64.5 1028.6789,-68.0001 1028.6789,-61.0001"/>
</g>
<!-- Node10 -->
<g id="node10" class="node">
<title>Node10</title>
<g id="a_node10"><a xlink:href="classgko_1_1ConvertibleTo.html" target="_top" xlink:title="ConvertibleTo interface is used to mark that the implementer can be converted to the object of Result...">
<polygon fill="#ffffff" stroke="#000000" points="576,-35.5 576,-65.5 683,-65.5 683,-35.5 576,-35.5"/>
<text text-anchor="start" x="584" y="-53.5" font-family="Helvetica,sans-Serif" font-size="10.00" fill="#000000">gko::ConvertibleTo</text>
<text text-anchor="middle" x="629.5" y="-42.5" font-family="Helvetica,sans-Serif" font-size="10.00" fill="#000000">&lt; ResultType &gt;</text>
</a>
</g>
</g>
<!-- Node10&#45;&gt;Node9 -->
<g id="edge12" class="edge">
<title>Node10&#45;&gt;Node9</title>
<path fill="none" stroke="#ffa500" stroke-dasharray="5,2" d="M693.2513,-53.1722C755.4776,-55.7805 849.1793,-59.7081 908.3028,-62.1863"/>
<polygon fill="#ffa500" stroke="#ffa500" points="693.3007,-49.6713 683.1629,-52.7493 693.0075,-56.6652 693.3007,-49.6713"/>
<text text-anchor="middle" x="796.5" y="-62.5" font-family="Helvetica,sans-Serif" font-size="10.00" fill="#000000"> &lt; ConcreteLinOp &gt;</text>
</g>
<!-- Node11 -->
<g id="node11" class="node">
<title>Node11</title>
<g id="a_node11"><a xlink:href="classgko_1_1EnablePolymorphicAssignment.html" target="_top" xlink:title="This mixin is used to enable a default PolymorphicObject::copy_from() implementation for objects that...">
<polygon fill="#ffffff" stroke="#000000" points="867.5,-.5 867.5,-30.5 1059.5,-30.5 1059.5,-.5 867.5,-.5"/>
<text text-anchor="start" x="875.5" y="-18.5" font-family="Helvetica,sans-Serif" font-size="10.00" fill="#000000">gko::EnablePolymorphicAssignment</text>
<text text-anchor="middle" x="963.5" y="-7.5" font-family="Helvetica,sans-Serif" font-size="10.00" fill="#000000">&lt; ConcreteType, ResultType &gt;</text>
</a>
</g>
</g>
<!-- Node10&#45;&gt;Node11 -->
<g id="edge14" class="edge">
<title>Node10&#45;&gt;Node11</title>
<path fill="none" stroke="#191970" d="M693.3478,-43.8094C742.5276,-38.6558 811.3262,-31.4464 867.1857,-25.5928"/>
<polygon fill="#191970" stroke="#191970" points="692.7436,-40.3534 683.1629,-44.8766 693.4732,-47.3153 692.7436,-40.3534"/>
</g>
<!-- Node11&#45;&gt;Node8 -->
<g id="edge13" class="edge">
<title>Node11&#45;&gt;Node8</title>
<path fill="none" stroke="#ffa500" stroke-dasharray="5,2" d="M1069.8354,-28.7298C1119.9476,-34.9867 1180.5516,-42.5855 1235,-49.5 1241.5748,-50.335 1248.3579,-51.1997 1255.1904,-52.0731"/>
<polygon fill="#ffa500" stroke="#ffa500" points="1069.9896,-25.2219 1059.633,-27.4563 1069.1225,-32.168 1069.9896,-25.2219"/>
<text text-anchor="middle" x="1158.5" y="-52.5" font-family="Helvetica,sans-Serif" font-size="10.00" fill="#000000"> &lt; ConcreteLinOp &gt;</text>
</g>
<!-- Node13 -->
<g id="node13" class="node">
<title>Node13</title>
<g id="a_node13"><a xlink:href="classgko_1_1experimental_1_1distributed_1_1Vector.html" target="_top" xlink:title="Vector is a format which explicitly stores (multiple) distributed column vectors in a dense storage f...">
<polygon fill="#ffffff" stroke="#000000" points="2071.5,-106 2071.5,-147 2183.5,-147 2183.5,-106 2071.5,-106"/>
<text text-anchor="start" x="2079.5" y="-135" font-family="Helvetica,sans-Serif" font-size="10.00" fill="#000000">gko::experimental::</text>
<text text-anchor="start" x="2079.5" y="-124" font-family="Helvetica,sans-Serif" font-size="10.00" fill="#000000">distributed::Vector</text>
<text text-anchor="middle" x="2127.5" y="-113" font-family="Helvetica,sans-Serif" font-size="10.00" fill="#000000">&lt; ValueType &gt;</text>
</a>
</g>
</g>
<!-- Node12&#45;&gt;Node13 -->
<g id="edge16" class="edge">
<title>Node12&#45;&gt;Node13</title>
<path fill="none" stroke="#191970" d="M2002.2152,-126.5C2025.3425,-126.5 2050.0168,-126.5 2071.2989,-126.5"/>
<polygon fill="#191970" stroke="#191970" points="2002.0656,-123.0001 1992.0656,-126.5 2002.0656,-130.0001 2002.0656,-123.0001"/>
</g>
<!-- Node15 -->
<g id="node15" class="node">
<title>Node15</title>
<g id="a_node15"><a xlink:href="classgko_1_1experimental_1_1distributed_1_1Matrix.html" target="_top" xlink:title="The Matrix class defines a (MPI&#45;)distributed matrix.">
<polygon fill="#ffffff" stroke="#000000" points="2047,-34.5 2047,-86.5 2208,-86.5 2208,-34.5 2047,-34.5"/>
<text text-anchor="start" x="2055" y="-74.5" font-family="Helvetica,sans-Serif" font-size="10.00" fill="#000000">gko::experimental::</text>
<text text-anchor="start" x="2055" y="-63.5" font-family="Helvetica,sans-Serif" font-size="10.00" fill="#000000">distributed::Matrix</text>
<text text-anchor="start" x="2055" y="-52.5" font-family="Helvetica,sans-Serif" font-size="10.00" fill="#000000">&lt; ValueType, LocalIndexType,</text>
<text text-anchor="middle" x="2127.5" y="-41.5" font-family="Helvetica,sans-Serif" font-size="10.00" fill="#000000"> GlobalIndexType &gt;</text>
</a>
</g>
</g>
<!-- Node14&#45;&gt;Node15 -->
<g id="edge18" class="edge">
<title>Node14&#45;&gt;Node15</title>
<path fill="none" stroke="#191970" d="M2020.1481,-60.5C2029.1,-60.5 2038.0932,-60.5 2046.8577,-60.5"/>
<polygon fill="#191970" stroke="#191970" points="2020.0729,-57.0001 2010.0729,-60.5 2020.0729,-64.0001 2020.0729,-57.0001"/>
</g>
</g>
</svg>
