<?xml version="1.0" encoding="UTF-8" standalone="no"?>
<!DOCTYPE svg PUBLIC "-//W3C//DTD SVG 1.1//EN"
 "http://www.w3.org/Graphics/SVG/1.1/DTD/svg11.dtd">
<!-- Generated by graphviz version 2.40.1 (20161225.0304)
 -->
<!-- Title: gko::matrix::Sellp&lt; ValueType, IndexType &gt; Pages: 1 -->
<svg width="2504pt" height="500pt"
 viewBox="0.00 0.00 2504.00 500.00" xmlns="http://www.w3.org/2000/svg" xmlns:xlink="http://www.w3.org/1999/xlink">
<g id="graph0" class="graph" transform="scale(1 1) rotate(0) translate(4 496)">
<title>gko::matrix::Sellp&lt; ValueType, IndexType &gt;</title>
<polygon fill="#ffffff" stroke="transparent" points="-4,4 -4,-496 2500,-496 2500,4 -4,4"/>
<!-- Node1 -->
<g id="node1" class="node">
<title>Node1</title>
<g id="a_node1"><a xlink:title="SELL&#45;P is a matrix format similar to ELL format.">
<polygon fill="#bfbfbf" stroke="#000000" points="2352,-250 2352,-280 2496,-280 2496,-250 2352,-250"/>
<text text-anchor="start" x="2360" y="-268" font-family="Helvetica,sans-Serif" font-size="10.00" fill="#000000">gko::matrix::Sellp</text>
<text text-anchor="middle" x="2424" y="-257" font-family="Helvetica,sans-Serif" font-size="10.00" fill="#000000">&lt; ValueType, IndexType &gt;</text>
</a>
</g>
</g>
<!-- Node2 -->
<g id="node2" class="node">
<title>Node2</title>
<g id="a_node2"><a xlink:href="classgko_1_1EnableLinOp.html" target="_top" xlink:title=" ">
<polygon fill="#ffffff" stroke="#000000" points="2131.5,-269 2131.5,-299 2286.5,-299 2286.5,-269 2131.5,-269"/>
<text text-anchor="start" x="2139.5" y="-287" font-family="Helvetica,sans-Serif" font-size="10.00" fill="#000000">gko::EnableLinOp&lt; Sellp</text>
<text text-anchor="middle" x="2209" y="-276" font-family="Helvetica,sans-Serif" font-size="10.00" fill="#000000">&lt; ValueType, IndexType &gt; &gt;</text>
</a>
</g>
</g>
<!-- Node2&#45;&gt;Node1 -->
<g id="edge1" class="edge">
<title>Node2&#45;&gt;Node1</title>
<path fill="none" stroke="#191970" d="M2296.7098,-276.2489C2315.0443,-274.6286 2334.1743,-272.9381 2351.8661,-271.3746"/>
<polygon fill="#191970" stroke="#191970" points="2296.273,-272.7738 2286.6199,-277.1406 2296.8892,-279.7466 2296.273,-272.7738"/>
</g>
<!-- Node3 -->
<g id="node3" class="node">
<title>Node3</title>
<g id="a_node3"><a xlink:href="classgko_1_1EnablePolymorphicObject.html" target="_top" xlink:title=" ">
<polygon fill="#ffffff" stroke="#000000" points="1711.5,-144.5 1711.5,-185.5 1879.5,-185.5 1879.5,-144.5 1711.5,-144.5"/>
<text text-anchor="start" x="1719.5" y="-173.5" font-family="Helvetica,sans-Serif" font-size="10.00" fill="#000000">gko::EnablePolymorphicObject</text>
<text text-anchor="start" x="1719.5" y="-162.5" font-family="Helvetica,sans-Serif" font-size="10.00" fill="#000000">&lt; Sellp&lt; ValueType, IndexType</text>
<text text-anchor="middle" x="1795.5" y="-151.5" font-family="Helvetica,sans-Serif" font-size="10.00" fill="#000000"> &gt;, LinOp &gt;</text>
</a>
</g>
</g>
<!-- Node3&#45;&gt;Node2 -->
<g id="edge2" class="edge">
<title>Node3&#45;&gt;Node2</title>
<path fill="none" stroke="#191970" d="M1889.9803,-168.8572C1950.4541,-175.4231 2027.9776,-191.8529 2085,-232 2097.0967,-240.5167 2090.8831,-251.5121 2103,-260 2111.4998,-265.9541 2121.24,-270.4575 2131.2954,-273.8589"/>
<polygon fill="#191970" stroke="#191970" points="1889.9647,-165.3378 1879.6633,-167.814 1889.2604,-172.3023 1889.9647,-165.3378"/>
</g>
<!-- Node4 -->
<g id="node4" class="node">
<title>Node4</title>
<g id="a_node4"><a xlink:href="classgko_1_1EnableAbstractPolymorphicObject.html" target="_top" xlink:title=" ">
<polygon fill="#ffffff" stroke="#000000" points="1340,-38.5 1340,-79.5 1515,-79.5 1515,-38.5 1340,-38.5"/>
<text text-anchor="start" x="1348" y="-67.5" font-family="Helvetica,sans-Serif" font-size="10.00" fill="#000000">gko::EnableAbstractPolymorphic</text>
<text text-anchor="start" x="1348" y="-56.5" font-family="Helvetica,sans-Serif" font-size="10.00" fill="#000000">Object&lt; Sellp&lt; ValueType,</text>
<text text-anchor="middle" x="1427.5" y="-45.5" font-family="Helvetica,sans-Serif" font-size="10.00" fill="#000000"> IndexType &gt;, LinOp &gt;</text>
</a>
</g>
</g>
<!-- Node4&#45;&gt;Node3 -->
<g id="edge3" class="edge">
<title>Node4&#45;&gt;Node3</title>
<path fill="none" stroke="#191970" d="M1525.1057,-55.168C1577.6599,-57.7212 1641.1289,-68.7134 1688,-102 1701.6212,-111.6734 1693.1945,-124.2701 1706,-135 1710.1452,-138.4733 1714.7089,-141.5497 1719.5143,-144.2737"/>
<polygon fill="#191970" stroke="#191970" points="1525.2171,-51.6698 1515.0878,-54.7758 1524.9432,-58.6644 1525.2171,-51.6698"/>
</g>
<!-- Node5 -->
<g id="node5" class="node">
<title>Node5</title>
<g id="a_node5"><a xlink:href="classgko_1_1LinOp.html" target="_top" xlink:title=" ">
<polygon fill="#ffffff" stroke="#000000" points="985.5,-51.5 985.5,-70.5 1053.5,-70.5 1053.5,-51.5 985.5,-51.5"/>
<text text-anchor="middle" x="1019.5" y="-58.5" font-family="Helvetica,sans-Serif" font-size="10.00" fill="#000000">gko::LinOp</text>
</a>
</g>
</g>
<!-- Node5&#45;&gt;Node4 -->
<g id="edge4" class="edge">
<title>Node5&#45;&gt;Node4</title>
<path fill="none" stroke="#191970" d="M1063.6219,-60.7837C1129.4386,-60.4611 1254.6694,-59.8472 1339.6204,-59.4308"/>
<polygon fill="#191970" stroke="#191970" points="1063.5668,-57.2838 1053.5841,-60.8329 1063.6012,-64.2838 1063.5668,-57.2838"/>
</g>
<!-- Node6 -->
<g id="node6" class="node">
<title>Node6</title>
<g id="a_node6"><a xlink:href="classgko_1_1EnableAbstractPolymorphicObject.html" target="_top" xlink:title=" ">
<polygon fill="#ffffff" stroke="#ff0000" points="542,-48 542,-78 717,-78 717,-48 542,-48"/>
<text text-anchor="start" x="550" y="-66" font-family="Helvetica,sans-Serif" font-size="10.00" fill="#000000">gko::EnableAbstractPolymorphic</text>
<text text-anchor="middle" x="629.5" y="-55" font-family="Helvetica,sans-Serif" font-size="10.00" fill="#000000">Object&lt; LinOp &gt;</text>
</a>
</g>
</g>
<!-- Node6&#45;&gt;Node5 -->
<g id="edge5" class="edge">
<title>Node6&#45;&gt;Node5</title>
<path fill="none" stroke="#191970" d="M727.1193,-62.4994C811.2777,-62.0678 927.9924,-61.4693 985.1613,-61.1761"/>
<polygon fill="#191970" stroke="#191970" points="727.0055,-58.9998 717.0236,-62.5512 727.0415,-65.9997 727.0055,-58.9998"/>
</g>
<!-- Node12 -->
<g id="node7" class="node">
<title>Node12</title>
<g id="a_node7"><a xlink:href="classgko_1_1EnableAbstractPolymorphicObject.html" target="_top" xlink:title="This mixin inherits from (a subclass of) PolymorphicObject and provides a base implementation of a ne...">
<polygon fill="#ffffff" stroke="#000000" points="138,-70.5 138,-111.5 336,-111.5 336,-70.5 138,-70.5"/>
<text text-anchor="start" x="146" y="-99.5" font-family="Helvetica,sans-Serif" font-size="10.00" fill="#000000">gko::EnableAbstractPolymorphic</text>
<text text-anchor="start" x="146" y="-88.5" font-family="Helvetica,sans-Serif" font-size="10.00" fill="#000000">Object&lt; AbstractObject, Polymorphic</text>
<text text-anchor="middle" x="237" y="-77.5" font-family="Helvetica,sans-Serif" font-size="10.00" fill="#000000">Base &gt;</text>
</a>
</g>
</g>
<!-- Node12&#45;&gt;Node4 -->
<g id="edge8" class="edge">
<title>Node12&#45;&gt;Node4</title>
<path fill="none" stroke="#ffa500" stroke-dasharray="5,2" d="M292.7467,-66.7038C311.8199,-59.4231 333.5167,-52.2512 354,-48 430.2791,-32.1687 451.138,-40.5787 529,-38 792.4171,-29.276 858.6626,-31.1327 1122,-42 1195.509,-45.0335 1278.8982,-49.7606 1339.9609,-53.4608"/>
<polygon fill="#ffa500" stroke="#ffa500" points="291.3608,-63.4877 283.3227,-70.3898 293.9106,-70.0068 291.3608,-63.4877"/>
<text text-anchor="start" x="769" y="-48" font-family="Helvetica,sans-Serif" font-size="10.00" fill="#000000"> &lt; Sellp&lt; ValueType,</text>
<text text-anchor="middle" x="823.5" y="-37" font-family="Helvetica,sans-Serif" font-size="10.00" fill="#000000"> IndexType &gt;, LinOp &gt;</text>
</g>
<!-- Node12&#45;&gt;Node6 -->
<g id="edge6" class="edge">
<title>Node12&#45;&gt;Node6</title>
<path fill="none" stroke="#ffa500" stroke-dasharray="5,2" d="M307.484,-67.7573C322.6639,-63.7023 338.737,-60.1113 354,-58 416.4318,-49.364 487.5725,-50.9413 541.9222,-54.5068"/>
<polygon fill="#ffa500" stroke="#ffa500" points="306.3589,-64.437 297.6551,-70.4781 308.2265,-71.1833 306.3589,-64.437"/>
<text text-anchor="middle" x="432.5" y="-61" font-family="Helvetica,sans-Serif" font-size="10.00" fill="#000000"> &lt; LinOp &gt;</text>
</g>
<!-- Node14 -->
<g id="node10" class="node">
<title>Node14</title>
<g id="a_node10"><a xlink:href="classgko_1_1EnableAbstractPolymorphicObject.html" target="_top" xlink:title=" ">
<polygon fill="#ffffff" stroke="#000000" points="529,-100.5 529,-141.5 730,-141.5 730,-100.5 529,-100.5"/>
<text text-anchor="start" x="537" y="-129.5" font-family="Helvetica,sans-Serif" font-size="10.00" fill="#000000">gko::EnableAbstractPolymorphic</text>
<text text-anchor="start" x="537" y="-118.5" font-family="Helvetica,sans-Serif" font-size="10.00" fill="#000000">Object&lt; ConcreteObject, Polymorphic</text>
<text text-anchor="middle" x="629.5" y="-107.5" font-family="Helvetica,sans-Serif" font-size="10.00" fill="#000000">Base &gt;</text>
</a>
</g>
</g>
<!-- Node12&#45;&gt;Node14 -->
<g id="edge12" class="edge">
<title>Node12&#45;&gt;Node14</title>
<path fill="none" stroke="#ffa500" stroke-dasharray="5,2" d="M346.5215,-85.5022C396.8055,-84.4883 457.1079,-85.4017 511,-92 526.1366,-93.8533 542.1324,-96.958 557.3067,-100.4637"/>
<polygon fill="#ffa500" stroke="#ffa500" points="346.1936,-82.0087 336.2768,-85.7379 346.3547,-89.0068 346.1936,-82.0087"/>
<text text-anchor="start" x="354" y="-106" font-family="Helvetica,sans-Serif" font-size="10.00" fill="#000000"> &lt; ConcreteObject, Polymorphic</text>
<text text-anchor="middle" x="432.5" y="-95" font-family="Helvetica,sans-Serif" font-size="10.00" fill="#000000">Base &gt;</text>
</g>
<!-- Node21 -->
<g id="node17" class="node">
<title>Node21</title>
<g id="a_node17"><a xlink:href="classgko_1_1EnableAbstractPolymorphicObject.html" target="_top" xlink:title=" ">
<polygon fill="#ffffff" stroke="#000000" points="531,-162.5 531,-203.5 728,-203.5 728,-162.5 531,-162.5"/>
<text text-anchor="start" x="539" y="-191.5" font-family="Helvetica,sans-Serif" font-size="10.00" fill="#000000">gko::EnableAbstractPolymorphic</text>
<text text-anchor="start" x="539" y="-180.5" font-family="Helvetica,sans-Serif" font-size="10.00" fill="#000000">Object&lt; ConcreteLinOp, Polymorphic</text>
<text text-anchor="middle" x="629.5" y="-169.5" font-family="Helvetica,sans-Serif" font-size="10.00" fill="#000000">Base &gt;</text>
</a>
</g>
</g>
<!-- Node12&#45;&gt;Node21 -->
<g id="edge22" class="edge">
<title>Node12&#45;&gt;Node21</title>
<path fill="none" stroke="#ffa500" stroke-dasharray="5,2" d="M334.6295,-113.8839C398.1802,-128.7798 480.3736,-148.0455 541.8328,-162.4513"/>
<polygon fill="#ffa500" stroke="#ffa500" points="335.131,-110.4066 324.5961,-111.5321 333.5335,-117.2219 335.131,-110.4066"/>
<text text-anchor="start" x="356" y="-167" font-family="Helvetica,sans-Serif" font-size="10.00" fill="#000000"> &lt; ConcreteLinOp, Polymorphic</text>
<text text-anchor="middle" x="432.5" y="-156" font-family="Helvetica,sans-Serif" font-size="10.00" fill="#000000">Base &gt;</text>
</g>
<!-- Node11 -->
<g id="node8" class="node">
<title>Node11</title>
<g id="a_node8"><a xlink:title=" ">
<polygon fill="#ffffff" stroke="#bfbfbf" points="0,-163.5 0,-182.5 101,-182.5 101,-163.5 0,-163.5"/>
<text text-anchor="middle" x="50.5" y="-170.5" font-family="Helvetica,sans-Serif" font-size="10.00" fill="#000000">PolymorphicBase</text>
</a>
</g>
</g>
<!-- Node11&#45;&gt;Node12 -->
<g id="edge7" class="edge">
<title>Node11&#45;&gt;Node12</title>
<path fill="none" stroke="#191970" d="M81.6749,-159.2931C111.2807,-146.2761 156.181,-126.5344 190.1047,-111.6189"/>
<polygon fill="#191970" stroke="#191970" points="80.0044,-156.2041 72.2589,-163.4331 82.8219,-162.6121 80.0044,-156.2041"/>
</g>
<!-- Node11&#45;&gt;Node14 -->
<g id="edge11" class="edge">
<title>Node11&#45;&gt;Node14</title>
<path fill="none" stroke="#191970" d="M111.2174,-176.7242C199.8587,-180.9083 369.5387,-184.1679 511,-159 519.3024,-157.5229 520.9822,-155.6126 529,-153 540.4906,-149.2557 552.7364,-145.3151 564.5841,-141.5283"/>
<polygon fill="#191970" stroke="#191970" points="111.2365,-173.221 101.0764,-176.2246 110.892,-180.2125 111.2365,-173.221"/>
</g>
<!-- Node11&#45;&gt;Node21 -->
<g id="edge21" class="edge">
<title>Node11&#45;&gt;Node21</title>
<path fill="none" stroke="#191970" d="M100.0089,-184.344C106.37,-185.4398 112.8183,-186.3748 119,-187 292.3378,-204.5321 336.8026,-189.9392 511,-187 517.4832,-186.8906 524.1651,-186.7476 530.8987,-186.5808"/>
<polygon fill="#191970" stroke="#191970" points="100.6063,-180.8952 90.1355,-182.5111 99.3286,-187.7776 100.6063,-180.8952"/>
</g>
<!-- Node13 -->
<g id="node9" class="node">
<title>Node13</title>
<g id="a_node9"><a xlink:href="classgko_1_1EnablePolymorphicObject.html" target="_top" xlink:title="This mixin inherits from (a subclass of) PolymorphicObject and provides a base implementation of a ne...">
<polygon fill="#ffffff" stroke="#000000" points="917,-106 917,-136 1122,-136 1122,-106 917,-106"/>
<text text-anchor="start" x="925" y="-124" font-family="Helvetica,sans-Serif" font-size="10.00" fill="#000000">gko::EnablePolymorphicObject</text>
<text text-anchor="middle" x="1019.5" y="-113" font-family="Helvetica,sans-Serif" font-size="10.00" fill="#000000">&lt; ConcreteObject, PolymorphicBase &gt;</text>
</a>
</g>
</g>
<!-- Node13&#45;&gt;Node3 -->
<g id="edge9" class="edge">
<title>Node13&#45;&gt;Node3</title>
<path fill="none" stroke="#ffa500" stroke-dasharray="5,2" d="M1132.474,-123.146C1235.5935,-125.5979 1392.1757,-130.5574 1528,-140 1589.421,-144.27 1658.6216,-150.7833 1711.2491,-156.0912"/>
<polygon fill="#ffa500" stroke="#ffa500" points="1132.4322,-119.6442 1122.353,-122.9093 1132.2684,-126.6422 1132.4322,-119.6442"/>
<text text-anchor="start" x="1373" y="-154" font-family="Helvetica,sans-Serif" font-size="10.00" fill="#000000"> &lt; Sellp&lt; ValueType,</text>
<text text-anchor="middle" x="1427.5" y="-143" font-family="Helvetica,sans-Serif" font-size="10.00" fill="#000000"> IndexType &gt;, LinOp &gt;</text>
</g>
<!-- Node20 -->
<g id="node16" class="node">
<title>Node20</title>
<g id="a_node16"><a xlink:href="classgko_1_1EnablePolymorphicObject.html" target="_top" xlink:title=" ">
<polygon fill="#ffffff" stroke="#000000" points="1327,-171 1327,-201 1528,-201 1528,-171 1327,-171"/>
<text text-anchor="start" x="1335" y="-189" font-family="Helvetica,sans-Serif" font-size="10.00" fill="#000000">gko::EnablePolymorphicObject</text>
<text text-anchor="middle" x="1427.5" y="-178" font-family="Helvetica,sans-Serif" font-size="10.00" fill="#000000">&lt; ConcreteLinOp, PolymorphicBase &gt;</text>
</a>
</g>
</g>
<!-- Node13&#45;&gt;Node20 -->
<g id="edge23" class="edge">
<title>Node13&#45;&gt;Node20</title>
<path fill="none" stroke="#ffa500" stroke-dasharray="5,2" d="M1132.312,-127.1694C1186.1663,-131.418 1251.3001,-138.4605 1309,-150 1334.7223,-155.1443 1362.8407,-163.5614 1385.2297,-170.9637"/>
<polygon fill="#ffa500" stroke="#ffa500" points="1132.2833,-123.657 1122.045,-126.3822 1131.7482,-130.6365 1132.2833,-123.657"/>
<text text-anchor="start" x="1148" y="-164" font-family="Helvetica,sans-Serif" font-size="10.00" fill="#000000"> &lt; ConcreteLinOp, Polymorphic</text>
<text text-anchor="middle" x="1224.5" y="-153" font-family="Helvetica,sans-Serif" font-size="10.00" fill="#000000">Base &gt;</text>
</g>
<!-- Node14&#45;&gt;Node13 -->
<g id="edge10" class="edge">
<title>Node14&#45;&gt;Node13</title>
<path fill="none" stroke="#191970" d="M740.4069,-121C795.8628,-121 862.5426,-121 916.818,-121"/>
<polygon fill="#191970" stroke="#191970" points="740.1882,-117.5001 730.1882,-121 740.1882,-124.5001 740.1882,-117.5001"/>
</g>
<!-- Node15 -->
<g id="node11" class="node">
<title>Node15</title>
<g id="a_node11"><a xlink:href="classgko_1_1EnablePolymorphicAssignment.html" target="_top" xlink:title=" ">
<polygon fill="#ffffff" stroke="#000000" points="1331.5,-279 1331.5,-309 1523.5,-309 1523.5,-279 1331.5,-279"/>
<text text-anchor="start" x="1339.5" y="-297" font-family="Helvetica,sans-Serif" font-size="10.00" fill="#000000">gko::EnablePolymorphicAssignment</text>
<text text-anchor="middle" x="1427.5" y="-286" font-family="Helvetica,sans-Serif" font-size="10.00" fill="#000000">&lt; Sellp&lt; ValueType, IndexType &gt; &gt;</text>
</a>
</g>
</g>
<!-- Node15&#45;&gt;Node2 -->
<g id="edge13" class="edge">
<title>Node15&#45;&gt;Node2</title>
<path fill="none" stroke="#191970" d="M1534.0217,-292.637C1693.5064,-290.5962 1990.6113,-286.7945 2131.2996,-284.9942"/>
<polygon fill="#191970" stroke="#191970" points="1533.6732,-289.141 1523.7188,-292.7688 1533.7628,-296.1405 1533.6732,-289.141"/>
</g>
<!-- Node16 -->
<g id="node12" class="node">
<title>Node16</title>
<g id="a_node12"><a xlink:href="classgko_1_1ConvertibleTo.html" target="_top" xlink:title=" ">
<polygon fill="#ffffff" stroke="#000000" points="961.5,-310.5 961.5,-351.5 1077.5,-351.5 1077.5,-310.5 961.5,-310.5"/>
<text text-anchor="start" x="969.5" y="-339.5" font-family="Helvetica,sans-Serif" font-size="10.00" fill="#000000">gko::ConvertibleTo</text>
<text text-anchor="start" x="969.5" y="-328.5" font-family="Helvetica,sans-Serif" font-size="10.00" fill="#000000">&lt; Sellp&lt; ValueType,</text>
<text text-anchor="middle" x="1019.5" y="-317.5" font-family="Helvetica,sans-Serif" font-size="10.00" fill="#000000"> IndexType &gt; &gt;</text>
</a>
</g>
</g>
<!-- Node16&#45;&gt;Node15 -->
<g id="edge14" class="edge">
<title>Node16&#45;&gt;Node15</title>
<path fill="none" stroke="#191970" d="M1087.8803,-329.0772C1146.6566,-326.9249 1233.6095,-322.55 1309,-314 1320.8167,-312.6599 1333.2459,-310.925 1345.4292,-309.0376"/>
<polygon fill="#191970" stroke="#191970" points="1087.4763,-325.5892 1077.6066,-329.4413 1087.7243,-332.5849 1087.4763,-325.5892"/>
</g>
<!-- Node17 -->
<g id="node13" class="node">
<title>Node17</title>
<g id="a_node13"><a xlink:href="classgko_1_1ConvertibleTo.html" target="_top" xlink:title="ConvertibleTo interface is used to mark that the implementer can be converted to the object of Result...">
<polygon fill="#ffffff" stroke="#000000" points="576,-346 576,-376 683,-376 683,-346 576,-346"/>
<text text-anchor="start" x="584" y="-364" font-family="Helvetica,sans-Serif" font-size="10.00" fill="#000000">gko::ConvertibleTo</text>
<text text-anchor="middle" x="629.5" y="-353" font-family="Helvetica,sans-Serif" font-size="10.00" fill="#000000">&lt; ResultType &gt;</text>
</a>
</g>
</g>
<!-- Node17&#45;&gt;Node16 -->
<g id="edge15" class="edge">
<title>Node17&#45;&gt;Node16</title>
<path fill="none" stroke="#ffa500" stroke-dasharray="5,2" d="M693.264,-350.7225C710.9501,-348.1801 730.186,-345.7004 748,-344 821.3998,-336.9936 906.3419,-333.6971 961.393,-332.1918"/>
<polygon fill="#ffa500" stroke="#ffa500" points="692.4379,-347.3061 683.0521,-352.2212 693.4544,-354.2319 692.4379,-347.3061"/>
<text text-anchor="start" x="772" y="-358" font-family="Helvetica,sans-Serif" font-size="10.00" fill="#000000"> &lt; Sellp&lt; ValueType,</text>
<text text-anchor="middle" x="823.5" y="-347" font-family="Helvetica,sans-Serif" font-size="10.00" fill="#000000"> IndexType &gt; &gt;</text>
</g>
<!-- Node18 -->
<g id="node14" class="node">
<title>Node18</title>
<g id="a_node14"><a xlink:href="classgko_1_1EnablePolymorphicAssignment.html" target="_top" xlink:title="This mixin is used to enable a default PolymorphicObject::copy_from() implementation for objects that...">
<polygon fill="#ffffff" stroke="#000000" points="923.5,-261 923.5,-291 1115.5,-291 1115.5,-261 923.5,-261"/>
<text text-anchor="start" x="931.5" y="-279" font-family="Helvetica,sans-Serif" font-size="10.00" fill="#000000">gko::EnablePolymorphicAssignment</text>
<text text-anchor="middle" x="1019.5" y="-268" font-family="Helvetica,sans-Serif" font-size="10.00" fill="#000000">&lt; ConcreteType, ResultType &gt;</text>
</a>
</g>
</g>
<!-- Node17&#45;&gt;Node18 -->
<g id="edge17" class="edge">
<title>Node17&#45;&gt;Node18</title>
<path fill="none" stroke="#191970" d="M692.7293,-343.7148C710.5509,-339.0457 729.9896,-334.143 748,-330 811.2279,-315.4554 883.272,-301.2339 937.2507,-291.0394"/>
<polygon fill="#191970" stroke="#191970" points="691.7901,-340.3428 683.0141,-346.2784 693.5761,-347.1111 691.7901,-340.3428"/>
</g>
<!-- Node23 -->
<g id="node19" class="node">
<title>Node23</title>
<g id="a_node19"><a xlink:href="classgko_1_1ConvertibleTo.html" target="_top" xlink:title=" ">
<polygon fill="#ffffff" stroke="#000000" points="964.5,-212 964.5,-242 1074.5,-242 1074.5,-212 964.5,-212"/>
<text text-anchor="start" x="972.5" y="-230" font-family="Helvetica,sans-Serif" font-size="10.00" fill="#000000">gko::ConvertibleTo</text>
<text text-anchor="middle" x="1019.5" y="-219" font-family="Helvetica,sans-Serif" font-size="10.00" fill="#000000">&lt; ConcreteLinOp &gt;</text>
</a>
</g>
</g>
<!-- Node17&#45;&gt;Node23 -->
<g id="edge26" class="edge">
<title>Node17&#45;&gt;Node23</title>
<path fill="none" stroke="#ffa500" stroke-dasharray="5,2" d="M655.892,-339.7324C678.907,-322.2326 713.8668,-298.0938 748,-284 819.5616,-254.4517 908.3032,-239.5371 964.4327,-232.529"/>
<polygon fill="#ffa500" stroke="#ffa500" points="653.7499,-336.9644 647.9769,-345.8484 658.0299,-342.5035 653.7499,-336.9644"/>
<text text-anchor="middle" x="823.5" y="-287" font-family="Helvetica,sans-Serif" font-size="10.00" fill="#000000"> &lt; ConcreteLinOp &gt;</text>
</g>
<!-- Node24 -->
<g id="node20" class="node">
<title>Node24</title>
<g id="a_node20"><a xlink:href="classgko_1_1ConvertibleTo.html" target="_top" xlink:title=" ">
<polygon fill="#ffffff" stroke="#000000" points="1141,-443.5 1141,-484.5 1308,-484.5 1308,-443.5 1141,-443.5"/>
<text text-anchor="start" x="1149" y="-472.5" font-family="Helvetica,sans-Serif" font-size="10.00" fill="#000000">gko::ConvertibleTo</text>
<text text-anchor="start" x="1149" y="-461.5" font-family="Helvetica,sans-Serif" font-size="10.00" fill="#000000">&lt; Sellp&lt; next_precision</text>
<text text-anchor="middle" x="1224.5" y="-450.5" font-family="Helvetica,sans-Serif" font-size="10.00" fill="#000000">&lt; ValueType &gt;, IndexType &gt; &gt;</text>
</a>
</g>
</g>
<!-- Node17&#45;&gt;Node24 -->
<g id="edge29" class="edge">
<title>Node17&#45;&gt;Node24</title>
<path fill="none" stroke="#ffa500" stroke-dasharray="5,2" d="M653.6924,-382.9114C676.2709,-401.8644 711.8273,-428.0463 748,-440 879.9311,-483.5982 1043.5615,-480.3641 1140.6987,-472.9533"/>
<polygon fill="#ffa500" stroke="#ffa500" points="655.8519,-380.1525 645.9841,-376.2955 651.2929,-385.4643 655.8519,-380.1525"/>
<text text-anchor="start" x="748" y="-484" font-family="Helvetica,sans-Serif" font-size="10.00" fill="#000000"> &lt; Sellp&lt; next_precision</text>
<text text-anchor="middle" x="823.5" y="-473" font-family="Helvetica,sans-Serif" font-size="10.00" fill="#000000">&lt; ValueType &gt;, IndexType &gt; &gt;</text>
</g>
<!-- Node25 -->
<g id="node21" class="node">
<title>Node25</title>
<g id="a_node21"><a xlink:href="classgko_1_1ConvertibleTo.html" target="_top" xlink:title=" ">
<polygon fill="#ffffff" stroke="#000000" points="1546,-409 1546,-439 1688,-439 1688,-409 1546,-409"/>
<text text-anchor="start" x="1554" y="-427" font-family="Helvetica,sans-Serif" font-size="10.00" fill="#000000">gko::ConvertibleTo</text>
<text text-anchor="middle" x="1617" y="-416" font-family="Helvetica,sans-Serif" font-size="10.00" fill="#000000">&lt; Dense&lt; ValueType &gt; &gt;</text>
</a>
</g>
</g>
<!-- Node17&#45;&gt;Node25 -->
<g id="edge31" class="edge">
<title>Node17&#45;&gt;Node25</title>
<path fill="none" stroke="#ffa500" stroke-dasharray="5,2" d="M683.8073,-379.0363C703.766,-384.8877 726.6944,-390.7134 748,-394 1041.3512,-439.2525 1396.7217,-432.6889 1545.7861,-427.21"/>
<polygon fill="#ffa500" stroke="#ffa500" points="684.5519,-375.6055 673.9677,-376.0804 682.538,-382.3095 684.5519,-375.6055"/>
<text text-anchor="middle" x="1019.5" y="-429" font-family="Helvetica,sans-Serif" font-size="10.00" fill="#000000"> &lt; Dense&lt; ValueType &gt; &gt;</text>
</g>
<!-- Node26 -->
<g id="node22" class="node">
<title>Node26</title>
<g id="a_node22"><a xlink:href="classgko_1_1ConvertibleTo.html" target="_top" xlink:title=" ">
<polygon fill="#ffffff" stroke="#000000" points="1903,-351 1903,-381 2085,-381 2085,-351 1903,-351"/>
<text text-anchor="start" x="1911" y="-369" font-family="Helvetica,sans-Serif" font-size="10.00" fill="#000000">gko::ConvertibleTo</text>
<text text-anchor="middle" x="1994" y="-358" font-family="Helvetica,sans-Serif" font-size="10.00" fill="#000000">&lt; Csr&lt; ValueType, IndexType &gt; &gt;</text>
</a>
</g>
</g>
<!-- Node17&#45;&gt;Node26 -->
<g id="edge33" class="edge">
<title>Node17&#45;&gt;Node26</title>
<path fill="none" stroke="#ffa500" stroke-dasharray="5,2" d="M693.1247,-366.0046C770.2912,-371.6339 904.3454,-380 1019.5,-380 1019.5,-380 1019.5,-380 1617,-380 1714.5898,-380 1826.2916,-375.2574 1902.6187,-371.2928"/>
<polygon fill="#ffa500" stroke="#ffa500" points="693.3121,-362.509 683.0817,-365.264 692.7972,-369.4901 693.3121,-362.509"/>
<text text-anchor="middle" x="1224.5" y="-383" font-family="Helvetica,sans-Serif" font-size="10.00" fill="#000000"> &lt; Csr&lt; ValueType, IndexType &gt; &gt;</text>
</g>
<!-- Node18&#45;&gt;Node15 -->
<g id="edge16" class="edge">
<title>Node18&#45;&gt;Node15</title>
<path fill="none" stroke="#ffa500" stroke-dasharray="5,2" d="M1125.7328,-280.6867C1189.3309,-283.4925 1269.5326,-287.0308 1331.2658,-289.7544"/>
<polygon fill="#ffa500" stroke="#ffa500" points="1125.8182,-277.1872 1115.6737,-280.243 1125.5096,-284.1804 1125.8182,-277.1872"/>
<text text-anchor="start" x="1173" y="-302" font-family="Helvetica,sans-Serif" font-size="10.00" fill="#000000"> &lt; Sellp&lt; ValueType,</text>
<text text-anchor="middle" x="1224.5" y="-291" font-family="Helvetica,sans-Serif" font-size="10.00" fill="#000000"> IndexType &gt; &gt;</text>
</g>
<!-- Node22 -->
<g id="node18" class="node">
<title>Node22</title>
<g id="a_node18"><a xlink:href="classgko_1_1EnablePolymorphicAssignment.html" target="_top" xlink:title=" ">
<polygon fill="#ffffff" stroke="#000000" points="1331.5,-221 1331.5,-251 1523.5,-251 1523.5,-221 1331.5,-221"/>
<text text-anchor="start" x="1339.5" y="-239" font-family="Helvetica,sans-Serif" font-size="10.00" fill="#000000">gko::EnablePolymorphicAssignment</text>
<text text-anchor="middle" x="1427.5" y="-228" font-family="Helvetica,sans-Serif" font-size="10.00" fill="#000000">&lt; ConcreteLinOp &gt;</text>
</a>
</g>
</g>
<!-- Node18&#45;&gt;Node22 -->
<g id="edge27" class="edge">
<title>Node18&#45;&gt;Node22</title>
<path fill="none" stroke="#ffa500" stroke-dasharray="5,2" d="M1125.7328,-265.585C1189.3309,-259.3499 1269.5326,-251.487 1331.2658,-245.4347"/>
<polygon fill="#ffa500" stroke="#ffa500" points="1125.2844,-262.1121 1115.6737,-266.5712 1125.9675,-269.0787 1125.2844,-262.1121"/>
<text text-anchor="middle" x="1224.5" y="-267" font-family="Helvetica,sans-Serif" font-size="10.00" fill="#000000"> &lt; ConcreteLinOp &gt;</text>
</g>
<!-- Node19 -->
<g id="node15" class="node">
<title>Node19</title>
<g id="a_node15"><a xlink:href="classgko_1_1EnableLinOp.html" target="_top" xlink:title="The EnableLinOp mixin can be used to provide sensible default implementations of the majority of the ...">
<polygon fill="#ffffff" stroke="#000000" points="1717.5,-221 1717.5,-251 1873.5,-251 1873.5,-221 1717.5,-221"/>
<text text-anchor="start" x="1725.5" y="-239" font-family="Helvetica,sans-Serif" font-size="10.00" fill="#000000">gko::EnableLinOp&lt; Concrete</text>
<text text-anchor="middle" x="1795.5" y="-228" font-family="Helvetica,sans-Serif" font-size="10.00" fill="#000000">LinOp, PolymorphicBase &gt;</text>
</a>
</g>
</g>
<!-- Node19&#45;&gt;Node2 -->
<g id="edge18" class="edge">
<title>Node19&#45;&gt;Node2</title>
<path fill="none" stroke="#ffa500" stroke-dasharray="5,2" d="M1883.7895,-235.5741C1941.5211,-236.7424 2018.3149,-241.0421 2085,-254 2093.2779,-255.6085 2094.8778,-257.7328 2103,-260 2114.2678,-263.1452 2126.2951,-266.1747 2138.0532,-268.96"/>
<polygon fill="#ffa500" stroke="#ffa500" points="1883.6627,-232.0714 1873.6031,-235.3963 1883.5405,-239.0704 1883.6627,-232.0714"/>
<text text-anchor="start" x="1942.5" y="-268" font-family="Helvetica,sans-Serif" font-size="10.00" fill="#000000"> &lt; Sellp&lt; ValueType,</text>
<text text-anchor="middle" x="1994" y="-257" font-family="Helvetica,sans-Serif" font-size="10.00" fill="#000000"> IndexType &gt; &gt;</text>
</g>
<!-- Node20&#45;&gt;Node19 -->
<g id="edge19" class="edge">
<title>Node20&#45;&gt;Node19</title>
<path fill="none" stroke="#191970" d="M1538.319,-201.0569C1596.0103,-208.8954 1665.1683,-218.2919 1717.2315,-225.3657"/>
<polygon fill="#191970" stroke="#191970" points="1538.4378,-197.541 1528.0576,-199.6627 1537.4953,-204.4773 1538.4378,-197.541"/>
</g>
<!-- Node21&#45;&gt;Node20 -->
<g id="edge20" class="edge">
<title>Node21&#45;&gt;Node20</title>
<path fill="none" stroke="#191970" d="M738.1848,-183.4086C893.3648,-183.992 1176.2677,-185.0555 1326.8777,-185.6217"/>
<polygon fill="#191970" stroke="#191970" points="738.164,-179.9086 728.1508,-183.3709 738.1376,-186.9085 738.164,-179.9086"/>
</g>
<!-- Node22&#45;&gt;Node19 -->
<g id="edge24" class="edge">
<title>Node22&#45;&gt;Node19</title>
<path fill="none" stroke="#191970" d="M1533.7539,-236C1592.4252,-236 1664.0194,-236 1717.4914,-236"/>
<polygon fill="#191970" stroke="#191970" points="1533.707,-232.5001 1523.707,-236 1533.707,-239.5001 1533.707,-232.5001"/>
</g>
<!-- Node23&#45;&gt;Node22 -->
<g id="edge25" class="edge">
<title>Node23&#45;&gt;Node22</title>
<path fill="none" stroke="#191970" d="M1084.8725,-228.442C1151.4073,-229.9097 1255.2785,-232.201 1331.2215,-233.8762"/>
<polygon fill="#191970" stroke="#191970" points="1084.5995,-224.9353 1074.5247,-228.2138 1084.445,-231.9336 1084.5995,-224.9353"/>
</g>
<!-- Node24&#45;&gt;Node1 -->
<g id="edge28" class="edge">
<title>Node24&#45;&gt;Node1</title>
<path fill="none" stroke="#191970" d="M1318.8185,-464C1398.3249,-464 1515.1025,-464 1617,-464 1617,-464 1617,-464 2209,-464 2317.0801,-464 2393.8717,-326.8831 2416.8482,-280.2848"/>
<polygon fill="#191970" stroke="#191970" points="1318.3396,-460.5001 1308.3396,-464 1318.3395,-467.5001 1318.3396,-460.5001"/>
</g>
<!-- Node25&#45;&gt;Node1 -->
<g id="edge30" class="edge">
<title>Node25&#45;&gt;Node1</title>
<path fill="none" stroke="#191970" d="M1698.3803,-429.8119C1832.8759,-436.1835 2107.2963,-435.3545 2315,-344 2351.5826,-327.9098 2387.927,-298.0667 2408.0289,-280.0229"/>
<polygon fill="#191970" stroke="#191970" points="1698.3196,-426.3046 1688.1572,-429.3007 1697.9699,-433.2958 1698.3196,-426.3046"/>
</g>
<!-- Node26&#45;&gt;Node1 -->
<g id="edge32" class="edge">
<title>Node26&#45;&gt;Node1</title>
<path fill="none" stroke="#191970" d="M2095.1494,-353.5391C2158.9684,-344.3315 2242.7058,-329.7652 2315,-309 2341.4791,-301.3943 2370.343,-289.5743 2391.7129,-280.0997"/>
<polygon fill="#191970" stroke="#191970" points="2094.4901,-350.0976 2085.0827,-354.971 2095.4759,-357.0278 2094.4901,-350.0976"/>
</g>
<!-- Node27 -->
<g id="node23" class="node">
<title>Node27</title>
<g id="a_node23"><a xlink:href="classgko_1_1DiagonalExtractable.html" target="_top" xlink:title="The diagonal of a LinOp implementing this interface can be extracted.">
<polygon fill="#ffffff" stroke="#000000" points="2139,-220 2139,-250 2279,-250 2279,-220 2139,-220"/>
<text text-anchor="start" x="2147" y="-238" font-family="Helvetica,sans-Serif" font-size="10.00" fill="#000000">gko::DiagonalExtractable</text>
<text text-anchor="middle" x="2209" y="-227" font-family="Helvetica,sans-Serif" font-size="10.00" fill="#000000">&lt; ValueType &gt;</text>
</a>
</g>
</g>
<!-- Node27&#45;&gt;Node1 -->
<g id="edge34" class="edge">
<title>Node27&#45;&gt;Node1</title>
<path fill="none" stroke="#191970" d="M2289.0682,-246.1723C2309.6349,-249.0421 2331.6373,-252.1122 2351.7808,-254.9229"/>
<polygon fill="#191970" stroke="#191970" points="2289.4893,-242.6972 2279.1015,-244.7816 2288.5219,-249.6301 2289.4893,-242.6972"/>
</g>
<!-- Node28 -->
<g id="node24" class="node">
<title>Node28</title>
<g id="a_node24"><a xlink:href="classgko_1_1DiagonalLinOpExtractable.html" target="_top" xlink:title="The diagonal of a LinOp can be extracted.">
<polygon fill="#ffffff" stroke="#000000" points="1712,-106.5 1712,-125.5 1879,-125.5 1879,-106.5 1712,-106.5"/>
<text text-anchor="middle" x="1795.5" y="-113.5" font-family="Helvetica,sans-Serif" font-size="10.00" fill="#000000">gko::DiagonalLinOpExtractable</text>
</a>
</g>
</g>
<!-- Node28&#45;&gt;Node27 -->
<g id="edge35" class="edge">
<title>Node28&#45;&gt;Node27</title>
<path fill="none" stroke="#191970" d="M1889.3279,-109.8553C1951.1945,-110.7412 2030.5549,-121.9132 2085,-166 2101.7405,-179.5556 2086.615,-197.0167 2103,-211 2113.1903,-219.6966 2125.8816,-225.4153 2138.9028,-229.1391"/>
<polygon fill="#191970" stroke="#191970" points="1889.1848,-106.3546 1879.1655,-109.7991 1889.146,-113.3545 1889.1848,-106.3546"/>
</g>
<!-- Node29 -->
<g id="node25" class="node">
<title>Node29</title>
<g id="a_node25"><a xlink:href="classgko_1_1ReadableFromMatrixData.html" target="_top" xlink:title="A LinOp implementing this interface can read its data from a matrix_data structure.">
<polygon fill="#ffffff" stroke="#000000" points="2127,-171 2127,-201 2291,-201 2291,-171 2127,-171"/>
<text text-anchor="start" x="2135" y="-189" font-family="Helvetica,sans-Serif" font-size="10.00" fill="#000000">gko::ReadableFromMatrixData</text>
<text text-anchor="middle" x="2209" y="-178" font-family="Helvetica,sans-Serif" font-size="10.00" fill="#000000">&lt; ValueType, IndexType &gt;</text>
</a>
</g>
</g>
<!-- Node29&#45;&gt;Node1 -->
<g id="edge36" class="edge">
<title>Node29&#45;&gt;Node1</title>
<path fill="none" stroke="#191970" d="M2292.4056,-203.7573C2300.1126,-205.9712 2307.7456,-208.3865 2315,-211 2344.4054,-221.5938 2376.2417,-237.9869 2397.8701,-249.9331"/>
<polygon fill="#191970" stroke="#191970" points="2293.1973,-200.3451 2282.6267,-201.0611 2291.3367,-207.0933 2293.1973,-200.3451"/>
</g>
<!-- Node30 -->
<g id="node26" class="node">
<title>Node30</title>
<g id="a_node26"><a xlink:href="classgko_1_1WritableToMatrixData.html" target="_top" xlink:title="A LinOp implementing this interface can write its data to a matrix_data structure.">
<polygon fill="#ffffff" stroke="#000000" points="2136,-122 2136,-152 2282,-152 2282,-122 2136,-122"/>
<text text-anchor="start" x="2144" y="-140" font-family="Helvetica,sans-Serif" font-size="10.00" fill="#000000">gko::WritableToMatrixData</text>
<text text-anchor="middle" x="2209" y="-129" font-family="Helvetica,sans-Serif" font-size="10.00" fill="#000000">&lt; ValueType, IndexType &gt;</text>
</a>
</g>
</g>
<!-- Node30&#45;&gt;Node1 -->
<g id="edge37" class="edge">
<title>Node30&#45;&gt;Node1</title>
<path fill="none" stroke="#191970" d="M2291.7021,-151.9472C2299.7958,-154.7474 2307.7027,-158.0667 2315,-162 2356.712,-184.4828 2394.2068,-227.0574 2412.3982,-249.7922"/>
<polygon fill="#191970" stroke="#191970" points="2292.7312,-148.6017 2282.1404,-148.8927 2290.601,-155.2698 2292.7312,-148.6017"/>
</g>
<!-- Node31 -->
<g id="node27" class="node">
<title>Node31</title>
<g id="a_node27"><a xlink:href="classgko_1_1EnableAbsoluteComputation.html" target="_top" xlink:title=" ">
<polygon fill="#ffffff" stroke="#000000" points="2103,-33.5 2103,-74.5 2315,-74.5 2315,-33.5 2103,-33.5"/>
<text text-anchor="start" x="2111" y="-62.5" font-family="Helvetica,sans-Serif" font-size="10.00" fill="#000000">gko::EnableAbsoluteComputation</text>
<text text-anchor="start" x="2111" y="-51.5" font-family="Helvetica,sans-Serif" font-size="10.00" fill="#000000">&lt; remove_complex&lt; Sellp&lt; ValueType,</text>
<text text-anchor="middle" x="2209" y="-40.5" font-family="Helvetica,sans-Serif" font-size="10.00" fill="#000000"> IndexType &gt; &gt; &gt;</text>
</a>
</g>
</g>
<!-- Node31&#45;&gt;Node1 -->
<g id="edge38" class="edge">
<title>Node31&#45;&gt;Node1</title>
<path fill="none" stroke="#191970" d="M2265.2891,-79.3727C2282.3049,-88.5545 2300.3451,-99.9301 2315,-113 2362.0155,-154.9305 2400.3696,-220.6006 2416.1897,-249.9502"/>
<polygon fill="#191970" stroke="#191970" points="2266.453,-76.0317 2255.9693,-74.5005 2263.2099,-82.2352 2266.453,-76.0317"/>
</g>
<!-- Node32 -->
<g id="node28" class="node">
<title>Node32</title>
<g id="a_node28"><a xlink:href="classgko_1_1AbsoluteComputable.html" target="_top" xlink:title="The AbsoluteComputable is an interface that allows to get the component wise absolute of a LinOp.">
<polygon fill="#ffffff" stroke="#000000" points="1356,-.5 1356,-19.5 1499,-19.5 1499,-.5 1356,-.5"/>
<text text-anchor="middle" x="1427.5" y="-7.5" font-family="Helvetica,sans-Serif" font-size="10.00" fill="#000000">gko::AbsoluteComputable</text>
</a>
</g>
</g>
<!-- Node32&#45;&gt;Node31 -->
<g id="edge39" class="edge">
<title>Node32&#45;&gt;Node31</title>
<path fill="none" stroke="#191970" d="M1509.288,-12.521C1600.8526,-15.5472 1753.6307,-21.2063 1885,-29 1957.7912,-33.3185 2039.6701,-39.6489 2102.9053,-44.859"/>
<polygon fill="#191970" stroke="#191970" points="1509.3623,-9.0216 1499.2529,-12.1918 1509.1327,-16.0179 1509.3623,-9.0216"/>
</g>
<!-- Node33 -->
<g id="node29" class="node">
<title>Node33</title>
<g id="a_node29"><a xlink:href="classgko_1_1EnableAbsoluteComputation.html" target="_top" xlink:title="The EnableAbsoluteComputation mixin provides the default implementations of compute_absolute_linop an...">
<polygon fill="#ffffff" stroke="#000000" points="1706,-39 1706,-69 1885,-69 1885,-39 1706,-39"/>
<text text-anchor="start" x="1714" y="-57" font-family="Helvetica,sans-Serif" font-size="10.00" fill="#000000">gko::EnableAbsoluteComputation</text>
<text text-anchor="middle" x="1795.5" y="-46" font-family="Helvetica,sans-Serif" font-size="10.00" fill="#000000">&lt; AbsoluteLinOp &gt;</text>
</a>
</g>
</g>
<!-- Node32&#45;&gt;Node33 -->
<g id="edge41" class="edge">
<title>Node32&#45;&gt;Node33</title>
<path fill="none" stroke="#191970" d="M1509.6004,-19.8164C1567.8732,-26.7838 1646.0623,-36.1325 1705.9431,-43.2921"/>
<polygon fill="#191970" stroke="#191970" points="1509.6725,-16.3001 1499.3277,-18.5881 1508.8414,-23.2506 1509.6725,-16.3001"/>
</g>
<!-- Node33&#45;&gt;Node31 -->
<g id="edge40" class="edge">
<title>Node33&#45;&gt;Node31</title>
<path fill="none" stroke="#ffa500" stroke-dasharray="5,2" d="M1895.5306,-54C1958.2894,-54 2039.1227,-54 2102.9855,-54"/>
<polygon fill="#ffa500" stroke="#ffa500" points="1895.2234,-50.5001 1885.2233,-54 1895.2233,-57.5001 1895.2234,-50.5001"/>
<text text-anchor="start" x="1918.5" y="-68" font-family="Helvetica,sans-Serif" font-size="10.00" fill="#000000"> &lt; remove_complex&lt; Sellp</text>
<text text-anchor="middle" x="1994" y="-57" font-family="Helvetica,sans-Serif" font-size="10.00" fill="#000000">&lt; ValueType, IndexType &gt; &gt; &gt;</text>
</g>
</g>
</svg>
