<?xml version="1.0" encoding="UTF-8" standalone="no"?>
<!DOCTYPE svg PUBLIC "-//W3C//DTD SVG 1.1//EN"
 "http://www.w3.org/Graphics/SVG/1.1/DTD/svg11.dtd">
<!-- Generated by graphviz version 2.40.1 (20161225.0304)
 -->
<!-- Title: gko::experimental::reorder::Rcm&lt; IndexType &gt; Pages: 1 -->
<!--zoomable 308 -->
<svg id="main" version="1.1" xmlns="http://www.w3.org/2000/svg" xmlns:xlink="http://www.w3.org/1999/xlink" xml:space="preserve" onload="init(evt)">
<style type="text/css"><![CDATA[
.edge:hover path { stroke: red; }
.edge:hover polygon { stroke: red; fill: red; }
]]></style>
<script type="text/javascript"><![CDATA[
var edges = document.getElementsByTagName('g');
if (edges && edges.length) {
  for (var i=0;i<edges.length;i++) {
    if (edges[i].id.substr(0,4)=='edge') {
      edges[i].setAttribute('class','edge');
    }
  }
}
]]></script>
        <defs>
                <circle id="rim" cx="0" cy="0" r="7"/>
                <circle id="rim2" cx="0" cy="0" r="3.5"/>
                <g id="zoomPlus">
                        <use xlink:href="#rim" fill="#404040">
                                <set attributeName="fill" to="#808080" begin="zoomplus.mouseover" end="zoomplus.mouseout"/>
                        </use>
                        <path d="M-4,0h8M0,-4v8" fill="none" stroke="white" stroke-width="1.5" pointer-events="none"/>
                </g>
                <g id="zoomMin">
                        <use xlink:href="#rim" fill="#404040">
                                <set attributeName="fill" to="#808080" begin="zoomminus.mouseover" end="zoomminus.mouseout"/>
                        </use>
                        <path d="M-4,0h8" fill="none" stroke="white" stroke-width="1.5" pointer-events="none"/>
                </g>
                <g id="dirArrow">
                        <path fill="none" stroke="white" stroke-width="1.5" d="M0,-3.0v7 M-2.5,-0.5L0,-3.0L2.5,-0.5"/>
                </g>
               <g id="resetDef">
                       <use xlink:href="#rim2" fill="#404040">
                               <set attributeName="fill" to="#808080" begin="reset.mouseover" end="reset.mouseout"/>
                       </use>
               </g>
        </defs>

<script type="text/javascript">
var viewWidth = 2253;
var viewHeight = 308;
var sectionId = 'dynsection-0';
</script>
<script xlink:href="svgpan.js"/>
<svg id="graph" class="graph">
<g id="viewport">
<title>gko::experimental::reorder::Rcm&lt; IndexType &gt;</title>
<polygon fill="#ffffff" stroke="transparent" points="-4,4 -4,-304 2249,-304 2249,4 -4,4"/>
<!-- Node1 -->
<g id="node1" class="node">
<title>Node1</title>
<g id="a_node1"><a xlink:title="Rcm (Reverse Cuthill&#45;McKee) is a reordering algorithm minimizing the bandwidth of a matrix.">
<polygon fill="#bfbfbf" stroke="#000000" points="2093,-70.5 2093,-100.5 2245,-100.5 2245,-70.5 2093,-70.5"/>
<text text-anchor="start" x="2101" y="-88.5" font-family="Helvetica,sans-Serif" font-size="10.00" fill="#000000">gko::experimental::</text>
<text text-anchor="middle" x="2169" y="-77.5" font-family="Helvetica,sans-Serif" font-size="10.00" fill="#000000">reorder::Rcm&lt; IndexType &gt;</text>
</a>
</g>
</g>
<!-- Node2 -->
<g id="node2" class="node">
<title>Node2</title>
<g id="a_node2"><a xlink:href="classgko_1_1EnablePolymorphicObject.html" target="_top" xlink:title=" ">
<polygon fill="#ffffff" stroke="#000000" points="1854,-95.5 1854,-125.5 2056,-125.5 2056,-95.5 1854,-95.5"/>
<text text-anchor="start" x="1862" y="-113.5" font-family="Helvetica,sans-Serif" font-size="10.00" fill="#000000">gko::EnablePolymorphicObject</text>
<text text-anchor="middle" x="1955" y="-102.5" font-family="Helvetica,sans-Serif" font-size="10.00" fill="#000000">&lt; Rcm&lt; IndexType &gt;, LinOpFactory &gt;</text>
</a>
</g>
</g>
<!-- Node2&#45;&gt;Node1 -->
<g id="edge1" class="edge">
<title>Node2&#45;&gt;Node1</title>
<path fill="none" stroke="#191970" d="M2066.1773,-97.512C2075.1473,-96.4641 2084.078,-95.4208 2092.717,-94.4116"/>
<polygon fill="#191970" stroke="#191970" points="2065.573,-94.0587 2056.0467,-98.6955 2066.3853,-101.0114 2065.573,-94.0587"/>
</g>
<!-- Node3 -->
<g id="node3" class="node">
<title>Node3</title>
<g id="a_node3"><a xlink:href="classgko_1_1EnableAbstractPolymorphicObject.html" target="_top" xlink:title=" ">
<polygon fill="#ffffff" stroke="#000000" points="1514.5,-138 1514.5,-179 1689.5,-179 1689.5,-138 1514.5,-138"/>
<text text-anchor="start" x="1522.5" y="-167" font-family="Helvetica,sans-Serif" font-size="10.00" fill="#000000">gko::EnableAbstractPolymorphic</text>
<text text-anchor="start" x="1522.5" y="-156" font-family="Helvetica,sans-Serif" font-size="10.00" fill="#000000">Object&lt; Rcm&lt; IndexType &gt;,</text>
<text text-anchor="middle" x="1602" y="-145" font-family="Helvetica,sans-Serif" font-size="10.00" fill="#000000"> LinOpFactory &gt;</text>
</a>
</g>
</g>
<!-- Node3&#45;&gt;Node2 -->
<g id="edge2" class="edge">
<title>Node3&#45;&gt;Node2</title>
<path fill="none" stroke="#191970" d="M1699.7995,-145.2015C1747.7993,-138.6746 1805.5643,-130.8199 1853.9884,-124.2353"/>
<polygon fill="#191970" stroke="#191970" points="1699.1492,-141.7576 1689.712,-146.5732 1700.0924,-148.6938 1699.1492,-141.7576"/>
</g>
<!-- Node4 -->
<g id="node4" class="node">
<title>Node4</title>
<g id="a_node4"><a xlink:href="classgko_1_1LinOpFactory.html" target="_top" xlink:title="A LinOpFactory represents a higher order mapping which transforms one linear operator into another.">
<polygon fill="#ffffff" stroke="#000000" points="1244.5,-198 1244.5,-217 1348.5,-217 1348.5,-198 1244.5,-198"/>
<text text-anchor="middle" x="1296.5" y="-205" font-family="Helvetica,sans-Serif" font-size="10.00" fill="#000000">gko::LinOpFactory</text>
</a>
</g>
</g>
<!-- Node4&#45;&gt;Node3 -->
<g id="edge3" class="edge">
<title>Node4&#45;&gt;Node3</title>
<path fill="none" stroke="#191970" d="M1358.555,-197.5468C1403.4114,-190.3522 1464.6264,-180.5337 1514.4492,-172.5425"/>
<polygon fill="#191970" stroke="#191970" points="1357.9897,-194.0927 1348.6702,-199.1323 1359.0983,-201.0043 1357.9897,-194.0927"/>
</g>
<!-- Node5 -->
<g id="node5" class="node">
<title>Node5</title>
<g id="a_node5"><a xlink:title=" ">
<polygon fill="#ffffff" stroke="#bfbfbf" points="876,-199 876,-240 1002,-240 1002,-199 876,-199"/>
<text text-anchor="start" x="884" y="-228" font-family="Helvetica,sans-Serif" font-size="10.00" fill="#000000">gko::AbstractFactory</text>
<text text-anchor="start" x="884" y="-217" font-family="Helvetica,sans-Serif" font-size="10.00" fill="#000000">&lt; LinOp, std::shared</text>
<text text-anchor="middle" x="939" y="-206" font-family="Helvetica,sans-Serif" font-size="10.00" fill="#000000">_ptr&lt; const LinOp &gt; &gt;</text>
</a>
</g>
</g>
<!-- Node5&#45;&gt;Node4 -->
<g id="edge4" class="edge">
<title>Node5&#45;&gt;Node4</title>
<path fill="none" stroke="#191970" d="M1012.4697,-217.0339C1081.6028,-214.7133 1183.3804,-211.297 1244.4806,-209.2461"/>
<polygon fill="#191970" stroke="#191970" points="1011.9678,-213.5487 1002.0909,-217.3823 1012.2027,-220.5447 1011.9678,-213.5487"/>
</g>
<!-- Node6 -->
<g id="node6" class="node">
<title>Node6</title>
<g id="a_node6"><a xlink:title=" ">
<polygon fill="#ffffff" stroke="#bfbfbf" points="542,-247.5 542,-299.5 717,-299.5 717,-247.5 542,-247.5"/>
<text text-anchor="start" x="550" y="-287.5" font-family="Helvetica,sans-Serif" font-size="10.00" fill="#000000">gko::EnableAbstractPolymorphic</text>
<text text-anchor="start" x="550" y="-276.5" font-family="Helvetica,sans-Serif" font-size="10.00" fill="#000000">Object&lt; AbstractFactory&lt;</text>
<text text-anchor="start" x="550" y="-265.5" font-family="Helvetica,sans-Serif" font-size="10.00" fill="#000000"> LinOp, std::shared_ptr&lt; const</text>
<text text-anchor="middle" x="629.5" y="-254.5" font-family="Helvetica,sans-Serif" font-size="10.00" fill="#000000"> LinOp &gt; &gt; &gt;</text>
</a>
</g>
</g>
<!-- Node6&#45;&gt;Node5 -->
<g id="edge5" class="edge">
<title>Node6&#45;&gt;Node5</title>
<path fill="none" stroke="#191970" d="M726.9373,-262.6044C767.6452,-257.3414 815.3129,-250.2497 858,-241.5 863.8528,-240.3003 869.9086,-238.9206 875.9521,-237.4493"/>
<polygon fill="#191970" stroke="#191970" points="726.4938,-259.1325 717.0165,-263.8688 727.3788,-266.0763 726.4938,-259.1325"/>
</g>
<!-- Node12 -->
<g id="node7" class="node">
<title>Node12</title>
<g id="a_node7"><a xlink:href="classgko_1_1EnableAbstractPolymorphicObject.html" target="_top" xlink:title="This mixin inherits from (a subclass of) PolymorphicObject and provides a base implementation of a ne...">
<polygon fill="#ffffff" stroke="#ff0000" points="138,-127 138,-168 336,-168 336,-127 138,-127"/>
<text text-anchor="start" x="146" y="-156" font-family="Helvetica,sans-Serif" font-size="10.00" fill="#000000">gko::EnableAbstractPolymorphic</text>
<text text-anchor="start" x="146" y="-145" font-family="Helvetica,sans-Serif" font-size="10.00" fill="#000000">Object&lt; AbstractObject, Polymorphic</text>
<text text-anchor="middle" x="237" y="-134" font-family="Helvetica,sans-Serif" font-size="10.00" fill="#000000">Base &gt;</text>
</a>
</g>
</g>
<!-- Node12&#45;&gt;Node3 -->
<g id="edge9" class="edge">
<title>Node12&#45;&gt;Node3</title>
<path fill="none" stroke="#ffa500" stroke-dasharray="5,2" d="M346.6018,-152.2157C425.3069,-155.2006 533.9234,-158.5 629.5,-158.5 629.5,-158.5 629.5,-158.5 1296.5,-158.5 1369.9579,-158.5 1453.3513,-158.5 1514.4286,-158.5"/>
<polygon fill="#ffa500" stroke="#ffa500" points="346.3124,-148.7021 336.1854,-151.8159 346.0438,-155.697 346.3124,-148.7021"/>
<text text-anchor="start" x="883" y="-172.5" font-family="Helvetica,sans-Serif" font-size="10.00" fill="#000000"> &lt; Rcm&lt; IndexType &gt;,</text>
<text text-anchor="middle" x="939" y="-161.5" font-family="Helvetica,sans-Serif" font-size="10.00" fill="#000000"> LinOpFactory &gt;</text>
</g>
<!-- Node12&#45;&gt;Node6 -->
<g id="edge6" class="edge">
<title>Node12&#45;&gt;Node6</title>
<path fill="none" stroke="#ffa500" stroke-dasharray="5,2" d="M310.6703,-171.1496C378.2937,-192.858 478.3019,-224.9625 548.2268,-247.4097"/>
<polygon fill="#ffa500" stroke="#ffa500" points="311.5267,-167.7486 300.9355,-168.0245 309.3871,-174.4136 311.5267,-167.7486"/>
<text text-anchor="start" x="372" y="-257.5" font-family="Helvetica,sans-Serif" font-size="10.00" fill="#000000"> &lt; AbstractFactory&lt;</text>
<text text-anchor="start" x="372" y="-246.5" font-family="Helvetica,sans-Serif" font-size="10.00" fill="#000000"> LinOp, std::shared</text>
<text text-anchor="middle" x="432.5" y="-235.5" font-family="Helvetica,sans-Serif" font-size="10.00" fill="#000000">_ptr&lt; const LinOp &gt; &gt; &gt;</text>
</g>
<!-- Node16 -->
<g id="node11" class="node">
<title>Node16</title>
<g id="a_node11"><a xlink:href="classgko_1_1EnableAbstractPolymorphicObject.html" target="_top" xlink:title=" ">
<polygon fill="#ffffff" stroke="#000000" points="529,-89 529,-130 730,-130 730,-89 529,-89"/>
<text text-anchor="start" x="537" y="-118" font-family="Helvetica,sans-Serif" font-size="10.00" fill="#000000">gko::EnableAbstractPolymorphic</text>
<text text-anchor="start" x="537" y="-107" font-family="Helvetica,sans-Serif" font-size="10.00" fill="#000000">Object&lt; ConcreteObject, Polymorphic</text>
<text text-anchor="middle" x="629.5" y="-96" font-family="Helvetica,sans-Serif" font-size="10.00" fill="#000000">Base &gt;</text>
</a>
</g>
</g>
<!-- Node12&#45;&gt;Node16 -->
<g id="edge13" class="edge">
<title>Node12&#45;&gt;Node16</title>
<path fill="none" stroke="#ffa500" stroke-dasharray="5,2" d="M335.4066,-125.2715C341.6803,-124.227 347.9169,-123.2881 354,-122.5 411.5771,-115.041 476.4158,-111.7314 528.7212,-110.3138"/>
<polygon fill="#ffa500" stroke="#ffa500" points="334.784,-121.8271 325.5341,-126.9932 335.9867,-128.723 334.784,-121.8271"/>
<text text-anchor="start" x="354" y="-136.5" font-family="Helvetica,sans-Serif" font-size="10.00" fill="#000000"> &lt; ConcreteObject, Polymorphic</text>
<text text-anchor="middle" x="432.5" y="-125.5" font-family="Helvetica,sans-Serif" font-size="10.00" fill="#000000">Base &gt;</text>
</g>
<!-- Node11 -->
<g id="node8" class="node">
<title>Node11</title>
<g id="a_node8"><a xlink:title=" ">
<polygon fill="#ffffff" stroke="#bfbfbf" points="0,-91 0,-110 101,-110 101,-91 0,-91"/>
<text text-anchor="middle" x="50.5" y="-98" font-family="Helvetica,sans-Serif" font-size="10.00" fill="#000000">PolymorphicBase</text>
</a>
</g>
</g>
<!-- Node11&#45;&gt;Node12 -->
<g id="edge7" class="edge">
<title>Node11&#45;&gt;Node12</title>
<path fill="none" stroke="#191970" d="M98.1547,-112.5095C115.5909,-116.9036 135.8484,-122.0087 155.4104,-126.9385"/>
<polygon fill="#191970" stroke="#191970" points="98.7932,-109.061 88.2411,-110.0112 97.0826,-115.8488 98.7932,-109.061"/>
</g>
<!-- Node11&#45;&gt;Node16 -->
<g id="edge12" class="edge">
<title>Node11&#45;&gt;Node16</title>
<path fill="none" stroke="#191970" d="M111.354,-101.0551C199.4852,-101.913 367.7823,-103.7542 511,-106.5 516.8641,-106.6124 522.8912,-106.737 528.9723,-106.8696"/>
<polygon fill="#191970" stroke="#191970" points="111.3025,-97.5545 101.2692,-100.9578 111.2349,-104.5542 111.3025,-97.5545"/>
</g>
<!-- Node13 -->
<g id="node9" class="node">
<title>Node13</title>
<g id="a_node9"><a xlink:href="classgko_1_1AbstractFactory.html" target="_top" xlink:title="The AbstractFactory is a generic interface template that enables easy implementation of the abstract ...">
<polygon fill="#ffffff" stroke="#ff0000" points="564,-187 564,-228 695,-228 695,-187 564,-187"/>
<text text-anchor="start" x="572" y="-216" font-family="Helvetica,sans-Serif" font-size="10.00" fill="#000000">gko::AbstractFactory</text>
<text text-anchor="start" x="572" y="-205" font-family="Helvetica,sans-Serif" font-size="10.00" fill="#000000">&lt; AbstractProductType,</text>
<text text-anchor="middle" x="629.5" y="-194" font-family="Helvetica,sans-Serif" font-size="10.00" fill="#000000"> ComponentsType &gt;</text>
</a>
</g>
</g>
<!-- Node13&#45;&gt;Node5 -->
<g id="edge8" class="edge">
<title>Node13&#45;&gt;Node5</title>
<path fill="none" stroke="#ffa500" stroke-dasharray="5,2" d="M705.3751,-210.4418C757.7142,-212.4711 826.4832,-215.1375 875.8374,-217.051"/>
<polygon fill="#ffa500" stroke="#ffa500" points="705.2651,-206.935 695.137,-210.0449 704.9938,-213.9298 705.2651,-206.935"/>
<text text-anchor="start" x="748" y="-229.5" font-family="Helvetica,sans-Serif" font-size="10.00" fill="#000000"> &lt; LinOp, std::shared</text>
<text text-anchor="middle" x="803" y="-218.5" font-family="Helvetica,sans-Serif" font-size="10.00" fill="#000000">_ptr&lt; const LinOp &gt; &gt;</text>
</g>
<!-- Node15 -->
<g id="node10" class="node">
<title>Node15</title>
<g id="a_node10"><a xlink:href="classgko_1_1EnablePolymorphicObject.html" target="_top" xlink:title="This mixin inherits from (a subclass of) PolymorphicObject and provides a base implementation of a ne...">
<polygon fill="#ffffff" stroke="#000000" points="1020,-94.5 1020,-124.5 1225,-124.5 1225,-94.5 1020,-94.5"/>
<text text-anchor="start" x="1028" y="-112.5" font-family="Helvetica,sans-Serif" font-size="10.00" fill="#000000">gko::EnablePolymorphicObject</text>
<text text-anchor="middle" x="1122.5" y="-101.5" font-family="Helvetica,sans-Serif" font-size="10.00" fill="#000000">&lt; ConcreteObject, PolymorphicBase &gt;</text>
</a>
</g>
</g>
<!-- Node15&#45;&gt;Node2 -->
<g id="edge10" class="edge">
<title>Node15&#45;&gt;Node2</title>
<path fill="none" stroke="#ffa500" stroke-dasharray="5,2" d="M1235.4825,-109.6357C1398.638,-109.8317 1697.7287,-110.191 1853.9441,-110.3786"/>
<polygon fill="#ffa500" stroke="#ffa500" points="1235.42,-106.1357 1225.4158,-109.6236 1235.4116,-113.1357 1235.42,-106.1357"/>
<text text-anchor="start" x="1372" y="-123.5" font-family="Helvetica,sans-Serif" font-size="10.00" fill="#000000"> &lt; Rcm&lt; IndexType &gt;,</text>
<text text-anchor="middle" x="1428" y="-112.5" font-family="Helvetica,sans-Serif" font-size="10.00" fill="#000000"> LinOpFactory &gt;</text>
</g>
<!-- Node16&#45;&gt;Node15 -->
<g id="edge11" class="edge">
<title>Node16&#45;&gt;Node15</title>
<path fill="none" stroke="#191970" d="M740.2176,-109.5C823.9794,-109.5 938.1448,-109.5 1019.8612,-109.5"/>
<polygon fill="#191970" stroke="#191970" points="740.1577,-106.0001 730.1577,-109.5 740.1577,-113.0001 740.1577,-106.0001"/>
</g>
<!-- Node17 -->
<g id="node12" class="node">
<title>Node17</title>
<g id="a_node12"><a xlink:href="classgko_1_1EnablePolymorphicAssignment.html" target="_top" xlink:title=" ">
<polygon fill="#ffffff" stroke="#000000" points="1859,-46.5 1859,-76.5 2051,-76.5 2051,-46.5 1859,-46.5"/>
<text text-anchor="start" x="1867" y="-64.5" font-family="Helvetica,sans-Serif" font-size="10.00" fill="#000000">gko::EnablePolymorphicAssignment</text>
<text text-anchor="middle" x="1955" y="-53.5" font-family="Helvetica,sans-Serif" font-size="10.00" fill="#000000">&lt; Rcm&lt; IndexType &gt; &gt;</text>
</a>
</g>
</g>
<!-- Node17&#45;&gt;Node1 -->
<g id="edge14" class="edge">
<title>Node17&#45;&gt;Node1</title>
<path fill="none" stroke="#191970" d="M2061.2482,-73.4157C2071.9074,-74.6111 2082.5765,-75.8076 2092.8324,-76.9578"/>
<polygon fill="#191970" stroke="#191970" points="2061.3732,-69.9078 2051.0454,-72.2714 2060.593,-76.8642 2061.3732,-69.9078"/>
</g>
<!-- Node18 -->
<g id="node13" class="node">
<title>Node18</title>
<g id="a_node13"><a xlink:href="classgko_1_1ConvertibleTo.html" target="_top" xlink:title=" ">
<polygon fill="#ffffff" stroke="#000000" points="1535.5,-.5 1535.5,-30.5 1668.5,-30.5 1668.5,-.5 1535.5,-.5"/>
<text text-anchor="start" x="1543.5" y="-18.5" font-family="Helvetica,sans-Serif" font-size="10.00" fill="#000000">gko::ConvertibleTo</text>
<text text-anchor="middle" x="1602" y="-7.5" font-family="Helvetica,sans-Serif" font-size="10.00" fill="#000000">&lt; Rcm&lt; IndexType &gt; &gt;</text>
</a>
</g>
</g>
<!-- Node18&#45;&gt;Node17 -->
<g id="edge15" class="edge">
<title>Node18&#45;&gt;Node17</title>
<path fill="none" stroke="#191970" d="M1678.7979,-25.5077C1731.6345,-32.3929 1802.2103,-41.5897 1858.794,-48.9632"/>
<polygon fill="#191970" stroke="#191970" points="1679.1801,-22.0279 1668.8116,-24.2063 1678.2755,-28.9693 1679.1801,-22.0279"/>
</g>
<!-- Node19 -->
<g id="node14" class="node">
<title>Node19</title>
<g id="a_node14"><a xlink:href="classgko_1_1ConvertibleTo.html" target="_top" xlink:title="ConvertibleTo interface is used to mark that the implementer can be converted to the object of Result...">
<polygon fill="#ffffff" stroke="#000000" points="1243,-25.5 1243,-55.5 1350,-55.5 1350,-25.5 1243,-25.5"/>
<text text-anchor="start" x="1251" y="-43.5" font-family="Helvetica,sans-Serif" font-size="10.00" fill="#000000">gko::ConvertibleTo</text>
<text text-anchor="middle" x="1296.5" y="-32.5" font-family="Helvetica,sans-Serif" font-size="10.00" fill="#000000">&lt; ResultType &gt;</text>
</a>
</g>
</g>
<!-- Node19&#45;&gt;Node18 -->
<g id="edge16" class="edge">
<title>Node19&#45;&gt;Node18</title>
<path fill="none" stroke="#ffa500" stroke-dasharray="5,2" d="M1360.3612,-32.2775C1362.94,-32.0038 1365.4939,-31.7432 1368,-31.5 1424.3359,-26.0328 1488.4813,-21.7856 1535.3468,-19.0454"/>
<polygon fill="#ffa500" stroke="#ffa500" points="1359.8931,-28.8079 1350.3402,-33.3895 1360.6652,-35.7652 1359.8931,-28.8079"/>
<text text-anchor="middle" x="1428" y="-34.5" font-family="Helvetica,sans-Serif" font-size="10.00" fill="#000000"> &lt; Rcm&lt; IndexType &gt; &gt;</text>
</g>
<!-- Node20 -->
<g id="node15" class="node">
<title>Node20</title>
<g id="a_node15"><a xlink:href="classgko_1_1EnablePolymorphicAssignment.html" target="_top" xlink:title="This mixin is used to enable a default PolymorphicObject::copy_from() implementation for objects that...">
<polygon fill="#ffffff" stroke="#000000" points="1506,-49.5 1506,-79.5 1698,-79.5 1698,-49.5 1506,-49.5"/>
<text text-anchor="start" x="1514" y="-67.5" font-family="Helvetica,sans-Serif" font-size="10.00" fill="#000000">gko::EnablePolymorphicAssignment</text>
<text text-anchor="middle" x="1602" y="-56.5" font-family="Helvetica,sans-Serif" font-size="10.00" fill="#000000">&lt; ConcreteType, ResultType &gt;</text>
</a>
</g>
</g>
<!-- Node19&#45;&gt;Node20 -->
<g id="edge18" class="edge">
<title>Node19&#45;&gt;Node20</title>
<path fill="none" stroke="#191970" d="M1360.1873,-45.5033C1402.3101,-48.8124 1458.3198,-53.2125 1505.8268,-56.9447"/>
<polygon fill="#191970" stroke="#191970" points="1360.3071,-42.002 1350.0636,-44.7079 1359.7588,-48.9805 1360.3071,-42.002"/>
</g>
<!-- Node20&#45;&gt;Node17 -->
<g id="edge17" class="edge">
<title>Node20&#45;&gt;Node17</title>
<path fill="none" stroke="#ffa500" stroke-dasharray="5,2" d="M1708.5389,-63.5946C1756.3893,-63.1879 1812.4246,-62.7117 1858.9638,-62.3162"/>
<polygon fill="#ffa500" stroke="#ffa500" points="1708.4287,-60.0953 1698.4588,-63.6802 1708.4882,-67.095 1708.4287,-60.0953"/>
<text text-anchor="middle" x="1776" y="-67.5" font-family="Helvetica,sans-Serif" font-size="10.00" fill="#000000"> &lt; Rcm&lt; IndexType &gt; &gt;</text>
</g>
</g>
</svg>
        <g id="navigator" transform="translate(0 0)" fill="#404254">
                <rect fill="#f2f5e9" fill-opacity="0.5" stroke="#606060" stroke-width=".5" x="0" y="0" width="60" height="60"/>
                <use id="zoomplus" xlink:href="#zoomPlus" x="17" y="9" onmousedown="handleZoom(evt,'in')"/>
                <use id="zoomminus" xlink:href="#zoomMin" x="42" y="9" onmousedown="handleZoom(evt,'out')"/>
                <use id="reset" xlink:href="#resetDef" x="30" y="36" onmousedown="handleReset()"/>
                <g id="arrowUp" xlink:href="#dirArrow" transform="translate(30 24)" onmousedown="handlePan(0,-1)">
                  <use xlink:href="#rim" fill="#404040">
                        <set attributeName="fill" to="#808080" begin="arrowUp.mouseover" end="arrowUp.mouseout"/>
                  </use>
                  <path fill="none" stroke="white" stroke-width="1.5" d="M0,-3.0v7 M-2.5,-0.5L0,-3.0L2.5,-0.5"/>
                </g>
                <g id="arrowRight" xlink:href="#dirArrow" transform="rotate(90) translate(36 -43)" onmousedown="handlePan(1,0)">
                  <use xlink:href="#rim" fill="#404040">
                        <set attributeName="fill" to="#808080" begin="arrowRight.mouseover" end="arrowRight.mouseout"/>
                  </use>
                  <path fill="none" stroke="white" stroke-width="1.5" d="M0,-3.0v7 M-2.5,-0.5L0,-3.0L2.5,-0.5"/>
                </g>
                <g id="arrowDown" xlink:href="#dirArrow" transform="rotate(180) translate(-30 -48)" onmousedown="handlePan(0,1)">
                  <use xlink:href="#rim" fill="#404040">
                        <set attributeName="fill" to="#808080" begin="arrowDown.mouseover" end="arrowDown.mouseout"/>
                  </use>
                  <path fill="none" stroke="white" stroke-width="1.5" d="M0,-3.0v7 M-2.5,-0.5L0,-3.0L2.5,-0.5"/>
                </g>
                <g id="arrowLeft" xlink:href="#dirArrow" transform="rotate(270) translate(-36 17)" onmousedown="handlePan(-1,0)">
                  <use xlink:href="#rim" fill="#404040">
                        <set attributeName="fill" to="#808080" begin="arrowLeft.mouseover" end="arrowLeft.mouseout"/>
                  </use>
                  <path fill="none" stroke="white" stroke-width="1.5" d="M0,-3.0v7 M-2.5,-0.5L0,-3.0L2.5,-0.5"/>
                </g>
        </g>
        <svg viewBox="0 0 15 15" width="100%" height="30px" preserveAspectRatio="xMaxYMin meet">
         <g id="arrow_out" transform="scale(0.3 0.3)">
          <a xlink:href="classgko_1_1experimental_1_1reorder_1_1Rcm__inherit__graph_org.svg" target="_base">
           <rect id="button" ry="5" rx="5" y="6" x="6" height="38" width="38"
                fill="#f2f5e9" fill-opacity="0.5" stroke="#606060" stroke-width="1.0"/>
           <path id="arrow"
             d="M 11.500037,31.436501 C 11.940474,20.09759 22.043105,11.32322 32.158766,21.979434 L 37.068811,17.246167 C 37.068811,17.246167 37.088388,32 37.088388,32 L 22.160133,31.978069 C 22.160133,31.978069 26.997745,27.140456 26.997745,27.140456 C 18.528582,18.264221 13.291696,25.230495 11.500037,31.436501 z"
             style="fill:#404040;"/>
          </a>
         </g>
        </svg>
</svg>
