<?xml version="1.0" encoding="UTF-8" standalone="no"?>
<!DOCTYPE svg PUBLIC "-//W3C//DTD SVG 1.1//EN"
 "http://www.w3.org/Graphics/SVG/1.1/DTD/svg11.dtd">
<!-- Generated by graphviz version 2.40.1 (20161225.0304)
 -->
<!-- Title: gko::experimental::distributed::Vector&lt; ValueType &gt; Pages: 1 -->
<!--zoomable 427 -->
<svg id="main" version="1.1" xmlns="http://www.w3.org/2000/svg" xmlns:xlink="http://www.w3.org/1999/xlink" xml:space="preserve" onload="init(evt)">
<style type="text/css"><![CDATA[
.edge:hover path { stroke: red; }
.edge:hover polygon { stroke: red; fill: red; }
]]></style>
<script type="text/javascript"><![CDATA[
var edges = document.getElementsByTagName('g');
if (edges && edges.length) {
  for (var i=0;i<edges.length;i++) {
    if (edges[i].id.substr(0,4)=='edge') {
      edges[i].setAttribute('class','edge');
    }
  }
}
]]></script>
        <defs>
                <circle id="rim" cx="0" cy="0" r="7"/>
                <circle id="rim2" cx="0" cy="0" r="3.5"/>
                <g id="zoomPlus">
                        <use xlink:href="#rim" fill="#404040">
                                <set attributeName="fill" to="#808080" begin="zoomplus.mouseover" end="zoomplus.mouseout"/>
                        </use>
                        <path d="M-4,0h8M0,-4v8" fill="none" stroke="white" stroke-width="1.5" pointer-events="none"/>
                </g>
                <g id="zoomMin">
                        <use xlink:href="#rim" fill="#404040">
                                <set attributeName="fill" to="#808080" begin="zoomminus.mouseover" end="zoomminus.mouseout"/>
                        </use>
                        <path d="M-4,0h8" fill="none" stroke="white" stroke-width="1.5" pointer-events="none"/>
                </g>
                <g id="dirArrow">
                        <path fill="none" stroke="white" stroke-width="1.5" d="M0,-3.0v7 M-2.5,-0.5L0,-3.0L2.5,-0.5"/>
                </g>
               <g id="resetDef">
                       <use xlink:href="#rim2" fill="#404040">
                               <set attributeName="fill" to="#808080" begin="reset.mouseover" end="reset.mouseout"/>
                       </use>
               </g>
        </defs>

<script type="text/javascript">
var viewWidth = 2220;
var viewHeight = 427;
var sectionId = 'dynsection-0';
</script>
<script xlink:href="svgpan.js"/>
<svg id="graph" class="graph">
<g id="viewport">
<title>gko::experimental::distributed::Vector&lt; ValueType &gt;</title>
<polygon fill="#ffffff" stroke="transparent" points="-4,4 -4,-422.5 2216,-422.5 2216,4 -4,4"/>
<!-- Node1 -->
<g id="node1" class="node">
<title>Node1</title>
<g id="a_node1"><a xlink:title="Vector is a format which explicitly stores (multiple) distributed column vectors in a dense storage f...">
<polygon fill="#bfbfbf" stroke="#000000" points="2100,-105 2100,-146 2212,-146 2212,-105 2100,-105"/>
<text text-anchor="start" x="2108" y="-134" font-family="Helvetica,sans-Serif" font-size="10.00" fill="#000000">gko::experimental::</text>
<text text-anchor="start" x="2108" y="-123" font-family="Helvetica,sans-Serif" font-size="10.00" fill="#000000">distributed::Vector</text>
<text text-anchor="middle" x="2156" y="-112" font-family="Helvetica,sans-Serif" font-size="10.00" fill="#000000">&lt; ValueType &gt;</text>
</a>
</g>
</g>
<!-- Node2 -->
<g id="node2" class="node">
<title>Node2</title>
<g id="a_node2"><a xlink:href="classgko_1_1EnableLinOp.html" target="_top" xlink:title=" ">
<polygon fill="#ffffff" stroke="#000000" points="1902,-172.5 1902,-202.5 2045,-202.5 2045,-172.5 1902,-172.5"/>
<text text-anchor="start" x="1910" y="-190.5" font-family="Helvetica,sans-Serif" font-size="10.00" fill="#000000">gko::EnableLinOp&lt; Vector</text>
<text text-anchor="middle" x="1973.5" y="-179.5" font-family="Helvetica,sans-Serif" font-size="10.00" fill="#000000">&lt; ValueType &gt; &gt;</text>
</a>
</g>
</g>
<!-- Node2&#45;&gt;Node1 -->
<g id="edge1" class="edge">
<title>Node2&#45;&gt;Node1</title>
<path fill="none" stroke="#191970" d="M2027.2103,-169.2532C2050.0444,-161.4959 2076.6769,-152.4481 2099.7782,-144.6"/>
<polygon fill="#191970" stroke="#191970" points="2026.0208,-165.9608 2017.6782,-172.4915 2028.2726,-172.5887 2026.0208,-165.9608"/>
</g>
<!-- Node3 -->
<g id="node3" class="node">
<title>Node3</title>
<g id="a_node3"><a xlink:href="classgko_1_1EnablePolymorphicObject.html" target="_top" xlink:title=" ">
<polygon fill="#ffffff" stroke="#000000" points="1528.5,-153.5 1528.5,-183.5 1704.5,-183.5 1704.5,-153.5 1528.5,-153.5"/>
<text text-anchor="start" x="1536.5" y="-171.5" font-family="Helvetica,sans-Serif" font-size="10.00" fill="#000000">gko::EnablePolymorphicObject</text>
<text text-anchor="middle" x="1616.5" y="-160.5" font-family="Helvetica,sans-Serif" font-size="10.00" fill="#000000">&lt; Vector&lt; ValueType &gt;, LinOp &gt;</text>
</a>
</g>
</g>
<!-- Node3&#45;&gt;Node2 -->
<g id="edge2" class="edge">
<title>Node3&#45;&gt;Node2</title>
<path fill="none" stroke="#191970" d="M1714.8694,-173.7353C1774.0909,-176.8872 1848.1619,-180.8293 1901.8393,-183.6861"/>
<polygon fill="#191970" stroke="#191970" points="1714.9191,-170.2331 1704.7472,-173.1966 1714.547,-177.2232 1714.9191,-170.2331"/>
</g>
<!-- Node4 -->
<g id="node4" class="node">
<title>Node4</title>
<g id="a_node4"><a xlink:href="classgko_1_1EnableAbstractPolymorphicObject.html" target="_top" xlink:title=" ">
<polygon fill="#ffffff" stroke="#000000" points="1302,-55 1302,-96 1477,-96 1477,-55 1302,-55"/>
<text text-anchor="start" x="1310" y="-84" font-family="Helvetica,sans-Serif" font-size="10.00" fill="#000000">gko::EnableAbstractPolymorphic</text>
<text text-anchor="start" x="1310" y="-73" font-family="Helvetica,sans-Serif" font-size="10.00" fill="#000000">Object&lt; Vector&lt; ValueType</text>
<text text-anchor="middle" x="1389.5" y="-62" font-family="Helvetica,sans-Serif" font-size="10.00" fill="#000000"> &gt;, LinOp &gt;</text>
</a>
</g>
</g>
<!-- Node4&#45;&gt;Node3 -->
<g id="edge3" class="edge">
<title>Node4&#45;&gt;Node3</title>
<path fill="none" stroke="#191970" d="M1479.6009,-100.2985C1490.105,-105.3414 1500.1954,-111.3526 1509,-118.5 1519.9118,-127.358 1515.5094,-136.4069 1527,-144.5 1531.8664,-147.9275 1537.1956,-150.8656 1542.7524,-153.3841"/>
<polygon fill="#191970" stroke="#191970" points="1480.8414,-97.0188 1470.2854,-96.1118 1477.9718,-103.4036 1480.8414,-97.0188"/>
</g>
<!-- Node5 -->
<g id="node5" class="node">
<title>Node5</title>
<g id="a_node5"><a xlink:href="classgko_1_1LinOp.html" target="_top" xlink:title=" ">
<polygon fill="#ffffff" stroke="#000000" points="963.5,-66 963.5,-85 1031.5,-85 1031.5,-66 963.5,-66"/>
<text text-anchor="middle" x="997.5" y="-73" font-family="Helvetica,sans-Serif" font-size="10.00" fill="#000000">gko::LinOp</text>
</a>
</g>
</g>
<!-- Node5&#45;&gt;Node4 -->
<g id="edge4" class="edge">
<title>Node5&#45;&gt;Node4</title>
<path fill="none" stroke="#191970" d="M1041.9667,-75.5C1104.8762,-75.5 1221.1665,-75.5 1301.805,-75.5"/>
<polygon fill="#191970" stroke="#191970" points="1041.6017,-72.0001 1031.6017,-75.5 1041.6017,-79.0001 1041.6017,-72.0001"/>
</g>
<!-- Node6 -->
<g id="node6" class="node">
<title>Node6</title>
<g id="a_node6"><a xlink:href="classgko_1_1EnableAbstractPolymorphicObject.html" target="_top" xlink:title=" ">
<polygon fill="#ffffff" stroke="#ff0000" points="542,-60.5 542,-90.5 717,-90.5 717,-60.5 542,-60.5"/>
<text text-anchor="start" x="550" y="-78.5" font-family="Helvetica,sans-Serif" font-size="10.00" fill="#000000">gko::EnableAbstractPolymorphic</text>
<text text-anchor="middle" x="629.5" y="-67.5" font-family="Helvetica,sans-Serif" font-size="10.00" fill="#000000">Object&lt; LinOp &gt;</text>
</a>
</g>
</g>
<!-- Node6&#45;&gt;Node5 -->
<g id="edge5" class="edge">
<title>Node6&#45;&gt;Node5</title>
<path fill="none" stroke="#191970" d="M727.5197,-75.5C805.5493,-75.5 910.1921,-75.5 963.3753,-75.5"/>
<polygon fill="#191970" stroke="#191970" points="727.1777,-72.0001 717.1776,-75.5 727.1776,-79.0001 727.1777,-72.0001"/>
</g>
<!-- Node12 -->
<g id="node7" class="node">
<title>Node12</title>
<g id="a_node7"><a xlink:href="classgko_1_1EnableAbstractPolymorphicObject.html" target="_top" xlink:title="This mixin inherits from (a subclass of) PolymorphicObject and provides a base implementation of a ne...">
<polygon fill="#ffffff" stroke="#000000" points="138,-140 138,-181 336,-181 336,-140 138,-140"/>
<text text-anchor="start" x="146" y="-169" font-family="Helvetica,sans-Serif" font-size="10.00" fill="#000000">gko::EnableAbstractPolymorphic</text>
<text text-anchor="start" x="146" y="-158" font-family="Helvetica,sans-Serif" font-size="10.00" fill="#000000">Object&lt; AbstractObject, Polymorphic</text>
<text text-anchor="middle" x="237" y="-147" font-family="Helvetica,sans-Serif" font-size="10.00" fill="#000000">Base &gt;</text>
</a>
</g>
</g>
<!-- Node12&#45;&gt;Node4 -->
<g id="edge8" class="edge">
<title>Node12&#45;&gt;Node4</title>
<path fill="none" stroke="#ffa500" stroke-dasharray="5,2" d="M346.3143,-165.2916C348.9009,-165.3662 351.4658,-165.4359 354,-165.5 693.4575,-174.0837 778.4366,-170.1667 1118,-171.5 1185.9995,-171.767 1211.3156,-204.0848 1271,-171.5 1283.9849,-164.4109 1278.6628,-154.0833 1289,-143.5 1307.2529,-124.8126 1331.4026,-108.2745 1351.454,-96.188"/>
<polygon fill="#ffa500" stroke="#ffa500" points="346.3522,-161.7912 336.2489,-164.9809 346.1361,-168.7879 346.3522,-161.7912"/>
<text text-anchor="start" x="759.5" y="-184.5" font-family="Helvetica,sans-Serif" font-size="10.00" fill="#000000"> &lt; Vector&lt; ValueType</text>
<text text-anchor="middle" x="812.5" y="-173.5" font-family="Helvetica,sans-Serif" font-size="10.00" fill="#000000"> &gt;, LinOp &gt;</text>
</g>
<!-- Node12&#45;&gt;Node6 -->
<g id="edge6" class="edge">
<title>Node12&#45;&gt;Node6</title>
<path fill="none" stroke="#ffa500" stroke-dasharray="5,2" d="M297.3839,-136.3556C315.3815,-129.8341 335.2968,-123.2705 354,-118.5 415.9174,-102.7071 487.2295,-91.7683 541.786,-84.8766"/>
<polygon fill="#ffa500" stroke="#ffa500" points="295.7738,-133.2189 287.6024,-139.9626 298.1958,-139.7865 295.7738,-133.2189"/>
<text text-anchor="middle" x="432.5" y="-121.5" font-family="Helvetica,sans-Serif" font-size="10.00" fill="#000000"> &lt; LinOp &gt;</text>
</g>
<!-- Node14 -->
<g id="node10" class="node">
<title>Node14</title>
<g id="a_node10"><a xlink:href="classgko_1_1EnableAbstractPolymorphicObject.html" target="_top" xlink:title=" ">
<polygon fill="#ffffff" stroke="#000000" points="529,-110 529,-151 730,-151 730,-110 529,-110"/>
<text text-anchor="start" x="537" y="-139" font-family="Helvetica,sans-Serif" font-size="10.00" fill="#000000">gko::EnableAbstractPolymorphic</text>
<text text-anchor="start" x="537" y="-128" font-family="Helvetica,sans-Serif" font-size="10.00" fill="#000000">Object&lt; ConcreteObject, Polymorphic</text>
<text text-anchor="middle" x="629.5" y="-117" font-family="Helvetica,sans-Serif" font-size="10.00" fill="#000000">Base &gt;</text>
</a>
</g>
</g>
<!-- Node12&#45;&gt;Node14 -->
<g id="edge12" class="edge">
<title>Node12&#45;&gt;Node14</title>
<path fill="none" stroke="#ffa500" stroke-dasharray="5,2" d="M346.278,-144.2811C348.8754,-144.0057 351.4524,-143.7446 354,-143.5 411.7925,-137.9511 476.6425,-134.7422 528.9002,-132.9015"/>
<polygon fill="#ffa500" stroke="#ffa500" points="345.726,-140.8209 336.1765,-145.4098 346.5033,-147.7776 345.726,-140.8209"/>
<text text-anchor="start" x="354" y="-157.5" font-family="Helvetica,sans-Serif" font-size="10.00" fill="#000000"> &lt; ConcreteObject, Polymorphic</text>
<text text-anchor="middle" x="432.5" y="-146.5" font-family="Helvetica,sans-Serif" font-size="10.00" fill="#000000">Base &gt;</text>
</g>
<!-- Node21 -->
<g id="node17" class="node">
<title>Node21</title>
<g id="a_node17"><a xlink:href="classgko_1_1EnableAbstractPolymorphicObject.html" target="_top" xlink:title=" ">
<polygon fill="#ffffff" stroke="#000000" points="531,-208 531,-249 728,-249 728,-208 531,-208"/>
<text text-anchor="start" x="539" y="-237" font-family="Helvetica,sans-Serif" font-size="10.00" fill="#000000">gko::EnableAbstractPolymorphic</text>
<text text-anchor="start" x="539" y="-226" font-family="Helvetica,sans-Serif" font-size="10.00" fill="#000000">Object&lt; ConcreteLinOp, Polymorphic</text>
<text text-anchor="middle" x="629.5" y="-215" font-family="Helvetica,sans-Serif" font-size="10.00" fill="#000000">Base &gt;</text>
</a>
</g>
</g>
<!-- Node12&#45;&gt;Node21 -->
<g id="edge22" class="edge">
<title>Node12&#45;&gt;Node21</title>
<path fill="none" stroke="#ffa500" stroke-dasharray="5,2" d="M321.7868,-183.4485C332.5869,-186.015 343.5239,-188.4414 354,-190.5 371.3517,-193.9097 459.0668,-205.8615 530.9297,-215.462"/>
<polygon fill="#ffa500" stroke="#ffa500" points="322.467,-180.0121 311.924,-181.0587 320.8185,-186.8152 322.467,-180.0121"/>
<text text-anchor="start" x="356" y="-226.5" font-family="Helvetica,sans-Serif" font-size="10.00" fill="#000000"> &lt; ConcreteLinOp, Polymorphic</text>
<text text-anchor="middle" x="432.5" y="-215.5" font-family="Helvetica,sans-Serif" font-size="10.00" fill="#000000">Base &gt;</text>
</g>
<!-- Node11 -->
<g id="node8" class="node">
<title>Node11</title>
<g id="a_node8"><a xlink:title=" ">
<polygon fill="#ffffff" stroke="#bfbfbf" points="0,-151 0,-170 101,-170 101,-151 0,-151"/>
<text text-anchor="middle" x="50.5" y="-158" font-family="Helvetica,sans-Serif" font-size="10.00" fill="#000000">PolymorphicBase</text>
</a>
</g>
</g>
<!-- Node11&#45;&gt;Node12 -->
<g id="edge7" class="edge">
<title>Node11&#45;&gt;Node12</title>
<path fill="none" stroke="#191970" d="M111.5248,-160.5C119.9555,-160.5 128.7869,-160.5 137.6923,-160.5"/>
<polygon fill="#191970" stroke="#191970" points="111.462,-157.0001 101.4619,-160.5 111.4619,-164.0001 111.462,-157.0001"/>
</g>
<!-- Node11&#45;&gt;Node14 -->
<g id="edge11" class="edge">
<title>Node11&#45;&gt;Node14</title>
<path fill="none" stroke="#191970" d="M81.3359,-146.861C156.1976,-115.6525 353.0112,-45.0474 511,-89.5 520.0251,-92.0394 520.4367,-96.6829 529,-100.5 536.6504,-103.9102 544.7963,-107.0635 553.0126,-109.9421"/>
<polygon fill="#191970" stroke="#191970" points="79.8482,-143.69 72.0046,-150.8123 82.5778,-150.1359 79.8482,-143.69"/>
</g>
<!-- Node11&#45;&gt;Node21 -->
<g id="edge21" class="edge">
<title>Node11&#45;&gt;Node21</title>
<path fill="none" stroke="#191970" d="M84.9853,-173.4368C100.9678,-179.1439 120.3019,-185.6429 138,-190.5 232.5646,-216.4524 256.4555,-225.447 354,-235.5 423.4101,-242.6534 441.2526,-237.5583 511,-235.5 517.4889,-235.3085 524.1751,-235.0582 530.9118,-234.7663"/>
<polygon fill="#191970" stroke="#191970" points="86.1059,-170.1202 75.5117,-170.0074 83.7232,-176.7022 86.1059,-170.1202"/>
</g>
<!-- Node13 -->
<g id="node9" class="node">
<title>Node13</title>
<g id="a_node9"><a xlink:href="classgko_1_1EnablePolymorphicObject.html" target="_top" xlink:title="This mixin inherits from (a subclass of) PolymorphicObject and provides a base implementation of a ne...">
<polygon fill="#ffffff" stroke="#000000" points="895,-115.5 895,-145.5 1100,-145.5 1100,-115.5 895,-115.5"/>
<text text-anchor="start" x="903" y="-133.5" font-family="Helvetica,sans-Serif" font-size="10.00" fill="#000000">gko::EnablePolymorphicObject</text>
<text text-anchor="middle" x="997.5" y="-122.5" font-family="Helvetica,sans-Serif" font-size="10.00" fill="#000000">&lt; ConcreteObject, PolymorphicBase &gt;</text>
</a>
</g>
</g>
<!-- Node13&#45;&gt;Node3 -->
<g id="edge9" class="edge">
<title>Node13&#45;&gt;Node3</title>
<path fill="none" stroke="#ffa500" stroke-dasharray="5,2" d="M1110.175,-136.9606C1159.537,-139.8248 1218.1457,-143.2712 1271,-146.5 1358.5887,-151.8506 1458.6476,-158.2538 1528.4641,-162.7687"/>
<polygon fill="#ffa500" stroke="#ffa500" points="1110.2952,-133.4618 1100.1094,-136.3772 1109.89,-140.45 1110.2952,-133.4618"/>
<text text-anchor="start" x="1336.5" y="-173.5" font-family="Helvetica,sans-Serif" font-size="10.00" fill="#000000"> &lt; Vector&lt; ValueType</text>
<text text-anchor="middle" x="1389.5" y="-162.5" font-family="Helvetica,sans-Serif" font-size="10.00" fill="#000000"> &gt;, LinOp &gt;</text>
</g>
<!-- Node20 -->
<g id="node16" class="node">
<title>Node20</title>
<g id="a_node16"><a xlink:href="classgko_1_1EnablePolymorphicObject.html" target="_top" xlink:title=" ">
<polygon fill="#ffffff" stroke="#000000" points="1289,-200.5 1289,-230.5 1490,-230.5 1490,-200.5 1289,-200.5"/>
<text text-anchor="start" x="1297" y="-218.5" font-family="Helvetica,sans-Serif" font-size="10.00" fill="#000000">gko::EnablePolymorphicObject</text>
<text text-anchor="middle" x="1389.5" y="-207.5" font-family="Helvetica,sans-Serif" font-size="10.00" fill="#000000">&lt; ConcreteLinOp, PolymorphicBase &gt;</text>
</a>
</g>
</g>
<!-- Node13&#45;&gt;Node20 -->
<g id="edge23" class="edge">
<title>Node13&#45;&gt;Node20</title>
<path fill="none" stroke="#ffa500" stroke-dasharray="5,2" d="M1100.202,-147.2686C1151.7145,-156.2824 1214.9205,-168.2579 1271,-181.5 1294.2256,-186.9843 1319.6991,-194.1411 1341.0565,-200.4731"/>
<polygon fill="#ffa500" stroke="#ffa500" points="1100.5127,-143.7702 1090.061,-145.5059 1099.3139,-150.6668 1100.5127,-143.7702"/>
<text text-anchor="start" x="1118" y="-195.5" font-family="Helvetica,sans-Serif" font-size="10.00" fill="#000000"> &lt; ConcreteLinOp, Polymorphic</text>
<text text-anchor="middle" x="1194.5" y="-184.5" font-family="Helvetica,sans-Serif" font-size="10.00" fill="#000000">Base &gt;</text>
</g>
<!-- Node14&#45;&gt;Node13 -->
<g id="edge10" class="edge">
<title>Node14&#45;&gt;Node13</title>
<path fill="none" stroke="#191970" d="M740.0843,-130.5C789.2,-130.5 846.6641,-130.5 894.8233,-130.5"/>
<polygon fill="#191970" stroke="#191970" points="740.0577,-127.0001 730.0576,-130.5 740.0576,-134.0001 740.0577,-127.0001"/>
</g>
<!-- Node15 -->
<g id="node11" class="node">
<title>Node15</title>
<g id="a_node11"><a xlink:href="classgko_1_1EnablePolymorphicAssignment.html" target="_top" xlink:title=" ">
<polygon fill="#ffffff" stroke="#000000" points="1293.5,-313.5 1293.5,-343.5 1485.5,-343.5 1485.5,-313.5 1293.5,-313.5"/>
<text text-anchor="start" x="1301.5" y="-331.5" font-family="Helvetica,sans-Serif" font-size="10.00" fill="#000000">gko::EnablePolymorphicAssignment</text>
<text text-anchor="middle" x="1389.5" y="-320.5" font-family="Helvetica,sans-Serif" font-size="10.00" fill="#000000">&lt; Vector&lt; ValueType &gt; &gt;</text>
</a>
</g>
</g>
<!-- Node15&#45;&gt;Node2 -->
<g id="edge13" class="edge">
<title>Node15&#45;&gt;Node2</title>
<path fill="none" stroke="#191970" d="M1478.0351,-311.4504C1574.1828,-292.3211 1731.9743,-259.1349 1866,-222.5 1887.4889,-216.6262 1911.0541,-209.0809 1930.6306,-202.5009"/>
<polygon fill="#191970" stroke="#191970" points="1477.1908,-308.0495 1468.0627,-313.428 1478.5525,-314.9158 1477.1908,-308.0495"/>
</g>
<!-- Node16 -->
<g id="node12" class="node">
<title>Node16</title>
<g id="a_node12"><a xlink:href="classgko_1_1ConvertibleTo.html" target="_top" xlink:title=" ">
<polygon fill="#ffffff" stroke="#000000" points="926.5,-344.5 926.5,-374.5 1068.5,-374.5 1068.5,-344.5 926.5,-344.5"/>
<text text-anchor="start" x="934.5" y="-362.5" font-family="Helvetica,sans-Serif" font-size="10.00" fill="#000000">gko::ConvertibleTo</text>
<text text-anchor="middle" x="997.5" y="-351.5" font-family="Helvetica,sans-Serif" font-size="10.00" fill="#000000">&lt; Vector&lt; ValueType &gt; &gt;</text>
</a>
</g>
</g>
<!-- Node16&#45;&gt;Node15 -->
<g id="edge14" class="edge">
<title>Node16&#45;&gt;Node15</title>
<path fill="none" stroke="#191970" d="M1079.1364,-353.0441C1141.5405,-348.109 1227.7335,-341.2928 1293.4541,-336.0955"/>
<polygon fill="#191970" stroke="#191970" points="1078.636,-349.5726 1068.943,-353.8502 1079.1879,-356.5508 1078.636,-349.5726"/>
</g>
<!-- Node17 -->
<g id="node13" class="node">
<title>Node17</title>
<g id="a_node13"><a xlink:href="classgko_1_1ConvertibleTo.html" target="_top" xlink:title="ConvertibleTo interface is used to mark that the implementer can be converted to the object of Result...">
<polygon fill="#ffffff" stroke="#000000" points="576,-316.5 576,-346.5 683,-346.5 683,-316.5 576,-316.5"/>
<text text-anchor="start" x="584" y="-334.5" font-family="Helvetica,sans-Serif" font-size="10.00" fill="#000000">gko::ConvertibleTo</text>
<text text-anchor="middle" x="629.5" y="-323.5" font-family="Helvetica,sans-Serif" font-size="10.00" fill="#000000">&lt; ResultType &gt;</text>
</a>
</g>
</g>
<!-- Node17&#45;&gt;Node16 -->
<g id="edge15" class="edge">
<title>Node17&#45;&gt;Node16</title>
<path fill="none" stroke="#ffa500" stroke-dasharray="5,2" d="M693.1163,-336.3404C758.0569,-341.2815 858.6538,-348.9356 926.2358,-354.0777"/>
<polygon fill="#ffa500" stroke="#ffa500" points="693.2471,-332.8403 683.0104,-335.5714 692.716,-339.8201 693.2471,-332.8403"/>
<text text-anchor="middle" x="812.5" y="-352.5" font-family="Helvetica,sans-Serif" font-size="10.00" fill="#000000"> &lt; Vector&lt; ValueType &gt; &gt;</text>
</g>
<!-- Node18 -->
<g id="node14" class="node">
<title>Node18</title>
<g id="a_node14"><a xlink:href="classgko_1_1EnablePolymorphicAssignment.html" target="_top" xlink:title="This mixin is used to enable a default PolymorphicObject::copy_from() implementation for objects that...">
<polygon fill="#ffffff" stroke="#000000" points="901.5,-295.5 901.5,-325.5 1093.5,-325.5 1093.5,-295.5 901.5,-295.5"/>
<text text-anchor="start" x="909.5" y="-313.5" font-family="Helvetica,sans-Serif" font-size="10.00" fill="#000000">gko::EnablePolymorphicAssignment</text>
<text text-anchor="middle" x="997.5" y="-302.5" font-family="Helvetica,sans-Serif" font-size="10.00" fill="#000000">&lt; ConcreteType, ResultType &gt;</text>
</a>
</g>
</g>
<!-- Node17&#45;&gt;Node18 -->
<g id="edge17" class="edge">
<title>Node17&#45;&gt;Node18</title>
<path fill="none" stroke="#191970" d="M693.0372,-327.8742C750.436,-324.5988 835.7367,-319.7311 901.459,-315.9806"/>
<polygon fill="#191970" stroke="#191970" points="692.7947,-324.3823 683.0104,-328.4464 693.1936,-331.3709 692.7947,-324.3823"/>
</g>
<!-- Node23 -->
<g id="node19" class="node">
<title>Node23</title>
<g id="a_node19"><a xlink:href="classgko_1_1ConvertibleTo.html" target="_top" xlink:title=" ">
<polygon fill="#ffffff" stroke="#000000" points="942.5,-246.5 942.5,-276.5 1052.5,-276.5 1052.5,-246.5 942.5,-246.5"/>
<text text-anchor="start" x="950.5" y="-264.5" font-family="Helvetica,sans-Serif" font-size="10.00" fill="#000000">gko::ConvertibleTo</text>
<text text-anchor="middle" x="997.5" y="-253.5" font-family="Helvetica,sans-Serif" font-size="10.00" fill="#000000">&lt; ConcreteLinOp &gt;</text>
</a>
</g>
</g>
<!-- Node17&#45;&gt;Node23 -->
<g id="edge26" class="edge">
<title>Node17&#45;&gt;Node23</title>
<path fill="none" stroke="#ffa500" stroke-dasharray="5,2" d="M693.4508,-314.893C711.0659,-310.5802 730.2192,-306.131 748,-302.5 814.4494,-288.9303 891.5679,-276.8062 942.2747,-269.3253"/>
<polygon fill="#ffa500" stroke="#ffa500" points="692.1459,-311.6102 683.2791,-317.4094 693.827,-318.4054 692.1459,-311.6102"/>
<text text-anchor="middle" x="812.5" y="-305.5" font-family="Helvetica,sans-Serif" font-size="10.00" fill="#000000"> &lt; ConcreteLinOp &gt;</text>
</g>
<!-- Node26 -->
<g id="node22" class="node">
<title>Node26</title>
<g id="a_node22"><a xlink:href="classgko_1_1ConvertibleTo.html" target="_top" xlink:title=" ">
<polygon fill="#ffffff" stroke="#000000" points="1124,-377 1124,-418 1265,-418 1265,-377 1124,-377"/>
<text text-anchor="start" x="1132" y="-406" font-family="Helvetica,sans-Serif" font-size="10.00" fill="#000000">gko::ConvertibleTo</text>
<text text-anchor="start" x="1132" y="-395" font-family="Helvetica,sans-Serif" font-size="10.00" fill="#000000">&lt; Vector&lt; next_precision</text>
<text text-anchor="middle" x="1194.5" y="-384" font-family="Helvetica,sans-Serif" font-size="10.00" fill="#000000">&lt; ValueType &gt; &gt; &gt;</text>
</a>
</g>
</g>
<!-- Node17&#45;&gt;Node26 -->
<g id="edge31" class="edge">
<title>Node17&#45;&gt;Node26</title>
<path fill="none" stroke="#ffa500" stroke-dasharray="5,2" d="M687.6093,-349.3851C706.7119,-354.8065 728.1409,-360.4038 748,-364.5 878.7468,-391.4684 1035.0297,-397.1042 1123.7347,-397.8927"/>
<polygon fill="#ffa500" stroke="#ffa500" points="688.4307,-345.9795 677.8526,-346.575 686.4933,-352.706 688.4307,-345.9795"/>
<text text-anchor="start" x="748.5" y="-396.5" font-family="Helvetica,sans-Serif" font-size="10.00" fill="#000000"> &lt; Vector&lt; next_precision</text>
<text text-anchor="middle" x="812.5" y="-385.5" font-family="Helvetica,sans-Serif" font-size="10.00" fill="#000000">&lt; ValueType &gt; &gt; &gt;</text>
</g>
<!-- Node18&#45;&gt;Node15 -->
<g id="edge16" class="edge">
<title>Node18&#45;&gt;Node15</title>
<path fill="none" stroke="#ffa500" stroke-dasharray="5,2" d="M1103.7627,-315.3794C1162.8971,-318.0948 1235.9298,-321.4483 1293.357,-324.0853"/>
<polygon fill="#ffa500" stroke="#ffa500" points="1103.795,-311.8773 1093.6449,-314.9148 1103.4738,-318.8699 1103.795,-311.8773"/>
<text text-anchor="middle" x="1194.5" y="-325.5" font-family="Helvetica,sans-Serif" font-size="10.00" fill="#000000"> &lt; Vector&lt; ValueType &gt; &gt;</text>
</g>
<!-- Node22 -->
<g id="node18" class="node">
<title>Node22</title>
<g id="a_node18"><a xlink:href="classgko_1_1EnablePolymorphicAssignment.html" target="_top" xlink:title=" ">
<polygon fill="#ffffff" stroke="#000000" points="1293.5,-249.5 1293.5,-279.5 1485.5,-279.5 1485.5,-249.5 1293.5,-249.5"/>
<text text-anchor="start" x="1301.5" y="-267.5" font-family="Helvetica,sans-Serif" font-size="10.00" fill="#000000">gko::EnablePolymorphicAssignment</text>
<text text-anchor="middle" x="1389.5" y="-256.5" font-family="Helvetica,sans-Serif" font-size="10.00" fill="#000000">&lt; ConcreteLinOp &gt;</text>
</a>
</g>
</g>
<!-- Node18&#45;&gt;Node22 -->
<g id="edge27" class="edge">
<title>Node18&#45;&gt;Node22</title>
<path fill="none" stroke="#ffa500" stroke-dasharray="5,2" d="M1103.7627,-298.0304C1162.8971,-291.0912 1235.9298,-282.521 1293.357,-275.7821"/>
<polygon fill="#ffa500" stroke="#ffa500" points="1103.1688,-294.576 1093.6449,-299.2177 1103.9847,-301.5283 1103.1688,-294.576"/>
<text text-anchor="middle" x="1194.5" y="-298.5" font-family="Helvetica,sans-Serif" font-size="10.00" fill="#000000"> &lt; ConcreteLinOp &gt;</text>
</g>
<!-- Node19 -->
<g id="node15" class="node">
<title>Node19</title>
<g id="a_node15"><a xlink:href="classgko_1_1EnableLinOp.html" target="_top" xlink:title="The EnableLinOp mixin can be used to provide sensible default implementations of the majority of the ...">
<polygon fill="#ffffff" stroke="#000000" points="1538.5,-202.5 1538.5,-232.5 1694.5,-232.5 1694.5,-202.5 1538.5,-202.5"/>
<text text-anchor="start" x="1546.5" y="-220.5" font-family="Helvetica,sans-Serif" font-size="10.00" fill="#000000">gko::EnableLinOp&lt; Concrete</text>
<text text-anchor="middle" x="1616.5" y="-209.5" font-family="Helvetica,sans-Serif" font-size="10.00" fill="#000000">LinOp, PolymorphicBase &gt;</text>
</a>
</g>
</g>
<!-- Node19&#45;&gt;Node2 -->
<g id="edge18" class="edge">
<title>Node19&#45;&gt;Node2</title>
<path fill="none" stroke="#ffa500" stroke-dasharray="5,2" d="M1705.1679,-210.0489C1765.7735,-204.956 1845.0664,-198.2927 1901.7095,-193.5328"/>
<polygon fill="#ffa500" stroke="#ffa500" points="1704.5169,-206.5912 1694.8452,-210.9164 1705.1032,-213.5666 1704.5169,-206.5912"/>
<text text-anchor="middle" x="1795" y="-210.5" font-family="Helvetica,sans-Serif" font-size="10.00" fill="#000000"> &lt; Vector&lt; ValueType &gt; &gt;</text>
</g>
<!-- Node20&#45;&gt;Node19 -->
<g id="edge19" class="edge">
<title>Node20&#45;&gt;Node19</title>
<path fill="none" stroke="#191970" d="M1500.2977,-216.4762C1513.095,-216.5889 1525.9382,-216.7021 1538.1759,-216.8099"/>
<polygon fill="#191970" stroke="#191970" points="1500.0873,-212.9743 1490.0568,-216.386 1500.0256,-219.974 1500.0873,-212.9743"/>
</g>
<!-- Node21&#45;&gt;Node20 -->
<g id="edge20" class="edge">
<title>Node21&#45;&gt;Node20</title>
<path fill="none" stroke="#191970" d="M738.4813,-226.6358C885.7391,-224.117 1146.2151,-219.6615 1288.9812,-217.2194"/>
<polygon fill="#191970" stroke="#191970" points="738.0162,-223.1432 728.0776,-226.8138 738.136,-230.1422 738.0162,-223.1432"/>
</g>
<!-- Node22&#45;&gt;Node19 -->
<g id="edge24" class="edge">
<title>Node22&#45;&gt;Node19</title>
<path fill="none" stroke="#191970" d="M1471.9221,-247.4346C1495.502,-242.5524 1521.0209,-237.2688 1543.9613,-232.519"/>
<polygon fill="#191970" stroke="#191970" points="1471.031,-244.0448 1461.9483,-249.4997 1472.4503,-250.8994 1471.031,-244.0448"/>
</g>
<!-- Node23&#45;&gt;Node22 -->
<g id="edge25" class="edge">
<title>Node23&#45;&gt;Node22</title>
<path fill="none" stroke="#191970" d="M1063.0239,-262.0015C1125.9342,-262.4829 1221.7021,-263.2158 1293.2698,-263.7635"/>
<polygon fill="#191970" stroke="#191970" points="1062.8591,-258.5002 1052.8326,-261.9235 1062.8055,-265.5 1062.8591,-258.5002"/>
</g>
<!-- Node24 -->
<g id="node20" class="node">
<title>Node24</title>
<g id="a_node20"><a xlink:href="classgko_1_1EnableCreateMethod.html" target="_top" xlink:title=" ">
<polygon fill="#ffffff" stroke="#000000" points="1902.5,-110.5 1902.5,-140.5 2044.5,-140.5 2044.5,-110.5 1902.5,-110.5"/>
<text text-anchor="start" x="1910.5" y="-128.5" font-family="Helvetica,sans-Serif" font-size="10.00" fill="#000000">gko::EnableCreateMethod</text>
<text text-anchor="middle" x="1973.5" y="-117.5" font-family="Helvetica,sans-Serif" font-size="10.00" fill="#000000">&lt; Vector&lt; ValueType &gt; &gt;</text>
</a>
</g>
</g>
<!-- Node24&#45;&gt;Node1 -->
<g id="edge28" class="edge">
<title>Node24&#45;&gt;Node1</title>
<path fill="none" stroke="#191970" d="M2054.9838,-125.5C2070.1225,-125.5 2085.624,-125.5 2099.7957,-125.5"/>
<polygon fill="#191970" stroke="#191970" points="2054.5819,-122.0001 2044.5818,-125.5 2054.5818,-129.0001 2054.5819,-122.0001"/>
</g>
<!-- Node25 -->
<g id="node21" class="node">
<title>Node25</title>
<g id="a_node21"><a xlink:href="classgko_1_1EnableCreateMethod.html" target="_top" xlink:title="This mixin implements a static create() method on ConcreteType that dynamically allocates the memory,...">
<polygon fill="#ffffff" stroke="#000000" points="1545.5,-104.5 1545.5,-134.5 1687.5,-134.5 1687.5,-104.5 1545.5,-104.5"/>
<text text-anchor="start" x="1553.5" y="-122.5" font-family="Helvetica,sans-Serif" font-size="10.00" fill="#000000">gko::EnableCreateMethod</text>
<text text-anchor="middle" x="1616.5" y="-111.5" font-family="Helvetica,sans-Serif" font-size="10.00" fill="#000000">&lt; ConcreteType &gt;</text>
</a>
</g>
</g>
<!-- Node25&#45;&gt;Node24 -->
<g id="edge29" class="edge">
<title>Node25&#45;&gt;Node24</title>
<path fill="none" stroke="#ffa500" stroke-dasharray="5,2" d="M1697.9589,-120.8691C1759.5515,-121.9042 1843.2908,-123.3116 1902.2375,-124.3023"/>
<polygon fill="#ffa500" stroke="#ffa500" points="1697.9437,-117.3684 1687.8863,-120.6998 1697.826,-124.3674 1697.9437,-117.3684"/>
<text text-anchor="middle" x="1795" y="-126.5" font-family="Helvetica,sans-Serif" font-size="10.00" fill="#000000"> &lt; Vector&lt; ValueType &gt; &gt;</text>
</g>
<!-- Node26&#45;&gt;Node1 -->
<g id="edge30" class="edge">
<title>Node26&#45;&gt;Node1</title>
<path fill="none" stroke="#191970" d="M1275.5457,-391.0999C1338.9182,-386.645 1429.2604,-381.5 1508.5,-381.5 1508.5,-381.5 1508.5,-381.5 1973.5,-381.5 2088.9408,-381.5 2138.2009,-206.7646 2151.8383,-146.0168"/>
<polygon fill="#191970" stroke="#191970" points="1274.9448,-387.6338 1265.2191,-391.8365 1275.4429,-394.616 1274.9448,-387.6338"/>
</g>
<!-- Node27 -->
<g id="node23" class="node">
<title>Node27</title>
<g id="a_node23"><a xlink:href="classgko_1_1EnableAbsoluteComputation.html" target="_top" xlink:title=" ">
<polygon fill="#ffffff" stroke="#000000" points="1884,-50 1884,-91 2063,-91 2063,-50 1884,-50"/>
<text text-anchor="start" x="1892" y="-79" font-family="Helvetica,sans-Serif" font-size="10.00" fill="#000000">gko::EnableAbsoluteComputation</text>
<text text-anchor="start" x="1892" y="-68" font-family="Helvetica,sans-Serif" font-size="10.00" fill="#000000">&lt; remove_complex&lt; Vector&lt;</text>
<text text-anchor="middle" x="1973.5" y="-57" font-family="Helvetica,sans-Serif" font-size="10.00" fill="#000000"> ValueType &gt; &gt; &gt;</text>
</a>
</g>
</g>
<!-- Node27&#45;&gt;Node1 -->
<g id="edge32" class="edge">
<title>Node27&#45;&gt;Node1</title>
<path fill="none" stroke="#191970" d="M2051.6917,-94.0646C2067.8596,-98.9371 2084.5859,-103.9779 2099.7835,-108.5581"/>
<polygon fill="#191970" stroke="#191970" points="2052.3004,-90.5926 2041.7158,-91.0582 2050.2805,-97.2949 2052.3004,-90.5926"/>
</g>
<!-- Node28 -->
<g id="node24" class="node">
<title>Node28</title>
<g id="a_node24"><a xlink:href="classgko_1_1AbsoluteComputable.html" target="_top" xlink:title="The AbsoluteComputable is an interface that allows to get the component wise absolute of a LinOp.">
<polygon fill="#ffffff" stroke="#000000" points="1318,-17 1318,-36 1461,-36 1461,-17 1318,-17"/>
<text text-anchor="middle" x="1389.5" y="-24" font-family="Helvetica,sans-Serif" font-size="10.00" fill="#000000">gko::AbsoluteComputable</text>
</a>
</g>
</g>
<!-- Node28&#45;&gt;Node27 -->
<g id="edge33" class="edge">
<title>Node28&#45;&gt;Node27</title>
<path fill="none" stroke="#191970" d="M1471.2182,-30.6584C1535.1582,-34.0927 1626.2895,-39.3843 1706,-45.5 1765.296,-50.0494 1831.8812,-56.2684 1883.7864,-61.3655"/>
<polygon fill="#191970" stroke="#191970" points="1471.3679,-27.1615 1461.1955,-30.1233 1470.9947,-34.1515 1471.3679,-27.1615"/>
</g>
<!-- Node29 -->
<g id="node25" class="node">
<title>Node29</title>
<g id="a_node25"><a xlink:href="classgko_1_1EnableAbsoluteComputation.html" target="_top" xlink:title="The EnableAbsoluteComputation mixin provides the default implementations of compute_absolute_linop an...">
<polygon fill="#ffffff" stroke="#000000" points="1527,-55.5 1527,-85.5 1706,-85.5 1706,-55.5 1527,-55.5"/>
<text text-anchor="start" x="1535" y="-73.5" font-family="Helvetica,sans-Serif" font-size="10.00" fill="#000000">gko::EnableAbsoluteComputation</text>
<text text-anchor="middle" x="1616.5" y="-62.5" font-family="Helvetica,sans-Serif" font-size="10.00" fill="#000000">&lt; AbsoluteLinOp &gt;</text>
</a>
</g>
</g>
<!-- Node28&#45;&gt;Node29 -->
<g id="edge35" class="edge">
<title>Node28&#45;&gt;Node29</title>
<path fill="none" stroke="#191970" d="M1450.2544,-37.9022C1463.3666,-40.3864 1477.1491,-43.0154 1490,-45.5 1506.4847,-48.6871 1524.1679,-52.1525 1540.9326,-55.4597"/>
<polygon fill="#191970" stroke="#191970" points="1450.8609,-34.4549 1440.3846,-36.0354 1449.5599,-41.333 1450.8609,-34.4549"/>
</g>
<!-- Node29&#45;&gt;Node27 -->
<g id="edge34" class="edge">
<title>Node29&#45;&gt;Node27</title>
<path fill="none" stroke="#ffa500" stroke-dasharray="5,2" d="M1716.1479,-70.5C1768.7555,-70.5 1832.7995,-70.5 1883.8378,-70.5"/>
<polygon fill="#ffa500" stroke="#ffa500" points="1716.1254,-67.0001 1706.1254,-70.5 1716.1253,-74.0001 1716.1254,-67.0001"/>
<text text-anchor="start" x="1724" y="-84.5" font-family="Helvetica,sans-Serif" font-size="10.00" fill="#000000"> &lt; remove_complex&lt; Vector</text>
<text text-anchor="middle" x="1795" y="-73.5" font-family="Helvetica,sans-Serif" font-size="10.00" fill="#000000">&lt; ValueType &gt; &gt; &gt;</text>
</g>
<!-- Node30 -->
<g id="node26" class="node">
<title>Node30</title>
<g id="a_node26"><a xlink:href="classgko_1_1experimental_1_1distributed_1_1DistributedBase.html" target="_top" xlink:title="A base class for distributed objects.">
<polygon fill="#ffffff" stroke="#000000" points="1897,-.5 1897,-30.5 2050,-30.5 2050,-.5 1897,-.5"/>
<text text-anchor="start" x="1905" y="-18.5" font-family="Helvetica,sans-Serif" font-size="10.00" fill="#000000">gko::experimental::</text>
<text text-anchor="middle" x="1973.5" y="-7.5" font-family="Helvetica,sans-Serif" font-size="10.00" fill="#000000">distributed::DistributedBase</text>
</a>
</g>
</g>
<!-- Node30&#45;&gt;Node1 -->
<g id="edge36" class="edge">
<title>Node30&#45;&gt;Node1</title>
<path fill="none" stroke="#191970" d="M2050.4719,-34.3893C2054.7955,-36.2508 2059.0035,-38.2832 2063,-40.5 2093.031,-57.1578 2121.2057,-85.3535 2138.5059,-104.6698"/>
<polygon fill="#191970" stroke="#191970" points="2051.4451,-31.0103 2040.8589,-30.5816 2048.8672,-37.5183 2051.4451,-31.0103"/>
</g>
</g>
</svg>
        <g id="navigator" transform="translate(0 0)" fill="#404254">
                <rect fill="#f2f5e9" fill-opacity="0.5" stroke="#606060" stroke-width=".5" x="0" y="0" width="60" height="60"/>
                <use id="zoomplus" xlink:href="#zoomPlus" x="17" y="9" onmousedown="handleZoom(evt,'in')"/>
                <use id="zoomminus" xlink:href="#zoomMin" x="42" y="9" onmousedown="handleZoom(evt,'out')"/>
                <use id="reset" xlink:href="#resetDef" x="30" y="36" onmousedown="handleReset()"/>
                <g id="arrowUp" xlink:href="#dirArrow" transform="translate(30 24)" onmousedown="handlePan(0,-1)">
                  <use xlink:href="#rim" fill="#404040">
                        <set attributeName="fill" to="#808080" begin="arrowUp.mouseover" end="arrowUp.mouseout"/>
                  </use>
                  <path fill="none" stroke="white" stroke-width="1.5" d="M0,-3.0v7 M-2.5,-0.5L0,-3.0L2.5,-0.5"/>
                </g>
                <g id="arrowRight" xlink:href="#dirArrow" transform="rotate(90) translate(36 -43)" onmousedown="handlePan(1,0)">
                  <use xlink:href="#rim" fill="#404040">
                        <set attributeName="fill" to="#808080" begin="arrowRight.mouseover" end="arrowRight.mouseout"/>
                  </use>
                  <path fill="none" stroke="white" stroke-width="1.5" d="M0,-3.0v7 M-2.5,-0.5L0,-3.0L2.5,-0.5"/>
                </g>
                <g id="arrowDown" xlink:href="#dirArrow" transform="rotate(180) translate(-30 -48)" onmousedown="handlePan(0,1)">
                  <use xlink:href="#rim" fill="#404040">
                        <set attributeName="fill" to="#808080" begin="arrowDown.mouseover" end="arrowDown.mouseout"/>
                  </use>
                  <path fill="none" stroke="white" stroke-width="1.5" d="M0,-3.0v7 M-2.5,-0.5L0,-3.0L2.5,-0.5"/>
                </g>
                <g id="arrowLeft" xlink:href="#dirArrow" transform="rotate(270) translate(-36 17)" onmousedown="handlePan(-1,0)">
                  <use xlink:href="#rim" fill="#404040">
                        <set attributeName="fill" to="#808080" begin="arrowLeft.mouseover" end="arrowLeft.mouseout"/>
                  </use>
                  <path fill="none" stroke="white" stroke-width="1.5" d="M0,-3.0v7 M-2.5,-0.5L0,-3.0L2.5,-0.5"/>
                </g>
        </g>
        <svg viewBox="0 0 15 15" width="100%" height="30px" preserveAspectRatio="xMaxYMin meet">
         <g id="arrow_out" transform="scale(0.3 0.3)">
          <a xlink:href="classgko_1_1experimental_1_1distributed_1_1Vector__coll__graph_org.svg" target="_base">
           <rect id="button" ry="5" rx="5" y="6" x="6" height="38" width="38"
                fill="#f2f5e9" fill-opacity="0.5" stroke="#606060" stroke-width="1.0"/>
           <path id="arrow"
             d="M 11.500037,31.436501 C 11.940474,20.09759 22.043105,11.32322 32.158766,21.979434 L 37.068811,17.246167 C 37.068811,17.246167 37.088388,32 37.088388,32 L 22.160133,31.978069 C 22.160133,31.978069 26.997745,27.140456 26.997745,27.140456 C 18.528582,18.264221 13.291696,25.230495 11.500037,31.436501 z"
             style="fill:#404040;"/>
          </a>
         </g>
        </svg>
</svg>
