<?xml version="1.0" encoding="UTF-8" standalone="no"?>
<!DOCTYPE svg PUBLIC "-//W3C//DTD SVG 1.1//EN"
 "http://www.w3.org/Graphics/SVG/1.1/DTD/svg11.dtd">
<!-- Generated by graphviz version 2.40.1 (20161225.0304)
 -->
<!-- Title: gko::batch::EnableBatchLinOp&lt; ConcreteBatchLinOp, PolymorphicBase &gt; Pages: 1 -->
<svg width="2127pt" height="197pt"
 viewBox="0.00 0.00 2127.00 196.99" xmlns="http://www.w3.org/2000/svg" xmlns:xlink="http://www.w3.org/1999/xlink">
<g id="graph0" class="graph" transform="scale(1 1) rotate(0) translate(4 192.9892)">
<title>gko::batch::EnableBatchLinOp&lt; ConcreteBatchLinOp, PolymorphicBase &gt;</title>
<polygon fill="#ffffff" stroke="transparent" points="-4,4 -4,-192.9892 2123,-192.9892 2123,4 -4,4"/>
<!-- Node1 -->
<g id="node1" class="node">
<title>Node1</title>
<g id="a_node1"><a xlink:title="The EnableBatchLinOp mixin can be used to provide sensible default implementations of the majority of...">
<polygon fill="#bfbfbf" stroke="#000000" points="1488,-67 1488,-108 1637,-108 1637,-67 1488,-67"/>
<text text-anchor="start" x="1496" y="-96" font-family="Helvetica,sans-Serif" font-size="10.00" fill="#000000">gko::batch::EnableBatchLin</text>
<text text-anchor="start" x="1496" y="-85" font-family="Helvetica,sans-Serif" font-size="10.00" fill="#000000">Op&lt; ConcreteBatchLinOp,</text>
<text text-anchor="middle" x="1562.5" y="-74" font-family="Helvetica,sans-Serif" font-size="10.00" fill="#000000"> PolymorphicBase &gt;</text>
</a>
</g>
</g>
<!-- Node12 -->
<g id="node12" class="node">
<title>Node12</title>
<g id="a_node12"><a xlink:href="classgko_1_1batch_1_1EnableBatchLinOp.html" target="_top" xlink:title=" ">
<polygon fill="#ffffff" stroke="#000000" points="1802,-72.5 1802,-102.5 1957,-102.5 1957,-72.5 1802,-72.5"/>
<text text-anchor="start" x="1810" y="-90.5" font-family="Helvetica,sans-Serif" font-size="10.00" fill="#000000">gko::batch::EnableBatchLin</text>
<text text-anchor="middle" x="1879.5" y="-79.5" font-family="Helvetica,sans-Serif" font-size="10.00" fill="#000000">Op&lt; Dense&lt; ValueType &gt; &gt;</text>
</a>
</g>
</g>
<!-- Node1&#45;&gt;Node12 -->
<g id="edge15" class="edge">
<title>Node1&#45;&gt;Node12</title>
<path fill="none" stroke="#ffa500" stroke-dasharray="5,2" d="M1647.2999,-87.5C1695.3918,-87.5 1755.1286,-87.5 1801.9681,-87.5"/>
<polygon fill="#ffa500" stroke="#ffa500" points="1647.2232,-84.0001 1637.2232,-87.5 1647.2231,-91.0001 1647.2232,-84.0001"/>
<text text-anchor="middle" x="1719.5" y="-90.5" font-family="Helvetica,sans-Serif" font-size="10.00" fill="#000000"> &lt; Dense&lt; ValueType &gt; &gt;</text>
</g>
<!-- Node2 -->
<g id="node2" class="node">
<title>Node2</title>
<g id="a_node2"><a xlink:href="classgko_1_1EnablePolymorphicObject.html" target="_top" xlink:title=" ">
<polygon fill="#ffffff" stroke="#000000" points="1257,-95 1257,-136 1451,-136 1451,-95 1257,-95"/>
<text text-anchor="start" x="1265" y="-124" font-family="Helvetica,sans-Serif" font-size="10.00" fill="#000000">gko::EnablePolymorphicObject</text>
<text text-anchor="start" x="1265" y="-113" font-family="Helvetica,sans-Serif" font-size="10.00" fill="#000000">&lt; ConcreteBatchLinOp, Polymorphic</text>
<text text-anchor="middle" x="1354" y="-102" font-family="Helvetica,sans-Serif" font-size="10.00" fill="#000000">Base &gt;</text>
</a>
</g>
</g>
<!-- Node2&#45;&gt;Node1 -->
<g id="edge1" class="edge">
<title>Node2&#45;&gt;Node1</title>
<path fill="none" stroke="#191970" d="M1461.3477,-101.084C1470.31,-99.8804 1479.2417,-98.681 1487.8777,-97.5212"/>
<polygon fill="#191970" stroke="#191970" points="1460.6752,-97.6428 1451.2301,-102.4427 1461.607,-104.5805 1460.6752,-97.6428"/>
</g>
<!-- Node3 -->
<g id="node3" class="node">
<title>Node3</title>
<g id="a_node3"><a xlink:href="classgko_1_1EnableAbstractPolymorphicObject.html" target="_top" xlink:title=" ">
<polygon fill="#ffffff" stroke="#000000" points="542,-144 542,-185 717,-185 717,-144 542,-144"/>
<text text-anchor="start" x="550" y="-173" font-family="Helvetica,sans-Serif" font-size="10.00" fill="#000000">gko::EnableAbstractPolymorphic</text>
<text text-anchor="start" x="550" y="-162" font-family="Helvetica,sans-Serif" font-size="10.00" fill="#000000">Object&lt; ConcreteBatchLinOp,</text>
<text text-anchor="middle" x="629.5" y="-151" font-family="Helvetica,sans-Serif" font-size="10.00" fill="#000000"> PolymorphicBase &gt;</text>
</a>
</g>
</g>
<!-- Node3&#45;&gt;Node2 -->
<g id="edge2" class="edge">
<title>Node3&#45;&gt;Node2</title>
<path fill="none" stroke="#191970" d="M727.5322,-165.8899C848.3263,-166.3965 1059.605,-163.3533 1239,-140.5 1248.2219,-139.3252 1257.7984,-137.7783 1267.3123,-136.0286"/>
<polygon fill="#191970" stroke="#191970" points="727.2217,-162.3883 717.2039,-165.8369 727.1858,-169.3882 727.2217,-162.3883"/>
</g>
<!-- Node4 -->
<g id="node4" class="node">
<title>Node4</title>
<g id="a_node4"><a xlink:title=" ">
<polygon fill="#ffffff" stroke="#bfbfbf" points="0,-126 0,-145 101,-145 101,-126 0,-126"/>
<text text-anchor="middle" x="50.5" y="-133" font-family="Helvetica,sans-Serif" font-size="10.00" fill="#000000">PolymorphicBase</text>
</a>
</g>
</g>
<!-- Node4&#45;&gt;Node3 -->
<g id="edge3" class="edge">
<title>Node4&#45;&gt;Node3</title>
<path fill="none" stroke="#191970" d="M82.6542,-148.8188C98.9518,-154.9756 119.2219,-161.7421 138,-165.5 300.6692,-198.0533 345.4341,-189.9372 511,-179.5 521.0376,-178.8672 531.5251,-177.9358 541.9318,-176.8417"/>
<polygon fill="#191970" stroke="#191970" points="83.6578,-145.4539 73.069,-145.0965 81.1237,-151.9791 83.6578,-145.4539"/>
</g>
<!-- Node5 -->
<g id="node5" class="node">
<title>Node5</title>
<g id="a_node5"><a xlink:href="classgko_1_1EnableAbstractPolymorphicObject.html" target="_top" xlink:title="This mixin inherits from (a subclass of) PolymorphicObject and provides a base implementation of a ne...">
<polygon fill="#ffffff" stroke="#000000" points="138,-115 138,-156 336,-156 336,-115 138,-115"/>
<text text-anchor="start" x="146" y="-144" font-family="Helvetica,sans-Serif" font-size="10.00" fill="#000000">gko::EnableAbstractPolymorphic</text>
<text text-anchor="start" x="146" y="-133" font-family="Helvetica,sans-Serif" font-size="10.00" fill="#000000">Object&lt; AbstractObject, Polymorphic</text>
<text text-anchor="middle" x="237" y="-122" font-family="Helvetica,sans-Serif" font-size="10.00" fill="#000000">Base &gt;</text>
</a>
</g>
</g>
<!-- Node4&#45;&gt;Node5 -->
<g id="edge5" class="edge">
<title>Node4&#45;&gt;Node5</title>
<path fill="none" stroke="#191970" d="M111.5248,-135.5C119.9555,-135.5 128.7869,-135.5 137.6923,-135.5"/>
<polygon fill="#191970" stroke="#191970" points="111.462,-132.0001 101.4619,-135.5 111.4619,-139.0001 111.462,-132.0001"/>
</g>
<!-- Node7 -->
<g id="node7" class="node">
<title>Node7</title>
<g id="a_node7"><a xlink:href="classgko_1_1EnableAbstractPolymorphicObject.html" target="_top" xlink:title=" ">
<polygon fill="#ffffff" stroke="#000000" points="529,-84 529,-125 730,-125 730,-84 529,-84"/>
<text text-anchor="start" x="537" y="-113" font-family="Helvetica,sans-Serif" font-size="10.00" fill="#000000">gko::EnableAbstractPolymorphic</text>
<text text-anchor="start" x="537" y="-102" font-family="Helvetica,sans-Serif" font-size="10.00" fill="#000000">Object&lt; ConcreteObject, Polymorphic</text>
<text text-anchor="middle" x="629.5" y="-91" font-family="Helvetica,sans-Serif" font-size="10.00" fill="#000000">Base &gt;</text>
</a>
</g>
</g>
<!-- Node4&#45;&gt;Node7 -->
<g id="edge8" class="edge">
<title>Node4&#45;&gt;Node7</title>
<path fill="none" stroke="#191970" d="M81.5592,-122.1253C98.0027,-115.7485 118.7317,-108.8031 138,-105.5 301.3966,-77.4892 345.2213,-102.8005 511,-103.5 516.8634,-103.5247 522.89,-103.5564 528.9708,-103.593"/>
<polygon fill="#191970" stroke="#191970" points="79.9071,-119.0167 71.9259,-125.9846 82.5103,-125.5146 79.9071,-119.0167"/>
</g>
<!-- Node5&#45;&gt;Node3 -->
<g id="edge4" class="edge">
<title>Node5&#45;&gt;Node3</title>
<path fill="none" stroke="#ffa500" stroke-dasharray="5,2" d="M346.2134,-143.5693C407.9382,-148.1298 484.0683,-153.7547 541.8581,-158.0245"/>
<polygon fill="#ffa500" stroke="#ffa500" points="346.2751,-140.0644 336.0443,-142.8179 345.7592,-147.0453 346.2751,-140.0644"/>
<text text-anchor="start" x="374" y="-168.5" font-family="Helvetica,sans-Serif" font-size="10.00" fill="#000000"> &lt; ConcreteBatchLinOp,</text>
<text text-anchor="middle" x="432.5" y="-157.5" font-family="Helvetica,sans-Serif" font-size="10.00" fill="#000000"> PolymorphicBase &gt;</text>
</g>
<!-- Node5&#45;&gt;Node7 -->
<g id="edge9" class="edge">
<title>Node5&#45;&gt;Node7</title>
<path fill="none" stroke="#ffa500" stroke-dasharray="5,2" d="M346.2792,-119.2937C348.8763,-119.0145 351.4529,-118.7492 354,-118.5 411.7926,-112.8455 476.6426,-109.4067 528.9003,-107.3532"/>
<polygon fill="#ffa500" stroke="#ffa500" points="345.7227,-115.8342 336.1789,-120.4348 346.5087,-122.7899 345.7227,-115.8342"/>
<text text-anchor="start" x="354" y="-132.5" font-family="Helvetica,sans-Serif" font-size="10.00" fill="#000000"> &lt; ConcreteObject, Polymorphic</text>
<text text-anchor="middle" x="432.5" y="-121.5" font-family="Helvetica,sans-Serif" font-size="10.00" fill="#000000">Base &gt;</text>
</g>
<!-- Node6 -->
<g id="node6" class="node">
<title>Node6</title>
<g id="a_node6"><a xlink:href="classgko_1_1EnablePolymorphicObject.html" target="_top" xlink:title="This mixin inherits from (a subclass of) PolymorphicObject and provides a base implementation of a ne...">
<polygon fill="#ffffff" stroke="#000000" points="891,-99.5 891,-129.5 1096,-129.5 1096,-99.5 891,-99.5"/>
<text text-anchor="start" x="899" y="-117.5" font-family="Helvetica,sans-Serif" font-size="10.00" fill="#000000">gko::EnablePolymorphicObject</text>
<text text-anchor="middle" x="993.5" y="-106.5" font-family="Helvetica,sans-Serif" font-size="10.00" fill="#000000">&lt; ConcreteObject, PolymorphicBase &gt;</text>
</a>
</g>
</g>
<!-- Node6&#45;&gt;Node2 -->
<g id="edge6" class="edge">
<title>Node6&#45;&gt;Node2</title>
<path fill="none" stroke="#ffa500" stroke-dasharray="5,2" d="M1106.5026,-114.8135C1154.7728,-114.9474 1210.554,-115.1021 1256.9272,-115.2307"/>
<polygon fill="#ffa500" stroke="#ffa500" points="1106.3321,-111.3131 1096.3224,-114.7852 1106.3126,-118.313 1106.3321,-111.3131"/>
<text text-anchor="start" x="1118" y="-128.5" font-family="Helvetica,sans-Serif" font-size="10.00" fill="#000000"> &lt; ConcreteBatchLinOp,</text>
<text text-anchor="middle" x="1176.5" y="-117.5" font-family="Helvetica,sans-Serif" font-size="10.00" fill="#000000"> PolymorphicBase &gt;</text>
</g>
<!-- Node7&#45;&gt;Node6 -->
<g id="edge7" class="edge">
<title>Node7&#45;&gt;Node6</title>
<path fill="none" stroke="#191970" d="M740.4955,-107.5493C788.3344,-108.8636 843.9354,-110.3911 890.8106,-111.6789"/>
<polygon fill="#191970" stroke="#191970" points="740.5033,-104.0483 730.4109,-107.2723 740.311,-111.0457 740.5033,-104.0483"/>
</g>
<!-- Node8 -->
<g id="node8" class="node">
<title>Node8</title>
<g id="a_node8"><a xlink:href="classgko_1_1EnablePolymorphicAssignment.html" target="_top" xlink:title=" ">
<polygon fill="#ffffff" stroke="#000000" points="1258,-45.5 1258,-75.5 1450,-75.5 1450,-45.5 1258,-45.5"/>
<text text-anchor="start" x="1266" y="-63.5" font-family="Helvetica,sans-Serif" font-size="10.00" fill="#000000">gko::EnablePolymorphicAssignment</text>
<text text-anchor="middle" x="1354" y="-52.5" font-family="Helvetica,sans-Serif" font-size="10.00" fill="#000000">&lt; ConcreteBatchLinOp &gt;</text>
</a>
</g>
</g>
<!-- Node8&#45;&gt;Node1 -->
<g id="edge10" class="edge">
<title>Node8&#45;&gt;Node1</title>
<path fill="none" stroke="#191970" d="M1460.1668,-74.2482C1469.5315,-75.4609 1478.8756,-76.6709 1487.8966,-77.8391"/>
<polygon fill="#191970" stroke="#191970" points="1460.378,-70.7464 1450.0113,-72.9331 1459.479,-77.6885 1460.378,-70.7464"/>
</g>
<!-- Node9 -->
<g id="node9" class="node">
<title>Node9</title>
<g id="a_node9"><a xlink:href="classgko_1_1ConvertibleTo.html" target="_top" xlink:title=" ">
<polygon fill="#ffffff" stroke="#000000" points="924.5,-49.5 924.5,-79.5 1062.5,-79.5 1062.5,-49.5 924.5,-49.5"/>
<text text-anchor="start" x="932.5" y="-67.5" font-family="Helvetica,sans-Serif" font-size="10.00" fill="#000000">gko::ConvertibleTo</text>
<text text-anchor="middle" x="993.5" y="-56.5" font-family="Helvetica,sans-Serif" font-size="10.00" fill="#000000">&lt; ConcreteBatchLinOp &gt;</text>
</a>
</g>
</g>
<!-- Node9&#45;&gt;Node8 -->
<g id="edge11" class="edge">
<title>Node9&#45;&gt;Node8</title>
<path fill="none" stroke="#191970" d="M1072.8893,-63.6191C1127.4182,-63.0141 1200.1081,-62.2075 1257.9096,-61.5662"/>
<polygon fill="#191970" stroke="#191970" points="1072.542,-60.1227 1062.5815,-63.7335 1072.6197,-67.1222 1072.542,-60.1227"/>
</g>
<!-- Node10 -->
<g id="node10" class="node">
<title>Node10</title>
<g id="a_node10"><a xlink:href="classgko_1_1ConvertibleTo.html" target="_top" xlink:title="ConvertibleTo interface is used to mark that the implementer can be converted to the object of Result...">
<polygon fill="#ffffff" stroke="#000000" points="576,-25.5 576,-55.5 683,-55.5 683,-25.5 576,-25.5"/>
<text text-anchor="start" x="584" y="-43.5" font-family="Helvetica,sans-Serif" font-size="10.00" fill="#000000">gko::ConvertibleTo</text>
<text text-anchor="middle" x="629.5" y="-32.5" font-family="Helvetica,sans-Serif" font-size="10.00" fill="#000000">&lt; ResultType &gt;</text>
</a>
</g>
</g>
<!-- Node10&#45;&gt;Node9 -->
<g id="edge12" class="edge">
<title>Node10&#45;&gt;Node9</title>
<path fill="none" stroke="#ffa500" stroke-dasharray="5,2" d="M693.2781,-44.7051C757.9571,-48.9697 857.75,-55.5495 924.3084,-59.9379"/>
<polygon fill="#ffa500" stroke="#ffa500" points="693.4181,-41.2069 683.2095,-44.0413 692.9575,-48.1917 693.4181,-41.2069"/>
<text text-anchor="middle" x="810.5" y="-59.5" font-family="Helvetica,sans-Serif" font-size="10.00" fill="#000000"> &lt; ConcreteBatchLinOp &gt;</text>
</g>
<!-- Node11 -->
<g id="node11" class="node">
<title>Node11</title>
<g id="a_node11"><a xlink:href="classgko_1_1EnablePolymorphicAssignment.html" target="_top" xlink:title="This mixin is used to enable a default PolymorphicObject::copy_from() implementation for objects that...">
<polygon fill="#ffffff" stroke="#000000" points="897.5,-.5 897.5,-30.5 1089.5,-30.5 1089.5,-.5 897.5,-.5"/>
<text text-anchor="start" x="905.5" y="-18.5" font-family="Helvetica,sans-Serif" font-size="10.00" fill="#000000">gko::EnablePolymorphicAssignment</text>
<text text-anchor="middle" x="993.5" y="-7.5" font-family="Helvetica,sans-Serif" font-size="10.00" fill="#000000">&lt; ConcreteType, ResultType &gt;</text>
</a>
</g>
</g>
<!-- Node10&#45;&gt;Node11 -->
<g id="edge14" class="edge">
<title>Node10&#45;&gt;Node11</title>
<path fill="none" stroke="#191970" d="M693.4312,-36.1091C749.8928,-32.2313 833.0261,-26.5216 897.4802,-22.0948"/>
<polygon fill="#191970" stroke="#191970" points="692.9461,-32.6341 683.2095,-36.8112 693.4258,-39.6176 692.9461,-32.6341"/>
</g>
<!-- Node11&#45;&gt;Node8 -->
<g id="edge13" class="edge">
<title>Node11&#45;&gt;Node8</title>
<path fill="none" stroke="#ffa500" stroke-dasharray="5,2" d="M1099.8402,-28.7741C1149.8872,-35.0213 1209.1284,-42.4162 1257.8213,-48.4943"/>
<polygon fill="#ffa500" stroke="#ffa500" points="1099.9904,-25.2658 1089.6338,-27.5001 1099.1233,-32.2118 1099.9904,-25.2658"/>
<text text-anchor="middle" x="1176.5" y="-49.5" font-family="Helvetica,sans-Serif" font-size="10.00" fill="#000000"> &lt; ConcreteBatchLinOp &gt;</text>
</g>
<!-- Node13 -->
<g id="node13" class="node">
<title>Node13</title>
<g id="a_node13"><a xlink:href="classgko_1_1batch_1_1matrix_1_1Dense.html" target="_top" xlink:title="Dense is a batch matrix format which explicitly stores all values of the matrix in each of the batche...">
<polygon fill="#ffffff" stroke="#000000" points="1994,-72.5 1994,-102.5 2119,-102.5 2119,-72.5 1994,-72.5"/>
<text text-anchor="start" x="2002" y="-90.5" font-family="Helvetica,sans-Serif" font-size="10.00" fill="#000000">gko::batch::matrix</text>
<text text-anchor="middle" x="2056.5" y="-79.5" font-family="Helvetica,sans-Serif" font-size="10.00" fill="#000000">::Dense&lt; ValueType &gt;</text>
</a>
</g>
</g>
<!-- Node12&#45;&gt;Node13 -->
<g id="edge16" class="edge">
<title>Node12&#45;&gt;Node13</title>
<path fill="none" stroke="#191970" d="M1967.2363,-87.5C1976.2047,-87.5 1985.1836,-87.5 1993.8045,-87.5"/>
<polygon fill="#191970" stroke="#191970" points="1967.1348,-84.0001 1957.1348,-87.5 1967.1347,-91.0001 1967.1348,-84.0001"/>
</g>
</g>
</svg>
