<?xml version="1.0" encoding="UTF-8" standalone="no"?>
<!DOCTYPE svg PUBLIC "-//W3C//DTD SVG 1.1//EN"
 "http://www.w3.org/Graphics/SVG/1.1/DTD/svg11.dtd">
<!-- Generated by graphviz version 2.40.1 (20161225.0304)
 -->
<!-- Title: gko::multigrid::FixedCoarsening&lt; ValueType, IndexType &gt; Pages: 1 -->
<svg width="1198pt" height="151pt"
 viewBox="0.00 0.00 1198.00 150.50" xmlns="http://www.w3.org/2000/svg" xmlns:xlink="http://www.w3.org/1999/xlink">
<g id="graph0" class="graph" transform="scale(1 1) rotate(0) translate(4 146.5)">
<title>gko::multigrid::FixedCoarsening&lt; ValueType, IndexType &gt;</title>
<polygon fill="#ffffff" stroke="transparent" points="-4,4 -4,-146.5 1194,-146.5 1194,4 -4,4"/>
<!-- Node1 -->
<g id="node1" class="node">
<title>Node1</title>
<g id="a_node1"><a xlink:title="FixedCoarsening is a very simple coarse grid generation algorithm.">
<polygon fill="#bfbfbf" stroke="#000000" points="1019,-70.5 1019,-100.5 1190,-100.5 1190,-70.5 1019,-70.5"/>
<text text-anchor="start" x="1027" y="-88.5" font-family="Helvetica,sans-Serif" font-size="10.00" fill="#000000">gko::multigrid::FixedCoarsening</text>
<text text-anchor="middle" x="1104.5" y="-77.5" font-family="Helvetica,sans-Serif" font-size="10.00" fill="#000000">&lt; ValueType, IndexType &gt;</text>
</a>
</g>
</g>
<!-- Node2 -->
<g id="node2" class="node">
<title>Node2</title>
<g id="a_node2"><a xlink:href="classgko_1_1LinOp.html" target="_top" xlink:title=" ">
<polygon fill="#ffffff" stroke="#000000" points="864.5,-99 864.5,-118 932.5,-118 932.5,-99 864.5,-99"/>
<text text-anchor="middle" x="898.5" y="-106" font-family="Helvetica,sans-Serif" font-size="10.00" fill="#000000">gko::LinOp</text>
</a>
</g>
</g>
<!-- Node2&#45;&gt;Node1 -->
<g id="edge1" class="edge">
<title>Node2&#45;&gt;Node1</title>
<path fill="none" stroke="#191970" d="M942.6431,-103.5714C964.8889,-101.0876 992.6479,-97.9883 1018.8619,-95.0615"/>
<polygon fill="#191970" stroke="#191970" points="942.0666,-100.1139 932.5167,-104.702 942.8434,-107.0707 942.0666,-100.1139"/>
</g>
<!-- Node3 -->
<g id="node3" class="node">
<title>Node3</title>
<g id="a_node3"><a xlink:href="classgko_1_1PolymorphicObject.html" target="_top" xlink:title="A PolymorphicObject is the abstract base for all &quot;heavy&quot; objects in Ginkgo that behave polymorphicall...">
<polygon fill="#ffffff" stroke="#000000" points="644.5,-99 644.5,-118 777.5,-118 777.5,-99 644.5,-99"/>
<text text-anchor="middle" x="711" y="-106" font-family="Helvetica,sans-Serif" font-size="10.00" fill="#000000">gko::PolymorphicObject</text>
</a>
</g>
</g>
<!-- Node3&#45;&gt;Node2 -->
<g id="edge2" class="edge">
<title>Node3&#45;&gt;Node2</title>
<path fill="none" stroke="#191970" d="M787.7445,-108.5C814.418,-108.5 842.9919,-108.5 864.4348,-108.5"/>
<polygon fill="#191970" stroke="#191970" points="787.6335,-105.0001 777.6334,-108.5 787.6334,-112.0001 787.6335,-105.0001"/>
</g>
<!-- Node4 -->
<g id="node4" class="node">
<title>Node4</title>
<g id="a_node4"><a xlink:href="classgko_1_1log_1_1EnableLogging.html" target="_top" xlink:title=" ">
<polygon fill="#ffffff" stroke="#000000" points="474,-93.5 474,-123.5 607,-123.5 607,-93.5 474,-93.5"/>
<text text-anchor="start" x="482" y="-111.5" font-family="Helvetica,sans-Serif" font-size="10.00" fill="#000000">gko::log::EnableLogging</text>
<text text-anchor="middle" x="540.5" y="-100.5" font-family="Helvetica,sans-Serif" font-size="10.00" fill="#000000">&lt; PolymorphicObject &gt;</text>
</a>
</g>
</g>
<!-- Node4&#45;&gt;Node3 -->
<g id="edge3" class="edge">
<title>Node4&#45;&gt;Node3</title>
<path fill="none" stroke="#191970" d="M617.441,-108.5C626.4028,-108.5 635.4883,-108.5 644.2962,-108.5"/>
<polygon fill="#191970" stroke="#191970" points="617.3968,-105.0001 607.3968,-108.5 617.3967,-112.0001 617.3968,-105.0001"/>
</g>
<!-- Node5 -->
<g id="node5" class="node">
<title>Node5</title>
<g id="a_node5"><a xlink:href="classgko_1_1log_1_1Loggable.html" target="_top" xlink:title="Loggable class is an interface which should be implemented by classes wanting to support logging.">
<polygon fill="#ffffff" stroke="#000000" points="176,-123 176,-142 282,-142 282,-123 176,-123"/>
<text text-anchor="middle" x="229" y="-130" font-family="Helvetica,sans-Serif" font-size="10.00" fill="#000000">gko::log::Loggable</text>
</a>
</g>
</g>
<!-- Node5&#45;&gt;Node4 -->
<g id="edge4" class="edge">
<title>Node5&#45;&gt;Node4</title>
<path fill="none" stroke="#191970" d="M292.4534,-127.6111C345.2884,-123.5404 420.2902,-117.7618 473.9643,-113.6263"/>
<polygon fill="#191970" stroke="#191970" points="291.8964,-124.1436 282.1948,-128.4015 292.4342,-131.1229 291.8964,-124.1436"/>
</g>
<!-- Node6 -->
<g id="node6" class="node">
<title>Node6</title>
<g id="a_node6"><a xlink:href="classgko_1_1log_1_1EnableLogging.html" target="_top" xlink:title="EnableLogging is a mixin which should be inherited by any class which wants to enable logging.">
<polygon fill="#ffffff" stroke="#000000" points="138,-63 138,-104 320,-104 320,-63 138,-63"/>
<text text-anchor="start" x="146" y="-92" font-family="Helvetica,sans-Serif" font-size="10.00" fill="#000000">gko::log::EnableLogging</text>
<text text-anchor="start" x="146" y="-81" font-family="Helvetica,sans-Serif" font-size="10.00" fill="#000000">&lt; ConcreteLoggable, Polymorphic</text>
<text text-anchor="middle" x="229" y="-70" font-family="Helvetica,sans-Serif" font-size="10.00" fill="#000000">Base &gt;</text>
</a>
</g>
</g>
<!-- Node6&#45;&gt;Node4 -->
<g id="edge5" class="edge">
<title>Node6&#45;&gt;Node4</title>
<path fill="none" stroke="#ffa500" stroke-dasharray="5,2" d="M330.2699,-90.6566C369.5463,-93.5442 414.8841,-97.0144 456,-100.5 461.7264,-100.9854 467.6692,-101.5087 473.6295,-102.0469"/>
<polygon fill="#ffa500" stroke="#ffa500" points="330.3865,-87.1559 320.1576,-89.9161 329.8752,-94.1372 330.3865,-87.1559"/>
<text text-anchor="middle" x="397" y="-103.5" font-family="Helvetica,sans-Serif" font-size="10.00" fill="#000000"> &lt; PolymorphicObject &gt;</text>
</g>
<!-- Node7 -->
<g id="node7" class="node">
<title>Node7</title>
<g id="a_node7"><a xlink:title=" ">
<polygon fill="#ffffff" stroke="#bfbfbf" points="0,-74 0,-93 101,-93 101,-74 0,-74"/>
<text text-anchor="middle" x="50.5" y="-81" font-family="Helvetica,sans-Serif" font-size="10.00" fill="#000000">PolymorphicBase</text>
</a>
</g>
</g>
<!-- Node7&#45;&gt;Node6 -->
<g id="edge6" class="edge">
<title>Node7&#45;&gt;Node6</title>
<path fill="none" stroke="#191970" d="M111.4269,-83.5C120.0117,-83.5 128.9864,-83.5 137.9851,-83.5"/>
<polygon fill="#191970" stroke="#191970" points="111.1735,-80.0001 101.1735,-83.5 111.1734,-87.0001 111.1735,-80.0001"/>
</g>
<!-- Node8 -->
<g id="node8" class="node">
<title>Node8</title>
<g id="a_node8"><a xlink:href="classgko_1_1multigrid_1_1EnableMultigridLevel.html" target="_top" xlink:title="The EnableMultigridLevel gives the default implementation of MultigridLevel with composition and prov...">
<polygon fill="#ffffff" stroke="#000000" points="815,-49.5 815,-79.5 982,-79.5 982,-49.5 815,-49.5"/>
<text text-anchor="start" x="823" y="-67.5" font-family="Helvetica,sans-Serif" font-size="10.00" fill="#000000">gko::multigrid::EnableMultigrid</text>
<text text-anchor="middle" x="898.5" y="-56.5" font-family="Helvetica,sans-Serif" font-size="10.00" fill="#000000">Level&lt; ValueType &gt;</text>
</a>
</g>
</g>
<!-- Node8&#45;&gt;Node1 -->
<g id="edge7" class="edge">
<title>Node8&#45;&gt;Node1</title>
<path fill="none" stroke="#191970" d="M992.5093,-74.0835C1001.2635,-74.9759 1010.1049,-75.8772 1018.7781,-76.7614"/>
<polygon fill="#191970" stroke="#191970" points="992.5915,-70.5738 982.2881,-73.0415 991.8815,-77.5377 992.5915,-70.5738"/>
</g>
<!-- Node9 -->
<g id="node9" class="node">
<title>Node9</title>
<g id="a_node9"><a xlink:href="classgko_1_1multigrid_1_1MultigridLevel.html" target="_top" xlink:title="This class represents two levels in a multigrid hierarchy.">
<polygon fill="#ffffff" stroke="#000000" points="644,-49.5 644,-79.5 778,-79.5 778,-49.5 644,-49.5"/>
<text text-anchor="start" x="652" y="-67.5" font-family="Helvetica,sans-Serif" font-size="10.00" fill="#000000">gko::multigrid::Multigrid</text>
<text text-anchor="middle" x="711" y="-56.5" font-family="Helvetica,sans-Serif" font-size="10.00" fill="#000000">Level</text>
</a>
</g>
</g>
<!-- Node9&#45;&gt;Node8 -->
<g id="edge8" class="edge">
<title>Node9&#45;&gt;Node8</title>
<path fill="none" stroke="#191970" d="M788.3092,-64.5C797.0461,-64.5 805.9796,-64.5 814.7933,-64.5"/>
<polygon fill="#191970" stroke="#191970" points="788.1622,-61.0001 778.1622,-64.5 788.1622,-68.0001 788.1622,-61.0001"/>
</g>
<!-- Node10 -->
<g id="node10" class="node">
<title>Node10</title>
<g id="a_node10"><a xlink:href="classgko_1_1UseComposition.html" target="_top" xlink:title="The UseComposition class can be used to store the composition information in LinOp.">
<polygon fill="#ffffff" stroke="#000000" points="650.5,-.5 650.5,-30.5 771.5,-30.5 771.5,-.5 650.5,-.5"/>
<text text-anchor="start" x="658.5" y="-18.5" font-family="Helvetica,sans-Serif" font-size="10.00" fill="#000000">gko::UseComposition</text>
<text text-anchor="middle" x="711" y="-7.5" font-family="Helvetica,sans-Serif" font-size="10.00" fill="#000000">&lt; ValueType &gt;</text>
</a>
</g>
</g>
<!-- Node10&#45;&gt;Node8 -->
<g id="edge9" class="edge">
<title>Node10&#45;&gt;Node8</title>
<path fill="none" stroke="#191970" d="M778.4345,-33.1229C798.9479,-38.4837 821.2903,-44.3225 841.0784,-49.4938"/>
<polygon fill="#191970" stroke="#191970" points="779.0905,-29.6768 768.5304,-30.5346 777.3205,-36.4494 779.0905,-29.6768"/>
</g>
</g>
</svg>
