<?xml version="1.0" encoding="UTF-8" standalone="no"?>
<!DOCTYPE svg PUBLIC "-//W3C//DTD SVG 1.1//EN"
 "http://www.w3.org/Graphics/SVG/1.1/DTD/svg11.dtd">
<!-- Generated by graphviz version 2.40.1 (20161225.0304)
 -->
<!-- Title: gko::UseComposition&lt; ValueType &gt; Pages: 1 -->
<!--zoomable 186 -->
<svg id="main" version="1.1" xmlns="http://www.w3.org/2000/svg" xmlns:xlink="http://www.w3.org/1999/xlink" xml:space="preserve" onload="init(evt)">
<style type="text/css"><![CDATA[
.edge:hover path { stroke: red; }
.edge:hover polygon { stroke: red; fill: red; }
]]></style>
<script type="text/javascript"><![CDATA[
var edges = document.getElementsByTagName('g');
if (edges && edges.length) {
  for (var i=0;i<edges.length;i++) {
    if (edges[i].id.substr(0,4)=='edge') {
      edges[i].setAttribute('class','edge');
    }
  }
}
]]></script>
        <defs>
                <circle id="rim" cx="0" cy="0" r="7"/>
                <circle id="rim2" cx="0" cy="0" r="3.5"/>
                <g id="zoomPlus">
                        <use xlink:href="#rim" fill="#404040">
                                <set attributeName="fill" to="#808080" begin="zoomplus.mouseover" end="zoomplus.mouseout"/>
                        </use>
                        <path d="M-4,0h8M0,-4v8" fill="none" stroke="white" stroke-width="1.5" pointer-events="none"/>
                </g>
                <g id="zoomMin">
                        <use xlink:href="#rim" fill="#404040">
                                <set attributeName="fill" to="#808080" begin="zoomminus.mouseover" end="zoomminus.mouseout"/>
                        </use>
                        <path d="M-4,0h8" fill="none" stroke="white" stroke-width="1.5" pointer-events="none"/>
                </g>
                <g id="dirArrow">
                        <path fill="none" stroke="white" stroke-width="1.5" d="M0,-3.0v7 M-2.5,-0.5L0,-3.0L2.5,-0.5"/>
                </g>
               <g id="resetDef">
                       <use xlink:href="#rim2" fill="#404040">
                               <set attributeName="fill" to="#808080" begin="reset.mouseover" end="reset.mouseout"/>
                       </use>
               </g>
        </defs>

<script type="text/javascript">
var viewWidth = 553;
var viewHeight = 186;
var sectionId = 'dynsection-0';
</script>
<script xlink:href="svgpan.js"/>
<svg id="graph" class="graph">
<g id="viewport">
<title>gko::UseComposition&lt; ValueType &gt;</title>
<polygon fill="#ffffff" stroke="transparent" points="-4,4 -4,-182 549,-182 549,4 -4,4"/>
<!-- Node1 -->
<g id="node1" class="node">
<title>Node1</title>
<g id="a_node1"><a xlink:title="The UseComposition class can be used to store the composition information in LinOp.">
<polygon fill="#bfbfbf" stroke="#000000" points="0,-73.5 0,-103.5 121,-103.5 121,-73.5 0,-73.5"/>
<text text-anchor="start" x="8" y="-91.5" font-family="Helvetica,sans-Serif" font-size="10.00" fill="#000000">gko::UseComposition</text>
<text text-anchor="middle" x="60.5" y="-80.5" font-family="Helvetica,sans-Serif" font-size="10.00" fill="#000000">&lt; ValueType &gt;</text>
</a>
</g>
</g>
<!-- Node2 -->
<g id="node2" class="node">
<title>Node2</title>
<g id="a_node2"><a xlink:href="classgko_1_1multigrid_1_1EnableMultigridLevel.html" target="_top" xlink:title="The EnableMultigridLevel gives the default implementation of MultigridLevel with composition and prov...">
<polygon fill="#ffffff" stroke="#000000" points="157,-73.5 157,-103.5 324,-103.5 324,-73.5 157,-73.5"/>
<text text-anchor="start" x="165" y="-91.5" font-family="Helvetica,sans-Serif" font-size="10.00" fill="#000000">gko::multigrid::EnableMultigrid</text>
<text text-anchor="middle" x="240.5" y="-80.5" font-family="Helvetica,sans-Serif" font-size="10.00" fill="#000000">Level&lt; ValueType &gt;</text>
</a>
</g>
</g>
<!-- Node1&#45;&gt;Node2 -->
<g id="edge1" class="edge">
<title>Node1&#45;&gt;Node2</title>
<path fill="none" stroke="#191970" d="M131.2585,-88.5C139.6254,-88.5 148.225,-88.5 156.7495,-88.5"/>
<polygon fill="#191970" stroke="#191970" points="131.1889,-85.0001 121.1888,-88.5 131.1888,-92.0001 131.1889,-85.0001"/>
</g>
<!-- Node3 -->
<g id="node3" class="node">
<title>Node3</title>
<g id="a_node3"><a xlink:href="classgko_1_1multigrid_1_1FixedCoarsening.html" target="_top" xlink:title="FixedCoarsening is a very simple coarse grid generation algorithm.">
<polygon fill="#ffffff" stroke="#000000" points="367,-147.5 367,-177.5 538,-177.5 538,-147.5 367,-147.5"/>
<text text-anchor="start" x="375" y="-165.5" font-family="Helvetica,sans-Serif" font-size="10.00" fill="#000000">gko::multigrid::FixedCoarsening</text>
<text text-anchor="middle" x="452.5" y="-154.5" font-family="Helvetica,sans-Serif" font-size="10.00" fill="#000000">&lt; ValueType &gt;</text>
</a>
</g>
</g>
<!-- Node2&#45;&gt;Node3 -->
<g id="edge2" class="edge">
<title>Node2&#45;&gt;Node3</title>
<path fill="none" stroke="#191970" d="M282.3163,-107.7194C305.0018,-117.7054 333.7069,-129.6386 360,-138.5 369.4331,-141.6792 379.5257,-144.6865 389.4503,-147.4279"/>
<polygon fill="#191970" stroke="#191970" points="283.5468,-104.4362 272.9872,-103.5735 280.704,-110.833 283.5468,-104.4362"/>
</g>
<!-- Node4 -->
<g id="node4" class="node">
<title>Node4</title>
<g id="a_node4"><a xlink:href="classgko_1_1multigrid_1_1Pgm.html" target="_top" xlink:title="Parallel graph match (Pgm) is the aggregate method introduced in the paper M.">
<polygon fill="#ffffff" stroke="#000000" points="396,-98.5 396,-128.5 509,-128.5 509,-98.5 396,-98.5"/>
<text text-anchor="start" x="404" y="-116.5" font-family="Helvetica,sans-Serif" font-size="10.00" fill="#000000">gko::multigrid::Pgm</text>
<text text-anchor="middle" x="452.5" y="-105.5" font-family="Helvetica,sans-Serif" font-size="10.00" fill="#000000">&lt; ValueType &gt;</text>
</a>
</g>
</g>
<!-- Node2&#45;&gt;Node4 -->
<g id="edge3" class="edge">
<title>Node2&#45;&gt;Node4</title>
<path fill="none" stroke="#191970" d="M334.4747,-99.5819C355.3581,-102.0446 376.8723,-104.5816 395.7184,-106.8041"/>
<polygon fill="#191970" stroke="#191970" points="334.6291,-96.076 324.288,-98.3807 333.8093,-103.0278 334.6291,-96.076"/>
</g>
<!-- Node5 -->
<g id="node5" class="node">
<title>Node5</title>
<g id="a_node5"><a xlink:href="classgko_1_1multigrid_1_1Rs.html" target="_top" xlink:title="Rs implements the Ruge–Stueben (classical) Algebraic Multigrid (AMG) coarsening strategy for M&#45;matric...">
<polygon fill="#ffffff" stroke="#000000" points="401,-49.5 401,-79.5 504,-79.5 504,-49.5 401,-49.5"/>
<text text-anchor="start" x="409" y="-67.5" font-family="Helvetica,sans-Serif" font-size="10.00" fill="#000000">gko::multigrid::Rs</text>
<text text-anchor="middle" x="452.5" y="-56.5" font-family="Helvetica,sans-Serif" font-size="10.00" fill="#000000">&lt; ValueType &gt;</text>
</a>
</g>
</g>
<!-- Node2&#45;&gt;Node5 -->
<g id="edge4" class="edge">
<title>Node2&#45;&gt;Node5</title>
<path fill="none" stroke="#191970" d="M334.3468,-77.8758C357.1483,-75.2945 380.71,-72.6272 400.7364,-70.36"/>
<polygon fill="#191970" stroke="#191970" points="333.8308,-74.4118 324.288,-79.0146 334.6183,-81.3674 333.8308,-74.4118"/>
</g>
<!-- Node6 -->
<g id="node6" class="node">
<title>Node6</title>
<g id="a_node6"><a xlink:href="classgko_1_1multigrid_1_1UniformCoarsening.html" target="_top" xlink:title="UniformCoarsening is a simple coarse grid generation algorithm.">
<polygon fill="#ffffff" stroke="#000000" points="360,-.5 360,-30.5 545,-30.5 545,-.5 360,-.5"/>
<text text-anchor="start" x="368" y="-18.5" font-family="Helvetica,sans-Serif" font-size="10.00" fill="#000000">gko::multigrid::UniformCoarsening</text>
<text text-anchor="middle" x="452.5" y="-7.5" font-family="Helvetica,sans-Serif" font-size="10.00" fill="#000000">&lt; ValueType &gt;</text>
</a>
</g>
</g>
<!-- Node2&#45;&gt;Node6 -->
<g id="edge5" class="edge">
<title>Node2&#45;&gt;Node6</title>
<path fill="none" stroke="#191970" d="M284.128,-69.5354C306.5654,-60.1516 334.4916,-49.037 360,-40.5 370.4116,-37.0155 381.603,-33.666 392.48,-30.6135"/>
<polygon fill="#191970" stroke="#191970" points="282.7257,-66.3282 274.8711,-73.4385 285.4453,-72.7783 282.7257,-66.3282"/>
</g>
</g>
</svg>
        <g id="navigator" transform="translate(0 0)" fill="#404254">
                <rect fill="#f2f5e9" fill-opacity="0.5" stroke="#606060" stroke-width=".5" x="0" y="0" width="60" height="60"/>
                <use id="zoomplus" xlink:href="#zoomPlus" x="17" y="9" onmousedown="handleZoom(evt,'in')"/>
                <use id="zoomminus" xlink:href="#zoomMin" x="42" y="9" onmousedown="handleZoom(evt,'out')"/>
                <use id="reset" xlink:href="#resetDef" x="30" y="36" onmousedown="handleReset()"/>
                <g id="arrowUp" xlink:href="#dirArrow" transform="translate(30 24)" onmousedown="handlePan(0,-1)">
                  <use xlink:href="#rim" fill="#404040">
                        <set attributeName="fill" to="#808080" begin="arrowUp.mouseover" end="arrowUp.mouseout"/>
                  </use>
                  <path fill="none" stroke="white" stroke-width="1.5" d="M0,-3.0v7 M-2.5,-0.5L0,-3.0L2.5,-0.5"/>
                </g>
                <g id="arrowRight" xlink:href="#dirArrow" transform="rotate(90) translate(36 -43)" onmousedown="handlePan(1,0)">
                  <use xlink:href="#rim" fill="#404040">
                        <set attributeName="fill" to="#808080" begin="arrowRight.mouseover" end="arrowRight.mouseout"/>
                  </use>
                  <path fill="none" stroke="white" stroke-width="1.5" d="M0,-3.0v7 M-2.5,-0.5L0,-3.0L2.5,-0.5"/>
                </g>
                <g id="arrowDown" xlink:href="#dirArrow" transform="rotate(180) translate(-30 -48)" onmousedown="handlePan(0,1)">
                  <use xlink:href="#rim" fill="#404040">
                        <set attributeName="fill" to="#808080" begin="arrowDown.mouseover" end="arrowDown.mouseout"/>
                  </use>
                  <path fill="none" stroke="white" stroke-width="1.5" d="M0,-3.0v7 M-2.5,-0.5L0,-3.0L2.5,-0.5"/>
                </g>
                <g id="arrowLeft" xlink:href="#dirArrow" transform="rotate(270) translate(-36 17)" onmousedown="handlePan(-1,0)">
                  <use xlink:href="#rim" fill="#404040">
                        <set attributeName="fill" to="#808080" begin="arrowLeft.mouseover" end="arrowLeft.mouseout"/>
                  </use>
                  <path fill="none" stroke="white" stroke-width="1.5" d="M0,-3.0v7 M-2.5,-0.5L0,-3.0L2.5,-0.5"/>
                </g>
        </g>
        <svg viewBox="0 0 15 15" width="100%" height="30px" preserveAspectRatio="xMaxYMin meet">
         <g id="arrow_out" transform="scale(0.3 0.3)">
          <a xlink:href="classgko_1_1UseComposition__inherit__graph_org.svg" target="_base">
           <rect id="button" ry="5" rx="5" y="6" x="6" height="38" width="38"
                fill="#f2f5e9" fill-opacity="0.5" stroke="#606060" stroke-width="1.0"/>
           <path id="arrow"
             d="M 11.500037,31.436501 C 11.940474,20.09759 22.043105,11.32322 32.158766,21.979434 L 37.068811,17.246167 C 37.068811,17.246167 37.088388,32 37.088388,32 L 22.160133,31.978069 C 22.160133,31.978069 26.997745,27.140456 26.997745,27.140456 C 18.528582,18.264221 13.291696,25.230495 11.500037,31.436501 z"
             style="fill:#404040;"/>
          </a>
         </g>
        </svg>
</svg>
