<?xml version="1.0" encoding="UTF-8" standalone="no"?>
<!DOCTYPE svg PUBLIC "-//W3C//DTD SVG 1.1//EN"
 "http://www.w3.org/Graphics/SVG/1.1/DTD/svg11.dtd">
<!-- Generated by graphviz version 2.40.1 (20161225.0304)
 -->
<!-- Title: gko::stop::Criterion Pages: 1 -->
<!--zoomable 235 -->
<svg id="main" version="1.1" xmlns="http://www.w3.org/2000/svg" xmlns:xlink="http://www.w3.org/1999/xlink" xml:space="preserve" onload="init(evt)">
<style type="text/css"><![CDATA[
.edge:hover path { stroke: red; }
.edge:hover polygon { stroke: red; fill: red; }
]]></style>
<script type="text/javascript"><![CDATA[
var edges = document.getElementsByTagName('g');
if (edges && edges.length) {
  for (var i=0;i<edges.length;i++) {
    if (edges[i].id.substr(0,4)=='edge') {
      edges[i].setAttribute('class','edge');
    }
  }
}
]]></script>
        <defs>
                <circle id="rim" cx="0" cy="0" r="7"/>
                <circle id="rim2" cx="0" cy="0" r="3.5"/>
                <g id="zoomPlus">
                        <use xlink:href="#rim" fill="#404040">
                                <set attributeName="fill" to="#808080" begin="zoomplus.mouseover" end="zoomplus.mouseout"/>
                        </use>
                        <path d="M-4,0h8M0,-4v8" fill="none" stroke="white" stroke-width="1.5" pointer-events="none"/>
                </g>
                <g id="zoomMin">
                        <use xlink:href="#rim" fill="#404040">
                                <set attributeName="fill" to="#808080" begin="zoomminus.mouseover" end="zoomminus.mouseout"/>
                        </use>
                        <path d="M-4,0h8" fill="none" stroke="white" stroke-width="1.5" pointer-events="none"/>
                </g>
                <g id="dirArrow">
                        <path fill="none" stroke="white" stroke-width="1.5" d="M0,-3.0v7 M-2.5,-0.5L0,-3.0L2.5,-0.5"/>
                </g>
               <g id="resetDef">
                       <use xlink:href="#rim2" fill="#404040">
                               <set attributeName="fill" to="#808080" begin="reset.mouseover" end="reset.mouseout"/>
                       </use>
               </g>
        </defs>

<script type="text/javascript">
var viewWidth = 1350;
var viewHeight = 235;
var sectionId = 'dynsection-0';
</script>
<script xlink:href="svgpan.js"/>
<svg id="graph" class="graph">
<g id="viewport">
<title>gko::stop::Criterion</title>
<polygon fill="#ffffff" stroke="transparent" points="-4,4 -4,-231 1346,-231 1346,4 -4,4"/>
<!-- Node1 -->
<g id="node1" class="node">
<title>Node1</title>
<g id="a_node1"><a xlink:title="The Criterion class is a base class for all stopping criteria.">
<polygon fill="#bfbfbf" stroke="#000000" points="814,-135 814,-154 924,-154 924,-135 814,-135"/>
<text text-anchor="middle" x="869" y="-142" font-family="Helvetica,sans-Serif" font-size="10.00" fill="#000000">gko::stop::Criterion</text>
</a>
</g>
</g>
<!-- Node7 -->
<g id="node7" class="node">
<title>Node7</title>
<g id="a_node7"><a xlink:href="classgko_1_1stop_1_1Combined.html" target="_top" xlink:title="The Combined class is used to combine multiple criterions together through an OR operation.">
<polygon fill="#ffffff" stroke="#000000" points="982.5,-186 982.5,-205 1099.5,-205 1099.5,-186 982.5,-186"/>
<text text-anchor="middle" x="1041" y="-193" font-family="Helvetica,sans-Serif" font-size="10.00" fill="#000000">gko::stop::Combined</text>
</a>
</g>
</g>
<!-- Node1&#45;&gt;Node7 -->
<g id="edge6" class="edge">
<title>Node1&#45;&gt;Node7</title>
<path fill="none" stroke="#191970" d="M903.7382,-157.5185C920.8485,-163.6902 941.8659,-170.9158 961,-176.5 972.648,-179.8994 985.3806,-183.1361 997.1934,-185.9433"/>
<polygon fill="#191970" stroke="#191970" points="904.7532,-154.1632 894.1592,-154.0268 902.3558,-160.7399 904.7532,-154.1632"/>
</g>
<!-- Node8 -->
<g id="node8" class="node">
<title>Node8</title>
<g id="a_node8"><a xlink:href="classgko_1_1stop_1_1Iteration.html" target="_top" xlink:title="The Iteration class is a stopping criterion which stops the iteration process after a preset number o...">
<polygon fill="#ffffff" stroke="#000000" points="986.5,-148 986.5,-167 1095.5,-167 1095.5,-148 986.5,-148"/>
<text text-anchor="middle" x="1041" y="-155" font-family="Helvetica,sans-Serif" font-size="10.00" fill="#000000">gko::stop::Iteration</text>
</a>
</g>
</g>
<!-- Node1&#45;&gt;Node8 -->
<g id="edge7" class="edge">
<title>Node1&#45;&gt;Node8</title>
<path fill="none" stroke="#191970" d="M934.7933,-149.4727C951.8094,-150.7589 969.9442,-152.1295 986.3233,-153.3675"/>
<polygon fill="#191970" stroke="#191970" points="934.604,-145.9485 924.3686,-148.6848 934.0764,-152.9286 934.604,-145.9485"/>
</g>
<!-- Node9 -->
<g id="node9" class="node">
<title>Node9</title>
<g id="a_node9"><a xlink:href="classgko_1_1stop_1_1ResidualNormBase.html" target="_top" xlink:title="The ResidualNormBase class provides a framework for stopping criteria related to the residual norm.">
<polygon fill="#ffffff" stroke="#000000" points="961,-98.5 961,-128.5 1121,-128.5 1121,-98.5 961,-98.5"/>
<text text-anchor="start" x="969" y="-116.5" font-family="Helvetica,sans-Serif" font-size="10.00" fill="#000000">gko::stop::ResidualNormBase</text>
<text text-anchor="middle" x="1041" y="-105.5" font-family="Helvetica,sans-Serif" font-size="10.00" fill="#000000">&lt; ValueType &gt;</text>
</a>
</g>
</g>
<!-- Node1&#45;&gt;Node9 -->
<g id="edge8" class="edge">
<title>Node1&#45;&gt;Node9</title>
<path fill="none" stroke="#191970" d="M932.0437,-133.1375C941.4561,-131.441 951.2644,-129.6733 960.9708,-127.9239"/>
<polygon fill="#191970" stroke="#191970" points="931.2297,-129.7277 922.0091,-134.946 932.4714,-136.6167 931.2297,-129.7277"/>
</g>
<!-- Node15 -->
<g id="node15" class="node">
<title>Node15</title>
<g id="a_node15"><a xlink:href="classgko_1_1stop_1_1Time.html" target="_top" xlink:title="The Time class is a stopping criterion which stops the iteration process after a certain amount of ti...">
<polygon fill="#ffffff" stroke="#000000" points="995,-60 995,-79 1087,-79 1087,-60 995,-60"/>
<text text-anchor="middle" x="1041" y="-67" font-family="Helvetica,sans-Serif" font-size="10.00" fill="#000000">gko::stop::Time</text>
</a>
</g>
</g>
<!-- Node1&#45;&gt;Node15 -->
<g id="edge14" class="edge">
<title>Node1&#45;&gt;Node15</title>
<path fill="none" stroke="#191970" d="M890.2675,-128.8859C908.2844,-116.3302 935.2271,-99.0936 961,-88.5 971.6947,-84.1041 983.6307,-80.5878 994.9518,-77.8346"/>
<polygon fill="#191970" stroke="#191970" points="887.8368,-126.3194 881.7128,-134.9651 891.8917,-132.0254 887.8368,-126.3194"/>
</g>
<!-- Node2 -->
<g id="node2" class="node">
<title>Node2</title>
<g id="a_node2"><a xlink:href="classgko_1_1PolymorphicObject.html" target="_top" xlink:title="A PolymorphicObject is the abstract base for all &quot;heavy&quot; objects in Ginkgo that behave polymorphicall...">
<polygon fill="#ffffff" stroke="#000000" points="644,-135 644,-154 777,-154 777,-135 644,-135"/>
<text text-anchor="middle" x="710.5" y="-142" font-family="Helvetica,sans-Serif" font-size="10.00" fill="#000000">gko::PolymorphicObject</text>
</a>
</g>
</g>
<!-- Node2&#45;&gt;Node1 -->
<g id="edge1" class="edge">
<title>Node2&#45;&gt;Node1</title>
<path fill="none" stroke="#191970" d="M787.3189,-144.5C796.2664,-144.5 805.2552,-144.5 813.8286,-144.5"/>
<polygon fill="#191970" stroke="#191970" points="787.2589,-141.0001 777.2589,-144.5 787.2589,-148.0001 787.2589,-141.0001"/>
</g>
<!-- Node3 -->
<g id="node3" class="node">
<title>Node3</title>
<g id="a_node3"><a xlink:href="classgko_1_1log_1_1EnableLogging.html" target="_top" xlink:title=" ">
<polygon fill="#ffffff" stroke="#000000" points="474,-129.5 474,-159.5 607,-159.5 607,-129.5 474,-129.5"/>
<text text-anchor="start" x="482" y="-147.5" font-family="Helvetica,sans-Serif" font-size="10.00" fill="#000000">gko::log::EnableLogging</text>
<text text-anchor="middle" x="540.5" y="-136.5" font-family="Helvetica,sans-Serif" font-size="10.00" fill="#000000">&lt; PolymorphicObject &gt;</text>
</a>
</g>
</g>
<!-- Node3&#45;&gt;Node2 -->
<g id="edge2" class="edge">
<title>Node3&#45;&gt;Node2</title>
<path fill="none" stroke="#191970" d="M617.2154,-144.5C626.1509,-144.5 635.2097,-144.5 643.9918,-144.5"/>
<polygon fill="#191970" stroke="#191970" points="617.2006,-141.0001 607.2006,-144.5 617.2005,-148.0001 617.2006,-141.0001"/>
</g>
<!-- Node4 -->
<g id="node4" class="node">
<title>Node4</title>
<g id="a_node4"><a xlink:href="classgko_1_1log_1_1Loggable.html" target="_top" xlink:title="Loggable class is an interface which should be implemented by classes wanting to support logging.">
<polygon fill="#ffffff" stroke="#000000" points="176,-159 176,-178 282,-178 282,-159 176,-159"/>
<text text-anchor="middle" x="229" y="-166" font-family="Helvetica,sans-Serif" font-size="10.00" fill="#000000">gko::log::Loggable</text>
</a>
</g>
</g>
<!-- Node4&#45;&gt;Node3 -->
<g id="edge3" class="edge">
<title>Node4&#45;&gt;Node3</title>
<path fill="none" stroke="#191970" d="M292.4534,-163.6111C345.2884,-159.5404 420.2902,-153.7618 473.9643,-149.6263"/>
<polygon fill="#191970" stroke="#191970" points="291.8964,-160.1436 282.1948,-164.4015 292.4342,-167.1229 291.8964,-160.1436"/>
</g>
<!-- Node5 -->
<g id="node5" class="node">
<title>Node5</title>
<g id="a_node5"><a xlink:href="classgko_1_1log_1_1EnableLogging.html" target="_top" xlink:title="EnableLogging is a mixin which should be inherited by any class which wants to enable logging.">
<polygon fill="#ffffff" stroke="#000000" points="138,-99 138,-140 320,-140 320,-99 138,-99"/>
<text text-anchor="start" x="146" y="-128" font-family="Helvetica,sans-Serif" font-size="10.00" fill="#000000">gko::log::EnableLogging</text>
<text text-anchor="start" x="146" y="-117" font-family="Helvetica,sans-Serif" font-size="10.00" fill="#000000">&lt; ConcreteLoggable, Polymorphic</text>
<text text-anchor="middle" x="229" y="-106" font-family="Helvetica,sans-Serif" font-size="10.00" fill="#000000">Base &gt;</text>
</a>
</g>
</g>
<!-- Node5&#45;&gt;Node3 -->
<g id="edge4" class="edge">
<title>Node5&#45;&gt;Node3</title>
<path fill="none" stroke="#ffa500" stroke-dasharray="5,2" d="M330.2699,-126.6566C369.5463,-129.5442 414.8841,-133.0144 456,-136.5 461.7264,-136.9854 467.6692,-137.5087 473.6295,-138.0469"/>
<polygon fill="#ffa500" stroke="#ffa500" points="330.3865,-123.1559 320.1576,-125.9161 329.8752,-130.1372 330.3865,-123.1559"/>
<text text-anchor="middle" x="397" y="-139.5" font-family="Helvetica,sans-Serif" font-size="10.00" fill="#000000"> &lt; PolymorphicObject &gt;</text>
</g>
<!-- Node6 -->
<g id="node6" class="node">
<title>Node6</title>
<g id="a_node6"><a xlink:title=" ">
<polygon fill="#ffffff" stroke="#bfbfbf" points="0,-110 0,-129 101,-129 101,-110 0,-110"/>
<text text-anchor="middle" x="50.5" y="-117" font-family="Helvetica,sans-Serif" font-size="10.00" fill="#000000">PolymorphicBase</text>
</a>
</g>
</g>
<!-- Node6&#45;&gt;Node5 -->
<g id="edge5" class="edge">
<title>Node6&#45;&gt;Node5</title>
<path fill="none" stroke="#191970" d="M111.4269,-119.5C120.0117,-119.5 128.9864,-119.5 137.9851,-119.5"/>
<polygon fill="#191970" stroke="#191970" points="111.1735,-116.0001 101.1735,-119.5 111.1734,-123.0001 111.1735,-116.0001"/>
</g>
<!-- Node10 -->
<g id="node10" class="node">
<title>Node10</title>
<g id="a_node10"><a xlink:href="classgko_1_1stop_1_1AbsoluteResidualNorm.html" target="_top" xlink:title="The AbsoluteResidualNorm class is a stopping criterion which stops the iteration process when the res...">
<polygon fill="#ffffff" stroke="#000000" points="1174,-196.5 1174,-226.5 1326,-226.5 1326,-196.5 1174,-196.5"/>
<text text-anchor="start" x="1182" y="-214.5" font-family="Helvetica,sans-Serif" font-size="10.00" fill="#000000">gko::stop::AbsoluteResidual</text>
<text text-anchor="middle" x="1250" y="-203.5" font-family="Helvetica,sans-Serif" font-size="10.00" fill="#000000">Norm&lt; ValueType &gt;</text>
</a>
</g>
</g>
<!-- Node9&#45;&gt;Node10 -->
<g id="edge9" class="edge">
<title>Node9&#45;&gt;Node10</title>
<path fill="none" stroke="#191970" d="M1112.3781,-133.1426C1115.3729,-134.7909 1118.2635,-136.5732 1121,-138.5 1143.3132,-154.2103 1135.3185,-172.3263 1158,-187.5 1163.0763,-190.896 1168.607,-193.8117 1174.3548,-196.315"/>
<polygon fill="#191970" stroke="#191970" points="1113.6481,-129.8667 1103.1305,-128.5893 1110.5559,-136.1467 1113.6481,-129.8667"/>
</g>
<!-- Node11 -->
<g id="node11" class="node">
<title>Node11</title>
<g id="a_node11"><a xlink:href="classgko_1_1stop_1_1ImplicitResidualNorm.html" target="_top" xlink:title="The ImplicitResidualNorm class is a stopping criterion which stops the iteration process when the imp...">
<polygon fill="#ffffff" stroke="#000000" points="1177,-147.5 1177,-177.5 1323,-177.5 1323,-147.5 1177,-147.5"/>
<text text-anchor="start" x="1185" y="-165.5" font-family="Helvetica,sans-Serif" font-size="10.00" fill="#000000">gko::stop::ImplicitResidual</text>
<text text-anchor="middle" x="1250" y="-154.5" font-family="Helvetica,sans-Serif" font-size="10.00" fill="#000000">Norm&lt; ValueType &gt;</text>
</a>
</g>
</g>
<!-- Node9&#45;&gt;Node11 -->
<g id="edge10" class="edge">
<title>Node9&#45;&gt;Node11</title>
<path fill="none" stroke="#191970" d="M1114.9218,-130.8309C1138.126,-136.2712 1163.5359,-142.2285 1185.994,-147.4938"/>
<polygon fill="#191970" stroke="#191970" points="1115.6622,-127.4097 1105.1272,-128.5346 1114.0643,-134.2249 1115.6622,-127.4097"/>
</g>
<!-- Node12 -->
<g id="node12" class="node">
<title>Node12</title>
<g id="a_node12"><a xlink:href="classgko_1_1stop_1_1RelativeResidualNorm.html" target="_top" xlink:title="The RelativeResidualNorm class is a stopping criterion which stops the iteration process when the res...">
<polygon fill="#ffffff" stroke="#000000" points="1175.5,-98.5 1175.5,-128.5 1324.5,-128.5 1324.5,-98.5 1175.5,-98.5"/>
<text text-anchor="start" x="1183.5" y="-116.5" font-family="Helvetica,sans-Serif" font-size="10.00" fill="#000000">gko::stop::RelativeResidual</text>
<text text-anchor="middle" x="1250" y="-105.5" font-family="Helvetica,sans-Serif" font-size="10.00" fill="#000000">Norm&lt; ValueType &gt;</text>
</a>
</g>
</g>
<!-- Node9&#45;&gt;Node12 -->
<g id="edge11" class="edge">
<title>Node9&#45;&gt;Node12</title>
<path fill="none" stroke="#191970" d="M1131.3345,-113.5C1146.0726,-113.5 1161.1937,-113.5 1175.4958,-113.5"/>
<polygon fill="#191970" stroke="#191970" points="1131.2072,-110.0001 1121.2071,-113.5 1131.2071,-117.0001 1131.2072,-110.0001"/>
</g>
<!-- Node13 -->
<g id="node13" class="node">
<title>Node13</title>
<g id="a_node13"><a xlink:href="classgko_1_1stop_1_1ResidualNorm.html" target="_top" xlink:title="The ResidualNorm class is a stopping criterion which stops the iteration process when the actual resi...">
<polygon fill="#ffffff" stroke="#000000" points="1182,-49.5 1182,-79.5 1318,-79.5 1318,-49.5 1182,-49.5"/>
<text text-anchor="start" x="1190" y="-67.5" font-family="Helvetica,sans-Serif" font-size="10.00" fill="#000000">gko::stop::ResidualNorm</text>
<text text-anchor="middle" x="1250" y="-56.5" font-family="Helvetica,sans-Serif" font-size="10.00" fill="#000000">&lt; ValueType &gt;</text>
</a>
</g>
</g>
<!-- Node9&#45;&gt;Node13 -->
<g id="edge12" class="edge">
<title>Node9&#45;&gt;Node13</title>
<path fill="none" stroke="#191970" d="M1114.9218,-96.1691C1138.126,-90.7288 1163.5359,-84.7715 1185.994,-79.5062"/>
<polygon fill="#191970" stroke="#191970" points="1114.0643,-92.7751 1105.1272,-98.4654 1115.6622,-99.5903 1114.0643,-92.7751"/>
</g>
<!-- Node14 -->
<g id="node14" class="node">
<title>Node14</title>
<g id="a_node14"><a xlink:href="classgko_1_1stop_1_1ResidualNormReduction.html" target="_top" xlink:title="The ResidualNormReduction class is a stopping criterion which stops the iteration process when the re...">
<polygon fill="#ffffff" stroke="#000000" points="1158,-.5 1158,-30.5 1342,-30.5 1342,-.5 1158,-.5"/>
<text text-anchor="start" x="1166" y="-18.5" font-family="Helvetica,sans-Serif" font-size="10.00" fill="#000000">gko::stop::ResidualNormReduction</text>
<text text-anchor="middle" x="1250" y="-7.5" font-family="Helvetica,sans-Serif" font-size="10.00" fill="#000000">&lt; ValueType &gt;</text>
</a>
</g>
</g>
<!-- Node9&#45;&gt;Node14 -->
<g id="edge13" class="edge">
<title>Node9&#45;&gt;Node14</title>
<path fill="none" stroke="#191970" d="M1112.3781,-93.8574C1115.3729,-92.2091 1118.2635,-90.4268 1121,-88.5 1143.3132,-72.7897 1135.3185,-54.6737 1158,-39.5 1163.0763,-36.104 1168.607,-33.1883 1174.3548,-30.685"/>
<polygon fill="#191970" stroke="#191970" points="1110.5559,-90.8533 1103.1305,-98.4107 1113.6481,-97.1333 1110.5559,-90.8533"/>
</g>
</g>
</svg>
        <g id="navigator" transform="translate(0 0)" fill="#404254">
                <rect fill="#f2f5e9" fill-opacity="0.5" stroke="#606060" stroke-width=".5" x="0" y="0" width="60" height="60"/>
                <use id="zoomplus" xlink:href="#zoomPlus" x="17" y="9" onmousedown="handleZoom(evt,'in')"/>
                <use id="zoomminus" xlink:href="#zoomMin" x="42" y="9" onmousedown="handleZoom(evt,'out')"/>
                <use id="reset" xlink:href="#resetDef" x="30" y="36" onmousedown="handleReset()"/>
                <g id="arrowUp" xlink:href="#dirArrow" transform="translate(30 24)" onmousedown="handlePan(0,-1)">
                  <use xlink:href="#rim" fill="#404040">
                        <set attributeName="fill" to="#808080" begin="arrowUp.mouseover" end="arrowUp.mouseout"/>
                  </use>
                  <path fill="none" stroke="white" stroke-width="1.5" d="M0,-3.0v7 M-2.5,-0.5L0,-3.0L2.5,-0.5"/>
                </g>
                <g id="arrowRight" xlink:href="#dirArrow" transform="rotate(90) translate(36 -43)" onmousedown="handlePan(1,0)">
                  <use xlink:href="#rim" fill="#404040">
                        <set attributeName="fill" to="#808080" begin="arrowRight.mouseover" end="arrowRight.mouseout"/>
                  </use>
                  <path fill="none" stroke="white" stroke-width="1.5" d="M0,-3.0v7 M-2.5,-0.5L0,-3.0L2.5,-0.5"/>
                </g>
                <g id="arrowDown" xlink:href="#dirArrow" transform="rotate(180) translate(-30 -48)" onmousedown="handlePan(0,1)">
                  <use xlink:href="#rim" fill="#404040">
                        <set attributeName="fill" to="#808080" begin="arrowDown.mouseover" end="arrowDown.mouseout"/>
                  </use>
                  <path fill="none" stroke="white" stroke-width="1.5" d="M0,-3.0v7 M-2.5,-0.5L0,-3.0L2.5,-0.5"/>
                </g>
                <g id="arrowLeft" xlink:href="#dirArrow" transform="rotate(270) translate(-36 17)" onmousedown="handlePan(-1,0)">
                  <use xlink:href="#rim" fill="#404040">
                        <set attributeName="fill" to="#808080" begin="arrowLeft.mouseover" end="arrowLeft.mouseout"/>
                  </use>
                  <path fill="none" stroke="white" stroke-width="1.5" d="M0,-3.0v7 M-2.5,-0.5L0,-3.0L2.5,-0.5"/>
                </g>
        </g>
        <svg viewBox="0 0 15 15" width="100%" height="30px" preserveAspectRatio="xMaxYMin meet">
         <g id="arrow_out" transform="scale(0.3 0.3)">
          <a xlink:href="classgko_1_1stop_1_1Criterion__inherit__graph_org.svg" target="_base">
           <rect id="button" ry="5" rx="5" y="6" x="6" height="38" width="38"
                fill="#f2f5e9" fill-opacity="0.5" stroke="#606060" stroke-width="1.0"/>
           <path id="arrow"
             d="M 11.500037,31.436501 C 11.940474,20.09759 22.043105,11.32322 32.158766,21.979434 L 37.068811,17.246167 C 37.068811,17.246167 37.088388,32 37.088388,32 L 22.160133,31.978069 C 22.160133,31.978069 26.997745,27.140456 26.997745,27.140456 C 18.528582,18.264221 13.291696,25.230495 11.500037,31.436501 z"
             style="fill:#404040;"/>
          </a>
         </g>
        </svg>
</svg>
