<?xml version="1.0" encoding="UTF-8" standalone="no"?>
<!DOCTYPE svg PUBLIC "-//W3C//DTD SVG 1.1//EN"
 "http://www.w3.org/Graphics/SVG/1.1/DTD/svg11.dtd">
<!-- Generated by graphviz version 2.40.1 (20161225.0304)
 -->
<!-- Title: gko::solver::Ir&lt; ValueType &gt; Pages: 1 -->
<svg width="2231pt" height="577pt"
 viewBox="0.00 0.00 2231.00 577.00" xmlns="http://www.w3.org/2000/svg" xmlns:xlink="http://www.w3.org/1999/xlink">
<g id="graph0" class="graph" transform="scale(1 1) rotate(0) translate(4 573)">
<title>gko::solver::Ir&lt; ValueType &gt;</title>
<polygon fill="#ffffff" stroke="transparent" points="-4,4 -4,-573 2227,-573 2227,4 -4,4"/>
<!-- Node1 -->
<g id="node1" class="node">
<title>Node1</title>
<g id="a_node1"><a xlink:title="Iterative refinement (IR) is an iterative method that uses another coarse method to approximate the e...">
<polygon fill="#bfbfbf" stroke="#000000" points="2068,-120.5 2068,-139.5 2223,-139.5 2223,-120.5 2068,-120.5"/>
<text text-anchor="middle" x="2145.5" y="-127.5" font-family="Helvetica,sans-Serif" font-size="10.00" fill="#000000">gko::solver::Ir&lt; ValueType &gt;</text>
</a>
</g>
</g>
<!-- Node2 -->
<g id="node2" class="node">
<title>Node2</title>
<g id="a_node2"><a xlink:href="classgko_1_1EnableLinOp.html" target="_top" xlink:title=" ">
<polygon fill="#ffffff" stroke="#000000" points="1896,-307 1896,-337 2015,-337 2015,-307 1896,-307"/>
<text text-anchor="start" x="1904" y="-325" font-family="Helvetica,sans-Serif" font-size="10.00" fill="#000000">gko::EnableLinOp&lt; Ir</text>
<text text-anchor="middle" x="1955.5" y="-314" font-family="Helvetica,sans-Serif" font-size="10.00" fill="#000000">&lt; ValueType &gt; &gt;</text>
</a>
</g>
</g>
<!-- Node2&#45;&gt;Node1 -->
<g id="edge1" class="edge">
<title>Node2&#45;&gt;Node1</title>
<path fill="none" stroke="#191970" d="M1977.5807,-299.6869C2019.0137,-257.8178 2106.8565,-169.0503 2135.9313,-139.6694"/>
<polygon fill="#191970" stroke="#191970" points="1974.9552,-297.3642 1970.409,-306.9341 1979.9308,-302.288 1974.9552,-297.3642"/>
</g>
<!-- Node3 -->
<g id="node3" class="node">
<title>Node3</title>
<g id="a_node3"><a xlink:href="classgko_1_1EnablePolymorphicObject.html" target="_top" xlink:title=" ">
<polygon fill="#ffffff" stroke="#000000" points="1564.5,-456 1564.5,-486 1730.5,-486 1730.5,-456 1564.5,-456"/>
<text text-anchor="start" x="1572.5" y="-474" font-family="Helvetica,sans-Serif" font-size="10.00" fill="#000000">gko::EnablePolymorphicObject</text>
<text text-anchor="middle" x="1647.5" y="-463" font-family="Helvetica,sans-Serif" font-size="10.00" fill="#000000">&lt; Ir&lt; ValueType &gt;, LinOp &gt;</text>
</a>
</g>
</g>
<!-- Node3&#45;&gt;Node2 -->
<g id="edge2" class="edge">
<title>Node3&#45;&gt;Node2</title>
<path fill="none" stroke="#191970" d="M1687.8477,-451.4812C1750.0326,-421.3982 1867.9788,-364.3398 1924.1897,-337.1469"/>
<polygon fill="#191970" stroke="#191970" points="1686.2054,-448.3875 1678.7277,-455.8931 1689.2538,-454.6889 1686.2054,-448.3875"/>
</g>
<!-- Node4 -->
<g id="node4" class="node">
<title>Node4</title>
<g id="a_node4"><a xlink:href="classgko_1_1EnableAbstractPolymorphicObject.html" target="_top" xlink:title=" ">
<polygon fill="#ffffff" stroke="#000000" points="1278,-511.5 1278,-552.5 1453,-552.5 1453,-511.5 1278,-511.5"/>
<text text-anchor="start" x="1286" y="-540.5" font-family="Helvetica,sans-Serif" font-size="10.00" fill="#000000">gko::EnableAbstractPolymorphic</text>
<text text-anchor="start" x="1286" y="-529.5" font-family="Helvetica,sans-Serif" font-size="10.00" fill="#000000">Object&lt; Ir&lt; ValueType &gt;,</text>
<text text-anchor="middle" x="1365.5" y="-518.5" font-family="Helvetica,sans-Serif" font-size="10.00" fill="#000000"> LinOp &gt;</text>
</a>
</g>
</g>
<!-- Node4&#45;&gt;Node3 -->
<g id="edge3" class="edge">
<title>Node4&#45;&gt;Node3</title>
<path fill="none" stroke="#191970" d="M1463.1759,-510.8715C1500.9016,-502.711 1543.2105,-493.5591 1577.7695,-486.0836"/>
<polygon fill="#191970" stroke="#191970" points="1462.2147,-507.4984 1453.1808,-513.0336 1463.6947,-514.3402 1462.2147,-507.4984"/>
</g>
<!-- Node5 -->
<g id="node5" class="node">
<title>Node5</title>
<g id="a_node5"><a xlink:href="classgko_1_1LinOp.html" target="_top" xlink:title=" ">
<polygon fill="#ffffff" stroke="#000000" points="939.5,-515.5 939.5,-534.5 1007.5,-534.5 1007.5,-515.5 939.5,-515.5"/>
<text text-anchor="middle" x="973.5" y="-522.5" font-family="Helvetica,sans-Serif" font-size="10.00" fill="#000000">gko::LinOp</text>
</a>
</g>
</g>
<!-- Node5&#45;&gt;Node4 -->
<g id="edge4" class="edge">
<title>Node5&#45;&gt;Node4</title>
<path fill="none" stroke="#191970" d="M1017.9667,-525.794C1080.8762,-526.9174 1197.1665,-528.994 1277.805,-530.434"/>
<polygon fill="#191970" stroke="#191970" points="1017.6626,-522.2882 1007.6017,-525.609 1017.5376,-529.287 1017.6626,-522.2882"/>
</g>
<!-- Node6 -->
<g id="node6" class="node">
<title>Node6</title>
<g id="a_node6"><a xlink:href="classgko_1_1EnableAbstractPolymorphicObject.html" target="_top" xlink:title=" ">
<polygon fill="#ffffff" stroke="#ff0000" points="542,-507 542,-537 717,-537 717,-507 542,-507"/>
<text text-anchor="start" x="550" y="-525" font-family="Helvetica,sans-Serif" font-size="10.00" fill="#000000">gko::EnableAbstractPolymorphic</text>
<text text-anchor="middle" x="629.5" y="-514" font-family="Helvetica,sans-Serif" font-size="10.00" fill="#000000">Object&lt; LinOp &gt;</text>
</a>
</g>
</g>
<!-- Node6&#45;&gt;Node5 -->
<g id="edge5" class="edge">
<title>Node6&#45;&gt;Node5</title>
<path fill="none" stroke="#191970" d="M727.5234,-522.8549C798.5972,-523.4747 890.4903,-524.2761 939.3733,-524.7024"/>
<polygon fill="#191970" stroke="#191970" points="727.226,-519.3522 717.1958,-522.7648 727.1649,-526.352 727.226,-519.3522"/>
</g>
<!-- Node12 -->
<g id="node7" class="node">
<title>Node12</title>
<g id="a_node7"><a xlink:href="classgko_1_1EnableAbstractPolymorphicObject.html" target="_top" xlink:title="This mixin inherits from (a subclass of) PolymorphicObject and provides a base implementation of a ne...">
<polygon fill="#ffffff" stroke="#000000" points="138,-465.5 138,-506.5 336,-506.5 336,-465.5 138,-465.5"/>
<text text-anchor="start" x="146" y="-494.5" font-family="Helvetica,sans-Serif" font-size="10.00" fill="#000000">gko::EnableAbstractPolymorphic</text>
<text text-anchor="start" x="146" y="-483.5" font-family="Helvetica,sans-Serif" font-size="10.00" fill="#000000">Object&lt; AbstractObject, Polymorphic</text>
<text text-anchor="middle" x="237" y="-472.5" font-family="Helvetica,sans-Serif" font-size="10.00" fill="#000000">Base &gt;</text>
</a>
</g>
</g>
<!-- Node12&#45;&gt;Node4 -->
<g id="edge8" class="edge">
<title>Node12&#45;&gt;Node4</title>
<path fill="none" stroke="#ffa500" stroke-dasharray="5,2" d="M289.893,-510.5433C309.6144,-518.6867 332.4501,-526.9531 354,-532 430.0064,-549.8005 451.0084,-543.6636 529,-547 600.9617,-550.0784 1024.4597,-544.5248 1076,-544 1152.0013,-543.2261 1171.0821,-545.6424 1247,-542 1257.0018,-541.5201 1267.4672,-540.8632 1277.8614,-540.1134"/>
<polygon fill="#ffa500" stroke="#ffa500" points="291.0549,-507.2348 280.481,-506.5701 288.3326,-513.6837 291.0549,-507.2348"/>
<text text-anchor="start" x="752" y="-561" font-family="Helvetica,sans-Serif" font-size="10.00" fill="#000000"> &lt; Ir&lt; ValueType &gt;,</text>
<text text-anchor="middle" x="800.5" y="-550" font-family="Helvetica,sans-Serif" font-size="10.00" fill="#000000"> LinOp &gt;</text>
</g>
<!-- Node12&#45;&gt;Node6 -->
<g id="edge6" class="edge">
<title>Node12&#45;&gt;Node6</title>
<path fill="none" stroke="#ffa500" stroke-dasharray="5,2" d="M346.2714,-504.0954C348.8708,-504.4127 351.45,-504.715 354,-505 416.6259,-511.9997 487.6066,-516.2939 541.8344,-518.8151"/>
<polygon fill="#ffa500" stroke="#ffa500" points="346.5267,-500.5996 336.1634,-502.8025 345.6385,-507.543 346.5267,-500.5996"/>
<text text-anchor="middle" x="432.5" y="-520" font-family="Helvetica,sans-Serif" font-size="10.00" fill="#000000"> &lt; LinOp &gt;</text>
</g>
<!-- Node14 -->
<g id="node10" class="node">
<title>Node14</title>
<g id="a_node10"><a xlink:href="classgko_1_1EnableAbstractPolymorphicObject.html" target="_top" xlink:title=" ">
<polygon fill="#ffffff" stroke="#000000" points="529,-444.5 529,-485.5 730,-485.5 730,-444.5 529,-444.5"/>
<text text-anchor="start" x="537" y="-473.5" font-family="Helvetica,sans-Serif" font-size="10.00" fill="#000000">gko::EnableAbstractPolymorphic</text>
<text text-anchor="start" x="537" y="-462.5" font-family="Helvetica,sans-Serif" font-size="10.00" fill="#000000">Object&lt; ConcreteObject, Polymorphic</text>
<text text-anchor="middle" x="629.5" y="-451.5" font-family="Helvetica,sans-Serif" font-size="10.00" fill="#000000">Base &gt;</text>
</a>
</g>
</g>
<!-- Node12&#45;&gt;Node14 -->
<g id="edge12" class="edge">
<title>Node12&#45;&gt;Node14</title>
<path fill="none" stroke="#ffa500" stroke-dasharray="5,2" d="M346.2032,-480.1573C403.3756,-477.0984 472.9091,-473.3781 528.78,-470.3888"/>
<polygon fill="#ffa500" stroke="#ffa500" points="345.843,-476.6715 336.0443,-480.7008 346.2171,-483.6615 345.843,-476.6715"/>
<text text-anchor="start" x="354" y="-493" font-family="Helvetica,sans-Serif" font-size="10.00" fill="#000000"> &lt; ConcreteObject, Polymorphic</text>
<text text-anchor="middle" x="432.5" y="-482" font-family="Helvetica,sans-Serif" font-size="10.00" fill="#000000">Base &gt;</text>
</g>
<!-- Node21 -->
<g id="node17" class="node">
<title>Node21</title>
<g id="a_node17"><a xlink:href="classgko_1_1EnableAbstractPolymorphicObject.html" target="_top" xlink:title=" ">
<polygon fill="#ffffff" stroke="#000000" points="531,-380.5 531,-421.5 728,-421.5 728,-380.5 531,-380.5"/>
<text text-anchor="start" x="539" y="-409.5" font-family="Helvetica,sans-Serif" font-size="10.00" fill="#000000">gko::EnableAbstractPolymorphic</text>
<text text-anchor="start" x="539" y="-398.5" font-family="Helvetica,sans-Serif" font-size="10.00" fill="#000000">Object&lt; ConcreteLinOp, Polymorphic</text>
<text text-anchor="middle" x="629.5" y="-387.5" font-family="Helvetica,sans-Serif" font-size="10.00" fill="#000000">Base &gt;</text>
</a>
</g>
</g>
<!-- Node12&#45;&gt;Node21 -->
<g id="edge22" class="edge">
<title>Node12&#45;&gt;Node21</title>
<path fill="none" stroke="#ffa500" stroke-dasharray="5,2" d="M298.9683,-461.9699C316.56,-455.7838 335.8656,-449.5863 354,-445 411.8752,-430.3629 477.8809,-419.621 530.7735,-412.4163"/>
<polygon fill="#ffa500" stroke="#ffa500" points="297.6273,-458.7324 289.3897,-465.3952 299.9843,-465.3236 297.6273,-458.7324"/>
<text text-anchor="start" x="356" y="-459" font-family="Helvetica,sans-Serif" font-size="10.00" fill="#000000"> &lt; ConcreteLinOp, Polymorphic</text>
<text text-anchor="middle" x="432.5" y="-448" font-family="Helvetica,sans-Serif" font-size="10.00" fill="#000000">Base &gt;</text>
</g>
<!-- Node11 -->
<g id="node8" class="node">
<title>Node11</title>
<g id="a_node8"><a xlink:title=" ">
<polygon fill="#ffffff" stroke="#bfbfbf" points="0,-398.5 0,-417.5 101,-417.5 101,-398.5 0,-398.5"/>
<text text-anchor="middle" x="50.5" y="-405.5" font-family="Helvetica,sans-Serif" font-size="10.00" fill="#000000">PolymorphicBase</text>
</a>
</g>
</g>
<!-- Node11&#45;&gt;Node12 -->
<g id="edge7" class="edge">
<title>Node11&#45;&gt;Node12</title>
<path fill="none" stroke="#191970" d="M82.5985,-421.4246C111.5007,-433.5123 154.4214,-451.4631 187.6791,-465.3725"/>
<polygon fill="#191970" stroke="#191970" points="83.9447,-418.1939 73.3686,-417.5643 81.2437,-424.6518 83.9447,-418.1939"/>
</g>
<!-- Node11&#45;&gt;Node14 -->
<g id="edge11" class="edge">
<title>Node11&#45;&gt;Node14</title>
<path fill="none" stroke="#191970" d="M111.4303,-401.6458C200.6787,-394.1665 371.4922,-386.8203 511,-422 519.6728,-424.187 520.7442,-427.5587 529,-431 540.306,-435.7127 552.5197,-440.2713 564.4067,-444.4378"/>
<polygon fill="#191970" stroke="#191970" points="110.8796,-398.1804 101.2198,-402.5322 111.4851,-405.1542 110.8796,-398.1804"/>
</g>
<!-- Node11&#45;&gt;Node21 -->
<g id="edge21" class="edge">
<title>Node11&#45;&gt;Node21</title>
<path fill="none" stroke="#191970" d="M100.0089,-396.656C106.37,-395.5602 112.8183,-394.6252 119,-394 292.3378,-376.4679 336.8536,-388.8609 511,-394 517.4889,-394.1915 524.1751,-394.4418 530.9118,-394.7337"/>
<polygon fill="#191970" stroke="#191970" points="99.3286,-393.2224 90.1355,-398.4889 100.6063,-400.1048 99.3286,-393.2224"/>
</g>
<!-- Node13 -->
<g id="node9" class="node">
<title>Node13</title>
<g id="a_node9"><a xlink:href="classgko_1_1EnablePolymorphicObject.html" target="_top" xlink:title="This mixin inherits from (a subclass of) PolymorphicObject and provides a base implementation of a ne...">
<polygon fill="#ffffff" stroke="#000000" points="871,-450 871,-480 1076,-480 1076,-450 871,-450"/>
<text text-anchor="start" x="879" y="-468" font-family="Helvetica,sans-Serif" font-size="10.00" fill="#000000">gko::EnablePolymorphicObject</text>
<text text-anchor="middle" x="973.5" y="-457" font-family="Helvetica,sans-Serif" font-size="10.00" fill="#000000">&lt; ConcreteObject, PolymorphicBase &gt;</text>
</a>
</g>
</g>
<!-- Node13&#45;&gt;Node3 -->
<g id="edge9" class="edge">
<title>Node13&#45;&gt;Node3</title>
<path fill="none" stroke="#ffa500" stroke-dasharray="5,2" d="M1086.6001,-466.0068C1221.5727,-467.2084 1444.0566,-469.1889 1564.2493,-470.2589"/>
<polygon fill="#ffa500" stroke="#ffa500" points="1086.2635,-462.5038 1076.2327,-465.9145 1086.2011,-469.5035 1086.2635,-462.5038"/>
<text text-anchor="start" x="1317" y="-483" font-family="Helvetica,sans-Serif" font-size="10.00" fill="#000000"> &lt; Ir&lt; ValueType &gt;,</text>
<text text-anchor="middle" x="1365.5" y="-472" font-family="Helvetica,sans-Serif" font-size="10.00" fill="#000000"> LinOp &gt;</text>
</g>
<!-- Node20 -->
<g id="node16" class="node">
<title>Node20</title>
<g id="a_node16"><a xlink:href="classgko_1_1EnablePolymorphicObject.html" target="_top" xlink:title=" ">
<polygon fill="#ffffff" stroke="#000000" points="1265,-386 1265,-416 1466,-416 1466,-386 1265,-386"/>
<text text-anchor="start" x="1273" y="-404" font-family="Helvetica,sans-Serif" font-size="10.00" fill="#000000">gko::EnablePolymorphicObject</text>
<text text-anchor="middle" x="1365.5" y="-393" font-family="Helvetica,sans-Serif" font-size="10.00" fill="#000000">&lt; ConcreteLinOp, PolymorphicBase &gt;</text>
</a>
</g>
</g>
<!-- Node13&#45;&gt;Node20 -->
<g id="edge23" class="edge">
<title>Node13&#45;&gt;Node20</title>
<path fill="none" stroke="#ffa500" stroke-dasharray="5,2" d="M1037.924,-447.4526C1055.9734,-442.9487 1075.6708,-438.4167 1094,-435 1150.1558,-424.5322 1213.4604,-416.3965 1264.8075,-410.7117"/>
<polygon fill="#ffa500" stroke="#ffa500" points="1036.9199,-444.0963 1028.0854,-449.9446 1038.6386,-450.882 1036.9199,-444.0963"/>
<text text-anchor="start" x="1094" y="-449" font-family="Helvetica,sans-Serif" font-size="10.00" fill="#000000"> &lt; ConcreteLinOp, Polymorphic</text>
<text text-anchor="middle" x="1170.5" y="-438" font-family="Helvetica,sans-Serif" font-size="10.00" fill="#000000">Base &gt;</text>
</g>
<!-- Node14&#45;&gt;Node13 -->
<g id="edge10" class="edge">
<title>Node14&#45;&gt;Node13</title>
<path fill="none" stroke="#191970" d="M740.6155,-465C782.4481,-465 829.7976,-465 870.8265,-465"/>
<polygon fill="#191970" stroke="#191970" points="740.387,-461.5001 730.387,-465 740.387,-468.5001 740.387,-461.5001"/>
</g>
<!-- Node15 -->
<g id="node11" class="node">
<title>Node15</title>
<g id="a_node11"><a xlink:href="classgko_1_1EnablePolymorphicAssignment.html" target="_top" xlink:title=" ">
<polygon fill="#ffffff" stroke="#000000" points="1269.5,-284 1269.5,-314 1461.5,-314 1461.5,-284 1269.5,-284"/>
<text text-anchor="start" x="1277.5" y="-302" font-family="Helvetica,sans-Serif" font-size="10.00" fill="#000000">gko::EnablePolymorphicAssignment</text>
<text text-anchor="middle" x="1365.5" y="-291" font-family="Helvetica,sans-Serif" font-size="10.00" fill="#000000">&lt; Ir&lt; ValueType &gt; &gt;</text>
</a>
</g>
</g>
<!-- Node15&#45;&gt;Node2 -->
<g id="edge13" class="edge">
<title>Node15&#45;&gt;Node2</title>
<path fill="none" stroke="#191970" d="M1471.8812,-303.1471C1595.9061,-307.9819 1796.5389,-315.8032 1895.8656,-319.6753"/>
<polygon fill="#191970" stroke="#191970" points="1471.7356,-299.6388 1461.6068,-302.7465 1471.4628,-306.6335 1471.7356,-299.6388"/>
</g>
<!-- Node16 -->
<g id="node12" class="node">
<title>Node16</title>
<g id="a_node12"><a xlink:href="classgko_1_1ConvertibleTo.html" target="_top" xlink:title=" ">
<polygon fill="#ffffff" stroke="#000000" points="914.5,-244 914.5,-274 1032.5,-274 1032.5,-244 914.5,-244"/>
<text text-anchor="start" x="922.5" y="-262" font-family="Helvetica,sans-Serif" font-size="10.00" fill="#000000">gko::ConvertibleTo</text>
<text text-anchor="middle" x="973.5" y="-251" font-family="Helvetica,sans-Serif" font-size="10.00" fill="#000000">&lt; Ir&lt; ValueType &gt; &gt;</text>
</a>
</g>
</g>
<!-- Node16&#45;&gt;Node15 -->
<g id="edge14" class="edge">
<title>Node16&#45;&gt;Node15</title>
<path fill="none" stroke="#191970" d="M1042.8269,-266.0742C1105.7495,-272.4948 1199.1434,-282.0248 1269.2855,-289.1822"/>
<polygon fill="#191970" stroke="#191970" points="1042.9145,-262.565 1032.6108,-265.0317 1042.2038,-269.5289 1042.9145,-262.565"/>
</g>
<!-- Node17 -->
<g id="node13" class="node">
<title>Node17</title>
<g id="a_node13"><a xlink:href="classgko_1_1ConvertibleTo.html" target="_top" xlink:title="ConvertibleTo interface is used to mark that the implementer can be converted to the object of Result...">
<polygon fill="#ffffff" stroke="#000000" points="576,-293 576,-323 683,-323 683,-293 576,-293"/>
<text text-anchor="start" x="584" y="-311" font-family="Helvetica,sans-Serif" font-size="10.00" fill="#000000">gko::ConvertibleTo</text>
<text text-anchor="middle" x="629.5" y="-300" font-family="Helvetica,sans-Serif" font-size="10.00" fill="#000000">&lt; ResultType &gt;</text>
</a>
</g>
</g>
<!-- Node17&#45;&gt;Node16 -->
<g id="edge15" class="edge">
<title>Node17&#45;&gt;Node16</title>
<path fill="none" stroke="#ffa500" stroke-dasharray="5,2" d="M693.5029,-298.8833C756.7866,-289.8691 852.8289,-276.1886 914.3643,-267.4234"/>
<polygon fill="#ffa500" stroke="#ffa500" points="692.6565,-295.4685 683.25,-300.3438 693.6437,-302.3985 692.6565,-295.4685"/>
<text text-anchor="middle" x="800.5" y="-293" font-family="Helvetica,sans-Serif" font-size="10.00" fill="#000000"> &lt; Ir&lt; ValueType &gt; &gt;</text>
</g>
<!-- Node18 -->
<g id="node14" class="node">
<title>Node18</title>
<g id="a_node14"><a xlink:href="classgko_1_1EnablePolymorphicAssignment.html" target="_top" xlink:title="This mixin is used to enable a default PolymorphicObject::copy_from() implementation for objects that...">
<polygon fill="#ffffff" stroke="#000000" points="877.5,-293 877.5,-323 1069.5,-323 1069.5,-293 877.5,-293"/>
<text text-anchor="start" x="885.5" y="-311" font-family="Helvetica,sans-Serif" font-size="10.00" fill="#000000">gko::EnablePolymorphicAssignment</text>
<text text-anchor="middle" x="973.5" y="-300" font-family="Helvetica,sans-Serif" font-size="10.00" fill="#000000">&lt; ConcreteType, ResultType &gt;</text>
</a>
</g>
</g>
<!-- Node17&#45;&gt;Node18 -->
<g id="edge17" class="edge">
<title>Node17&#45;&gt;Node18</title>
<path fill="none" stroke="#191970" d="M693.2719,-308C744.8964,-308 818.4304,-308 877.2194,-308"/>
<polygon fill="#191970" stroke="#191970" points="693.25,-304.5001 683.25,-308 693.25,-311.5001 693.25,-304.5001"/>
</g>
<!-- Node23 -->
<g id="node19" class="node">
<title>Node23</title>
<g id="a_node19"><a xlink:href="classgko_1_1ConvertibleTo.html" target="_top" xlink:title=" ">
<polygon fill="#ffffff" stroke="#000000" points="918.5,-342 918.5,-372 1028.5,-372 1028.5,-342 918.5,-342"/>
<text text-anchor="start" x="926.5" y="-360" font-family="Helvetica,sans-Serif" font-size="10.00" fill="#000000">gko::ConvertibleTo</text>
<text text-anchor="middle" x="973.5" y="-349" font-family="Helvetica,sans-Serif" font-size="10.00" fill="#000000">&lt; ConcreteLinOp &gt;</text>
</a>
</g>
</g>
<!-- Node17&#45;&gt;Node23 -->
<g id="edge26" class="edge">
<title>Node17&#45;&gt;Node23</title>
<path fill="none" stroke="#ffa500" stroke-dasharray="5,2" d="M693.3261,-317.0915C758.0149,-326.3059 857.0647,-340.4147 918.4212,-349.1545"/>
<polygon fill="#ffa500" stroke="#ffa500" points="693.6437,-313.6015 683.25,-315.6563 692.6565,-320.5315 693.6437,-313.6015"/>
<text text-anchor="middle" x="800.5" y="-342" font-family="Helvetica,sans-Serif" font-size="10.00" fill="#000000"> &lt; ConcreteLinOp &gt;</text>
</g>
<!-- Node18&#45;&gt;Node15 -->
<g id="edge16" class="edge">
<title>Node18&#45;&gt;Node15</title>
<path fill="none" stroke="#ffa500" stroke-dasharray="5,2" d="M1079.564,-300.5883C1084.4421,-300.3639 1089.2724,-300.1655 1094,-300 1152.177,-297.9637 1217.4087,-297.6594 1269.3489,-297.8898"/>
<polygon fill="#ffa500" stroke="#ffa500" points="1079.3174,-297.0961 1069.5013,-301.0828 1079.6611,-304.0876 1079.3174,-297.0961"/>
<text text-anchor="middle" x="1170.5" y="-303" font-family="Helvetica,sans-Serif" font-size="10.00" fill="#000000"> &lt; Ir&lt; ValueType &gt; &gt;</text>
</g>
<!-- Node22 -->
<g id="node18" class="node">
<title>Node22</title>
<g id="a_node18"><a xlink:href="classgko_1_1EnablePolymorphicAssignment.html" target="_top" xlink:title=" ">
<polygon fill="#ffffff" stroke="#000000" points="1269.5,-334 1269.5,-364 1461.5,-364 1461.5,-334 1269.5,-334"/>
<text text-anchor="start" x="1277.5" y="-352" font-family="Helvetica,sans-Serif" font-size="10.00" fill="#000000">gko::EnablePolymorphicAssignment</text>
<text text-anchor="middle" x="1365.5" y="-341" font-family="Helvetica,sans-Serif" font-size="10.00" fill="#000000">&lt; ConcreteLinOp &gt;</text>
</a>
</g>
</g>
<!-- Node18&#45;&gt;Node22 -->
<g id="edge27" class="edge">
<title>Node18&#45;&gt;Node22</title>
<path fill="none" stroke="#ffa500" stroke-dasharray="5,2" d="M1079.6972,-318.6914C1130.3592,-323.8381 1191.8223,-330.149 1247,-336 1254.3062,-336.7747 1261.8649,-337.5846 1269.4654,-338.405"/>
<polygon fill="#ffa500" stroke="#ffa500" points="1080.0162,-315.2059 1069.7139,-317.6781 1079.3093,-322.1701 1080.0162,-315.2059"/>
<text text-anchor="middle" x="1170.5" y="-339" font-family="Helvetica,sans-Serif" font-size="10.00" fill="#000000"> &lt; ConcreteLinOp &gt;</text>
</g>
<!-- Node19 -->
<g id="node15" class="node">
<title>Node19</title>
<g id="a_node15"><a xlink:href="classgko_1_1EnableLinOp.html" target="_top" xlink:title="The EnableLinOp mixin can be used to provide sensible default implementations of the majority of the ...">
<polygon fill="#ffffff" stroke="#000000" points="1569.5,-334 1569.5,-364 1725.5,-364 1725.5,-334 1569.5,-334"/>
<text text-anchor="start" x="1577.5" y="-352" font-family="Helvetica,sans-Serif" font-size="10.00" fill="#000000">gko::EnableLinOp&lt; Concrete</text>
<text text-anchor="middle" x="1647.5" y="-341" font-family="Helvetica,sans-Serif" font-size="10.00" fill="#000000">LinOp, PolymorphicBase &gt;</text>
</a>
</g>
</g>
<!-- Node19&#45;&gt;Node2 -->
<g id="edge18" class="edge">
<title>Node19&#45;&gt;Node2</title>
<path fill="none" stroke="#ffa500" stroke-dasharray="5,2" d="M1735.7221,-341.2662C1787.0805,-336.764 1850.4579,-331.2082 1895.937,-327.2214"/>
<polygon fill="#ffa500" stroke="#ffa500" points="1735.2757,-337.7919 1725.6196,-342.1519 1735.887,-344.7651 1735.2757,-337.7919"/>
<text text-anchor="middle" x="1809.5" y="-341" font-family="Helvetica,sans-Serif" font-size="10.00" fill="#000000"> &lt; Ir&lt; ValueType &gt; &gt;</text>
</g>
<!-- Node20&#45;&gt;Node19 -->
<g id="edge19" class="edge">
<title>Node20&#45;&gt;Node19</title>
<path fill="none" stroke="#191970" d="M1457.1134,-384.1068C1493.2341,-377.4462 1534.3042,-369.873 1569.0292,-363.4698"/>
<polygon fill="#191970" stroke="#191970" points="1456.2656,-380.704 1447.0661,-385.9594 1457.535,-387.5879 1456.2656,-380.704"/>
</g>
<!-- Node21&#45;&gt;Node20 -->
<g id="edge20" class="edge">
<title>Node21&#45;&gt;Node20</title>
<path fill="none" stroke="#191970" d="M738.4191,-401C880.4261,-401 1126.8962,-401 1264.7548,-401"/>
<polygon fill="#191970" stroke="#191970" points="738.3781,-397.5001 728.3781,-401 738.3781,-404.5001 738.3781,-397.5001"/>
</g>
<!-- Node22&#45;&gt;Node19 -->
<g id="edge24" class="edge">
<title>Node22&#45;&gt;Node19</title>
<path fill="none" stroke="#191970" d="M1472.1524,-349C1504.468,-349 1539.3468,-349 1569.4212,-349"/>
<polygon fill="#191970" stroke="#191970" points="1471.7597,-345.5001 1461.7597,-349 1471.7596,-352.5001 1471.7597,-345.5001"/>
</g>
<!-- Node23&#45;&gt;Node22 -->
<g id="edge25" class="edge">
<title>Node23&#45;&gt;Node22</title>
<path fill="none" stroke="#191970" d="M1039.0239,-355.6628C1101.9342,-354.3789 1197.7021,-352.4244 1269.2698,-350.9639"/>
<polygon fill="#191970" stroke="#191970" points="1038.7591,-352.1674 1028.8326,-355.8708 1038.902,-359.1659 1038.7591,-352.1674"/>
</g>
<!-- Node24 -->
<g id="node20" class="node">
<title>Node24</title>
<g id="a_node20"><a xlink:href="classgko_1_1solver_1_1EnableSolverBase.html" target="_top" xlink:title=" ">
<polygon fill="#ffffff" stroke="#000000" points="1884.5,-172 1884.5,-202 2026.5,-202 2026.5,-172 1884.5,-172"/>
<text text-anchor="start" x="1892.5" y="-190" font-family="Helvetica,sans-Serif" font-size="10.00" fill="#000000">gko::solver::EnableSolver</text>
<text text-anchor="middle" x="1955.5" y="-179" font-family="Helvetica,sans-Serif" font-size="10.00" fill="#000000">Base&lt; Ir&lt; ValueType &gt; &gt;</text>
</a>
</g>
</g>
<!-- Node24&#45;&gt;Node1 -->
<g id="edge28" class="edge">
<title>Node24&#45;&gt;Node1</title>
<path fill="none" stroke="#191970" d="M2015.7762,-168.9171C2048.2578,-159.1726 2087.0195,-147.5442 2113.6623,-139.5513"/>
<polygon fill="#191970" stroke="#191970" points="2014.4902,-165.6488 2005.9177,-171.8747 2016.5017,-172.3535 2014.4902,-165.6488"/>
</g>
<!-- Node25 -->
<g id="node21" class="node">
<title>Node25</title>
<g id="a_node21"><a xlink:href="classgko_1_1solver_1_1SolverBase.html" target="_top" xlink:title=" ">
<polygon fill="#ffffff" stroke="#000000" points="1582,-221 1582,-251 1713,-251 1713,-221 1582,-221"/>
<text text-anchor="start" x="1590" y="-239" font-family="Helvetica,sans-Serif" font-size="10.00" fill="#000000">gko::solver::SolverBase</text>
<text text-anchor="middle" x="1647.5" y="-228" font-family="Helvetica,sans-Serif" font-size="10.00" fill="#000000">&lt; LinOp &gt;</text>
</a>
</g>
</g>
<!-- Node25&#45;&gt;Node24 -->
<g id="edge29" class="edge">
<title>Node25&#45;&gt;Node24</title>
<path fill="none" stroke="#191970" d="M1723.156,-224.0433C1764.234,-217.5424 1815.9069,-209.3504 1862,-202 1869.2246,-200.8479 1876.7627,-199.6431 1884.2871,-198.4387"/>
<polygon fill="#191970" stroke="#191970" points="1722.5503,-220.5955 1713.2202,-225.6154 1723.6444,-227.5095 1722.5503,-220.5955"/>
</g>
<!-- Node26 -->
<g id="node22" class="node">
<title>Node26</title>
<g id="a_node22"><a xlink:title="A LinOp implementing this interface stores a system matrix.">
<polygon fill="#ffffff" stroke="#bfbfbf" points="921,-192 921,-222 1026,-222 1026,-192 921,-192"/>
<text text-anchor="start" x="929" y="-210" font-family="Helvetica,sans-Serif" font-size="10.00" fill="#000000">gko::solver::detail</text>
<text text-anchor="middle" x="973.5" y="-199" font-family="Helvetica,sans-Serif" font-size="10.00" fill="#000000">::SolverBaseLinOp</text>
</a>
</g>
</g>
<!-- Node26&#45;&gt;Node25 -->
<g id="edge30" class="edge">
<title>Node26&#45;&gt;Node25</title>
<path fill="none" stroke="#191970" d="M1036.3619,-212.1542C1054.9145,-213.5512 1075.2662,-214.9623 1094,-216 1270.177,-225.7586 1478.1748,-231.8033 1581.856,-234.4444"/>
<polygon fill="#191970" stroke="#191970" points="1036.4995,-208.6546 1026.2618,-211.382 1035.9658,-215.6342 1036.4995,-208.6546"/>
</g>
<!-- Node27 -->
<g id="node23" class="node">
<title>Node27</title>
<g id="a_node23"><a xlink:href="classgko_1_1solver_1_1SolverBase.html" target="_top" xlink:title=" ">
<polygon fill="#ffffff" stroke="#000000" points="1300,-182 1300,-212 1431,-212 1431,-182 1300,-182"/>
<text text-anchor="start" x="1308" y="-200" font-family="Helvetica,sans-Serif" font-size="10.00" fill="#000000">gko::solver::SolverBase</text>
<text text-anchor="middle" x="1365.5" y="-189" font-family="Helvetica,sans-Serif" font-size="10.00" fill="#000000">&lt; MatrixType &gt;</text>
</a>
</g>
</g>
<!-- Node26&#45;&gt;Node27 -->
<g id="edge32" class="edge">
<title>Node26&#45;&gt;Node27</title>
<path fill="none" stroke="#191970" d="M1036.6804,-205.3883C1108.8894,-203.5462 1226.5177,-200.5455 1299.7741,-198.6767"/>
<polygon fill="#191970" stroke="#191970" points="1036.2743,-201.8974 1026.3669,-205.6514 1036.4529,-208.8951 1036.2743,-201.8974"/>
</g>
<!-- Node27&#45;&gt;Node25 -->
<g id="edge31" class="edge">
<title>Node27&#45;&gt;Node25</title>
<path fill="none" stroke="#ffa500" stroke-dasharray="5,2" d="M1441.2062,-204.1649C1471.3828,-207.3269 1506.3945,-211.379 1538,-216 1552.2456,-218.0828 1567.4734,-220.6472 1581.9052,-223.2364"/>
<polygon fill="#ffa500" stroke="#ffa500" points="1441.4767,-200.6743 1431.1697,-203.1272 1440.7567,-207.6372 1441.4767,-200.6743"/>
<text text-anchor="middle" x="1511" y="-219" font-family="Helvetica,sans-Serif" font-size="10.00" fill="#000000"> &lt; LinOp &gt;</text>
</g>
<!-- Node28 -->
<g id="node24" class="node">
<title>Node28</title>
<g id="a_node24"><a xlink:href="classgko_1_1solver_1_1EnableSolverBase.html" target="_top" xlink:title="A LinOp deriving from this CRTP class stores a system matrix.">
<polygon fill="#ffffff" stroke="#000000" points="1556,-172 1556,-202 1739,-202 1739,-172 1556,-172"/>
<text text-anchor="start" x="1564" y="-190" font-family="Helvetica,sans-Serif" font-size="10.00" fill="#000000">gko::solver::EnableSolver</text>
<text text-anchor="middle" x="1647.5" y="-179" font-family="Helvetica,sans-Serif" font-size="10.00" fill="#000000">Base&lt; DerivedType, MatrixType &gt;</text>
</a>
</g>
</g>
<!-- Node27&#45;&gt;Node28 -->
<g id="edge34" class="edge">
<title>Node27&#45;&gt;Node28</title>
<path fill="none" stroke="#191970" d="M1441.4886,-194.3054C1476.7517,-193.0549 1518.9602,-191.5581 1555.964,-190.246"/>
<polygon fill="#191970" stroke="#191970" points="1441.1302,-190.8158 1431.2606,-194.6681 1441.3784,-197.8114 1441.1302,-190.8158"/>
</g>
<!-- Node28&#45;&gt;Node24 -->
<g id="edge33" class="edge">
<title>Node28&#45;&gt;Node24</title>
<path fill="none" stroke="#ffa500" stroke-dasharray="5,2" d="M1749.2832,-187C1793.504,-187 1844.2403,-187 1884.3218,-187"/>
<polygon fill="#ffa500" stroke="#ffa500" points="1749.0763,-183.5001 1739.0762,-187 1749.0762,-190.5001 1749.0763,-183.5001"/>
<text text-anchor="middle" x="1809.5" y="-190" font-family="Helvetica,sans-Serif" font-size="10.00" fill="#000000"> &lt; Ir&lt; ValueType &gt; &gt;</text>
</g>
<!-- Node29 -->
<g id="node25" class="node">
<title>Node29</title>
<g id="a_node25"><a xlink:href="classgko_1_1solver_1_1EnableIterativeBase.html" target="_top" xlink:title=" ">
<polygon fill="#ffffff" stroke="#000000" points="1880,-115 1880,-145 2031,-145 2031,-115 1880,-115"/>
<text text-anchor="start" x="1888" y="-133" font-family="Helvetica,sans-Serif" font-size="10.00" fill="#000000">gko::solver::EnableIterative</text>
<text text-anchor="middle" x="1955.5" y="-122" font-family="Helvetica,sans-Serif" font-size="10.00" fill="#000000">Base&lt; Ir&lt; ValueType &gt; &gt;</text>
</a>
</g>
</g>
<!-- Node29&#45;&gt;Node1 -->
<g id="edge35" class="edge">
<title>Node29&#45;&gt;Node1</title>
<path fill="none" stroke="#191970" d="M2041.1525,-130C2050.0785,-130 2059.1156,-130 2067.9446,-130"/>
<polygon fill="#191970" stroke="#191970" points="2041.139,-126.5001 2031.139,-130 2041.1389,-133.5001 2041.139,-126.5001"/>
</g>
<!-- Node30 -->
<g id="node26" class="node">
<title>Node30</title>
<g id="a_node26"><a xlink:href="classgko_1_1solver_1_1IterativeBase.html" target="_top" xlink:title="A LinOp implementing this interface stores a stopping criterion factory.">
<polygon fill="#ffffff" stroke="#000000" points="1294.5,-102.5 1294.5,-121.5 1436.5,-121.5 1436.5,-102.5 1294.5,-102.5"/>
<text text-anchor="middle" x="1365.5" y="-109.5" font-family="Helvetica,sans-Serif" font-size="10.00" fill="#000000">gko::solver::IterativeBase</text>
</a>
</g>
</g>
<!-- Node30&#45;&gt;Node29 -->
<g id="edge36" class="edge">
<title>Node30&#45;&gt;Node29</title>
<path fill="none" stroke="#191970" d="M1447.1965,-110.8314C1522.8893,-110.13 1638.5944,-110.0257 1739,-114 1785.8865,-115.8559 1838.374,-119.6909 1879.9254,-123.141"/>
<polygon fill="#191970" stroke="#191970" points="1446.7522,-107.3356 1436.7872,-110.934 1446.8212,-114.3352 1446.7522,-107.3356"/>
</g>
<!-- Node31 -->
<g id="node27" class="node">
<title>Node31</title>
<g id="a_node27"><a xlink:href="classgko_1_1solver_1_1EnableIterativeBase.html" target="_top" xlink:title="A LinOp deriving from this CRTP class stores a stopping criterion factory and allows applying with a ...">
<polygon fill="#ffffff" stroke="#000000" points="1572,-123 1572,-153 1723,-153 1723,-123 1572,-123"/>
<text text-anchor="start" x="1580" y="-141" font-family="Helvetica,sans-Serif" font-size="10.00" fill="#000000">gko::solver::EnableIterative</text>
<text text-anchor="middle" x="1647.5" y="-130" font-family="Helvetica,sans-Serif" font-size="10.00" fill="#000000">Base&lt; DerivedType &gt;</text>
</a>
</g>
</g>
<!-- Node30&#45;&gt;Node31 -->
<g id="edge38" class="edge">
<title>Node30&#45;&gt;Node31</title>
<path fill="none" stroke="#191970" d="M1446.7725,-119.4932C1486.1999,-123.1284 1533.2707,-127.4682 1571.9176,-131.0314"/>
<polygon fill="#191970" stroke="#191970" points="1446.9396,-115.9939 1436.6605,-118.5609 1446.2969,-122.9643 1446.9396,-115.9939"/>
</g>
<!-- Node31&#45;&gt;Node29 -->
<g id="edge37" class="edge">
<title>Node31&#45;&gt;Node29</title>
<path fill="none" stroke="#ffa500" stroke-dasharray="5,2" d="M1733.4826,-135.7667C1779.4332,-134.5732 1835.4945,-133.117 1879.7861,-131.9666"/>
<polygon fill="#ffa500" stroke="#ffa500" points="1733.1455,-132.2742 1723.2398,-136.0327 1733.3273,-139.2718 1733.1455,-132.2742"/>
<text text-anchor="middle" x="1809.5" y="-137" font-family="Helvetica,sans-Serif" font-size="10.00" fill="#000000"> &lt; Ir&lt; ValueType &gt; &gt;</text>
</g>
<!-- Node32 -->
<g id="node28" class="node">
<title>Node32</title>
<g id="a_node28"><a xlink:href="classgko_1_1solver_1_1EnableApplyWithInitialGuess.html" target="_top" xlink:title=" ">
<polygon fill="#ffffff" stroke="#000000" points="1887,-38.5 1887,-79.5 2024,-79.5 2024,-38.5 1887,-38.5"/>
<text text-anchor="start" x="1895" y="-67.5" font-family="Helvetica,sans-Serif" font-size="10.00" fill="#000000">gko::solver::EnableApply</text>
<text text-anchor="start" x="1895" y="-56.5" font-family="Helvetica,sans-Serif" font-size="10.00" fill="#000000">WithInitialGuess&lt; Ir&lt;</text>
<text text-anchor="middle" x="1955.5" y="-45.5" font-family="Helvetica,sans-Serif" font-size="10.00" fill="#000000"> ValueType &gt; &gt;</text>
</a>
</g>
</g>
<!-- Node32&#45;&gt;Node1 -->
<g id="edge39" class="edge">
<title>Node32&#45;&gt;Node1</title>
<path fill="none" stroke="#191970" d="M2019.9436,-83.0816C2054.2005,-95.8828 2094.3901,-110.9011 2119.8958,-120.4321"/>
<polygon fill="#191970" stroke="#191970" points="2021.0484,-79.7581 2010.4559,-79.5361 2018.598,-86.3152 2021.0484,-79.7581"/>
</g>
<!-- Node33 -->
<g id="node29" class="node">
<title>Node33</title>
<g id="a_node29"><a xlink:href="classgko_1_1solver_1_1ApplyWithInitialGuess.html" target="_top" xlink:title="ApplyWithInitialGuess provides a way to give the input guess for apply function.">
<polygon fill="#ffffff" stroke="#000000" points="1288,-9 1288,-39 1443,-39 1443,-9 1288,-9"/>
<text text-anchor="start" x="1296" y="-27" font-family="Helvetica,sans-Serif" font-size="10.00" fill="#000000">gko::solver::ApplyWithInitial</text>
<text text-anchor="middle" x="1365.5" y="-16" font-family="Helvetica,sans-Serif" font-size="10.00" fill="#000000">Guess</text>
</a>
</g>
</g>
<!-- Node33&#45;&gt;Node32 -->
<g id="edge40" class="edge">
<title>Node33&#45;&gt;Node32</title>
<path fill="none" stroke="#191970" d="M1453.703,-20.4414C1529.4858,-18.2908 1641.6102,-17.2682 1739,-25 1788.6859,-28.9446 1844.2132,-37.7552 1886.5931,-45.4189"/>
<polygon fill="#191970" stroke="#191970" points="1453.1479,-16.9563 1443.2562,-20.7516 1453.3557,-23.9532 1453.1479,-16.9563"/>
</g>
<!-- Node34 -->
<g id="node30" class="node">
<title>Node34</title>
<g id="a_node30"><a xlink:href="classgko_1_1solver_1_1EnableApplyWithInitialGuess.html" target="_top" xlink:title="EnableApplyWithInitialGuess providing default operation for ApplyWithInitialGuess with correct valida...">
<polygon fill="#ffffff" stroke="#000000" points="1557.5,-35 1557.5,-65 1737.5,-65 1737.5,-35 1557.5,-35"/>
<text text-anchor="start" x="1565.5" y="-53" font-family="Helvetica,sans-Serif" font-size="10.00" fill="#000000">gko::solver::EnableApply</text>
<text text-anchor="middle" x="1647.5" y="-42" font-family="Helvetica,sans-Serif" font-size="10.00" fill="#000000">WithInitialGuess&lt; DerivedType &gt;</text>
</a>
</g>
</g>
<!-- Node33&#45;&gt;Node34 -->
<g id="edge42" class="edge">
<title>Node33&#45;&gt;Node34</title>
<path fill="none" stroke="#191970" d="M1453.4206,-32.1062C1486.5224,-35.1581 1524.1943,-38.6314 1557.4845,-41.7007"/>
<polygon fill="#191970" stroke="#191970" points="1453.5834,-28.6064 1443.3042,-31.1734 1452.9406,-35.5768 1453.5834,-28.6064"/>
</g>
<!-- Node34&#45;&gt;Node32 -->
<g id="edge41" class="edge">
<title>Node34&#45;&gt;Node32</title>
<path fill="none" stroke="#ffa500" stroke-dasharray="5,2" d="M1748.0014,-52.9367C1793.4065,-54.2635 1845.8969,-55.7973 1886.7232,-56.9903"/>
<polygon fill="#ffa500" stroke="#ffa500" points="1747.9271,-49.4332 1737.8291,-52.6395 1747.7225,-56.4302 1747.9271,-49.4332"/>
<text text-anchor="middle" x="1809.5" y="-60" font-family="Helvetica,sans-Serif" font-size="10.00" fill="#000000"> &lt; Ir&lt; ValueType &gt; &gt;</text>
</g>
<!-- Node35 -->
<g id="node31" class="node">
<title>Node35</title>
<g id="a_node31"><a xlink:href="classgko_1_1Transposable.html" target="_top" xlink:title="Linear operators which support transposition should implement the Transposable interface.">
<polygon fill="#ffffff" stroke="#000000" points="1903.5,-.5 1903.5,-19.5 2007.5,-19.5 2007.5,-.5 1903.5,-.5"/>
<text text-anchor="middle" x="1955.5" y="-7.5" font-family="Helvetica,sans-Serif" font-size="10.00" fill="#000000">gko::Transposable</text>
</a>
</g>
</g>
<!-- Node35&#45;&gt;Node1 -->
<g id="edge43" class="edge">
<title>Node35&#45;&gt;Node1</title>
<path fill="none" stroke="#191970" d="M2017.316,-22.9231C2022.0512,-24.7032 2026.6684,-26.7191 2031,-29 2077.2043,-53.3303 2120.1017,-100.0248 2137.4206,-120.2557"/>
<polygon fill="#191970" stroke="#191970" points="2018.0784,-19.486 2007.4841,-19.5909 2015.8315,-26.1156 2018.0784,-19.486"/>
</g>
</g>
</svg>
