<?xml version="1.0" encoding="UTF-8" standalone="no"?>
<!DOCTYPE svg PUBLIC "-//W3C//DTD SVG 1.1//EN"
 "http://www.w3.org/Graphics/SVG/1.1/DTD/svg11.dtd">
<!-- Generated by graphviz version 2.40.1 (20161225.0304)
 -->
<!-- Title: gko::experimental::distributed::Partition&lt; LocalIndexType, GlobalIndexType &gt; Pages: 1 -->
<svg width="2109pt" height="338pt"
 viewBox="0.00 0.00 2109.00 337.50" xmlns="http://www.w3.org/2000/svg" xmlns:xlink="http://www.w3.org/1999/xlink">
<g id="graph0" class="graph" transform="scale(1 1) rotate(0) translate(4 333.5)">
<title>gko::experimental::distributed::Partition&lt; LocalIndexType, GlobalIndexType &gt;</title>
<polygon fill="#ffffff" stroke="transparent" points="-4,4 -4,-333.5 2105,-333.5 2105,4 -4,4"/>
<!-- Node1 -->
<g id="node1" class="node">
<title>Node1</title>
<g id="a_node1"><a xlink:title="Represents a partition of a range of indices [0, size) into a disjoint set of parts.">
<polygon fill="#bfbfbf" stroke="#000000" points="1934,-80.5 1934,-132.5 2101,-132.5 2101,-80.5 1934,-80.5"/>
<text text-anchor="start" x="1942" y="-120.5" font-family="Helvetica,sans-Serif" font-size="10.00" fill="#000000">gko::experimental::</text>
<text text-anchor="start" x="1942" y="-109.5" font-family="Helvetica,sans-Serif" font-size="10.00" fill="#000000">distributed::Partition</text>
<text text-anchor="start" x="1942" y="-98.5" font-family="Helvetica,sans-Serif" font-size="10.00" fill="#000000">&lt; LocalIndexType, GlobalIndex</text>
<text text-anchor="middle" x="2017.5" y="-87.5" font-family="Helvetica,sans-Serif" font-size="10.00" fill="#000000">Type &gt;</text>
</a>
</g>
</g>
<!-- Node2 -->
<g id="node2" class="node">
<title>Node2</title>
<g id="a_node2"><a xlink:href="classgko_1_1EnablePolymorphicObject.html" target="_top" xlink:title=" ">
<polygon fill="#ffffff" stroke="#000000" points="1718,-156 1718,-197 1884,-197 1884,-156 1718,-156"/>
<text text-anchor="start" x="1726" y="-185" font-family="Helvetica,sans-Serif" font-size="10.00" fill="#000000">gko::EnablePolymorphicObject</text>
<text text-anchor="start" x="1726" y="-174" font-family="Helvetica,sans-Serif" font-size="10.00" fill="#000000">&lt; Partition&lt; LocalIndexType,</text>
<text text-anchor="middle" x="1801" y="-163" font-family="Helvetica,sans-Serif" font-size="10.00" fill="#000000"> GlobalIndexType &gt; &gt;</text>
</a>
</g>
</g>
<!-- Node2&#45;&gt;Node1 -->
<g id="edge1" class="edge">
<title>Node2&#45;&gt;Node1</title>
<path fill="none" stroke="#191970" d="M1874.2493,-152.8166C1894.4479,-146.2859 1916.4683,-139.1661 1937.0505,-132.5114"/>
<polygon fill="#191970" stroke="#191970" points="1872.9325,-149.5639 1864.4943,-155.9707 1875.0861,-156.2244 1872.9325,-149.5639"/>
</g>
<!-- Node3 -->
<g id="node3" class="node">
<title>Node3</title>
<g id="a_node3"><a xlink:href="classgko_1_1EnableAbstractPolymorphicObject.html" target="_top" xlink:title=" ">
<polygon fill="#ffffff" stroke="#000000" points="1303,-217 1303,-258 1524,-258 1524,-217 1303,-217"/>
<text text-anchor="start" x="1311" y="-246" font-family="Helvetica,sans-Serif" font-size="10.00" fill="#000000">gko::EnableAbstractPolymorphic</text>
<text text-anchor="start" x="1311" y="-235" font-family="Helvetica,sans-Serif" font-size="10.00" fill="#000000">Object&lt; Partition&lt; LocalIndexType,</text>
<text text-anchor="middle" x="1413.5" y="-224" font-family="Helvetica,sans-Serif" font-size="10.00" fill="#000000"> GlobalIndexType &gt;, PolymorphicObject &gt;</text>
</a>
</g>
</g>
<!-- Node3&#45;&gt;Node2 -->
<g id="edge2" class="edge">
<title>Node3&#45;&gt;Node2</title>
<path fill="none" stroke="#191970" d="M1534.2535,-218.4911C1593.8541,-209.1088 1664.2485,-198.0273 1717.753,-189.6047"/>
<polygon fill="#191970" stroke="#191970" points="1533.3574,-215.0889 1524.0234,-220.1015 1534.446,-222.0038 1533.3574,-215.0889"/>
</g>
<!-- Node4 -->
<g id="node4" class="node">
<title>Node4</title>
<g id="a_node4"><a xlink:href="classgko_1_1PolymorphicObject.html" target="_top" xlink:title="A PolymorphicObject is the abstract base for all &quot;heavy&quot; objects in Ginkgo that behave polymorphicall...">
<polygon fill="#ffffff" stroke="#000000" points="929,-265 929,-284 1062,-284 1062,-265 929,-265"/>
<text text-anchor="middle" x="995.5" y="-272" font-family="Helvetica,sans-Serif" font-size="10.00" fill="#000000">gko::PolymorphicObject</text>
</a>
</g>
</g>
<!-- Node4&#45;&gt;Node3 -->
<g id="edge3" class="edge">
<title>Node4&#45;&gt;Node3</title>
<path fill="none" stroke="#191970" d="M1072.3053,-267.7014C1136.8709,-261.9863 1229.9891,-253.7438 1302.6394,-247.313"/>
<polygon fill="#191970" stroke="#191970" points="1071.848,-264.2281 1062.1955,-268.5963 1072.4652,-271.2009 1071.848,-264.2281"/>
</g>
<!-- Node5 -->
<g id="node5" class="node">
<title>Node5</title>
<g id="a_node5"><a xlink:href="classgko_1_1log_1_1EnableLogging.html" target="_top" xlink:title=" ">
<polygon fill="#ffffff" stroke="#000000" points="563,-264.5 563,-294.5 696,-294.5 696,-264.5 563,-264.5"/>
<text text-anchor="start" x="571" y="-282.5" font-family="Helvetica,sans-Serif" font-size="10.00" fill="#000000">gko::log::EnableLogging</text>
<text text-anchor="middle" x="629.5" y="-271.5" font-family="Helvetica,sans-Serif" font-size="10.00" fill="#000000">&lt; PolymorphicObject &gt;</text>
</a>
</g>
</g>
<!-- Node5&#45;&gt;Node4 -->
<g id="edge4" class="edge">
<title>Node5&#45;&gt;Node4</title>
<path fill="none" stroke="#191970" d="M706.5299,-278.4477C772.4177,-277.5476 866.2683,-276.2655 928.9453,-275.4092"/>
<polygon fill="#191970" stroke="#191970" points="706.1557,-274.9524 696.2045,-278.5887 706.2514,-281.9517 706.1557,-274.9524"/>
</g>
<!-- Node6 -->
<g id="node6" class="node">
<title>Node6</title>
<g id="a_node6"><a xlink:href="classgko_1_1log_1_1Loggable.html" target="_top" xlink:title="Loggable class is an interface which should be implemented by classes wanting to support logging.">
<polygon fill="#ffffff" stroke="#000000" points="184,-310 184,-329 290,-329 290,-310 184,-310"/>
<text text-anchor="middle" x="237" y="-317" font-family="Helvetica,sans-Serif" font-size="10.00" fill="#000000">gko::log::Loggable</text>
</a>
</g>
</g>
<!-- Node6&#45;&gt;Node5 -->
<g id="edge5" class="edge">
<title>Node6&#45;&gt;Node5</title>
<path fill="none" stroke="#191970" d="M300.6369,-313.0147C372.683,-305.6724 489.5366,-293.7638 562.8175,-286.2957"/>
<polygon fill="#191970" stroke="#191970" points="299.9364,-309.5679 290.3428,-314.0638 300.6461,-316.5318 299.9364,-309.5679"/>
</g>
<!-- Node7 -->
<g id="node7" class="node">
<title>Node7</title>
<g id="a_node7"><a xlink:href="classgko_1_1log_1_1EnableLogging.html" target="_top" xlink:title="EnableLogging is a mixin which should be inherited by any class which wants to enable logging.">
<polygon fill="#ffffff" stroke="#000000" points="146,-250 146,-291 328,-291 328,-250 146,-250"/>
<text text-anchor="start" x="154" y="-279" font-family="Helvetica,sans-Serif" font-size="10.00" fill="#000000">gko::log::EnableLogging</text>
<text text-anchor="start" x="154" y="-268" font-family="Helvetica,sans-Serif" font-size="10.00" fill="#000000">&lt; ConcreteLoggable, Polymorphic</text>
<text text-anchor="middle" x="237" y="-257" font-family="Helvetica,sans-Serif" font-size="10.00" fill="#000000">Base &gt;</text>
</a>
</g>
</g>
<!-- Node7&#45;&gt;Node5 -->
<g id="edge6" class="edge">
<title>Node7&#45;&gt;Node5</title>
<path fill="none" stroke="#ffa500" stroke-dasharray="5,2" d="M338.2987,-272.8228C408.9782,-274.4435 501.3064,-276.5605 562.8622,-277.972"/>
<polygon fill="#ffa500" stroke="#ffa500" points="338.1116,-269.3177 328.0339,-272.5874 337.951,-276.3158 338.1116,-269.3177"/>
<text text-anchor="middle" x="432.5" y="-279.5" font-family="Helvetica,sans-Serif" font-size="10.00" fill="#000000"> &lt; PolymorphicObject &gt;</text>
</g>
<!-- Node8 -->
<g id="node8" class="node">
<title>Node8</title>
<g id="a_node8"><a xlink:title=" ">
<polygon fill="#ffffff" stroke="#bfbfbf" points="0,-201 0,-220 101,-220 101,-201 0,-201"/>
<text text-anchor="middle" x="50.5" y="-208" font-family="Helvetica,sans-Serif" font-size="10.00" fill="#000000">PolymorphicBase</text>
</a>
</g>
</g>
<!-- Node8&#45;&gt;Node7 -->
<g id="edge7" class="edge">
<title>Node8&#45;&gt;Node7</title>
<path fill="none" stroke="#191970" d="M87.3985,-223.4808C102.9725,-228.8738 121.3267,-235.1174 138,-240.5 147.6563,-243.6173 157.8725,-246.8199 167.9312,-249.9183"/>
<polygon fill="#191970" stroke="#191970" points="88.2061,-220.0561 77.6113,-220.0773 85.9069,-226.6677 88.2061,-220.0561"/>
</g>
<!-- Node9 -->
<g id="node9" class="node">
<title>Node9</title>
<g id="a_node9"><a xlink:href="classgko_1_1EnableAbstractPolymorphicObject.html" target="_top" xlink:title="This mixin inherits from (a subclass of) PolymorphicObject and provides a base implementation of a ne...">
<polygon fill="#ffffff" stroke="#000000" points="138,-190 138,-231 336,-231 336,-190 138,-190"/>
<text text-anchor="start" x="146" y="-219" font-family="Helvetica,sans-Serif" font-size="10.00" fill="#000000">gko::EnableAbstractPolymorphic</text>
<text text-anchor="start" x="146" y="-208" font-family="Helvetica,sans-Serif" font-size="10.00" fill="#000000">Object&lt; AbstractObject, Polymorphic</text>
<text text-anchor="middle" x="237" y="-197" font-family="Helvetica,sans-Serif" font-size="10.00" fill="#000000">Base &gt;</text>
</a>
</g>
</g>
<!-- Node8&#45;&gt;Node9 -->
<g id="edge9" class="edge">
<title>Node8&#45;&gt;Node9</title>
<path fill="none" stroke="#191970" d="M111.5248,-210.5C119.9555,-210.5 128.7869,-210.5 137.6923,-210.5"/>
<polygon fill="#191970" stroke="#191970" points="111.462,-207.0001 101.4619,-210.5 111.4619,-214.0001 111.462,-207.0001"/>
</g>
<!-- Node11 -->
<g id="node11" class="node">
<title>Node11</title>
<g id="a_node11"><a xlink:href="classgko_1_1EnableAbstractPolymorphicObject.html" target="_top" xlink:title=" ">
<polygon fill="#ffffff" stroke="#000000" points="529,-156 529,-197 730,-197 730,-156 529,-156"/>
<text text-anchor="start" x="537" y="-185" font-family="Helvetica,sans-Serif" font-size="10.00" fill="#000000">gko::EnableAbstractPolymorphic</text>
<text text-anchor="start" x="537" y="-174" font-family="Helvetica,sans-Serif" font-size="10.00" fill="#000000">Object&lt; ConcreteObject, Polymorphic</text>
<text text-anchor="middle" x="629.5" y="-163" font-family="Helvetica,sans-Serif" font-size="10.00" fill="#000000">Base &gt;</text>
</a>
</g>
</g>
<!-- Node8&#45;&gt;Node11 -->
<g id="edge12" class="edge">
<title>Node8&#45;&gt;Node11</title>
<path fill="none" stroke="#191970" d="M81.5592,-197.1253C98.0027,-190.7485 118.7317,-183.8031 138,-180.5 271.7282,-157.5752 428.9407,-161.5843 528.8789,-167.9137"/>
<polygon fill="#191970" stroke="#191970" points="79.9071,-194.0167 71.9259,-200.9846 82.5103,-200.5146 79.9071,-194.0167"/>
</g>
<!-- Node9&#45;&gt;Node3 -->
<g id="edge8" class="edge">
<title>Node9&#45;&gt;Node3</title>
<path fill="none" stroke="#ffa500" stroke-dasharray="5,2" d="M346.3114,-217.181C348.8988,-217.2937 351.4647,-217.4003 354,-217.5 700.0629,-231.1129 1110.0861,-235.5201 1302.8722,-236.8994"/>
<polygon fill="#ffa500" stroke="#ffa500" points="346.3931,-213.6812 336.2432,-216.719 346.0722,-220.6738 346.3931,-213.6812"/>
<text text-anchor="start" x="748" y="-256.5" font-family="Helvetica,sans-Serif" font-size="10.00" fill="#000000"> &lt; Partition&lt; LocalIndexType,</text>
<text text-anchor="start" x="748" y="-245.5" font-family="Helvetica,sans-Serif" font-size="10.00" fill="#000000"> GlobalIndexType &gt;, Polymorphic</text>
<text text-anchor="middle" x="829.5" y="-234.5" font-family="Helvetica,sans-Serif" font-size="10.00" fill="#000000">Object &gt;</text>
</g>
<!-- Node9&#45;&gt;Node11 -->
<g id="edge13" class="edge">
<title>Node9&#45;&gt;Node11</title>
<path fill="none" stroke="#ffa500" stroke-dasharray="5,2" d="M346.2955,-196.2828C348.8877,-196.0118 351.4589,-195.7503 354,-195.5 411.8515,-189.8016 476.7046,-185.2389 528.9493,-182.0144"/>
<polygon fill="#ffa500" stroke="#ffa500" points="345.7778,-192.8183 336.2114,-197.3718 346.5294,-199.7778 345.7778,-192.8183"/>
<text text-anchor="start" x="354" y="-209.5" font-family="Helvetica,sans-Serif" font-size="10.00" fill="#000000"> &lt; ConcreteObject, Polymorphic</text>
<text text-anchor="middle" x="432.5" y="-198.5" font-family="Helvetica,sans-Serif" font-size="10.00" fill="#000000">Base &gt;</text>
</g>
<!-- Node10 -->
<g id="node10" class="node">
<title>Node10</title>
<g id="a_node10"><a xlink:href="classgko_1_1EnablePolymorphicObject.html" target="_top" xlink:title="This mixin inherits from (a subclass of) PolymorphicObject and provides a base implementation of a ne...">
<polygon fill="#ffffff" stroke="#000000" points="1080,-161.5 1080,-191.5 1285,-191.5 1285,-161.5 1080,-161.5"/>
<text text-anchor="start" x="1088" y="-179.5" font-family="Helvetica,sans-Serif" font-size="10.00" fill="#000000">gko::EnablePolymorphicObject</text>
<text text-anchor="middle" x="1182.5" y="-168.5" font-family="Helvetica,sans-Serif" font-size="10.00" fill="#000000">&lt; ConcreteObject, PolymorphicBase &gt;</text>
</a>
</g>
</g>
<!-- Node10&#45;&gt;Node2 -->
<g id="edge10" class="edge">
<title>Node10&#45;&gt;Node2</title>
<path fill="none" stroke="#ffa500" stroke-dasharray="5,2" d="M1295.4452,-176.5C1417.4106,-176.5 1608.8243,-176.5 1717.7758,-176.5"/>
<polygon fill="#ffa500" stroke="#ffa500" points="1295.327,-173.0001 1285.327,-176.5 1295.327,-180.0001 1295.327,-173.0001"/>
<text text-anchor="start" x="1341" y="-190.5" font-family="Helvetica,sans-Serif" font-size="10.00" fill="#000000"> &lt; Partition&lt; LocalIndexType,</text>
<text text-anchor="middle" x="1413.5" y="-179.5" font-family="Helvetica,sans-Serif" font-size="10.00" fill="#000000"> GlobalIndexType &gt; &gt;</text>
</g>
<!-- Node11&#45;&gt;Node10 -->
<g id="edge11" class="edge">
<title>Node11&#45;&gt;Node10</title>
<path fill="none" stroke="#191970" d="M740.3199,-176.5C839.2879,-176.5 983.1184,-176.5 1079.5965,-176.5"/>
<polygon fill="#191970" stroke="#191970" points="740.2857,-173.0001 730.2857,-176.5 740.2857,-180.0001 740.2857,-173.0001"/>
</g>
<!-- Node12 -->
<g id="node12" class="node">
<title>Node12</title>
<g id="a_node12"><a xlink:href="classgko_1_1EnablePolymorphicAssignment.html" target="_top" xlink:title=" ">
<polygon fill="#ffffff" stroke="#000000" points="1705,-86 1705,-127 1897,-127 1897,-86 1705,-86"/>
<text text-anchor="start" x="1713" y="-115" font-family="Helvetica,sans-Serif" font-size="10.00" fill="#000000">gko::EnablePolymorphicAssignment</text>
<text text-anchor="start" x="1713" y="-104" font-family="Helvetica,sans-Serif" font-size="10.00" fill="#000000">&lt; Partition&lt; LocalIndexType,</text>
<text text-anchor="middle" x="1801" y="-93" font-family="Helvetica,sans-Serif" font-size="10.00" fill="#000000"> GlobalIndexType &gt; &gt;</text>
</a>
</g>
</g>
<!-- Node12&#45;&gt;Node1 -->
<g id="edge14" class="edge">
<title>Node12&#45;&gt;Node1</title>
<path fill="none" stroke="#191970" d="M1907.2594,-106.5C1916.1689,-106.5 1925.0964,-106.5 1933.8003,-106.5"/>
<polygon fill="#191970" stroke="#191970" points="1907.2209,-103.0001 1897.2209,-106.5 1907.2208,-110.0001 1907.2209,-103.0001"/>
</g>
<!-- Node13 -->
<g id="node13" class="node">
<title>Node13</title>
<g id="a_node13"><a xlink:href="classgko_1_1ConvertibleTo.html" target="_top" xlink:title=" ">
<polygon fill="#ffffff" stroke="#000000" points="1334.5,-99 1334.5,-140 1492.5,-140 1492.5,-99 1334.5,-99"/>
<text text-anchor="start" x="1342.5" y="-128" font-family="Helvetica,sans-Serif" font-size="10.00" fill="#000000">gko::ConvertibleTo</text>
<text text-anchor="start" x="1342.5" y="-117" font-family="Helvetica,sans-Serif" font-size="10.00" fill="#000000">&lt; Partition&lt; LocalIndexType,</text>
<text text-anchor="middle" x="1413.5" y="-106" font-family="Helvetica,sans-Serif" font-size="10.00" fill="#000000"> GlobalIndexType &gt; &gt;</text>
</a>
</g>
</g>
<!-- Node13&#45;&gt;Node12 -->
<g id="edge15" class="edge">
<title>Node13&#45;&gt;Node12</title>
<path fill="none" stroke="#191970" d="M1503.1396,-116.4927C1563.5724,-114.4653 1643.2273,-111.793 1704.9578,-109.7221"/>
<polygon fill="#191970" stroke="#191970" points="1502.7285,-113.0045 1492.8515,-116.8379 1502.9632,-120.0005 1502.7285,-113.0045"/>
</g>
<!-- Node14 -->
<g id="node14" class="node">
<title>Node14</title>
<g id="a_node14"><a xlink:href="classgko_1_1ConvertibleTo.html" target="_top" xlink:title="ConvertibleTo interface is used to mark that the implementer can be converted to the object of Result...">
<polygon fill="#ffffff" stroke="#000000" points="942,-83.5 942,-113.5 1049,-113.5 1049,-83.5 942,-83.5"/>
<text text-anchor="start" x="950" y="-101.5" font-family="Helvetica,sans-Serif" font-size="10.00" fill="#000000">gko::ConvertibleTo</text>
<text text-anchor="middle" x="995.5" y="-90.5" font-family="Helvetica,sans-Serif" font-size="10.00" fill="#000000">&lt; ResultType &gt;</text>
</a>
</g>
</g>
<!-- Node14&#45;&gt;Node13 -->
<g id="edge16" class="edge">
<title>Node14&#45;&gt;Node13</title>
<path fill="none" stroke="#ffa500" stroke-dasharray="5,2" d="M1059.3718,-101.7089C1133.1234,-105.4141 1254.4944,-111.5117 1334.2168,-115.5169"/>
<polygon fill="#ffa500" stroke="#ffa500" points="1059.4535,-98.2087 1049.2905,-101.2024 1059.1022,-105.1998 1059.4535,-98.2087"/>
<text text-anchor="start" x="1110" y="-126.5" font-family="Helvetica,sans-Serif" font-size="10.00" fill="#000000"> &lt; Partition&lt; LocalIndexType,</text>
<text text-anchor="middle" x="1182.5" y="-115.5" font-family="Helvetica,sans-Serif" font-size="10.00" fill="#000000"> GlobalIndexType &gt; &gt;</text>
</g>
<!-- Node15 -->
<g id="node15" class="node">
<title>Node15</title>
<g id="a_node15"><a xlink:href="classgko_1_1EnablePolymorphicAssignment.html" target="_top" xlink:title="This mixin is used to enable a default PolymorphicObject::copy_from() implementation for objects that...">
<polygon fill="#ffffff" stroke="#000000" points="1317.5,-49.5 1317.5,-79.5 1509.5,-79.5 1509.5,-49.5 1317.5,-49.5"/>
<text text-anchor="start" x="1325.5" y="-67.5" font-family="Helvetica,sans-Serif" font-size="10.00" fill="#000000">gko::EnablePolymorphicAssignment</text>
<text text-anchor="middle" x="1413.5" y="-56.5" font-family="Helvetica,sans-Serif" font-size="10.00" fill="#000000">&lt; ConcreteType, ResultType &gt;</text>
</a>
</g>
</g>
<!-- Node14&#45;&gt;Node15 -->
<g id="edge18" class="edge">
<title>Node14&#45;&gt;Node15</title>
<path fill="none" stroke="#191970" d="M1059.5353,-93.2914C1128.2361,-87.7033 1238.1217,-78.7652 1317.2426,-72.3295"/>
<polygon fill="#191970" stroke="#191970" points="1058.9738,-89.8254 1049.2905,-94.1247 1059.5413,-96.8024 1058.9738,-89.8254"/>
</g>
<!-- Node15&#45;&gt;Node12 -->
<g id="edge17" class="edge">
<title>Node15&#45;&gt;Node12</title>
<path fill="none" stroke="#ffa500" stroke-dasharray="5,2" d="M1519.6978,-68.6678C1570.4868,-71.4795 1632.0555,-76.0807 1687,-83.5 1692.8026,-84.2835 1698.7534,-85.1847 1704.7445,-86.1668"/>
<polygon fill="#ffa500" stroke="#ffa500" points="1519.8627,-65.1717 1509.6889,-68.1291 1519.4863,-72.1616 1519.8627,-65.1717"/>
<text text-anchor="start" x="1542" y="-97.5" font-family="Helvetica,sans-Serif" font-size="10.00" fill="#000000"> &lt; Partition&lt; LocalIndexType,</text>
<text text-anchor="middle" x="1614.5" y="-86.5" font-family="Helvetica,sans-Serif" font-size="10.00" fill="#000000"> GlobalIndexType &gt; &gt;</text>
</g>
<!-- Node16 -->
<g id="node16" class="node">
<title>Node16</title>
<g id="a_node16"><a xlink:href="classgko_1_1EnableCreateMethod.html" target="_top" xlink:title=" ">
<polygon fill="#ffffff" stroke="#000000" points="1722,-6 1722,-47 1880,-47 1880,-6 1722,-6"/>
<text text-anchor="start" x="1730" y="-35" font-family="Helvetica,sans-Serif" font-size="10.00" fill="#000000">gko::EnableCreateMethod</text>
<text text-anchor="start" x="1730" y="-24" font-family="Helvetica,sans-Serif" font-size="10.00" fill="#000000">&lt; Partition&lt; LocalIndexType,</text>
<text text-anchor="middle" x="1801" y="-13" font-family="Helvetica,sans-Serif" font-size="10.00" fill="#000000"> GlobalIndexType &gt; &gt;</text>
</a>
</g>
</g>
<!-- Node16&#45;&gt;Node1 -->
<g id="edge19" class="edge">
<title>Node16&#45;&gt;Node1</title>
<path fill="none" stroke="#191970" d="M1866.2927,-50.6266C1891.7003,-60.0151 1920.8767,-70.7962 1946.7807,-80.3682"/>
<polygon fill="#191970" stroke="#191970" points="1867.3474,-47.2851 1856.7541,-47.102 1864.9211,-53.8512 1867.3474,-47.2851"/>
</g>
<!-- Node17 -->
<g id="node17" class="node">
<title>Node17</title>
<g id="a_node17"><a xlink:href="classgko_1_1EnableCreateMethod.html" target="_top" xlink:title="This mixin implements a static create() method on ConcreteType that dynamically allocates the memory,...">
<polygon fill="#ffffff" stroke="#000000" points="1342.5,-.5 1342.5,-30.5 1484.5,-30.5 1484.5,-.5 1342.5,-.5"/>
<text text-anchor="start" x="1350.5" y="-18.5" font-family="Helvetica,sans-Serif" font-size="10.00" fill="#000000">gko::EnableCreateMethod</text>
<text text-anchor="middle" x="1413.5" y="-7.5" font-family="Helvetica,sans-Serif" font-size="10.00" fill="#000000">&lt; ConcreteType &gt;</text>
</a>
</g>
</g>
<!-- Node17&#45;&gt;Node16 -->
<g id="edge20" class="edge">
<title>Node17&#45;&gt;Node16</title>
<path fill="none" stroke="#ffa500" stroke-dasharray="5,2" d="M1494.6301,-17.803C1561.3821,-19.6979 1655.4535,-22.3684 1721.6998,-24.2489"/>
<polygon fill="#ffa500" stroke="#ffa500" points="1494.6688,-14.3028 1484.5735,-17.5176 1494.4701,-21.3 1494.6688,-14.3028"/>
<text text-anchor="start" x="1542" y="-37.5" font-family="Helvetica,sans-Serif" font-size="10.00" fill="#000000"> &lt; Partition&lt; LocalIndexType,</text>
<text text-anchor="middle" x="1614.5" y="-26.5" font-family="Helvetica,sans-Serif" font-size="10.00" fill="#000000"> GlobalIndexType &gt; &gt;</text>
</g>
</g>
</svg>
