<?xml version="1.0" encoding="UTF-8" standalone="no"?>
<!DOCTYPE svg PUBLIC "-//W3C//DTD SVG 1.1//EN"
 "http://www.w3.org/Graphics/SVG/1.1/DTD/svg11.dtd">
<!-- Generated by graphviz version 2.40.1 (20161225.0304)
 -->
<!-- Title: gko::batch::matrix::Ell&lt; ValueType, IndexType &gt; Pages: 1 -->
<!--zoomable 353 -->
<svg id="main" version="1.1" xmlns="http://www.w3.org/2000/svg" xmlns:xlink="http://www.w3.org/1999/xlink" xml:space="preserve" onload="init(evt)">
<style type="text/css"><![CDATA[
.edge:hover path { stroke: red; }
.edge:hover polygon { stroke: red; fill: red; }
]]></style>
<script type="text/javascript"><![CDATA[
var edges = document.getElementsByTagName('g');
if (edges && edges.length) {
  for (var i=0;i<edges.length;i++) {
    if (edges[i].id.substr(0,4)=='edge') {
      edges[i].setAttribute('class','edge');
    }
  }
}
]]></script>
        <defs>
                <circle id="rim" cx="0" cy="0" r="7"/>
                <circle id="rim2" cx="0" cy="0" r="3.5"/>
                <g id="zoomPlus">
                        <use xlink:href="#rim" fill="#404040">
                                <set attributeName="fill" to="#808080" begin="zoomplus.mouseover" end="zoomplus.mouseout"/>
                        </use>
                        <path d="M-4,0h8M0,-4v8" fill="none" stroke="white" stroke-width="1.5" pointer-events="none"/>
                </g>
                <g id="zoomMin">
                        <use xlink:href="#rim" fill="#404040">
                                <set attributeName="fill" to="#808080" begin="zoomminus.mouseover" end="zoomminus.mouseout"/>
                        </use>
                        <path d="M-4,0h8" fill="none" stroke="white" stroke-width="1.5" pointer-events="none"/>
                </g>
                <g id="dirArrow">
                        <path fill="none" stroke="white" stroke-width="1.5" d="M0,-3.0v7 M-2.5,-0.5L0,-3.0L2.5,-0.5"/>
                </g>
               <g id="resetDef">
                       <use xlink:href="#rim2" fill="#404040">
                               <set attributeName="fill" to="#808080" begin="reset.mouseover" end="reset.mouseout"/>
                       </use>
               </g>
        </defs>

<script type="text/javascript">
var viewWidth = 2321;
var viewHeight = 353;
var sectionId = 'dynsection-1';
</script>
<script xlink:href="svgpan.js"/>
<svg id="graph" class="graph">
<g id="viewport">
<title>gko::batch::matrix::Ell&lt; ValueType, IndexType &gt;</title>
<polygon fill="#ffffff" stroke="transparent" points="-4,4 -4,-348.7202 2317,-348.7202 2317,4 -4,4"/>
<!-- Node1 -->
<g id="node1" class="node">
<title>Node1</title>
<g id="a_node1"><a xlink:title="Ell is a sparse matrix format that stores the same number of nonzeros in each row,...">
<polygon fill="#bfbfbf" stroke="#000000" points="2151,-39 2151,-69 2313,-69 2313,-39 2151,-39"/>
<text text-anchor="start" x="2159" y="-57" font-family="Helvetica,sans-Serif" font-size="10.00" fill="#000000">gko::batch::matrix</text>
<text text-anchor="middle" x="2232" y="-46" font-family="Helvetica,sans-Serif" font-size="10.00" fill="#000000">::Ell&lt; ValueType, IndexType &gt;</text>
</a>
</g>
</g>
<!-- Node2 -->
<g id="node2" class="node">
<title>Node2</title>
<g id="a_node2"><a xlink:href="classgko_1_1batch_1_1EnableBatchLinOp.html" target="_top" xlink:title=" ">
<polygon fill="#ffffff" stroke="#000000" points="1922,-94 1922,-124 2114,-124 2114,-94 1922,-94"/>
<text text-anchor="start" x="1930" y="-112" font-family="Helvetica,sans-Serif" font-size="10.00" fill="#000000">gko::batch::EnableBatchLin</text>
<text text-anchor="middle" x="2018" y="-101" font-family="Helvetica,sans-Serif" font-size="10.00" fill="#000000">Op&lt; Ell&lt; ValueType, IndexType &gt; &gt;</text>
</a>
</g>
</g>
<!-- Node2&#45;&gt;Node1 -->
<g id="edge1" class="edge">
<title>Node2&#45;&gt;Node1</title>
<path fill="none" stroke="#191970" d="M2086.2335,-91.4634C2114.3484,-84.2376 2146.5924,-75.9505 2173.5943,-69.0108"/>
<polygon fill="#191970" stroke="#191970" points="2085.2904,-88.0919 2076.4764,-93.971 2087.0329,-94.8716 2085.2904,-88.0919"/>
</g>
<!-- Node3 -->
<g id="node3" class="node">
<title>Node3</title>
<g id="a_node3"><a xlink:href="classgko_1_1EnablePolymorphicObject.html" target="_top" xlink:title=" ">
<polygon fill="#ffffff" stroke="#000000" points="1354,-187.5 1354,-228.5 1520,-228.5 1520,-187.5 1354,-187.5"/>
<text text-anchor="start" x="1362" y="-216.5" font-family="Helvetica,sans-Serif" font-size="10.00" fill="#000000">gko::EnablePolymorphicObject</text>
<text text-anchor="start" x="1362" y="-205.5" font-family="Helvetica,sans-Serif" font-size="10.00" fill="#000000">&lt; Ell&lt; ValueType, IndexType</text>
<text text-anchor="middle" x="1437" y="-194.5" font-family="Helvetica,sans-Serif" font-size="10.00" fill="#000000"> &gt;, BatchLinOp &gt;</text>
</a>
</g>
</g>
<!-- Node3&#45;&gt;Node2 -->
<g id="edge2" class="edge">
<title>Node3&#45;&gt;Node2</title>
<path fill="none" stroke="#191970" d="M1520.7526,-183.4778C1525.3057,-181.4533 1529.7516,-179.2951 1534,-177 1552.6264,-166.9374 1551.3636,-154.9126 1571,-147 1602.6274,-134.2555 1800.1651,-121.1648 1921.82,-114.1655"/>
<polygon fill="#191970" stroke="#191970" points="1519.1548,-180.3524 1511.2855,-187.4464 1521.8611,-186.8082 1519.1548,-180.3524"/>
</g>
<!-- Node4 -->
<g id="node4" class="node">
<title>Node4</title>
<g id="a_node4"><a xlink:href="classgko_1_1EnableAbstractPolymorphicObject.html" target="_top" xlink:title=" ">
<polygon fill="#ffffff" stroke="#000000" points="535.5,-180.5 535.5,-221.5 723.5,-221.5 723.5,-180.5 535.5,-180.5"/>
<text text-anchor="start" x="543.5" y="-209.5" font-family="Helvetica,sans-Serif" font-size="10.00" fill="#000000">gko::EnableAbstractPolymorphic</text>
<text text-anchor="start" x="543.5" y="-198.5" font-family="Helvetica,sans-Serif" font-size="10.00" fill="#000000">Object&lt; Ell&lt; ValueType, IndexType</text>
<text text-anchor="middle" x="629.5" y="-187.5" font-family="Helvetica,sans-Serif" font-size="10.00" fill="#000000"> &gt;, BatchLinOp &gt;</text>
</a>
</g>
</g>
<!-- Node4&#45;&gt;Node3 -->
<g id="edge3" class="edge">
<title>Node4&#45;&gt;Node3</title>
<path fill="none" stroke="#191970" d="M734.1863,-201.9075C896.4934,-203.3145 1205.5598,-205.9937 1353.7294,-207.2781"/>
<polygon fill="#191970" stroke="#191970" points="733.7409,-198.4036 723.7109,-201.8167 733.6801,-205.4033 733.7409,-198.4036"/>
</g>
<!-- Node5 -->
<g id="node5" class="node">
<title>Node5</title>
<g id="a_node5"><a xlink:title=" ">
<polygon fill="#ffffff" stroke="#bfbfbf" points="201,-160.5 201,-179.5 273,-179.5 273,-160.5 201,-160.5"/>
<text text-anchor="middle" x="237" y="-167.5" font-family="Helvetica,sans-Serif" font-size="10.00" fill="#000000">BatchLinOp</text>
</a>
</g>
</g>
<!-- Node5&#45;&gt;Node4 -->
<g id="edge4" class="edge">
<title>Node5&#45;&gt;Node4</title>
<path fill="none" stroke="#191970" d="M283.4797,-171.0803C338.0613,-172.6483 431.2766,-176.2611 511,-184 518.9642,-184.7731 527.2131,-185.6982 535.4809,-186.712"/>
<polygon fill="#191970" stroke="#191970" points="283.5148,-167.58 273.4218,-170.802 283.3212,-174.5773 283.5148,-167.58"/>
</g>
<!-- Node6 -->
<g id="node6" class="node">
<title>Node6</title>
<g id="a_node6"><a xlink:href="classgko_1_1EnableAbstractPolymorphicObject.html" target="_top" xlink:title="This mixin inherits from (a subclass of) PolymorphicObject and provides a base implementation of a ne...">
<polygon fill="#ffffff" stroke="#000000" points="138,-268.5 138,-309.5 336,-309.5 336,-268.5 138,-268.5"/>
<text text-anchor="start" x="146" y="-297.5" font-family="Helvetica,sans-Serif" font-size="10.00" fill="#000000">gko::EnableAbstractPolymorphic</text>
<text text-anchor="start" x="146" y="-286.5" font-family="Helvetica,sans-Serif" font-size="10.00" fill="#000000">Object&lt; AbstractObject, Polymorphic</text>
<text text-anchor="middle" x="237" y="-275.5" font-family="Helvetica,sans-Serif" font-size="10.00" fill="#000000">Base &gt;</text>
</a>
</g>
</g>
<!-- Node6&#45;&gt;Node4 -->
<g id="edge5" class="edge">
<title>Node6&#45;&gt;Node4</title>
<path fill="none" stroke="#ffa500" stroke-dasharray="5,2" d="M285.7609,-264.1304C306.3454,-254.5928 330.8655,-244.4596 354,-238 413.1476,-221.4849 481.5644,-212.2462 535.4214,-207.1307"/>
<polygon fill="#ffa500" stroke="#ffa500" points="284.1481,-261.0213 276.5992,-268.4553 287.1364,-267.3514 284.1481,-261.0213"/>
<text text-anchor="start" x="361" y="-252" font-family="Helvetica,sans-Serif" font-size="10.00" fill="#000000"> &lt; Ell&lt; ValueType, IndexType</text>
<text text-anchor="middle" x="432.5" y="-241" font-family="Helvetica,sans-Serif" font-size="10.00" fill="#000000"> &gt;, BatchLinOp &gt;</text>
</g>
<!-- Node9 -->
<g id="node9" class="node">
<title>Node9</title>
<g id="a_node9"><a xlink:href="classgko_1_1EnableAbstractPolymorphicObject.html" target="_top" xlink:title=" ">
<polygon fill="#ffffff" stroke="#000000" points="529,-240.5 529,-281.5 730,-281.5 730,-240.5 529,-240.5"/>
<text text-anchor="start" x="537" y="-269.5" font-family="Helvetica,sans-Serif" font-size="10.00" fill="#000000">gko::EnableAbstractPolymorphic</text>
<text text-anchor="start" x="537" y="-258.5" font-family="Helvetica,sans-Serif" font-size="10.00" fill="#000000">Object&lt; ConcreteObject, Polymorphic</text>
<text text-anchor="middle" x="629.5" y="-247.5" font-family="Helvetica,sans-Serif" font-size="10.00" fill="#000000">Base &gt;</text>
</a>
</g>
</g>
<!-- Node6&#45;&gt;Node9 -->
<g id="edge10" class="edge">
<title>Node6&#45;&gt;Node9</title>
<path fill="none" stroke="#ffa500" stroke-dasharray="5,2" d="M346.2885,-274.7079C348.8828,-274.4593 351.4563,-274.2227 354,-274 411.837,-268.9362 476.6894,-265.7529 528.9372,-263.8047"/>
<polygon fill="#ffa500" stroke="#ffa500" points="345.7972,-271.2396 336.1975,-275.7224 346.4975,-278.2045 345.7972,-271.2396"/>
<text text-anchor="start" x="354" y="-288" font-family="Helvetica,sans-Serif" font-size="10.00" fill="#000000"> &lt; ConcreteObject, Polymorphic</text>
<text text-anchor="middle" x="432.5" y="-277" font-family="Helvetica,sans-Serif" font-size="10.00" fill="#000000">Base &gt;</text>
</g>
<!-- Node16 -->
<g id="node16" class="node">
<title>Node16</title>
<g id="a_node16"><a xlink:href="classgko_1_1EnableAbstractPolymorphicObject.html" target="_top" xlink:title=" ">
<polygon fill="#ffffff" stroke="#000000" points="542,-300.5 542,-341.5 717,-341.5 717,-300.5 542,-300.5"/>
<text text-anchor="start" x="550" y="-329.5" font-family="Helvetica,sans-Serif" font-size="10.00" fill="#000000">gko::EnableAbstractPolymorphic</text>
<text text-anchor="start" x="550" y="-318.5" font-family="Helvetica,sans-Serif" font-size="10.00" fill="#000000">Object&lt; ConcreteBatchLinOp,</text>
<text text-anchor="middle" x="629.5" y="-307.5" font-family="Helvetica,sans-Serif" font-size="10.00" fill="#000000"> PolymorphicBase &gt;</text>
</a>
</g>
</g>
<!-- Node6&#45;&gt;Node16 -->
<g id="edge20" class="edge">
<title>Node6&#45;&gt;Node16</title>
<path fill="none" stroke="#ffa500" stroke-dasharray="5,2" d="M346.2134,-297.904C407.9382,-302.9364 484.0683,-309.1432 541.8581,-313.8547"/>
<polygon fill="#ffa500" stroke="#ffa500" points="346.2957,-294.3992 336.0443,-297.075 345.7268,-301.3761 346.2957,-294.3992"/>
<text text-anchor="start" x="374" y="-324" font-family="Helvetica,sans-Serif" font-size="10.00" fill="#000000"> &lt; ConcreteBatchLinOp,</text>
<text text-anchor="middle" x="432.5" y="-313" font-family="Helvetica,sans-Serif" font-size="10.00" fill="#000000"> PolymorphicBase &gt;</text>
</g>
<!-- Node7 -->
<g id="node7" class="node">
<title>Node7</title>
<g id="a_node7"><a xlink:title=" ">
<polygon fill="#ffffff" stroke="#bfbfbf" points="0,-279.5 0,-298.5 101,-298.5 101,-279.5 0,-279.5"/>
<text text-anchor="middle" x="50.5" y="-286.5" font-family="Helvetica,sans-Serif" font-size="10.00" fill="#000000">PolymorphicBase</text>
</a>
</g>
</g>
<!-- Node7&#45;&gt;Node6 -->
<g id="edge6" class="edge">
<title>Node7&#45;&gt;Node6</title>
<path fill="none" stroke="#191970" d="M111.5248,-289C119.9555,-289 128.7869,-289 137.6923,-289"/>
<polygon fill="#191970" stroke="#191970" points="111.462,-285.5001 101.4619,-289 111.4619,-292.5001 111.462,-285.5001"/>
</g>
<!-- Node7&#45;&gt;Node9 -->
<g id="edge9" class="edge">
<title>Node7&#45;&gt;Node9</title>
<path fill="none" stroke="#191970" d="M81.5467,-275.5517C97.9869,-269.1549 118.7166,-262.2139 138,-259 301.5228,-231.7462 345.2258,-258.8269 511,-260 516.8633,-260.0415 522.8899,-260.0861 528.9705,-260.1327"/>
<polygon fill="#191970" stroke="#191970" points="79.8872,-272.4466 71.916,-279.426 82.4998,-278.9408 79.8872,-272.4466"/>
</g>
<!-- Node7&#45;&gt;Node16 -->
<g id="edge19" class="edge">
<title>Node7&#45;&gt;Node16</title>
<path fill="none" stroke="#191970" d="M82.6769,-302.2078C98.98,-308.3371 119.2483,-315.1125 138,-319 300.4946,-352.6876 345.3789,-346.4407 511,-336 521.0376,-335.3672 531.5251,-334.4358 541.9318,-333.3417"/>
<polygon fill="#191970" stroke="#191970" points="83.6768,-298.8422 73.0873,-298.5066 81.1562,-305.3726 83.6768,-298.8422"/>
</g>
<!-- Node8 -->
<g id="node8" class="node">
<title>Node8</title>
<g id="a_node8"><a xlink:href="classgko_1_1EnablePolymorphicObject.html" target="_top" xlink:title="This mixin inherits from (a subclass of) PolymorphicObject and provides a base implementation of a ne...">
<polygon fill="#ffffff" stroke="#000000" points="932,-246 932,-276 1137,-276 1137,-246 932,-246"/>
<text text-anchor="start" x="940" y="-264" font-family="Helvetica,sans-Serif" font-size="10.00" fill="#000000">gko::EnablePolymorphicObject</text>
<text text-anchor="middle" x="1034.5" y="-253" font-family="Helvetica,sans-Serif" font-size="10.00" fill="#000000">&lt; ConcreteObject, PolymorphicBase &gt;</text>
</a>
</g>
</g>
<!-- Node8&#45;&gt;Node3 -->
<g id="edge7" class="edge">
<title>Node8&#45;&gt;Node3</title>
<path fill="none" stroke="#ffa500" stroke-dasharray="5,2" d="M1131.8657,-244.4295C1139.686,-243.2237 1147.4705,-242.0648 1155,-241 1221.7433,-231.5615 1297.6489,-222.7902 1353.8831,-216.6666"/>
<polygon fill="#ffa500" stroke="#ffa500" points="1131.2969,-240.9758 1121.9574,-245.9783 1132.378,-247.8918 1131.2969,-240.9758"/>
<text text-anchor="start" x="1167" y="-255" font-family="Helvetica,sans-Serif" font-size="10.00" fill="#000000"> &lt; Ell&lt; ValueType, IndexType</text>
<text text-anchor="middle" x="1238.5" y="-244" font-family="Helvetica,sans-Serif" font-size="10.00" fill="#000000"> &gt;, BatchLinOp &gt;</text>
</g>
<!-- Node15 -->
<g id="node15" class="node">
<title>Node15</title>
<g id="a_node15"><a xlink:href="classgko_1_1EnablePolymorphicObject.html" target="_top" xlink:title=" ">
<polygon fill="#ffffff" stroke="#000000" points="1340,-260.5 1340,-301.5 1534,-301.5 1534,-260.5 1340,-260.5"/>
<text text-anchor="start" x="1348" y="-289.5" font-family="Helvetica,sans-Serif" font-size="10.00" fill="#000000">gko::EnablePolymorphicObject</text>
<text text-anchor="start" x="1348" y="-278.5" font-family="Helvetica,sans-Serif" font-size="10.00" fill="#000000">&lt; ConcreteBatchLinOp, Polymorphic</text>
<text text-anchor="middle" x="1437" y="-267.5" font-family="Helvetica,sans-Serif" font-size="10.00" fill="#000000">Base &gt;</text>
</a>
</g>
</g>
<!-- Node8&#45;&gt;Node15 -->
<g id="edge21" class="edge">
<title>Node8&#45;&gt;Node15</title>
<path fill="none" stroke="#ffa500" stroke-dasharray="5,2" d="M1147.1006,-266.5951C1207.7021,-269.6063 1281.7067,-273.2836 1339.7755,-276.169"/>
<polygon fill="#ffa500" stroke="#ffa500" points="1147.2706,-263.0993 1137.1092,-266.0986 1146.9231,-270.0907 1147.2706,-263.0993"/>
<text text-anchor="start" x="1180" y="-289" font-family="Helvetica,sans-Serif" font-size="10.00" fill="#000000"> &lt; ConcreteBatchLinOp,</text>
<text text-anchor="middle" x="1238.5" y="-278" font-family="Helvetica,sans-Serif" font-size="10.00" fill="#000000"> PolymorphicBase &gt;</text>
</g>
<!-- Node9&#45;&gt;Node8 -->
<g id="edge8" class="edge">
<title>Node9&#45;&gt;Node8</title>
<path fill="none" stroke="#191970" d="M740.3684,-261C800.1586,-261 873.4543,-261 931.9206,-261"/>
<polygon fill="#191970" stroke="#191970" points="740.1328,-257.5001 730.1327,-261 740.1327,-264.5001 740.1328,-257.5001"/>
</g>
<!-- Node10 -->
<g id="node10" class="node">
<title>Node10</title>
<g id="a_node10"><a xlink:href="classgko_1_1EnablePolymorphicAssignment.html" target="_top" xlink:title=" ">
<polygon fill="#ffffff" stroke="#000000" points="1341,-75 1341,-105 1533,-105 1533,-75 1341,-75"/>
<text text-anchor="start" x="1349" y="-93" font-family="Helvetica,sans-Serif" font-size="10.00" fill="#000000">gko::EnablePolymorphicAssignment</text>
<text text-anchor="middle" x="1437" y="-82" font-family="Helvetica,sans-Serif" font-size="10.00" fill="#000000">&lt; Ell&lt; ValueType, IndexType &gt; &gt;</text>
</a>
</g>
</g>
<!-- Node10&#45;&gt;Node2 -->
<g id="edge11" class="edge">
<title>Node10&#45;&gt;Node2</title>
<path fill="none" stroke="#191970" d="M1543.5372,-93.484C1651.572,-97.017 1817.2835,-102.4361 1921.5468,-105.8458"/>
<polygon fill="#191970" stroke="#191970" points="1543.3753,-89.9769 1533.2662,-93.1481 1543.1465,-96.9732 1543.3753,-89.9769"/>
</g>
<!-- Node11 -->
<g id="node11" class="node">
<title>Node11</title>
<g id="a_node11"><a xlink:href="classgko_1_1ConvertibleTo.html" target="_top" xlink:title=" ">
<polygon fill="#ffffff" stroke="#000000" points="945,-46 945,-76 1124,-76 1124,-46 945,-46"/>
<text text-anchor="start" x="953" y="-64" font-family="Helvetica,sans-Serif" font-size="10.00" fill="#000000">gko::ConvertibleTo</text>
<text text-anchor="middle" x="1034.5" y="-53" font-family="Helvetica,sans-Serif" font-size="10.00" fill="#000000">&lt; Ell&lt; ValueType, IndexType &gt; &gt;</text>
</a>
</g>
</g>
<!-- Node11&#45;&gt;Node10 -->
<g id="edge12" class="edge">
<title>Node11&#45;&gt;Node10</title>
<path fill="none" stroke="#191970" d="M1134.4266,-68.1997C1197.4275,-72.7389 1278.3521,-78.5695 1340.6564,-83.0585"/>
<polygon fill="#191970" stroke="#191970" points="1134.3034,-64.6818 1124.0777,-67.454 1133.8003,-71.6637 1134.3034,-64.6818"/>
</g>
<!-- Node12 -->
<g id="node12" class="node">
<title>Node12</title>
<g id="a_node12"><a xlink:href="classgko_1_1ConvertibleTo.html" target="_top" xlink:title="ConvertibleTo interface is used to mark that the implementer can be converted to the object of Result...">
<polygon fill="#ffffff" stroke="#000000" points="576,-74 576,-104 683,-104 683,-74 576,-74"/>
<text text-anchor="start" x="584" y="-92" font-family="Helvetica,sans-Serif" font-size="10.00" fill="#000000">gko::ConvertibleTo</text>
<text text-anchor="middle" x="629.5" y="-81" font-family="Helvetica,sans-Serif" font-size="10.00" fill="#000000">&lt; ResultType &gt;</text>
</a>
</g>
</g>
<!-- Node12&#45;&gt;Node11 -->
<g id="edge13" class="edge">
<title>Node12&#45;&gt;Node11</title>
<path fill="none" stroke="#ffa500" stroke-dasharray="5,2" d="M693.3854,-84.5832C761.1013,-79.9016 868.5798,-72.471 944.7784,-67.203"/>
<polygon fill="#ffa500" stroke="#ffa500" points="693.0156,-81.1003 683.2809,-85.2818 693.4985,-88.0837 693.0156,-81.1003"/>
<text text-anchor="middle" x="831" y="-84" font-family="Helvetica,sans-Serif" font-size="10.00" fill="#000000"> &lt; Ell&lt; ValueType, IndexType &gt; &gt;</text>
</g>
<!-- Node13 -->
<g id="node13" class="node">
<title>Node13</title>
<g id="a_node13"><a xlink:href="classgko_1_1EnablePolymorphicAssignment.html" target="_top" xlink:title="This mixin is used to enable a default PolymorphicObject::copy_from() implementation for objects that...">
<polygon fill="#ffffff" stroke="#000000" points="938.5,-95 938.5,-125 1130.5,-125 1130.5,-95 938.5,-95"/>
<text text-anchor="start" x="946.5" y="-113" font-family="Helvetica,sans-Serif" font-size="10.00" fill="#000000">gko::EnablePolymorphicAssignment</text>
<text text-anchor="middle" x="1034.5" y="-102" font-family="Helvetica,sans-Serif" font-size="10.00" fill="#000000">&lt; ConcreteType, ResultType &gt;</text>
</a>
</g>
</g>
<!-- Node12&#45;&gt;Node13 -->
<g id="edge15" class="edge">
<title>Node12&#45;&gt;Node13</title>
<path fill="none" stroke="#191970" d="M693.5052,-92.3188C759.2746,-95.7291 862.4622,-101.0795 938.1124,-105.0021"/>
<polygon fill="#191970" stroke="#191970" points="693.4487,-88.8112 683.2809,-91.7886 693.0862,-95.8019 693.4487,-88.8112"/>
</g>
<!-- Node18 -->
<g id="node18" class="node">
<title>Node18</title>
<g id="a_node18"><a xlink:href="classgko_1_1ConvertibleTo.html" target="_top" xlink:title=" ">
<polygon fill="#ffffff" stroke="#000000" points="965.5,-144 965.5,-174 1103.5,-174 1103.5,-144 965.5,-144"/>
<text text-anchor="start" x="973.5" y="-162" font-family="Helvetica,sans-Serif" font-size="10.00" fill="#000000">gko::ConvertibleTo</text>
<text text-anchor="middle" x="1034.5" y="-151" font-family="Helvetica,sans-Serif" font-size="10.00" fill="#000000">&lt; ConcreteBatchLinOp &gt;</text>
</a>
</g>
</g>
<!-- Node12&#45;&gt;Node18 -->
<g id="edge24" class="edge">
<title>Node12&#45;&gt;Node18</title>
<path fill="none" stroke="#ffa500" stroke-dasharray="5,2" d="M693.2759,-103.0919C710.9621,-106.8261 730.195,-110.7258 748,-114 822.031,-127.6136 907.3035,-140.6736 965.4403,-149.1839"/>
<polygon fill="#ffa500" stroke="#ffa500" points="693.5732,-99.5769 683.0637,-100.9184 692.116,-106.4235 693.5732,-99.5769"/>
<text text-anchor="middle" x="831" y="-145" font-family="Helvetica,sans-Serif" font-size="10.00" fill="#000000"> &lt; ConcreteBatchLinOp &gt;</text>
</g>
<!-- Node19 -->
<g id="node19" class="node">
<title>Node19</title>
<g id="a_node19"><a xlink:href="classgko_1_1ConvertibleTo.html" target="_top" xlink:title=" ">
<polygon fill="#ffffff" stroke="#000000" points="1155,-.5 1155,-41.5 1322,-41.5 1322,-.5 1155,-.5"/>
<text text-anchor="start" x="1163" y="-29.5" font-family="Helvetica,sans-Serif" font-size="10.00" fill="#000000">gko::ConvertibleTo</text>
<text text-anchor="start" x="1163" y="-18.5" font-family="Helvetica,sans-Serif" font-size="10.00" fill="#000000">&lt; Ell&lt; next_precision</text>
<text text-anchor="middle" x="1238.5" y="-7.5" font-family="Helvetica,sans-Serif" font-size="10.00" fill="#000000">&lt; ValueType &gt;, IndexType &gt; &gt;</text>
</a>
</g>
</g>
<!-- Node12&#45;&gt;Node19 -->
<g id="edge27" class="edge">
<title>Node12&#45;&gt;Node19</title>
<path fill="none" stroke="#ffa500" stroke-dasharray="5,2" d="M671.3804,-69.8633C693.6516,-60.6141 721.7823,-50.375 748,-45 888.5241,-16.1908 1056.2057,-14.8833 1154.6487,-17.3717"/>
<polygon fill="#ffa500" stroke="#ffa500" points="669.7412,-66.7567 661.9033,-73.8854 672.476,-73.2004 669.7412,-66.7567"/>
<text text-anchor="start" x="755.5" y="-59" font-family="Helvetica,sans-Serif" font-size="10.00" fill="#000000"> &lt; Ell&lt; next_precision</text>
<text text-anchor="middle" x="831" y="-48" font-family="Helvetica,sans-Serif" font-size="10.00" fill="#000000">&lt; ValueType &gt;, IndexType &gt; &gt;</text>
</g>
<!-- Node13&#45;&gt;Node10 -->
<g id="edge14" class="edge">
<title>Node13&#45;&gt;Node10</title>
<path fill="none" stroke="#ffa500" stroke-dasharray="5,2" d="M1141.1214,-98.9741C1145.809,-98.6181 1150.4514,-98.2906 1155,-98 1216.8311,-94.0492 1286.413,-92.0495 1340.9882,-91.0374"/>
<polygon fill="#ffa500" stroke="#ffa500" points="1140.4962,-95.5127 1130.8057,-99.7957 1141.0521,-102.4906 1140.4962,-95.5127"/>
<text text-anchor="middle" x="1238.5" y="-101" font-family="Helvetica,sans-Serif" font-size="10.00" fill="#000000"> &lt; Ell&lt; ValueType, IndexType &gt; &gt;</text>
</g>
<!-- Node17 -->
<g id="node17" class="node">
<title>Node17</title>
<g id="a_node17"><a xlink:href="classgko_1_1EnablePolymorphicAssignment.html" target="_top" xlink:title=" ">
<polygon fill="#ffffff" stroke="#000000" points="1341,-138 1341,-168 1533,-168 1533,-138 1341,-138"/>
<text text-anchor="start" x="1349" y="-156" font-family="Helvetica,sans-Serif" font-size="10.00" fill="#000000">gko::EnablePolymorphicAssignment</text>
<text text-anchor="middle" x="1437" y="-145" font-family="Helvetica,sans-Serif" font-size="10.00" fill="#000000">&lt; ConcreteBatchLinOp &gt;</text>
</a>
</g>
</g>
<!-- Node13&#45;&gt;Node17 -->
<g id="edge25" class="edge">
<title>Node13&#45;&gt;Node17</title>
<path fill="none" stroke="#ffa500" stroke-dasharray="5,2" d="M1140.6612,-120.8578C1194.9232,-126.4633 1261.9995,-133.4783 1322,-140 1328.0923,-140.6622 1334.3653,-141.3511 1340.6895,-142.051"/>
<polygon fill="#ffa500" stroke="#ffa500" points="1140.9896,-117.3732 1130.683,-119.8279 1140.2709,-124.3362 1140.9896,-117.3732"/>
<text text-anchor="middle" x="1238.5" y="-143" font-family="Helvetica,sans-Serif" font-size="10.00" fill="#000000"> &lt; ConcreteBatchLinOp &gt;</text>
</g>
<!-- Node14 -->
<g id="node14" class="node">
<title>Node14</title>
<g id="a_node14"><a xlink:href="classgko_1_1batch_1_1EnableBatchLinOp.html" target="_top" xlink:title="The EnableBatchLinOp mixin can be used to provide sensible default implementations of the majority of...">
<polygon fill="#ffffff" stroke="#000000" points="1571,-156.5 1571,-197.5 1720,-197.5 1720,-156.5 1571,-156.5"/>
<text text-anchor="start" x="1579" y="-185.5" font-family="Helvetica,sans-Serif" font-size="10.00" fill="#000000">gko::batch::EnableBatchLin</text>
<text text-anchor="start" x="1579" y="-174.5" font-family="Helvetica,sans-Serif" font-size="10.00" fill="#000000">Op&lt; ConcreteBatchLinOp,</text>
<text text-anchor="middle" x="1645.5" y="-163.5" font-family="Helvetica,sans-Serif" font-size="10.00" fill="#000000"> PolymorphicBase &gt;</text>
</a>
</g>
</g>
<!-- Node14&#45;&gt;Node2 -->
<g id="edge16" class="edge">
<title>Node14&#45;&gt;Node2</title>
<path fill="none" stroke="#ffa500" stroke-dasharray="5,2" d="M1730.0412,-168.7323C1780.7946,-162.982 1846.466,-154.1532 1904,-142 1926.5785,-137.2306 1951.2211,-130.3181 1971.8001,-124.0505"/>
<polygon fill="#ffa500" stroke="#ffa500" points="1729.6467,-165.2545 1720.0963,-169.8414 1730.4226,-172.2114 1729.6467,-165.2545"/>
<text text-anchor="middle" x="1821" y="-171" font-family="Helvetica,sans-Serif" font-size="10.00" fill="#000000"> &lt; Ell&lt; ValueType, IndexType &gt; &gt;</text>
</g>
<!-- Node15&#45;&gt;Node14 -->
<g id="edge17" class="edge">
<title>Node15&#45;&gt;Node14</title>
<path fill="none" stroke="#191970" d="M1494.9978,-256.235C1507.9299,-250.4514 1521.5082,-244.1725 1534,-238 1559.7166,-225.2928 1588.0677,-209.7611 1609.7459,-197.5503"/>
<polygon fill="#191970" stroke="#191970" points="1493.4421,-253.0962 1485.7201,-260.3503 1496.2804,-259.4949 1493.4421,-253.0962"/>
</g>
<!-- Node16&#45;&gt;Node15 -->
<g id="edge18" class="edge">
<title>Node16&#45;&gt;Node15</title>
<path fill="none" stroke="#191970" d="M727.4839,-322.5776C861.909,-323.7382 1110.8995,-322.2941 1322,-301 1327.8472,-300.4102 1333.8453,-299.6973 1339.8853,-298.8969"/>
<polygon fill="#191970" stroke="#191970" points="727.2459,-319.0753 717.2136,-322.4819 727.1806,-326.075 727.2459,-319.0753"/>
</g>
<!-- Node17&#45;&gt;Node14 -->
<g id="edge22" class="edge">
<title>Node17&#45;&gt;Node14</title>
<path fill="none" stroke="#191970" d="M1543.1668,-165.2206C1552.5315,-166.2986 1561.8756,-167.3742 1570.8966,-168.4126"/>
<polygon fill="#191970" stroke="#191970" points="1543.346,-161.7182 1533.0113,-164.0517 1542.5454,-168.6723 1543.346,-161.7182"/>
</g>
<!-- Node18&#45;&gt;Node17 -->
<g id="edge23" class="edge">
<title>Node18&#45;&gt;Node17</title>
<path fill="none" stroke="#191970" d="M1113.9066,-157.8163C1179.0601,-156.8451 1271.5354,-155.4666 1340.869,-154.433"/>
<polygon fill="#191970" stroke="#191970" points="1113.6389,-154.3198 1103.6922,-157.9686 1113.7433,-161.319 1113.6389,-154.3198"/>
</g>
<!-- Node19&#45;&gt;Node1 -->
<g id="edge26" class="edge">
<title>Node19&#45;&gt;Node1</title>
<path fill="none" stroke="#191970" d="M1332.3069,-26.9145C1394.6918,-30.3474 1478.4636,-34 1552.5,-34 1552.5,-34 1552.5,-34 2018,-34 2062.0313,-34 2110.9384,-38.2493 2150.8714,-42.8305"/>
<polygon fill="#191970" stroke="#191970" points="1332.2719,-23.4072 1322.0922,-26.3439 1331.8814,-30.3963 1332.2719,-23.4072"/>
</g>
</g>
</svg>
        <g id="navigator" transform="translate(0 0)" fill="#404254">
                <rect fill="#f2f5e9" fill-opacity="0.5" stroke="#606060" stroke-width=".5" x="0" y="0" width="60" height="60"/>
                <use id="zoomplus" xlink:href="#zoomPlus" x="17" y="9" onmousedown="handleZoom(evt,'in')"/>
                <use id="zoomminus" xlink:href="#zoomMin" x="42" y="9" onmousedown="handleZoom(evt,'out')"/>
                <use id="reset" xlink:href="#resetDef" x="30" y="36" onmousedown="handleReset()"/>
                <g id="arrowUp" xlink:href="#dirArrow" transform="translate(30 24)" onmousedown="handlePan(0,-1)">
                  <use xlink:href="#rim" fill="#404040">
                        <set attributeName="fill" to="#808080" begin="arrowUp.mouseover" end="arrowUp.mouseout"/>
                  </use>
                  <path fill="none" stroke="white" stroke-width="1.5" d="M0,-3.0v7 M-2.5,-0.5L0,-3.0L2.5,-0.5"/>
                </g>
                <g id="arrowRight" xlink:href="#dirArrow" transform="rotate(90) translate(36 -43)" onmousedown="handlePan(1,0)">
                  <use xlink:href="#rim" fill="#404040">
                        <set attributeName="fill" to="#808080" begin="arrowRight.mouseover" end="arrowRight.mouseout"/>
                  </use>
                  <path fill="none" stroke="white" stroke-width="1.5" d="M0,-3.0v7 M-2.5,-0.5L0,-3.0L2.5,-0.5"/>
                </g>
                <g id="arrowDown" xlink:href="#dirArrow" transform="rotate(180) translate(-30 -48)" onmousedown="handlePan(0,1)">
                  <use xlink:href="#rim" fill="#404040">
                        <set attributeName="fill" to="#808080" begin="arrowDown.mouseover" end="arrowDown.mouseout"/>
                  </use>
                  <path fill="none" stroke="white" stroke-width="1.5" d="M0,-3.0v7 M-2.5,-0.5L0,-3.0L2.5,-0.5"/>
                </g>
                <g id="arrowLeft" xlink:href="#dirArrow" transform="rotate(270) translate(-36 17)" onmousedown="handlePan(-1,0)">
                  <use xlink:href="#rim" fill="#404040">
                        <set attributeName="fill" to="#808080" begin="arrowLeft.mouseover" end="arrowLeft.mouseout"/>
                  </use>
                  <path fill="none" stroke="white" stroke-width="1.5" d="M0,-3.0v7 M-2.5,-0.5L0,-3.0L2.5,-0.5"/>
                </g>
        </g>
        <svg viewBox="0 0 15 15" width="100%" height="30px" preserveAspectRatio="xMaxYMin meet">
         <g id="arrow_out" transform="scale(0.3 0.3)">
          <a xlink:href="classgko_1_1batch_1_1matrix_1_1Ell__coll__graph_org.svg" target="_base">
           <rect id="button" ry="5" rx="5" y="6" x="6" height="38" width="38"
                fill="#f2f5e9" fill-opacity="0.5" stroke="#606060" stroke-width="1.0"/>
           <path id="arrow"
             d="M 11.500037,31.436501 C 11.940474,20.09759 22.043105,11.32322 32.158766,21.979434 L 37.068811,17.246167 C 37.068811,17.246167 37.088388,32 37.088388,32 L 22.160133,31.978069 C 22.160133,31.978069 26.997745,27.140456 26.997745,27.140456 C 18.528582,18.264221 13.291696,25.230495 11.500037,31.436501 z"
             style="fill:#404040;"/>
          </a>
         </g>
        </svg>
</svg>
