<?xml version="1.0" encoding="UTF-8" standalone="no"?>
<!DOCTYPE svg PUBLIC "-//W3C//DTD SVG 1.1//EN"
 "http://www.w3.org/Graphics/SVG/1.1/DTD/svg11.dtd">
<!-- Generated by graphviz version 2.40.1 (20161225.0304)
 -->
<!-- Title: gko::solver::Gmres&lt; ValueType &gt; Pages: 1 -->
<!--zoomable 576 -->
<svg id="main" version="1.1" xmlns="http://www.w3.org/2000/svg" xmlns:xlink="http://www.w3.org/1999/xlink" xml:space="preserve" onload="init(evt)">
<style type="text/css"><![CDATA[
.edge:hover path { stroke: red; }
.edge:hover polygon { stroke: red; fill: red; }
]]></style>
<script type="text/javascript"><![CDATA[
var edges = document.getElementsByTagName('g');
if (edges && edges.length) {
  for (var i=0;i<edges.length;i++) {
    if (edges[i].id.substr(0,4)=='edge') {
      edges[i].setAttribute('class','edge');
    }
  }
}
]]></script>
        <defs>
                <circle id="rim" cx="0" cy="0" r="7"/>
                <circle id="rim2" cx="0" cy="0" r="3.5"/>
                <g id="zoomPlus">
                        <use xlink:href="#rim" fill="#404040">
                                <set attributeName="fill" to="#808080" begin="zoomplus.mouseover" end="zoomplus.mouseout"/>
                        </use>
                        <path d="M-4,0h8M0,-4v8" fill="none" stroke="white" stroke-width="1.5" pointer-events="none"/>
                </g>
                <g id="zoomMin">
                        <use xlink:href="#rim" fill="#404040">
                                <set attributeName="fill" to="#808080" begin="zoomminus.mouseover" end="zoomminus.mouseout"/>
                        </use>
                        <path d="M-4,0h8" fill="none" stroke="white" stroke-width="1.5" pointer-events="none"/>
                </g>
                <g id="dirArrow">
                        <path fill="none" stroke="white" stroke-width="1.5" d="M0,-3.0v7 M-2.5,-0.5L0,-3.0L2.5,-0.5"/>
                </g>
               <g id="resetDef">
                       <use xlink:href="#rim2" fill="#404040">
                               <set attributeName="fill" to="#808080" begin="reset.mouseover" end="reset.mouseout"/>
                       </use>
               </g>
        </defs>

<script type="text/javascript">
var viewWidth = 2350;
var viewHeight = 576;
var sectionId = 'dynsection-0';
</script>
<script xlink:href="svgpan.js"/>
<svg id="graph" class="graph">
<g id="viewport">
<title>gko::solver::Gmres&lt; ValueType &gt;</title>
<polygon fill="#ffffff" stroke="transparent" points="-4,4 -4,-572 2346,-572 2346,4 -4,4"/>
<!-- Node1 -->
<g id="node1" class="node">
<title>Node1</title>
<g id="a_node1"><a xlink:title="GMRES or the generalized minimal residual method is an iterative type Krylov subspace method which is...">
<polygon fill="#bfbfbf" stroke="#000000" points="2233,-156 2233,-186 2342,-186 2342,-156 2233,-156"/>
<text text-anchor="start" x="2241" y="-174" font-family="Helvetica,sans-Serif" font-size="10.00" fill="#000000">gko::solver::Gmres</text>
<text text-anchor="middle" x="2287.5" y="-163" font-family="Helvetica,sans-Serif" font-size="10.00" fill="#000000">&lt; ValueType &gt;</text>
</a>
</g>
</g>
<!-- Node2 -->
<g id="node2" class="node">
<title>Node2</title>
<g id="a_node2"><a xlink:href="classgko_1_1EnableLinOp.html" target="_top" xlink:title=" ">
<polygon fill="#ffffff" stroke="#000000" points="2032.5,-316 2032.5,-346 2177.5,-346 2177.5,-316 2032.5,-316"/>
<text text-anchor="start" x="2040.5" y="-334" font-family="Helvetica,sans-Serif" font-size="10.00" fill="#000000">gko::EnableLinOp&lt; Gmres</text>
<text text-anchor="middle" x="2105" y="-323" font-family="Helvetica,sans-Serif" font-size="10.00" fill="#000000">&lt; ValueType &gt; &gt;</text>
</a>
</g>
</g>
<!-- Node2&#45;&gt;Node1 -->
<g id="edge1" class="edge">
<title>Node2&#45;&gt;Node1</title>
<path fill="none" stroke="#191970" d="M2130.1233,-308.9741C2167.7667,-275.9717 2237.8384,-214.5389 2270.2435,-186.129"/>
<polygon fill="#191970" stroke="#191970" points="2127.3812,-306.7234 2122.1692,-315.9476 2131.9959,-311.987 2127.3812,-306.7234"/>
</g>
<!-- Node3 -->
<g id="node3" class="node">
<title>Node3</title>
<g id="a_node3"><a xlink:href="classgko_1_1EnablePolymorphicObject.html" target="_top" xlink:title=" ">
<polygon fill="#ffffff" stroke="#000000" points="1664,-454 1664,-484 1841,-484 1841,-454 1664,-454"/>
<text text-anchor="start" x="1672" y="-472" font-family="Helvetica,sans-Serif" font-size="10.00" fill="#000000">gko::EnablePolymorphicObject</text>
<text text-anchor="middle" x="1752.5" y="-461" font-family="Helvetica,sans-Serif" font-size="10.00" fill="#000000">&lt; Gmres&lt; ValueType &gt;, LinOp &gt;</text>
</a>
</g>
</g>
<!-- Node3&#45;&gt;Node2 -->
<g id="edge2" class="edge">
<title>Node3&#45;&gt;Node2</title>
<path fill="none" stroke="#191970" d="M1800.4577,-450.2251C1871.1492,-422.5501 2001.9244,-371.353 2066.6526,-346.0126"/>
<polygon fill="#191970" stroke="#191970" points="1798.9306,-447.0642 1790.8947,-453.9689 1801.4825,-453.5825 1798.9306,-447.0642"/>
</g>
<!-- Node4 -->
<g id="node4" class="node">
<title>Node4</title>
<g id="a_node4"><a xlink:href="classgko_1_1EnableAbstractPolymorphicObject.html" target="_top" xlink:title=" ">
<polygon fill="#ffffff" stroke="#000000" points="1303,-509.5 1303,-550.5 1478,-550.5 1478,-509.5 1303,-509.5"/>
<text text-anchor="start" x="1311" y="-538.5" font-family="Helvetica,sans-Serif" font-size="10.00" fill="#000000">gko::EnableAbstractPolymorphic</text>
<text text-anchor="start" x="1311" y="-527.5" font-family="Helvetica,sans-Serif" font-size="10.00" fill="#000000">Object&lt; Gmres&lt; ValueType</text>
<text text-anchor="middle" x="1390.5" y="-516.5" font-family="Helvetica,sans-Serif" font-size="10.00" fill="#000000"> &gt;, LinOp &gt;</text>
</a>
</g>
</g>
<!-- Node4&#45;&gt;Node3 -->
<g id="edge3" class="edge">
<title>Node4&#45;&gt;Node3</title>
<path fill="none" stroke="#191970" d="M1488.1887,-513.5387C1542.9019,-504.319 1610.6056,-492.9104 1663.7928,-483.9479"/>
<polygon fill="#191970" stroke="#191970" points="1487.4095,-510.1205 1478.1301,-515.2336 1488.5727,-517.0232 1487.4095,-510.1205"/>
</g>
<!-- Node5 -->
<g id="node5" class="node">
<title>Node5</title>
<g id="a_node5"><a xlink:href="classgko_1_1LinOp.html" target="_top" xlink:title=" ">
<polygon fill="#ffffff" stroke="#000000" points="964.5,-516.5 964.5,-535.5 1032.5,-535.5 1032.5,-516.5 964.5,-516.5"/>
<text text-anchor="middle" x="998.5" y="-523.5" font-family="Helvetica,sans-Serif" font-size="10.00" fill="#000000">gko::LinOp</text>
</a>
</g>
</g>
<!-- Node5&#45;&gt;Node4 -->
<g id="edge4" class="edge">
<title>Node5&#45;&gt;Node4</title>
<path fill="none" stroke="#191970" d="M1042.9667,-526.4537C1105.8762,-527.0957 1222.1665,-528.2823 1302.805,-529.1052"/>
<polygon fill="#191970" stroke="#191970" points="1042.6369,-522.9503 1032.6017,-526.348 1042.5654,-529.9499 1042.6369,-522.9503"/>
</g>
<!-- Node6 -->
<g id="node6" class="node">
<title>Node6</title>
<g id="a_node6"><a xlink:href="classgko_1_1EnableAbstractPolymorphicObject.html" target="_top" xlink:title=" ">
<polygon fill="#ffffff" stroke="#ff0000" points="542,-506 542,-536 717,-536 717,-506 542,-506"/>
<text text-anchor="start" x="550" y="-524" font-family="Helvetica,sans-Serif" font-size="10.00" fill="#000000">gko::EnableAbstractPolymorphic</text>
<text text-anchor="middle" x="629.5" y="-513" font-family="Helvetica,sans-Serif" font-size="10.00" fill="#000000">Object&lt; LinOp &gt;</text>
</a>
</g>
</g>
<!-- Node6&#45;&gt;Node5 -->
<g id="edge5" class="edge">
<title>Node6&#45;&gt;Node5</title>
<path fill="none" stroke="#191970" d="M727.7861,-522.3318C806.0277,-523.392 910.9548,-524.8138 964.2826,-525.5363"/>
<polygon fill="#191970" stroke="#191970" points="727.4624,-518.8272 717.4159,-522.1913 727.3675,-525.8265 727.4624,-518.8272"/>
</g>
<!-- Node12 -->
<g id="node7" class="node">
<title>Node12</title>
<g id="a_node7"><a xlink:href="classgko_1_1EnableAbstractPolymorphicObject.html" target="_top" xlink:title="This mixin inherits from (a subclass of) PolymorphicObject and provides a base implementation of a ne...">
<polygon fill="#ffffff" stroke="#000000" points="138,-480.5 138,-521.5 336,-521.5 336,-480.5 138,-480.5"/>
<text text-anchor="start" x="146" y="-509.5" font-family="Helvetica,sans-Serif" font-size="10.00" fill="#000000">gko::EnableAbstractPolymorphic</text>
<text text-anchor="start" x="146" y="-498.5" font-family="Helvetica,sans-Serif" font-size="10.00" fill="#000000">Object&lt; AbstractObject, Polymorphic</text>
<text text-anchor="middle" x="237" y="-487.5" font-family="Helvetica,sans-Serif" font-size="10.00" fill="#000000">Base &gt;</text>
</a>
</g>
</g>
<!-- Node12&#45;&gt;Node4 -->
<g id="edge8" class="edge">
<title>Node12&#45;&gt;Node4</title>
<path fill="none" stroke="#ffa500" stroke-dasharray="5,2" d="M322.7837,-523.8382C333.2505,-526.1576 343.8353,-528.2858 354,-530 431.0147,-542.988 450.979,-542.4407 529,-546 565.4492,-547.6628 953.259,-546.495 1101,-545 1177.0078,-544.2309 1196.1216,-546.4997 1272,-542 1282.0113,-541.4063 1292.4825,-540.6069 1302.8801,-539.7009"/>
<polygon fill="#ffa500" stroke="#ffa500" points="323.33,-520.373 312.8022,-521.5631 321.7743,-527.198 323.33,-520.373"/>
<text text-anchor="start" x="759" y="-560" font-family="Helvetica,sans-Serif" font-size="10.00" fill="#000000"> &lt; Gmres&lt; ValueType</text>
<text text-anchor="middle" x="813" y="-549" font-family="Helvetica,sans-Serif" font-size="10.00" fill="#000000"> &gt;, LinOp &gt;</text>
</g>
<!-- Node12&#45;&gt;Node6 -->
<g id="edge6" class="edge">
<title>Node12&#45;&gt;Node6</title>
<path fill="none" stroke="#ffa500" stroke-dasharray="5,2" d="M346.3159,-507.5838C348.902,-507.7255 351.4664,-507.8644 354,-508 416.7568,-511.3579 487.5803,-514.6897 541.703,-517.1396"/>
<polygon fill="#ffa500" stroke="#ffa500" points="346.4309,-504.0848 336.2522,-507.0249 346.0427,-511.0741 346.4309,-504.0848"/>
<text text-anchor="middle" x="432.5" y="-518" font-family="Helvetica,sans-Serif" font-size="10.00" fill="#000000"> &lt; LinOp &gt;</text>
</g>
<!-- Node14 -->
<g id="node10" class="node">
<title>Node14</title>
<g id="a_node10"><a xlink:href="classgko_1_1EnableAbstractPolymorphicObject.html" target="_top" xlink:title=" ">
<polygon fill="#ffffff" stroke="#000000" points="529,-443.5 529,-484.5 730,-484.5 730,-443.5 529,-443.5"/>
<text text-anchor="start" x="537" y="-472.5" font-family="Helvetica,sans-Serif" font-size="10.00" fill="#000000">gko::EnableAbstractPolymorphic</text>
<text text-anchor="start" x="537" y="-461.5" font-family="Helvetica,sans-Serif" font-size="10.00" fill="#000000">Object&lt; ConcreteObject, Polymorphic</text>
<text text-anchor="middle" x="629.5" y="-450.5" font-family="Helvetica,sans-Serif" font-size="10.00" fill="#000000">Base &gt;</text>
</a>
</g>
</g>
<!-- Node12&#45;&gt;Node14 -->
<g id="edge12" class="edge">
<title>Node12&#45;&gt;Node14</title>
<path fill="none" stroke="#ffa500" stroke-dasharray="5,2" d="M346.2728,-482.9171C348.8718,-482.5961 351.4505,-482.2896 354,-482 411.7459,-475.44 476.5935,-471.0562 528.8616,-468.2587"/>
<polygon fill="#ffa500" stroke="#ffa500" points="345.6355,-479.4703 336.1662,-484.2224 346.5322,-486.4126 345.6355,-479.4703"/>
<text text-anchor="start" x="354" y="-496" font-family="Helvetica,sans-Serif" font-size="10.00" fill="#000000"> &lt; ConcreteObject, Polymorphic</text>
<text text-anchor="middle" x="432.5" y="-485" font-family="Helvetica,sans-Serif" font-size="10.00" fill="#000000">Base &gt;</text>
</g>
<!-- Node21 -->
<g id="node17" class="node">
<title>Node21</title>
<g id="a_node17"><a xlink:href="classgko_1_1EnableAbstractPolymorphicObject.html" target="_top" xlink:title=" ">
<polygon fill="#ffffff" stroke="#000000" points="531,-378.5 531,-419.5 728,-419.5 728,-378.5 531,-378.5"/>
<text text-anchor="start" x="539" y="-407.5" font-family="Helvetica,sans-Serif" font-size="10.00" fill="#000000">gko::EnableAbstractPolymorphic</text>
<text text-anchor="start" x="539" y="-396.5" font-family="Helvetica,sans-Serif" font-size="10.00" fill="#000000">Object&lt; ConcreteLinOp, Polymorphic</text>
<text text-anchor="middle" x="629.5" y="-385.5" font-family="Helvetica,sans-Serif" font-size="10.00" fill="#000000">Base &gt;</text>
</a>
</g>
</g>
<!-- Node12&#45;&gt;Node21 -->
<g id="edge22" class="edge">
<title>Node12&#45;&gt;Node21</title>
<path fill="none" stroke="#ffa500" stroke-dasharray="5,2" d="M280.2978,-475.6151C301.8104,-464.0335 328.5847,-451.1215 354,-443 411.2106,-424.7182 477.6361,-413.8236 530.9267,-407.4492"/>
<polygon fill="#ffa500" stroke="#ffa500" points="278.5078,-472.6049 271.4196,-480.4793 281.8713,-478.7439 278.5078,-472.6049"/>
<text text-anchor="start" x="356" y="-457" font-family="Helvetica,sans-Serif" font-size="10.00" fill="#000000"> &lt; ConcreteLinOp, Polymorphic</text>
<text text-anchor="middle" x="432.5" y="-446" font-family="Helvetica,sans-Serif" font-size="10.00" fill="#000000">Base &gt;</text>
</g>
<!-- Node11 -->
<g id="node8" class="node">
<title>Node11</title>
<g id="a_node8"><a xlink:title=" ">
<polygon fill="#ffffff" stroke="#bfbfbf" points="0,-442.5 0,-461.5 101,-461.5 101,-442.5 0,-442.5"/>
<text text-anchor="middle" x="50.5" y="-449.5" font-family="Helvetica,sans-Serif" font-size="10.00" fill="#000000">PolymorphicBase</text>
</a>
</g>
</g>
<!-- Node11&#45;&gt;Node12 -->
<g id="edge7" class="edge">
<title>Node11&#45;&gt;Node12</title>
<path fill="none" stroke="#191970" d="M96.6373,-464.1219C115.3596,-469.0409 137.5184,-474.8628 158.6324,-480.4101"/>
<polygon fill="#191970" stroke="#191970" points="97.463,-460.7201 86.9018,-461.564 95.6842,-467.4903 97.463,-460.7201"/>
</g>
<!-- Node11&#45;&gt;Node14 -->
<g id="edge11" class="edge">
<title>Node11&#45;&gt;Node14</title>
<path fill="none" stroke="#191970" d="M111.2841,-453.2598C210.5662,-455.3174 408.5048,-459.4198 528.9546,-461.9162"/>
<polygon fill="#191970" stroke="#191970" points="111.1924,-449.7572 101.122,-453.0492 111.0473,-456.7557 111.1924,-449.7572"/>
</g>
<!-- Node11&#45;&gt;Node21 -->
<g id="edge21" class="edge">
<title>Node11&#45;&gt;Node21</title>
<path fill="none" stroke="#191970" d="M110.3244,-440.6707C171.3459,-429.6489 268.8885,-413.5016 354,-406 412.5033,-400.8436 478.2438,-399.0227 530.8305,-398.5242"/>
<polygon fill="#191970" stroke="#191970" points="109.6932,-437.228 100.4812,-442.4614 110.9462,-444.1149 109.6932,-437.228"/>
</g>
<!-- Node13 -->
<g id="node9" class="node">
<title>Node13</title>
<g id="a_node9"><a xlink:href="classgko_1_1EnablePolymorphicObject.html" target="_top" xlink:title="This mixin inherits from (a subclass of) PolymorphicObject and provides a base implementation of a ne...">
<polygon fill="#ffffff" stroke="#000000" points="896,-449 896,-479 1101,-479 1101,-449 896,-449"/>
<text text-anchor="start" x="904" y="-467" font-family="Helvetica,sans-Serif" font-size="10.00" fill="#000000">gko::EnablePolymorphicObject</text>
<text text-anchor="middle" x="998.5" y="-456" font-family="Helvetica,sans-Serif" font-size="10.00" fill="#000000">&lt; ConcreteObject, PolymorphicBase &gt;</text>
</a>
</g>
</g>
<!-- Node13&#45;&gt;Node3 -->
<g id="edge9" class="edge">
<title>Node13&#45;&gt;Node3</title>
<path fill="none" stroke="#ffa500" stroke-dasharray="5,2" d="M1111.5844,-464.7499C1262.4715,-465.7505 1526.5321,-467.5015 1663.8645,-468.4122"/>
<polygon fill="#ffa500" stroke="#ffa500" points="1111.3887,-461.2486 1101.3657,-464.6821 1111.3423,-468.2485 1111.3887,-461.2486"/>
<text text-anchor="start" x="1336.5" y="-481" font-family="Helvetica,sans-Serif" font-size="10.00" fill="#000000"> &lt; Gmres&lt; ValueType</text>
<text text-anchor="middle" x="1390.5" y="-470" font-family="Helvetica,sans-Serif" font-size="10.00" fill="#000000"> &gt;, LinOp &gt;</text>
</g>
<!-- Node20 -->
<g id="node16" class="node">
<title>Node20</title>
<g id="a_node16"><a xlink:href="classgko_1_1EnablePolymorphicObject.html" target="_top" xlink:title=" ">
<polygon fill="#ffffff" stroke="#000000" points="1290,-384 1290,-414 1491,-414 1491,-384 1290,-384"/>
<text text-anchor="start" x="1298" y="-402" font-family="Helvetica,sans-Serif" font-size="10.00" fill="#000000">gko::EnablePolymorphicObject</text>
<text text-anchor="middle" x="1390.5" y="-391" font-family="Helvetica,sans-Serif" font-size="10.00" fill="#000000">&lt; ConcreteLinOp, PolymorphicBase &gt;</text>
</a>
</g>
</g>
<!-- Node13&#45;&gt;Node20 -->
<g id="edge23" class="edge">
<title>Node13&#45;&gt;Node20</title>
<path fill="none" stroke="#ffa500" stroke-dasharray="5,2" d="M1060.7937,-446.3644C1079.4068,-441.5322 1099.9335,-436.6311 1119,-433 1175.1145,-422.3133 1238.4166,-414.1644 1289.7727,-408.5271"/>
<polygon fill="#ffa500" stroke="#ffa500" points="1059.7408,-443.0223 1050.963,-448.9553 1061.5248,-449.7911 1059.7408,-443.0223"/>
<text text-anchor="start" x="1119" y="-447" font-family="Helvetica,sans-Serif" font-size="10.00" fill="#000000"> &lt; ConcreteLinOp, Polymorphic</text>
<text text-anchor="middle" x="1195.5" y="-436" font-family="Helvetica,sans-Serif" font-size="10.00" fill="#000000">Base &gt;</text>
</g>
<!-- Node14&#45;&gt;Node13 -->
<g id="edge10" class="edge">
<title>Node14&#45;&gt;Node13</title>
<path fill="none" stroke="#191970" d="M740.4059,-464C789.76,-464 847.5172,-464 895.8661,-464"/>
<polygon fill="#191970" stroke="#191970" points="740.3309,-460.5001 730.3309,-464 740.3308,-467.5001 740.3309,-460.5001"/>
</g>
<!-- Node15 -->
<g id="node11" class="node">
<title>Node15</title>
<g id="a_node11"><a xlink:href="classgko_1_1EnablePolymorphicAssignment.html" target="_top" xlink:title=" ">
<polygon fill="#ffffff" stroke="#000000" points="1294.5,-334 1294.5,-364 1486.5,-364 1486.5,-334 1294.5,-334"/>
<text text-anchor="start" x="1302.5" y="-352" font-family="Helvetica,sans-Serif" font-size="10.00" fill="#000000">gko::EnablePolymorphicAssignment</text>
<text text-anchor="middle" x="1390.5" y="-341" font-family="Helvetica,sans-Serif" font-size="10.00" fill="#000000">&lt; Gmres&lt; ValueType &gt; &gt;</text>
</a>
</g>
</g>
<!-- Node15&#45;&gt;Node2 -->
<g id="edge13" class="edge">
<title>Node15&#45;&gt;Node2</title>
<path fill="none" stroke="#191970" d="M1496.7274,-346.9797C1617.6408,-344.5788 1821.0611,-340.2321 1996,-335 2007.7353,-334.649 2020.1797,-334.2334 2032.3013,-333.8051"/>
<polygon fill="#191970" stroke="#191970" points="1496.6568,-343.4804 1486.728,-347.1776 1496.7953,-350.479 1496.6568,-343.4804"/>
</g>
<!-- Node16 -->
<g id="node12" class="node">
<title>Node16</title>
<g id="a_node12"><a xlink:href="classgko_1_1ConvertibleTo.html" target="_top" xlink:title=" ">
<polygon fill="#ffffff" stroke="#000000" points="927,-340 927,-370 1070,-370 1070,-340 927,-340"/>
<text text-anchor="start" x="935" y="-358" font-family="Helvetica,sans-Serif" font-size="10.00" fill="#000000">gko::ConvertibleTo</text>
<text text-anchor="middle" x="998.5" y="-347" font-family="Helvetica,sans-Serif" font-size="10.00" fill="#000000">&lt; Gmres&lt; ValueType &gt; &gt;</text>
</a>
</g>
</g>
<!-- Node16&#45;&gt;Node15 -->
<g id="edge14" class="edge">
<title>Node16&#45;&gt;Node15</title>
<path fill="none" stroke="#191970" d="M1080.5811,-353.7437C1142.9044,-352.7897 1228.7653,-351.4755 1294.3119,-350.4723"/>
<polygon fill="#191970" stroke="#191970" points="1080.3441,-350.2468 1070.3988,-353.8995 1080.4513,-357.246 1080.3441,-350.2468"/>
</g>
<!-- Node17 -->
<g id="node13" class="node">
<title>Node17</title>
<g id="a_node13"><a xlink:href="classgko_1_1ConvertibleTo.html" target="_top" xlink:title="ConvertibleTo interface is used to mark that the implementer can be converted to the object of Result...">
<polygon fill="#ffffff" stroke="#000000" points="576,-291 576,-321 683,-321 683,-291 576,-291"/>
<text text-anchor="start" x="584" y="-309" font-family="Helvetica,sans-Serif" font-size="10.00" fill="#000000">gko::ConvertibleTo</text>
<text text-anchor="middle" x="629.5" y="-298" font-family="Helvetica,sans-Serif" font-size="10.00" fill="#000000">&lt; ResultType &gt;</text>
</a>
</g>
</g>
<!-- Node17&#45;&gt;Node16 -->
<g id="edge15" class="edge">
<title>Node17&#45;&gt;Node16</title>
<path fill="none" stroke="#ffa500" stroke-dasharray="5,2" d="M693.2729,-314.4685C758.283,-323.1013 858.9409,-336.4678 926.7093,-345.4668"/>
<polygon fill="#ffa500" stroke="#ffa500" points="693.5295,-310.9719 683.1558,-313.125 692.608,-317.911 693.5295,-310.9719"/>
<text text-anchor="middle" x="813" y="-340" font-family="Helvetica,sans-Serif" font-size="10.00" fill="#000000"> &lt; Gmres&lt; ValueType &gt; &gt;</text>
</g>
<!-- Node18 -->
<g id="node14" class="node">
<title>Node18</title>
<g id="a_node14"><a xlink:href="classgko_1_1EnablePolymorphicAssignment.html" target="_top" xlink:title="This mixin is used to enable a default PolymorphicObject::copy_from() implementation for objects that...">
<polygon fill="#ffffff" stroke="#000000" points="902.5,-291 902.5,-321 1094.5,-321 1094.5,-291 902.5,-291"/>
<text text-anchor="start" x="910.5" y="-309" font-family="Helvetica,sans-Serif" font-size="10.00" fill="#000000">gko::EnablePolymorphicAssignment</text>
<text text-anchor="middle" x="998.5" y="-298" font-family="Helvetica,sans-Serif" font-size="10.00" fill="#000000">&lt; ConcreteType, ResultType &gt;</text>
</a>
</g>
</g>
<!-- Node17&#45;&gt;Node18 -->
<g id="edge17" class="edge">
<title>Node17&#45;&gt;Node18</title>
<path fill="none" stroke="#191970" d="M693.2099,-306C750.7647,-306 836.2971,-306 902.198,-306"/>
<polygon fill="#191970" stroke="#191970" points="693.1558,-302.5001 683.1558,-306 693.1557,-309.5001 693.1558,-302.5001"/>
</g>
<!-- Node23 -->
<g id="node19" class="node">
<title>Node23</title>
<g id="a_node19"><a xlink:href="classgko_1_1ConvertibleTo.html" target="_top" xlink:title=" ">
<polygon fill="#ffffff" stroke="#000000" points="943.5,-242 943.5,-272 1053.5,-272 1053.5,-242 943.5,-242"/>
<text text-anchor="start" x="951.5" y="-260" font-family="Helvetica,sans-Serif" font-size="10.00" fill="#000000">gko::ConvertibleTo</text>
<text text-anchor="middle" x="998.5" y="-249" font-family="Helvetica,sans-Serif" font-size="10.00" fill="#000000">&lt; ConcreteLinOp &gt;</text>
</a>
</g>
</g>
<!-- Node17&#45;&gt;Node23 -->
<g id="edge26" class="edge">
<title>Node17&#45;&gt;Node23</title>
<path fill="none" stroke="#ffa500" stroke-dasharray="5,2" d="M693.2492,-297.5347C763.7965,-288.1666 876.3437,-273.2213 943.2718,-264.3338"/>
<polygon fill="#ffa500" stroke="#ffa500" points="692.608,-294.089 683.1558,-298.875 693.5295,-301.0281 692.608,-294.089"/>
<text text-anchor="middle" x="813" y="-293" font-family="Helvetica,sans-Serif" font-size="10.00" fill="#000000"> &lt; ConcreteLinOp &gt;</text>
</g>
<!-- Node18&#45;&gt;Node15 -->
<g id="edge16" class="edge">
<title>Node18&#45;&gt;Node15</title>
<path fill="none" stroke="#ffa500" stroke-dasharray="5,2" d="M1104.7108,-316.9634C1155.3757,-322.2695 1216.8374,-328.8172 1272,-335 1279.3084,-335.8192 1286.8686,-336.6803 1294.4703,-337.5562"/>
<polygon fill="#ffa500" stroke="#ffa500" points="1105.0366,-313.4785 1094.7268,-315.9192 1104.3084,-320.4405 1105.0366,-313.4785"/>
<text text-anchor="middle" x="1195.5" y="-338" font-family="Helvetica,sans-Serif" font-size="10.00" fill="#000000"> &lt; Gmres&lt; ValueType &gt; &gt;</text>
</g>
<!-- Node22 -->
<g id="node18" class="node">
<title>Node22</title>
<g id="a_node18"><a xlink:href="classgko_1_1EnablePolymorphicAssignment.html" target="_top" xlink:title=" ">
<polygon fill="#ffffff" stroke="#000000" points="1294.5,-281 1294.5,-311 1486.5,-311 1486.5,-281 1294.5,-281"/>
<text text-anchor="start" x="1302.5" y="-299" font-family="Helvetica,sans-Serif" font-size="10.00" fill="#000000">gko::EnablePolymorphicAssignment</text>
<text text-anchor="middle" x="1390.5" y="-288" font-family="Helvetica,sans-Serif" font-size="10.00" fill="#000000">&lt; ConcreteLinOp &gt;</text>
</a>
</g>
</g>
<!-- Node18&#45;&gt;Node22 -->
<g id="edge27" class="edge">
<title>Node18&#45;&gt;Node22</title>
<path fill="none" stroke="#ffa500" stroke-dasharray="5,2" d="M1105.1315,-297.6297C1109.8164,-297.3901 1114.4554,-297.1779 1119,-297 1177.1681,-294.7235 1242.3995,-294.4107 1294.3417,-294.6968"/>
<polygon fill="#ffa500" stroke="#ffa500" points="1104.6142,-294.1528 1094.8209,-298.1951 1104.9975,-301.1423 1104.6142,-294.1528"/>
<text text-anchor="middle" x="1195.5" y="-300" font-family="Helvetica,sans-Serif" font-size="10.00" fill="#000000"> &lt; ConcreteLinOp &gt;</text>
</g>
<!-- Node19 -->
<g id="node15" class="node">
<title>Node19</title>
<g id="a_node15"><a xlink:href="classgko_1_1EnableLinOp.html" target="_top" xlink:title="The EnableLinOp mixin can be used to provide sensible default implementations of the majority of the ...">
<polygon fill="#ffffff" stroke="#000000" points="1674.5,-290 1674.5,-320 1830.5,-320 1830.5,-290 1674.5,-290"/>
<text text-anchor="start" x="1682.5" y="-308" font-family="Helvetica,sans-Serif" font-size="10.00" fill="#000000">gko::EnableLinOp&lt; Concrete</text>
<text text-anchor="middle" x="1752.5" y="-297" font-family="Helvetica,sans-Serif" font-size="10.00" fill="#000000">LinOp, PolymorphicBase &gt;</text>
</a>
</g>
</g>
<!-- Node19&#45;&gt;Node2 -->
<g id="edge18" class="edge">
<title>Node19&#45;&gt;Node2</title>
<path fill="none" stroke="#ffa500" stroke-dasharray="5,2" d="M1840.8078,-311.5135C1899.9394,-315.875 1976.8276,-321.5461 2032.3959,-325.6448"/>
<polygon fill="#ffa500" stroke="#ffa500" points="1840.9616,-308.0154 1830.7312,-310.7702 1840.4466,-314.9964 1840.9616,-308.0154"/>
<text text-anchor="middle" x="1931" y="-325" font-family="Helvetica,sans-Serif" font-size="10.00" fill="#000000"> &lt; Gmres&lt; ValueType &gt; &gt;</text>
</g>
<!-- Node20&#45;&gt;Node19 -->
<g id="edge19" class="edge">
<title>Node20&#45;&gt;Node19</title>
<path fill="none" stroke="#191970" d="M1461.4966,-381.4724C1471.4106,-378.986 1481.4643,-376.4439 1491,-374 1561.9536,-355.8149 1643.5373,-334.1706 1696.448,-320.0358"/>
<polygon fill="#191970" stroke="#191970" points="1460.5052,-378.1125 1451.6535,-383.9346 1462.204,-384.9033 1460.5052,-378.1125"/>
</g>
<!-- Node21&#45;&gt;Node20 -->
<g id="edge20" class="edge">
<title>Node21&#45;&gt;Node20</title>
<path fill="none" stroke="#191970" d="M738.6247,-399C886.0762,-399 1146.895,-399 1289.8489,-399"/>
<polygon fill="#191970" stroke="#191970" points="738.2073,-395.5001 728.2073,-399 738.2073,-402.5001 738.2073,-395.5001"/>
</g>
<!-- Node22&#45;&gt;Node19 -->
<g id="edge24" class="edge">
<title>Node22&#45;&gt;Node19</title>
<path fill="none" stroke="#191970" d="M1496.6666,-298.6395C1553.5343,-300.0533 1622.3637,-301.7646 1674.2996,-303.0558"/>
<polygon fill="#191970" stroke="#191970" points="1496.6429,-295.1379 1486.559,-298.3882 1496.4688,-302.1358 1496.6429,-295.1379"/>
</g>
<!-- Node23&#45;&gt;Node22 -->
<g id="edge25" class="edge">
<title>Node23&#45;&gt;Node22</title>
<path fill="none" stroke="#191970" d="M1064.0239,-263.519C1126.9342,-269.7779 1222.7021,-279.3058 1294.2698,-286.4261"/>
<polygon fill="#191970" stroke="#191970" points="1064.13,-260.0123 1053.8326,-262.505 1063.437,-266.9779 1064.13,-260.0123"/>
</g>
<!-- Node24 -->
<g id="node20" class="node">
<title>Node24</title>
<g id="a_node20"><a xlink:href="classgko_1_1solver_1_1EnablePreconditionedIterativeSolver.html" target="_top" xlink:title=" ">
<polygon fill="#ffffff" stroke="#000000" points="2014,-150.5 2014,-191.5 2196,-191.5 2196,-150.5 2014,-150.5"/>
<text text-anchor="start" x="2022" y="-179.5" font-family="Helvetica,sans-Serif" font-size="10.00" fill="#000000">gko::solver::EnablePreconditioned</text>
<text text-anchor="start" x="2022" y="-168.5" font-family="Helvetica,sans-Serif" font-size="10.00" fill="#000000">IterativeSolver&lt; ValueType,</text>
<text text-anchor="middle" x="2105" y="-157.5" font-family="Helvetica,sans-Serif" font-size="10.00" fill="#000000"> Gmres&lt; ValueType &gt; &gt;</text>
</a>
</g>
</g>
<!-- Node24&#45;&gt;Node1 -->
<g id="edge28" class="edge">
<title>Node24&#45;&gt;Node1</title>
<path fill="none" stroke="#191970" d="M2206.4648,-171C2215.4784,-171 2224.3574,-171 2232.744,-171"/>
<polygon fill="#191970" stroke="#191970" points="2206.25,-167.5001 2196.25,-171 2206.25,-174.5001 2206.25,-167.5001"/>
</g>
<!-- Node25 -->
<g id="node21" class="node">
<title>Node25</title>
<g id="a_node21"><a xlink:href="classgko_1_1solver_1_1EnableSolverBase.html" target="_top" xlink:title=" ">
<polygon fill="#ffffff" stroke="#000000" points="1307,-212 1307,-242 1474,-242 1474,-212 1307,-212"/>
<text text-anchor="start" x="1315" y="-230" font-family="Helvetica,sans-Serif" font-size="10.00" fill="#000000">gko::solver::EnableSolver</text>
<text text-anchor="middle" x="1390.5" y="-219" font-family="Helvetica,sans-Serif" font-size="10.00" fill="#000000">Base&lt; Gmres&lt; ValueType &gt; &gt;</text>
</a>
</g>
</g>
<!-- Node25&#45;&gt;Node24 -->
<g id="edge29" class="edge">
<title>Node25&#45;&gt;Node24</title>
<path fill="none" stroke="#191970" d="M1484.4224,-227.698C1603.8939,-227.3617 1816.294,-222.6602 1996,-197 2005.9185,-195.5837 2016.2576,-193.6851 2026.4466,-191.5554"/>
<polygon fill="#191970" stroke="#191970" points="1484.2096,-224.1983 1474.2161,-227.7167 1484.2225,-231.1983 1484.2096,-224.1983"/>
</g>
<!-- Node26 -->
<g id="node22" class="node">
<title>Node26</title>
<g id="a_node22"><a xlink:href="classgko_1_1solver_1_1SolverBase.html" target="_top" xlink:title=" ">
<polygon fill="#ffffff" stroke="#000000" points="933,-137 933,-167 1064,-167 1064,-137 933,-137"/>
<text text-anchor="start" x="941" y="-155" font-family="Helvetica,sans-Serif" font-size="10.00" fill="#000000">gko::solver::SolverBase</text>
<text text-anchor="middle" x="998.5" y="-144" font-family="Helvetica,sans-Serif" font-size="10.00" fill="#000000">&lt; LinOp &gt;</text>
</a>
</g>
</g>
<!-- Node26&#45;&gt;Node25 -->
<g id="edge30" class="edge">
<title>Node26&#45;&gt;Node25</title>
<path fill="none" stroke="#191970" d="M1073.7829,-166.7913C1083.1382,-169.6626 1092.4212,-173.0411 1101,-177 1109.9602,-181.1349 1109.8374,-186.3354 1119,-190 1152.1823,-203.2713 1239.9373,-213.7097 1306.7759,-220.069"/>
<polygon fill="#191970" stroke="#191970" points="1074.6124,-163.3879 1064.0341,-163.9797 1072.6726,-170.1138 1074.6124,-163.3879"/>
</g>
<!-- Node36 -->
<g id="node32" class="node">
<title>Node36</title>
<g id="a_node32"><a xlink:href="classgko_1_1solver_1_1EnableSolverBase.html" target="_top" xlink:title=" ">
<polygon fill="#ffffff" stroke="#000000" points="1320.5,-163 1320.5,-193 1460.5,-193 1460.5,-163 1320.5,-163"/>
<text text-anchor="start" x="1328.5" y="-181" font-family="Helvetica,sans-Serif" font-size="10.00" fill="#000000">gko::solver::EnableSolver</text>
<text text-anchor="middle" x="1390.5" y="-170" font-family="Helvetica,sans-Serif" font-size="10.00" fill="#000000">Base&lt; DerivedType &gt;</text>
</a>
</g>
</g>
<!-- Node26&#45;&gt;Node36 -->
<g id="edge44" class="edge">
<title>Node26&#45;&gt;Node36</title>
<path fill="none" stroke="#191970" d="M1074.3551,-157.0312C1145.5298,-161.752 1251.1175,-168.7552 1320.3697,-173.3485"/>
<polygon fill="#191970" stroke="#191970" points="1074.3217,-153.5214 1064.112,-156.3518 1073.8584,-160.506 1074.3217,-153.5214"/>
</g>
<!-- Node27 -->
<g id="node23" class="node">
<title>Node27</title>
<g id="a_node23"><a xlink:href="classgko_1_1solver_1_1SolverBase.html" target="_top" xlink:title="A LinOp implementing this interface stores a system matrix.">
<polygon fill="#ffffff" stroke="#000000" points="564,-159 564,-189 695,-189 695,-159 564,-159"/>
<text text-anchor="start" x="572" y="-177" font-family="Helvetica,sans-Serif" font-size="10.00" fill="#000000">gko::solver::SolverBase</text>
<text text-anchor="middle" x="629.5" y="-166" font-family="Helvetica,sans-Serif" font-size="10.00" fill="#000000">&lt; MatrixType &gt;</text>
</a>
</g>
</g>
<!-- Node27&#45;&gt;Node26 -->
<g id="edge31" class="edge">
<title>Node27&#45;&gt;Node26</title>
<path fill="none" stroke="#ffa500" stroke-dasharray="5,2" d="M705.474,-167.9586C719.6059,-166.9118 734.248,-165.8789 748,-165 810.6902,-160.9932 882.2667,-157.3743 932.8106,-154.9784"/>
<polygon fill="#ffa500" stroke="#ffa500" points="705.0047,-164.4838 695.2941,-168.7212 705.5276,-171.4643 705.0047,-164.4838"/>
<text text-anchor="middle" x="813" y="-168" font-family="Helvetica,sans-Serif" font-size="10.00" fill="#000000"> &lt; LinOp &gt;</text>
</g>
<!-- Node28 -->
<g id="node24" class="node">
<title>Node28</title>
<g id="a_node24"><a xlink:href="classgko_1_1solver_1_1EnableSolverBase.html" target="_top" xlink:title="A LinOp deriving from this CRTP class stores a system matrix.">
<polygon fill="#ffffff" stroke="#000000" points="907,-186 907,-216 1090,-216 1090,-186 907,-186"/>
<text text-anchor="start" x="915" y="-204" font-family="Helvetica,sans-Serif" font-size="10.00" fill="#000000">gko::solver::EnableSolver</text>
<text text-anchor="middle" x="998.5" y="-193" font-family="Helvetica,sans-Serif" font-size="10.00" fill="#000000">Base&lt; DerivedType, MatrixType &gt;</text>
</a>
</g>
</g>
<!-- Node27&#45;&gt;Node28 -->
<g id="edge33" class="edge">
<title>Node27&#45;&gt;Node28</title>
<path fill="none" stroke="#191970" d="M705.319,-179.5477C763.7674,-183.8244 844.8282,-189.7557 906.9037,-194.2978"/>
<polygon fill="#191970" stroke="#191970" points="705.2734,-176.0351 695.0446,-178.7959 704.7625,-183.0165 705.2734,-176.0351"/>
</g>
<!-- Node28&#45;&gt;Node25 -->
<g id="edge32" class="edge">
<title>Node28&#45;&gt;Node25</title>
<path fill="none" stroke="#ffa500" stroke-dasharray="5,2" d="M1100.218,-213.3389C1106.5691,-213.9478 1112.8692,-214.509 1119,-215 1181.9038,-220.0378 1253.1881,-223.0871 1306.9255,-224.8505"/>
<polygon fill="#ffa500" stroke="#ffa500" points="1100.5097,-209.8508 1090.2129,-212.3459 1099.8183,-216.8165 1100.5097,-209.8508"/>
<text text-anchor="middle" x="1195.5" y="-226" font-family="Helvetica,sans-Serif" font-size="10.00" fill="#000000"> &lt; Gmres&lt; ValueType &gt; &gt;</text>
</g>
<!-- Node28&#45;&gt;Node36 -->
<g id="edge45" class="edge">
<title>Node28&#45;&gt;Node36</title>
<path fill="none" stroke="#ffa500" stroke-dasharray="5,2" d="M1100.4475,-195.0184C1169.5474,-190.9641 1259.0898,-185.7103 1320.2937,-182.1192"/>
<polygon fill="#ffa500" stroke="#ffa500" points="1100.1844,-191.5277 1090.4066,-195.6075 1100.5945,-198.5157 1100.1844,-191.5277"/>
<text text-anchor="middle" x="1195.5" y="-196" font-family="Helvetica,sans-Serif" font-size="10.00" fill="#000000"> &lt; DerivedType &gt;</text>
</g>
<!-- Node29 -->
<g id="node25" class="node">
<title>Node29</title>
<g id="a_node25"><a xlink:href="classgko_1_1solver_1_1EnableIterativeBase.html" target="_top" xlink:title=" ">
<polygon fill="#ffffff" stroke="#000000" points="1669,-26 1669,-56 1836,-56 1836,-26 1669,-26"/>
<text text-anchor="start" x="1677" y="-44" font-family="Helvetica,sans-Serif" font-size="10.00" fill="#000000">gko::solver::EnableIterative</text>
<text text-anchor="middle" x="1752.5" y="-33" font-family="Helvetica,sans-Serif" font-size="10.00" fill="#000000">Base&lt; Gmres&lt; ValueType &gt; &gt;</text>
</a>
</g>
</g>
<!-- Node29&#45;&gt;Node24 -->
<g id="edge34" class="edge">
<title>Node29&#45;&gt;Node24</title>
<path fill="none" stroke="#191970" d="M1812.3649,-59.2032C1862.5011,-75.3107 1935.3818,-100.7566 1996,-130 2004.4443,-134.0737 2005.4917,-137.0618 2014,-141 2021.2462,-144.354 2028.9743,-147.505 2036.7488,-150.4111"/>
<polygon fill="#191970" stroke="#191970" points="1813.2419,-55.8094 1802.6513,-56.1079 1811.1166,-62.4789 1813.2419,-55.8094"/>
</g>
<!-- Node30 -->
<g id="node26" class="node">
<title>Node30</title>
<g id="a_node26"><a xlink:href="classgko_1_1solver_1_1IterativeBase.html" target="_top" xlink:title="A LinOp implementing this interface stores a stopping criterion factory.">
<polygon fill="#ffffff" stroke="#000000" points="927.5,-.5 927.5,-19.5 1069.5,-19.5 1069.5,-.5 927.5,-.5"/>
<text text-anchor="middle" x="998.5" y="-7.5" font-family="Helvetica,sans-Serif" font-size="10.00" fill="#000000">gko::solver::IterativeBase</text>
</a>
</g>
</g>
<!-- Node30&#45;&gt;Node29 -->
<g id="edge35" class="edge">
<title>Node30&#45;&gt;Node29</title>
<path fill="none" stroke="#191970" d="M1079.614,-8.9253C1177.2849,-8.1078 1346.2689,-8.2136 1491,-16 1550.5441,-19.2034 1617.4791,-25.656 1668.7228,-31.2032"/>
<polygon fill="#191970" stroke="#191970" points="1079.485,-5.4262 1069.5166,-9.0152 1079.5474,-12.4259 1079.485,-5.4262"/>
</g>
<!-- Node31 -->
<g id="node27" class="node">
<title>Node31</title>
<g id="a_node27"><a xlink:href="classgko_1_1solver_1_1EnableIterativeBase.html" target="_top" xlink:title="A LinOp deriving from this CRTP class stores a stopping criterion factory.">
<polygon fill="#ffffff" stroke="#000000" points="1315,-26 1315,-56 1466,-56 1466,-26 1315,-26"/>
<text text-anchor="start" x="1323" y="-44" font-family="Helvetica,sans-Serif" font-size="10.00" fill="#000000">gko::solver::EnableIterative</text>
<text text-anchor="middle" x="1390.5" y="-33" font-family="Helvetica,sans-Serif" font-size="10.00" fill="#000000">Base&lt; DerivedType &gt;</text>
</a>
</g>
</g>
<!-- Node30&#45;&gt;Node31 -->
<g id="edge37" class="edge">
<title>Node30&#45;&gt;Node31</title>
<path fill="none" stroke="#191970" d="M1079.9211,-16.4389C1149.0397,-21.9049 1247.4556,-29.6878 1314.8695,-35.019"/>
<polygon fill="#191970" stroke="#191970" points="1080.1879,-12.9492 1069.943,-15.6498 1079.636,-19.9274 1080.1879,-12.9492"/>
</g>
<!-- Node31&#45;&gt;Node29 -->
<g id="edge36" class="edge">
<title>Node31&#45;&gt;Node29</title>
<path fill="none" stroke="#ffa500" stroke-dasharray="5,2" d="M1476.6578,-41C1534.8158,-41 1611.1807,-41 1668.8131,-41"/>
<polygon fill="#ffa500" stroke="#ffa500" points="1476.3871,-37.5001 1466.3871,-41 1476.387,-44.5001 1476.3871,-37.5001"/>
<text text-anchor="middle" x="1574" y="-44" font-family="Helvetica,sans-Serif" font-size="10.00" fill="#000000"> &lt; Gmres&lt; ValueType &gt; &gt;</text>
</g>
<!-- Node35 -->
<g id="node31" class="node">
<title>Node35</title>
<g id="a_node31"><a xlink:href="classgko_1_1solver_1_1EnablePreconditionedIterativeSolver.html" target="_top" xlink:title="A LinOp implementing this interface stores a system matrix and stopping criterion factory.">
<polygon fill="#ffffff" stroke="#000000" points="1661.5,-150.5 1661.5,-191.5 1843.5,-191.5 1843.5,-150.5 1661.5,-150.5"/>
<text text-anchor="start" x="1669.5" y="-179.5" font-family="Helvetica,sans-Serif" font-size="10.00" fill="#000000">gko::solver::EnablePreconditioned</text>
<text text-anchor="start" x="1669.5" y="-168.5" font-family="Helvetica,sans-Serif" font-size="10.00" fill="#000000">IterativeSolver&lt; ValueType,</text>
<text text-anchor="middle" x="1752.5" y="-157.5" font-family="Helvetica,sans-Serif" font-size="10.00" fill="#000000"> DerivedType &gt;</text>
</a>
</g>
</g>
<!-- Node31&#45;&gt;Node35 -->
<g id="edge46" class="edge">
<title>Node31&#45;&gt;Node35</title>
<path fill="none" stroke="#191970" d="M1430.3288,-60.9971C1449.9349,-72.0208 1473.1332,-86.93 1491,-104 1501.1621,-113.7089 1497.1374,-122.4627 1509,-130 1522.0486,-138.2909 1597.7047,-150.2561 1661.2696,-159.1224"/>
<polygon fill="#191970" stroke="#191970" points="1431.7708,-57.7962 1421.3194,-56.0588 1428.4062,-63.9346 1431.7708,-57.7962"/>
</g>
<!-- Node32 -->
<g id="node28" class="node">
<title>Node32</title>
<g id="a_node28"><a xlink:href="classgko_1_1solver_1_1EnablePreconditionable.html" target="_top" xlink:title=" ">
<polygon fill="#ffffff" stroke="#000000" points="1657,-101 1657,-131 1848,-131 1848,-101 1657,-101"/>
<text text-anchor="start" x="1665" y="-119" font-family="Helvetica,sans-Serif" font-size="10.00" fill="#000000">gko::solver::EnablePreconditionable</text>
<text text-anchor="middle" x="1752.5" y="-108" font-family="Helvetica,sans-Serif" font-size="10.00" fill="#000000">&lt; Gmres&lt; ValueType &gt; &gt;</text>
</a>
</g>
</g>
<!-- Node32&#45;&gt;Node24 -->
<g id="edge38" class="edge">
<title>Node32&#45;&gt;Node24</title>
<path fill="none" stroke="#191970" d="M1858.4489,-132.531C1907.9196,-140.2499 1966.2281,-149.3476 2013.7179,-156.7574"/>
<polygon fill="#191970" stroke="#191970" points="1858.7766,-129.0399 1848.3566,-130.9563 1857.6974,-135.9562 1858.7766,-129.0399"/>
</g>
<!-- Node33 -->
<g id="node29" class="node">
<title>Node33</title>
<g id="a_node29"><a xlink:href="classgko_1_1Preconditionable.html" target="_top" xlink:title="A LinOp implementing this interface can be preconditioned.">
<polygon fill="#ffffff" stroke="#000000" points="937.5,-83.5 937.5,-102.5 1059.5,-102.5 1059.5,-83.5 937.5,-83.5"/>
<text text-anchor="middle" x="998.5" y="-90.5" font-family="Helvetica,sans-Serif" font-size="10.00" fill="#000000">gko::Preconditionable</text>
</a>
</g>
</g>
<!-- Node33&#45;&gt;Node32 -->
<g id="edge39" class="edge">
<title>Node33&#45;&gt;Node32</title>
<path fill="none" stroke="#191970" d="M1069.6991,-94.065C1165.4758,-95.6178 1341.1106,-98.8877 1491,-104 1545.959,-105.8745 1607.3847,-108.6579 1656.886,-111.0722"/>
<polygon fill="#191970" stroke="#191970" points="1069.6077,-90.5632 1059.5527,-93.9021 1069.4952,-97.5623 1069.6077,-90.5632"/>
</g>
<!-- Node34 -->
<g id="node30" class="node">
<title>Node34</title>
<g id="a_node30"><a xlink:href="classgko_1_1solver_1_1EnablePreconditionable.html" target="_top" xlink:title="Mixin providing default operation for Preconditionable with correct value semantics.">
<polygon fill="#ffffff" stroke="#000000" points="1295,-114 1295,-144 1486,-144 1486,-114 1295,-114"/>
<text text-anchor="start" x="1303" y="-132" font-family="Helvetica,sans-Serif" font-size="10.00" fill="#000000">gko::solver::EnablePreconditionable</text>
<text text-anchor="middle" x="1390.5" y="-121" font-family="Helvetica,sans-Serif" font-size="10.00" fill="#000000">&lt; DerivedType &gt;</text>
</a>
</g>
</g>
<!-- Node33&#45;&gt;Node34 -->
<g id="edge41" class="edge">
<title>Node33&#45;&gt;Node34</title>
<path fill="none" stroke="#191970" d="M1070.0055,-99.5668C1133.1011,-105.3613 1225.5661,-113.853 1294.982,-120.2279"/>
<polygon fill="#191970" stroke="#191970" points="1070.0282,-96.0543 1059.75,-98.625 1069.388,-103.0249 1070.0282,-96.0543"/>
</g>
<!-- Node34&#45;&gt;Node32 -->
<g id="edge40" class="edge">
<title>Node34&#45;&gt;Node32</title>
<path fill="none" stroke="#ffa500" stroke-dasharray="5,2" d="M1496.1034,-125.2076C1546.8695,-123.3845 1607.2709,-121.2154 1656.6935,-119.4406"/>
<polygon fill="#ffa500" stroke="#ffa500" points="1495.9527,-121.7107 1486.0848,-125.5674 1496.204,-128.7062 1495.9527,-121.7107"/>
<text text-anchor="middle" x="1574" y="-128" font-family="Helvetica,sans-Serif" font-size="10.00" fill="#000000"> &lt; Gmres&lt; ValueType &gt; &gt;</text>
</g>
<!-- Node34&#45;&gt;Node35 -->
<g id="edge47" class="edge">
<title>Node34&#45;&gt;Node35</title>
<path fill="none" stroke="#191970" d="M1460.9543,-146.2804C1476.6866,-149.6287 1493.3474,-152.7814 1509,-155 1559.1257,-162.1047 1615.5129,-166.0629 1661.3935,-168.264"/>
<polygon fill="#191970" stroke="#191970" points="1461.2861,-142.7706 1450.77,-144.0597 1459.7947,-149.6099 1461.2861,-142.7706"/>
</g>
<!-- Node35&#45;&gt;Node24 -->
<g id="edge42" class="edge">
<title>Node35&#45;&gt;Node24</title>
<path fill="none" stroke="#ffa500" stroke-dasharray="5,2" d="M1854.0101,-171C1904.4448,-171 1964.901,-171 2013.8407,-171"/>
<polygon fill="#ffa500" stroke="#ffa500" points="1853.736,-167.5001 1843.7359,-171 1853.7359,-174.5001 1853.736,-167.5001"/>
<text text-anchor="start" x="1879.5" y="-185" font-family="Helvetica,sans-Serif" font-size="10.00" fill="#000000"> &lt; ValueType, Gmres</text>
<text text-anchor="middle" x="1931" y="-174" font-family="Helvetica,sans-Serif" font-size="10.00" fill="#000000">&lt; ValueType &gt; &gt;</text>
</g>
<!-- Node36&#45;&gt;Node35 -->
<g id="edge43" class="edge">
<title>Node36&#45;&gt;Node35</title>
<path fill="none" stroke="#191970" d="M1470.844,-180.5829C1519.5213,-181.6661 1582.8551,-182.2225 1639,-180 1646.308,-179.7107 1653.8744,-179.317 1661.4719,-178.8552"/>
<polygon fill="#191970" stroke="#191970" points="1470.7665,-177.0803 1460.6871,-180.3446 1470.6022,-184.0783 1470.7665,-177.0803"/>
</g>
<!-- Node37 -->
<g id="node33" class="node">
<title>Node37</title>
<g id="a_node33"><a xlink:href="classgko_1_1Transposable.html" target="_top" xlink:title="Linear operators which support transposition should implement the Transposable interface.">
<polygon fill="#ffffff" stroke="#000000" points="2053,-112.5 2053,-131.5 2157,-131.5 2157,-112.5 2053,-112.5"/>
<text text-anchor="middle" x="2105" y="-119.5" font-family="Helvetica,sans-Serif" font-size="10.00" fill="#000000">gko::Transposable</text>
</a>
</g>
</g>
<!-- Node37&#45;&gt;Node1 -->
<g id="edge48" class="edge">
<title>Node37&#45;&gt;Node1</title>
<path fill="none" stroke="#191970" d="M2165.7965,-133.7155C2175.9282,-135.9475 2186.2944,-138.4043 2196,-141 2212.1499,-145.3192 2229.6444,-150.8417 2244.9689,-155.9683"/>
<polygon fill="#191970" stroke="#191970" points="2166.2884,-130.2414 2155.7762,-131.5617 2164.8174,-137.0851 2166.2884,-130.2414"/>
</g>
</g>
</svg>
        <g id="navigator" transform="translate(0 0)" fill="#404254">
                <rect fill="#f2f5e9" fill-opacity="0.5" stroke="#606060" stroke-width=".5" x="0" y="0" width="60" height="60"/>
                <use id="zoomplus" xlink:href="#zoomPlus" x="17" y="9" onmousedown="handleZoom(evt,'in')"/>
                <use id="zoomminus" xlink:href="#zoomMin" x="42" y="9" onmousedown="handleZoom(evt,'out')"/>
                <use id="reset" xlink:href="#resetDef" x="30" y="36" onmousedown="handleReset()"/>
                <g id="arrowUp" xlink:href="#dirArrow" transform="translate(30 24)" onmousedown="handlePan(0,-1)">
                  <use xlink:href="#rim" fill="#404040">
                        <set attributeName="fill" to="#808080" begin="arrowUp.mouseover" end="arrowUp.mouseout"/>
                  </use>
                  <path fill="none" stroke="white" stroke-width="1.5" d="M0,-3.0v7 M-2.5,-0.5L0,-3.0L2.5,-0.5"/>
                </g>
                <g id="arrowRight" xlink:href="#dirArrow" transform="rotate(90) translate(36 -43)" onmousedown="handlePan(1,0)">
                  <use xlink:href="#rim" fill="#404040">
                        <set attributeName="fill" to="#808080" begin="arrowRight.mouseover" end="arrowRight.mouseout"/>
                  </use>
                  <path fill="none" stroke="white" stroke-width="1.5" d="M0,-3.0v7 M-2.5,-0.5L0,-3.0L2.5,-0.5"/>
                </g>
                <g id="arrowDown" xlink:href="#dirArrow" transform="rotate(180) translate(-30 -48)" onmousedown="handlePan(0,1)">
                  <use xlink:href="#rim" fill="#404040">
                        <set attributeName="fill" to="#808080" begin="arrowDown.mouseover" end="arrowDown.mouseout"/>
                  </use>
                  <path fill="none" stroke="white" stroke-width="1.5" d="M0,-3.0v7 M-2.5,-0.5L0,-3.0L2.5,-0.5"/>
                </g>
                <g id="arrowLeft" xlink:href="#dirArrow" transform="rotate(270) translate(-36 17)" onmousedown="handlePan(-1,0)">
                  <use xlink:href="#rim" fill="#404040">
                        <set attributeName="fill" to="#808080" begin="arrowLeft.mouseover" end="arrowLeft.mouseout"/>
                  </use>
                  <path fill="none" stroke="white" stroke-width="1.5" d="M0,-3.0v7 M-2.5,-0.5L0,-3.0L2.5,-0.5"/>
                </g>
        </g>
        <svg viewBox="0 0 15 15" width="100%" height="30px" preserveAspectRatio="xMaxYMin meet">
         <g id="arrow_out" transform="scale(0.3 0.3)">
          <a xlink:href="classgko_1_1solver_1_1Gmres__coll__graph_org.svg" target="_base">
           <rect id="button" ry="5" rx="5" y="6" x="6" height="38" width="38"
                fill="#f2f5e9" fill-opacity="0.5" stroke="#606060" stroke-width="1.0"/>
           <path id="arrow"
             d="M 11.500037,31.436501 C 11.940474,20.09759 22.043105,11.32322 32.158766,21.979434 L 37.068811,17.246167 C 37.068811,17.246167 37.088388,32 37.088388,32 L 22.160133,31.978069 C 22.160133,31.978069 26.997745,27.140456 26.997745,27.140456 C 18.528582,18.264221 13.291696,25.230495 11.500037,31.436501 z"
             style="fill:#404040;"/>
          </a>
         </g>
        </svg>
</svg>
