<?xml version="1.0" encoding="UTF-8" standalone="no"?>
<!DOCTYPE svg PUBLIC "-//W3C//DTD SVG 1.1//EN"
 "http://www.w3.org/Graphics/SVG/1.1/DTD/svg11.dtd">
<!-- Generated by graphviz version 2.40.1 (20161225.0304)
 -->
<!-- Title: gko::batch::matrix::Csr&lt; ValueType, IndexType &gt; Pages: 1 -->
<!--zoomable 378 -->
<svg id="main" version="1.1" xmlns="http://www.w3.org/2000/svg" xmlns:xlink="http://www.w3.org/1999/xlink" xml:space="preserve" onload="init(evt)">
<style type="text/css"><![CDATA[
.edge:hover path { stroke: red; }
.edge:hover polygon { stroke: red; fill: red; }
]]></style>
<script type="text/javascript"><![CDATA[
var edges = document.getElementsByTagName('g');
if (edges && edges.length) {
  for (var i=0;i<edges.length;i++) {
    if (edges[i].id.substr(0,4)=='edge') {
      edges[i].setAttribute('class','edge');
    }
  }
}
]]></script>
        <defs>
                <circle id="rim" cx="0" cy="0" r="7"/>
                <circle id="rim2" cx="0" cy="0" r="3.5"/>
                <g id="zoomPlus">
                        <use xlink:href="#rim" fill="#404040">
                                <set attributeName="fill" to="#808080" begin="zoomplus.mouseover" end="zoomplus.mouseout"/>
                        </use>
                        <path d="M-4,0h8M0,-4v8" fill="none" stroke="white" stroke-width="1.5" pointer-events="none"/>
                </g>
                <g id="zoomMin">
                        <use xlink:href="#rim" fill="#404040">
                                <set attributeName="fill" to="#808080" begin="zoomminus.mouseover" end="zoomminus.mouseout"/>
                        </use>
                        <path d="M-4,0h8" fill="none" stroke="white" stroke-width="1.5" pointer-events="none"/>
                </g>
                <g id="dirArrow">
                        <path fill="none" stroke="white" stroke-width="1.5" d="M0,-3.0v7 M-2.5,-0.5L0,-3.0L2.5,-0.5"/>
                </g>
               <g id="resetDef">
                       <use xlink:href="#rim2" fill="#404040">
                               <set attributeName="fill" to="#808080" begin="reset.mouseover" end="reset.mouseout"/>
                       </use>
               </g>
        </defs>

<script type="text/javascript">
var viewWidth = 2337;
var viewHeight = 378;
var sectionId = 'dynsection-1';
</script>
<script xlink:href="svgpan.js"/>
<svg id="graph" class="graph">
<g id="viewport">
<title>gko::batch::matrix::Csr&lt; ValueType, IndexType &gt;</title>
<polygon fill="#ffffff" stroke="transparent" points="-4,4 -4,-374.2202 2333,-374.2202 2333,4 -4,4"/>
<!-- Node1 -->
<g id="node1" class="node">
<title>Node1</title>
<g id="a_node1"><a xlink:title="Csr is a general sparse matrix format that stores the column indices for each nonzero entry and a cum...">
<polygon fill="#bfbfbf" stroke="#000000" points="2163,-44.5 2163,-74.5 2329,-74.5 2329,-44.5 2163,-44.5"/>
<text text-anchor="start" x="2171" y="-62.5" font-family="Helvetica,sans-Serif" font-size="10.00" fill="#000000">gko::batch::matrix</text>
<text text-anchor="middle" x="2246" y="-51.5" font-family="Helvetica,sans-Serif" font-size="10.00" fill="#000000">::Csr&lt; ValueType, IndexType &gt;</text>
</a>
</g>
</g>
<!-- Node2 -->
<g id="node2" class="node">
<title>Node2</title>
<g id="a_node2"><a xlink:href="classgko_1_1batch_1_1EnableBatchLinOp.html" target="_top" xlink:title=" ">
<polygon fill="#ffffff" stroke="#000000" points="1930,-119.5 1930,-149.5 2126,-149.5 2126,-119.5 1930,-119.5"/>
<text text-anchor="start" x="1938" y="-137.5" font-family="Helvetica,sans-Serif" font-size="10.00" fill="#000000">gko::batch::EnableBatchLin</text>
<text text-anchor="middle" x="2028" y="-126.5" font-family="Helvetica,sans-Serif" font-size="10.00" fill="#000000">Op&lt; Csr&lt; ValueType, IndexType &gt; &gt;</text>
</a>
</g>
</g>
<!-- Node2&#45;&gt;Node1 -->
<g id="edge1" class="edge">
<title>Node2&#45;&gt;Node1</title>
<path fill="none" stroke="#191970" d="M2081.5028,-116.0931C2118.6115,-103.3263 2167.4242,-86.533 2202.2168,-74.563"/>
<polygon fill="#191970" stroke="#191970" points="2080.1707,-112.8499 2071.8533,-119.4129 2082.448,-119.4692 2080.1707,-112.8499"/>
</g>
<!-- Node3 -->
<g id="node3" class="node">
<title>Node3</title>
<g id="a_node3"><a xlink:href="classgko_1_1EnablePolymorphicObject.html" target="_top" xlink:title=" ">
<polygon fill="#ffffff" stroke="#000000" points="1359,-213 1359,-254 1525,-254 1525,-213 1359,-213"/>
<text text-anchor="start" x="1367" y="-242" font-family="Helvetica,sans-Serif" font-size="10.00" fill="#000000">gko::EnablePolymorphicObject</text>
<text text-anchor="start" x="1367" y="-231" font-family="Helvetica,sans-Serif" font-size="10.00" fill="#000000">&lt; Csr&lt; ValueType, IndexType</text>
<text text-anchor="middle" x="1442" y="-220" font-family="Helvetica,sans-Serif" font-size="10.00" fill="#000000"> &gt;, BatchLinOp &gt;</text>
</a>
</g>
</g>
<!-- Node3&#45;&gt;Node2 -->
<g id="edge2" class="edge">
<title>Node3&#45;&gt;Node2</title>
<path fill="none" stroke="#191970" d="M1528.0939,-208.9328C1531.8338,-207.2231 1535.4866,-205.4133 1539,-203.5 1557.8408,-193.2398 1556.1627,-180.6689 1576,-172.5 1607.8118,-159.4001 1806.8098,-146.4779 1929.9224,-139.5949"/>
<polygon fill="#191970" stroke="#191970" points="1526.4626,-205.824 1518.648,-212.9782 1529.2184,-212.2587 1526.4626,-205.824"/>
</g>
<!-- Node4 -->
<g id="node4" class="node">
<title>Node4</title>
<g id="a_node4"><a xlink:href="classgko_1_1EnableAbstractPolymorphicObject.html" target="_top" xlink:title=" ">
<polygon fill="#ffffff" stroke="#000000" points="534,-206 534,-247 725,-247 725,-206 534,-206"/>
<text text-anchor="start" x="542" y="-235" font-family="Helvetica,sans-Serif" font-size="10.00" fill="#000000">gko::EnableAbstractPolymorphic</text>
<text text-anchor="start" x="542" y="-224" font-family="Helvetica,sans-Serif" font-size="10.00" fill="#000000">Object&lt; Csr&lt; ValueType, IndexType</text>
<text text-anchor="middle" x="629.5" y="-213" font-family="Helvetica,sans-Serif" font-size="10.00" fill="#000000"> &gt;, BatchLinOp &gt;</text>
</a>
</g>
</g>
<!-- Node4&#45;&gt;Node3 -->
<g id="edge3" class="edge">
<title>Node4&#45;&gt;Node3</title>
<path fill="none" stroke="#191970" d="M735.1712,-227.4104C898.753,-228.8197 1209.911,-231.5005 1358.7036,-232.7824"/>
<polygon fill="#191970" stroke="#191970" points="735.1231,-223.91 725.0933,-227.3236 735.0628,-230.9097 735.1231,-223.91"/>
</g>
<!-- Node5 -->
<g id="node5" class="node">
<title>Node5</title>
<g id="a_node5"><a xlink:title=" ">
<polygon fill="#ffffff" stroke="#bfbfbf" points="201,-186 201,-205 273,-205 273,-186 201,-186"/>
<text text-anchor="middle" x="237" y="-193" font-family="Helvetica,sans-Serif" font-size="10.00" fill="#000000">BatchLinOp</text>
</a>
</g>
</g>
<!-- Node5&#45;&gt;Node4 -->
<g id="edge4" class="edge">
<title>Node5&#45;&gt;Node4</title>
<path fill="none" stroke="#191970" d="M283.4797,-196.5803C338.0613,-198.1483 431.2766,-201.7611 511,-209.5 518.4471,-210.2229 526.143,-211.0787 533.8706,-212.0156"/>
<polygon fill="#191970" stroke="#191970" points="283.5148,-193.08 273.4218,-196.302 283.3212,-200.0773 283.5148,-193.08"/>
</g>
<!-- Node6 -->
<g id="node6" class="node">
<title>Node6</title>
<g id="a_node6"><a xlink:href="classgko_1_1EnableAbstractPolymorphicObject.html" target="_top" xlink:title="This mixin inherits from (a subclass of) PolymorphicObject and provides a base implementation of a ne...">
<polygon fill="#ffffff" stroke="#000000" points="138,-294 138,-335 336,-335 336,-294 138,-294"/>
<text text-anchor="start" x="146" y="-323" font-family="Helvetica,sans-Serif" font-size="10.00" fill="#000000">gko::EnableAbstractPolymorphic</text>
<text text-anchor="start" x="146" y="-312" font-family="Helvetica,sans-Serif" font-size="10.00" fill="#000000">Object&lt; AbstractObject, Polymorphic</text>
<text text-anchor="middle" x="237" y="-301" font-family="Helvetica,sans-Serif" font-size="10.00" fill="#000000">Base &gt;</text>
</a>
</g>
</g>
<!-- Node6&#45;&gt;Node4 -->
<g id="edge5" class="edge">
<title>Node6&#45;&gt;Node4</title>
<path fill="none" stroke="#ffa500" stroke-dasharray="5,2" d="M285.7609,-289.6304C306.3454,-280.0928 330.8655,-269.9596 354,-263.5 412.5665,-247.1472 480.2211,-237.9285 533.83,-232.7827"/>
<polygon fill="#ffa500" stroke="#ffa500" points="284.1481,-286.5213 276.5992,-293.9553 287.1364,-292.8514 284.1481,-286.5213"/>
<text text-anchor="start" x="359" y="-277.5" font-family="Helvetica,sans-Serif" font-size="10.00" fill="#000000"> &lt; Csr&lt; ValueType, IndexType</text>
<text text-anchor="middle" x="432.5" y="-266.5" font-family="Helvetica,sans-Serif" font-size="10.00" fill="#000000"> &gt;, BatchLinOp &gt;</text>
</g>
<!-- Node9 -->
<g id="node9" class="node">
<title>Node9</title>
<g id="a_node9"><a xlink:href="classgko_1_1EnableAbstractPolymorphicObject.html" target="_top" xlink:title=" ">
<polygon fill="#ffffff" stroke="#000000" points="529,-266 529,-307 730,-307 730,-266 529,-266"/>
<text text-anchor="start" x="537" y="-295" font-family="Helvetica,sans-Serif" font-size="10.00" fill="#000000">gko::EnableAbstractPolymorphic</text>
<text text-anchor="start" x="537" y="-284" font-family="Helvetica,sans-Serif" font-size="10.00" fill="#000000">Object&lt; ConcreteObject, Polymorphic</text>
<text text-anchor="middle" x="629.5" y="-273" font-family="Helvetica,sans-Serif" font-size="10.00" fill="#000000">Base &gt;</text>
</a>
</g>
</g>
<!-- Node6&#45;&gt;Node9 -->
<g id="edge10" class="edge">
<title>Node6&#45;&gt;Node9</title>
<path fill="none" stroke="#ffa500" stroke-dasharray="5,2" d="M346.2885,-300.2079C348.8828,-299.9593 351.4563,-299.7227 354,-299.5 411.837,-294.4362 476.6894,-291.2529 528.9372,-289.3047"/>
<polygon fill="#ffa500" stroke="#ffa500" points="345.7972,-296.7396 336.1975,-301.2224 346.4975,-303.7045 345.7972,-296.7396"/>
<text text-anchor="start" x="354" y="-313.5" font-family="Helvetica,sans-Serif" font-size="10.00" fill="#000000"> &lt; ConcreteObject, Polymorphic</text>
<text text-anchor="middle" x="432.5" y="-302.5" font-family="Helvetica,sans-Serif" font-size="10.00" fill="#000000">Base &gt;</text>
</g>
<!-- Node16 -->
<g id="node16" class="node">
<title>Node16</title>
<g id="a_node16"><a xlink:href="classgko_1_1EnableAbstractPolymorphicObject.html" target="_top" xlink:title=" ">
<polygon fill="#ffffff" stroke="#000000" points="542,-326 542,-367 717,-367 717,-326 542,-326"/>
<text text-anchor="start" x="550" y="-355" font-family="Helvetica,sans-Serif" font-size="10.00" fill="#000000">gko::EnableAbstractPolymorphic</text>
<text text-anchor="start" x="550" y="-344" font-family="Helvetica,sans-Serif" font-size="10.00" fill="#000000">Object&lt; ConcreteBatchLinOp,</text>
<text text-anchor="middle" x="629.5" y="-333" font-family="Helvetica,sans-Serif" font-size="10.00" fill="#000000"> PolymorphicBase &gt;</text>
</a>
</g>
</g>
<!-- Node6&#45;&gt;Node16 -->
<g id="edge20" class="edge">
<title>Node6&#45;&gt;Node16</title>
<path fill="none" stroke="#ffa500" stroke-dasharray="5,2" d="M346.2134,-323.404C407.9382,-328.4364 484.0683,-334.6432 541.8581,-339.3547"/>
<polygon fill="#ffa500" stroke="#ffa500" points="346.2957,-319.8992 336.0443,-322.575 345.7268,-326.8761 346.2957,-319.8992"/>
<text text-anchor="start" x="374" y="-349.5" font-family="Helvetica,sans-Serif" font-size="10.00" fill="#000000"> &lt; ConcreteBatchLinOp,</text>
<text text-anchor="middle" x="432.5" y="-338.5" font-family="Helvetica,sans-Serif" font-size="10.00" fill="#000000"> PolymorphicBase &gt;</text>
</g>
<!-- Node7 -->
<g id="node7" class="node">
<title>Node7</title>
<g id="a_node7"><a xlink:title=" ">
<polygon fill="#ffffff" stroke="#bfbfbf" points="0,-305 0,-324 101,-324 101,-305 0,-305"/>
<text text-anchor="middle" x="50.5" y="-312" font-family="Helvetica,sans-Serif" font-size="10.00" fill="#000000">PolymorphicBase</text>
</a>
</g>
</g>
<!-- Node7&#45;&gt;Node6 -->
<g id="edge6" class="edge">
<title>Node7&#45;&gt;Node6</title>
<path fill="none" stroke="#191970" d="M111.5248,-314.5C119.9555,-314.5 128.7869,-314.5 137.6923,-314.5"/>
<polygon fill="#191970" stroke="#191970" points="111.462,-311.0001 101.4619,-314.5 111.4619,-318.0001 111.462,-311.0001"/>
</g>
<!-- Node7&#45;&gt;Node9 -->
<g id="edge9" class="edge">
<title>Node7&#45;&gt;Node9</title>
<path fill="none" stroke="#191970" d="M81.5467,-301.0517C97.9869,-294.6549 118.7166,-287.7139 138,-284.5 301.5228,-257.2462 345.2258,-284.3269 511,-285.5 516.8633,-285.5415 522.8899,-285.5861 528.9705,-285.6327"/>
<polygon fill="#191970" stroke="#191970" points="79.8872,-297.9466 71.916,-304.926 82.4998,-304.4408 79.8872,-297.9466"/>
</g>
<!-- Node7&#45;&gt;Node16 -->
<g id="edge19" class="edge">
<title>Node7&#45;&gt;Node16</title>
<path fill="none" stroke="#191970" d="M82.6769,-327.7078C98.98,-333.8371 119.2483,-340.6125 138,-344.5 300.4946,-378.1876 345.3789,-371.9407 511,-361.5 521.0376,-360.8672 531.5251,-359.9358 541.9318,-358.8417"/>
<polygon fill="#191970" stroke="#191970" points="83.6768,-324.3422 73.0873,-324.0066 81.1562,-330.8726 83.6768,-324.3422"/>
</g>
<!-- Node8 -->
<g id="node8" class="node">
<title>Node8</title>
<g id="a_node8"><a xlink:href="classgko_1_1EnablePolymorphicObject.html" target="_top" xlink:title="This mixin inherits from (a subclass of) PolymorphicObject and provides a base implementation of a ne...">
<polygon fill="#ffffff" stroke="#000000" points="935,-271.5 935,-301.5 1140,-301.5 1140,-271.5 935,-271.5"/>
<text text-anchor="start" x="943" y="-289.5" font-family="Helvetica,sans-Serif" font-size="10.00" fill="#000000">gko::EnablePolymorphicObject</text>
<text text-anchor="middle" x="1037.5" y="-278.5" font-family="Helvetica,sans-Serif" font-size="10.00" fill="#000000">&lt; ConcreteObject, PolymorphicBase &gt;</text>
</a>
</g>
</g>
<!-- Node8&#45;&gt;Node3 -->
<g id="edge7" class="edge">
<title>Node8&#45;&gt;Node3</title>
<path fill="none" stroke="#ffa500" stroke-dasharray="5,2" d="M1134.8647,-269.9227C1142.6852,-268.7184 1150.47,-267.5617 1158,-266.5 1225.4599,-256.9881 1302.2174,-248.19 1358.9124,-242.0744"/>
<polygon fill="#ffa500" stroke="#ffa500" points="1134.2965,-266.4689 1124.9562,-271.4699 1135.3765,-273.3851 1134.2965,-266.4689"/>
<text text-anchor="start" x="1169" y="-280.5" font-family="Helvetica,sans-Serif" font-size="10.00" fill="#000000"> &lt; Csr&lt; ValueType, IndexType</text>
<text text-anchor="middle" x="1242.5" y="-269.5" font-family="Helvetica,sans-Serif" font-size="10.00" fill="#000000"> &gt;, BatchLinOp &gt;</text>
</g>
<!-- Node15 -->
<g id="node15" class="node">
<title>Node15</title>
<g id="a_node15"><a xlink:href="classgko_1_1EnablePolymorphicObject.html" target="_top" xlink:title=" ">
<polygon fill="#ffffff" stroke="#000000" points="1345,-286 1345,-327 1539,-327 1539,-286 1345,-286"/>
<text text-anchor="start" x="1353" y="-315" font-family="Helvetica,sans-Serif" font-size="10.00" fill="#000000">gko::EnablePolymorphicObject</text>
<text text-anchor="start" x="1353" y="-304" font-family="Helvetica,sans-Serif" font-size="10.00" fill="#000000">&lt; ConcreteBatchLinOp, Polymorphic</text>
<text text-anchor="middle" x="1442" y="-293" font-family="Helvetica,sans-Serif" font-size="10.00" fill="#000000">Base &gt;</text>
</a>
</g>
</g>
<!-- Node8&#45;&gt;Node15 -->
<g id="edge21" class="edge">
<title>Node8&#45;&gt;Node15</title>
<path fill="none" stroke="#ffa500" stroke-dasharray="5,2" d="M1150.1751,-292.0711C1211.3224,-295.0944 1286.1591,-298.7946 1344.7378,-301.691"/>
<polygon fill="#ffa500" stroke="#ffa500" points="1150.256,-288.5709 1140.0953,-291.5727 1149.9103,-295.5624 1150.256,-288.5709"/>
<text text-anchor="start" x="1184" y="-314.5" font-family="Helvetica,sans-Serif" font-size="10.00" fill="#000000"> &lt; ConcreteBatchLinOp,</text>
<text text-anchor="middle" x="1242.5" y="-303.5" font-family="Helvetica,sans-Serif" font-size="10.00" fill="#000000"> PolymorphicBase &gt;</text>
</g>
<!-- Node9&#45;&gt;Node8 -->
<g id="edge8" class="edge">
<title>Node9&#45;&gt;Node8</title>
<path fill="none" stroke="#191970" d="M740.4636,-286.5C801.0615,-286.5 875.5974,-286.5 934.8448,-286.5"/>
<polygon fill="#191970" stroke="#191970" points="740.0922,-283.0001 730.0922,-286.5 740.0921,-290.0001 740.0922,-283.0001"/>
</g>
<!-- Node10 -->
<g id="node10" class="node">
<title>Node10</title>
<g id="a_node10"><a xlink:href="classgko_1_1EnablePolymorphicAssignment.html" target="_top" xlink:title=" ">
<polygon fill="#ffffff" stroke="#000000" points="1346,-100.5 1346,-130.5 1538,-130.5 1538,-100.5 1346,-100.5"/>
<text text-anchor="start" x="1354" y="-118.5" font-family="Helvetica,sans-Serif" font-size="10.00" fill="#000000">gko::EnablePolymorphicAssignment</text>
<text text-anchor="middle" x="1442" y="-107.5" font-family="Helvetica,sans-Serif" font-size="10.00" fill="#000000">&lt; Csr&lt; ValueType, IndexType &gt; &gt;</text>
</a>
</g>
</g>
<!-- Node10&#45;&gt;Node2 -->
<g id="edge11" class="edge">
<title>Node10&#45;&gt;Node2</title>
<path fill="none" stroke="#191970" d="M1548.1091,-118.9404C1656.7526,-122.463 1824.2385,-127.8934 1929.882,-131.3187"/>
<polygon fill="#191970" stroke="#191970" points="1548.218,-115.4422 1538.1098,-118.6162 1547.9911,-122.4385 1548.218,-115.4422"/>
</g>
<!-- Node11 -->
<g id="node11" class="node">
<title>Node11</title>
<g id="a_node11"><a xlink:href="classgko_1_1ConvertibleTo.html" target="_top" xlink:title=" ">
<polygon fill="#ffffff" stroke="#000000" points="946.5,-71.5 946.5,-101.5 1128.5,-101.5 1128.5,-71.5 946.5,-71.5"/>
<text text-anchor="start" x="954.5" y="-89.5" font-family="Helvetica,sans-Serif" font-size="10.00" fill="#000000">gko::ConvertibleTo</text>
<text text-anchor="middle" x="1037.5" y="-78.5" font-family="Helvetica,sans-Serif" font-size="10.00" fill="#000000">&lt; Csr&lt; ValueType, IndexType &gt; &gt;</text>
</a>
</g>
</g>
<!-- Node11&#45;&gt;Node10 -->
<g id="edge12" class="edge">
<title>Node11&#45;&gt;Node10</title>
<path fill="none" stroke="#191970" d="M1138.5434,-93.7441C1201.9266,-98.2883 1283.1758,-104.1133 1345.6484,-108.5922"/>
<polygon fill="#191970" stroke="#191970" points="1138.7545,-90.2504 1128.5298,-93.0262 1138.2538,-97.2325 1138.7545,-90.2504"/>
</g>
<!-- Node12 -->
<g id="node12" class="node">
<title>Node12</title>
<g id="a_node12"><a xlink:href="classgko_1_1ConvertibleTo.html" target="_top" xlink:title="ConvertibleTo interface is used to mark that the implementer can be converted to the object of Result...">
<polygon fill="#ffffff" stroke="#000000" points="576,-99.5 576,-129.5 683,-129.5 683,-99.5 576,-99.5"/>
<text text-anchor="start" x="584" y="-117.5" font-family="Helvetica,sans-Serif" font-size="10.00" fill="#000000">gko::ConvertibleTo</text>
<text text-anchor="middle" x="629.5" y="-106.5" font-family="Helvetica,sans-Serif" font-size="10.00" fill="#000000">&lt; ResultType &gt;</text>
</a>
</g>
</g>
<!-- Node12&#45;&gt;Node11 -->
<g id="edge13" class="edge">
<title>Node12&#45;&gt;Node11</title>
<path fill="none" stroke="#ffa500" stroke-dasharray="5,2" d="M693.3888,-110.1155C761.2881,-105.4557 869.2513,-98.0465 946.1304,-92.7705"/>
<polygon fill="#ffa500" stroke="#ffa500" points="692.9953,-106.6342 683.2584,-110.8107 693.4746,-113.6177 692.9953,-106.6342"/>
<text text-anchor="middle" x="832.5" y="-109.5" font-family="Helvetica,sans-Serif" font-size="10.00" fill="#000000"> &lt; Csr&lt; ValueType, IndexType &gt; &gt;</text>
</g>
<!-- Node13 -->
<g id="node13" class="node">
<title>Node13</title>
<g id="a_node13"><a xlink:href="classgko_1_1EnablePolymorphicAssignment.html" target="_top" xlink:title="This mixin is used to enable a default PolymorphicObject::copy_from() implementation for objects that...">
<polygon fill="#ffffff" stroke="#000000" points="941.5,-120.5 941.5,-150.5 1133.5,-150.5 1133.5,-120.5 941.5,-120.5"/>
<text text-anchor="start" x="949.5" y="-138.5" font-family="Helvetica,sans-Serif" font-size="10.00" fill="#000000">gko::EnablePolymorphicAssignment</text>
<text text-anchor="middle" x="1037.5" y="-127.5" font-family="Helvetica,sans-Serif" font-size="10.00" fill="#000000">&lt; ConcreteType, ResultType &gt;</text>
</a>
</g>
</g>
<!-- Node12&#45;&gt;Node13 -->
<g id="edge15" class="edge">
<title>Node12&#45;&gt;Node13</title>
<path fill="none" stroke="#191970" d="M693.5961,-117.7991C760.1199,-121.2231 864.9394,-126.6182 941.3838,-130.5528"/>
<polygon fill="#191970" stroke="#191970" points="693.4251,-114.2857 683.2584,-117.267 693.0653,-121.2765 693.4251,-114.2857"/>
</g>
<!-- Node18 -->
<g id="node18" class="node">
<title>Node18</title>
<g id="a_node18"><a xlink:href="classgko_1_1ConvertibleTo.html" target="_top" xlink:title=" ">
<polygon fill="#ffffff" stroke="#000000" points="968.5,-169.5 968.5,-199.5 1106.5,-199.5 1106.5,-169.5 968.5,-169.5"/>
<text text-anchor="start" x="976.5" y="-187.5" font-family="Helvetica,sans-Serif" font-size="10.00" fill="#000000">gko::ConvertibleTo</text>
<text text-anchor="middle" x="1037.5" y="-176.5" font-family="Helvetica,sans-Serif" font-size="10.00" fill="#000000">&lt; ConcreteBatchLinOp &gt;</text>
</a>
</g>
</g>
<!-- Node12&#45;&gt;Node18 -->
<g id="edge24" class="edge">
<title>Node12&#45;&gt;Node18</title>
<path fill="none" stroke="#ffa500" stroke-dasharray="5,2" d="M693.2724,-128.6106C710.9586,-132.3449 730.1924,-136.24 748,-139.5 823.0487,-153.2391 909.5417,-166.3272 968.3017,-174.8103"/>
<polygon fill="#ffa500" stroke="#ffa500" points="693.57,-125.0956 683.0603,-126.4366 692.1123,-131.9422 693.57,-125.0956"/>
<text text-anchor="middle" x="832.5" y="-169.5" font-family="Helvetica,sans-Serif" font-size="10.00" fill="#000000"> &lt; ConcreteBatchLinOp &gt;</text>
</g>
<!-- Node21 -->
<g id="node21" class="node">
<title>Node21</title>
<g id="a_node21"><a xlink:href="classgko_1_1ConvertibleTo.html" target="_top" xlink:title=" ">
<polygon fill="#ffffff" stroke="#000000" points="1159,-26 1159,-67 1326,-67 1326,-26 1159,-26"/>
<text text-anchor="start" x="1167" y="-55" font-family="Helvetica,sans-Serif" font-size="10.00" fill="#000000">gko::ConvertibleTo</text>
<text text-anchor="start" x="1167" y="-44" font-family="Helvetica,sans-Serif" font-size="10.00" fill="#000000">&lt; Csr&lt; next_precision</text>
<text text-anchor="middle" x="1242.5" y="-33" font-family="Helvetica,sans-Serif" font-size="10.00" fill="#000000">&lt; ValueType &gt;, IndexType &gt; &gt;</text>
</a>
</g>
</g>
<!-- Node12&#45;&gt;Node21 -->
<g id="edge29" class="edge">
<title>Node12&#45;&gt;Node21</title>
<path fill="none" stroke="#ffa500" stroke-dasharray="5,2" d="M670.0803,-95.4279C692.529,-85.8215 721.228,-75.0581 748,-69.5 890.0017,-40.019 1059.6632,-39.4107 1158.8167,-42.4204"/>
<polygon fill="#ffa500" stroke="#ffa500" points="668.6269,-92.2434 660.8658,-99.4556 671.4306,-98.6574 668.6269,-92.2434"/>
<text text-anchor="start" x="757" y="-83.5" font-family="Helvetica,sans-Serif" font-size="10.00" fill="#000000"> &lt; Csr&lt; next_precision</text>
<text text-anchor="middle" x="832.5" y="-72.5" font-family="Helvetica,sans-Serif" font-size="10.00" fill="#000000">&lt; ValueType &gt;, IndexType &gt; &gt;</text>
</g>
<!-- Node13&#45;&gt;Node10 -->
<g id="edge14" class="edge">
<title>Node13&#45;&gt;Node10</title>
<path fill="none" stroke="#ffa500" stroke-dasharray="5,2" d="M1144.1213,-124.473C1148.809,-124.1173 1153.4514,-123.7902 1158,-123.5 1220.5158,-119.5117 1290.8992,-117.5117 1345.9583,-116.5088"/>
<polygon fill="#ffa500" stroke="#ffa500" points="1143.4964,-121.0115 1133.8056,-125.294 1144.0518,-127.9895 1143.4964,-121.0115"/>
<text text-anchor="middle" x="1242.5" y="-126.5" font-family="Helvetica,sans-Serif" font-size="10.00" fill="#000000"> &lt; Csr&lt; ValueType, IndexType &gt; &gt;</text>
</g>
<!-- Node17 -->
<g id="node17" class="node">
<title>Node17</title>
<g id="a_node17"><a xlink:href="classgko_1_1EnablePolymorphicAssignment.html" target="_top" xlink:title=" ">
<polygon fill="#ffffff" stroke="#000000" points="1346,-163.5 1346,-193.5 1538,-193.5 1538,-163.5 1346,-163.5"/>
<text text-anchor="start" x="1354" y="-181.5" font-family="Helvetica,sans-Serif" font-size="10.00" fill="#000000">gko::EnablePolymorphicAssignment</text>
<text text-anchor="middle" x="1442" y="-170.5" font-family="Helvetica,sans-Serif" font-size="10.00" fill="#000000">&lt; ConcreteBatchLinOp &gt;</text>
</a>
</g>
</g>
<!-- Node13&#45;&gt;Node17 -->
<g id="edge25" class="edge">
<title>Node13&#45;&gt;Node17</title>
<path fill="none" stroke="#ffa500" stroke-dasharray="5,2" d="M1143.7926,-145.6008C1198.5531,-150.9432 1266.3861,-157.7753 1327,-164.5 1333.097,-165.1764 1339.3735,-165.8904 1345.7003,-166.6233"/>
<polygon fill="#ffa500" stroke="#ffa500" points="1144.0165,-142.1062 1133.7245,-144.621 1143.3384,-149.0733 1144.0165,-142.1062"/>
<text text-anchor="middle" x="1242.5" y="-167.5" font-family="Helvetica,sans-Serif" font-size="10.00" fill="#000000"> &lt; ConcreteBatchLinOp &gt;</text>
</g>
<!-- Node14 -->
<g id="node14" class="node">
<title>Node14</title>
<g id="a_node14"><a xlink:href="classgko_1_1batch_1_1EnableBatchLinOp.html" target="_top" xlink:title="The EnableBatchLinOp mixin can be used to provide sensible default implementations of the majority of...">
<polygon fill="#ffffff" stroke="#000000" points="1576,-182 1576,-223 1725,-223 1725,-182 1576,-182"/>
<text text-anchor="start" x="1584" y="-211" font-family="Helvetica,sans-Serif" font-size="10.00" fill="#000000">gko::batch::EnableBatchLin</text>
<text text-anchor="start" x="1584" y="-200" font-family="Helvetica,sans-Serif" font-size="10.00" fill="#000000">Op&lt; ConcreteBatchLinOp,</text>
<text text-anchor="middle" x="1650.5" y="-189" font-family="Helvetica,sans-Serif" font-size="10.00" fill="#000000"> PolymorphicBase &gt;</text>
</a>
</g>
</g>
<!-- Node14&#45;&gt;Node2 -->
<g id="edge16" class="edge">
<title>Node14&#45;&gt;Node2</title>
<path fill="none" stroke="#ffa500" stroke-dasharray="5,2" d="M1735.1711,-194.2964C1786.6199,-188.5381 1853.4575,-179.6787 1912,-167.5 1934.959,-162.7238 1960.032,-155.8104 1980.9747,-149.544"/>
<polygon fill="#ffa500" stroke="#ffa500" points="1734.6501,-190.8325 1725.0936,-195.4068 1735.4168,-197.7904 1734.6501,-190.8325"/>
<text text-anchor="middle" x="1827.5" y="-195.5" font-family="Helvetica,sans-Serif" font-size="10.00" fill="#000000"> &lt; Csr&lt; ValueType, IndexType &gt; &gt;</text>
</g>
<!-- Node15&#45;&gt;Node14 -->
<g id="edge17" class="edge">
<title>Node15&#45;&gt;Node14</title>
<path fill="none" stroke="#191970" d="M1499.9978,-281.735C1512.9299,-275.9514 1526.5082,-269.6725 1539,-263.5 1564.7166,-250.7928 1593.0677,-235.2611 1614.7459,-223.0503"/>
<polygon fill="#191970" stroke="#191970" points="1498.4421,-278.5962 1490.7201,-285.8503 1501.2804,-284.9949 1498.4421,-278.5962"/>
</g>
<!-- Node16&#45;&gt;Node15 -->
<g id="edge18" class="edge">
<title>Node16&#45;&gt;Node15</title>
<path fill="none" stroke="#191970" d="M727.351,-348.1083C862.5471,-349.3257 1113.9339,-347.9701 1327,-326.5 1332.8472,-325.9108 1338.8454,-325.1984 1344.8854,-324.3984"/>
<polygon fill="#191970" stroke="#191970" points="727.0573,-344.6053 717.0239,-348.0082 726.9894,-351.605 727.0573,-344.6053"/>
</g>
<!-- Node17&#45;&gt;Node14 -->
<g id="edge22" class="edge">
<title>Node17&#45;&gt;Node14</title>
<path fill="none" stroke="#191970" d="M1548.1668,-190.7206C1557.5315,-191.7986 1566.8756,-192.8742 1575.8966,-193.9126"/>
<polygon fill="#191970" stroke="#191970" points="1548.346,-187.2182 1538.0113,-189.5517 1547.5454,-194.1723 1548.346,-187.2182"/>
</g>
<!-- Node18&#45;&gt;Node17 -->
<g id="edge23" class="edge">
<title>Node18&#45;&gt;Node17</title>
<path fill="none" stroke="#191970" d="M1116.8688,-183.3227C1182.5364,-182.3487 1276.0367,-180.9618 1345.9268,-179.9251"/>
<polygon fill="#191970" stroke="#191970" points="1116.5234,-179.8274 1106.5764,-183.4754 1116.6273,-186.8266 1116.5234,-179.8274"/>
</g>
<!-- Node19 -->
<g id="node19" class="node">
<title>Node19</title>
<g id="a_node19"><a xlink:href="classgko_1_1EnableCreateMethod.html" target="_top" xlink:title=" ">
<polygon fill="#ffffff" stroke="#000000" points="1937,-.5 1937,-30.5 2119,-30.5 2119,-.5 1937,-.5"/>
<text text-anchor="start" x="1945" y="-18.5" font-family="Helvetica,sans-Serif" font-size="10.00" fill="#000000">gko::EnableCreateMethod</text>
<text text-anchor="middle" x="2028" y="-7.5" font-family="Helvetica,sans-Serif" font-size="10.00" fill="#000000">&lt; Csr&lt; ValueType, IndexType &gt; &gt;</text>
</a>
</g>
</g>
<!-- Node19&#45;&gt;Node1 -->
<g id="edge26" class="edge">
<title>Node19&#45;&gt;Node1</title>
<path fill="none" stroke="#191970" d="M2112.216,-32.4977C2131.7717,-36.4448 2152.4513,-40.6186 2171.552,-44.4738"/>
<polygon fill="#191970" stroke="#191970" points="2112.9083,-29.067 2102.4135,-30.5192 2111.5234,-35.9286 2112.9083,-29.067"/>
</g>
<!-- Node20 -->
<g id="node20" class="node">
<title>Node20</title>
<g id="a_node20"><a xlink:href="classgko_1_1EnableCreateMethod.html" target="_top" xlink:title="This mixin implements a static create() method on ConcreteType that dynamically allocates the memory,...">
<polygon fill="#ffffff" stroke="#000000" points="1579.5,-.5 1579.5,-30.5 1721.5,-30.5 1721.5,-.5 1579.5,-.5"/>
<text text-anchor="start" x="1587.5" y="-18.5" font-family="Helvetica,sans-Serif" font-size="10.00" fill="#000000">gko::EnableCreateMethod</text>
<text text-anchor="middle" x="1650.5" y="-7.5" font-family="Helvetica,sans-Serif" font-size="10.00" fill="#000000">&lt; ConcreteType &gt;</text>
</a>
</g>
</g>
<!-- Node20&#45;&gt;Node19 -->
<g id="edge27" class="edge">
<title>Node20&#45;&gt;Node19</title>
<path fill="none" stroke="#ffa500" stroke-dasharray="5,2" d="M1731.7457,-15.5C1792.0706,-15.5 1874.3743,-15.5 1936.9242,-15.5"/>
<polygon fill="#ffa500" stroke="#ffa500" points="1731.5049,-12.0001 1721.5049,-15.5 1731.5048,-19.0001 1731.5049,-12.0001"/>
<text text-anchor="middle" x="1827.5" y="-18.5" font-family="Helvetica,sans-Serif" font-size="10.00" fill="#000000"> &lt; Csr&lt; ValueType, IndexType &gt; &gt;</text>
</g>
<!-- Node21&#45;&gt;Node1 -->
<g id="edge28" class="edge">
<title>Node21&#45;&gt;Node1</title>
<path fill="none" stroke="#191970" d="M1336.2785,-52.3965C1398.8962,-55.8347 1483.0986,-59.5 1557.5,-59.5 1557.5,-59.5 1557.5,-59.5 2028,-59.5 2072.5651,-59.5 2122.2548,-59.5 2162.9264,-59.5"/>
<polygon fill="#191970" stroke="#191970" points="1336.2061,-48.8872 1326.0268,-51.8251 1335.8165,-55.8763 1336.2061,-48.8872"/>
</g>
</g>
</svg>
        <g id="navigator" transform="translate(0 0)" fill="#404254">
                <rect fill="#f2f5e9" fill-opacity="0.5" stroke="#606060" stroke-width=".5" x="0" y="0" width="60" height="60"/>
                <use id="zoomplus" xlink:href="#zoomPlus" x="17" y="9" onmousedown="handleZoom(evt,'in')"/>
                <use id="zoomminus" xlink:href="#zoomMin" x="42" y="9" onmousedown="handleZoom(evt,'out')"/>
                <use id="reset" xlink:href="#resetDef" x="30" y="36" onmousedown="handleReset()"/>
                <g id="arrowUp" xlink:href="#dirArrow" transform="translate(30 24)" onmousedown="handlePan(0,-1)">
                  <use xlink:href="#rim" fill="#404040">
                        <set attributeName="fill" to="#808080" begin="arrowUp.mouseover" end="arrowUp.mouseout"/>
                  </use>
                  <path fill="none" stroke="white" stroke-width="1.5" d="M0,-3.0v7 M-2.5,-0.5L0,-3.0L2.5,-0.5"/>
                </g>
                <g id="arrowRight" xlink:href="#dirArrow" transform="rotate(90) translate(36 -43)" onmousedown="handlePan(1,0)">
                  <use xlink:href="#rim" fill="#404040">
                        <set attributeName="fill" to="#808080" begin="arrowRight.mouseover" end="arrowRight.mouseout"/>
                  </use>
                  <path fill="none" stroke="white" stroke-width="1.5" d="M0,-3.0v7 M-2.5,-0.5L0,-3.0L2.5,-0.5"/>
                </g>
                <g id="arrowDown" xlink:href="#dirArrow" transform="rotate(180) translate(-30 -48)" onmousedown="handlePan(0,1)">
                  <use xlink:href="#rim" fill="#404040">
                        <set attributeName="fill" to="#808080" begin="arrowDown.mouseover" end="arrowDown.mouseout"/>
                  </use>
                  <path fill="none" stroke="white" stroke-width="1.5" d="M0,-3.0v7 M-2.5,-0.5L0,-3.0L2.5,-0.5"/>
                </g>
                <g id="arrowLeft" xlink:href="#dirArrow" transform="rotate(270) translate(-36 17)" onmousedown="handlePan(-1,0)">
                  <use xlink:href="#rim" fill="#404040">
                        <set attributeName="fill" to="#808080" begin="arrowLeft.mouseover" end="arrowLeft.mouseout"/>
                  </use>
                  <path fill="none" stroke="white" stroke-width="1.5" d="M0,-3.0v7 M-2.5,-0.5L0,-3.0L2.5,-0.5"/>
                </g>
        </g>
        <svg viewBox="0 0 15 15" width="100%" height="30px" preserveAspectRatio="xMaxYMin meet">
         <g id="arrow_out" transform="scale(0.3 0.3)">
          <a xlink:href="classgko_1_1batch_1_1matrix_1_1Csr__coll__graph_org.svg" target="_base">
           <rect id="button" ry="5" rx="5" y="6" x="6" height="38" width="38"
                fill="#f2f5e9" fill-opacity="0.5" stroke="#606060" stroke-width="1.0"/>
           <path id="arrow"
             d="M 11.500037,31.436501 C 11.940474,20.09759 22.043105,11.32322 32.158766,21.979434 L 37.068811,17.246167 C 37.068811,17.246167 37.088388,32 37.088388,32 L 22.160133,31.978069 C 22.160133,31.978069 26.997745,27.140456 26.997745,27.140456 C 18.528582,18.264221 13.291696,25.230495 11.500037,31.436501 z"
             style="fill:#404040;"/>
          </a>
         </g>
        </svg>
</svg>
