<?xml version="1.0" encoding="UTF-8" standalone="no"?>
<!DOCTYPE svg PUBLIC "-//W3C//DTD SVG 1.1//EN"
 "http://www.w3.org/Graphics/SVG/1.1/DTD/svg11.dtd">
<!-- Generated by graphviz version 2.40.1 (20161225.0304)
 -->
<!-- Title: gko::solver::Cgs&lt; ValueType &gt; Pages: 1 -->
<svg width="2422pt" height="544pt"
 viewBox="0.00 0.00 2422.00 544.00" xmlns="http://www.w3.org/2000/svg" xmlns:xlink="http://www.w3.org/1999/xlink">
<g id="graph0" class="graph" transform="scale(1 1) rotate(0) translate(4 540)">
<title>gko::solver::Cgs&lt; ValueType &gt;</title>
<polygon fill="#ffffff" stroke="transparent" points="-4,4 -4,-540 2418,-540 2418,4 -4,4"/>
<!-- Node1 -->
<g id="node1" class="node">
<title>Node1</title>
<g id="a_node1"><a xlink:title="CGS or the conjugate gradient square method is an iterative type Krylov subspace method which is suit...">
<polygon fill="#bfbfbf" stroke="#000000" points="2247,-130.5 2247,-149.5 2414,-149.5 2414,-130.5 2247,-130.5"/>
<text text-anchor="middle" x="2330.5" y="-137.5" font-family="Helvetica,sans-Serif" font-size="10.00" fill="#000000">gko::solver::Cgs&lt; ValueType &gt;</text>
</a>
</g>
</g>
<!-- Node2 -->
<g id="node2" class="node">
<title>Node2</title>
<g id="a_node2"><a xlink:href="classgko_1_1EnableLinOp.html" target="_top" xlink:title=" ">
<polygon fill="#ffffff" stroke="#000000" points="2053.5,-298 2053.5,-328 2184.5,-328 2184.5,-298 2053.5,-298"/>
<text text-anchor="start" x="2061.5" y="-316" font-family="Helvetica,sans-Serif" font-size="10.00" fill="#000000">gko::EnableLinOp&lt; Cgs</text>
<text text-anchor="middle" x="2119" y="-305" font-family="Helvetica,sans-Serif" font-size="10.00" fill="#000000">&lt; ValueType &gt; &gt;</text>
</a>
</g>
</g>
<!-- Node2&#45;&gt;Node1 -->
<g id="edge1" class="edge">
<title>Node2&#45;&gt;Node1</title>
<path fill="none" stroke="#191970" d="M2145.1917,-291.5761C2191.4786,-253.7149 2285.9582,-176.4337 2318.8778,-149.5065"/>
<polygon fill="#191970" stroke="#191970" points="2142.9237,-288.9095 2137.3993,-297.95 2147.3557,-294.3277 2142.9237,-288.9095"/>
</g>
<!-- Node3 -->
<g id="node3" class="node">
<title>Node3</title>
<g id="a_node3"><a xlink:href="classgko_1_1EnablePolymorphicObject.html" target="_top" xlink:title=" ">
<polygon fill="#ffffff" stroke="#000000" points="1641.5,-325 1641.5,-355 1807.5,-355 1807.5,-325 1641.5,-325"/>
<text text-anchor="start" x="1649.5" y="-343" font-family="Helvetica,sans-Serif" font-size="10.00" fill="#000000">gko::EnablePolymorphicObject</text>
<text text-anchor="middle" x="1724.5" y="-332" font-family="Helvetica,sans-Serif" font-size="10.00" fill="#000000">&lt; Cgs&lt; ValueType &gt;, LinOp &gt;</text>
</a>
</g>
</g>
<!-- Node3&#45;&gt;Node2 -->
<g id="edge2" class="edge">
<title>Node3&#45;&gt;Node2</title>
<path fill="none" stroke="#191970" d="M1817.7233,-333.6197C1890.1689,-328.6614 1988.8403,-321.9083 2053.2155,-317.5024"/>
<polygon fill="#191970" stroke="#191970" points="1817.4189,-330.1322 1807.6813,-334.307 1817.8969,-337.1159 1817.4189,-330.1322"/>
</g>
<!-- Node4 -->
<g id="node4" class="node">
<title>Node4</title>
<g id="a_node4"><a xlink:href="classgko_1_1EnableAbstractPolymorphicObject.html" target="_top" xlink:title=" ">
<polygon fill="#ffffff" stroke="#000000" points="1289,-471.5 1289,-512.5 1464,-512.5 1464,-471.5 1289,-471.5"/>
<text text-anchor="start" x="1297" y="-500.5" font-family="Helvetica,sans-Serif" font-size="10.00" fill="#000000">gko::EnableAbstractPolymorphic</text>
<text text-anchor="start" x="1297" y="-489.5" font-family="Helvetica,sans-Serif" font-size="10.00" fill="#000000">Object&lt; Cgs&lt; ValueType &gt;,</text>
<text text-anchor="middle" x="1376.5" y="-478.5" font-family="Helvetica,sans-Serif" font-size="10.00" fill="#000000"> LinOp &gt;</text>
</a>
</g>
</g>
<!-- Node4&#45;&gt;Node3 -->
<g id="edge3" class="edge">
<title>Node4&#45;&gt;Node3</title>
<path fill="none" stroke="#191970" d="M1452.8059,-468.1132C1461.0275,-465.193 1469.2247,-462.1301 1477,-459 1558.3796,-426.2389 1650.6349,-379.0963 1696.0913,-355.17"/>
<polygon fill="#191970" stroke="#191970" points="1451.4589,-464.8761 1443.167,-471.4712 1453.7618,-471.4864 1451.4589,-464.8761"/>
</g>
<!-- Node5 -->
<g id="node5" class="node">
<title>Node5</title>
<g id="a_node5"><a xlink:href="classgko_1_1LinOp.html" target="_top" xlink:title=" ">
<polygon fill="#ffffff" stroke="#000000" points="950.5,-482.5 950.5,-501.5 1018.5,-501.5 1018.5,-482.5 950.5,-482.5"/>
<text text-anchor="middle" x="984.5" y="-489.5" font-family="Helvetica,sans-Serif" font-size="10.00" fill="#000000">gko::LinOp</text>
</a>
</g>
</g>
<!-- Node5&#45;&gt;Node4 -->
<g id="edge4" class="edge">
<title>Node5&#45;&gt;Node4</title>
<path fill="none" stroke="#191970" d="M1028.9667,-492C1091.8762,-492 1208.1665,-492 1288.805,-492"/>
<polygon fill="#191970" stroke="#191970" points="1028.6017,-488.5001 1018.6017,-492 1028.6017,-495.5001 1028.6017,-488.5001"/>
</g>
<!-- Node6 -->
<g id="node6" class="node">
<title>Node6</title>
<g id="a_node6"><a xlink:href="classgko_1_1EnableAbstractPolymorphicObject.html" target="_top" xlink:title=" ">
<polygon fill="#ffffff" stroke="#ff0000" points="542,-457 542,-487 717,-487 717,-457 542,-457"/>
<text text-anchor="start" x="550" y="-475" font-family="Helvetica,sans-Serif" font-size="10.00" fill="#000000">gko::EnableAbstractPolymorphic</text>
<text text-anchor="middle" x="629.5" y="-464" font-family="Helvetica,sans-Serif" font-size="10.00" fill="#000000">Object&lt; LinOp &gt;</text>
</a>
</g>
</g>
<!-- Node6&#45;&gt;Node5 -->
<g id="edge5" class="edge">
<title>Node6&#45;&gt;Node5</title>
<path fill="none" stroke="#191970" d="M727.5779,-477.5255C801.9039,-481.7129 899.6356,-487.2189 950.4687,-490.0827"/>
<polygon fill="#191970" stroke="#191970" points="727.4339,-474.0119 717.2528,-476.9438 727.0401,-481.0009 727.4339,-474.0119"/>
</g>
<!-- Node12 -->
<g id="node7" class="node">
<title>Node12</title>
<g id="a_node7"><a xlink:href="classgko_1_1EnableAbstractPolymorphicObject.html" target="_top" xlink:title="This mixin inherits from (a subclass of) PolymorphicObject and provides a base implementation of a ne...">
<polygon fill="#ffffff" stroke="#000000" points="138,-382.5 138,-423.5 336,-423.5 336,-382.5 138,-382.5"/>
<text text-anchor="start" x="146" y="-411.5" font-family="Helvetica,sans-Serif" font-size="10.00" fill="#000000">gko::EnableAbstractPolymorphic</text>
<text text-anchor="start" x="146" y="-400.5" font-family="Helvetica,sans-Serif" font-size="10.00" fill="#000000">Object&lt; AbstractObject, Polymorphic</text>
<text text-anchor="middle" x="237" y="-389.5" font-family="Helvetica,sans-Serif" font-size="10.00" fill="#000000">Base &gt;</text>
</a>
</g>
</g>
<!-- Node12&#45;&gt;Node4 -->
<g id="edge8" class="edge">
<title>Node12&#45;&gt;Node4</title>
<path fill="none" stroke="#ffa500" stroke-dasharray="5,2" d="M274.2858,-429.0763C296.4662,-443.3531 325.718,-460.1046 354,-470 428.2825,-495.9903 450.667,-489.4285 529,-497 775.9272,-520.8676 838.9485,-514.6257 1087,-511 1163.0244,-509.8888 1182.1723,-511.5769 1258,-506 1268.0202,-505.263 1278.4969,-504.3028 1288.8976,-503.2304"/>
<polygon fill="#ffa500" stroke="#ffa500" points="276.1276,-426.0987 265.8455,-423.5434 272.2899,-431.9529 276.1276,-426.0987"/>
<text text-anchor="start" x="752" y="-528" font-family="Helvetica,sans-Serif" font-size="10.00" fill="#000000"> &lt; Cgs&lt; ValueType &gt;,</text>
<text text-anchor="middle" x="806" y="-517" font-family="Helvetica,sans-Serif" font-size="10.00" fill="#000000"> LinOp &gt;</text>
</g>
<!-- Node12&#45;&gt;Node6 -->
<g id="edge6" class="edge">
<title>Node12&#45;&gt;Node6</title>
<path fill="none" stroke="#ffa500" stroke-dasharray="5,2" d="M336.5681,-425.5779C342.4585,-426.7731 348.3022,-427.9234 354,-429 416.5509,-440.8191 487.5337,-451.8418 541.7812,-459.7678"/>
<polygon fill="#ffa500" stroke="#ffa500" points="337.1293,-422.12 326.6286,-423.5291 335.7161,-428.9759 337.1293,-422.12"/>
<text text-anchor="middle" x="432.5" y="-458" font-family="Helvetica,sans-Serif" font-size="10.00" fill="#000000"> &lt; LinOp &gt;</text>
</g>
<!-- Node14 -->
<g id="node10" class="node">
<title>Node14</title>
<g id="a_node10"><a xlink:href="classgko_1_1EnableAbstractPolymorphicObject.html" target="_top" xlink:title=" ">
<polygon fill="#ffffff" stroke="#000000" points="529,-310.5 529,-351.5 730,-351.5 730,-310.5 529,-310.5"/>
<text text-anchor="start" x="537" y="-339.5" font-family="Helvetica,sans-Serif" font-size="10.00" fill="#000000">gko::EnableAbstractPolymorphic</text>
<text text-anchor="start" x="537" y="-328.5" font-family="Helvetica,sans-Serif" font-size="10.00" fill="#000000">Object&lt; ConcreteObject, Polymorphic</text>
<text text-anchor="middle" x="629.5" y="-317.5" font-family="Helvetica,sans-Serif" font-size="10.00" fill="#000000">Base &gt;</text>
</a>
</g>
</g>
<!-- Node12&#45;&gt;Node14 -->
<g id="edge12" class="edge">
<title>Node12&#45;&gt;Node14</title>
<path fill="none" stroke="#ffa500" stroke-dasharray="5,2" d="M346.178,-402.1925C396.8987,-399.7999 457.6519,-394.0381 511,-381 518.5376,-379.1578 552.8254,-364.5754 582.5922,-351.6309"/>
<polygon fill="#ffa500" stroke="#ffa500" points="346.0114,-398.6964 336.1728,-402.6273 346.3153,-405.6898 346.0114,-398.6964"/>
<text text-anchor="start" x="354" y="-415" font-family="Helvetica,sans-Serif" font-size="10.00" fill="#000000"> &lt; ConcreteObject, Polymorphic</text>
<text text-anchor="middle" x="432.5" y="-404" font-family="Helvetica,sans-Serif" font-size="10.00" fill="#000000">Base &gt;</text>
</g>
<!-- Node21 -->
<g id="node17" class="node">
<title>Node21</title>
<g id="a_node17"><a xlink:href="classgko_1_1EnableAbstractPolymorphicObject.html" target="_top" xlink:title=" ">
<polygon fill="#ffffff" stroke="#000000" points="531,-250.5 531,-291.5 728,-291.5 728,-250.5 531,-250.5"/>
<text text-anchor="start" x="539" y="-279.5" font-family="Helvetica,sans-Serif" font-size="10.00" fill="#000000">gko::EnableAbstractPolymorphic</text>
<text text-anchor="start" x="539" y="-268.5" font-family="Helvetica,sans-Serif" font-size="10.00" fill="#000000">Object&lt; ConcreteLinOp, Polymorphic</text>
<text text-anchor="middle" x="629.5" y="-257.5" font-family="Helvetica,sans-Serif" font-size="10.00" fill="#000000">Base &gt;</text>
</a>
</g>
</g>
<!-- Node12&#45;&gt;Node21 -->
<g id="edge22" class="edge">
<title>Node12&#45;&gt;Node21</title>
<path fill="none" stroke="#ffa500" stroke-dasharray="5,2" d="M293.8417,-378.4787C312.8303,-370.6099 334.1986,-362.1007 354,-355 430.6192,-327.5249 451.1125,-324.6414 529,-301 539.1058,-297.9326 549.7911,-294.7152 560.2746,-291.5732"/>
<polygon fill="#ffa500" stroke="#ffa500" points="292.3207,-375.3208 284.4402,-382.4022 295.0168,-381.7808 292.3207,-375.3208"/>
<text text-anchor="start" x="356" y="-369" font-family="Helvetica,sans-Serif" font-size="10.00" fill="#000000"> &lt; ConcreteLinOp, Polymorphic</text>
<text text-anchor="middle" x="432.5" y="-358" font-family="Helvetica,sans-Serif" font-size="10.00" fill="#000000">Base &gt;</text>
</g>
<!-- Node11 -->
<g id="node8" class="node">
<title>Node11</title>
<g id="a_node8"><a xlink:title=" ">
<polygon fill="#ffffff" stroke="#bfbfbf" points="0,-315.5 0,-334.5 101,-334.5 101,-315.5 0,-315.5"/>
<text text-anchor="middle" x="50.5" y="-322.5" font-family="Helvetica,sans-Serif" font-size="10.00" fill="#000000">PolymorphicBase</text>
</a>
</g>
</g>
<!-- Node11&#45;&gt;Node12 -->
<g id="edge7" class="edge">
<title>Node11&#45;&gt;Node12</title>
<path fill="none" stroke="#191970" d="M82.5985,-338.4246C111.5007,-350.5123 154.4214,-368.4631 187.6791,-382.3725"/>
<polygon fill="#191970" stroke="#191970" points="83.9447,-335.1939 73.3686,-334.5643 81.2437,-341.6518 83.9447,-335.1939"/>
</g>
<!-- Node11&#45;&gt;Node14 -->
<g id="edge11" class="edge">
<title>Node11&#45;&gt;Node14</title>
<path fill="none" stroke="#191970" d="M111.2841,-325.6299C210.5662,-326.6587 408.5048,-328.7099 528.9546,-329.9581"/>
<polygon fill="#191970" stroke="#191970" points="111.1578,-322.1285 101.122,-325.5246 111.0852,-329.1281 111.1578,-322.1285"/>
</g>
<!-- Node11&#45;&gt;Node21 -->
<g id="edge21" class="edge">
<title>Node11&#45;&gt;Node21</title>
<path fill="none" stroke="#191970" d="M111.3374,-319.326C211.1572,-310.0164 410.602,-291.4154 530.8406,-280.2014"/>
<polygon fill="#191970" stroke="#191970" points="110.7537,-315.8652 101.122,-320.2788 111.4038,-322.835 110.7537,-315.8652"/>
</g>
<!-- Node13 -->
<g id="node9" class="node">
<title>Node13</title>
<g id="a_node9"><a xlink:href="classgko_1_1EnablePolymorphicObject.html" target="_top" xlink:title="This mixin inherits from (a subclass of) PolymorphicObject and provides a base implementation of a ne...">
<polygon fill="#ffffff" stroke="#000000" points="882,-286 882,-316 1087,-316 1087,-286 882,-286"/>
<text text-anchor="start" x="890" y="-304" font-family="Helvetica,sans-Serif" font-size="10.00" fill="#000000">gko::EnablePolymorphicObject</text>
<text text-anchor="middle" x="984.5" y="-293" font-family="Helvetica,sans-Serif" font-size="10.00" fill="#000000">&lt; ConcreteObject, PolymorphicBase &gt;</text>
</a>
</g>
</g>
<!-- Node13&#45;&gt;Node3 -->
<g id="edge9" class="edge">
<title>Node13&#45;&gt;Node3</title>
<path fill="none" stroke="#ffa500" stroke-dasharray="5,2" d="M1097.2031,-314.3601C1099.826,-314.5851 1102.4279,-314.799 1105,-315 1296.5526,-329.9712 1522.1672,-336.2191 1641.2144,-338.6299"/>
<polygon fill="#ffa500" stroke="#ffa500" points="1097.2744,-310.8525 1087.0006,-313.4408 1096.6461,-317.8242 1097.2744,-310.8525"/>
<text text-anchor="start" x="1322.5" y="-348" font-family="Helvetica,sans-Serif" font-size="10.00" fill="#000000"> &lt; Cgs&lt; ValueType &gt;,</text>
<text text-anchor="middle" x="1376.5" y="-337" font-family="Helvetica,sans-Serif" font-size="10.00" fill="#000000"> LinOp &gt;</text>
</g>
<!-- Node20 -->
<g id="node16" class="node">
<title>Node20</title>
<g id="a_node16"><a xlink:href="classgko_1_1EnablePolymorphicObject.html" target="_top" xlink:title=" ">
<polygon fill="#ffffff" stroke="#000000" points="1276,-262 1276,-292 1477,-292 1477,-262 1276,-262"/>
<text text-anchor="start" x="1284" y="-280" font-family="Helvetica,sans-Serif" font-size="10.00" fill="#000000">gko::EnablePolymorphicObject</text>
<text text-anchor="middle" x="1376.5" y="-269" font-family="Helvetica,sans-Serif" font-size="10.00" fill="#000000">&lt; ConcreteLinOp, PolymorphicBase &gt;</text>
</a>
</g>
</g>
<!-- Node13&#45;&gt;Node20 -->
<g id="edge23" class="edge">
<title>Node13&#45;&gt;Node20</title>
<path fill="none" stroke="#ffa500" stroke-dasharray="5,2" d="M1097.227,-293.49C1099.8427,-293.3242 1102.4367,-293.1606 1105,-293 1161.5497,-289.4566 1224.7398,-285.7195 1275.9195,-282.7489"/>
<polygon fill="#ffa500" stroke="#ffa500" points="1096.805,-290.0098 1087.0483,-294.1398 1097.251,-296.9955 1096.805,-290.0098"/>
<text text-anchor="start" x="1105" y="-307" font-family="Helvetica,sans-Serif" font-size="10.00" fill="#000000"> &lt; ConcreteLinOp, Polymorphic</text>
<text text-anchor="middle" x="1181.5" y="-296" font-family="Helvetica,sans-Serif" font-size="10.00" fill="#000000">Base &gt;</text>
</g>
<!-- Node14&#45;&gt;Node13 -->
<g id="edge10" class="edge">
<title>Node14&#45;&gt;Node13</title>
<path fill="none" stroke="#191970" d="M740.4173,-321.6267C785.6374,-317.8053 837.6002,-313.4141 881.9272,-309.6681"/>
<polygon fill="#191970" stroke="#191970" points="739.9489,-318.1537 730.2792,-322.4834 740.5384,-325.1289 739.9489,-318.1537"/>
</g>
<!-- Node15 -->
<g id="node11" class="node">
<title>Node15</title>
<g id="a_node11"><a xlink:href="classgko_1_1EnablePolymorphicAssignment.html" target="_top" xlink:title=" ">
<polygon fill="#ffffff" stroke="#000000" points="1280.5,-419 1280.5,-449 1472.5,-449 1472.5,-419 1280.5,-419"/>
<text text-anchor="start" x="1288.5" y="-437" font-family="Helvetica,sans-Serif" font-size="10.00" fill="#000000">gko::EnablePolymorphicAssignment</text>
<text text-anchor="middle" x="1376.5" y="-426" font-family="Helvetica,sans-Serif" font-size="10.00" fill="#000000">&lt; Cgs&lt; ValueType &gt; &gt;</text>
</a>
</g>
</g>
<!-- Node15&#45;&gt;Node2 -->
<g id="edge13" class="edge">
<title>Node15&#45;&gt;Node2</title>
<path fill="none" stroke="#191970" d="M1482.5627,-421.4082C1608.8135,-405.6951 1825.7393,-376.4054 2010,-340 2027.2132,-336.5991 2045.7954,-332.2524 2062.6565,-328.0452"/>
<polygon fill="#191970" stroke="#191970" points="1482.0009,-417.951 1472.5076,-422.6548 1482.8622,-424.8978 1482.0009,-417.951"/>
</g>
<!-- Node16 -->
<g id="node12" class="node">
<title>Node16</title>
<g id="a_node12"><a xlink:href="classgko_1_1ConvertibleTo.html" target="_top" xlink:title=" ">
<polygon fill="#ffffff" stroke="#000000" points="920,-433 920,-463 1049,-463 1049,-433 920,-433"/>
<text text-anchor="start" x="928" y="-451" font-family="Helvetica,sans-Serif" font-size="10.00" fill="#000000">gko::ConvertibleTo</text>
<text text-anchor="middle" x="984.5" y="-440" font-family="Helvetica,sans-Serif" font-size="10.00" fill="#000000">&lt; Cgs&lt; ValueType &gt; &gt;</text>
</a>
</g>
</g>
<!-- Node16&#45;&gt;Node15 -->
<g id="edge14" class="edge">
<title>Node16&#45;&gt;Node15</title>
<path fill="none" stroke="#191970" d="M1059.4609,-445.3228C1122.2835,-443.0792 1212.3696,-439.8618 1280.4688,-437.4297"/>
<polygon fill="#191970" stroke="#191970" points="1059.0995,-441.8334 1049.2308,-445.6882 1059.3494,-448.8289 1059.0995,-441.8334"/>
</g>
<!-- Node17 -->
<g id="node13" class="node">
<title>Node17</title>
<g id="a_node13"><a xlink:href="classgko_1_1ConvertibleTo.html" target="_top" xlink:title="ConvertibleTo interface is used to mark that the implementer can be converted to the object of Result...">
<polygon fill="#ffffff" stroke="#000000" points="576,-384 576,-414 683,-414 683,-384 576,-384"/>
<text text-anchor="start" x="584" y="-402" font-family="Helvetica,sans-Serif" font-size="10.00" fill="#000000">gko::ConvertibleTo</text>
<text text-anchor="middle" x="629.5" y="-391" font-family="Helvetica,sans-Serif" font-size="10.00" fill="#000000">&lt; ResultType &gt;</text>
</a>
</g>
</g>
<!-- Node17&#45;&gt;Node16 -->
<g id="edge15" class="edge">
<title>Node17&#45;&gt;Node16</title>
<path fill="none" stroke="#ffa500" stroke-dasharray="5,2" d="M693.0114,-407.7664C757.0976,-416.6121 855.543,-430.2003 919.985,-439.0951"/>
<polygon fill="#ffa500" stroke="#ffa500" points="693.4161,-404.2891 683.0315,-406.3888 692.4589,-411.2234 693.4161,-404.2891"/>
<text text-anchor="middle" x="806" y="-433" font-family="Helvetica,sans-Serif" font-size="10.00" fill="#000000"> &lt; Cgs&lt; ValueType &gt; &gt;</text>
</g>
<!-- Node18 -->
<g id="node14" class="node">
<title>Node18</title>
<g id="a_node14"><a xlink:href="classgko_1_1EnablePolymorphicAssignment.html" target="_top" xlink:title="This mixin is used to enable a default PolymorphicObject::copy_from() implementation for objects that...">
<polygon fill="#ffffff" stroke="#000000" points="888.5,-384 888.5,-414 1080.5,-414 1080.5,-384 888.5,-384"/>
<text text-anchor="start" x="896.5" y="-402" font-family="Helvetica,sans-Serif" font-size="10.00" fill="#000000">gko::EnablePolymorphicAssignment</text>
<text text-anchor="middle" x="984.5" y="-391" font-family="Helvetica,sans-Serif" font-size="10.00" fill="#000000">&lt; ConcreteType, ResultType &gt;</text>
</a>
</g>
</g>
<!-- Node17&#45;&gt;Node18 -->
<g id="edge17" class="edge">
<title>Node17&#45;&gt;Node18</title>
<path fill="none" stroke="#191970" d="M693.2108,-399C747.4986,-399 826.3367,-399 888.3076,-399"/>
<polygon fill="#191970" stroke="#191970" points="693.0315,-395.5001 683.0315,-399 693.0314,-402.5001 693.0315,-395.5001"/>
</g>
<!-- Node23 -->
<g id="node19" class="node">
<title>Node23</title>
<g id="a_node19"><a xlink:href="classgko_1_1ConvertibleTo.html" target="_top" xlink:title=" ">
<polygon fill="#ffffff" stroke="#000000" points="929.5,-335 929.5,-365 1039.5,-365 1039.5,-335 929.5,-335"/>
<text text-anchor="start" x="937.5" y="-353" font-family="Helvetica,sans-Serif" font-size="10.00" fill="#000000">gko::ConvertibleTo</text>
<text text-anchor="middle" x="984.5" y="-342" font-family="Helvetica,sans-Serif" font-size="10.00" fill="#000000">&lt; ConcreteLinOp &gt;</text>
</a>
</g>
</g>
<!-- Node17&#45;&gt;Node23 -->
<g id="edge26" class="edge">
<title>Node17&#45;&gt;Node23</title>
<path fill="none" stroke="#ffa500" stroke-dasharray="5,2" d="M693.0839,-390.2236C760.3684,-380.9365 865.4684,-366.4297 929.3622,-357.6106"/>
<polygon fill="#ffa500" stroke="#ffa500" points="692.4589,-386.7766 683.0315,-391.6112 693.4161,-393.7109 692.4589,-386.7766"/>
<text text-anchor="middle" x="806" y="-384" font-family="Helvetica,sans-Serif" font-size="10.00" fill="#000000"> &lt; ConcreteLinOp &gt;</text>
</g>
<!-- Node18&#45;&gt;Node15 -->
<g id="edge16" class="edge">
<title>Node18&#45;&gt;Node15</title>
<path fill="none" stroke="#ffa500" stroke-dasharray="5,2" d="M1090.6896,-408.1931C1141.3499,-412.6109 1202.8138,-418.0173 1258,-423 1265.3051,-423.6596 1272.8629,-424.3477 1280.4628,-425.0439"/>
<polygon fill="#ffa500" stroke="#ffa500" points="1090.9728,-404.7046 1080.7067,-407.3231 1090.365,-411.6782 1090.9728,-404.7046"/>
<text text-anchor="middle" x="1181.5" y="-426" font-family="Helvetica,sans-Serif" font-size="10.00" fill="#000000"> &lt; Cgs&lt; ValueType &gt; &gt;</text>
</g>
<!-- Node22 -->
<g id="node18" class="node">
<title>Node22</title>
<g id="a_node18"><a xlink:href="classgko_1_1EnablePolymorphicAssignment.html" target="_top" xlink:title=" ">
<polygon fill="#ffffff" stroke="#000000" points="1280.5,-370 1280.5,-400 1472.5,-400 1472.5,-370 1280.5,-370"/>
<text text-anchor="start" x="1288.5" y="-388" font-family="Helvetica,sans-Serif" font-size="10.00" fill="#000000">gko::EnablePolymorphicAssignment</text>
<text text-anchor="middle" x="1376.5" y="-377" font-family="Helvetica,sans-Serif" font-size="10.00" fill="#000000">&lt; ConcreteLinOp &gt;</text>
</a>
</g>
</g>
<!-- Node18&#45;&gt;Node22 -->
<g id="edge27" class="edge">
<title>Node18&#45;&gt;Node22</title>
<path fill="none" stroke="#ffa500" stroke-dasharray="5,2" d="M1091.1289,-389.7606C1095.8145,-389.4778 1100.4544,-389.2218 1105,-389 1163.1493,-386.1621 1228.3801,-385.1314 1280.3266,-384.8247"/>
<polygon fill="#ffa500" stroke="#ffa500" points="1090.5734,-386.2888 1080.817,-390.4195 1091.0198,-393.2746 1090.5734,-386.2888"/>
<text text-anchor="middle" x="1181.5" y="-392" font-family="Helvetica,sans-Serif" font-size="10.00" fill="#000000"> &lt; ConcreteLinOp &gt;</text>
</g>
<!-- Node19 -->
<g id="node15" class="node">
<title>Node19</title>
<g id="a_node15"><a xlink:href="classgko_1_1EnableLinOp.html" target="_top" xlink:title="The EnableLinOp mixin can be used to provide sensible default implementations of the majority of the ...">
<polygon fill="#ffffff" stroke="#000000" points="1646.5,-276 1646.5,-306 1802.5,-306 1802.5,-276 1646.5,-276"/>
<text text-anchor="start" x="1654.5" y="-294" font-family="Helvetica,sans-Serif" font-size="10.00" fill="#000000">gko::EnableLinOp&lt; Concrete</text>
<text text-anchor="middle" x="1724.5" y="-283" font-family="Helvetica,sans-Serif" font-size="10.00" fill="#000000">LinOp, PolymorphicBase &gt;</text>
</a>
</g>
</g>
<!-- Node19&#45;&gt;Node2 -->
<g id="edge18" class="edge">
<title>Node19&#45;&gt;Node2</title>
<path fill="none" stroke="#ffa500" stroke-dasharray="5,2" d="M1813.0156,-294.1885C1869.4221,-296.4286 1944.0403,-299.7766 2010,-304 2024.0224,-304.8978 2039.0458,-306.0286 2053.3199,-307.1827"/>
<polygon fill="#ffa500" stroke="#ffa500" points="1812.8312,-290.6786 1802.7014,-293.7831 1812.5562,-297.6732 1812.8312,-290.6786"/>
<text text-anchor="middle" x="1924" y="-307" font-family="Helvetica,sans-Serif" font-size="10.00" fill="#000000"> &lt; Cgs&lt; ValueType &gt; &gt;</text>
</g>
<!-- Node20&#45;&gt;Node19 -->
<g id="edge19" class="edge">
<title>Node20&#45;&gt;Node19</title>
<path fill="none" stroke="#191970" d="M1487.39,-281.4611C1539.1678,-283.5441 1599.5698,-285.9741 1646.4511,-287.8601"/>
<polygon fill="#191970" stroke="#191970" points="1487.2887,-277.9543 1477.156,-281.0494 1487.0072,-284.9486 1487.2887,-277.9543"/>
</g>
<!-- Node21&#45;&gt;Node20 -->
<g id="edge20" class="edge">
<title>Node21&#45;&gt;Node20</title>
<path fill="none" stroke="#191970" d="M738.5199,-271.8757C882.9629,-273.0358 1135.7919,-275.0666 1275.8823,-276.1918"/>
<polygon fill="#191970" stroke="#191970" points="738.3381,-268.3742 728.3103,-271.7937 738.2818,-275.374 738.3381,-268.3742"/>
</g>
<!-- Node22&#45;&gt;Node19 -->
<g id="edge24" class="edge">
<title>Node22&#45;&gt;Node19</title>
<path fill="none" stroke="#191970" d="M1441.0225,-367.1634C1492.0106,-353.1178 1565.0015,-333.1206 1629,-316 1641.1689,-312.7446 1654.2225,-309.2978 1666.6495,-306.0377"/>
<polygon fill="#191970" stroke="#191970" points="1439.838,-363.8593 1431.1274,-369.8906 1441.6979,-370.6077 1439.838,-363.8593"/>
</g>
<!-- Node23&#45;&gt;Node22 -->
<g id="edge25" class="edge">
<title>Node23&#45;&gt;Node22</title>
<path fill="none" stroke="#191970" d="M1050.0239,-355.8504C1112.9342,-361.4673 1208.7021,-370.018 1280.2698,-376.408"/>
<polygon fill="#191970" stroke="#191970" points="1050.1043,-352.3437 1039.8326,-354.9404 1049.4817,-359.316 1050.1043,-352.3437"/>
</g>
<!-- Node24 -->
<g id="node20" class="node">
<title>Node24</title>
<g id="a_node20"><a xlink:href="classgko_1_1solver_1_1EnablePreconditionedIterativeSolver.html" target="_top" xlink:title=" ">
<polygon fill="#ffffff" stroke="#000000" points="2028,-119.5 2028,-160.5 2210,-160.5 2210,-119.5 2028,-119.5"/>
<text text-anchor="start" x="2036" y="-148.5" font-family="Helvetica,sans-Serif" font-size="10.00" fill="#000000">gko::solver::EnablePreconditioned</text>
<text text-anchor="start" x="2036" y="-137.5" font-family="Helvetica,sans-Serif" font-size="10.00" fill="#000000">IterativeSolver&lt; ValueType,</text>
<text text-anchor="middle" x="2119" y="-126.5" font-family="Helvetica,sans-Serif" font-size="10.00" fill="#000000"> Cgs&lt; ValueType &gt; &gt;</text>
</a>
</g>
</g>
<!-- Node24&#45;&gt;Node1 -->
<g id="edge28" class="edge">
<title>Node24&#45;&gt;Node1</title>
<path fill="none" stroke="#191970" d="M2220.2715,-140C2229.1937,-140 2238.1586,-140 2246.9114,-140"/>
<polygon fill="#191970" stroke="#191970" points="2220.2297,-136.5001 2210.2296,-140 2220.2296,-143.5001 2220.2297,-136.5001"/>
</g>
<!-- Node25 -->
<g id="node21" class="node">
<title>Node25</title>
<g id="a_node21"><a xlink:href="classgko_1_1solver_1_1EnableSolverBase.html" target="_top" xlink:title=" ">
<polygon fill="#ffffff" stroke="#000000" points="1300,-76 1300,-106 1453,-106 1453,-76 1300,-76"/>
<text text-anchor="start" x="1308" y="-94" font-family="Helvetica,sans-Serif" font-size="10.00" fill="#000000">gko::solver::EnableSolver</text>
<text text-anchor="middle" x="1376.5" y="-83" font-family="Helvetica,sans-Serif" font-size="10.00" fill="#000000">Base&lt; Cgs&lt; ValueType &gt; &gt;</text>
</a>
</g>
</g>
<!-- Node25&#45;&gt;Node24 -->
<g id="edge29" class="edge">
<title>Node25&#45;&gt;Node24</title>
<path fill="none" stroke="#191970" d="M1463.1927,-93.2481C1552.6535,-95.912 1696.2047,-101.1451 1820,-110 1889.8602,-114.997 1968.6771,-123.0033 2027.8444,-129.4885"/>
<polygon fill="#191970" stroke="#191970" points="1463.1931,-89.7467 1453.0946,-92.9515 1462.9875,-96.7437 1463.1931,-89.7467"/>
</g>
<!-- Node26 -->
<g id="node22" class="node">
<title>Node26</title>
<g id="a_node22"><a xlink:href="classgko_1_1solver_1_1SolverBase.html" target="_top" xlink:title=" ">
<polygon fill="#ffffff" stroke="#000000" points="919,-58 919,-88 1050,-88 1050,-58 919,-58"/>
<text text-anchor="start" x="927" y="-76" font-family="Helvetica,sans-Serif" font-size="10.00" fill="#000000">gko::solver::SolverBase</text>
<text text-anchor="middle" x="984.5" y="-65" font-family="Helvetica,sans-Serif" font-size="10.00" fill="#000000">&lt; LinOp &gt;</text>
</a>
</g>
</g>
<!-- Node26&#45;&gt;Node25 -->
<g id="edge30" class="edge">
<title>Node26&#45;&gt;Node25</title>
<path fill="none" stroke="#191970" d="M1060.1263,-68.7661C1115.115,-66.5834 1191.2931,-65.4103 1258,-71 1271.6181,-72.1411 1286.0251,-74.0076 1299.9257,-76.1536"/>
<polygon fill="#191970" stroke="#191970" points="1059.9577,-65.27 1050.1124,-69.184 1060.2496,-72.2639 1059.9577,-65.27"/>
</g>
<!-- Node37 -->
<g id="node33" class="node">
<title>Node37</title>
<g id="a_node33"><a xlink:href="classgko_1_1solver_1_1EnableSolverBase.html" target="_top" xlink:title=" ">
<polygon fill="#ffffff" stroke="#000000" points="1306.5,-125 1306.5,-155 1446.5,-155 1446.5,-125 1306.5,-125"/>
<text text-anchor="start" x="1314.5" y="-143" font-family="Helvetica,sans-Serif" font-size="10.00" fill="#000000">gko::solver::EnableSolver</text>
<text text-anchor="middle" x="1376.5" y="-132" font-family="Helvetica,sans-Serif" font-size="10.00" fill="#000000">Base&lt; DerivedType &gt;</text>
</a>
</g>
</g>
<!-- Node26&#45;&gt;Node37 -->
<g id="edge46" class="edge">
<title>Node26&#45;&gt;Node37</title>
<path fill="none" stroke="#191970" d="M1060.4401,-74.2004C1128.9885,-76.3159 1224.1206,-82.1215 1258,-98 1268.2444,-102.8013 1266.1255,-110.4778 1276,-116 1285.3939,-121.2534 1295.9051,-125.3627 1306.4938,-128.5755"/>
<polygon fill="#191970" stroke="#191970" points="1060.202,-70.6922 1050.1054,-73.9029 1060.0006,-77.6893 1060.202,-70.6922"/>
</g>
<!-- Node27 -->
<g id="node23" class="node">
<title>Node27</title>
<g id="a_node23"><a xlink:title="A LinOp implementing this interface stores a system matrix.">
<polygon fill="#ffffff" stroke="#bfbfbf" points="184.5,-71 184.5,-101 289.5,-101 289.5,-71 184.5,-71"/>
<text text-anchor="start" x="192.5" y="-89" font-family="Helvetica,sans-Serif" font-size="10.00" fill="#000000">gko::solver::detail</text>
<text text-anchor="middle" x="237" y="-78" font-family="Helvetica,sans-Serif" font-size="10.00" fill="#000000">::SolverBaseLinOp</text>
</a>
</g>
</g>
<!-- Node27&#45;&gt;Node26 -->
<g id="edge31" class="edge">
<title>Node27&#45;&gt;Node26</title>
<path fill="none" stroke="#191970" d="M299.6927,-84.9097C439.6289,-82.476 776.3168,-76.6206 918.9178,-74.1406"/>
<polygon fill="#191970" stroke="#191970" points="299.5003,-81.4124 289.5627,-85.0859 299.6221,-88.4114 299.5003,-81.4124"/>
</g>
<!-- Node28 -->
<g id="node24" class="node">
<title>Node28</title>
<g id="a_node24"><a xlink:href="classgko_1_1solver_1_1SolverBase.html" target="_top" xlink:title=" ">
<polygon fill="#ffffff" stroke="#000000" points="564,-97 564,-127 695,-127 695,-97 564,-97"/>
<text text-anchor="start" x="572" y="-115" font-family="Helvetica,sans-Serif" font-size="10.00" fill="#000000">gko::solver::SolverBase</text>
<text text-anchor="middle" x="629.5" y="-104" font-family="Helvetica,sans-Serif" font-size="10.00" fill="#000000">&lt; MatrixType &gt;</text>
</a>
</g>
</g>
<!-- Node27&#45;&gt;Node28 -->
<g id="edge33" class="edge">
<title>Node27&#45;&gt;Node28</title>
<path fill="none" stroke="#191970" d="M299.8546,-90.1636C372.1828,-94.9548 490.4079,-102.7863 563.8816,-107.6533"/>
<polygon fill="#191970" stroke="#191970" points="299.7365,-86.6482 289.527,-89.4795 299.2738,-93.6329 299.7365,-86.6482"/>
</g>
<!-- Node28&#45;&gt;Node26 -->
<g id="edge32" class="edge">
<title>Node28&#45;&gt;Node26</title>
<path fill="none" stroke="#ffa500" stroke-dasharray="5,2" d="M704.975,-103.7084C768.4254,-96.7378 858.2112,-86.874 918.7553,-80.2227"/>
<polygon fill="#ffa500" stroke="#ffa500" points="704.5841,-100.2302 695.0262,-104.8013 705.3486,-107.1883 704.5841,-100.2302"/>
<text text-anchor="middle" x="806" y="-101" font-family="Helvetica,sans-Serif" font-size="10.00" fill="#000000"> &lt; LinOp &gt;</text>
</g>
<!-- Node29 -->
<g id="node25" class="node">
<title>Node29</title>
<g id="a_node25"><a xlink:href="classgko_1_1solver_1_1EnableSolverBase.html" target="_top" xlink:title="A LinOp deriving from this CRTP class stores a system matrix.">
<polygon fill="#ffffff" stroke="#000000" points="893,-112 893,-142 1076,-142 1076,-112 893,-112"/>
<text text-anchor="start" x="901" y="-130" font-family="Helvetica,sans-Serif" font-size="10.00" fill="#000000">gko::solver::EnableSolver</text>
<text text-anchor="middle" x="984.5" y="-119" font-family="Helvetica,sans-Serif" font-size="10.00" fill="#000000">Base&lt; DerivedType, MatrixType &gt;</text>
</a>
</g>
</g>
<!-- Node28&#45;&gt;Node29 -->
<g id="edge35" class="edge">
<title>Node28&#45;&gt;Node29</title>
<path fill="none" stroke="#191970" d="M705.0452,-115.192C759.9758,-117.5131 834.6167,-120.6669 892.9403,-123.1313"/>
<polygon fill="#191970" stroke="#191970" points="705.1651,-111.6941 695.0262,-114.7687 704.8695,-118.6878 705.1651,-111.6941"/>
</g>
<!-- Node29&#45;&gt;Node25 -->
<g id="edge34" class="edge">
<title>Node29&#45;&gt;Node25</title>
<path fill="none" stroke="#ffa500" stroke-dasharray="5,2" d="M1086.5303,-117.6299C1153.2835,-111.4995 1239.0871,-103.6196 1299.9943,-98.026"/>
<polygon fill="#ffa500" stroke="#ffa500" points="1086.0446,-114.1597 1076.4066,-118.5596 1086.6848,-121.1303 1086.0446,-114.1597"/>
<text text-anchor="middle" x="1181.5" y="-118" font-family="Helvetica,sans-Serif" font-size="10.00" fill="#000000"> &lt; Cgs&lt; ValueType &gt; &gt;</text>
</g>
<!-- Node29&#45;&gt;Node37 -->
<g id="edge47" class="edge">
<title>Node29&#45;&gt;Node37</title>
<path fill="none" stroke="#ffa500" stroke-dasharray="5,2" d="M1086.4475,-130.3809C1155.5474,-132.6725 1245.0898,-135.642 1306.2937,-137.6717"/>
<polygon fill="#ffa500" stroke="#ffa500" points="1086.5171,-126.8814 1076.4066,-130.0479 1086.285,-133.8775 1086.5171,-126.8814"/>
<text text-anchor="middle" x="1181.5" y="-138" font-family="Helvetica,sans-Serif" font-size="10.00" fill="#000000"> &lt; DerivedType &gt;</text>
</g>
<!-- Node30 -->
<g id="node26" class="node">
<title>Node30</title>
<g id="a_node26"><a xlink:href="classgko_1_1solver_1_1EnableIterativeBase.html" target="_top" xlink:title=" ">
<polygon fill="#ffffff" stroke="#000000" points="1648,-25 1648,-55 1801,-55 1801,-25 1648,-25"/>
<text text-anchor="start" x="1656" y="-43" font-family="Helvetica,sans-Serif" font-size="10.00" fill="#000000">gko::solver::EnableIterative</text>
<text text-anchor="middle" x="1724.5" y="-32" font-family="Helvetica,sans-Serif" font-size="10.00" fill="#000000">Base&lt; Cgs&lt; ValueType &gt; &gt;</text>
</a>
</g>
</g>
<!-- Node30&#45;&gt;Node24 -->
<g id="edge36" class="edge">
<title>Node30&#45;&gt;Node24</title>
<path fill="none" stroke="#191970" d="M1811.4808,-31.5681C1872.1211,-30.1052 1952.1967,-37.4407 2010,-77 2023.787,-86.4355 2015.1679,-99.302 2028,-110 2032.2164,-113.5152 2036.858,-116.6227 2041.7449,-119.3691"/>
<polygon fill="#191970" stroke="#191970" points="1811.0398,-28.0805 1801.1597,-31.9058 1811.2688,-35.0768 1811.0398,-28.0805"/>
</g>
<!-- Node31 -->
<g id="node27" class="node">
<title>Node31</title>
<g id="a_node27"><a xlink:href="classgko_1_1solver_1_1IterativeBase.html" target="_top" xlink:title="A LinOp implementing this interface stores a stopping criterion factory.">
<polygon fill="#ffffff" stroke="#000000" points="913.5,-.5 913.5,-19.5 1055.5,-19.5 1055.5,-.5 913.5,-.5"/>
<text text-anchor="middle" x="984.5" y="-7.5" font-family="Helvetica,sans-Serif" font-size="10.00" fill="#000000">gko::solver::IterativeBase</text>
</a>
</g>
</g>
<!-- Node31&#45;&gt;Node30 -->
<g id="edge37" class="edge">
<title>Node31&#45;&gt;Node30</title>
<path fill="none" stroke="#191970" d="M1065.6118,-9.2059C1163.2806,-8.6995 1332.2626,-9.2582 1477,-17 1534.4205,-20.0713 1599.1201,-26.1767 1647.9644,-31.3255"/>
<polygon fill="#191970" stroke="#191970" points="1065.4946,-5.7064 1055.5147,-9.2634 1065.5345,-12.7063 1065.4946,-5.7064"/>
</g>
<!-- Node32 -->
<g id="node28" class="node">
<title>Node32</title>
<g id="a_node28"><a xlink:href="classgko_1_1solver_1_1EnableIterativeBase.html" target="_top" xlink:title="A LinOp deriving from this CRTP class stores a stopping criterion factory and allows applying with a ...">
<polygon fill="#ffffff" stroke="#000000" points="1301,-27 1301,-57 1452,-57 1452,-27 1301,-27"/>
<text text-anchor="start" x="1309" y="-45" font-family="Helvetica,sans-Serif" font-size="10.00" fill="#000000">gko::solver::EnableIterative</text>
<text text-anchor="middle" x="1376.5" y="-34" font-family="Helvetica,sans-Serif" font-size="10.00" fill="#000000">Base&lt; DerivedType &gt;</text>
</a>
</g>
</g>
<!-- Node31&#45;&gt;Node32 -->
<g id="edge39" class="edge">
<title>Node31&#45;&gt;Node32</title>
<path fill="none" stroke="#191970" d="M1065.9211,-16.6466C1135.0397,-22.289 1233.4556,-30.3229 1300.8695,-35.8261"/>
<polygon fill="#191970" stroke="#191970" points="1066.1947,-13.1574 1055.943,-15.8321 1065.6251,-20.1342 1066.1947,-13.1574"/>
</g>
<!-- Node32&#45;&gt;Node30 -->
<g id="edge38" class="edge">
<title>Node32&#45;&gt;Node30</title>
<path fill="none" stroke="#ffa500" stroke-dasharray="5,2" d="M1462.1438,-41.2358C1473.1991,-41.1493 1484.3678,-41.068 1495,-41 1545.9994,-40.6737 1603.3744,-40.4237 1647.9996,-40.2553"/>
<polygon fill="#ffa500" stroke="#ffa500" points="1462.0132,-37.7366 1452.0415,-41.3164 1462.0692,-44.7364 1462.0132,-37.7366"/>
<text text-anchor="middle" x="1553" y="-44" font-family="Helvetica,sans-Serif" font-size="10.00" fill="#000000"> &lt; Cgs&lt; ValueType &gt; &gt;</text>
</g>
<!-- Node36 -->
<g id="node32" class="node">
<title>Node36</title>
<g id="a_node32"><a xlink:href="classgko_1_1solver_1_1EnablePreconditionedIterativeSolver.html" target="_top" xlink:title="A LinOp implementing this interface stores a system matrix and stopping criterion factory.">
<polygon fill="#ffffff" stroke="#000000" points="1633.5,-119.5 1633.5,-160.5 1815.5,-160.5 1815.5,-119.5 1633.5,-119.5"/>
<text text-anchor="start" x="1641.5" y="-148.5" font-family="Helvetica,sans-Serif" font-size="10.00" fill="#000000">gko::solver::EnablePreconditioned</text>
<text text-anchor="start" x="1641.5" y="-137.5" font-family="Helvetica,sans-Serif" font-size="10.00" fill="#000000">IterativeSolver&lt; ValueType,</text>
<text text-anchor="middle" x="1724.5" y="-126.5" font-family="Helvetica,sans-Serif" font-size="10.00" fill="#000000"> DerivedType &gt;</text>
</a>
</g>
</g>
<!-- Node32&#45;&gt;Node36 -->
<g id="edge48" class="edge">
<title>Node32&#45;&gt;Node36</title>
<path fill="none" stroke="#191970" d="M1451.7577,-59.4853C1460.2891,-61.6118 1468.8441,-63.8087 1477,-66 1539.2614,-82.7278 1609.6392,-104.0024 1659.3867,-119.443"/>
<polygon fill="#191970" stroke="#191970" points="1452.3257,-56.0206 1441.7787,-57.026 1450.6506,-62.8173 1452.3257,-56.0206"/>
</g>
<!-- Node33 -->
<g id="node29" class="node">
<title>Node33</title>
<g id="a_node29"><a xlink:href="classgko_1_1solver_1_1EnablePreconditionable.html" target="_top" xlink:title=" ">
<polygon fill="#ffffff" stroke="#000000" points="1629,-180 1629,-210 1820,-210 1820,-180 1629,-180"/>
<text text-anchor="start" x="1637" y="-198" font-family="Helvetica,sans-Serif" font-size="10.00" fill="#000000">gko::solver::EnablePreconditionable</text>
<text text-anchor="middle" x="1724.5" y="-187" font-family="Helvetica,sans-Serif" font-size="10.00" fill="#000000">&lt; Cgs&lt; ValueType &gt; &gt;</text>
</a>
</g>
</g>
<!-- Node33&#45;&gt;Node24 -->
<g id="edge40" class="edge">
<title>Node33&#45;&gt;Node24</title>
<path fill="none" stroke="#191970" d="M1830.3965,-180.2362C1892.0403,-171.642 1968.9621,-160.9178 2027.8875,-152.7026"/>
<polygon fill="#191970" stroke="#191970" points="1829.6701,-176.8036 1820.2492,-181.6509 1830.6367,-183.7365 1829.6701,-176.8036"/>
</g>
<!-- Node34 -->
<g id="node30" class="node">
<title>Node34</title>
<g id="a_node30"><a xlink:href="classgko_1_1Preconditionable.html" target="_top" xlink:title="A LinOp implementing this interface can be preconditioned.">
<polygon fill="#ffffff" stroke="#000000" points="923.5,-191.5 923.5,-210.5 1045.5,-210.5 1045.5,-191.5 923.5,-191.5"/>
<text text-anchor="middle" x="984.5" y="-198.5" font-family="Helvetica,sans-Serif" font-size="10.00" fill="#000000">gko::Preconditionable</text>
</a>
</g>
</g>
<!-- Node34&#45;&gt;Node33 -->
<g id="edge41" class="edge">
<title>Node34&#45;&gt;Node33</title>
<path fill="none" stroke="#191970" d="M1055.8248,-200.4217C1189.6416,-199.3367 1478.3944,-196.9955 1628.8891,-195.7752"/>
<polygon fill="#191970" stroke="#191970" points="1055.6581,-196.9228 1045.6869,-200.5039 1055.715,-203.9226 1055.6581,-196.9228"/>
</g>
<!-- Node35 -->
<g id="node31" class="node">
<title>Node35</title>
<g id="a_node31"><a xlink:href="classgko_1_1solver_1_1EnablePreconditionable.html" target="_top" xlink:title="Mixin providing default operation for Preconditionable with correct value semantics.">
<polygon fill="#ffffff" stroke="#000000" points="1281,-213 1281,-243 1472,-243 1472,-213 1281,-213"/>
<text text-anchor="start" x="1289" y="-231" font-family="Helvetica,sans-Serif" font-size="10.00" fill="#000000">gko::solver::EnablePreconditionable</text>
<text text-anchor="middle" x="1376.5" y="-220" font-family="Helvetica,sans-Serif" font-size="10.00" fill="#000000">&lt; DerivedType &gt;</text>
</a>
</g>
</g>
<!-- Node34&#45;&gt;Node35 -->
<g id="edge43" class="edge">
<title>Node34&#45;&gt;Node35</title>
<path fill="none" stroke="#191970" d="M1056.0055,-205.9251C1119.1011,-210.271 1211.5661,-216.6398 1280.982,-221.421"/>
<polygon fill="#191970" stroke="#191970" points="1055.9669,-202.4143 1045.75,-205.2188 1055.4858,-209.3977 1055.9669,-202.4143"/>
</g>
<!-- Node35&#45;&gt;Node33 -->
<g id="edge42" class="edge">
<title>Node35&#45;&gt;Node33</title>
<path fill="none" stroke="#ffa500" stroke-dasharray="5,2" d="M1482.2242,-228.4871C1522.6443,-227.6022 1569.0849,-225.2861 1611,-220 1629.0168,-217.7278 1648.3937,-213.9634 1665.9475,-210.0367"/>
<polygon fill="#ffa500" stroke="#ffa500" points="1482.0149,-224.9904 1472.0841,-228.6822 1482.1496,-231.9891 1482.0149,-224.9904"/>
<text text-anchor="middle" x="1553" y="-231" font-family="Helvetica,sans-Serif" font-size="10.00" fill="#000000"> &lt; Cgs&lt; ValueType &gt; &gt;</text>
</g>
<!-- Node35&#45;&gt;Node36 -->
<g id="edge49" class="edge">
<title>Node35&#45;&gt;Node36</title>
<path fill="none" stroke="#191970" d="M1445.9013,-210.4503C1502.7458,-196.0758 1583.2742,-175.7123 1643.1446,-160.5726"/>
<polygon fill="#191970" stroke="#191970" points="1444.7647,-207.1274 1435.9279,-212.9722 1446.4808,-213.9138 1444.7647,-207.1274"/>
</g>
<!-- Node36&#45;&gt;Node24 -->
<g id="edge44" class="edge">
<title>Node36&#45;&gt;Node24</title>
<path fill="none" stroke="#ffa500" stroke-dasharray="5,2" d="M1825.751,-140C1888.1002,-140 1967.3728,-140 2027.7737,-140"/>
<polygon fill="#ffa500" stroke="#ffa500" points="1825.5016,-136.5001 1815.5016,-140 1825.5016,-143.5001 1825.5016,-136.5001"/>
<text text-anchor="middle" x="1924" y="-143" font-family="Helvetica,sans-Serif" font-size="10.00" fill="#000000"> &lt; ValueType, Cgs&lt; ValueType &gt; &gt;</text>
</g>
<!-- Node37&#45;&gt;Node36 -->
<g id="edge45" class="edge">
<title>Node37&#45;&gt;Node36</title>
<path fill="none" stroke="#191970" d="M1456.826,-140C1509.57,-140 1578.6748,-140 1633.4569,-140"/>
<polygon fill="#191970" stroke="#191970" points="1456.5044,-136.5001 1446.5044,-140 1456.5043,-143.5001 1456.5044,-136.5001"/>
</g>
<!-- Node38 -->
<g id="node34" class="node">
<title>Node38</title>
<g id="a_node34"><a xlink:href="classgko_1_1Transposable.html" target="_top" xlink:title="Linear operators which support transposition should implement the Transposable interface.">
<polygon fill="#ffffff" stroke="#000000" points="2067,-81.5 2067,-100.5 2171,-100.5 2171,-81.5 2067,-81.5"/>
<text text-anchor="middle" x="2119" y="-88.5" font-family="Helvetica,sans-Serif" font-size="10.00" fill="#000000">gko::Transposable</text>
</a>
</g>
</g>
<!-- Node38&#45;&gt;Node1 -->
<g id="edge50" class="edge">
<title>Node38&#45;&gt;Node1</title>
<path fill="none" stroke="#191970" d="M2176.3994,-102.6371C2187.5613,-104.9981 2199.1591,-107.5197 2210,-110 2238.1611,-116.4429 2269.8564,-124.3605 2293.6704,-130.4437"/>
<polygon fill="#191970" stroke="#191970" points="2176.811,-99.1473 2166.3055,-100.5198 2175.3739,-105.9983 2176.811,-99.1473"/>
</g>
</g>
</svg>
