<?xml version="1.0" encoding="UTF-8" standalone="no"?>
<!DOCTYPE svg PUBLIC "-//W3C//DTD SVG 1.1//EN"
 "http://www.w3.org/Graphics/SVG/1.1/DTD/svg11.dtd">
<!-- Generated by graphviz version 2.40.1 (20161225.0304)
 -->
<!-- Title: gko::Error Pages: 1 -->
<svg width="405pt" height="952pt"
 viewBox="0.00 0.00 405.00 952.00" xmlns="http://www.w3.org/2000/svg" xmlns:xlink="http://www.w3.org/1999/xlink">
<g id="graph0" class="graph" transform="scale(1 1) rotate(0) translate(4 948)">
<title>gko::Error</title>
<polygon fill="#ffffff" stroke="transparent" points="-4,4 -4,-948 401,-948 401,4 -4,4"/>
<!-- Node1 -->
<g id="node1" class="node">
<title>Node1</title>
<g id="a_node1"><a xlink:title="The Error class is used to report exceptional behaviour in library functions.">
<polygon fill="#bfbfbf" stroke="#000000" points="122,-456.5 122,-475.5 186,-475.5 186,-456.5 122,-456.5"/>
<text text-anchor="middle" x="154" y="-463.5" font-family="Helvetica,sans-Serif" font-size="10.00" fill="#000000">gko::Error</text>
</a>
</g>
</g>
<!-- Node3 -->
<g id="node3" class="node">
<title>Node3</title>
<g id="a_node3"><a xlink:href="classgko_1_1AllocationError.html" target="_top" xlink:title="AllocationError is thrown if a memory allocation fails.">
<polygon fill="#ffffff" stroke="#000000" points="253,-924.5 253,-943.5 366,-943.5 366,-924.5 253,-924.5"/>
<text text-anchor="middle" x="309.5" y="-931.5" font-family="Helvetica,sans-Serif" font-size="10.00" fill="#000000">gko::AllocationError</text>
</a>
</g>
</g>
<!-- Node1&#45;&gt;Node3 -->
<g id="edge2" class="edge">
<title>Node1&#45;&gt;Node3</title>
<path fill="none" stroke="#191970" d="M155.6899,-485.9054C162.895,-568.7127 192.0501,-883.0847 222,-915 230.1908,-923.7283 241.3704,-928.9249 252.9998,-931.9247"/>
<polygon fill="#191970" stroke="#191970" points="159.1658,-485.4743 154.8211,-475.8113 152.1916,-486.0746 159.1658,-485.4743"/>
</g>
<!-- Node4 -->
<g id="node4" class="node">
<title>Node4</title>
<g id="a_node4"><a xlink:href="classgko_1_1BadDimension.html" target="_top" xlink:title="BadDimension is thrown if an operation is being applied to a LinOp with bad dimensions.">
<polygon fill="#ffffff" stroke="#000000" points="253.5,-886.5 253.5,-905.5 365.5,-905.5 365.5,-886.5 253.5,-886.5"/>
<text text-anchor="middle" x="309.5" y="-893.5" font-family="Helvetica,sans-Serif" font-size="10.00" fill="#000000">gko::BadDimension</text>
</a>
</g>
</g>
<!-- Node1&#45;&gt;Node4 -->
<g id="edge3" class="edge">
<title>Node1&#45;&gt;Node4</title>
<path fill="none" stroke="#191970" d="M154.4357,-485.8872C156.4776,-560.1202 167.4651,-819.6759 222,-877 230.2502,-885.6722 241.4535,-890.8464 253.0869,-893.8423"/>
<polygon fill="#191970" stroke="#191970" points="157.9281,-485.5334 154.1795,-475.6239 150.9303,-485.7081 157.9281,-485.5334"/>
</g>
<!-- Node5 -->
<g id="node5" class="node">
<title>Node5</title>
<g id="a_node5"><a xlink:href="classgko_1_1BlockSizeError.html" target="_top" xlink:title="Error that denotes issues between block sizes and matrix dimensions.">
<polygon fill="#ffffff" stroke="#000000" points="254,-837 254,-867 365,-867 365,-837 254,-837"/>
<text text-anchor="start" x="262" y="-855" font-family="Helvetica,sans-Serif" font-size="10.00" fill="#000000">gko::BlockSizeError</text>
<text text-anchor="middle" x="309.5" y="-844" font-family="Helvetica,sans-Serif" font-size="10.00" fill="#000000">&lt; IndexType &gt;</text>
</a>
</g>
</g>
<!-- Node1&#45;&gt;Node5 -->
<g id="edge4" class="edge">
<title>Node1&#45;&gt;Node5</title>
<path fill="none" stroke="#191970" d="M155.0623,-485.9549C159.0861,-554.0864 175.5892,-776.1043 222,-827 230.4098,-836.2224 241.9618,-842.1337 253.9158,-845.899"/>
<polygon fill="#191970" stroke="#191970" points="158.5437,-485.5253 154.4859,-475.7384 151.5548,-485.9197 158.5437,-485.5253"/>
</g>
<!-- Node6 -->
<g id="node6" class="node">
<title>Node6</title>
<g id="a_node6"><a xlink:href="classgko_1_1CublasError.html" target="_top" xlink:title="CublasError is thrown when a cuBLAS routine throws a non&#45;zero error code.">
<polygon fill="#ffffff" stroke="#000000" points="261,-798.5 261,-817.5 358,-817.5 358,-798.5 261,-798.5"/>
<text text-anchor="middle" x="309.5" y="-805.5" font-family="Helvetica,sans-Serif" font-size="10.00" fill="#000000">gko::CublasError</text>
</a>
</g>
</g>
<!-- Node1&#45;&gt;Node6 -->
<g id="edge5" class="edge">
<title>Node1&#45;&gt;Node6</title>
<path fill="none" stroke="#191970" d="M155.4211,-485.9849C160.3525,-549.5707 178.8405,-745.5665 222,-789 232.1901,-799.2548 246.5242,-804.5664 260.6465,-807.1729"/>
<polygon fill="#191970" stroke="#191970" points="158.8896,-485.4314 154.6552,-475.7196 151.909,-485.9523 158.8896,-485.4314"/>
</g>
<!-- Node7 -->
<g id="node7" class="node">
<title>Node7</title>
<g id="a_node7"><a xlink:href="classgko_1_1CudaError.html" target="_top" xlink:title="CudaError is thrown when a CUDA routine throws a non&#45;zero error code.">
<polygon fill="#ffffff" stroke="#000000" points="265,-760.5 265,-779.5 354,-779.5 354,-760.5 265,-760.5"/>
<text text-anchor="middle" x="309.5" y="-767.5" font-family="Helvetica,sans-Serif" font-size="10.00" fill="#000000">gko::CudaError</text>
</a>
</g>
</g>
<!-- Node1&#45;&gt;Node7 -->
<g id="edge6" class="edge">
<title>Node1&#45;&gt;Node7</title>
<path fill="none" stroke="#191970" d="M156.017,-485.8931C162.3415,-544.2852 183.6789,-713.4526 222,-751 233.3255,-762.0969 249.5169,-767.3672 264.8986,-769.6924"/>
<polygon fill="#191970" stroke="#191970" points="159.4785,-485.3425 154.9517,-475.7635 152.5169,-486.0747 159.4785,-485.3425"/>
</g>
<!-- Node8 -->
<g id="node8" class="node">
<title>Node8</title>
<g id="a_node8"><a xlink:href="classgko_1_1CufftError.html" target="_top" xlink:title="CufftError is thrown when a cuFFT routine throws a non&#45;zero error code.">
<polygon fill="#ffffff" stroke="#000000" points="266,-722.5 266,-741.5 353,-741.5 353,-722.5 266,-722.5"/>
<text text-anchor="middle" x="309.5" y="-729.5" font-family="Helvetica,sans-Serif" font-size="10.00" fill="#000000">gko::CufftError</text>
</a>
</g>
</g>
<!-- Node1&#45;&gt;Node8 -->
<g id="edge7" class="edge">
<title>Node1&#45;&gt;Node8</title>
<path fill="none" stroke="#191970" d="M156.7599,-485.6261C164.5683,-538.3526 188.447,-681.2379 222,-713 233.6278,-724.0071 250.0634,-729.2327 265.5557,-731.5472"/>
<polygon fill="#191970" stroke="#191970" points="160.1988,-484.9513 155.3032,-475.5554 153.2709,-485.9535 160.1988,-484.9513"/>
</g>
<!-- Node9 -->
<g id="node9" class="node">
<title>Node9</title>
<g id="a_node9"><a xlink:href="classgko_1_1CurandError.html" target="_top" xlink:title="CurandError is thrown when a cuRAND routine throws a non&#45;zero error code.">
<polygon fill="#ffffff" stroke="#000000" points="260.5,-684.5 260.5,-703.5 358.5,-703.5 358.5,-684.5 260.5,-684.5"/>
<text text-anchor="middle" x="309.5" y="-691.5" font-family="Helvetica,sans-Serif" font-size="10.00" fill="#000000">gko::CurandError</text>
</a>
</g>
</g>
<!-- Node1&#45;&gt;Node9 -->
<g id="edge8" class="edge">
<title>Node1&#45;&gt;Node9</title>
<path fill="none" stroke="#191970" d="M157.8088,-485.6576C167.2839,-532.5494 193.236,-648.9967 222,-675 232.4936,-684.4864 246.5832,-689.6294 260.3864,-692.3181"/>
<polygon fill="#191970" stroke="#191970" points="161.1863,-484.6956 155.8088,-475.5669 154.3199,-486.0566 161.1863,-484.6956"/>
</g>
<!-- Node10 -->
<g id="node10" class="node">
<title>Node10</title>
<g id="a_node10"><a xlink:href="classgko_1_1CusparseError.html" target="_top" xlink:title="CusparseError is thrown when a cuSPARSE routine throws a non&#45;zero error code.">
<polygon fill="#ffffff" stroke="#000000" points="255,-646.5 255,-665.5 364,-665.5 364,-646.5 255,-646.5"/>
<text text-anchor="middle" x="309.5" y="-653.5" font-family="Helvetica,sans-Serif" font-size="10.00" fill="#000000">gko::CusparseError</text>
</a>
</g>
</g>
<!-- Node1&#45;&gt;Node10 -->
<g id="edge9" class="edge">
<title>Node1&#45;&gt;Node10</title>
<path fill="none" stroke="#191970" d="M155.9008,-485.6762C160.4616,-521.5408 175.3762,-597.4843 222,-637 231.2498,-644.8396 242.986,-649.6658 254.8348,-652.5871"/>
<polygon fill="#191970" stroke="#191970" points="159.356,-485.0816 154.7567,-475.5371 152.4001,-485.8665 159.356,-485.0816"/>
</g>
<!-- Node11 -->
<g id="node11" class="node">
<title>Node11</title>
<g id="a_node11"><a xlink:href="classgko_1_1DimensionMismatch.html" target="_top" xlink:title="DimensionMismatch is thrown if an operation is being applied to LinOps of incompatible size.">
<polygon fill="#ffffff" stroke="#000000" points="239.5,-608.5 239.5,-627.5 379.5,-627.5 379.5,-608.5 239.5,-608.5"/>
<text text-anchor="middle" x="309.5" y="-615.5" font-family="Helvetica,sans-Serif" font-size="10.00" fill="#000000">gko::DimensionMismatch</text>
</a>
</g>
</g>
<!-- Node1&#45;&gt;Node11 -->
<g id="edge10" class="edge">
<title>Node1&#45;&gt;Node11</title>
<path fill="none" stroke="#191970" d="M158.3022,-485.3769C165.8722,-514.7318 184.4615,-570.1063 222,-599 227.1738,-602.9823 233.0051,-606.1693 239.1389,-608.7148"/>
<polygon fill="#191970" stroke="#191970" points="161.6698,-484.4112 155.9239,-475.5097 154.8646,-486.0515 161.6698,-484.4112"/>
</g>
<!-- Node12 -->
<g id="node12" class="node">
<title>Node12</title>
<g id="a_node12"><a xlink:href="classgko_1_1HipblasError.html" target="_top" xlink:title="HipblasError is thrown when a hipBLAS routine throws a non&#45;zero error code.">
<polygon fill="#ffffff" stroke="#000000" points="259,-570.5 259,-589.5 360,-589.5 360,-570.5 259,-570.5"/>
<text text-anchor="middle" x="309.5" y="-577.5" font-family="Helvetica,sans-Serif" font-size="10.00" fill="#000000">gko::HipblasError</text>
</a>
</g>
</g>
<!-- Node1&#45;&gt;Node12 -->
<g id="edge11" class="edge">
<title>Node1&#45;&gt;Node12</title>
<path fill="none" stroke="#191970" d="M162.2612,-484.854C172.8494,-506.7125 193.3251,-542.1439 222,-561 232.9103,-568.1744 246.0814,-572.6863 258.8551,-575.5104"/>
<polygon fill="#191970" stroke="#191970" points="165.3588,-483.2139 157.9813,-475.6098 159.0066,-486.1549 165.3588,-483.2139"/>
</g>
<!-- Node13 -->
<g id="node13" class="node">
<title>Node13</title>
<g id="a_node13"><a xlink:href="classgko_1_1HipError.html" target="_top" xlink:title="HipError is thrown when a HIP routine throws a non&#45;zero error code.">
<polygon fill="#ffffff" stroke="#000000" points="269.5,-532.5 269.5,-551.5 349.5,-551.5 349.5,-532.5 269.5,-532.5"/>
<text text-anchor="middle" x="309.5" y="-539.5" font-family="Helvetica,sans-Serif" font-size="10.00" fill="#000000">gko::HipError</text>
</a>
</g>
</g>
<!-- Node1&#45;&gt;Node13 -->
<g id="edge12" class="edge">
<title>Node1&#45;&gt;Node13</title>
<path fill="none" stroke="#191970" d="M169.7554,-483.1116C182.5933,-496.0127 201.8393,-513.1186 222,-523 236.6564,-530.1836 254.01,-534.6708 269.3825,-537.4649"/>
<polygon fill="#191970" stroke="#191970" points="172.0976,-480.4982 162.6392,-475.7244 167.0563,-485.3546 172.0976,-480.4982"/>
</g>
<!-- Node14 -->
<g id="node14" class="node">
<title>Node14</title>
<g id="a_node14"><a xlink:href="classgko_1_1HipfftError.html" target="_top" xlink:title="HipfftError is thrown when a hipFFT routine throws a non&#45;zero error code.">
<polygon fill="#ffffff" stroke="#000000" points="264,-494.5 264,-513.5 355,-513.5 355,-494.5 264,-494.5"/>
<text text-anchor="middle" x="309.5" y="-501.5" font-family="Helvetica,sans-Serif" font-size="10.00" fill="#000000">gko::HipfftError</text>
</a>
</g>
</g>
<!-- Node1&#45;&gt;Node14 -->
<g id="edge13" class="edge">
<title>Node1&#45;&gt;Node14</title>
<path fill="none" stroke="#191970" d="M195.9192,-478.1279C204.5213,-480.4996 213.5344,-482.9001 222,-485 235.579,-488.3683 250.4249,-491.7166 263.9686,-494.6426"/>
<polygon fill="#191970" stroke="#191970" points="196.64,-474.6954 186.0671,-475.3767 194.7572,-481.4375 196.64,-474.6954"/>
</g>
<!-- Node15 -->
<g id="node15" class="node">
<title>Node15</title>
<g id="a_node15"><a xlink:href="classgko_1_1HiprandError.html" target="_top" xlink:title="HiprandError is thrown when a hipRAND routine throws a non&#45;zero error code.">
<polygon fill="#ffffff" stroke="#000000" points="258.5,-456.5 258.5,-475.5 360.5,-475.5 360.5,-456.5 258.5,-456.5"/>
<text text-anchor="middle" x="309.5" y="-463.5" font-family="Helvetica,sans-Serif" font-size="10.00" fill="#000000">gko::HiprandError</text>
</a>
</g>
</g>
<!-- Node1&#45;&gt;Node15 -->
<g id="edge14" class="edge">
<title>Node1&#45;&gt;Node15</title>
<path fill="none" stroke="#191970" d="M196.4298,-466C215.5501,-466 238.2894,-466 258.3445,-466"/>
<polygon fill="#191970" stroke="#191970" points="196.2197,-462.5001 186.2197,-466 196.2197,-469.5001 196.2197,-462.5001"/>
</g>
<!-- Node16 -->
<g id="node16" class="node">
<title>Node16</title>
<g id="a_node16"><a xlink:href="classgko_1_1HipsparseError.html" target="_top" xlink:title="HipsparseError is thrown when a hipSPARSE routine throws a non&#45;zero error code.">
<polygon fill="#ffffff" stroke="#000000" points="253,-418.5 253,-437.5 366,-437.5 366,-418.5 253,-418.5"/>
<text text-anchor="middle" x="309.5" y="-425.5" font-family="Helvetica,sans-Serif" font-size="10.00" fill="#000000">gko::HipsparseError</text>
</a>
</g>
</g>
<!-- Node1&#45;&gt;Node16 -->
<g id="edge15" class="edge">
<title>Node1&#45;&gt;Node16</title>
<path fill="none" stroke="#191970" d="M195.9192,-453.8721C204.5213,-451.5004 213.5344,-449.0999 222,-447 235.2772,-443.7066 249.7657,-440.4323 263.0638,-437.5531"/>
<polygon fill="#191970" stroke="#191970" points="194.7572,-450.5625 186.0671,-456.6233 196.64,-457.3046 194.7572,-450.5625"/>
</g>
<!-- Node17 -->
<g id="node17" class="node">
<title>Node17</title>
<g id="a_node17"><a xlink:href="classgko_1_1KernelNotFound.html" target="_top" xlink:title="KernelNotFound is thrown if Ginkgo cannot find a kernel which satisfies the criteria imposed by the i...">
<polygon fill="#ffffff" stroke="#000000" points="250.5,-380.5 250.5,-399.5 368.5,-399.5 368.5,-380.5 250.5,-380.5"/>
<text text-anchor="middle" x="309.5" y="-387.5" font-family="Helvetica,sans-Serif" font-size="10.00" fill="#000000">gko::KernelNotFound</text>
</a>
</g>
</g>
<!-- Node1&#45;&gt;Node17 -->
<g id="edge16" class="edge">
<title>Node1&#45;&gt;Node17</title>
<path fill="none" stroke="#191970" d="M169.7554,-448.8884C182.5933,-435.9873 201.8393,-418.8814 222,-409 230.7939,-404.6898 240.5587,-401.3504 250.284,-398.7649"/>
<polygon fill="#191970" stroke="#191970" points="167.0563,-446.6454 162.6392,-456.2756 172.0976,-451.5018 167.0563,-446.6454"/>
</g>
<!-- Node18 -->
<g id="node18" class="node">
<title>Node18</title>
<g id="a_node18"><a xlink:href="classgko_1_1MetisError.html" target="_top" xlink:title="MetisError is thrown when METIS routine throws an error code.">
<polygon fill="#ffffff" stroke="#000000" points="264.5,-342.5 264.5,-361.5 354.5,-361.5 354.5,-342.5 264.5,-342.5"/>
<text text-anchor="middle" x="309.5" y="-349.5" font-family="Helvetica,sans-Serif" font-size="10.00" fill="#000000">gko::MetisError</text>
</a>
</g>
</g>
<!-- Node1&#45;&gt;Node18 -->
<g id="edge17" class="edge">
<title>Node1&#45;&gt;Node18</title>
<path fill="none" stroke="#191970" d="M162.2612,-447.146C172.8494,-425.2875 193.3251,-389.8561 222,-371 234.4689,-362.8007 249.8908,-358.079 264.2975,-355.3797"/>
<polygon fill="#191970" stroke="#191970" points="159.0066,-445.8451 157.9813,-456.3902 165.3588,-448.7861 159.0066,-445.8451"/>
</g>
<!-- Node19 -->
<g id="node19" class="node">
<title>Node19</title>
<g id="a_node19"><a xlink:href="classgko_1_1MpiError.html" target="_top" xlink:title="MpiError is thrown when a MPI routine throws a non&#45;zero error code.">
<polygon fill="#ffffff" stroke="#000000" points="269,-304.5 269,-323.5 350,-323.5 350,-304.5 269,-304.5"/>
<text text-anchor="middle" x="309.5" y="-311.5" font-family="Helvetica,sans-Serif" font-size="10.00" fill="#000000">gko::MpiError</text>
</a>
</g>
</g>
<!-- Node1&#45;&gt;Node19 -->
<g id="edge18" class="edge">
<title>Node1&#45;&gt;Node19</title>
<path fill="none" stroke="#191970" d="M158.3022,-446.6231C165.8722,-417.2682 184.4615,-361.8937 222,-333 235.304,-322.7598 252.9558,-317.7782 268.9192,-315.4408"/>
<polygon fill="#191970" stroke="#191970" points="154.8646,-445.9485 155.9239,-456.4903 161.6698,-447.5888 154.8646,-445.9485"/>
</g>
<!-- Node20 -->
<g id="node20" class="node">
<title>Node20</title>
<g id="a_node20"><a xlink:href="classgko_1_1NotCompiled.html" target="_top" xlink:title="NotCompiled is thrown when attempting to call an operation which is a part of a module that was not c...">
<polygon fill="#ffffff" stroke="#000000" points="257.5,-266.5 257.5,-285.5 361.5,-285.5 361.5,-266.5 257.5,-266.5"/>
<text text-anchor="middle" x="309.5" y="-273.5" font-family="Helvetica,sans-Serif" font-size="10.00" fill="#000000">gko::NotCompiled</text>
</a>
</g>
</g>
<!-- Node1&#45;&gt;Node20 -->
<g id="edge19" class="edge">
<title>Node1&#45;&gt;Node20</title>
<path fill="none" stroke="#191970" d="M155.9008,-446.3238C160.4616,-410.4592 175.3762,-334.5157 222,-295 231.8427,-286.6579 244.5009,-281.7279 257.1141,-278.8743"/>
<polygon fill="#191970" stroke="#191970" points="152.4001,-446.1335 154.7567,-456.4629 159.356,-446.9184 152.4001,-446.1335"/>
</g>
<!-- Node21 -->
<g id="node21" class="node">
<title>Node21</title>
<g id="a_node21"><a xlink:href="classgko_1_1NotImplemented.html" target="_top" xlink:title="NotImplemented is thrown in case an operation has not yet been implemented (but will be implemented i...">
<polygon fill="#ffffff" stroke="#000000" points="248,-228.5 248,-247.5 371,-247.5 371,-228.5 248,-228.5"/>
<text text-anchor="middle" x="309.5" y="-235.5" font-family="Helvetica,sans-Serif" font-size="10.00" fill="#000000">gko::NotImplemented</text>
</a>
</g>
</g>
<!-- Node1&#45;&gt;Node21 -->
<g id="edge20" class="edge">
<title>Node1&#45;&gt;Node21</title>
<path fill="none" stroke="#191970" d="M157.8088,-446.3424C167.2839,-399.4506 193.236,-283.0033 222,-257 229.2648,-250.4325 238.2531,-245.9467 247.6767,-242.9159"/>
<polygon fill="#191970" stroke="#191970" points="154.3199,-445.9434 155.8088,-456.4331 161.1863,-447.3044 154.3199,-445.9434"/>
</g>
<!-- Node22 -->
<g id="node22" class="node">
<title>Node22</title>
<g id="a_node22"><a xlink:href="classgko_1_1NotSupported.html" target="_top" xlink:title="NotSupported is thrown in case it is not possible to perform the requested operation on the given obj...">
<polygon fill="#ffffff" stroke="#000000" points="256,-190.5 256,-209.5 363,-209.5 363,-190.5 256,-190.5"/>
<text text-anchor="middle" x="309.5" y="-197.5" font-family="Helvetica,sans-Serif" font-size="10.00" fill="#000000">gko::NotSupported</text>
</a>
</g>
</g>
<!-- Node1&#45;&gt;Node22 -->
<g id="edge21" class="edge">
<title>Node1&#45;&gt;Node22</title>
<path fill="none" stroke="#191970" d="M156.7599,-446.3739C164.5683,-393.6474 188.447,-250.7621 222,-219 231.1442,-210.3439 243.2617,-205.2633 255.5555,-202.3623"/>
<polygon fill="#191970" stroke="#191970" points="153.2709,-446.0465 155.3032,-456.4446 160.1988,-447.0487 153.2709,-446.0465"/>
</g>
<!-- Node23 -->
<g id="node23" class="node">
<title>Node23</title>
<g id="a_node23"><a xlink:href="classgko_1_1OutOfBoundsError.html" target="_top" xlink:title="OutOfBoundsError is thrown if a memory access is detected to be out&#45;of&#45;bounds.">
<polygon fill="#ffffff" stroke="#000000" points="245.5,-152.5 245.5,-171.5 373.5,-171.5 373.5,-152.5 245.5,-152.5"/>
<text text-anchor="middle" x="309.5" y="-159.5" font-family="Helvetica,sans-Serif" font-size="10.00" fill="#000000">gko::OutOfBoundsError</text>
</a>
</g>
</g>
<!-- Node1&#45;&gt;Node23 -->
<g id="edge22" class="edge">
<title>Node1&#45;&gt;Node23</title>
<path fill="none" stroke="#191970" d="M156.017,-446.1069C162.3415,-387.7148 183.6789,-218.5474 222,-181 228.551,-174.5812 236.7301,-170.1119 245.4388,-167.0344"/>
<polygon fill="#191970" stroke="#191970" points="152.5169,-445.9253 154.9517,-456.2365 159.4785,-446.6575 152.5169,-445.9253"/>
</g>
<!-- Node24 -->
<g id="node24" class="node">
<title>Node24</title>
<g id="a_node24"><a xlink:href="classgko_1_1OverflowError.html" target="_top" xlink:title="OverflowError is thrown when an index calculation for storage requirements overflows.">
<polygon fill="#ffffff" stroke="#000000" points="256,-114.5 256,-133.5 363,-133.5 363,-114.5 256,-114.5"/>
<text text-anchor="middle" x="309.5" y="-121.5" font-family="Helvetica,sans-Serif" font-size="10.00" fill="#000000">gko::OverflowError</text>
</a>
</g>
</g>
<!-- Node1&#45;&gt;Node24 -->
<g id="edge23" class="edge">
<title>Node1&#45;&gt;Node24</title>
<path fill="none" stroke="#191970" d="M155.4211,-446.0151C160.3525,-382.4293 178.8405,-186.4335 222,-143 230.9848,-133.9581 243.1913,-128.7593 255.6336,-125.8693"/>
<polygon fill="#191970" stroke="#191970" points="151.909,-446.0477 154.6552,-456.2804 158.8896,-446.5686 151.909,-446.0477"/>
</g>
<!-- Node25 -->
<g id="node25" class="node">
<title>Node25</title>
<g id="a_node25"><a xlink:href="classgko_1_1StreamError.html" target="_top" xlink:title="StreamError is thrown if accessing a stream failed.">
<polygon fill="#ffffff" stroke="#000000" points="260,-76.5 260,-95.5 359,-95.5 359,-76.5 260,-76.5"/>
<text text-anchor="middle" x="309.5" y="-83.5" font-family="Helvetica,sans-Serif" font-size="10.00" fill="#000000">gko::StreamError</text>
</a>
</g>
</g>
<!-- Node1&#45;&gt;Node25 -->
<g id="edge24" class="edge">
<title>Node1&#45;&gt;Node25</title>
<path fill="none" stroke="#191970" d="M154.9439,-445.9336C158.5811,-377.4379 173.9728,-154.3733 222,-105 231.8635,-94.86 245.771,-89.5282 259.6011,-86.8674"/>
<polygon fill="#191970" stroke="#191970" points="151.4341,-446.0425 154.4267,-456.2059 158.4252,-446.3946 151.4341,-446.0425"/>
</g>
<!-- Node26 -->
<g id="node26" class="node">
<title>Node26</title>
<g id="a_node26"><a xlink:href="classgko_1_1UnsupportedMatrixProperty.html" target="_top" xlink:title="Exception throws if a matrix does not have a property required by a numerical method.">
<polygon fill="#ffffff" stroke="#000000" points="222,-38.5 222,-57.5 397,-57.5 397,-38.5 222,-38.5"/>
<text text-anchor="middle" x="309.5" y="-45.5" font-family="Helvetica,sans-Serif" font-size="10.00" fill="#000000">gko::UnsupportedMatrixProperty</text>
</a>
</g>
</g>
<!-- Node1&#45;&gt;Node26 -->
<g id="edge25" class="edge">
<title>Node1&#45;&gt;Node26</title>
<path fill="none" stroke="#191970" d="M154.5409,-446.2165C156.941,-373.5112 168.9949,-122.4467 222,-67 225.5448,-63.2919 229.6297,-60.2241 234.0565,-57.6931"/>
<polygon fill="#191970" stroke="#191970" points="151.04,-446.1946 154.2338,-456.2966 158.0368,-446.4078 151.04,-446.1946"/>
</g>
<!-- Node27 -->
<g id="node27" class="node">
<title>Node27</title>
<g id="a_node27"><a xlink:href="classgko_1_1ValueMismatch.html" target="_top" xlink:title="ValueMismatch is thrown if two values are not equal.">
<polygon fill="#ffffff" stroke="#000000" points="252,-.5 252,-19.5 367,-19.5 367,-.5 252,-.5"/>
<text text-anchor="middle" x="309.5" y="-7.5" font-family="Helvetica,sans-Serif" font-size="10.00" fill="#000000">gko::ValueMismatch</text>
</a>
</g>
</g>
<!-- Node1&#45;&gt;Node27 -->
<g id="edge26" class="edge">
<title>Node1&#45;&gt;Node27</title>
<path fill="none" stroke="#191970" d="M154.2247,-445.8571C155.5121,-368.3172 164.1534,-90.3923 222,-29 229.8887,-20.6278 240.528,-15.5082 251.6685,-12.4603"/>
<polygon fill="#191970" stroke="#191970" points="150.7208,-446.1094 154.0789,-456.1579 157.7201,-446.2085 150.7208,-446.1094"/>
</g>
<!-- Node2 -->
<g id="node2" class="node">
<title>Node2</title>
<g id="a_node2"><a xlink:title="STL class.">
<polygon fill="#ffffff" stroke="#bfbfbf" points="0,-456.5 0,-475.5 86,-475.5 86,-456.5 0,-456.5"/>
<text text-anchor="middle" x="43" y="-463.5" font-family="Helvetica,sans-Serif" font-size="10.00" fill="#000000">std::exception</text>
</a>
</g>
</g>
<!-- Node2&#45;&gt;Node1 -->
<g id="edge1" class="edge">
<title>Node2&#45;&gt;Node1</title>
<path fill="none" stroke="#191970" d="M96.3317,-466C105.005,-466 113.749,-466 121.7148,-466"/>
<polygon fill="#191970" stroke="#191970" points="96.2334,-462.5001 86.2333,-466 96.2333,-469.5001 96.2334,-462.5001"/>
</g>
</g>
</svg>
