<?xml version="1.0" encoding="UTF-8" standalone="no"?>
<!DOCTYPE svg PUBLIC "-//W3C//DTD SVG 1.1//EN"
 "http://www.w3.org/Graphics/SVG/1.1/DTD/svg11.dtd">
<!-- Generated by graphviz version 2.40.1 (20161225.0304)
 -->
<!-- Title: ExamplesMap Pages: 1 -->
<!--zoomable 473 -->
<svg id="main" version="1.1" xmlns="http://www.w3.org/2000/svg" xmlns:xlink="http://www.w3.org/1999/xlink" xml:space="preserve" onload="init(evt)">
<style type="text/css"><![CDATA[
.edge:hover path { stroke: red; }
.edge:hover polygon { stroke: red; fill: red; }
]]></style>
<script type="text/javascript"><![CDATA[
var edges = document.getElementsByTagName('g');
if (edges && edges.length) {
  for (var i=0;i<edges.length;i++) {
    if (edges[i].id.substr(0,4)=='edge') {
      edges[i].setAttribute('class','edge');
    }
  }
}
]]></script>
        <defs>
                <circle id="rim" cx="0" cy="0" r="7"/>
                <circle id="rim2" cx="0" cy="0" r="3.5"/>
                <g id="zoomPlus">
                        <use xlink:href="#rim" fill="#404040">
                                <set attributeName="fill" to="#808080" begin="zoomplus.mouseover" end="zoomplus.mouseout"/>
                        </use>
                        <path d="M-4,0h8M0,-4v8" fill="none" stroke="white" stroke-width="1.5" pointer-events="none"/>
                </g>
                <g id="zoomMin">
                        <use xlink:href="#rim" fill="#404040">
                                <set attributeName="fill" to="#808080" begin="zoomminus.mouseover" end="zoomminus.mouseout"/>
                        </use>
                        <path d="M-4,0h8" fill="none" stroke="white" stroke-width="1.5" pointer-events="none"/>
                </g>
                <g id="dirArrow">
                        <path fill="none" stroke="white" stroke-width="1.5" d="M0,-3.0v7 M-2.5,-0.5L0,-3.0L2.5,-0.5"/>
                </g>
               <g id="resetDef">
                       <use xlink:href="#rim2" fill="#404040">
                               <set attributeName="fill" to="#808080" begin="reset.mouseover" end="reset.mouseout"/>
                       </use>
               </g>
        </defs>

<script type="text/javascript">
var viewWidth = 2357;
var viewHeight = 473;
</script>
<script xlink:href="svgpan.js"/>
<svg id="graph" class="graph">
<g id="viewport">
<title>ExamplesMap</title>
<polygon fill="#ffffff" stroke="transparent" points="-4,4 -4,-469 2353,-469 2353,4 -4,4"/>
<!-- adaptiveprecision_blockjacobi -->
<g id="node1" class="node">
<title>adaptiveprecision_blockjacobi</title>
<g id="a_node1"><a xlink:href="adaptiveprecision_blockjacobi.html" target="_top" xlink:title="Use a preconditioner in Ginkgo. Solve a linear system.">
<polygon fill="#7fffd4" stroke="#000000" points="195,-218.5 0,-218.5 0,-197.5 195,-197.5 195,-218.5"/>
<text text-anchor="middle" x="97.5" y="-204.9" font-family="Helvetica,sans-Serif" font-size="12.00" fill="#000000">adaptiveprecision_blockjacobi</text>
</a>
</g>
</g>
<!-- cb_gmres -->
<g id="node2" class="node">
<title>cb_gmres</title>
<g id="a_node2"><a xlink:href="cb_gmres.html" target="_top" xlink:title="Solve a linear system with CB&#45;GMRES, both with and without compression. Benchmark the solve time and validate the result.">
<polygon fill="#ff7f50" stroke="#000000" points="1405,-440.5 1330,-440.5 1330,-415.5 1405,-415.5 1405,-440.5"/>
<text text-anchor="middle" x="1367.5" y="-424.9" font-family="Helvetica,sans-Serif" font-size="12.00" fill="#000000">cb_gmres</text>
</a>
</g>
</g>
<!-- custom_logger -->
<g id="node3" class="node">
<title>custom_logger</title>
<g id="a_node3"><a xlink:href="custom_logger.html" target="_top" xlink:title="Creating a custom logger with Ginkgo">
<polygon fill="#ffd700" stroke="#000000" points="514,-108.5 409,-108.5 409,-87.5 514,-87.5 514,-108.5"/>
<text text-anchor="middle" x="461.5" y="-94.9" font-family="Helvetica,sans-Serif" font-size="12.00" fill="#000000">custom_logger</text>
</a>
</g>
</g>
<!-- custom_matrix_format -->
<g id="node4" class="node">
<title>custom_matrix_format</title>
<g id="a_node4"><a xlink:href="custom_matrix_format.html" target="_top" xlink:title="Create a custom matrix format. Matrix free iterative solve.">
<polygon fill="#ff7f50" stroke="#000000" points="1000,-110.5 847,-110.5 847,-85.5 1000,-85.5 1000,-110.5"/>
<text text-anchor="middle" x="923.5" y="-94.9" font-family="Helvetica,sans-Serif" font-size="12.00" fill="#000000">custom_matrix_format</text>
</a>
</g>
</g>
<!-- custom_stopping_criterion -->
<g id="node5" class="node">
<title>custom_stopping_criterion</title>
<g id="a_node5"><a xlink:href="custom_stopping_criterion.html" target="_top" xlink:title="Create a custom stopping criterion.">
<polygon fill="#00bfff" stroke="#000000" points="893.5,-218.5 719.5,-218.5 719.5,-197.5 893.5,-197.5 893.5,-218.5"/>
<text text-anchor="middle" x="806.5" y="-204.9" font-family="Helvetica,sans-Serif" font-size="12.00" fill="#000000">custom_stopping_criterion</text>
</a>
</g>
</g>
<!-- distributed_solver -->
<g id="node6" class="node">
<title>distributed_solver</title>
<g id="a_node6"><a xlink:href="distributed_solver.html" target="_top" xlink:title="Solves a distributed linear system.">
<polygon fill="#dda0dd" stroke="#000000" points="1343.5,-108.5 1221.5,-108.5 1221.5,-87.5 1343.5,-87.5 1343.5,-108.5"/>
<text text-anchor="middle" x="1282.5" y="-94.9" font-family="Helvetica,sans-Serif" font-size="12.00" fill="#000000">distributed_solver</text>
</a>
</g>
</g>
<!-- external_lib_interfacing -->
<g id="node7" class="node">
<title>external_lib_interfacing</title>
<g id="a_node7"><a xlink:href="external_lib_interfacing.html" target="_top" xlink:title="Interface with an external library.">
<polygon fill="#ff7f50" stroke="#000000" points="1579.5,-440.5 1423.5,-440.5 1423.5,-415.5 1579.5,-415.5 1579.5,-440.5"/>
<text text-anchor="middle" x="1501.5" y="-424.9" font-family="Helvetica,sans-Serif" font-size="12.00" fill="#000000">external_lib_interfacing</text>
</a>
</g>
</g>
<!-- ginkgo_overhead -->
<g id="node8" class="node">
<title>ginkgo_overhead</title>
<g id="a_node8"><a xlink:href="ginkgo_overhead.html" target="_top" xlink:title="Measure ginkgo overhead.">
<polygon fill="#ff7f50" stroke="#000000" points="1717,-440.5 1598,-440.5 1598,-415.5 1717,-415.5 1717,-440.5"/>
<text text-anchor="middle" x="1657.5" y="-424.9" font-family="Helvetica,sans-Serif" font-size="12.00" fill="#000000">ginkgo_overhead</text>
</a>
</g>
</g>
<!-- ginkgo_ranges -->
<g id="node9" class="node">
<title>ginkgo_ranges</title>
<g id="a_node9"><a xlink:href="ginkgo_ranges.html" target="_top" xlink:title="Use the ranges concept in ginkgo.">
<polygon fill="#ff7f50" stroke="#000000" points="1839.5,-440.5 1735.5,-440.5 1735.5,-415.5 1839.5,-415.5 1839.5,-440.5"/>
<text text-anchor="middle" x="1787.5" y="-424.9" font-family="Helvetica,sans-Serif" font-size="12.00" fill="#000000">ginkgo_ranges</text>
</a>
</g>
</g>
<!-- heat_equation -->
<g id="node10" class="node">
<title>heat_equation</title>
<g id="a_node10"><a xlink:href="heat_equation.html" target="_top" xlink:title="Assemble a 2D finite difference matrix. Use it to build an implicit Euler integrator.">
<polygon fill="#ff7f50" stroke="#000000" points="1463.5,-110.5 1361.5,-110.5 1361.5,-85.5 1463.5,-85.5 1463.5,-110.5"/>
<text text-anchor="middle" x="1412.5" y="-94.9" font-family="Helvetica,sans-Serif" font-size="12.00" fill="#000000">heat_equation</text>
</a>
</g>
</g>
<!-- schroedinger_splitting -->
<g id="node27" class="node">
<title>schroedinger_splitting</title>
<g id="a_node27"><a xlink:href="schroedinger_splitting.html" target="_top" xlink:title="Build an FFT and iFFT LinOp. Use them to implement a splitting method to solve the Schroedinger equation.">
<polygon fill="#ff7f50" stroke="#000000" points="1486.5,-25 1338.5,-25 1338.5,0 1486.5,0 1486.5,-25"/>
<text text-anchor="middle" x="1412.5" y="-9.4" font-family="Helvetica,sans-Serif" font-size="12.00" fill="#000000">schroedinger_splitting</text>
</a>
</g>
</g>
<!-- heat_equation&#45;&gt;schroedinger_splitting -->
<g id="edge33" class="edge">
<title>heat_equation&#45;&gt;schroedinger_splitting</title>
<path fill="none" stroke="#000000" d="M1412.5,-85.3842C1412.5,-72.25 1412.5,-51.3945 1412.5,-35.3514"/>
<polygon fill="#000000" stroke="#000000" points="1416.0001,-35.1675 1412.5,-25.1676 1409.0001,-35.1676 1416.0001,-35.1675"/>
</g>
<!-- ilu_preconditioned_solver -->
<g id="node11" class="node">
<title>ilu_preconditioned_solver</title>
<g id="a_node11"><a xlink:href="ilu_preconditioned_solver.html" target="_top" xlink:title="Generate an incomplete factorization. ">
<polygon fill="#dc143c" stroke="#000000" points="1519.5,-328.5 1351.5,-328.5 1351.5,-307.5 1519.5,-307.5 1519.5,-328.5"/>
<text text-anchor="middle" x="1435.5" y="-314.9" font-family="Helvetica,sans-Serif" font-size="12.00" fill="#000000">ilu_preconditioned_solver</text>
</a>
</g>
</g>
<!-- ir_ilu_preconditioned_solver -->
<g id="node13" class="node">
<title>ir_ilu_preconditioned_solver</title>
<g id="a_node13"><a xlink:href="ir_ilu_preconditioned_solver.html" target="_top" xlink:title="Generate an incomplete factorization.">
<polygon fill="#dc143c" stroke="#000000" points="1539.5,-218.5 1357.5,-218.5 1357.5,-197.5 1539.5,-197.5 1539.5,-218.5"/>
<text text-anchor="middle" x="1448.5" y="-204.9" font-family="Helvetica,sans-Serif" font-size="12.00" fill="#000000">ir_ilu_preconditioned_solver</text>
</a>
</g>
</g>
<!-- ilu_preconditioned_solver&#45;&gt;ir_ilu_preconditioned_solver -->
<g id="edge16" class="edge">
<title>ilu_preconditioned_solver&#45;&gt;ir_ilu_preconditioned_solver</title>
<path fill="none" stroke="#000000" d="M1436.7465,-307.4527C1438.8861,-289.3482 1443.2941,-252.0498 1446.062,-228.6289"/>
<polygon fill="#000000" stroke="#000000" points="1449.5403,-229.0187 1447.2382,-218.677 1442.5886,-228.197 1449.5403,-229.0187"/>
</g>
<!-- inverse_iteration -->
<g id="node12" class="node">
<title>inverse_iteration</title>
<g id="a_node12"><a xlink:href="inverse_iteration.html" target="_top" xlink:title="Compute eigenvalues with inverse iteration method.">
<polygon fill="#ff7f50" stroke="#000000" points="1849.5,-330.5 1733.5,-330.5 1733.5,-305.5 1849.5,-305.5 1849.5,-330.5"/>
<text text-anchor="middle" x="1791.5" y="-314.9" font-family="Helvetica,sans-Serif" font-size="12.00" fill="#000000">inverse_iteration</text>
</a>
</g>
</g>
<!-- iterative_refinement -->
<g id="node14" class="node">
<title>iterative_refinement</title>
<g id="a_node14"><a xlink:href="iterative_refinement.html" target="_top" xlink:title="Use an iterative refinement method in Ginkgo. Solve a linear system.">
<polygon fill="#228b22" stroke="#000000" points="1707.3858,-305.9878 1707.3858,-330.0122 1660.004,-347 1592.996,-347 1545.6142,-330.0122 1545.6142,-305.9878 1592.996,-289 1660.004,-289 1707.3858,-305.9878"/>
<polygon fill="none" stroke="#000000" points="1711.3949,-303.1748 1711.3949,-332.8252 1660.7024,-351 1592.2976,-351 1541.6051,-332.8252 1541.6051,-303.1748 1592.2976,-285 1660.7024,-285 1711.3949,-303.1748"/>
<polygon fill="none" stroke="#000000" points="1715.404,-300.3617 1715.404,-335.6383 1661.4009,-355 1591.5991,-355 1537.596,-335.6383 1537.596,-300.3617 1591.5991,-281 1661.4009,-281 1715.404,-300.3617"/>
<text text-anchor="middle" x="1626.5" y="-314.9" font-family="Helvetica,sans-Serif" font-size="12.00" fill="#000000">iterative_refinement</text>
</a>
</g>
</g>
<!-- iterative_refinement&#45;&gt;ir_ilu_preconditioned_solver -->
<g id="edge17" class="edge">
<title>iterative_refinement&#45;&gt;ir_ilu_preconditioned_solver</title>
<path fill="none" stroke="#000000" d="M1575.4923,-286.4784C1542.4095,-266.034 1500.7046,-240.2612 1474.3111,-223.9507"/>
<polygon fill="#000000" stroke="#000000" points="1475.9999,-220.88 1465.6532,-218.6003 1472.32,-226.8347 1475.9999,-220.88"/>
</g>
<!-- mixed_precision_ir -->
<g id="node17" class="node">
<title>mixed_precision_ir</title>
<g id="a_node17"><a xlink:href="mixed_precision_ir.html" target="_top" xlink:title="Manually implement a Mixed Precision Iterative Refinement (MPIR) method in Ginkgo. Solve a linear system.">
<polygon fill="#7fffd4" stroke="#000000" points="1690.5,-218.5 1562.5,-218.5 1562.5,-197.5 1690.5,-197.5 1690.5,-218.5"/>
<text text-anchor="middle" x="1626.5" y="-204.9" font-family="Helvetica,sans-Serif" font-size="12.00" fill="#000000">mixed_precision_ir</text>
</a>
</g>
</g>
<!-- iterative_refinement&#45;&gt;mixed_precision_ir -->
<g id="edge21" class="edge">
<title>iterative_refinement&#45;&gt;mixed_precision_ir</title>
<path fill="none" stroke="#000000" d="M1626.5,-280.759C1626.5,-263.4747 1626.5,-243.5692 1626.5,-228.9524"/>
<polygon fill="#000000" stroke="#000000" points="1630.0001,-228.9367 1626.5,-218.9367 1623.0001,-228.9367 1630.0001,-228.9367"/>
</g>
<!-- minimal_cuda_solver -->
<g id="node15" class="node">
<title>minimal_cuda_solver</title>
<g id="a_node15"><a xlink:href="minimal_cuda_solver.html" target="_top" xlink:title="Use the CUDA executor. Solve a linear system.">
<polygon fill="#228b22" stroke="#000000" points="789.8921,-305.9878 789.8921,-330.0122 741.6279,-347 673.3721,-347 625.1079,-330.0122 625.1079,-305.9878 673.3721,-289 741.6279,-289 789.8921,-305.9878"/>
<polygon fill="none" stroke="#000000" points="793.8896,-303.1546 793.8896,-332.8454 742.3105,-351 672.6895,-351 621.1104,-332.8454 621.1104,-303.1546 672.6895,-285 742.3105,-285 793.8896,-303.1546"/>
<polygon fill="none" stroke="#000000" points="797.8871,-300.3214 797.8871,-335.6786 742.9931,-355 672.0069,-355 617.1129,-335.6786 617.1129,-300.3214 672.0069,-281 742.9931,-281 797.8871,-300.3214"/>
<text text-anchor="middle" x="707.5" y="-314.9" font-family="Helvetica,sans-Serif" font-size="12.00" fill="#000000">minimal_cuda_solver</text>
</a>
</g>
</g>
<!-- minimal_cuda_solver&#45;&gt;custom_logger -->
<g id="edge4" class="edge">
<title>minimal_cuda_solver&#45;&gt;custom_logger</title>
<path fill="none" stroke="#000000" d="M616.9732,-303.7225C578.3197,-293.3608 535.522,-275.5506 506.5,-245 473.1017,-209.8426 464.4437,-150.5452 462.2314,-119.0816"/>
<polygon fill="#000000" stroke="#000000" points="465.7126,-118.6403 461.6741,-108.8454 458.723,-119.0209 465.7126,-118.6403"/>
</g>
<!-- minimal_cuda_solver&#45;&gt;custom_stopping_criterion -->
<g id="edge9" class="edge">
<title>minimal_cuda_solver&#45;&gt;custom_stopping_criterion</title>
<path fill="none" stroke="#000000" d="M741.0169,-280.759C757.4878,-262.458 776.6035,-241.2183 789.9135,-226.4294"/>
<polygon fill="#000000" stroke="#000000" points="792.5688,-228.7111 796.657,-218.9367 787.3657,-224.0283 792.5688,-228.7111"/>
</g>
<!-- performance_debugging -->
<g id="node23" class="node">
<title>performance_debugging</title>
<g id="a_node23"><a xlink:href="performance_debugging.html" target="_top" xlink:title="Logging to debug performance within Ginkgo.">
<polygon fill="#ffd700" stroke="#000000" points="806.5,-108.5 642.5,-108.5 642.5,-87.5 806.5,-87.5 806.5,-108.5"/>
<text text-anchor="middle" x="724.5" y="-94.9" font-family="Helvetica,sans-Serif" font-size="12.00" fill="#000000">performance_debugging</text>
</a>
</g>
</g>
<!-- minimal_cuda_solver&#45;&gt;performance_debugging -->
<g id="edge29" class="edge">
<title>minimal_cuda_solver&#45;&gt;performance_debugging</title>
<path fill="none" stroke="#000000" d="M706.527,-280.7361C706.1665,-250.9557 706.5828,-208.1901 710.5,-171 712.3743,-153.2054 716.3253,-133.2717 719.5535,-118.7362"/>
<polygon fill="#000000" stroke="#000000" points="723.0088,-119.3276 721.835,-108.798 716.1862,-117.7613 723.0088,-119.3276"/>
</g>
<!-- simple_solver_logging -->
<g id="node29" class="node">
<title>simple_solver_logging</title>
<g id="a_node29"><a xlink:href="simple_solver_logging.html" target="_top" xlink:title="Logging within Ginkgo.">
<polygon fill="#ffd700" stroke="#000000" points="663,-218.5 516,-218.5 516,-197.5 663,-197.5 663,-218.5"/>
<text text-anchor="middle" x="589.5" y="-204.9" font-family="Helvetica,sans-Serif" font-size="12.00" fill="#000000">simple_solver_logging</text>
</a>
</g>
</g>
<!-- minimal_cuda_solver&#45;&gt;simple_solver_logging -->
<g id="edge35" class="edge">
<title>minimal_cuda_solver&#45;&gt;simple_solver_logging</title>
<path fill="none" stroke="#000000" d="M668.8624,-281.9819C648.7149,-263.2003 624.9565,-241.0527 608.7208,-225.9177"/>
<polygon fill="#000000" stroke="#000000" points="610.6766,-222.956 600.9753,-218.6973 605.9034,-228.0763 610.6766,-222.956"/>
</g>
<!-- mixed_multigrid_solver -->
<g id="node16" class="node">
<title>mixed_multigrid_solver</title>
<g id="a_node16"><a xlink:href="mixed_multigrid_solver.html" target="_top" xlink:title="Use Multigrid in Ginkgo. Solve a linear system.">
<polygon fill="#7fffd4" stroke="#000000" points="2023,-328.5 1868,-328.5 1868,-307.5 2023,-307.5 2023,-328.5"/>
<text text-anchor="middle" x="1945.5" y="-314.9" font-family="Helvetica,sans-Serif" font-size="12.00" fill="#000000">mixed_multigrid_solver</text>
</a>
</g>
</g>
<!-- mixed_spmv -->
<g id="node18" class="node">
<title>mixed_spmv</title>
<g id="a_node18"><a xlink:href="mixed_spmv.html" target="_top" xlink:title="Mixed precision apply. Read a matrix from a file and generate right hand side randomly.">
<polygon fill="#7fffd4" stroke="#000000" points="1949.5,-438.5 1857.5,-438.5 1857.5,-417.5 1949.5,-417.5 1949.5,-438.5"/>
<text text-anchor="middle" x="1903.5" y="-424.9" font-family="Helvetica,sans-Serif" font-size="12.00" fill="#000000">mixed_spmv</text>
</a>
</g>
</g>
<!-- multigrid_preconditioned_solver -->
<g id="node19" class="node">
<title>multigrid_preconditioned_solver</title>
<g id="a_node19"><a xlink:href="multigrid_preconditioned_solver.html" target="_top" xlink:title="Use a preconditioner in Ginkgo. Solve a linear system.">
<polygon fill="#dc143c" stroke="#000000" points="421.5,-218.5 213.5,-218.5 213.5,-197.5 421.5,-197.5 421.5,-218.5"/>
<text text-anchor="middle" x="317.5" y="-204.9" font-family="Helvetica,sans-Serif" font-size="12.00" fill="#000000">multigrid_preconditioned_solver</text>
</a>
</g>
</g>
<!-- nine_pt_stencil_solver -->
<g id="node20" class="node">
<title>nine_pt_stencil_solver</title>
<g id="a_node20"><a xlink:href="nine_pt_stencil_solver.html" target="_top" xlink:title="Use array views to generate a nine point 2D stencil matrix. Solve a linear system.">
<polygon fill="#228b22" stroke="#000000" points="1195.0525,-85.9878 1195.0525,-110.0122 1145.5228,-127 1075.4772,-127 1025.9475,-110.0122 1025.9475,-85.9878 1075.4772,-69 1145.5228,-69 1195.0525,-85.9878"/>
<polygon fill="none" stroke="#000000" points="1199.0424,-83.1287 1199.0424,-112.8713 1146.1864,-131 1074.8136,-131 1021.9576,-112.8713 1021.9576,-83.1287 1074.8136,-65 1146.1864,-65 1199.0424,-83.1287"/>
<polygon fill="none" stroke="#000000" points="1203.0324,-80.2695 1203.0324,-115.7305 1146.8501,-135 1074.1499,-135 1017.9676,-115.7305 1017.9676,-80.2695 1074.1499,-61 1146.8501,-61 1203.0324,-80.2695"/>
<text text-anchor="middle" x="1110.5" y="-94.9" font-family="Helvetica,sans-Serif" font-size="12.00" fill="#000000">nine_pt_stencil_solver</text>
</a>
</g>
</g>
<!-- papi_logging -->
<g id="node21" class="node">
<title>papi_logging</title>
<g id="a_node21"><a xlink:href="papi_logging.html" target="_top" xlink:title="Logging with PAPI.">
<polygon fill="#ffd700" stroke="#000000" points="624.5,-108.5 532.5,-108.5 532.5,-87.5 624.5,-87.5 624.5,-108.5"/>
<text text-anchor="middle" x="578.5" y="-94.9" font-family="Helvetica,sans-Serif" font-size="12.00" fill="#000000">papi_logging</text>
</a>
</g>
</g>
<!-- par_ilu_convergence -->
<g id="node22" class="node">
<title>par_ilu_convergence</title>
<g id="a_node22"><a xlink:href="par_ilu_convergence.html" target="_top" xlink:title="Compute runtimes and residuals for different ParILU(T)/IC(T) iteration counts.">
<polygon fill="#dc143c" stroke="#000000" points="2181.5,-328.5 2041.5,-328.5 2041.5,-307.5 2181.5,-307.5 2181.5,-328.5"/>
<text text-anchor="middle" x="2111.5" y="-314.9" font-family="Helvetica,sans-Serif" font-size="12.00" fill="#000000">par_ilu_convergence</text>
</a>
</g>
</g>
<!-- poisson_solver -->
<g id="node24" class="node">
<title>poisson_solver</title>
<g id="a_node24"><a xlink:href="poisson_solver.html" target="_top" xlink:title="Solve the poisson problem. Generate the matrix within Ginkgo.">
<polygon fill="#228b22" stroke="#000000" points="1101.7764,-305.9878 1101.7764,-330.0122 1066.4673,-347 1016.5327,-347 981.2236,-330.0122 981.2236,-305.9878 1016.5327,-289 1066.4673,-289 1101.7764,-305.9878"/>
<polygon fill="none" stroke="#000000" points="1105.7695,-303.4715 1105.7695,-332.5285 1067.3765,-351 1015.6235,-351 977.2305,-332.5285 977.2305,-303.4715 1015.6235,-285 1067.3765,-285 1105.7695,-303.4715"/>
<polygon fill="none" stroke="#000000" points="1109.7626,-300.9552 1109.7626,-335.0448 1068.2857,-355 1014.7143,-355 973.2374,-335.0448 973.2374,-300.9552 1014.7143,-281 1068.2857,-281 1109.7626,-300.9552"/>
<text text-anchor="middle" x="1041.5" y="-314.9" font-family="Helvetica,sans-Serif" font-size="12.00" fill="#000000">poisson_solver</text>
</a>
</g>
</g>
<!-- poisson_solver&#45;&gt;custom_matrix_format -->
<g id="edge6" class="edge">
<title>poisson_solver&#45;&gt;custom_matrix_format</title>
<path fill="none" stroke="#000000" d="M1021.4829,-280.68C996.7354,-234.5405 955.4252,-157.5215 935.2751,-119.9535"/>
<polygon fill="#000000" stroke="#000000" points="938.218,-118.0355 930.407,-110.8774 932.0493,-121.3442 938.218,-118.0355"/>
</g>
<!-- poisson_solver&#45;&gt;nine_pt_stencil_solver -->
<g id="edge25" class="edge">
<title>poisson_solver&#45;&gt;nine_pt_stencil_solver</title>
<path fill="none" stroke="#000000" d="M1023.2848,-280.892C1010.8678,-250.0538 999.4836,-205.7599 1016.5,-171 1023.3563,-156.9943 1034.3394,-144.9022 1046.4203,-134.8126"/>
<polygon fill="#000000" stroke="#000000" points="1048.7875,-137.4037 1054.4853,-128.4714 1044.4609,-131.9009 1048.7875,-137.4037"/>
</g>
<!-- three_pt_stencil_solver -->
<g id="node30" class="node">
<title>three_pt_stencil_solver</title>
<g id="a_node30"><a xlink:href="three_pt_stencil_solver.html" target="_top" xlink:title="Use array views to generate stencil matrix. Solve a linear system.">
<polygon fill="#228b22" stroke="#000000" points="1211.1743,-195.9878 1211.1743,-220.0122 1159.2301,-237 1085.7699,-237 1033.8257,-220.0122 1033.8257,-195.9878 1085.7699,-179 1159.2301,-179 1211.1743,-195.9878"/>
<polygon fill="none" stroke="#000000" points="1215.1673,-193.0859 1215.1673,-222.9141 1159.8654,-241 1085.1346,-241 1029.8327,-222.9141 1029.8327,-193.0859 1085.1346,-175 1159.8654,-175 1215.1673,-193.0859"/>
<polygon fill="none" stroke="#000000" points="1219.1603,-190.184 1219.1603,-225.816 1160.5007,-245 1084.4993,-245 1025.8397,-225.816 1025.8397,-190.184 1084.4993,-171 1160.5007,-171 1219.1603,-190.184"/>
<text text-anchor="middle" x="1122.5" y="-204.9" font-family="Helvetica,sans-Serif" font-size="12.00" fill="#000000">three_pt_stencil_solver</text>
</a>
</g>
</g>
<!-- poisson_solver&#45;&gt;three_pt_stencil_solver -->
<g id="edge37" class="edge">
<title>poisson_solver&#45;&gt;three_pt_stencil_solver</title>
<path fill="none" stroke="#000000" d="M1068.6972,-281.0656C1075.2421,-272.1774 1082.3085,-262.5811 1089.0999,-253.3582"/>
<polygon fill="#000000" stroke="#000000" points="1092.1256,-255.1519 1095.2367,-245.0242 1086.4889,-251.0013 1092.1256,-255.1519"/>
</g>
<!-- preconditioned_solver -->
<g id="node25" class="node">
<title>preconditioned_solver</title>
<g id="a_node25"><a xlink:href="preconditioned_solver.html" target="_top" xlink:title="Use a preconditioner in Ginkgo. Solve a linear system.">
<polygon fill="#dc143c" stroke="#000000" points="392,-328.5 243,-328.5 243,-307.5 392,-307.5 392,-328.5"/>
<text text-anchor="middle" x="317.5" y="-314.9" font-family="Helvetica,sans-Serif" font-size="12.00" fill="#000000">preconditioned_solver</text>
</a>
</g>
</g>
<!-- preconditioned_solver&#45;&gt;adaptiveprecision_blockjacobi -->
<g id="edge1" class="edge">
<title>preconditioned_solver&#45;&gt;adaptiveprecision_blockjacobi</title>
<path fill="none" stroke="#000000" d="M296.4055,-307.4527C257.1469,-287.8235 172.762,-245.631 127.5528,-223.0264"/>
<polygon fill="#000000" stroke="#000000" points="129.0402,-219.857 118.5307,-218.5153 125.9097,-226.118 129.0402,-219.857"/>
</g>
<!-- preconditioned_solver&#45;&gt;multigrid_preconditioned_solver -->
<g id="edge22" class="edge">
<title>preconditioned_solver&#45;&gt;multigrid_preconditioned_solver</title>
<path fill="none" stroke="#000000" d="M317.5,-307.4527C317.5,-289.4302 317.5,-252.3869 317.5,-228.9477"/>
<polygon fill="#000000" stroke="#000000" points="321.0001,-228.6769 317.5,-218.677 314.0001,-228.677 321.0001,-228.6769"/>
</g>
<!-- preconditioner_export -->
<g id="node26" class="node">
<title>preconditioner_export</title>
<g id="a_node26"><a xlink:href="preconditioner_export.html" target="_top" xlink:title="Generate and store different preconditioners on the disk.">
<polygon fill="#dc143c" stroke="#000000" points="2349,-328.5 2200,-328.5 2200,-307.5 2349,-307.5 2349,-328.5"/>
<text text-anchor="middle" x="2274.5" y="-314.9" font-family="Helvetica,sans-Serif" font-size="12.00" fill="#000000">preconditioner_export</text>
</a>
</g>
</g>
<!-- simple_solver -->
<g id="node28" class="node">
<title>simple_solver</title>
<g id="a_node28"><a xlink:href="simple_solver.html" target="_top" xlink:title="Solve a simple linear system with CG. Read a matrix and right hand side from a file.">
<polygon fill="#228b22" stroke="#000000" points="1304.3081,-415.9878 1304.3081,-440.0122 1271.0307,-457 1223.9693,-457 1190.6919,-440.0122 1190.6919,-415.9878 1223.9693,-399 1271.0307,-399 1304.3081,-415.9878"/>
<polygon fill="none" stroke="#000000" points="1308.3018,-413.537 1308.3018,-442.463 1271.9897,-461 1223.0103,-461 1186.6982,-442.463 1186.6982,-413.537 1223.0103,-395 1271.9897,-395 1308.3018,-413.537"/>
<polygon fill="none" stroke="#000000" points="1312.2955,-411.0861 1312.2955,-444.9139 1272.9488,-465 1222.0512,-465 1182.7045,-444.9139 1182.7045,-411.0861 1222.0512,-391 1272.9488,-391 1312.2955,-411.0861"/>
<text text-anchor="middle" x="1247.5" y="-424.9" font-family="Helvetica,sans-Serif" font-size="12.00" fill="#000000">simple_solver</text>
</a>
</g>
</g>
<!-- simple_solver&#45;&gt;custom_logger -->
<g id="edge2" class="edge">
<title>simple_solver&#45;&gt;custom_logger</title>
<path fill="none" stroke="#000000" d="M1182.5498,-426.2934C1036.0744,-421.588 684.5421,-405.2518 578.5,-355 515.4505,-325.1217 494.58,-308.8707 466.5,-245 448.092,-203.1292 452.9955,-147.887 457.6011,-118.4824"/>
<polygon fill="#000000" stroke="#000000" points="461.0621,-119.0073 459.3025,-108.5597 454.1628,-117.8243 461.0621,-119.0073"/>
</g>
<!-- simple_solver&#45;&gt;custom_matrix_format -->
<g id="edge5" class="edge">
<title>simple_solver&#45;&gt;custom_matrix_format</title>
<path fill="none" stroke="#000000" d="M1182.6448,-419.5715C1108.4604,-408.5601 993.4838,-386.8528 964.5,-355 904.0019,-288.5134 912.7741,-170.1458 919.6879,-120.6935"/>
<polygon fill="#000000" stroke="#000000" points="923.1634,-121.1182 921.194,-110.708 916.2417,-120.0742 923.1634,-121.1182"/>
</g>
<!-- simple_solver&#45;&gt;custom_stopping_criterion -->
<g id="edge8" class="edge">
<title>simple_solver&#45;&gt;custom_stopping_criterion</title>
<path fill="none" stroke="#000000" d="M1182.6683,-419.88C1097.0223,-408.1815 951.8302,-384.6909 907.5,-355 859.6782,-322.9705 828.0536,-259.952 814.3175,-227.8339"/>
<polygon fill="#000000" stroke="#000000" points="817.543,-226.4748 810.4885,-218.5702 811.0739,-229.1488 817.543,-226.4748"/>
</g>
<!-- simple_solver&#45;&gt;distributed_solver -->
<g id="edge10" class="edge">
<title>simple_solver&#45;&gt;distributed_solver</title>
<path fill="none" stroke="#000000" d="M1255.4006,-390.9907C1257.637,-379.4998 1259.8962,-366.7634 1261.5,-355 1273.4055,-267.6786 1279.4189,-162.6783 1281.5618,-118.8273"/>
<polygon fill="#000000" stroke="#000000" points="1285.0588,-118.9719 1282.0348,-108.8178 1278.0666,-118.6415 1285.0588,-118.9719"/>
</g>
<!-- simple_solver&#45;&gt;heat_equation -->
<g id="edge12" class="edge">
<title>simple_solver&#45;&gt;heat_equation</title>
<path fill="none" stroke="#000000" d="M1264.9686,-390.708C1270.1382,-379.3187 1275.6965,-366.7097 1280.5,-355 1313.5881,-274.3392 1303.9079,-245.9168 1348.5,-171 1360.3561,-151.0812 1377.9448,-131.4953 1391.6847,-117.6336"/>
<polygon fill="#000000" stroke="#000000" points="1394.1991,-120.0697 1398.8612,-110.5557 1389.2837,-115.0858 1394.1991,-120.0697"/>
</g>
<!-- simple_solver&#45;&gt;ilu_preconditioned_solver -->
<g id="edge14" class="edge">
<title>simple_solver&#45;&gt;ilu_preconditioned_solver</title>
<path fill="none" stroke="#000000" d="M1293.49,-401.091C1329.5462,-379.9943 1378.4848,-351.36 1408.4826,-333.8081"/>
<polygon fill="#000000" stroke="#000000" points="1410.2853,-336.8084 1417.1489,-328.7373 1406.7502,-330.7666 1410.2853,-336.8084"/>
</g>
<!-- simple_solver&#45;&gt;inverse_iteration -->
<g id="edge15" class="edge">
<title>simple_solver&#45;&gt;inverse_iteration</title>
<path fill="none" stroke="#000000" d="M1293.5479,-401.3774C1302.2662,-397.2927 1311.485,-393.5825 1320.5,-391 1493.7967,-341.3567 1552.1104,-407.7069 1724.5,-355 1738.6764,-350.6657 1753.2211,-343.0823 1765.1208,-335.9047"/>
<polygon fill="#000000" stroke="#000000" points="1767.0407,-338.8322 1773.6552,-330.5557 1763.3231,-332.9009 1767.0407,-338.8322"/>
</g>
<!-- simple_solver&#45;&gt;iterative_refinement -->
<g id="edge18" class="edge">
<title>simple_solver&#45;&gt;iterative_refinement</title>
<path fill="none" stroke="#000000" d="M1294.1323,-401.7999C1302.7133,-397.7236 1311.734,-393.9074 1320.5,-391 1409.5489,-361.4659 1437.9855,-379.68 1528.5,-355 1536.2338,-352.8913 1544.2097,-350.4118 1552.115,-347.7518"/>
<polygon fill="#000000" stroke="#000000" points="1553.3986,-351.0113 1561.7018,-344.4304 1551.107,-344.397 1553.3986,-351.0113"/>
</g>
<!-- simple_solver&#45;&gt;minimal_cuda_solver -->
<g id="edge19" class="edge">
<title>simple_solver&#45;&gt;minimal_cuda_solver</title>
<path fill="none" stroke="#000000" d="M1182.6227,-418.29C1101.9836,-405.7795 960.3534,-382.3564 840.5,-355 825.4534,-351.5656 809.5612,-347.518 794.2009,-343.3828"/>
<polygon fill="#000000" stroke="#000000" points="794.7663,-339.9093 784.1979,-340.6583 792.9267,-346.6633 794.7663,-339.9093"/>
</g>
<!-- simple_solver&#45;&gt;mixed_multigrid_solver -->
<g id="edge20" class="edge">
<title>simple_solver&#45;&gt;mixed_multigrid_solver</title>
<path fill="none" stroke="#000000" d="M1293.5018,-401.2129C1302.2247,-397.1448 1311.457,-393.4829 1320.5,-391 1551.5934,-327.5494 1625.4111,-410.675 1858.5,-355 1878.6512,-350.1867 1900.0818,-341.1246 1916.6311,-333.1738"/>
<polygon fill="#000000" stroke="#000000" points="1918.3492,-336.2289 1925.7644,-328.6614 1915.2486,-329.953 1918.3492,-336.2289"/>
</g>
<!-- simple_solver&#45;&gt;nine_pt_stencil_solver -->
<g id="edge23" class="edge">
<title>simple_solver&#45;&gt;nine_pt_stencil_solver</title>
<path fill="none" stroke="#000000" d="M1254.6507,-390.8182C1262.7763,-337.8382 1270.0369,-239.4703 1228.5,-171 1218.2859,-154.1628 1202.5621,-140.6349 1185.8892,-130.0196"/>
<polygon fill="#000000" stroke="#000000" points="1187.4802,-126.8921 1177.1079,-124.7319 1183.8692,-132.8889 1187.4802,-126.8921"/>
</g>
<!-- simple_solver&#45;&gt;par_ilu_convergence -->
<g id="edge27" class="edge">
<title>simple_solver&#45;&gt;par_ilu_convergence</title>
<path fill="none" stroke="#000000" d="M1293.4688,-401.091C1302.1951,-397.0354 1311.4371,-393.4091 1320.5,-391 1626.7144,-309.6009 1725.0569,-431.6279 2032.5,-355 2050.8234,-350.433 2070.0386,-341.5374 2084.93,-333.6132"/>
<polygon fill="#000000" stroke="#000000" points="2086.9646,-336.4886 2094.0387,-328.6014 2083.5901,-330.3557 2086.9646,-336.4886"/>
</g>
<!-- simple_solver&#45;&gt;poisson_solver -->
<g id="edge30" class="edge">
<title>simple_solver&#45;&gt;poisson_solver</title>
<path fill="none" stroke="#000000" d="M1199.4621,-402.3487C1169.705,-386.459 1131.2922,-365.9473 1099.7977,-349.1298"/>
<polygon fill="#000000" stroke="#000000" points="1101.158,-345.8885 1090.6882,-344.2656 1097.8608,-352.0633 1101.158,-345.8885"/>
</g>
<!-- simple_solver&#45;&gt;preconditioned_solver -->
<g id="edge31" class="edge">
<title>simple_solver&#45;&gt;preconditioned_solver</title>
<path fill="none" stroke="#000000" d="M1182.6204,-426.8671C1044.0877,-423.4243 709.6495,-409.6473 435.5,-355 407.9882,-349.516 377.8201,-339.9911 354.8744,-331.9789"/>
<polygon fill="#000000" stroke="#000000" points="355.789,-328.5896 345.1943,-328.5393 353.4453,-335.1856 355.789,-328.5896"/>
</g>
<!-- simple_solver&#45;&gt;preconditioner_export -->
<g id="edge32" class="edge">
<title>simple_solver&#45;&gt;preconditioner_export</title>
<path fill="none" stroke="#000000" d="M1293.0544,-401.2066C1301.8986,-397.0832 1311.2887,-393.4035 1320.5,-391 1694.9605,-293.2941 1813.5292,-442.5222 2190.5,-355 2210.039,-350.4636 2230.6719,-341.4429 2246.599,-333.4444"/>
<polygon fill="#000000" stroke="#000000" points="2248.5888,-336.3553 2255.856,-328.6456 2245.3671,-330.1407 2248.5888,-336.3553"/>
</g>
<!-- simple_solver&#45;&gt;simple_solver_logging -->
<g id="edge34" class="edge">
<title>simple_solver&#45;&gt;simple_solver_logging</title>
<path fill="none" stroke="#000000" d="M1182.4358,-425.0511C1027.9483,-417.4262 648.9146,-394.8212 608.5,-355 574.8864,-321.8799 579.68,-260.7806 585.1046,-228.7811"/>
<polygon fill="#000000" stroke="#000000" points="588.5787,-229.2442 586.9877,-218.7695 581.6994,-227.9502 588.5787,-229.2442"/>
</g>
<!-- simple_solver&#45;&gt;three_pt_stencil_solver -->
<g id="edge36" class="edge">
<title>simple_solver&#45;&gt;three_pt_stencil_solver</title>
<path fill="none" stroke="#000000" d="M1226.2955,-390.68C1204.8609,-352.9553 1171.6974,-294.5874 1148.6466,-254.0181"/>
<polygon fill="#000000" stroke="#000000" points="1151.5829,-252.1008 1143.5996,-245.1353 1145.4966,-255.5589 1151.5829,-252.1008"/>
</g>
<!-- simple_solver_logging&#45;&gt;custom_logger -->
<g id="edge3" class="edge">
<title>simple_solver_logging&#45;&gt;custom_logger</title>
<path fill="none" stroke="#000000" d="M577.2268,-197.4527C555.1112,-178.4471 508.3821,-138.2893 481.5598,-115.2389"/>
<polygon fill="#000000" stroke="#000000" points="483.7895,-112.5402 473.9241,-108.677 479.2271,-117.8491 483.7895,-112.5402"/>
</g>
<!-- simple_solver_logging&#45;&gt;papi_logging -->
<g id="edge26" class="edge">
<title>simple_solver_logging&#45;&gt;papi_logging</title>
<path fill="none" stroke="#000000" d="M588.4453,-197.4527C586.6348,-179.3482 582.905,-142.0498 580.5629,-118.6289"/>
<polygon fill="#000000" stroke="#000000" points="584.0455,-118.279 579.5677,-108.677 577.0802,-118.9756 584.0455,-118.279"/>
</g>
<!-- simple_solver_logging&#45;&gt;performance_debugging -->
<g id="edge28" class="edge">
<title>simple_solver_logging&#45;&gt;performance_debugging</title>
<path fill="none" stroke="#000000" d="M602.4444,-197.4527C625.7695,-178.4471 675.0541,-138.2893 703.3431,-115.2389"/>
<polygon fill="#000000" stroke="#000000" points="705.855,-117.7071 711.3965,-108.677 701.4332,-112.2804 705.855,-117.7071"/>
</g>
<!-- three_pt_stencil_solver&#45;&gt;custom_matrix_format -->
<g id="edge7" class="edge">
<title>three_pt_stencil_solver&#45;&gt;custom_matrix_format</title>
<path fill="none" stroke="#000000" d="M1066.2725,-176.9195C1030.3887,-157.0842 985.1793,-132.0941 955.3606,-115.6114"/>
<polygon fill="#000000" stroke="#000000" points="956.6965,-112.3507 946.2513,-110.5761 953.31,-118.4771 956.6965,-112.3507"/>
</g>
<!-- three_pt_stencil_solver&#45;&gt;distributed_solver -->
<g id="edge11" class="edge">
<title>three_pt_stencil_solver&#45;&gt;distributed_solver</title>
<path fill="none" stroke="#000000" d="M1171.3747,-174.3987C1200.2573,-154.5419 1235.5525,-130.2764 1258.5052,-114.4964"/>
<polygon fill="#000000" stroke="#000000" points="1260.6918,-117.2405 1266.9494,-108.6911 1256.7261,-111.4722 1260.6918,-117.2405"/>
</g>
<!-- three_pt_stencil_solver&#45;&gt;heat_equation -->
<g id="edge13" class="edge">
<title>three_pt_stencil_solver&#45;&gt;heat_equation</title>
<path fill="none" stroke="#000000" d="M1207.6653,-186.3696C1251.8513,-173.8102 1306.137,-156.2608 1352.5,-135 1364.0292,-129.713 1376.0573,-122.6426 1386.2907,-116.0992"/>
<polygon fill="#000000" stroke="#000000" points="1388.321,-118.9533 1394.7641,-110.5428 1384.4824,-113.0997 1388.321,-118.9533"/>
</g>
<!-- three_pt_stencil_solver&#45;&gt;nine_pt_stencil_solver -->
<g id="edge24" class="edge">
<title>three_pt_stencil_solver&#45;&gt;nine_pt_stencil_solver</title>
<path fill="none" stroke="#000000" d="M1118.4373,-170.759C1117.5479,-162.6058 1116.5948,-153.8692 1115.6687,-145.3797"/>
<polygon fill="#000000" stroke="#000000" points="1119.1224,-144.7641 1114.5585,-135.2026 1112.1637,-145.5232 1119.1224,-144.7641"/>
</g>
</g>
</svg>
        <g id="navigator" transform="translate(0 0)" fill="#404254">
                <rect fill="#f2f5e9" fill-opacity="0.5" stroke="#606060" stroke-width=".5" x="0" y="0" width="60" height="60"/>
                <use id="zoomplus" xlink:href="#zoomPlus" x="17" y="9" onmousedown="handleZoom(evt,'in')"/>
                <use id="zoomminus" xlink:href="#zoomMin" x="42" y="9" onmousedown="handleZoom(evt,'out')"/>
                <use id="reset" xlink:href="#resetDef" x="30" y="36" onmousedown="handleReset()"/>
                <g id="arrowUp" xlink:href="#dirArrow" transform="translate(30 24)" onmousedown="handlePan(0,-1)">
                  <use xlink:href="#rim" fill="#404040">
                        <set attributeName="fill" to="#808080" begin="arrowUp.mouseover" end="arrowUp.mouseout"/>
                  </use>
                  <path fill="none" stroke="white" stroke-width="1.5" d="M0,-3.0v7 M-2.5,-0.5L0,-3.0L2.5,-0.5"/>
                </g>
                <g id="arrowRight" xlink:href="#dirArrow" transform="rotate(90) translate(36 -43)" onmousedown="handlePan(1,0)">
                  <use xlink:href="#rim" fill="#404040">
                        <set attributeName="fill" to="#808080" begin="arrowRight.mouseover" end="arrowRight.mouseout"/>
                  </use>
                  <path fill="none" stroke="white" stroke-width="1.5" d="M0,-3.0v7 M-2.5,-0.5L0,-3.0L2.5,-0.5"/>
                </g>
                <g id="arrowDown" xlink:href="#dirArrow" transform="rotate(180) translate(-30 -48)" onmousedown="handlePan(0,1)">
                  <use xlink:href="#rim" fill="#404040">
                        <set attributeName="fill" to="#808080" begin="arrowDown.mouseover" end="arrowDown.mouseout"/>
                  </use>
                  <path fill="none" stroke="white" stroke-width="1.5" d="M0,-3.0v7 M-2.5,-0.5L0,-3.0L2.5,-0.5"/>
                </g>
                <g id="arrowLeft" xlink:href="#dirArrow" transform="rotate(270) translate(-36 17)" onmousedown="handlePan(-1,0)">
                  <use xlink:href="#rim" fill="#404040">
                        <set attributeName="fill" to="#808080" begin="arrowLeft.mouseover" end="arrowLeft.mouseout"/>
                  </use>
                  <path fill="none" stroke="white" stroke-width="1.5" d="M0,-3.0v7 M-2.5,-0.5L0,-3.0L2.5,-0.5"/>
                </g>
        </g>
        <svg viewBox="0 0 15 15" width="100%" height="30px" preserveAspectRatio="xMaxYMin meet">
         <g id="arrow_out" transform="scale(0.3 0.3)">
          <a xlink:href="dot_inline_dotgraph_1_org.svg" target="_base">
           <rect id="button" ry="5" rx="5" y="6" x="6" height="38" width="38"
                fill="#f2f5e9" fill-opacity="0.5" stroke="#606060" stroke-width="1.0"/>
           <path id="arrow"
             d="M 11.500037,31.436501 C 11.940474,20.09759 22.043105,11.32322 32.158766,21.979434 L 37.068811,17.246167 C 37.068811,17.246167 37.088388,32 37.088388,32 L 22.160133,31.978069 C 22.160133,31.978069 26.997745,27.140456 26.997745,27.140456 C 18.528582,18.264221 13.291696,25.230495 11.500037,31.436501 z"
             style="fill:#404040;"/>
          </a>
         </g>
        </svg>
</svg>
