<?xml version="1.0" encoding="UTF-8" standalone="no"?>
<!DOCTYPE svg PUBLIC "-//W3C//DTD SVG 1.1//EN"
 "http://www.w3.org/Graphics/SVG/1.1/DTD/svg11.dtd">
<!-- Generated by graphviz version 2.40.1 (20161225.0304)
 -->
<!-- Title: ExamplesMap Pages: 1 -->
<svg width="2433pt" height="473pt"
 viewBox="0.00 0.00 2433.00 473.00" xmlns="http://www.w3.org/2000/svg" xmlns:xlink="http://www.w3.org/1999/xlink">
<g id="graph0" class="graph" transform="scale(1 1) rotate(0) translate(4 469)">
<title>ExamplesMap</title>
<polygon fill="#ffffff" stroke="transparent" points="-4,4 -4,-469 2429,-469 2429,4 -4,4"/>
<!-- adaptiveprecision_blockjacobi -->
<g id="node1" class="node">
<title>adaptiveprecision_blockjacobi</title>
<g id="a_node1"><a xlink:href="adaptiveprecision_blockjacobi.html" target="_top" xlink:title="Use a preconditioner in Ginkgo. Solve a linear system.">
<polygon fill="#7fffd4" stroke="#000000" points="195,-218.5 0,-218.5 0,-197.5 195,-197.5 195,-218.5"/>
<text text-anchor="middle" x="97.5" y="-204.9" font-family="Helvetica,sans-Serif" font-size="12.00" fill="#000000">adaptiveprecision_blockjacobi</text>
</a>
</g>
</g>
<!-- cb_gmres -->
<g id="node2" class="node">
<title>cb_gmres</title>
<g id="a_node2"><a xlink:href="cb_gmres.html" target="_top" xlink:title="Solve a linear system with CB&#45;GMRES, both with and without compression. Benchmark the solve time and validate the result.">
<polygon fill="#ff7f50" stroke="#000000" points="1449,-440.5 1374,-440.5 1374,-415.5 1449,-415.5 1449,-440.5"/>
<text text-anchor="middle" x="1411.5" y="-424.9" font-family="Helvetica,sans-Serif" font-size="12.00" fill="#000000">cb_gmres</text>
</a>
</g>
</g>
<!-- custom_logger -->
<g id="node3" class="node">
<title>custom_logger</title>
<g id="a_node3"><a xlink:href="custom_logger.html" target="_top" xlink:title="Creating a custom logger with Ginkgo">
<polygon fill="#ffd700" stroke="#000000" points="494,-108.5 389,-108.5 389,-87.5 494,-87.5 494,-108.5"/>
<text text-anchor="middle" x="441.5" y="-94.9" font-family="Helvetica,sans-Serif" font-size="12.00" fill="#000000">custom_logger</text>
</a>
</g>
</g>
<!-- custom_matrix_format -->
<g id="node4" class="node">
<title>custom_matrix_format</title>
<g id="a_node4"><a xlink:href="custom_matrix_format.html" target="_top" xlink:title="Create a custom matrix format. Matrix free iterative solve.">
<polygon fill="#ff7f50" stroke="#000000" points="958,-110.5 805,-110.5 805,-85.5 958,-85.5 958,-110.5"/>
<text text-anchor="middle" x="881.5" y="-94.9" font-family="Helvetica,sans-Serif" font-size="12.00" fill="#000000">custom_matrix_format</text>
</a>
</g>
</g>
<!-- custom_stopping_criterion -->
<g id="node5" class="node">
<title>custom_stopping_criterion</title>
<g id="a_node5"><a xlink:href="custom_stopping_criterion.html" target="_top" xlink:title="Create a custom stopping criterion.">
<polygon fill="#00bfff" stroke="#000000" points="893.5,-218.5 719.5,-218.5 719.5,-197.5 893.5,-197.5 893.5,-218.5"/>
<text text-anchor="middle" x="806.5" y="-204.9" font-family="Helvetica,sans-Serif" font-size="12.00" fill="#000000">custom_stopping_criterion</text>
</a>
</g>
</g>
<!-- distributed_solver -->
<g id="node6" class="node">
<title>distributed_solver</title>
<g id="a_node6"><a xlink:href="distributed_solver.html" target="_top" xlink:title="Solves a distributed linear system.">
<polygon fill="#dda0dd" stroke="#000000" points="1438.5,-108.5 1316.5,-108.5 1316.5,-87.5 1438.5,-87.5 1438.5,-108.5"/>
<text text-anchor="middle" x="1377.5" y="-94.9" font-family="Helvetica,sans-Serif" font-size="12.00" fill="#000000">distributed_solver</text>
</a>
</g>
</g>
<!-- external_lib_interfacing -->
<g id="node7" class="node">
<title>external_lib_interfacing</title>
<g id="a_node7"><a xlink:href="external_lib_interfacing.html" target="_top" xlink:title="Interface with an external library.">
<polygon fill="#ff7f50" stroke="#000000" points="1623.5,-440.5 1467.5,-440.5 1467.5,-415.5 1623.5,-415.5 1623.5,-440.5"/>
<text text-anchor="middle" x="1545.5" y="-424.9" font-family="Helvetica,sans-Serif" font-size="12.00" fill="#000000">external_lib_interfacing</text>
</a>
</g>
</g>
<!-- ginkgo_overhead -->
<g id="node8" class="node">
<title>ginkgo_overhead</title>
<g id="a_node8"><a xlink:href="ginkgo_overhead.html" target="_top" xlink:title="Measure ginkgo overhead.">
<polygon fill="#ff7f50" stroke="#000000" points="1761,-440.5 1642,-440.5 1642,-415.5 1761,-415.5 1761,-440.5"/>
<text text-anchor="middle" x="1701.5" y="-424.9" font-family="Helvetica,sans-Serif" font-size="12.00" fill="#000000">ginkgo_overhead</text>
</a>
</g>
</g>
<!-- ginkgo_ranges -->
<g id="node9" class="node">
<title>ginkgo_ranges</title>
<g id="a_node9"><a xlink:href="ginkgo_ranges.html" target="_top" xlink:title="Use the ranges concept in ginkgo.">
<polygon fill="#ff7f50" stroke="#000000" points="1883.5,-440.5 1779.5,-440.5 1779.5,-415.5 1883.5,-415.5 1883.5,-440.5"/>
<text text-anchor="middle" x="1831.5" y="-424.9" font-family="Helvetica,sans-Serif" font-size="12.00" fill="#000000">ginkgo_ranges</text>
</a>
</g>
</g>
<!-- heat_equation -->
<g id="node10" class="node">
<title>heat_equation</title>
<g id="a_node10"><a xlink:href="heat_equation.html" target="_top" xlink:title="Assemble a 2D finite difference matrix. Use it to build an implicit Euler integrator.">
<polygon fill="#ff7f50" stroke="#000000" points="1558.5,-110.5 1456.5,-110.5 1456.5,-85.5 1558.5,-85.5 1558.5,-110.5"/>
<text text-anchor="middle" x="1507.5" y="-94.9" font-family="Helvetica,sans-Serif" font-size="12.00" fill="#000000">heat_equation</text>
</a>
</g>
</g>
<!-- schroedinger_splitting -->
<g id="node28" class="node">
<title>schroedinger_splitting</title>
<g id="a_node28"><a xlink:href="schroedinger_splitting.html" target="_top" xlink:title="Build an FFT and iFFT LinOp. Use them to implement a splitting method to solve the Schroedinger equation.">
<polygon fill="#ff7f50" stroke="#000000" points="1581.5,-25 1433.5,-25 1433.5,0 1581.5,0 1581.5,-25"/>
<text text-anchor="middle" x="1507.5" y="-9.4" font-family="Helvetica,sans-Serif" font-size="12.00" fill="#000000">schroedinger_splitting</text>
</a>
</g>
</g>
<!-- heat_equation&#45;&gt;schroedinger_splitting -->
<g id="edge36" class="edge">
<title>heat_equation&#45;&gt;schroedinger_splitting</title>
<path fill="none" stroke="#000000" d="M1507.5,-85.3842C1507.5,-72.25 1507.5,-51.3945 1507.5,-35.3514"/>
<polygon fill="#000000" stroke="#000000" points="1511.0001,-35.1675 1507.5,-25.1676 1504.0001,-35.1676 1511.0001,-35.1675"/>
</g>
<!-- ilu_preconditioned_solver -->
<g id="node11" class="node">
<title>ilu_preconditioned_solver</title>
<g id="a_node11"><a xlink:href="ilu_preconditioned_solver.html" target="_top" xlink:title="Generate an incomplete factorization. ">
<polygon fill="#dc143c" stroke="#000000" points="1595.5,-328.5 1427.5,-328.5 1427.5,-307.5 1595.5,-307.5 1595.5,-328.5"/>
<text text-anchor="middle" x="1511.5" y="-314.9" font-family="Helvetica,sans-Serif" font-size="12.00" fill="#000000">ilu_preconditioned_solver</text>
</a>
</g>
</g>
<!-- ir_ilu_preconditioned_solver -->
<g id="node13" class="node">
<title>ir_ilu_preconditioned_solver</title>
<g id="a_node13"><a xlink:href="ir_ilu_preconditioned_solver.html" target="_top" xlink:title="Generate an incomplete factorization.">
<polygon fill="#dc143c" stroke="#000000" points="1615.5,-218.5 1433.5,-218.5 1433.5,-197.5 1615.5,-197.5 1615.5,-218.5"/>
<text text-anchor="middle" x="1524.5" y="-204.9" font-family="Helvetica,sans-Serif" font-size="12.00" fill="#000000">ir_ilu_preconditioned_solver</text>
</a>
</g>
</g>
<!-- ilu_preconditioned_solver&#45;&gt;ir_ilu_preconditioned_solver -->
<g id="edge16" class="edge">
<title>ilu_preconditioned_solver&#45;&gt;ir_ilu_preconditioned_solver</title>
<path fill="none" stroke="#000000" d="M1512.7465,-307.4527C1514.8861,-289.3482 1519.2941,-252.0498 1522.062,-228.6289"/>
<polygon fill="#000000" stroke="#000000" points="1525.5403,-229.0187 1523.2382,-218.677 1518.5886,-228.197 1525.5403,-229.0187"/>
</g>
<!-- inverse_iteration -->
<g id="node12" class="node">
<title>inverse_iteration</title>
<g id="a_node12"><a xlink:href="inverse_iteration.html" target="_top" xlink:title="Compute eigenvalues with inverse iteration method.">
<polygon fill="#ff7f50" stroke="#000000" points="1925.5,-330.5 1809.5,-330.5 1809.5,-305.5 1925.5,-305.5 1925.5,-330.5"/>
<text text-anchor="middle" x="1867.5" y="-314.9" font-family="Helvetica,sans-Serif" font-size="12.00" fill="#000000">inverse_iteration</text>
</a>
</g>
</g>
<!-- iterative_refinement -->
<g id="node14" class="node">
<title>iterative_refinement</title>
<g id="a_node14"><a xlink:href="iterative_refinement.html" target="_top" xlink:title="Use an iterative refinement method in Ginkgo. Solve a linear system.">
<polygon fill="#228b22" stroke="#000000" points="1783.3858,-305.9878 1783.3858,-330.0122 1736.004,-347 1668.996,-347 1621.6142,-330.0122 1621.6142,-305.9878 1668.996,-289 1736.004,-289 1783.3858,-305.9878"/>
<polygon fill="none" stroke="#000000" points="1787.3949,-303.1748 1787.3949,-332.8252 1736.7024,-351 1668.2976,-351 1617.6051,-332.8252 1617.6051,-303.1748 1668.2976,-285 1736.7024,-285 1787.3949,-303.1748"/>
<polygon fill="none" stroke="#000000" points="1791.404,-300.3617 1791.404,-335.6383 1737.4009,-355 1667.5991,-355 1613.596,-335.6383 1613.596,-300.3617 1667.5991,-281 1737.4009,-281 1791.404,-300.3617"/>
<text text-anchor="middle" x="1702.5" y="-314.9" font-family="Helvetica,sans-Serif" font-size="12.00" fill="#000000">iterative_refinement</text>
</a>
</g>
</g>
<!-- iterative_refinement&#45;&gt;ir_ilu_preconditioned_solver -->
<g id="edge17" class="edge">
<title>iterative_refinement&#45;&gt;ir_ilu_preconditioned_solver</title>
<path fill="none" stroke="#000000" d="M1651.4923,-286.4784C1618.4095,-266.034 1576.7046,-240.2612 1550.3111,-223.9507"/>
<polygon fill="#000000" stroke="#000000" points="1551.9999,-220.88 1541.6532,-218.6003 1548.32,-226.8347 1551.9999,-220.88"/>
</g>
<!-- mixed_precision_ir -->
<g id="node18" class="node">
<title>mixed_precision_ir</title>
<g id="a_node18"><a xlink:href="mixed_precision_ir.html" target="_top" xlink:title="Manually implement a Mixed Precision Iterative Refinement (MPIR) method in Ginkgo. Solve a linear system.">
<polygon fill="#7fffd4" stroke="#000000" points="1766.5,-218.5 1638.5,-218.5 1638.5,-197.5 1766.5,-197.5 1766.5,-218.5"/>
<text text-anchor="middle" x="1702.5" y="-204.9" font-family="Helvetica,sans-Serif" font-size="12.00" fill="#000000">mixed_precision_ir</text>
</a>
</g>
</g>
<!-- iterative_refinement&#45;&gt;mixed_precision_ir -->
<g id="edge24" class="edge">
<title>iterative_refinement&#45;&gt;mixed_precision_ir</title>
<path fill="none" stroke="#000000" d="M1702.5,-280.759C1702.5,-263.4747 1702.5,-243.5692 1702.5,-228.9524"/>
<polygon fill="#000000" stroke="#000000" points="1706.0001,-228.9367 1702.5,-218.9367 1699.0001,-228.9367 1706.0001,-228.9367"/>
</g>
<!-- kokkos_assembly -->
<g id="node15" class="node">
<title>kokkos_assembly</title>
<g id="a_node15"><a xlink:href="kokkos_assembly.html" target="_top" xlink:title="Assembles a CSR matrix with Kokkos API.">
<polygon fill="#ff7f50" stroke="#000000" points="1095,-110.5 976,-110.5 976,-85.5 1095,-85.5 1095,-110.5"/>
<text text-anchor="middle" x="1035.5" y="-94.9" font-family="Helvetica,sans-Serif" font-size="12.00" fill="#000000">kokkos_assembly</text>
</a>
</g>
</g>
<!-- minimal_cuda_solver -->
<g id="node16" class="node">
<title>minimal_cuda_solver</title>
<g id="a_node16"><a xlink:href="minimal_cuda_solver.html" target="_top" xlink:title="Use the CUDA executor. Solve a linear system.">
<polygon fill="#228b22" stroke="#000000" points="789.8921,-305.9878 789.8921,-330.0122 741.6279,-347 673.3721,-347 625.1079,-330.0122 625.1079,-305.9878 673.3721,-289 741.6279,-289 789.8921,-305.9878"/>
<polygon fill="none" stroke="#000000" points="793.8896,-303.1546 793.8896,-332.8454 742.3105,-351 672.6895,-351 621.1104,-332.8454 621.1104,-303.1546 672.6895,-285 742.3105,-285 793.8896,-303.1546"/>
<polygon fill="none" stroke="#000000" points="797.8871,-300.3214 797.8871,-335.6786 742.9931,-355 672.0069,-355 617.1129,-335.6786 617.1129,-300.3214 672.0069,-281 742.9931,-281 797.8871,-300.3214"/>
<text text-anchor="middle" x="707.5" y="-314.9" font-family="Helvetica,sans-Serif" font-size="12.00" fill="#000000">minimal_cuda_solver</text>
</a>
</g>
</g>
<!-- minimal_cuda_solver&#45;&gt;custom_logger -->
<g id="edge4" class="edge">
<title>minimal_cuda_solver&#45;&gt;custom_logger</title>
<path fill="none" stroke="#000000" d="M617.0956,-301.6368C579.1549,-290.9074 536.8842,-273.3865 506.5,-245 487.0973,-226.873 460.6202,-154.4571 448.3101,-118.488"/>
<polygon fill="#000000" stroke="#000000" points="451.4847,-116.9493 444.968,-108.5957 444.8529,-119.1899 451.4847,-116.9493"/>
</g>
<!-- minimal_cuda_solver&#45;&gt;custom_stopping_criterion -->
<g id="edge9" class="edge">
<title>minimal_cuda_solver&#45;&gt;custom_stopping_criterion</title>
<path fill="none" stroke="#000000" d="M741.0169,-280.759C757.4878,-262.458 776.6035,-241.2183 789.9135,-226.4294"/>
<polygon fill="#000000" stroke="#000000" points="792.5688,-228.7111 796.657,-218.9367 787.3657,-224.0283 792.5688,-228.7111"/>
</g>
<!-- performance_debugging -->
<g id="node24" class="node">
<title>performance_debugging</title>
<g id="a_node24"><a xlink:href="performance_debugging.html" target="_top" xlink:title="Logging to debug performance within Ginkgo.">
<polygon fill="#ffd700" stroke="#000000" points="786.5,-108.5 622.5,-108.5 622.5,-87.5 786.5,-87.5 786.5,-108.5"/>
<text text-anchor="middle" x="704.5" y="-94.9" font-family="Helvetica,sans-Serif" font-size="12.00" fill="#000000">performance_debugging</text>
</a>
</g>
</g>
<!-- minimal_cuda_solver&#45;&gt;performance_debugging -->
<g id="edge32" class="edge">
<title>minimal_cuda_solver&#45;&gt;performance_debugging</title>
<path fill="none" stroke="#000000" d="M706.9911,-280.68C706.3548,-234.0185 705.2878,-155.7749 704.7822,-118.6938"/>
<polygon fill="#000000" stroke="#000000" points="708.2805,-118.5392 704.6444,-108.5879 701.2812,-118.6347 708.2805,-118.5392"/>
</g>
<!-- simple_solver_logging -->
<g id="node30" class="node">
<title>simple_solver_logging</title>
<g id="a_node30"><a xlink:href="simple_solver_logging.html" target="_top" xlink:title="Logging within Ginkgo.">
<polygon fill="#ffd700" stroke="#000000" points="663,-218.5 516,-218.5 516,-197.5 663,-197.5 663,-218.5"/>
<text text-anchor="middle" x="589.5" y="-204.9" font-family="Helvetica,sans-Serif" font-size="12.00" fill="#000000">simple_solver_logging</text>
</a>
</g>
</g>
<!-- minimal_cuda_solver&#45;&gt;simple_solver_logging -->
<g id="edge38" class="edge">
<title>minimal_cuda_solver&#45;&gt;simple_solver_logging</title>
<path fill="none" stroke="#000000" d="M668.8624,-281.9819C648.7149,-263.2003 624.9565,-241.0527 608.7208,-225.9177"/>
<polygon fill="#000000" stroke="#000000" points="610.6766,-222.956 600.9753,-218.6973 605.9034,-228.0763 610.6766,-222.956"/>
</g>
<!-- mixed_multigrid_solver -->
<g id="node17" class="node">
<title>mixed_multigrid_solver</title>
<g id="a_node17"><a xlink:href="mixed_multigrid_solver.html" target="_top" xlink:title="Use Multigrid in Ginkgo. Solve a linear system.">
<polygon fill="#7fffd4" stroke="#000000" points="2099,-328.5 1944,-328.5 1944,-307.5 2099,-307.5 2099,-328.5"/>
<text text-anchor="middle" x="2021.5" y="-314.9" font-family="Helvetica,sans-Serif" font-size="12.00" fill="#000000">mixed_multigrid_solver</text>
</a>
</g>
</g>
<!-- mixed_spmv -->
<g id="node19" class="node">
<title>mixed_spmv</title>
<g id="a_node19"><a xlink:href="mixed_spmv.html" target="_top" xlink:title="Mixed precision apply. Read a matrix from a file and generate right hand side randomly.">
<polygon fill="#7fffd4" stroke="#000000" points="1993.5,-438.5 1901.5,-438.5 1901.5,-417.5 1993.5,-417.5 1993.5,-438.5"/>
<text text-anchor="middle" x="1947.5" y="-424.9" font-family="Helvetica,sans-Serif" font-size="12.00" fill="#000000">mixed_spmv</text>
</a>
</g>
</g>
<!-- multigrid_preconditioned_solver -->
<g id="node20" class="node">
<title>multigrid_preconditioned_solver</title>
<g id="a_node20"><a xlink:href="multigrid_preconditioned_solver.html" target="_top" xlink:title="Use a preconditioner in Ginkgo. Solve a linear system.">
<polygon fill="#dc143c" stroke="#000000" points="421.5,-218.5 213.5,-218.5 213.5,-197.5 421.5,-197.5 421.5,-218.5"/>
<text text-anchor="middle" x="317.5" y="-204.9" font-family="Helvetica,sans-Serif" font-size="12.00" fill="#000000">multigrid_preconditioned_solver</text>
</a>
</g>
</g>
<!-- nine_pt_stencil_solver -->
<g id="node21" class="node">
<title>nine_pt_stencil_solver</title>
<g id="a_node21"><a xlink:href="nine_pt_stencil_solver.html" target="_top" xlink:title="Use array views to generate a nine point 2D stencil matrix. Solve a linear system.">
<polygon fill="#228b22" stroke="#000000" points="1290.0525,-85.9878 1290.0525,-110.0122 1240.5228,-127 1170.4772,-127 1120.9475,-110.0122 1120.9475,-85.9878 1170.4772,-69 1240.5228,-69 1290.0525,-85.9878"/>
<polygon fill="none" stroke="#000000" points="1294.0424,-83.1287 1294.0424,-112.8713 1241.1864,-131 1169.8136,-131 1116.9576,-112.8713 1116.9576,-83.1287 1169.8136,-65 1241.1864,-65 1294.0424,-83.1287"/>
<polygon fill="none" stroke="#000000" points="1298.0324,-80.2695 1298.0324,-115.7305 1241.8501,-135 1169.1499,-135 1112.9676,-115.7305 1112.9676,-80.2695 1169.1499,-61 1241.8501,-61 1298.0324,-80.2695"/>
<text text-anchor="middle" x="1205.5" y="-94.9" font-family="Helvetica,sans-Serif" font-size="12.00" fill="#000000">nine_pt_stencil_solver</text>
</a>
</g>
</g>
<!-- papi_logging -->
<g id="node22" class="node">
<title>papi_logging</title>
<g id="a_node22"><a xlink:href="papi_logging.html" target="_top" xlink:title="Logging with PAPI.">
<polygon fill="#ffd700" stroke="#000000" points="604.5,-108.5 512.5,-108.5 512.5,-87.5 604.5,-87.5 604.5,-108.5"/>
<text text-anchor="middle" x="558.5" y="-94.9" font-family="Helvetica,sans-Serif" font-size="12.00" fill="#000000">papi_logging</text>
</a>
</g>
</g>
<!-- par_ilu_convergence -->
<g id="node23" class="node">
<title>par_ilu_convergence</title>
<g id="a_node23"><a xlink:href="par_ilu_convergence.html" target="_top" xlink:title="Compute runtimes and residuals for different ParILU(T)/IC(T) iteration counts.">
<polygon fill="#dc143c" stroke="#000000" points="2257.5,-328.5 2117.5,-328.5 2117.5,-307.5 2257.5,-307.5 2257.5,-328.5"/>
<text text-anchor="middle" x="2187.5" y="-314.9" font-family="Helvetica,sans-Serif" font-size="12.00" fill="#000000">par_ilu_convergence</text>
</a>
</g>
</g>
<!-- poisson_solver -->
<g id="node25" class="node">
<title>poisson_solver</title>
<g id="a_node25"><a xlink:href="poisson_solver.html" target="_top" xlink:title="Solve the poisson problem. Generate the matrix within Ginkgo.">
<polygon fill="#228b22" stroke="#000000" points="1133.7764,-305.9878 1133.7764,-330.0122 1098.4673,-347 1048.5327,-347 1013.2236,-330.0122 1013.2236,-305.9878 1048.5327,-289 1098.4673,-289 1133.7764,-305.9878"/>
<polygon fill="none" stroke="#000000" points="1137.7695,-303.4715 1137.7695,-332.5285 1099.3765,-351 1047.6235,-351 1009.2305,-332.5285 1009.2305,-303.4715 1047.6235,-285 1099.3765,-285 1137.7695,-303.4715"/>
<polygon fill="none" stroke="#000000" points="1141.7626,-300.9552 1141.7626,-335.0448 1100.2857,-355 1046.7143,-355 1005.2374,-335.0448 1005.2374,-300.9552 1046.7143,-281 1100.2857,-281 1141.7626,-300.9552"/>
<text text-anchor="middle" x="1073.5" y="-314.9" font-family="Helvetica,sans-Serif" font-size="12.00" fill="#000000">poisson_solver</text>
</a>
</g>
</g>
<!-- poisson_solver&#45;&gt;custom_matrix_format -->
<g id="edge6" class="edge">
<title>poisson_solver&#45;&gt;custom_matrix_format</title>
<path fill="none" stroke="#000000" d="M1042.6519,-282.6532C1002.0491,-236.1292 932.0057,-155.8711 899.2952,-118.3903"/>
<polygon fill="#000000" stroke="#000000" points="901.7553,-115.8863 892.543,-110.6534 896.4814,-120.4891 901.7553,-115.8863"/>
</g>
<!-- poisson_solver&#45;&gt;kokkos_assembly -->
<g id="edge20" class="edge">
<title>poisson_solver&#45;&gt;kokkos_assembly</title>
<path fill="none" stroke="#000000" d="M1066.1792,-280.8997C1063.9664,-269.4052 1061.5747,-256.6895 1059.5,-245 1051.6862,-200.9757 1043.4788,-149.3598 1038.9742,-120.4916"/>
<polygon fill="#000000" stroke="#000000" points="1042.4319,-119.9485 1037.4376,-110.6047 1035.515,-121.0236 1042.4319,-119.9485"/>
</g>
<!-- poisson_solver&#45;&gt;nine_pt_stencil_solver -->
<g id="edge28" class="edge">
<title>poisson_solver&#45;&gt;nine_pt_stencil_solver</title>
<path fill="none" stroke="#000000" d="M1070.0136,-280.9956C1068.8614,-249.4006 1071.6962,-203.971 1092.5,-171 1102.5426,-155.0839 1117.4585,-141.9549 1133.1848,-131.4354"/>
<polygon fill="#000000" stroke="#000000" points="1135.4085,-134.1697 1141.9793,-125.8586 1131.6597,-128.2581 1135.4085,-134.1697"/>
</g>
<!-- three_pt_stencil_solver -->
<g id="node31" class="node">
<title>three_pt_stencil_solver</title>
<g id="a_node31"><a xlink:href="three_pt_stencil_solver.html" target="_top" xlink:title="Use array views to generate stencil matrix. Solve a linear system.">
<polygon fill="#228b22" stroke="#000000" points="1287.1743,-195.9878 1287.1743,-220.0122 1235.2301,-237 1161.7699,-237 1109.8257,-220.0122 1109.8257,-195.9878 1161.7699,-179 1235.2301,-179 1287.1743,-195.9878"/>
<polygon fill="none" stroke="#000000" points="1291.1673,-193.0859 1291.1673,-222.9141 1235.8654,-241 1161.1346,-241 1105.8327,-222.9141 1105.8327,-193.0859 1161.1346,-175 1235.8654,-175 1291.1673,-193.0859"/>
<polygon fill="none" stroke="#000000" points="1295.1603,-190.184 1295.1603,-225.816 1236.5007,-245 1160.4993,-245 1101.8397,-225.816 1101.8397,-190.184 1160.4993,-171 1236.5007,-171 1295.1603,-190.184"/>
<text text-anchor="middle" x="1198.5" y="-204.9" font-family="Helvetica,sans-Serif" font-size="12.00" fill="#000000">three_pt_stencil_solver</text>
</a>
</g>
</g>
<!-- poisson_solver&#45;&gt;three_pt_stencil_solver -->
<g id="edge40" class="edge">
<title>poisson_solver&#45;&gt;three_pt_stencil_solver</title>
<path fill="none" stroke="#000000" d="M1110.328,-285.5913C1122.6089,-274.7841 1136.4904,-262.5685 1149.5439,-251.0814"/>
<polygon fill="#000000" stroke="#000000" points="1151.9206,-253.6522 1157.1155,-244.4184 1147.2961,-248.3972 1151.9206,-253.6522"/>
</g>
<!-- preconditioned_solver -->
<g id="node26" class="node">
<title>preconditioned_solver</title>
<g id="a_node26"><a xlink:href="preconditioned_solver.html" target="_top" xlink:title="Use a preconditioner in Ginkgo. Solve a linear system.">
<polygon fill="#dc143c" stroke="#000000" points="392,-328.5 243,-328.5 243,-307.5 392,-307.5 392,-328.5"/>
<text text-anchor="middle" x="317.5" y="-314.9" font-family="Helvetica,sans-Serif" font-size="12.00" fill="#000000">preconditioned_solver</text>
</a>
</g>
</g>
<!-- preconditioned_solver&#45;&gt;adaptiveprecision_blockjacobi -->
<g id="edge1" class="edge">
<title>preconditioned_solver&#45;&gt;adaptiveprecision_blockjacobi</title>
<path fill="none" stroke="#000000" d="M296.4055,-307.4527C257.1469,-287.8235 172.762,-245.631 127.5528,-223.0264"/>
<polygon fill="#000000" stroke="#000000" points="129.0402,-219.857 118.5307,-218.5153 125.9097,-226.118 129.0402,-219.857"/>
</g>
<!-- preconditioned_solver&#45;&gt;multigrid_preconditioned_solver -->
<g id="edge25" class="edge">
<title>preconditioned_solver&#45;&gt;multigrid_preconditioned_solver</title>
<path fill="none" stroke="#000000" d="M317.5,-307.4527C317.5,-289.4302 317.5,-252.3869 317.5,-228.9477"/>
<polygon fill="#000000" stroke="#000000" points="321.0001,-228.6769 317.5,-218.677 314.0001,-228.677 321.0001,-228.6769"/>
</g>
<!-- preconditioner_export -->
<g id="node27" class="node">
<title>preconditioner_export</title>
<g id="a_node27"><a xlink:href="preconditioner_export.html" target="_top" xlink:title="Generate and store different preconditioners on the disk.">
<polygon fill="#dc143c" stroke="#000000" points="2425,-328.5 2276,-328.5 2276,-307.5 2425,-307.5 2425,-328.5"/>
<text text-anchor="middle" x="2350.5" y="-314.9" font-family="Helvetica,sans-Serif" font-size="12.00" fill="#000000">preconditioner_export</text>
</a>
</g>
</g>
<!-- simple_solver -->
<g id="node29" class="node">
<title>simple_solver</title>
<g id="a_node29"><a xlink:href="simple_solver.html" target="_top" xlink:title="Solve a simple linear system with CG. Read a matrix and right hand side from a file.">
<polygon fill="#228b22" stroke="#000000" points="1348.3081,-415.9878 1348.3081,-440.0122 1315.0307,-457 1267.9693,-457 1234.6919,-440.0122 1234.6919,-415.9878 1267.9693,-399 1315.0307,-399 1348.3081,-415.9878"/>
<polygon fill="none" stroke="#000000" points="1352.3018,-413.537 1352.3018,-442.463 1315.9897,-461 1267.0103,-461 1230.6982,-442.463 1230.6982,-413.537 1267.0103,-395 1315.9897,-395 1352.3018,-413.537"/>
<polygon fill="none" stroke="#000000" points="1356.2955,-411.0861 1356.2955,-444.9139 1316.9488,-465 1266.0512,-465 1226.7045,-444.9139 1226.7045,-411.0861 1266.0512,-391 1316.9488,-391 1356.2955,-411.0861"/>
<text text-anchor="middle" x="1291.5" y="-424.9" font-family="Helvetica,sans-Serif" font-size="12.00" fill="#000000">simple_solver</text>
</a>
</g>
</g>
<!-- simple_solver&#45;&gt;custom_logger -->
<g id="edge2" class="edge">
<title>simple_solver&#45;&gt;custom_logger</title>
<path fill="none" stroke="#000000" d="M1226.514,-426.8095C1072.9218,-423.1316 691.8326,-408.7052 577.5,-355 514.3493,-325.3363 497.6024,-306.9466 465.5,-245 444.1888,-203.8766 440.9503,-148.3359 440.9273,-118.6847"/>
<polygon fill="#000000" stroke="#000000" points="444.4271,-118.7126 441.045,-108.6722 437.4276,-118.6303 444.4271,-118.7126"/>
</g>
<!-- simple_solver&#45;&gt;custom_matrix_format -->
<g id="edge5" class="edge">
<title>simple_solver&#45;&gt;custom_matrix_format</title>
<path fill="none" stroke="#000000" d="M1226.3964,-420.7672C1143.5815,-410.3244 1006.8109,-388.5193 969.5,-355 951.335,-338.6809 904.9644,-180.5565 887.9153,-120.7547"/>
<polygon fill="#000000" stroke="#000000" points="891.1842,-119.4532 885.0865,-110.789 884.4503,-121.3647 891.1842,-119.4532"/>
</g>
<!-- simple_solver&#45;&gt;custom_stopping_criterion -->
<g id="edge8" class="edge">
<title>simple_solver&#45;&gt;custom_stopping_criterion</title>
<path fill="none" stroke="#000000" d="M1226.3612,-421.6466C1131.0081,-411.3494 959.1396,-388.7095 907.5,-355 859.3031,-323.5378 827.8481,-260.2628 814.2331,-227.9616"/>
<polygon fill="#000000" stroke="#000000" points="817.4519,-226.5854 810.4409,-218.6421 810.9681,-229.2238 817.4519,-226.5854"/>
</g>
<!-- simple_solver&#45;&gt;distributed_solver -->
<g id="edge10" class="edge">
<title>simple_solver&#45;&gt;distributed_solver</title>
<path fill="none" stroke="#000000" d="M1318.4768,-391.6496C1325.6824,-380.3963 1332.7716,-367.6256 1337.5,-355 1368.823,-271.3635 1375.6221,-163.5582 1377.0946,-118.8516"/>
<polygon fill="#000000" stroke="#000000" points="1380.5983,-118.7598 1377.3708,-108.6686 1373.6009,-118.57 1380.5983,-118.7598"/>
</g>
<!-- simple_solver&#45;&gt;heat_equation -->
<g id="edge12" class="edge">
<title>simple_solver&#45;&gt;heat_equation</title>
<path fill="none" stroke="#000000" d="M1328.1975,-396.5229C1340.4361,-384.5276 1353.2855,-370.0882 1362.5,-355 1407.4774,-281.3526 1376.6888,-242.8401 1424.5,-171 1439.0278,-149.1709 1461.6931,-129.8474 1479.6702,-116.5736"/>
<polygon fill="#000000" stroke="#000000" points="1481.9733,-119.2291 1488.0626,-110.559 1477.8956,-113.5395 1481.9733,-119.2291"/>
</g>
<!-- simple_solver&#45;&gt;ilu_preconditioned_solver -->
<g id="edge14" class="edge">
<title>simple_solver&#45;&gt;ilu_preconditioned_solver</title>
<path fill="none" stroke="#000000" d="M1340.9498,-402.8676C1348.822,-398.8864 1356.8801,-394.823 1364.5,-391 1404.7177,-370.8222 1451.2515,-347.7617 1481.0071,-333.0521"/>
<polygon fill="#000000" stroke="#000000" points="1482.6346,-336.152 1490.0492,-328.584 1479.5335,-329.8763 1482.6346,-336.152"/>
</g>
<!-- simple_solver&#45;&gt;inverse_iteration -->
<g id="edge15" class="edge">
<title>simple_solver&#45;&gt;inverse_iteration</title>
<path fill="none" stroke="#000000" d="M1337.5342,-401.3291C1346.2538,-397.2492 1355.4766,-393.5532 1364.5,-391 1551.5918,-338.0614 1614.3759,-411.2462 1800.5,-355 1814.6904,-350.7117 1829.2369,-343.1342 1841.1342,-335.9487"/>
<polygon fill="#000000" stroke="#000000" points="1843.0584,-338.8733 1849.666,-330.5913 1839.3359,-332.9451 1843.0584,-338.8733"/>
</g>
<!-- simple_solver&#45;&gt;iterative_refinement -->
<g id="edge18" class="edge">
<title>simple_solver&#45;&gt;iterative_refinement</title>
<path fill="none" stroke="#000000" d="M1338.0787,-401.635C1346.6653,-397.5763 1355.7019,-393.8086 1364.5,-391 1467.2515,-358.199 1500.1264,-382.2017 1604.5,-355 1612.3196,-352.9621 1620.377,-350.5169 1628.3542,-347.8673"/>
<polygon fill="#000000" stroke="#000000" points="1629.7019,-351.1052 1638.0234,-344.5476 1627.4288,-344.4846 1629.7019,-351.1052"/>
</g>
<!-- simple_solver&#45;&gt;kokkos_assembly -->
<g id="edge19" class="edge">
<title>simple_solver&#45;&gt;kokkos_assembly</title>
<path fill="none" stroke="#000000" d="M1226.4322,-421.1621C1148.38,-411.4614 1024.5069,-390.7822 996.5,-355 940.9417,-284.0176 995.8217,-167.349 1022.6269,-119.4971"/>
<polygon fill="#000000" stroke="#000000" points="1025.7774,-121.0393 1027.722,-110.6244 1019.707,-117.5534 1025.7774,-121.0393"/>
</g>
<!-- simple_solver&#45;&gt;minimal_cuda_solver -->
<g id="edge22" class="edge">
<title>simple_solver&#45;&gt;minimal_cuda_solver</title>
<path fill="none" stroke="#000000" d="M1226.4714,-419.7808C1138.4315,-408.1291 976.6644,-384.8637 840.5,-355 825.3288,-351.6726 809.3157,-347.6588 793.8592,-343.5194"/>
<polygon fill="#000000" stroke="#000000" points="794.3646,-340.03 783.7968,-340.787 792.5301,-346.7853 794.3646,-340.03"/>
</g>
<!-- simple_solver&#45;&gt;mixed_multigrid_solver -->
<g id="edge23" class="edge">
<title>simple_solver&#45;&gt;mixed_multigrid_solver</title>
<path fill="none" stroke="#000000" d="M1337.4941,-401.1849C1346.2178,-397.1197 1355.4524,-393.466 1364.5,-391 1609.4044,-324.2497 1687.4973,-413.5103 1934.5,-355 1954.7936,-350.1928 1976.3748,-341.0426 1992.9661,-333.0448"/>
<polygon fill="#000000" stroke="#000000" points="1994.7064,-336.0886 2002.1107,-328.5106 1991.5968,-329.8172 1994.7064,-336.0886"/>
</g>
<!-- simple_solver&#45;&gt;nine_pt_stencil_solver -->
<g id="edge26" class="edge">
<title>simple_solver&#45;&gt;nine_pt_stencil_solver</title>
<path fill="none" stroke="#000000" d="M1304.37,-390.7319C1320.0623,-338.5033 1340.352,-241.9812 1304.5,-171 1297.0851,-156.3197 1285.1716,-143.8654 1272.1372,-133.6264"/>
<polygon fill="#000000" stroke="#000000" points="1274.0276,-130.6712 1263.9068,-127.5373 1269.8643,-136.2986 1274.0276,-130.6712"/>
</g>
<!-- simple_solver&#45;&gt;par_ilu_convergence -->
<g id="edge30" class="edge">
<title>simple_solver&#45;&gt;par_ilu_convergence</title>
<path fill="none" stroke="#000000" d="M1337.0682,-401.2593C1345.9111,-397.1308 1355.2971,-393.4357 1364.5,-391 1684.5346,-306.2987 1787.1871,-434.7147 2108.5,-355 2126.8283,-350.4529 2146.0437,-341.5578 2160.9339,-333.6289"/>
<polygon fill="#000000" stroke="#000000" points="2162.9704,-336.5031 2170.0416,-328.6134 2159.5937,-330.3714 2162.9704,-336.5031"/>
</g>
<!-- simple_solver&#45;&gt;poisson_solver -->
<g id="edge33" class="edge">
<title>simple_solver&#45;&gt;poisson_solver</title>
<path fill="none" stroke="#000000" d="M1242.0324,-403.0393C1209.7433,-386.7466 1167.4001,-365.3808 1133.2349,-348.1415"/>
<polygon fill="#000000" stroke="#000000" points="1134.7892,-345.0055 1124.2847,-343.6253 1131.6358,-351.255 1134.7892,-345.0055"/>
</g>
<!-- simple_solver&#45;&gt;preconditioned_solver -->
<g id="edge34" class="edge">
<title>simple_solver&#45;&gt;preconditioned_solver</title>
<path fill="none" stroke="#000000" d="M1226.6953,-424.3157C1054.281,-414.2194 587.1441,-384.8665 435.5,-355 407.9757,-349.5791 377.8078,-340.0528 354.8654,-332.0243"/>
<polygon fill="#000000" stroke="#000000" points="355.7816,-328.6353 345.1869,-328.5766 353.4326,-335.2294 355.7816,-328.6353"/>
</g>
<!-- simple_solver&#45;&gt;preconditioner_export -->
<g id="edge35" class="edge">
<title>simple_solver&#45;&gt;preconditioner_export</title>
<path fill="none" stroke="#000000" d="M1337.0515,-401.1956C1345.896,-397.0733 1355.2869,-393.3967 1364.5,-391 1752.7847,-289.9908 1875.6205,-445.4496 2266.5,-355 2286.0423,-350.4779 2306.6752,-341.4574 2322.6016,-333.4555"/>
<polygon fill="#000000" stroke="#000000" points="2324.5927,-336.3656 2331.858,-328.6542 2321.3695,-330.1518 2324.5927,-336.3656"/>
</g>
<!-- simple_solver&#45;&gt;simple_solver_logging -->
<g id="edge37" class="edge">
<title>simple_solver&#45;&gt;simple_solver_logging</title>
<path fill="none" stroke="#000000" d="M1226.478,-425.5633C1064.3841,-418.8649 652.2166,-397.7626 608.5,-355 574.7662,-322.0024 579.6118,-260.8501 585.0756,-228.8106"/>
<polygon fill="#000000" stroke="#000000" points="588.5521,-229.2621 586.9717,-218.7858 581.6741,-227.9611 588.5521,-229.2621"/>
</g>
<!-- simple_solver&#45;&gt;three_pt_stencil_solver -->
<g id="edge39" class="edge">
<title>simple_solver&#45;&gt;three_pt_stencil_solver</title>
<path fill="none" stroke="#000000" d="M1275.7238,-390.68C1259.8435,-353.1138 1235.31,-295.0775 1218.1697,-254.5304"/>
<polygon fill="#000000" stroke="#000000" points="1221.3156,-252.9833 1214.1981,-245.1353 1214.868,-255.7089 1221.3156,-252.9833"/>
</g>
<!-- simple_solver_logging&#45;&gt;custom_logger -->
<g id="edge3" class="edge">
<title>simple_solver_logging&#45;&gt;custom_logger</title>
<path fill="none" stroke="#000000" d="M575.3091,-197.4527C549.5175,-178.2833 494.7737,-137.5953 463.8973,-114.6466"/>
<polygon fill="#000000" stroke="#000000" points="465.9792,-111.8331 455.8654,-108.677 461.8035,-117.4513 465.9792,-111.8331"/>
</g>
<!-- simple_solver_logging&#45;&gt;papi_logging -->
<g id="edge29" class="edge">
<title>simple_solver_logging&#45;&gt;papi_logging</title>
<path fill="none" stroke="#000000" d="M586.5276,-197.4527C581.4023,-179.2663 570.8188,-141.7118 564.2243,-118.3119"/>
<polygon fill="#000000" stroke="#000000" points="567.5903,-117.3526 561.509,-108.677 560.8528,-119.2515 567.5903,-117.3526"/>
</g>
<!-- simple_solver_logging&#45;&gt;performance_debugging -->
<g id="edge31" class="edge">
<title>simple_solver_logging&#45;&gt;performance_debugging</title>
<path fill="none" stroke="#000000" d="M600.5267,-197.4527C620.2249,-178.611 661.6572,-138.9801 685.8503,-115.8388"/>
<polygon fill="#000000" stroke="#000000" points="688.5306,-118.1185 693.3377,-108.677 683.692,-113.06 688.5306,-118.1185"/>
</g>
<!-- three_pt_stencil_solver&#45;&gt;custom_matrix_format -->
<g id="edge7" class="edge">
<title>three_pt_stencil_solver&#45;&gt;custom_matrix_format</title>
<path fill="none" stroke="#000000" d="M1117.7987,-184.8949C1072.8637,-171.4601 1016.1377,-153.5537 966.5,-135 950.2995,-128.9446 932.7224,-121.4533 917.7791,-114.7986"/>
<polygon fill="#000000" stroke="#000000" points="918.936,-111.4812 908.3804,-110.5698 916.0638,-117.8648 918.936,-111.4812"/>
</g>
<!-- three_pt_stencil_solver&#45;&gt;distributed_solver -->
<g id="edge11" class="edge">
<title>three_pt_stencil_solver&#45;&gt;distributed_solver</title>
<path fill="none" stroke="#000000" d="M1251.2378,-175.5913C1284.2631,-155.2964 1325.3714,-130.0343 1351.5312,-113.9585"/>
<polygon fill="#000000" stroke="#000000" points="1353.4358,-116.8962 1360.1231,-108.6785 1349.7708,-110.9323 1353.4358,-116.8962"/>
</g>
<!-- three_pt_stencil_solver&#45;&gt;heat_equation -->
<g id="edge13" class="edge">
<title>three_pt_stencil_solver&#45;&gt;heat_equation</title>
<path fill="none" stroke="#000000" d="M1288.4239,-187.837C1336.6962,-175.4859 1396.572,-157.6748 1447.5,-135 1459.087,-129.8411 1471.1261,-122.795 1481.3522,-116.2353"/>
<polygon fill="#000000" stroke="#000000" points="1483.3929,-119.0821 1489.815,-110.6556 1479.5397,-113.238 1483.3929,-119.0821"/>
</g>
<!-- three_pt_stencil_solver&#45;&gt;kokkos_assembly -->
<g id="edge21" class="edge">
<title>three_pt_stencil_solver&#45;&gt;kokkos_assembly</title>
<path fill="none" stroke="#000000" d="M1149.1523,-174.6979C1120.7366,-155.5216 1086.1107,-132.1545 1062.6,-116.2883"/>
<polygon fill="#000000" stroke="#000000" points="1064.4166,-113.2918 1054.1696,-110.5991 1060.5008,-119.0942 1064.4166,-113.2918"/>
</g>
<!-- three_pt_stencil_solver&#45;&gt;nine_pt_stencil_solver -->
<g id="edge27" class="edge">
<title>three_pt_stencil_solver&#45;&gt;nine_pt_stencil_solver</title>
<path fill="none" stroke="#000000" d="M1200.8699,-170.759C1201.3887,-162.6058 1201.9447,-153.8692 1202.4849,-145.3797"/>
<polygon fill="#000000" stroke="#000000" points="1205.9903,-145.4048 1203.1326,-135.2026 1199.0045,-144.9601 1205.9903,-145.4048"/>
</g>
</g>
</svg>
