<?xml version="1.0" encoding="UTF-8" standalone="no"?>
<!DOCTYPE svg PUBLIC "-//W3C//DTD SVG 1.1//EN"
 "http://www.w3.org/Graphics/SVG/1.1/DTD/svg11.dtd">
<!-- Generated by graphviz version 2.40.1 (20161225.0304)
 -->
<!-- Title: Linear Operators Pages: 1 -->
<!--zoomable 1030 -->
<svg id="main" version="1.1" xmlns="http://www.w3.org/2000/svg" xmlns:xlink="http://www.w3.org/1999/xlink" xml:space="preserve" onload="init(evt)">
<style type="text/css"><![CDATA[
.edge:hover path { stroke: red; }
.edge:hover polygon { stroke: red; fill: red; }
]]></style>
<script type="text/javascript"><![CDATA[
var edges = document.getElementsByTagName('g');
if (edges && edges.length) {
  for (var i=0;i<edges.length;i++) {
    if (edges[i].id.substr(0,4)=='edge') {
      edges[i].setAttribute('class','edge');
    }
  }
}
]]></script>
        <defs>
                <circle id="rim" cx="0" cy="0" r="7"/>
                <circle id="rim2" cx="0" cy="0" r="3.5"/>
                <g id="zoomPlus">
                        <use xlink:href="#rim" fill="#404040">
                                <set attributeName="fill" to="#808080" begin="zoomplus.mouseover" end="zoomplus.mouseout"/>
                        </use>
                        <path d="M-4,0h8M0,-4v8" fill="none" stroke="white" stroke-width="1.5" pointer-events="none"/>
                </g>
                <g id="zoomMin">
                        <use xlink:href="#rim" fill="#404040">
                                <set attributeName="fill" to="#808080" begin="zoomminus.mouseover" end="zoomminus.mouseout"/>
                        </use>
                        <path d="M-4,0h8" fill="none" stroke="white" stroke-width="1.5" pointer-events="none"/>
                </g>
                <g id="dirArrow">
                        <path fill="none" stroke="white" stroke-width="1.5" d="M0,-3.0v7 M-2.5,-0.5L0,-3.0L2.5,-0.5"/>
                </g>
               <g id="resetDef">
                       <use xlink:href="#rim2" fill="#404040">
                               <set attributeName="fill" to="#808080" begin="reset.mouseover" end="reset.mouseout"/>
                       </use>
               </g>
        </defs>

<script type="text/javascript">
var viewWidth = 454;
var viewHeight = 1030;
var sectionId = 'dynsection-0';
</script>
<script xlink:href="svgpan.js"/>
<svg id="graph" class="graph">
<g id="viewport">
<title>Linear Operators</title>
<polygon fill="#ffffff" stroke="transparent" points="-4,4 -4,-1026.3896 450,-1026.3896 450,4 -4,4"/>
<!-- Node8 -->
<g id="node1" class="node">
<title>Node8</title>
<g id="a_node1"><a xlink:href="group__MultigridLevel.html" target="_top" xlink:title="A module dedicated to the implementation and usage of the individual levels of a Multigrid hierarchy ...">
<polygon fill="#ffffff" stroke="#000000" points="419,-962.8896 330,-962.8896 330,-943.8896 419,-943.8896 419,-962.8896"/>
<text text-anchor="middle" x="374.5" y="-950.8896" font-family="Helvetica,sans-Serif" font-size="10.00" fill="#000000">Multigrid Level</text>
</a>
</g>
</g>
<!-- Node6 -->
<g id="node2" class="node">
<title>Node6</title>
<g id="a_node2"><a xlink:href="group__reorder.html" target="_top" xlink:title="A module dedicated to the implementation and usage of the reordering algorithms in Ginkgo.">
<polygon fill="#ffffff" stroke="#000000" points="437,-925.8896 312,-925.8896 312,-906.8896 437,-906.8896 437,-925.8896"/>
<text text-anchor="middle" x="374.5" y="-913.8896" font-family="Helvetica,sans-Serif" font-size="10.00" fill="#000000">Reordering Algorithms</text>
</a>
</g>
</g>
<!-- Node2 -->
<g id="node3" class="node">
<title>Node2</title>
<g id="a_node3"><a xlink:href="group__distributed.html" target="_top" xlink:title="A module dedicated to the implementation and usage of the distributed linear algebra objects in Ginkg...">
<polygon fill="#ffffff" stroke="#000000" points="410,-875.8896 339,-875.8896 339,-856.8896 410,-856.8896 410,-875.8896"/>
<text text-anchor="middle" x="374.5" y="-863.8896" font-family="Helvetica,sans-Serif" font-size="10.00" fill="#000000">Distributed</text>
</a>
</g>
</g>
<!-- Node3 -->
<g id="node4" class="node">
<title>Node3</title>
<g id="a_node4"><a xlink:href="group__factor.html" target="_top" xlink:title="A module dedicated to the implementation and usage of the Factorizations in Ginkgo.">
<polygon fill="#ffffff" stroke="#000000" points="416.5,-767.8896 332.5,-767.8896 332.5,-748.8896 416.5,-748.8896 416.5,-767.8896"/>
<text text-anchor="middle" x="374.5" y="-755.8896" font-family="Helvetica,sans-Serif" font-size="10.00" fill="#000000">Factorizations</text>
</a>
</g>
</g>
<!-- Node5 -->
<g id="node5" class="node">
<title>Node5</title>
<g id="a_node5"><a xlink:href="group__precond.html" target="_top" xlink:title="A module dedicated to the implementation and usage of the Preconditioners in Ginkgo.">
<polygon fill="#ffffff" stroke="#000000" points="420.5,-598.8896 328.5,-598.8896 328.5,-579.8896 420.5,-579.8896 420.5,-598.8896"/>
<text text-anchor="middle" x="374.5" y="-586.8896" font-family="Helvetica,sans-Serif" font-size="10.00" fill="#000000">Preconditioners</text>
</a>
</g>
</g>
<!-- Node4 -->
<g id="node6" class="node">
<title>Node4</title>
<g id="a_node6"><a xlink:href="group__mat__formats.html" target="_top" xlink:title="A module dedicated to the implementation and usage of the various Matrix Formats in Ginkgo.">
<polygon fill="#ffffff" stroke="#000000" points="446,-424.3896 303,-424.3896 303,-394.3896 446,-394.3896 446,-424.3896"/>
<text text-anchor="start" x="311" y="-412.3896" font-family="Helvetica,sans-Serif" font-size="10.00" fill="#000000">SpMV employing different</text>
<text text-anchor="middle" x="374.5" y="-401.3896" font-family="Helvetica,sans-Serif" font-size="10.00" fill="#000000"> Matrix formats</text>
</a>
</g>
</g>
<!-- Node10 -->
<g id="node7" class="node">
<title>Node10</title>
<g id="a_node7"><a xlink:href="group__jacobi.html" target="_top" xlink:title="A module dedicated to the implementation and usage of the Jacobi Preconditioner in Ginkgo.">
<polygon fill="#ffffff" stroke="#000000" points="434,-300.8896 315,-300.8896 315,-281.8896 434,-281.8896 434,-300.8896"/>
<text text-anchor="middle" x="374.5" y="-288.8896" font-family="Helvetica,sans-Serif" font-size="10.00" fill="#000000">Jacobi Preconditioner</text>
</a>
</g>
</g>
<!-- Node1 -->
<g id="node8" class="node">
<title>Node1</title>
<g id="a_node8"><a xlink:title="A module dedicated to the implementation and usage of the Linear operators in Ginkgo.">
<polygon fill="#bfbfbf" stroke="#000000" points="98,-598.8896 0,-598.8896 0,-579.8896 98,-579.8896 98,-598.8896"/>
<text text-anchor="middle" x="49" y="-586.8896" font-family="Helvetica,sans-Serif" font-size="10.00" fill="#000000">Linear Operators</text>
</a>
</g>
</g>
<!-- Node1&#45;&gt;Node8 -->
<g id="edge11" class="edge">
<title>Node1&#45;&gt;Node8</title>
<path fill="none" stroke="#ffa500" stroke-dasharray="5,2" d="M49.4742,-599.1598C52.1166,-649.2722 66.727,-876.8721 116,-922.3896 173.7706,-975.7569 272.4298,-970.8993 329.7062,-962.3118"/>
<text text-anchor="middle" x="200.5" y="-1014.3896" font-family="Helvetica,sans-Serif" font-size="10.00" fill="#000000">gko::multigrid::FixedCoarsening</text>
<text text-anchor="middle" x="200.5" y="-1003.3896" font-family="Helvetica,sans-Serif" font-size="10.00" fill="#000000">gko::multigrid::Pgm</text>
<text text-anchor="middle" x="200.5" y="-992.3896" font-family="Helvetica,sans-Serif" font-size="10.00" fill="#000000">gko::multigrid::Pmis</text>
<text text-anchor="middle" x="200.5" y="-981.3896" font-family="Helvetica,sans-Serif" font-size="10.00" fill="#000000">gko::multigrid::Rs</text>
<text text-anchor="middle" x="200.5" y="-970.3896" font-family="Helvetica,sans-Serif" font-size="10.00" fill="#000000">gko::multigrid::UniformCoarsening</text>
</g>
<!-- Node1&#45;&gt;Node6 -->
<g id="edge5" class="edge">
<title>Node1&#45;&gt;Node6</title>
<path fill="none" stroke="#000000" d="M50.2966,-609.1064C54.797,-670.9297 71.9456,-859.14 116,-897.3896 144.2453,-921.9131 244.8242,-922.5978 311.8757,-920.0637"/>
<polygon fill="#000000" stroke="#000000" points="53.786,-608.8309 49.5998,-599.0982 46.8029,-609.3171 53.786,-608.8309"/>
</g>
<!-- Node1&#45;&gt;Node2 -->
<g id="edge1" class="edge">
<title>Node1&#45;&gt;Node2</title>
<path fill="none" stroke="#000000" d="M50.4915,-609.1183C55.4294,-668.5033 73.4165,-843.5755 116,-877.3896 149.5066,-903.996 276.2891,-884.9134 338.9726,-873.4067"/>
<polygon fill="#000000" stroke="#000000" points="53.9802,-608.8369 49.6963,-599.1468 47.0024,-609.3934 53.9802,-608.8369"/>
</g>
<!-- Node1&#45;&gt;Node2 -->
<g id="edge8" class="edge">
<title>Node1&#45;&gt;Node2</title>
<path fill="none" stroke="#ffa500" stroke-dasharray="5,2" d="M50.2399,-599.1597C55.6989,-640.551 78.9797,-800.7713 116,-832.3896 144.7374,-856.9336 247.5724,-846.1532 285,-851.3896 302.7874,-853.8782 322.481,-857.1249 338.8558,-859.9611"/>
<text text-anchor="start" x="152.5" y="-865.3896" font-family="Helvetica,sans-Serif" font-size="10.00" fill="#000000">gko::experimental::</text>
<text text-anchor="middle" x="200.5" y="-854.3896" font-family="Helvetica,sans-Serif" font-size="10.00" fill="#000000">distributed::Vector</text>
</g>
<!-- Node1&#45;&gt;Node3 -->
<g id="edge2" class="edge">
<title>Node1&#45;&gt;Node3</title>
<path fill="none" stroke="#000000" d="M52.0279,-609.0059C60.0239,-657.9522 83.3537,-783.2697 116,-807.3896 176.4114,-852.023 212.2324,-826.0055 285,-807.3896 314.8615,-799.7502 345.4768,-779.8588 362.0259,-767.8997"/>
<polygon fill="#000000" stroke="#000000" points="55.4704,-608.3672 50.4414,-599.042 48.5575,-609.468 55.4704,-608.3672"/>
</g>
<!-- Node1&#45;&gt;Node3 -->
<g id="edge10" class="edge">
<title>Node1&#45;&gt;Node3</title>
<path fill="none" stroke="#ffa500" stroke-dasharray="5,2" d="M53.6427,-599.1175C62.7765,-617.0599 84.928,-655.1051 116,-672.3896 182.1438,-709.1834 214.5954,-665.605 285,-693.3896 317.6892,-706.2901 349.3777,-733.962 364.792,-748.6947"/>
<text text-anchor="middle" x="200.5" y="-795.3896" font-family="Helvetica,sans-Serif" font-size="10.00" fill="#000000">gko::factorization::Ic</text>
<text text-anchor="middle" x="200.5" y="-784.3896" font-family="Helvetica,sans-Serif" font-size="10.00" fill="#000000">gko::factorization::Ilu</text>
<text text-anchor="start" x="148.5" y="-773.3896" font-family="Helvetica,sans-Serif" font-size="10.00" fill="#000000">gko::factorization</text>
<text text-anchor="middle" x="200.5" y="-762.3896" font-family="Helvetica,sans-Serif" font-size="10.00" fill="#000000">::ParIc</text>
<text text-anchor="start" x="148.5" y="-751.3896" font-family="Helvetica,sans-Serif" font-size="10.00" fill="#000000">gko::factorization</text>
<text text-anchor="middle" x="200.5" y="-740.3896" font-family="Helvetica,sans-Serif" font-size="10.00" fill="#000000">::ParIct</text>
<text text-anchor="start" x="148.5" y="-729.3896" font-family="Helvetica,sans-Serif" font-size="10.00" fill="#000000">gko::factorization</text>
<text text-anchor="middle" x="200.5" y="-718.3896" font-family="Helvetica,sans-Serif" font-size="10.00" fill="#000000">::ParIlu</text>
<text text-anchor="start" x="148.5" y="-707.3896" font-family="Helvetica,sans-Serif" font-size="10.00" fill="#000000">gko::factorization</text>
<text text-anchor="middle" x="200.5" y="-696.3896" font-family="Helvetica,sans-Serif" font-size="10.00" fill="#000000">::ParIlut</text>
</g>
<!-- Node1&#45;&gt;Node5 -->
<g id="edge4" class="edge">
<title>Node1&#45;&gt;Node5</title>
<path fill="none" stroke="#000000" d="M62.1786,-606.8144C74.3316,-621.3147 93.8105,-640.9062 116,-649.3896 186.1586,-676.2122 213.1398,-671.2481 285,-649.3896 317.5727,-639.4816 349.0673,-613.3356 364.5534,-599.0478"/>
<polygon fill="#000000" stroke="#000000" points="64.8901,-604.601 55.9045,-598.9876 59.4283,-608.9793 64.8901,-604.601"/>
</g>
<!-- Node1&#45;&gt;Node5 -->
<g id="edge7" class="edge">
<title>Node1&#45;&gt;Node5</title>
<path fill="none" stroke="#ffa500" stroke-dasharray="5,2" d="M53.8427,-579.8528C63.1551,-562.7163 85.3805,-527.2152 116,-513.3896 150.2281,-497.9345 249.7472,-500.4412 285,-513.3896 321.5471,-526.8134 353.3798,-562.5122 367.1887,-579.7751"/>
<text text-anchor="middle" x="200.5" y="-637.3896" font-family="Helvetica,sans-Serif" font-size="10.00" fill="#000000">gko::Preconditionable</text>
<text text-anchor="start" x="135.5" y="-626.3896" font-family="Helvetica,sans-Serif" font-size="10.00" fill="#000000">gko::experimental::</text>
<text text-anchor="start" x="135.5" y="-615.3896" font-family="Helvetica,sans-Serif" font-size="10.00" fill="#000000">distributed::preconditioner</text>
<text text-anchor="middle" x="200.5" y="-604.3896" font-family="Helvetica,sans-Serif" font-size="10.00" fill="#000000">::Schwarz</text>
<text text-anchor="middle" x="200.5" y="-593.3896" font-family="Helvetica,sans-Serif" font-size="10.00" fill="#000000">gko::preconditioner::Ic</text>
<text text-anchor="middle" x="200.5" y="-582.3896" font-family="Helvetica,sans-Serif" font-size="10.00" fill="#000000">gko::preconditioner::Ilu</text>
<text text-anchor="start" x="135.5" y="-571.3896" font-family="Helvetica,sans-Serif" font-size="10.00" fill="#000000">gko::preconditioner</text>
<text text-anchor="middle" x="200.5" y="-560.3896" font-family="Helvetica,sans-Serif" font-size="10.00" fill="#000000">::Isai</text>
<text text-anchor="start" x="135.5" y="-549.3896" font-family="Helvetica,sans-Serif" font-size="10.00" fill="#000000">gko::preconditioner</text>
<text text-anchor="middle" x="200.5" y="-538.3896" font-family="Helvetica,sans-Serif" font-size="10.00" fill="#000000">::Jacobi</text>
<text text-anchor="start" x="135.5" y="-527.3896" font-family="Helvetica,sans-Serif" font-size="10.00" fill="#000000">gko::preconditioner</text>
<text text-anchor="middle" x="200.5" y="-516.3896" font-family="Helvetica,sans-Serif" font-size="10.00" fill="#000000">::NullspaceProjection</text>
</g>
<!-- Node1&#45;&gt;Node4 -->
<g id="edge3" class="edge">
<title>Node1&#45;&gt;Node4</title>
<path fill="none" stroke="#000000" d="M57.4451,-570.501C67.9646,-549.3132 88.0241,-515.6591 116,-498.3896 180.8485,-458.3586 214.2348,-497.6754 285,-469.3896 312.2717,-458.4887 339.7551,-438.3916 356.9333,-424.478"/>
<polygon fill="#000000" stroke="#000000" points="54.1704,-569.2385 53.0545,-579.7744 60.4971,-572.234 54.1704,-569.2385"/>
</g>
<!-- Node1&#45;&gt;Node4 -->
<g id="edge9" class="edge">
<title>Node1&#45;&gt;Node4</title>
<path fill="none" stroke="#ffa500" stroke-dasharray="5,2" d="M49.9697,-579.8634C54.5206,-537.2501 75.2699,-364.8317 116,-333.3896 145.7281,-310.4406 249.7472,-320.4412 285,-333.3896 317.9116,-345.478 346.9999,-375.6302 362.5457,-394.1161"/>
<text text-anchor="start" x="147.5" y="-457.3896" font-family="Helvetica,sans-Serif" font-size="10.00" fill="#000000">gko::experimental::</text>
<text text-anchor="middle" x="200.5" y="-446.3896" font-family="Helvetica,sans-Serif" font-size="10.00" fill="#000000">distributed::Vector</text>
<text text-anchor="middle" x="200.5" y="-435.3896" font-family="Helvetica,sans-Serif" font-size="10.00" fill="#000000">gko::matrix::Coo</text>
<text text-anchor="middle" x="200.5" y="-424.3896" font-family="Helvetica,sans-Serif" font-size="10.00" fill="#000000">gko::matrix::Csr</text>
<text text-anchor="middle" x="200.5" y="-413.3896" font-family="Helvetica,sans-Serif" font-size="10.00" fill="#000000">gko::matrix::Dense</text>
<text text-anchor="middle" x="200.5" y="-402.3896" font-family="Helvetica,sans-Serif" font-size="10.00" fill="#000000">gko::matrix::Diagonal</text>
<text text-anchor="middle" x="200.5" y="-391.3896" font-family="Helvetica,sans-Serif" font-size="10.00" fill="#000000">gko::matrix::Ell</text>
<text text-anchor="middle" x="200.5" y="-380.3896" font-family="Helvetica,sans-Serif" font-size="10.00" fill="#000000">gko::matrix::Fbcsr</text>
<text text-anchor="middle" x="200.5" y="-369.3896" font-family="Helvetica,sans-Serif" font-size="10.00" fill="#000000">gko::matrix::Fft</text>
<text text-anchor="middle" x="200.5" y="-358.3896" font-family="Helvetica,sans-Serif" font-size="10.00" fill="#000000">gko::matrix::Fft2</text>
<text text-anchor="middle" x="200.5" y="-347.3896" font-family="Helvetica,sans-Serif" font-size="10.00" fill="#000000">gko::matrix::Fft3</text>
<text text-anchor="middle" x="200.5" y="-336.3896" font-family="Helvetica,sans-Serif" font-size="10.00" fill="#000000">...</text>
</g>
<!-- Node1&#45;&gt;Node10 -->
<g id="edge13" class="edge">
<title>Node1&#45;&gt;Node10</title>
<path fill="none" stroke="#ffa500" stroke-dasharray="5,2" d="M49.6342,-579.686C52.9147,-532.8318 69.6285,-330.7327 116,-293.3896 145.4493,-269.674 248.1216,-276.3113 314.8674,-283.6191"/>
<text text-anchor="start" x="153" y="-307.3896" font-family="Helvetica,sans-Serif" font-size="10.00" fill="#000000">gko::preconditioner</text>
<text text-anchor="middle" x="200.5" y="-296.3896" font-family="Helvetica,sans-Serif" font-size="10.00" fill="#000000">::Jacobi</text>
</g>
<!-- Node7 -->
<g id="node9" class="node">
<title>Node7</title>
<g id="a_node9"><a xlink:href="group__solvers.html" target="_top" xlink:title="A module dedicated to the implementation and usage of the Solvers in Ginkgo.">
<polygon fill="#ffffff" stroke="#000000" points="401,-197.8896 348,-197.8896 348,-178.8896 401,-178.8896 401,-197.8896"/>
<text text-anchor="middle" x="374.5" y="-185.8896" font-family="Helvetica,sans-Serif" font-size="10.00" fill="#000000">Solvers</text>
</a>
</g>
</g>
<!-- Node1&#45;&gt;Node7 -->
<g id="edge6" class="edge">
<title>Node1&#45;&gt;Node7</title>
<path fill="none" stroke="#000000" d="M50.3264,-569.6879C54.9612,-507.0162 72.5737,-313.9417 116,-272.3896 171.0095,-219.7541 213.7897,-271.3272 285,-244.3896 315.1726,-232.9758 346.1606,-210.7872 362.5816,-198.034"/>
<polygon fill="#000000" stroke="#000000" points="46.825,-569.584 49.6087,-579.8066 53.8075,-570.0793 46.825,-569.584"/>
</g>
<!-- Node1&#45;&gt;Node7 -->
<g id="edge14" class="edge">
<title>Node1&#45;&gt;Node7</title>
<path fill="none" stroke="#ffa500" stroke-dasharray="5,2" d="M49.6195,-579.8665C53.8713,-515.9454 79.6568,-150.9193 116,-119.3896 144.3678,-94.7789 249.4513,-107.2773 285,-119.3896 319.9142,-131.2857 351.8161,-162.9215 366.3006,-178.8887"/>
<text text-anchor="middle" x="200.5" y="-232.3896" font-family="Helvetica,sans-Serif" font-size="10.00" fill="#000000">gko::solver::Bicg</text>
<text text-anchor="middle" x="200.5" y="-221.3896" font-family="Helvetica,sans-Serif" font-size="10.00" fill="#000000">gko::solver::Bicgstab</text>
<text text-anchor="middle" x="200.5" y="-210.3896" font-family="Helvetica,sans-Serif" font-size="10.00" fill="#000000">gko::solver::CbGmres</text>
<text text-anchor="middle" x="200.5" y="-199.3896" font-family="Helvetica,sans-Serif" font-size="10.00" fill="#000000">gko::solver::Cg</text>
<text text-anchor="middle" x="200.5" y="-188.3896" font-family="Helvetica,sans-Serif" font-size="10.00" fill="#000000">gko::solver::Cgs</text>
<text text-anchor="middle" x="200.5" y="-177.3896" font-family="Helvetica,sans-Serif" font-size="10.00" fill="#000000">gko::solver::Chebyshev</text>
<text text-anchor="middle" x="200.5" y="-166.3896" font-family="Helvetica,sans-Serif" font-size="10.00" fill="#000000">gko::solver::Fcg</text>
<text text-anchor="middle" x="200.5" y="-155.3896" font-family="Helvetica,sans-Serif" font-size="10.00" fill="#000000">gko::solver::Gcr</text>
<text text-anchor="middle" x="200.5" y="-144.3896" font-family="Helvetica,sans-Serif" font-size="10.00" fill="#000000">gko::solver::Gmres</text>
<text text-anchor="middle" x="200.5" y="-133.3896" font-family="Helvetica,sans-Serif" font-size="10.00" fill="#000000">gko::solver::Idr</text>
<text text-anchor="middle" x="200.5" y="-122.3896" font-family="Helvetica,sans-Serif" font-size="10.00" fill="#000000">...</text>
</g>
<!-- Node9 -->
<g id="node10" class="node">
<title>Node9</title>
<g id="a_node10"><a xlink:href="group__Multigrid.html" target="_top" xlink:title="A module dedicated to the implementation and usage of the Multigrid solver and its components in Gink...">
<polygon fill="#ffffff" stroke="#000000" points="404,-42.8896 345,-42.8896 345,-23.8896 404,-23.8896 404,-42.8896"/>
<text text-anchor="middle" x="374.5" y="-30.8896" font-family="Helvetica,sans-Serif" font-size="10.00" fill="#000000">Multigrid</text>
</a>
</g>
</g>
<!-- Node1&#45;&gt;Node9 -->
<g id="edge12" class="edge">
<title>Node1&#45;&gt;Node9</title>
<path fill="none" stroke="#ffa500" stroke-dasharray="5,2" d="M49.4187,-579.5636C52.5534,-508.2888 73.4069,-72.2974 116,-34.3896 181.5401,23.9411 297.7338,-6.236 348.993,-23.7573"/>
<text text-anchor="middle" x="200.5" y="-92.3896" font-family="Helvetica,sans-Serif" font-size="10.00" fill="#000000">gko::multigrid::FixedCoarsening</text>
<text text-anchor="middle" x="200.5" y="-81.3896" font-family="Helvetica,sans-Serif" font-size="10.00" fill="#000000">gko::multigrid::Pgm</text>
<text text-anchor="middle" x="200.5" y="-70.3896" font-family="Helvetica,sans-Serif" font-size="10.00" fill="#000000">gko::multigrid::Pmis</text>
<text text-anchor="middle" x="200.5" y="-59.3896" font-family="Helvetica,sans-Serif" font-size="10.00" fill="#000000">gko::multigrid::Rs</text>
<text text-anchor="middle" x="200.5" y="-48.3896" font-family="Helvetica,sans-Serif" font-size="10.00" fill="#000000">gko::multigrid::UniformCoarsening</text>
<text text-anchor="middle" x="200.5" y="-37.3896" font-family="Helvetica,sans-Serif" font-size="10.00" fill="#000000">gko::solver::Multigrid</text>
</g>
</g>
</svg>
        <g id="navigator" transform="translate(0 0)" fill="#404254">
                <rect fill="#f2f5e9" fill-opacity="0.5" stroke="#606060" stroke-width=".5" x="0" y="0" width="60" height="60"/>
                <use id="zoomplus" xlink:href="#zoomPlus" x="17" y="9" onmousedown="handleZoom(evt,'in')"/>
                <use id="zoomminus" xlink:href="#zoomMin" x="42" y="9" onmousedown="handleZoom(evt,'out')"/>
                <use id="reset" xlink:href="#resetDef" x="30" y="36" onmousedown="handleReset()"/>
                <g id="arrowUp" xlink:href="#dirArrow" transform="translate(30 24)" onmousedown="handlePan(0,-1)">
                  <use xlink:href="#rim" fill="#404040">
                        <set attributeName="fill" to="#808080" begin="arrowUp.mouseover" end="arrowUp.mouseout"/>
                  </use>
                  <path fill="none" stroke="white" stroke-width="1.5" d="M0,-3.0v7 M-2.5,-0.5L0,-3.0L2.5,-0.5"/>
                </g>
                <g id="arrowRight" xlink:href="#dirArrow" transform="rotate(90) translate(36 -43)" onmousedown="handlePan(1,0)">
                  <use xlink:href="#rim" fill="#404040">
                        <set attributeName="fill" to="#808080" begin="arrowRight.mouseover" end="arrowRight.mouseout"/>
                  </use>
                  <path fill="none" stroke="white" stroke-width="1.5" d="M0,-3.0v7 M-2.5,-0.5L0,-3.0L2.5,-0.5"/>
                </g>
                <g id="arrowDown" xlink:href="#dirArrow" transform="rotate(180) translate(-30 -48)" onmousedown="handlePan(0,1)">
                  <use xlink:href="#rim" fill="#404040">
                        <set attributeName="fill" to="#808080" begin="arrowDown.mouseover" end="arrowDown.mouseout"/>
                  </use>
                  <path fill="none" stroke="white" stroke-width="1.5" d="M0,-3.0v7 M-2.5,-0.5L0,-3.0L2.5,-0.5"/>
                </g>
                <g id="arrowLeft" xlink:href="#dirArrow" transform="rotate(270) translate(-36 17)" onmousedown="handlePan(-1,0)">
                  <use xlink:href="#rim" fill="#404040">
                        <set attributeName="fill" to="#808080" begin="arrowLeft.mouseover" end="arrowLeft.mouseout"/>
                  </use>
                  <path fill="none" stroke="white" stroke-width="1.5" d="M0,-3.0v7 M-2.5,-0.5L0,-3.0L2.5,-0.5"/>
                </g>
        </g>
        <svg viewBox="0 0 15 15" width="100%" height="30px" preserveAspectRatio="xMaxYMin meet">
         <g id="arrow_out" transform="scale(0.3 0.3)">
          <a xlink:href="group__LinOp_org.svg" target="_base">
           <rect id="button" ry="5" rx="5" y="6" x="6" height="38" width="38"
                fill="#f2f5e9" fill-opacity="0.5" stroke="#606060" stroke-width="1.0"/>
           <path id="arrow"
             d="M 11.500037,31.436501 C 11.940474,20.09759 22.043105,11.32322 32.158766,21.979434 L 37.068811,17.246167 C 37.068811,17.246167 37.088388,32 37.088388,32 L 22.160133,31.978069 C 22.160133,31.978069 26.997745,27.140456 26.997745,27.140456 C 18.528582,18.264221 13.291696,25.230495 11.500037,31.436501 z"
             style="fill:#404040;"/>
          </a>
         </g>
        </svg>
</svg>
