<?xml version="1.0" encoding="UTF-8" standalone="no"?>
<!DOCTYPE svg PUBLIC "-//W3C//DTD SVG 1.1//EN"
 "http://www.w3.org/Graphics/SVG/1.1/DTD/svg11.dtd">
<!-- Generated by graphviz version 2.40.1 (20161225.0304)
 -->
<!-- Title: BatchLinOp Pages: 1 -->
<svg width="367pt" height="110pt"
 viewBox="0.00 0.00 367.00 109.50" xmlns="http://www.w3.org/2000/svg" xmlns:xlink="http://www.w3.org/1999/xlink">
<g id="graph0" class="graph" transform="scale(1 1) rotate(0) translate(4 105.5)">
<title>BatchLinOp</title>
<polygon fill="#ffffff" stroke="transparent" points="-4,4 -4,-105.5 363,-105.5 363,4 -4,4"/>
<!-- Node1 -->
<g id="node1" class="node">
<title>Node1</title>
<g id="a_node1"><a xlink:title=" ">
<polygon fill="#bfbfbf" stroke="#000000" points="72,-41 0,-41 0,-22 72,-22 72,-41"/>
<text text-anchor="middle" x="36" y="-29" font-family="Helvetica,sans-Serif" font-size="10.00" fill="#000000">BatchLinOp</text>
</a>
</g>
</g>
<!-- Node2 -->
<g id="node2" class="node">
<title>Node2</title>
<g id="a_node2"><a xlink:href="group__mat__formats.html" target="_top" xlink:title="A module dedicated to the implementation and usage of the various Matrix Formats in Ginkgo.">
<polygon fill="#ffffff" stroke="#000000" points="359,-69.5 216,-69.5 216,-39.5 359,-39.5 359,-69.5"/>
<text text-anchor="start" x="224" y="-57.5" font-family="Helvetica,sans-Serif" font-size="10.00" fill="#000000">SpMV employing different</text>
<text text-anchor="middle" x="287.5" y="-46.5" font-family="Helvetica,sans-Serif" font-size="10.00" fill="#000000"> Matrix formats</text>
</a>
</g>
</g>
<!-- Node1&#45;&gt;Node2 -->
<g id="edge1" class="edge">
<title>Node1&#45;&gt;Node2</title>
<path fill="none" stroke="#ffa500" stroke-dasharray="5,2" d="M72.0338,-34.7953C109.3855,-38.2112 168.7724,-43.6422 215.7484,-47.9382"/>
<text text-anchor="start" x="90" y="-93.5" font-family="Helvetica,sans-Serif" font-size="10.00" fill="#000000">gko::batch::matrix</text>
<text text-anchor="middle" x="144" y="-82.5" font-family="Helvetica,sans-Serif" font-size="10.00" fill="#000000">::Dense</text>
<text text-anchor="middle" x="144" y="-71.5" font-family="Helvetica,sans-Serif" font-size="10.00" fill="#000000">gko::batch::matrix::Ell</text>
<text text-anchor="start" x="90" y="-60.5" font-family="Helvetica,sans-Serif" font-size="10.00" fill="#000000">gko::batch::matrix</text>
<text text-anchor="middle" x="144" y="-49.5" font-family="Helvetica,sans-Serif" font-size="10.00" fill="#000000">::Identity</text>
</g>
<!-- Node3 -->
<g id="node3" class="node">
<title>Node3</title>
<g id="a_node3"><a xlink:href="group__solvers.html" target="_top" xlink:title="A module dedicated to the implementation and usage of the Solvers in Ginkgo.">
<polygon fill="#ffffff" stroke="#000000" points="314,-19 261,-19 261,0 314,0 314,-19"/>
<text text-anchor="middle" x="287.5" y="-7" font-family="Helvetica,sans-Serif" font-size="10.00" fill="#000000">Solvers</text>
</a>
</g>
</g>
<!-- Node1&#45;&gt;Node3 -->
<g id="edge2" class="edge">
<title>Node1&#45;&gt;Node3</title>
<path fill="none" stroke="#ffa500" stroke-dasharray="5,2" d="M55.4879,-21.9268C65.5355,-17.5109 78.1419,-12.7557 90,-10.5 150.127,.9376 222.4255,-3.0887 260.6894,-6.5748"/>
<text text-anchor="start" x="100" y="-24.5" font-family="Helvetica,sans-Serif" font-size="10.00" fill="#000000">gko::batch::solver</text>
<text text-anchor="middle" x="144" y="-13.5" font-family="Helvetica,sans-Serif" font-size="10.00" fill="#000000">::Bicgstab</text>
</g>
</g>
</svg>
