<?xml version="1.0" encoding="UTF-8" standalone="no"?>
<!DOCTYPE svg PUBLIC "-//W3C//DTD SVG 1.1//EN"
 "http://www.w3.org/Graphics/SVG/1.1/DTD/svg11.dtd">
<!-- Generated by graphviz version 2.40.1 (20161225.0304)
 -->
<!-- Title: BatchLinOp Pages: 1 -->
<svg width="371pt" height="133pt"
 viewBox="0.00 0.00 371.00 132.77" xmlns="http://www.w3.org/2000/svg" xmlns:xlink="http://www.w3.org/1999/xlink">
<g id="graph0" class="graph" transform="scale(1 1) rotate(0) translate(4 128.7655)">
<title>BatchLinOp</title>
<polygon fill="#ffffff" stroke="transparent" points="-4,4 -4,-128.7655 367,-128.7655 367,4 -4,4"/>
<!-- Node1 -->
<g id="node1" class="node">
<title>Node1</title>
<g id="a_node1"><a xlink:title=" ">
<polygon fill="#bfbfbf" stroke="#000000" points="72,-50.2655 0,-50.2655 0,-31.2655 72,-31.2655 72,-50.2655"/>
<text text-anchor="middle" x="36" y="-38.2655" font-family="Helvetica,sans-Serif" font-size="10.00" fill="#000000">BatchLinOp</text>
</a>
</g>
</g>
<!-- Node2 -->
<g id="node2" class="node">
<title>Node2</title>
<g id="a_node2"><a xlink:href="group__mat__formats.html" target="_top" xlink:title="A module dedicated to the implementation and usage of the various Matrix Formats in Ginkgo.">
<polygon fill="#ffffff" stroke="#000000" points="363,-83.7655 220,-83.7655 220,-53.7655 363,-53.7655 363,-83.7655"/>
<text text-anchor="start" x="228" y="-71.7655" font-family="Helvetica,sans-Serif" font-size="10.00" fill="#000000">SpMV employing different</text>
<text text-anchor="middle" x="291.5" y="-60.7655" font-family="Helvetica,sans-Serif" font-size="10.00" fill="#000000"> Matrix formats</text>
</a>
</g>
</g>
<!-- Node1&#45;&gt;Node2 -->
<g id="edge1" class="edge">
<title>Node1&#45;&gt;Node2</title>
<path fill="none" stroke="#ffa500" stroke-dasharray="5,2" d="M72.0171,-44.7771C78.0221,-45.4431 84.1869,-46.1252 90,-46.7655 133.0241,-51.5044 181.2211,-56.7683 219.688,-60.9586"/>
<text text-anchor="middle" x="146" y="-116.7655" font-family="Helvetica,sans-Serif" font-size="10.00" fill="#000000">gko::batch::matrix::Csr</text>
<text text-anchor="start" x="90" y="-105.7655" font-family="Helvetica,sans-Serif" font-size="10.00" fill="#000000">gko::batch::matrix</text>
<text text-anchor="middle" x="146" y="-94.7655" font-family="Helvetica,sans-Serif" font-size="10.00" fill="#000000">::Dense</text>
<text text-anchor="middle" x="146" y="-83.7655" font-family="Helvetica,sans-Serif" font-size="10.00" fill="#000000">gko::batch::matrix::Ell</text>
<text text-anchor="start" x="90" y="-72.7655" font-family="Helvetica,sans-Serif" font-size="10.00" fill="#000000">gko::batch::matrix</text>
<text text-anchor="middle" x="146" y="-61.7655" font-family="Helvetica,sans-Serif" font-size="10.00" fill="#000000">::Identity</text>
</g>
<!-- Node3 -->
<g id="node3" class="node">
<title>Node3</title>
<g id="a_node3"><a xlink:href="group__solvers.html" target="_top" xlink:title="A module dedicated to the implementation and usage of the Solvers in Ginkgo.">
<polygon fill="#ffffff" stroke="#000000" points="318,-22.2655 265,-22.2655 265,-3.2655 318,-3.2655 318,-22.2655"/>
<text text-anchor="middle" x="291.5" y="-10.2655" font-family="Helvetica,sans-Serif" font-size="10.00" fill="#000000">Solvers</text>
</a>
</g>
</g>
<!-- Node1&#45;&gt;Node3 -->
<g id="edge2" class="edge">
<title>Node1&#45;&gt;Node3</title>
<path fill="none" stroke="#ffa500" stroke-dasharray="5,2" d="M48.4694,-31.0695C58.9084,-23.6043 74.5413,-13.8873 90,-9.7655 150.8499,6.459 225.7482,-1.6154 264.856,-7.8395"/>
<text text-anchor="start" x="93" y="-34.7655" font-family="Helvetica,sans-Serif" font-size="10.00" fill="#000000">gko::batch::solver</text>
<text text-anchor="middle" x="146" y="-23.7655" font-family="Helvetica,sans-Serif" font-size="10.00" fill="#000000">::Bicgstab</text>
<text text-anchor="middle" x="146" y="-12.7655" font-family="Helvetica,sans-Serif" font-size="10.00" fill="#000000">gko::batch::solver::Cg</text>
</g>
</g>
</svg>
