<?xml version="1.0" encoding="UTF-8" standalone="no"?>
<!DOCTYPE svg PUBLIC "-//W3C//DTD SVG 1.1//EN"
 "http://www.w3.org/Graphics/SVG/1.1/DTD/svg11.dtd">
<!-- Generated by graphviz version 2.40.1 (20161225.0304)
 -->
<!-- Title: Jacobi Preconditioner Pages: 1 -->
<svg width="389pt" height="164pt"
 viewBox="0.00 0.00 389.00 163.50" xmlns="http://www.w3.org/2000/svg" xmlns:xlink="http://www.w3.org/1999/xlink">
<g id="graph0" class="graph" transform="scale(1 1) rotate(0) translate(4 159.5)">
<title>Jacobi Preconditioner</title>
<polygon fill="#ffffff" stroke="transparent" points="-4,4 -4,-159.5 385,-159.5 385,4 -4,4"/>
<!-- Node3 -->
<g id="node1" class="node">
<title>Node3</title>
<g id="a_node1"><a xlink:href="group__BatchLinOp.html" target="_top" xlink:title=" ">
<polygon fill="#ffffff" stroke="#000000" points="368,-64 296,-64 296,-45 368,-45 368,-64"/>
<text text-anchor="middle" x="332" y="-52" font-family="Helvetica,sans-Serif" font-size="10.00" fill="#000000">BatchLinOp</text>
</a>
</g>
</g>
<!-- Node2 -->
<g id="node2" class="node">
<title>Node2</title>
<g id="a_node2"><a xlink:href="group__precond.html" target="_top" xlink:title="A module dedicated to the implementation and usage of the Preconditioners in Ginkgo.">
<polygon fill="#ffffff" stroke="#000000" points="378,-117 286,-117 286,-98 378,-98 378,-117"/>
<text text-anchor="middle" x="332" y="-105" font-family="Helvetica,sans-Serif" font-size="10.00" fill="#000000">Preconditioners</text>
</a>
</g>
</g>
<!-- Node1 -->
<g id="node3" class="node">
<title>Node1</title>
<g id="a_node3"><a xlink:title="A module dedicated to the implementation and usage of the Jacobi Preconditioner in Ginkgo.">
<polygon fill="#bfbfbf" stroke="#000000" points="119,-82 0,-82 0,-63 119,-63 119,-82"/>
<text text-anchor="middle" x="59.5" y="-70" font-family="Helvetica,sans-Serif" font-size="10.00" fill="#000000">Jacobi Preconditioner</text>
</a>
</g>
</g>
<!-- Node2&#45;&gt;Node1 -->
<g id="edge1" class="edge">
<title>Node2&#45;&gt;Node1</title>
<path fill="none" stroke="#000000" d="M275.8263,-100.285C230.167,-94.4205 165.9105,-86.1674 119.3013,-80.1809"/>
<polygon fill="#000000" stroke="#000000" points="275.4868,-103.7701 285.8512,-101.5726 276.3786,-96.8271 275.4868,-103.7701"/>
</g>
<!-- Node1&#45;&gt;Node3 -->
<g id="edge3" class="edge">
<title>Node1&#45;&gt;Node3</title>
<path fill="none" stroke="#ffa500" stroke-dasharray="5,2" d="M95.5104,-62.9481C108.4889,-59.9458 123.3093,-57.0194 137,-55.5 192.1827,-49.3756 256.6907,-50.6877 295.9289,-52.4217"/>
<text text-anchor="start" x="137" y="-69.5" font-family="Helvetica,sans-Serif" font-size="10.00" fill="#000000">gko::batch::preconditioner</text>
<text text-anchor="middle" x="201" y="-58.5" font-family="Helvetica,sans-Serif" font-size="10.00" fill="#000000">::Jacobi</text>
</g>
<!-- Node1&#45;&gt;Node2 -->
<g id="edge2" class="edge">
<title>Node1&#45;&gt;Node2</title>
<path fill="none" stroke="#ffa500" stroke-dasharray="5,2" d="M78.6893,-82.0676C94.0422,-89.1906 116.3449,-98.3671 137,-102.5 187.1427,-112.5332 245.9762,-112.4699 285.8027,-110.7302"/>
<text text-anchor="start" x="137" y="-147.5" font-family="Helvetica,sans-Serif" font-size="10.00" fill="#000000">gko::batch::preconditioner</text>
<text text-anchor="middle" x="201" y="-136.5" font-family="Helvetica,sans-Serif" font-size="10.00" fill="#000000">::Jacobi</text>
<text text-anchor="start" x="137" y="-125.5" font-family="Helvetica,sans-Serif" font-size="10.00" fill="#000000">gko::preconditioner</text>
<text text-anchor="middle" x="201" y="-114.5" font-family="Helvetica,sans-Serif" font-size="10.00" fill="#000000">::Jacobi</text>
</g>
<!-- Node4 -->
<g id="node4" class="node">
<title>Node4</title>
<g id="a_node4"><a xlink:href="group__LinOp.html" target="_top" xlink:title="A module dedicated to the implementation and usage of the Linear operators in Ginkgo.">
<polygon fill="#ffffff" stroke="#000000" points="381,-19 283,-19 283,0 381,0 381,-19"/>
<text text-anchor="middle" x="332" y="-7" font-family="Helvetica,sans-Serif" font-size="10.00" fill="#000000">Linear Operators</text>
</a>
</g>
</g>
<!-- Node1&#45;&gt;Node4 -->
<g id="edge4" class="edge">
<title>Node1&#45;&gt;Node4</title>
<path fill="none" stroke="#ffa500" stroke-dasharray="5,2" d="M70.9496,-62.9174C85.3371,-51.4958 111.2738,-32.9014 137,-24.5 184.7695,-8.9 242.48,-6.324 282.6714,-6.9271"/>
<text text-anchor="start" x="153.5" y="-38.5" font-family="Helvetica,sans-Serif" font-size="10.00" fill="#000000">gko::preconditioner</text>
<text text-anchor="middle" x="201" y="-27.5" font-family="Helvetica,sans-Serif" font-size="10.00" fill="#000000">::Jacobi</text>
</g>
</g>
</svg>
