<?xml version="1.0" encoding="UTF-8" standalone="no"?>
<!DOCTYPE svg PUBLIC "-//W3C//DTD SVG 1.1//EN"
 "http://www.w3.org/Graphics/SVG/1.1/DTD/svg11.dtd">
<!-- Generated by graphviz version 2.40.1 (20161225.0304)
 -->
<!-- Title: BatchLinOp Pages: 1 -->
<svg width="371pt" height="121pt"
 viewBox="0.00 0.00 371.00 120.50" xmlns="http://www.w3.org/2000/svg" xmlns:xlink="http://www.w3.org/1999/xlink">
<g id="graph0" class="graph" transform="scale(1 1) rotate(0) translate(4 116.5)">
<title>BatchLinOp</title>
<polygon fill="#ffffff" stroke="transparent" points="-4,4 -4,-116.5 367,-116.5 367,4 -4,4"/>
<!-- Node1 -->
<g id="node1" class="node">
<title>Node1</title>
<g id="a_node1"><a xlink:title=" ">
<polygon fill="#bfbfbf" stroke="#000000" points="72,-41 0,-41 0,-22 72,-22 72,-41"/>
<text text-anchor="middle" x="36" y="-29" font-family="Helvetica,sans-Serif" font-size="10.00" fill="#000000">BatchLinOp</text>
</a>
</g>
</g>
<!-- Node2 -->
<g id="node2" class="node">
<title>Node2</title>
<g id="a_node2"><a xlink:href="group__mat__formats.html" target="_top" xlink:title="A module dedicated to the implementation and usage of the various Matrix Formats in Ginkgo.">
<polygon fill="#ffffff" stroke="#000000" points="363,-69.5 220,-69.5 220,-39.5 363,-39.5 363,-69.5"/>
<text text-anchor="start" x="228" y="-57.5" font-family="Helvetica,sans-Serif" font-size="10.00" fill="#000000">SpMV employing different</text>
<text text-anchor="middle" x="291.5" y="-46.5" font-family="Helvetica,sans-Serif" font-size="10.00" fill="#000000"> Matrix formats</text>
</a>
</g>
</g>
<!-- Node1&#45;&gt;Node2 -->
<g id="edge1" class="edge">
<title>Node1&#45;&gt;Node2</title>
<path fill="none" stroke="#ffa500" stroke-dasharray="5,2" d="M72.065,-34.7466C110.3056,-38.189 171.7121,-43.7167 219.8538,-48.0504"/>
<text text-anchor="middle" x="146" y="-104.5" font-family="Helvetica,sans-Serif" font-size="10.00" fill="#000000">gko::batch::matrix::Csr</text>
<text text-anchor="start" x="90" y="-93.5" font-family="Helvetica,sans-Serif" font-size="10.00" fill="#000000">gko::batch::matrix</text>
<text text-anchor="middle" x="146" y="-82.5" font-family="Helvetica,sans-Serif" font-size="10.00" fill="#000000">::Dense</text>
<text text-anchor="middle" x="146" y="-71.5" font-family="Helvetica,sans-Serif" font-size="10.00" fill="#000000">gko::batch::matrix::Ell</text>
<text text-anchor="start" x="90" y="-60.5" font-family="Helvetica,sans-Serif" font-size="10.00" fill="#000000">gko::batch::matrix</text>
<text text-anchor="middle" x="146" y="-49.5" font-family="Helvetica,sans-Serif" font-size="10.00" fill="#000000">::Identity</text>
</g>
<!-- Node3 -->
<g id="node3" class="node">
<title>Node3</title>
<g id="a_node3"><a xlink:href="group__solvers.html" target="_top" xlink:title="A module dedicated to the implementation and usage of the Solvers in Ginkgo.">
<polygon fill="#ffffff" stroke="#000000" points="318,-19 265,-19 265,0 318,0 318,-19"/>
<text text-anchor="middle" x="291.5" y="-7" font-family="Helvetica,sans-Serif" font-size="10.00" fill="#000000">Solvers</text>
</a>
</g>
</g>
<!-- Node1&#45;&gt;Node3 -->
<g id="edge2" class="edge">
<title>Node1&#45;&gt;Node3</title>
<path fill="none" stroke="#ffa500" stroke-dasharray="5,2" d="M55.4878,-21.9262C65.5354,-17.5103 78.1418,-12.7551 90,-10.5 151.689,1.2315 225.9347,-2.997 264.7994,-6.5717"/>
<text text-anchor="start" x="102" y="-24.5" font-family="Helvetica,sans-Serif" font-size="10.00" fill="#000000">gko::batch::solver</text>
<text text-anchor="middle" x="146" y="-13.5" font-family="Helvetica,sans-Serif" font-size="10.00" fill="#000000">::Bicgstab</text>
</g>
</g>
</svg>
