<?xml version="1.0" encoding="UTF-8" standalone="no"?>
<!DOCTYPE svg PUBLIC "-//W3C//DTD SVG 1.1//EN"
 "http://www.w3.org/Graphics/SVG/1.1/DTD/svg11.dtd">
<!-- Generated by graphviz version 2.40.1 (20161225.0304)
 -->
<!-- Title: SpMV employing different Matrix formats Pages: 1 -->
<svg width="397pt" height="258pt"
 viewBox="0.00 0.00 397.00 257.50" xmlns="http://www.w3.org/2000/svg" xmlns:xlink="http://www.w3.org/1999/xlink">
<g id="graph0" class="graph" transform="scale(1 1) rotate(0) translate(4 253.5)">
<title>SpMV employing different Matrix formats</title>
<polygon fill="#ffffff" stroke="transparent" points="-4,4 -4,-253.5 393,-253.5 393,4 -4,4"/>
<!-- Node3 -->
<g id="node1" class="node">
<title>Node3</title>
<g id="a_node1"><a xlink:href="group__BatchLinOp.html" target="_top" xlink:title=" ">
<polygon fill="#ffffff" stroke="#000000" points="376,-190 304,-190 304,-171 376,-171 376,-190"/>
<text text-anchor="middle" x="340" y="-178" font-family="Helvetica,sans-Serif" font-size="10.00" fill="#000000">BatchLinOp</text>
</a>
</g>
</g>
<!-- Node1 -->
<g id="node2" class="node">
<title>Node1</title>
<g id="a_node2"><a xlink:title="A module dedicated to the implementation and usage of the various Matrix Formats in Ginkgo.">
<polygon fill="#bfbfbf" stroke="#000000" points="143,-40.5 0,-40.5 0,-10.5 143,-10.5 143,-40.5"/>
<text text-anchor="start" x="8" y="-28.5" font-family="Helvetica,sans-Serif" font-size="10.00" fill="#000000">SpMV employing different</text>
<text text-anchor="middle" x="71.5" y="-17.5" font-family="Helvetica,sans-Serif" font-size="10.00" fill="#000000"> Matrix formats</text>
</a>
</g>
</g>
<!-- Node1&#45;&gt;Node3 -->
<g id="edge3" class="edge">
<title>Node1&#45;&gt;Node3</title>
<path fill="none" stroke="#ffa500" stroke-dasharray="5,2" d="M77.0919,-40.6287C88.2763,-68.5515 116.2401,-127.8531 161,-155.5 204.6481,-182.4602 265.557,-185.1805 303.8746,-183.6265"/>
<text text-anchor="middle" x="217" y="-241.5" font-family="Helvetica,sans-Serif" font-size="10.00" fill="#000000">gko::batch::matrix::Csr</text>
<text text-anchor="start" x="161" y="-230.5" font-family="Helvetica,sans-Serif" font-size="10.00" fill="#000000">gko::batch::matrix</text>
<text text-anchor="middle" x="217" y="-219.5" font-family="Helvetica,sans-Serif" font-size="10.00" fill="#000000">::Dense</text>
<text text-anchor="middle" x="217" y="-208.5" font-family="Helvetica,sans-Serif" font-size="10.00" fill="#000000">gko::batch::matrix::Ell</text>
<text text-anchor="start" x="161" y="-197.5" font-family="Helvetica,sans-Serif" font-size="10.00" fill="#000000">gko::batch::matrix</text>
<text text-anchor="middle" x="217" y="-186.5" font-family="Helvetica,sans-Serif" font-size="10.00" fill="#000000">::Identity</text>
</g>
<!-- Node2 -->
<g id="node3" class="node">
<title>Node2</title>
<g id="a_node3"><a xlink:href="group__LinOp.html" target="_top" xlink:title="A module dedicated to the implementation and usage of the Linear operators in Ginkgo.">
<polygon fill="#ffffff" stroke="#000000" points="389,-19 291,-19 291,0 389,0 389,-19"/>
<text text-anchor="middle" x="340" y="-7" font-family="Helvetica,sans-Serif" font-size="10.00" fill="#000000">Linear Operators</text>
</a>
</g>
</g>
<!-- Node1&#45;&gt;Node2 -->
<g id="edge2" class="edge">
<title>Node1&#45;&gt;Node2</title>
<path fill="none" stroke="#ffa500" stroke-dasharray="5,2" d="M143.1004,-21.2333C189.7054,-18.4561 249.2953,-14.9051 290.6528,-12.4406"/>
<text text-anchor="start" x="164" y="-143.5" font-family="Helvetica,sans-Serif" font-size="10.00" fill="#000000">gko::experimental::</text>
<text text-anchor="middle" x="217" y="-132.5" font-family="Helvetica,sans-Serif" font-size="10.00" fill="#000000">distributed::Vector</text>
<text text-anchor="middle" x="217" y="-121.5" font-family="Helvetica,sans-Serif" font-size="10.00" fill="#000000">gko::matrix::Coo</text>
<text text-anchor="middle" x="217" y="-110.5" font-family="Helvetica,sans-Serif" font-size="10.00" fill="#000000">gko::matrix::Csr</text>
<text text-anchor="middle" x="217" y="-99.5" font-family="Helvetica,sans-Serif" font-size="10.00" fill="#000000">gko::matrix::Dense</text>
<text text-anchor="middle" x="217" y="-88.5" font-family="Helvetica,sans-Serif" font-size="10.00" fill="#000000">gko::matrix::Diagonal</text>
<text text-anchor="middle" x="217" y="-77.5" font-family="Helvetica,sans-Serif" font-size="10.00" fill="#000000">gko::matrix::Ell</text>
<text text-anchor="middle" x="217" y="-66.5" font-family="Helvetica,sans-Serif" font-size="10.00" fill="#000000">gko::matrix::Fbcsr</text>
<text text-anchor="middle" x="217" y="-55.5" font-family="Helvetica,sans-Serif" font-size="10.00" fill="#000000">gko::matrix::Fft</text>
<text text-anchor="middle" x="217" y="-44.5" font-family="Helvetica,sans-Serif" font-size="10.00" fill="#000000">gko::matrix::Fft2</text>
<text text-anchor="middle" x="217" y="-33.5" font-family="Helvetica,sans-Serif" font-size="10.00" fill="#000000">gko::matrix::Fft3</text>
<text text-anchor="middle" x="217" y="-22.5" font-family="Helvetica,sans-Serif" font-size="10.00" fill="#000000">...</text>
</g>
<!-- Node2&#45;&gt;Node1 -->
<g id="edge1" class="edge">
<title>Node2&#45;&gt;Node1</title>
<path fill="none" stroke="#000000" d="M280.7735,-6.7049C278.1468,-6.6261 275.5464,-6.557 273,-6.5 223.2347,-5.3864 210.5058,-1.3031 161,-6.5 152.3113,-7.4121 143.2249,-8.8093 134.3127,-10.441"/>
<polygon fill="#000000" stroke="#000000" points="280.8624,-10.2099 290.9756,-7.0516 281.1002,-3.2139 280.8624,-10.2099"/>
</g>
</g>
</svg>
