<?xml version="1.0" encoding="UTF-8" standalone="no"?>
<!DOCTYPE svg PUBLIC "-//W3C//DTD SVG 1.1//EN"
 "http://www.w3.org/Graphics/SVG/1.1/DTD/svg11.dtd">
<!-- Generated by graphviz version 2.40.1 (20161225.0304)
 -->
<!-- Title: Graphical Class Hierarchy Pages: 1 -->
<svg width="390pt" height="1716pt"
 viewBox="0.00 0.00 390.00 1716.00" xmlns="http://www.w3.org/2000/svg" xmlns:xlink="http://www.w3.org/1999/xlink">
<g id="graph0" class="graph" transform="scale(1 1) rotate(0) translate(4 1712)">
<title>Graphical Class Hierarchy</title>
<polygon fill="#ffffff" stroke="transparent" points="-4,4 -4,-1712 386,-1712 386,4 -4,4"/>
<!-- Node0 -->
<g id="node1" class="node">
<title>Node0</title>
<g id="a_node1"><a xlink:href="classgko_1_1enable__parameters__type.html" target="_top" xlink:title=" ">
<polygon fill="#ffffff" stroke="#000000" points="0,-767.5 0,-808.5 141,-808.5 141,-767.5 0,-767.5"/>
<text text-anchor="start" x="8" y="-796.5" font-family="Helvetica,sans-Serif" font-size="10.00" fill="#000000">gko::enable_parameters</text>
<text text-anchor="start" x="8" y="-785.5" font-family="Helvetica,sans-Serif" font-size="10.00" fill="#000000">_type&lt; parameters_type,</text>
<text text-anchor="middle" x="70.5" y="-774.5" font-family="Helvetica,sans-Serif" font-size="10.00" fill="#000000"> Factory &gt;</text>
</a>
</g>
</g>
<!-- Node1 -->
<g id="node2" class="node">
<title>Node1</title>
<g id="a_node2"><a xlink:href="structgko_1_1factorization_1_1Ic_1_1parameters__type.html" target="_top" xlink:title=" ">
<polygon fill="#ffffff" stroke="#000000" points="206,-1666.5 206,-1707.5 353,-1707.5 353,-1666.5 206,-1666.5"/>
<text text-anchor="start" x="214" y="-1695.5" font-family="Helvetica,sans-Serif" font-size="10.00" fill="#000000">gko::factorization</text>
<text text-anchor="start" x="214" y="-1684.5" font-family="Helvetica,sans-Serif" font-size="10.00" fill="#000000">::Ic&lt; ValueType, IndexType</text>
<text text-anchor="middle" x="279.5" y="-1673.5" font-family="Helvetica,sans-Serif" font-size="10.00" fill="#000000"> &gt;::parameters_type</text>
</a>
</g>
</g>
<!-- Node0&#45;&gt;Node1 -->
<g id="edge1" class="edge">
<title>Node0&#45;&gt;Node1</title>
<path fill="none" stroke="#191970" d="M72.2724,-818.6029C81.0245,-965.2381 121.4504,-1591.5829 177,-1657 184.681,-1666.0454 194.9278,-1672.4431 205.9773,-1676.9517"/>
<polygon fill="#191970" stroke="#191970" points="75.7599,-818.2875 71.6751,-808.5118 68.7722,-818.7012 75.7599,-818.2875"/>
</g>
<!-- Node2 -->
<g id="node3" class="node">
<title>Node2</title>
<g id="a_node3"><a xlink:href="structgko_1_1factorization_1_1Ilu_1_1parameters__type.html" target="_top" xlink:title=" ">
<polygon fill="#ffffff" stroke="#000000" points="204,-1606.5 204,-1647.5 355,-1647.5 355,-1606.5 204,-1606.5"/>
<text text-anchor="start" x="212" y="-1635.5" font-family="Helvetica,sans-Serif" font-size="10.00" fill="#000000">gko::factorization</text>
<text text-anchor="start" x="212" y="-1624.5" font-family="Helvetica,sans-Serif" font-size="10.00" fill="#000000">::Ilu&lt; ValueType, IndexType</text>
<text text-anchor="middle" x="279.5" y="-1613.5" font-family="Helvetica,sans-Serif" font-size="10.00" fill="#000000"> &gt;::parameters_type</text>
</a>
</g>
</g>
<!-- Node0&#45;&gt;Node2 -->
<g id="edge2" class="edge">
<title>Node0&#45;&gt;Node2</title>
<path fill="none" stroke="#191970" d="M72.5715,-818.7122C82.3086,-959.2255 125.2315,-1536.5854 177,-1597 184.2388,-1605.4478 193.7149,-1611.5836 203.982,-1616.0272"/>
<polygon fill="#191970" stroke="#191970" points="76.0565,-818.3727 71.8785,-808.6365 69.073,-818.8531 76.0565,-818.3727"/>
</g>
<!-- Node3 -->
<g id="node4" class="node">
<title>Node3</title>
<g id="a_node4"><a xlink:href="structgko_1_1factorization_1_1ParIc_1_1parameters__type.html" target="_top" xlink:title=" ">
<polygon fill="#ffffff" stroke="#000000" points="194.5,-1546.5 194.5,-1587.5 364.5,-1587.5 364.5,-1546.5 194.5,-1546.5"/>
<text text-anchor="start" x="202.5" y="-1575.5" font-family="Helvetica,sans-Serif" font-size="10.00" fill="#000000">gko::factorization</text>
<text text-anchor="start" x="202.5" y="-1564.5" font-family="Helvetica,sans-Serif" font-size="10.00" fill="#000000">::ParIc&lt; ValueType,</text>
<text text-anchor="middle" x="279.5" y="-1553.5" font-family="Helvetica,sans-Serif" font-size="10.00" fill="#000000"> IndexType &gt;::parameters_type</text>
</a>
</g>
</g>
<!-- Node0&#45;&gt;Node3 -->
<g id="edge3" class="edge">
<title>Node0&#45;&gt;Node3</title>
<path fill="none" stroke="#191970" d="M72.8982,-818.5595C83.6478,-952.2605 128.9714,-1481.5335 177,-1537 181.855,-1542.6068 187.6952,-1547.1939 194.0942,-1550.9431"/>
<polygon fill="#191970" stroke="#191970" points="76.3867,-818.2743 72.1016,-808.5847 69.4089,-818.8317 76.3867,-818.2743"/>
</g>
<!-- Node4 -->
<g id="node5" class="node">
<title>Node4</title>
<g id="a_node5"><a xlink:href="structgko_1_1factorization_1_1ParIct_1_1parameters__type.html" target="_top" xlink:title=" ">
<polygon fill="#ffffff" stroke="#000000" points="194.5,-1486.5 194.5,-1527.5 364.5,-1527.5 364.5,-1486.5 194.5,-1486.5"/>
<text text-anchor="start" x="202.5" y="-1515.5" font-family="Helvetica,sans-Serif" font-size="10.00" fill="#000000">gko::factorization</text>
<text text-anchor="start" x="202.5" y="-1504.5" font-family="Helvetica,sans-Serif" font-size="10.00" fill="#000000">::ParIct&lt; ValueType,</text>
<text text-anchor="middle" x="279.5" y="-1493.5" font-family="Helvetica,sans-Serif" font-size="10.00" fill="#000000"> IndexType &gt;::parameters_type</text>
</a>
</g>
</g>
<!-- Node0&#45;&gt;Node4 -->
<g id="edge4" class="edge">
<title>Node0&#45;&gt;Node4</title>
<path fill="none" stroke="#191970" d="M71.0146,-818.8932C73.6455,-939.4883 89.1857,-1376.8192 177,-1477 181.8888,-1482.5773 187.7523,-1487.1441 194.1666,-1490.8801"/>
<polygon fill="#191970" stroke="#191970" points="74.5069,-818.4715 70.8042,-808.5447 67.5083,-818.6139 74.5069,-818.4715"/>
</g>
<!-- Node5 -->
<g id="node6" class="node">
<title>Node5</title>
<g id="a_node6"><a xlink:href="structgko_1_1factorization_1_1ParIlu_1_1parameters__type.html" target="_top" xlink:title=" ">
<polygon fill="#ffffff" stroke="#000000" points="194.5,-1426.5 194.5,-1467.5 364.5,-1467.5 364.5,-1426.5 194.5,-1426.5"/>
<text text-anchor="start" x="202.5" y="-1455.5" font-family="Helvetica,sans-Serif" font-size="10.00" fill="#000000">gko::factorization</text>
<text text-anchor="start" x="202.5" y="-1444.5" font-family="Helvetica,sans-Serif" font-size="10.00" fill="#000000">::ParIlu&lt; ValueType,</text>
<text text-anchor="middle" x="279.5" y="-1433.5" font-family="Helvetica,sans-Serif" font-size="10.00" fill="#000000"> IndexType &gt;::parameters_type</text>
</a>
</g>
</g>
<!-- Node0&#45;&gt;Node5 -->
<g id="edge5" class="edge">
<title>Node0&#45;&gt;Node5</title>
<path fill="none" stroke="#191970" d="M71.5127,-818.7892C75.8668,-932.4604 96.606,-1326.6029 177,-1417 181.9288,-1422.542 187.8197,-1427.0846 194.2519,-1430.8048"/>
<polygon fill="#191970" stroke="#191970" points="75.0063,-818.5485 71.141,-808.6839 68.011,-818.8059 75.0063,-818.5485"/>
</g>
<!-- Node6 -->
<g id="node7" class="node">
<title>Node6</title>
<g id="a_node7"><a xlink:href="structgko_1_1factorization_1_1ParIlut_1_1parameters__type.html" target="_top" xlink:title=" ">
<polygon fill="#ffffff" stroke="#000000" points="194.5,-1366.5 194.5,-1407.5 364.5,-1407.5 364.5,-1366.5 194.5,-1366.5"/>
<text text-anchor="start" x="202.5" y="-1395.5" font-family="Helvetica,sans-Serif" font-size="10.00" fill="#000000">gko::factorization</text>
<text text-anchor="start" x="202.5" y="-1384.5" font-family="Helvetica,sans-Serif" font-size="10.00" fill="#000000">::ParIlut&lt; ValueType,</text>
<text text-anchor="middle" x="279.5" y="-1373.5" font-family="Helvetica,sans-Serif" font-size="10.00" fill="#000000"> IndexType &gt;::parameters_type</text>
</a>
</g>
</g>
<!-- Node0&#45;&gt;Node6 -->
<g id="edge6" class="edge">
<title>Node0&#45;&gt;Node6</title>
<path fill="none" stroke="#191970" d="M72.105,-818.6057C78.2881,-924.9479 103.9806,-1276.3118 177,-1357 181.9765,-1362.4992 187.9003,-1367.0123 194.3539,-1370.7132"/>
<polygon fill="#191970" stroke="#191970" points="75.5947,-818.3236 71.5358,-808.5371 68.6059,-818.7187 75.5947,-818.3236"/>
</g>
<!-- Node7 -->
<g id="node8" class="node">
<title>Node7</title>
<g id="a_node8"><a xlink:href="structgko_1_1multigrid_1_1AmgxPgm_1_1parameters__type.html" target="_top" xlink:title=" ">
<polygon fill="#ffffff" stroke="#000000" points="209,-1306.5 209,-1347.5 350,-1347.5 350,-1306.5 209,-1306.5"/>
<text text-anchor="start" x="217" y="-1335.5" font-family="Helvetica,sans-Serif" font-size="10.00" fill="#000000">gko::multigrid::AmgxPgm</text>
<text text-anchor="start" x="217" y="-1324.5" font-family="Helvetica,sans-Serif" font-size="10.00" fill="#000000">&lt; ValueType, IndexType</text>
<text text-anchor="middle" x="279.5" y="-1313.5" font-family="Helvetica,sans-Serif" font-size="10.00" fill="#000000"> &gt;::parameters_type</text>
</a>
</g>
</g>
<!-- Node0&#45;&gt;Node7 -->
<g id="edge7" class="edge">
<title>Node0&#45;&gt;Node7</title>
<path fill="none" stroke="#191970" d="M72.8665,-818.908C81.0678,-918.1016 111.4311,-1226.0728 177,-1297 185.6218,-1306.3264 196.9684,-1312.8096 208.9643,-1317.3035"/>
<polygon fill="#191970" stroke="#191970" points="76.3322,-818.3412 72.0369,-808.6561 69.355,-818.9059 76.3322,-818.3412"/>
</g>
<!-- Node8 -->
<g id="node9" class="node">
<title>Node8</title>
<g id="a_node9"><a xlink:href="structgko_1_1preconditioner_1_1Ic_1_1parameters__type.html" target="_top" xlink:title=" ">
<polygon fill="#ffffff" stroke="#000000" points="201.5,-1246.5 201.5,-1287.5 357.5,-1287.5 357.5,-1246.5 201.5,-1246.5"/>
<text text-anchor="start" x="209.5" y="-1275.5" font-family="Helvetica,sans-Serif" font-size="10.00" fill="#000000">gko::preconditioner</text>
<text text-anchor="start" x="209.5" y="-1264.5" font-family="Helvetica,sans-Serif" font-size="10.00" fill="#000000">::Ic&lt; LSolverType, IndexType</text>
<text text-anchor="middle" x="279.5" y="-1253.5" font-family="Helvetica,sans-Serif" font-size="10.00" fill="#000000"> &gt;::parameters_type</text>
</a>
</g>
</g>
<!-- Node0&#45;&gt;Node8 -->
<g id="edge8" class="edge">
<title>Node0&#45;&gt;Node8</title>
<path fill="none" stroke="#191970" d="M73.7649,-818.569C84.0663,-909.4716 118.6991,-1175.5956 177,-1237 183.8302,-1244.1938 192.2822,-1249.691 201.3799,-1253.8867"/>
<polygon fill="#191970" stroke="#191970" points="77.2421,-818.1698 72.6557,-808.6191 70.2852,-818.9454 77.2421,-818.1698"/>
</g>
<!-- Node9 -->
<g id="node10" class="node">
<title>Node9</title>
<g id="a_node10"><a xlink:href="structgko_1_1preconditioner_1_1Ilu_1_1parameters__type.html" target="_top" xlink:title=" ">
<polygon fill="#ffffff" stroke="#000000" points="194.5,-1175 194.5,-1227 364.5,-1227 364.5,-1175 194.5,-1175"/>
<text text-anchor="start" x="202.5" y="-1215" font-family="Helvetica,sans-Serif" font-size="10.00" fill="#000000">gko::preconditioner</text>
<text text-anchor="start" x="202.5" y="-1204" font-family="Helvetica,sans-Serif" font-size="10.00" fill="#000000">::Ilu&lt; LSolverType,</text>
<text text-anchor="start" x="202.5" y="-1193" font-family="Helvetica,sans-Serif" font-size="10.00" fill="#000000"> USolverType, ReverseApply,</text>
<text text-anchor="middle" x="279.5" y="-1182" font-family="Helvetica,sans-Serif" font-size="10.00" fill="#000000"> IndexType &gt;::parameters_type</text>
</a>
</g>
</g>
<!-- Node0&#45;&gt;Node9 -->
<g id="edge9" class="edge">
<title>Node0&#45;&gt;Node9</title>
<path fill="none" stroke="#191970" d="M75.4695,-818.8377C89.0255,-899.4516 128.8679,-1113.7646 177,-1165 182.0364,-1170.3611 187.9171,-1174.9242 194.2681,-1178.8081"/>
<polygon fill="#191970" stroke="#191970" points="78.896,-818.106 73.8042,-808.8149 71.9907,-819.2534 78.896,-818.106"/>
</g>
<!-- Node10 -->
<g id="node11" class="node">
<title>Node10</title>
<g id="a_node11"><a xlink:href="structgko_1_1preconditioner_1_1Isai_1_1parameters__type.html" target="_top" xlink:title=" ">
<polygon fill="#ffffff" stroke="#000000" points="194.5,-1114.5 194.5,-1155.5 364.5,-1155.5 364.5,-1114.5 194.5,-1114.5"/>
<text text-anchor="start" x="202.5" y="-1143.5" font-family="Helvetica,sans-Serif" font-size="10.00" fill="#000000">gko::preconditioner</text>
<text text-anchor="start" x="202.5" y="-1132.5" font-family="Helvetica,sans-Serif" font-size="10.00" fill="#000000">::Isai&lt; IsaiType, ValueType,</text>
<text text-anchor="middle" x="279.5" y="-1121.5" font-family="Helvetica,sans-Serif" font-size="10.00" fill="#000000"> IndexType &gt;::parameters_type</text>
</a>
</g>
</g>
<!-- Node0&#45;&gt;Node10 -->
<g id="edge10" class="edge">
<title>Node0&#45;&gt;Node10</title>
<path fill="none" stroke="#191970" d="M77.0452,-818.8076C92.8062,-890.2715 134.7022,-1064.3361 177,-1105 182.0793,-1109.8831 187.9091,-1113.9775 194.1548,-1117.4098"/>
<polygon fill="#191970" stroke="#191970" points="80.3793,-817.6691 74.8281,-808.645 73.5401,-819.1612 80.3793,-817.6691"/>
</g>
<!-- Node11 -->
<g id="node12" class="node">
<title>Node11</title>
<g id="a_node12"><a xlink:href="structgko_1_1preconditioner_1_1Jacobi_1_1parameters__type.html" target="_top" xlink:title=" ">
<polygon fill="#ffffff" stroke="#000000" points="194.5,-1054.5 194.5,-1095.5 364.5,-1095.5 364.5,-1054.5 194.5,-1054.5"/>
<text text-anchor="start" x="202.5" y="-1083.5" font-family="Helvetica,sans-Serif" font-size="10.00" fill="#000000">gko::preconditioner</text>
<text text-anchor="start" x="202.5" y="-1072.5" font-family="Helvetica,sans-Serif" font-size="10.00" fill="#000000">::Jacobi&lt; ValueType,</text>
<text text-anchor="middle" x="279.5" y="-1061.5" font-family="Helvetica,sans-Serif" font-size="10.00" fill="#000000"> IndexType &gt;::parameters_type</text>
</a>
</g>
</g>
<!-- Node0&#45;&gt;Node11 -->
<g id="edge11" class="edge">
<title>Node0&#45;&gt;Node11</title>
<path fill="none" stroke="#191970" d="M74.5533,-818.7487C83.2873,-872.5682 108.9255,-983.915 177,-1045 182.1061,-1049.5818 187.8774,-1053.4659 194.0149,-1056.7582"/>
<polygon fill="#191970" stroke="#191970" points="78.0005,-818.1372 73.0243,-808.7837 71.0815,-819.1989 78.0005,-818.1372"/>
</g>
<!-- Node12 -->
<g id="node13" class="node">
<title>Node12</title>
<g id="a_node13"><a xlink:href="structgko_1_1reorder_1_1Rcm_1_1parameters__type.html" target="_top" xlink:title=" ">
<polygon fill="#ffffff" stroke="#000000" points="217,-994.5 217,-1035.5 342,-1035.5 342,-994.5 217,-994.5"/>
<text text-anchor="start" x="225" y="-1023.5" font-family="Helvetica,sans-Serif" font-size="10.00" fill="#000000">gko::reorder::Rcm&lt;</text>
<text text-anchor="start" x="225" y="-1012.5" font-family="Helvetica,sans-Serif" font-size="10.00" fill="#000000"> ValueType, IndexType</text>
<text text-anchor="middle" x="279.5" y="-1001.5" font-family="Helvetica,sans-Serif" font-size="10.00" fill="#000000"> &gt;::parameters_type</text>
</a>
</g>
</g>
<!-- Node0&#45;&gt;Node12 -->
<g id="edge12" class="edge">
<title>Node0&#45;&gt;Node12</title>
<path fill="none" stroke="#191970" d="M78.7863,-818.4325C92.1724,-861.8316 122.7021,-941.0949 177,-985 188.4623,-994.2684 202.6904,-1000.6734 216.8612,-1005.0996"/>
<polygon fill="#191970" stroke="#191970" points="82.1033,-817.3075 75.894,-808.7229 75.3946,-819.306 82.1033,-817.3075"/>
</g>
<!-- Node13 -->
<g id="node14" class="node">
<title>Node13</title>
<g id="a_node14"><a xlink:href="structgko_1_1solver_1_1Bicg_1_1parameters__type.html" target="_top" xlink:title=" ">
<polygon fill="#ffffff" stroke="#000000" points="194.5,-945 194.5,-975 364.5,-975 364.5,-945 194.5,-945"/>
<text text-anchor="start" x="202.5" y="-963" font-family="Helvetica,sans-Serif" font-size="10.00" fill="#000000">gko::solver::Bicg&lt;</text>
<text text-anchor="middle" x="279.5" y="-952" font-family="Helvetica,sans-Serif" font-size="10.00" fill="#000000"> ValueType &gt;::parameters_type</text>
</a>
</g>
</g>
<!-- Node0&#45;&gt;Node13 -->
<g id="edge13" class="edge">
<title>Node0&#45;&gt;Node13</title>
<path fill="none" stroke="#191970" d="M83.9438,-818.0224C100.7524,-852.0144 132.7859,-906.4908 177,-936 182.3966,-939.6018 188.2675,-942.6661 194.3775,-945.2729"/>
<polygon fill="#191970" stroke="#191970" points="86.9009,-816.0952 79.4142,-808.5986 80.5919,-819.1278 86.9009,-816.0952"/>
</g>
<!-- Node14 -->
<g id="node15" class="node">
<title>Node14</title>
<g id="a_node15"><a xlink:href="structgko_1_1solver_1_1Bicgstab_1_1parameters__type.html" target="_top" xlink:title=" ">
<polygon fill="#ffffff" stroke="#000000" points="190.5,-896 190.5,-926 368.5,-926 368.5,-896 190.5,-896"/>
<text text-anchor="start" x="198.5" y="-914" font-family="Helvetica,sans-Serif" font-size="10.00" fill="#000000">gko::solver::Bicgstab</text>
<text text-anchor="middle" x="279.5" y="-903" font-family="Helvetica,sans-Serif" font-size="10.00" fill="#000000">&lt; ValueType &gt;::parameters_type</text>
</a>
</g>
</g>
<!-- Node0&#45;&gt;Node14 -->
<g id="edge14" class="edge">
<title>Node0&#45;&gt;Node14</title>
<path fill="none" stroke="#191970" d="M93.5673,-816.39C113.3797,-838.8885 143.9155,-869.3761 177,-887 183.4522,-890.4371 190.3906,-893.386 197.5056,-895.9154"/>
<polygon fill="#191970" stroke="#191970" points="96.2019,-814.0857 87.02,-808.7994 90.9012,-818.6577 96.2019,-814.0857"/>
</g>
<!-- Node15 -->
<g id="node16" class="node">
<title>Node15</title>
<g id="a_node16"><a xlink:href="structgko_1_1solver_1_1CbGmres_1_1parameters__type.html" target="_top" xlink:title=" ">
<polygon fill="#ffffff" stroke="#000000" points="190.5,-847 190.5,-877 368.5,-877 368.5,-847 190.5,-847"/>
<text text-anchor="start" x="198.5" y="-865" font-family="Helvetica,sans-Serif" font-size="10.00" fill="#000000">gko::solver::CbGmres</text>
<text text-anchor="middle" x="279.5" y="-854" font-family="Helvetica,sans-Serif" font-size="10.00" fill="#000000">&lt; ValueType &gt;::parameters_type</text>
</a>
</g>
</g>
<!-- Node0&#45;&gt;Node15 -->
<g id="edge15" class="edge">
<title>Node0&#45;&gt;Node15</title>
<path fill="none" stroke="#191970" d="M118.287,-813.0392C136.3387,-821.7996 157.284,-831.1481 177,-838 186.495,-841.2998 196.6413,-844.2895 206.7208,-846.95"/>
<polygon fill="#191970" stroke="#191970" points="119.6498,-809.809 109.1327,-808.5281 116.5556,-816.088 119.6498,-809.809"/>
</g>
<!-- Node16 -->
<g id="node17" class="node">
<title>Node16</title>
<g id="a_node17"><a xlink:href="structgko_1_1solver_1_1Cg_1_1parameters__type.html" target="_top" xlink:title=" ">
<polygon fill="#ffffff" stroke="#000000" points="204.5,-798 204.5,-828 354.5,-828 354.5,-798 204.5,-798"/>
<text text-anchor="start" x="212.5" y="-816" font-family="Helvetica,sans-Serif" font-size="10.00" fill="#000000">gko::solver::Cg&lt; ValueType</text>
<text text-anchor="middle" x="279.5" y="-805" font-family="Helvetica,sans-Serif" font-size="10.00" fill="#000000"> &gt;::parameters_type</text>
</a>
</g>
</g>
<!-- Node0&#45;&gt;Node16 -->
<g id="edge16" class="edge">
<title>Node0&#45;&gt;Node16</title>
<path fill="none" stroke="#191970" d="M151.3622,-797.6725C168.7303,-799.75 187.0178,-801.9375 204.1662,-803.9888"/>
<polygon fill="#191970" stroke="#191970" points="151.6028,-794.1764 141.2579,-796.4639 150.7714,-801.1269 151.6028,-794.1764"/>
</g>
<!-- Node17 -->
<g id="node18" class="node">
<title>Node17</title>
<g id="a_node18"><a xlink:href="structgko_1_1solver_1_1Cgs_1_1parameters__type.html" target="_top" xlink:title=" ">
<polygon fill="#ffffff" stroke="#000000" points="202,-749 202,-779 357,-779 357,-749 202,-749"/>
<text text-anchor="start" x="210" y="-767" font-family="Helvetica,sans-Serif" font-size="10.00" fill="#000000">gko::solver::Cgs&lt; ValueType</text>
<text text-anchor="middle" x="279.5" y="-756" font-family="Helvetica,sans-Serif" font-size="10.00" fill="#000000"> &gt;::parameters_type</text>
</a>
</g>
</g>
<!-- Node0&#45;&gt;Node17 -->
<g id="edge17" class="edge">
<title>Node0&#45;&gt;Node17</title>
<path fill="none" stroke="#191970" d="M151.4106,-778.7088C167.9137,-776.8137 185.245,-774.8235 201.639,-772.941"/>
<polygon fill="#191970" stroke="#191970" points="150.7933,-775.2566 141.2579,-779.8747 151.5919,-782.2109 150.7933,-775.2566"/>
</g>
<!-- Node18 -->
<g id="node19" class="node">
<title>Node18</title>
<g id="a_node19"><a xlink:href="structgko_1_1solver_1_1Fcg_1_1parameters__type.html" target="_top" xlink:title=" ">
<polygon fill="#ffffff" stroke="#000000" points="202.5,-700 202.5,-730 356.5,-730 356.5,-700 202.5,-700"/>
<text text-anchor="start" x="210.5" y="-718" font-family="Helvetica,sans-Serif" font-size="10.00" fill="#000000">gko::solver::Fcg&lt; ValueType</text>
<text text-anchor="middle" x="279.5" y="-707" font-family="Helvetica,sans-Serif" font-size="10.00" fill="#000000"> &gt;::parameters_type</text>
</a>
</g>
</g>
<!-- Node0&#45;&gt;Node18 -->
<g id="edge18" class="edge">
<title>Node0&#45;&gt;Node18</title>
<path fill="none" stroke="#191970" d="M120.9447,-762.97C138.4172,-754.9197 158.3108,-746.4294 177,-740 187.6521,-736.3355 199.1018,-732.9888 210.351,-730.0188"/>
<polygon fill="#191970" stroke="#191970" points="119.0861,-759.9753 111.5098,-767.3813 122.0509,-766.3164 119.0861,-759.9753"/>
</g>
<!-- Node19 -->
<g id="node20" class="node">
<title>Node19</title>
<g id="a_node20"><a xlink:href="structgko_1_1solver_1_1Gmres_1_1parameters__type.html" target="_top" xlink:title=" ">
<polygon fill="#ffffff" stroke="#000000" points="190.5,-651 190.5,-681 368.5,-681 368.5,-651 190.5,-651"/>
<text text-anchor="start" x="198.5" y="-669" font-family="Helvetica,sans-Serif" font-size="10.00" fill="#000000">gko::solver::Gmres</text>
<text text-anchor="middle" x="279.5" y="-658" font-family="Helvetica,sans-Serif" font-size="10.00" fill="#000000">&lt; ValueType &gt;::parameters_type</text>
</a>
</g>
</g>
<!-- Node0&#45;&gt;Node19 -->
<g id="edge19" class="edge">
<title>Node0&#45;&gt;Node19</title>
<path fill="none" stroke="#191970" d="M94.3484,-759.5907C114.2658,-737.6705 144.5552,-708.2636 177,-691 184.2766,-687.1282 192.1622,-683.8451 200.2178,-681.0633"/>
<polygon fill="#191970" stroke="#191970" points="91.5285,-757.4945 87.4948,-767.2914 96.7576,-762.1482 91.5285,-757.4945"/>
</g>
<!-- Node20 -->
<g id="node21" class="node">
<title>Node20</title>
<g id="a_node21"><a xlink:href="structgko_1_1solver_1_1Idr_1_1parameters__type.html" target="_top" xlink:title=" ">
<polygon fill="#ffffff" stroke="#000000" points="204.5,-602 204.5,-632 354.5,-632 354.5,-602 204.5,-602"/>
<text text-anchor="start" x="212.5" y="-620" font-family="Helvetica,sans-Serif" font-size="10.00" fill="#000000">gko::solver::Idr&lt; ValueType</text>
<text text-anchor="middle" x="279.5" y="-609" font-family="Helvetica,sans-Serif" font-size="10.00" fill="#000000"> &gt;::parameters_type</text>
</a>
</g>
</g>
<!-- Node0&#45;&gt;Node20 -->
<g id="edge20" class="edge">
<title>Node0&#45;&gt;Node20</title>
<path fill="none" stroke="#191970" d="M84.2358,-758.1808C101.2249,-724.6956 133.3378,-671.2282 177,-642 185.2955,-636.4468 194.7045,-632.125 204.3769,-628.762"/>
<polygon fill="#191970" stroke="#191970" points="80.9382,-756.9541 79.6502,-767.4704 87.2151,-760.0526 80.9382,-756.9541"/>
</g>
<!-- Node21 -->
<g id="node22" class="node">
<title>Node21</title>
<g id="a_node22"><a xlink:href="structgko_1_1solver_1_1Ir_1_1parameters__type.html" target="_top" xlink:title=" ">
<polygon fill="#ffffff" stroke="#000000" points="207.5,-553 207.5,-583 351.5,-583 351.5,-553 207.5,-553"/>
<text text-anchor="start" x="215.5" y="-571" font-family="Helvetica,sans-Serif" font-size="10.00" fill="#000000">gko::solver::Ir&lt; ValueType</text>
<text text-anchor="middle" x="279.5" y="-560" font-family="Helvetica,sans-Serif" font-size="10.00" fill="#000000"> &gt;::parameters_type</text>
</a>
</g>
</g>
<!-- Node0&#45;&gt;Node21 -->
<g id="edge21" class="edge">
<title>Node0&#45;&gt;Node21</title>
<path fill="none" stroke="#191970" d="M78.6149,-757.5417C91.7897,-714.1701 122.0607,-635.2064 177,-593 185.9331,-586.1373 196.4896,-581.1291 207.374,-577.4804"/>
<polygon fill="#191970" stroke="#191970" points="75.2237,-756.6687 75.7721,-767.2493 81.9415,-758.636 75.2237,-756.6687"/>
</g>
<!-- Node22 -->
<g id="node23" class="node">
<title>Node22</title>
<g id="a_node23"><a xlink:href="structgko_1_1solver_1_1LowerTrs_1_1parameters__type.html" target="_top" xlink:title=" ">
<polygon fill="#ffffff" stroke="#000000" points="213,-492.5 213,-533.5 346,-533.5 346,-492.5 213,-492.5"/>
<text text-anchor="start" x="221" y="-521.5" font-family="Helvetica,sans-Serif" font-size="10.00" fill="#000000">gko::solver::LowerTrs</text>
<text text-anchor="start" x="221" y="-510.5" font-family="Helvetica,sans-Serif" font-size="10.00" fill="#000000">&lt; ValueType, IndexType</text>
<text text-anchor="middle" x="279.5" y="-499.5" font-family="Helvetica,sans-Serif" font-size="10.00" fill="#000000"> &gt;::parameters_type</text>
</a>
</g>
</g>
<!-- Node0&#45;&gt;Node22 -->
<g id="edge22" class="edge">
<title>Node0&#45;&gt;Node22</title>
<path fill="none" stroke="#191970" d="M75.3678,-757.3676C85.1777,-705.7837 112.1904,-601.5885 177,-544 187.1451,-534.9853 199.839,-528.5911 212.8031,-524.0558"/>
<polygon fill="#191970" stroke="#191970" points="71.9167,-756.7838 73.5785,-767.2474 78.8046,-758.0313 71.9167,-756.7838"/>
</g>
<!-- Node23 -->
<g id="node24" class="node">
<title>Node23</title>
<g id="a_node24"><a xlink:href="structgko_1_1solver_1_1Multigrid_1_1parameters__type.html" target="_top" xlink:title=" ">
<polygon fill="#ffffff" stroke="#000000" points="220,-443 220,-473 339,-473 339,-443 220,-443"/>
<text text-anchor="start" x="228" y="-461" font-family="Helvetica,sans-Serif" font-size="10.00" fill="#000000">gko::solver::Multigrid</text>
<text text-anchor="middle" x="279.5" y="-450" font-family="Helvetica,sans-Serif" font-size="10.00" fill="#000000">::parameters_type</text>
</a>
</g>
</g>
<!-- Node0&#45;&gt;Node23 -->
<g id="edge23" class="edge">
<title>Node0&#45;&gt;Node23</title>
<path fill="none" stroke="#191970" d="M71.945,-757.0831C76.5587,-695.3877 95.9023,-556.6108 177,-483 188.7997,-472.2897 204.4174,-465.9717 219.8952,-462.2976"/>
<polygon fill="#191970" stroke="#191970" points="68.4348,-757.1212 71.2631,-767.3316 75.4194,-757.586 68.4348,-757.1212"/>
</g>
<!-- Node24 -->
<g id="node25" class="node">
<title>Node24</title>
<g id="a_node25"><a xlink:href="structgko_1_1solver_1_1UpperTrs_1_1parameters__type.html" target="_top" xlink:title=" ">
<polygon fill="#ffffff" stroke="#000000" points="213,-382.5 213,-423.5 346,-423.5 346,-382.5 213,-382.5"/>
<text text-anchor="start" x="221" y="-411.5" font-family="Helvetica,sans-Serif" font-size="10.00" fill="#000000">gko::solver::UpperTrs</text>
<text text-anchor="start" x="221" y="-400.5" font-family="Helvetica,sans-Serif" font-size="10.00" fill="#000000">&lt; ValueType, IndexType</text>
<text text-anchor="middle" x="279.5" y="-389.5" font-family="Helvetica,sans-Serif" font-size="10.00" fill="#000000"> &gt;::parameters_type</text>
</a>
</g>
</g>
<!-- Node0&#45;&gt;Node24 -->
<g id="edge24" class="edge">
<title>Node0&#45;&gt;Node24</title>
<path fill="none" stroke="#191970" d="M75.8909,-757.3779C90.0521,-680.214 130.4402,-480.6277 177,-434 186.7866,-424.1991 199.5578,-417.4773 212.7477,-412.8724"/>
<polygon fill="#191970" stroke="#191970" points="72.4096,-756.9608 74.0689,-767.4249 79.2972,-758.21 72.4096,-756.9608"/>
</g>
<!-- Node25 -->
<g id="node26" class="node">
<title>Node25</title>
<g id="a_node26"><a xlink:href="structgko_1_1stop_1_1AbsoluteResidualNorm_1_1parameters__type.html" target="_top" xlink:title=" ">
<polygon fill="#ffffff" stroke="#000000" points="177,-333 177,-363 382,-363 382,-333 177,-333"/>
<text text-anchor="start" x="185" y="-351" font-family="Helvetica,sans-Serif" font-size="10.00" fill="#000000">gko::stop::AbsoluteResidual</text>
<text text-anchor="middle" x="279.5" y="-340" font-family="Helvetica,sans-Serif" font-size="10.00" fill="#000000">Norm&lt; ValueType &gt;::parameters_type</text>
</a>
</g>
</g>
<!-- Node0&#45;&gt;Node25 -->
<g id="edge25" class="edge">
<title>Node0&#45;&gt;Node25</title>
<path fill="none" stroke="#191970" d="M74.2771,-757.3322C85.5372,-670.852 121.5728,-427.7674 177,-373 180.9088,-369.1378 185.309,-365.8374 190.032,-363.0203"/>
<polygon fill="#191970" stroke="#191970" points="70.798,-756.947 72.9979,-767.3109 77.7411,-757.8372 70.798,-756.947"/>
</g>
<!-- Node26 -->
<g id="node27" class="node">
<title>Node26</title>
<g id="a_node27"><a xlink:href="structgko_1_1stop_1_1Combined_1_1parameters__type.html" target="_top" xlink:title=" ">
<polygon fill="#ffffff" stroke="#000000" points="221,-284 221,-314 338,-314 338,-284 221,-284"/>
<text text-anchor="start" x="229" y="-302" font-family="Helvetica,sans-Serif" font-size="10.00" fill="#000000">gko::stop::Combined</text>
<text text-anchor="middle" x="279.5" y="-291" font-family="Helvetica,sans-Serif" font-size="10.00" fill="#000000">::parameters_type</text>
</a>
</g>
</g>
<!-- Node0&#45;&gt;Node26 -->
<g id="edge26" class="edge">
<title>Node0&#45;&gt;Node26</title>
<path fill="none" stroke="#191970" d="M73.3907,-757.2529C82.7823,-663.9135 115.4444,-386.3994 177,-324 188.6414,-312.199 204.8618,-305.6173 220.9687,-302.0396"/>
<polygon fill="#191970" stroke="#191970" points="69.8836,-757.1535 72.3842,-767.449 76.8497,-757.8412 69.8836,-757.1535"/>
</g>
<!-- Node27 -->
<g id="node28" class="node">
<title>Node27</title>
<g id="a_node28"><a xlink:href="structgko_1_1stop_1_1ImplicitResidualNorm_1_1parameters__type.html" target="_top" xlink:title=" ">
<polygon fill="#ffffff" stroke="#000000" points="177,-235 177,-265 382,-265 382,-235 177,-235"/>
<text text-anchor="start" x="185" y="-253" font-family="Helvetica,sans-Serif" font-size="10.00" fill="#000000">gko::stop::ImplicitResidual</text>
<text text-anchor="middle" x="279.5" y="-242" font-family="Helvetica,sans-Serif" font-size="10.00" fill="#000000">Norm&lt; ValueType &gt;::parameters_type</text>
</a>
</g>
</g>
<!-- Node0&#45;&gt;Node27 -->
<g id="edge27" class="edge">
<title>Node0&#45;&gt;Node27</title>
<path fill="none" stroke="#191970" d="M72.6519,-757.37C80.2717,-657.7204 109.2389,-345.1428 177,-275 180.6906,-271.1796 184.8605,-267.904 189.3536,-265.0987"/>
<polygon fill="#191970" stroke="#191970" points="69.1579,-757.1597 71.9031,-767.3927 76.1385,-757.6813 69.1579,-757.1597"/>
</g>
<!-- Node28 -->
<g id="node29" class="node">
<title>Node28</title>
<g id="a_node29"><a xlink:href="structgko_1_1stop_1_1Iteration_1_1parameters__type.html" target="_top" xlink:title=" ">
<polygon fill="#ffffff" stroke="#000000" points="225,-186 225,-216 334,-216 334,-186 225,-186"/>
<text text-anchor="start" x="233" y="-204" font-family="Helvetica,sans-Serif" font-size="10.00" fill="#000000">gko::stop::Iteration</text>
<text text-anchor="middle" x="279.5" y="-193" font-family="Helvetica,sans-Serif" font-size="10.00" fill="#000000">::parameters_type</text>
</a>
</g>
</g>
<!-- Node0&#45;&gt;Node28 -->
<g id="edge28" class="edge">
<title>Node0&#45;&gt;Node28</title>
<path fill="none" stroke="#191970" d="M72.0527,-757.2951C78.0312,-651.4326 103.0481,-303.8971 177,-226 189.422,-212.9153 207.4595,-206.1986 224.9521,-202.8866"/>
<polygon fill="#191970" stroke="#191970" points="68.5555,-757.1497 71.5029,-767.3263 75.545,-757.5328 68.5555,-757.1497"/>
</g>
<!-- Node29 -->
<g id="node30" class="node">
<title>Node29</title>
<g id="a_node30"><a xlink:href="structgko_1_1stop_1_1RelativeResidualNorm_1_1parameters__type.html" target="_top" xlink:title=" ">
<polygon fill="#ffffff" stroke="#000000" points="177,-137 177,-167 382,-167 382,-137 177,-137"/>
<text text-anchor="start" x="185" y="-155" font-family="Helvetica,sans-Serif" font-size="10.00" fill="#000000">gko::stop::RelativeResidual</text>
<text text-anchor="middle" x="279.5" y="-144" font-family="Helvetica,sans-Serif" font-size="10.00" fill="#000000">Norm&lt; ValueType &gt;::parameters_type</text>
</a>
</g>
</g>
<!-- Node0&#45;&gt;Node29 -->
<g id="edge29" class="edge">
<title>Node0&#45;&gt;Node29</title>
<path fill="none" stroke="#191970" d="M71.5585,-756.8874C76.0156,-644.6361 96.9133,-262.6115 177,-177 180.5037,-173.2546 184.4671,-170.0295 188.7478,-167.2556"/>
<polygon fill="#191970" stroke="#191970" points="68.0496,-757.0569 71.1664,-767.1829 75.0446,-757.3234 68.0496,-757.0569"/>
</g>
<!-- Node30 -->
<g id="node31" class="node">
<title>Node30</title>
<g id="a_node31"><a xlink:href="structgko_1_1stop_1_1ResidualNorm_1_1parameters__type.html" target="_top" xlink:title=" ">
<polygon fill="#ffffff" stroke="#000000" points="190.5,-88 190.5,-118 368.5,-118 368.5,-88 190.5,-88"/>
<text text-anchor="start" x="198.5" y="-106" font-family="Helvetica,sans-Serif" font-size="10.00" fill="#000000">gko::stop::ResidualNorm</text>
<text text-anchor="middle" x="279.5" y="-95" font-family="Helvetica,sans-Serif" font-size="10.00" fill="#000000">&lt; ValueType &gt;::parameters_type</text>
</a>
</g>
</g>
<!-- Node0&#45;&gt;Node30 -->
<g id="edge30" class="edge">
<title>Node0&#45;&gt;Node30</title>
<path fill="none" stroke="#191970" d="M71.1104,-757.1222C74.072,-639.5171 90.6053,-221.5276 177,-128 180.8529,-123.829 185.2757,-120.3016 190.0739,-117.323"/>
<polygon fill="#191970" stroke="#191970" points="67.6086,-757.1593 70.871,-767.2393 74.6067,-757.325 67.6086,-757.1593"/>
</g>
<!-- Node31 -->
<g id="node32" class="node">
<title>Node31</title>
<g id="a_node32"><a xlink:href="structgko_1_1stop_1_1ResidualNormReduction_1_1parameters__type.html" target="_top" xlink:title=" ">
<polygon fill="#ffffff" stroke="#000000" points="187.5,-39 187.5,-69 371.5,-69 371.5,-39 187.5,-39"/>
<text text-anchor="start" x="195.5" y="-57" font-family="Helvetica,sans-Serif" font-size="10.00" fill="#000000">gko::stop::ResidualNormReduction</text>
<text text-anchor="middle" x="279.5" y="-46" font-family="Helvetica,sans-Serif" font-size="10.00" fill="#000000">&lt; ValueType &gt;::parameters_type</text>
</a>
</g>
</g>
<!-- Node0&#45;&gt;Node31 -->
<g id="edge31" class="edge">
<title>Node0&#45;&gt;Node31</title>
<path fill="none" stroke="#191970" d="M73.0954,-757.3717C84.3284,-627.9381 130.2984,-130.1129 177,-79 180.4595,-75.2138 184.3884,-71.9567 188.6427,-69.1583"/>
<polygon fill="#191970" stroke="#191970" points="69.6031,-757.1326 72.2311,-767.3963 76.5772,-757.7339 69.6031,-757.1326"/>
</g>
<!-- Node32 -->
<g id="node33" class="node">
<title>Node32</title>
<g id="a_node33"><a xlink:href="structgko_1_1stop_1_1Time_1_1parameters__type.html" target="_top" xlink:title=" ">
<polygon fill="#ffffff" stroke="#000000" points="188.5,-.5 188.5,-19.5 370.5,-19.5 370.5,-.5 188.5,-.5"/>
<text text-anchor="middle" x="279.5" y="-7.5" font-family="Helvetica,sans-Serif" font-size="10.00" fill="#000000">gko::stop::Time::parameters_type</text>
</a>
</g>
</g>
<!-- Node0&#45;&gt;Node32 -->
<g id="edge32" class="edge">
<title>Node0&#45;&gt;Node32</title>
<path fill="none" stroke="#191970" d="M72.7173,-757.4057C82.7781,-622.3609 125.8646,-83.9262 177,-30 180.8674,-25.9216 185.3012,-22.5376 190.1074,-19.7397"/>
<polygon fill="#191970" stroke="#191970" points="69.2199,-757.2412 71.973,-767.4721 76.2009,-757.7574 69.2199,-757.2412"/>
</g>
</g>
</svg>
