<?xml version="1.0" encoding="UTF-8" standalone="no"?>
<!DOCTYPE svg PUBLIC "-//W3C//DTD SVG 1.1//EN"
 "http://www.w3.org/Graphics/SVG/1.1/DTD/svg11.dtd">
<!-- Generated by graphviz version 2.40.1 (20161225.0304)
 -->
<!-- Title: Graphical Class Hierarchy Pages: 1 -->
<svg width="498pt" height="61pt"
 viewBox="0.00 0.00 498.00 61.00" xmlns="http://www.w3.org/2000/svg" xmlns:xlink="http://www.w3.org/1999/xlink">
<g id="graph0" class="graph" transform="scale(1 1) rotate(0) translate(4 57)">
<title>Graphical Class Hierarchy</title>
<polygon fill="#ffffff" stroke="transparent" points="-4,4 -4,-57 494,-57 494,4 -4,4"/>
<!-- Node492 -->
<g id="node1" class="node">
<title>Node492</title>
<g id="a_node1"><a xlink:title=" ">
<polygon fill="#ffffff" stroke="#bfbfbf" points="0,-.5 0,-52.5 157,-52.5 157,-.5 0,-.5"/>
<text text-anchor="start" x="8" y="-40.5" font-family="Helvetica,sans-Serif" font-size="10.00" fill="#000000">gko::detail::implement</text>
<text text-anchor="start" x="8" y="-29.5" font-family="Helvetica,sans-Serif" font-size="10.00" fill="#000000">_unary_operation&lt; Operand,</text>
<text text-anchor="start" x="8" y="-18.5" font-family="Helvetica,sans-Serif" font-size="10.00" fill="#000000"> ::gko::accessor::detail</text>
<text text-anchor="middle" x="78.5" y="-7.5" font-family="Helvetica,sans-Serif" font-size="10.00" fill="#000000">::imag_operation &gt;</text>
</a>
</g>
</g>
<!-- Node0 -->
<g id="node2" class="node">
<title>Node0</title>
<g id="a_node2"><a xlink:href="structgko_1_1accessor_1_1imag__operation.html" target="_top" xlink:title=" ">
<polygon fill="#ffffff" stroke="#000000" points="193,-11.5 193,-41.5 325,-41.5 325,-11.5 193,-11.5"/>
<text text-anchor="start" x="201" y="-29.5" font-family="Helvetica,sans-Serif" font-size="10.00" fill="#000000">gko::accessor::imag</text>
<text text-anchor="middle" x="259" y="-18.5" font-family="Helvetica,sans-Serif" font-size="10.00" fill="#000000">_operation&lt; Operand &gt;</text>
</a>
</g>
</g>
<!-- Node492&#45;&gt;Node0 -->
<g id="edge1" class="edge">
<title>Node492&#45;&gt;Node0</title>
<path fill="none" stroke="#191970" d="M167.2106,-26.5C175.8083,-26.5 184.4247,-26.5 192.7474,-26.5"/>
<polygon fill="#191970" stroke="#191970" points="167.1449,-23.0001 157.1449,-26.5 167.1448,-30.0001 167.1449,-23.0001"/>
</g>
<!-- Node1 -->
<g id="node3" class="node">
<title>Node1</title>
<g id="a_node3"><a xlink:href="structgko_1_1accessor_1_1imag__operaton.html" target="_top" xlink:title=" ">
<polygon fill="#ffffff" stroke="#000000" points="361,-11.5 361,-41.5 490,-41.5 490,-11.5 361,-11.5"/>
<text text-anchor="start" x="369" y="-29.5" font-family="Helvetica,sans-Serif" font-size="10.00" fill="#000000">gko::accessor::imag</text>
<text text-anchor="middle" x="425.5" y="-18.5" font-family="Helvetica,sans-Serif" font-size="10.00" fill="#000000">_operaton&lt; Operand &gt;</text>
</a>
</g>
</g>
<!-- Node0&#45;&gt;Node1 -->
<g id="edge2" class="edge">
<title>Node0&#45;&gt;Node1</title>
<path fill="none" stroke="#191970" d="M335.5219,-26.5C343.9726,-26.5 352.5164,-26.5 360.8018,-26.5"/>
<polygon fill="#191970" stroke="#191970" points="335.2837,-23.0001 325.2836,-26.5 335.2836,-30.0001 335.2837,-23.0001"/>
</g>
</g>
</svg>
