<?xml version="1.0" encoding="UTF-8" standalone="no"?>
<!DOCTYPE svg PUBLIC "-//W3C//DTD SVG 1.1//EN"
 "http://www.w3.org/Graphics/SVG/1.1/DTD/svg11.dtd">
<!-- Generated by graphviz version 2.40.1 (20161225.0304)
 -->
<!-- Title: Graphical Class Hierarchy Pages: 1 -->
<svg width="390pt" height="1776pt"
 viewBox="0.00 0.00 390.00 1776.00" xmlns="http://www.w3.org/2000/svg" xmlns:xlink="http://www.w3.org/1999/xlink">
<g id="graph0" class="graph" transform="scale(1 1) rotate(0) translate(4 1772)">
<title>Graphical Class Hierarchy</title>
<polygon fill="#ffffff" stroke="transparent" points="-4,4 -4,-1772 386,-1772 386,4 -4,4"/>
<!-- Node0 -->
<g id="node1" class="node">
<title>Node0</title>
<g id="a_node1"><a xlink:href="classgko_1_1enable__parameters__type.html" target="_top" xlink:title=" ">
<polygon fill="#ffffff" stroke="#000000" points="0,-792.5 0,-833.5 141,-833.5 141,-792.5 0,-792.5"/>
<text text-anchor="start" x="8" y="-821.5" font-family="Helvetica,sans-Serif" font-size="10.00" fill="#000000">gko::enable_parameters</text>
<text text-anchor="start" x="8" y="-810.5" font-family="Helvetica,sans-Serif" font-size="10.00" fill="#000000">_type&lt; parameters_type,</text>
<text text-anchor="middle" x="70.5" y="-799.5" font-family="Helvetica,sans-Serif" font-size="10.00" fill="#000000"> Factory &gt;</text>
</a>
</g>
</g>
<!-- Node1 -->
<g id="node2" class="node">
<title>Node1</title>
<g id="a_node2"><a xlink:href="structgko_1_1factorization_1_1Ic_1_1parameters__type.html" target="_top" xlink:title=" ">
<polygon fill="#ffffff" stroke="#000000" points="206,-1726.5 206,-1767.5 353,-1767.5 353,-1726.5 206,-1726.5"/>
<text text-anchor="start" x="214" y="-1755.5" font-family="Helvetica,sans-Serif" font-size="10.00" fill="#000000">gko::factorization</text>
<text text-anchor="start" x="214" y="-1744.5" font-family="Helvetica,sans-Serif" font-size="10.00" fill="#000000">::Ic&lt; ValueType, IndexType</text>
<text text-anchor="middle" x="279.5" y="-1733.5" font-family="Helvetica,sans-Serif" font-size="10.00" fill="#000000"> &gt;::parameters_type</text>
</a>
</g>
</g>
<!-- Node0&#45;&gt;Node1 -->
<g id="edge1" class="edge">
<title>Node0&#45;&gt;Node1</title>
<path fill="none" stroke="#191970" d="M72.1335,-843.8502C80.3749,-994.5368 119.2804,-1648.7043 177,-1717 184.6598,-1726.0634 194.896,-1732.4701 205.9416,-1736.9819"/>
<polygon fill="#191970" stroke="#191970" points="75.6087,-843.2963 71.5726,-833.5004 68.619,-843.6751 75.6087,-843.2963"/>
</g>
<!-- Node2 -->
<g id="node3" class="node">
<title>Node2</title>
<g id="a_node3"><a xlink:href="structgko_1_1factorization_1_1Ilu_1_1parameters__type.html" target="_top" xlink:title=" ">
<polygon fill="#ffffff" stroke="#000000" points="204,-1666.5 204,-1707.5 355,-1707.5 355,-1666.5 204,-1666.5"/>
<text text-anchor="start" x="212" y="-1695.5" font-family="Helvetica,sans-Serif" font-size="10.00" fill="#000000">gko::factorization</text>
<text text-anchor="start" x="212" y="-1684.5" font-family="Helvetica,sans-Serif" font-size="10.00" fill="#000000">::Ilu&lt; ValueType, IndexType</text>
<text text-anchor="middle" x="279.5" y="-1673.5" font-family="Helvetica,sans-Serif" font-size="10.00" fill="#000000"> &gt;::parameters_type</text>
</a>
</g>
</g>
<!-- Node0&#45;&gt;Node2 -->
<g id="edge2" class="edge">
<title>Node0&#45;&gt;Node2</title>
<path fill="none" stroke="#191970" d="M72.4198,-844.0889C81.6312,-988.9931 123.0818,-1593.7336 177,-1657 184.2161,-1665.4672 193.6801,-1671.6134 203.942,-1676.0613"/>
<polygon fill="#191970" stroke="#191970" points="75.8883,-843.4776 71.7658,-833.7177 68.9021,-843.9182 75.8883,-843.4776"/>
</g>
<!-- Node3 -->
<g id="node4" class="node">
<title>Node3</title>
<g id="a_node4"><a xlink:href="structgko_1_1factorization_1_1ParIc_1_1parameters__type.html" target="_top" xlink:title=" ">
<polygon fill="#ffffff" stroke="#000000" points="194.5,-1606.5 194.5,-1647.5 364.5,-1647.5 364.5,-1606.5 194.5,-1606.5"/>
<text text-anchor="start" x="202.5" y="-1635.5" font-family="Helvetica,sans-Serif" font-size="10.00" fill="#000000">gko::factorization</text>
<text text-anchor="start" x="202.5" y="-1624.5" font-family="Helvetica,sans-Serif" font-size="10.00" fill="#000000">::ParIc&lt; ValueType,</text>
<text text-anchor="middle" x="279.5" y="-1613.5" font-family="Helvetica,sans-Serif" font-size="10.00" fill="#000000"> IndexType &gt;::parameters_type</text>
</a>
</g>
</g>
<!-- Node0&#45;&gt;Node3 -->
<g id="edge3" class="edge">
<title>Node0&#45;&gt;Node3</title>
<path fill="none" stroke="#191970" d="M72.7332,-844.0737C82.9432,-982.4933 126.8424,-1538.709 177,-1597 181.8375,-1602.6219 187.6657,-1607.2194 194.0569,-1610.9753"/>
<polygon fill="#191970" stroke="#191970" points="76.1994,-843.4831 71.9783,-833.7654 69.2181,-843.9944 76.1994,-843.4831"/>
</g>
<!-- Node4 -->
<g id="node5" class="node">
<title>Node4</title>
<g id="a_node5"><a xlink:href="structgko_1_1factorization_1_1ParIct_1_1parameters__type.html" target="_top" xlink:title=" ">
<polygon fill="#ffffff" stroke="#000000" points="194.5,-1546.5 194.5,-1587.5 364.5,-1587.5 364.5,-1546.5 194.5,-1546.5"/>
<text text-anchor="start" x="202.5" y="-1575.5" font-family="Helvetica,sans-Serif" font-size="10.00" fill="#000000">gko::factorization</text>
<text text-anchor="start" x="202.5" y="-1564.5" font-family="Helvetica,sans-Serif" font-size="10.00" fill="#000000">::ParIct&lt; ValueType,</text>
<text text-anchor="middle" x="279.5" y="-1553.5" font-family="Helvetica,sans-Serif" font-size="10.00" fill="#000000"> IndexType &gt;::parameters_type</text>
</a>
</g>
</g>
<!-- Node0&#45;&gt;Node4 -->
<g id="edge4" class="edge">
<title>Node0&#45;&gt;Node4</title>
<path fill="none" stroke="#191970" d="M73.0746,-843.7876C84.3095,-975.0458 130.5614,-1483.6296 177,-1537 181.8684,-1542.5951 187.7179,-1547.1742 194.123,-1550.9181"/>
<polygon fill="#191970" stroke="#191970" points="76.5457,-843.2981 72.2109,-833.6307 69.5709,-843.8913 76.5457,-843.2981"/>
</g>
<!-- Node5 -->
<g id="node6" class="node">
<title>Node5</title>
<g id="a_node6"><a xlink:href="structgko_1_1factorization_1_1ParIlu_1_1parameters__type.html" target="_top" xlink:title=" ">
<polygon fill="#ffffff" stroke="#000000" points="194.5,-1486.5 194.5,-1527.5 364.5,-1527.5 364.5,-1486.5 194.5,-1486.5"/>
<text text-anchor="start" x="202.5" y="-1515.5" font-family="Helvetica,sans-Serif" font-size="10.00" fill="#000000">gko::factorization</text>
<text text-anchor="start" x="202.5" y="-1504.5" font-family="Helvetica,sans-Serif" font-size="10.00" fill="#000000">::ParIlu&lt; ValueType,</text>
<text text-anchor="middle" x="279.5" y="-1493.5" font-family="Helvetica,sans-Serif" font-size="10.00" fill="#000000"> IndexType &gt;::parameters_type</text>
</a>
</g>
</g>
<!-- Node0&#45;&gt;Node5 -->
<g id="edge5" class="edge">
<title>Node0&#45;&gt;Node5</title>
<path fill="none" stroke="#191970" d="M71.2145,-843.9436C74.5574,-961.8171 92.303,-1380.9272 177,-1477 181.9046,-1482.5634 187.779,-1487.1207 194.2004,-1490.8504"/>
<polygon fill="#191970" stroke="#191970" points="74.7095,-843.7061 70.9419,-833.8038 67.712,-843.8943 74.7095,-843.7061"/>
</g>
<!-- Node6 -->
<g id="node7" class="node">
<title>Node6</title>
<g id="a_node7"><a xlink:href="structgko_1_1factorization_1_1ParIlut_1_1parameters__type.html" target="_top" xlink:title=" ">
<polygon fill="#ffffff" stroke="#000000" points="194.5,-1426.5 194.5,-1467.5 364.5,-1467.5 364.5,-1426.5 194.5,-1426.5"/>
<text text-anchor="start" x="202.5" y="-1455.5" font-family="Helvetica,sans-Serif" font-size="10.00" fill="#000000">gko::factorization</text>
<text text-anchor="start" x="202.5" y="-1444.5" font-family="Helvetica,sans-Serif" font-size="10.00" fill="#000000">::ParIlut&lt; ValueType,</text>
<text text-anchor="middle" x="279.5" y="-1433.5" font-family="Helvetica,sans-Serif" font-size="10.00" fill="#000000"> IndexType &gt;::parameters_type</text>
</a>
</g>
</g>
<!-- Node0&#45;&gt;Node6 -->
<g id="edge6" class="edge">
<title>Node0&#45;&gt;Node6</title>
<path fill="none" stroke="#191970" d="M71.7599,-844.0096C76.8887,-955.0397 99.7512,-1330.7323 177,-1417 181.9476,-1422.5252 187.8515,-1427.0563 194.2921,-1430.7689"/>
<polygon fill="#191970" stroke="#191970" points="75.2476,-843.6527 71.3052,-833.8187 68.2545,-843.9648 75.2476,-843.6527"/>
</g>
<!-- Node7 -->
<g id="node8" class="node">
<title>Node7</title>
<g id="a_node8"><a xlink:href="structgko_1_1multigrid_1_1FixedCoarsening_1_1parameters__type.html" target="_top" xlink:title=" ">
<polygon fill="#ffffff" stroke="#000000" points="194,-1366.5 194,-1407.5 365,-1407.5 365,-1366.5 194,-1366.5"/>
<text text-anchor="start" x="202" y="-1395.5" font-family="Helvetica,sans-Serif" font-size="10.00" fill="#000000">gko::multigrid::FixedCoarsening</text>
<text text-anchor="start" x="202" y="-1384.5" font-family="Helvetica,sans-Serif" font-size="10.00" fill="#000000">&lt; ValueType, IndexType &gt;::</text>
<text text-anchor="middle" x="279.5" y="-1373.5" font-family="Helvetica,sans-Serif" font-size="10.00" fill="#000000">parameters_type</text>
</a>
</g>
</g>
<!-- Node0&#45;&gt;Node7 -->
<g id="edge7" class="edge">
<title>Node0&#45;&gt;Node7</title>
<path fill="none" stroke="#191970" d="M72.3933,-843.615C79.3851,-946.9046 107.0638,-1280.3603 177,-1357 181.8743,-1362.3415 187.6424,-1366.7518 193.9188,-1370.3906"/>
<polygon fill="#191970" stroke="#191970" points="75.8791,-843.283 71.7277,-833.5354 68.8943,-843.7443 75.8791,-843.283"/>
</g>
<!-- Node8 -->
<g id="node9" class="node">
<title>Node8</title>
<g id="a_node9"><a xlink:href="structgko_1_1multigrid_1_1Pgm_1_1parameters__type.html" target="_top" xlink:title=" ">
<polygon fill="#ffffff" stroke="#000000" points="213,-1306.5 213,-1347.5 346,-1347.5 346,-1306.5 213,-1306.5"/>
<text text-anchor="start" x="221" y="-1335.5" font-family="Helvetica,sans-Serif" font-size="10.00" fill="#000000">gko::multigrid::Pgm</text>
<text text-anchor="start" x="221" y="-1324.5" font-family="Helvetica,sans-Serif" font-size="10.00" fill="#000000">&lt; ValueType, IndexType</text>
<text text-anchor="middle" x="279.5" y="-1313.5" font-family="Helvetica,sans-Serif" font-size="10.00" fill="#000000"> &gt;::parameters_type</text>
</a>
</g>
</g>
<!-- Node0&#45;&gt;Node8 -->
<g id="edge8" class="edge">
<title>Node0&#45;&gt;Node8</title>
<path fill="none" stroke="#191970" d="M73.2364,-843.9827C82.3213,-939.9921 114.5112,-1230.1013 177,-1297 186.5558,-1307.2302 199.3906,-1314.0356 212.739,-1318.5464"/>
<polygon fill="#191970" stroke="#191970" points="76.6979,-843.4047 72.2886,-833.771 69.7279,-844.0517 76.6979,-843.4047"/>
</g>
<!-- Node9 -->
<g id="node10" class="node">
<title>Node9</title>
<g id="a_node10"><a xlink:href="structgko_1_1preconditioner_1_1Ic_1_1parameters__type.html" target="_top" xlink:title=" ">
<polygon fill="#ffffff" stroke="#000000" points="201.5,-1246.5 201.5,-1287.5 357.5,-1287.5 357.5,-1246.5 201.5,-1246.5"/>
<text text-anchor="start" x="209.5" y="-1275.5" font-family="Helvetica,sans-Serif" font-size="10.00" fill="#000000">gko::preconditioner</text>
<text text-anchor="start" x="209.5" y="-1264.5" font-family="Helvetica,sans-Serif" font-size="10.00" fill="#000000">::Ic&lt; LSolverType, IndexType</text>
<text text-anchor="middle" x="279.5" y="-1253.5" font-family="Helvetica,sans-Serif" font-size="10.00" fill="#000000"> &gt;::parameters_type</text>
</a>
</g>
</g>
<!-- Node0&#45;&gt;Node9 -->
<g id="edge9" class="edge">
<title>Node0&#45;&gt;Node9</title>
<path fill="none" stroke="#191970" d="M74.2296,-843.5979C85.4816,-931.0666 121.7503,-1179.573 177,-1237 183.8775,-1244.1486 192.3571,-1249.6195 201.4687,-1253.8018"/>
<polygon fill="#191970" stroke="#191970" points="77.682,-842.9999 72.9527,-833.5192 70.7375,-843.8798 77.682,-842.9999"/>
</g>
<!-- Node10 -->
<g id="node11" class="node">
<title>Node10</title>
<g id="a_node11"><a xlink:href="structgko_1_1preconditioner_1_1Ilu_1_1parameters__type.html" target="_top" xlink:title=" ">
<polygon fill="#ffffff" stroke="#000000" points="194.5,-1175 194.5,-1227 364.5,-1227 364.5,-1175 194.5,-1175"/>
<text text-anchor="start" x="202.5" y="-1215" font-family="Helvetica,sans-Serif" font-size="10.00" fill="#000000">gko::preconditioner</text>
<text text-anchor="start" x="202.5" y="-1204" font-family="Helvetica,sans-Serif" font-size="10.00" fill="#000000">::Ilu&lt; LSolverType,</text>
<text text-anchor="start" x="202.5" y="-1193" font-family="Helvetica,sans-Serif" font-size="10.00" fill="#000000"> USolverType, ReverseApply,</text>
<text text-anchor="middle" x="279.5" y="-1182" font-family="Helvetica,sans-Serif" font-size="10.00" fill="#000000"> IndexType &gt;::parameters_type</text>
</a>
</g>
</g>
<!-- Node0&#45;&gt;Node10 -->
<g id="edge10" class="edge">
<title>Node0&#45;&gt;Node10</title>
<path fill="none" stroke="#191970" d="M76.1379,-843.8675C90.7331,-920.7024 131.7829,-1117.7502 177,-1165 182.0857,-1170.3143 188.0007,-1174.845 194.3744,-1178.7073"/>
<polygon fill="#191970" stroke="#191970" points="79.5426,-843.0335 74.2564,-833.8516 72.6629,-844.326 79.5426,-843.0335"/>
</g>
<!-- Node11 -->
<g id="node12" class="node">
<title>Node11</title>
<g id="a_node12"><a xlink:href="structgko_1_1preconditioner_1_1Isai_1_1parameters__type.html" target="_top" xlink:title=" ">
<polygon fill="#ffffff" stroke="#000000" points="194.5,-1114.5 194.5,-1155.5 364.5,-1155.5 364.5,-1114.5 194.5,-1114.5"/>
<text text-anchor="start" x="202.5" y="-1143.5" font-family="Helvetica,sans-Serif" font-size="10.00" fill="#000000">gko::preconditioner</text>
<text text-anchor="start" x="202.5" y="-1132.5" font-family="Helvetica,sans-Serif" font-size="10.00" fill="#000000">::Isai&lt; IsaiType, ValueType,</text>
<text text-anchor="middle" x="279.5" y="-1121.5" font-family="Helvetica,sans-Serif" font-size="10.00" fill="#000000"> IndexType &gt;::parameters_type</text>
</a>
</g>
</g>
<!-- Node0&#45;&gt;Node11 -->
<g id="edge11" class="edge">
<title>Node0&#45;&gt;Node11</title>
<path fill="none" stroke="#191970" d="M72.8237,-843.9869C78.96,-903.3684 100.8237,-1033.6211 177,-1105 182.1414,-1109.8176 188.0149,-1113.866 194.2899,-1117.2674"/>
<polygon fill="#191970" stroke="#191970" points="76.2818,-843.378 71.8515,-833.7539 69.3131,-844.0402 76.2818,-843.378"/>
</g>
<!-- Node12 -->
<g id="node13" class="node">
<title>Node12</title>
<g id="a_node13"><a xlink:href="structgko_1_1preconditioner_1_1Jacobi_1_1parameters__type.html" target="_top" xlink:title=" ">
<polygon fill="#ffffff" stroke="#000000" points="194.5,-1054.5 194.5,-1095.5 364.5,-1095.5 364.5,-1054.5 194.5,-1054.5"/>
<text text-anchor="start" x="202.5" y="-1083.5" font-family="Helvetica,sans-Serif" font-size="10.00" fill="#000000">gko::preconditioner</text>
<text text-anchor="start" x="202.5" y="-1072.5" font-family="Helvetica,sans-Serif" font-size="10.00" fill="#000000">::Jacobi&lt; ValueType,</text>
<text text-anchor="middle" x="279.5" y="-1061.5" font-family="Helvetica,sans-Serif" font-size="10.00" fill="#000000"> IndexType &gt;::parameters_type</text>
</a>
</g>
</g>
<!-- Node0&#45;&gt;Node12 -->
<g id="edge12" class="edge">
<title>Node0&#45;&gt;Node12</title>
<path fill="none" stroke="#191970" d="M76.0797,-843.6357C86.7327,-893.2819 114.697,-991.1681 177,-1045 182.2613,-1049.5459 188.1805,-1053.4037 194.4522,-1056.6775"/>
<polygon fill="#191970" stroke="#191970" points="79.5016,-842.8996 74.063,-833.8072 72.6445,-844.3066 79.5016,-842.8996"/>
</g>
<!-- Node13 -->
<g id="node14" class="node">
<title>Node13</title>
<g id="a_node14"><a xlink:href="structgko_1_1reorder_1_1Rcm_1_1parameters__type.html" target="_top" xlink:title=" ">
<polygon fill="#ffffff" stroke="#000000" points="217,-994.5 217,-1035.5 342,-1035.5 342,-994.5 217,-994.5"/>
<text text-anchor="start" x="225" y="-1023.5" font-family="Helvetica,sans-Serif" font-size="10.00" fill="#000000">gko::reorder::Rcm&lt;</text>
<text text-anchor="start" x="225" y="-1012.5" font-family="Helvetica,sans-Serif" font-size="10.00" fill="#000000"> ValueType, IndexType</text>
<text text-anchor="middle" x="279.5" y="-1001.5" font-family="Helvetica,sans-Serif" font-size="10.00" fill="#000000"> &gt;::parameters_type</text>
</a>
</g>
</g>
<!-- Node0&#45;&gt;Node13 -->
<g id="edge13" class="edge">
<title>Node0&#45;&gt;Node13</title>
<path fill="none" stroke="#191970" d="M81.3243,-843.2741C96.6626,-881.864 128.3828,-947.9981 177,-985 188.656,-993.8712 202.8792,-1000.1242 216.975,-1004.53"/>
<polygon fill="#191970" stroke="#191970" points="84.4685,-841.6998 77.6044,-833.6291 77.9374,-844.2187 84.4685,-841.6998"/>
</g>
<!-- Node14 -->
<g id="node15" class="node">
<title>Node14</title>
<g id="a_node15"><a xlink:href="structgko_1_1solver_1_1Bicg_1_1parameters__type.html" target="_top" xlink:title=" ">
<polygon fill="#ffffff" stroke="#000000" points="194.5,-945 194.5,-975 364.5,-975 364.5,-945 194.5,-945"/>
<text text-anchor="start" x="202.5" y="-963" font-family="Helvetica,sans-Serif" font-size="10.00" fill="#000000">gko::solver::Bicg&lt;</text>
<text text-anchor="middle" x="279.5" y="-952" font-family="Helvetica,sans-Serif" font-size="10.00" fill="#000000"> ValueType &gt;::parameters_type</text>
</a>
</g>
</g>
<!-- Node0&#45;&gt;Node14 -->
<g id="edge14" class="edge">
<title>Node0&#45;&gt;Node14</title>
<path fill="none" stroke="#191970" d="M87.9782,-842.2085C106.5022,-870.5723 138.3889,-912.6667 177,-936 182.7094,-939.4502 188.8743,-942.4045 195.2489,-944.9341"/>
<polygon fill="#191970" stroke="#191970" points="90.7685,-840.0743 82.4419,-833.5231 84.8657,-843.8369 90.7685,-840.0743"/>
</g>
<!-- Node15 -->
<g id="node16" class="node">
<title>Node15</title>
<g id="a_node16"><a xlink:href="structgko_1_1solver_1_1Bicgstab_1_1parameters__type.html" target="_top" xlink:title=" ">
<polygon fill="#ffffff" stroke="#000000" points="190.5,-896 190.5,-926 368.5,-926 368.5,-896 190.5,-896"/>
<text text-anchor="start" x="198.5" y="-914" font-family="Helvetica,sans-Serif" font-size="10.00" fill="#000000">gko::solver::Bicgstab</text>
<text text-anchor="middle" x="279.5" y="-903" font-family="Helvetica,sans-Serif" font-size="10.00" fill="#000000">&lt; ValueType &gt;::parameters_type</text>
</a>
</g>
</g>
<!-- Node0&#45;&gt;Node15 -->
<g id="edge15" class="edge">
<title>Node0&#45;&gt;Node15</title>
<path fill="none" stroke="#191970" d="M102.6238,-840.1393C122.8143,-855.9265 150.0614,-875.0143 177,-887 184.6812,-890.4176 192.9114,-893.3818 201.2454,-895.9454"/>
<polygon fill="#191970" stroke="#191970" points="104.7026,-837.3205 94.6995,-833.8291 100.342,-842.7965 104.7026,-837.3205"/>
</g>
<!-- Node16 -->
<g id="node17" class="node">
<title>Node16</title>
<g id="a_node17"><a xlink:href="structgko_1_1solver_1_1CbGmres_1_1parameters__type.html" target="_top" xlink:title=" ">
<polygon fill="#ffffff" stroke="#000000" points="190.5,-847 190.5,-877 368.5,-877 368.5,-847 190.5,-847"/>
<text text-anchor="start" x="198.5" y="-865" font-family="Helvetica,sans-Serif" font-size="10.00" fill="#000000">gko::solver::CbGmres</text>
<text text-anchor="middle" x="279.5" y="-854" font-family="Helvetica,sans-Serif" font-size="10.00" fill="#000000">&lt; ValueType &gt;::parameters_type</text>
</a>
</g>
</g>
<!-- Node0&#45;&gt;Node16 -->
<g id="edge16" class="edge">
<title>Node0&#45;&gt;Node16</title>
<path fill="none" stroke="#191970" d="M151.0897,-831.9228C159.8345,-833.9746 168.6033,-836.0314 177,-838 189.3668,-840.8993 202.5735,-843.9933 215.2525,-846.9625"/>
<polygon fill="#191970" stroke="#191970" points="151.7831,-828.4906 141.2479,-829.6134 150.1839,-835.3054 151.7831,-828.4906"/>
</g>
<!-- Node17 -->
<g id="node18" class="node">
<title>Node17</title>
<g id="a_node18"><a xlink:href="structgko_1_1solver_1_1Cg_1_1parameters__type.html" target="_top" xlink:title=" ">
<polygon fill="#ffffff" stroke="#000000" points="204.5,-798 204.5,-828 354.5,-828 354.5,-798 204.5,-798"/>
<text text-anchor="start" x="212.5" y="-816" font-family="Helvetica,sans-Serif" font-size="10.00" fill="#000000">gko::solver::Cg&lt; ValueType</text>
<text text-anchor="middle" x="279.5" y="-805" font-family="Helvetica,sans-Serif" font-size="10.00" fill="#000000"> &gt;::parameters_type</text>
</a>
</g>
</g>
<!-- Node0&#45;&gt;Node17 -->
<g id="edge17" class="edge">
<title>Node0&#45;&gt;Node17</title>
<path fill="none" stroke="#191970" d="M151.3622,-813C168.7303,-813 187.0178,-813 204.1662,-813"/>
<polygon fill="#191970" stroke="#191970" points="151.2579,-809.5001 141.2579,-813 151.2578,-816.5001 151.2579,-809.5001"/>
</g>
<!-- Node18 -->
<g id="node19" class="node">
<title>Node18</title>
<g id="a_node19"><a xlink:href="structgko_1_1solver_1_1Cgs_1_1parameters__type.html" target="_top" xlink:title=" ">
<polygon fill="#ffffff" stroke="#000000" points="202,-749 202,-779 357,-779 357,-749 202,-749"/>
<text text-anchor="start" x="210" y="-767" font-family="Helvetica,sans-Serif" font-size="10.00" fill="#000000">gko::solver::Cgs&lt; ValueType</text>
<text text-anchor="middle" x="279.5" y="-756" font-family="Helvetica,sans-Serif" font-size="10.00" fill="#000000"> &gt;::parameters_type</text>
</a>
</g>
</g>
<!-- Node0&#45;&gt;Node18 -->
<g id="edge18" class="edge">
<title>Node0&#45;&gt;Node18</title>
<path fill="none" stroke="#191970" d="M151.2525,-794.0676C172.5405,-789.0766 195.2168,-783.7602 215.4885,-779.0075"/>
<polygon fill="#191970" stroke="#191970" points="150.1949,-790.7206 141.2579,-796.4108 151.7928,-797.5358 150.1949,-790.7206"/>
</g>
<!-- Node19 -->
<g id="node20" class="node">
<title>Node19</title>
<g id="a_node20"><a xlink:href="structgko_1_1solver_1_1Fcg_1_1parameters__type.html" target="_top" xlink:title=" ">
<polygon fill="#ffffff" stroke="#000000" points="202.5,-700 202.5,-730 356.5,-730 356.5,-700 202.5,-700"/>
<text text-anchor="start" x="210.5" y="-718" font-family="Helvetica,sans-Serif" font-size="10.00" fill="#000000">gko::solver::Fcg&lt; ValueType</text>
<text text-anchor="middle" x="279.5" y="-707" font-family="Helvetica,sans-Serif" font-size="10.00" fill="#000000"> &gt;::parameters_type</text>
</a>
</g>
</g>
<!-- Node0&#45;&gt;Node19 -->
<g id="edge19" class="edge">
<title>Node0&#45;&gt;Node19</title>
<path fill="none" stroke="#191970" d="M103.1287,-786.0201C123.3121,-770.5457 150.3764,-751.8913 177,-740 185.6131,-736.153 194.9089,-732.8421 204.2642,-730.0072"/>
<polygon fill="#191970" stroke="#191970" points="100.928,-783.2978 95.1973,-792.2091 105.2343,-788.8165 100.928,-783.2978"/>
</g>
<!-- Node20 -->
<g id="node21" class="node">
<title>Node20</title>
<g id="a_node21"><a xlink:href="structgko_1_1solver_1_1Gmres_1_1parameters__type.html" target="_top" xlink:title=" ">
<polygon fill="#ffffff" stroke="#000000" points="190.5,-651 190.5,-681 368.5,-681 368.5,-651 190.5,-651"/>
<text text-anchor="start" x="198.5" y="-669" font-family="Helvetica,sans-Serif" font-size="10.00" fill="#000000">gko::solver::Gmres</text>
<text text-anchor="middle" x="279.5" y="-658" font-family="Helvetica,sans-Serif" font-size="10.00" fill="#000000">&lt; ValueType &gt;::parameters_type</text>
</a>
</g>
</g>
<!-- Node0&#45;&gt;Node20 -->
<g id="edge20" class="edge">
<title>Node0&#45;&gt;Node20</title>
<path fill="none" stroke="#191970" d="M88.3964,-783.6287C107.0435,-755.5613 138.8451,-714.1929 177,-691 183.4173,-687.0992 190.4082,-683.8066 197.6243,-681.0274"/>
<polygon fill="#191970" stroke="#191970" points="85.3198,-781.9402 82.813,-792.2343 91.1921,-785.7503 85.3198,-781.9402"/>
</g>
<!-- Node21 -->
<g id="node22" class="node">
<title>Node21</title>
<g id="a_node22"><a xlink:href="structgko_1_1solver_1_1Idr_1_1parameters__type.html" target="_top" xlink:title=" ">
<polygon fill="#ffffff" stroke="#000000" points="204.5,-602 204.5,-632 354.5,-632 354.5,-602 204.5,-602"/>
<text text-anchor="start" x="212.5" y="-620" font-family="Helvetica,sans-Serif" font-size="10.00" fill="#000000">gko::solver::Idr&lt; ValueType</text>
<text text-anchor="middle" x="279.5" y="-609" font-family="Helvetica,sans-Serif" font-size="10.00" fill="#000000"> &gt;::parameters_type</text>
</a>
</g>
</g>
<!-- Node0&#45;&gt;Node21 -->
<g id="edge21" class="edge">
<title>Node0&#45;&gt;Node21</title>
<path fill="none" stroke="#191970" d="M81.1184,-782.5582C96.2344,-743.8214 127.7147,-677.6714 177,-642 185.161,-636.0933 194.5464,-631.5707 204.2536,-628.1101"/>
<polygon fill="#191970" stroke="#191970" points="77.7189,-781.6532 77.4571,-792.2449 84.2667,-784.1282 77.7189,-781.6532"/>
</g>
<!-- Node22 -->
<g id="node23" class="node">
<title>Node22</title>
<g id="a_node23"><a xlink:href="structgko_1_1solver_1_1Ir_1_1parameters__type.html" target="_top" xlink:title=" ">
<polygon fill="#ffffff" stroke="#000000" points="207.5,-553 207.5,-583 351.5,-583 351.5,-553 207.5,-553"/>
<text text-anchor="start" x="215.5" y="-571" font-family="Helvetica,sans-Serif" font-size="10.00" fill="#000000">gko::solver::Ir&lt; ValueType</text>
<text text-anchor="middle" x="279.5" y="-560" font-family="Helvetica,sans-Serif" font-size="10.00" fill="#000000"> &gt;::parameters_type</text>
</a>
</g>
</g>
<!-- Node0&#45;&gt;Node22 -->
<g id="edge22" class="edge">
<title>Node0&#45;&gt;Node22</title>
<path fill="none" stroke="#191970" d="M76.5377,-782.5893C87.6765,-734.7209 116.1143,-642.1951 177,-593 185.8333,-585.8628 196.4001,-580.7162 207.3426,-577.0148"/>
<polygon fill="#191970" stroke="#191970" points="73.117,-781.8486 74.3592,-792.3703 79.9495,-783.3704 73.117,-781.8486"/>
</g>
<!-- Node23 -->
<g id="node24" class="node">
<title>Node23</title>
<g id="a_node24"><a xlink:href="structgko_1_1solver_1_1LowerTrs_1_1parameters__type.html" target="_top" xlink:title=" ">
<polygon fill="#ffffff" stroke="#000000" points="213,-492.5 213,-533.5 346,-533.5 346,-492.5 213,-492.5"/>
<text text-anchor="start" x="221" y="-521.5" font-family="Helvetica,sans-Serif" font-size="10.00" fill="#000000">gko::solver::LowerTrs</text>
<text text-anchor="start" x="221" y="-510.5" font-family="Helvetica,sans-Serif" font-size="10.00" fill="#000000">&lt; ValueType, IndexType</text>
<text text-anchor="middle" x="279.5" y="-499.5" font-family="Helvetica,sans-Serif" font-size="10.00" fill="#000000"> &gt;::parameters_type</text>
</a>
</g>
</g>
<!-- Node0&#45;&gt;Node23 -->
<g id="edge23" class="edge">
<title>Node0&#45;&gt;Node23</title>
<path fill="none" stroke="#191970" d="M73.9341,-782.4989C81.8176,-726.9454 106.3317,-609.015 177,-544 187.0561,-534.7483 199.7871,-528.2538 212.828,-523.6957"/>
<polygon fill="#191970" stroke="#191970" points="70.4621,-782.0569 72.6092,-792.4319 77.4007,-782.9825 70.4621,-782.0569"/>
</g>
<!-- Node24 -->
<g id="node25" class="node">
<title>Node24</title>
<g id="a_node25"><a xlink:href="structgko_1_1solver_1_1Multigrid_1_1parameters__type.html" target="_top" xlink:title=" ">
<polygon fill="#ffffff" stroke="#000000" points="220,-443 220,-473 339,-473 339,-443 220,-443"/>
<text text-anchor="start" x="228" y="-461" font-family="Helvetica,sans-Serif" font-size="10.00" fill="#000000">gko::solver::Multigrid</text>
<text text-anchor="middle" x="279.5" y="-450" font-family="Helvetica,sans-Serif" font-size="10.00" fill="#000000">::parameters_type</text>
</a>
</g>
</g>
<!-- Node0&#45;&gt;Node24 -->
<g id="edge24" class="edge">
<title>Node0&#45;&gt;Node24</title>
<path fill="none" stroke="#191970" d="M76.4412,-782.3096C91.3043,-708.6189 132.1374,-524.7039 177,-483 188.7386,-472.0878 204.4274,-465.7145 219.9946,-462.0522"/>
<polygon fill="#191970" stroke="#191970" points="72.9619,-781.8608 74.4394,-792.3521 79.8268,-783.2293 72.9619,-781.8608"/>
</g>
<!-- Node25 -->
<g id="node26" class="node">
<title>Node25</title>
<g id="a_node26"><a xlink:href="structgko_1_1solver_1_1UpperTrs_1_1parameters__type.html" target="_top" xlink:title=" ">
<polygon fill="#ffffff" stroke="#000000" points="213,-382.5 213,-423.5 346,-423.5 346,-382.5 213,-382.5"/>
<text text-anchor="start" x="221" y="-411.5" font-family="Helvetica,sans-Serif" font-size="10.00" fill="#000000">gko::solver::UpperTrs</text>
<text text-anchor="start" x="221" y="-400.5" font-family="Helvetica,sans-Serif" font-size="10.00" fill="#000000">&lt; ValueType, IndexType</text>
<text text-anchor="middle" x="279.5" y="-389.5" font-family="Helvetica,sans-Serif" font-size="10.00" fill="#000000"> &gt;::parameters_type</text>
</a>
</g>
</g>
<!-- Node0&#45;&gt;Node25 -->
<g id="edge25" class="edge">
<title>Node0&#45;&gt;Node25</title>
<path fill="none" stroke="#191970" d="M75.2311,-782.443C88.335,-701.5488 127.4291,-484.5599 177,-434 186.7616,-424.0436 199.6012,-417.2603 212.8773,-412.6454"/>
<polygon fill="#191970" stroke="#191970" points="71.7477,-782.0613 73.6246,-792.4886 78.6599,-783.1667 71.7477,-782.0613"/>
</g>
<!-- Node26 -->
<g id="node27" class="node">
<title>Node26</title>
<g id="a_node27"><a xlink:href="structgko_1_1stop_1_1AbsoluteResidualNorm_1_1parameters__type.html" target="_top" xlink:title=" ">
<polygon fill="#ffffff" stroke="#000000" points="177,-333 177,-363 382,-363 382,-333 177,-333"/>
<text text-anchor="start" x="185" y="-351" font-family="Helvetica,sans-Serif" font-size="10.00" fill="#000000">gko::stop::AbsoluteResidual</text>
<text text-anchor="middle" x="279.5" y="-340" font-family="Helvetica,sans-Serif" font-size="10.00" fill="#000000">Norm&lt; ValueType &gt;::parameters_type</text>
</a>
</g>
</g>
<!-- Node0&#45;&gt;Node26 -->
<g id="edge26" class="edge">
<title>Node0&#45;&gt;Node26</title>
<path fill="none" stroke="#191970" d="M73.796,-782.3378C84.0803,-692.3553 118.4406,-431.6622 177,-373 180.7528,-369.2406 184.9706,-366.0122 189.5001,-363.2426"/>
<polygon fill="#191970" stroke="#191970" points="70.2995,-782.1117 72.6611,-792.4399 77.2557,-782.8932 70.2995,-782.1117"/>
</g>
<!-- Node27 -->
<g id="node28" class="node">
<title>Node27</title>
<g id="a_node28"><a xlink:href="structgko_1_1stop_1_1Combined_1_1parameters__type.html" target="_top" xlink:title=" ">
<polygon fill="#ffffff" stroke="#000000" points="221,-284 221,-314 338,-314 338,-284 221,-284"/>
<text text-anchor="start" x="229" y="-302" font-family="Helvetica,sans-Serif" font-size="10.00" fill="#000000">gko::stop::Combined</text>
<text text-anchor="middle" x="279.5" y="-291" font-family="Helvetica,sans-Serif" font-size="10.00" fill="#000000">::parameters_type</text>
</a>
</g>
</g>
<!-- Node0&#45;&gt;Node27 -->
<g id="edge27" class="edge">
<title>Node0&#45;&gt;Node27</title>
<path fill="none" stroke="#191970" d="M73.0051,-782.2005C81.492,-685.4817 112.3074,-390.3165 177,-324 188.5753,-312.1341 204.7763,-305.5335 220.8858,-301.9583"/>
<polygon fill="#191970" stroke="#191970" points="69.5134,-781.9556 72.1442,-792.2186 76.4877,-782.555 69.5134,-781.9556"/>
</g>
<!-- Node28 -->
<g id="node29" class="node">
<title>Node28</title>
<g id="a_node29"><a xlink:href="structgko_1_1stop_1_1ImplicitResidualNorm_1_1parameters__type.html" target="_top" xlink:title=" ">
<polygon fill="#ffffff" stroke="#000000" points="177,-235 177,-265 382,-265 382,-235 177,-235"/>
<text text-anchor="start" x="185" y="-253" font-family="Helvetica,sans-Serif" font-size="10.00" fill="#000000">gko::stop::ImplicitResidual</text>
<text text-anchor="middle" x="279.5" y="-242" font-family="Helvetica,sans-Serif" font-size="10.00" fill="#000000">Norm&lt; ValueType &gt;::parameters_type</text>
</a>
</g>
</g>
<!-- Node0&#45;&gt;Node28 -->
<g id="edge28" class="edge">
<title>Node0&#45;&gt;Node28</title>
<path fill="none" stroke="#191970" d="M72.3382,-782.2551C79.1168,-679.3151 106.1011,-349.0746 177,-275 180.6729,-271.1626 184.829,-267.8738 189.3117,-265.0585"/>
<polygon fill="#191970" stroke="#191970" points="68.8407,-782.105 71.6934,-792.3086 75.8264,-782.5531 68.8407,-782.105"/>
</g>
<!-- Node29 -->
<g id="node30" class="node">
<title>Node29</title>
<g id="a_node30"><a xlink:href="structgko_1_1stop_1_1Iteration_1_1parameters__type.html" target="_top" xlink:title=" ">
<polygon fill="#ffffff" stroke="#000000" points="225,-186 225,-216 334,-216 334,-186 225,-186"/>
<text text-anchor="start" x="233" y="-204" font-family="Helvetica,sans-Serif" font-size="10.00" fill="#000000">gko::stop::Iteration</text>
<text text-anchor="middle" x="279.5" y="-193" font-family="Helvetica,sans-Serif" font-size="10.00" fill="#000000">::parameters_type</text>
</a>
</g>
</g>
<!-- Node0&#45;&gt;Node29 -->
<g id="edge29" class="edge">
<title>Node0&#45;&gt;Node29</title>
<path fill="none" stroke="#191970" d="M71.7781,-782.3754C76.9443,-673.5877 99.8524,-307.9009 177,-226 189.3709,-212.8669 207.3965,-206.1391 224.894,-202.8317"/>
<polygon fill="#191970" stroke="#191970" points="68.2817,-782.2187 71.3197,-792.3686 75.2744,-782.5395 68.2817,-782.2187"/>
</g>
<!-- Node30 -->
<g id="node31" class="node">
<title>Node30</title>
<g id="a_node31"><a xlink:href="structgko_1_1stop_1_1RelativeResidualNorm_1_1parameters__type.html" target="_top" xlink:title=" ">
<polygon fill="#ffffff" stroke="#000000" points="177,-137 177,-167 382,-167 382,-137 177,-137"/>
<text text-anchor="start" x="185" y="-155" font-family="Helvetica,sans-Serif" font-size="10.00" fill="#000000">gko::stop::RelativeResidual</text>
<text text-anchor="middle" x="279.5" y="-144" font-family="Helvetica,sans-Serif" font-size="10.00" fill="#000000">Norm&lt; ValueType &gt;::parameters_type</text>
</a>
</g>
</g>
<!-- Node0&#45;&gt;Node30 -->
<g id="edge30" class="edge">
<title>Node0&#45;&gt;Node30</title>
<path fill="none" stroke="#191970" d="M71.3168,-782.133C74.9905,-667.2836 93.6674,-266.6778 177,-177 180.4912,-173.243 184.4449,-170.0087 188.7181,-167.2279"/>
<polygon fill="#191970" stroke="#191970" points="67.8122,-782.2335 71.0064,-792.3354 74.8089,-782.4464 67.8122,-782.2335"/>
</g>
<!-- Node31 -->
<g id="node32" class="node">
<title>Node31</title>
<g id="a_node32"><a xlink:href="structgko_1_1stop_1_1ResidualNorm_1_1parameters__type.html" target="_top" xlink:title=" ">
<polygon fill="#ffffff" stroke="#000000" points="190.5,-88 190.5,-118 368.5,-118 368.5,-88 190.5,-88"/>
<text text-anchor="start" x="198.5" y="-106" font-family="Helvetica,sans-Serif" font-size="10.00" fill="#000000">gko::stop::ResidualNorm</text>
<text text-anchor="middle" x="279.5" y="-95" font-family="Helvetica,sans-Serif" font-size="10.00" fill="#000000">&lt; ValueType &gt;::parameters_type</text>
</a>
</g>
</g>
<!-- Node0&#45;&gt;Node31 -->
<g id="edge31" class="edge">
<title>Node0&#45;&gt;Node31</title>
<path fill="none" stroke="#191970" d="M70.9093,-782.1661C73.1443,-661.82 87.3972,-225.5613 177,-128 180.8409,-123.818 185.2546,-120.2822 190.0461,-117.2974"/>
<polygon fill="#191970" stroke="#191970" points="67.4043,-782.4354 70.7332,-792.4936 74.4033,-782.5548 67.4043,-782.4354"/>
</g>
<!-- Node32 -->
<g id="node33" class="node">
<title>Node32</title>
<g id="a_node33"><a xlink:href="structgko_1_1stop_1_1ResidualNormReduction_1_1parameters__type.html" target="_top" xlink:title=" ">
<polygon fill="#ffffff" stroke="#000000" points="187.5,-39 187.5,-69 371.5,-69 371.5,-39 187.5,-39"/>
<text text-anchor="start" x="195.5" y="-57" font-family="Helvetica,sans-Serif" font-size="10.00" fill="#000000">gko::stop::ResidualNormReduction</text>
<text text-anchor="middle" x="279.5" y="-46" font-family="Helvetica,sans-Serif" font-size="10.00" fill="#000000">&lt; ValueType &gt;::parameters_type</text>
</a>
</g>
</g>
<!-- Node0&#45;&gt;Node32 -->
<g id="edge32" class="edge">
<title>Node0&#45;&gt;Node32</title>
<path fill="none" stroke="#191970" d="M72.9483,-782.1691C83.7452,-649.5705 128.7146,-132.1127 177,-79 180.45,-75.2051 184.3715,-71.9413 188.6201,-69.1377"/>
<polygon fill="#191970" stroke="#191970" points="69.4368,-782.1712 72.1194,-792.4207 76.414,-782.7353 69.4368,-782.1712"/>
</g>
<!-- Node33 -->
<g id="node34" class="node">
<title>Node33</title>
<g id="a_node34"><a xlink:href="structgko_1_1stop_1_1Time_1_1parameters__type.html" target="_top" xlink:title=" ">
<polygon fill="#ffffff" stroke="#000000" points="188.5,-.5 188.5,-19.5 370.5,-19.5 370.5,-.5 188.5,-.5"/>
<text text-anchor="middle" x="279.5" y="-7.5" font-family="Helvetica,sans-Serif" font-size="10.00" fill="#000000">gko::stop::Time::parameters_type</text>
</a>
</g>
</g>
<!-- Node0&#45;&gt;Node33 -->
<g id="edge33" class="edge">
<title>Node0&#45;&gt;Node33</title>
<path fill="none" stroke="#191970" d="M72.6124,-781.8544C82.3002,-643.1295 124.2755,-85.8476 177,-30 180.8584,-25.9131 185.2854,-22.5226 190.0866,-19.72"/>
<polygon fill="#191970" stroke="#191970" points="69.0962,-781.9678 71.8967,-792.1858 76.0795,-782.4515 69.0962,-781.9678"/>
</g>
</g>
</svg>
