<?xml version="1.0" encoding="UTF-8" standalone="no"?>
<!DOCTYPE svg PUBLIC "-//W3C//DTD SVG 1.1//EN"
 "http://www.w3.org/Graphics/SVG/1.1/DTD/svg11.dtd">
<!-- Generated by graphviz version 2.40.1 (20161225.0304)
 -->
<!-- Title: Graphical Class Hierarchy Pages: 1 -->
<svg width="308pt" height="154pt"
 viewBox="0.00 0.00 308.00 153.50" xmlns="http://www.w3.org/2000/svg" xmlns:xlink="http://www.w3.org/1999/xlink">
<g id="graph0" class="graph" transform="scale(1 1) rotate(0) translate(4 149.5)">
<title>Graphical Class Hierarchy</title>
<polygon fill="#ffffff" stroke="transparent" points="-4,4 -4,-149.5 304,-149.5 304,4 -4,4"/>
<!-- Node0 -->
<g id="node1" class="node">
<title>Node0</title>
<g id="a_node1"><a xlink:href="classgko_1_1log_1_1Logger.html" target="_top" xlink:title=" ">
<polygon fill="#ffffff" stroke="#000000" points="0,-57.5 0,-76.5 95,-76.5 95,-57.5 0,-57.5"/>
<text text-anchor="middle" x="47.5" y="-64.5" font-family="Helvetica,sans-Serif" font-size="10.00" fill="#000000">gko::log::Logger</text>
</a>
</g>
</g>
<!-- Node1 -->
<g id="node2" class="node">
<title>Node1</title>
<g id="a_node2"><a xlink:href="classgko_1_1log_1_1Convergence.html" target="_top" xlink:title="Convergence is a Logger which logs data strictly from the criterion_check_completed event.">
<polygon fill="#ffffff" stroke="#000000" points="153,-115 153,-145 278,-145 278,-115 153,-115"/>
<text text-anchor="start" x="161" y="-133" font-family="Helvetica,sans-Serif" font-size="10.00" fill="#000000">gko::log::Convergence</text>
<text text-anchor="middle" x="215.5" y="-122" font-family="Helvetica,sans-Serif" font-size="10.00" fill="#000000">&lt; ValueType &gt;</text>
</a>
</g>
</g>
<!-- Node0&#45;&gt;Node1 -->
<g id="edge1" class="edge">
<title>Node0&#45;&gt;Node1</title>
<path fill="none" stroke="#191970" d="M75.7318,-81.0372C91.7189,-88.6834 112.2184,-97.987 131,-105 140.4592,-108.5321 150.6575,-111.9046 160.5851,-114.9651"/>
<polygon fill="#191970" stroke="#191970" points="76.942,-77.7345 66.4163,-76.5259 73.8909,-84.0347 76.942,-77.7345"/>
</g>
<!-- Node2 -->
<g id="node3" class="node">
<title>Node2</title>
<g id="a_node3"><a xlink:href="classgko_1_1log_1_1PerformanceHint.html" target="_top" xlink:title="PerformanceHint is a Logger which analyzes the performance of the application and outputs hints for u...">
<polygon fill="#ffffff" stroke="#000000" points="143.5,-76.5 143.5,-95.5 287.5,-95.5 287.5,-76.5 143.5,-76.5"/>
<text text-anchor="middle" x="215.5" y="-83.5" font-family="Helvetica,sans-Serif" font-size="10.00" fill="#000000">gko::log::PerformanceHint</text>
</a>
</g>
</g>
<!-- Node0&#45;&gt;Node2 -->
<g id="edge2" class="edge">
<title>Node0&#45;&gt;Node2</title>
<path fill="none" stroke="#191970" d="M105.2428,-73.5304C117.4694,-74.9132 130.5211,-76.3893 143.2093,-77.8243"/>
<polygon fill="#191970" stroke="#191970" points="105.5227,-70.0399 95.1927,-72.3938 104.736,-76.9955 105.5227,-70.0399"/>
</g>
<!-- Node3 -->
<g id="node4" class="node">
<title>Node3</title>
<g id="a_node4"><a xlink:href="classgko_1_1log_1_1Record.html" target="_top" xlink:title="Record is a Logger which logs every event to an object.">
<polygon fill="#ffffff" stroke="#000000" points="168,-38.5 168,-57.5 263,-57.5 263,-38.5 168,-38.5"/>
<text text-anchor="middle" x="215.5" y="-45.5" font-family="Helvetica,sans-Serif" font-size="10.00" fill="#000000">gko::log::Record</text>
</a>
</g>
</g>
<!-- Node0&#45;&gt;Node3 -->
<g id="edge3" class="edge">
<title>Node0&#45;&gt;Node3</title>
<path fill="none" stroke="#191970" d="M105.3274,-60.46C125.7636,-58.1488 148.496,-55.5778 167.979,-53.3744"/>
<polygon fill="#191970" stroke="#191970" points="104.736,-57.0045 95.1927,-61.6062 105.5227,-63.9601 104.736,-57.0045"/>
</g>
<!-- Node4 -->
<g id="node5" class="node">
<title>Node4</title>
<g id="a_node5"><a xlink:href="classgko_1_1log_1_1Stream.html" target="_top" xlink:title="Stream is a Logger which logs every event to a stream.">
<polygon fill="#ffffff" stroke="#000000" points="131,-.5 131,-19.5 300,-19.5 300,-.5 131,-.5"/>
<text text-anchor="middle" x="215.5" y="-7.5" font-family="Helvetica,sans-Serif" font-size="10.00" fill="#000000">gko::log::Stream&lt; ValueType &gt;</text>
</a>
</g>
</g>
<!-- Node0&#45;&gt;Node4 -->
<g id="edge4" class="edge">
<title>Node0&#45;&gt;Node4</title>
<path fill="none" stroke="#191970" d="M74.9326,-52.783C90.9527,-44.9232 111.7456,-35.469 131,-29 141.8326,-25.3605 153.6808,-22.2074 164.9867,-19.5727"/>
<polygon fill="#191970" stroke="#191970" points="73.0126,-49.8296 65.631,-57.4298 76.141,-56.0917 73.0126,-49.8296"/>
</g>
</g>
</svg>
