<?xml version="1.0" encoding="UTF-8" standalone="no"?>
<!DOCTYPE svg PUBLIC "-//W3C//DTD SVG 1.1//EN"
 "http://www.w3.org/Graphics/SVG/1.1/DTD/svg11.dtd">
<!-- Generated by graphviz version 2.40.1 (20161225.0304)
 -->
<!-- Title: Graphical Class Hierarchy Pages: 1 -->
<svg width="412pt" height="1979pt"
 viewBox="0.00 0.00 412.00 1978.50" xmlns="http://www.w3.org/2000/svg" xmlns:xlink="http://www.w3.org/1999/xlink">
<g id="graph0" class="graph" transform="scale(1 1) rotate(0) translate(4 1974.5)">
<title>Graphical Class Hierarchy</title>
<polygon fill="#ffffff" stroke="transparent" points="-4,4 -4,-1974.5 408,-1974.5 408,4 -4,4"/>
<!-- Node0 -->
<g id="node1" class="node">
<title>Node0</title>
<g id="a_node1"><a xlink:href="classgko_1_1enable__parameters__type.html" target="_top" xlink:title=" ">
<polygon fill="#ffffff" stroke="#000000" points="0,-865.5 0,-906.5 141,-906.5 141,-865.5 0,-865.5"/>
<text text-anchor="start" x="8" y="-894.5" font-family="Helvetica,sans-Serif" font-size="10.00" fill="#000000">gko::enable_parameters</text>
<text text-anchor="start" x="8" y="-883.5" font-family="Helvetica,sans-Serif" font-size="10.00" fill="#000000">_type&lt; parameters_type,</text>
<text text-anchor="middle" x="70.5" y="-872.5" font-family="Helvetica,sans-Serif" font-size="10.00" fill="#000000"> Factory &gt;</text>
</a>
</g>
</g>
<!-- Node1 -->
<g id="node2" class="node">
<title>Node1</title>
<g id="a_node2"><a xlink:href="structgko_1_1experimental_1_1distributed_1_1preconditioner_1_1Schwarz_1_1parameters__type.html" target="_top" xlink:title=" ">
<polygon fill="#ffffff" stroke="#000000" points="177,-1918 177,-1970 404,-1970 404,-1918 177,-1918"/>
<text text-anchor="start" x="185" y="-1958" font-family="Helvetica,sans-Serif" font-size="10.00" fill="#000000">gko::experimental::</text>
<text text-anchor="start" x="185" y="-1947" font-family="Helvetica,sans-Serif" font-size="10.00" fill="#000000">distributed::preconditioner</text>
<text text-anchor="start" x="185" y="-1936" font-family="Helvetica,sans-Serif" font-size="10.00" fill="#000000">::Schwarz&lt; ValueType, LocalIndex</text>
<text text-anchor="middle" x="290.5" y="-1925" font-family="Helvetica,sans-Serif" font-size="10.00" fill="#000000">Type, GlobalIndexType &gt;::parameters_type</text>
</a>
</g>
</g>
<!-- Node0&#45;&gt;Node1 -->
<g id="edge1" class="edge">
<title>Node0&#45;&gt;Node1</title>
<path fill="none" stroke="#191970" d="M71.7238,-917.1909C78.3867,-1080.2669 112.3895,-1830.3492 177,-1909 179.6178,-1912.1867 182.5194,-1915.0891 185.6443,-1917.7322"/>
<polygon fill="#191970" stroke="#191970" points="75.2088,-916.7454 71.3078,-906.8949 68.2145,-917.0281 75.2088,-916.7454"/>
</g>
<!-- Node2 -->
<g id="node3" class="node">
<title>Node2</title>
<g id="a_node3"><a xlink:href="structgko_1_1experimental_1_1reorder_1_1ScaledReordered_1_1parameters__type.html" target="_top" xlink:title=" ">
<polygon fill="#ffffff" stroke="#000000" points="220.5,-1847 220.5,-1899 360.5,-1899 360.5,-1847 220.5,-1847"/>
<text text-anchor="start" x="228.5" y="-1887" font-family="Helvetica,sans-Serif" font-size="10.00" fill="#000000">gko::experimental::</text>
<text text-anchor="start" x="228.5" y="-1876" font-family="Helvetica,sans-Serif" font-size="10.00" fill="#000000">reorder::ScaledReordered</text>
<text text-anchor="start" x="228.5" y="-1865" font-family="Helvetica,sans-Serif" font-size="10.00" fill="#000000">&lt; ValueType, IndexType</text>
<text text-anchor="middle" x="290.5" y="-1854" font-family="Helvetica,sans-Serif" font-size="10.00" fill="#000000"> &gt;::parameters_type</text>
</a>
</g>
</g>
<!-- Node0&#45;&gt;Node2 -->
<g id="edge2" class="edge">
<title>Node0&#45;&gt;Node2</title>
<path fill="none" stroke="#191970" d="M71.9816,-916.9372C79.6883,-1072.4405 117.148,-1764.1243 177,-1837 187.9554,-1850.3392 203.8391,-1858.8067 220.2707,-1864.1613"/>
<polygon fill="#191970" stroke="#191970" points="75.4644,-916.4998 71.4782,-906.6835 68.4728,-916.8431 75.4644,-916.4998"/>
</g>
<!-- Node3 -->
<g id="node4" class="node">
<title>Node3</title>
<g id="a_node4"><a xlink:href="structgko_1_1experimental_1_1solver_1_1Direct_1_1parameters__type.html" target="_top" xlink:title=" ">
<polygon fill="#ffffff" stroke="#000000" points="205.5,-1786.5 205.5,-1827.5 375.5,-1827.5 375.5,-1786.5 205.5,-1786.5"/>
<text text-anchor="start" x="213.5" y="-1815.5" font-family="Helvetica,sans-Serif" font-size="10.00" fill="#000000">gko::experimental::</text>
<text text-anchor="start" x="213.5" y="-1804.5" font-family="Helvetica,sans-Serif" font-size="10.00" fill="#000000">solver::Direct&lt; ValueType,</text>
<text text-anchor="middle" x="290.5" y="-1793.5" font-family="Helvetica,sans-Serif" font-size="10.00" fill="#000000"> IndexType &gt;::parameters_type</text>
</a>
</g>
</g>
<!-- Node0&#45;&gt;Node3 -->
<g id="edge3" class="edge">
<title>Node0&#45;&gt;Node3</title>
<path fill="none" stroke="#191970" d="M72.1554,-916.9207C80.431,-1066.4995 119.2237,-1710.5483 177,-1777 184.6894,-1785.844 194.6506,-1792.2287 205.4751,-1796.8125"/>
<polygon fill="#191970" stroke="#191970" points="75.6339,-916.4303 71.5916,-906.6369 68.6444,-916.8135 75.6339,-916.4303"/>
</g>
<!-- Node4 -->
<g id="node5" class="node">
<title>Node4</title>
<g id="a_node5"><a xlink:href="structgko_1_1factorization_1_1Ic_1_1parameters__type.html" target="_top" xlink:title=" ">
<polygon fill="#ffffff" stroke="#000000" points="217,-1726.5 217,-1767.5 364,-1767.5 364,-1726.5 217,-1726.5"/>
<text text-anchor="start" x="225" y="-1755.5" font-family="Helvetica,sans-Serif" font-size="10.00" fill="#000000">gko::factorization</text>
<text text-anchor="start" x="225" y="-1744.5" font-family="Helvetica,sans-Serif" font-size="10.00" fill="#000000">::Ic&lt; ValueType, IndexType</text>
<text text-anchor="middle" x="290.5" y="-1733.5" font-family="Helvetica,sans-Serif" font-size="10.00" fill="#000000"> &gt;::parameters_type</text>
</a>
</g>
</g>
<!-- Node0&#45;&gt;Node4 -->
<g id="edge4" class="edge">
<title>Node0&#45;&gt;Node4</title>
<path fill="none" stroke="#191970" d="M72.4472,-917.1077C81.7068,-1060.7505 123.0824,-1655.516 177,-1717 187.3474,-1728.7995 201.7384,-1736.2149 216.8045,-1740.8161"/>
<polygon fill="#191970" stroke="#191970" points="75.9203,-916.5733 71.7893,-906.817 68.9346,-917.02 75.9203,-916.5733"/>
</g>
<!-- Node5 -->
<g id="node6" class="node">
<title>Node5</title>
<g id="a_node6"><a xlink:href="structgko_1_1factorization_1_1Ilu_1_1parameters__type.html" target="_top" xlink:title=" ">
<polygon fill="#ffffff" stroke="#000000" points="215,-1666.5 215,-1707.5 366,-1707.5 366,-1666.5 215,-1666.5"/>
<text text-anchor="start" x="223" y="-1695.5" font-family="Helvetica,sans-Serif" font-size="10.00" fill="#000000">gko::factorization</text>
<text text-anchor="start" x="223" y="-1684.5" font-family="Helvetica,sans-Serif" font-size="10.00" fill="#000000">::Ilu&lt; ValueType, IndexType</text>
<text text-anchor="middle" x="290.5" y="-1673.5" font-family="Helvetica,sans-Serif" font-size="10.00" fill="#000000"> &gt;::parameters_type</text>
</a>
</g>
</g>
<!-- Node0&#45;&gt;Node5 -->
<g id="edge5" class="edge">
<title>Node0&#45;&gt;Node5</title>
<path fill="none" stroke="#191970" d="M72.7667,-917.0369C83.0392,-1054.0461 126.8993,-1600.4301 177,-1657 186.9321,-1668.2146 200.517,-1675.4625 214.8385,-1680.097"/>
<polygon fill="#191970" stroke="#191970" points="76.2393,-916.5369 72.0066,-906.8243 69.2586,-917.0566 76.2393,-916.5369"/>
</g>
<!-- Node6 -->
<g id="node7" class="node">
<title>Node6</title>
<g id="a_node7"><a xlink:href="structgko_1_1factorization_1_1ParIc_1_1parameters__type.html" target="_top" xlink:title=" ">
<polygon fill="#ffffff" stroke="#000000" points="205.5,-1606.5 205.5,-1647.5 375.5,-1647.5 375.5,-1606.5 205.5,-1606.5"/>
<text text-anchor="start" x="213.5" y="-1635.5" font-family="Helvetica,sans-Serif" font-size="10.00" fill="#000000">gko::factorization</text>
<text text-anchor="start" x="213.5" y="-1624.5" font-family="Helvetica,sans-Serif" font-size="10.00" fill="#000000">::ParIc&lt; ValueType,</text>
<text text-anchor="middle" x="290.5" y="-1613.5" font-family="Helvetica,sans-Serif" font-size="10.00" fill="#000000"> IndexType &gt;::parameters_type</text>
</a>
</g>
</g>
<!-- Node0&#45;&gt;Node6 -->
<g id="edge6" class="edge">
<title>Node0&#45;&gt;Node6</title>
<path fill="none" stroke="#191970" d="M73.1147,-916.6914C84.4266,-1046.3948 130.6738,-1545.2899 177,-1597 184.752,-1605.6529 194.6788,-1611.9398 205.4276,-1616.4854"/>
<polygon fill="#191970" stroke="#191970" points="76.5945,-916.3065 72.2442,-906.646 69.6207,-916.9108 76.5945,-916.3065"/>
</g>
<!-- Node7 -->
<g id="node8" class="node">
<title>Node7</title>
<g id="a_node8"><a xlink:href="structgko_1_1factorization_1_1ParIct_1_1parameters__type.html" target="_top" xlink:title=" ">
<polygon fill="#ffffff" stroke="#000000" points="205.5,-1546.5 205.5,-1587.5 375.5,-1587.5 375.5,-1546.5 205.5,-1546.5"/>
<text text-anchor="start" x="213.5" y="-1575.5" font-family="Helvetica,sans-Serif" font-size="10.00" fill="#000000">gko::factorization</text>
<text text-anchor="start" x="213.5" y="-1564.5" font-family="Helvetica,sans-Serif" font-size="10.00" fill="#000000">::ParIct&lt; ValueType,</text>
<text text-anchor="middle" x="290.5" y="-1553.5" font-family="Helvetica,sans-Serif" font-size="10.00" fill="#000000"> IndexType &gt;::parameters_type</text>
</a>
</g>
</g>
<!-- Node0&#45;&gt;Node7 -->
<g id="edge7" class="edge">
<title>Node0&#45;&gt;Node7</title>
<path fill="none" stroke="#191970" d="M71.2404,-916.7955C74.6651,-1033.1521 92.6342,-1444.0966 177,-1537 184.7416,-1545.525 194.5946,-1551.7484 205.2499,-1556.2707"/>
<polygon fill="#191970" stroke="#191970" points="74.7385,-916.6764 70.9606,-906.778 67.7413,-916.8719 74.7385,-916.6764"/>
</g>
<!-- Node8 -->
<g id="node9" class="node">
<title>Node8</title>
<g id="a_node9"><a xlink:href="structgko_1_1factorization_1_1ParIlu_1_1parameters__type.html" target="_top" xlink:title=" ">
<polygon fill="#ffffff" stroke="#000000" points="205.5,-1486.5 205.5,-1527.5 375.5,-1527.5 375.5,-1486.5 205.5,-1486.5"/>
<text text-anchor="start" x="213.5" y="-1515.5" font-family="Helvetica,sans-Serif" font-size="10.00" fill="#000000">gko::factorization</text>
<text text-anchor="start" x="213.5" y="-1504.5" font-family="Helvetica,sans-Serif" font-size="10.00" fill="#000000">::ParIlu&lt; ValueType,</text>
<text text-anchor="middle" x="290.5" y="-1493.5" font-family="Helvetica,sans-Serif" font-size="10.00" fill="#000000"> IndexType &gt;::parameters_type</text>
</a>
</g>
</g>
<!-- Node0&#45;&gt;Node8 -->
<g id="edge8" class="edge">
<title>Node0&#45;&gt;Node8</title>
<path fill="none" stroke="#191970" d="M71.8011,-916.7805C77.0455,-1026.1297 100.1868,-1393.7723 177,-1477 184.8101,-1485.4623 194.7014,-1491.6506 205.3747,-1496.1565"/>
<polygon fill="#191970" stroke="#191970" points="75.2949,-916.563 71.3354,-906.7359 68.3024,-916.8873 75.2949,-916.563"/>
</g>
<!-- Node9 -->
<g id="node10" class="node">
<title>Node9</title>
<g id="a_node10"><a xlink:href="structgko_1_1factorization_1_1ParIlut_1_1parameters__type.html" target="_top" xlink:title=" ">
<polygon fill="#ffffff" stroke="#000000" points="205.5,-1426.5 205.5,-1467.5 375.5,-1467.5 375.5,-1426.5 205.5,-1426.5"/>
<text text-anchor="start" x="213.5" y="-1455.5" font-family="Helvetica,sans-Serif" font-size="10.00" fill="#000000">gko::factorization</text>
<text text-anchor="start" x="213.5" y="-1444.5" font-family="Helvetica,sans-Serif" font-size="10.00" fill="#000000">::ParIlut&lt; ValueType,</text>
<text text-anchor="middle" x="290.5" y="-1433.5" font-family="Helvetica,sans-Serif" font-size="10.00" fill="#000000"> IndexType &gt;::parameters_type</text>
</a>
</g>
</g>
<!-- Node0&#45;&gt;Node9 -->
<g id="edge9" class="edge">
<title>Node0&#45;&gt;Node9</title>
<path fill="none" stroke="#191970" d="M72.4974,-916.9499C79.7122,-1019.1358 107.7484,-1343.4289 177,-1417 184.823,-1425.311 194.6546,-1431.4214 205.2417,-1435.8964"/>
<polygon fill="#191970" stroke="#191970" points="75.9695,-916.4232 71.7907,-906.6873 68.9861,-916.9041 75.9695,-916.4232"/>
</g>
<!-- Node10 -->
<g id="node11" class="node">
<title>Node10</title>
<g id="a_node11"><a xlink:href="structgko_1_1multigrid_1_1FixedCoarsening_1_1parameters__type.html" target="_top" xlink:title=" ">
<polygon fill="#ffffff" stroke="#000000" points="205,-1366.5 205,-1407.5 376,-1407.5 376,-1366.5 205,-1366.5"/>
<text text-anchor="start" x="213" y="-1395.5" font-family="Helvetica,sans-Serif" font-size="10.00" fill="#000000">gko::multigrid::FixedCoarsening</text>
<text text-anchor="start" x="213" y="-1384.5" font-family="Helvetica,sans-Serif" font-size="10.00" fill="#000000">&lt; ValueType, IndexType &gt;::</text>
<text text-anchor="middle" x="290.5" y="-1373.5" font-family="Helvetica,sans-Serif" font-size="10.00" fill="#000000">parameters_type</text>
</a>
</g>
</g>
<!-- Node0&#45;&gt;Node10 -->
<g id="edge10" class="edge">
<title>Node0&#45;&gt;Node10</title>
<path fill="none" stroke="#191970" d="M73.3158,-916.5462C82.5844,-1010.5253 115.1426,-1292.8726 177,-1357 184.7825,-1365.0681 194.4598,-1371.0541 204.8587,-1375.4804"/>
<polygon fill="#191970" stroke="#191970" points="76.7948,-916.1593 72.3476,-906.5431 69.8274,-916.8338 76.7948,-916.1593"/>
</g>
<!-- Node11 -->
<g id="node12" class="node">
<title>Node11</title>
<g id="a_node12"><a xlink:href="structgko_1_1multigrid_1_1Pgm_1_1parameters__type.html" target="_top" xlink:title=" ">
<polygon fill="#ffffff" stroke="#000000" points="224,-1306.5 224,-1347.5 357,-1347.5 357,-1306.5 224,-1306.5"/>
<text text-anchor="start" x="232" y="-1335.5" font-family="Helvetica,sans-Serif" font-size="10.00" fill="#000000">gko::multigrid::Pgm</text>
<text text-anchor="start" x="232" y="-1324.5" font-family="Helvetica,sans-Serif" font-size="10.00" fill="#000000">&lt; ValueType, IndexType</text>
<text text-anchor="middle" x="290.5" y="-1313.5" font-family="Helvetica,sans-Serif" font-size="10.00" fill="#000000"> &gt;::parameters_type</text>
</a>
</g>
</g>
<!-- Node0&#45;&gt;Node11 -->
<g id="edge11" class="edge">
<title>Node0&#45;&gt;Node11</title>
<path fill="none" stroke="#191970" d="M74.4471,-916.8801C86.0443,-1002.8783 122.6504,-1242.3856 177,-1297 189.5079,-1309.5688 206.6229,-1317.0596 223.769,-1321.4722"/>
<polygon fill="#191970" stroke="#191970" points="77.8832,-916.1667 73.0969,-906.7146 70.9441,-917.0884 77.8832,-916.1667"/>
</g>
<!-- Node12 -->
<g id="node13" class="node">
<title>Node12</title>
<g id="a_node13"><a xlink:href="structgko_1_1preconditioner_1_1Ic_1_1parameters__type.html" target="_top" xlink:title=" ">
<polygon fill="#ffffff" stroke="#000000" points="212.5,-1246.5 212.5,-1287.5 368.5,-1287.5 368.5,-1246.5 212.5,-1246.5"/>
<text text-anchor="start" x="220.5" y="-1275.5" font-family="Helvetica,sans-Serif" font-size="10.00" fill="#000000">gko::preconditioner</text>
<text text-anchor="start" x="220.5" y="-1264.5" font-family="Helvetica,sans-Serif" font-size="10.00" fill="#000000">::Ic&lt; LSolverType, IndexType</text>
<text text-anchor="middle" x="290.5" y="-1253.5" font-family="Helvetica,sans-Serif" font-size="10.00" fill="#000000"> &gt;::parameters_type</text>
</a>
</g>
</g>
<!-- Node0&#45;&gt;Node12 -->
<g id="edge12" class="edge">
<title>Node0&#45;&gt;Node12</title>
<path fill="none" stroke="#191970" d="M75.9303,-916.9992C90.0403,-994.1288 130.0489,-1191.7177 177,-1237 186.8291,-1246.4797 199.2877,-1253.0523 212.3261,-1257.5902"/>
<polygon fill="#191970" stroke="#191970" points="79.3358,-916.1619 74.1132,-906.9437 72.4474,-917.4068 79.3358,-916.1619"/>
</g>
<!-- Node13 -->
<g id="node14" class="node">
<title>Node13</title>
<g id="a_node14"><a xlink:href="structgko_1_1preconditioner_1_1Ilu_1_1parameters__type.html" target="_top" xlink:title=" ">
<polygon fill="#ffffff" stroke="#000000" points="205.5,-1175 205.5,-1227 375.5,-1227 375.5,-1175 205.5,-1175"/>
<text text-anchor="start" x="213.5" y="-1215" font-family="Helvetica,sans-Serif" font-size="10.00" fill="#000000">gko::preconditioner</text>
<text text-anchor="start" x="213.5" y="-1204" font-family="Helvetica,sans-Serif" font-size="10.00" fill="#000000">::Ilu&lt; LSolverType,</text>
<text text-anchor="start" x="213.5" y="-1193" font-family="Helvetica,sans-Serif" font-size="10.00" fill="#000000"> USolverType, ReverseApply,</text>
<text text-anchor="middle" x="290.5" y="-1182" font-family="Helvetica,sans-Serif" font-size="10.00" fill="#000000"> IndexType &gt;::parameters_type</text>
</a>
</g>
</g>
<!-- Node0&#45;&gt;Node13 -->
<g id="edge13" class="edge">
<title>Node0&#45;&gt;Node13</title>
<path fill="none" stroke="#191970" d="M73.6091,-917.0951C80.9889,-974.3437 104.7489,-1096.7887 177,-1165 185.1923,-1172.7342 195.0405,-1178.807 205.4684,-1183.5751"/>
<polygon fill="#191970" stroke="#191970" points="77.0484,-916.3803 72.3778,-906.8706 70.0987,-917.2174 77.0484,-916.3803"/>
</g>
<!-- Node14 -->
<g id="node15" class="node">
<title>Node14</title>
<g id="a_node15"><a xlink:href="structgko_1_1preconditioner_1_1Isai_1_1parameters__type.html" target="_top" xlink:title=" ">
<polygon fill="#ffffff" stroke="#000000" points="205.5,-1114.5 205.5,-1155.5 375.5,-1155.5 375.5,-1114.5 205.5,-1114.5"/>
<text text-anchor="start" x="213.5" y="-1143.5" font-family="Helvetica,sans-Serif" font-size="10.00" fill="#000000">gko::preconditioner</text>
<text text-anchor="start" x="213.5" y="-1132.5" font-family="Helvetica,sans-Serif" font-size="10.00" fill="#000000">::Isai&lt; IsaiType, ValueType,</text>
<text text-anchor="middle" x="290.5" y="-1121.5" font-family="Helvetica,sans-Serif" font-size="10.00" fill="#000000"> IndexType &gt;::parameters_type</text>
</a>
</g>
</g>
<!-- Node0&#45;&gt;Node14 -->
<g id="edge14" class="edge">
<title>Node0&#45;&gt;Node14</title>
<path fill="none" stroke="#191970" d="M76.8488,-916.7996C88.307,-964.453 117.0448,-1055.6892 177,-1105 185.3429,-1111.8617 195.0962,-1117.1682 205.3183,-1121.2691"/>
<polygon fill="#191970" stroke="#191970" points="80.1946,-915.7317 74.5396,-906.7723 73.3732,-917.3028 80.1946,-915.7317"/>
</g>
<!-- Node15 -->
<g id="node16" class="node">
<title>Node15</title>
<g id="a_node16"><a xlink:href="structgko_1_1preconditioner_1_1Jacobi_1_1parameters__type.html" target="_top" xlink:title=" ">
<polygon fill="#ffffff" stroke="#000000" points="205.5,-1054.5 205.5,-1095.5 375.5,-1095.5 375.5,-1054.5 205.5,-1054.5"/>
<text text-anchor="start" x="213.5" y="-1083.5" font-family="Helvetica,sans-Serif" font-size="10.00" fill="#000000">gko::preconditioner</text>
<text text-anchor="start" x="213.5" y="-1072.5" font-family="Helvetica,sans-Serif" font-size="10.00" fill="#000000">::Jacobi&lt; ValueType,</text>
<text text-anchor="middle" x="290.5" y="-1061.5" font-family="Helvetica,sans-Serif" font-size="10.00" fill="#000000"> IndexType &gt;::parameters_type</text>
</a>
</g>
</g>
<!-- Node0&#45;&gt;Node15 -->
<g id="edge15" class="edge">
<title>Node0&#45;&gt;Node15</title>
<path fill="none" stroke="#191970" d="M82.6481,-916.0807C98.7914,-952.2 130.7636,-1012.0254 177,-1045 185.5458,-1051.0947 195.2467,-1055.9513 205.292,-1059.8214"/>
<polygon fill="#191970" stroke="#191970" points="85.7091,-914.3425 78.5159,-906.5638 79.2882,-917.1305 85.7091,-914.3425"/>
</g>
<!-- Node16 -->
<g id="node17" class="node">
<title>Node16</title>
<g id="a_node17"><a xlink:href="structgko_1_1reorder_1_1Rcm_1_1parameters__type.html" target="_top" xlink:title=" ">
<polygon fill="#ffffff" stroke="#000000" points="228,-994.5 228,-1035.5 353,-1035.5 353,-994.5 228,-994.5"/>
<text text-anchor="start" x="236" y="-1023.5" font-family="Helvetica,sans-Serif" font-size="10.00" fill="#000000">gko::reorder::Rcm&lt;</text>
<text text-anchor="start" x="236" y="-1012.5" font-family="Helvetica,sans-Serif" font-size="10.00" fill="#000000"> ValueType, IndexType</text>
<text text-anchor="middle" x="290.5" y="-1001.5" font-family="Helvetica,sans-Serif" font-size="10.00" fill="#000000"> &gt;::parameters_type</text>
</a>
</g>
</g>
<!-- Node0&#45;&gt;Node16 -->
<g id="edge16" class="edge">
<title>Node0&#45;&gt;Node16</title>
<path fill="none" stroke="#191970" d="M93.7015,-914.1424C113.5927,-936.4953 144.1691,-966.908 177,-985 192.53,-993.5581 210.613,-999.7642 227.7202,-1004.2285"/>
<polygon fill="#191970" stroke="#191970" points="96.337,-911.8392 87.1252,-906.6054 91.0625,-916.4414 96.337,-911.8392"/>
</g>
<!-- Node17 -->
<g id="node18" class="node">
<title>Node17</title>
<g id="a_node18"><a xlink:href="structgko_1_1solver_1_1Bicg_1_1parameters__type.html" target="_top" xlink:title=" ">
<polygon fill="#ffffff" stroke="#000000" points="205.5,-945 205.5,-975 375.5,-975 375.5,-945 205.5,-945"/>
<text text-anchor="start" x="213.5" y="-963" font-family="Helvetica,sans-Serif" font-size="10.00" fill="#000000">gko::solver::Bicg&lt;</text>
<text text-anchor="middle" x="290.5" y="-952" font-family="Helvetica,sans-Serif" font-size="10.00" fill="#000000"> ValueType &gt;::parameters_type</text>
</a>
</g>
</g>
<!-- Node0&#45;&gt;Node17 -->
<g id="edge17" class="edge">
<title>Node0&#45;&gt;Node17</title>
<path fill="none" stroke="#191970" d="M118.208,-911.2705C136.2511,-920.0561 157.2111,-929.3617 177,-936 187.0248,-939.3629 197.7113,-942.3558 208.3666,-944.9891"/>
<polygon fill="#191970" stroke="#191970" points="119.5748,-908.0417 109.0602,-906.7404 116.4684,-914.3147 119.5748,-908.0417"/>
</g>
<!-- Node18 -->
<g id="node19" class="node">
<title>Node18</title>
<g id="a_node19"><a xlink:href="structgko_1_1solver_1_1Bicgstab_1_1parameters__type.html" target="_top" xlink:title=" ">
<polygon fill="#ffffff" stroke="#000000" points="201.5,-896 201.5,-926 379.5,-926 379.5,-896 201.5,-896"/>
<text text-anchor="start" x="209.5" y="-914" font-family="Helvetica,sans-Serif" font-size="10.00" fill="#000000">gko::solver::Bicgstab</text>
<text text-anchor="middle" x="290.5" y="-903" font-family="Helvetica,sans-Serif" font-size="10.00" fill="#000000">&lt; ValueType &gt;::parameters_type</text>
</a>
</g>
</g>
<!-- Node0&#45;&gt;Node18 -->
<g id="edge18" class="edge">
<title>Node0&#45;&gt;Node18</title>
<path fill="none" stroke="#191970" d="M151.0824,-895.1571C167.4659,-897.0189 184.7891,-898.9874 201.4468,-900.8803"/>
<polygon fill="#191970" stroke="#191970" points="151.3484,-891.6649 141.0172,-894.0133 150.558,-898.6201 151.3484,-891.6649"/>
</g>
<!-- Node19 -->
<g id="node20" class="node">
<title>Node19</title>
<g id="a_node20"><a xlink:href="structgko_1_1solver_1_1CbGmres_1_1parameters__type.html" target="_top" xlink:title=" ">
<polygon fill="#ffffff" stroke="#000000" points="201.5,-847 201.5,-877 379.5,-877 379.5,-847 201.5,-847"/>
<text text-anchor="start" x="209.5" y="-865" font-family="Helvetica,sans-Serif" font-size="10.00" fill="#000000">gko::solver::CbGmres</text>
<text text-anchor="middle" x="290.5" y="-854" font-family="Helvetica,sans-Serif" font-size="10.00" fill="#000000">&lt; ValueType &gt;::parameters_type</text>
</a>
</g>
</g>
<!-- Node0&#45;&gt;Node19 -->
<g id="edge19" class="edge">
<title>Node0&#45;&gt;Node19</title>
<path fill="none" stroke="#191970" d="M151.0824,-877.2092C167.4659,-875.4219 184.7891,-873.5321 201.4468,-871.7149"/>
<polygon fill="#191970" stroke="#191970" points="150.5786,-873.7433 141.0172,-878.3072 151.3378,-880.702 150.5786,-873.7433"/>
</g>
<!-- Node20 -->
<g id="node21" class="node">
<title>Node20</title>
<g id="a_node21"><a xlink:href="structgko_1_1solver_1_1Cg_1_1parameters__type.html" target="_top" xlink:title=" ">
<polygon fill="#ffffff" stroke="#000000" points="215.5,-798 215.5,-828 365.5,-828 365.5,-798 215.5,-798"/>
<text text-anchor="start" x="223.5" y="-816" font-family="Helvetica,sans-Serif" font-size="10.00" fill="#000000">gko::solver::Cg&lt; ValueType</text>
<text text-anchor="middle" x="290.5" y="-805" font-family="Helvetica,sans-Serif" font-size="10.00" fill="#000000"> &gt;::parameters_type</text>
</a>
</g>
</g>
<!-- Node0&#45;&gt;Node20 -->
<g id="edge20" class="edge">
<title>Node0&#45;&gt;Node20</title>
<path fill="none" stroke="#191970" d="M120.4099,-860.9379C137.9845,-852.8059 158.0774,-844.2733 177,-838 189.2574,-833.9364 202.4798,-830.3421 215.4187,-827.2364"/>
<polygon fill="#191970" stroke="#191970" points="118.488,-857.974 110.9288,-865.3976 121.4675,-864.3083 118.488,-857.974"/>
</g>
<!-- Node21 -->
<g id="node22" class="node">
<title>Node21</title>
<g id="a_node22"><a xlink:href="structgko_1_1solver_1_1Cgs_1_1parameters__type.html" target="_top" xlink:title=" ">
<polygon fill="#ffffff" stroke="#000000" points="213,-749 213,-779 368,-779 368,-749 213,-749"/>
<text text-anchor="start" x="221" y="-767" font-family="Helvetica,sans-Serif" font-size="10.00" fill="#000000">gko::solver::Cgs&lt; ValueType</text>
<text text-anchor="middle" x="290.5" y="-756" font-family="Helvetica,sans-Serif" font-size="10.00" fill="#000000"> &gt;::parameters_type</text>
</a>
</g>
</g>
<!-- Node0&#45;&gt;Node21 -->
<g id="edge21" class="edge">
<title>Node0&#45;&gt;Node21</title>
<path fill="none" stroke="#191970" d="M94.2441,-857.392C114.1026,-835.3596 144.3637,-805.8987 177,-789 188.109,-783.2479 200.4944,-778.8156 212.8864,-775.4012"/>
<polygon fill="#191970" stroke="#191970" points="91.4035,-855.3214 87.4133,-865.1361 96.6532,-859.9519 91.4035,-855.3214"/>
</g>
<!-- Node22 -->
<g id="node23" class="node">
<title>Node22</title>
<g id="a_node23"><a xlink:href="structgko_1_1solver_1_1Fcg_1_1parameters__type.html" target="_top" xlink:title=" ">
<polygon fill="#ffffff" stroke="#000000" points="213.5,-700 213.5,-730 367.5,-730 367.5,-700 213.5,-700"/>
<text text-anchor="start" x="221.5" y="-718" font-family="Helvetica,sans-Serif" font-size="10.00" fill="#000000">gko::solver::Fcg&lt; ValueType</text>
<text text-anchor="middle" x="290.5" y="-707" font-family="Helvetica,sans-Serif" font-size="10.00" fill="#000000"> &gt;::parameters_type</text>
</a>
</g>
</g>
<!-- Node0&#45;&gt;Node22 -->
<g id="edge22" class="edge">
<title>Node0&#45;&gt;Node22</title>
<path fill="none" stroke="#191970" d="M84.1192,-856.0045C101.0001,-822.3557 133.0128,-768.7367 177,-740 187.8953,-732.8821 200.5054,-727.764 213.2746,-724.0897"/>
<polygon fill="#191970" stroke="#191970" points="80.8029,-854.8199 79.5655,-865.3422 87.0946,-857.8882 80.8029,-854.8199"/>
</g>
<!-- Node23 -->
<g id="node24" class="node">
<title>Node23</title>
<g id="a_node24"><a xlink:href="structgko_1_1solver_1_1Gmres_1_1parameters__type.html" target="_top" xlink:title=" ">
<polygon fill="#ffffff" stroke="#000000" points="201.5,-651 201.5,-681 379.5,-681 379.5,-651 201.5,-651"/>
<text text-anchor="start" x="209.5" y="-669" font-family="Helvetica,sans-Serif" font-size="10.00" fill="#000000">gko::solver::Gmres</text>
<text text-anchor="middle" x="290.5" y="-658" font-family="Helvetica,sans-Serif" font-size="10.00" fill="#000000">&lt; ValueType &gt;::parameters_type</text>
</a>
</g>
</g>
<!-- Node0&#45;&gt;Node23 -->
<g id="edge23" class="edge">
<title>Node0&#45;&gt;Node23</title>
<path fill="none" stroke="#191970" d="M78.3891,-855.7126C91.3543,-812.2094 121.4481,-732.6948 177,-691 184.3425,-685.489 192.6605,-681.1473 201.3751,-677.7332"/>
<polygon fill="#191970" stroke="#191970" points="74.991,-854.8655 75.5968,-865.443 81.7194,-856.7964 74.991,-854.8655"/>
</g>
<!-- Node24 -->
<g id="node25" class="node">
<title>Node24</title>
<g id="a_node25"><a xlink:href="structgko_1_1solver_1_1Idr_1_1parameters__type.html" target="_top" xlink:title=" ">
<polygon fill="#ffffff" stroke="#000000" points="215.5,-602 215.5,-632 365.5,-632 365.5,-602 215.5,-602"/>
<text text-anchor="start" x="223.5" y="-620" font-family="Helvetica,sans-Serif" font-size="10.00" fill="#000000">gko::solver::Idr&lt; ValueType</text>
<text text-anchor="middle" x="290.5" y="-609" font-family="Helvetica,sans-Serif" font-size="10.00" fill="#000000"> &gt;::parameters_type</text>
</a>
</g>
</g>
<!-- Node0&#45;&gt;Node24 -->
<g id="edge24" class="edge">
<title>Node0&#45;&gt;Node24</title>
<path fill="none" stroke="#191970" d="M74.8358,-855.2156C83.8907,-802.9552 109.8578,-697.1922 177,-642 187.9888,-632.967 201.533,-627.0132 215.3918,-623.1277"/>
<polygon fill="#191970" stroke="#191970" points="71.3595,-854.7868 73.1972,-865.221 78.2675,-855.9182 71.3595,-854.7868"/>
</g>
<!-- Node25 -->
<g id="node26" class="node">
<title>Node25</title>
<g id="a_node26"><a xlink:href="structgko_1_1solver_1_1Ir_1_1parameters__type.html" target="_top" xlink:title=" ">
<polygon fill="#ffffff" stroke="#000000" points="218.5,-553 218.5,-583 362.5,-583 362.5,-553 218.5,-553"/>
<text text-anchor="start" x="226.5" y="-571" font-family="Helvetica,sans-Serif" font-size="10.00" fill="#000000">gko::solver::Ir&lt; ValueType</text>
<text text-anchor="middle" x="290.5" y="-560" font-family="Helvetica,sans-Serif" font-size="10.00" fill="#000000"> &gt;::parameters_type</text>
</a>
</g>
</g>
<!-- Node0&#45;&gt;Node25 -->
<g id="edge25" class="edge">
<title>Node0&#45;&gt;Node25</title>
<path fill="none" stroke="#191970" d="M72.2906,-855.251C77.5154,-795.2344 97.8888,-662.3135 177,-593 188.6098,-582.828 203.4163,-576.503 218.4722,-572.634"/>
<polygon fill="#191970" stroke="#191970" points="68.7996,-854.9995 71.5038,-865.2434 75.778,-855.549 68.7996,-854.9995"/>
</g>
<!-- Node26 -->
<g id="node27" class="node">
<title>Node26</title>
<g id="a_node27"><a xlink:href="structgko_1_1solver_1_1LowerTrs_1_1parameters__type.html" target="_top" xlink:title=" ">
<polygon fill="#ffffff" stroke="#000000" points="224,-492.5 224,-533.5 357,-533.5 357,-492.5 224,-492.5"/>
<text text-anchor="start" x="232" y="-521.5" font-family="Helvetica,sans-Serif" font-size="10.00" fill="#000000">gko::solver::LowerTrs</text>
<text text-anchor="start" x="232" y="-510.5" font-family="Helvetica,sans-Serif" font-size="10.00" fill="#000000">&lt; ValueType, IndexType</text>
<text text-anchor="middle" x="290.5" y="-499.5" font-family="Helvetica,sans-Serif" font-size="10.00" fill="#000000"> &gt;::parameters_type</text>
</a>
</g>
</g>
<!-- Node0&#45;&gt;Node26 -->
<g id="edge26" class="edge">
<title>Node0&#45;&gt;Node26</title>
<path fill="none" stroke="#191970" d="M76.1659,-855.2828C90.6781,-779.7953 131.2772,-588.1383 177,-544 189.7122,-531.7283 206.792,-524.2103 223.8366,-519.6346"/>
<polygon fill="#191970" stroke="#191970" points="72.722,-854.6584 74.2935,-865.136 79.5989,-855.9652 72.722,-854.6584"/>
</g>
<!-- Node27 -->
<g id="node28" class="node">
<title>Node27</title>
<g id="a_node28"><a xlink:href="structgko_1_1solver_1_1Multigrid_1_1parameters__type.html" target="_top" xlink:title=" ">
<polygon fill="#ffffff" stroke="#000000" points="231,-443 231,-473 350,-473 350,-443 231,-443"/>
<text text-anchor="start" x="239" y="-461" font-family="Helvetica,sans-Serif" font-size="10.00" fill="#000000">gko::solver::Multigrid</text>
<text text-anchor="middle" x="290.5" y="-450" font-family="Helvetica,sans-Serif" font-size="10.00" fill="#000000">::parameters_type</text>
</a>
</g>
</g>
<!-- Node0&#45;&gt;Node27 -->
<g id="edge27" class="edge">
<title>Node0&#45;&gt;Node27</title>
<path fill="none" stroke="#191970" d="M74.4628,-855.3096C86.0402,-770.4219 122.4737,-535.306 177,-483 191.3424,-469.2416 211.4509,-462.3696 230.7651,-459.1216"/>
<polygon fill="#191970" stroke="#191970" points="70.9765,-854.9741 73.1142,-865.3511 77.9142,-855.9059 70.9765,-854.9741"/>
</g>
<!-- Node28 -->
<g id="node29" class="node">
<title>Node28</title>
<g id="a_node29"><a xlink:href="structgko_1_1solver_1_1UpperTrs_1_1parameters__type.html" target="_top" xlink:title=" ">
<polygon fill="#ffffff" stroke="#000000" points="224,-382.5 224,-423.5 357,-423.5 357,-382.5 224,-382.5"/>
<text text-anchor="start" x="232" y="-411.5" font-family="Helvetica,sans-Serif" font-size="10.00" fill="#000000">gko::solver::UpperTrs</text>
<text text-anchor="start" x="232" y="-400.5" font-family="Helvetica,sans-Serif" font-size="10.00" fill="#000000">&lt; ValueType, IndexType</text>
<text text-anchor="middle" x="290.5" y="-389.5" font-family="Helvetica,sans-Serif" font-size="10.00" fill="#000000"> &gt;::parameters_type</text>
</a>
</g>
</g>
<!-- Node0&#45;&gt;Node28 -->
<g id="edge28" class="edge">
<title>Node0&#45;&gt;Node28</title>
<path fill="none" stroke="#191970" d="M73.6504,-855.4922C83.6821,-764.1492 117.7516,-495.3732 177,-434 189.4138,-421.141 206.6012,-413.4508 223.8489,-408.8982"/>
<polygon fill="#191970" stroke="#191970" points="70.1653,-855.1658 72.5717,-865.4837 77.1249,-855.9172 70.1653,-855.1658"/>
</g>
<!-- Node29 -->
<g id="node30" class="node">
<title>Node29</title>
<g id="a_node30"><a xlink:href="structgko_1_1stop_1_1AbsoluteResidualNorm_1_1parameters__type.html" target="_top" xlink:title=" ">
<polygon fill="#ffffff" stroke="#000000" points="188,-333 188,-363 393,-363 393,-333 188,-333"/>
<text text-anchor="start" x="196" y="-351" font-family="Helvetica,sans-Serif" font-size="10.00" fill="#000000">gko::stop::AbsoluteResidual</text>
<text text-anchor="middle" x="290.5" y="-340" font-family="Helvetica,sans-Serif" font-size="10.00" fill="#000000">Norm&lt; ValueType &gt;::parameters_type</text>
</a>
</g>
</g>
<!-- Node0&#45;&gt;Node29 -->
<g id="edge29" class="edge">
<title>Node0&#45;&gt;Node29</title>
<path fill="none" stroke="#191970" d="M72.59,-855.3095C80.0177,-755.4722 108.4565,-442.3785 177,-373 180.7579,-369.1963 184.954,-365.9122 189.4574,-363.0809"/>
<polygon fill="#191970" stroke="#191970" points="69.0943,-855.1242 71.8608,-865.3514 76.076,-855.6312 69.0943,-855.1242"/>
</g>
<!-- Node30 -->
<g id="node31" class="node">
<title>Node30</title>
<g id="a_node31"><a xlink:href="structgko_1_1stop_1_1Combined_1_1parameters__type.html" target="_top" xlink:title=" ">
<polygon fill="#ffffff" stroke="#000000" points="232,-284 232,-314 349,-314 349,-284 232,-284"/>
<text text-anchor="start" x="240" y="-302" font-family="Helvetica,sans-Serif" font-size="10.00" fill="#000000">gko::stop::Combined</text>
<text text-anchor="middle" x="290.5" y="-291" font-family="Helvetica,sans-Serif" font-size="10.00" fill="#000000">::parameters_type</text>
</a>
</g>
</g>
<!-- Node0&#45;&gt;Node30 -->
<g id="edge30" class="edge">
<title>Node0&#45;&gt;Node30</title>
<path fill="none" stroke="#191970" d="M71.99,-855.2349C77.7618,-749.174 102.1792,-401.0629 177,-324 191.2661,-309.3064 212.0618,-302.3343 231.9668,-299.2708"/>
<polygon fill="#191970" stroke="#191970" points="68.4916,-855.1147 71.4601,-865.2852 75.4819,-855.4834 68.4916,-855.1147"/>
</g>
<!-- Node31 -->
<g id="node32" class="node">
<title>Node31</title>
<g id="a_node32"><a xlink:href="structgko_1_1stop_1_1ImplicitResidualNorm_1_1parameters__type.html" target="_top" xlink:title=" ">
<polygon fill="#ffffff" stroke="#000000" points="188,-235 188,-265 393,-265 393,-235 188,-235"/>
<text text-anchor="start" x="196" y="-253" font-family="Helvetica,sans-Serif" font-size="10.00" fill="#000000">gko::stop::ImplicitResidual</text>
<text text-anchor="middle" x="290.5" y="-242" font-family="Helvetica,sans-Serif" font-size="10.00" fill="#000000">Norm&lt; ValueType &gt;::parameters_type</text>
</a>
</g>
</g>
<!-- Node0&#45;&gt;Node31 -->
<g id="edge31" class="edge">
<title>Node0&#45;&gt;Node31</title>
<path fill="none" stroke="#191970" d="M71.4805,-855.2008C75.6853,-743.2169 95.8682,-359.8021 177,-275 180.6266,-271.2093 184.6873,-267.9308 189.0565,-265.0994"/>
<polygon fill="#191970" stroke="#191970" points="67.9732,-855.3447 71.112,-865.4639 74.9687,-855.596 67.9732,-855.3447"/>
</g>
<!-- Node32 -->
<g id="node33" class="node">
<title>Node32</title>
<g id="a_node33"><a xlink:href="structgko_1_1stop_1_1Iteration_1_1parameters__type.html" target="_top" xlink:title=" ">
<polygon fill="#ffffff" stroke="#000000" points="236,-186 236,-216 345,-216 345,-186 236,-186"/>
<text text-anchor="start" x="244" y="-204" font-family="Helvetica,sans-Serif" font-size="10.00" fill="#000000">gko::stop::Iteration</text>
<text text-anchor="middle" x="290.5" y="-193" font-family="Helvetica,sans-Serif" font-size="10.00" fill="#000000">::parameters_type</text>
</a>
</g>
</g>
<!-- Node0&#45;&gt;Node32 -->
<g id="edge32" class="edge">
<title>Node0&#45;&gt;Node32</title>
<path fill="none" stroke="#191970" d="M71.0464,-855.0625C73.7736,-737.2384 89.5619,-318.5529 177,-226 192.0342,-210.0864 214.7126,-203.1713 235.855,-200.4856"/>
<polygon fill="#191970" stroke="#191970" points="67.5443,-855.1253 70.8274,-865.1986 74.5427,-855.2766 67.5443,-855.1253"/>
</g>
<!-- Node33 -->
<g id="node34" class="node">
<title>Node33</title>
<g id="a_node34"><a xlink:href="structgko_1_1stop_1_1RelativeResidualNorm_1_1parameters__type.html" target="_top" xlink:title=" ">
<polygon fill="#ffffff" stroke="#000000" points="188,-137 188,-167 393,-167 393,-137 188,-137"/>
<text text-anchor="start" x="196" y="-155" font-family="Helvetica,sans-Serif" font-size="10.00" fill="#000000">gko::stop::RelativeResidual</text>
<text text-anchor="middle" x="290.5" y="-144" font-family="Helvetica,sans-Serif" font-size="10.00" fill="#000000">Norm&lt; ValueType &gt;::parameters_type</text>
</a>
</g>
</g>
<!-- Node0&#45;&gt;Node33 -->
<g id="edge33" class="edge">
<title>Node0&#45;&gt;Node33</title>
<path fill="none" stroke="#191970" d="M73.0661,-855.3447C84.1791,-725.8002 129.7281,-227.5859 177,-177 180.4441,-173.3145 184.2979,-170.1103 188.4486,-167.3287"/>
<polygon fill="#191970" stroke="#191970" points="69.5729,-855.1168 72.2112,-865.3779 76.5476,-855.7112 69.5729,-855.1168"/>
</g>
<!-- Node34 -->
<g id="node35" class="node">
<title>Node34</title>
<g id="a_node35"><a xlink:href="structgko_1_1stop_1_1ResidualNorm_1_1parameters__type.html" target="_top" xlink:title=" ">
<polygon fill="#ffffff" stroke="#000000" points="201.5,-88 201.5,-118 379.5,-118 379.5,-88 201.5,-88"/>
<text text-anchor="start" x="209.5" y="-106" font-family="Helvetica,sans-Serif" font-size="10.00" fill="#000000">gko::stop::ResidualNorm</text>
<text text-anchor="middle" x="290.5" y="-95" font-family="Helvetica,sans-Serif" font-size="10.00" fill="#000000">&lt; ValueType &gt;::parameters_type</text>
</a>
</g>
</g>
<!-- Node0&#45;&gt;Node34 -->
<g id="edge34" class="edge">
<title>Node0&#45;&gt;Node34</title>
<path fill="none" stroke="#191970" d="M72.7485,-855.4349C82.943,-720.5154 126.5181,-182.5385 177,-128 183.7845,-120.6703 192.1889,-115.2404 201.333,-111.2497"/>
<polygon fill="#191970" stroke="#191970" points="69.252,-855.2581 71.9942,-865.4919 76.2324,-855.7817 69.252,-855.2581"/>
</g>
<!-- Node35 -->
<g id="node36" class="node">
<title>Node35</title>
<g id="a_node36"><a xlink:href="structgko_1_1stop_1_1ResidualNormReduction_1_1parameters__type.html" target="_top" xlink:title=" ">
<polygon fill="#ffffff" stroke="#000000" points="198.5,-39 198.5,-69 382.5,-69 382.5,-39 198.5,-39"/>
<text text-anchor="start" x="206.5" y="-57" font-family="Helvetica,sans-Serif" font-size="10.00" fill="#000000">gko::stop::ResidualNormReduction</text>
<text text-anchor="middle" x="290.5" y="-46" font-family="Helvetica,sans-Serif" font-size="10.00" fill="#000000">&lt; ValueType &gt;::parameters_type</text>
</a>
</g>
</g>
<!-- Node0&#45;&gt;Node35 -->
<g id="edge35" class="edge">
<title>Node0&#45;&gt;Node35</title>
<path fill="none" stroke="#191970" d="M72.486,-855.283C81.8432,-714.7583 123.3312,-137.4708 177,-79 183.0034,-72.4595 190.296,-67.4288 198.2573,-63.582"/>
<polygon fill="#191970" stroke="#191970" points="68.9872,-855.1508 71.8204,-865.3597 75.972,-855.6122 68.9872,-855.1508"/>
</g>
<!-- Node36 -->
<g id="node37" class="node">
<title>Node36</title>
<g id="a_node37"><a xlink:href="structgko_1_1stop_1_1Time_1_1parameters__type.html" target="_top" xlink:title=" ">
<polygon fill="#ffffff" stroke="#000000" points="199.5,-.5 199.5,-19.5 381.5,-19.5 381.5,-.5 199.5,-.5"/>
<text text-anchor="middle" x="290.5" y="-7.5" font-family="Helvetica,sans-Serif" font-size="10.00" fill="#000000">gko::stop::Time::parameters_type</text>
</a>
</g>
</g>
<!-- Node0&#45;&gt;Node36 -->
<g id="edge36" class="edge">
<title>Node0&#45;&gt;Node36</title>
<path fill="none" stroke="#191970" d="M72.1865,-855.2521C80.4696,-709.3333 118.8059,-91.2184 177,-30 183.3413,-23.3292 191.0683,-18.4099 199.4783,-14.8282"/>
<polygon fill="#191970" stroke="#191970" points="68.6883,-855.1229 71.6212,-865.3036 75.6772,-855.516 68.6883,-855.1229"/>
</g>
</g>
</svg>
