<?xml version="1.0" encoding="UTF-8" standalone="no"?>
<!DOCTYPE svg PUBLIC "-//W3C//DTD SVG 1.1//EN"
 "http://www.w3.org/Graphics/SVG/1.1/DTD/svg11.dtd">
<!-- Generated by graphviz version 2.40.1 (20161225.0304)
 -->
<!-- Title: Graphical Class Hierarchy Pages: 1 -->
<svg width="1047pt" height="1754pt"
 viewBox="0.00 0.00 1047.00 1754.00" xmlns="http://www.w3.org/2000/svg" xmlns:xlink="http://www.w3.org/1999/xlink">
<g id="graph0" class="graph" transform="scale(1 1) rotate(0) translate(4 1750)">
<title>Graphical Class Hierarchy</title>
<polygon fill="#ffffff" stroke="transparent" points="-4,4 -4,-1750 1043,-1750 1043,4 -4,4"/>
<!-- Node552 -->
<g id="node1" class="node">
<title>Node552</title>
<g id="a_node1"><a xlink:href="classgko_1_1ConvertibleTo.html" target="_top" xlink:title=" ">
<polygon fill="#ffffff" stroke="#000000" points="178.5,-787 178.5,-817 296.5,-817 296.5,-787 178.5,-787"/>
<text text-anchor="start" x="186.5" y="-805" font-family="Helvetica,sans-Serif" font-size="10.00" fill="#000000">gko::ConvertibleTo</text>
<text text-anchor="middle" x="237.5" y="-794" font-family="Helvetica,sans-Serif" font-size="10.00" fill="#000000">&lt; ConcreteFactory &gt;</text>
</a>
</g>
</g>
<!-- Node553 -->
<g id="node2" class="node">
<title>Node553</title>
<g id="a_node2"><a xlink:href="classgko_1_1EnablePolymorphicAssignment.html" target="_top" xlink:title=" ">
<polygon fill="#ffffff" stroke="#000000" points="382.5,-787 382.5,-817 574.5,-817 574.5,-787 382.5,-787"/>
<text text-anchor="start" x="390.5" y="-805" font-family="Helvetica,sans-Serif" font-size="10.00" fill="#000000">gko::EnablePolymorphicAssignment</text>
<text text-anchor="middle" x="478.5" y="-794" font-family="Helvetica,sans-Serif" font-size="10.00" fill="#000000">&lt; ConcreteFactory &gt;</text>
</a>
</g>
</g>
<!-- Node552&#45;&gt;Node553 -->
<g id="edge1" class="edge">
<title>Node552&#45;&gt;Node553</title>
<path fill="none" stroke="#191970" d="M306.9738,-802C330.4758,-802 357.1541,-802 382.3502,-802"/>
<polygon fill="#191970" stroke="#191970" points="306.7639,-798.5001 296.7639,-802 306.7639,-805.5001 306.7639,-798.5001"/>
</g>
<!-- Node2 -->
<g id="node3" class="node">
<title>Node2</title>
<g id="a_node3"><a xlink:href="classgko_1_1EnableDefaultFactory.html" target="_top" xlink:title="This mixin provides a default implementation of a concrete factory.">
<polygon fill="#ffffff" stroke="#000000" points="619,-781.5 619,-822.5 819,-822.5 819,-781.5 619,-781.5"/>
<text text-anchor="start" x="627" y="-810.5" font-family="Helvetica,sans-Serif" font-size="10.00" fill="#000000">gko::EnableDefaultFactory</text>
<text text-anchor="start" x="627" y="-799.5" font-family="Helvetica,sans-Serif" font-size="10.00" fill="#000000">&lt; ConcreteFactory, ProductType,</text>
<text text-anchor="middle" x="719" y="-788.5" font-family="Helvetica,sans-Serif" font-size="10.00" fill="#000000"> ParametersType, PolymorphicBase &gt;</text>
</a>
</g>
</g>
<!-- Node553&#45;&gt;Node2 -->
<g id="edge2" class="edge">
<title>Node553&#45;&gt;Node2</title>
<path fill="none" stroke="#191970" d="M584.8695,-802C596.127,-802 607.5489,-802 618.7336,-802"/>
<polygon fill="#191970" stroke="#191970" points="584.5888,-798.5001 574.5888,-802 584.5888,-805.5001 584.5888,-798.5001"/>
</g>
<!-- Node3 -->
<g id="node4" class="node">
<title>Node3</title>
<g id="a_node4"><a xlink:href="classgko_1_1factorization_1_1Ic_1_1Factory.html" target="_top" xlink:title=" ">
<polygon fill="#ffffff" stroke="#000000" points="873.5,-1704.5 873.5,-1745.5 1020.5,-1745.5 1020.5,-1704.5 873.5,-1704.5"/>
<text text-anchor="start" x="881.5" y="-1733.5" font-family="Helvetica,sans-Serif" font-size="10.00" fill="#000000">gko::factorization</text>
<text text-anchor="start" x="881.5" y="-1722.5" font-family="Helvetica,sans-Serif" font-size="10.00" fill="#000000">::Ic&lt; ValueType, IndexType</text>
<text text-anchor="middle" x="947" y="-1711.5" font-family="Helvetica,sans-Serif" font-size="10.00" fill="#000000"> &gt;::Factory</text>
</a>
</g>
</g>
<!-- Node2&#45;&gt;Node3 -->
<g id="edge3" class="edge">
<title>Node2&#45;&gt;Node3</title>
<path fill="none" stroke="#191970" d="M719.4934,-832.8567C722.366,-974.4323 741.0701,-1560.6558 855,-1695 860.107,-1701.0221 866.4398,-1705.8441 873.3761,-1709.7038"/>
<polygon fill="#191970" stroke="#191970" points="722.9901,-832.6442 719.2998,-822.7129 715.9914,-832.7779 722.9901,-832.6442"/>
</g>
<!-- Node4 -->
<g id="node5" class="node">
<title>Node4</title>
<g id="a_node5"><a xlink:href="classgko_1_1factorization_1_1Ilu_1_1Factory.html" target="_top" xlink:title=" ">
<polygon fill="#ffffff" stroke="#000000" points="871.5,-1644.5 871.5,-1685.5 1022.5,-1685.5 1022.5,-1644.5 871.5,-1644.5"/>
<text text-anchor="start" x="879.5" y="-1673.5" font-family="Helvetica,sans-Serif" font-size="10.00" fill="#000000">gko::factorization</text>
<text text-anchor="start" x="879.5" y="-1662.5" font-family="Helvetica,sans-Serif" font-size="10.00" fill="#000000">::Ilu&lt; ValueType, IndexType</text>
<text text-anchor="middle" x="947" y="-1651.5" font-family="Helvetica,sans-Serif" font-size="10.00" fill="#000000"> &gt;::Factory</text>
</a>
</g>
</g>
<!-- Node2&#45;&gt;Node4 -->
<g id="edge4" class="edge">
<title>Node2&#45;&gt;Node4</title>
<path fill="none" stroke="#191970" d="M719.8691,-832.9502C724.2897,-968.7615 748.4467,-1510.7088 855,-1635 859.5924,-1640.3569 865.1543,-1644.7636 871.2438,-1648.3876"/>
<polygon fill="#191970" stroke="#191970" points="723.3635,-832.7119 719.5521,-822.8263 716.3669,-832.931 723.3635,-832.7119"/>
</g>
<!-- Node5 -->
<g id="node6" class="node">
<title>Node5</title>
<g id="a_node6"><a xlink:href="classgko_1_1factorization_1_1ParIc_1_1Factory.html" target="_top" xlink:title=" ">
<polygon fill="#ffffff" stroke="#000000" points="886,-1584.5 886,-1625.5 1008,-1625.5 1008,-1584.5 886,-1584.5"/>
<text text-anchor="start" x="894" y="-1613.5" font-family="Helvetica,sans-Serif" font-size="10.00" fill="#000000">gko::factorization</text>
<text text-anchor="start" x="894" y="-1602.5" font-family="Helvetica,sans-Serif" font-size="10.00" fill="#000000">::ParIc&lt; ValueType,</text>
<text text-anchor="middle" x="947" y="-1591.5" font-family="Helvetica,sans-Serif" font-size="10.00" fill="#000000"> IndexType &gt;::Factory</text>
</a>
</g>
</g>
<!-- Node2&#45;&gt;Node5 -->
<g id="edge5" class="edge">
<title>Node2&#45;&gt;Node5</title>
<path fill="none" stroke="#191970" d="M720.2923,-832.7975C726.3231,-962.2233 755.7394,-1460.6484 855,-1575 863.1494,-1584.3884 874.2747,-1590.8558 885.9745,-1595.3065"/>
<polygon fill="#191970" stroke="#191970" points="723.7873,-832.6049 719.8381,-822.7736 716.7944,-832.9219 723.7873,-832.6049"/>
</g>
<!-- Node6 -->
<g id="node7" class="node">
<title>Node6</title>
<g id="a_node7"><a xlink:href="classgko_1_1factorization_1_1ParIct_1_1Factory.html" target="_top" xlink:title=" ">
<polygon fill="#ffffff" stroke="#000000" points="886,-1524.5 886,-1565.5 1008,-1565.5 1008,-1524.5 886,-1524.5"/>
<text text-anchor="start" x="894" y="-1553.5" font-family="Helvetica,sans-Serif" font-size="10.00" fill="#000000">gko::factorization</text>
<text text-anchor="start" x="894" y="-1542.5" font-family="Helvetica,sans-Serif" font-size="10.00" fill="#000000">::ParIct&lt; ValueType,</text>
<text text-anchor="middle" x="947" y="-1531.5" font-family="Helvetica,sans-Serif" font-size="10.00" fill="#000000"> IndexType &gt;::Factory</text>
</a>
</g>
</g>
<!-- Node2&#45;&gt;Node6 -->
<g id="edge6" class="edge">
<title>Node2&#45;&gt;Node6</title>
<path fill="none" stroke="#191970" d="M720.7878,-832.7532C728.5323,-955.7391 763.0382,-1410.5771 855,-1515 863.1054,-1524.2037 874.0691,-1530.5978 885.6018,-1535.0363"/>
<polygon fill="#191970" stroke="#191970" points="724.2672,-832.3091 720.1589,-822.5433 717.2805,-832.7396 724.2672,-832.3091"/>
</g>
<!-- Node7 -->
<g id="node8" class="node">
<title>Node7</title>
<g id="a_node8"><a xlink:href="classgko_1_1factorization_1_1ParIlu_1_1Factory.html" target="_top" xlink:title=" ">
<polygon fill="#ffffff" stroke="#000000" points="886,-1464.5 886,-1505.5 1008,-1505.5 1008,-1464.5 886,-1464.5"/>
<text text-anchor="start" x="894" y="-1493.5" font-family="Helvetica,sans-Serif" font-size="10.00" fill="#000000">gko::factorization</text>
<text text-anchor="start" x="894" y="-1482.5" font-family="Helvetica,sans-Serif" font-size="10.00" fill="#000000">::ParIlu&lt; ValueType,</text>
<text text-anchor="middle" x="947" y="-1471.5" font-family="Helvetica,sans-Serif" font-size="10.00" fill="#000000"> IndexType &gt;::Factory</text>
</a>
</g>
</g>
<!-- Node2&#45;&gt;Node7 -->
<g id="edge7" class="edge">
<title>Node2&#45;&gt;Node7</title>
<path fill="none" stroke="#191970" d="M721.3789,-832.8075C730.959,-949.2214 770.3354,-1360.4811 855,-1455 863.1827,-1464.1351 874.1795,-1470.4997 885.7203,-1474.9311"/>
<polygon fill="#191970" stroke="#191970" points="724.8632,-832.4706 720.5683,-822.7854 717.886,-833.035 724.8632,-832.4706"/>
</g>
<!-- Node8 -->
<g id="node9" class="node">
<title>Node8</title>
<g id="a_node9"><a xlink:href="classgko_1_1factorization_1_1ParIlut_1_1Factory.html" target="_top" xlink:title=" ">
<polygon fill="#ffffff" stroke="#000000" points="886,-1404.5 886,-1445.5 1008,-1445.5 1008,-1404.5 886,-1404.5"/>
<text text-anchor="start" x="894" y="-1433.5" font-family="Helvetica,sans-Serif" font-size="10.00" fill="#000000">gko::factorization</text>
<text text-anchor="start" x="894" y="-1422.5" font-family="Helvetica,sans-Serif" font-size="10.00" fill="#000000">::ParIlut&lt; ValueType,</text>
<text text-anchor="middle" x="947" y="-1411.5" font-family="Helvetica,sans-Serif" font-size="10.00" fill="#000000"> IndexType &gt;::Factory</text>
</a>
</g>
</g>
<!-- Node2&#45;&gt;Node8 -->
<g id="edge8" class="edge">
<title>Node2&#45;&gt;Node8</title>
<path fill="none" stroke="#191970" d="M722.0817,-832.8033C733.6158,-942.2454 777.5872,-1310.3061 855,-1395 863.2741,-1404.0523 874.3103,-1410.3814 885.8605,-1414.8043"/>
<polygon fill="#191970" stroke="#191970" points="725.552,-832.3352 721.0373,-822.7505 718.5895,-833.0586 725.552,-832.3352"/>
</g>
<!-- Node9 -->
<g id="node10" class="node">
<title>Node9</title>
<g id="a_node10"><a xlink:href="classgko_1_1multigrid_1_1AmgxPgm_1_1Factory.html" target="_top" xlink:title=" ">
<polygon fill="#ffffff" stroke="#000000" points="876.5,-1344.5 876.5,-1385.5 1017.5,-1385.5 1017.5,-1344.5 876.5,-1344.5"/>
<text text-anchor="start" x="884.5" y="-1373.5" font-family="Helvetica,sans-Serif" font-size="10.00" fill="#000000">gko::multigrid::AmgxPgm</text>
<text text-anchor="start" x="884.5" y="-1362.5" font-family="Helvetica,sans-Serif" font-size="10.00" fill="#000000">&lt; ValueType, IndexType</text>
<text text-anchor="middle" x="947" y="-1351.5" font-family="Helvetica,sans-Serif" font-size="10.00" fill="#000000"> &gt;::Factory</text>
</a>
</g>
</g>
<!-- Node2&#45;&gt;Node9 -->
<g id="edge9" class="edge">
<title>Node2&#45;&gt;Node9</title>
<path fill="none" stroke="#191970" d="M722.9214,-832.6753C736.5329,-934.6423 784.7741,-1260.0254 855,-1335 860.9721,-1341.3759 868.3139,-1346.3994 876.2225,-1350.3568"/>
<polygon fill="#191970" stroke="#191970" points="726.3847,-832.1665 721.607,-822.7101 719.4448,-833.0819 726.3847,-832.1665"/>
</g>
<!-- Node10 -->
<g id="node11" class="node">
<title>Node10</title>
<g id="a_node11"><a xlink:href="classgko_1_1preconditioner_1_1Ic_1_1Factory.html" target="_top" xlink:title=" ">
<polygon fill="#ffffff" stroke="#000000" points="869,-1284.5 869,-1325.5 1025,-1325.5 1025,-1284.5 869,-1284.5"/>
<text text-anchor="start" x="877" y="-1313.5" font-family="Helvetica,sans-Serif" font-size="10.00" fill="#000000">gko::preconditioner</text>
<text text-anchor="start" x="877" y="-1302.5" font-family="Helvetica,sans-Serif" font-size="10.00" fill="#000000">::Ic&lt; LSolverType, IndexType</text>
<text text-anchor="middle" x="947" y="-1291.5" font-family="Helvetica,sans-Serif" font-size="10.00" fill="#000000"> &gt;::Factory</text>
</a>
</g>
</g>
<!-- Node2&#45;&gt;Node10 -->
<g id="edge10" class="edge">
<title>Node2&#45;&gt;Node10</title>
<path fill="none" stroke="#191970" d="M723.9711,-832.5952C739.835,-926.737 791.9288,-1209.6661 855,-1275 859.0839,-1279.2304 863.7707,-1282.8648 868.8194,-1285.9871"/>
<polygon fill="#191970" stroke="#191970" points="727.3974,-831.863 722.2998,-822.5751 720.4928,-833.0147 727.3974,-831.863"/>
</g>
<!-- Node11 -->
<g id="node12" class="node">
<title>Node11</title>
<g id="a_node12"><a xlink:href="classgko_1_1preconditioner_1_1Ilu_1_1Factory.html" target="_top" xlink:title=" ">
<polygon fill="#ffffff" stroke="#000000" points="869,-1213 869,-1265 1025,-1265 1025,-1213 869,-1213"/>
<text text-anchor="start" x="877" y="-1253" font-family="Helvetica,sans-Serif" font-size="10.00" fill="#000000">gko::preconditioner</text>
<text text-anchor="start" x="877" y="-1242" font-family="Helvetica,sans-Serif" font-size="10.00" fill="#000000">::Ilu&lt; LSolverType,</text>
<text text-anchor="start" x="877" y="-1231" font-family="Helvetica,sans-Serif" font-size="10.00" fill="#000000"> USolverType, ReverseApply,</text>
<text text-anchor="middle" x="947" y="-1220" font-family="Helvetica,sans-Serif" font-size="10.00" fill="#000000"> IndexType &gt;::Factory</text>
</a>
</g>
</g>
<!-- Node2&#45;&gt;Node11 -->
<g id="edge11" class="edge">
<title>Node2&#45;&gt;Node11</title>
<path fill="none" stroke="#191970" d="M720.8196,-832.5519C726.8031,-906.1359 751.9248,-1095.0698 855,-1203 859.146,-1207.3413 863.878,-1211.1684 868.9583,-1214.5409"/>
<polygon fill="#191970" stroke="#191970" points="724.3081,-832.2653 720.0687,-822.5556 717.3277,-832.7898 724.3081,-832.2653"/>
</g>
<!-- Node12 -->
<g id="node13" class="node">
<title>Node12</title>
<g id="a_node13"><a xlink:href="classgko_1_1preconditioner_1_1Isai_1_1Factory.html" target="_top" xlink:title=" ">
<polygon fill="#ffffff" stroke="#000000" points="872.5,-1152.5 872.5,-1193.5 1021.5,-1193.5 1021.5,-1152.5 872.5,-1152.5"/>
<text text-anchor="start" x="880.5" y="-1181.5" font-family="Helvetica,sans-Serif" font-size="10.00" fill="#000000">gko::preconditioner</text>
<text text-anchor="start" x="880.5" y="-1170.5" font-family="Helvetica,sans-Serif" font-size="10.00" fill="#000000">::Isai&lt; IsaiType, ValueType,</text>
<text text-anchor="middle" x="947" y="-1159.5" font-family="Helvetica,sans-Serif" font-size="10.00" fill="#000000"> IndexType &gt;::Factory</text>
</a>
</g>
</g>
<!-- Node2&#45;&gt;Node12 -->
<g id="edge12" class="edge">
<title>Node2&#45;&gt;Node12</title>
<path fill="none" stroke="#191970" d="M722.5401,-832.8321C731.7896,-899.1811 762.7333,-1056.4814 855,-1143 860.1471,-1147.8264 866.0816,-1151.8767 872.4066,-1155.2755"/>
<polygon fill="#191970" stroke="#191970" points="725.9712,-832.0794 721.1902,-822.6246 719.0316,-832.9972 725.9712,-832.0794"/>
</g>
<!-- Node13 -->
<g id="node14" class="node">
<title>Node13</title>
<g id="a_node14"><a xlink:href="classgko_1_1preconditioner_1_1Jacobi_1_1Factory.html" target="_top" xlink:title=" ">
<polygon fill="#ffffff" stroke="#000000" points="886,-1092.5 886,-1133.5 1008,-1133.5 1008,-1092.5 886,-1092.5"/>
<text text-anchor="start" x="894" y="-1121.5" font-family="Helvetica,sans-Serif" font-size="10.00" fill="#000000">gko::preconditioner</text>
<text text-anchor="start" x="894" y="-1110.5" font-family="Helvetica,sans-Serif" font-size="10.00" fill="#000000">::Jacobi&lt; ValueType,</text>
<text text-anchor="middle" x="947" y="-1099.5" font-family="Helvetica,sans-Serif" font-size="10.00" fill="#000000"> IndexType &gt;::Factory</text>
</a>
</g>
</g>
<!-- Node2&#45;&gt;Node13 -->
<g id="edge13" class="edge">
<title>Node2&#45;&gt;Node13</title>
<path fill="none" stroke="#191970" d="M725.4401,-832.6109C739.1013,-890.0544 776.393,-1014.3855 855,-1083 863.8596,-1090.7334 874.7527,-1096.4806 885.9049,-1100.7496"/>
<polygon fill="#191970" stroke="#191970" points="728.8114,-831.6533 723.1596,-822.6918 721.9893,-833.2218 728.8114,-831.6533"/>
</g>
<!-- Node14 -->
<g id="node15" class="node">
<title>Node14</title>
<g id="a_node15"><a xlink:href="classgko_1_1reorder_1_1Rcm_1_1Factory.html" target="_top" xlink:title=" ">
<polygon fill="#ffffff" stroke="#000000" points="884.5,-1032.5 884.5,-1073.5 1009.5,-1073.5 1009.5,-1032.5 884.5,-1032.5"/>
<text text-anchor="start" x="892.5" y="-1061.5" font-family="Helvetica,sans-Serif" font-size="10.00" fill="#000000">gko::reorder::Rcm&lt;</text>
<text text-anchor="start" x="892.5" y="-1050.5" font-family="Helvetica,sans-Serif" font-size="10.00" fill="#000000"> ValueType, IndexType</text>
<text text-anchor="middle" x="947" y="-1039.5" font-family="Helvetica,sans-Serif" font-size="10.00" fill="#000000"> &gt;::Factory</text>
</a>
</g>
</g>
<!-- Node2&#45;&gt;Node14 -->
<g id="edge14" class="edge">
<title>Node2&#45;&gt;Node14</title>
<path fill="none" stroke="#191970" d="M729.6544,-832.1415C747.9382,-879.5953 789.7448,-971.6004 855,-1023 863.5784,-1029.757 873.7317,-1035.0167 884.1071,-1039.1039"/>
<polygon fill="#191970" stroke="#191970" points="732.9076,-830.8488 726.1099,-822.7222 726.3561,-833.3142 732.9076,-830.8488"/>
</g>
<!-- Node15 -->
<g id="node16" class="node">
<title>Node15</title>
<g id="a_node16"><a xlink:href="classgko_1_1solver_1_1Bicg_1_1Factory.html" target="_top" xlink:title=" ">
<polygon fill="#ffffff" stroke="#000000" points="886,-983 886,-1013 1008,-1013 1008,-983 886,-983"/>
<text text-anchor="start" x="894" y="-1001" font-family="Helvetica,sans-Serif" font-size="10.00" fill="#000000">gko::solver::Bicg&lt;</text>
<text text-anchor="middle" x="947" y="-990" font-family="Helvetica,sans-Serif" font-size="10.00" fill="#000000"> ValueType &gt;::Factory</text>
</a>
</g>
</g>
<!-- Node2&#45;&gt;Node15 -->
<g id="edge15" class="edge">
<title>Node2&#45;&gt;Node15</title>
<path fill="none" stroke="#191970" d="M734.4192,-831.7185C756.0719,-870.4555 799.1701,-937.5441 855,-974 864.2602,-980.0467 874.9749,-984.5723 885.7485,-987.9587"/>
<polygon fill="#191970" stroke="#191970" points="737.2538,-829.6077 729.3816,-822.5169 731.1137,-832.9692 737.2538,-829.6077"/>
</g>
<!-- Node16 -->
<g id="node17" class="node">
<title>Node16</title>
<g id="a_node17"><a xlink:href="classgko_1_1solver_1_1Bicgstab_1_1Factory.html" target="_top" xlink:title=" ">
<polygon fill="#ffffff" stroke="#000000" points="882,-934 882,-964 1012,-964 1012,-934 882,-934"/>
<text text-anchor="start" x="890" y="-952" font-family="Helvetica,sans-Serif" font-size="10.00" fill="#000000">gko::solver::Bicgstab</text>
<text text-anchor="middle" x="947" y="-941" font-family="Helvetica,sans-Serif" font-size="10.00" fill="#000000">&lt; ValueType &gt;::Factory</text>
</a>
</g>
</g>
<!-- Node2&#45;&gt;Node16 -->
<g id="edge16" class="edge">
<title>Node2&#45;&gt;Node16</title>
<path fill="none" stroke="#191970" d="M742.713,-830.2464C767.8036,-858.3387 809.9376,-900.6616 855,-925 863.2785,-929.4713 872.4315,-933.1413 881.6591,-936.1451"/>
<polygon fill="#191970" stroke="#191970" points="745.3322,-827.9247 736.0999,-822.7271 740.0759,-832.5476 745.3322,-827.9247"/>
</g>
<!-- Node17 -->
<g id="node18" class="node">
<title>Node17</title>
<g id="a_node18"><a xlink:href="classgko_1_1solver_1_1CbGmres_1_1Factory.html" target="_top" xlink:title=" ">
<polygon fill="#ffffff" stroke="#000000" points="882,-885 882,-915 1012,-915 1012,-885 882,-885"/>
<text text-anchor="start" x="890" y="-903" font-family="Helvetica,sans-Serif" font-size="10.00" fill="#000000">gko::solver::CbGmres</text>
<text text-anchor="middle" x="947" y="-892" font-family="Helvetica,sans-Serif" font-size="10.00" fill="#000000">&lt; ValueType &gt;::Factory</text>
</a>
</g>
</g>
<!-- Node2&#45;&gt;Node17 -->
<g id="edge17" class="edge">
<title>Node2&#45;&gt;Node17</title>
<path fill="none" stroke="#191970" d="M760.0137,-827.7354C786.364,-843.3968 821.7647,-862.8505 855,-876 863.442,-879.3401 872.5031,-882.3527 881.5276,-885.0245"/>
<polygon fill="#191970" stroke="#191970" points="761.815,-824.7345 751.4407,-822.584 758.2096,-830.7346 761.815,-824.7345"/>
</g>
<!-- Node18 -->
<g id="node19" class="node">
<title>Node18</title>
<g id="a_node19"><a xlink:href="classgko_1_1solver_1_1Cg_1_1Factory.html" target="_top" xlink:title=" ">
<polygon fill="#ffffff" stroke="#000000" points="872,-836 872,-866 1022,-866 1022,-836 872,-836"/>
<text text-anchor="start" x="880" y="-854" font-family="Helvetica,sans-Serif" font-size="10.00" fill="#000000">gko::solver::Cg&lt; ValueType</text>
<text text-anchor="middle" x="947" y="-843" font-family="Helvetica,sans-Serif" font-size="10.00" fill="#000000"> &gt;::Factory</text>
</a>
</g>
</g>
<!-- Node2&#45;&gt;Node18 -->
<g id="edge18" class="edge">
<title>Node2&#45;&gt;Node18</title>
<path fill="none" stroke="#191970" d="M824.5777,-824.6899C842.4263,-828.5258 860.5517,-832.4212 877.1911,-835.9972"/>
<polygon fill="#191970" stroke="#191970" points="825.2137,-821.2468 814.7015,-822.5674 823.7429,-828.0905 825.2137,-821.2468"/>
</g>
<!-- Node19 -->
<g id="node20" class="node">
<title>Node19</title>
<g id="a_node20"><a xlink:href="classgko_1_1solver_1_1Cgs_1_1Factory.html" target="_top" xlink:title=" ">
<polygon fill="#ffffff" stroke="#000000" points="869.5,-787 869.5,-817 1024.5,-817 1024.5,-787 869.5,-787"/>
<text text-anchor="start" x="877.5" y="-805" font-family="Helvetica,sans-Serif" font-size="10.00" fill="#000000">gko::solver::Cgs&lt; ValueType</text>
<text text-anchor="middle" x="947" y="-794" font-family="Helvetica,sans-Serif" font-size="10.00" fill="#000000"> &gt;::Factory</text>
</a>
</g>
</g>
<!-- Node2&#45;&gt;Node19 -->
<g id="edge19" class="edge">
<title>Node2&#45;&gt;Node19</title>
<path fill="none" stroke="#191970" d="M829.3234,-802C842.852,-802 856.4497,-802 869.3534,-802"/>
<polygon fill="#191970" stroke="#191970" points="829.0042,-798.5001 819.0041,-802 829.0041,-805.5001 829.0042,-798.5001"/>
</g>
<!-- Node20 -->
<g id="node21" class="node">
<title>Node20</title>
<g id="a_node21"><a xlink:href="classgko_1_1solver_1_1Fcg_1_1Factory.html" target="_top" xlink:title=" ">
<polygon fill="#ffffff" stroke="#000000" points="870,-738 870,-768 1024,-768 1024,-738 870,-738"/>
<text text-anchor="start" x="878" y="-756" font-family="Helvetica,sans-Serif" font-size="10.00" fill="#000000">gko::solver::Fcg&lt; ValueType</text>
<text text-anchor="middle" x="947" y="-745" font-family="Helvetica,sans-Serif" font-size="10.00" fill="#000000"> &gt;::Factory</text>
</a>
</g>
</g>
<!-- Node2&#45;&gt;Node20 -->
<g id="edge20" class="edge">
<title>Node2&#45;&gt;Node20</title>
<path fill="none" stroke="#191970" d="M824.5777,-779.3101C842.4263,-775.4742 860.5517,-771.5788 877.1911,-768.0028"/>
<polygon fill="#191970" stroke="#191970" points="823.7429,-775.9095 814.7015,-781.4326 825.2137,-782.7532 823.7429,-775.9095"/>
</g>
<!-- Node21 -->
<g id="node22" class="node">
<title>Node21</title>
<g id="a_node22"><a xlink:href="classgko_1_1solver_1_1Gmres_1_1Factory.html" target="_top" xlink:title=" ">
<polygon fill="#ffffff" stroke="#000000" points="882,-689 882,-719 1012,-719 1012,-689 882,-689"/>
<text text-anchor="start" x="890" y="-707" font-family="Helvetica,sans-Serif" font-size="10.00" fill="#000000">gko::solver::Gmres</text>
<text text-anchor="middle" x="947" y="-696" font-family="Helvetica,sans-Serif" font-size="10.00" fill="#000000">&lt; ValueType &gt;::Factory</text>
</a>
</g>
</g>
<!-- Node2&#45;&gt;Node21 -->
<g id="edge21" class="edge">
<title>Node2&#45;&gt;Node21</title>
<path fill="none" stroke="#191970" d="M760.9847,-776.2459C787.2742,-760.9414 822.2627,-742.0369 855,-729 864.2262,-725.3259 874.1813,-722.0007 884.0169,-719.0627"/>
<polygon fill="#191970" stroke="#191970" points="758.9101,-773.4056 752.0665,-781.4936 762.4602,-779.4386 758.9101,-773.4056"/>
</g>
<!-- Node22 -->
<g id="node23" class="node">
<title>Node22</title>
<g id="a_node23"><a xlink:href="classgko_1_1solver_1_1Idr_1_1Factory.html" target="_top" xlink:title=" ">
<polygon fill="#ffffff" stroke="#000000" points="872,-640 872,-670 1022,-670 1022,-640 872,-640"/>
<text text-anchor="start" x="880" y="-658" font-family="Helvetica,sans-Serif" font-size="10.00" fill="#000000">gko::solver::Idr&lt; ValueType</text>
<text text-anchor="middle" x="947" y="-647" font-family="Helvetica,sans-Serif" font-size="10.00" fill="#000000"> &gt;::Factory</text>
</a>
</g>
</g>
<!-- Node2&#45;&gt;Node22 -->
<g id="edge22" class="edge">
<title>Node2&#45;&gt;Node22</title>
<path fill="none" stroke="#191970" d="M743.5667,-773.2531C768.8192,-745.4711 810.6213,-704.144 855,-680 862.1241,-676.1242 869.8916,-672.8161 877.7951,-670.0005"/>
<polygon fill="#191970" stroke="#191970" points="740.6457,-771.2688 736.5858,-781.0549 745.8622,-775.9365 740.6457,-771.2688"/>
</g>
<!-- Node23 -->
<g id="node24" class="node">
<title>Node23</title>
<g id="a_node24"><a xlink:href="classgko_1_1solver_1_1Ir_1_1Factory.html" target="_top" xlink:title=" ">
<polygon fill="#ffffff" stroke="#000000" points="875,-591 875,-621 1019,-621 1019,-591 875,-591"/>
<text text-anchor="start" x="883" y="-609" font-family="Helvetica,sans-Serif" font-size="10.00" fill="#000000">gko::solver::Ir&lt; ValueType</text>
<text text-anchor="middle" x="947" y="-598" font-family="Helvetica,sans-Serif" font-size="10.00" fill="#000000"> &gt;::Factory</text>
</a>
</g>
</g>
<!-- Node2&#45;&gt;Node23 -->
<g id="edge23" class="edge">
<title>Node2&#45;&gt;Node23</title>
<path fill="none" stroke="#191970" d="M734.691,-772.2356C756.5095,-733.7721 799.6488,-667.4326 855,-631 861.0832,-626.996 867.793,-623.6299 874.7344,-620.8006"/>
<polygon fill="#191970" stroke="#191970" points="731.408,-770.9377 729.6088,-781.3787 737.5264,-774.3386 731.408,-770.9377"/>
</g>
<!-- Node24 -->
<g id="node25" class="node">
<title>Node24</title>
<g id="a_node25"><a xlink:href="classgko_1_1solver_1_1LowerTrs_1_1Factory.html" target="_top" xlink:title=" ">
<polygon fill="#ffffff" stroke="#000000" points="880.5,-530.5 880.5,-571.5 1013.5,-571.5 1013.5,-530.5 880.5,-530.5"/>
<text text-anchor="start" x="888.5" y="-559.5" font-family="Helvetica,sans-Serif" font-size="10.00" fill="#000000">gko::solver::LowerTrs</text>
<text text-anchor="start" x="888.5" y="-548.5" font-family="Helvetica,sans-Serif" font-size="10.00" fill="#000000">&lt; ValueType, IndexType</text>
<text text-anchor="middle" x="947" y="-537.5" font-family="Helvetica,sans-Serif" font-size="10.00" fill="#000000"> &gt;::Factory</text>
</a>
</g>
</g>
<!-- Node2&#45;&gt;Node24 -->
<g id="edge24" class="edge">
<title>Node2&#45;&gt;Node24</title>
<path fill="none" stroke="#191970" d="M729.7514,-772.0692C748.1695,-724.9327 790.1583,-633.4832 855,-582 862.5239,-576.0261 871.2583,-571.1756 880.2912,-567.2444"/>
<polygon fill="#191970" stroke="#191970" points="726.4767,-770.834 726.1792,-781.4246 733.0162,-773.331 726.4767,-770.834"/>
</g>
<!-- Node25 -->
<g id="node26" class="node">
<title>Node25</title>
<g id="a_node26"><a xlink:href="classgko_1_1solver_1_1Multigrid_1_1Factory.html" target="_top" xlink:title=" ">
<polygon fill="#ffffff" stroke="#000000" points="887.5,-481 887.5,-511 1006.5,-511 1006.5,-481 887.5,-481"/>
<text text-anchor="start" x="895.5" y="-499" font-family="Helvetica,sans-Serif" font-size="10.00" fill="#000000">gko::solver::Multigrid</text>
<text text-anchor="middle" x="947" y="-488" font-family="Helvetica,sans-Serif" font-size="10.00" fill="#000000">::Factory</text>
</a>
</g>
</g>
<!-- Node2&#45;&gt;Node25 -->
<g id="edge25" class="edge">
<title>Node2&#45;&gt;Node25</title>
<path fill="none" stroke="#191970" d="M725.033,-771.4482C738.0869,-713.576 774.51,-587.7957 855,-521 864.2979,-513.284 875.774,-507.9357 887.43,-504.2321"/>
<polygon fill="#191970" stroke="#191970" points="721.5664,-770.9191 722.8622,-781.4344 728.4066,-772.4062 721.5664,-770.9191"/>
</g>
<!-- Node26 -->
<g id="node27" class="node">
<title>Node26</title>
<g id="a_node27"><a xlink:href="classgko_1_1solver_1_1UpperTrs_1_1Factory.html" target="_top" xlink:title=" ">
<polygon fill="#ffffff" stroke="#000000" points="880.5,-420.5 880.5,-461.5 1013.5,-461.5 1013.5,-420.5 880.5,-420.5"/>
<text text-anchor="start" x="888.5" y="-449.5" font-family="Helvetica,sans-Serif" font-size="10.00" fill="#000000">gko::solver::UpperTrs</text>
<text text-anchor="start" x="888.5" y="-438.5" font-family="Helvetica,sans-Serif" font-size="10.00" fill="#000000">&lt; ValueType, IndexType</text>
<text text-anchor="middle" x="947" y="-427.5" font-family="Helvetica,sans-Serif" font-size="10.00" fill="#000000"> &gt;::Factory</text>
</a>
</g>
</g>
<!-- Node2&#45;&gt;Node26 -->
<g id="edge26" class="edge">
<title>Node2&#45;&gt;Node26</title>
<path fill="none" stroke="#191970" d="M723.0628,-771.2862C733.2206,-706.6457 765.6556,-555.6421 855,-472 862.2595,-465.2039 871.0594,-459.8937 880.3042,-455.7456"/>
<polygon fill="#191970" stroke="#191970" points="719.5901,-770.8437 721.5675,-781.2524 726.5126,-771.8824 719.5901,-770.8437"/>
</g>
<!-- Node27 -->
<g id="node28" class="node">
<title>Node27</title>
<g id="a_node28"><a xlink:href="classgko_1_1stop_1_1AbsoluteResidualNorm_1_1Factory.html" target="_top" xlink:title=" ">
<polygon fill="#ffffff" stroke="#000000" points="868.5,-371 868.5,-401 1025.5,-401 1025.5,-371 868.5,-371"/>
<text text-anchor="start" x="876.5" y="-389" font-family="Helvetica,sans-Serif" font-size="10.00" fill="#000000">gko::stop::AbsoluteResidual</text>
<text text-anchor="middle" x="947" y="-378" font-family="Helvetica,sans-Serif" font-size="10.00" fill="#000000">Norm&lt; ValueType &gt;::Factory</text>
</a>
</g>
</g>
<!-- Node2&#45;&gt;Node27 -->
<g id="edge27" class="edge">
<title>Node2&#45;&gt;Node27</title>
<path fill="none" stroke="#191970" d="M720.3856,-771.024C725.401,-697.3303 748.5276,-510.3278 855,-411 859.1149,-407.1612 863.7596,-403.9011 868.7207,-401.1338"/>
<polygon fill="#191970" stroke="#191970" points="716.865,-771.255 719.7476,-781.4502 723.852,-771.6827 716.865,-771.255"/>
</g>
<!-- Node28 -->
<g id="node29" class="node">
<title>Node28</title>
<g id="a_node29"><a xlink:href="classgko_1_1stop_1_1Combined_1_1Factory.html" target="_top" xlink:title=" ">
<polygon fill="#ffffff" stroke="#000000" points="888.5,-322 888.5,-352 1005.5,-352 1005.5,-322 888.5,-322"/>
<text text-anchor="start" x="896.5" y="-340" font-family="Helvetica,sans-Serif" font-size="10.00" fill="#000000">gko::stop::Combined</text>
<text text-anchor="middle" x="947" y="-329" font-family="Helvetica,sans-Serif" font-size="10.00" fill="#000000">::Factory</text>
</a>
</g>
</g>
<!-- Node2&#45;&gt;Node28 -->
<g id="edge28" class="edge">
<title>Node2&#45;&gt;Node28</title>
<path fill="none" stroke="#191970" d="M724.4354,-771.508C741.0706,-681.4811 793.8907,-419.4807 855,-361 864.1828,-352.2122 876.1648,-346.5395 888.4312,-342.9031"/>
<polygon fill="#191970" stroke="#191970" points="720.9881,-770.9028 722.6313,-781.3694 727.8738,-772.1626 720.9881,-770.9028"/>
</g>
<!-- Node29 -->
<g id="node30" class="node">
<title>Node29</title>
<g id="a_node30"><a xlink:href="classgko_1_1stop_1_1ImplicitResidualNorm_1_1Factory.html" target="_top" xlink:title=" ">
<polygon fill="#ffffff" stroke="#000000" points="868.5,-273 868.5,-303 1025.5,-303 1025.5,-273 868.5,-273"/>
<text text-anchor="start" x="876.5" y="-291" font-family="Helvetica,sans-Serif" font-size="10.00" fill="#000000">gko::stop::ImplicitResidual</text>
<text text-anchor="middle" x="947" y="-280" font-family="Helvetica,sans-Serif" font-size="10.00" fill="#000000">Norm&lt; ValueType &gt;::Factory</text>
</a>
</g>
</g>
<!-- Node2&#45;&gt;Node29 -->
<g id="edge29" class="edge">
<title>Node2&#45;&gt;Node29</title>
<path fill="none" stroke="#191970" d="M723.4483,-771.4316C738.1112,-674.7543 787.8439,-378.1196 855,-312 858.9992,-308.0625 863.559,-304.7475 868.4598,-301.9592"/>
<polygon fill="#191970" stroke="#191970" points="719.9695,-771.03 721.9481,-781.4384 726.8921,-772.0679 719.9695,-771.03"/>
</g>
<!-- Node30 -->
<g id="node31" class="node">
<title>Node30</title>
<g id="a_node31"><a xlink:href="classgko_1_1stop_1_1Iteration_1_1Factory.html" target="_top" xlink:title=" ">
<polygon fill="#ffffff" stroke="#000000" points="892.5,-224 892.5,-254 1001.5,-254 1001.5,-224 892.5,-224"/>
<text text-anchor="start" x="900.5" y="-242" font-family="Helvetica,sans-Serif" font-size="10.00" fill="#000000">gko::stop::Iteration</text>
<text text-anchor="middle" x="947" y="-231" font-family="Helvetica,sans-Serif" font-size="10.00" fill="#000000">::Factory</text>
</a>
</g>
</g>
<!-- Node2&#45;&gt;Node30 -->
<g id="edge30" class="edge">
<title>Node2&#45;&gt;Node30</title>
<path fill="none" stroke="#191970" d="M722.6575,-771.1656C735.5077,-667.9306 781.8059,-336.7836 855,-263 864.9976,-252.9219 878.6606,-246.9065 892.3981,-243.3615"/>
<polygon fill="#191970" stroke="#191970" points="719.1644,-770.8959 721.4192,-781.248 726.1122,-771.7493 719.1644,-770.8959"/>
</g>
<!-- Node31 -->
<g id="node32" class="node">
<title>Node31</title>
<g id="a_node32"><a xlink:href="classgko_1_1stop_1_1RelativeResidualNorm_1_1Factory.html" target="_top" xlink:title=" ">
<polygon fill="#ffffff" stroke="#000000" points="868.5,-175 868.5,-205 1025.5,-205 1025.5,-175 868.5,-175"/>
<text text-anchor="start" x="876.5" y="-193" font-family="Helvetica,sans-Serif" font-size="10.00" fill="#000000">gko::stop::RelativeResidual</text>
<text text-anchor="middle" x="947" y="-182" font-family="Helvetica,sans-Serif" font-size="10.00" fill="#000000">Norm&lt; ValueType &gt;::Factory</text>
</a>
</g>
</g>
<!-- Node2&#45;&gt;Node31 -->
<g id="edge31" class="edge">
<title>Node2&#45;&gt;Node31</title>
<path fill="none" stroke="#191970" d="M721.9483,-771.293C733.028,-662.2168 775.6448,-295.5996 855,-214 858.9128,-209.9766 863.409,-206.5985 868.2647,-203.7654"/>
<polygon fill="#191970" stroke="#191970" points="718.4588,-771.0141 720.9461,-781.3128 725.424,-771.7108 718.4588,-771.0141"/>
</g>
<!-- Node32 -->
<g id="node33" class="node">
<title>Node32</title>
<g id="a_node33"><a xlink:href="classgko_1_1stop_1_1ResidualNorm_1_1Factory.html" target="_top" xlink:title=" ">
<polygon fill="#ffffff" stroke="#000000" points="879,-126 879,-156 1015,-156 1015,-126 879,-126"/>
<text text-anchor="start" x="887" y="-144" font-family="Helvetica,sans-Serif" font-size="10.00" fill="#000000">gko::stop::ResidualNorm</text>
<text text-anchor="middle" x="947" y="-133" font-family="Helvetica,sans-Serif" font-size="10.00" fill="#000000">&lt; ValueType &gt;::Factory</text>
</a>
</g>
</g>
<!-- Node2&#45;&gt;Node32 -->
<g id="edge32" class="edge">
<title>Node2&#45;&gt;Node32</title>
<path fill="none" stroke="#191970" d="M721.3783,-771.0561C730.8434,-655.9249 769.546,-254.3742 855,-165 861.6163,-158.0802 869.957,-153.0639 878.9011,-149.4439"/>
<polygon fill="#191970" stroke="#191970" points="717.8688,-771.0345 720.553,-781.2837 724.8461,-771.5976 717.8688,-771.0345"/>
</g>
<!-- Node33 -->
<g id="node34" class="node">
<title>Node33</title>
<g id="a_node34"><a xlink:href="classgko_1_1stop_1_1ResidualNormReduction_1_1Factory.html" target="_top" xlink:title=" ">
<polygon fill="#ffffff" stroke="#000000" points="855,-77 855,-107 1039,-107 1039,-77 855,-77"/>
<text text-anchor="start" x="863" y="-95" font-family="Helvetica,sans-Serif" font-size="10.00" fill="#000000">gko::stop::ResidualNormReduction</text>
<text text-anchor="middle" x="947" y="-84" font-family="Helvetica,sans-Serif" font-size="10.00" fill="#000000">&lt; ValueType &gt;::Factory</text>
</a>
</g>
</g>
<!-- Node2&#45;&gt;Node33 -->
<g id="edge33" class="edge">
<title>Node2&#45;&gt;Node33</title>
<path fill="none" stroke="#191970" d="M720.8407,-771.4585C728.6912,-651.3563 763.2651,-213.3592 855,-116 858.1696,-112.6361 861.7464,-109.721 865.6034,-107.1966"/>
<polygon fill="#191970" stroke="#191970" points="717.3474,-771.2432 720.2021,-781.4461 724.3332,-771.6899 717.3474,-771.2432"/>
</g>
<!-- Node34 -->
<g id="node35" class="node">
<title>Node34</title>
<g id="a_node35"><a xlink:href="classgko_1_1stop_1_1Time_1_1Factory.html" target="_top" xlink:title=" ">
<polygon fill="#ffffff" stroke="#000000" points="880,-38.5 880,-57.5 1014,-57.5 1014,-38.5 880,-38.5"/>
<text text-anchor="middle" x="947" y="-45.5" font-family="Helvetica,sans-Serif" font-size="10.00" fill="#000000">gko::stop::Time::Factory</text>
</a>
</g>
</g>
<!-- Node2&#45;&gt;Node34 -->
<g id="edge34" class="edge">
<title>Node2&#45;&gt;Node34</title>
<path fill="none" stroke="#191970" d="M720.2614,-771.2188C726.0688,-645.1011 754.4117,-169.6917 855,-67 861.8475,-60.0093 870.5389,-55.2518 879.8338,-52.0647"/>
<polygon fill="#191970" stroke="#191970" points="716.7592,-771.192 719.8098,-781.3381 723.7522,-771.5041 716.7592,-771.192"/>
</g>
<!-- Node550 -->
<g id="node36" class="node">
<title>Node550</title>
<g id="a_node36"><a xlink:href="classgko_1_1ConvertibleTo.html" target="_top" xlink:title=" ">
<polygon fill="#ffffff" stroke="#000000" points="182.5,-50 182.5,-80 292.5,-80 292.5,-50 182.5,-50"/>
<text text-anchor="start" x="190.5" y="-68" font-family="Helvetica,sans-Serif" font-size="10.00" fill="#000000">gko::ConvertibleTo</text>
<text text-anchor="middle" x="237.5" y="-57" font-family="Helvetica,sans-Serif" font-size="10.00" fill="#000000">&lt; ConcreteLinOp &gt;</text>
</a>
</g>
</g>
<!-- Node551 -->
<g id="node37" class="node">
<title>Node551</title>
<g id="a_node37"><a xlink:href="classgko_1_1EnablePolymorphicAssignment.html" target="_top" xlink:title=" ">
<polygon fill="#ffffff" stroke="#000000" points="382.5,-50 382.5,-80 574.5,-80 574.5,-50 382.5,-50"/>
<text text-anchor="start" x="390.5" y="-68" font-family="Helvetica,sans-Serif" font-size="10.00" fill="#000000">gko::EnablePolymorphicAssignment</text>
<text text-anchor="middle" x="478.5" y="-57" font-family="Helvetica,sans-Serif" font-size="10.00" fill="#000000">&lt; ConcreteLinOp &gt;</text>
</a>
</g>
</g>
<!-- Node550&#45;&gt;Node551 -->
<g id="edge35" class="edge">
<title>Node550&#45;&gt;Node551</title>
<path fill="none" stroke="#191970" d="M303.011,-65C327.4452,-65 355.7195,-65 382.34,-65"/>
<polygon fill="#191970" stroke="#191970" points="302.7903,-61.5001 292.7903,-65 302.7902,-68.5001 302.7903,-61.5001"/>
</g>
<!-- Node126 -->
<g id="node38" class="node">
<title>Node126</title>
<g id="a_node38"><a xlink:href="classgko_1_1EnableLinOp.html" target="_top" xlink:title="The EnableLinOp mixin can be used to provide sensible default implementations of the majority of the ...">
<polygon fill="#ffffff" stroke="#000000" points="641,-50 641,-80 797,-80 797,-50 641,-50"/>
<text text-anchor="start" x="649" y="-68" font-family="Helvetica,sans-Serif" font-size="10.00" fill="#000000">gko::EnableLinOp&lt; Concrete</text>
<text text-anchor="middle" x="719" y="-57" font-family="Helvetica,sans-Serif" font-size="10.00" fill="#000000">LinOp, PolymorphicBase &gt;</text>
</a>
</g>
</g>
<!-- Node551&#45;&gt;Node126 -->
<g id="edge36" class="edge">
<title>Node551&#45;&gt;Node126</title>
<path fill="none" stroke="#191970" d="M584.7019,-65C603.563,-65 622.8915,-65 640.7971,-65"/>
<polygon fill="#191970" stroke="#191970" points="584.5888,-61.5001 574.5888,-65 584.5888,-68.5001 584.5888,-61.5001"/>
</g>
<!-- Node127 -->
<g id="node39" class="node">
<title>Node127</title>
<g id="a_node39"><a xlink:href="classgko_1_1solver_1_1Multigrid.html" target="_top" xlink:title="Multigrid methods have a hierarchy of many levels, whose corase level is a subset of the fine level,...">
<polygon fill="#ffffff" stroke="#000000" points="887.5,-.5 887.5,-19.5 1006.5,-19.5 1006.5,-.5 887.5,-.5"/>
<text text-anchor="middle" x="947" y="-7.5" font-family="Helvetica,sans-Serif" font-size="10.00" fill="#000000">gko::solver::Multigrid</text>
</a>
</g>
</g>
<!-- Node126&#45;&gt;Node127 -->
<g id="edge37" class="edge">
<title>Node126&#45;&gt;Node127</title>
<path fill="none" stroke="#191970" d="M782.9477,-47.2957C805.6339,-41.2212 831.391,-34.5582 855,-29 868.9702,-25.7111 884.207,-22.4381 898.1888,-19.5589"/>
<polygon fill="#191970" stroke="#191970" points="781.8413,-43.9689 773.095,-49.9482 783.6611,-50.7282 781.8413,-43.9689"/>
</g>
<!-- Node88 -->
<g id="node40" class="node">
<title>Node88</title>
<g id="a_node40"><a xlink:title=" ">
<polygon fill="#ffffff" stroke="#bfbfbf" points="0,-286.5 0,-305.5 101,-305.5 101,-286.5 0,-286.5"/>
<text text-anchor="middle" x="50.5" y="-293.5" font-family="Helvetica,sans-Serif" font-size="10.00" fill="#000000">PolymorphicBase</text>
</a>
</g>
</g>
<!-- Node0 -->
<g id="node41" class="node">
<title>Node0</title>
<g id="a_node41"><a xlink:href="classgko_1_1EnableAbstractPolymorphicObject.html" target="_top" xlink:title=" ">
<polygon fill="#ffffff" stroke="#000000" points="150,-616.5 150,-657.5 325,-657.5 325,-616.5 150,-616.5"/>
<text text-anchor="start" x="158" y="-645.5" font-family="Helvetica,sans-Serif" font-size="10.00" fill="#000000">gko::EnableAbstractPolymorphic</text>
<text text-anchor="start" x="158" y="-634.5" font-family="Helvetica,sans-Serif" font-size="10.00" fill="#000000">Object&lt; ConcreteFactory,</text>
<text text-anchor="middle" x="237.5" y="-623.5" font-family="Helvetica,sans-Serif" font-size="10.00" fill="#000000"> PolymorphicBase &gt;</text>
</a>
</g>
</g>
<!-- Node88&#45;&gt;Node0 -->
<g id="edge38" class="edge">
<title>Node88&#45;&gt;Node0</title>
<path fill="none" stroke="#191970" d="M60.8018,-314.7856C93.0851,-373.6552 192.1448,-554.2935 226.0093,-616.0464"/>
<polygon fill="#191970" stroke="#191970" points="63.7721,-312.9229 55.8949,-305.8377 57.6344,-316.2888 63.7721,-312.9229"/>
</g>
<!-- Node124 -->
<g id="node43" class="node">
<title>Node124</title>
<g id="a_node43"><a xlink:href="classgko_1_1EnableAbstractPolymorphicObject.html" target="_top" xlink:title=" ">
<polygon fill="#ffffff" stroke="#000000" points="139,-335.5 139,-376.5 336,-376.5 336,-335.5 139,-335.5"/>
<text text-anchor="start" x="147" y="-364.5" font-family="Helvetica,sans-Serif" font-size="10.00" fill="#000000">gko::EnableAbstractPolymorphic</text>
<text text-anchor="start" x="147" y="-353.5" font-family="Helvetica,sans-Serif" font-size="10.00" fill="#000000">Object&lt; ConcreteLinOp, Polymorphic</text>
<text text-anchor="middle" x="237.5" y="-342.5" font-family="Helvetica,sans-Serif" font-size="10.00" fill="#000000">Base &gt;</text>
</a>
</g>
</g>
<!-- Node88&#45;&gt;Node124 -->
<g id="edge41" class="edge">
<title>Node88&#45;&gt;Node124</title>
<path fill="none" stroke="#191970" d="M86.9554,-309.0401C102.3479,-314.4427 120.4954,-320.6774 137,-326 146.7913,-329.1576 157.1561,-332.3828 167.3641,-335.4918"/>
<polygon fill="#191970" stroke="#191970" points="87.8779,-305.6542 77.2831,-305.6279 85.5491,-312.2555 87.8779,-305.6542"/>
</g>
<!-- Node128 -->
<g id="node45" class="node">
<title>Node128</title>
<g id="a_node45"><a xlink:href="classgko_1_1EnableAbstractPolymorphicObject.html" target="_top" xlink:title=" ">
<polygon fill="#ffffff" stroke="#000000" points="137,-275.5 137,-316.5 338,-316.5 338,-275.5 137,-275.5"/>
<text text-anchor="start" x="145" y="-304.5" font-family="Helvetica,sans-Serif" font-size="10.00" fill="#000000">gko::EnableAbstractPolymorphic</text>
<text text-anchor="start" x="145" y="-293.5" font-family="Helvetica,sans-Serif" font-size="10.00" fill="#000000">Object&lt; ConcreteObject, Polymorphic</text>
<text text-anchor="middle" x="237.5" y="-282.5" font-family="Helvetica,sans-Serif" font-size="10.00" fill="#000000">Base &gt;</text>
</a>
</g>
</g>
<!-- Node88&#45;&gt;Node128 -->
<g id="edge44" class="edge">
<title>Node88&#45;&gt;Node128</title>
<path fill="none" stroke="#191970" d="M111.279,-296C119.4918,-296 128.0901,-296 136.772,-296"/>
<polygon fill="#191970" stroke="#191970" points="111.1049,-292.5001 101.1049,-296 111.1049,-299.5001 111.1049,-292.5001"/>
</g>
<!-- Node130 -->
<g id="node47" class="node">
<title>Node130</title>
<g id="a_node47"><a xlink:href="classgko_1_1EnableAbstractPolymorphicObject.html" target="_top" xlink:title="This mixin inherits from (a subclass of) PolymorphicObject and provides a base implementation of a ne...">
<polygon fill="#ffffff" stroke="#000000" points="138.5,-215.5 138.5,-256.5 336.5,-256.5 336.5,-215.5 138.5,-215.5"/>
<text text-anchor="start" x="146.5" y="-244.5" font-family="Helvetica,sans-Serif" font-size="10.00" fill="#000000">gko::EnableAbstractPolymorphic</text>
<text text-anchor="start" x="146.5" y="-233.5" font-family="Helvetica,sans-Serif" font-size="10.00" fill="#000000">Object&lt; AbstractObject, Polymorphic</text>
<text text-anchor="middle" x="237.5" y="-222.5" font-family="Helvetica,sans-Serif" font-size="10.00" fill="#000000">Base &gt;</text>
</a>
</g>
</g>
<!-- Node88&#45;&gt;Node130 -->
<g id="edge46" class="edge">
<title>Node88&#45;&gt;Node130</title>
<path fill="none" stroke="#191970" d="M86.9554,-282.9599C102.3479,-277.5573 120.4954,-271.3226 137,-266 146.7913,-262.8424 157.1561,-259.6172 167.3641,-256.5082"/>
<polygon fill="#191970" stroke="#191970" points="85.5491,-279.7445 77.2831,-286.3721 87.8779,-286.3458 85.5491,-279.7445"/>
</g>
<!-- Node131 -->
<g id="node48" class="node">
<title>Node131</title>
<g id="a_node48"><a xlink:href="classgko_1_1log_1_1EnableLogging.html" target="_top" xlink:title="EnableLogging is a mixin which should be inherited by any class which wants to enable logging.">
<polygon fill="#ffffff" stroke="#000000" points="146.5,-155.5 146.5,-196.5 328.5,-196.5 328.5,-155.5 146.5,-155.5"/>
<text text-anchor="start" x="154.5" y="-184.5" font-family="Helvetica,sans-Serif" font-size="10.00" fill="#000000">gko::log::EnableLogging</text>
<text text-anchor="start" x="154.5" y="-173.5" font-family="Helvetica,sans-Serif" font-size="10.00" fill="#000000">&lt; ConcreteLoggable, Polymorphic</text>
<text text-anchor="middle" x="237.5" y="-162.5" font-family="Helvetica,sans-Serif" font-size="10.00" fill="#000000">Base &gt;</text>
</a>
</g>
</g>
<!-- Node88&#45;&gt;Node131 -->
<g id="edge47" class="edge">
<title>Node88&#45;&gt;Node131</title>
<path fill="none" stroke="#191970" d="M63.0846,-278.1713C78.3379,-257.8403 105.894,-224.9711 137,-206 142.7519,-202.492 148.9405,-199.3714 155.3194,-196.5994"/>
<polygon fill="#191970" stroke="#191970" points="60.227,-276.1497 57.1496,-286.2878 65.8775,-280.2816 60.227,-276.1497"/>
</g>
<!-- Node1 -->
<g id="node42" class="node">
<title>Node1</title>
<g id="a_node42"><a xlink:href="classgko_1_1EnablePolymorphicObject.html" target="_top" xlink:title=" ">
<polygon fill="#ffffff" stroke="#000000" points="374,-680 374,-710 583,-710 583,-680 374,-680"/>
<text text-anchor="start" x="382" y="-698" font-family="Helvetica,sans-Serif" font-size="10.00" fill="#000000">gko::EnablePolymorphicObject</text>
<text text-anchor="middle" x="478.5" y="-687" font-family="Helvetica,sans-Serif" font-size="10.00" fill="#000000">&lt; ConcreteFactory, PolymorphicBase &gt;</text>
</a>
</g>
</g>
<!-- Node0&#45;&gt;Node1 -->
<g id="edge39" class="edge">
<title>Node0&#45;&gt;Node1</title>
<path fill="none" stroke="#191970" d="M332.6334,-659.8952C360.6711,-666.6428 390.6281,-673.8524 416.0539,-679.9715"/>
<polygon fill="#191970" stroke="#191970" points="333.3481,-656.4673 322.8067,-657.5303 331.7102,-663.273 333.3481,-656.4673"/>
</g>
<!-- Node1&#45;&gt;Node2 -->
<g id="edge40" class="edge">
<title>Node1&#45;&gt;Node2</title>
<path fill="none" stroke="#191970" d="M521.7173,-714.2277C564.342,-733.1917 629.2681,-762.0777 672.8738,-781.4781"/>
<polygon fill="#191970" stroke="#191970" points="523.007,-710.9707 512.4477,-710.1035 520.1615,-717.3663 523.007,-710.9707"/>
</g>
<!-- Node125 -->
<g id="node44" class="node">
<title>Node125</title>
<g id="a_node44"><a xlink:href="classgko_1_1EnablePolymorphicObject.html" target="_top" xlink:title=" ">
<polygon fill="#ffffff" stroke="#000000" points="378,-336 378,-366 579,-366 579,-336 378,-336"/>
<text text-anchor="start" x="386" y="-354" font-family="Helvetica,sans-Serif" font-size="10.00" fill="#000000">gko::EnablePolymorphicObject</text>
<text text-anchor="middle" x="478.5" y="-343" font-family="Helvetica,sans-Serif" font-size="10.00" fill="#000000">&lt; ConcreteLinOp, PolymorphicBase &gt;</text>
</a>
</g>
</g>
<!-- Node124&#45;&gt;Node125 -->
<g id="edge42" class="edge">
<title>Node124&#45;&gt;Node125</title>
<path fill="none" stroke="#191970" d="M346.2891,-353.743C356.8418,-353.524 367.5155,-353.3026 377.9822,-353.0854"/>
<polygon fill="#191970" stroke="#191970" points="346.1445,-350.2451 336.2193,-353.9519 346.2898,-357.2436 346.1445,-350.2451"/>
</g>
<!-- Node125&#45;&gt;Node126 -->
<g id="edge43" class="edge">
<title>Node125&#45;&gt;Node126</title>
<path fill="none" stroke="#191970" d="M564.5763,-331.78C571.1588,-328.4598 577.4064,-324.5661 583,-320 664.6223,-253.3705 703.8491,-124.4623 715.3109,-80.2872"/>
<polygon fill="#191970" stroke="#191970" points="563.0643,-328.6227 555.4226,-335.9614 565.9729,-334.9899 563.0643,-328.6227"/>
</g>
<!-- Node129 -->
<g id="node46" class="node">
<title>Node129</title>
<g id="a_node46"><a xlink:href="classgko_1_1EnablePolymorphicObject.html" target="_top" xlink:title="This mixin inherits from (a subclass of) PolymorphicObject and provides a base implementation of a ne...">
<polygon fill="#ffffff" stroke="#000000" points="376,-281 376,-311 581,-311 581,-281 376,-281"/>
<text text-anchor="start" x="384" y="-299" font-family="Helvetica,sans-Serif" font-size="10.00" fill="#000000">gko::EnablePolymorphicObject</text>
<text text-anchor="middle" x="478.5" y="-288" font-family="Helvetica,sans-Serif" font-size="10.00" fill="#000000">&lt; ConcreteObject, PolymorphicBase &gt;</text>
</a>
</g>
</g>
<!-- Node128&#45;&gt;Node129 -->
<g id="edge45" class="edge">
<title>Node128&#45;&gt;Node129</title>
<path fill="none" stroke="#191970" d="M348.5197,-296C357.6003,-296 366.753,-296 375.7701,-296"/>
<polygon fill="#191970" stroke="#191970" points="348.3093,-292.5001 338.3093,-296 348.3093,-299.5001 348.3093,-292.5001"/>
</g>
</g>
</svg>
