<?xml version="1.0" encoding="UTF-8" standalone="no"?>
<!DOCTYPE svg PUBLIC "-//W3C//DTD SVG 1.1//EN"
 "http://www.w3.org/Graphics/SVG/1.1/DTD/svg11.dtd">
<!-- Generated by graphviz version 2.40.1 (20161225.0304)
 -->
<!-- Title: Graphical Class Hierarchy Pages: 1 -->
<svg width="325pt" height="317pt"
 viewBox="0.00 0.00 325.00 316.50" xmlns="http://www.w3.org/2000/svg" xmlns:xlink="http://www.w3.org/1999/xlink">
<g id="graph0" class="graph" transform="scale(1 1) rotate(0) translate(4 312.5)">
<title>Graphical Class Hierarchy</title>
<polygon fill="#ffffff" stroke="transparent" points="-4,4 -4,-312.5 321,-312.5 321,4 -4,4"/>
<!-- Node0 -->
<g id="node1" class="node">
<title>Node0</title>
<g id="a_node1"><a xlink:href="classgko_1_1log_1_1Logger.html" target="_top" xlink:title=" ">
<polygon fill="#ffffff" stroke="#000000" points="0,-133.5 0,-152.5 95,-152.5 95,-133.5 0,-133.5"/>
<text text-anchor="middle" x="47.5" y="-140.5" font-family="Helvetica,sans-Serif" font-size="10.00" fill="#000000">gko::log::Logger</text>
</a>
</g>
</g>
<!-- Node1 -->
<g id="node2" class="node">
<title>Node1</title>
<g id="a_node2"><a xlink:href="classgko_1_1batch_1_1log_1_1BatchConvergence.html" target="_top" xlink:title="Logs the final residuals and iteration counts for a batch solver.">
<polygon fill="#ffffff" stroke="#000000" points="131,-278 131,-308 317,-308 317,-278 131,-278"/>
<text text-anchor="start" x="139" y="-296" font-family="Helvetica,sans-Serif" font-size="10.00" fill="#000000">gko::batch::log::BatchConvergence</text>
<text text-anchor="middle" x="224" y="-285" font-family="Helvetica,sans-Serif" font-size="10.00" fill="#000000">&lt; ValueType &gt;</text>
</a>
</g>
</g>
<!-- Node0&#45;&gt;Node1 -->
<g id="edge1" class="edge">
<title>Node0&#45;&gt;Node1</title>
<path fill="none" stroke="#191970" d="M54.8616,-162.0609C66.6233,-189.9263 92.3389,-241.4549 131,-269 135.7532,-272.3865 140.945,-275.2956 146.3667,-277.7946"/>
<polygon fill="#191970" stroke="#191970" points="58.0419,-160.5897 51.0392,-152.6391 51.5554,-163.2214 58.0419,-160.5897"/>
</g>
<!-- Node2 -->
<g id="node3" class="node">
<title>Node2</title>
<g id="a_node3"><a xlink:href="classgko_1_1log_1_1Convergence.html" target="_top" xlink:title="Convergence is a Logger which logs data strictly from the criterion_check_completed event.">
<polygon fill="#ffffff" stroke="#000000" points="161.5,-229 161.5,-259 286.5,-259 286.5,-229 161.5,-229"/>
<text text-anchor="start" x="169.5" y="-247" font-family="Helvetica,sans-Serif" font-size="10.00" fill="#000000">gko::log::Convergence</text>
<text text-anchor="middle" x="224" y="-236" font-family="Helvetica,sans-Serif" font-size="10.00" fill="#000000">&lt; ValueType &gt;</text>
</a>
</g>
</g>
<!-- Node0&#45;&gt;Node2 -->
<g id="edge2" class="edge">
<title>Node0&#45;&gt;Node2</title>
<path fill="none" stroke="#191970" d="M62.1086,-160.4695C77.5194,-177.7966 103.3628,-203.8834 131,-219 140.3877,-224.1347 150.894,-228.2646 161.3729,-231.5711"/>
<polygon fill="#191970" stroke="#191970" points="64.6144,-158.0167 55.4192,-152.7536 59.3253,-162.6022 64.6144,-158.0167"/>
</g>
<!-- Node3 -->
<g id="node4" class="node">
<title>Node3</title>
<g id="a_node4"><a xlink:href="classgko_1_1log_1_1Papi.html" target="_top" xlink:title="Papi is a Logger which logs every event to the PAPI software.">
<polygon fill="#ffffff" stroke="#000000" points="147,-190.5 147,-209.5 301,-209.5 301,-190.5 147,-190.5"/>
<text text-anchor="middle" x="224" y="-197.5" font-family="Helvetica,sans-Serif" font-size="10.00" fill="#000000">gko::log::Papi&lt; ValueType &gt;</text>
</a>
</g>
</g>
<!-- Node0&#45;&gt;Node3 -->
<g id="edge3" class="edge">
<title>Node0&#45;&gt;Node3</title>
<path fill="none" stroke="#191970" d="M74.5741,-157.2063C90.6198,-165.144 111.5576,-174.6797 131,-181 142.4406,-184.7191 154.9187,-187.8621 166.9123,-190.4552"/>
<polygon fill="#191970" stroke="#191970" points="75.7774,-153.8932 65.2727,-152.5135 72.6242,-160.1428 75.7774,-153.8932"/>
</g>
<!-- Node4 -->
<g id="node5" class="node">
<title>Node4</title>
<g id="a_node5"><a xlink:href="classgko_1_1log_1_1PerformanceHint.html" target="_top" xlink:title="PerformanceHint is a Logger which analyzes the performance of the application and outputs hints for u...">
<polygon fill="#ffffff" stroke="#000000" points="152,-152.5 152,-171.5 296,-171.5 296,-152.5 152,-152.5"/>
<text text-anchor="middle" x="224" y="-159.5" font-family="Helvetica,sans-Serif" font-size="10.00" fill="#000000">gko::log::PerformanceHint</text>
</a>
</g>
</g>
<!-- Node0&#45;&gt;Node4 -->
<g id="edge4" class="edge">
<title>Node0&#45;&gt;Node4</title>
<path fill="none" stroke="#191970" d="M105.3434,-149.2268C120.2429,-150.8307 136.46,-152.5764 151.983,-154.2475"/>
<polygon fill="#191970" stroke="#191970" points="105.5806,-145.7322 95.2634,-148.1417 104.8314,-152.692 105.5806,-145.7322"/>
</g>
<!-- Node5 -->
<g id="node6" class="node">
<title>Node5</title>
<g id="a_node6"><a xlink:href="classgko_1_1log_1_1ProfilerHook.html" target="_top" xlink:title="This Logger can be used to annotate the execution of Ginkgo functionality with profiler&#45;specific rang...">
<polygon fill="#ffffff" stroke="#000000" points="163,-114.5 163,-133.5 285,-133.5 285,-114.5 163,-114.5"/>
<text text-anchor="middle" x="224" y="-121.5" font-family="Helvetica,sans-Serif" font-size="10.00" fill="#000000">gko::log::ProfilerHook</text>
</a>
</g>
</g>
<!-- Node0&#45;&gt;Node5 -->
<g id="edge5" class="edge">
<title>Node0&#45;&gt;Node5</title>
<path fill="none" stroke="#191970" d="M105.283,-136.7797C123.7372,-134.7932 144.2176,-132.5885 162.8995,-130.5774"/>
<polygon fill="#191970" stroke="#191970" points="104.8314,-133.308 95.2634,-137.8583 105.5806,-140.2678 104.8314,-133.308"/>
</g>
<!-- Node6 -->
<g id="node7" class="node">
<title>Node6</title>
<g id="a_node7"><a xlink:href="classgko_1_1log_1_1Record.html" target="_top" xlink:title="Record is a Logger which logs every event to an object.">
<polygon fill="#ffffff" stroke="#000000" points="176.5,-76.5 176.5,-95.5 271.5,-95.5 271.5,-76.5 176.5,-76.5"/>
<text text-anchor="middle" x="224" y="-83.5" font-family="Helvetica,sans-Serif" font-size="10.00" fill="#000000">gko::log::Record</text>
</a>
</g>
</g>
<!-- Node0&#45;&gt;Node6 -->
<g id="edge6" class="edge">
<title>Node0&#45;&gt;Node6</title>
<path fill="none" stroke="#191970" d="M74.5741,-128.7937C90.6198,-120.856 111.5576,-111.3203 131,-105 145.4183,-100.3129 161.4844,-96.5408 176.1519,-93.6314"/>
<polygon fill="#191970" stroke="#191970" points="72.6242,-125.8572 65.2727,-133.4865 75.7774,-132.1068 72.6242,-125.8572"/>
</g>
<!-- Node7 -->
<g id="node8" class="node">
<title>Node7</title>
<g id="a_node8"><a xlink:href="classgko_1_1log_1_1SolverProgress.html" target="_top" xlink:title="This Logger outputs the value of all scalar values (and potentially vectors) stored internally by the...">
<polygon fill="#ffffff" stroke="#000000" points="157,-38.5 157,-57.5 291,-57.5 291,-38.5 157,-38.5"/>
<text text-anchor="middle" x="224" y="-45.5" font-family="Helvetica,sans-Serif" font-size="10.00" fill="#000000">gko::log::SolverProgress</text>
</a>
</g>
</g>
<!-- Node0&#45;&gt;Node7 -->
<g id="edge7" class="edge">
<title>Node0&#45;&gt;Node7</title>
<path fill="none" stroke="#191970" d="M61.6781,-125.4584C76.9102,-107.8515 102.7639,-81.3419 131,-67 139.081,-62.8955 147.9823,-59.6776 156.9786,-57.1548"/>
<polygon fill="#191970" stroke="#191970" points="58.8463,-123.3878 55.0898,-133.2943 64.2042,-127.8926 58.8463,-123.3878"/>
</g>
<!-- Node8 -->
<g id="node9" class="node">
<title>Node8</title>
<g id="a_node9"><a xlink:href="classgko_1_1log_1_1Stream.html" target="_top" xlink:title="Stream is a Logger which logs every event to a stream.">
<polygon fill="#ffffff" stroke="#000000" points="139.5,-.5 139.5,-19.5 308.5,-19.5 308.5,-.5 139.5,-.5"/>
<text text-anchor="middle" x="224" y="-7.5" font-family="Helvetica,sans-Serif" font-size="10.00" fill="#000000">gko::log::Stream&lt; ValueType &gt;</text>
</a>
</g>
</g>
<!-- Node0&#45;&gt;Node8 -->
<g id="edge8" class="edge">
<title>Node0&#45;&gt;Node8</title>
<path fill="none" stroke="#191970" d="M55.7242,-124.4058C68.133,-98.6452 94.1695,-52.611 131,-29 136.9655,-25.1757 143.5509,-22.1 150.3795,-19.6294"/>
<polygon fill="#191970" stroke="#191970" points="52.542,-122.9484 51.5096,-133.4928 58.8923,-125.8936 52.542,-122.9484"/>
</g>
</g>
</svg>
