<?xml version="1.0" encoding="UTF-8" standalone="no"?>
<!DOCTYPE svg PUBLIC "-//W3C//DTD SVG 1.1//EN"
 "http://www.w3.org/Graphics/SVG/1.1/DTD/svg11.dtd">
<!-- Generated by graphviz version 2.40.1 (20161225.0304)
 -->
<!-- Title: Graphical Class Hierarchy Pages: 1 -->
<svg width="736pt" height="100pt"
 viewBox="0.00 0.00 736.00 99.50" xmlns="http://www.w3.org/2000/svg" xmlns:xlink="http://www.w3.org/1999/xlink">
<g id="graph0" class="graph" transform="scale(1 1) rotate(0) translate(4 95.5)">
<title>Graphical Class Hierarchy</title>
<polygon fill="#ffffff" stroke="transparent" points="-4,4 -4,-95.5 732,-95.5 732,4 -4,4"/>
<!-- Node701 -->
<g id="node1" class="node">
<title>Node701</title>
<g id="a_node1"><a xlink:href="classgko_1_1ConvertibleTo.html" target="_top" xlink:title=" ">
<polygon fill="#ffffff" stroke="#000000" points="133.5,-61 133.5,-91 321.5,-91 321.5,-61 133.5,-61"/>
<text text-anchor="start" x="141.5" y="-79" font-family="Helvetica,sans-Serif" font-size="10.00" fill="#000000">gko::ConvertibleTo</text>
<text text-anchor="middle" x="227.5" y="-68" font-family="Helvetica,sans-Serif" font-size="10.00" fill="#000000">&lt; Rcm&lt; ValueType, IndexType &gt; &gt;</text>
</a>
</g>
</g>
<!-- Node702 -->
<g id="node2" class="node">
<title>Node702</title>
<g id="a_node2"><a xlink:href="classgko_1_1EnablePolymorphicAssignment.html" target="_top" xlink:title=" ">
<polygon fill="#ffffff" stroke="#000000" points="363,-61 363,-91 555,-91 555,-61 363,-61"/>
<text text-anchor="start" x="371" y="-79" font-family="Helvetica,sans-Serif" font-size="10.00" fill="#000000">gko::EnablePolymorphicAssignment</text>
<text text-anchor="middle" x="459" y="-68" font-family="Helvetica,sans-Serif" font-size="10.00" fill="#000000">&lt; Rcm&lt; ValueType, IndexType &gt; &gt;</text>
</a>
</g>
</g>
<!-- Node701&#45;&gt;Node702 -->
<g id="edge1" class="edge">
<title>Node701&#45;&gt;Node702</title>
<path fill="none" stroke="#191970" d="M331.8638,-76C342.1199,-76 352.4963,-76 362.6669,-76"/>
<polygon fill="#191970" stroke="#191970" points="331.6599,-72.5001 321.6599,-76 331.6599,-79.5001 331.6599,-72.5001"/>
</g>
<!-- Node2 -->
<g id="node3" class="node">
<title>Node2</title>
<g id="a_node3"><a xlink:href="classgko_1_1reorder_1_1Rcm.html" target="_top" xlink:title="Rcm is a reordering algorithm minimizing the bandwidth of a matrix.">
<polygon fill="#ffffff" stroke="#000000" points="592,-33 592,-63 728,-63 728,-33 592,-33"/>
<text text-anchor="start" x="600" y="-51" font-family="Helvetica,sans-Serif" font-size="10.00" fill="#000000">gko::reorder::Rcm&lt;</text>
<text text-anchor="middle" x="660" y="-40" font-family="Helvetica,sans-Serif" font-size="10.00" fill="#000000"> ValueType, IndexType &gt;</text>
</a>
</g>
</g>
<!-- Node702&#45;&gt;Node2 -->
<g id="edge2" class="edge">
<title>Node702&#45;&gt;Node2</title>
<path fill="none" stroke="#191970" d="M565.2734,-61.1957C574.288,-59.94 583.2405,-58.6929 591.8394,-57.495"/>
<polygon fill="#191970" stroke="#191970" points="564.5062,-57.7687 555.0848,-62.6151 565.4721,-64.7018 564.5062,-57.7687"/>
</g>
<!-- Node155 -->
<g id="node4" class="node">
<title>Node155</title>
<g id="a_node4"><a xlink:title=" ">
<polygon fill="#ffffff" stroke="#bfbfbf" points="0,-11.5 0,-30.5 93,-30.5 93,-11.5 0,-11.5"/>
<text text-anchor="middle" x="46.5" y="-18.5" font-family="Helvetica,sans-Serif" font-size="10.00" fill="#000000">ReorderingBase</text>
</a>
</g>
</g>
<!-- Node0 -->
<g id="node5" class="node">
<title>Node0</title>
<g id="a_node5"><a xlink:href="classgko_1_1EnableAbstractPolymorphicObject.html" target="_top" xlink:title=" ">
<polygon fill="#ffffff" stroke="#000000" points="129,-.5 129,-41.5 326,-41.5 326,-.5 129,-.5"/>
<text text-anchor="start" x="137" y="-29.5" font-family="Helvetica,sans-Serif" font-size="10.00" fill="#000000">gko::EnableAbstractPolymorphic</text>
<text text-anchor="start" x="137" y="-18.5" font-family="Helvetica,sans-Serif" font-size="10.00" fill="#000000">Object&lt; Rcm&lt; ValueType, IndexType</text>
<text text-anchor="middle" x="227.5" y="-7.5" font-family="Helvetica,sans-Serif" font-size="10.00" fill="#000000"> &gt;, ReorderingBase&lt; IndexType &gt; &gt;</text>
</a>
</g>
</g>
<!-- Node155&#45;&gt;Node0 -->
<g id="edge3" class="edge">
<title>Node155&#45;&gt;Node0</title>
<path fill="none" stroke="#191970" d="M103.2829,-21C111.5158,-21 120.183,-21 128.9518,-21"/>
<polygon fill="#191970" stroke="#191970" points="103.112,-17.5001 93.112,-21 103.112,-24.5001 103.112,-17.5001"/>
</g>
<!-- Node1 -->
<g id="node6" class="node">
<title>Node1</title>
<g id="a_node6"><a xlink:href="classgko_1_1EnablePolymorphicObject.html" target="_top" xlink:title=" ">
<polygon fill="#ffffff" stroke="#000000" points="362,-.5 362,-41.5 556,-41.5 556,-.5 362,-.5"/>
<text text-anchor="start" x="370" y="-29.5" font-family="Helvetica,sans-Serif" font-size="10.00" fill="#000000">gko::EnablePolymorphicObject</text>
<text text-anchor="start" x="370" y="-18.5" font-family="Helvetica,sans-Serif" font-size="10.00" fill="#000000">&lt; Rcm&lt; ValueType, IndexType</text>
<text text-anchor="middle" x="459" y="-7.5" font-family="Helvetica,sans-Serif" font-size="10.00" fill="#000000"> &gt;, ReorderingBase&lt; IndexType &gt; &gt;</text>
</a>
</g>
</g>
<!-- Node0&#45;&gt;Node1 -->
<g id="edge4" class="edge">
<title>Node0&#45;&gt;Node1</title>
<path fill="none" stroke="#191970" d="M336.0275,-21C344.5891,-21 353.2036,-21 361.6827,-21"/>
<polygon fill="#191970" stroke="#191970" points="336.0126,-17.5001 326.0125,-21 336.0125,-24.5001 336.0126,-17.5001"/>
</g>
<!-- Node1&#45;&gt;Node2 -->
<g id="edge5" class="edge">
<title>Node1&#45;&gt;Node2</title>
<path fill="none" stroke="#191970" d="M566.407,-35.4278C575.0357,-36.5869 583.5961,-37.7368 591.8323,-38.8431"/>
<polygon fill="#191970" stroke="#191970" points="566.6387,-31.9276 556.2617,-34.065 565.7067,-38.8653 566.6387,-31.9276"/>
</g>
</g>
</svg>
