<?xml version="1.0" encoding="UTF-8" standalone="no"?>
<!DOCTYPE svg PUBLIC "-//W3C//DTD SVG 1.1//EN"
 "http://www.w3.org/Graphics/SVG/1.1/DTD/svg11.dtd">
<!-- Generated by graphviz version 2.40.1 (20161225.0304)
 -->
<!-- Title: gko::solver::iterative_solver_factory_parameters Pages: 1 -->
<svg width="262pt" height="195pt"
 viewBox="0.00 0.00 262.00 195.00" xmlns="http://www.w3.org/2000/svg" xmlns:xlink="http://www.w3.org/1999/xlink">
<g id="graph0" class="graph" transform="scale(1 1) rotate(0) translate(4 191)">
<title>gko::solver::iterative_solver_factory_parameters</title>
<polygon fill="#ffffff" stroke="transparent" points="-4,4 -4,-191 258,-191 258,4 -4,4"/>
<!-- Node1 -->
<g id="node1" class="node">
<title>Node1</title>
<g id="a_node1"><a xlink:title="The parameter type shared between all iterative solvers.">
<polygon fill="#bfbfbf" stroke="#000000" points="22.5,-.5 22.5,-30.5 175.5,-30.5 175.5,-.5 22.5,-.5"/>
<text text-anchor="start" x="30.5" y="-18.5" font-family="Helvetica,sans-Serif" font-size="10.00" fill="#000000">gko::solver::iterative</text>
<text text-anchor="middle" x="99" y="-7.5" font-family="Helvetica,sans-Serif" font-size="10.00" fill="#000000">_solver_factory_parameters</text>
</a>
</g>
</g>
<!-- Node2 -->
<g id="node2" class="node">
<title>Node2</title>
<g id="a_node2"><a xlink:title=" ">
<polygon fill="#ffffff" stroke="#bfbfbf" points="0,-78.5 0,-108.5 198,-108.5 198,-78.5 0,-78.5"/>
<text text-anchor="start" x="8" y="-96.5" font-family="Helvetica,sans-Serif" font-size="10.00" fill="#000000">std::vector&lt; std::shared</text>
<text text-anchor="middle" x="99" y="-85.5" font-family="Helvetica,sans-Serif" font-size="10.00" fill="#000000">_ptr&lt; const gko::AbstractFactory &gt; &gt;</text>
</a>
</g>
</g>
<!-- Node2&#45;&gt;Node1 -->
<g id="edge1" class="edge">
<title>Node2&#45;&gt;Node1</title>
<path fill="none" stroke="#9a32cd" stroke-dasharray="5,2" d="M99,-68.2875C99,-55.9187 99,-41.4264 99,-30.7592"/>
<polygon fill="#9a32cd" stroke="#9a32cd" points="95.5001,-68.4608 99,-78.4608 102.5001,-68.4608 95.5001,-68.4608"/>
<text text-anchor="middle" x="118" y="-52" font-family="Helvetica,sans-Serif" font-size="10.00" fill="#000000"> criteria</text>
</g>
<!-- Node3 -->
<g id="node3" class="node">
<title>Node3</title>
<g id="a_node3"><a xlink:title="STL class.">
<polygon fill="#ffffff" stroke="#bfbfbf" points="50.5,-167.5 50.5,-186.5 147.5,-186.5 147.5,-167.5 50.5,-167.5"/>
<text text-anchor="middle" x="99" y="-174.5" font-family="Helvetica,sans-Serif" font-size="10.00" fill="#000000">std::vector&lt; T &gt;</text>
</a>
</g>
</g>
<!-- Node3&#45;&gt;Node2 -->
<g id="edge2" class="edge">
<title>Node3&#45;&gt;Node2</title>
<path fill="none" stroke="#ffa500" stroke-dasharray="5,2" d="M99,-157.2427C99,-142.345 99,-122.2186 99,-108.597"/>
<polygon fill="#ffa500" stroke="#ffa500" points="95.5001,-157.4215 99,-167.4215 102.5001,-157.4215 95.5001,-157.4215"/>
<text text-anchor="start" x="99" y="-141" font-family="Helvetica,sans-Serif" font-size="10.00" fill="#000000"> &lt; std::shared_ptr&lt;</text>
<text text-anchor="middle" x="176.5" y="-130" font-family="Helvetica,sans-Serif" font-size="10.00" fill="#000000"> const gko::AbstractFactory &gt; &gt;</text>
</g>
</g>
</svg>
