<?xml version="1.0" encoding="UTF-8" standalone="no"?>
<!DOCTYPE svg PUBLIC "-//W3C//DTD SVG 1.1//EN"
 "http://www.w3.org/Graphics/SVG/1.1/DTD/svg11.dtd">
<!-- Generated by graphviz version 2.40.1 (20161225.0304)
 -->
<!-- Title: gko::batch::solver::Bicgstab&lt; ValueType &gt;::parameters_type Pages: 1 -->
<!--zoomable 163 -->
<svg id="main" version="1.1" xmlns="http://www.w3.org/2000/svg" xmlns:xlink="http://www.w3.org/1999/xlink" xml:space="preserve" onload="init(evt)">
<style type="text/css"><![CDATA[
.edge:hover path { stroke: red; }
.edge:hover polygon { stroke: red; fill: red; }
]]></style>
<script type="text/javascript"><![CDATA[
var edges = document.getElementsByTagName('g');
if (edges && edges.length) {
  for (var i=0;i<edges.length;i++) {
    if (edges[i].id.substr(0,4)=='edge') {
      edges[i].setAttribute('class','edge');
    }
  }
}
]]></script>
        <defs>
                <circle id="rim" cx="0" cy="0" r="7"/>
                <circle id="rim2" cx="0" cy="0" r="3.5"/>
                <g id="zoomPlus">
                        <use xlink:href="#rim" fill="#404040">
                                <set attributeName="fill" to="#808080" begin="zoomplus.mouseover" end="zoomplus.mouseout"/>
                        </use>
                        <path d="M-4,0h8M0,-4v8" fill="none" stroke="white" stroke-width="1.5" pointer-events="none"/>
                </g>
                <g id="zoomMin">
                        <use xlink:href="#rim" fill="#404040">
                                <set attributeName="fill" to="#808080" begin="zoomminus.mouseover" end="zoomminus.mouseout"/>
                        </use>
                        <path d="M-4,0h8" fill="none" stroke="white" stroke-width="1.5" pointer-events="none"/>
                </g>
                <g id="dirArrow">
                        <path fill="none" stroke="white" stroke-width="1.5" d="M0,-3.0v7 M-2.5,-0.5L0,-3.0L2.5,-0.5"/>
                </g>
               <g id="resetDef">
                       <use xlink:href="#rim2" fill="#404040">
                               <set attributeName="fill" to="#808080" begin="reset.mouseover" end="reset.mouseout"/>
                       </use>
               </g>
        </defs>

<script type="text/javascript">
var viewWidth = 1578;
var viewHeight = 163;
var sectionId = 'dynsection-1';
</script>
<script xlink:href="svgpan.js"/>
<svg id="graph" class="graph">
<g id="viewport">
<title>gko::batch::solver::Bicgstab&lt; ValueType &gt;::parameters_type</title>
<polygon fill="#ffffff" stroke="transparent" points="-4,4 -4,-158.5 1574,-158.5 1574,4 -4,4"/>
<!-- Node1 -->
<g id="node1" class="node">
<title>Node1</title>
<g id="a_node1"><a xlink:title=" ">
<polygon fill="#bfbfbf" stroke="#000000" points="1445,-55 1445,-96 1570,-96 1570,-55 1445,-55"/>
<text text-anchor="start" x="1453" y="-84" font-family="Helvetica,sans-Serif" font-size="10.00" fill="#000000">gko::batch::solver</text>
<text text-anchor="start" x="1453" y="-73" font-family="Helvetica,sans-Serif" font-size="10.00" fill="#000000">::Bicgstab&lt; ValueType</text>
<text text-anchor="middle" x="1507.5" y="-62" font-family="Helvetica,sans-Serif" font-size="10.00" fill="#000000"> &gt;::parameters_type</text>
</a>
</g>
</g>
<!-- Node2 -->
<g id="node2" class="node">
<title>Node2</title>
<g id="a_node2"><a xlink:href="structgko_1_1batch_1_1solver_1_1enable__preconditioned__iterative__solver__factory__parameters.html" target="_top" xlink:title=" ">
<polygon fill="#ffffff" stroke="#000000" points="1232,-44 1232,-107 1408,-107 1408,-44 1232,-44"/>
<text text-anchor="start" x="1240" y="-95" font-family="Helvetica,sans-Serif" font-size="10.00" fill="#000000">gko::batch::solver</text>
<text text-anchor="start" x="1240" y="-84" font-family="Helvetica,sans-Serif" font-size="10.00" fill="#000000">::enable_preconditioned</text>
<text text-anchor="start" x="1240" y="-73" font-family="Helvetica,sans-Serif" font-size="10.00" fill="#000000">_iterative_solver_factory</text>
<text text-anchor="start" x="1240" y="-62" font-family="Helvetica,sans-Serif" font-size="10.00" fill="#000000">_parameters&lt; parameters_type,</text>
<text text-anchor="middle" x="1320" y="-51" font-family="Helvetica,sans-Serif" font-size="10.00" fill="#000000"> Factory &gt;</text>
</a>
</g>
</g>
<!-- Node2&#45;&gt;Node1 -->
<g id="edge1" class="edge">
<title>Node2&#45;&gt;Node1</title>
<path fill="none" stroke="#191970" d="M1418.3998,-75.5C1427.3752,-75.5 1436.2936,-75.5 1444.8249,-75.5"/>
<polygon fill="#191970" stroke="#191970" points="1418.2597,-72.0001 1408.2596,-75.5 1418.2596,-79.0001 1418.2597,-72.0001"/>
</g>
<!-- Node3 -->
<g id="node3" class="node">
<title>Node3</title>
<g id="a_node3"><a xlink:href="classgko_1_1enable__parameters__type.html" target="_top" xlink:title=" ">
<polygon fill="#ffffff" stroke="#000000" points="788,-113 788,-154 929,-154 929,-113 788,-113"/>
<text text-anchor="start" x="796" y="-142" font-family="Helvetica,sans-Serif" font-size="10.00" fill="#000000">gko::enable_parameters</text>
<text text-anchor="start" x="796" y="-131" font-family="Helvetica,sans-Serif" font-size="10.00" fill="#000000">_type&lt; parameters_type,</text>
<text text-anchor="middle" x="858.5" y="-120" font-family="Helvetica,sans-Serif" font-size="10.00" fill="#000000"> Factory &gt;</text>
</a>
</g>
</g>
<!-- Node3&#45;&gt;Node2 -->
<g id="edge2" class="edge">
<title>Node3&#45;&gt;Node2</title>
<path fill="none" stroke="#191970" d="M939.5944,-130.5036C1012.031,-126.8088 1120.7853,-118.7476 1214,-101.5 1219.8691,-100.414 1225.8987,-99.2017 1231.9605,-97.9104"/>
<polygon fill="#191970" stroke="#191970" points="938.9921,-127.029 929.1767,-131.0177 939.3371,-134.0205 938.9921,-127.029"/>
</g>
<!-- Node4 -->
<g id="node4" class="node">
<title>Node4</title>
<g id="a_node4"><a xlink:href="classgko_1_1enable__parameters__type.html" target="_top" xlink:title="The enable_parameters_type mixin is used to create a base implementation of the factory parameters st...">
<polygon fill="#ffffff" stroke="#000000" points="263,-105 263,-146 442,-146 442,-105 263,-105"/>
<text text-anchor="start" x="271" y="-134" font-family="Helvetica,sans-Serif" font-size="10.00" fill="#000000">gko::enable_parameters</text>
<text text-anchor="start" x="271" y="-123" font-family="Helvetica,sans-Serif" font-size="10.00" fill="#000000">_type&lt; ConcreteParametersType,</text>
<text text-anchor="middle" x="352.5" y="-112" font-family="Helvetica,sans-Serif" font-size="10.00" fill="#000000"> Factory &gt;</text>
</a>
</g>
</g>
<!-- Node4&#45;&gt;Node3 -->
<g id="edge3" class="edge">
<title>Node4&#45;&gt;Node3</title>
<path fill="none" stroke="#ffa500" stroke-dasharray="5,2" d="M452.101,-127.0747C551.052,-128.6392 700.2938,-130.9987 787.7135,-132.3808"/>
<polygon fill="#ffa500" stroke="#ffa500" points="452.1427,-123.575 442.0886,-126.9164 452.032,-130.5742 452.1427,-123.575"/>
<text text-anchor="start" x="474" y="-142.5" font-family="Helvetica,sans-Serif" font-size="10.00" fill="#000000"> &lt; parameters_type,</text>
<text text-anchor="middle" x="524.5" y="-131.5" font-family="Helvetica,sans-Serif" font-size="10.00" fill="#000000"> Factory &gt;</text>
</g>
<!-- Node10 -->
<g id="node10" class="node">
<title>Node10</title>
<g id="a_node10"><a xlink:href="classgko_1_1enable__parameters__type.html" target="_top" xlink:title=" ">
<polygon fill="#ffffff" stroke="#000000" points="607,-69.5 607,-99.5 770,-99.5 770,-69.5 607,-69.5"/>
<text text-anchor="start" x="615" y="-87.5" font-family="Helvetica,sans-Serif" font-size="10.00" fill="#000000">gko::enable_parameters</text>
<text text-anchor="middle" x="688.5" y="-76.5" font-family="Helvetica,sans-Serif" font-size="10.00" fill="#000000">_type&lt; Parameters, Factory &gt;</text>
</a>
</g>
</g>
<!-- Node4&#45;&gt;Node10 -->
<g id="edge11" class="edge">
<title>Node4&#45;&gt;Node10</title>
<path fill="none" stroke="#ffa500" stroke-dasharray="5,2" d="M432.9863,-102.7013C442.0457,-100.6834 451.1854,-98.8847 460,-97.5 508.3792,-89.9001 563.1385,-86.6048 606.9207,-85.2308"/>
<polygon fill="#ffa500" stroke="#ffa500" points="432.1583,-99.3003 423.2066,-104.9677 433.7386,-106.1196 432.1583,-99.3003"/>
<text text-anchor="middle" x="524.5" y="-100.5" font-family="Helvetica,sans-Serif" font-size="10.00" fill="#000000"> &lt; Parameters, Factory &gt;</text>
</g>
<!-- Node5 -->
<g id="node5" class="node">
<title>Node5</title>
<g id="a_node5"><a xlink:href="structgko_1_1batch_1_1solver_1_1preconditioned__iterative__solver__factory__parameters.html" target="_top" xlink:title="The parameter type shared between all preconditioned iterative solvers, excluding the parameters avai...">
<polygon fill="#ffffff" stroke="#000000" points="612,-4 612,-45 765,-45 765,-4 612,-4"/>
<text text-anchor="start" x="620" y="-33" font-family="Helvetica,sans-Serif" font-size="10.00" fill="#000000">gko::batch::solver</text>
<text text-anchor="start" x="620" y="-22" font-family="Helvetica,sans-Serif" font-size="10.00" fill="#000000">::preconditioned_iterative</text>
<text text-anchor="middle" x="688.5" y="-11" font-family="Helvetica,sans-Serif" font-size="10.00" fill="#000000">_solver_factory_parameters</text>
</a>
</g>
</g>
<!-- Node5&#45;&gt;Node2 -->
<g id="edge4" class="edge">
<title>Node5&#45;&gt;Node2</title>
<path fill="none" stroke="#191970" d="M775.2242,-22.7382C857.694,-21.9826 985.1174,-23.2063 1095,-34.5 1140.4223,-39.1685 1190.44,-47.9163 1231.7582,-56.1364"/>
<polygon fill="#191970" stroke="#191970" points="775.1074,-19.2391 765.1442,-22.8424 775.1799,-26.2387 775.1074,-19.2391"/>
</g>
<!-- Node9 -->
<g id="node9" class="node">
<title>Node9</title>
<g id="a_node9"><a xlink:href="structgko_1_1batch_1_1solver_1_1enable__preconditioned__iterative__solver__factory__parameters.html" target="_top" xlink:title=" ">
<polygon fill="#ffffff" stroke="#000000" points="947,-44 947,-107 1095,-107 1095,-44 947,-44"/>
<text text-anchor="start" x="955" y="-95" font-family="Helvetica,sans-Serif" font-size="10.00" fill="#000000">gko::batch::solver</text>
<text text-anchor="start" x="955" y="-84" font-family="Helvetica,sans-Serif" font-size="10.00" fill="#000000">::enable_preconditioned</text>
<text text-anchor="start" x="955" y="-73" font-family="Helvetica,sans-Serif" font-size="10.00" fill="#000000">_iterative_solver_factory</text>
<text text-anchor="start" x="955" y="-62" font-family="Helvetica,sans-Serif" font-size="10.00" fill="#000000">_parameters&lt; Parameters,</text>
<text text-anchor="middle" x="1021" y="-51" font-family="Helvetica,sans-Serif" font-size="10.00" fill="#000000"> Factory &gt;</text>
</a>
</g>
</g>
<!-- Node5&#45;&gt;Node9 -->
<g id="edge12" class="edge">
<title>Node5&#45;&gt;Node9</title>
<path fill="none" stroke="#191970" d="M775.3222,-37.8171C828.6375,-45.9948 896.199,-56.3576 946.9728,-64.1454"/>
<polygon fill="#191970" stroke="#191970" points="775.6148,-34.3211 765.1997,-36.2645 774.5534,-41.2402 775.6148,-34.3211"/>
</g>
<!-- Node6 -->
<g id="node6" class="node">
<title>Node6</title>
<g id="a_node6"><a xlink:title=" ">
<polygon fill="#ffffff" stroke="#bfbfbf" points="281,-49.5 281,-79.5 424,-79.5 424,-49.5 281,-49.5"/>
<text text-anchor="start" x="289" y="-67.5" font-family="Helvetica,sans-Serif" font-size="10.00" fill="#000000">std::shared_ptr&lt; const</text>
<text text-anchor="middle" x="352.5" y="-56.5" font-family="Helvetica,sans-Serif" font-size="10.00" fill="#000000"> gko::batch::BatchLinOp &gt;</text>
</a>
</g>
</g>
<!-- Node6&#45;&gt;Node5 -->
<g id="edge5" class="edge">
<title>Node6&#45;&gt;Node5</title>
<path fill="none" stroke="#9a32cd" stroke-dasharray="5,2" d="M434.3262,-55.4894C479.884,-50.3895 537.6125,-43.7899 589,-37.5 596.4356,-36.5899 604.1805,-35.6187 611.9211,-34.6327"/>
<polygon fill="#9a32cd" stroke="#9a32cd" points="433.756,-52.0312 424.2064,-56.62 434.5333,-58.988 433.756,-52.0312"/>
<text text-anchor="middle" x="524.5" y="-56.5" font-family="Helvetica,sans-Serif" font-size="10.00" fill="#000000"> generated_preconditioner</text>
</g>
<!-- Node7 -->
<g id="node7" class="node">
<title>Node7</title>
<g id="a_node7"><a xlink:title="STL class.">
<polygon fill="#ffffff" stroke="#bfbfbf" points="0,-30 0,-49 118,-49 118,-30 0,-30"/>
<text text-anchor="middle" x="59" y="-37" font-family="Helvetica,sans-Serif" font-size="10.00" fill="#000000">std::shared_ptr&lt; T &gt;</text>
</a>
</g>
</g>
<!-- Node7&#45;&gt;Node6 -->
<g id="edge6" class="edge">
<title>Node7&#45;&gt;Node6</title>
<path fill="none" stroke="#ffa500" stroke-dasharray="5,2" d="M128.2141,-45.3956C174.181,-49.311 234.3865,-54.4392 280.8459,-58.3966"/>
<polygon fill="#ffa500" stroke="#ffa500" points="128.302,-41.8905 118.041,-44.529 127.7079,-48.8652 128.302,-41.8905"/>
<text text-anchor="start" x="143" y="-69.5" font-family="Helvetica,sans-Serif" font-size="10.00" fill="#000000"> &lt; const gko::batch</text>
<text text-anchor="middle" x="190.5" y="-58.5" font-family="Helvetica,sans-Serif" font-size="10.00" fill="#000000">::BatchLinOp &gt;</text>
</g>
<!-- Node8 -->
<g id="node8" class="node">
<title>Node8</title>
<g id="a_node8"><a xlink:title=" ">
<polygon fill="#ffffff" stroke="#bfbfbf" points="263,-.5 263,-30.5 442,-30.5 442,-.5 263,-.5"/>
<text text-anchor="start" x="271" y="-18.5" font-family="Helvetica,sans-Serif" font-size="10.00" fill="#000000">std::shared_ptr&lt; const</text>
<text text-anchor="middle" x="352.5" y="-7.5" font-family="Helvetica,sans-Serif" font-size="10.00" fill="#000000"> gko::batch::BatchLinOpFactory &gt;</text>
</a>
</g>
</g>
<!-- Node7&#45;&gt;Node8 -->
<g id="edge8" class="edge">
<title>Node7&#45;&gt;Node8</title>
<path fill="none" stroke="#ffa500" stroke-dasharray="5,2" d="M98.6683,-27.2919C110.5576,-24.1521 123.7062,-21.1861 136,-19.5 177.4346,-13.8173 223.743,-12.3182 262.8642,-12.4398"/>
<polygon fill="#ffa500" stroke="#ffa500" points="97.7369,-23.918 89.024,-29.9459 99.5942,-30.6671 97.7369,-23.918"/>
<text text-anchor="start" x="136" y="-33.5" font-family="Helvetica,sans-Serif" font-size="10.00" fill="#000000"> &lt; const gko::batch</text>
<text text-anchor="middle" x="190.5" y="-22.5" font-family="Helvetica,sans-Serif" font-size="10.00" fill="#000000">::BatchLinOpFactory &gt;</text>
</g>
<!-- Node8&#45;&gt;Node5 -->
<g id="edge7" class="edge">
<title>Node8&#45;&gt;Node5</title>
<path fill="none" stroke="#9a32cd" stroke-dasharray="5,2" d="M452.1833,-18.1701C503.3114,-19.5396 564.6146,-21.1816 611.9695,-22.4501"/>
<polygon fill="#9a32cd" stroke="#9a32cd" points="452.1906,-14.6691 442.1005,-17.9 452.0031,-21.6666 452.1906,-14.6691"/>
<text text-anchor="middle" x="524.5" y="-25.5" font-family="Helvetica,sans-Serif" font-size="10.00" fill="#000000"> preconditioner</text>
</g>
<!-- Node9&#45;&gt;Node2 -->
<g id="edge9" class="edge">
<title>Node9&#45;&gt;Node2</title>
<path fill="none" stroke="#ffa500" stroke-dasharray="5,2" d="M1105.4146,-75.5C1144.8584,-75.5 1191.8132,-75.5 1231.7285,-75.5"/>
<polygon fill="#ffa500" stroke="#ffa500" points="1105.2943,-72.0001 1095.2943,-75.5 1105.2943,-79.0001 1105.2943,-72.0001"/>
<text text-anchor="start" x="1113" y="-89.5" font-family="Helvetica,sans-Serif" font-size="10.00" fill="#000000"> &lt; parameters_type,</text>
<text text-anchor="middle" x="1163.5" y="-78.5" font-family="Helvetica,sans-Serif" font-size="10.00" fill="#000000"> Factory &gt;</text>
</g>
<!-- Node10&#45;&gt;Node9 -->
<g id="edge10" class="edge">
<title>Node10&#45;&gt;Node9</title>
<path fill="none" stroke="#191970" d="M780.5773,-82.0077C833.0079,-80.5885 897.8191,-78.8342 946.934,-77.5048"/>
<polygon fill="#191970" stroke="#191970" points="780.1661,-78.5174 770.2645,-82.2868 780.3556,-85.5149 780.1661,-78.5174"/>
</g>
</g>
</svg>
        <g id="navigator" transform="translate(0 0)" fill="#404254">
                <rect fill="#f2f5e9" fill-opacity="0.5" stroke="#606060" stroke-width=".5" x="0" y="0" width="60" height="60"/>
                <use id="zoomplus" xlink:href="#zoomPlus" x="17" y="9" onmousedown="handleZoom(evt,'in')"/>
                <use id="zoomminus" xlink:href="#zoomMin" x="42" y="9" onmousedown="handleZoom(evt,'out')"/>
                <use id="reset" xlink:href="#resetDef" x="30" y="36" onmousedown="handleReset()"/>
                <g id="arrowUp" xlink:href="#dirArrow" transform="translate(30 24)" onmousedown="handlePan(0,-1)">
                  <use xlink:href="#rim" fill="#404040">
                        <set attributeName="fill" to="#808080" begin="arrowUp.mouseover" end="arrowUp.mouseout"/>
                  </use>
                  <path fill="none" stroke="white" stroke-width="1.5" d="M0,-3.0v7 M-2.5,-0.5L0,-3.0L2.5,-0.5"/>
                </g>
                <g id="arrowRight" xlink:href="#dirArrow" transform="rotate(90) translate(36 -43)" onmousedown="handlePan(1,0)">
                  <use xlink:href="#rim" fill="#404040">
                        <set attributeName="fill" to="#808080" begin="arrowRight.mouseover" end="arrowRight.mouseout"/>
                  </use>
                  <path fill="none" stroke="white" stroke-width="1.5" d="M0,-3.0v7 M-2.5,-0.5L0,-3.0L2.5,-0.5"/>
                </g>
                <g id="arrowDown" xlink:href="#dirArrow" transform="rotate(180) translate(-30 -48)" onmousedown="handlePan(0,1)">
                  <use xlink:href="#rim" fill="#404040">
                        <set attributeName="fill" to="#808080" begin="arrowDown.mouseover" end="arrowDown.mouseout"/>
                  </use>
                  <path fill="none" stroke="white" stroke-width="1.5" d="M0,-3.0v7 M-2.5,-0.5L0,-3.0L2.5,-0.5"/>
                </g>
                <g id="arrowLeft" xlink:href="#dirArrow" transform="rotate(270) translate(-36 17)" onmousedown="handlePan(-1,0)">
                  <use xlink:href="#rim" fill="#404040">
                        <set attributeName="fill" to="#808080" begin="arrowLeft.mouseover" end="arrowLeft.mouseout"/>
                  </use>
                  <path fill="none" stroke="white" stroke-width="1.5" d="M0,-3.0v7 M-2.5,-0.5L0,-3.0L2.5,-0.5"/>
                </g>
        </g>
        <svg viewBox="0 0 15 15" width="100%" height="30px" preserveAspectRatio="xMaxYMin meet">
         <g id="arrow_out" transform="scale(0.3 0.3)">
          <a xlink:href="structgko_1_1batch_1_1solver_1_1Bicgstab_1_1parameters__type__coll__graph_org.svg" target="_base">
           <rect id="button" ry="5" rx="5" y="6" x="6" height="38" width="38"
                fill="#f2f5e9" fill-opacity="0.5" stroke="#606060" stroke-width="1.0"/>
           <path id="arrow"
             d="M 11.500037,31.436501 C 11.940474,20.09759 22.043105,11.32322 32.158766,21.979434 L 37.068811,17.246167 C 37.068811,17.246167 37.088388,32 37.088388,32 L 22.160133,31.978069 C 22.160133,31.978069 26.997745,27.140456 26.997745,27.140456 C 18.528582,18.264221 13.291696,25.230495 11.500037,31.436501 z"
             style="fill:#404040;"/>
          </a>
         </g>
        </svg>
</svg>
