<?xml version="1.0" encoding="UTF-8" standalone="no"?>
<!DOCTYPE svg PUBLIC "-//W3C//DTD SVG 1.1//EN"
 "http://www.w3.org/Graphics/SVG/1.1/DTD/svg11.dtd">
<!-- Generated by graphviz version 2.40.1 (20161225.0304)
 -->
<!-- Title: gko::solver::enable_preconditioned_iterative_solver_factory_parameters&lt; Parameters, Factory &gt; Pages: 1 -->
<svg width="1339pt" height="199pt"
 viewBox="0.00 0.00 1339.00 198.50" xmlns="http://www.w3.org/2000/svg" xmlns:xlink="http://www.w3.org/1999/xlink">
<g id="graph0" class="graph" transform="scale(1 1) rotate(0) translate(4 194.5)">
<title>gko::solver::enable_preconditioned_iterative_solver_factory_parameters&lt; Parameters, Factory &gt;</title>
<polygon fill="#ffffff" stroke="transparent" points="-4,4 -4,-194.5 1335,-194.5 1335,4 -4,4"/>
<!-- Node1 -->
<g id="node1" class="node">
<title>Node1</title>
<g id="a_node1"><a xlink:title=" ">
<polygon fill="#bfbfbf" stroke="#000000" points="1178,-61.5 1178,-113.5 1331,-113.5 1331,-61.5 1178,-61.5"/>
<text text-anchor="start" x="1186" y="-101.5" font-family="Helvetica,sans-Serif" font-size="10.00" fill="#000000">gko::solver::enable</text>
<text text-anchor="start" x="1186" y="-90.5" font-family="Helvetica,sans-Serif" font-size="10.00" fill="#000000">_preconditioned_iterative</text>
<text text-anchor="start" x="1186" y="-79.5" font-family="Helvetica,sans-Serif" font-size="10.00" fill="#000000">_solver_factory_parameters</text>
<text text-anchor="middle" x="1254.5" y="-68.5" font-family="Helvetica,sans-Serif" font-size="10.00" fill="#000000">&lt; Parameters, Factory &gt;</text>
</a>
</g>
</g>
<!-- Node2 -->
<g id="node2" class="node">
<title>Node2</title>
<g id="a_node2"><a xlink:href="structgko_1_1solver_1_1enable__iterative__solver__factory__parameters.html" target="_top" xlink:title=" ">
<polygon fill="#ffffff" stroke="#000000" points="992.5,-95.5 992.5,-147.5 1140.5,-147.5 1140.5,-95.5 992.5,-95.5"/>
<text text-anchor="start" x="1000.5" y="-135.5" font-family="Helvetica,sans-Serif" font-size="10.00" fill="#000000">gko::solver::enable</text>
<text text-anchor="start" x="1000.5" y="-124.5" font-family="Helvetica,sans-Serif" font-size="10.00" fill="#000000">_iterative_solver_factory</text>
<text text-anchor="start" x="1000.5" y="-113.5" font-family="Helvetica,sans-Serif" font-size="10.00" fill="#000000">_parameters&lt; Parameters,</text>
<text text-anchor="middle" x="1066.5" y="-102.5" font-family="Helvetica,sans-Serif" font-size="10.00" fill="#000000"> Factory &gt;</text>
</a>
</g>
</g>
<!-- Node2&#45;&gt;Node1 -->
<g id="edge1" class="edge">
<title>Node2&#45;&gt;Node1</title>
<path fill="none" stroke="#191970" d="M1150.6512,-106.2812C1159.6752,-104.6492 1168.8217,-102.995 1177.753,-101.3798"/>
<polygon fill="#191970" stroke="#191970" points="1149.7502,-102.8873 1140.5327,-108.1111 1150.996,-109.7755 1149.7502,-102.8873"/>
</g>
<!-- Node3 -->
<g id="node3" class="node">
<title>Node3</title>
<g id="a_node3"><a xlink:href="classgko_1_1enable__parameters__type.html" target="_top" xlink:title=" ">
<polygon fill="#ffffff" stroke="#000000" points="664,-153.5 664,-183.5 827,-183.5 827,-153.5 664,-153.5"/>
<text text-anchor="start" x="672" y="-171.5" font-family="Helvetica,sans-Serif" font-size="10.00" fill="#000000">gko::enable_parameters</text>
<text text-anchor="middle" x="745.5" y="-160.5" font-family="Helvetica,sans-Serif" font-size="10.00" fill="#000000">_type&lt; Parameters, Factory &gt;</text>
</a>
</g>
</g>
<!-- Node3&#45;&gt;Node2 -->
<g id="edge2" class="edge">
<title>Node3&#45;&gt;Node2</title>
<path fill="none" stroke="#191970" d="M837.3218,-155.0557C886.4207,-147.8668 946.0873,-139.1305 992.23,-132.3744"/>
<polygon fill="#191970" stroke="#191970" points="836.7198,-151.6064 827.3324,-156.5183 837.734,-158.5326 836.7198,-151.6064"/>
</g>
<!-- Node4 -->
<g id="node4" class="node">
<title>Node4</title>
<g id="a_node4"><a xlink:href="classgko_1_1enable__parameters__type.html" target="_top" xlink:title="The enable_parameters_type mixin is used to create a base implementation of the factory parameters st...">
<polygon fill="#ffffff" stroke="#000000" points="297.5,-149 297.5,-190 476.5,-190 476.5,-149 297.5,-149"/>
<text text-anchor="start" x="305.5" y="-178" font-family="Helvetica,sans-Serif" font-size="10.00" fill="#000000">gko::enable_parameters</text>
<text text-anchor="start" x="305.5" y="-167" font-family="Helvetica,sans-Serif" font-size="10.00" fill="#000000">_type&lt; ConcreteParametersType,</text>
<text text-anchor="middle" x="387" y="-156" font-family="Helvetica,sans-Serif" font-size="10.00" fill="#000000"> Factory &gt;</text>
</a>
</g>
</g>
<!-- Node4&#45;&gt;Node3 -->
<g id="edge3" class="edge">
<title>Node4&#45;&gt;Node3</title>
<path fill="none" stroke="#ffa500" stroke-dasharray="5,2" d="M486.8018,-169.2216C542.5986,-169.066 611.2711,-168.8744 663.8372,-168.7278"/>
<polygon fill="#ffa500" stroke="#ffa500" points="486.5301,-165.7223 476.5399,-169.2502 486.5497,-172.7222 486.5301,-165.7223"/>
<text text-anchor="middle" x="575" y="-171.5" font-family="Helvetica,sans-Serif" font-size="10.00" fill="#000000"> &lt; Parameters, Factory &gt;</text>
</g>
<!-- Node5 -->
<g id="node5" class="node">
<title>Node5</title>
<g id="a_node5"><a xlink:href="structgko_1_1solver_1_1iterative__solver__factory__parameters.html" target="_top" xlink:title="The parameter type shared between all iterative solvers.">
<polygon fill="#ffffff" stroke="#000000" points="669,-103.5 669,-133.5 822,-133.5 822,-103.5 669,-103.5"/>
<text text-anchor="start" x="677" y="-121.5" font-family="Helvetica,sans-Serif" font-size="10.00" fill="#000000">gko::solver::iterative</text>
<text text-anchor="middle" x="745.5" y="-110.5" font-family="Helvetica,sans-Serif" font-size="10.00" fill="#000000">_solver_factory_parameters</text>
</a>
</g>
</g>
<!-- Node5&#45;&gt;Node2 -->
<g id="edge4" class="edge">
<title>Node5&#45;&gt;Node2</title>
<path fill="none" stroke="#191970" d="M832.5481,-119.3135C882.5876,-119.7812 944.7721,-120.3624 992.4499,-120.8079"/>
<polygon fill="#191970" stroke="#191970" points="832.4198,-115.8123 822.3875,-119.2186 832.3543,-122.812 832.4198,-115.8123"/>
</g>
<!-- Node6 -->
<g id="node6" class="node">
<title>Node6</title>
<g id="a_node6"><a xlink:title=" ">
<polygon fill="#ffffff" stroke="#bfbfbf" points="288,-99.5 288,-129.5 486,-129.5 486,-99.5 288,-99.5"/>
<text text-anchor="start" x="296" y="-117.5" font-family="Helvetica,sans-Serif" font-size="10.00" fill="#000000">std::vector&lt; std::shared</text>
<text text-anchor="middle" x="387" y="-106.5" font-family="Helvetica,sans-Serif" font-size="10.00" fill="#000000">_ptr&lt; const gko::AbstractFactory &gt; &gt;</text>
</a>
</g>
</g>
<!-- Node6&#45;&gt;Node5 -->
<g id="edge5" class="edge">
<title>Node6&#45;&gt;Node5</title>
<path fill="none" stroke="#9a32cd" stroke-dasharray="5,2" d="M496.6671,-115.7236C552.4237,-116.3457 618.8131,-117.0865 668.9883,-117.6463"/>
<polygon fill="#9a32cd" stroke="#9a32cd" points="496.4246,-112.2208 486.3862,-115.6089 496.3464,-119.2204 496.4246,-112.2208"/>
<text text-anchor="middle" x="575" y="-119.5" font-family="Helvetica,sans-Serif" font-size="10.00" fill="#000000"> criteria</text>
</g>
<!-- Node7 -->
<g id="node7" class="node">
<title>Node7</title>
<g id="a_node7"><a xlink:title="STL class.">
<polygon fill="#ffffff" stroke="#bfbfbf" points="0,-105 0,-124 97,-124 97,-105 0,-105"/>
<text text-anchor="middle" x="48.5" y="-112" font-family="Helvetica,sans-Serif" font-size="10.00" fill="#000000">std::vector&lt; T &gt;</text>
</a>
</g>
</g>
<!-- Node7&#45;&gt;Node6 -->
<g id="edge6" class="edge">
<title>Node7&#45;&gt;Node6</title>
<path fill="none" stroke="#ffa500" stroke-dasharray="5,2" d="M107.6096,-114.5C157.2983,-114.5 229.3742,-114.5 287.873,-114.5"/>
<polygon fill="#ffa500" stroke="#ffa500" points="107.3593,-111.0001 97.3593,-114.5 107.3593,-118.0001 107.3593,-111.0001"/>
<text text-anchor="start" x="115" y="-128.5" font-family="Helvetica,sans-Serif" font-size="10.00" fill="#000000"> &lt; std::shared_ptr&lt;</text>
<text text-anchor="middle" x="192.5" y="-117.5" font-family="Helvetica,sans-Serif" font-size="10.00" fill="#000000"> const gko::AbstractFactory &gt; &gt;</text>
</g>
<!-- Node8 -->
<g id="node8" class="node">
<title>Node8</title>
<g id="a_node8"><a xlink:href="structgko_1_1solver_1_1preconditioned__iterative__solver__factory__parameters.html" target="_top" xlink:title="The parameter type shared between all preconditioned iterative solvers, excluding the parameters avai...">
<polygon fill="#ffffff" stroke="#000000" points="992,-35 992,-76 1141,-76 1141,-35 992,-35"/>
<text text-anchor="start" x="1000" y="-64" font-family="Helvetica,sans-Serif" font-size="10.00" fill="#000000">gko::solver::preconditioned</text>
<text text-anchor="start" x="1000" y="-53" font-family="Helvetica,sans-Serif" font-size="10.00" fill="#000000">_iterative_solver_factory</text>
<text text-anchor="middle" x="1066.5" y="-42" font-family="Helvetica,sans-Serif" font-size="10.00" fill="#000000">_parameters</text>
</a>
</g>
</g>
<!-- Node8&#45;&gt;Node1 -->
<g id="edge7" class="edge">
<title>Node8&#45;&gt;Node1</title>
<path fill="none" stroke="#191970" d="M1151.0792,-69.8965C1160.0006,-71.415 1169.0363,-72.953 1177.8606,-74.455"/>
<polygon fill="#191970" stroke="#191970" points="1151.5181,-66.4209 1141.0726,-68.1932 1150.3435,-73.3217 1151.5181,-66.4209"/>
</g>
<!-- Node9 -->
<g id="node9" class="node">
<title>Node9</title>
<g id="a_node9"><a xlink:title=" ">
<polygon fill="#ffffff" stroke="#bfbfbf" points="682,-49.5 682,-79.5 809,-79.5 809,-49.5 682,-49.5"/>
<text text-anchor="start" x="690" y="-67.5" font-family="Helvetica,sans-Serif" font-size="10.00" fill="#000000">std::shared_ptr&lt; const</text>
<text text-anchor="middle" x="745.5" y="-56.5" font-family="Helvetica,sans-Serif" font-size="10.00" fill="#000000"> gko::LinOpFactory &gt;</text>
</a>
</g>
</g>
<!-- Node9&#45;&gt;Node8 -->
<g id="edge8" class="edge">
<title>Node9&#45;&gt;Node8</title>
<path fill="none" stroke="#9a32cd" stroke-dasharray="5,2" d="M819.4076,-62.4278C871.1223,-60.9779 939.9561,-59.048 991.8365,-57.5934"/>
<polygon fill="#9a32cd" stroke="#9a32cd" points="819.201,-58.9321 809.3031,-62.7111 819.3973,-65.9294 819.201,-58.9321"/>
<text text-anchor="middle" x="909.5" y="-64.5" font-family="Helvetica,sans-Serif" font-size="10.00" fill="#000000"> preconditioner</text>
</g>
<!-- Node10 -->
<g id="node10" class="node">
<title>Node10</title>
<g id="a_node10"><a xlink:title="STL class.">
<polygon fill="#ffffff" stroke="#bfbfbf" points="328,-45 328,-64 446,-64 446,-45 328,-45"/>
<text text-anchor="middle" x="387" y="-52" font-family="Helvetica,sans-Serif" font-size="10.00" fill="#000000">std::shared_ptr&lt; T &gt;</text>
</a>
</g>
</g>
<!-- Node10&#45;&gt;Node9 -->
<g id="edge9" class="edge">
<title>Node10&#45;&gt;Node9</title>
<path fill="none" stroke="#ffa500" stroke-dasharray="5,2" d="M456.3981,-56.4358C521.7023,-58.2574 618.6675,-60.9621 681.9816,-62.7282"/>
<polygon fill="#ffa500" stroke="#ffa500" points="456.2927,-52.9316 446.199,-56.1513 456.0975,-59.9289 456.2927,-52.9316"/>
<text text-anchor="middle" x="575" y="-64.5" font-family="Helvetica,sans-Serif" font-size="10.00" fill="#000000"> &lt; const gko::LinOpFactory &gt;</text>
</g>
<!-- Node11 -->
<g id="node11" class="node">
<title>Node11</title>
<g id="a_node11"><a xlink:title=" ">
<polygon fill="#ffffff" stroke="#bfbfbf" points="682,-.5 682,-30.5 809,-30.5 809,-.5 682,-.5"/>
<text text-anchor="start" x="690" y="-18.5" font-family="Helvetica,sans-Serif" font-size="10.00" fill="#000000">std::shared_ptr&lt; const</text>
<text text-anchor="middle" x="745.5" y="-7.5" font-family="Helvetica,sans-Serif" font-size="10.00" fill="#000000"> gko::LinOp &gt;</text>
</a>
</g>
</g>
<!-- Node10&#45;&gt;Node11 -->
<g id="edge11" class="edge">
<title>Node10&#45;&gt;Node11</title>
<path fill="none" stroke="#ffa500" stroke-dasharray="5,2" d="M456.3981,-46.9504C521.7023,-39.8462 618.6675,-29.2977 681.9816,-22.41"/>
<polygon fill="#ffa500" stroke="#ffa500" points="455.7618,-43.4989 446.199,-48.0599 456.5189,-50.4578 455.7618,-43.4989"/>
<text text-anchor="middle" x="575" y="-44.5" font-family="Helvetica,sans-Serif" font-size="10.00" fill="#000000"> &lt; const gko::LinOp &gt;</text>
</g>
<!-- Node11&#45;&gt;Node8 -->
<g id="edge10" class="edge">
<title>Node11&#45;&gt;Node8</title>
<path fill="none" stroke="#9a32cd" stroke-dasharray="5,2" d="M819.2867,-23.8018C864.0696,-28.944 922.3617,-35.8213 974,-42.5 979.7898,-43.2488 985.7805,-44.0441 991.801,-44.858"/>
<polygon fill="#9a32cd" stroke="#9a32cd" points="819.4104,-20.2931 809.0771,-22.6326 818.614,-27.2477 819.4104,-20.2931"/>
<text text-anchor="middle" x="909.5" y="-45.5" font-family="Helvetica,sans-Serif" font-size="10.00" fill="#000000"> generated_preconditioner</text>
</g>
</g>
</svg>
