<?xml version="1.0" encoding="UTF-8" standalone="no"?>
<!DOCTYPE svg PUBLIC "-//W3C//DTD SVG 1.1//EN"
 "http://www.w3.org/Graphics/SVG/1.1/DTD/svg11.dtd">
<!-- Generated by graphviz version 2.40.1 (20161225.0304)
 -->
<!-- Title: gko::batch::solver::Bicgstab&lt; ValueType &gt;::parameters_type Pages: 1 -->
<!--zoomable 161 -->
<svg id="main" version="1.1" xmlns="http://www.w3.org/2000/svg" xmlns:xlink="http://www.w3.org/1999/xlink" xml:space="preserve" onload="init(evt)">
<style type="text/css"><![CDATA[
.edge:hover path { stroke: red; }
.edge:hover polygon { stroke: red; fill: red; }
]]></style>
<script type="text/javascript"><![CDATA[
var edges = document.getElementsByTagName('g');
if (edges && edges.length) {
  for (var i=0;i<edges.length;i++) {
    if (edges[i].id.substr(0,4)=='edge') {
      edges[i].setAttribute('class','edge');
    }
  }
}
]]></script>
        <defs>
                <circle id="rim" cx="0" cy="0" r="7"/>
                <circle id="rim2" cx="0" cy="0" r="3.5"/>
                <g id="zoomPlus">
                        <use xlink:href="#rim" fill="#404040">
                                <set attributeName="fill" to="#808080" begin="zoomplus.mouseover" end="zoomplus.mouseout"/>
                        </use>
                        <path d="M-4,0h8M0,-4v8" fill="none" stroke="white" stroke-width="1.5" pointer-events="none"/>
                </g>
                <g id="zoomMin">
                        <use xlink:href="#rim" fill="#404040">
                                <set attributeName="fill" to="#808080" begin="zoomminus.mouseover" end="zoomminus.mouseout"/>
                        </use>
                        <path d="M-4,0h8" fill="none" stroke="white" stroke-width="1.5" pointer-events="none"/>
                </g>
                <g id="dirArrow">
                        <path fill="none" stroke="white" stroke-width="1.5" d="M0,-3.0v7 M-2.5,-0.5L0,-3.0L2.5,-0.5"/>
                </g>
               <g id="resetDef">
                       <use xlink:href="#rim2" fill="#404040">
                               <set attributeName="fill" to="#808080" begin="reset.mouseover" end="reset.mouseout"/>
                       </use>
               </g>
        </defs>

<script type="text/javascript">
var viewWidth = 1309;
var viewHeight = 161;
var sectionId = 'dynsection-0';
</script>
<script xlink:href="svgpan.js"/>
<svg id="graph" class="graph">
<g id="viewport">
<title>gko::batch::solver::Bicgstab&lt; ValueType &gt;::parameters_type</title>
<polygon fill="#ffffff" stroke="transparent" points="-4,4 -4,-157 1305,-157 1305,4 -4,4"/>
<!-- Node1 -->
<g id="node1" class="node">
<title>Node1</title>
<g id="a_node1"><a xlink:title=" ">
<polygon fill="#bfbfbf" stroke="#000000" points="1176,-52.5 1176,-93.5 1301,-93.5 1301,-52.5 1176,-52.5"/>
<text text-anchor="start" x="1184" y="-81.5" font-family="Helvetica,sans-Serif" font-size="10.00" fill="#000000">gko::batch::solver</text>
<text text-anchor="start" x="1184" y="-70.5" font-family="Helvetica,sans-Serif" font-size="10.00" fill="#000000">::Bicgstab&lt; ValueType</text>
<text text-anchor="middle" x="1238.5" y="-59.5" font-family="Helvetica,sans-Serif" font-size="10.00" fill="#000000"> &gt;::parameters_type</text>
</a>
</g>
</g>
<!-- Node2 -->
<g id="node2" class="node">
<title>Node2</title>
<g id="a_node2"><a xlink:href="structgko_1_1batch_1_1solver_1_1enable__preconditioned__iterative__solver__factory__parameters.html" target="_top" xlink:title=" ">
<polygon fill="#ffffff" stroke="#000000" points="963,-41.5 963,-104.5 1139,-104.5 1139,-41.5 963,-41.5"/>
<text text-anchor="start" x="971" y="-92.5" font-family="Helvetica,sans-Serif" font-size="10.00" fill="#000000">gko::batch::solver</text>
<text text-anchor="start" x="971" y="-81.5" font-family="Helvetica,sans-Serif" font-size="10.00" fill="#000000">::enable_preconditioned</text>
<text text-anchor="start" x="971" y="-70.5" font-family="Helvetica,sans-Serif" font-size="10.00" fill="#000000">_iterative_solver_factory</text>
<text text-anchor="start" x="971" y="-59.5" font-family="Helvetica,sans-Serif" font-size="10.00" fill="#000000">_parameters&lt; parameters_type,</text>
<text text-anchor="middle" x="1051" y="-48.5" font-family="Helvetica,sans-Serif" font-size="10.00" fill="#000000"> Factory &gt;</text>
</a>
</g>
</g>
<!-- Node2&#45;&gt;Node1 -->
<g id="edge1" class="edge">
<title>Node2&#45;&gt;Node1</title>
<path fill="none" stroke="#191970" d="M1149.3998,-73C1158.3752,-73 1167.2936,-73 1175.8249,-73"/>
<polygon fill="#191970" stroke="#191970" points="1149.2597,-69.5001 1139.2596,-73 1149.2596,-76.5001 1149.2597,-69.5001"/>
</g>
<!-- Node3 -->
<g id="node3" class="node">
<title>Node3</title>
<g id="a_node3"><a xlink:href="classgko_1_1enable__parameters__type.html" target="_top" xlink:title=" ">
<polygon fill="#ffffff" stroke="#000000" points="519,-111.5 519,-152.5 660,-152.5 660,-111.5 519,-111.5"/>
<text text-anchor="start" x="527" y="-140.5" font-family="Helvetica,sans-Serif" font-size="10.00" fill="#000000">gko::enable_parameters</text>
<text text-anchor="start" x="527" y="-129.5" font-family="Helvetica,sans-Serif" font-size="10.00" fill="#000000">_type&lt; parameters_type,</text>
<text text-anchor="middle" x="589.5" y="-118.5" font-family="Helvetica,sans-Serif" font-size="10.00" fill="#000000"> Factory &gt;</text>
</a>
</g>
</g>
<!-- Node3&#45;&gt;Node2 -->
<g id="edge2" class="edge">
<title>Node3&#45;&gt;Node2</title>
<path fill="none" stroke="#191970" d="M670.5828,-128.6503C743.0119,-124.6694 851.7615,-116.252 945,-99 950.8691,-97.914 956.8987,-96.7017 962.9605,-95.4104"/>
<polygon fill="#191970" stroke="#191970" points="669.9656,-125.1781 660.1663,-129.2059 670.3386,-132.1682 669.9656,-125.1781"/>
</g>
<!-- Node4 -->
<g id="node4" class="node">
<title>Node4</title>
<g id="a_node4"><a xlink:href="classgko_1_1enable__parameters__type.html" target="_top" xlink:title="The enable_parameters_type mixin is used to create a base implementation of the factory parameters st...">
<polygon fill="#ffffff" stroke="#000000" points="0,-83.5 0,-124.5 179,-124.5 179,-83.5 0,-83.5"/>
<text text-anchor="start" x="8" y="-112.5" font-family="Helvetica,sans-Serif" font-size="10.00" fill="#000000">gko::enable_parameters</text>
<text text-anchor="start" x="8" y="-101.5" font-family="Helvetica,sans-Serif" font-size="10.00" fill="#000000">_type&lt; ConcreteParametersType,</text>
<text text-anchor="middle" x="89.5" y="-90.5" font-family="Helvetica,sans-Serif" font-size="10.00" fill="#000000"> Factory &gt;</text>
</a>
</g>
</g>
<!-- Node4&#45;&gt;Node3 -->
<g id="edge3" class="edge">
<title>Node4&#45;&gt;Node3</title>
<path fill="none" stroke="#ffa500" stroke-dasharray="5,2" d="M189.3403,-109.5911C286.8117,-115.0495 432.6614,-123.217 518.7357,-128.0372"/>
<polygon fill="#ffa500" stroke="#ffa500" points="189.3586,-106.0867 179.1785,-109.022 188.9672,-113.0757 189.3586,-106.0867"/>
<text text-anchor="start" x="208" y="-130" font-family="Helvetica,sans-Serif" font-size="10.00" fill="#000000"> &lt; parameters_type,</text>
<text text-anchor="middle" x="258.5" y="-119" font-family="Helvetica,sans-Serif" font-size="10.00" fill="#000000"> Factory &gt;</text>
</g>
<!-- Node7 -->
<g id="node7" class="node">
<title>Node7</title>
<g id="a_node7"><a xlink:href="classgko_1_1enable__parameters__type.html" target="_top" xlink:title=" ">
<polygon fill="#ffffff" stroke="#000000" points="338,-63 338,-93 501,-93 501,-63 338,-63"/>
<text text-anchor="start" x="346" y="-81" font-family="Helvetica,sans-Serif" font-size="10.00" fill="#000000">gko::enable_parameters</text>
<text text-anchor="middle" x="419.5" y="-70" font-family="Helvetica,sans-Serif" font-size="10.00" fill="#000000">_type&lt; Parameters, Factory &gt;</text>
</a>
</g>
</g>
<!-- Node4&#45;&gt;Node7 -->
<g id="edge7" class="edge">
<title>Node4&#45;&gt;Node7</title>
<path fill="none" stroke="#ffa500" stroke-dasharray="5,2" d="M189.2501,-96.1409C236.8162,-92.3933 293.0061,-87.9662 337.9696,-84.4236"/>
<polygon fill="#ffa500" stroke="#ffa500" points="188.9322,-92.655 179.2381,-96.9297 189.4821,-99.6334 188.9322,-92.655"/>
<text text-anchor="middle" x="258.5" y="-97" font-family="Helvetica,sans-Serif" font-size="10.00" fill="#000000"> &lt; Parameters, Factory &gt;</text>
</g>
<!-- Node5 -->
<g id="node5" class="node">
<title>Node5</title>
<g id="a_node5"><a xlink:href="structgko_1_1batch_1_1solver_1_1preconditioned__iterative__solver__factory__parameters.html" target="_top" xlink:title="The parameter type shared between all preconditioned iterative solvers, excluding the parameters avai...">
<polygon fill="#ffffff" stroke="#000000" points="343,-.5 343,-41.5 496,-41.5 496,-.5 343,-.5"/>
<text text-anchor="start" x="351" y="-29.5" font-family="Helvetica,sans-Serif" font-size="10.00" fill="#000000">gko::batch::solver</text>
<text text-anchor="start" x="351" y="-18.5" font-family="Helvetica,sans-Serif" font-size="10.00" fill="#000000">::preconditioned_iterative</text>
<text text-anchor="middle" x="419.5" y="-7.5" font-family="Helvetica,sans-Serif" font-size="10.00" fill="#000000">_solver_factory_parameters</text>
</a>
</g>
</g>
<!-- Node5&#45;&gt;Node2 -->
<g id="edge4" class="edge">
<title>Node5&#45;&gt;Node2</title>
<path fill="none" stroke="#191970" d="M506.2274,-19.5125C588.6994,-19.0035 716.1244,-20.5705 826,-32 871.4165,-36.7243 921.4336,-45.4778 962.7529,-53.6872"/>
<polygon fill="#191970" stroke="#191970" points="506.1211,-16.0131 496.1471,-19.5865 506.1725,-23.0129 506.1211,-16.0131"/>
</g>
<!-- Node6 -->
<g id="node6" class="node">
<title>Node6</title>
<g id="a_node6"><a xlink:href="structgko_1_1batch_1_1solver_1_1enable__preconditioned__iterative__solver__factory__parameters.html" target="_top" xlink:title=" ">
<polygon fill="#ffffff" stroke="#000000" points="678,-41.5 678,-104.5 826,-104.5 826,-41.5 678,-41.5"/>
<text text-anchor="start" x="686" y="-92.5" font-family="Helvetica,sans-Serif" font-size="10.00" fill="#000000">gko::batch::solver</text>
<text text-anchor="start" x="686" y="-81.5" font-family="Helvetica,sans-Serif" font-size="10.00" fill="#000000">::enable_preconditioned</text>
<text text-anchor="start" x="686" y="-70.5" font-family="Helvetica,sans-Serif" font-size="10.00" fill="#000000">_iterative_solver_factory</text>
<text text-anchor="start" x="686" y="-59.5" font-family="Helvetica,sans-Serif" font-size="10.00" fill="#000000">_parameters&lt; Parameters,</text>
<text text-anchor="middle" x="752" y="-48.5" font-family="Helvetica,sans-Serif" font-size="10.00" fill="#000000"> Factory &gt;</text>
</a>
</g>
</g>
<!-- Node5&#45;&gt;Node6 -->
<g id="edge8" class="edge">
<title>Node5&#45;&gt;Node6</title>
<path fill="none" stroke="#191970" d="M506.3222,-34.5782C559.6375,-42.9162 627.199,-53.4823 677.9728,-61.4228"/>
<polygon fill="#191970" stroke="#191970" points="506.6204,-31.0824 496.1997,-32.9951 505.5388,-37.9983 506.6204,-31.0824"/>
</g>
<!-- Node6&#45;&gt;Node2 -->
<g id="edge5" class="edge">
<title>Node6&#45;&gt;Node2</title>
<path fill="none" stroke="#ffa500" stroke-dasharray="5,2" d="M836.4146,-73C875.8584,-73 922.8132,-73 962.7285,-73"/>
<polygon fill="#ffa500" stroke="#ffa500" points="836.2943,-69.5001 826.2943,-73 836.2943,-76.5001 836.2943,-69.5001"/>
<text text-anchor="start" x="844" y="-87" font-family="Helvetica,sans-Serif" font-size="10.00" fill="#000000"> &lt; parameters_type,</text>
<text text-anchor="middle" x="894.5" y="-76" font-family="Helvetica,sans-Serif" font-size="10.00" fill="#000000"> Factory &gt;</text>
</g>
<!-- Node7&#45;&gt;Node6 -->
<g id="edge6" class="edge">
<title>Node7&#45;&gt;Node6</title>
<path fill="none" stroke="#191970" d="M511.5773,-76.6154C564.0079,-75.8269 628.8191,-74.8523 677.934,-74.1138"/>
<polygon fill="#191970" stroke="#191970" points="511.2107,-73.1204 501.2645,-76.7705 511.316,-80.1196 511.2107,-73.1204"/>
</g>
</g>
</svg>
        <g id="navigator" transform="translate(0 0)" fill="#404254">
                <rect fill="#f2f5e9" fill-opacity="0.5" stroke="#606060" stroke-width=".5" x="0" y="0" width="60" height="60"/>
                <use id="zoomplus" xlink:href="#zoomPlus" x="17" y="9" onmousedown="handleZoom(evt,'in')"/>
                <use id="zoomminus" xlink:href="#zoomMin" x="42" y="9" onmousedown="handleZoom(evt,'out')"/>
                <use id="reset" xlink:href="#resetDef" x="30" y="36" onmousedown="handleReset()"/>
                <g id="arrowUp" xlink:href="#dirArrow" transform="translate(30 24)" onmousedown="handlePan(0,-1)">
                  <use xlink:href="#rim" fill="#404040">
                        <set attributeName="fill" to="#808080" begin="arrowUp.mouseover" end="arrowUp.mouseout"/>
                  </use>
                  <path fill="none" stroke="white" stroke-width="1.5" d="M0,-3.0v7 M-2.5,-0.5L0,-3.0L2.5,-0.5"/>
                </g>
                <g id="arrowRight" xlink:href="#dirArrow" transform="rotate(90) translate(36 -43)" onmousedown="handlePan(1,0)">
                  <use xlink:href="#rim" fill="#404040">
                        <set attributeName="fill" to="#808080" begin="arrowRight.mouseover" end="arrowRight.mouseout"/>
                  </use>
                  <path fill="none" stroke="white" stroke-width="1.5" d="M0,-3.0v7 M-2.5,-0.5L0,-3.0L2.5,-0.5"/>
                </g>
                <g id="arrowDown" xlink:href="#dirArrow" transform="rotate(180) translate(-30 -48)" onmousedown="handlePan(0,1)">
                  <use xlink:href="#rim" fill="#404040">
                        <set attributeName="fill" to="#808080" begin="arrowDown.mouseover" end="arrowDown.mouseout"/>
                  </use>
                  <path fill="none" stroke="white" stroke-width="1.5" d="M0,-3.0v7 M-2.5,-0.5L0,-3.0L2.5,-0.5"/>
                </g>
                <g id="arrowLeft" xlink:href="#dirArrow" transform="rotate(270) translate(-36 17)" onmousedown="handlePan(-1,0)">
                  <use xlink:href="#rim" fill="#404040">
                        <set attributeName="fill" to="#808080" begin="arrowLeft.mouseover" end="arrowLeft.mouseout"/>
                  </use>
                  <path fill="none" stroke="white" stroke-width="1.5" d="M0,-3.0v7 M-2.5,-0.5L0,-3.0L2.5,-0.5"/>
                </g>
        </g>
        <svg viewBox="0 0 15 15" width="100%" height="30px" preserveAspectRatio="xMaxYMin meet">
         <g id="arrow_out" transform="scale(0.3 0.3)">
          <a xlink:href="structgko_1_1batch_1_1solver_1_1Bicgstab_1_1parameters__type__inherit__graph_org.svg" target="_base">
           <rect id="button" ry="5" rx="5" y="6" x="6" height="38" width="38"
                fill="#f2f5e9" fill-opacity="0.5" stroke="#606060" stroke-width="1.0"/>
           <path id="arrow"
             d="M 11.500037,31.436501 C 11.940474,20.09759 22.043105,11.32322 32.158766,21.979434 L 37.068811,17.246167 C 37.068811,17.246167 37.088388,32 37.088388,32 L 22.160133,31.978069 C 22.160133,31.978069 26.997745,27.140456 26.997745,27.140456 C 18.528582,18.264221 13.291696,25.230495 11.500037,31.436501 z"
             style="fill:#404040;"/>
          </a>
         </g>
        </svg>
</svg>
