<?xml version="1.0" encoding="UTF-8" standalone="no"?>
<!DOCTYPE svg PUBLIC "-//W3C//DTD SVG 1.1//EN"
 "http://www.w3.org/Graphics/SVG/1.1/DTD/svg11.dtd">
<!-- Generated by graphviz version 2.40.1 (20161225.0304)
 -->
<!-- Title: gko::solver::enable_preconditioned_iterative_solver_factory_parameters&lt; Parameters, Factory &gt; Pages: 1 -->
<!--zoomable 431 -->
<svg id="main" version="1.1" xmlns="http://www.w3.org/2000/svg" xmlns:xlink="http://www.w3.org/1999/xlink" xml:space="preserve" onload="init(evt)">
<style type="text/css"><![CDATA[
.edge:hover path { stroke: red; }
.edge:hover polygon { stroke: red; fill: red; }
]]></style>
<script type="text/javascript"><![CDATA[
var edges = document.getElementsByTagName('g');
if (edges && edges.length) {
  for (var i=0;i<edges.length;i++) {
    if (edges[i].id.substr(0,4)=='edge') {
      edges[i].setAttribute('class','edge');
    }
  }
}
]]></script>
        <defs>
                <circle id="rim" cx="0" cy="0" r="7"/>
                <circle id="rim2" cx="0" cy="0" r="3.5"/>
                <g id="zoomPlus">
                        <use xlink:href="#rim" fill="#404040">
                                <set attributeName="fill" to="#808080" begin="zoomplus.mouseover" end="zoomplus.mouseout"/>
                        </use>
                        <path d="M-4,0h8M0,-4v8" fill="none" stroke="white" stroke-width="1.5" pointer-events="none"/>
                </g>
                <g id="zoomMin">
                        <use xlink:href="#rim" fill="#404040">
                                <set attributeName="fill" to="#808080" begin="zoomminus.mouseover" end="zoomminus.mouseout"/>
                        </use>
                        <path d="M-4,0h8" fill="none" stroke="white" stroke-width="1.5" pointer-events="none"/>
                </g>
                <g id="dirArrow">
                        <path fill="none" stroke="white" stroke-width="1.5" d="M0,-3.0v7 M-2.5,-0.5L0,-3.0L2.5,-0.5"/>
                </g>
               <g id="resetDef">
                       <use xlink:href="#rim2" fill="#404040">
                               <set attributeName="fill" to="#808080" begin="reset.mouseover" end="reset.mouseout"/>
                       </use>
               </g>
        </defs>

<script type="text/javascript">
var viewWidth = 1401;
var viewHeight = 431;
var sectionId = 'dynsection-0';
</script>
<script xlink:href="svgpan.js"/>
<svg id="graph" class="graph">
<g id="viewport">
<title>gko::solver::enable_preconditioned_iterative_solver_factory_parameters&lt; Parameters, Factory &gt;</title>
<polygon fill="#ffffff" stroke="transparent" points="-4,4 -4,-427 1397,-427 1397,4 -4,4"/>
<!-- Node1 -->
<g id="node1" class="node">
<title>Node1</title>
<g id="a_node1"><a xlink:title=" ">
<polygon fill="#bfbfbf" stroke="#000000" points="724,-185.5 724,-237.5 877,-237.5 877,-185.5 724,-185.5"/>
<text text-anchor="start" x="732" y="-225.5" font-family="Helvetica,sans-Serif" font-size="10.00" fill="#000000">gko::solver::enable</text>
<text text-anchor="start" x="732" y="-214.5" font-family="Helvetica,sans-Serif" font-size="10.00" fill="#000000">_preconditioned_iterative</text>
<text text-anchor="start" x="732" y="-203.5" font-family="Helvetica,sans-Serif" font-size="10.00" fill="#000000">_solver_factory_parameters</text>
<text text-anchor="middle" x="800.5" y="-192.5" font-family="Helvetica,sans-Serif" font-size="10.00" fill="#000000">&lt; Parameters, Factory &gt;</text>
</a>
</g>
</g>
<!-- Node7 -->
<g id="node7" class="node">
<title>Node7</title>
<g id="a_node7"><a xlink:href="structgko_1_1solver_1_1enable__preconditioned__iterative__solver__factory__parameters.html" target="_top" xlink:title=" ">
<polygon fill="#ffffff" stroke="#000000" points="1014,-185.5 1014,-237.5 1178,-237.5 1178,-185.5 1014,-185.5"/>
<text text-anchor="start" x="1022" y="-225.5" font-family="Helvetica,sans-Serif" font-size="10.00" fill="#000000">gko::solver::enable</text>
<text text-anchor="start" x="1022" y="-214.5" font-family="Helvetica,sans-Serif" font-size="10.00" fill="#000000">_preconditioned_iterative</text>
<text text-anchor="start" x="1022" y="-203.5" font-family="Helvetica,sans-Serif" font-size="10.00" fill="#000000">_solver_factory_parameters</text>
<text text-anchor="middle" x="1096" y="-192.5" font-family="Helvetica,sans-Serif" font-size="10.00" fill="#000000">&lt; parameters_type, Factory &gt;</text>
</a>
</g>
</g>
<!-- Node1&#45;&gt;Node7 -->
<g id="edge6" class="edge">
<title>Node1&#45;&gt;Node7</title>
<path fill="none" stroke="#ffa500" stroke-dasharray="5,2" d="M887.6146,-211.5C927.5116,-211.5 974.5455,-211.5 1013.8233,-211.5"/>
<polygon fill="#ffa500" stroke="#ffa500" points="887.3678,-208.0001 877.3677,-211.5 887.3677,-215.0001 887.3678,-208.0001"/>
<text text-anchor="start" x="895" y="-225.5" font-family="Helvetica,sans-Serif" font-size="10.00" fill="#000000"> &lt; parameters_type,</text>
<text text-anchor="middle" x="945.5" y="-214.5" font-family="Helvetica,sans-Serif" font-size="10.00" fill="#000000"> Factory &gt;</text>
</g>
<!-- Node2 -->
<g id="node2" class="node">
<title>Node2</title>
<g id="a_node2"><a xlink:href="structgko_1_1solver_1_1enable__iterative__solver__factory__parameters.html" target="_top" xlink:title=" ">
<polygon fill="#ffffff" stroke="#000000" points="538.5,-239.5 538.5,-291.5 686.5,-291.5 686.5,-239.5 538.5,-239.5"/>
<text text-anchor="start" x="546.5" y="-279.5" font-family="Helvetica,sans-Serif" font-size="10.00" fill="#000000">gko::solver::enable</text>
<text text-anchor="start" x="546.5" y="-268.5" font-family="Helvetica,sans-Serif" font-size="10.00" fill="#000000">_iterative_solver_factory</text>
<text text-anchor="start" x="546.5" y="-257.5" font-family="Helvetica,sans-Serif" font-size="10.00" fill="#000000">_parameters&lt; Parameters,</text>
<text text-anchor="middle" x="612.5" y="-246.5" font-family="Helvetica,sans-Serif" font-size="10.00" fill="#000000"> Factory &gt;</text>
</a>
</g>
</g>
<!-- Node2&#45;&gt;Node1 -->
<g id="edge1" class="edge">
<title>Node2&#45;&gt;Node1</title>
<path fill="none" stroke="#191970" d="M696.3601,-241.4125C705.4785,-238.7934 714.7257,-236.1373 723.753,-233.5443"/>
<polygon fill="#191970" stroke="#191970" points="695.1778,-238.1105 686.5327,-244.2353 697.1104,-244.8385 695.1778,-238.1105"/>
</g>
<!-- Node3 -->
<g id="node3" class="node">
<title>Node3</title>
<g id="a_node3"><a xlink:href="classgko_1_1enable__parameters__type.html" target="_top" xlink:title=" ">
<polygon fill="#ffffff" stroke="#000000" points="338,-280.5 338,-310.5 501,-310.5 501,-280.5 338,-280.5"/>
<text text-anchor="start" x="346" y="-298.5" font-family="Helvetica,sans-Serif" font-size="10.00" fill="#000000">gko::enable_parameters</text>
<text text-anchor="middle" x="419.5" y="-287.5" font-family="Helvetica,sans-Serif" font-size="10.00" fill="#000000">_type&lt; Parameters, Factory &gt;</text>
</a>
</g>
</g>
<!-- Node3&#45;&gt;Node2 -->
<g id="edge2" class="edge">
<title>Node3&#45;&gt;Node2</title>
<path fill="none" stroke="#191970" d="M510.9625,-281.283C520.1158,-279.8602 529.3297,-278.428 538.2736,-277.0378"/>
<polygon fill="#191970" stroke="#191970" points="510.4134,-277.8263 501.0696,-282.8208 511.4886,-284.7432 510.4134,-277.8263"/>
</g>
<!-- Node4 -->
<g id="node4" class="node">
<title>Node4</title>
<g id="a_node4"><a xlink:href="classgko_1_1enable__parameters__type.html" target="_top" xlink:title="The enable_parameters_type mixin is used to create a base implementation of the factory parameters st...">
<polygon fill="#ffffff" stroke="#000000" points="0,-275 0,-316 179,-316 179,-275 0,-275"/>
<text text-anchor="start" x="8" y="-304" font-family="Helvetica,sans-Serif" font-size="10.00" fill="#000000">gko::enable_parameters</text>
<text text-anchor="start" x="8" y="-293" font-family="Helvetica,sans-Serif" font-size="10.00" fill="#000000">_type&lt; ConcreteParametersType,</text>
<text text-anchor="middle" x="89.5" y="-282" font-family="Helvetica,sans-Serif" font-size="10.00" fill="#000000"> Factory &gt;</text>
</a>
</g>
</g>
<!-- Node4&#45;&gt;Node3 -->
<g id="edge3" class="edge">
<title>Node4&#45;&gt;Node3</title>
<path fill="none" stroke="#ffa500" stroke-dasharray="5,2" d="M189.2501,-295.5C236.8162,-295.5 293.0061,-295.5 337.9696,-295.5"/>
<polygon fill="#ffa500" stroke="#ffa500" points="189.2381,-292.0001 179.2381,-295.5 189.238,-299.0001 189.2381,-292.0001"/>
<text text-anchor="middle" x="258.5" y="-298.5" font-family="Helvetica,sans-Serif" font-size="10.00" fill="#000000"> &lt; Parameters, Factory &gt;</text>
</g>
<!-- Node5 -->
<g id="node5" class="node">
<title>Node5</title>
<g id="a_node5"><a xlink:href="structgko_1_1solver_1_1iterative__solver__factory__parameters.html" target="_top" xlink:title="The parameter type shared between all iterative solvers.">
<polygon fill="#ffffff" stroke="#000000" points="343,-231.5 343,-261.5 496,-261.5 496,-231.5 343,-231.5"/>
<text text-anchor="start" x="351" y="-249.5" font-family="Helvetica,sans-Serif" font-size="10.00" fill="#000000">gko::solver::iterative</text>
<text text-anchor="middle" x="419.5" y="-238.5" font-family="Helvetica,sans-Serif" font-size="10.00" fill="#000000">_solver_factory_parameters</text>
</a>
</g>
</g>
<!-- Node5&#45;&gt;Node2 -->
<g id="edge4" class="edge">
<title>Node5&#45;&gt;Node2</title>
<path fill="none" stroke="#191970" d="M506.2335,-255.0385C516.9185,-256.0904 527.7648,-257.1582 538.2413,-258.1896"/>
<polygon fill="#191970" stroke="#191970" points="506.3507,-251.5332 496.0559,-254.0366 505.6649,-258.4996 506.3507,-251.5332"/>
</g>
<!-- Node6 -->
<g id="node6" class="node">
<title>Node6</title>
<g id="a_node6"><a xlink:href="structgko_1_1solver_1_1preconditioned__iterative__solver__factory__parameters.html" target="_top" xlink:title="The parameter type shared between all preconditioned iterative solvers, excluding the parameters avai...">
<polygon fill="#ffffff" stroke="#000000" points="538,-179 538,-220 687,-220 687,-179 538,-179"/>
<text text-anchor="start" x="546" y="-208" font-family="Helvetica,sans-Serif" font-size="10.00" fill="#000000">gko::solver::preconditioned</text>
<text text-anchor="start" x="546" y="-197" font-family="Helvetica,sans-Serif" font-size="10.00" fill="#000000">_iterative_solver_factory</text>
<text text-anchor="middle" x="612.5" y="-186" font-family="Helvetica,sans-Serif" font-size="10.00" fill="#000000">_parameters</text>
</a>
</g>
</g>
<!-- Node6&#45;&gt;Node1 -->
<g id="edge5" class="edge">
<title>Node6&#45;&gt;Node1</title>
<path fill="none" stroke="#191970" d="M697.0792,-204.8987C706.0006,-205.4681 715.0363,-206.0449 723.8606,-206.6081"/>
<polygon fill="#191970" stroke="#191970" points="697.2753,-201.4042 687.0726,-204.26 696.8293,-208.3899 697.2753,-201.4042"/>
</g>
<!-- Node8 -->
<g id="node8" class="node">
<title>Node8</title>
<g id="a_node8"><a xlink:href="structgko_1_1solver_1_1Bicg_1_1parameters__type.html" target="_top" xlink:title=" ">
<polygon fill="#ffffff" stroke="#000000" points="1219,-392.5 1219,-422.5 1389,-422.5 1389,-392.5 1219,-392.5"/>
<text text-anchor="start" x="1227" y="-410.5" font-family="Helvetica,sans-Serif" font-size="10.00" fill="#000000">gko::solver::Bicg&lt;</text>
<text text-anchor="middle" x="1304" y="-399.5" font-family="Helvetica,sans-Serif" font-size="10.00" fill="#000000"> ValueType &gt;::parameters_type</text>
</a>
</g>
</g>
<!-- Node7&#45;&gt;Node8 -->
<g id="edge7" class="edge">
<title>Node7&#45;&gt;Node8</title>
<path fill="none" stroke="#191970" d="M1111.3855,-247.1602C1130.1646,-286.4466 1165.6311,-348.6652 1215,-383.5 1219.8381,-386.9138 1225.1368,-389.8421 1230.662,-392.354"/>
<polygon fill="#191970" stroke="#191970" points="1114.3709,-245.2806 1106.9724,-237.6968 1108.0268,-248.2391 1114.3709,-245.2806"/>
</g>
<!-- Node9 -->
<g id="node9" class="node">
<title>Node9</title>
<g id="a_node9"><a xlink:href="structgko_1_1solver_1_1Bicgstab_1_1parameters__type.html" target="_top" xlink:title=" ">
<polygon fill="#ffffff" stroke="#000000" points="1215,-343.5 1215,-373.5 1393,-373.5 1393,-343.5 1215,-343.5"/>
<text text-anchor="start" x="1223" y="-361.5" font-family="Helvetica,sans-Serif" font-size="10.00" fill="#000000">gko::solver::Bicgstab</text>
<text text-anchor="middle" x="1304" y="-350.5" font-family="Helvetica,sans-Serif" font-size="10.00" fill="#000000">&lt; ValueType &gt;::parameters_type</text>
</a>
</g>
</g>
<!-- Node7&#45;&gt;Node9 -->
<g id="edge8" class="edge">
<title>Node7&#45;&gt;Node9</title>
<path fill="none" stroke="#191970" d="M1120.7681,-245.921C1142.5637,-273.7677 1176.726,-311.9376 1215,-334.5 1220.7902,-337.9133 1227.0761,-340.8526 1233.5391,-343.3816"/>
<polygon fill="#191970" stroke="#191970" points="1123.2759,-243.4399 1114.4102,-237.6391 1117.7234,-247.7026 1123.2759,-243.4399"/>
</g>
<!-- Node10 -->
<g id="node10" class="node">
<title>Node10</title>
<g id="a_node10"><a xlink:href="structgko_1_1solver_1_1CbGmres_1_1parameters__type.html" target="_top" xlink:title=" ">
<polygon fill="#ffffff" stroke="#000000" points="1215,-294.5 1215,-324.5 1393,-324.5 1393,-294.5 1215,-294.5"/>
<text text-anchor="start" x="1223" y="-312.5" font-family="Helvetica,sans-Serif" font-size="10.00" fill="#000000">gko::solver::CbGmres</text>
<text text-anchor="middle" x="1304" y="-301.5" font-family="Helvetica,sans-Serif" font-size="10.00" fill="#000000">&lt; ValueType &gt;::parameters_type</text>
</a>
</g>
</g>
<!-- Node7&#45;&gt;Node10 -->
<g id="edge9" class="edge">
<title>Node7&#45;&gt;Node10</title>
<path fill="none" stroke="#191970" d="M1140.0763,-243.2361C1161.8059,-257.7334 1188.8993,-274.1601 1215,-285.5 1222.6325,-288.8161 1230.8364,-291.7752 1239.0647,-294.3857"/>
<polygon fill="#191970" stroke="#191970" points="1141.9646,-240.2878 1131.7213,-237.5812 1138.041,-246.0849 1141.9646,-240.2878"/>
</g>
<!-- Node11 -->
<g id="node11" class="node">
<title>Node11</title>
<g id="a_node11"><a xlink:href="structgko_1_1solver_1_1Cg_1_1parameters__type.html" target="_top" xlink:title=" ">
<polygon fill="#ffffff" stroke="#000000" points="1229,-245.5 1229,-275.5 1379,-275.5 1379,-245.5 1229,-245.5"/>
<text text-anchor="start" x="1237" y="-263.5" font-family="Helvetica,sans-Serif" font-size="10.00" fill="#000000">gko::solver::Cg&lt; ValueType</text>
<text text-anchor="middle" x="1304" y="-252.5" font-family="Helvetica,sans-Serif" font-size="10.00" fill="#000000"> &gt;::parameters_type</text>
</a>
</g>
</g>
<!-- Node7&#45;&gt;Node11 -->
<g id="edge10" class="edge">
<title>Node7&#45;&gt;Node11</title>
<path fill="none" stroke="#191970" d="M1188.4041,-233.2683C1205.8348,-237.3745 1223.7054,-241.5844 1240.0245,-245.4288"/>
<polygon fill="#191970" stroke="#191970" points="1188.7432,-229.7524 1178.2071,-230.8661 1187.1381,-236.5659 1188.7432,-229.7524"/>
</g>
<!-- Node12 -->
<g id="node12" class="node">
<title>Node12</title>
<g id="a_node12"><a xlink:href="structgko_1_1solver_1_1Cgs_1_1parameters__type.html" target="_top" xlink:title=" ">
<polygon fill="#ffffff" stroke="#000000" points="1226.5,-196.5 1226.5,-226.5 1381.5,-226.5 1381.5,-196.5 1226.5,-196.5"/>
<text text-anchor="start" x="1234.5" y="-214.5" font-family="Helvetica,sans-Serif" font-size="10.00" fill="#000000">gko::solver::Cgs&lt; ValueType</text>
<text text-anchor="middle" x="1304" y="-203.5" font-family="Helvetica,sans-Serif" font-size="10.00" fill="#000000"> &gt;::parameters_type</text>
</a>
</g>
</g>
<!-- Node7&#45;&gt;Node12 -->
<g id="edge11" class="edge">
<title>Node7&#45;&gt;Node12</title>
<path fill="none" stroke="#191970" d="M1188.3474,-211.5C1201.073,-211.5 1214.0342,-211.5 1226.4561,-211.5"/>
<polygon fill="#191970" stroke="#191970" points="1188.2071,-208.0001 1178.2071,-211.5 1188.2071,-215.0001 1188.2071,-208.0001"/>
</g>
<!-- Node13 -->
<g id="node13" class="node">
<title>Node13</title>
<g id="a_node13"><a xlink:href="structgko_1_1solver_1_1Fcg_1_1parameters__type.html" target="_top" xlink:title=" ">
<polygon fill="#ffffff" stroke="#000000" points="1227,-147.5 1227,-177.5 1381,-177.5 1381,-147.5 1227,-147.5"/>
<text text-anchor="start" x="1235" y="-165.5" font-family="Helvetica,sans-Serif" font-size="10.00" fill="#000000">gko::solver::Fcg&lt; ValueType</text>
<text text-anchor="middle" x="1304" y="-154.5" font-family="Helvetica,sans-Serif" font-size="10.00" fill="#000000"> &gt;::parameters_type</text>
</a>
</g>
</g>
<!-- Node7&#45;&gt;Node13 -->
<g id="edge12" class="edge">
<title>Node7&#45;&gt;Node13</title>
<path fill="none" stroke="#191970" d="M1188.4041,-189.7317C1205.8348,-185.6255 1223.7054,-181.4156 1240.0245,-177.5712"/>
<polygon fill="#191970" stroke="#191970" points="1187.1381,-186.4341 1178.2071,-192.1339 1188.7432,-193.2476 1187.1381,-186.4341"/>
</g>
<!-- Node14 -->
<g id="node14" class="node">
<title>Node14</title>
<g id="a_node14"><a xlink:href="structgko_1_1solver_1_1Gcr_1_1parameters__type.html" target="_top" xlink:title=" ">
<polygon fill="#ffffff" stroke="#000000" points="1227,-98.5 1227,-128.5 1381,-128.5 1381,-98.5 1227,-98.5"/>
<text text-anchor="start" x="1235" y="-116.5" font-family="Helvetica,sans-Serif" font-size="10.00" fill="#000000">gko::solver::Gcr&lt; ValueType</text>
<text text-anchor="middle" x="1304" y="-105.5" font-family="Helvetica,sans-Serif" font-size="10.00" fill="#000000"> &gt;::parameters_type</text>
</a>
</g>
</g>
<!-- Node7&#45;&gt;Node14 -->
<g id="edge13" class="edge">
<title>Node7&#45;&gt;Node14</title>
<path fill="none" stroke="#191970" d="M1140.0763,-179.7639C1161.8059,-165.2666 1188.8993,-148.8399 1215,-137.5 1222.6325,-134.1839 1230.8364,-131.2248 1239.0647,-128.6143"/>
<polygon fill="#191970" stroke="#191970" points="1138.041,-176.9151 1131.7213,-185.4188 1141.9646,-182.7122 1138.041,-176.9151"/>
</g>
<!-- Node15 -->
<g id="node15" class="node">
<title>Node15</title>
<g id="a_node15"><a xlink:href="structgko_1_1solver_1_1Gmres_1_1parameters__type.html" target="_top" xlink:title=" ">
<polygon fill="#ffffff" stroke="#000000" points="1215,-49.5 1215,-79.5 1393,-79.5 1393,-49.5 1215,-49.5"/>
<text text-anchor="start" x="1223" y="-67.5" font-family="Helvetica,sans-Serif" font-size="10.00" fill="#000000">gko::solver::Gmres</text>
<text text-anchor="middle" x="1304" y="-56.5" font-family="Helvetica,sans-Serif" font-size="10.00" fill="#000000">&lt; ValueType &gt;::parameters_type</text>
</a>
</g>
</g>
<!-- Node7&#45;&gt;Node15 -->
<g id="edge14" class="edge">
<title>Node7&#45;&gt;Node15</title>
<path fill="none" stroke="#191970" d="M1120.7681,-177.079C1142.5637,-149.2323 1176.726,-111.0624 1215,-88.5 1220.7902,-85.0867 1227.0761,-82.1474 1233.5391,-79.6184"/>
<polygon fill="#191970" stroke="#191970" points="1117.7234,-175.2974 1114.4102,-185.3609 1123.2759,-179.5601 1117.7234,-175.2974"/>
</g>
<!-- Node16 -->
<g id="node16" class="node">
<title>Node16</title>
<g id="a_node16"><a xlink:href="structgko_1_1solver_1_1Idr_1_1parameters__type.html" target="_top" xlink:title=" ">
<polygon fill="#ffffff" stroke="#000000" points="1229,-.5 1229,-30.5 1379,-30.5 1379,-.5 1229,-.5"/>
<text text-anchor="start" x="1237" y="-18.5" font-family="Helvetica,sans-Serif" font-size="10.00" fill="#000000">gko::solver::Idr&lt; ValueType</text>
<text text-anchor="middle" x="1304" y="-7.5" font-family="Helvetica,sans-Serif" font-size="10.00" fill="#000000"> &gt;::parameters_type</text>
</a>
</g>
</g>
<!-- Node7&#45;&gt;Node16 -->
<g id="edge15" class="edge">
<title>Node7&#45;&gt;Node16</title>
<path fill="none" stroke="#191970" d="M1111.3855,-175.8398C1130.1646,-136.5534 1165.6311,-74.3348 1215,-39.5 1219.8381,-36.0862 1225.1368,-33.1579 1230.662,-30.646"/>
<polygon fill="#191970" stroke="#191970" points="1108.0268,-174.7609 1106.9724,-185.3032 1114.3709,-177.7194 1108.0268,-174.7609"/>
</g>
</g>
</svg>
        <g id="navigator" transform="translate(0 0)" fill="#404254">
                <rect fill="#f2f5e9" fill-opacity="0.5" stroke="#606060" stroke-width=".5" x="0" y="0" width="60" height="60"/>
                <use id="zoomplus" xlink:href="#zoomPlus" x="17" y="9" onmousedown="handleZoom(evt,'in')"/>
                <use id="zoomminus" xlink:href="#zoomMin" x="42" y="9" onmousedown="handleZoom(evt,'out')"/>
                <use id="reset" xlink:href="#resetDef" x="30" y="36" onmousedown="handleReset()"/>
                <g id="arrowUp" xlink:href="#dirArrow" transform="translate(30 24)" onmousedown="handlePan(0,-1)">
                  <use xlink:href="#rim" fill="#404040">
                        <set attributeName="fill" to="#808080" begin="arrowUp.mouseover" end="arrowUp.mouseout"/>
                  </use>
                  <path fill="none" stroke="white" stroke-width="1.5" d="M0,-3.0v7 M-2.5,-0.5L0,-3.0L2.5,-0.5"/>
                </g>
                <g id="arrowRight" xlink:href="#dirArrow" transform="rotate(90) translate(36 -43)" onmousedown="handlePan(1,0)">
                  <use xlink:href="#rim" fill="#404040">
                        <set attributeName="fill" to="#808080" begin="arrowRight.mouseover" end="arrowRight.mouseout"/>
                  </use>
                  <path fill="none" stroke="white" stroke-width="1.5" d="M0,-3.0v7 M-2.5,-0.5L0,-3.0L2.5,-0.5"/>
                </g>
                <g id="arrowDown" xlink:href="#dirArrow" transform="rotate(180) translate(-30 -48)" onmousedown="handlePan(0,1)">
                  <use xlink:href="#rim" fill="#404040">
                        <set attributeName="fill" to="#808080" begin="arrowDown.mouseover" end="arrowDown.mouseout"/>
                  </use>
                  <path fill="none" stroke="white" stroke-width="1.5" d="M0,-3.0v7 M-2.5,-0.5L0,-3.0L2.5,-0.5"/>
                </g>
                <g id="arrowLeft" xlink:href="#dirArrow" transform="rotate(270) translate(-36 17)" onmousedown="handlePan(-1,0)">
                  <use xlink:href="#rim" fill="#404040">
                        <set attributeName="fill" to="#808080" begin="arrowLeft.mouseover" end="arrowLeft.mouseout"/>
                  </use>
                  <path fill="none" stroke="white" stroke-width="1.5" d="M0,-3.0v7 M-2.5,-0.5L0,-3.0L2.5,-0.5"/>
                </g>
        </g>
        <svg viewBox="0 0 15 15" width="100%" height="30px" preserveAspectRatio="xMaxYMin meet">
         <g id="arrow_out" transform="scale(0.3 0.3)">
          <a xlink:href="structgko_1_1solver_1_1enable__preconditioned__iterative__solver__factory__parameters__inherit__graph_org.svg" target="_base">
           <rect id="button" ry="5" rx="5" y="6" x="6" height="38" width="38"
                fill="#f2f5e9" fill-opacity="0.5" stroke="#606060" stroke-width="1.0"/>
           <path id="arrow"
             d="M 11.500037,31.436501 C 11.940474,20.09759 22.043105,11.32322 32.158766,21.979434 L 37.068811,17.246167 C 37.068811,17.246167 37.088388,32 37.088388,32 L 22.160133,31.978069 C 22.160133,31.978069 26.997745,27.140456 26.997745,27.140456 C 18.528582,18.264221 13.291696,25.230495 11.500037,31.436501 z"
             style="fill:#404040;"/>
          </a>
         </g>
        </svg>
</svg>
