<?xml version="1.0" encoding="UTF-8" standalone="no"?>
<!DOCTYPE svg PUBLIC "-//W3C//DTD SVG 1.1//EN"
 "http://www.w3.org/Graphics/SVG/1.1/DTD/svg11.dtd">
<!-- Generated by graphviz version 2.40.1 (20161225.0304)
 -->
<!-- Title: gko::dim&lt; Dimensionality, DimensionType &gt; Pages: 1 -->
<svg width="386pt" height="128pt"
 viewBox="0.00 0.00 386.00 128.00" xmlns="http://www.w3.org/2000/svg" xmlns:xlink="http://www.w3.org/1999/xlink">
<g id="graph0" class="graph" transform="scale(1 1) rotate(0) translate(4 124)">
<title>gko::dim&lt; Dimensionality, DimensionType &gt;</title>
<polygon fill="#ffffff" stroke="transparent" points="-4,4 -4,-124 382,-124 382,4 -4,4"/>
<!-- Node1 -->
<g id="node1" class="node">
<title>Node1</title>
<g id="a_node1"><a xlink:title="A type representing the dimensions of a multidimensional object.">
<polygon fill="#bfbfbf" stroke="#000000" points="76,-89.5 76,-119.5 224,-119.5 224,-89.5 76,-89.5"/>
<text text-anchor="start" x="84" y="-107.5" font-family="Helvetica,sans-Serif" font-size="10.00" fill="#000000">gko::dim&lt; Dimensionality,</text>
<text text-anchor="middle" x="150" y="-96.5" font-family="Helvetica,sans-Serif" font-size="10.00" fill="#000000"> DimensionType &gt;</text>
</a>
</g>
</g>
<!-- Node2 -->
<g id="node2" class="node">
<title>Node2</title>
<g id="a_node2"><a xlink:href="structgko_1_1dim.html" target="_top" xlink:title=" ">
<polygon fill="#ffffff" stroke="#000000" points="0,-6 0,-25 88,-25 88,-6 0,-6"/>
<text text-anchor="middle" x="44" y="-13" font-family="Helvetica,sans-Serif" font-size="10.00" fill="#000000">gko::dim&lt; 2 &gt;</text>
</a>
</g>
</g>
<!-- Node1&#45;&gt;Node2 -->
<g id="edge1" class="edge">
<title>Node1&#45;&gt;Node2</title>
<path fill="none" stroke="#ffa500" stroke-dasharray="5,2" d="M124.0846,-82.7408C102.1832,-64.3519 71.8435,-38.8781 55.5124,-25.1661"/>
<polygon fill="#ffa500" stroke="#ffa500" points="122.1095,-85.6526 132.0185,-89.4024 126.6106,-80.2916 122.1095,-85.6526"/>
<text text-anchor="middle" x="126" y="-57.5" font-family="Helvetica,sans-Serif" font-size="10.00" fill="#000000"> &lt; 2 &gt;</text>
</g>
<!-- Node3 -->
<g id="node3" class="node">
<title>Node3</title>
<g id="a_node3"><a xlink:href="structgko_1_1dim.html" target="_top" xlink:title=" ">
<polygon fill="#ffffff" stroke="#000000" points="106,-6 106,-25 194,-25 194,-6 106,-6"/>
<text text-anchor="middle" x="150" y="-13" font-family="Helvetica,sans-Serif" font-size="10.00" fill="#000000">gko::dim&lt; 3 &gt;</text>
</a>
</g>
</g>
<!-- Node1&#45;&gt;Node3 -->
<g id="edge2" class="edge">
<title>Node1&#45;&gt;Node3</title>
<path fill="none" stroke="#ffa500" stroke-dasharray="5,2" d="M150,-79.321C150,-61.4221 150,-38.3481 150,-25.4182"/>
<polygon fill="#ffa500" stroke="#ffa500" points="146.5001,-79.4023 150,-89.4024 153.5001,-79.4024 146.5001,-79.4023"/>
<text text-anchor="middle" x="166" y="-57.5" font-family="Helvetica,sans-Serif" font-size="10.00" fill="#000000"> &lt; 3 &gt;</text>
</g>
<!-- Node4 -->
<g id="node4" class="node">
<title>Node4</title>
<g id="a_node4"><a xlink:href="structgko_1_1dim.html" target="_top" xlink:title=" ">
<polygon fill="#ffffff" stroke="#000000" points="212,-.5 212,-30.5 358,-30.5 358,-.5 212,-.5"/>
<text text-anchor="start" x="220" y="-18.5" font-family="Helvetica,sans-Serif" font-size="10.00" fill="#000000">gko::dim&lt; dimensionality,</text>
<text text-anchor="middle" x="285" y="-7.5" font-family="Helvetica,sans-Serif" font-size="10.00" fill="#000000"> dimension_type &gt;</text>
</a>
</g>
</g>
<!-- Node1&#45;&gt;Node4 -->
<g id="edge3" class="edge">
<title>Node1&#45;&gt;Node4</title>
<path fill="none" stroke="#ffa500" stroke-dasharray="5,2" d="M181.5313,-83.7127C206.1691,-67.47 239.8381,-45.2734 261.9867,-30.6717"/>
<polygon fill="#ffa500" stroke="#ffa500" points="179.3234,-80.9761 172.9009,-89.4024 183.1763,-86.8203 179.3234,-80.9761"/>
<text text-anchor="start" x="233" y="-63" font-family="Helvetica,sans-Serif" font-size="10.00" fill="#000000"> &lt; dimensionality, dimension</text>
<text text-anchor="middle" x="305.5" y="-52" font-family="Helvetica,sans-Serif" font-size="10.00" fill="#000000">_type &gt;</text>
</g>
</g>
</svg>
