<?xml version="1.0" encoding="UTF-8" standalone="no"?>
<!DOCTYPE svg PUBLIC "-//W3C//DTD SVG 1.1//EN"
 "http://www.w3.org/Graphics/SVG/1.1/DTD/svg11.dtd">
<!-- Generated by graphviz version 2.40.1 (20161225.0304)
 -->
<!-- Title: gko::solver::Multigrid::parameters_type Pages: 1 -->
<svg width="811pt" height="188pt"
 viewBox="0.00 0.00 811.00 188.00" xmlns="http://www.w3.org/2000/svg" xmlns:xlink="http://www.w3.org/1999/xlink">
<g id="graph0" class="graph" transform="scale(1 1) rotate(0) translate(4 184)">
<title>gko::solver::Multigrid::parameters_type</title>
<polygon fill="#ffffff" stroke="transparent" points="-4,4 -4,-184 807,-184 807,4 -4,4"/>
<!-- Node1 -->
<g id="node1" class="node">
<title>Node1</title>
<g id="a_node1"><a xlink:title=" ">
<polygon fill="#bfbfbf" stroke="#000000" points="684,-56 684,-86 803,-86 803,-56 684,-56"/>
<text text-anchor="start" x="692" y="-74" font-family="Helvetica,sans-Serif" font-size="10.00" fill="#000000">gko::solver::Multigrid</text>
<text text-anchor="middle" x="743.5" y="-63" font-family="Helvetica,sans-Serif" font-size="10.00" fill="#000000">::parameters_type</text>
</a>
</g>
</g>
<!-- Node2 -->
<g id="node2" class="node">
<title>Node2</title>
<g id="a_node2"><a xlink:href="classgko_1_1enable__parameters__type.html" target="_top" xlink:title=" ">
<polygon fill="#ffffff" stroke="#000000" points="398.5,-137.5 398.5,-178.5 539.5,-178.5 539.5,-137.5 398.5,-137.5"/>
<text text-anchor="start" x="406.5" y="-166.5" font-family="Helvetica,sans-Serif" font-size="10.00" fill="#000000">gko::enable_parameters</text>
<text text-anchor="start" x="406.5" y="-155.5" font-family="Helvetica,sans-Serif" font-size="10.00" fill="#000000">_type&lt; parameters_type,</text>
<text text-anchor="middle" x="469" y="-144.5" font-family="Helvetica,sans-Serif" font-size="10.00" fill="#000000"> Factory &gt;</text>
</a>
</g>
</g>
<!-- Node2&#45;&gt;Node1 -->
<g id="edge1" class="edge">
<title>Node2&#45;&gt;Node1</title>
<path fill="none" stroke="#191970" d="M549.864,-164.3469C586.6817,-164.2453 629.9776,-159.7948 666,-144 694.6085,-131.456 719.2198,-103.6601 732.6437,-86.2164"/>
<polygon fill="#191970" stroke="#191970" points="549.6902,-160.8455 539.6627,-164.266 549.6346,-167.8453 549.6902,-160.8455"/>
</g>
<!-- Node3 -->
<g id="node3" class="node">
<title>Node3</title>
<g id="a_node3"><a xlink:href="classgko_1_1enable__parameters__type.html" target="_top" xlink:title="The enable_parameters_type mixin is used to create a base implementation of the factory parameters st...">
<polygon fill="#ffffff" stroke="#000000" points="0,-137.5 0,-178.5 179,-178.5 179,-137.5 0,-137.5"/>
<text text-anchor="start" x="8" y="-166.5" font-family="Helvetica,sans-Serif" font-size="10.00" fill="#000000">gko::enable_parameters</text>
<text text-anchor="start" x="8" y="-155.5" font-family="Helvetica,sans-Serif" font-size="10.00" fill="#000000">_type&lt; ConcreteParametersType,</text>
<text text-anchor="middle" x="89.5" y="-144.5" font-family="Helvetica,sans-Serif" font-size="10.00" fill="#000000"> Factory &gt;</text>
</a>
</g>
</g>
<!-- Node3&#45;&gt;Node2 -->
<g id="edge2" class="edge">
<title>Node3&#45;&gt;Node2</title>
<path fill="none" stroke="#ffa500" stroke-dasharray="5,2" d="M189.81,-158C255.4799,-158 339.6818,-158 398.3644,-158"/>
<polygon fill="#ffa500" stroke="#ffa500" points="189.4362,-154.5001 179.4362,-158 189.4362,-161.5001 189.4362,-154.5001"/>
<text text-anchor="start" x="224" y="-172" font-family="Helvetica,sans-Serif" font-size="10.00" fill="#000000"> &lt; parameters_type,</text>
<text text-anchor="middle" x="274.5" y="-161" font-family="Helvetica,sans-Serif" font-size="10.00" fill="#000000"> Factory &gt;</text>
</g>
<!-- Node4 -->
<g id="node4" class="node">
<title>Node4</title>
<g id="a_node4"><a xlink:title=" ">
<polygon fill="#ffffff" stroke="#bfbfbf" points="376.5,-88 376.5,-118 561.5,-118 561.5,-88 376.5,-88"/>
<text text-anchor="start" x="384.5" y="-106" font-family="Helvetica,sans-Serif" font-size="10.00" fill="#000000">std::vector&lt; std::shared</text>
<text text-anchor="middle" x="469" y="-95" font-family="Helvetica,sans-Serif" font-size="10.00" fill="#000000">_ptr&lt; const gko::LinOpFactory &gt; &gt;</text>
</a>
</g>
</g>
<!-- Node4&#45;&gt;Node1 -->
<g id="edge3" class="edge">
<title>Node4&#45;&gt;Node1</title>
<path fill="none" stroke="#9a32cd" stroke-dasharray="5,2" d="M571.6241,-90.6888C576.4837,-90.1157 581.2949,-89.5504 586,-89 618.2557,-85.227 654.2387,-81.1079 683.6597,-77.7634"/>
<polygon fill="#9a32cd" stroke="#9a32cd" points="571.1196,-87.224 561.5997,-91.8738 571.9414,-94.1756 571.1196,-87.224"/>
<text text-anchor="middle" x="626" y="-136" font-family="Helvetica,sans-Serif" font-size="10.00" fill="#000000"> pre_smoother</text>
<text text-anchor="middle" x="626" y="-125" font-family="Helvetica,sans-Serif" font-size="10.00" fill="#000000">post_smoother</text>
<text text-anchor="middle" x="626" y="-114" font-family="Helvetica,sans-Serif" font-size="10.00" fill="#000000">mid_smoother</text>
<text text-anchor="middle" x="626" y="-103" font-family="Helvetica,sans-Serif" font-size="10.00" fill="#000000">mg_level</text>
<text text-anchor="middle" x="626" y="-92" font-family="Helvetica,sans-Serif" font-size="10.00" fill="#000000">coarsest_solver</text>
</g>
<!-- Node5 -->
<g id="node5" class="node">
<title>Node5</title>
<g id="a_node5"><a xlink:title="STL class.">
<polygon fill="#ffffff" stroke="#bfbfbf" points="41,-68.5 41,-87.5 138,-87.5 138,-68.5 41,-68.5"/>
<text text-anchor="middle" x="89.5" y="-75.5" font-family="Helvetica,sans-Serif" font-size="10.00" fill="#000000">std::vector&lt; T &gt;</text>
</a>
</g>
</g>
<!-- Node5&#45;&gt;Node4 -->
<g id="edge4" class="edge">
<title>Node5&#45;&gt;Node4</title>
<path fill="none" stroke="#ffa500" stroke-dasharray="5,2" d="M148.547,-81.8898C209.4706,-85.9032 305.3601,-92.22 376.3867,-96.899"/>
<polygon fill="#ffa500" stroke="#ffa500" points="148.5445,-78.3821 138.3361,-81.2171 148.0843,-85.367 148.5445,-78.3821"/>
<text text-anchor="start" x="203.5" y="-108" font-family="Helvetica,sans-Serif" font-size="10.00" fill="#000000"> &lt; std::shared_ptr&lt;</text>
<text text-anchor="middle" x="274.5" y="-97" font-family="Helvetica,sans-Serif" font-size="10.00" fill="#000000"> const gko::LinOpFactory &gt; &gt;</text>
</g>
<!-- Node8 -->
<g id="node8" class="node">
<title>Node8</title>
<g id="a_node8"><a xlink:title=" ">
<polygon fill="#ffffff" stroke="#bfbfbf" points="370,-39 370,-69 568,-69 568,-39 370,-39"/>
<text text-anchor="start" x="378" y="-57" font-family="Helvetica,sans-Serif" font-size="10.00" fill="#000000">std::vector&lt; std::shared</text>
<text text-anchor="middle" x="469" y="-46" font-family="Helvetica,sans-Serif" font-size="10.00" fill="#000000">_ptr&lt; const gko::AbstractFactory &gt; &gt;</text>
</a>
</g>
</g>
<!-- Node5&#45;&gt;Node8 -->
<g id="edge8" class="edge">
<title>Node5&#45;&gt;Node8</title>
<path fill="none" stroke="#ffa500" stroke-dasharray="5,2" d="M138.8572,-66.405C157.0277,-62.6545 177.8464,-58.96 197,-57 254.0804,-51.159 318.2481,-50.1866 369.9182,-50.7772"/>
<polygon fill="#ffa500" stroke="#ffa500" points="138.1179,-62.9839 129.0624,-68.4837 139.5711,-69.8314 138.1179,-62.9839"/>
<text text-anchor="start" x="197" y="-71" font-family="Helvetica,sans-Serif" font-size="10.00" fill="#000000"> &lt; std::shared_ptr&lt;</text>
<text text-anchor="middle" x="274.5" y="-60" font-family="Helvetica,sans-Serif" font-size="10.00" fill="#000000"> const gko::AbstractFactory &gt; &gt;</text>
</g>
<!-- Node6 -->
<g id="node6" class="node">
<title>Node6</title>
<g id="a_node6"><a xlink:title=" ">
<polygon fill="#ffffff" stroke="#bfbfbf" points="401.5,-.5 401.5,-19.5 536.5,-19.5 536.5,-.5 401.5,-.5"/>
<text text-anchor="middle" x="469" y="-7.5" font-family="Helvetica,sans-Serif" font-size="10.00" fill="#000000">std::complex&lt; double &gt;</text>
</a>
</g>
</g>
<!-- Node6&#45;&gt;Node1 -->
<g id="edge5" class="edge">
<title>Node6&#45;&gt;Node1</title>
<path fill="none" stroke="#9a32cd" stroke-dasharray="5,2" d="M546.7509,-14.3103C583.4553,-17.7468 627.5432,-23.9189 666,-35 683.3919,-40.0114 701.8083,-48.4223 716.3228,-55.8544"/>
<polygon fill="#9a32cd" stroke="#9a32cd" points="546.8748,-10.8076 536.605,-13.4117 546.2572,-17.7803 546.8748,-10.8076"/>
<text text-anchor="middle" x="626" y="-38" font-family="Helvetica,sans-Serif" font-size="10.00" fill="#000000"> smoother_relax</text>
</g>
<!-- Node7 -->
<g id="node7" class="node">
<title>Node7</title>
<g id="a_node7"><a xlink:title="STL class.">
<polygon fill="#ffffff" stroke="#bfbfbf" points="49.5,-.5 49.5,-19.5 129.5,-19.5 129.5,-.5 49.5,-.5"/>
<text text-anchor="middle" x="89.5" y="-7.5" font-family="Helvetica,sans-Serif" font-size="10.00" fill="#000000">std::complex</text>
</a>
</g>
</g>
<!-- Node7&#45;&gt;Node6 -->
<g id="edge6" class="edge">
<title>Node7&#45;&gt;Node6</title>
<path fill="none" stroke="#ffa500" stroke-dasharray="5,2" d="M140.0949,-10C207.3938,-10 326.5615,-10 401.4772,-10"/>
<polygon fill="#ffa500" stroke="#ffa500" points="139.7539,-6.5001 129.7539,-10 139.7538,-13.5001 139.7539,-6.5001"/>
<text text-anchor="middle" x="274.5" y="-13" font-family="Helvetica,sans-Serif" font-size="10.00" fill="#000000"> &lt; double &gt;</text>
</g>
<!-- Node8&#45;&gt;Node1 -->
<g id="edge7" class="edge">
<title>Node8&#45;&gt;Node1</title>
<path fill="none" stroke="#9a32cd" stroke-dasharray="5,2" d="M578.1953,-50.6995C606.8265,-50.8877 637.6257,-52.0288 666,-55 671.7388,-55.6009 677.6806,-56.4354 683.6044,-57.4105"/>
<polygon fill="#9a32cd" stroke="#9a32cd" points="578.1758,-47.1996 568.166,-50.6713 578.156,-54.1995 578.1758,-47.1996"/>
<text text-anchor="middle" x="626" y="-58" font-family="Helvetica,sans-Serif" font-size="10.00" fill="#000000"> criteria</text>
</g>
</g>
</svg>
