<?xml version="1.0" encoding="UTF-8" standalone="no"?>
<!DOCTYPE svg PUBLIC "-//W3C//DTD SVG 1.1//EN"
 "http://www.w3.org/Graphics/SVG/1.1/DTD/svg11.dtd">
<!-- Generated by graphviz version 2.40.1 (20161225.0304)
 -->
<!-- Title: gko::stop::CriterionArgs Pages: 1 -->
<svg width="1644pt" height="156pt"
 viewBox="0.00 0.00 1644.00 155.50" xmlns="http://www.w3.org/2000/svg" xmlns:xlink="http://www.w3.org/1999/xlink">
<g id="graph0" class="graph" transform="scale(1 1) rotate(0) translate(4 151.5)">
<title>gko::stop::CriterionArgs</title>
<polygon fill="#ffffff" stroke="transparent" points="-4,4 -4,-151.5 1640,-151.5 1640,4 -4,4"/>
<!-- Node1 -->
<g id="node1" class="node">
<title>Node1</title>
<g id="a_node1"><a xlink:title="This struct is used to pass parameters to the EnableDefaultCriterionFactoryCriterionFactory::generate...">
<polygon fill="#bfbfbf" stroke="#000000" points="1505,-28 1505,-47 1636,-47 1636,-28 1505,-28"/>
<text text-anchor="middle" x="1570.5" y="-35" font-family="Helvetica,sans-Serif" font-size="10.00" fill="#000000">gko::stop::CriterionArgs</text>
</a>
</g>
</g>
<!-- Node2 -->
<g id="node2" class="node">
<title>Node2</title>
<g id="a_node2"><a xlink:href="classgko_1_1LinOp.html" target="_top" xlink:title=" ">
<polygon fill="#ffffff" stroke="#000000" points="1294.5,-51 1294.5,-70 1362.5,-70 1362.5,-51 1294.5,-51"/>
<text text-anchor="middle" x="1328.5" y="-58" font-family="Helvetica,sans-Serif" font-size="10.00" fill="#000000">gko::LinOp</text>
</a>
</g>
</g>
<!-- Node2&#45;&gt;Node1 -->
<g id="edge1" class="edge">
<title>Node2&#45;&gt;Node1</title>
<path fill="none" stroke="#9a32cd" stroke-dasharray="5,2" d="M1373.0829,-56.2628C1409.951,-52.7588 1462.8417,-47.732 1504.5997,-43.7632"/>
<polygon fill="#9a32cd" stroke="#9a32cd" points="1372.2834,-52.8229 1362.6594,-57.2534 1372.9457,-59.7915 1372.2834,-52.8229"/>
<text text-anchor="middle" x="1448.5" y="-65.5" font-family="Helvetica,sans-Serif" font-size="10.00" fill="#000000"> x</text>
<text text-anchor="middle" x="1448.5" y="-54.5" font-family="Helvetica,sans-Serif" font-size="10.00" fill="#000000">initial_residual</text>
</g>
<!-- Node3 -->
<g id="node3" class="node">
<title>Node3</title>
<g id="a_node3"><a xlink:href="classgko_1_1EnableAbstractPolymorphicObject.html" target="_top" xlink:title=" ">
<polygon fill="#ffffff" stroke="#000000" points="947,-45.5 947,-75.5 1122,-75.5 1122,-45.5 947,-45.5"/>
<text text-anchor="start" x="955" y="-63.5" font-family="Helvetica,sans-Serif" font-size="10.00" fill="#000000">gko::EnableAbstractPolymorphic</text>
<text text-anchor="middle" x="1034.5" y="-52.5" font-family="Helvetica,sans-Serif" font-size="10.00" fill="#000000">Object&lt; LinOp &gt;</text>
</a>
</g>
</g>
<!-- Node3&#45;&gt;Node2 -->
<g id="edge2" class="edge">
<title>Node3&#45;&gt;Node2</title>
<path fill="none" stroke="#191970" d="M1132.5951,-60.5C1188.3781,-60.5 1254.7652,-60.5 1294.1726,-60.5"/>
<polygon fill="#191970" stroke="#191970" points="1132.3115,-57.0001 1122.3115,-60.5 1132.3114,-64.0001 1132.3115,-57.0001"/>
</g>
<!-- Node4 -->
<g id="node4" class="node">
<title>Node4</title>
<g id="a_node4"><a xlink:href="classgko_1_1PolymorphicObject.html" target="_top" xlink:title="A PolymorphicObject is the abstract base for all &quot;heavy&quot; objects in Ginkgo that behave polymorphicall...">
<polygon fill="#ffffff" stroke="#000000" points="777,-75 777,-94 910,-94 910,-75 777,-75"/>
<text text-anchor="middle" x="843.5" y="-82" font-family="Helvetica,sans-Serif" font-size="10.00" fill="#000000">gko::PolymorphicObject</text>
</a>
</g>
</g>
<!-- Node4&#45;&gt;Node3 -->
<g id="edge3" class="edge">
<title>Node4&#45;&gt;Node3</title>
<path fill="none" stroke="#191970" d="M920.164,-74.8668C928.8942,-73.7698 937.8431,-72.6454 946.703,-71.5321"/>
<polygon fill="#191970" stroke="#191970" points="919.52,-71.4201 910.0344,-76.1397 920.3928,-78.3655 919.52,-71.4201"/>
</g>
<!-- Node5 -->
<g id="node5" class="node">
<title>Node5</title>
<g id="a_node5"><a xlink:href="classgko_1_1log_1_1EnableLogging.html" target="_top" xlink:title=" ">
<polygon fill="#ffffff" stroke="#000000" points="554,-73.5 554,-103.5 687,-103.5 687,-73.5 554,-73.5"/>
<text text-anchor="start" x="562" y="-91.5" font-family="Helvetica,sans-Serif" font-size="10.00" fill="#000000">gko::log::EnableLogging</text>
<text text-anchor="middle" x="620.5" y="-80.5" font-family="Helvetica,sans-Serif" font-size="10.00" fill="#000000">&lt; PolymorphicObject &gt;</text>
</a>
</g>
</g>
<!-- Node5&#45;&gt;Node4 -->
<g id="edge4" class="edge">
<title>Node5&#45;&gt;Node4</title>
<path fill="none" stroke="#191970" d="M697.2535,-87.1233C723.143,-86.6589 751.8093,-86.1447 776.8528,-85.6955"/>
<polygon fill="#191970" stroke="#191970" points="697.0409,-83.6264 687.1053,-87.3053 697.1665,-90.6253 697.0409,-83.6264"/>
</g>
<!-- Node6 -->
<g id="node6" class="node">
<title>Node6</title>
<g id="a_node6"><a xlink:href="classgko_1_1log_1_1Loggable.html" target="_top" xlink:title="Loggable class is an interface which should be implemented by classes wanting to support logging.">
<polygon fill="#ffffff" stroke="#000000" points="176,-128 176,-147 282,-147 282,-128 176,-128"/>
<text text-anchor="middle" x="229" y="-135" font-family="Helvetica,sans-Serif" font-size="10.00" fill="#000000">gko::log::Loggable</text>
</a>
</g>
</g>
<!-- Node6&#45;&gt;Node5 -->
<g id="edge5" class="edge">
<title>Node6&#45;&gt;Node5</title>
<path fill="none" stroke="#191970" d="M292.1473,-131.7241C354.3208,-125.7506 451.9097,-115.6069 536,-103.5 541.7515,-102.6719 547.7117,-101.748 553.6836,-100.7767"/>
<polygon fill="#191970" stroke="#191970" points="291.7237,-128.2485 282.1014,-132.6825 292.3887,-135.2168 291.7237,-128.2485"/>
</g>
<!-- Node7 -->
<g id="node7" class="node">
<title>Node7</title>
<g id="a_node7"><a xlink:href="classgko_1_1log_1_1EnableLogging.html" target="_top" xlink:title="EnableLogging is a mixin which should be inherited by any class which wants to enable logging.">
<polygon fill="#ffffff" stroke="#000000" points="138,-68 138,-109 320,-109 320,-68 138,-68"/>
<text text-anchor="start" x="146" y="-97" font-family="Helvetica,sans-Serif" font-size="10.00" fill="#000000">gko::log::EnableLogging</text>
<text text-anchor="start" x="146" y="-86" font-family="Helvetica,sans-Serif" font-size="10.00" fill="#000000">&lt; ConcreteLoggable, Polymorphic</text>
<text text-anchor="middle" x="229" y="-75" font-family="Helvetica,sans-Serif" font-size="10.00" fill="#000000">Base &gt;</text>
</a>
</g>
</g>
<!-- Node7&#45;&gt;Node5 -->
<g id="edge6" class="edge">
<title>Node7&#45;&gt;Node5</title>
<path fill="none" stroke="#ffa500" stroke-dasharray="5,2" d="M330.5189,-88.5C400.9042,-88.5 492.6363,-88.5 553.8964,-88.5"/>
<polygon fill="#ffa500" stroke="#ffa500" points="330.2953,-85.0001 320.2953,-88.5 330.2952,-92.0001 330.2953,-85.0001"/>
<text text-anchor="middle" x="437" y="-91.5" font-family="Helvetica,sans-Serif" font-size="10.00" fill="#000000"> &lt; PolymorphicObject &gt;</text>
</g>
<!-- Node8 -->
<g id="node8" class="node">
<title>Node8</title>
<g id="a_node8"><a xlink:title=" ">
<polygon fill="#ffffff" stroke="#bfbfbf" points="0,-42 0,-61 101,-61 101,-42 0,-42"/>
<text text-anchor="middle" x="50.5" y="-49" font-family="Helvetica,sans-Serif" font-size="10.00" fill="#000000">PolymorphicBase</text>
</a>
</g>
</g>
<!-- Node8&#45;&gt;Node7 -->
<g id="edge7" class="edge">
<title>Node8&#45;&gt;Node7</title>
<path fill="none" stroke="#191970" d="M106.2638,-63.0589C116.3029,-65.1398 127.0031,-67.3578 137.7421,-69.5838"/>
<polygon fill="#191970" stroke="#191970" points="106.9705,-59.631 96.4682,-61.0284 105.5496,-66.4853 106.9705,-59.631"/>
</g>
<!-- Node9 -->
<g id="node9" class="node">
<title>Node9</title>
<g id="a_node9"><a xlink:href="classgko_1_1EnableAbstractPolymorphicObject.html" target="_top" xlink:title="This mixin inherits from (a subclass of) PolymorphicObject and provides a base implementation of a ne...">
<polygon fill="#ffffff" stroke="#000000" points="338,-21 338,-62 536,-62 536,-21 338,-21"/>
<text text-anchor="start" x="346" y="-50" font-family="Helvetica,sans-Serif" font-size="10.00" fill="#000000">gko::EnableAbstractPolymorphic</text>
<text text-anchor="start" x="346" y="-39" font-family="Helvetica,sans-Serif" font-size="10.00" fill="#000000">Object&lt; AbstractObject, Polymorphic</text>
<text text-anchor="middle" x="437" y="-28" font-family="Helvetica,sans-Serif" font-size="10.00" fill="#000000">Base &gt;</text>
</a>
</g>
</g>
<!-- Node8&#45;&gt;Node9 -->
<g id="edge9" class="edge">
<title>Node8&#45;&gt;Node9</title>
<path fill="none" stroke="#191970" d="M111.2068,-49.9293C171.8632,-48.3599 266.1374,-45.9208 337.6981,-44.0693"/>
<polygon fill="#191970" stroke="#191970" points="110.9342,-46.4351 101.0281,-50.1927 111.1153,-53.4328 110.9342,-46.4351"/>
</g>
<!-- Node9&#45;&gt;Node3 -->
<g id="edge8" class="edge">
<title>Node9&#45;&gt;Node3</title>
<path fill="none" stroke="#ffa500" stroke-dasharray="5,2" d="M546.2536,-44.9742C661.4719,-48.638 840.7296,-54.3383 946.9876,-57.7172"/>
<polygon fill="#ffa500" stroke="#ffa500" points="546.1063,-41.4678 536.0001,-44.6481 545.8838,-48.4643 546.1063,-41.4678"/>
<text text-anchor="middle" x="732" y="-54.5" font-family="Helvetica,sans-Serif" font-size="10.00" fill="#000000"> &lt; LinOp &gt;</text>
</g>
<!-- Node10 -->
<g id="node10" class="node">
<title>Node10</title>
<g id="a_node10"><a xlink:title=" ">
<polygon fill="#ffffff" stroke="#bfbfbf" points="1265,-.5 1265,-30.5 1392,-30.5 1392,-.5 1265,-.5"/>
<text text-anchor="start" x="1273" y="-18.5" font-family="Helvetica,sans-Serif" font-size="10.00" fill="#000000">std::shared_ptr&lt; const</text>
<text text-anchor="middle" x="1328.5" y="-7.5" font-family="Helvetica,sans-Serif" font-size="10.00" fill="#000000"> gko::LinOp &gt;</text>
</a>
</g>
</g>
<!-- Node10&#45;&gt;Node1 -->
<g id="edge10" class="edge">
<title>Node10&#45;&gt;Node1</title>
<path fill="none" stroke="#9a32cd" stroke-dasharray="5,2" d="M1402.4155,-12.3021C1429.157,-12.1097 1459.526,-13.0101 1487,-16.5 1504.7946,-18.7603 1524.2539,-23.5159 1539.9073,-27.9307"/>
<polygon fill="#9a32cd" stroke="#9a32cd" points="1402.3138,-8.8029 1392.3578,-12.4262 1402.4002,-15.8024 1402.3138,-8.8029"/>
<text text-anchor="middle" x="1448.5" y="-30.5" font-family="Helvetica,sans-Serif" font-size="10.00" fill="#000000"> system_matrix</text>
<text text-anchor="middle" x="1448.5" y="-19.5" font-family="Helvetica,sans-Serif" font-size="10.00" fill="#000000">b</text>
</g>
<!-- Node11 -->
<g id="node11" class="node">
<title>Node11</title>
<g id="a_node11"><a xlink:title="STL class.">
<polygon fill="#ffffff" stroke="#bfbfbf" points="975.5,-6 975.5,-25 1093.5,-25 1093.5,-6 975.5,-6"/>
<text text-anchor="middle" x="1034.5" y="-13" font-family="Helvetica,sans-Serif" font-size="10.00" fill="#000000">std::shared_ptr&lt; T &gt;</text>
</a>
</g>
</g>
<!-- Node11&#45;&gt;Node10 -->
<g id="edge11" class="edge">
<title>Node11&#45;&gt;Node10</title>
<path fill="none" stroke="#ffa500" stroke-dasharray="5,2" d="M1103.7968,-15.5C1152.5829,-15.5 1217.3934,-15.5 1264.8705,-15.5"/>
<polygon fill="#ffa500" stroke="#ffa500" points="1103.6417,-12.0001 1093.6416,-15.5 1103.6416,-19.0001 1103.6417,-12.0001"/>
<text text-anchor="middle" x="1193.5" y="-18.5" font-family="Helvetica,sans-Serif" font-size="10.00" fill="#000000"> &lt; const gko::LinOp &gt;</text>
</g>
</g>
</svg>
