<?xml version="1.0" encoding="UTF-8" standalone="no"?>
<!DOCTYPE svg PUBLIC "-//W3C//DTD SVG 1.1//EN"
 "http://www.w3.org/Graphics/SVG/1.1/DTD/svg11.dtd">
<!-- Generated by graphviz version 2.40.1 (20161225.0304)
 -->
<!-- Title: gko::solver::Ir&lt; ValueType &gt;::parameters_type Pages: 1 -->
<svg width="1733pt" height="214pt"
 viewBox="0.00 0.00 1733.00 213.50" xmlns="http://www.w3.org/2000/svg" xmlns:xlink="http://www.w3.org/1999/xlink">
<g id="graph0" class="graph" transform="scale(1 1) rotate(0) translate(4 209.5)">
<title>gko::solver::Ir&lt; ValueType &gt;::parameters_type</title>
<polygon fill="#ffffff" stroke="transparent" points="-4,4 -4,-209.5 1729,-209.5 1729,4 -4,4"/>
<!-- Node1 -->
<g id="node1" class="node">
<title>Node1</title>
<g id="a_node1"><a xlink:title=" ">
<polygon fill="#bfbfbf" stroke="#000000" points="1581,-49.5 1581,-79.5 1725,-79.5 1725,-49.5 1581,-49.5"/>
<text text-anchor="start" x="1589" y="-67.5" font-family="Helvetica,sans-Serif" font-size="10.00" fill="#000000">gko::solver::Ir&lt; ValueType</text>
<text text-anchor="middle" x="1653" y="-56.5" font-family="Helvetica,sans-Serif" font-size="10.00" fill="#000000"> &gt;::parameters_type</text>
</a>
</g>
</g>
<!-- Node2 -->
<g id="node2" class="node">
<title>Node2</title>
<g id="a_node2"><a xlink:href="structgko_1_1solver_1_1enable__iterative__solver__factory__parameters.html" target="_top" xlink:title=" ">
<polygon fill="#ffffff" stroke="#000000" points="1311,-100.5 1311,-152.5 1457,-152.5 1457,-100.5 1311,-100.5"/>
<text text-anchor="start" x="1319" y="-140.5" font-family="Helvetica,sans-Serif" font-size="10.00" fill="#000000">gko::solver::enable</text>
<text text-anchor="start" x="1319" y="-129.5" font-family="Helvetica,sans-Serif" font-size="10.00" fill="#000000">_iterative_solver_factory</text>
<text text-anchor="start" x="1319" y="-118.5" font-family="Helvetica,sans-Serif" font-size="10.00" fill="#000000">_parameters&lt; parameters</text>
<text text-anchor="middle" x="1384" y="-107.5" font-family="Helvetica,sans-Serif" font-size="10.00" fill="#000000">_type, Factory &gt;</text>
</a>
</g>
</g>
<!-- Node2&#45;&gt;Node1 -->
<g id="edge1" class="edge">
<title>Node2&#45;&gt;Node1</title>
<path fill="none" stroke="#191970" d="M1467.3631,-107.2862C1506.0955,-98.359 1551.4754,-87.8997 1587.6721,-79.557"/>
<polygon fill="#191970" stroke="#191970" points="1466.1085,-103.9835 1457.1501,-109.6401 1467.6807,-110.8047 1466.1085,-103.9835"/>
</g>
<!-- Node3 -->
<g id="node3" class="node">
<title>Node3</title>
<g id="a_node3"><a xlink:href="classgko_1_1enable__parameters__type.html" target="_top" xlink:title=" ">
<polygon fill="#ffffff" stroke="#000000" points="826,-164 826,-205 967,-205 967,-164 826,-164"/>
<text text-anchor="start" x="834" y="-193" font-family="Helvetica,sans-Serif" font-size="10.00" fill="#000000">gko::enable_parameters</text>
<text text-anchor="start" x="834" y="-182" font-family="Helvetica,sans-Serif" font-size="10.00" fill="#000000">_type&lt; parameters_type,</text>
<text text-anchor="middle" x="896.5" y="-171" font-family="Helvetica,sans-Serif" font-size="10.00" fill="#000000"> Factory &gt;</text>
</a>
</g>
</g>
<!-- Node3&#45;&gt;Node2 -->
<g id="edge2" class="edge">
<title>Node3&#45;&gt;Node2</title>
<path fill="none" stroke="#191970" d="M977.3947,-183.6398C1058.012,-181.5535 1185.0206,-174.9318 1293,-154.5 1298.8469,-153.3937 1304.8489,-152.0448 1310.8468,-150.5434"/>
<polygon fill="#191970" stroke="#191970" points="977.223,-180.1429 967.3105,-183.8834 977.3921,-187.1408 977.223,-180.1429"/>
</g>
<!-- Node4 -->
<g id="node4" class="node">
<title>Node4</title>
<g id="a_node4"><a xlink:href="classgko_1_1enable__parameters__type.html" target="_top" xlink:title="The enable_parameters_type mixin is used to create a base implementation of the factory parameters st...">
<polygon fill="#ffffff" stroke="#000000" points="297.5,-138 297.5,-179 476.5,-179 476.5,-138 297.5,-138"/>
<text text-anchor="start" x="305.5" y="-167" font-family="Helvetica,sans-Serif" font-size="10.00" fill="#000000">gko::enable_parameters</text>
<text text-anchor="start" x="305.5" y="-156" font-family="Helvetica,sans-Serif" font-size="10.00" fill="#000000">_type&lt; ConcreteParametersType,</text>
<text text-anchor="middle" x="387" y="-145" font-family="Helvetica,sans-Serif" font-size="10.00" fill="#000000"> Factory &gt;</text>
</a>
</g>
</g>
<!-- Node4&#45;&gt;Node3 -->
<g id="edge3" class="edge">
<title>Node4&#45;&gt;Node3</title>
<path fill="none" stroke="#ffa500" stroke-dasharray="5,2" d="M486.726,-163.5891C586.589,-168.6851 737.7335,-176.3981 825.8374,-180.8941"/>
<polygon fill="#ffa500" stroke="#ffa500" points="486.7886,-160.0878 476.6232,-163.0735 486.4318,-167.0787 486.7886,-160.0878"/>
<text text-anchor="start" x="515" y="-183.5" font-family="Helvetica,sans-Serif" font-size="10.00" fill="#000000"> &lt; parameters_type,</text>
<text text-anchor="middle" x="565.5" y="-172.5" font-family="Helvetica,sans-Serif" font-size="10.00" fill="#000000"> Factory &gt;</text>
</g>
<!-- Node9 -->
<g id="node9" class="node">
<title>Node9</title>
<g id="a_node9"><a xlink:href="classgko_1_1enable__parameters__type.html" target="_top" xlink:title=" ">
<polygon fill="#ffffff" stroke="#000000" points="645,-117.5 645,-147.5 808,-147.5 808,-117.5 645,-117.5"/>
<text text-anchor="start" x="653" y="-135.5" font-family="Helvetica,sans-Serif" font-size="10.00" fill="#000000">gko::enable_parameters</text>
<text text-anchor="middle" x="726.5" y="-124.5" font-family="Helvetica,sans-Serif" font-size="10.00" fill="#000000">_type&lt; Parameters, Factory &gt;</text>
</a>
</g>
</g>
<!-- Node4&#45;&gt;Node9 -->
<g id="edge9" class="edge">
<title>Node4&#45;&gt;Node9</title>
<path fill="none" stroke="#ffa500" stroke-dasharray="5,2" d="M487.0789,-149.8564C492.803,-149.39 498.4745,-148.9348 504,-148.5 550.6202,-144.8316 602.763,-141.0641 644.8464,-138.1072"/>
<polygon fill="#ffa500" stroke="#ffa500" points="486.4185,-146.3988 476.7387,-150.7061 486.9918,-153.3753 486.4185,-146.3988"/>
<text text-anchor="middle" x="565.5" y="-151.5" font-family="Helvetica,sans-Serif" font-size="10.00" fill="#000000"> &lt; Parameters, Factory &gt;</text>
</g>
<!-- Node5 -->
<g id="node5" class="node">
<title>Node5</title>
<g id="a_node5"><a xlink:href="structgko_1_1solver_1_1iterative__solver__factory__parameters.html" target="_top" xlink:title="The parameter type shared between all iterative solvers.">
<polygon fill="#ffffff" stroke="#000000" points="650,-65.5 650,-95.5 803,-95.5 803,-65.5 650,-65.5"/>
<text text-anchor="start" x="658" y="-83.5" font-family="Helvetica,sans-Serif" font-size="10.00" fill="#000000">gko::solver::iterative</text>
<text text-anchor="middle" x="726.5" y="-72.5" font-family="Helvetica,sans-Serif" font-size="10.00" fill="#000000">_solver_factory_parameters</text>
</a>
</g>
</g>
<!-- Node5&#45;&gt;Node2 -->
<g id="edge4" class="edge">
<title>Node5&#45;&gt;Node2</title>
<path fill="none" stroke="#191970" d="M813.1026,-81.5403C895.4855,-83.0396 1022.8492,-86.682 1133,-95.5 1193.0708,-100.3089 1260.8768,-108.872 1310.8571,-115.7815"/>
<polygon fill="#191970" stroke="#191970" points="813.0935,-78.0397 803.0336,-81.3637 812.9706,-85.0386 813.0935,-78.0397"/>
</g>
<!-- Node8 -->
<g id="node8" class="node">
<title>Node8</title>
<g id="a_node8"><a xlink:href="structgko_1_1solver_1_1enable__iterative__solver__factory__parameters.html" target="_top" xlink:title=" ">
<polygon fill="#ffffff" stroke="#000000" points="985,-104.5 985,-156.5 1133,-156.5 1133,-104.5 985,-104.5"/>
<text text-anchor="start" x="993" y="-144.5" font-family="Helvetica,sans-Serif" font-size="10.00" fill="#000000">gko::solver::enable</text>
<text text-anchor="start" x="993" y="-133.5" font-family="Helvetica,sans-Serif" font-size="10.00" fill="#000000">_iterative_solver_factory</text>
<text text-anchor="start" x="993" y="-122.5" font-family="Helvetica,sans-Serif" font-size="10.00" fill="#000000">_parameters&lt; Parameters,</text>
<text text-anchor="middle" x="1059" y="-111.5" font-family="Helvetica,sans-Serif" font-size="10.00" fill="#000000"> Factory &gt;</text>
</a>
</g>
</g>
<!-- Node5&#45;&gt;Node8 -->
<g id="edge10" class="edge">
<title>Node5&#45;&gt;Node8</title>
<path fill="none" stroke="#191970" d="M813.3222,-93.556C866.6375,-101.5733 934.199,-111.7329 984.9728,-119.3681"/>
<polygon fill="#191970" stroke="#191970" points="813.609,-90.0598 803.1997,-92.0338 812.568,-96.982 813.609,-90.0598"/>
</g>
<!-- Node6 -->
<g id="node6" class="node">
<title>Node6</title>
<g id="a_node6"><a xlink:title=" ">
<polygon fill="#ffffff" stroke="#bfbfbf" points="288,-65.5 288,-95.5 486,-95.5 486,-65.5 288,-65.5"/>
<text text-anchor="start" x="296" y="-83.5" font-family="Helvetica,sans-Serif" font-size="10.00" fill="#000000">std::vector&lt; std::shared</text>
<text text-anchor="middle" x="387" y="-72.5" font-family="Helvetica,sans-Serif" font-size="10.00" fill="#000000">_ptr&lt; const gko::AbstractFactory &gt; &gt;</text>
</a>
</g>
</g>
<!-- Node6&#45;&gt;Node5 -->
<g id="edge5" class="edge">
<title>Node6&#45;&gt;Node5</title>
<path fill="none" stroke="#9a32cd" stroke-dasharray="5,2" d="M496.3431,-80.5C546.4436,-80.5 604.6174,-80.5 649.9442,-80.5"/>
<polygon fill="#9a32cd" stroke="#9a32cd" points="496.1101,-77.0001 486.1101,-80.5 496.1101,-84.0001 496.1101,-77.0001"/>
<text text-anchor="middle" x="565.5" y="-83.5" font-family="Helvetica,sans-Serif" font-size="10.00" fill="#000000"> criteria</text>
</g>
<!-- Node7 -->
<g id="node7" class="node">
<title>Node7</title>
<g id="a_node7"><a xlink:title="STL class.">
<polygon fill="#ffffff" stroke="#bfbfbf" points="0,-71 0,-90 97,-90 97,-71 0,-71"/>
<text text-anchor="middle" x="48.5" y="-78" font-family="Helvetica,sans-Serif" font-size="10.00" fill="#000000">std::vector&lt; T &gt;</text>
</a>
</g>
</g>
<!-- Node7&#45;&gt;Node6 -->
<g id="edge6" class="edge">
<title>Node7&#45;&gt;Node6</title>
<path fill="none" stroke="#ffa500" stroke-dasharray="5,2" d="M107.6096,-80.5C157.2983,-80.5 229.3742,-80.5 287.873,-80.5"/>
<polygon fill="#ffa500" stroke="#ffa500" points="107.3593,-77.0001 97.3593,-80.5 107.3593,-84.0001 107.3593,-77.0001"/>
<text text-anchor="start" x="115" y="-94.5" font-family="Helvetica,sans-Serif" font-size="10.00" fill="#000000"> &lt; std::shared_ptr&lt;</text>
<text text-anchor="middle" x="192.5" y="-83.5" font-family="Helvetica,sans-Serif" font-size="10.00" fill="#000000"> const gko::AbstractFactory &gt; &gt;</text>
</g>
<!-- Node8&#45;&gt;Node2 -->
<g id="edge7" class="edge">
<title>Node8&#45;&gt;Node2</title>
<path fill="none" stroke="#ffa500" stroke-dasharray="5,2" d="M1143.3341,-129.462C1195.2085,-128.8236 1261.0333,-128.0134 1310.725,-127.4018"/>
<polygon fill="#ffa500" stroke="#ffa500" points="1143.1103,-125.9644 1133.1542,-129.5873 1143.1965,-132.9639 1143.1103,-125.9644"/>
<text text-anchor="start" x="1171.5" y="-142.5" font-family="Helvetica,sans-Serif" font-size="10.00" fill="#000000"> &lt; parameters_type,</text>
<text text-anchor="middle" x="1222" y="-131.5" font-family="Helvetica,sans-Serif" font-size="10.00" fill="#000000"> Factory &gt;</text>
</g>
<!-- Node9&#45;&gt;Node8 -->
<g id="edge8" class="edge">
<title>Node9&#45;&gt;Node8</title>
<path fill="none" stroke="#191970" d="M818.5773,-131.9462C871.0079,-131.6308 935.8191,-131.2409 984.934,-130.9455"/>
<polygon fill="#191970" stroke="#191970" points="818.2432,-128.448 808.2645,-132.0082 818.2854,-135.4479 818.2432,-128.448"/>
</g>
<!-- Node10 -->
<g id="node10" class="node">
<title>Node10</title>
<g id="a_node10"><a xlink:title=" ">
<polygon fill="#ffffff" stroke="#bfbfbf" points="1320.5,-49.5 1320.5,-79.5 1447.5,-79.5 1447.5,-49.5 1320.5,-49.5"/>
<text text-anchor="start" x="1328.5" y="-67.5" font-family="Helvetica,sans-Serif" font-size="10.00" fill="#000000">std::shared_ptr&lt; const</text>
<text text-anchor="middle" x="1384" y="-56.5" font-family="Helvetica,sans-Serif" font-size="10.00" fill="#000000"> gko::LinOpFactory &gt;</text>
</a>
</g>
</g>
<!-- Node10&#45;&gt;Node1 -->
<g id="edge11" class="edge">
<title>Node10&#45;&gt;Node1</title>
<path fill="none" stroke="#9a32cd" stroke-dasharray="5,2" d="M1457.7983,-64.5C1496.0689,-64.5 1542.6369,-64.5 1580.6891,-64.5"/>
<polygon fill="#9a32cd" stroke="#9a32cd" points="1457.7493,-61.0001 1447.7492,-64.5 1457.7492,-68.0001 1457.7493,-61.0001"/>
<text text-anchor="middle" x="1519" y="-67.5" font-family="Helvetica,sans-Serif" font-size="10.00" fill="#000000"> solver</text>
</g>
<!-- Node11 -->
<g id="node11" class="node">
<title>Node11</title>
<g id="a_node11"><a xlink:title="STL class.">
<polygon fill="#ffffff" stroke="#bfbfbf" points="1000,-17 1000,-36 1118,-36 1118,-17 1000,-17"/>
<text text-anchor="middle" x="1059" y="-24" font-family="Helvetica,sans-Serif" font-size="10.00" fill="#000000">std::shared_ptr&lt; T &gt;</text>
</a>
</g>
</g>
<!-- Node11&#45;&gt;Node10 -->
<g id="edge12" class="edge">
<title>Node11&#45;&gt;Node10</title>
<path fill="none" stroke="#ffa500" stroke-dasharray="5,2" d="M1128.2335,-32.677C1174.8657,-37.0643 1237.7139,-43.4166 1293,-50.5 1301.8787,-51.6376 1311.2275,-52.9474 1320.4158,-54.2996"/>
<polygon fill="#ffa500" stroke="#ffa500" points="1128.5221,-29.1888 1118.2399,-31.7434 1127.871,-36.1584 1128.5221,-29.1888"/>
<text text-anchor="middle" x="1222" y="-53.5" font-family="Helvetica,sans-Serif" font-size="10.00" fill="#000000"> &lt; const gko::LinOpFactory &gt;</text>
</g>
<!-- Node12 -->
<g id="node12" class="node">
<title>Node12</title>
<g id="a_node12"><a xlink:title=" ">
<polygon fill="#ffffff" stroke="#bfbfbf" points="1320.5,-.5 1320.5,-30.5 1447.5,-30.5 1447.5,-.5 1320.5,-.5"/>
<text text-anchor="start" x="1328.5" y="-18.5" font-family="Helvetica,sans-Serif" font-size="10.00" fill="#000000">std::shared_ptr&lt; const</text>
<text text-anchor="middle" x="1384" y="-7.5" font-family="Helvetica,sans-Serif" font-size="10.00" fill="#000000"> gko::LinOp &gt;</text>
</a>
</g>
</g>
<!-- Node11&#45;&gt;Node12 -->
<g id="edge14" class="edge">
<title>Node11&#45;&gt;Node12</title>
<path fill="none" stroke="#ffa500" stroke-dasharray="5,2" d="M1128.3149,-18.1869C1135.9603,-17.5021 1143.6387,-16.9147 1151,-16.5 1208.1486,-13.2802 1273.3063,-13.3143 1320.1595,-13.9889"/>
<polygon fill="#ffa500" stroke="#ffa500" points="1127.937,-14.707 1118.3128,-19.137 1128.599,-21.6756 1127.937,-14.707"/>
<text text-anchor="middle" x="1222" y="-19.5" font-family="Helvetica,sans-Serif" font-size="10.00" fill="#000000"> &lt; const gko::LinOp &gt;</text>
</g>
<!-- Node12&#45;&gt;Node1 -->
<g id="edge13" class="edge">
<title>Node12&#45;&gt;Node1</title>
<path fill="none" stroke="#9a32cd" stroke-dasharray="5,2" d="M1457.7983,-28.9428C1496.0689,-35.914 1542.6369,-44.3967 1580.6891,-51.3281"/>
<polygon fill="#9a32cd" stroke="#9a32cd" points="1458.2146,-25.4611 1447.7492,-27.1123 1456.9601,-32.3478 1458.2146,-25.4611"/>
<text text-anchor="middle" x="1519" y="-50.5" font-family="Helvetica,sans-Serif" font-size="10.00" fill="#000000"> generated_solver</text>
</g>
</g>
</svg>
