<?xml version="1.0" encoding="UTF-8" standalone="no"?>
<!DOCTYPE svg PUBLIC "-//W3C//DTD SVG 1.1//EN"
 "http://www.w3.org/Graphics/SVG/1.1/DTD/svg11.dtd">
<!-- Generated by graphviz version 2.40.1 (20161225.0304)
 -->
<!-- Title: gko::solver::Bicg&lt; ValueType &gt;::parameters_type Pages: 1 -->
<svg width="1633pt" height="211pt"
 viewBox="0.00 0.00 1633.00 211.00" xmlns="http://www.w3.org/2000/svg" xmlns:xlink="http://www.w3.org/1999/xlink">
<g id="graph0" class="graph" transform="scale(1 1) rotate(0) translate(4 207)">
<title>gko::solver::Bicg&lt; ValueType &gt;::parameters_type</title>
<polygon fill="#ffffff" stroke="transparent" points="-4,4 -4,-207 1629,-207 1629,4 -4,4"/>
<!-- Node1 -->
<g id="node1" class="node">
<title>Node1</title>
<g id="a_node1"><a xlink:title=" ">
<polygon fill="#bfbfbf" stroke="#000000" points="1455,-59 1455,-89 1625,-89 1625,-59 1455,-59"/>
<text text-anchor="start" x="1463" y="-77" font-family="Helvetica,sans-Serif" font-size="10.00" fill="#000000">gko::solver::Bicg&lt;</text>
<text text-anchor="middle" x="1540" y="-66" font-family="Helvetica,sans-Serif" font-size="10.00" fill="#000000"> ValueType &gt;::parameters_type</text>
</a>
</g>
</g>
<!-- Node2 -->
<g id="node2" class="node">
<title>Node2</title>
<g id="a_node2"><a xlink:href="structgko_1_1solver_1_1enable__preconditioned__iterative__solver__factory__parameters.html" target="_top" xlink:title=" ">
<polygon fill="#ffffff" stroke="#000000" points="1254,-48 1254,-100 1418,-100 1418,-48 1254,-48"/>
<text text-anchor="start" x="1262" y="-88" font-family="Helvetica,sans-Serif" font-size="10.00" fill="#000000">gko::solver::enable</text>
<text text-anchor="start" x="1262" y="-77" font-family="Helvetica,sans-Serif" font-size="10.00" fill="#000000">_preconditioned_iterative</text>
<text text-anchor="start" x="1262" y="-66" font-family="Helvetica,sans-Serif" font-size="10.00" fill="#000000">_solver_factory_parameters</text>
<text text-anchor="middle" x="1336" y="-55" font-family="Helvetica,sans-Serif" font-size="10.00" fill="#000000">&lt; parameters_type, Factory &gt;</text>
</a>
</g>
</g>
<!-- Node2&#45;&gt;Node1 -->
<g id="edge1" class="edge">
<title>Node2&#45;&gt;Node1</title>
<path fill="none" stroke="#191970" d="M1428.3511,-74C1437.1409,-74 1446.0271,-74 1454.7455,-74"/>
<polygon fill="#191970" stroke="#191970" points="1428.0928,-70.5001 1418.0928,-74 1428.0928,-77.5001 1428.0928,-70.5001"/>
</g>
<!-- Node3 -->
<g id="node3" class="node">
<title>Node3</title>
<g id="a_node3"><a xlink:href="structgko_1_1solver_1_1enable__iterative__solver__factory__parameters.html" target="_top" xlink:title=" ">
<polygon fill="#ffffff" stroke="#000000" points="967.5,-119 967.5,-171 1113.5,-171 1113.5,-119 967.5,-119"/>
<text text-anchor="start" x="975.5" y="-159" font-family="Helvetica,sans-Serif" font-size="10.00" fill="#000000">gko::solver::enable</text>
<text text-anchor="start" x="975.5" y="-148" font-family="Helvetica,sans-Serif" font-size="10.00" fill="#000000">_iterative_solver_factory</text>
<text text-anchor="start" x="975.5" y="-137" font-family="Helvetica,sans-Serif" font-size="10.00" fill="#000000">_parameters&lt; parameters</text>
<text text-anchor="middle" x="1040.5" y="-126" font-family="Helvetica,sans-Serif" font-size="10.00" fill="#000000">_type, Factory &gt;</text>
</a>
</g>
</g>
<!-- Node3&#45;&gt;Node2 -->
<g id="edge2" class="edge">
<title>Node3&#45;&gt;Node2</title>
<path fill="none" stroke="#191970" d="M1124.045,-126.3133C1158.7313,-118.4138 1199.3617,-108.9778 1236,-100 1241.8367,-98.5698 1247.8582,-97.0687 1253.9162,-95.5397"/>
<polygon fill="#191970" stroke="#191970" points="1122.9322,-122.9768 1113.9564,-128.6058 1124.4834,-129.8028 1122.9322,-122.9768"/>
</g>
<!-- Node4 -->
<g id="node4" class="node">
<title>Node4</title>
<g id="a_node4"><a xlink:href="classgko_1_1enable__parameters__type.html" target="_top" xlink:title=" ">
<polygon fill="#ffffff" stroke="#000000" points="519,-161.5 519,-202.5 660,-202.5 660,-161.5 519,-161.5"/>
<text text-anchor="start" x="527" y="-190.5" font-family="Helvetica,sans-Serif" font-size="10.00" fill="#000000">gko::enable_parameters</text>
<text text-anchor="start" x="527" y="-179.5" font-family="Helvetica,sans-Serif" font-size="10.00" fill="#000000">_type&lt; parameters_type,</text>
<text text-anchor="middle" x="589.5" y="-168.5" font-family="Helvetica,sans-Serif" font-size="10.00" fill="#000000"> Factory &gt;</text>
</a>
</g>
</g>
<!-- Node4&#45;&gt;Node3 -->
<g id="edge3" class="edge">
<title>Node4&#45;&gt;Node3</title>
<path fill="none" stroke="#191970" d="M670.7113,-178.1429C743.0573,-174.3235 851.7448,-167.6441 946,-158 952.9194,-157.292 960.112,-156.4664 967.3018,-155.5809"/>
<polygon fill="#191970" stroke="#191970" points="670.111,-174.6694 660.307,-178.6857 670.4758,-181.6599 670.111,-174.6694"/>
</g>
<!-- Node5 -->
<g id="node5" class="node">
<title>Node5</title>
<g id="a_node5"><a xlink:href="classgko_1_1enable__parameters__type.html" target="_top" xlink:title="The enable_parameters_type mixin is used to create a base implementation of the factory parameters st...">
<polygon fill="#ffffff" stroke="#000000" points="0,-115.5 0,-156.5 179,-156.5 179,-115.5 0,-115.5"/>
<text text-anchor="start" x="8" y="-144.5" font-family="Helvetica,sans-Serif" font-size="10.00" fill="#000000">gko::enable_parameters</text>
<text text-anchor="start" x="8" y="-133.5" font-family="Helvetica,sans-Serif" font-size="10.00" fill="#000000">_type&lt; ConcreteParametersType,</text>
<text text-anchor="middle" x="89.5" y="-122.5" font-family="Helvetica,sans-Serif" font-size="10.00" fill="#000000"> Factory &gt;</text>
</a>
</g>
</g>
<!-- Node5&#45;&gt;Node4 -->
<g id="edge4" class="edge">
<title>Node5&#45;&gt;Node4</title>
<path fill="none" stroke="#ffa500" stroke-dasharray="5,2" d="M189.2744,-147.5968C234.6244,-152.6731 288.9865,-158.4871 338,-163 399.0445,-168.6206 468.5382,-173.7761 518.9831,-177.2941"/>
<polygon fill="#ffa500" stroke="#ffa500" points="189.4741,-144.0973 179.1458,-146.4586 188.6924,-151.0535 189.4741,-144.0973"/>
<text text-anchor="start" x="208" y="-175" font-family="Helvetica,sans-Serif" font-size="10.00" fill="#000000"> &lt; parameters_type,</text>
<text text-anchor="middle" x="258.5" y="-164" font-family="Helvetica,sans-Serif" font-size="10.00" fill="#000000"> Factory &gt;</text>
</g>
<!-- Node8 -->
<g id="node8" class="node">
<title>Node8</title>
<g id="a_node8"><a xlink:href="classgko_1_1enable__parameters__type.html" target="_top" xlink:title=" ">
<polygon fill="#ffffff" stroke="#000000" points="338,-74 338,-104 501,-104 501,-74 338,-74"/>
<text text-anchor="start" x="346" y="-92" font-family="Helvetica,sans-Serif" font-size="10.00" fill="#000000">gko::enable_parameters</text>
<text text-anchor="middle" x="419.5" y="-81" font-family="Helvetica,sans-Serif" font-size="10.00" fill="#000000">_type&lt; Parameters, Factory &gt;</text>
</a>
</g>
</g>
<!-- Node5&#45;&gt;Node8 -->
<g id="edge8" class="edge">
<title>Node5&#45;&gt;Node8</title>
<path fill="none" stroke="#ffa500" stroke-dasharray="5,2" d="M189.2501,-121.7932C236.8162,-115.0186 293.0061,-107.0158 337.9696,-100.6119"/>
<polygon fill="#ffa500" stroke="#ffa500" points="188.6446,-118.344 179.2381,-123.2191 189.6317,-125.2741 188.6446,-118.344"/>
<text text-anchor="middle" x="258.5" y="-123" font-family="Helvetica,sans-Serif" font-size="10.00" fill="#000000"> &lt; Parameters, Factory &gt;</text>
</g>
<!-- Node6 -->
<g id="node6" class="node">
<title>Node6</title>
<g id="a_node6"><a xlink:href="structgko_1_1solver_1_1iterative__solver__factory__parameters.html" target="_top" xlink:title="The parameter type shared between all iterative solvers.">
<polygon fill="#ffffff" stroke="#000000" points="343,-123 343,-153 496,-153 496,-123 343,-123"/>
<text text-anchor="start" x="351" y="-141" font-family="Helvetica,sans-Serif" font-size="10.00" fill="#000000">gko::solver::iterative</text>
<text text-anchor="middle" x="419.5" y="-130" font-family="Helvetica,sans-Serif" font-size="10.00" fill="#000000">_solver_factory_parameters</text>
</a>
</g>
</g>
<!-- Node6&#45;&gt;Node3 -->
<g id="edge5" class="edge">
<title>Node6&#45;&gt;Node3</title>
<path fill="none" stroke="#191970" d="M506.4046,-138.9796C629.4347,-140.3664 852.1929,-142.8774 967.2801,-144.1747"/>
<polygon fill="#191970" stroke="#191970" points="506.3085,-135.4784 496.2696,-138.8654 506.2295,-142.4779 506.3085,-135.4784"/>
</g>
<!-- Node7 -->
<g id="node7" class="node">
<title>Node7</title>
<g id="a_node7"><a xlink:href="structgko_1_1solver_1_1enable__iterative__solver__factory__parameters.html" target="_top" xlink:title=" ">
<polygon fill="#ffffff" stroke="#000000" points="678.5,-63 678.5,-115 826.5,-115 826.5,-63 678.5,-63"/>
<text text-anchor="start" x="686.5" y="-103" font-family="Helvetica,sans-Serif" font-size="10.00" fill="#000000">gko::solver::enable</text>
<text text-anchor="start" x="686.5" y="-92" font-family="Helvetica,sans-Serif" font-size="10.00" fill="#000000">_iterative_solver_factory</text>
<text text-anchor="start" x="686.5" y="-81" font-family="Helvetica,sans-Serif" font-size="10.00" fill="#000000">_parameters&lt; Parameters,</text>
<text text-anchor="middle" x="752.5" y="-70" font-family="Helvetica,sans-Serif" font-size="10.00" fill="#000000"> Factory &gt;</text>
</a>
</g>
</g>
<!-- Node6&#45;&gt;Node7 -->
<g id="edge9" class="edge">
<title>Node6&#45;&gt;Node7</title>
<path fill="none" stroke="#191970" d="M506.4528,-125.2051C559.8482,-117.3482 627.5114,-107.3917 678.3614,-99.9093"/>
<polygon fill="#191970" stroke="#191970" points="505.699,-121.7783 496.315,-126.6969 506.7181,-128.7037 505.699,-121.7783"/>
</g>
<!-- Node7&#45;&gt;Node3 -->
<g id="edge6" class="edge">
<title>Node7&#45;&gt;Node3</title>
<path fill="none" stroke="#ffa500" stroke-dasharray="5,2" d="M837.213,-92.2557C871.3592,-94.8749 910.8995,-99.5764 946,-108 957.6501,-110.7959 969.7787,-114.717 981.3096,-118.9684"/>
<polygon fill="#ffa500" stroke="#ffa500" points="837.0251,-88.7333 826.8,-91.5079 836.5236,-95.7153 837.0251,-88.7333"/>
<text text-anchor="start" x="845" y="-122" font-family="Helvetica,sans-Serif" font-size="10.00" fill="#000000"> &lt; parameters_type,</text>
<text text-anchor="middle" x="895.5" y="-111" font-family="Helvetica,sans-Serif" font-size="10.00" fill="#000000"> Factory &gt;</text>
</g>
<!-- Node10 -->
<g id="node10" class="node">
<title>Node10</title>
<g id="a_node10"><a xlink:href="structgko_1_1solver_1_1enable__preconditioned__iterative__solver__factory__parameters.html" target="_top" xlink:title=" ">
<polygon fill="#ffffff" stroke="#000000" points="964,-48 964,-100 1117,-100 1117,-48 964,-48"/>
<text text-anchor="start" x="972" y="-88" font-family="Helvetica,sans-Serif" font-size="10.00" fill="#000000">gko::solver::enable</text>
<text text-anchor="start" x="972" y="-77" font-family="Helvetica,sans-Serif" font-size="10.00" fill="#000000">_preconditioned_iterative</text>
<text text-anchor="start" x="972" y="-66" font-family="Helvetica,sans-Serif" font-size="10.00" fill="#000000">_solver_factory_parameters</text>
<text text-anchor="middle" x="1040.5" y="-55" font-family="Helvetica,sans-Serif" font-size="10.00" fill="#000000">&lt; Parameters, Factory &gt;</text>
</a>
</g>
</g>
<!-- Node7&#45;&gt;Node10 -->
<g id="edge12" class="edge">
<title>Node7&#45;&gt;Node10</title>
<path fill="none" stroke="#191970" d="M836.7127,-84.6139C876.9043,-82.5206 924.6514,-80.0338 963.8222,-77.9936"/>
<polygon fill="#191970" stroke="#191970" points="836.4715,-81.1216 826.6672,-85.1371 836.8357,-88.1122 836.4715,-81.1216"/>
</g>
<!-- Node8&#45;&gt;Node7 -->
<g id="edge7" class="edge">
<title>Node8&#45;&gt;Node7</title>
<path fill="none" stroke="#191970" d="M511.3877,-89C563.9547,-89 629.0314,-89 678.3227,-89"/>
<polygon fill="#191970" stroke="#191970" points="511.3875,-85.5001 501.3875,-89 511.3874,-92.5001 511.3875,-85.5001"/>
</g>
<!-- Node9 -->
<g id="node9" class="node">
<title>Node9</title>
<g id="a_node9"><a xlink:href="structgko_1_1solver_1_1preconditioned__iterative__solver__factory__parameters.html" target="_top" xlink:title="The parameter type shared between all preconditioned iterative solvers, excluding the parameters avai...">
<polygon fill="#ffffff" stroke="#000000" points="678,-.5 678,-41.5 827,-41.5 827,-.5 678,-.5"/>
<text text-anchor="start" x="686" y="-29.5" font-family="Helvetica,sans-Serif" font-size="10.00" fill="#000000">gko::solver::preconditioned</text>
<text text-anchor="start" x="686" y="-18.5" font-family="Helvetica,sans-Serif" font-size="10.00" fill="#000000">_iterative_solver_factory</text>
<text text-anchor="middle" x="752.5" y="-7.5" font-family="Helvetica,sans-Serif" font-size="10.00" fill="#000000">_parameters</text>
</a>
</g>
</g>
<!-- Node9&#45;&gt;Node2 -->
<g id="edge10" class="edge">
<title>Node9&#45;&gt;Node2</title>
<path fill="none" stroke="#191970" d="M837.2362,-22.1644C911.2458,-23.8459 1021.4762,-27.9556 1117,-38 1162.5048,-42.7849 1212.9161,-50.8769 1253.8905,-58.1783"/>
<polygon fill="#191970" stroke="#191970" points="837.1125,-18.6609 827.0388,-21.9428 836.9604,-25.6593 837.1125,-18.6609"/>
</g>
<!-- Node9&#45;&gt;Node10 -->
<g id="edge13" class="edge">
<title>Node9&#45;&gt;Node10</title>
<path fill="none" stroke="#191970" d="M837.0655,-36.5624C877.1628,-43.9414 924.7168,-52.6927 963.7616,-59.878"/>
<polygon fill="#191970" stroke="#191970" points="837.51,-33.0855 827.0417,-34.7177 836.2431,-39.9699 837.51,-33.0855"/>
</g>
<!-- Node10&#45;&gt;Node2 -->
<g id="edge11" class="edge">
<title>Node10&#45;&gt;Node2</title>
<path fill="none" stroke="#ffa500" stroke-dasharray="5,2" d="M1127.6146,-74C1167.5116,-74 1214.5455,-74 1253.8233,-74"/>
<polygon fill="#ffa500" stroke="#ffa500" points="1127.3678,-70.5001 1117.3677,-74 1127.3677,-77.5001 1127.3678,-70.5001"/>
<text text-anchor="start" x="1135" y="-88" font-family="Helvetica,sans-Serif" font-size="10.00" fill="#000000"> &lt; parameters_type,</text>
<text text-anchor="middle" x="1185.5" y="-77" font-family="Helvetica,sans-Serif" font-size="10.00" fill="#000000"> Factory &gt;</text>
</g>
</g>
</svg>
