<?xml version="1.0" encoding="UTF-8" standalone="no"?>
<!DOCTYPE svg PUBLIC "-//W3C//DTD SVG 1.1//EN"
 "http://www.w3.org/Graphics/SVG/1.1/DTD/svg11.dtd">
<!-- Generated by graphviz version 2.40.1 (20161225.0304)
 -->
<!-- Title: gko::solver::Multigrid::parameters_type Pages: 1 -->
<svg width="1503pt" height="240pt"
 viewBox="0.00 0.00 1503.00 240.00" xmlns="http://www.w3.org/2000/svg" xmlns:xlink="http://www.w3.org/1999/xlink">
<g id="graph0" class="graph" transform="scale(1 1) rotate(0) translate(4 236)">
<title>gko::solver::Multigrid::parameters_type</title>
<polygon fill="#ffffff" stroke="transparent" points="-4,4 -4,-236 1499,-236 1499,4 -4,4"/>
<!-- Node1 -->
<g id="node1" class="node">
<title>Node1</title>
<g id="a_node1"><a xlink:title=" ">
<polygon fill="#bfbfbf" stroke="#000000" points="1376,-41 1376,-71 1495,-71 1495,-41 1376,-41"/>
<text text-anchor="start" x="1384" y="-59" font-family="Helvetica,sans-Serif" font-size="10.00" fill="#000000">gko::solver::Multigrid</text>
<text text-anchor="middle" x="1435.5" y="-48" font-family="Helvetica,sans-Serif" font-size="10.00" fill="#000000">::parameters_type</text>
</a>
</g>
</g>
<!-- Node2 -->
<g id="node2" class="node">
<title>Node2</title>
<g id="a_node2"><a xlink:href="structgko_1_1solver_1_1enable__iterative__solver__factory__parameters.html" target="_top" xlink:title=" ">
<polygon fill="#ffffff" stroke="#000000" points="1114,-131 1114,-183 1260,-183 1260,-131 1114,-131"/>
<text text-anchor="start" x="1122" y="-171" font-family="Helvetica,sans-Serif" font-size="10.00" fill="#000000">gko::solver::enable</text>
<text text-anchor="start" x="1122" y="-160" font-family="Helvetica,sans-Serif" font-size="10.00" fill="#000000">_iterative_solver_factory</text>
<text text-anchor="start" x="1122" y="-149" font-family="Helvetica,sans-Serif" font-size="10.00" fill="#000000">_parameters&lt; parameters</text>
<text text-anchor="middle" x="1187" y="-138" font-family="Helvetica,sans-Serif" font-size="10.00" fill="#000000">_type, Factory &gt;</text>
</a>
</g>
</g>
<!-- Node2&#45;&gt;Node1 -->
<g id="edge1" class="edge">
<title>Node2&#45;&gt;Node1</title>
<path fill="none" stroke="#191970" d="M1260.4933,-127.1295C1305.8316,-108.7023 1362.0581,-85.8496 1398.3453,-71.1011"/>
<polygon fill="#191970" stroke="#191970" points="1258.9411,-123.9822 1250.9949,-130.99 1261.5769,-130.4671 1258.9411,-123.9822"/>
</g>
<!-- Node3 -->
<g id="node3" class="node">
<title>Node3</title>
<g id="a_node3"><a xlink:href="classgko_1_1enable__parameters__type.html" target="_top" xlink:title=" ">
<polygon fill="#ffffff" stroke="#000000" points="586,-190.5 586,-231.5 727,-231.5 727,-190.5 586,-190.5"/>
<text text-anchor="start" x="594" y="-219.5" font-family="Helvetica,sans-Serif" font-size="10.00" fill="#000000">gko::enable_parameters</text>
<text text-anchor="start" x="594" y="-208.5" font-family="Helvetica,sans-Serif" font-size="10.00" fill="#000000">_type&lt; parameters_type,</text>
<text text-anchor="middle" x="656.5" y="-197.5" font-family="Helvetica,sans-Serif" font-size="10.00" fill="#000000"> Factory &gt;</text>
</a>
</g>
</g>
<!-- Node3&#45;&gt;Node2 -->
<g id="edge2" class="edge">
<title>Node3&#45;&gt;Node2</title>
<path fill="none" stroke="#191970" d="M737.3243,-211.0263C825.9539,-209.8564 972.0717,-204.3958 1096,-183 1101.8289,-181.9937 1107.8179,-180.7562 1113.8068,-179.3725"/>
<polygon fill="#191970" stroke="#191970" points="737.0305,-207.5294 727.072,-211.1458 737.1121,-214.5289 737.0305,-207.5294"/>
</g>
<!-- Node4 -->
<g id="node4" class="node">
<title>Node4</title>
<g id="a_node4"><a xlink:href="classgko_1_1enable__parameters__type.html" target="_top" xlink:title="The enable_parameters_type mixin is used to create a base implementation of the factory parameters st...">
<polygon fill="#ffffff" stroke="#000000" points="0,-152.5 0,-193.5 179,-193.5 179,-152.5 0,-152.5"/>
<text text-anchor="start" x="8" y="-181.5" font-family="Helvetica,sans-Serif" font-size="10.00" fill="#000000">gko::enable_parameters</text>
<text text-anchor="start" x="8" y="-170.5" font-family="Helvetica,sans-Serif" font-size="10.00" fill="#000000">_type&lt; ConcreteParametersType,</text>
<text text-anchor="middle" x="89.5" y="-159.5" font-family="Helvetica,sans-Serif" font-size="10.00" fill="#000000"> Factory &gt;</text>
</a>
</g>
</g>
<!-- Node4&#45;&gt;Node3 -->
<g id="edge3" class="edge">
<title>Node4&#45;&gt;Node3</title>
<path fill="none" stroke="#ffa500" stroke-dasharray="5,2" d="M189.2983,-184.3286C191.8913,-184.5623 194.462,-184.7867 197,-185 334.5457,-196.5597 495.697,-204.3577 585.9625,-208.207"/>
<polygon fill="#ffa500" stroke="#ffa500" points="189.4917,-180.8315 179.2092,-183.3849 188.8397,-187.8011 189.4917,-180.8315"/>
<text text-anchor="start" x="224" y="-210" font-family="Helvetica,sans-Serif" font-size="10.00" fill="#000000"> &lt; parameters_type,</text>
<text text-anchor="middle" x="274.5" y="-199" font-family="Helvetica,sans-Serif" font-size="10.00" fill="#000000"> Factory &gt;</text>
</g>
<!-- Node8 -->
<g id="node8" class="node">
<title>Node8</title>
<g id="a_node8"><a xlink:href="classgko_1_1enable__parameters__type.html" target="_top" xlink:title=" ">
<polygon fill="#ffffff" stroke="#000000" points="387.5,-149 387.5,-179 550.5,-179 550.5,-149 387.5,-149"/>
<text text-anchor="start" x="395.5" y="-167" font-family="Helvetica,sans-Serif" font-size="10.00" fill="#000000">gko::enable_parameters</text>
<text text-anchor="middle" x="469" y="-156" font-family="Helvetica,sans-Serif" font-size="10.00" fill="#000000">_type&lt; Parameters, Factory &gt;</text>
</a>
</g>
</g>
<!-- Node4&#45;&gt;Node8 -->
<g id="edge8" class="edge">
<title>Node4&#45;&gt;Node8</title>
<path fill="none" stroke="#ffa500" stroke-dasharray="5,2" d="M189.5884,-170.6264C251.3299,-169.1621 329.5172,-167.3079 387.4712,-165.9335"/>
<polygon fill="#ffa500" stroke="#ffa500" points="189.3504,-167.1309 179.4362,-170.8671 189.5164,-174.129 189.3504,-167.1309"/>
<text text-anchor="middle" x="274.5" y="-173" font-family="Helvetica,sans-Serif" font-size="10.00" fill="#000000"> &lt; Parameters, Factory &gt;</text>
</g>
<!-- Node5 -->
<g id="node5" class="node">
<title>Node5</title>
<g id="a_node5"><a xlink:title=" ">
<polygon fill="#ffffff" stroke="#bfbfbf" points="370,-96 370,-126 568,-126 568,-96 370,-96"/>
<text text-anchor="start" x="378" y="-114" font-family="Helvetica,sans-Serif" font-size="10.00" fill="#000000">std::vector&lt; std::shared</text>
<text text-anchor="middle" x="469" y="-103" font-family="Helvetica,sans-Serif" font-size="10.00" fill="#000000">_ptr&lt; const gko::AbstractFactory &gt; &gt;</text>
</a>
</g>
</g>
<!-- Node5&#45;&gt;Node2 -->
<g id="edge4" class="edge">
<title>Node5&#45;&gt;Node2</title>
<path fill="none" stroke="#9a32cd" stroke-dasharray="5,2" d="M578.1282,-106.3585C663.8692,-103.8319 786.2259,-102.6974 893,-111 968.8443,-116.8975 1054.7078,-131.2297 1113.9715,-142.3421"/>
<polygon fill="#9a32cd" stroke="#9a32cd" points="578.0074,-102.8604 568.1191,-106.6646 578.2215,-109.8572 578.0074,-102.8604"/>
<text text-anchor="middle" x="819" y="-114" font-family="Helvetica,sans-Serif" font-size="10.00" fill="#000000"> criteria</text>
</g>
<!-- Node7 -->
<g id="node7" class="node">
<title>Node7</title>
<g id="a_node7"><a xlink:href="structgko_1_1solver_1_1enable__iterative__solver__factory__parameters.html" target="_top" xlink:title=" ">
<polygon fill="#ffffff" stroke="#000000" points="745,-131 745,-183 893,-183 893,-131 745,-131"/>
<text text-anchor="start" x="753" y="-171" font-family="Helvetica,sans-Serif" font-size="10.00" fill="#000000">gko::solver::enable</text>
<text text-anchor="start" x="753" y="-160" font-family="Helvetica,sans-Serif" font-size="10.00" fill="#000000">_iterative_solver_factory</text>
<text text-anchor="start" x="753" y="-149" font-family="Helvetica,sans-Serif" font-size="10.00" fill="#000000">_parameters&lt; Parameters,</text>
<text text-anchor="middle" x="819" y="-138" font-family="Helvetica,sans-Serif" font-size="10.00" fill="#000000"> Factory &gt;</text>
</a>
</g>
</g>
<!-- Node5&#45;&gt;Node7 -->
<g id="edge9" class="edge">
<title>Node5&#45;&gt;Node7</title>
<path fill="none" stroke="#9a32cd" stroke-dasharray="5,2" d="M578.0073,-123.8439C624.0258,-129.4415 678.1603,-136.2564 727,-143 732.7615,-143.7955 738.722,-144.6442 744.7114,-145.5153"/>
<polygon fill="#9a32cd" stroke="#9a32cd" points="578.3626,-120.3615 568.0139,-122.6319 577.5197,-127.3105 578.3626,-120.3615"/>
<text text-anchor="middle" x="656.5" y="-146" font-family="Helvetica,sans-Serif" font-size="10.00" fill="#000000"> criteria</text>
</g>
<!-- Node6 -->
<g id="node6" class="node">
<title>Node6</title>
<g id="a_node6"><a xlink:title="STL class.">
<polygon fill="#ffffff" stroke="#bfbfbf" points="41,-86.5 41,-105.5 138,-105.5 138,-86.5 41,-86.5"/>
<text text-anchor="middle" x="89.5" y="-93.5" font-family="Helvetica,sans-Serif" font-size="10.00" fill="#000000">std::vector&lt; T &gt;</text>
</a>
</g>
</g>
<!-- Node6&#45;&gt;Node5 -->
<g id="edge5" class="edge">
<title>Node6&#45;&gt;Node5</title>
<path fill="none" stroke="#ffa500" stroke-dasharray="5,2" d="M148.6138,-98.3365C207.7109,-100.6724 299.6605,-104.3067 369.9239,-107.0839"/>
<polygon fill="#ffa500" stroke="#ffa500" points="148.4665,-94.8281 138.3361,-97.9303 148.19,-101.8226 148.4665,-94.8281"/>
<text text-anchor="start" x="197" y="-120" font-family="Helvetica,sans-Serif" font-size="10.00" fill="#000000"> &lt; std::shared_ptr&lt;</text>
<text text-anchor="middle" x="274.5" y="-109" font-family="Helvetica,sans-Serif" font-size="10.00" fill="#000000"> const gko::AbstractFactory &gt; &gt;</text>
</g>
<!-- Node9 -->
<g id="node9" class="node">
<title>Node9</title>
<g id="a_node9"><a xlink:title=" ">
<polygon fill="#ffffff" stroke="#bfbfbf" points="911,-40 911,-70 1096,-70 1096,-40 911,-40"/>
<text text-anchor="start" x="919" y="-58" font-family="Helvetica,sans-Serif" font-size="10.00" fill="#000000">std::vector&lt; std::shared</text>
<text text-anchor="middle" x="1003.5" y="-47" font-family="Helvetica,sans-Serif" font-size="10.00" fill="#000000">_ptr&lt; const gko::LinOpFactory &gt; &gt;</text>
</a>
</g>
</g>
<!-- Node6&#45;&gt;Node9 -->
<g id="edge11" class="edge">
<title>Node6&#45;&gt;Node9</title>
<path fill="none" stroke="#ffa500" stroke-dasharray="5,2" d="M148.2273,-87.8783C204.8829,-80.4298 293.126,-69.8439 370,-65 561.9754,-52.9036 787.284,-52.6671 910.8035,-53.732"/>
<polygon fill="#ffa500" stroke="#ffa500" points="147.4792,-84.4467 138.0259,-89.2304 148.3991,-91.386 147.4792,-84.4467"/>
<text text-anchor="start" x="398" y="-79" font-family="Helvetica,sans-Serif" font-size="10.00" fill="#000000"> &lt; std::shared_ptr&lt;</text>
<text text-anchor="middle" x="469" y="-68" font-family="Helvetica,sans-Serif" font-size="10.00" fill="#000000"> const gko::LinOpFactory &gt; &gt;</text>
</g>
<!-- Node7&#45;&gt;Node2 -->
<g id="edge6" class="edge">
<title>Node7&#45;&gt;Node2</title>
<path fill="none" stroke="#ffa500" stroke-dasharray="5,2" d="M903.4155,-157C966.9256,-157 1053.0891,-157 1113.7191,-157"/>
<polygon fill="#ffa500" stroke="#ffa500" points="903.0276,-153.5001 893.0276,-157 903.0276,-160.5001 903.0276,-153.5001"/>
<text text-anchor="start" x="953" y="-171" font-family="Helvetica,sans-Serif" font-size="10.00" fill="#000000"> &lt; parameters_type,</text>
<text text-anchor="middle" x="1003.5" y="-160" font-family="Helvetica,sans-Serif" font-size="10.00" fill="#000000"> Factory &gt;</text>
</g>
<!-- Node8&#45;&gt;Node7 -->
<g id="edge7" class="edge">
<title>Node8&#45;&gt;Node7</title>
<path fill="none" stroke="#191970" d="M560.7719,-162.1646C618.12,-161.0176 691.0127,-159.5597 744.7184,-158.4856"/>
<polygon fill="#191970" stroke="#191970" points="560.5457,-158.6683 550.6177,-162.3676 560.6858,-165.6669 560.5457,-158.6683"/>
</g>
<!-- Node9&#45;&gt;Node1 -->
<g id="edge10" class="edge">
<title>Node9&#45;&gt;Node1</title>
<path fill="none" stroke="#9a32cd" stroke-dasharray="5,2" d="M1106.2653,-55.2379C1190.3477,-55.4325 1306.3466,-55.701 1375.8407,-55.8619"/>
<polygon fill="#9a32cd" stroke="#9a32cd" points="1106.1829,-51.7378 1096.1748,-55.2145 1106.1667,-58.7378 1106.1829,-51.7378"/>
<text text-anchor="middle" x="1187" y="-102" font-family="Helvetica,sans-Serif" font-size="10.00" fill="#000000"> pre_smoother</text>
<text text-anchor="middle" x="1187" y="-91" font-family="Helvetica,sans-Serif" font-size="10.00" fill="#000000">post_smoother</text>
<text text-anchor="middle" x="1187" y="-80" font-family="Helvetica,sans-Serif" font-size="10.00" fill="#000000">mid_smoother</text>
<text text-anchor="middle" x="1187" y="-69" font-family="Helvetica,sans-Serif" font-size="10.00" fill="#000000">mg_level</text>
<text text-anchor="middle" x="1187" y="-58" font-family="Helvetica,sans-Serif" font-size="10.00" fill="#000000">coarsest_solver</text>
</g>
<!-- Node10 -->
<g id="node10" class="node">
<title>Node10</title>
<g id="a_node10"><a xlink:title=" ">
<polygon fill="#ffffff" stroke="#bfbfbf" points="1119.5,-.5 1119.5,-19.5 1254.5,-19.5 1254.5,-.5 1119.5,-.5"/>
<text text-anchor="middle" x="1187" y="-7.5" font-family="Helvetica,sans-Serif" font-size="10.00" fill="#000000">std::complex&lt; double &gt;</text>
</a>
</g>
</g>
<!-- Node10&#45;&gt;Node1 -->
<g id="edge12" class="edge">
<title>Node10&#45;&gt;Node1</title>
<path fill="none" stroke="#9a32cd" stroke-dasharray="5,2" d="M1265.1026,-16.4377C1294.442,-19.6795 1327.9531,-24.3718 1358,-31 1369.7348,-33.5887 1382.2209,-37.2144 1393.6658,-40.9032"/>
<polygon fill="#9a32cd" stroke="#9a32cd" points="1265.2263,-12.9311 1254.9114,-15.3507 1264.4838,-19.8916 1265.2263,-12.9311"/>
<text text-anchor="middle" x="1318" y="-34" font-family="Helvetica,sans-Serif" font-size="10.00" fill="#000000"> smoother_relax</text>
</g>
<!-- Node11 -->
<g id="node11" class="node">
<title>Node11</title>
<g id="a_node11"><a xlink:title="STL class.">
<polygon fill="#ffffff" stroke="#bfbfbf" points="779,-.5 779,-19.5 859,-19.5 859,-.5 779,-.5"/>
<text text-anchor="middle" x="819" y="-7.5" font-family="Helvetica,sans-Serif" font-size="10.00" fill="#000000">std::complex</text>
</a>
</g>
</g>
<!-- Node11&#45;&gt;Node10 -->
<g id="edge13" class="edge">
<title>Node11&#45;&gt;Node10</title>
<path fill="none" stroke="#ffa500" stroke-dasharray="5,2" d="M869.4465,-10C934.2591,-10 1046.9967,-10 1119.2427,-10"/>
<polygon fill="#ffa500" stroke="#ffa500" points="869.083,-6.5001 859.083,-10 869.083,-13.5001 869.083,-6.5001"/>
<text text-anchor="middle" x="1003.5" y="-13" font-family="Helvetica,sans-Serif" font-size="10.00" fill="#000000"> &lt; double &gt;</text>
</g>
</g>
</svg>
