<?xml version="1.0" encoding="UTF-8" standalone="no"?>
<!DOCTYPE svg PUBLIC "-//W3C//DTD SVG 1.1//EN"
 "http://www.w3.org/Graphics/SVG/1.1/DTD/svg11.dtd">
<!-- Generated by graphviz version 2.40.1 (20161225.0304)
 -->
<!-- Title: gko::solver::iterative_solver_factory_parameters Pages: 1 -->
<!--zoomable 431 -->
<svg id="main" version="1.1" xmlns="http://www.w3.org/2000/svg" xmlns:xlink="http://www.w3.org/1999/xlink" xml:space="preserve" onload="init(evt)">
<style type="text/css"><![CDATA[
.edge:hover path { stroke: red; }
.edge:hover polygon { stroke: red; fill: red; }
]]></style>
<script type="text/javascript"><![CDATA[
var edges = document.getElementsByTagName('g');
if (edges && edges.length) {
  for (var i=0;i<edges.length;i++) {
    if (edges[i].id.substr(0,4)=='edge') {
      edges[i].setAttribute('class','edge');
    }
  }
}
]]></script>
        <defs>
                <circle id="rim" cx="0" cy="0" r="7"/>
                <circle id="rim2" cx="0" cy="0" r="3.5"/>
                <g id="zoomPlus">
                        <use xlink:href="#rim" fill="#404040">
                                <set attributeName="fill" to="#808080" begin="zoomplus.mouseover" end="zoomplus.mouseout"/>
                        </use>
                        <path d="M-4,0h8M0,-4v8" fill="none" stroke="white" stroke-width="1.5" pointer-events="none"/>
                </g>
                <g id="zoomMin">
                        <use xlink:href="#rim" fill="#404040">
                                <set attributeName="fill" to="#808080" begin="zoomminus.mouseover" end="zoomminus.mouseout"/>
                        </use>
                        <path d="M-4,0h8" fill="none" stroke="white" stroke-width="1.5" pointer-events="none"/>
                </g>
                <g id="dirArrow">
                        <path fill="none" stroke="white" stroke-width="1.5" d="M0,-3.0v7 M-2.5,-0.5L0,-3.0L2.5,-0.5"/>
                </g>
               <g id="resetDef">
                       <use xlink:href="#rim2" fill="#404040">
                               <set attributeName="fill" to="#808080" begin="reset.mouseover" end="reset.mouseout"/>
                       </use>
               </g>
        </defs>

<script type="text/javascript">
var viewWidth = 1152;
var viewHeight = 431;
var sectionId = 'dynsection-0';
</script>
<script xlink:href="svgpan.js"/>
<svg id="graph" class="graph">
<g id="viewport">
<title>gko::solver::iterative_solver_factory_parameters</title>
<polygon fill="#ffffff" stroke="transparent" points="-4,4 -4,-427 1148,-427 1148,4 -4,4"/>
<!-- Node1 -->
<g id="node1" class="node">
<title>Node1</title>
<g id="a_node1"><a xlink:title="The parameter type shared between all iterative solvers.">
<polygon fill="#bfbfbf" stroke="#000000" points="0,-231.5 0,-261.5 153,-261.5 153,-231.5 0,-231.5"/>
<text text-anchor="start" x="8" y="-249.5" font-family="Helvetica,sans-Serif" font-size="10.00" fill="#000000">gko::solver::iterative</text>
<text text-anchor="middle" x="76.5" y="-238.5" font-family="Helvetica,sans-Serif" font-size="10.00" fill="#000000">_solver_factory_parameters</text>
</a>
</g>
</g>
<!-- Node2 -->
<g id="node2" class="node">
<title>Node2</title>
<g id="a_node2"><a xlink:href="structgko_1_1solver_1_1enable__iterative__solver__factory__parameters.html" target="_top" xlink:title=" ">
<polygon fill="#ffffff" stroke="#000000" points="478.5,-248.5 478.5,-300.5 624.5,-300.5 624.5,-248.5 478.5,-248.5"/>
<text text-anchor="start" x="486.5" y="-288.5" font-family="Helvetica,sans-Serif" font-size="10.00" fill="#000000">gko::solver::enable</text>
<text text-anchor="start" x="486.5" y="-277.5" font-family="Helvetica,sans-Serif" font-size="10.00" fill="#000000">_iterative_solver_factory</text>
<text text-anchor="start" x="486.5" y="-266.5" font-family="Helvetica,sans-Serif" font-size="10.00" fill="#000000">_parameters&lt; parameters</text>
<text text-anchor="middle" x="551.5" y="-255.5" font-family="Helvetica,sans-Serif" font-size="10.00" fill="#000000">_type, Factory &gt;</text>
</a>
</g>
</g>
<!-- Node1&#45;&gt;Node2 -->
<g id="edge1" class="edge">
<title>Node1&#45;&gt;Node2</title>
<path fill="none" stroke="#191970" d="M163.2736,-252.7515C172.2976,-253.3611 181.334,-253.9549 190,-254.5 289.9014,-260.7839 405.4016,-266.9892 478.4345,-270.782"/>
<polygon fill="#191970" stroke="#191970" points="163.3259,-249.247 153.1109,-252.0581 162.8494,-256.2308 163.3259,-249.247"/>
</g>
<!-- Node15 -->
<g id="node15" class="node">
<title>Node15</title>
<g id="a_node15"><a xlink:href="structgko_1_1solver_1_1enable__iterative__solver__factory__parameters.html" target="_top" xlink:title=" ">
<polygon fill="#ffffff" stroke="#000000" points="190,-193.5 190,-245.5 338,-245.5 338,-193.5 190,-193.5"/>
<text text-anchor="start" x="198" y="-233.5" font-family="Helvetica,sans-Serif" font-size="10.00" fill="#000000">gko::solver::enable</text>
<text text-anchor="start" x="198" y="-222.5" font-family="Helvetica,sans-Serif" font-size="10.00" fill="#000000">_iterative_solver_factory</text>
<text text-anchor="start" x="198" y="-211.5" font-family="Helvetica,sans-Serif" font-size="10.00" fill="#000000">_parameters&lt; Parameters,</text>
<text text-anchor="middle" x="264" y="-200.5" font-family="Helvetica,sans-Serif" font-size="10.00" fill="#000000"> Factory &gt;</text>
</a>
</g>
</g>
<!-- Node1&#45;&gt;Node15 -->
<g id="edge14" class="edge">
<title>Node1&#45;&gt;Node15</title>
<path fill="none" stroke="#191970" d="M163.0739,-234.0334C172.015,-232.7458 181.0436,-231.4457 189.8319,-230.1802"/>
<polygon fill="#191970" stroke="#191970" points="162.4329,-230.5895 153.0339,-235.4791 163.4307,-237.518 162.4329,-230.5895"/>
</g>
<!-- Node3 -->
<g id="node3" class="node">
<title>Node3</title>
<g id="a_node3"><a xlink:href="structgko_1_1solver_1_1enable__preconditioned__iterative__solver__factory__parameters.html" target="_top" xlink:title=" ">
<polygon fill="#ffffff" stroke="#000000" points="765,-185.5 765,-237.5 929,-237.5 929,-185.5 765,-185.5"/>
<text text-anchor="start" x="773" y="-225.5" font-family="Helvetica,sans-Serif" font-size="10.00" fill="#000000">gko::solver::enable</text>
<text text-anchor="start" x="773" y="-214.5" font-family="Helvetica,sans-Serif" font-size="10.00" fill="#000000">_preconditioned_iterative</text>
<text text-anchor="start" x="773" y="-203.5" font-family="Helvetica,sans-Serif" font-size="10.00" fill="#000000">_solver_factory_parameters</text>
<text text-anchor="middle" x="847" y="-192.5" font-family="Helvetica,sans-Serif" font-size="10.00" fill="#000000">&lt; parameters_type, Factory &gt;</text>
</a>
</g>
</g>
<!-- Node2&#45;&gt;Node3 -->
<g id="edge2" class="edge">
<title>Node2&#45;&gt;Node3</title>
<path fill="none" stroke="#191970" d="M634.4559,-256.814C675.2377,-248.1194 724.2322,-237.6738 764.8984,-229.0039"/>
<polygon fill="#191970" stroke="#191970" points="633.5953,-253.4187 624.545,-258.927 635.055,-260.2648 633.5953,-253.4187"/>
</g>
<!-- Node13 -->
<g id="node13" class="node">
<title>Node13</title>
<g id="a_node13"><a xlink:href="structgko_1_1solver_1_1Ir_1_1parameters__type.html" target="_top" xlink:title=" ">
<polygon fill="#ffffff" stroke="#000000" points="775,-306.5 775,-336.5 919,-336.5 919,-306.5 775,-306.5"/>
<text text-anchor="start" x="783" y="-324.5" font-family="Helvetica,sans-Serif" font-size="10.00" fill="#000000">gko::solver::Ir&lt; ValueType</text>
<text text-anchor="middle" x="847" y="-313.5" font-family="Helvetica,sans-Serif" font-size="10.00" fill="#000000"> &gt;::parameters_type</text>
</a>
</g>
</g>
<!-- Node2&#45;&gt;Node13 -->
<g id="edge12" class="edge">
<title>Node2&#45;&gt;Node13</title>
<path fill="none" stroke="#191970" d="M634.6689,-287.7282C678.779,-294.744 732.45,-303.2805 774.7953,-310.0157"/>
<polygon fill="#191970" stroke="#191970" points="634.9706,-284.2323 624.545,-286.118 633.871,-291.1454 634.9706,-284.2323"/>
</g>
<!-- Node14 -->
<g id="node14" class="node">
<title>Node14</title>
<g id="a_node14"><a xlink:href="structgko_1_1solver_1_1Multigrid_1_1parameters__type.html" target="_top" xlink:title=" ">
<polygon fill="#ffffff" stroke="#000000" points="787.5,-257.5 787.5,-287.5 906.5,-287.5 906.5,-257.5 787.5,-257.5"/>
<text text-anchor="start" x="795.5" y="-275.5" font-family="Helvetica,sans-Serif" font-size="10.00" fill="#000000">gko::solver::Multigrid</text>
<text text-anchor="middle" x="847" y="-264.5" font-family="Helvetica,sans-Serif" font-size="10.00" fill="#000000">::parameters_type</text>
</a>
</g>
</g>
<!-- Node2&#45;&gt;Node14 -->
<g id="edge13" class="edge">
<title>Node2&#45;&gt;Node14</title>
<path fill="none" stroke="#191970" d="M634.7167,-273.9368C683.2537,-273.6083 743.3544,-273.2015 787.2039,-272.9047"/>
<polygon fill="#191970" stroke="#191970" points="634.521,-270.4379 624.545,-274.0056 634.5685,-277.4378 634.521,-270.4379"/>
</g>
<!-- Node4 -->
<g id="node4" class="node">
<title>Node4</title>
<g id="a_node4"><a xlink:href="structgko_1_1solver_1_1Bicg_1_1parameters__type.html" target="_top" xlink:title=" ">
<polygon fill="#ffffff" stroke="#000000" points="970,-392.5 970,-422.5 1140,-422.5 1140,-392.5 970,-392.5"/>
<text text-anchor="start" x="978" y="-410.5" font-family="Helvetica,sans-Serif" font-size="10.00" fill="#000000">gko::solver::Bicg&lt;</text>
<text text-anchor="middle" x="1055" y="-399.5" font-family="Helvetica,sans-Serif" font-size="10.00" fill="#000000"> ValueType &gt;::parameters_type</text>
</a>
</g>
</g>
<!-- Node3&#45;&gt;Node4 -->
<g id="edge3" class="edge">
<title>Node3&#45;&gt;Node4</title>
<path fill="none" stroke="#191970" d="M925.9256,-244.1807C926.9903,-245.253 928.0167,-246.3591 929,-247.5 969.8968,-294.949 921.6564,-339.2553 966,-383.5 969.3986,-386.891 973.2229,-389.8169 977.3264,-392.34"/>
<polygon fill="#191970" stroke="#191970" points="928.2208,-241.5383 918.3917,-237.5836 923.6093,-246.8047 928.2208,-241.5383"/>
</g>
<!-- Node5 -->
<g id="node5" class="node">
<title>Node5</title>
<g id="a_node5"><a xlink:href="structgko_1_1solver_1_1Bicgstab_1_1parameters__type.html" target="_top" xlink:title=" ">
<polygon fill="#ffffff" stroke="#000000" points="966,-343.5 966,-373.5 1144,-373.5 1144,-343.5 966,-343.5"/>
<text text-anchor="start" x="974" y="-361.5" font-family="Helvetica,sans-Serif" font-size="10.00" fill="#000000">gko::solver::Bicgstab</text>
<text text-anchor="middle" x="1055" y="-350.5" font-family="Helvetica,sans-Serif" font-size="10.00" fill="#000000">&lt; ValueType &gt;::parameters_type</text>
</a>
</g>
</g>
<!-- Node3&#45;&gt;Node5 -->
<g id="edge4" class="edge">
<title>Node3&#45;&gt;Node5</title>
<path fill="none" stroke="#191970" d="M925.134,-243.8574C926.4691,-245.0319 927.7601,-246.2457 929,-247.5 958.5389,-277.3828 934.301,-306.9191 966,-334.5 969.9841,-337.9665 974.42,-340.9381 979.1249,-343.4848"/>
<polygon fill="#191970" stroke="#191970" points="927.0902,-240.9444 917.0527,-237.5532 922.7846,-246.4637 927.0902,-240.9444"/>
</g>
<!-- Node6 -->
<g id="node6" class="node">
<title>Node6</title>
<g id="a_node6"><a xlink:href="structgko_1_1solver_1_1CbGmres_1_1parameters__type.html" target="_top" xlink:title=" ">
<polygon fill="#ffffff" stroke="#000000" points="966,-294.5 966,-324.5 1144,-324.5 1144,-294.5 966,-294.5"/>
<text text-anchor="start" x="974" y="-312.5" font-family="Helvetica,sans-Serif" font-size="10.00" fill="#000000">gko::solver::CbGmres</text>
<text text-anchor="middle" x="1055" y="-301.5" font-family="Helvetica,sans-Serif" font-size="10.00" fill="#000000">&lt; ValueType &gt;::parameters_type</text>
</a>
</g>
</g>
<!-- Node3&#45;&gt;Node6 -->
<g id="edge5" class="edge">
<title>Node3&#45;&gt;Node6</title>
<path fill="none" stroke="#191970" d="M921.5434,-242.7105C924.0992,-244.258 926.5932,-245.8551 929,-247.5 948.2,-260.6225 945.9301,-272.751 966,-284.5 972.5098,-288.3109 979.6292,-291.5651 986.9149,-294.3387"/>
<polygon fill="#191970" stroke="#191970" points="923.0749,-239.5548 912.654,-237.6432 919.6083,-245.6362 923.0749,-239.5548"/>
</g>
<!-- Node7 -->
<g id="node7" class="node">
<title>Node7</title>
<g id="a_node7"><a xlink:href="structgko_1_1solver_1_1Cg_1_1parameters__type.html" target="_top" xlink:title=" ">
<polygon fill="#ffffff" stroke="#000000" points="980,-245.5 980,-275.5 1130,-275.5 1130,-245.5 980,-245.5"/>
<text text-anchor="start" x="988" y="-263.5" font-family="Helvetica,sans-Serif" font-size="10.00" fill="#000000">gko::solver::Cg&lt; ValueType</text>
<text text-anchor="middle" x="1055" y="-252.5" font-family="Helvetica,sans-Serif" font-size="10.00" fill="#000000"> &gt;::parameters_type</text>
</a>
</g>
</g>
<!-- Node3&#45;&gt;Node7 -->
<g id="edge6" class="edge">
<title>Node3&#45;&gt;Node7</title>
<path fill="none" stroke="#191970" d="M939.4041,-233.2683C956.8348,-237.3745 974.7054,-241.5844 991.0245,-245.4288"/>
<polygon fill="#191970" stroke="#191970" points="939.7432,-229.7524 929.2071,-230.8661 938.1381,-236.5659 939.7432,-229.7524"/>
</g>
<!-- Node8 -->
<g id="node8" class="node">
<title>Node8</title>
<g id="a_node8"><a xlink:href="structgko_1_1solver_1_1Cgs_1_1parameters__type.html" target="_top" xlink:title=" ">
<polygon fill="#ffffff" stroke="#000000" points="977.5,-196.5 977.5,-226.5 1132.5,-226.5 1132.5,-196.5 977.5,-196.5"/>
<text text-anchor="start" x="985.5" y="-214.5" font-family="Helvetica,sans-Serif" font-size="10.00" fill="#000000">gko::solver::Cgs&lt; ValueType</text>
<text text-anchor="middle" x="1055" y="-203.5" font-family="Helvetica,sans-Serif" font-size="10.00" fill="#000000"> &gt;::parameters_type</text>
</a>
</g>
</g>
<!-- Node3&#45;&gt;Node8 -->
<g id="edge7" class="edge">
<title>Node3&#45;&gt;Node8</title>
<path fill="none" stroke="#191970" d="M939.3474,-211.5C952.073,-211.5 965.0342,-211.5 977.4561,-211.5"/>
<polygon fill="#191970" stroke="#191970" points="939.2071,-208.0001 929.2071,-211.5 939.2071,-215.0001 939.2071,-208.0001"/>
</g>
<!-- Node9 -->
<g id="node9" class="node">
<title>Node9</title>
<g id="a_node9"><a xlink:href="structgko_1_1solver_1_1Fcg_1_1parameters__type.html" target="_top" xlink:title=" ">
<polygon fill="#ffffff" stroke="#000000" points="978,-147.5 978,-177.5 1132,-177.5 1132,-147.5 978,-147.5"/>
<text text-anchor="start" x="986" y="-165.5" font-family="Helvetica,sans-Serif" font-size="10.00" fill="#000000">gko::solver::Fcg&lt; ValueType</text>
<text text-anchor="middle" x="1055" y="-154.5" font-family="Helvetica,sans-Serif" font-size="10.00" fill="#000000"> &gt;::parameters_type</text>
</a>
</g>
</g>
<!-- Node3&#45;&gt;Node9 -->
<g id="edge8" class="edge">
<title>Node3&#45;&gt;Node9</title>
<path fill="none" stroke="#191970" d="M939.4041,-189.7317C956.8348,-185.6255 974.7054,-181.4156 991.0245,-177.5712"/>
<polygon fill="#191970" stroke="#191970" points="938.1381,-186.4341 929.2071,-192.1339 939.7432,-193.2476 938.1381,-186.4341"/>
</g>
<!-- Node10 -->
<g id="node10" class="node">
<title>Node10</title>
<g id="a_node10"><a xlink:href="structgko_1_1solver_1_1Gcr_1_1parameters__type.html" target="_top" xlink:title=" ">
<polygon fill="#ffffff" stroke="#000000" points="978,-98.5 978,-128.5 1132,-128.5 1132,-98.5 978,-98.5"/>
<text text-anchor="start" x="986" y="-116.5" font-family="Helvetica,sans-Serif" font-size="10.00" fill="#000000">gko::solver::Gcr&lt; ValueType</text>
<text text-anchor="middle" x="1055" y="-105.5" font-family="Helvetica,sans-Serif" font-size="10.00" fill="#000000"> &gt;::parameters_type</text>
</a>
</g>
</g>
<!-- Node3&#45;&gt;Node10 -->
<g id="edge9" class="edge">
<title>Node3&#45;&gt;Node10</title>
<path fill="none" stroke="#191970" d="M891.0763,-179.7639C912.8059,-165.2666 939.8993,-148.8399 966,-137.5 973.6325,-134.1839 981.8364,-131.2248 990.0647,-128.6143"/>
<polygon fill="#191970" stroke="#191970" points="889.041,-176.9151 882.7213,-185.4188 892.9646,-182.7122 889.041,-176.9151"/>
</g>
<!-- Node11 -->
<g id="node11" class="node">
<title>Node11</title>
<g id="a_node11"><a xlink:href="structgko_1_1solver_1_1Gmres_1_1parameters__type.html" target="_top" xlink:title=" ">
<polygon fill="#ffffff" stroke="#000000" points="966,-49.5 966,-79.5 1144,-79.5 1144,-49.5 966,-49.5"/>
<text text-anchor="start" x="974" y="-67.5" font-family="Helvetica,sans-Serif" font-size="10.00" fill="#000000">gko::solver::Gmres</text>
<text text-anchor="middle" x="1055" y="-56.5" font-family="Helvetica,sans-Serif" font-size="10.00" fill="#000000">&lt; ValueType &gt;::parameters_type</text>
</a>
</g>
</g>
<!-- Node3&#45;&gt;Node11 -->
<g id="edge10" class="edge">
<title>Node3&#45;&gt;Node11</title>
<path fill="none" stroke="#191970" d="M871.7681,-177.079C893.5637,-149.2323 927.726,-111.0624 966,-88.5 971.7902,-85.0867 978.0761,-82.1474 984.5391,-79.6184"/>
<polygon fill="#191970" stroke="#191970" points="868.7234,-175.2974 865.4102,-185.3609 874.2759,-179.5601 868.7234,-175.2974"/>
</g>
<!-- Node12 -->
<g id="node12" class="node">
<title>Node12</title>
<g id="a_node12"><a xlink:href="structgko_1_1solver_1_1Idr_1_1parameters__type.html" target="_top" xlink:title=" ">
<polygon fill="#ffffff" stroke="#000000" points="980,-.5 980,-30.5 1130,-30.5 1130,-.5 980,-.5"/>
<text text-anchor="start" x="988" y="-18.5" font-family="Helvetica,sans-Serif" font-size="10.00" fill="#000000">gko::solver::Idr&lt; ValueType</text>
<text text-anchor="middle" x="1055" y="-7.5" font-family="Helvetica,sans-Serif" font-size="10.00" fill="#000000"> &gt;::parameters_type</text>
</a>
</g>
</g>
<!-- Node3&#45;&gt;Node12 -->
<g id="edge11" class="edge">
<title>Node3&#45;&gt;Node12</title>
<path fill="none" stroke="#191970" d="M862.3855,-175.8398C881.1646,-136.5534 916.6311,-74.3348 966,-39.5 970.8381,-36.0862 976.1368,-33.1579 981.662,-30.646"/>
<polygon fill="#191970" stroke="#191970" points="859.0268,-174.7609 857.9724,-185.3032 865.3709,-177.7194 859.0268,-174.7609"/>
</g>
<!-- Node15&#45;&gt;Node2 -->
<g id="edge17" class="edge">
<title>Node15&#45;&gt;Node2</title>
<path fill="none" stroke="#ffa500" stroke-dasharray="5,2" d="M348.4553,-222.9372C382.5076,-225.5826 421.9521,-230.2548 457,-238.5 467.9375,-241.0731 479.3125,-244.6097 490.2227,-248.4671"/>
<polygon fill="#ffa500" stroke="#ffa500" points="348.2996,-219.4166 338.0713,-222.1796 347.7901,-226.3981 348.2996,-219.4166"/>
<text text-anchor="start" x="356" y="-252.5" font-family="Helvetica,sans-Serif" font-size="10.00" fill="#000000"> &lt; parameters_type,</text>
<text text-anchor="middle" x="406.5" y="-241.5" font-family="Helvetica,sans-Serif" font-size="10.00" fill="#000000"> Factory &gt;</text>
</g>
<!-- Node16 -->
<g id="node16" class="node">
<title>Node16</title>
<g id="a_node16"><a xlink:href="structgko_1_1solver_1_1enable__preconditioned__iterative__solver__factory__parameters.html" target="_top" xlink:title=" ">
<polygon fill="#ffffff" stroke="#000000" points="475,-177.5 475,-229.5 628,-229.5 628,-177.5 475,-177.5"/>
<text text-anchor="start" x="483" y="-217.5" font-family="Helvetica,sans-Serif" font-size="10.00" fill="#000000">gko::solver::enable</text>
<text text-anchor="start" x="483" y="-206.5" font-family="Helvetica,sans-Serif" font-size="10.00" fill="#000000">_preconditioned_iterative</text>
<text text-anchor="start" x="483" y="-195.5" font-family="Helvetica,sans-Serif" font-size="10.00" fill="#000000">_solver_factory_parameters</text>
<text text-anchor="middle" x="551.5" y="-184.5" font-family="Helvetica,sans-Serif" font-size="10.00" fill="#000000">&lt; Parameters, Factory &gt;</text>
</a>
</g>
</g>
<!-- Node15&#45;&gt;Node16 -->
<g id="edge15" class="edge">
<title>Node15&#45;&gt;Node16</title>
<path fill="none" stroke="#191970" d="M348.0665,-214.8215C388.1883,-212.5886 435.8525,-209.936 474.9553,-207.7599"/>
<polygon fill="#191970" stroke="#191970" points="347.8284,-211.3293 338.0384,-215.3796 348.2175,-218.3184 347.8284,-211.3293"/>
</g>
<!-- Node16&#45;&gt;Node3 -->
<g id="edge16" class="edge">
<title>Node16&#45;&gt;Node3</title>
<path fill="none" stroke="#ffa500" stroke-dasharray="5,2" d="M638.6146,-205.8584C678.5116,-206.9386 725.5455,-208.2119 764.8233,-209.2752"/>
<polygon fill="#ffa500" stroke="#ffa500" points="638.4588,-202.353 628.3677,-205.581 638.2693,-209.3505 638.4588,-202.353"/>
<text text-anchor="start" x="646" y="-223.5" font-family="Helvetica,sans-Serif" font-size="10.00" fill="#000000"> &lt; parameters_type,</text>
<text text-anchor="middle" x="696.5" y="-212.5" font-family="Helvetica,sans-Serif" font-size="10.00" fill="#000000"> Factory &gt;</text>
</g>
</g>
</svg>
        <g id="navigator" transform="translate(0 0)" fill="#404254">
                <rect fill="#f2f5e9" fill-opacity="0.5" stroke="#606060" stroke-width=".5" x="0" y="0" width="60" height="60"/>
                <use id="zoomplus" xlink:href="#zoomPlus" x="17" y="9" onmousedown="handleZoom(evt,'in')"/>
                <use id="zoomminus" xlink:href="#zoomMin" x="42" y="9" onmousedown="handleZoom(evt,'out')"/>
                <use id="reset" xlink:href="#resetDef" x="30" y="36" onmousedown="handleReset()"/>
                <g id="arrowUp" xlink:href="#dirArrow" transform="translate(30 24)" onmousedown="handlePan(0,-1)">
                  <use xlink:href="#rim" fill="#404040">
                        <set attributeName="fill" to="#808080" begin="arrowUp.mouseover" end="arrowUp.mouseout"/>
                  </use>
                  <path fill="none" stroke="white" stroke-width="1.5" d="M0,-3.0v7 M-2.5,-0.5L0,-3.0L2.5,-0.5"/>
                </g>
                <g id="arrowRight" xlink:href="#dirArrow" transform="rotate(90) translate(36 -43)" onmousedown="handlePan(1,0)">
                  <use xlink:href="#rim" fill="#404040">
                        <set attributeName="fill" to="#808080" begin="arrowRight.mouseover" end="arrowRight.mouseout"/>
                  </use>
                  <path fill="none" stroke="white" stroke-width="1.5" d="M0,-3.0v7 M-2.5,-0.5L0,-3.0L2.5,-0.5"/>
                </g>
                <g id="arrowDown" xlink:href="#dirArrow" transform="rotate(180) translate(-30 -48)" onmousedown="handlePan(0,1)">
                  <use xlink:href="#rim" fill="#404040">
                        <set attributeName="fill" to="#808080" begin="arrowDown.mouseover" end="arrowDown.mouseout"/>
                  </use>
                  <path fill="none" stroke="white" stroke-width="1.5" d="M0,-3.0v7 M-2.5,-0.5L0,-3.0L2.5,-0.5"/>
                </g>
                <g id="arrowLeft" xlink:href="#dirArrow" transform="rotate(270) translate(-36 17)" onmousedown="handlePan(-1,0)">
                  <use xlink:href="#rim" fill="#404040">
                        <set attributeName="fill" to="#808080" begin="arrowLeft.mouseover" end="arrowLeft.mouseout"/>
                  </use>
                  <path fill="none" stroke="white" stroke-width="1.5" d="M0,-3.0v7 M-2.5,-0.5L0,-3.0L2.5,-0.5"/>
                </g>
        </g>
        <svg viewBox="0 0 15 15" width="100%" height="30px" preserveAspectRatio="xMaxYMin meet">
         <g id="arrow_out" transform="scale(0.3 0.3)">
          <a xlink:href="structgko_1_1solver_1_1iterative__solver__factory__parameters__inherit__graph_org.svg" target="_base">
           <rect id="button" ry="5" rx="5" y="6" x="6" height="38" width="38"
                fill="#f2f5e9" fill-opacity="0.5" stroke="#606060" stroke-width="1.0"/>
           <path id="arrow"
             d="M 11.500037,31.436501 C 11.940474,20.09759 22.043105,11.32322 32.158766,21.979434 L 37.068811,17.246167 C 37.068811,17.246167 37.088388,32 37.088388,32 L 22.160133,31.978069 C 22.160133,31.978069 26.997745,27.140456 26.997745,27.140456 C 18.528582,18.264221 13.291696,25.230495 11.500037,31.436501 z"
             style="fill:#404040;"/>
          </a>
         </g>
        </svg>
</svg>
