<?xml version="1.0" encoding="UTF-8" standalone="no"?>
<!DOCTYPE svg PUBLIC "-//W3C//DTD SVG 1.1//EN"
 "http://www.w3.org/Graphics/SVG/1.1/DTD/svg11.dtd">
<!-- Generated by graphviz version 2.40.1 (20161225.0304)
 -->
<!-- Title: gko::device_matrix_data&lt; ValueType, IndexType &gt; Pages: 1 -->
<svg width="339pt" height="206pt"
 viewBox="0.00 0.00 339.00 206.00" xmlns="http://www.w3.org/2000/svg" xmlns:xlink="http://www.w3.org/1999/xlink">
<g id="graph0" class="graph" transform="scale(1 1) rotate(0) translate(4 202)">
<title>gko::device_matrix_data&lt; ValueType, IndexType &gt;</title>
<polygon fill="#ffffff" stroke="transparent" points="-4,4 -4,-202 335,-202 335,4 -4,4"/>
<!-- Node1 -->
<g id="node1" class="node">
<title>Node1</title>
<g id="a_node1"><a xlink:title="This type is a device&#45;side equivalent to matrix_data.">
<polygon fill="#bfbfbf" stroke="#000000" points="61.5,-.5 61.5,-30.5 232.5,-30.5 232.5,-.5 61.5,-.5"/>
<text text-anchor="start" x="69.5" y="-18.5" font-family="Helvetica,sans-Serif" font-size="10.00" fill="#000000">gko::device_matrix</text>
<text text-anchor="middle" x="147" y="-7.5" font-family="Helvetica,sans-Serif" font-size="10.00" fill="#000000">_data&lt; ValueType, IndexType &gt;</text>
</a>
</g>
</g>
<!-- Node2 -->
<g id="node2" class="node">
<title>Node2</title>
<g id="a_node2"><a xlink:href="structgko_1_1dim.html" target="_top" xlink:title=" ">
<polygon fill="#ffffff" stroke="#000000" points="39,-84 39,-103 127,-103 127,-84 39,-84"/>
<text text-anchor="middle" x="83" y="-91" font-family="Helvetica,sans-Serif" font-size="10.00" fill="#000000">gko::dim&lt; 2 &gt;</text>
</a>
</g>
</g>
<!-- Node2&#45;&gt;Node1 -->
<g id="edge1" class="edge">
<title>Node2&#45;&gt;Node1</title>
<path fill="none" stroke="#9a32cd" stroke-dasharray="5,2" d="M97.4849,-75.8466C108.6198,-62.2759 123.844,-43.7214 134.4606,-30.7824"/>
<polygon fill="#9a32cd" stroke="#9a32cd" points="94.4851,-73.9848 90.8477,-83.9357 99.8966,-78.425 94.4851,-73.9848"/>
<text text-anchor="middle" x="130.5" y="-52" font-family="Helvetica,sans-Serif" font-size="10.00" fill="#000000"> size</text>
</g>
<!-- Node3 -->
<g id="node3" class="node">
<title>Node3</title>
<g id="a_node3"><a xlink:href="structgko_1_1dim.html" target="_top" xlink:title="A type representing the dimensions of a multidimensional object.">
<polygon fill="#ffffff" stroke="#000000" points="0,-167.5 0,-197.5 148,-197.5 148,-167.5 0,-167.5"/>
<text text-anchor="start" x="8" y="-185.5" font-family="Helvetica,sans-Serif" font-size="10.00" fill="#000000">gko::dim&lt; Dimensionality,</text>
<text text-anchor="middle" x="74" y="-174.5" font-family="Helvetica,sans-Serif" font-size="10.00" fill="#000000"> DimensionType &gt;</text>
</a>
</g>
</g>
<!-- Node3&#45;&gt;Node2 -->
<g id="edge2" class="edge">
<title>Node3&#45;&gt;Node2</title>
<path fill="none" stroke="#ffa500" stroke-dasharray="5,2" d="M76.5462,-157.321C78.3562,-139.4221 80.6895,-116.3481 81.997,-103.4182"/>
<polygon fill="#ffa500" stroke="#ffa500" points="73.0507,-157.1009 75.5267,-167.4024 80.0152,-157.8053 73.0507,-157.1009"/>
<text text-anchor="middle" x="96" y="-135.5" font-family="Helvetica,sans-Serif" font-size="10.00" fill="#000000"> &lt; 2 &gt;</text>
</g>
<!-- Node4 -->
<g id="node4" class="node">
<title>Node4</title>
<g id="a_node4"><a xlink:href="classgko_1_1Array.html" target="_top" xlink:title=" ">
<polygon fill="#ffffff" stroke="#000000" points="161,-78.5 161,-108.5 295,-108.5 295,-78.5 161,-78.5"/>
<text text-anchor="start" x="169" y="-96.5" font-family="Helvetica,sans-Serif" font-size="10.00" fill="#000000">gko::Array&lt; gko::matrix</text>
<text text-anchor="middle" x="228" y="-85.5" font-family="Helvetica,sans-Serif" font-size="10.00" fill="#000000">_data_entry &gt;</text>
</a>
</g>
</g>
<!-- Node4&#45;&gt;Node1 -->
<g id="edge3" class="edge">
<title>Node4&#45;&gt;Node1</title>
<path fill="none" stroke="#9a32cd" stroke-dasharray="5,2" d="M204.8851,-71.2412C191.4315,-58.2859 174.8187,-42.2884 162.846,-30.7592"/>
<polygon fill="#9a32cd" stroke="#9a32cd" points="202.7514,-74.0455 212.3824,-78.4608 207.6069,-69.0032 202.7514,-74.0455"/>
<text text-anchor="middle" x="217" y="-52" font-family="Helvetica,sans-Serif" font-size="10.00" fill="#000000"> nonzeros</text>
</g>
<!-- Node5 -->
<g id="node5" class="node">
<title>Node5</title>
<g id="a_node5"><a xlink:href="classgko_1_1Array.html" target="_top" xlink:title="An Array is a container which encapsulates fixed&#45;sized arrays, stored on the Executor tied to the Arr...">
<polygon fill="#ffffff" stroke="#000000" points="166.5,-173 166.5,-192 305.5,-192 305.5,-173 166.5,-173"/>
<text text-anchor="middle" x="236" y="-180" font-family="Helvetica,sans-Serif" font-size="10.00" fill="#000000">gko::Array&lt; ValueType &gt;</text>
</a>
</g>
</g>
<!-- Node5&#45;&gt;Node4 -->
<g id="edge4" class="edge">
<title>Node5&#45;&gt;Node4</title>
<path fill="none" stroke="#ffa500" stroke-dasharray="5,2" d="M234.2365,-162.8808C232.7651,-146.5122 230.6989,-123.5251 229.3548,-108.5725"/>
<polygon fill="#ffa500" stroke="#ffa500" points="230.7626,-163.329 235.1439,-172.9754 237.7344,-162.7022 230.7626,-163.329"/>
<text text-anchor="start" x="233" y="-141" font-family="Helvetica,sans-Serif" font-size="10.00" fill="#000000"> &lt; gko::matrix_data</text>
<text text-anchor="middle" x="282" y="-130" font-family="Helvetica,sans-Serif" font-size="10.00" fill="#000000">_entry &gt;</text>
</g>
</g>
</svg>
