<?xml version="1.0" encoding="UTF-8" standalone="no"?>
<!DOCTYPE svg PUBLIC "-//W3C//DTD SVG 1.1//EN"
 "http://www.w3.org/Graphics/SVG/1.1/DTD/svg11.dtd">
<!-- Generated by graphviz version 2.40.1 (20161225.0304)
 -->
<!-- Title: gko::batch::solver::preconditioned_iterative_solver_factory_parameters Pages: 1 -->
<svg width="768pt" height="88pt"
 viewBox="0.00 0.00 768.00 88.00" xmlns="http://www.w3.org/2000/svg" xmlns:xlink="http://www.w3.org/1999/xlink">
<g id="graph0" class="graph" transform="scale(1 1) rotate(0) translate(4 84)">
<title>gko::batch::solver::preconditioned_iterative_solver_factory_parameters</title>
<polygon fill="#ffffff" stroke="transparent" points="-4,4 -4,-84 764,-84 764,4 -4,4"/>
<!-- Node1 -->
<g id="node1" class="node">
<title>Node1</title>
<g id="a_node1"><a xlink:title="The parameter type shared between all preconditioned iterative solvers, excluding the parameters avai...">
<polygon fill="#bfbfbf" stroke="#000000" points="607,-21 607,-62 760,-62 760,-21 607,-21"/>
<text text-anchor="start" x="615" y="-50" font-family="Helvetica,sans-Serif" font-size="10.00" fill="#000000">gko::batch::solver</text>
<text text-anchor="start" x="615" y="-39" font-family="Helvetica,sans-Serif" font-size="10.00" fill="#000000">::preconditioned_iterative</text>
<text text-anchor="middle" x="683.5" y="-28" font-family="Helvetica,sans-Serif" font-size="10.00" fill="#000000">_solver_factory_parameters</text>
</a>
</g>
</g>
<!-- Node2 -->
<g id="node2" class="node">
<title>Node2</title>
<g id="a_node2"><a xlink:title=" ">
<polygon fill="#ffffff" stroke="#bfbfbf" points="281,-49.5 281,-79.5 424,-79.5 424,-49.5 281,-49.5"/>
<text text-anchor="start" x="289" y="-67.5" font-family="Helvetica,sans-Serif" font-size="10.00" fill="#000000">std::shared_ptr&lt; const</text>
<text text-anchor="middle" x="352.5" y="-56.5" font-family="Helvetica,sans-Serif" font-size="10.00" fill="#000000"> gko::batch::BatchLinOp &gt;</text>
</a>
</g>
</g>
<!-- Node2&#45;&gt;Node1 -->
<g id="edge1" class="edge">
<title>Node2&#45;&gt;Node1</title>
<path fill="none" stroke="#9a32cd" stroke-dasharray="5,2" d="M434.322,-58.8145C487.0786,-55.1486 555.2296,-50.4131 606.9203,-46.8212"/>
<polygon fill="#9a32cd" stroke="#9a32cd" points="434.0554,-55.3245 424.3221,-59.5093 434.5407,-62.3076 434.0554,-55.3245"/>
<text text-anchor="middle" x="524.5" y="-58.5" font-family="Helvetica,sans-Serif" font-size="10.00" fill="#000000"> generated_preconditioner</text>
</g>
<!-- Node3 -->
<g id="node3" class="node">
<title>Node3</title>
<g id="a_node3"><a xlink:title="STL class.">
<polygon fill="#ffffff" stroke="#bfbfbf" points="0,-30 0,-49 118,-49 118,-30 0,-30"/>
<text text-anchor="middle" x="59" y="-37" font-family="Helvetica,sans-Serif" font-size="10.00" fill="#000000">std::shared_ptr&lt; T &gt;</text>
</a>
</g>
</g>
<!-- Node3&#45;&gt;Node2 -->
<g id="edge2" class="edge">
<title>Node3&#45;&gt;Node2</title>
<path fill="none" stroke="#ffa500" stroke-dasharray="5,2" d="M128.2141,-45.3956C174.181,-49.311 234.3865,-54.4392 280.8459,-58.3966"/>
<polygon fill="#ffa500" stroke="#ffa500" points="128.302,-41.8905 118.041,-44.529 127.7079,-48.8652 128.302,-41.8905"/>
<text text-anchor="start" x="143" y="-68.5" font-family="Helvetica,sans-Serif" font-size="10.00" fill="#000000"> &lt; const gko::batch</text>
<text text-anchor="middle" x="190.5" y="-57.5" font-family="Helvetica,sans-Serif" font-size="10.00" fill="#000000">::BatchLinOp &gt;</text>
</g>
<!-- Node4 -->
<g id="node4" class="node">
<title>Node4</title>
<g id="a_node4"><a xlink:title=" ">
<polygon fill="#ffffff" stroke="#bfbfbf" points="263,-.5 263,-30.5 442,-30.5 442,-.5 263,-.5"/>
<text text-anchor="start" x="271" y="-18.5" font-family="Helvetica,sans-Serif" font-size="10.00" fill="#000000">std::shared_ptr&lt; const</text>
<text text-anchor="middle" x="352.5" y="-7.5" font-family="Helvetica,sans-Serif" font-size="10.00" fill="#000000"> gko::batch::BatchLinOpFactory &gt;</text>
</a>
</g>
</g>
<!-- Node3&#45;&gt;Node4 -->
<g id="edge4" class="edge">
<title>Node3&#45;&gt;Node4</title>
<path fill="none" stroke="#ffa500" stroke-dasharray="5,2" d="M98.6683,-27.2919C110.5576,-24.1521 123.7062,-21.1861 136,-19.5 177.4346,-13.8173 223.743,-12.3182 262.8642,-12.4398"/>
<polygon fill="#ffa500" stroke="#ffa500" points="97.7369,-23.918 89.024,-29.9459 99.5942,-30.6671 97.7369,-23.918"/>
<text text-anchor="start" x="136" y="-33.5" font-family="Helvetica,sans-Serif" font-size="10.00" fill="#000000"> &lt; const gko::batch</text>
<text text-anchor="middle" x="190.5" y="-22.5" font-family="Helvetica,sans-Serif" font-size="10.00" fill="#000000">::BatchLinOpFactory &gt;</text>
</g>
<!-- Node4&#45;&gt;Node1 -->
<g id="edge3" class="edge">
<title>Node4&#45;&gt;Node1</title>
<path fill="none" stroke="#9a32cd" stroke-dasharray="5,2" d="M452.1068,-22.145C494.3434,-25.0962 544.0917,-28.748 589,-32.5 594.8303,-32.9871 600.8608,-33.5122 606.9238,-34.0553"/>
<polygon fill="#9a32cd" stroke="#9a32cd" points="452.3186,-18.6513 442.0999,-21.449 451.8329,-25.6345 452.3186,-18.6513"/>
<text text-anchor="middle" x="524.5" y="-35.5" font-family="Helvetica,sans-Serif" font-size="10.00" fill="#000000"> preconditioner</text>
</g>
</g>
</svg>
