<?xml version="1.0" encoding="UTF-8" standalone="no"?>
<!DOCTYPE svg PUBLIC "-//W3C//DTD SVG 1.1//EN"
 "http://www.w3.org/Graphics/SVG/1.1/DTD/svg11.dtd">
<!-- Generated by graphviz version 2.40.1 (20161225.0304)
 -->
<!-- Title: gko::solver::preconditioned_iterative_solver_factory_parameters Pages: 1 -->
<svg width="323pt" height="195pt"
 viewBox="0.00 0.00 322.50 195.00" xmlns="http://www.w3.org/2000/svg" xmlns:xlink="http://www.w3.org/1999/xlink">
<g id="graph0" class="graph" transform="scale(1 1) rotate(0) translate(4 191)">
<title>gko::solver::preconditioned_iterative_solver_factory_parameters</title>
<polygon fill="#ffffff" stroke="transparent" points="-4,4 -4,-191 318.5,-191 318.5,4 -4,4"/>
<!-- Node1 -->
<g id="node1" class="node">
<title>Node1</title>
<g id="a_node1"><a xlink:title="The parameter type shared between all preconditioned iterative solvers, excluding the parameters avai...">
<polygon fill="#bfbfbf" stroke="#000000" points="61,-.5 61,-41.5 210,-41.5 210,-.5 61,-.5"/>
<text text-anchor="start" x="69" y="-29.5" font-family="Helvetica,sans-Serif" font-size="10.00" fill="#000000">gko::solver::preconditioned</text>
<text text-anchor="start" x="69" y="-18.5" font-family="Helvetica,sans-Serif" font-size="10.00" fill="#000000">_iterative_solver_factory</text>
<text text-anchor="middle" x="135.5" y="-7.5" font-family="Helvetica,sans-Serif" font-size="10.00" fill="#000000">_parameters</text>
</a>
</g>
</g>
<!-- Node2 -->
<g id="node2" class="node">
<title>Node2</title>
<g id="a_node2"><a xlink:title=" ">
<polygon fill="#ffffff" stroke="#bfbfbf" points="0,-89.5 0,-119.5 127,-119.5 127,-89.5 0,-89.5"/>
<text text-anchor="start" x="8" y="-107.5" font-family="Helvetica,sans-Serif" font-size="10.00" fill="#000000">std::shared_ptr&lt; const</text>
<text text-anchor="middle" x="63.5" y="-96.5" font-family="Helvetica,sans-Serif" font-size="10.00" fill="#000000"> gko::LinOpFactory &gt;</text>
</a>
</g>
</g>
<!-- Node2&#45;&gt;Node1 -->
<g id="edge1" class="edge">
<title>Node2&#45;&gt;Node1</title>
<path fill="none" stroke="#9a32cd" stroke-dasharray="5,2" d="M83.3797,-81.4451C94.1501,-68.9544 107.3465,-53.6503 117.7658,-41.5668"/>
<polygon fill="#9a32cd" stroke="#9a32cd" points="80.5856,-79.3258 76.7059,-89.1848 85.8869,-83.8971 80.5856,-79.3258"/>
<text text-anchor="middle" x="139.5" y="-63" font-family="Helvetica,sans-Serif" font-size="10.00" fill="#000000"> preconditioner</text>
</g>
<!-- Node3 -->
<g id="node3" class="node">
<title>Node3</title>
<g id="a_node3"><a xlink:title="STL class.">
<polygon fill="#ffffff" stroke="#bfbfbf" points="76.5,-167.5 76.5,-186.5 194.5,-186.5 194.5,-167.5 76.5,-167.5"/>
<text text-anchor="middle" x="135.5" y="-174.5" font-family="Helvetica,sans-Serif" font-size="10.00" fill="#000000">std::shared_ptr&lt; T &gt;</text>
</a>
</g>
</g>
<!-- Node3&#45;&gt;Node2 -->
<g id="edge2" class="edge">
<title>Node3&#45;&gt;Node2</title>
<path fill="none" stroke="#ffa500" stroke-dasharray="5,2" d="M84.5777,-164.5448C70.8285,-160.1032 58.6034,-154.76 54.5,-149 48.4633,-140.526 51.0447,-128.9596 54.9619,-119.7429"/>
<polygon fill="#ffa500" stroke="#ffa500" points="83.6739,-167.928 94.2588,-167.4698 85.6985,-161.2271 83.6739,-167.928"/>
<text text-anchor="middle" x="125.5" y="-141" font-family="Helvetica,sans-Serif" font-size="10.00" fill="#000000"> &lt; const gko::LinOpFactory &gt;</text>
</g>
<!-- Node4 -->
<g id="node4" class="node">
<title>Node4</title>
<g id="a_node4"><a xlink:title=" ">
<polygon fill="#ffffff" stroke="#bfbfbf" points="150,-89.5 150,-119.5 277,-119.5 277,-89.5 150,-89.5"/>
<text text-anchor="start" x="158" y="-107.5" font-family="Helvetica,sans-Serif" font-size="10.00" fill="#000000">std::shared_ptr&lt; const</text>
<text text-anchor="middle" x="213.5" y="-96.5" font-family="Helvetica,sans-Serif" font-size="10.00" fill="#000000"> gko::LinOp &gt;</text>
</a>
</g>
</g>
<!-- Node3&#45;&gt;Node4 -->
<g id="edge4" class="edge">
<title>Node3&#45;&gt;Node4</title>
<path fill="none" stroke="#ffa500" stroke-dasharray="5,2" d="M177.739,-162.8994C184.6415,-159.193 191.2426,-154.6131 196.5,-149 204.0758,-140.9117 208.3785,-129.0984 210.7589,-119.6758"/>
<polygon fill="#ffa500" stroke="#ffa500" points="175.7594,-159.9657 168.2377,-167.4272 178.7708,-166.2848 175.7594,-159.9657"/>
<text text-anchor="middle" x="257" y="-141" font-family="Helvetica,sans-Serif" font-size="10.00" fill="#000000"> &lt; const gko::LinOp &gt;</text>
</g>
<!-- Node4&#45;&gt;Node1 -->
<g id="edge3" class="edge">
<title>Node4&#45;&gt;Node1</title>
<path fill="none" stroke="#9a32cd" stroke-dasharray="5,2" d="M195.1754,-81.4223C189.3688,-74.3965 182.8144,-66.7507 176.5,-60 170.7287,-53.8298 164.2079,-47.4039 158.0926,-41.5905"/>
<polygon fill="#9a32cd" stroke="#9a32cd" points="192.5591,-83.7523 201.5889,-89.2942 197.986,-79.3308 192.5591,-83.7523"/>
<text text-anchor="middle" x="250" y="-63" font-family="Helvetica,sans-Serif" font-size="10.00" fill="#000000"> generated_preconditioner</text>
</g>
</g>
</svg>
