<?xml version="1.0" encoding="UTF-8" standalone="no"?>
<!DOCTYPE svg PUBLIC "-//W3C//DTD SVG 1.1//EN"
 "http://www.w3.org/Graphics/SVG/1.1/DTD/svg11.dtd">
<!-- Generated by graphviz version 2.40.1 (20161225.0304)
 -->
<!-- Title: gko::experimental::distributed::preconditioner::Schwarz&lt; ValueType, LocalIndexType, GlobalIndexType &gt;::parameters_type Pages: 1 -->
<svg width="886pt" height="150pt"
 viewBox="0.00 0.00 886.00 149.50" xmlns="http://www.w3.org/2000/svg" xmlns:xlink="http://www.w3.org/1999/xlink">
<g id="graph0" class="graph" transform="scale(1 1) rotate(0) translate(4 145.5)">
<title>gko::experimental::distributed::preconditioner::Schwarz&lt; ValueType, LocalIndexType, GlobalIndexType &gt;::parameters_type</title>
<polygon fill="#ffffff" stroke="transparent" points="-4,4 -4,-145.5 882,-145.5 882,4 -4,4"/>
<!-- Node1 -->
<g id="node1" class="node">
<title>Node1</title>
<g id="a_node1"><a xlink:title=" ">
<polygon fill="#bfbfbf" stroke="#000000" points="651,-38.5 651,-90.5 878,-90.5 878,-38.5 651,-38.5"/>
<text text-anchor="start" x="659" y="-78.5" font-family="Helvetica,sans-Serif" font-size="10.00" fill="#000000">gko::experimental::</text>
<text text-anchor="start" x="659" y="-67.5" font-family="Helvetica,sans-Serif" font-size="10.00" fill="#000000">distributed::preconditioner</text>
<text text-anchor="start" x="659" y="-56.5" font-family="Helvetica,sans-Serif" font-size="10.00" fill="#000000">::Schwarz&lt; ValueType, LocalIndex</text>
<text text-anchor="middle" x="764.5" y="-45.5" font-family="Helvetica,sans-Serif" font-size="10.00" fill="#000000">Type, GlobalIndexType &gt;::parameters_type</text>
</a>
</g>
</g>
<!-- Node2 -->
<g id="node2" class="node">
<title>Node2</title>
<g id="a_node2"><a xlink:href="classgko_1_1enable__parameters__type.html" target="_top" xlink:title=" ">
<polygon fill="#ffffff" stroke="#000000" points="357,-99 357,-140 498,-140 498,-99 357,-99"/>
<text text-anchor="start" x="365" y="-128" font-family="Helvetica,sans-Serif" font-size="10.00" fill="#000000">gko::enable_parameters</text>
<text text-anchor="start" x="365" y="-117" font-family="Helvetica,sans-Serif" font-size="10.00" fill="#000000">_type&lt; parameters_type,</text>
<text text-anchor="middle" x="427.5" y="-106" font-family="Helvetica,sans-Serif" font-size="10.00" fill="#000000"> Factory &gt;</text>
</a>
</g>
</g>
<!-- Node2&#45;&gt;Node1 -->
<g id="edge1" class="edge">
<title>Node2&#45;&gt;Node1</title>
<path fill="none" stroke="#191970" d="M508.2058,-106.3284C550.9051,-99.3597 604.0413,-90.6876 650.8421,-83.0495"/>
<polygon fill="#191970" stroke="#191970" points="507.4519,-102.9051 498.1462,-107.9702 508.5795,-109.8137 507.4519,-102.9051"/>
</g>
<!-- Node3 -->
<g id="node3" class="node">
<title>Node3</title>
<g id="a_node3"><a xlink:href="classgko_1_1enable__parameters__type.html" target="_top" xlink:title="The enable_parameters_type mixin is used to create a base implementation of the factory parameters st...">
<polygon fill="#ffffff" stroke="#000000" points="0,-99 0,-140 179,-140 179,-99 0,-99"/>
<text text-anchor="start" x="8" y="-128" font-family="Helvetica,sans-Serif" font-size="10.00" fill="#000000">gko::enable_parameters</text>
<text text-anchor="start" x="8" y="-117" font-family="Helvetica,sans-Serif" font-size="10.00" fill="#000000">_type&lt; ConcreteParametersType,</text>
<text text-anchor="middle" x="89.5" y="-106" font-family="Helvetica,sans-Serif" font-size="10.00" fill="#000000"> Factory &gt;</text>
</a>
</g>
</g>
<!-- Node3&#45;&gt;Node2 -->
<g id="edge2" class="edge">
<title>Node3&#45;&gt;Node2</title>
<path fill="none" stroke="#ffa500" stroke-dasharray="5,2" d="M189.4527,-119.5C243.2963,-119.5 308.4325,-119.5 356.9488,-119.5"/>
<polygon fill="#ffa500" stroke="#ffa500" points="189.1904,-116.0001 179.1904,-119.5 189.1904,-123.0001 189.1904,-116.0001"/>
<text text-anchor="start" x="217.5" y="-133.5" font-family="Helvetica,sans-Serif" font-size="10.00" fill="#000000"> &lt; parameters_type,</text>
<text text-anchor="middle" x="268" y="-122.5" font-family="Helvetica,sans-Serif" font-size="10.00" fill="#000000"> Factory &gt;</text>
</g>
<!-- Node4 -->
<g id="node4" class="node">
<title>Node4</title>
<g id="a_node4"><a xlink:title=" ">
<polygon fill="#ffffff" stroke="#bfbfbf" points="364,-49.5 364,-79.5 491,-79.5 491,-49.5 364,-49.5"/>
<text text-anchor="start" x="372" y="-67.5" font-family="Helvetica,sans-Serif" font-size="10.00" fill="#000000">std::shared_ptr&lt; const</text>
<text text-anchor="middle" x="427.5" y="-56.5" font-family="Helvetica,sans-Serif" font-size="10.00" fill="#000000"> gko::LinOpFactory &gt;</text>
</a>
</g>
</g>
<!-- Node4&#45;&gt;Node1 -->
<g id="edge3" class="edge">
<title>Node4&#45;&gt;Node1</title>
<path fill="none" stroke="#9a32cd" stroke-dasharray="5,2" d="M501.551,-64.5C545.2906,-64.5 601.5722,-64.5 650.8353,-64.5"/>
<polygon fill="#9a32cd" stroke="#9a32cd" points="501.2833,-61.0001 491.2833,-64.5 501.2833,-68.0001 501.2833,-61.0001"/>
<text text-anchor="middle" x="574.5" y="-67.5" font-family="Helvetica,sans-Serif" font-size="10.00" fill="#000000"> local_solver</text>
</g>
<!-- Node5 -->
<g id="node5" class="node">
<title>Node5</title>
<g id="a_node5"><a xlink:title="STL class.">
<polygon fill="#ffffff" stroke="#bfbfbf" points="30.5,-29 30.5,-48 148.5,-48 148.5,-29 30.5,-29"/>
<text text-anchor="middle" x="89.5" y="-36" font-family="Helvetica,sans-Serif" font-size="10.00" fill="#000000">std::shared_ptr&lt; T &gt;</text>
</a>
</g>
</g>
<!-- Node5&#45;&gt;Node4 -->
<g id="edge4" class="edge">
<title>Node5&#45;&gt;Node4</title>
<path fill="none" stroke="#ffa500" stroke-dasharray="5,2" d="M158.9393,-43.8415C219.1571,-48.4736 305.5842,-55.1219 363.9942,-59.6149"/>
<polygon fill="#ffa500" stroke="#ffa500" points="159.0009,-40.336 148.7619,-43.0586 158.464,-47.3154 159.0009,-40.336"/>
<text text-anchor="middle" x="268" y="-60.5" font-family="Helvetica,sans-Serif" font-size="10.00" fill="#000000"> &lt; const gko::LinOpFactory &gt;</text>
</g>
<!-- Node6 -->
<g id="node6" class="node">
<title>Node6</title>
<g id="a_node6"><a xlink:title=" ">
<polygon fill="#ffffff" stroke="#bfbfbf" points="364,-.5 364,-30.5 491,-30.5 491,-.5 364,-.5"/>
<text text-anchor="start" x="372" y="-18.5" font-family="Helvetica,sans-Serif" font-size="10.00" fill="#000000">std::shared_ptr&lt; const</text>
<text text-anchor="middle" x="427.5" y="-7.5" font-family="Helvetica,sans-Serif" font-size="10.00" fill="#000000"> gko::LinOp &gt;</text>
</a>
</g>
</g>
<!-- Node5&#45;&gt;Node6 -->
<g id="edge6" class="edge">
<title>Node5&#45;&gt;Node6</title>
<path fill="none" stroke="#ffa500" stroke-dasharray="5,2" d="M158.632,-28.5594C171.3697,-26.9947 184.5696,-25.5499 197,-24.5 253.2671,-19.7474 317.477,-17.4999 363.8109,-16.4396"/>
<polygon fill="#ffa500" stroke="#ffa500" points="158.0215,-25.1086 148.5392,-29.8348 158.8992,-32.0534 158.0215,-25.1086"/>
<text text-anchor="middle" x="268" y="-27.5" font-family="Helvetica,sans-Serif" font-size="10.00" fill="#000000"> &lt; const gko::LinOp &gt;</text>
</g>
<!-- Node6&#45;&gt;Node1 -->
<g id="edge5" class="edge">
<title>Node6&#45;&gt;Node1</title>
<path fill="none" stroke="#9a32cd" stroke-dasharray="5,2" d="M501.2744,-26.2268C545.0531,-32.5923 601.4682,-40.7951 650.8353,-47.9731"/>
<polygon fill="#9a32cd" stroke="#9a32cd" points="501.6829,-22.7495 491.2833,-24.7741 500.6756,-29.6767 501.6829,-22.7495"/>
<text text-anchor="middle" x="574.5" y="-47.5" font-family="Helvetica,sans-Serif" font-size="10.00" fill="#000000"> generated_local_solver</text>
</g>
</g>
</svg>
